<?xml version="1.0" encoding="utf-8"?>
<svg version="1.1" viewBox="0 0 1200 1200" xmlns="http://www.w3.org/2000/svg" width="150pt" height="150pt">
  <path d="m657.14 866.95 0.70312-0.42188c0.60938-0.28125 1.1719-0.5625 1.7812-0.79688 9-4.4531 17.672-9.3281 26.016-14.672 0.42188-0.28125 0.89062-0.60938 1.3594-0.84375 10.734-6.9375 20.953-14.578 30.516-22.922 0.375-0.375 0.79688-0.70312 1.1719-1.0312 15.609-13.641 29.531-29.016 41.625-45.75 12.094-16.781 22.312-34.922 30.422-54.094 0.14062-0.375 0.28125-0.75 0.46875-1.0781 15.891-38.203 23.297-80.438 20.156-123.94-0.14062-0.84375-0.23438-1.7344-0.23438-2.5781v-0.1875c-0.60938-7.1719-1.4531-14.391-2.625-21.656-3.6562-22.688-10.031-44.25-18.703-64.453-0.375-0.70312-0.70312-1.4062-0.9375-2.2031-19.875-45.141-51.328-83.25-90.141-111.23-19.031-13.734-39.797-25.031-61.781-33.516-0.28125-0.09375-0.5625-0.23438-0.84375-0.32812-34.641-13.219-72.375-19.547-111.19-17.484-0.70312 0.09375-1.4062 0.14062-2.1094 0.14062h-0.32812c-9.0469 0.5625-18.141 1.5469-27.234 3.0469-22.641 3.6562-44.203 10.031-64.359 18.656-0.60938 0.28125-1.2188 0.5625-1.8281 0.79688-45.328 19.828-83.578 51.422-111.7 90.328-40.922 56.719-60.234 129.05-48.188 203.53 3.8906 24.188 10.875 47.062 20.438 68.391 0.42188 0.70312 0.75 1.4531 1.0312 2.2969 12.797 27.797 30 52.875 50.672 74.438 0.75 0.65625 1.4531 1.3594 2.0625 2.1094 10.969 11.203 22.922 21.516 35.625 30.656 52.078 37.594 117.28 56.906 185.29 50.531 0.89062-0.1875 1.8281-0.28125 2.7188-0.28125 5.1562-0.51562 10.359-1.2188 15.562-2.0625 26.438-4.3125 51.516-12.328 74.578-23.391zm-301.69-255.19c6.8906-7.875 14.203-15.188 21.938-21.891 44.906-39.094 102.98-58.453 160.87-58.359 57.938 0.14062 115.78 19.734 160.36 58.5 7.7344 6.75 15.047 14.016 21.938 21.938 5.2031 6 5.0156 14.859-0.14063 20.625-6.8438 7.8281-14.109 15.094-21.797 21.75-44.531 38.812-102.42 58.406-160.36 58.5-57.891 0.09375-115.92-19.219-160.87-58.359-7.7812-6.75-15.141-14.109-22.078-22.078-5.1562-6-5.0156-14.859 0.14062-20.625zm224.44-31.547c10.734 10.734 17.391 25.547 17.391 41.953 0 16.359-6.6562 31.219-17.391 41.953s-25.547 17.344-41.906 17.344c-16.406 0-31.219-6.6094-41.953-17.344s-17.391-25.547-17.391-41.953c0-16.359 6.6562-31.219 17.391-41.953s25.547-17.344 41.953-17.344c16.359-0.046875 31.172 6.6094 41.906 17.344zm-120.1 87.516c-22.406-8.4375-43.453-20.672-61.922-36.75-3.2344-2.8125-6.4219-5.7656-9.4688-8.8125 3.0469-3.0469 6.2344-6 9.4688-8.8125 18.469-16.078 39.516-28.312 61.922-36.75-7.8281 13.359-12.281 28.922-12.281 45.562-0.046875 16.641 4.4531 32.156 12.281 45.562zm156.37-91.031c22.453 8.4844 43.547 20.766 62.016 36.797 3.1875 2.7656 6.2812 5.6719 9.3281 8.6719-3.0469 3-6.1406 5.9062-9.3281 8.6719-18.469 16.031-39.516 28.312-62.016 36.797 7.7812-13.359 12.234-28.922 12.234-45.469 0-16.594-4.4531-32.109-12.234-45.469zm-282.79-104.34c37.969-52.594 95.953-90.656 165.05-101.86 69-11.156 136.03 6.75 188.58 44.672 52.594 37.969 90.656 95.953 101.86 165.05 11.156 69-6.75 136.03-44.672 188.58-37.969 52.594-95.953 90.703-165.05 101.86-69 11.156-136.03-6.7031-188.58-44.672-52.594-37.969-90.703-95.953-101.86-165.05-11.156-69 6.75-135.98 44.672-188.58zm399.79-138c14.062 27.703 25.734 56.578 34.969 86.25-15.328-17.531-32.531-33.188-51.281-46.734-10.078-7.2656-20.578-13.922-31.453-19.922 16.172-5.6719 32.109-12.188 47.766-19.594zm260.44 605.39c-6.9844-5.0156-8.5312-14.719-3.5156-21.656 5.0156-6.9844 14.719-8.5312 21.656-3.5156l114.09 82.312c6.9844 5.0156 8.5312 14.719 3.5156 21.656-5.0156 6.9375-14.719 8.5312-21.656 3.5156zm-26.812 37.219 114.09 82.359c6.9844 5.0156 16.641 3.4219 21.656-3.5156 5.0156-6.9844 3.4219-16.641-3.5156-21.656l-114.09-82.312c-6.9844-5.0156-16.641-3.4219-21.656 3.5156-5.0156 6.8906-3.4688 16.594 3.5156 21.609zm-463.5-575.76c60.609-9.7969 119.48 5.9062 165.61 39.188 46.078 33.281 79.5 84.141 89.297 144.71 9.7969 60.609-5.9062 119.48-39.188 165.56s-84.141 79.5-144.71 89.297c-60.609 9.7969-119.48-5.9062-165.61-39.188-46.078-33.281-79.547-84.141-89.297-144.71-9.7969-60.609 5.9062-119.48 39.188-165.61 33.281-46.031 84.141-79.453 144.71-89.25zm-227.53 66.422c-34.219 58.734-49.031 129.19-37.359 201.47 3.375 20.812 8.7656 40.734 15.938 59.719l-37.5-21.656 12.703-47.344c1.0312-3.8438 0.60938-8.1094-1.5469-11.812l-42.516-73.594h-0.046874c-4.2656-7.4062-13.734-9.9375-21.141-5.6719l-49.922 28.828h-83.109c0.046876-10.922 0.375-21.469 1.0781-31.734 0.375-5.3906 0.79687-10.734 1.3125-15.984 21.797 9.6094 45.609 11.719 67.969 7.125 26.25-5.3906 50.578-20.109 67.594-43.031 2.5781-3.4688 4.9688-7.0781 7.0781-10.828 11.25-19.5 29.344-32.531 49.453-37.922 16.219-4.4062 33.703-3.7969 50.016 2.4375zm-94.266-222.56c32.016 29.953 66.703 55.031 103.22 75.141-18.094 34.922-32.906 72.141-43.969 111.19-7.7812 0.42188-15.516 1.6406-23.016 3.6562-27.469 7.3594-52.172 25.078-67.734 51.422-0.42188 0.60938-0.79688 1.2656-1.0781 1.875-1.4531 2.4844-3.0469 4.8281-4.6406 7.0312-12.281 16.594-29.859 27.234-48.844 31.125-19.031 3.8906-39.375 1.125-57.188-9.1406l-0.23438-0.14062c17.719-106.08 69.375-200.68 143.48-272.16zm90.797 189.1c10.266-34.969 23.766-68.391 40.078-99.797 22.219 10.5 45.047 19.266 68.156 26.297-34.453 21-64.078 48.516-87.516 80.531-6.75-3.0469-13.688-5.3906-20.719-7.0312zm55.219-127.03c30.609 14.297 62.391 25.078 94.734 32.344 21.422-8.8594 44.156-15.375 68.016-19.266 5.625-0.89062 11.25-1.6406 16.875-2.25l0.046876-192.1c-51.703 30.516-97.875 70.875-136.36 118.78-15.797 19.594-30.234 40.5-43.312 62.484zm146.72-197.44c-102.33 10.031-195.47 51.422-269.58 114.42 29.578 27.469 61.594 50.438 95.156 68.906 14.062-23.906 29.719-46.594 46.828-67.875 36.469-45.422 79.547-84.516 127.6-115.45zm168.66 224.95c25.641-6.9375 50.859-16.172 75.422-27.656-6.7969-11.672-14.062-23.109-21.75-34.219-40.312-58.266-93.047-108.84-158.16-146.95v190.5c36.281-0.14062 71.578 6.3281 104.48 18.328zm198-110.53c-27.422 25.406-56.906 47.016-87.938 64.828-2.2969 1.3125-4.5938 2.625-6.9375 3.8906-7.4531-12.891-15.422-25.453-23.906-37.781-39.141-56.578-89.297-106.31-150.47-145.4 102.14 10.125 195.14 51.516 269.26 114.47zm173.11 359.11h-173.21c-0.46875-3.7031-0.98438-7.4062-1.5938-11.109-4.0312-24.984-11.016-48.75-20.531-71.016-9.75-62.859-29.016-124.18-57.797-180.84 2.5312-1.4062 5.0156-2.8125 7.5469-4.2656 33.656-19.312 65.766-42.984 95.578-70.922l6.3281 6.1875c85.5 85.547 139.64 202.45 143.68 331.97zm-244.64 362.53c-19.453 3.2812-39.891 1.4531-59.156-6.0469-0.51562-0.1875-1.0781-0.375-1.5938-0.65625-4.7812-1.9219-9.4688-4.2188-14.062-6.8906-9.375-5.4375-17.672-11.953-24.75-19.266-3.8906-4.0312-7.4531-8.2969-10.641-12.75-22.547 9.6562-46.594 16.781-71.906 20.859-4.3594 0.70312-8.7188 1.3125-13.031 1.8281l-32.156 32.156-0.046875-0.046875c-4.875 4.875-12.562 6.0469-18.797 2.4375l-31.594-18.234-77.156 44.531v67.312h-0.046875c0 5.3438-2.7656 10.594-7.7344 13.453l-14.391 8.2969c41.531 11.391 85.266 17.484 130.45 17.484 67.734 0 132.19-13.734 190.78-38.484 15.656-6.6094 30.938-14.016 45.703-22.172l-3.4219-3.4219c-4.2656-4.3125-5.5312-10.453-3.7969-15.844zm-497.81 75.609v-80.109l66.328-38.297c5.2031-2.5312 8.7656-7.8281 8.7656-14.016v-32.344c4.5938 3.75 9.2812 7.3125 14.062 10.781 32.062 23.156 68.625 40.078 107.67 49.359l-76.266 44.016c-5.2031 2.5312-8.7656 7.875-8.7656 14.016v67.312l-30.984 17.859c-28.266-10.406-55.266-23.391-80.812-38.578zm-239.39-392.63h86.25c3.375 0 6.4688-1.0781 9.0469-2.8594l38.859-22.453 31.5 54.562-14.109 52.641c-1.9219 7.2188 1.5469 14.578 7.9219 17.859l54 31.172c3.7031 2.1562 7.9688 2.5781 11.812 1.5469v0.046875l10.078-2.7188c12.844 25.312 29.062 48.375 48 68.766v52.594l-67.359 38.859c-4.9688 2.8594-7.7344 8.1094-7.7812 13.453h-0.046874v68.859c-23.297-16.359-45.094-34.688-65.156-54.797-82.312-82.266-135.56-193.74-143.02-317.53zm927.52 195.42-47.859-34.547c-6.9844-5.0156-16.641-3.4219-21.656 3.5156l-31.266 43.359c-7.1719 4.5-13.875 9.8438-19.969 15.938-6.6562 6.7031-12.562 14.391-17.578 23.062h-0.046874c-5.9062 10.172-13.641 18.609-22.594 25.125-6.75-4.5469-13.641-8.9062-20.578-13.125 3.7031-0.75 7.0781-2.8594 9.4688-6.1406l77.016-106.69c5.0156-6.9844 3.4219-16.641-3.5156-21.656l-36.938-26.672c13.031-35.109 19.734-72.938 18.891-111.94h171c-1.1719 37.547-6.5156 73.922-15.562 108.7-9.2344 35.344-22.312 69.188-38.812 101.06zm-197.72 19.5-9.2344-6.6562c12-11.859 22.969-24.703 32.812-38.344s18.562-28.078 26.016-43.172l18.797 13.594-58.828 81.516-8.1562-5.9062c-0.42188-0.375-0.89062-0.70312-1.4062-1.0312zm-35.531 16.547c0.84375-0.70312 1.7344-1.3594 2.5312-2.0156l4.875 3.5156-0.79688 1.5938c-2.1562-1.0781-4.3594-2.1094-6.6094-3.0938zm13.219 55.219c2.1562-3.5625 4.2656-7.125 6.375-10.688 6 3.2812 11.953 6.75 17.859 10.359-7.9688 1.3125-16.172 1.4531-24.234 0.32812zm-52.031-29.344c2.9531-1.6406 5.8594-3.3281 8.7188-5.0625 7.3594 3 14.672 6.1875 21.891 9.5625-2.8125 4.8281-5.7188 9.6562-8.6719 14.391-6.4688-3.7969-12.234-8.3906-17.297-13.641-1.6406-1.6875-3.1875-3.4219-4.6406-5.25zm132.19 37.641c-4.7344 3.6562-9.7031 6.9375-14.906 9.75l-20.672 77.109 2.6719 2.6719c26.953-17.25 52.078-37.031 75.141-59.016zm62.578-66.75c-0.09375 0.14062-0.23437 0.28125-0.32812 0.46875l-34.594 47.953 32.156 23.203 58.828-81.516-32.156-23.203zm22.406 89.812 186.42 134.53c17.672 12.75 36.328 10.641 50.766 1.0781 6-3.9844 11.344-9.1875 15.609-15.094 4.2656-5.9062 7.5469-12.609 9.4219-19.641 4.5469-16.688 0.65625-35.109-16.922-47.766l-186.47-134.63z" fill-rule="evenodd"/>
</svg>