<?xml version="1.0" encoding="utf-8"?>
<svg version="1.1" viewBox="0 0 1200 1200" xmlns="http://www.w3.org/2000/svg" width="150pt" height="150pt">
  <path d="M 305.823 650.144 L 303.086 650.144 L 302.97 650.087 L 302.855 650.087 L 302.4 649.974 L 302.229 649.917 L 302.001 649.802 L 301.773 649.745 L 301.543 649.632 C 301.43 649.574 301.314 649.517 301.145 649.46 L 300.003 648.89 L 299.833 648.775 L 299.719 648.719 L 299.605 648.605 L 299.431 648.49 L 299.204 648.375 L 299.033 648.205 L 298.804 648.035 L 298.291 647.519 C 294.583 643.812 294.583 637.762 298.291 633.996 L 360.716 571.573 L 311.758 522.615 L 311.071 524.327 C 308.389 530.889 304.34 537.051 299.031 542.357 C 288.248 553.141 274.097 558.561 259.945 558.561 C 245.795 558.561 231.643 553.141 220.86 542.357 C 210.075 531.572 204.655 517.421 204.655 503.27 C 204.655 489.119 210.075 474.97 220.86 464.184 C 226.166 458.878 232.329 454.884 238.89 452.145 L 240.602 451.461 L 190.33 401.188 L 19.886 571.635 L 82.31 634.061 C 82.48 634.231 82.652 634.402 82.822 634.63 C 84.593 636.342 85.735 638.795 85.735 641.477 C 85.735 646.728 81.454 651.006 76.205 651.006 C 71.468 651.006 66.731 651.92 62.224 653.745 C 57.945 655.514 53.952 658.139 50.413 661.619 C 43.338 668.695 39.8 677.939 39.8 687.241 C 39.8 696.485 43.338 705.784 50.413 712.861 C 57.489 719.936 66.731 723.475 76.033 723.475 C 85.277 723.475 94.578 719.936 101.652 712.861 C 105.134 709.379 107.817 705.329 109.528 701.049 C 111.011 697.396 111.925 693.575 112.153 689.693 C 110.898 686.326 111.642 682.39 114.378 679.651 C 118.088 675.943 124.137 675.943 127.903 679.651 L 190.327 742.075 L 252.751 679.651 C 256.459 675.943 262.508 675.943 266.273 679.651 C 266.387 679.765 266.503 679.879 266.615 680.052 L 266.786 680.222 L 266.901 680.394 L 267.072 680.564 L 267.188 680.794 L 267.357 681.021 L 267.586 681.478 L 267.699 681.649 L 268.386 683.018 L 268.442 683.189 L 268.498 683.418 L 268.614 683.644 L 268.784 684.33 L 268.784 684.444 L 268.84 684.558 L 268.84 685.245 L 268.898 685.472 L 268.898 687.241 C 268.956 691.747 269.869 696.313 271.637 700.538 C 273.406 704.814 276.031 708.81 279.511 712.348 C 286.586 719.423 295.83 722.959 305.132 722.959 C 314.375 722.959 323.676 719.423 330.751 712.348 C 337.828 705.272 341.365 696.028 341.365 686.727 C 341.365 677.483 337.827 668.182 330.751 661.106 C 327.27 657.626 323.221 654.944 318.94 653.232 C 314.661 651.463 310.153 650.551 305.646 650.494 L 305.823 650.144 Z M 489.733 834.114 C 494.241 834.173 498.805 835.085 503.028 836.855 C 507.308 838.623 511.302 841.249 514.841 844.728 C 521.916 851.805 525.454 861.048 525.454 870.35 C 525.454 879.594 521.916 888.895 514.841 895.97 C 507.764 903.045 498.521 906.582 489.221 906.582 C 479.976 906.582 470.675 903.044 463.6 895.97 C 460.12 892.488 457.437 888.437 455.725 884.159 C 453.955 879.88 453.044 875.37 452.985 870.862 C 453.156 868.18 452.244 865.499 450.189 863.445 C 446.481 859.738 440.432 859.738 436.666 863.445 L 374.241 925.869 L 311.818 863.445 C 308.109 859.738 302.061 859.738 298.294 863.445 C 295.556 866.183 294.813 870.12 296.068 873.488 C 295.783 877.368 294.928 881.19 293.445 884.843 C 291.676 889.121 289.051 893.116 285.569 896.654 C 278.494 903.728 269.251 907.267 259.949 907.267 C 250.706 907.267 241.406 903.728 234.33 896.654 C 227.252 889.577 223.715 880.335 223.715 871.034 C 223.715 861.791 227.254 852.489 234.33 845.413 C 237.81 841.932 241.861 839.25 246.142 837.538 C 250.591 835.713 255.384 834.8 260.121 834.8 C 265.369 834.8 269.65 830.576 269.65 825.27 C 269.65 822.589 268.566 820.135 266.739 818.424 C 266.569 818.253 266.396 818.023 266.226 817.853 L 203.802 755.429 L 253.445 705.786 L 254.129 707.498 C 256.809 714.059 260.861 720.222 266.168 725.528 C 276.953 736.312 291.104 741.733 305.255 741.733 C 319.408 741.733 333.558 736.311 344.341 725.528 C 355.125 714.743 360.545 700.594 360.545 686.443 C 360.545 672.291 355.124 658.139 344.341 647.356 C 339.033 642.048 332.871 638.054 326.31 635.316 L 324.598 634.631 L 374.241 584.989 L 424.512 635.259 L 422.799 635.944 C 416.237 638.626 410.075 642.678 404.77 647.985 C 393.985 658.768 388.565 672.918 388.565 687.07 C 388.565 701.221 393.986 715.372 404.77 726.157 C 415.554 736.941 429.705 742.361 443.856 742.361 C 458.007 742.361 472.158 736.941 482.941 726.157 C 488.25 720.849 492.243 714.688 494.982 708.126 L 495.668 706.414 L 544.625 755.373 L 482.202 817.797 C 478.491 821.506 478.491 827.555 482.202 831.321 C 484.256 833.374 486.938 834.287 489.618 834.114 L 489.733 834.114 Z M 489.733 466.235 C 494.241 466.292 498.805 467.205 503.028 468.975 C 507.308 470.744 511.302 473.367 514.841 476.848 C 521.916 483.923 525.454 493.169 525.454 502.468 C 525.454 511.713 521.916 521.013 514.841 528.09 C 507.764 535.166 498.521 538.704 489.221 538.704 C 479.976 538.704 470.675 535.164 463.6 528.09 C 460.12 524.608 457.437 520.557 455.725 516.278 C 453.955 512 453.044 507.49 452.985 502.984 C 453.156 500.302 452.244 497.619 450.189 495.563 C 446.481 491.855 440.432 491.855 436.666 495.563 L 374.241 557.99 L 311.818 495.563 C 308.109 491.855 302.061 491.855 298.294 495.563 C 295.556 498.304 294.813 502.24 296.068 505.606 C 295.783 509.487 294.928 513.31 293.445 516.964 C 291.676 521.243 289.051 525.237 285.569 528.776 C 278.494 535.85 269.251 539.387 259.949 539.387 C 250.706 539.387 241.406 535.85 234.33 528.776 C 227.252 521.699 223.715 512.454 223.715 503.155 C 223.715 493.909 227.254 484.609 234.33 477.533 C 237.81 474.053 241.861 471.372 246.142 469.659 C 250.422 467.891 254.929 466.978 259.436 466.919 C 262.118 467.09 264.801 466.179 266.854 464.124 C 270.563 460.415 270.563 454.368 266.854 450.602 L 203.802 387.549 L 374.247 217.102 L 424.519 267.373 L 422.806 268.057 C 416.245 270.74 410.083 274.793 404.775 280.097 C 393.993 290.882 388.572 305.033 388.572 319.183 C 388.572 333.335 393.993 347.486 404.775 358.27 C 415.56 369.054 429.711 374.474 443.862 374.474 C 458.014 374.474 472.165 369.054 482.948 358.27 C 488.256 352.965 492.248 346.802 494.99 340.241 L 495.673 338.527 L 544.631 387.487 L 482.209 449.91 C 478.498 453.619 478.498 459.669 482.209 463.433 C 484.262 465.489 486.945 466.401 489.626 466.23 L 489.733 466.235 Z M 704.902 316.337 C 705.988 317.42 707.071 318.505 708.211 319.589 C 708.44 319.76 708.612 319.99 708.782 320.161 C 722.247 333.626 735.657 347.493 748.212 360.558 C 771.321 384.527 791.694 405.696 804.302 415.511 C 816.571 414.027 827.926 412.828 839.167 413.171 C 815.715 393.827 797.226 375.795 780.566 359.648 C 760.366 339.962 742.905 323.013 722.649 309.775 C 709.867 301.388 701.708 298.592 697.258 299.335 C 696.972 299.391 697.029 299.107 696.972 299.22 C 696.857 299.391 696.8 299.96 696.857 300.873 C 697.085 305.156 699.882 310.86 704.903 316.337 L 704.902 316.337 Z M 778.853 418.647 C 763.847 420.188 747.013 421.216 727.156 419.96 L 726.87 419.732 C 696.058 393.085 640.368 344.868 620.965 311.147 C 615.602 301.844 613.547 290.775 615.031 282.558 C 615.545 279.762 616.459 277.481 617.714 276.054 C 618.514 275.139 619.653 274.511 621.08 274.454 C 625.073 274.227 630.951 276.623 638.998 282.729 C 654.973 294.941 673.007 311.714 691.151 329.634 C 692.463 331.059 693.833 332.428 695.259 333.741 C 708.612 347.095 721.966 360.958 734.516 373.969 C 751.179 391.258 766.414 407.121 778.797 418.705 L 778.853 418.647 Z M 803.504 434.852 C 845.558 429.603 874.658 427.663 932.575 486.435 C 1013.94 569.002 1055.89 588.176 1151.61 631.939 C 1155.91 633.879 1142.51 627.773 1170.35 640.556 C 1175.12 642.78 1180.78 640.668 1183.01 635.875 C 1185.22 631.083 1183.11 625.434 1178.34 623.208 C 1163.44 616.361 1175.93 622.123 1159.55 614.65 C 1066.03 571.911 1025.06 553.14 946.096 473.031 C 923.097 449.691 904.152 434.97 887.091 426.01 C 845.666 396.397 817.877 369.35 793.912 346.07 C 772.912 325.639 754.825 308.066 733.139 293.857 C 715.909 282.559 702.954 279.135 694.225 280.563 C 688.461 281.475 684.239 284.272 681.385 288.379 C 680.587 289.521 679.96 290.718 679.446 291.974 C 669.519 282.846 659.817 274.512 650.687 267.554 C 638.647 258.367 628.377 254.886 619.987 255.343 C 613.083 255.741 607.605 258.652 603.496 263.331 C 599.846 267.496 597.505 272.917 596.364 279.024 C 594.082 291.405 596.936 307.498 604.468 320.62 C 617.248 342.816 643.438 369.862 669.174 393.831 L 627.292 374.599 C 622.498 372.374 616.85 374.486 614.623 379.278 L 573.824 468.18 C 571.601 472.972 573.71 478.623 578.503 480.846 C 581.072 482.045 583.869 481.989 586.265 480.962 C 590.602 479.42 595.224 478.678 599.845 478.851 C 604.467 479.022 609.145 480.106 613.653 482.16 C 622.783 486.384 629.346 493.8 632.541 502.474 C 635.737 511.149 635.622 521.075 631.457 530.148 C 627.292 539.279 619.816 545.783 611.142 549.035 C 602.469 552.231 592.598 552.117 583.469 547.95 C 578.961 545.897 575.081 543.045 571.942 539.676 C 568.805 536.253 566.352 532.317 564.696 528.036 C 563.898 525.525 562.127 523.358 559.561 522.16 C 554.768 519.934 549.118 522.046 546.894 526.84 L 506.095 615.739 C 503.869 620.533 505.98 626.182 510.773 628.407 L 583.241 661.672 C 582.784 662.074 582.327 662.471 581.87 662.928 C 576.622 667.779 572.284 673.657 569.146 680.447 C 562.814 694.313 562.643 709.431 567.606 722.786 C 572.456 735.909 582.269 747.206 595.85 753.598 L 596.364 753.825 C 610.231 760.16 625.35 760.332 638.646 755.366 C 651.941 750.461 663.296 740.474 669.63 726.665 C 672.768 719.816 674.424 712.686 674.652 705.552 C 674.652 704.924 674.708 704.354 674.708 703.727 L 747.174 736.992 C 751.968 739.219 757.617 737.106 759.841 732.314 L 797.504 650.317 C 798.816 651.858 800.127 653.456 801.384 654.997 C 807.659 662.586 813.822 670.06 823.238 677.992 C 850.855 701.33 875.848 714.91 903.008 721.587 C 929.94 728.205 958.468 727.977 993.448 723.814 C 1011.24 721.701 1059.75 744.753 1089.77 759.077 C 1095.82 761.985 1101.23 764.555 1104.25 765.923 C 1109.06 768.149 1114.71 766.037 1116.93 761.244 C 1119.15 756.451 1117.04 750.802 1112.25 748.577 C 1107.29 746.295 1102.89 744.182 1098.05 741.901 C 1066.08 726.722 1014.5 702.129 991.221 704.924 C 958.468 708.805 931.994 709.09 907.63 703.099 C 883.436 697.165 860.896 684.84 835.618 663.499 C 827.288 656.424 821.75 649.749 816.104 642.956 C 811.767 637.708 807.374 632.401 801.838 626.865 C 801.723 626.695 801.554 626.581 801.44 626.466 C 788.715 613.741 769.942 599.819 732.396 582.586 C 702.21 568.719 689.258 553.087 687.319 539.906 C 686.691 535.741 687.26 531.861 688.745 528.437 C 690.284 524.956 692.739 521.931 695.992 519.534 C 704.72 513.029 718.587 511.318 733.137 517.996 L 827.858 561.475 L 868.029 579.906 C 872.822 582.133 878.47 580.021 880.696 575.228 C 882.922 570.433 880.811 564.784 876.019 562.561 L 844.577 548.124 L 868.486 496.084 C 870.711 491.293 868.6 485.641 863.807 483.418 L 767.204 439.08 C 779.243 438.283 790.027 436.912 800.127 435.601 L 802.352 435.314 C 802.809 435.314 803.21 435.257 803.667 435.142 L 803.504 434.852 Z" fill-rule="evenodd"/>
</svg>