<?xml version="1.0" encoding="utf-8"?>
<svg version="1.1" viewBox="0 0 1200 1200" xmlns="http://www.w3.org/2000/svg" width="150pt" height="150pt">
  <path d="M 619.935 155.584 C 638.681 155.584 655.638 163.17 667.91 175.441 C 680.181 187.713 687.768 204.671 687.768 223.417 C 687.768 242.164 680.182 259.122 667.91 271.393 C 655.638 283.664 638.681 291.25 619.935 291.25 C 601.188 291.25 584.23 283.664 571.959 271.393 C 559.687 259.121 552.102 242.164 552.102 223.417 C 552.102 204.671 559.686 187.712 571.959 175.441 C 584.23 163.17 601.188 155.584 619.935 155.584 Z M 580.123 435.274 L 627.568 414.161 C 638.438 409.328 648.39 402.276 657.426 392.952 L 657.571 392.806 C 672.742 377.248 702.986 346.184 716.708 333.186 C 733.376 317.388 735.114 318.596 747.049 326.81 C 748.596 327.872 750.576 329.225 753.281 330.626 C 760.624 334.394 773.669 338.936 789.13 343.768 L 730.428 276.176 L 706.658 303.957 C 705.547 305.406 704.05 306.614 702.262 307.387 L 679.217 317.291 L 580.123 435.274 Z M 184.625 903.188 C 184.336 903.237 184.336 903.382 184.287 903.526 C 184.964 903.237 185.64 902.948 184.625 903.188 Z M 132.301 1013.05 C 126.31 1013.05 121.43 1008.16 121.43 1002.17 C 121.43 996.184 126.309 991.304 132.301 991.304 L 193.902 991.304 L 194.047 991.164 C 198.54 986.914 201.825 983.824 204.675 979.374 C 207.622 974.784 209.555 969.471 210.955 961.354 C 212.889 950.194 213.855 932.607 214.677 913.862 C 219.507 914.586 224.774 915.312 229.75 915.552 C 236.369 915.844 242.65 915.263 247.384 912.751 C 251.25 910.722 253.714 907.871 255.308 904.73 C 256.129 905.262 256.95 905.793 257.724 906.325 C 262.844 909.658 268.352 912.848 272.989 914.634 C 279.078 916.954 284.054 917.147 288.112 916.326 C 288.596 916.229 289.03 916.133 289.514 915.988 L 289.465 918.645 C 289.32 925.892 289.224 932.511 289.127 937.826 C 289.079 943.478 289.079 947.487 289.32 950.772 C 289.611 954.686 290.238 957.972 291.349 961.884 C 292.412 965.557 293.91 969.808 296.326 974.594 C 298.645 979.274 301.785 984.304 305.94 989.524 C 306.424 990.144 306.906 990.724 307.39 991.304 L 367.347 991.304 C 373.339 991.304 378.218 996.184 378.218 1002.17 C 378.218 1008.16 373.339 1013.05 367.347 1013.05 L 132.301 1013.05 Z M 158.245 541.611 C 158.197 541.466 158.197 541.562 158.245 541.659 L 158.245 541.611 Z M 439.338 849.077 C 444.7 853.86 449.386 858.497 452.72 862.797 C 457.31 868.74 459.145 871.012 459.145 871.012 C 455.812 873.427 446.342 873.959 434.263 873.764 C 427.886 873.668 423.392 871.881 420.881 870.77 L 420.349 870.528 C 407.111 864.73 401.121 868.402 402.328 881.591 C 402.425 882.509 402.522 883.911 402.859 885.602 C 403.199 887.583 403.777 889.853 404.696 891.882 L 404.792 892.124 C 402.136 892.8 398.801 893.283 395.081 893.476 C 391.023 893.67 386.627 893.476 382.472 892.558 C 375.321 890.964 367.688 886.954 362.18 884.007 C 359.715 882.702 357.637 881.591 355.899 880.819 C 352.661 879.368 349.907 878.837 347.54 878.885 C 343.723 879.031 340.728 880.528 338.554 883.186 C 336.428 885.794 335.607 888.742 335.897 892.027 C 336.139 894.491 337.057 896.955 338.409 899.323 C 338.699 899.806 338.988 900.288 339.279 900.724 C 337.105 900.434 334.738 900.096 332.273 899.565 C 328.36 898.743 324.253 897.584 320.581 895.795 C 316.86 894.009 313.189 891.447 309.904 888.887 C 306.426 886.182 303.622 883.572 301.787 881.833 C 293.961 874.586 288.887 873.523 283.429 878.885 C 283.187 879.127 282.897 879.368 282.655 879.611 C 278.114 884.49 279.176 887.969 280.82 893.091 L 281.254 894.491 L 280.674 894.298 C 277.535 893.091 273.428 890.722 269.465 888.162 C 265.021 885.311 260.914 882.316 258.209 880.383 C 241.251 868.16 233.762 871.396 235.791 889.998 C 235.936 891.109 236.08 892.655 236.033 893.863 C 234.825 894.057 232.892 894.009 230.621 893.912 C 226.225 893.717 221.199 892.994 216.755 892.268 C 212.358 891.593 208.494 890.916 205.064 890.142 C 202.357 889.515 200.232 888.838 198.686 888.065 C 197.864 887.631 196.897 886.954 195.98 886.326 C 191.294 883.041 187.429 880.334 179.747 882.026 C 175.157 883.089 172.644 885.215 169.697 887.727 C 168.344 888.887 166.798 890.19 164.866 890.868 C 158.972 892.945 157.088 891.399 156.411 889.515 C 155.831 887.823 155.397 885.36 155.01 883.282 C 153.657 875.697 152.643 869.996 143.705 868.692 C 134.718 867.388 131.771 872.122 127.665 878.741 C 124.862 883.283 120.272 890.674 105.102 889.37 C 103.362 889.224 102.59 889.127 102.493 889.079 C 102.299 888.935 101.624 887.872 100.512 886.181 C 90.27 870.333 79.834 872.073 68.625 879.32 C 65.677 881.204 63.213 883.234 60.653 885.311 L 60.701 885.36 L 60.653 885.36 C 55.242 889.756 49.251 894.587 45.241 892.026 C 43.887 891.157 43.26 889.998 43.501 888.355 C 44.033 883.911 47.318 877.485 53.743 868.644 C 59.928 860.14 65.194 854.488 73.94 845.21 C 78.626 840.187 76.21 842.843 80.317 838.447 C 89.109 828.978 95.487 819.749 98.82 811.681 C 101.382 805.593 102.347 799.844 101.671 794.723 C 100.753 788.153 97.42 782.887 91.477 779.409 C 88.288 777.572 84.519 776.316 80.171 775.784 C 78.626 775.591 76.354 775.495 73.747 775.398 C 68.528 775.156 61.571 774.867 58.091 773.127 C 57.85 773.031 58.187 771.968 59.782 768.779 C 61.667 765.107 93.022 736.022 115.102 715.586 C 125.489 705.971 133.992 698.096 136.263 695.826 C 144.187 687.903 149.356 681.137 152.834 675.485 C 156.555 669.398 158.342 664.566 159.405 660.702 C 161.241 654.179 160.226 647.366 155.83 641.376 C 152.545 636.882 147.375 633.018 140.08 630.505 C 131.431 627.51 119.691 626.399 110.126 625.77 L 110.947 624.804 C 114.619 620.359 119.305 614.996 124.813 608.716 C 129.692 603.208 135.49 597.217 141.53 591.274 C 148.681 584.268 156.315 577.214 163.126 571.079 C 171.001 564.025 175.977 556.971 178.249 550.497 C 180.133 545.134 180.325 540.012 178.876 535.374 C 177.282 530.302 173.997 526.195 169.117 523.393 C 164.624 520.784 158.73 519.334 151.675 519.383 C 148.681 519.431 146.7 518.9 145.733 518.078 C 145.685 518.029 145.636 517.982 145.588 517.885 L 145.54 517.74 C 145.54 516.919 146.022 515.856 146.989 514.647 C 148.874 512.28 151.53 509.285 154.574 505.903 C 164.286 494.984 177.62 480.007 193.515 453.724 C 199.506 443.82 201.922 439.761 204.434 435.655 C 220.862 408.359 236.757 381.882 246.709 369.32 C 248.932 366.47 251.107 364.731 253.087 363.813 C 254.197 363.329 255.116 363.137 255.889 363.234 L 255.938 363.234 C 256.662 363.329 257.435 363.668 258.159 364.248 C 259.223 365.069 260.141 366.372 260.914 367.968 C 262.315 371.012 263.571 374.153 264.972 377.583 C 269.272 388.211 274.683 401.643 287.487 422.996 C 295.989 437.201 307.634 453.048 318.697 468.122 C 329.954 483.437 340.582 497.98 346.091 508.125 C 348.796 513.102 350.101 516.724 350.536 519.236 L 337.925 519.236 C 323.093 519.236 320.968 528.369 331.549 546.631 C 338.023 557.839 350.922 580.209 365.223 600.066 C 375.998 615.042 387.206 628.184 395.372 637.317 L 393.729 637.51 C 390.154 637.944 385.66 638.572 381.312 639.152 C 375.756 639.926 373.341 640.263 371.794 640.505 C 357.301 642.63 357.059 642.678 358.555 657.608 C 358.555 658.139 358.604 658.671 358.7 659.251 C 359.377 665.628 360.875 677.659 369.86 694.665 C 374.307 703.071 380.587 712.733 387.593 722.108 C 389.669 724.909 391.843 727.711 394.018 730.417 C 394.357 730.901 394.743 731.335 395.128 731.769 C 400.009 737.761 404.984 743.414 409.72 748.245 C 414.937 753.511 419.817 757.859 423.973 761.482 C 425.614 762.932 427.21 763.271 428.466 763.367 C 424.648 764.623 419.962 765.444 415.565 765.734 C 411.024 766.024 402.472 768.392 396.433 773.416 C 393.969 775.494 391.795 778.006 390.298 781.002 C 388.655 784.238 387.786 787.91 388.026 792.065 C 388.365 797.476 390.78 803.563 396.192 810.086 C 403.535 818.927 414.069 827.72 424.745 836.658 C 429.625 840.716 434.505 844.823 438.949 848.785 C 439.094 848.931 439.191 849.027 439.337 849.123 L 439.338 849.077 Z M 863.869 903.188 C 863.58 903.237 863.58 903.382 863.532 903.526 C 864.209 903.237 864.884 902.948 863.869 903.188 Z M 814.203 1013.05 C 808.212 1013.05 803.332 1008.16 803.332 1002.17 C 803.332 996.184 808.212 991.304 814.203 991.304 L 875.803 991.304 L 875.948 991.164 C 880.441 986.914 883.726 983.824 886.577 979.374 C 889.525 974.784 891.456 969.471 892.858 961.354 C 894.79 950.291 895.756 932.849 896.578 914.297 C 900.637 914.877 904.985 915.408 909.043 915.601 C 915.662 915.892 921.943 915.312 926.677 912.799 C 930.543 910.77 933.006 907.919 934.6 904.779 C 935.422 905.31 936.244 905.841 937.017 906.374 C 942.138 909.707 947.645 912.896 952.284 914.684 C 958.37 917.002 963.347 917.196 967.405 916.375 C 970.932 915.649 973.638 914.2 975.716 912.654 C 974.17 922.364 972.816 931.304 972.043 937.776 C 971.464 942.85 971.223 946.764 971.367 950.532 C 971.561 954.59 972.141 958.02 973.252 961.933 C 974.315 965.606 975.816 969.857 978.226 974.594 C 980.596 979.274 983.686 984.304 987.846 989.564 C 988.326 990.154 988.806 990.774 989.296 991.354 L 1049.25 991.354 C 1055.25 991.354 1060.12 996.224 1060.12 1002.22 C 1060.12 1008.2 1055.25 1013.09 1049.25 1013.09 L 814.199 1013.09 L 814.203 1013.05 Z M 837.49 541.611 C 837.442 541.466 837.442 541.562 837.49 541.659 L 837.49 541.611 Z M 833.819 548.664 C 835.461 546.635 836.523 544.751 837.104 543.108 C 837.297 542.577 837.394 542.19 837.442 541.948 C 836.186 541.272 834.012 540.886 831.064 540.886 C 822.658 540.934 816.088 538.615 811.45 534.846 C 808.696 532.623 806.666 530.015 805.266 527.115 C 803.913 524.217 803.188 521.077 803.188 517.743 C 803.139 512.043 805.217 506.148 809.373 500.979 C 811.981 497.741 814.638 494.745 817.634 491.363 C 826.862 480.928 839.616 466.676 854.305 442.374 C 855.512 440.393 858.894 434.741 862.711 428.41 L 815.75 374.348 C 786.278 365.699 757.338 357.1 743.376 349.901 C 739.51 347.92 736.853 346.084 734.775 344.635 C 734.051 344.152 735.598 345.214 731.683 348.887 C 718.204 361.689 688.249 392.417 673.175 407.876 L 673.031 408.021 C 662.062 419.328 649.839 427.926 636.409 433.918 L 548.333 473.148 L 493.786 538.13 C 489.922 542.721 483.109 543.348 478.519 539.483 C 473.93 535.618 473.301 528.806 477.167 524.217 L 531.23 459.862 C 532.003 458.316 533.114 456.915 534.563 455.901 L 604.619 372.511 L 538.38 319.463 L 511.228 320.525 C 508.28 320.767 505.236 319.8 502.916 317.626 L 430.737 249.407 L 297.581 396.713 C 299.997 401.255 302.799 406.28 306.133 411.885 C 314.008 425.026 325.41 440.535 336.232 455.318 C 347.924 471.262 359.037 486.384 365.268 497.884 C 370.535 507.643 372.468 515.228 372.468 520.978 C 372.468 525.181 371.502 528.707 369.908 531.559 C 368.072 534.893 365.462 537.26 362.612 538.805 C 359.713 540.351 356.62 541.027 353.771 541.027 L 353.384 541.027 C 360.292 552.864 371.26 571.37 382.855 587.457 C 396.286 606.106 411.071 622.341 418.463 630.505 C 433.247 646.738 432.136 655.628 415.178 657.175 C 413.873 657.32 411.893 657.465 407.4 657.899 C 404.742 658.14 401.166 658.575 396.336 659.155 C 391.746 659.735 387.688 660.266 384.353 660.702 L 380.875 661.184 C 381.745 666.499 383.726 674.278 389.185 684.618 C 393.099 692.057 398.799 700.753 405.13 709.256 L 405.805 710.175 C 424.117 699.401 442.765 689.206 463.975 683.603 C 473.928 680.993 483.929 679.496 494.172 677.949 C 508.376 675.824 523.16 673.602 537.606 668.286 C 549.829 663.794 562.197 657.029 574.132 649.155 C 586.404 641.086 598.337 631.859 609.402 622.631 C 610.271 621.907 613.895 618.814 617.518 615.77 C 637.714 598.667 656.653 582.676 687.042 573.69 C 705.497 568.23 736.032 561.079 767.29 555.861 C 790.384 551.996 814.01 549.145 833.867 548.711 L 833.819 548.664 Z M 802.318 578.909 C 803.43 577.798 804.54 576.687 805.652 575.624 C 806.908 574.367 808.165 573.16 809.421 571.952 C 797.004 573.208 783.863 575.044 770.819 577.218 C 740.38 582.291 710.86 589.2 693.081 594.466 C 667.137 602.148 649.889 616.738 631.481 632.296 C 629.693 633.793 627.905 635.339 623.17 639.252 C 611.575 648.867 599.014 658.627 585.92 667.226 C 572.538 676.02 558.719 683.606 544.95 688.63 C 528.428 694.717 512.483 697.084 497.168 699.404 C 487.408 700.853 477.939 702.303 469.339 704.525 C 451.753 709.163 435.52 717.715 419.528 727.039 C 421.411 729.166 423.296 731.147 425.133 733.031 C 429.915 737.862 434.408 741.824 438.177 745.158 C 447.935 753.709 454.313 759.361 452.574 768.638 C 451.367 775.209 445.52 780.04 437.742 782.987 L 437.742 782.94 C 431.654 785.258 423.778 786.852 416.821 787.336 C 415.227 787.432 412.28 788.254 410.202 789.992 C 409.913 790.234 409.719 790.428 409.575 790.621 C 409.671 791.781 410.541 793.519 412.714 796.129 C 418.609 803.183 428.513 811.493 438.563 819.898 C 440.544 821.59 442.573 823.232 444.553 824.923 C 473.59 788.06 501.902 778.542 527.702 769.845 C 548.525 762.84 567.513 756.462 582.78 733.127 C 591.332 720.034 604.908 708.1 619.402 695.394 C 626.069 689.548 632.93 683.509 639.548 677.131 C 645.25 671.623 650.855 665.681 656.459 659.787 C 670.808 644.664 685.254 629.492 703.999 617.706 C 716.03 610.168 731.49 602.968 747.821 596.593 C 765.793 589.587 785.119 583.451 802.221 578.861 L 802.318 578.909 Z M 745.743 821.391 C 715.305 826.319 684.963 831.199 659.648 829.555 C 648.585 828.832 638.148 826.851 627.326 824.821 C 612.397 822.018 596.84 819.071 577.32 818.781 C 546.304 818.347 507.17 824.724 467.356 831.729 C 490.74 805.301 513.64 797.571 534.705 790.47 C 559.297 782.207 581.763 774.671 601.089 745.054 C 608.095 734.33 620.559 723.362 633.796 711.766 C 640.754 705.63 647.952 699.35 654.765 692.73 C 660.853 686.836 666.554 680.796 672.255 674.806 C 685.686 660.65 699.215 646.445 715.642 636.105 C 726.318 629.39 740.523 622.819 755.79 616.829 C 761.781 614.462 767.916 612.239 774.053 610.162 L 773.569 610.74 C 769.221 615.959 766.032 619.97 764.1 622.626 C 759.075 629.584 757.336 634.319 762.361 640.744 C 765.501 644.753 769.994 646.01 777.724 646.59 C 778.642 646.639 780.72 646.783 782.943 646.928 C 791.881 647.46 804.781 648.232 812.171 650.793 C 814.974 651.76 816.713 652.919 817.534 654.031 C 817.679 654.272 817.776 654.417 817.727 654.609 C 817.004 657.074 815.892 660.165 813.524 664.031 C 810.916 668.332 806.76 673.646 800.093 680.314 C 796.18 684.227 788.74 691.135 779.608 699.59 C 756.321 721.138 723.225 751.866 719.65 758.919 C 710.52 776.891 716.414 786.747 727.573 792.399 C 735.208 796.265 744.918 796.7 752.166 796.99 C 753.953 797.087 755.5 797.135 756.901 797.28 C 758.108 797.425 758.978 797.618 759.557 797.859 C 759.606 799.117 759.122 800.951 758.156 803.318 C 755.983 808.489 751.779 814.721 745.788 821.436 L 745.743 821.391 Z M 885.082 890.335 L 884.406 890.189 C 881.7 889.562 879.574 888.886 878.028 888.112 C 877.207 887.677 876.241 887 875.324 886.373 C 870.636 883.087 866.772 880.382 859.089 882.073 C 854.5 883.136 851.987 885.262 849.041 887.774 C 847.687 888.933 846.142 890.238 844.209 890.914 C 838.314 892.992 836.43 891.445 835.755 889.562 C 835.174 887.871 834.74 885.407 834.352 883.329 C 833 875.744 831.985 870.042 823.047 868.738 C 814.061 867.434 811.113 872.169 807.008 878.788 C 804.206 883.329 799.616 890.721 784.444 889.417 C 782.705 889.27 781.932 889.175 781.835 889.126 C 781.643 888.981 780.966 887.918 779.854 886.228 C 769.612 870.381 759.177 872.12 747.967 879.367 C 745.019 881.251 742.556 883.281 739.995 885.358 L 740.043 885.406 L 739.995 885.406 C 734.584 889.802 728.593 894.634 724.584 892.074 C 723.23 891.204 722.603 890.044 722.844 888.402 C 723.376 883.957 726.661 877.531 733.085 868.69 C 739.271 860.186 744.537 854.534 753.282 845.258 C 757.969 840.233 755.552 842.891 759.66 838.494 C 768.453 829.025 774.83 819.796 778.163 811.727 C 780.724 805.64 781.69 799.891 781.014 794.771 C 780.096 788.2 776.762 782.933 770.82 779.455 C 767.631 777.619 763.862 776.362 759.514 775.83 C 757.968 775.638 755.698 775.541 753.089 775.444 C 747.87 775.204 740.914 774.913 737.434 773.174 C 737.193 773.077 737.53 772.014 739.125 768.825 C 741.01 765.154 772.364 736.069 794.444 715.632 C 804.832 706.018 813.335 698.142 815.605 695.872 C 823.53 687.949 828.698 681.184 832.176 675.532 C 835.898 669.445 837.684 664.612 838.747 660.748 C 840.583 654.225 839.569 647.414 835.172 641.422 C 831.887 636.929 826.717 633.064 819.422 630.551 C 810.775 627.556 799.034 626.445 789.468 625.817 L 790.29 624.851 C 793.962 620.405 798.648 615.042 804.156 608.762 C 809.035 603.255 814.833 597.264 820.872 591.321 C 828.024 584.315 835.657 577.262 842.469 571.125 C 850.344 564.071 855.32 557.018 857.592 550.544 C 859.475 545.181 859.668 540.059 858.219 535.422 C 856.625 530.348 853.339 526.242 848.459 523.439 C 843.966 520.83 838.072 519.38 831.018 519.429 C 828.024 519.478 826.042 518.946 825.075 518.125 C 825.028 518.077 824.98 518.028 824.931 517.931 L 824.883 517.786 C 824.883 516.965 825.366 515.902 826.332 514.695 C 828.216 512.327 830.873 509.332 833.918 505.949 C 843.628 495.03 856.963 480.054 872.858 453.771 C 878.801 443.964 881.457 439.567 884.019 435.315 C 900.203 408.405 915.663 382.652 925.81 369.705 C 928.032 366.855 930.206 365.067 932.236 364.149 C 933.491 363.569 934.652 363.377 935.617 363.522 C 936.584 363.666 937.502 364.1 938.371 364.777 C 939.483 365.647 940.497 366.952 941.222 368.545 C 942.575 371.492 943.927 375.019 945.377 378.885 C 949.29 389.223 954.266 402.221 966.78 423.14 C 975.286 437.344 986.926 453.191 997.986 468.266 C 1009.26 483.581 1019.88 498.124 1025.38 508.269 C 1028.09 513.246 1029.4 516.868 1029.84 519.38 L 1017.23 519.38 C 1002.39 519.38 1000.27 528.513 1010.84 546.775 C 1017.33 557.984 1030.22 580.353 1044.53 600.21 C 1055.3 615.186 1066.51 628.328 1074.67 637.461 L 1073.02 637.654 C 1069.45 638.089 1064.96 638.716 1060.6 639.296 C 1055.05 640.07 1052.65 640.407 1051.09 640.65 C 1036.59 642.775 1036.35 642.824 1037.85 657.752 C 1037.85 658.284 1037.9 658.815 1037.99 659.396 C 1038.67 665.772 1040.18 677.802 1049.16 694.809 C 1053.6 703.215 1059.88 712.877 1066.89 722.252 C 1073.95 731.721 1081.77 740.997 1089.02 748.389 C 1094.23 753.655 1099.12 758.003 1103.27 761.626 C 1104.9 763.076 1106.51 763.414 1107.77 763.511 C 1103.95 764.767 1099.27 765.589 1094.86 765.878 C 1090.32 766.169 1081.77 768.536 1075.73 773.56 C 1073.26 775.638 1071.09 778.151 1069.59 781.146 C 1067.95 784.382 1067.08 788.054 1067.32 792.209 C 1067.66 797.62 1070.08 803.707 1075.49 810.23 C 1082.83 819.071 1093.37 827.864 1104.04 836.802 C 1114.91 845.885 1125.83 855.065 1132.02 862.988 C 1136.6 868.931 1138.46 871.201 1138.46 871.201 C 1135.11 873.617 1125.64 874.149 1113.56 873.956 C 1107.19 873.858 1102.69 872.072 1100.18 870.96 L 1099.65 870.719 C 1086.41 864.92 1080.41 868.593 1081.63 881.782 C 1081.72 882.699 1081.82 884.101 1082.15 885.792 C 1082.49 887.773 1083.08 890.043 1084 892.073 L 1084.09 892.315 C 1081.43 892.991 1078.1 893.473 1074.38 893.667 C 1070.32 893.86 1065.92 893.667 1061.77 892.75 C 1054.62 891.155 1046.99 887.145 1041.48 884.198 C 1039.01 882.894 1036.93 881.782 1035.19 881.009 C 1031.96 879.56 1029.21 879.027 1026.83 879.076 C 1023.03 879.221 1020.03 880.719 1017.86 883.377 C 1015.72 885.984 1014.91 888.932 1015.2 892.218 C 1015.43 894.682 1016.35 897.146 1017.7 899.513 C 1018.01 899.996 1018.28 900.48 1018.58 900.914 C 1016.4 900.625 1014.03 900.285 1011.57 899.754 C 1007.66 898.933 1003.55 897.773 999.876 895.986 C 996.156 894.199 992.486 891.638 989.196 889.077 C 985.716 886.372 982.916 883.762 981.086 882.023 C 973.255 874.776 968.181 873.713 962.723 879.076 C 962.482 879.318 962.191 879.56 961.95 879.801 C 957.408 884.68 958.471 888.159 960.114 893.28 L 960.549 894.682 L 959.97 894.488 C 956.829 893.28 952.721 890.913 948.759 888.352 C 944.314 885.502 940.209 882.506 937.503 880.574 C 920.545 868.35 913.056 871.587 915.085 890.188 C 915.23 891.299 915.375 892.846 915.327 894.054 C 914.119 894.246 912.186 894.199 909.916 894.102 C 905.519 893.909 900.494 893.184 896.049 892.459 C 894.407 892.217 892.813 891.976 891.314 891.687 C 889.962 890.961 888.416 890.527 886.774 890.429 C 886.193 890.381 885.614 890.429 885.033 890.479 L 885.082 890.335 Z" fill-rule="evenodd"/>
</svg>