<?xml version="1.0" encoding="utf-8"?>
<svg xmlns="http://www.w3.org/2000/svg" viewBox="192.8398 168.9625 104.6758 126.0959" width="150pt" height="150pt">
  <path fill="#040606" d="M 276.292969 234.042969 C 277.125 232.238281 276.8125 230.113281 277.117188 228.195312 C 277.167969 228.125 277.246094 228.167969 277.351562 228.285156 C 278.007812 229.09375 278.691406 230.179688 279.101562 231.171875 C 279.601562 232.585938 279.757812 232.4375 279.855469 230.984375 C 280.023438 227.207031 278.632812 223.109375 276.554688 220 C 276.222656 219.164062 279.394531 221.75 279.707031 221.988281 C 279.863281 222.066406 280.015625 222.117188 279.9375 221.828125 C 278.355469 217.296875 273.554688 212.859375 269.023438 210.898438 C 268.726562 210.796875 269.609375 211.601562 270.058594 212.089844 C 270.230469 212.261719 273.523438 215.769531 272.117188 215.171875 C 271.300781 214.824219 268.019531 213.441406 270.277344 215.226562 C 272.011719 216.890625 274.183594 219.925781 274.644531 221.980469 C 274.699219 222.703125 273.839844 221.886719 273.570312 221.757812 C 273.160156 221.488281 272.585938 221.152344 272.183594 220.992188 C 271.859375 220.859375 271.699219 220.839844 271.753906 221 C 274.550781 224.574219 275.761719 229.246094 275.542969 233.84375 C 275.546875 235.175781 275.445312 236.078125 276.210938 234.238281 Z M 272.855469 292.402344 C 272.898438 289.691406 274.058594 287.023438 276.859375 286.066406 C 277.546875 285.710938 278.796875 285.699219 278.96875 284.847656 C 278.960938 283.691406 278.082031 280.714844 277.082031 279.3125 C 276.625 278.992188 276.507812 280.777344 275.828125 279.933594 C 274.664062 278.417969 273.671875 275.898438 273.164062 274.195312 C 272.914062 273.90625 272.554688 274.609375 272.246094 274.714844 C 272.101562 274.769531 271.957031 274.726562 271.808594 274.605469 C 270.84375 273.539062 270.28125 271.9375 269.742188 270.527344 C 269.640625 270.332031 269.484375 269.980469 269.226562 270.144531 C 268.914062 270.324219 268.636719 271.035156 268.253906 270.546875 C 267.375 269.300781 266.511719 267.414062 265.789062 265.941406 C 265.574219 265.488281 265.398438 265.175781 265.308594 265.246094 C 264.886719 267.394531 265.539062 270.703125 265.472656 272.957031 C 265.511719 273.601562 264.269531 272.347656 263.863281 272.054688 C 263.652344 271.898438 263.519531 271.867188 263.460938 272.046875 C 263.382812 273.121094 263.558594 274.984375 263.582031 276.21875 C 263.621094 277.046875 263.6875 277.742188 263.398438 277.597656 C 263.089844 277.503906 262.230469 276.535156 261.777344 276.316406 C 261.605469 276.234375 261.578125 276.359375 261.578125 276.636719 C 261.597656 277.730469 261.679688 279.863281 261.738281 281.164062 C 261.753906 284.933594 262.546875 288.453125 259.433594 290.816406 C 258.492188 291.710938 257.035156 291.554688 255.472656 291.632812 C 252.914062 291.675781 250.296875 291.699219 247.722656 291.699219 C 246.558594 291.621094 245.808594 291.835938 245.558594 291.550781 C 246.246094 289.714844 246.824219 286.878906 246.871094 284.699219 C 247.21875 283.230469 248.488281 281.761719 249.011719 280.367188 C 250.742188 278.011719 252.484375 276.070312 252.996094 272.886719 C 253.1875 272.03125 253.492188 271.324219 254.019531 270.671875 C 255.589844 268.941406 256.183594 265.460938 256.117188 262.640625 C 256.128906 261.660156 256.28125 260.800781 256.691406 259.9375 C 257.652344 257.882812 257.898438 253.582031 257.484375 250.667969 C 257.433594 250.070312 257.671875 250.265625 257.914062 250.480469 C 259.257812 251.59375 259.03125 245.515625 259.054688 244.640625 C 259.070312 243.039062 258.960938 241.5625 258.742188 240.136719 C 258.746094 239.855469 259.054688 240.101562 259.484375 240.609375 C 259.910156 241.09375 260.242188 241.480469 260.375 241.347656 C 260.660156 240.851562 260.621094 240.308594 260.726562 239.652344 C 261.085938 235.996094 260.816406 233.238281 260.042969 230.246094 C 259.773438 229.167969 259.589844 228.484375 260.847656 229.972656 C 261.144531 230.257812 262.34375 232.042969 262.382812 231.1875 C 262.5 229.699219 262.355469 227.957031 262.191406 226.417969 C 261.96875 223.90625 260.917969 220.765625 260.355469 218.488281 C 260.675781 218.363281 262.921875 221.347656 263.597656 222.570312 C 263.71875 222.757812 263.9375 223.085938 263.957031 222.621094 C 263.921875 218.683594 261.492188 214.273438 258.691406 210.5625 C 258.40625 210.160156 258.132812 209.777344 258.023438 209.578125 C 257.542969 208.671875 261.238281 211.289062 261.011719 211.023438 C 261.242188 211.015625 261.097656 210.835938 260.957031 210.492188 C 259.445312 207.015625 255.625 202.542969 252.929688 200.484375 C 252.722656 200.277344 252.3125 200.085938 252.570312 199.835938 C 252.652344 199.773438 252.800781 199.710938 252.996094 199.660156 C 257.300781 198.664062 262.132812 198.644531 266.347656 200.03125 C 266.554688 200.144531 266.632812 200.273438 266.527344 200.402344 C 266.414062 200.507812 266.480469 200.492188 266.027344 200.730469 C 265.402344 201.054688 265.007812 201.367188 265.914062 201.484375 C 269.296875 201.761719 274.023438 203.519531 276.535156 205.316406 C 277.097656 205.832031 276.414062 205.9375 275.523438 206.125 C 274.410156 206.363281 274.011719 206.550781 274.984375 206.757812 C 278.5625 207.480469 282.761719 209.242188 284.914062 212.046875 C 284.988281 212.359375 282.058594 211.773438 282.988281 212.644531 C 285.886719 214.421875 288.804688 216.640625 290.410156 219.695312 C 290.488281 220.355469 287.71875 219.375 288.28125 220.265625 C 290.351562 221.921875 292.855469 224.304688 294.042969 226.585938 C 294.105469 226.746094 294.25 227.035156 294.125 227.171875 C 294.007812 227.402344 293.171875 227.144531 292.691406 227.175781 C 291.746094 227.324219 293.503906 228.777344 293.71875 229.21875 C 295.199219 231.304688 296.640625 233.277344 296.632812 234.96875 C 296.34375 235.300781 295.515625 234.761719 295.160156 234.78125 C 294.628906 234.730469 294.84375 235.160156 295.019531 235.472656 C 296.445312 237.742188 297.40625 240.316406 297.515625 242.722656 C 297.496094 242.957031 297.410156 243.058594 297.214844 243.019531 C 296.917969 242.988281 295.085938 241.582031 295.40625 242.484375 C 296.667969 245.492188 297.316406 248.785156 297.210938 252.164062 C 297.132812 252.765625 296.089844 251.292969 295.601562 250.960938 C 295.554688 250.933594 295.464844 250.878906 295.417969 250.851562 C 295.230469 250.789062 295.289062 251.078125 295.277344 251.183594 C 295.738281 253.722656 296.5625 256.890625 296.097656 259.117188 C 295.832031 259.734375 295.269531 258.648438 294.933594 258.355469 C 294.304688 257.703125 293.710938 257.011719 293.808594 257.628906 C 294.238281 259.988281 295.152344 264.378906 295.492188 266.417969 C 295.789062 267.972656 295.554688 267.9375 294.285156 266.882812 C 292.730469 265.6875 293.570312 267.238281 293.929688 268.359375 C 294.140625 269.214844 296.835938 275.238281 295.261719 274.472656 C 294.34375 274.015625 293.195312 272.867188 293.992188 274.753906 C 295.617188 278.289062 295.917969 281.6875 295.761719 285.675781 C 295.925781 288.882812 294.011719 291.265625 291 292.25 C 290.457031 292.425781 290.210938 292.488281 289.757812 292.515625 C 286.894531 292.621094 274.101562 292.890625 272.890625 292.539062 Z M 231.3125 182.285156 C 230.390625 179.640625 226.628906 178.0625 224.421875 180.019531 C 223.910156 180.503906 224.960938 180.886719 225.378906 180.953125 C 227.347656 180.511719 229.144531 180.414062 230.105469 182.625 C 230.328125 183.117188 231.101562 183.40625 231.539062 183.292969 C 231.636719 183.179688 231.433594 182.628906 231.359375 182.410156 Z M 210.871094 183.058594 C 211.027344 183.027344 211.492188 182.183594 211.707031 181.859375 C 212.703125 180.507812 214.523438 180.527344 215.988281 180.9375 C 216.898438 180.945312 218.085938 180.632812 217.125 180.011719 C 214.039062 177.859375 210.660156 179.914062 209.40625 183.246094 C 209.179688 183.519531 210.886719 183.046875 210.800781 183.089844 Z M 228.773438 193.753906 C 228.527344 190.328125 228.148438 187.3125 226.613281 185.0625 C 224.894531 182.6875 222.542969 180.480469 219.589844 181.410156 C 215.769531 182.753906 214.632812 189.359375 214.273438 193.128906 C 214.289062 194.039062 213.984375 195.203125 214.242188 196.050781 C 214.40625 196.214844 215.121094 196.105469 215.574219 196.105469 C 216.207031 196.042969 217.339844 196.117188 217.898438 195.894531 C 218.226562 195.746094 218.851562 195.304688 219.269531 195.046875 C 219.953125 194.585938 220.726562 194.160156 221.375 193.65625 C 221.707031 193.363281 221.691406 192.917969 221.660156 192.375 C 221.699219 191.320312 220.59375 191.074219 219.996094 190.4375 C 217.835938 187.582031 220.359375 185.800781 223.304688 186.070312 C 224.425781 186.136719 225.992188 186.207031 226.601562 187.253906 C 227.101562 188.144531 226.878906 189.980469 225.910156 190.683594 C 225.171875 191.21875 224.429688 191.277344 224.417969 192.375 C 224.390625 192.648438 224.402344 192.96875 224.46875 193.238281 C 224.761719 193.988281 225.710938 194.367188 226.363281 195.007812 C 226.855469 195.496094 227.3125 196.03125 227.921875 196.28125 C 229.253906 196.996094 228.714844 194.796875 228.789062 194.105469 Z M 225 199.085938 C 225.28125 198.90625 225.949219 198.585938 225.925781 198.195312 C 225.730469 197.441406 224.816406 196.800781 224.128906 196.457031 C 222.351562 195.515625 219.953125 196.671875 218.40625 198.285156 C 218.203125 198.417969 218.601562 198.609375 218.785156 198.78125 C 220.429688 199.957031 223.101562 199.933594 224.867188 199.152344 Z M 216.679688 294.039062 C 217.523438 282.730469 227.007812 291.097656 227.558594 278.371094 C 227.796875 276.320312 227.917969 273.152344 228.117188 271.292969 C 228.152344 270.996094 228.191406 270.761719 228.039062 270.75 C 227.5625 270.6875 226.71875 272.039062 226.535156 271.476562 C 226.476562 269.832031 226.855469 268.332031 227.417969 266.640625 C 227.898438 265.203125 228.542969 263.375 226.75 265.476562 C 225.3125 267.425781 225.839844 260.035156 225.980469 258.636719 C 225.941406 257.964844 226.769531 255.535156 226.039062 256.148438 C 225.636719 256.410156 225.195312 257.058594 224.738281 257.070312 C 223.203125 255.566406 223.375 251.878906 223.625 249.808594 C 223.6875 249.429688 223.964844 248.296875 223.265625 248.886719 C 219.714844 251.824219 222.390625 256.496094 222.207031 260.152344 C 221.695312 260.871094 220.917969 257.808594 220.5625 260.101562 C 220.40625 260.878906 218.921875 264.882812 218.34375 263.964844 C 218.125 263.558594 218.050781 261.800781 217.515625 261.832031 C 216.835938 263.167969 216.226562 265.769531 214.613281 266.46875 C 214.242188 266.625 214.40625 263.089844 213.589844 264.636719 C 213.273438 265.273438 212.929688 266.171875 212.507812 266.722656 C 212.203125 267.335938 209.214844 265.167969 208.914062 265.53125 C 208.695312 265.613281 209.464844 266.703125 210.003906 267.417969 C 212 269.6875 216.78125 272.894531 216.3125 275.324219 C 216.140625 276.085938 214.171875 276.574219 214.117188 277.46875 C 214.128906 277.742188 214.378906 277.929688 214.6875 277.882812 C 214.902344 277.835938 214.863281 277.871094 215.382812 277.660156 C 216.613281 276.992188 217.363281 277.191406 216.828125 278.703125 C 216.507812 279.253906 215.628906 279.632812 215.050781 279.957031 C 214.039062 280.394531 213.9375 281.433594 215.136719 281.164062 C 215.773438 281.046875 216.085938 280.847656 216.46875 280.867188 C 216.644531 280.882812 216.71875 280.988281 216.671875 281.179688 C 216.535156 281.6875 215.871094 282.472656 215.34375 282.78125 C 208.445312 285.347656 201.070312 280.796875 196.851562 275.105469 C 192.628906 269.796875 191.828125 262.355469 195.097656 256.460938 C 195.464844 255.5625 192.855469 257.585938 192.839844 257.09375 C 193.277344 255.066406 194.960938 253.296875 196.101562 251.546875 C 196.601562 250.832031 196.890625 250.53125 196.304688 250.65625 C 195.695312 250.785156 194.855469 251.011719 194.308594 251.101562 C 194.027344 251.136719 194.015625 251.054688 194.144531 250.816406 C 195.304688 248.851562 196.917969 246.628906 197.96875 244.515625 C 198.171875 244.011719 198.878906 242.78125 198.261719 242.855469 C 197.734375 242.984375 196.382812 244.660156 196.417969 243.46875 C 196.464844 241.132812 197.6875 236.460938 198.261719 233.550781 C 198.273438 233.351562 198.128906 233.382812 197.871094 233.582031 C 197.605469 233.679688 196.699219 234.921875 196.347656 234.933594 C 195.734375 231.933594 196.964844 229 197.78125 225.925781 C 197.800781 225.746094 197.703125 225.761719 197.496094 225.90625 C 197.046875 226.195312 196.078125 227.25 195.910156 226.976562 C 195.636719 225.539062 196.132812 223.632812 196.46875 221.664062 C 196.6875 220.898438 197.347656 217.148438 198.042969 217.546875 C 198.5 218.578125 199.222656 220.121094 199.96875 221.210938 C 200.808594 222.355469 203 226.125 202.789062 223.273438 C 202.816406 223.136719 202.894531 223.140625 203 223.257812 C 203.332031 223.679688 203.6875 224.425781 204.074219 224.898438 C 205.558594 226.859375 208.328125 229.464844 210.394531 229.742188 C 209.011719 228.421875 207.324219 226.304688 206.160156 224.605469 C 204.4375 222.046875 202.898438 218.371094 201.753906 215.285156 C 201.242188 214.054688 201.304688 216.84375 201.289062 217.078125 C 201.285156 217.308594 201.195312 217.34375 201 217.21875 C 198.566406 214.980469 197.535156 211.195312 197.414062 208.074219 C 197.351562 207.378906 197.390625 206.652344 197.191406 206.0625 C 196.773438 205.226562 195.90625 208.03125 195.484375 206.90625 C 194.898438 204.472656 195.28125 200.765625 196.269531 198.152344 C 196.601562 197.195312 195.667969 197.804688 195.195312 198.085938 C 193.292969 199.078125 195.925781 192.824219 196.203125 192.441406 C 196.820312 191.25 197.679688 190.160156 198.320312 188.984375 C 198.589844 187.960938 196.363281 189.488281 196.367188 188.984375 C 196.828125 186.226562 199.839844 183.089844 202.109375 181.371094 C 203.570312 180.179688 200.449219 181.503906 200.203125 181.085938 C 198.585938 179.773438 197.457031 177.765625 197.460938 175.597656 C 197.257812 167.148438 206.777344 166.988281 210.332031 173.867188 C 210.53125 174.261719 209.855469 174.464844 209.148438 175.085938 C 208.914062 175.296875 208.640625 175.546875 208.421875 175.777344 C 207.523438 176.734375 207.515625 176.980469 208.714844 176.292969 C 211.277344 174.660156 214.277344 173.917969 217.34375 174.464844 C 218.554688 174.730469 219.429688 175.574219 220.550781 175.097656 C 221.316406 174.761719 221.300781 174.839844 221.894531 174.605469 C 224.417969 173.734375 227.011719 174.886719 229.3125 176.117188 C 230.367188 176.6875 231.632812 177.398438 230.148438 175.773438 C 229.636719 174.976562 227.9375 174.5 227.71875 173.691406 C 228.746094 170.257812 232.914062 167.875 236.132812 169.46875 C 239.816406 171.324219 240.40625 176.179688 238.140625 179.566406 C 237 181.265625 237.023438 181.207031 235.234375 180.710938 C 234.816406 180.695312 235.199219 181.136719 235.367188 181.3125 C 237.390625 183.433594 239.882812 185.558594 240.621094 188.390625 C 240.453125 188.769531 239.136719 188.222656 238.773438 188.292969 C 237.710938 188.058594 240.117188 191.261719 240.101562 191.726562 C 241.4375 194.699219 241.710938 198.035156 241.285156 201.410156 C 241.058594 202.324219 240.441406 200.875 240.027344 200.519531 C 238.480469 198.726562 239.511719 201.378906 239.46875 202.1875 C 239.820312 205.347656 238.839844 209.230469 237.296875 212.339844 C 237.191406 212.640625 236.800781 213.371094 237.304688 212.980469 C 239.664062 211.195312 241.039062 208.605469 241.867188 205.851562 C 243.335938 210.035156 242.382812 216.898438 239.574219 219.34375 C 239.246094 219.175781 239.644531 216.515625 238.925781 217.328125 C 237.527344 220.078125 236.34375 224.285156 234.613281 226.632812 C 233.847656 227.855469 232.527344 229 231.824219 230.167969 C 234.855469 229.394531 237.292969 226.679688 239.113281 224.078125 C 239.773438 223.90625 238.957031 226.304688 239.363281 226.113281 C 241.851562 224.371094 243.164062 220.886719 243.578125 217.855469 C 243.65625 217.59375 243.636719 216.953125 243.765625 216.492188 C 243.933594 215.957031 244.257812 216.652344 244.402344 216.894531 C 244.910156 217.96875 245.210938 218.472656 245.398438 217.144531 C 245.726562 215.078125 245.570312 210.261719 245.160156 208.847656 C 245.082031 207.910156 246.769531 210.632812 246.96875 210.589844 C 247.050781 210.628906 247.109375 210.589844 247.136719 210.480469 C 247.183594 210.261719 247.160156 209.804688 247.15625 209.472656 C 247.171875 205.859375 244.953125 201.808594 243.855469 198.265625 C 243.882812 198.039062 244.289062 198.300781 244.425781 198.347656 C 244.902344 198.578125 245.644531 199.066406 245.144531 198.039062 C 244.570312 196.597656 243.179688 193.378906 242.792969 192.691406 C 242.730469 192.503906 242.539062 192.335938 242.804688 192.3125 C 245.089844 192.976562 248.167969 195.375 249.402344 197.339844 C 249.390625 197.8125 248.054688 197.253906 247.78125 197.542969 C 249.761719 200.5625 253.179688 202.902344 254.335938 206.183594 C 254.324219 206.433594 253.839844 206.152344 253.226562 205.851562 C 252.652344 205.5625 251.808594 205.226562 251.167969 205.007812 C 249.964844 204.566406 250.679688 205.203125 251.128906 205.71875 C 253.832031 208.621094 256.769531 212.382812 257.023438 216.324219 C 256.277344 216.015625 255.878906 215.285156 255.257812 214.917969 C 252.4375 212.808594 253.828125 214.679688 254.765625 216.210938 C 255.757812 217.136719 259.769531 227.941406 256.847656 225.125 C 256.359375 224.785156 254.417969 223.210938 255.210938 224.574219 C 256.046875 226.125 256.847656 227.855469 257.257812 229.582031 C 257.582031 230.476562 258.386719 236.542969 256.972656 234.011719 C 256.484375 233.28125 255.785156 232.433594 255.171875 231.765625 C 254.496094 231.042969 254.089844 230.648438 254.214844 231.082031 C 255.375 234.289062 256.457031 237.472656 256.371094 240.898438 C 256.316406 242.109375 256.597656 243.8125 255.882812 244.742188 C 255.375 244.46875 254.40625 242.460938 253.773438 242.03125 C 253.457031 241.71875 253.289062 241.640625 253.335938 241.949219 C 254.902344 246.523438 255.863281 251.746094 254.855469 256.566406 C 254.511719 257.84375 254.390625 257.691406 253.636719 256.386719 C 253.292969 255.855469 251.554688 253.671875 252.132812 255.347656 C 253.421875 258.445312 254.824219 265.382812 252.578125 268.035156 C 252.265625 268.148438 251.707031 266.976562 251.164062 266.59375 C 250.316406 265.863281 251.054688 269.367188 250.875 269.898438 C 250.730469 272.175781 250.554688 274.863281 248.917969 276.496094 C 248.574219 276.59375 248.113281 275.085938 247.710938 274.621094 C 247.558594 274.410156 247.453125 274.367188 247.386719 274.546875 C 247.089844 276.300781 247.238281 278.496094 246.363281 280.136719 C 245.523438 281.886719 245.492188 281.03125 244.304688 280.085938 C 244.101562 279.980469 244 280.074219 244 280.332031 C 244.023438 280.832031 244.207031 281.628906 244.261719 282.324219 C 245.035156 287.417969 243.601562 293.417969 238.078125 294.703125 C 235.386719 295.15625 231.359375 294.910156 228.222656 295.003906 C 225.855469 295.171875 220.320312 294.886719 217.226562 295.003906 C 216.683594 295.070312 216.660156 294.742188 216.667969 294.335938 L 216.679688 294.039062 " fill-opacity="1" fill-rule="nonzero"/>
</svg>