<?xml version="1.0" encoding="utf-8"?>
<svg version="1.1" viewBox="0 0 1200 1200" xmlns="http://www.w3.org/2000/svg" width="150pt" height="150pt">
  <path d="M 1155.999 875.522 C 1160.136 881.897 1158.46 890.401 1152.218 894.733 L 1152.218 894.729 C 1139.999 903.202 1125.12 912.815 1107.89 922.78 C 1067.01 842.94 972.304 768.58 911.12 737.99 C 907.78 736.291 903.901 735.99 900.339 737.162 C 896.78 738.334 893.831 740.881 892.155 744.232 C 890.48 747.584 890.21 751.467 891.413 755.021 C 892.612 758.572 895.179 761.498 898.546 763.146 L 898.542 763.146 C 956.442 792.096 1046.176 862.179 1083.332 936.296 C 1014.346 972.412 916.184 1008.527 799.043 1008.864 C 797.943 1008.894 796.842 1008.91 795.738 1008.91 L 795.73 1008.9 C 794.532 1008.899 793.336 1008.879 792.142 1008.842 C 662.178 1007.648 606.309 962.101 556.942 921.858 C 517.372 889.592 483.185 861.725 414.822 861.725 C 294.102 861.725 127.681 948.183 61.732 985.355 C 56.623 988.234 50.267 987.64 45.783 983.867 C 41.295 980.094 39.619 973.933 41.576 968.41 L 41.58 968.41 C 71.207 884.777 128.861 808.133 206.488 748.028 L 206.488 633.508 C 206.488 625.742 212.785 619.446 220.55 619.446 C 228.202 619.446 234.428 625.561 234.608 633.169 L 234.608 596.81 L 266.67 549.197 C 268.834 546.107 269.666 542.275 268.975 538.564 C 268.287 534.853 266.135 531.576 263.002 529.47 C 259.873 527.361 256.025 526.599 252.326 527.357 C 248.631 528.115 245.393 530.326 243.342 533.494 L 234.607 546.463 L 234.607 492.596 L 266.669 444.983 C 268.833 441.889 269.666 438.057 268.974 434.346 C 268.287 430.639 266.134 427.361 263.001 425.252 C 259.872 423.143 256.025 422.385 252.325 423.143 C 248.63 423.896 245.392 426.111 243.341 429.279 L 243.341 429.275 L 234.607 442.244 L 234.607 391.822 C 234.607 384.057 228.31 377.76 220.545 377.76 C 212.779 377.76 206.483 384.057 206.483 391.822 L 206.483 444.15 L 193.682 426.103 C 189.19 419.767 180.413 418.275 174.077 422.767 C 167.741 427.259 166.249 436.037 170.741 442.372 L 206.483 492.782 L 206.483 548.368 L 193.682 530.321 C 189.19 523.986 180.413 522.493 174.077 526.986 C 171.038 529.142 168.975 532.419 168.35 536.095 C 167.721 539.771 168.585 543.548 170.741 546.591 L 170.741 546.587 L 206.483 596.997 L 206.483 657.489 L 187.499 657.489 C 148.596 657.438 111.303 641.962 83.799 614.454 C 56.295 586.943 40.822 549.646 40.779 510.744 C 40.791 500.705 44.783 491.08 51.881 483.982 C 58.979 476.881 68.6 472.885 78.639 472.869 L 82.451 472.869 C 87.83 472.865 92.193 468.502 92.197 463.123 L 92.197 390.744 C 92.208 380.705 96.205 371.076 103.306 363.978 C 110.404 356.877 120.033 352.885 130.072 352.873 C 135.455 352.865 139.814 348.506 139.822 343.123 L 139.822 313.592 C 139.974 284.853 155.396 258.361 180.314 244.037 C 205.228 229.709 235.88 229.709 260.798 244.037 C 285.712 258.362 301.134 284.854 301.29 313.592 L 301.29 343.115 C 301.294 348.494 305.654 352.857 311.036 352.865 C 321.079 352.873 330.705 356.869 337.806 363.967 C 344.904 371.069 348.9 380.694 348.911 390.737 L 348.911 463.124 C 348.919 468.507 353.279 472.866 358.661 472.87 L 362.47 472.87 L 362.469 472.878 C 372.508 472.893 382.129 476.889 389.227 483.991 C 396.325 491.093 400.317 500.714 400.329 510.753 C 400.286 549.654 384.81 586.951 357.302 614.463 C 329.795 641.97 292.494 657.447 253.592 657.49 L 253.592 657.486 L 234.612 657.486 L 234.612 727.578 C 241.766 722.696 249.063 717.948 256.5 713.34 C 362.23 647.829 488.54 613.2 621.78 613.2 C 846.34 613.2 1051.04 713.72 1156 875.52 Z M 955.531 140.8 C 976.215 140.828 996.047 149.054 1010.672 163.683 C 1025.301 178.308 1033.528 198.14 1033.551 218.824 C 1033.551 239.519 1025.332 259.363 1010.699 273.996 C 996.066 288.629 976.219 296.848 955.527 296.848 C 934.835 296.848 914.988 288.629 900.355 273.996 C 885.722 259.363 877.503 239.515 877.503 218.824 C 877.503 198.132 885.725 178.285 900.358 163.652 C 914.991 149.023 934.835 140.8 955.53 140.8 Z M 989.019 232.887 C 996.784 232.887 1003.081 226.594 1003.081 218.825 C 1003.07 206.22 998.054 194.134 989.14 185.216 C 980.226 176.302 968.136 171.286 955.531 171.271 C 947.766 171.271 941.469 177.567 941.469 185.333 C 941.469 193.102 947.765 199.395 955.531 199.395 C 960.679 199.403 965.616 201.453 969.261 205.094 C 972.901 208.738 974.952 213.676 974.956 218.824 C 974.956 226.593 981.252 232.886 989.018 232.886 Z M 1152.2 268.522 C 1157.345 272.045 1159.556 278.538 1157.63 284.471 C 1155.7 290.401 1150.098 294.354 1143.864 294.182 C 1123.997 293.631 1105.138 302.916 1093.454 318.994 C 1081.774 335.076 1078.774 355.88 1085.434 374.603 C 1087.528 380.482 1085.497 387.033 1080.454 390.697 C 1075.407 394.361 1068.551 394.267 1063.61 390.463 C 1047.86 378.338 1027.149 374.764 1008.247 380.9 C 989.344 387.037 974.684 402.104 969.067 421.166 C 967.306 427.147 961.813 431.256 955.579 431.256 C 949.341 431.256 943.849 427.147 942.087 421.166 C 936.473 402.1 921.813 387.03 902.911 380.893 C 884.009 374.753 863.294 378.335 847.548 390.464 C 842.606 394.272 835.747 394.366 830.7 390.698 C 825.653 387.03 823.626 380.479 825.719 374.6 C 832.384 355.878 829.384 335.069 817.7 318.991 C 806.02 302.913 787.157 293.628 767.29 294.179 C 761.055 294.351 755.454 290.398 753.524 284.468 C 751.598 278.535 753.809 272.042 758.954 268.519 C 775.352 257.289 785.153 238.691 785.153 218.816 C 785.153 198.941 775.352 180.347 758.954 169.113 C 753.809 165.59 751.598 159.098 753.524 153.168 C 755.454 147.234 761.056 143.281 767.29 143.453 C 787.157 144.003 806.016 134.722 817.7 118.644 C 829.38 102.562 832.384 81.758 825.719 63.035 C 823.63 57.156 825.657 50.605 830.704 46.941 C 835.747 43.277 842.606 43.371 847.548 47.176 C 863.235 59.433 884.02 63.023 902.911 56.734 C 921.892 50.715 936.599 35.598 942.087 16.457 C 943.849 10.473 949.341 6.367 955.579 6.367 C 961.813 6.367 967.305 10.473 969.067 16.457 C 974.552 35.597 989.263 50.723 1008.243 56.742 C 1027.133 63.032 1047.922 59.446 1063.61 47.184 C 1068.552 43.379 1075.411 43.285 1080.454 46.949 C 1085.501 50.617 1087.528 57.168 1085.438 63.043 C 1078.778 81.766 1081.782 102.567 1093.462 118.645 C 1105.141 134.72 1124.001 144.005 1143.864 143.454 C 1150.098 143.282 1155.7 147.235 1157.63 153.169 C 1159.555 159.098 1157.345 165.591 1152.2 169.114 C 1135.806 180.348 1126.005 198.942 1126.005 218.817 C 1126.005 238.692 1135.805 257.286 1152.2 268.52 Z M 955.58 324.964 C 983.721 324.933 1010.702 313.737 1030.6 293.839 C 1050.498 273.941 1061.694 246.961 1061.725 218.816 C 1061.725 190.663 1050.542 163.663 1030.635 143.757 C 1010.728 123.851 983.729 112.667 955.576 112.667 C 927.423 112.667 900.423 123.85 880.517 143.757 C 860.611 163.664 849.427 190.664 849.427 218.816 C 849.427 246.969 860.611 273.969 880.521 293.875 C 900.428 313.781 927.428 324.965 955.58 324.965 Z M 413.512 947.333 C 405.747 947.333 399.45 953.63 399.45 961.395 C 399.45 969.16 405.746 975.457 413.512 975.457 C 481.626 975.457 515.684 1003.316 555.122 1035.57 C 604.992 1076.359 661.522 1122.593 794.822 1122.593 C 919.122 1122.593 1033.438 1072.074 1107.442 1029.695 C 1139.504 1011.336 1170.403 991.023 1199.969 968.871 L 1199.969 1041.668 C 1191.759 1050.96 1155.614 1088.296 1069.219 1134.148 C 1062.359 1137.789 1059.746 1146.3 1063.391 1153.16 C 1065.137 1156.457 1068.125 1158.921 1071.687 1160.015 C 1075.254 1161.105 1079.109 1160.738 1082.402 1158.992 C 1141.792 1127.473 1178.734 1099.649 1199.972 1080.965 L 1199.972 1132.695 C 1199.953 1148.851 1193.527 1164.339 1182.105 1175.761 C 1170.68 1187.187 1155.191 1193.612 1139.035 1193.632 L 654.655 1193.628 C 636.495 1181.71 618.432 1166.717 599.448 1150.94 C 548.728 1108.807 491.245 1061.049 413.518 1061.049 C 355.398 1061.049 282.418 1079.198 196.598 1114.987 C 193.126 1116.405 190.364 1119.147 188.923 1122.608 C 187.481 1126.069 187.485 1129.963 188.927 1133.424 C 190.372 1136.881 193.134 1139.623 196.606 1141.037 C 200.082 1142.448 203.973 1142.416 207.422 1140.944 L 207.422 1140.948 C 289.792 1106.596 359.147 1089.178 413.522 1089.178 C 481.092 1089.178 532.13 1131.576 581.482 1172.576 C 590.193 1179.803 598.713 1186.881 607.193 1193.631 L 60.923 1193.631 C 45.744 1193.611 31.115 1187.932 19.9 1177.705 C 8.681 1167.478 1.677 1153.439 0.255 1138.326 C 30.845 1116.924 107.536 1066.209 189.595 1034.826 C 196.818 1032.033 200.419 1023.923 197.654 1016.689 C 194.885 1009.454 186.791 1005.821 179.549 1008.56 C 105.729 1036.791 37.696 1078.943 -0.011 1104.33 L -0.011 994.81 C -0.003 987.302 5.903 981.126 13.403 980.787 C 15.86 994.186 24.645 1005.568 36.981 1011.338 C 49.32 1017.107 63.688 1016.556 75.547 1009.849 C 139.567 973.771 300.777 889.849 414.837 889.849 C 473.179 889.849 500.855 912.423 539.167 943.65 C 590.177 985.232 653.657 1036.986 797.387 1036.986 C 924.667 1036.986 1030 995.908 1096.047 961.373 L 1096.332 961.932 L 1109.316 954.432 L 1120.843 948.393 L 1120.609 947.905 L 1121.964 947.123 C 1138.101 937.795 1153.672 927.94 1168.234 917.842 C 1177.285 911.627 1183.543 902.116 1185.668 891.346 C 1187.789 880.572 1185.609 869.397 1179.594 860.213 C 1176.066 854.771 1172.426 849.393 1168.676 844.08 C 1173.598 839.94 1176.211 837.51 1176.309 837.42 C 1181.969 832.108 1190.863 832.389 1196.18 838.049 C 1198.492 842.022 1199.801 846.498 1199.996 851.092 L 1200 933.217 C 1143.57 977.957 978.89 1094.467 794.85 1094.467 C 671.579 1094.467 621.438 1053.459 572.95 1013.799 C 531.16 979.619 491.685 947.33 413.54 947.33 Z"/>
</svg>