<?xml version="1.0" encoding="utf-8"?>
<svg version="1.1" viewBox="0 0 1200 1200" xmlns="http://www.w3.org/2000/svg" width="150pt" height="150pt">
  <path d="M 163.595 411.495 C 156.97 411.495 151.595 406.12 151.595 399.495 L 151.595 59.035 L 1015.465 59.035 L 1015.465 194.965 C 1015.465 201.59 1010.102 206.965 1003.465 206.965 C 996.829 206.965 991.465 201.59 991.465 194.965 L 991.465 83.035 L 681.745 83.035 C 681.745 83.168 681.816 83.273 681.816 83.406 L 681.816 182.937 L 825.086 182.937 C 831.722 182.937 837.086 188.312 837.086 194.937 C 837.086 201.562 831.722 206.937 825.086 206.937 L 681.826 206.937 L 681.826 297.511 C 681.826 304.136 676.462 309.511 669.826 309.511 C 663.189 309.511 657.826 304.136 657.826 297.511 L 657.826 83.401 C 657.826 83.268 657.896 83.163 657.896 83.03 L 519.736 83.03 L 519.74 194.93 C 519.74 201.555 514.365 206.93 507.74 206.93 C 501.115 206.93 495.74 201.555 495.74 194.93 L 495.74 83.03 L 175.59 83.03 L 175.59 290.04 L 337.07 290.04 L 337.07 194.927 C 337.07 188.302 342.445 182.927 349.07 182.927 C 355.695 182.927 361.07 188.302 361.07 194.927 L 361.07 314.037 L 175.59 314.037 L 175.59 399.49 C 175.59 406.115 170.215 411.49 163.59 411.49 Z M 163.6 547.262 C 170.221 547.262 175.6 552.637 175.6 559.258 L 175.6 664.028 L 330.25 664.028 L 330.25 553.598 C 330.25 546.973 335.625 541.598 342.25 541.598 C 348.875 541.598 354.25 546.973 354.25 553.598 L 354.25 664.028 L 657.81 664.032 L 657.81 565.606 L 508.4 565.606 C 501.775 565.606 496.4 560.231 496.4 553.606 C 496.4 546.981 501.775 541.606 508.4 541.606 L 681.81 541.606 L 681.81 664.026 L 991.44 664.026 L 991.44 565.6 L 821.58 565.6 L 821.58 460.06 L 349.06 460.06 C 342.435 460.06 337.06 454.685 337.06 448.06 C 337.06 441.435 342.435 436.06 349.06 436.06 L 495.74 436.06 L 495.74 350.033 C 495.74 343.408 501.115 338.033 507.74 338.033 C 514.365 338.033 519.74 343.408 519.74 350.033 L 519.74 436.06 L 845.6 436.064 L 845.6 541.604 L 991.47 541.6 L 991.47 362.03 L 829.22 362.03 C 822.583 362.03 817.22 356.655 817.22 350.03 C 817.22 343.405 822.583 338.03 829.22 338.03 L 1015.46 338.03 L 1015.46 688.03 L 151.59 688.03 L 151.59 559.26 C 151.59 552.635 156.965 547.26 163.59 547.26 Z M 1035.204 748.019 C 1052.572 747.589 1069.767 754.921 1081.474 769.3 C 1102.15 795.304 1096.114 833.285 1068.923 851.777 L 699.833 1100.397 C 633.753 1145.003 549.026 1152.405 475.983 1119.827 L 321.603 1050.972 C 295.119 1039.199 264.677 1040.82 239.56 1055.304 L 207.134 1073.796 C 185.329 1086.335 157.622 1077.358 147.458 1054.452 L 67.888 873.992 C 59.2 854.227 66.642 831.129 85.337 820.375 C 134.387 792.199 228.268 742.653 289.647 738.043 L 289.718 738.09 C 375.838 731.418 442.108 756.438 491.788 810.438 C 525.128 847.145 633.582 853.18 700.828 853.481 C 733.793 853.567 760.481 881.575 757.973 915.571 C 755.708 945.211 729.485 967.411 699.774 968.516 C 622.624 971.516 491.472 972.953 429.034 952.746 C 421.772 950.32 413.241 947.285 403.569 944.477 C 403.292 944.477 399.835 943.609 398.792 943.719 C 392.19 943.824 387.092 949.5 387.319 956.09 C 387.487 961.238 391.186 966.098 396.248 966.973 L 421.494 977.977 C 481.014 996.949 594.2 998.074 685.434 995.184 L 704.164 994.594 C 726.52 993.551 747.172 984.094 761.969 968.051 C 776.719 951.997 784.926 929.989 784.242 908.196 C 784.125 902.087 783.441 896.29 782 890.735 L 1004.29 758.075 C 1013.54 751.477 1024.388 748.415 1035.2 748.02 Z M 90.63 500.87 C 90.63 514.12 79.876 524.858 66.63 524.858 C 53.384 524.858 42.63 514.104 42.63 500.858 L 42.63 432.374 C 42.63 419.128 53.384 408.374 66.63 408.374 C 79.876 408.374 90.63 419.128 90.63 432.374 L 90.63 447.819 C 99.606 447.912 108.004 447.698 116.735 447.475 C 130.008 447.116 143.723 446.756 159.887 447.573 C 183.524 448.749 200.555 448.53 221.446 435.284 C 230.88 429.323 238.321 416.398 246.204 402.718 C 260.434 378.011 278.157 347.242 318.118 343.738 C 330.176 342.66 341.875 343.546 353.18 344.398 C 370.891 345.73 386.156 346.859 395.504 340.078 C 403.137 334.542 407.637 323.085 412.856 309.812 C 415.75 302.457 418.739 294.847 422.637 287.324 C 443.897 246.343 504.879 215.85 553.117 222.14 C 587.606 226.601 611.797 248.804 619.512 283.05 C 621.911 293.769 621.911 304.062 621.899 313.148 C 621.899 320.382 621.899 327.21 623.145 332.718 C 627.02 349.878 648.008 363.366 668.446 362.491 C 689.47 361.448 711.298 347.983 726.837 326.479 C 742.544 304.76 753.223 290.502 774.032 271.928 C 796.27 252.081 828.129 241.397 863.516 241.987 L 885.93 242.334 C 937.52 243.135 1000.646 244.108 1063.13 243.748 L 1062.685 209.584 L 1162.895 265.721 L 1064.184 324.448 L 1063.75 291.749 C 1000.7 292.12 937.086 291.136 885.16 290.32 L 862.769 289.972 C 839.668 289.464 819.207 295.921 805.984 307.718 C 788.8 323.066 780.379 334.331 765.738 354.589 C 741.738 387.78 706.27 408.659 670.832 410.425 C 627.054 412.585 585.32 383.124 576.32 343.284 C 573.882 332.534 573.894 322.213 573.894 313.104 C 573.894 305.893 573.894 299.077 572.66 293.569 C 569.374 278.952 561.429 271.596 546.933 269.725 C 518.554 266.065 477.324 286.081 465.226 309.409 C 462.468 314.714 460.054 320.847 457.511 327.339 C 450.55 345.061 442.667 365.136 423.671 378.913 C 400.093 396.014 373.261 394.011 349.597 392.245 C 339.769 391.514 330.492 390.807 322.308 391.538 C 308.687 392.737 301.32 403.167 287.785 426.675 C 277.836 443.944 266.559 463.526 247.129 475.827 C 220.887 492.472 197.356 495.999 174.254 495.999 C 168.648 495.999 163.082 495.784 157.488 495.507 C 143.16 494.776 130.922 495.112 117.984 495.46 C 109.297 495.686 100.332 495.905 90.625 495.819 L 90.625 500.87 Z"/>
</svg>