<?xml version="1.0" encoding="utf-8"?>
<svg version="1.1" viewBox="0 0 1200 1200" xmlns="http://www.w3.org/2000/svg" width="150pt" height="150pt">
  <path d="M 536.853 414.89 C 557.122 426.589 571.911 445.863 577.966 468.468 C 584.024 491.073 580.852 515.159 569.149 535.425 L 199.699 1175.345 C 196.043 1181.677 190.02 1186.298 182.957 1188.192 C 175.89 1190.083 168.367 1189.095 162.035 1185.439 L 56.955 1124.771 C 50.623 1121.115 46.002 1115.091 44.111 1108.029 C 42.217 1100.966 43.209 1093.439 46.865 1087.107 L 416.325 447.187 C 428.024 426.922 447.298 412.132 469.903 406.074 C 492.508 400.015 516.594 403.187 536.86 414.89 Z M 816.891 346.891 C 839.496 352.949 858.766 367.734 870.469 388.004 C 882.169 408.27 885.341 432.356 879.286 454.961 L 688.036 1168.691 C 686.141 1175.753 681.52 1181.776 675.188 1185.433 C 668.856 1189.089 661.332 1190.081 654.266 1188.186 L 537.066 1156.784 C 530.004 1154.889 523.98 1150.268 520.324 1143.936 C 516.668 1137.604 515.675 1130.077 517.57 1123.014 L 708.82 409.284 C 714.874 386.679 729.663 367.405 749.933 355.706 C 770.199 344.003 794.285 340.831 816.89 346.89 Z M 1068.602 334.41 C 1092.005 334.41 1114.45 343.707 1130.997 360.254 C 1147.544 376.805 1156.841 399.247 1156.841 422.649 L 1156.841 1161.559 C 1156.841 1168.871 1153.939 1175.883 1148.767 1181.055 C 1143.595 1186.227 1136.584 1189.133 1129.271 1189.133 L 1007.931 1189.133 C 1000.619 1189.133 993.607 1186.227 988.435 1181.055 C 983.267 1175.883 980.361 1168.871 980.361 1161.559 L 980.361 422.649 C 980.361 399.246 989.658 376.805 1006.205 360.254 C 1022.752 343.707 1045.198 334.41 1068.6 334.41 Z M 1073.8 136.9 C 1077.546 140.376 1079.675 145.259 1079.675 150.369 C 1079.675 155.482 1077.546 160.361 1073.8 163.842 L 1073.8 163.838 L 943.38 284.928 C 939.868 288.193 935.216 289.951 930.419 289.834 C 925.626 289.717 921.068 287.728 917.716 284.295 C 914.368 280.861 912.493 276.256 912.493 271.459 L 912.493 206.662 L 649.423 206.662 C 644.349 206.662 640.232 202.549 640.232 197.47 L 640.232 103.267 C 640.232 98.193 644.345 94.08 649.423 94.08 L 912.493 94.08 L 912.493 29.279 C 912.493 24.486 914.368 19.876 917.716 16.443 C 921.067 13.009 925.626 11.025 930.419 10.904 C 935.216 10.787 939.868 12.548 943.38 15.81 Z M 158.436 246.357 C 148.167 237.736 141.741 225.392 140.573 212.037 C 139.409 198.681 143.593 185.412 152.21 175.142 C 160.831 164.873 173.175 158.447 186.53 157.283 C 199.886 156.115 213.155 160.303 223.425 168.92 L 321.882 251.553 C 332.151 260.17 338.573 272.514 339.741 285.869 C 340.909 299.225 336.721 312.494 328.104 322.764 C 319.487 333.033 307.143 339.459 293.788 340.627 C 280.433 341.795 267.16 337.607 256.89 328.99 Z M 222.06 406.55 C 249.978 406.55 272.607 434.468 272.607 457.097 L 272.607 457.101 C 272.607 485.019 249.978 507.648 222.06 507.648 L 100.1 507.648 C 72.182 507.648 49.553 479.73 49.553 457.101 L 49.553 457.097 C 49.553 429.179 72.182 406.55 100.1 406.55 Z M 371.022 83.699 C 367.889 65.914 374.479 47.809 388.315 36.203 C 402.151 24.598 421.127 21.25 438.096 27.43 C 455.064 33.61 467.447 48.372 470.584 66.153 L 492.479 190.403 C 494.807 203.607 491.791 217.193 484.1 228.173 C 476.412 239.153 464.674 246.63 451.471 248.958 C 438.267 251.282 424.681 248.27 413.701 240.579 C 402.721 232.888 395.244 221.153 392.92 207.95 Z"/>
</svg>