<?xml version="1.0" encoding="utf-8"?>
<svg xmlns="http://www.w3.org/2000/svg" viewBox="481.914 211.9961 83.4688 117.0859" width="150pt" height="150pt">
  <path fill="#000000" d="M 542.703125 302.699219 C 542.886719 304.285156 542.875 305.878906 542.667969 307.441406 C 542.65625 307.53125 542.691406 307.617188 542.765625 307.667969 L 546.566406 310.390625 C 547.527344 311.082031 547.902344 311.972656 547.570312 312.773438 L 545.949219 316.617188 C 545.785156 316.996094 545.34375 317.621094 544.171875 317.621094 C 543.96875 317.621094 543.753906 317.601562 543.542969 317.5625 L 538.9375 316.742188 C 538.925781 316.738281 538.914062 316.738281 538.898438 316.738281 C 538.824219 316.738281 538.757812 316.773438 538.710938 316.828125 C 537.726562 318.078125 536.589844 319.199219 535.335938 320.164062 C 535.265625 320.21875 535.230469 320.304688 535.242188 320.394531 L 536.003906 325.007812 C 536.195312 326.183594 535.828125 327.078125 535.023438 327.398438 L 531.15625 328.96875 C 530.980469 329.042969 530.785156 329.082031 530.582031 329.082031 C 529.722656 329.082031 529.09375 328.367188 528.796875 327.941406 L 526.121094 324.101562 C 526.074219 324.039062 526 324 525.921875 324 L 525.894531 324 C 525.144531 324.089844 524.382812 324.132812 523.632812 324.132812 C 522.804688 324.132812 521.96875 324.078125 521.148438 323.972656 C 521.140625 323.972656 521.128906 323.96875 521.121094 323.96875 C 521.039062 323.96875 520.96875 324.007812 520.921875 324.074219 L 518.199219 327.867188 C 517.894531 328.289062 517.261719 328.992188 516.410156 328.992188 C 516.203125 328.992188 516.003906 328.949219 515.816406 328.871094 L 511.976562 327.25 C 511.175781 326.90625 510.824219 326.003906 511.03125 324.839844 L 511.84375 320.238281 C 511.859375 320.152344 511.828125 320.0625 511.761719 320.011719 C 510.492188 319.007812 509.375 317.871094 508.433594 316.636719 C 508.386719 316.574219 508.316406 316.542969 508.242188 316.542969 C 508.226562 316.542969 508.214844 316.542969 508.203125 316.542969 L 503.578125 317.300781 C 503.382812 317.335938 503.1875 317.351562 502.996094 317.351562 C 501.8125 317.351562 501.367188 316.726562 501.203125 316.351562 L 499.605469 312.429688 C 499.304688 311.636719 499.695312 310.765625 500.648438 310.097656 L 504.484375 307.417969 C 504.558594 307.367188 504.597656 307.28125 504.585938 307.191406 C 504.402344 305.628906 504.414062 304.035156 504.621094 302.457031 C 504.632812 302.371094 504.59375 302.28125 504.523438 302.230469 L 500.726562 299.5 C 499.742188 298.78125 499.378906 297.914062 499.726562 297.109375 L 501.34375 293.273438 C 501.507812 292.894531 501.949219 292.273438 503.117188 292.273438 C 503.320312 292.273438 503.535156 292.292969 503.753906 292.328125 L 508.355469 293.148438 C 508.367188 293.152344 508.382812 293.152344 508.394531 293.152344 C 508.472656 293.152344 508.539062 293.121094 508.582031 293.066406 C 509.570312 291.808594 510.707031 290.6875 511.960938 289.730469 C 512.027344 289.675781 512.066406 289.585938 512.050781 289.496094 L 511.292969 284.886719 C 511.097656 283.722656 511.457031 282.828125 512.253906 282.5 L 516.132812 280.925781 C 516.308594 280.851562 516.503906 280.8125 516.707031 280.8125 C 517.574219 280.8125 518.203125 281.535156 518.5 281.960938 L 518.585938 282.085938 L 518.585938 294.414062 C 518.457031 294.472656 518.328125 294.535156 518.203125 294.605469 C 518.078125 294.671875 517.953125 294.738281 517.832031 294.8125 C 517.585938 294.949219 517.347656 295.101562 517.117188 295.253906 C 516.996094 295.328125 516.882812 295.410156 516.769531 295.496094 C 516.65625 295.578125 516.546875 295.660156 516.4375 295.746094 C 516.222656 295.917969 516.007812 296.09375 515.804688 296.28125 C 515.675781 296.394531 515.554688 296.515625 515.429688 296.632812 C 515.316406 296.746094 515.210938 296.859375 515.101562 296.972656 C 515.082031 296.992188 515.066406 297.011719 515.046875 297.03125 C 515.039062 297.042969 515.027344 297.046875 515.023438 297.058594 C 515.015625 297.0625 515.011719 297.070312 515.007812 297.074219 C 514.921875 297.171875 514.832031 297.273438 514.75 297.371094 L 514.734375 297.386719 C 514.625 297.519531 514.519531 297.648438 514.417969 297.78125 C 514.257812 297.984375 514.109375 298.195312 513.964844 298.40625 C 513.921875 298.46875 513.878906 298.535156 513.835938 298.601562 C 513.792969 298.667969 513.753906 298.734375 513.710938 298.800781 C 513.65625 298.890625 513.601562 298.984375 513.546875 299.078125 C 513.53125 299.101562 513.515625 299.128906 513.5 299.152344 C 513.5 299.152344 513.5 299.15625 513.5 299.15625 C 513.457031 299.234375 513.410156 299.316406 513.367188 299.398438 C 513.363281 299.402344 513.363281 299.40625 513.359375 299.410156 C 513.339844 299.445312 513.320312 299.480469 513.304688 299.515625 C 513.261719 299.59375 513.222656 299.667969 513.1875 299.746094 C 513.171875 299.769531 513.160156 299.796875 513.148438 299.820312 C 513.140625 299.832031 513.136719 299.847656 513.128906 299.859375 C 513.078125 299.964844 513.03125 300.070312 512.984375 300.175781 C 512.972656 300.199219 512.960938 300.222656 512.949219 300.246094 C 512.941406 300.261719 512.9375 300.277344 512.929688 300.292969 C 512.929688 300.296875 512.925781 300.296875 512.925781 300.300781 C 512.910156 300.34375 512.890625 300.386719 512.871094 300.429688 C 512.855469 300.472656 512.839844 300.519531 512.820312 300.5625 C 512.8125 300.578125 512.804688 300.59375 512.800781 300.613281 C 512.757812 300.714844 512.714844 300.820312 512.679688 300.925781 C 512.664062 300.957031 512.652344 300.992188 512.644531 301.023438 C 512.644531 301.023438 512.640625 301.027344 512.640625 301.027344 C 512.636719 301.039062 512.632812 301.046875 512.632812 301.058594 C 512.605469 301.121094 512.585938 301.191406 512.5625 301.257812 C 512.53125 301.34375 512.507812 301.429688 512.480469 301.515625 C 512.46875 301.550781 512.457031 301.585938 512.449219 301.617188 C 512.417969 301.714844 512.390625 301.8125 512.367188 301.910156 C 512.359375 301.9375 512.351562 301.964844 512.34375 301.996094 C 512.324219 302.070312 512.304688 302.148438 512.285156 302.226562 C 512.285156 302.234375 512.285156 302.242188 512.28125 302.246094 C 512.261719 302.328125 512.242188 302.402344 512.226562 302.484375 C 512.203125 302.574219 512.1875 302.660156 512.171875 302.753906 C 512.167969 302.765625 512.167969 302.78125 512.164062 302.792969 C 512.15625 302.816406 512.152344 302.839844 512.148438 302.863281 C 512.132812 302.953125 512.117188 303.042969 512.105469 303.136719 C 512.101562 303.152344 512.097656 303.164062 512.097656 303.175781 C 512.09375 303.207031 512.089844 303.238281 512.085938 303.265625 C 512.085938 303.269531 512.082031 303.277344 512.082031 303.28125 C 512.074219 303.332031 512.066406 303.378906 512.0625 303.429688 C 512.0625 303.4375 512.058594 303.445312 512.058594 303.453125 C 512.058594 303.460938 512.058594 303.464844 512.058594 303.46875 C 512.058594 303.472656 512.058594 303.472656 512.054688 303.476562 C 512.046875 303.515625 512.042969 303.554688 512.042969 303.597656 C 512.042969 303.605469 512.039062 303.613281 512.039062 303.625 C 512.035156 303.660156 512.027344 303.703125 512.023438 303.742188 C 512.015625 303.8125 512.011719 303.882812 512.003906 303.949219 C 512 303.988281 511.996094 304.023438 511.996094 304.058594 C 511.992188 304.09375 511.992188 304.125 511.988281 304.164062 C 511.984375 304.167969 511.984375 304.175781 511.984375 304.179688 C 511.980469 304.265625 511.976562 304.347656 511.972656 304.433594 C 511.972656 304.457031 511.96875 304.480469 511.96875 304.503906 C 511.964844 304.539062 511.964844 304.570312 511.964844 304.605469 L 511.964844 304.636719 C 511.960938 304.746094 511.957031 304.855469 511.957031 304.964844 C 511.957031 305.121094 511.960938 305.28125 511.96875 305.441406 C 511.972656 305.5 511.972656 305.558594 511.976562 305.617188 C 511.980469 305.691406 511.984375 305.761719 511.992188 305.835938 C 511.996094 305.914062 512.003906 305.988281 512.011719 306.0625 C 512.019531 306.144531 512.027344 306.222656 512.035156 306.300781 C 512.042969 306.351562 512.046875 306.398438 512.054688 306.445312 C 512.0625 306.527344 512.078125 306.605469 512.089844 306.6875 C 512.101562 306.769531 512.113281 306.855469 512.128906 306.941406 C 512.152344 307.089844 512.183594 307.238281 512.214844 307.382812 C 512.238281 307.496094 512.261719 307.605469 512.289062 307.714844 C 512.320312 307.839844 512.351562 307.964844 512.386719 308.089844 C 512.394531 308.113281 512.398438 308.132812 512.40625 308.15625 C 512.421875 308.21875 512.441406 308.28125 512.460938 308.347656 C 512.480469 308.410156 512.5 308.472656 512.523438 308.539062 C 512.566406 308.675781 512.613281 308.808594 512.664062 308.945312 C 512.710938 309.078125 512.761719 309.214844 512.816406 309.351562 C 514.664062 313.878906 519.046875 316.632812 523.664062 316.632812 C 525.125 316.628906 526.609375 316.355469 528.046875 315.773438 C 530.941406 314.597656 533.203125 312.363281 534.414062 309.488281 C 535.628906 306.609375 535.648438 303.433594 534.46875 300.539062 C 534.386719 300.328125 534.292969 300.125 534.199219 299.921875 C 534.171875 299.863281 534.140625 299.804688 534.113281 299.742188 C 534.070312 299.65625 534.027344 299.574219 533.980469 299.484375 C 533.949219 299.425781 533.917969 299.367188 533.886719 299.304688 C 533.824219 299.195312 533.765625 299.089844 533.703125 298.980469 C 533.675781 298.9375 533.644531 298.890625 533.621094 298.84375 C 533.546875 298.722656 533.46875 298.605469 533.390625 298.484375 C 533.347656 298.417969 533.300781 298.351562 533.257812 298.285156 C 533.230469 298.242188 533.203125 298.203125 533.175781 298.167969 C 533.125 298.09375 533.070312 298.023438 533.019531 297.953125 C 532.957031 297.867188 532.890625 297.785156 532.828125 297.703125 C 532.824219 297.691406 532.816406 297.6875 532.808594 297.675781 L 532.804688 297.675781 C 532.757812 297.617188 532.710938 297.554688 532.664062 297.5 C 532.640625 297.46875 532.613281 297.441406 532.589844 297.410156 C 532.566406 297.378906 532.542969 297.351562 532.515625 297.324219 C 532.457031 297.257812 532.402344 297.191406 532.339844 297.125 C 532.226562 296.992188 532.101562 296.863281 531.972656 296.734375 C 531.910156 296.671875 531.847656 296.609375 531.785156 296.546875 C 531.722656 296.484375 531.660156 296.421875 531.589844 296.363281 C 531.527344 296.304688 531.460938 296.242188 531.394531 296.183594 C 531.351562 296.148438 531.304688 296.109375 531.257812 296.066406 C 531.246094 296.054688 531.234375 296.042969 531.21875 296.03125 C 531.144531 295.964844 531.0625 295.902344 530.988281 295.839844 C 530.917969 295.785156 530.847656 295.730469 530.773438 295.675781 C 530.632812 295.566406 530.488281 295.460938 530.34375 295.359375 C 530.269531 295.308594 530.195312 295.257812 530.117188 295.207031 C 530.042969 295.160156 529.96875 295.109375 529.890625 295.0625 C 529.820312 295.015625 529.742188 294.96875 529.667969 294.921875 C 529.664062 294.921875 529.660156 294.917969 529.65625 294.914062 C 529.644531 294.90625 529.632812 294.902344 529.621094 294.894531 C 529.605469 294.886719 529.59375 294.878906 529.578125 294.871094 C 529.53125 294.84375 529.480469 294.8125 529.429688 294.785156 C 529.351562 294.738281 529.273438 294.695312 529.191406 294.652344 C 529.113281 294.609375 529.03125 294.570312 528.949219 294.527344 C 528.871094 294.488281 528.789062 294.445312 528.707031 294.40625 L 528.707031 282.5625 L 529.101562 282.015625 C 529.390625 281.605469 530.019531 280.898438 530.878906 280.898438 C 531.082031 280.898438 531.28125 280.9375 531.46875 281.015625 L 535.320312 282.640625 C 536.121094 282.984375 536.46875 283.882812 536.261719 285.046875 L 535.445312 289.652344 C 535.425781 289.738281 535.460938 289.828125 535.53125 289.886719 C 536.78125 290.867188 537.902344 292 538.863281 293.253906 C 538.90625 293.3125 538.980469 293.347656 539.054688 293.347656 C 539.066406 293.347656 539.078125 293.347656 539.089844 293.347656 L 543.695312 292.589844 C 543.902344 292.554688 544.101562 292.539062 544.292969 292.539062 C 545.507812 292.539062 545.945312 293.183594 546.101562 293.566406 L 547.671875 297.4375 C 547.75 297.636719 547.785156 297.824219 547.785156 298.015625 C 547.785156 298.898438 546.976562 299.554688 546.628906 299.796875 L 542.804688 302.472656 C 542.730469 302.523438 542.691406 302.609375 542.703125 302.695312 Z M 546.109375 234.460938 C 546.109375 245.109375 538.664062 254.050781 528.707031 256.351562 L 528.707031 255.242188 C 528.707031 254.441406 528.519531 253.683594 528.183594 253.007812 C 527.359375 251.335938 525.636719 250.183594 523.648438 250.183594 C 521.660156 250.183594 519.933594 251.335938 519.109375 253.007812 C 518.777344 253.683594 518.585938 254.441406 518.585938 255.242188 L 518.585938 256.351562 C 508.625 254.050781 501.179688 245.109375 501.179688 234.460938 C 501.179688 222.074219 511.257812 211.996094 523.648438 211.996094 C 536.035156 211.996094 546.109375 222.074219 546.109375 234.460938 Z M 523.679688 228.03125 C 524.484375 228.039062 525.289062 228.300781 525.886719 228.8125 C 526.402344 229.257812 526.683594 229.820312 526.683594 230.402344 C 526.683594 231.335938 527.441406 232.089844 528.375 232.089844 C 529.308594 232.089844 530.0625 231.335938 530.0625 230.402344 C 530.0625 228.820312 529.359375 227.347656 528.085938 226.253906 C 527.28125 225.566406 526.335938 225.097656 525.332031 224.855469 L 525.332031 222.691406 C 525.332031 221.761719 524.578125 221.007812 523.648438 221.007812 C 522.714844 221.007812 521.960938 221.761719 521.960938 222.691406 L 521.960938 224.855469 C 520.957031 225.097656 520.011719 225.566406 519.210938 226.253906 C 517.9375 227.347656 517.238281 228.820312 517.238281 230.402344 C 517.238281 231.984375 517.9375 233.460938 519.207031 234.550781 C 520.757812 235.882812 522.273438 236.027344 523.492188 236.140625 C 524.492188 236.234375 525.152344 236.292969 525.886719 236.925781 C 526.402344 237.367188 526.683594 237.933594 526.683594 238.519531 C 526.683594 239.105469 526.402344 239.671875 525.886719 240.113281 C 525.289062 240.628906 524.488281 240.886719 523.683594 240.894531 L 523.613281 240.894531 C 522.808594 240.886719 522.007812 240.628906 521.40625 240.113281 C 520.890625 239.667969 520.609375 239.105469 520.609375 238.523438 C 520.609375 237.589844 519.851562 236.835938 518.921875 236.835938 C 517.988281 236.835938 517.234375 237.59375 517.234375 238.523438 C 517.234375 240.105469 517.9375 241.578125 519.210938 242.671875 C 520.011719 243.359375 520.960938 243.828125 521.960938 244.070312 L 521.960938 246.226562 C 521.960938 247.160156 522.714844 247.914062 523.648438 247.914062 C 524.578125 247.914062 525.335938 247.160156 525.335938 246.226562 L 525.335938 244.070312 C 526.335938 243.828125 527.285156 243.359375 528.085938 242.671875 C 529.359375 241.578125 530.054688 240.105469 530.054688 238.519531 C 530.054688 236.933594 529.359375 235.460938 528.089844 234.367188 C 526.535156 233.035156 525.019531 232.894531 523.804688 232.78125 C 522.804688 232.6875 522.144531 232.625 521.40625 231.992188 C 520.894531 231.550781 520.613281 230.988281 520.613281 230.402344 C 520.613281 229.816406 520.894531 229.253906 521.40625 228.8125 C 522.007812 228.300781 522.808594 228.039062 523.613281 228.03125 Z M 498.273438 217.863281 L 491.046875 213.691406 C 490.238281 213.226562 489.207031 213.503906 488.742188 214.308594 C 488.277344 215.117188 488.554688 216.148438 489.359375 216.613281 L 496.585938 220.785156 C 496.851562 220.941406 497.140625 221.011719 497.425781 221.011719 C 498.011719 221.011719 498.578125 220.710938 498.890625 220.167969 C 499.355469 219.363281 499.078125 218.332031 498.273438 217.863281 Z M 483.339844 234.460938 C 483.339844 235.390625 484.09375 236.144531 485.027344 236.144531 L 493.371094 236.144531 C 494.304688 236.144531 495.058594 235.390625 495.058594 234.460938 C 495.058594 233.527344 494.304688 232.773438 493.371094 232.773438 L 485.027344 232.773438 C 484.09375 232.773438 483.339844 233.527344 483.339844 234.460938 Z M 556.246094 213.691406 L 549.023438 217.863281 C 548.214844 218.332031 547.9375 219.363281 548.40625 220.167969 C 548.71875 220.710938 549.285156 221.011719 549.867188 221.011719 C 550.152344 221.011719 550.445312 220.941406 550.710938 220.785156 L 557.933594 216.613281 C 558.742188 216.148438 559.019531 215.117188 558.550781 214.308594 C 558.085938 213.503906 557.054688 213.226562 556.246094 213.691406 Z M 552.234375 234.460938 C 552.234375 235.390625 552.992188 236.144531 553.921875 236.144531 L 562.261719 236.144531 C 563.191406 236.144531 563.949219 235.390625 563.949219 234.460938 C 563.949219 233.527344 563.191406 232.773438 562.261719 232.773438 L 553.921875 232.773438 C 552.992188 232.773438 552.234375 233.527344 552.234375 234.460938 Z M 532.484375 266.640625 C 532.910156 266.386719 533.335938 266.128906 533.773438 265.863281 C 534.863281 265.199219 535.921875 264.539062 536.929688 263.898438 C 541.496094 260.992188 544.90625 258.578125 544.945312 258.550781 C 545.808594 257.9375 546.824219 257.613281 547.878906 257.613281 C 549.515625 257.613281 551.054688 258.40625 552.003906 259.738281 C 553.621094 262.011719 553.085938 265.179688 550.808594 266.792969 C 550.777344 266.820312 547.328125 269.277344 542.597656 272.292969 C 541.617188 272.921875 540.582031 273.570312 539.507812 274.230469 C 539.078125 274.492188 538.652344 274.753906 538.222656 275.011719 C 540.003906 275.46875 541.835938 275.699219 543.664062 275.699219 C 547.417969 275.699219 551.171875 274.734375 554.519531 272.800781 C 561.214844 268.941406 565.375 261.738281 565.382812 254 C 565.382812 253.394531 565.0625 252.839844 564.539062 252.535156 C 557.835938 248.671875 549.515625 248.671875 542.820312 252.539062 C 537.507812 255.605469 533.796875 260.773438 532.484375 266.640625 Z M 504.472656 252.539062 C 497.78125 248.671875 489.460938 248.667969 482.757812 252.535156 C 482.234375 252.839844 481.910156 253.398438 481.914062 254 C 481.921875 261.738281 486.078125 268.945312 492.765625 272.800781 C 496.117188 274.734375 499.871094 275.699219 503.628906 275.699219 C 505.460938 275.699219 507.289062 275.472656 509.074219 275.011719 C 508.644531 274.753906 508.214844 274.492188 507.785156 274.226562 C 506.710938 273.574219 505.675781 272.921875 504.695312 272.296875 C 499.964844 269.277344 496.515625 266.816406 496.476562 266.789062 C 494.210938 265.179688 493.675781 262.011719 495.292969 259.738281 C 496.238281 258.40625 497.78125 257.613281 499.417969 257.613281 C 500.472656 257.613281 501.484375 257.9375 502.347656 258.546875 C 502.390625 258.578125 505.796875 260.992188 510.359375 263.894531 C 511.367188 264.53125 512.429688 265.195312 513.523438 265.863281 C 513.953125 266.128906 514.382812 266.386719 514.804688 266.640625 C 513.492188 260.773438 509.777344 255.605469 504.472656 252.539062 Z M 521.613281 281.613281 C 521.589844 281.605469 521.5625 281.59375 521.539062 281.582031 L 521.667969 281.644531 L 521.714844 281.65625 C 521.679688 281.640625 521.613281 281.613281 521.613281 281.613281 Z M 525.335938 270.617188 L 525.335938 255.242188 C 525.335938 254.308594 524.578125 253.554688 523.648438 253.554688 C 522.714844 253.554688 521.960938 254.308594 521.960938 255.242188 L 521.960938 274.371094 C 521.332031 274.074219 520.691406 273.753906 520.042969 273.425781 C 519.5625 273.179688 519.074219 272.925781 518.589844 272.667969 C 517.503906 272.085938 516.410156 271.476562 515.324219 270.851562 C 514.121094 270.160156 512.925781 269.449219 511.769531 268.746094 C 505.59375 264.980469 500.476562 261.355469 500.394531 261.296875 C 499.636719 260.757812 498.582031 260.9375 498.042969 261.695312 C 497.503906 262.453125 497.679688 263.507812 498.441406 264.046875 C 498.78125 264.289062 503.601562 267.707031 509.550781 271.351562 C 510.71875 272.070312 511.933594 272.796875 513.164062 273.507812 C 514.957031 274.546875 516.792969 275.558594 518.589844 276.472656 L 518.589844 276.980469 C 518.589844 276.816406 518.597656 276.648438 518.613281 276.484375 C 519.753906 277.0625 520.875 277.601562 521.960938 278.085938 L 521.960938 304.945312 C 521.960938 305.878906 522.714844 306.632812 523.648438 306.632812 C 524.578125 306.632812 525.335938 305.878906 525.335938 304.945312 L 525.335938 278.085938 C 526.421875 277.601562 527.542969 277.0625 528.683594 276.484375 C 528.699219 276.648438 528.707031 276.816406 528.707031 276.980469 L 528.707031 276.472656 C 530.503906 275.558594 532.335938 274.546875 534.132812 273.507812 C 535.363281 272.796875 536.574219 272.070312 537.746094 271.351562 C 543.695312 267.707031 548.515625 264.289062 548.855469 264.046875 C 549.613281 263.507812 549.792969 262.453125 549.253906 261.695312 C 548.714844 260.9375 547.660156 260.757812 546.902344 261.296875 C 546.816406 261.355469 541.703125 264.980469 535.527344 268.746094 C 534.371094 269.449219 533.175781 270.160156 531.972656 270.851562 C 530.886719 271.476562 529.792969 272.085938 528.707031 272.667969 C 528.21875 272.925781 527.730469 273.179688 527.25 273.425781 C 526.605469 273.757812 525.964844 274.074219 525.335938 274.371094 Z M 525.683594 281.613281 L 525.558594 281.667969 L 525.628906 281.644531 L 525.742188 281.589844 C 525.726562 281.597656 525.703125 281.605469 525.683594 281.613281 Z M 525.683594 281.613281 " fill-opacity="1" fill-rule="nonzero"/>
</svg>