<?xml version="1.0" encoding="utf-8"?>
<svg version="1.1" viewBox="0 0 1200 1200" xmlns="http://www.w3.org/2000/svg" width="150pt" height="150pt">
  <path d="M 864.752 614.25 L 769.877 424.5 L 845.815 272.81 C 852.565 259.122 872.44 259.122 879.19 272.81 L 1050 614.25 Z M 1032.897 225.188 C 996.149 251.625 944.775 244.501 916.837 208.313 C 888.337 171.378 895.274 118.503 932.212 90.003 C 959.024 69.566 994.087 67.69 1022.212 82.128 C 1026.337 70.315 1033.649 59.44 1044.337 51.19 C 1073.024 29.065 1114.274 34.502 1136.399 63.19 C 1157.774 91.128 1153.086 130.878 1126.274 153.378 C 1134.9 157.691 1142.774 163.69 1148.962 171.753 C 1171.087 200.44 1165.649 241.69 1136.962 263.815 C 1108.275 285.94 1067.025 280.503 1044.9 251.815 C 1038.712 243.752 1034.775 234.565 1032.9 225.19 Z M 67.124 154.877 C 41.812 143.627 30.562 114.564 41.812 89.252 C 53.062 63.94 82.312 52.878 107.437 63.94 C 107.812 64.127 107.999 64.502 108.374 64.502 C 124.124 40.69 155.062 30.752 182.062 42.752 C 212.062 56.064 225.562 91.314 212.25 121.314 C 198.938 151.315 163.688 164.814 133.688 151.502 C 129.375 149.627 125.625 147.19 122.063 144.565 C 108 158.44 86.437 163.315 67.125 154.69 Z M 549.187 399.188 L 575.812 425.813 L 506.25 495.188 L 506.25 618.748 L 468.75 618.748 L 468.75 374.998 L 506.25 374.998 L 506.25 442.31 Z M 214.685 459.378 C 214.685 402.383 244.123 356.258 280.31 356.258 C 316.497 356.258 345.935 402.378 345.935 459.378 C 345.935 506.065 326.248 545.44 299.06 558.19 L 299.06 618.752 L 261.56 618.752 L 261.56 558.19 C 234.373 545.44 214.685 506.066 214.685 459.378 Z M 120.94 459.374 C 120.94 402.379 150.377 356.254 186.565 356.254 C 199.315 356.254 211.127 361.879 221.065 372.004 C 205.502 393.941 195.94 424.692 195.94 459.379 C 195.94 494.066 205.503 524.816 221.065 546.754 C 216.19 551.629 210.94 555.567 205.315 558.192 L 205.315 618.754 L 167.815 618.754 L 167.815 558.192 C 140.815 545.442 120.94 506.068 120.94 459.38 Z M 93.75 656.2 C 93.75 645.887 102.188 637.45 112.5 637.45 L 1087.5 637.45 C 1097.812 637.45 1106.25 645.888 1106.25 656.2 C 1106.25 945.7 879.19 1181.2 600 1181.2 C 320.81 1181.2 93.75 945.7 93.75 656.2 Z M 256.32 674.953 L 298.32 697.265 C 331.32 714.515 352.695 751.64 353.07 792.89 L 354.195 827.39 C 355.507 884.39 404.07 923.953 451.695 906.515 L 481.32 895.64 C 520.506 881.578 561.944 905.39 574.882 949.078 C 584.256 980.953 576.569 1013.953 557.444 1036.078 C 548.256 1046.016 536.819 1053.891 523.694 1058.016 L 466.506 1075.828 C 440.069 1084.266 412.882 1088.578 385.694 1089.516 C 450.004 1124.016 522.944 1143.704 600.194 1143.704 C 651.008 1143.704 699.945 1135.078 745.883 1119.516 C 757.508 1106.39 770.446 1094.953 784.508 1085.578 C 829.508 1055.198 827.071 980.576 780.383 954.138 L 759.758 942.513 C 733.883 927.7 719.633 895.638 724.32 863.388 L 727.883 838.638 C 733.133 799.826 764.82 772.263 799.508 776.388 L 917.628 790.45 C 940.502 793.075 961.502 782.2 975.19 764.2 C 985.127 750.513 990.94 733.263 990.565 714.138 C 990.002 699.888 993.377 686.575 999.19 674.95 Z M 543.568 614.25 L 676.878 347.81 C 683.815 333.935 703.502 333.935 710.44 347.81 L 843.75 614.25 Z M 341.25 281.252 C 301.875 281.252 270 249.378 270 210.19 C 270 174.94 295.688 145.877 329.438 140.252 L 329.438 139.127 C 329.438 93.377 366.563 56.252 412.5 56.252 C 458.437 56.252 495.562 93.377 495.562 139.127 L 495.562 140.252 C 529.312 145.878 555 174.94 555 210.19 C 555 249.377 523.125 281.252 483.75 281.252 L 430.312 281.252 L 430.312 618.752 L 392.812 618.752 L 392.812 417.562 L 341.25 348.75 L 371.25 326.25 L 392.812 354.938 L 392.812 281.25 L 341.25 281.25 Z"/>
</svg>