<?xml version="1.0" encoding="utf-8"?>
<svg xmlns="http://www.w3.org/2000/svg" viewBox="356.466 168.0232 106.1631 126.3283" width="150pt" height="150pt">
  <path fill="#000000" d="M 456.503906 214.597656 C 456.140625 215.433594 455.394531 216.050781 454.679688 216.113281 C 454.644531 216.113281 454.601562 216.121094 454.5625 216.121094 C 454.082031 216.121094 453.644531 215.867188 453.355469 215.417969 C 452.769531 214.488281 453.367188 212.863281 454.253906 212.21875 C 454.9375 211.726562 455.757812 211.855469 456.320312 212.558594 C 456.757812 213.105469 456.828125 213.84375 456.503906 214.597656 Z M 453.964844 221.253906 C 453.558594 221.644531 453.007812 221.855469 452.472656 221.855469 C 452.210938 221.855469 451.957031 221.8125 451.722656 221.71875 C 450.898438 221.398438 450.402344 220.613281 450.453125 219.683594 C 450.496094 218.710938 451.117188 217.882812 452 217.632812 C 452.898438 217.382812 453.785156 217.753906 454.273438 218.597656 C 454.785156 219.484375 454.664062 220.589844 453.964844 221.253906 Z M 451.011719 226.347656 C 450.558594 226.757812 450.003906 226.921875 449.453125 226.921875 C 448.835938 226.921875 448.226562 226.710938 447.777344 226.382812 C 446.933594 225.769531 446.671875 224.8125 447.097656 223.898438 C 447.429688 223.167969 448.222656 222.585938 449.105469 222.429688 C 449.898438 222.28125 450.636719 222.488281 451.140625 222.996094 C 451.554688 223.417969 451.785156 224 451.765625 224.636719 C 451.753906 225.304688 451.480469 225.929688 451.011719 226.347656 Z M 447.90625 229.105469 C 447.726562 229.957031 447.011719 230.664062 446.136719 230.855469 C 445.96875 230.898438 445.792969 230.917969 445.621094 230.917969 C 444.953125 230.917969 444.265625 230.640625 443.789062 230.132812 C 443.277344 229.609375 442.996094 228.832031 443.046875 228.066406 C 443.109375 227.085938 443.578125 226.339844 444.320312 226.027344 C 445.132812 225.675781 446.160156 225.917969 446.996094 226.617188 C 447.742188 227.253906 448.097656 228.222656 447.90625 229.105469 Z M 442.308594 231.890625 C 442.144531 232.765625 441.457031 233.535156 440.597656 233.796875 C 440.378906 233.855469 440.152344 233.890625 439.917969 233.890625 C 439.257812 233.890625 438.589844 233.621094 438.128906 233.140625 C 437.761719 232.761719 437.519531 232.265625 437.421875 231.699219 C 437.230469 230.566406 437.753906 229.25 438.648438 228.648438 C 439.542969 228.042969 440.621094 228.359375 441.59375 229.503906 C 442.1875 230.207031 442.457031 231.09375 442.308594 231.890625 Z M 437.25 237.339844 C 437.121094 237.472656 436.902344 237.558594 436.71875 237.558594 C 436.695312 237.558594 436.667969 237.550781 436.640625 237.550781 C 436.089844 237.476562 435.398438 237.382812 434.816406 236.984375 C 434.265625 236.621094 433.886719 236.019531 433.75 235.34375 C 433.574219 234.417969 434.042969 232.953125 434.917969 232.4375 C 435.472656 232.113281 436.121094 232.1875 436.675781 232.648438 C 437.316406 233.195312 437.5625 234.160156 437.652344 234.875 C 437.652344 234.886719 437.761719 236.828125 437.25 237.339844 Z M 433.230469 238.425781 C 433.046875 239.148438 432.324219 239.800781 431.511719 239.972656 C 431.277344 240.015625 431.042969 240.042969 430.820312 240.042969 C 430.304688 240.042969 429.816406 239.929688 429.390625 239.695312 C 428.6875 239.308594 428.1875 238.628906 428.078125 237.871094 C 427.972656 237.125 428.261719 236.410156 428.835938 236.0625 C 429.871094 235.429688 432.042969 236.199219 432.730469 236.828125 C 433.207031 237.261719 433.390625 237.847656 433.230469 238.425781 Z M 421.484375 229.832031 C 418.949219 230.917969 417.464844 231.761719 417.347656 231.589844 C 417.230469 231.433594 418.554688 230.257812 421.019531 228.902344 C 423.480469 227.511719 427.085938 226.078125 430.960938 224.457031 C 434.839844 222.828125 438.136719 220.980469 440.257812 219.277344 C 442.402344 217.597656 443.46875 216.242188 443.652344 216.378906 C 443.796875 216.472656 443.011719 218.09375 440.9375 220.058594 C 438.882812 222.058594 435.492188 224.140625 431.546875 225.800781 C 427.601562 227.457031 423.992188 228.710938 421.484375 229.832031 Z M 427.515625 248.714844 C 427.261719 249.0625 426.871094 249.253906 426.414062 249.265625 C 426.402344 249.265625 426.402344 249.265625 426.394531 249.265625 C 425.800781 249.265625 425.242188 248.980469 424.855469 248.488281 C 424.445312 247.96875 424.296875 247.289062 424.453125 246.679688 C 424.570312 246.230469 424.828125 245.835938 425.199219 245.597656 C 425.625 245.308594 426.183594 245.246094 426.636719 245.429688 C 427.074219 245.601562 427.417969 245.984375 427.589844 246.492188 C 427.671875 246.726562 428.050781 247.933594 427.515625 248.714844 Z M 423.441406 241.367188 C 423.140625 241.035156 422.992188 240.617188 423.03125 240.164062 C 423.070312 239.382812 423.640625 238.523438 424.71875 237.59375 C 424.902344 237.425781 425.1875 237.390625 425.417969 237.507812 C 426.246094 237.894531 426.925781 238.574219 427.332031 239.394531 C 427.621094 239.972656 427.6875 240.503906 427.523438 240.980469 C 427.3125 241.589844 426.808594 241.996094 426.105469 242.144531 C 425.925781 242.179688 425.742188 242.199219 425.550781 242.199219 C 424.75 242.199219 423.90625 241.882812 423.441406 241.367188 Z M 421.039062 249.035156 C 420.855469 249.085938 420.671875 249.117188 420.492188 249.117188 C 420.015625 249.117188 419.550781 248.925781 419.183594 248.5625 C 418.597656 247.957031 418.351562 246.984375 418.585938 246.207031 C 418.789062 245.570312 419.28125 245.128906 419.941406 244.992188 C 421.132812 244.769531 422.039062 245.707031 422.289062 246.707031 C 422.550781 247.785156 422.039062 248.742188 421.039062 249.035156 Z M 419.804688 254.5625 C 419.4375 255.222656 418.796875 255.589844 418.019531 255.589844 C 417.988281 255.589844 417.953125 255.589844 417.917969 255.589844 C 416.699219 255.535156 415.804688 254.605469 415.746094 253.320312 C 415.6875 252.21875 416.335938 251.007812 417.675781 250.824219 C 418.457031 250.714844 419.179688 251.035156 419.640625 251.707031 C 420.207031 252.519531 420.273438 253.722656 419.804688 254.5625 Z M 415.453125 243.007812 C 414.9375 243.007812 414.40625 242.777344 413.988281 242.359375 C 413.5 241.882812 413.246094 241.230469 413.308594 240.617188 C 413.371094 240.085938 413.660156 239.679688 414.117188 239.449219 C 414.792969 239.128906 415.71875 239.332031 416.273438 239.683594 C 416.953125 240.128906 417.316406 240.878906 417.199219 241.582031 C 417.074219 242.308594 416.429688 242.902344 415.664062 242.996094 C 415.597656 242.996094 415.527344 243.007812 415.453125 243.007812 Z M 414.847656 252.554688 C 414.023438 254.894531 412.402344 256.546875 411.078125 257.378906 C 409.734375 258.230469 408.753906 258.371094 408.6875 258.203125 C 408.601562 257.996094 409.402344 257.527344 410.441406 256.550781 C 411.492188 255.609375 412.761719 254.066406 413.46875 252.070312 C 414.171875 250.070312 414.148438 248.082031 413.9375 246.679688 C 413.726562 245.273438 413.40625 244.40625 413.597656 244.300781 C 413.753906 244.203125 414.4375 244.9375 414.941406 246.441406 C 415.449219 247.914062 415.675781 250.226562 414.847656 252.554688 Z M 444.03125 197.179688 C 444.1875 197.074219 444.878906 197.773438 445.644531 199.132812 C 446.414062 200.496094 447.179688 202.574219 447.445312 204.960938 C 447.710938 207.355469 447.414062 209.542969 446.957031 211.046875 C 446.519531 212.550781 445.996094 213.375 445.820312 213.308594 C 445.40625 213.179688 446.519531 209.578125 445.988281 205.121094 C 445.527344 200.664062 443.652344 197.402344 444.03125 197.179688 Z M 407.242188 251.292969 C 406.769531 251.867188 405.9375 252.25 405.09375 252.25 C 404.617188 252.25 404.128906 252.128906 403.714844 251.839844 C 402.824219 251.238281 402.78125 250.496094 402.835938 250.105469 C 402.941406 249.300781 403.644531 248.5625 404.574219 248.234375 C 405.476562 247.925781 406.382812 248.097656 407 248.695312 C 407.796875 249.488281 407.890625 250.503906 407.242188 251.292969 Z M 394.066406 249.539062 C 392.691406 251.304688 390.449219 252.398438 388.203125 252.398438 C 388.1875 252.398438 388.167969 252.398438 388.160156 252.398438 C 387.109375 252.390625 386.058594 252.15625 385.109375 251.710938 C 382.800781 250.644531 381.140625 248.316406 380.894531 245.777344 C 380.648438 243.320312 381.75 240.800781 383.699219 239.289062 C 383.925781 239.0625 384.171875 238.863281 384.4375 238.6875 C 384.5625 238.597656 384.703125 238.566406 384.851562 238.554688 C 385.664062 238.140625 386.554688 237.878906 387.464844 237.792969 C 385.441406 237.679688 383.582031 238.210938 382.292969 238.746094 C 380.816406 239.363281 379.964844 239.949219 379.828125 239.78125 C 379.691406 239.640625 380.328125 238.746094 381.8125 237.828125 C 383.285156 236.921875 385.703125 236.035156 388.449219 236.410156 C 389.8125 236.59375 391.082031 237.09375 392.058594 237.828125 C 393.03125 238.550781 393.691406 239.445312 394.078125 240.25 C 394.175781 240.449219 394.253906 240.640625 394.324219 240.832031 C 394.804688 241.515625 395.167969 242.273438 395.382812 243.109375 C 395.949219 245.289062 395.445312 247.757812 394.066406 249.539062 Z M 390.175781 254.257812 C 388.535156 254.734375 385.9375 254.769531 383.527344 253.457031 C 381.128906 252.128906 379.773438 249.914062 379.296875 248.273438 C 378.800781 246.59375 379.007812 245.507812 379.179688 245.507812 C 379.410156 245.492188 379.582031 246.496094 380.261719 247.890625 C 380.917969 249.269531 382.222656 251.058594 384.234375 252.175781 C 386.257812 253.277344 388.457031 253.425781 389.980469 253.242188 C 391.527344 253.066406 392.464844 252.679688 392.566406 252.878906 C 392.667969 253.023438 391.855469 253.777344 390.175781 254.257812 Z M 365.792969 248.757812 C 364.941406 248.148438 364.832031 247.210938 365.195312 247.046875 C 365.558594 246.859375 366.101562 247.195312 366.644531 247.570312 C 367.179688 247.957031 367.660156 248.359375 367.613281 248.765625 C 367.574219 249.167969 366.65625 249.363281 365.792969 248.757812 Z M 460.042969 196.921875 C 459.488281 196.035156 458.546875 195.277344 457.527344 194.574219 C 458.085938 196.066406 458.371094 197.464844 458.539062 198.550781 C 458.785156 200.140625 458.785156 201.140625 458.59375 201.1875 C 458.390625 201.230469 458.027344 200.289062 457.527344 198.789062 C 457.035156 197.292969 456.417969 195.214844 455.296875 193.191406 C 455.261719 193.128906 455.226562 193.074219 455.191406 193.019531 C 455.042969 192.921875 454.898438 192.828125 454.761719 192.722656 C 450.574219 189.75 446.082031 186.664062 441.089844 184.46875 C 436.929688 182.625 433.765625 181.675781 430.53125 181.292969 C 429.808594 181.207031 429.089844 181.144531 428.367188 181.089844 C 427.824219 181.046875 427.289062 180.992188 426.746094 180.941406 C 426.574219 180.964844 426.394531 180.964844 426.203125 180.921875 C 426.117188 180.898438 426.019531 180.867188 425.925781 180.84375 C 425.417969 180.78125 424.914062 180.707031 424.410156 180.609375 C 424.28125 180.601562 424.160156 180.582031 424.027344 180.578125 C 419.011719 180.144531 414.9375 179.820312 414.9375 179.402344 C 414.9375 179.128906 416.890625 178.886719 419.761719 178.90625 C 419.648438 178.839844 419.523438 178.777344 419.40625 178.703125 C 419.300781 178.628906 419.183594 178.566406 419.070312 178.5 C 418.671875 178.351562 418.285156 178.210938 417.882812 178.082031 C 414.691406 177.046875 412.199219 176.804688 410.03125 177.316406 C 407.648438 177.882812 405.597656 179.363281 403.421875 180.945312 C 403.199219 181.113281 402.972656 181.265625 402.75 181.421875 C 405.492188 180.910156 407.496094 180.929688 407.519531 181.21875 C 407.582031 181.632812 404.199219 182.382812 400.136719 183.554688 C 399.722656 183.667969 399.304688 183.789062 398.90625 183.910156 C 393.683594 186.828125 387.71875 188.457031 381.726562 188.609375 C 381.683594 188.609375 381.640625 188.617188 381.597656 188.617188 C 379.660156 188.800781 376.910156 188.714844 374.027344 187.925781 C 372.585938 187.527344 371.234375 187.046875 370.070312 186.398438 C 368.898438 185.761719 367.949219 184.941406 367.339844 184.117188 C 366.722656 183.300781 366.429688 182.503906 366.324219 181.945312 C 366.21875 181.378906 366.289062 181.070312 366.378906 181.050781 C 366.59375 181.007812 366.867188 182.179688 368.121094 183.445312 C 368.578125 183.902344 369.171875 184.351562 369.859375 184.761719 C 369.566406 184.148438 369.410156 183.492188 369.417969 182.832031 C 369.4375 181.25 370.410156 179.671875 371.976562 178.714844 C 372.460938 178.40625 372.984375 178.191406 373.503906 178.011719 C 372.53125 178.0625 371.644531 178.105469 370.878906 178.148438 C 369.890625 178.222656 369.152344 178.417969 368.691406 178.679688 C 368.222656 178.917969 368 179.164062 367.90625 179.105469 C 367.828125 179.066406 367.882812 178.691406 368.339844 178.222656 C 368.792969 177.746094 369.664062 177.332031 370.722656 177.125 C 372.820312 176.742188 375.660156 176.429688 378.839844 176.296875 C 382.582031 176.152344 385.886719 176.335938 387.976562 176.582031 C 392.722656 176.742188 397.460938 177.445312 402.023438 178.742188 C 404.265625 177.105469 406.597656 175.445312 409.433594 174.777344 C 410.214844 174.597656 411.035156 174.492188 411.875 174.460938 C 401.011719 169.269531 388.800781 167.113281 376.746094 168.375 C 372.691406 168.800781 369.488281 169.53125 366.6875 170.667969 C 363.351562 172.015625 359.980469 173.5625 358.550781 176.25 C 356.664062 179.792969 356.03125 183.910156 356.761719 187.847656 C 357.238281 190.417969 358.316406 192.921875 359.882812 195.078125 C 360.691406 196.195312 361.570312 197.167969 362.5 197.988281 C 363.421875 198.800781 364.875 199.34375 366.027344 199.777344 C 369.160156 200.933594 372.792969 201.574219 377.441406 201.785156 C 386.429688 202.175781 395.675781 200.855469 404.191406 197.957031 C 404.617188 197.628906 405.0625 197.25 405.476562 196.804688 C 406.054688 196.242188 406.523438 195.652344 406.917969 195.101562 C 407.023438 194.664062 407.171875 194.226562 407.363281 193.808594 C 407.867188 192.679688 408.660156 191.644531 409.628906 190.800781 C 411.597656 189.089844 414.085938 188.402344 416.21875 188.351562 C 417.378906 188.316406 418.460938 188.4375 419.4375 188.648438 C 419.515625 188.628906 419.578125 188.617188 419.65625 188.605469 C 420.445312 188.4375 421.351562 188.234375 422.375 188.203125 C 424.429688 188.136719 426.210938 188.839844 427.277344 189.578125 C 428.367188 190.3125 428.808594 191.015625 428.679688 191.15625 C 428.539062 191.324219 427.878906 190.921875 426.796875 190.484375 C 425.722656 190.054688 424.195312 189.628906 422.488281 189.671875 C 423.578125 190.175781 424.410156 190.726562 424.957031 191.175781 C 425.636719 191.730469 425.933594 192.136719 425.847656 192.242188 C 425.671875 192.507812 424.078125 191.460938 421.28125 190.714844 C 419.882812 190.355469 418.171875 190.089844 416.324219 190.238281 C 414.480469 190.386719 412.527344 191 410.980469 192.347656 C 410.207031 193.019531 409.585938 193.816406 409.179688 194.660156 C 408.980469 195.085938 408.835938 195.503906 408.71875 195.960938 C 408.605469 196.421875 408.511719 196.933594 408.378906 197.464844 C 408.242188 197.996094 408.050781 198.550781 407.757812 199.066406 C 407.460938 199.558594 407.113281 199.949219 406.800781 200.289062 C 406.226562 200.890625 405.765625 201.347656 405.402344 201.835938 C 405.242188 202.382812 405.179688 203.09375 405.214844 204.011719 L 405.234375 204.257812 C 405.296875 205.894531 405.371094 207.746094 404.265625 209.289062 C 403.527344 210.335938 402.382812 211.0625 400.746094 211.53125 C 400.285156 211.664062 399.816406 211.765625 399.359375 211.871094 C 398.898438 211.976562 398.453125 212.070312 398.035156 212.195312 L 401.410156 212.480469 C 401.832031 212.515625 402.214844 212.757812 402.433594 213.128906 C 402.503906 213.265625 402.546875 213.414062 402.574219 213.554688 C 404.148438 212.4375 405.328125 211.773438 405.511719 211.996094 C 405.765625 212.304688 403.929688 214.214844 401.394531 216.304688 C 400.65625 217.113281 400.007812 218.007812 399.480469 218.96875 C 399.347656 219.214844 399.28125 219.394531 399.253906 219.515625 C 399.304688 219.515625 399.367188 219.511719 399.4375 219.5 C 400.253906 219.371094 401.019531 218.765625 401.660156 218.191406 L 402.117188 217.78125 C 402.644531 217.285156 403.183594 216.792969 403.816406 216.367188 C 403.957031 216.1875 404.089844 216.027344 404.222656 215.855469 C 405.910156 213.882812 407.6875 212.707031 407.953125 213 C 408.15625 213.226562 407.527344 214.148438 406.546875 215.367188 C 407.410156 215.304688 408.230469 215.496094 408.921875 215.921875 C 408.902344 214.949219 409.042969 214.296875 409.265625 214.269531 C 409.679688 214.234375 410.1875 216.007812 410.667969 218.191406 C 410.675781 218.242188 410.683594 218.296875 410.695312 218.34375 C 410.71875 218.40625 410.746094 218.476562 410.769531 218.539062 C 410.84375 218.765625 410.910156 218.988281 410.972656 219.203125 C 411.109375 219.660156 411.234375 220.085938 411.414062 220.429688 C 411.609375 220.804688 411.882812 221.078125 412.113281 221.113281 C 412.484375 221.175781 412.753906 221.207031 412.933594 221.214844 L 413.480469 217.441406 C 413.511719 217.136719 413.539062 216.824219 413.5625 216.496094 C 413.777344 214.117188 414.089844 212.15625 414.5 212.15625 C 414.746094 212.15625 414.960938 212.90625 415.046875 214.035156 C 415.074219 214.019531 415.089844 214 415.121094 213.980469 C 416.101562 213.351562 417.433594 213.375 418.691406 214.0625 C 419.265625 214.375 419.734375 214.757812 420.195312 215.121094 C 420.378906 215.269531 420.558594 215.417969 420.742188 215.558594 C 421.308594 215.972656 421.757812 216.183594 422.128906 216.1875 C 422.414062 216.1875 422.601562 216.039062 422.628906 215.984375 C 422.636719 215.921875 422.628906 215.707031 422.203125 215.097656 C 421.648438 214.277344 421.019531 213.507812 420.367188 212.679688 C 419.5 211.601562 418.601562 210.484375 417.847656 209.246094 C 416.273438 206.675781 415.832031 204.121094 416.542969 201.65625 C 416.636719 201.347656 416.828125 201.105469 417.082031 200.941406 C 416.828125 200.757812 416.605469 200.566406 416.402344 200.375 C 415.28125 199.269531 415.074219 198.28125 415.238281 198.210938 C 415.429688 198.105469 415.941406 198.839844 417.0625 199.566406 C 418.160156 200.3125 419.921875 201.003906 421.957031 201.0625 C 424.023438 201.125 425.914062 200.707031 427.308594 200.4375 C 428.707031 200.152344 429.601562 200.027344 429.667969 200.21875 C 429.730469 200.410156 428.957031 200.878906 427.601562 201.429688 C 427.460938 201.480469 427.3125 201.539062 427.167969 201.59375 C 427.332031 201.742188 427.472656 201.921875 427.546875 202.144531 C 428.035156 203.628906 429.644531 204.695312 431.183594 204.578125 C 431.320312 204.574219 431.449219 204.578125 431.574219 204.617188 C 431.765625 204.109375 431.972656 203.660156 432.199219 203.304688 C 432.761719 202.378906 433.292969 201.933594 433.453125 202.042969 C 433.738281 202.230469 433.050781 203.679688 432.644531 205.746094 C 433.632812 208.203125 434.257812 211.914062 432.910156 214.914062 C 431.695312 217.648438 429.070312 219.972656 427.097656 221.441406 C 424.246094 223.542969 421.027344 225.027344 417.925781 226.476562 C 417.253906 226.785156 416.59375 227.085938 415.933594 227.402344 C 412.457031 229.058594 408.527344 231.066406 405.921875 234.046875 C 405.875 234.089844 405.832031 234.128906 405.789062 234.160156 C 406.246094 234.375 406.683594 234.671875 407.085938 235.027344 C 408.324219 236.167969 408.894531 237.53125 409.199219 238.480469 C 409.492188 239.445312 409.542969 240.058594 409.363281 240.148438 C 409.171875 240.226562 408.78125 239.726562 408.261719 238.914062 C 407.738281 238.113281 407.078125 237.003906 406.097656 236.113281 C 405.589844 235.640625 405.042969 235.3125 404.511719 235.109375 C 404.410156 235.269531 404.304688 235.4375 404.164062 235.601562 C 404.136719 235.640625 404.105469 235.652344 404.078125 235.6875 C 404.210938 235.785156 404.339844 235.863281 404.460938 235.964844 C 406.109375 237.277344 407.332031 238.765625 408.027344 239.9375 C 408.734375 241.113281 408.96875 241.933594 408.808594 242.03125 C 408.433594 242.25 406.632812 239.53125 403.558594 237.113281 C 402.855469 236.550781 402.148438 236.0625 401.488281 235.628906 C 393.183594 233.039062 383.96875 232.867188 376.59375 235.195312 C 376.460938 235.238281 376.332031 235.246094 376.210938 235.257812 C 375.890625 235.453125 375.582031 235.671875 375.320312 235.898438 C 374.851562 236.304688 374.433594 236.730469 374.046875 237.082031 C 373.269531 237.785156 372.628906 238.070312 372.503906 237.914062 C 372.382812 237.746094 372.714844 237.238281 373.261719 236.390625 C 373.539062 235.976562 373.886719 235.460938 374.382812 234.9375 C 374.546875 234.738281 374.757812 234.558594 374.964844 234.375 C 374.964844 234.367188 374.964844 234.367188 374.957031 234.363281 C 374.367188 232.53125 372.480469 231.109375 370.472656 230.972656 C 369.535156 230.898438 368.542969 231.101562 367.628906 231.546875 C 367.5 231.605469 367.378906 231.683594 367.246094 231.753906 C 367.59375 233.105469 367.949219 234.601562 368.011719 236.253906 C 368.0625 237.425781 367.90625 238.597656 367.5625 239.671875 C 368.308594 239.289062 369.035156 239.0625 369.664062 238.957031 C 371.113281 238.730469 371.992188 239.015625 371.976562 239.203125 C 371.976562 239.417969 371.132812 239.511719 369.933594 239.953125 C 369.332031 240.1875 368.644531 240.503906 367.96875 240.972656 C 367.273438 241.421875 366.671875 242.050781 365.933594 242.824219 C 365.570312 243.199219 365.175781 243.582031 364.738281 243.902344 C 364.308594 244.222656 363.875 244.472656 363.476562 244.691406 C 362.890625 245.003906 362.386719 245.257812 361.941406 245.507812 C 361.359375 246.390625 361.152344 247.101562 361.238281 247.847656 C 361.453125 249.652344 362.542969 251.371094 364.085938 252.320312 C 364.925781 252.851562 365.917969 253.179688 366.96875 253.53125 L 367.628906 253.753906 C 368.386719 253.894531 369.183594 253.988281 370.046875 254.023438 C 372.023438 254.109375 374.242188 253.9375 376.640625 253.96875 C 379.058594 254.007812 381.3125 254.382812 383.316406 254.703125 C 385.328125 255.03125 387.117188 255.324219 388.625 255.484375 C 391.636719 255.824219 393.523438 255.554688 393.558594 255.78125 C 393.609375 255.941406 391.71875 256.59375 388.5625 256.515625 C 386.996094 256.492188 385.144531 256.300781 383.117188 256.039062 C 381.105469 255.789062 378.910156 255.472656 376.617188 255.441406 C 375.304688 255.421875 373.996094 255.449219 372.738281 255.460938 C 373.984375 255.855469 375.242188 256.230469 376.503906 256.535156 C 379.9375 257.371094 383.550781 257.714844 387.058594 258.042969 C 387.921875 258.136719 388.769531 258.210938 389.628906 258.308594 C 390.804688 258.425781 391.976562 258.59375 393.125 258.757812 C 393.664062 258.742188 394.238281 258.734375 394.855469 258.734375 C 395.976562 258.722656 397.210938 258.757812 398.460938 258.722656 C 399.714844 258.691406 400.871094 258.5625 401.871094 258.265625 C 402.863281 257.976562 403.695312 257.53125 404.324219 257.074219 C 405.589844 256.132812 406 255.152344 406.207031 255.230469 C 406.300781 255.257812 406.320312 255.554688 406.171875 256.039062 C 406.019531 256.515625 405.652344 257.195312 405 257.847656 C 404.359375 258.507812 403.433594 259.132812 402.289062 259.546875 C 401.382812 259.878906 400.363281 260.066406 399.3125 260.152344 C 399.679688 260.304688 400.046875 260.480469 400.402344 260.644531 C 400.894531 260.878906 401.382812 261.113281 401.886719 261.3125 C 402.992188 261.765625 404.121094 261.871094 405.320312 261.984375 C 405.972656 262.046875 406.652344 262.125 407.355469 262.242188 C 407.730469 262.15625 408.101562 262.046875 408.496094 261.914062 C 411.421875 260.972656 413.179688 259.035156 413.519531 259.296875 C 413.667969 259.410156 413.421875 260.078125 412.667969 260.929688 C 412.222656 261.433594 411.589844 261.984375 410.789062 262.453125 C 412.007812 262.371094 413.136719 262.167969 414.03125 261.941406 C 414.371094 261.851562 414.703125 261.757812 415.042969 261.667969 C 416.015625 261.390625 417.03125 261.113281 418.125 261.035156 C 418.660156 261.003906 419.054688 260.984375 419.40625 261.007812 C 419.28125 260.546875 419.203125 260.109375 419.183594 259.714844 C 419.109375 258.480469 419.394531 257.753906 419.585938 257.765625 C 419.792969 257.785156 419.890625 258.5 420.210938 259.542969 C 420.386719 260.152344 420.679688 260.878906 421.101562 261.625 C 421.210938 261.707031 421.335938 261.773438 421.472656 261.871094 L 421.828125 262.105469 C 423.386719 263.128906 424.855469 264.105469 426.566406 264.652344 C 428.515625 265.277344 430.566406 266.34375 432.859375 267.933594 C 437.039062 270.820312 438.730469 276.199219 440.082031 280.515625 C 440.726562 282.578125 440.035156 284.808594 438.179688 286.652344 C 438.074219 286.753906 437.972656 286.847656 437.867188 286.953125 C 437.753906 287.058594 437.644531 287.164062 437.539062 287.261719 C 437.777344 287.304688 438.011719 287.410156 438.207031 287.589844 C 438.730469 288.0625 438.777344 288.851562 438.335938 289.382812 C 438.277344 289.449219 438.214844 289.519531 438.144531 289.578125 C 437.542969 290.1875 437.027344 290.875 436.582031 291.613281 C 438.875 291.28125 440.972656 290.371094 442.421875 289.042969 C 442.65625 288.816406 442.980469 288.703125 443.300781 288.703125 C 443.394531 288.703125 443.480469 288.710938 443.578125 288.730469 C 443.992188 288.816406 444.34375 289.109375 444.5 289.5 C 445.125 290.980469 445.484375 292.542969 445.558594 294.148438 C 445.570312 294.222656 445.570312 294.289062 445.578125 294.351562 L 447.253906 286.582031 C 447.339844 286.1875 447.605469 285.863281 447.96875 285.6875 C 448.324219 285.515625 448.75 285.515625 449.105469 285.6875 C 449.984375 286.121094 450.9375 286.390625 451.914062 286.472656 C 449.464844 285.097656 447.566406 283.105469 446.691406 280.953125 C 445.78125 278.726562 444.929688 276.433594 444.097656 274.214844 C 443.683594 273.09375 443.257812 271.964844 442.832031 270.84375 C 442.007812 268.671875 441.300781 266.875 440.378906 265.140625 C 439.632812 263.730469 438.628906 261.835938 437.402344 261.070312 C 437.199219 260.941406 436.902344 260.855469 436.554688 260.757812 C 436.355469 260.695312 436.144531 260.632812 435.949219 260.566406 C 435.183594 260.304688 434.488281 259.949219 433.816406 259.601562 C 433.601562 259.488281 433.382812 259.367188 433.15625 259.265625 C 431.484375 258.425781 429.601562 257.488281 428.035156 256.015625 C 427.78125 255.929688 427.523438 255.84375 427.261719 255.75 C 424.902344 255.015625 422.828125 255.078125 422.757812 254.660156 C 422.722656 254.46875 423.238281 254.191406 424.148438 254.050781 C 424.59375 253.980469 425.136719 253.957031 425.730469 254 C 424.246094 253.191406 423.003906 252.789062 423.035156 252.441406 C 423.066406 252.25 423.582031 252.113281 424.421875 252.199219 C 425.007812 252.261719 425.757812 252.457031 426.542969 252.816406 C 426.585938 252.519531 426.660156 252.21875 426.808594 251.878906 C 427.332031 250.675781 428.324219 249.835938 429.324219 249.085938 C 429.921875 248.648438 430.53125 248.191406 431.128906 247.75 C 430.800781 247.390625 430.539062 246.964844 430.398438 246.496094 C 430.179688 245.792969 430.277344 245.109375 430.652344 244.621094 C 431 244.160156 431.597656 243.894531 432.289062 243.882812 C 432.984375 243.882812 433.75 244.140625 434.285156 244.621094 C 434.445312 244.757812 434.582031 244.925781 434.703125 245.089844 C 436.003906 244.128906 437.308594 243.152344 438.617188 242.1875 L 443.136719 238.832031 C 444.160156 238.070312 445.035156 237.148438 445.953125 236.175781 C 446.542969 235.542969 447.148438 234.886719 447.832031 234.269531 C 449.699219 232.53125 451.480469 230.660156 453.113281 228.679688 C 456.160156 224.992188 458.730469 220.953125 460.761719 216.667969 C 461.109375 215.949219 461.425781 215.21875 461.730469 214.503906 C 461.847656 214 461.984375 213.460938 462.125 212.890625 C 462.25 212.410156 462.359375 211.960938 462.476562 211.527344 C 462.476562 211.492188 462.476562 211.464844 462.476562 211.429688 L 462.476562 211.113281 C 462.484375 210.324219 462.519531 209.542969 462.558594 208.769531 C 462.644531 206.710938 462.71875 204.765625 462.355469 202.753906 C 461.988281 200.671875 461.25 198.820312 460.042969 196.921875 " fill-opacity="1" fill-rule="nonzero"/>
</svg>