<?xml version="1.0" encoding="utf-8"?>
<svg version="1.1" viewBox="0 0 1200 1200" xmlns="http://www.w3.org/2000/svg" width="150pt" height="150pt">
  <path d="M 145.22 955.18 C 161.158 974.4459999999999 184.829 985.789 210.142 985.789 C 230.392 985.789 249.751 978.5234 264.93899999999996 965.539 C 280.03299999999996 978.523 299.39199999999994 985.789 319.64199999999994 985.789 C 344.95399999999995 985.789 368.6259999999999 974.4449999999999 384.56399999999996 955.18 C 391.82959999999997 957.1487999999999 399.33 958.1330999999999 406.876 958.1330999999999 C 439.126 958.1330999999999 467.157 939.8521 481.35999999999996 913.1330999999999 C 455.29799999999994 906.5236999999998 431.71899999999994 892.7890999999998 412.92199999999997 872.9610999999999 C 403.6876 874.8360999999999 394.313 875.7266999999998 384.984 875.7266999999998 C 305.67199999999997 875.7266999999998 241.17399999999998 811.1326999999999 241.17399999999998 731.8266999999998 C 241.17399999999998 683.8266999999998 264.37699999999995 640.1856999999999 302.90799999999996 613.6566999999999 C 301.59549999999996 609.1566999999999 300.37679999999995 604.6566999999999 299.29859999999996 600.1096999999999 C 286.3146 594.7190999999999 272.1106 591.8596999999999 257.57959999999997 591.8596999999999 C 215.01759999999996 591.8596999999999 176.81359999999995 615.9536999999999 158.43859999999995 653.9216999999999 C 109.36059999999995 665.6876999999998 74.39159999999995 709.7966999999999 74.39159999999995 760.7516999999999 C 74.39159999999995 774.6266999999999 76.92279999999995 787.9396999999999 81.75099999999995 800.4546999999999 C 55.35999999999995 815.2206999999999 38.85999999999995 842.9236999999999 38.85999999999995 873.9546999999999 C 38.85999999999995 920.4076999999999 76.59399999999995 958.1426999999999 123.04799999999994 958.1426999999999 C 130.59489999999994 958.1426999999999 138.09499999999994 957.1583299999999 145.21999999999994 955.1895999999999 L 145.22 955.18 Z M 1126.9 806.21 C 1133.275 792.0070000000001 1136.6031 776.491 1136.6031 760.741 C 1136.6031 700.132 1087.2911000000001 650.821 1026.6831 650.821 L 1025.1362 650.821 C 1006.1981999999999 614.727 968.7921999999999 591.852 927.7771999999999 591.852 C 924.8240999999999 591.852 921.8240999999999 591.94575 918.8709999999999 592.27388 C 916.9959999999999 603.0548799999999 914.1365999999998 613.74288 910.2928999999999 624.0548799999999 C 940.9958999999999 651.1018799999999 958.9488999999999 690.28888 958.9488999999999 731.7748799999999 C 958.9488999999999 811.08688 894.3548999999998 875.6748799999999 815.0488999999999 875.6748799999999 C 805.6738999999999 875.6748799999999 796.3458999999999 874.7842599999999 787.1108999999999 872.90928 C 768.4078999999999 892.59728 744.8768999999999 906.37828 718.7668999999999 913.08128 C 732.9698999999998 939.80028 761.0008999999999 958.08128 793.2508999999999 958.08128 C 800.8446999999999 958.08128 808.3448999999999 957.0969 815.4698999999999 955.12818 C 831.4078999999999 974.39418 855.0789 985.7371800000001 880.3919 985.7371800000001 C 900.6419 985.7371800000001 920.0009 978.4715800000001 935.1889 965.4871800000001 C 950.2829 978.4711800000001 969.6419 985.7371800000001 989.8919 985.7371800000001 C 1015.2039 985.7371800000001 1038.8759 974.39318 1054.8138999999999 955.12818 C 1062.0794999999998 957.09698 1069.5799 958.08128 1077.1728999999998 958.08128 C 1123.4848999999997 958.08128 1161.3609 920.34728 1161.3609 873.89328 C 1161.22028 847.03428 1148.2359 821.90928 1126.9079 806.20528 L 1126.9 806.21 Z M 1124.5 1139.2 L 1040.688 1139.2 C 1013.1260000000001 1096.356 997.844 1051.544 988.2820000000002 1007.76 C 969.4850000000001 1007.52562 950.9700000000001 1002.2755999999999 935.0320000000002 992.572 C 918.9540000000002 1002.2751 900.4850000000001 1007.525 881.6880000000001 1007.76 C 872.1255000000001 1051.541 856.9850000000001 1096.307 829.4220000000001 1139.2 L 756.8130000000001 1139.2 C 709.5630000000001 1066.731 685.7040000000001 990.7 671.3130000000001 917.01 C 645.5790000000001 915.0412 621.0160000000001 906.135 600.0160000000001 891.276 C 579.0160000000001 906.135 554.3600000000001 915.0419999999999 528.5780000000001 917.01 C 514.2810000000001 990.744 490.4220000000001 1066.6399999999999 443.0780000000001 1139.2 L 370.6090000000001 1139.2 C 343.0470000000001 1096.356 327.7650000000001 1051.544 318.2030000000001 1007.76 C 299.40600000000006 1007.52562 280.8910000000001 1002.2755999999999 264.9530000000001 992.572 C 248.87500000000009 1002.2751 230.4060000000001 1007.525 211.6090000000001 1007.76 C 202.0465000000001 1051.541 186.9060000000001 1096.307 159.3430000000001 1139.2 L 75.3900000000001 1139.2 C 69.2962000000001 1139.2 64.3740000000001 1144.1219 64.3740000000001 1150.2160000000001 C 64.3740000000001 1156.3101000000001 69.29590000000009 1161.2320000000002 75.3900000000001 1161.2320000000002 L 1124.49 1161.2320000000002 C 1130.5838 1161.2320000000002 1135.506 1156.3101000000001 1135.506 1150.2160000000001 C 1135.506 1144.1219 1130.5841 1139.2 1124.537 1139.2 L 1124.5 1139.2 Z M 316.97 560.34 C 316.97 582.371 321.2825 603.371 329.72 623.152 C 288.89200000000005 643.73 263.158 685.214 263.158 731.7620000000001 C 263.158 798.981 317.72 853.682 384.978 853.682 C 397.212 853.682 409.166 851.807 420.744 848.2914000000001 C 443.853 878.0104000000001 479.15000000000003 895.4944 517.0250000000001 895.4944 C 547.9630000000001 895.4944 577.541 883.7284000000001 599.9940000000001 862.9164000000001 C 622.3530000000002 883.7284000000001 651.9320000000001 895.4944 682.8690000000001 895.4944 C 720.6970000000001 895.4944 756.1350000000001 878.0104 779.1500000000001 848.2914000000001 C 790.681 851.807 802.681 853.682 814.916 853.682 C 882.135 853.682 936.836 798.979 936.836 731.7620000000001 C 936.836 691.2620000000001 916.586 653.528 883.352 630.9820000000001 C 894.04 609.0910000000001 899.524 584.8570000000001 899.524 560.3410000000001 C 899.524 471.65300000000013 827.4300000000001 399.4710000000001 738.654 399.4710000000001 C 736.779 399.4710000000001 734.904 399.4710000000001 732.9352 399.5647500000001 C 705.8882 345.0027500000001 650.0602 310.12675000000013 588.7952 310.12675000000013 C 525.7482 310.12675000000013 468.9852 346.54875000000015 442.6852 403.4547500000001 C 369.4662 419.7207500000001 316.9652 484.87675000000013 316.9652 560.3447500000001 L 316.97 560.34 Z M 128.29 298.18 L 92.196 334.274 C 87.8835 338.5865 87.8835 345.618 92.196 349.883 C 94.30539999999999 351.9924 97.1648 353.0705 99.8835 353.0705 C 102.74289999999999 353.0705 105.5085 351.9455 107.7116 349.883 L 143.89960000000002 313.695 C 148.21210000000002 309.3825 148.21210000000002 302.492 143.89960000000002 298.179 C 139.58710000000002 293.86599999999993 132.55560000000003 293.8665 128.2906 298.179 L 128.29 298.18 Z M 128.29 143.9 C 130.4931 146.1031 133.25879999999998 147.0875 136.1181 147.0875 C 138.8837 147.0875 141.7431 146.10312000000002 143.9462 143.9 C 148.2587 139.5875 148.2587 132.697 143.9462 128.38400000000001 L 107.7122 92.15 C 103.3997 87.8375 96.50919999999999 87.8375 92.19619999999999 92.15 C 87.88319999999999 96.4625 87.88369999999999 103.494 92.19619999999999 107.759 L 128.29 143.9 Z M 209.9 341.06 L 209.9 392.248 C 209.9 398.2949 214.8688 403.264 220.916 403.264 C 227.0566 403.264 231.932 398.2952 231.932 392.248 L 231.932 341.06 C 231.932 335.0131 227.10389999999998 330.044 220.916 330.044 C 214.8691 330.044 209.9 335.01279999999997 209.9 341.06 Z M 221.02 294.74 C 261.61400000000003 294.74 294.61400000000003 261.74 294.61400000000003 221.00600000000003 C 294.61400000000003 180.27200000000002 261.61400000000003 147.27200000000005 221.02000000000004 147.27200000000005 C 180.28600000000003 147.27200000000005 147.19200000000004 180.27200000000005 147.19200000000004 221.00600000000003 C 147.19200000000004 261.74 180.33300000000003 294.74 221.02000000000004 294.74 L 221.02 294.74 Z M 220.92 111.98 C 227.0606 111.98 231.93599999999998 107.0112 231.93599999999998 100.964 L 231.93599999999998 49.775999999999996 C 231.93599999999998 43.729099999999995 227.10789999999997 38.76 220.92 38.76 C 214.8731 38.76 209.904 43.7288 209.904 49.775999999999996 L 209.904 100.964 C 209.904 107.01089999999999 214.87279999999998 111.98 220.92 111.98 Z M 334.26 349.87 C 336.3694 351.9794 339.2288 353.0575 341.9475 353.0575 C 344.8069 353.0575 347.5725 351.9325 349.7756 349.87 C 354.0881 345.4638 354.0881 338.526 349.7756 334.261 L 313.5876 298.16700000000003 C 309.2751 293.85450000000003 302.38460000000003 293.85450000000003 298.0716 298.16700000000003 C 293.75859999999994 302.47950000000003 293.7591 309.37 298.0716 313.68300000000005 L 334.26 349.87 Z M 305.86 147.1 C 308.6256 147.1 311.485 146.11562 313.5475 143.9125 L 349.7355 107.8185 C 354.048 103.506 354.048 96.4745 349.7355 92.2095 C 345.423 87.897 338.5325 87.897 334.2195 92.2095 L 298.07849999999996 128.3505 C 293.76599999999996 132.663 293.76599999999996 139.5535 298.07849999999996 143.8665 C 300.28159999999997 146.0696 303.00039999999996 147.1009 305.8597 147.1009 L 305.86 147.1 Z M 329.95 221.02 C 329.95 227.0669 334.9188 232.036 340.966 232.036 L 392.154 232.036 C 398.2009 232.036 403.17 227.0672 403.17 221.02 C 403.17 214.9728 398.20120000000003 210.00400000000002 392.154 210.00400000000002 L 340.966 210.00400000000002 C 334.9191 210.00400000000002 329.95 214.9728 329.95 221.02 Z M 49.828 232.03 L 100.875 232.03 C 107.0156 232.03 111.891 227.0612 111.891 221.014 C 111.891 214.9668 107.0629 209.99800000000002 100.875 209.99800000000002 L 49.828 209.99800000000002 C 43.687400000000004 209.99800000000002 38.812000000000005 214.9668 38.812000000000005 221.014 C 38.812000000000005 227.0612 43.640100000000004 232.03 49.828 232.03 Z"/>
</svg>