<?xml version="1.0" encoding="utf-8"?>
<svg version="1.1" viewBox="0 0 1200 1200" xmlns="http://www.w3.org/2000/svg" width="150pt" height="150pt">
  <path d="M 299.5 918.71 C 360.966 918.71 410.79 968.534 410.79 1030 C 410.79 1091.465 360.966 1141.29 299.5 1141.29 C 238.034 1141.29 188.21 1091.466 188.21 1030 C 188.21 968.535 238.034 918.71 299.5 918.71 Z M 336.78 60 C 405.514 60 461.23 115.727 461.23 184.46 C 461.23 193.054 459.8 198.175 458.699 209.538 C 457.605 220.901 452.554 233.624 454.644 252.667 C 456.746 271.71 460.73 300.44 469.007 319.089 C 477.288 337.737 488.855 355.198 504.312 364.569 C 519.769 373.94 542.507 374.936 561.757 375.346 C 573.445 373.065 585.132 372.573 596.819 368.494 C 608.506 364.416 617.964 363.381 629.362 358.596 C 640.772 353.807 650.292 346.834 654.491 323.592 C 658.69 300.35 640.893 286.19 622.249 267.588 C 603.601 248.986 596.448 221.975 596.448 206.615 C 596.448 145.15 646.272 95.315 707.738 95.315 C 769.203 95.315 819.028 145.151 819.028 206.615 C 819.028 221.986 817.575 232.677 810.282 249.935 C 802.985 267.193 787.087 282.154 782.442 288.611 L 782.383 288.67 C 774.333 296.326 760.242 310.342 755.012 320.315 C 744.535 340.26 735.766 366.19 737.66 387.936 C 739.555 409.678 757.508 438.745 766.375 450.768 C 775.254 462.78 786.223 473.76 801.68 478.897 C 817.137 484.033 841.618 484.729 859.125 481.584 C 876.621 478.44 895.559 474.994 906.691 460.045 C 917.828 445.092 909.008 431.834 925.902 391.885 C 942.797 351.936 982.351 323.905 1028.442 323.905 C 1089.907 323.905 1139.732 373.741 1139.732 435.205 C 1139.732 496.67 1089.908 546.505 1028.442 546.505 C 1013.083 546.505 998.442 543.384 985.122 537.759 L 959.911 524.607 C 946.579 518.185 931.063 511.502 917.442 510.302 C 890.215 507.915 844.278 508.611 825.895 522.864 C 807.512 537.134 805.758 583.044 807.153 595.884 C 808.544 608.724 810.489 622.728 814.232 640.45 C 821.708 675.911 829.041 705.825 857.31 736.497 C 885.583 767.169 959.48 798.884 983.85 824.458 C 989.947 830.852 994.952 836.685 998.838 842.204 L 1003.291 848.372 C 1019.166 871.868 1028.432 900.188 1028.432 930.681 C 1028.432 1011.982 962.53 1077.881 881.242 1077.881 C 799.953 1077.881 734.052 1011.979 734.052 930.681 C 734.052 920.517 735.083 910.591 737.04 901.017 C 739.142 864.427 765.013 837.681 743.329 791.247 C 721.645 744.817 631.529 762.302 612.299 762.52 C 593.076 762.747 584.975 761.465 574.139 760.278 C 563.303 759.102 553.26 757.051 547.295 755.442 C 537.252 752.321 527.541 750.211 518.256 745.59 C 507.217 739.661 502.127 737.262 485.147 726.02 C 468.155 714.778 438.479 685.723 416.338 678.153 C 394.197 670.567 368.975 675.813 352.318 680.54 C 335.662 685.278 319.92 701.626 316.416 706.556 L 302.314 725.419 C 278.662 760.435 238.595 783.462 193.164 783.462 C 120.469 783.462 61.534 724.517 61.534 651.812 C 61.534 579.105 120.468 520.162 193.164 520.162 C 220.43 520.162 245.75 528.455 266.762 542.65 L 290.137 560.662 C 298.813 567.681 306.266 579.572 318.817 584.795 C 331.379 590.014 356.532 592.689 379.848 581.205 C 403.164 569.721 417.922 538.893 422.832 523.076 C 427.738 507.26 433.094 488.385 437.988 471.943 C 442.894 455.502 451.968 440.021 452.246 424.423 C 452.523 408.821 449.355 392.31 439.684 378.345 C 430.012 364.376 418.95 353.615 394.215 340.642 C 369.485 327.681 312.473 309.38 291.305 300.548 C 280.903 296.204 279.762 295.052 267.196 287.673 C 234.087 265.306 212.333 227.435 212.333 184.463 C 212.329 115.721 268.044 59.993 336.783 59.993 Z" fill-rule="evenodd"/>
</svg>