<?xml version="1.0" encoding="utf-8"?>
<svg version="1.1" viewBox="0 0 1200 1200" xmlns="http://www.w3.org/2000/svg" width="150pt" height="150pt">
  <path d="M 814.181 480.14 C 814.181 550.919 777.1 608.388 706.881 646.45 C 668.959 666.934 631.319 676.45 613.178 680.153 L 613.178 565.543 L 725.488 477.324 C 731.113 472.964 732.098 464.808 727.644 459.183 C 723.284 453.558 715.128 452.574 709.503 457.027 L 613.128 532.636 L 613.128 425.016 L 681.659 371.25 C 687.284 366.89 688.269 358.734 683.816 353.109 C 679.456 347.484 671.3 346.499 665.675 350.953 L 613.128 392.109 L 613.128 291.189 C 613.128 284.016 607.408 278.251 600.19 278.251 C 593.017 278.251 587.252 283.97 587.252 291.189 L 587.252 392.109 L 534.705 350.953 C 529.173 346.499 521.017 347.484 516.564 353.109 C 512.11 358.641 513.095 366.797 518.72 371.25 L 587.251 425.016 L 587.251 532.636 L 490.876 457.027 C 485.344 452.574 477.188 453.558 472.735 459.183 C 468.282 464.715 469.266 472.871 474.891 477.324 L 587.201 565.543 L 587.201 680.153 C 569.107 676.45 531.56 666.981 493.498 646.45 C 423.276 608.53 386.198 550.921 386.198 480.14 C 386.198 402.51 412.355 301.448 454.589 216.51 C 476.199 173.1 533.527 72.04 600.139 72.04 C 666.751 72.04 724.08 173.057 745.689 216.51 C 787.783 301.36 814.08 402.374 814.08 480.14 Z M 601.786 682.22 C 602.395 682.079 606.332 681.47 612.942 680.157 L 612.942 770.298 C 612.942 777.471 607.223 783.236 600.004 783.236 C 592.831 783.236 587.066 777.517 587.066 770.298 L 587.066 680.157 C 593.675 681.517 597.613 682.22 598.222 682.22 Z M 1076.778 690.157 C 1080.012 710.313 1076.169 731.22 1066.231 749.079 L 958.841 940.369 C 935.169 982.509 922.7 1030.275 922.7 1078.509 L 922.7 1127.821 L 743.78 1127.821 L 743.78 1044.055 C 743.78 1042.367 743.405 1040.539 742.702 1038.992 L 729.764 1008.383 C 715.748 975.525 711.904 939.525 718.373 904.463 C 724.982 869.307 741.669 837.385 766.607 812.166 C 782.92 795.76 801.998 782.776 823.373 773.541 L 828.764 771.151 C 831.295 770.073 833.451 768.151 834.904 765.619 L 891.763 664.229 C 900.997 647.683 921.997 641.777 938.544 650.917 C 938.685 651.011 938.779 651.152 938.919 651.152 C 955.326 660.527 961.092 681.527 951.857 698.074 L 878.919 828.014 C 875.45 834.248 877.607 842.17 883.841 845.639 C 890.075 849.108 897.997 846.951 901.466 840.717 L 974.404 710.777 C 989.264 684.293 981.951 651.152 958.326 633.152 L 964.795 529.462 C 965.029 526.087 963.951 522.759 961.795 520.227 L 959.732 517.931 C 942.811 498.01 932.498 473.681 929.873 447.619 L 928.42 433.463 C 926.405 413.4 936.108 393.947 952.561 383.166 C 1016.165 473.296 1058.775 578.066 1075.931 687.006 L 1076.4 690.24 Z M 434.158 812.373 C 459.236 837.592 475.783 869.514 482.392 904.67 C 488.86 939.731 484.923 975.59 471.001 1008.59 L 458.063 1039.199 C 457.36 1040.793 456.985 1042.574 456.985 1044.262 L 456.985 1128.028 L 278.065 1128.028 L 278.065 1078.716 C 278.065 1030.435 265.549 982.717 241.924 940.576 L 134.534 749.286 C 124.596 731.52 120.753 710.52 123.987 690.364 L 124.456 687.129 C 141.606 578.149 184.217 473.43 247.826 383.289 C 264.279 394.117 274.029 413.524 271.967 433.586 L 270.514 447.742 C 268.03 473.757 257.577 498.132 240.655 518.054 L 238.592 520.351 C 236.436 522.976 235.358 526.211 235.592 529.586 L 242.061 633.276 C 218.436 651.135 211.124 684.37 225.983 710.901 L 298.921 840.841 C 302.39 847.075 310.311 849.232 316.546 845.763 C 322.78 842.294 324.937 834.372 321.468 828.138 L 248.53 698.198 C 239.156 681.651 245.015 660.651 261.468 651.276 C 261.608 651.182 261.702 651.041 261.843 651.041 C 278.39 641.9 299.389 647.806 308.624 664.353 L 365.483 765.743 C 366.842 768.134 368.998 770.196 371.623 771.274 L 377.014 773.665 C 398.389 782.899 417.468 795.837 433.78 812.29 Z"/>
</svg>