<?xml version="1.0" encoding="UTF-8"?>
<svg version="1.1" viewBox="0 0 1200 1200" xmlns="http://www.w3.org/2000/svg" width="150pt" height="150pt">
 <path d="m715.13 215.44c10.031-10.031 23.906-16.266 39.234-16.266s29.203 6.2344 39.234 16.266 16.266 23.906 16.266 39.234-6.2344 29.203-16.266 39.234-23.906 16.266-39.234 16.266-29.203-6.2344-39.234-16.266-16.266-23.906-16.266-39.234 6.2344-29.203 16.266-39.234zm39.234-6.4219c-12.609 0-24.047 5.1094-32.297 13.359s-13.359 19.688-13.359 32.297 5.1094 24.047 13.359 32.297 19.688 13.359 32.297 13.359 24.047-5.1094 32.297-13.359 13.359-19.688 13.359-32.297-5.1094-24.047-13.359-32.297-19.688-13.359-32.297-13.359zm0.23438 30.234c-3.1875 4.0312-5.1562 9.4688-5.1562 15.469s1.9688 11.438 5.1562 15.469c3.4219 4.3125 8.25 6.9844 13.688 6.9844s10.266-2.6719 13.688-6.9844c3.1875-4.0312 5.1562-9.4688 5.1562-15.469s-1.9688-11.438-5.1562-15.469c-3.4219-4.3125-8.25-6.9844-13.688-6.9844s-10.266 2.6719-13.688 6.9844zm13.688 2.8125c-2.2969 0-4.4062 1.2656-6 3.2812-1.875 2.3438-3 5.625-3 9.375 0 3.7031 1.1719 7.0312 3 9.375 1.5938 2.0156 3.75 3.2812 6 3.2812 2.2969 0 4.4062-1.2656 6-3.2812 1.875-2.3438 3-5.625 3-9.375 0-3.7031-1.1719-7.0312-3-9.375-1.5938-2.0156-3.75-3.2812-6-3.2812zm241.26 17.391c2.5312-1.9688 4.5938-4.1719 6.2812-6.6094 6.375-9.2344 7.3125-21.844 4.6406-34.922-2.7656-13.641-9.4219-27.656-17.953-39.141-1.9219-2.5781-3.8906-5.0156-6-7.2656-0.28125 0-0.5625-0.046875-0.84375-0.046875-0.9375-0.046875-2.0156-0.09375-3.1406-0.09375-12.609 0-24.047 5.1094-32.297 13.359s-13.359 19.688-13.359 32.297 5.1094 24.047 13.359 32.297 19.688 13.359 32.297 13.359c3.0938 0 6.0938-0.28125 8.9531-0.89062 2.7656-0.5625 5.4375-1.3594 8.0156-2.3438zm-30.656-57.938c3.4219-4.3125 8.25-6.9844 13.688-6.9844s10.266 2.6719 13.688 6.9844c3.1875 4.0312 5.1562 9.4688 5.1562 15.469s-1.9688 11.438-5.1562 15.469c-3.4219 4.3125-8.25 6.9844-13.688 6.9844s-10.266-2.6719-13.688-6.9844c-3.1875-4.0312-5.1562-9.4688-5.1562-15.469s1.9688-11.438 5.1562-15.469zm13.688 2.8125c2.2969 0 4.4062 1.2656 6 3.2812 1.875 2.3438 3 5.625 3 9.375 0 3.7031-1.1719 7.0312-3 9.375-1.5938 2.0156-3.75 3.2812-6 3.2812-2.2969 0-4.4062-1.2656-6-3.2812-1.875-2.3438-3-5.625-3-9.375 0-3.7031 1.1719-7.0312 3-9.375 1.5938-2.0156 3.75-3.2812 6-3.2812zm-161.21 798.19-0.046875-0.14062-0.046875-0.046875c0.046875 0.046875 0.09375 0.28125 0.046875 0.1875zm28.031-756.32c0.28125 2.6719-1.6406 5.1094-4.3594 5.3906-2.6719 0.28125-5.1094-1.6406-5.3906-4.3594-0.32812-2.8594-0.9375-5.7188-1.875-8.5312-3.5156-10.688-11.203-20.766-21.609-29.297-0.046875-0.046876-0.09375-0.09375-0.1875-0.14063-5.1094-4.1719-10.922-7.9688-17.156-11.25-19.406-10.219-43.266-15.703-66.703-13.172-6.7969 0.75-13.547 2.1562-20.156 4.3125-3.1406 1.0312-6.1875 2.3906-9.1875 4.0312-15.938 8.9062-29.531 26.391-37.453 46.969-7.9688 20.625-10.125 44.25-3.2344 65.297 1.5 4.5938 3.4219 9.0469 5.8125 13.359 1.3125 2.3438 0.46875 5.3438-1.9219 6.6562-2.3438 1.3125-5.3438 0.46875-6.6562-1.9219-2.7188-4.875-4.9219-9.8906-6.6094-15.047-6.7031-20.531-5.6719-43.125 0.60938-63.656-18.984-13.266-38.25-1.2656-61.875 13.453-24.75 15.422-53.906 33.562-93.141 32.016-54.656-2.1562-110.62 61.5-161.48 119.34-6.8438 7.8281-13.641 15.516-20.625 23.25l-1.5938 1.7812c-64.359 71.625-83.156 92.531-84.469 211.55 3.0938 1.8281 5.9531 3.5625 8.4844 5.1562 20.297 12.984 82.594 64.078 129.32 117.61 21.047 24.094 39.047 48.75 48.797 70.828 3.2812 7.4062 5.625 14.531 6.9375 21.281 15.891 3.75 32.203 5.7188 48.656 6.1406 16.031 0.42187 32.25-0.60938 48.375-2.8594-19.922-27.984-40.5-59.719-45.328-89.062-6.6562-40.734 9.7969-67.078 27.891-96.047 9.9844-15.938 20.438-32.719 27.469-52.969 2.7656-7.9219 5.6719-14.578 8.4844-20.953 6.5156-14.812 12.516-28.359 12.516-49.828 0-2.7188 2.2031-4.9219 4.9219-4.9219s4.9219 2.2031 4.9219 4.9219c0 23.484-6.375 37.922-13.359 53.766-2.8125 6.375-5.7188 12.984-8.2031 20.203-7.4062 21.375-18.141 38.578-28.359 54.938-17.062 27.328-32.625 52.219-26.578 89.297 4.8281 29.438 27.516 62.625 48.094 91.219 0.09375 0.14063 0.1875 0.23438 0.28125 0.375 1.6406 2.2969 3.2812 4.5469 4.875 6.75 9.1406 12.656 17.484 24.188 23.297 33.984 20.203 34.172 52.688 57.703 80.109 77.578 25.078 18.141 46.078 33.375 51.469 51.938 2.625 9.0938 7.2188 13.406 11.672 14.344 2.4375 0.51563 4.7812 0.046876 6.6562-1.1719 1.7812-1.1719 3.1406-3.0938 3.4688-5.4844 0.70313-4.5938-1.875-10.922-10.312-17.812-8.8594-7.2188-13.688-14.203-15.469-20.344-1.2656-4.3125-1.125-8.25 0.14063-11.672 1.3125-3.5156 3.75-6.3281 6.9375-8.3438 4.0312-2.4844 9.2812-3.6562 15.047-3.0938 18.141 1.7812 38.484 7.6406 56.859 12.984 17.203 5.0156 32.672 9.4688 42.047 9.3281 5.5781-0.09375 9.3281-0.89063 11.016-2.2031l0.046874 0.046876c-0.28125-0.84375-1.2656-2.0625-3.0469-3.5625-7.9219-6.7031-26.953-15.141-60.703-23.297-34.359-8.2969-45.234-15.891-43.359-23.484 1.8281-7.6406 16.594-11.953 32.812-16.734 15.938-4.6875 33.516-9.8438 36.844-15.984 3.4219-6.2812 3.9375-9.2344 2.5312-9.9844-7.0781-3.8438-32.766 5.1562-53.578 12.516-13.266 4.6875-24.703 8.7188-30.188 8.7188-7.875 0-17.062-0.375-25.969-2.6719-9.2812-2.3906-18.047-6.8438-24.422-15.047-11.203-14.391-16.406-36.797-20.625-55.031-1.5469-6.6562-2.9531-12.703-4.5-17.578-6.6562-21-19.828-34.781-30.422-45.844-12.234-12.797-21.422-22.359-16.312-36.094 8.2969-22.312 19.688-30.281 33.703-39.984 18.938-13.172 42.938-29.859 70.078-96.328 1.0312-2.4844 3.8438-3.7031 6.375-2.6719 2.4844 1.0312 3.7031 3.8438 2.6719 6.375-28.312 69.234-53.578 86.812-73.547 100.69-12.609 8.7656-22.875 15.891-30.094 35.344-2.9531 7.9688 4.4062 15.656 14.156 25.875 9.8906 10.359 21.984 22.969 29.719 41.531 1.0781-0.51563 2.0625-1.0312 3.0469-1.5 2.3438-1.1719 4.9219-2.5312 7.7344-4.0312 66.047-35.109 104.44-57.328 131.76-81.891 27.141-24.375 43.688-51.422 66.047-96.234 9.9375-19.922 26.25-31.5 42.703-43.219 25.547-18.188 51.422-36.562 49.359-89.016-0.84375-21.75 22.641-36 48.469-51.703 18.516-11.25 38.344-23.25 49.828-38.719-5.5781 2.4844-11.625 4.6406-17.953 6.5156l-0.23438 0.046876c-33.047 9.6562-74.344 11.109-98.109 11.953l-5.4375 0.1875c-17.531 0.65625-42.703 10.312-70.172 20.906-53.484 20.578-115.55 44.391-155.02 15.094-2.1562-1.5938-2.625-4.6875-1.0312-6.8438s4.6875-2.625 6.8438-1.0312c35.156 26.109 94.5 3.3281 145.69-16.359 28.266-10.875 54.141-20.812 73.312-21.562l5.4375-0.1875c23.344-0.84375 63.891-2.25 95.766-11.578l0.1875-0.046874c26.906-7.875 47.484-21.516 44.531-45.562-3.4219 2.2969-7.3125 4.5938-11.766 6.8906-41.812 21.797-75.234 22.406-106.03 23.016-24.891 0.46875-48 0.9375-72.094 13.219-26.672 13.594-63 25.312-99.469 30.141-30.938 4.125-62.062 3.2812-87.562-5.5312-2.5312-0.89062-3.8906-3.6562-3.0469-6.2344 0.89062-2.5312 3.6562-3.8906 6.2344-3.0469 23.906 8.2969 53.484 9 83.109 5.0625 35.25-4.6875 70.453-16.031 96.281-29.203 26.016-13.266 50.25-13.734 76.406-14.25 29.672-0.5625 61.875-1.1719 101.67-21.938 25.5-13.312 29.578-24.984 24.047-35.625-5.5312-10.594-19.641-21.234-33.141-31.453-15.516-11.719-30.375-22.922-33.375-35.016-1.3125 0.375-2.625 0.65625-3.9844 0.9375-3.5156 0.70312-7.125 1.0781-10.828 1.0781-15.328 0-29.203-6.2344-39.234-16.266s-16.266-23.906-16.266-39.234c0-15.328 6.2344-29.203 16.266-39.234 8.5781-8.5781 19.969-14.391 32.672-15.891-0.375-0.28125-0.79687-0.5625-1.1719-0.84375-5.7188-3.9844-11.531-6.7969-17.25-8.625-16.688-5.3438-33.188-2.2969-47.438 4.8281-14.531 7.2656-26.672 18.656-34.406 29.766-3.375 4.9219-5.9062 9.7031-7.3125 14.016-0.51563 2.1562-2.4375 3.75-4.7812 3.75l-6.5625-0.09375c-10.219-0.14063-21.75-0.28125-29.25 1.9219 9.0938 8.625 15.844 18.516 19.266 29.016 1.125 3.4219 1.875 6.9375 2.2969 10.5zm90.516 42.422c0-2.7188 2.2031-4.9219 4.9219-4.9219s4.9219 2.2031 4.9219 4.9219c0 2.1562 0 0.09375-0.046875 2.4375-0.046875 6.8438-0.09375 12.562 3.8438 17.859 1.5938 2.1562 1.1719 5.25-1.0312 6.8438-2.1562 1.5938-5.25 1.1719-6.8438-1.0312-5.8594-7.9219-5.8125-15.141-5.7656-23.719zm-48.562 20.062c-2.7188 0.09375-4.9688-2.0625-5.0156-4.7344-0.09375-2.7188 2.0625-4.9688 4.7344-5.0156 9.8438-0.32813 23.109 11.953 29.766 18.094l0.89062 0.79687c1.9688 1.8281 2.1094 4.9219 0.28125 6.9375-1.8281 1.9688-4.9219 2.1094-6.9375 0.28125l-0.89062-0.79687c-5.6719-5.25-16.969-15.656-22.875-15.469zm-234.79 85.641c2.1094-1.6875 5.2031-1.3125 6.8906 0.79688 1.6875 2.1094 1.3125 5.2031-0.79688 6.8906-9.7031 7.7344-16.406 17.812-20.109 28.547-3 8.625-3.9844 17.672-3 26.156 0.98438 8.2969 3.9375 16.031 8.9062 22.219 4.3125 5.3906 10.125 9.6562 17.484 12.188 2.5312 0.89062 3.8906 3.6562 3.0469 6.2344-0.89062 2.5312-3.6562 3.8906-6.2344 3.0469-9.2344-3.1875-16.547-8.5781-21.984-15.328-6.1406-7.6875-9.75-17.109-10.969-27.188-1.1719-9.8906 0-20.438 3.4688-30.516 4.3125-12.375 12.094-24.094 23.25-33zm-51.516 23.812c2.25-1.5 5.2969-0.89062 6.7969 1.3594s0.89062 5.2969-1.3594 6.7969c-0.84375 0.5625-1.6406 1.4062-2.3438 2.4375-2.9531 4.3125-4.4531 11.391-4.4531 18.797 0.046875 7.4062 1.6406 14.906 4.9688 19.922 1.0312 1.5469 2.2031 2.8125 3.5156 3.7031 2.25 1.5469 2.8125 4.5938 1.2656 6.7969-1.5469 2.25-4.5938 2.8125-6.7969 1.2656-2.4375-1.6406-4.4531-3.8438-6.1406-6.375-4.4531-6.6562-6.6094-16.172-6.6094-25.359-0.046875-9.2344 2.0625-18.375 6.1406-24.328 1.4062-2.0625 3.0938-3.7969 4.9688-5.0625zm-62.859-67.453c3.4219-3.4219 8.1562-5.5312 13.359-5.5312s9.9375 2.1094 13.359 5.5312c3.4219 3.4219 5.5312 8.1562 5.5312 13.359 0 5.2031-2.1094 9.9375-5.5312 13.359-3.4219 3.4219-8.1562 5.5312-13.359 5.5312-5.0625 0-9.6562-2.0156-13.078-5.25-0.09375-0.09375-0.23438-0.1875-0.32812-0.28125-3.4219-3.4219-5.5312-8.1562-5.5312-13.359 0-5.2031 2.1094-9.9375 5.5312-13.359zm13.359 4.2656c2.5312 0 4.7812 1.0312 6.4219 2.6719 1.6406 1.6406 2.6719 3.9375 2.6719 6.4219 0 2.5312-1.0312 4.7812-2.6719 6.4219-1.6406 1.6406-3.9375 2.6719-6.4219 2.6719-2.4375 0-4.6406-0.9375-6.2344-2.4375l-0.1875-0.23437c-1.6406-1.6406-2.6719-3.9375-2.6719-6.4219 0-2.5312 1.0312-4.7812 2.6719-6.4219 1.6406-1.6406 3.8906-2.625 6.4219-2.625zm-96.141-17.25c3.4219-3.4219 8.1562-5.5312 13.359-5.5312s9.9375 2.1094 13.359 5.5312c3.4219 3.4219 5.5312 8.1562 5.5312 13.359 0 5.2031-2.1094 9.9375-5.5312 13.359-3.4219 3.4219-8.1562 5.5312-13.359 5.5312s-9.9375-2.1094-13.359-5.5312c-3.4219-3.4219-5.5312-8.1562-5.5312-13.359 0-5.2031 2.1094-9.9375 5.5312-13.359zm13.359 4.2656c2.5312 0 4.7812 1.0312 6.4219 2.6719 1.6406 1.6406 2.6719 3.9375 2.6719 6.4219 0 2.5312-1.0312 4.7812-2.6719 6.4219-1.6406 1.6406-3.9375 2.6719-6.4219 2.6719-2.5312 0-4.7812-1.0312-6.4219-2.6719-1.6406-1.6406-2.6719-3.9375-2.6719-6.4219 0-2.5312 1.0312-4.7812 2.6719-6.4219 1.6406-1.6406 3.9375-2.6719 6.4219-2.6719zm-11.25 67.688c3.4219-3.4219 8.1562-5.5312 13.359-5.5312s9.9375 2.1094 13.359 5.5312c3.4219 3.4219 5.5312 8.1562 5.5312 13.359 0 5.0625-2.0156 9.6562-5.25 13.078-0.09375 0.09375-0.1875 0.23437-0.28125 0.32812-3.4219 3.4219-8.1562 5.5312-13.359 5.5312s-9.9375-2.1094-13.359-5.5312c-3.4219-3.4219-5.5312-8.1562-5.5312-13.359 0-5.2031 2.1094-9.9375 5.5312-13.359zm13.406 4.2656c2.5312 0 4.7812 1.0312 6.4219 2.6719 1.6406 1.6406 2.6719 3.9375 2.6719 6.4219 0 2.4375-0.9375 4.5938-2.4375 6.2344l-0.1875 0.1875c-1.6406 1.6406-3.9375 2.6719-6.4219 2.6719-2.5312 0-4.7812-1.0312-6.4219-2.6719-1.6406-1.6406-2.625-3.8906-2.625-6.4219s1.0312-4.7812 2.6719-6.4219c1.6406-1.6406 3.9375-2.6719 6.4688-2.6719zm314.26 328.82c20.625-20.109 35.344-42.422 52.078-74.297 4.7344 13.359 7.875 21.516 10.266 27.656 6.2812 16.172 7.0312 18.188 16.312 63.656 4.0781 19.969 5.2031 34.453 4.5 45.984-0.9375-0.60938-1.875-1.2188-2.8125-1.875-3.375-2.2969-6.6562-4.5469-9.8438-6.8438-4.4531-3.1875-7.9219-2.2969-10.781 1.7344-3 4.1719-4.0781 13.312-5.4375 24.234-0.5625 4.3594-1.125 9.0938-1.8281 13.734-2.8125 18.188-7.7812 36.797-21.422 34.688-1.9219-0.28125-1.9219-27.094-1.875-85.031v-12.891c0-3.7031-5.8125-10.5-12.844-17.109-5.3438-5.0156-11.578-10.219-16.312-13.688zm137.21-2.0156c-3.3281-20.203-4.4531-41.531-3.9844-52.125 0.5625-13.453-2.0625-34.5-4.5469-54.703-1.3125-10.5-2.5781-20.766-3.375-29.438 5.2031 5.9531 11.344 12.656 17.953 19.828 29.672 32.344 68.578 74.812 68.531 99.609-0.046875 11.906-11.062 19.688-40.688 19.641-6.1406 0-14.719-0.89062-23.672-1.7812-3.4688-0.32812-6.9844-0.70312-10.172-0.98438zm-8.9531 5.6719c0.42188 2.4375 0.89062 4.8281 1.4062 7.1719 3.6094 16.828 9 31.547 16.828 37.688 23.812 18.797 37.359 17.625 58.828 15.844 8.1562-0.70312 17.531-1.4531 28.922-1.1719 22.875 0.5625 35.484 2.5781 40.641 5.2031-2.2969 1.875-6.7969 3.9375-12.75 5.9062-23.109 7.6875-65.203 13.078-93.047 5.8594l-0.14062-0.046875c-0.84375-0.23438-1.7344-0.46875-2.5312-0.70312-2.5781-0.75-5.3438 0.70312-6.0938 3.2812-0.42188 1.3594-0.1875 2.7656 0.46875 3.8906 0.89062 1.6406 1.875 3.2344 2.9062 4.875l0.28125 0.42188c7.7344 11.766 19.781 23.812 31.219 35.297 3.5625 3.5625 7.0781 7.125 10.406 10.547 13.031 13.594 22.5 25.219 16.828 30.656-9.6562 9.2812-28.453-6.5156-46.781-25.547-6.9844-7.2656-13.734-14.859-19.969-21.938-10.594-11.953-19.828-22.359-26.297-26.812-1.0781-0.75-2.3438-0.98438-3.5625-0.79688-11.391 1.3125-15.984 11.906-21.188 24.047-3.1406 7.2656-6.5156 15.141-11.672 21-8.8594 10.078-16.922 16.406-22.734 18.375-1.7344 0.5625-3 0.75-3.7969 0.42188-0.46875-0.1875-0.84375-0.79688-1.1719-1.8281-1.0312-3.5625-0.42188-9.75 2.3906-19.031 3.6562-12.141 8.0625-21.141 12.141-29.438 10.688-21.797 19.266-39.141 8.4844-91.922-9.4219-46.312-10.219-48.375-16.781-65.25-2.8594-7.3594-6.7969-17.578-13.031-35.578-0.046875-0.1875-0.14062-0.32812-0.1875-0.51562 1.125-2.2031 2.25-4.4062 3.375-6.7031 8.8594-17.719 24.188-28.641 39.609-39.609 4.6875-3.3281 9.3281-6.6562 13.875-10.172 0.65625 9.9375 2.2031 22.312 3.7969 35.016 2.4844 19.875 5.0625 40.641 4.5 53.156-0.51562 11.719 0.79688 35.766 4.6875 57.656 0 0.1875 0.046875 0.375 0.09375 0.5625zm-720.24-4.6875c-1.0312-2.4844 0.1875-5.3438 2.6719-6.375 2.4844-1.0312 5.3438 0.1875 6.375 2.6719 8.8125 21.562 33.938 40.031 51.234 52.781 10.734 7.9219 18.797 13.828 19.969 18.938 0.60938 2.625-1.0312 5.25-3.7031 5.8594-2.625 0.60938-5.25-1.0312-5.8594-3.7031-0.375-1.5469-7.1719-6.5625-16.219-13.219-18.234-13.406-44.625-32.859-54.516-57zm-25.641 61.688c24.188 24.984 79.453 68.391 132.42 93.047 28.359 13.219 56.25 21.094 78.891 18.234 12.141 12 34.219 10.594 40.922 10.172l1.125-0.09375c42.188-1.8281 66.422 1.0312 76.594 5.8594 2.5312 1.2188 3.6562 2.1094 3.5156 2.625-0.46875 1.6875-3.1875 3.8906-7.875 6.3281-16.922 8.9531-54.141 16.969-101.81 16.969-1.5469 0-3.0938 0.75-4.0312 2.1562-1.5469 2.25-0.9375 5.2969 1.2656 6.7969 5.2969 3.6094 19.875 9.0469 36.047 15.094 24.047 8.9531 51.891 19.359 52.688 23.25 1.2188 6-0.75 9.0469-4.9688 9.8906-19.594 3.9844-72-19.781-113.67-38.672-20.297-9.2344-38.156-17.297-49.031-20.719-0.98437-0.32812-2.1094-0.32812-3.1875 0.09375-2.5312 0.9375-3.7969 3.7969-2.8594 6.3281 2.7656 7.4062 10.688 18.609 16.922 27.516 3.8906 5.5312 7.125 10.125 7.4531 11.156 8.5312 27.375 9.9844 38.484 7.0781 39.375-13.688 4.2656-79.828-87.703-94.828-108.61-2.0625-2.8594-3.2812-4.5469-3.7031-4.9688-23.156-21.938-59.297-73.172-87.141-124.6-22.453-41.484-39.422-82.828-39.422-108.38 0-14.672 1.9219-26.109 5.2969-34.922 5.2031-13.547 13.922-20.766 24.328-23.719 10.922-3.0938 23.859-1.8281 36.75 1.6406 20.578 5.5312 40.875 16.547 53.109 24.422 19.922 12.75 81.141 63 127.26 115.78 20.438 23.391 37.828 47.203 47.203 68.344 8.7656 19.828 10.312 36.984 0.046875 48.422-2.6719 2.9531-6.1875 5.625-10.594 7.9219-4.0312 2.1094-8.4375 3.5156-13.219 4.3594-0.14062 0-0.28125 0.046875-0.42188 0.046875-20.766 3.5156-47.766-4.1719-75.562-17.109-51.891-24.188-105.89-66.609-129.56-90.984-1.875-1.9219-4.9688-1.9688-6.9375-0.09375-1.9219 1.875-1.9688 4.9688-0.09375 6.9375z" fill-rule="evenodd"/>
</svg>
