<?xml version="1.0" encoding="utf-8"?>
<svg xmlns="http://www.w3.org/2000/svg" viewBox="518.228 155.8388 122.4321 138.2788" width="150pt" height="150pt">
  <path fill="#000000" d="M 627.699219 201.527344 C 627.90625 199.328125 628.09375 197.160156 628.320312 195 C 628.566406 192.621094 628.496094 190.234375 628.402344 187.855469 C 628.386719 187.410156 628.292969 186.722656 628.019531 186.585938 C 627.457031 186.308594 627.15625 187.003906 626.804688 187.335938 C 625.613281 188.460938 624.683594 189.769531 624.0625 191.316406 C 623.570312 192.539062 622.082031 193.171875 622.285156 194.863281 C 621.199219 194.324219 621.796875 193.53125 621.394531 192.960938 C 620.617188 193.832031 620.664062 194.90625 620.582031 195.957031 C 620.527344 196.644531 620.488281 196.640625 619.785156 196.296875 C 619.4375 196.125 618.515625 196.777344 618.367188 197.253906 C 617.878906 198.800781 618.664062 200.363281 618.296875 201.921875 C 618.195312 202.359375 618.417969 202.820312 617.742188 202.949219 C 617.265625 203.039062 617.140625 203.484375 617.1875 203.910156 C 617.304688 205.023438 617.539062 206.074219 617.324219 207.257812 C 617.113281 208.410156 616.824219 210.535156 616.222656 211.730469 C 616.082031 212.015625 616.316406 212.503906 616.402344 212.890625 C 616.488281 213.277344 616.605469 213.660156 616.710938 214.050781 C 615.988281 214.441406 616.003906 213.570312 615.578125 213.507812 C 615.535156 213.582031 615.414062 213.695312 615.4375 213.742188 C 616.371094 215.625 615.269531 217.742188 616.09375 219.636719 C 616.152344 219.777344 616.148438 220.015625 616.066406 220.132812 C 615.472656 220.988281 615.816406 221.054688 615.65625 221.886719 C 614.988281 225.304688 617.71875 228.0625 617.308594 231.359375 C 617.128906 232.8125 616.660156 234.226562 616.316406 235.65625 C 616.308594 235.707031 616.199219 235.75 616.207031 235.78125 C 616.804688 238.398438 615.046875 240.992188 616.160156 243.617188 C 617.375 246.488281 617.921875 249.464844 617.710938 252.609375 C 617.535156 255.210938 614.414062 258.601562 611.710938 258.964844 C 611.148438 259.039062 610.625 259.347656 610.078125 259.535156 C 609.75 259.640625 609.378906 259.796875 609.121094 259.449219 C 608.871094 259.121094 609.117188 258.804688 609.25 258.484375 C 609.539062 257.78125 610.4375 257.535156 610.59375 256.582031 C 609.550781 256.488281 609.199219 257.53125 608.441406 257.773438 C 608.175781 257.859375 607.847656 258.039062 607.640625 257.953125 C 607.21875 257.765625 607.40625 257.347656 607.53125 257.042969 C 607.914062 256.136719 608.277344 255.210938 608.757812 254.355469 C 609.140625 253.671875 609.457031 253.03125 609.179688 252.113281 C 607.613281 252.421875 607.78125 254.09375 607.34375 254.972656 C 606.785156 256.105469 606.421875 256.007812 605.585938 255.703125 C 604.878906 255.445312 604.046875 254.390625 603.5625 255.96875 C 603.550781 256.007812 603.460938 256.054688 603.417969 256.046875 C 600.308594 255.667969 601.867188 257.980469 602.046875 258.898438 C 602.796875 262.71875 603.6875 266.511719 604.078125 270.398438 C 604.25 272.132812 604.414062 273.867188 604.570312 275.605469 C 604.785156 277.980469 605.570312 278.742188 608.015625 278.765625 C 611.203125 278.796875 614.398438 278.847656 617.582031 278.734375 C 621.601562 278.59375 625.035156 279.816406 627.589844 282.949219 C 628.777344 284.40625 630.21875 284.882812 631.929688 285.042969 C 632.707031 285.117188 633.515625 285.101562 634.179688 285.734375 C 621.230469 285.96875 608.28125 285.464844 595.078125 286.386719 C 595.789062 287.167969 596.367188 287.785156 596.921875 288.414062 C 597.183594 288.714844 597.542969 289.054688 597.238281 289.480469 C 597.023438 289.785156 596.609375 289.730469 596.265625 289.695312 C 594.945312 289.542969 593.734375 289.003906 592.085938 288.300781 C 592.726562 289.148438 593.09375 289.574219 593.394531 290.046875 C 593.644531 290.441406 594.429688 290.730469 593.953125 291.300781 C 593.597656 291.726562 592.949219 291.476562 592.480469 291.269531 C 591.527344 290.851562 590.601562 290.375 589.675781 289.894531 C 589.058594 289.578125 588.46875 289.1875 587.558594 289.515625 C 588.097656 290.34375 588.628906 291.121094 589.113281 291.925781 C 589.34375 292.316406 589.664062 292.796875 589.289062 293.207031 C 588.867188 293.671875 588.429688 293.230469 588.050781 293.015625 C 587.140625 292.507812 586.253906 291.953125 585.355469 291.425781 C 584.589844 290.976562 583.769531 290.742188 582.875 290.710938 C 581.6875 290.667969 581.175781 291.007812 581.917969 292.199219 C 582.039062 292.394531 582.113281 292.621094 582.1875 292.84375 C 582.3125 293.214844 582.609375 293.652344 582.246094 293.976562 C 581.851562 294.320312 581.4375 293.960938 581.191406 293.691406 C 579.855469 292.234375 578.273438 292.113281 576.433594 292.476562 C 574.609375 292.835938 572.851562 292.304688 571.277344 291.335938 C 569.679688 290.351562 568.019531 290.191406 566.269531 290.761719 C 564.191406 291.433594 562.347656 291.269531 560.621094 289.710938 C 558.878906 288.144531 556.5625 287.769531 554.566406 288.703125 C 550.574219 290.570312 546.5 289.847656 542.429688 289.65625 C 535.714844 289.335938 529.003906 289.035156 522.277344 289.328125 C 521.714844 289.351562 521.125 289.527344 520.449219 289.167969 C 521.03125 288.351562 521.976562 288.414062 522.714844 288.089844 C 523.464844 287.761719 524.28125 287.460938 523.027344 286.65625 C 522.761719 286.484375 522.46875 286.113281 522.460938 285.824219 C 522.417969 283.921875 521.46875 282.046875 520.507812 280.871094 C 519.164062 279.226562 519.941406 277.835938 519.878906 276.257812 C 519.140625 276.636719 519.375 277.539062 518.570312 277.914062 C 517.320312 273.257812 519.839844 269.316406 520.585938 264.878906 C 520.449219 264.71875 520.167969 265.453125 519.898438 265.1875 C 519.554688 264.851562 519.9375 264.5625 520.078125 264.289062 C 520.261719 263.925781 520.5 263.59375 520.703125 263.242188 C 520.816406 263.042969 521.042969 262.683594 520.996094 262.640625 C 519.238281 261.027344 522.058594 260.386719 521.667969 258.972656 C 521.25 259.367188 520.859375 259.734375 520.257812 260.300781 C 520.261719 258.699219 521.273438 257.828125 521.742188 256.738281 C 521.886719 256.40625 522.664062 255.886719 521.453125 255.890625 C 521.121094 255.894531 521.445312 255.304688 521.601562 255.035156 C 521.996094 254.324219 522.421875 253.632812 522.808594 252.976562 C 522.753906 252.464844 521.390625 253.625 522.097656 252.40625 C 523.609375 249.792969 524.695312 246.933594 525.761719 244.195312 C 527.246094 240.386719 530.128906 237.050781 530.320312 232.847656 C 530.445312 230.128906 532.929688 228.808594 533.3125 226.390625 C 533.59375 224.640625 535.007812 223.570312 535.828125 222.15625 C 538.554688 217.433594 542.324219 213.515625 545.582031 209.207031 C 548.179688 205.769531 551.644531 203.128906 554.777344 200.195312 C 556.644531 198.441406 558.433594 196.628906 560.117188 194.707031 C 561.253906 193.410156 562.203125 192.050781 562.09375 190.203125 C 562.082031 190.0625 562.214844 189.867188 562.335938 189.761719 C 564.582031 187.800781 565.507812 184.765625 568.121094 182.988281 C 569.097656 182.320312 569.851562 181.011719 571.050781 180.351562 C 570.367188 179.226562 572.742188 179.089844 571.84375 177.890625 C 572.71875 177.234375 573.585938 176.574219 574.464844 175.917969 C 574.285156 175.484375 573.730469 176.082031 573.628906 175.609375 C 573.554688 175.269531 573.890625 175.132812 574.121094 174.96875 C 574.449219 174.734375 574.980469 174.574219 575.082031 174.269531 C 575.226562 173.828125 577.03125 174 575.597656 172.980469 C 575.582031 172.96875 575.664062 172.71875 575.726562 172.703125 C 577.386719 172.355469 577.609375 170.355469 579.074219 169.78125 C 579.824219 169.484375 579.804688 169.445312 580.546875 168.222656 C 580.601562 168.132812 580.722656 168.058594 580.824219 168.015625 C 583.257812 167.027344 584.472656 164.664062 586.371094 163.125 C 587.820312 161.949219 589.832031 161.34375 591.320312 160.113281 C 594.179688 157.753906 597.777344 157.429688 601.09375 156.40625 C 602.046875 156.113281 603.480469 156.257812 604.527344 156.0625 C 606.300781 155.722656 608.027344 156.328125 609.738281 155.878906 C 609.949219 155.824219 610.207031 155.824219 610.410156 155.886719 C 613.464844 156.835938 616.613281 156.585938 619.734375 156.625 C 620.90625 156.640625 622.105469 156.722656 623.136719 157.238281 C 627.601562 159.460938 632.402344 160.941406 636.699219 163.519531 C 637.792969 164.175781 638.816406 164.941406 639.710938 165.871094 C 640.769531 166.964844 641.003906 168.074219 640.101562 169.457031 C 639.121094 170.949219 638.515625 172.644531 639.507812 174.34375 C 640.050781 175.28125 638.179688 174.597656 638.914062 175.511719 C 639.289062 175.980469 639.695312 176.523438 639.675781 177.238281 C 638.996094 177.363281 639.089844 176.421875 638.398438 176.429688 C 638.863281 178.28125 639.632812 180.042969 639.5625 182.019531 C 639.027344 180.542969 638.484375 179.074219 637.941406 177.578125 C 637.273438 177.679688 638.484375 179.789062 636.78125 178.621094 C 635.859375 179.859375 634.179688 180.0625 633.21875 181.273438 C 632.214844 182.535156 632.167969 183.808594 632.550781 185.335938 C 633.535156 189.222656 633.816406 193.210938 634.082031 197.394531 C 633.273438 197.035156 633.449219 196.457031 633.394531 196.023438 C 632.96875 192.554688 632.414062 189.117188 631.574219 185.730469 C 631.453125 185.234375 631.59375 184.308594 630.804688 184.417969 C 630.027344 184.53125 629.25 185.0625 629.371094 186.089844 C 629.625 188.242188 629.46875 190.382812 629.367188 192.527344 C 629.230469 195.386719 628.835938 198.195312 628.203125 200.980469 C 628.160156 201.199219 628.128906 201.449219 627.699219 201.527344 Z M 601.082031 173.421875 C 600.0625 174.921875 598.339844 175.367188 596.890625 176.222656 C 595.933594 176.132812 594.675781 176.984375 594.183594 175.359375 C 594.160156 175.285156 593.738281 175.269531 593.523438 175.324219 C 592.957031 175.46875 593.335938 175.847656 593.347656 176.148438 C 593.394531 177.691406 592.046875 179.058594 590.277344 179.199219 C 590.636719 178.074219 591.855469 177.65625 592.238281 176.757812 C 589.535156 174.925781 586.6875 177.03125 583.296875 176.320312 C 585.214844 176.054688 584.082031 174.789062 584.769531 174.230469 C 585.503906 173.628906 585.820312 172.636719 586.65625 172.113281 C 582.507812 174.023438 579.648438 177.34375 576.949219 180.839844 C 578.125 180.65625 578.726562 179.441406 580.078125 179.328125 C 579.578125 181.105469 578.207031 182.117188 577.335938 183.566406 C 578.347656 183.566406 578.632812 182.347656 579.769531 182.480469 C 578.554688 184.515625 576.480469 185.421875 574.890625 187.171875 C 575.871094 186.941406 576.289062 186.078125 577.277344 186.289062 C 576.425781 189.667969 573.273438 191.09375 571.371094 193.835938 C 572.960938 193.167969 573.859375 191.859375 575.589844 191.273438 C 573.800781 194.535156 570.671875 196.199219 569.0625 199.136719 C 570.996094 198.023438 572.792969 196.757812 574.664062 195.605469 C 577.445312 193.894531 579.574219 193.398438 580.953125 194.164062 C 579.035156 194.710938 577.308594 195.3125 575.667969 196.179688 C 570.984375 198.664062 566.890625 201.882812 563.367188 205.839844 C 563.257812 205.957031 563.117188 206.097656 563.425781 206.386719 C 567.910156 202.621094 571.746094 197.824219 578.261719 196.164062 C 577.027344 198.285156 575.121094 199.039062 573.492188 200.578125 C 574.945312 200.105469 576.070312 199.707031 577.222656 199.378906 C 577.726562 199.242188 578.496094 198.804688 578.707031 199.5625 C 578.878906 200.191406 578.0625 200.398438 577.570312 200.683594 C 577.054688 200.980469 576.132812 200.773438 576.050781 201.59375 C 575.875 203.429688 574.488281 204.210938 573.203125 205.078125 C 572.109375 205.816406 570.960938 206.476562 569.726562 207.234375 C 570.433594 207.515625 570.96875 206.796875 571.625 207.375 C 570.847656 208.355469 569.527344 208.75 568.761719 209.878906 C 570.050781 210.320312 570.832031 209.882812 571.523438 208.929688 C 572.5 207.589844 573.640625 206.402344 575.429688 206.015625 C 572.871094 207.699219 572.726562 210.855469 570.78125 213.03125 C 572.078125 213.050781 572.507812 211.851562 573.664062 211.605469 C 573.21875 213.230469 571.867188 214.152344 571.355469 215.550781 C 572.730469 215.914062 573.15625 215.699219 573.84375 213.855469 C 574.667969 211.664062 576.222656 209.972656 577.320312 207.804688 C 577.96875 208.710938 577.078125 209.3125 577.46875 210.074219 C 578.507812 208.945312 579.464844 207.90625 580.425781 206.863281 C 580.398438 208.996094 579.152344 210.515625 577.890625 212.578125 C 579.703125 211.226562 581.078125 210.199219 582.457031 209.167969 C 582.011719 210.890625 580.792969 211.769531 579.519531 212.5625 C 576.445312 214.484375 574.441406 217.183594 573.28125 221.113281 C 575.230469 218.832031 577.183594 217.261719 579.675781 216.367188 C 576.757812 218.707031 575.167969 221.777344 574.195312 225.238281 C 575.5 224.117188 576.195312 222.460938 578.027344 221.082031 C 577.386719 222.753906 576.929688 223.945312 576.472656 225.140625 C 577.796875 223.527344 578.90625 221.796875 580.828125 220.09375 C 580.503906 222.742188 578.851562 224.3125 578.367188 226.476562 C 579.425781 225.902344 580.144531 225.058594 581.472656 225.0625 C 580.664062 226.484375 579.417969 227.523438 579.328125 229.542969 C 581.578125 227.0625 582.734375 224.203125 585.109375 222.300781 C 584.46875 224.253906 583.144531 225.914062 582.753906 228.03125 C 583.449219 227.703125 583.398438 226.652344 584.394531 226.738281 C 584.492188 227.785156 583.691406 228.828125 584.269531 229.882812 C 585.089844 229.578125 585.113281 228.496094 586.183594 228.453125 C 585.835938 229.398438 585.519531 230.261719 585.164062 231.230469 C 585.675781 231.09375 585.769531 230.570312 586.25 230.71875 C 586.339844 231.445312 585.78125 231.984375 585.636719 232.644531 C 585.589844 232.855469 585.433594 233.066406 585.644531 233.273438 C 586.28125 233.882812 586.28125 233.878906 586.109375 234.398438 C 585.769531 235.445312 585.378906 236.480469 585.585938 238.054688 C 586.058594 235.105469 587.707031 233.285156 589.222656 231.359375 C 589.335938 232.394531 589.246094 233.367188 589.246094 234.335938 C 589.242188 235.363281 589.15625 236.417969 589.78125 237.4375 C 590.363281 236.785156 589.996094 235.730469 590.84375 235.269531 C 591.632812 235.914062 591.011719 236.933594 591.464844 237.671875 C 591.707031 237.425781 592.113281 236.96875 592.148438 236.992188 C 593.023438 237.671875 594.285156 237.078125 594.855469 237.402344 C 596.449219 238.308594 596.71875 237.335938 597.140625 236.136719 C 597.679688 236.710938 598.097656 237.160156 598.5625 237.65625 C 598.691406 237.230469 598.699219 236.726562 598.898438 236.640625 C 599.453125 236.390625 599.449219 237.039062 599.691406 237.308594 C 599.945312 237.585938 599.835938 238.433594 600.511719 238.039062 C 601.023438 237.738281 600.703125 237.085938 600.421875 236.804688 C 599.050781 235.421875 598.664062 233.425781 597.390625 232.007812 C 596.878906 231.441406 597.054688 230.167969 596.070312 230.257812 C 595.289062 230.328125 595.308594 229.914062 595.203125 229.527344 C 594.933594 228.546875 595.238281 227.464844 594.511719 226.535156 C 594.09375 226 594.132812 225.328125 593.523438 224.660156 C 592.257812 223.273438 593.003906 219.550781 594.28125 218.132812 C 594.476562 217.917969 594.667969 217.621094 594.980469 217.808594 C 595.125 217.894531 595.199219 218.203125 595.203125 218.414062 C 595.226562 219.332031 595.214844 220.25 595.214844 221.171875 C 596.136719 217.070312 595.171875 212.792969 596.640625 208.460938 C 597.363281 209.691406 597.578125 210.839844 597.617188 212.042969 C 597.707031 214.78125 597.257812 217.488281 597.042969 220.210938 C 596.921875 221.773438 596.765625 223.335938 597.617188 224.753906 C 597.789062 224.332031 597.800781 223.929688 597.832031 223.527344 C 598.023438 221.328125 598.976562 219.796875 599.574219 220.730469 C 599.605469 218.820312 599.4375 216.875 600.523438 215.121094 C 600.730469 218.320312 600.480469 221.5625 601.894531 224.800781 C 602.886719 223.335938 601.789062 222.117188 601.960938 220.886719 C 602.660156 220.8125 603.066406 221.71875 603.796875 221.289062 C 603.34375 220.089844 602.476562 219.074219 602.566406 217.789062 C 603.265625 217.554688 603.382812 218.546875 604.015625 218.265625 C 604.21875 217.40625 603.441406 216.359375 604.53125 215.703125 C 605.421875 217.59375 605.871094 219.753906 607.777344 221.296875 C 607.949219 220.3125 607.988281 219.578125 607.582031 218.804688 C 606.429688 216.601562 605.339844 214.363281 604.226562 212.136719 C 604.101562 210.324219 603.75 208.464844 605.515625 206.671875 C 605.753906 208.699219 606.390625 210.296875 607.023438 212.117188 C 607.273438 211.558594 606.757812 210.996094 607.539062 210.667969 C 608.566406 212.773438 610.839844 214.167969 610.917969 216.910156 C 611.351562 214.058594 609.496094 211.21875 611.085938 208.003906 C 611.378906 208.847656 611.523438 209.257812 611.714844 209.8125 C 611.765625 208.835938 611.535156 207.496094 611.894531 207.3125 C 613.34375 206.566406 612.128906 205.582031 612.511719 204.730469 C 610.984375 205.222656 610.5 206.578125 609.46875 207.867188 C 609.359375 206.558594 609.285156 205.621094 609.195312 204.550781 C 608.089844 205.421875 608.242188 206.863281 607.179688 207.769531 C 606.90625 206.203125 607.714844 204.980469 607.777344 203.609375 C 606.898438 204.199219 607.363281 205.351562 606.539062 205.929688 C 606.394531 205.691406 606.292969 205.550781 606.222656 205.398438 C 605.234375 203.175781 605.066406 200.550781 602.9375 198.882812 C 602.117188 198.238281 601.84375 197.367188 602.378906 196.332031 C 603.058594 195.019531 602.355469 194.867188 601.183594 194.632812 C 599.53125 194.300781 598.25 195.386719 596.777344 195.566406 C 596.554688 194.71875 597.484375 194.550781 597.394531 193.828125 C 594.894531 194.34375 593.144531 196.128906 590.984375 197.917969 C 591.164062 195.890625 592.324219 194.910156 593.234375 193.300781 C 591.800781 194.246094 590.765625 194.929688 589.730469 195.609375 C 590.882812 193.402344 592.796875 192.007812 594.855469 190.453125 C 593.082031 190.566406 591.8125 191.625 590.144531 191.660156 C 590.65625 190.707031 591.652344 190.742188 592.15625 190.027344 C 591.773438 190.042969 591.460938 190.058594 590.890625 190.089844 C 592.175781 188.660156 593.917969 188.542969 595.214844 187.617188 C 594.644531 187.210938 593.988281 188.035156 593.386719 187.414062 C 593.808594 186.328125 594.992188 186.253906 595.777344 185.726562 C 595.679688 185.097656 594.75 185.28125 594.851562 184.355469 C 598.28125 185.152344 601.300781 183.613281 604.4375 182.675781 C 607.609375 181.730469 610.769531 180.742188 613.980469 179.761719 C 613.683594 179.019531 613.097656 179.589844 613.023438 178.875 C 615.105469 178.027344 617.234375 177.164062 619.359375 176.300781 C 613.40625 177.523438 608.339844 181.066406 602.464844 182.53125 C 606.386719 180.539062 610.542969 179.054688 614.710938 176.617188 C 611.359375 177.296875 608.386719 177.777344 605.484375 178.542969 C 604.179688 178.890625 603.027344 179.816406 601.796875 180.460938 C 600.808594 180.980469 599.746094 181.292969 598.644531 181.398438 C 597.464844 181.519531 596.269531 181.527344 594.925781 180.523438 C 596.160156 180.363281 597.050781 180.265625 597.933594 180.128906 C 601.683594 179.554688 604.972656 177.445312 608.742188 176.90625 C 610.46875 176.660156 612.164062 176.160156 613.878906 175.777344 C 612.636719 175.734375 611.429688 175.871094 610.246094 176.105469 C 606.496094 176.851562 602.746094 177.617188 599.007812 178.410156 C 597.882812 178.652344 596.941406 178.09375 596.171875 177.570312 C 595.652344 177.21875 596.667969 176.710938 596.875 176.210938 C 597.828125 176.246094 598.679688 175.929688 599.535156 175.550781 C 601.355469 174.742188 603.351562 174.050781 605.246094 174.558594 C 607.523438 175.164062 609.570312 174.472656 612.128906 174.300781 C 608.15625 173.945312 604.648438 173.105469 601.054688 173.429688 C 601.601562 172.617188 602.484375 172.472656 603.339844 172.355469 C 605.042969 172.121094 606.675781 172.496094 608.3125 172.9375 C 611.09375 173.691406 613.886719 173.335938 616.964844 173.09375 C 616.222656 172.664062 615.625 173.023438 614.929688 172.300781 C 616.699219 172.554688 616.921875 171.160156 617.734375 170.398438 C 618.449219 169.71875 618.335938 168.949219 618.195312 168.550781 C 617.957031 167.871094 617.214844 168.46875 616.738281 168.609375 C 614.113281 169.394531 611.800781 168.929688 609.847656 166.980469 C 609.425781 166.558594 608.863281 166.144531 609.414062 165.355469 C 611.308594 162.660156 614.355469 161.820312 617.230469 163.25 C 618.179688 163.71875 618.15625 163.707031 618.570312 162.710938 C 618.636719 162.542969 619.03125 162.507812 619.539062 162.304688 C 615.21875 160.359375 611.15625 159.960938 607.171875 162.261719 C 607.269531 162.410156 608.023438 162.085938 608.039062 162.804688 C 607.90625 162.886719 607.753906 163.066406 607.621094 163.050781 C 606.46875 162.910156 606.703125 164.734375 605.523438 164.519531 C 605.570312 164.617188 605.585938 164.738281 605.660156 164.800781 C 606.753906 165.734375 605.621094 165.679688 605.183594 165.792969 C 603.496094 166.234375 601.851562 166.800781 600.261719 167.511719 C 600.015625 167.617188 599.808594 167.808594 599.578125 167.957031 C 599.578125 167.957031 599.039062 169.128906 599.039062 169.125 C 599.359375 169.234375 599.824219 169.1875 599.933594 169.558594 C 600.070312 170.054688 599.554688 170.0625 599.269531 170.160156 C 597.652344 170.726562 596.644531 172.121094 595.3125 173.191406 C 596.332031 173.027344 597.347656 172.863281 598.492188 172.679688 C 598.023438 173.953125 596.792969 173.910156 596.078125 174.710938 C 598.015625 175.046875 599.429688 173.765625 601.082031 173.421875 Z M 562.09375 216.71875 C 560.414062 217.890625 558.015625 218.105469 557.121094 220.324219 C 558.28125 219.835938 558.839844 218.398438 560.304688 218.3125 C 560.421875 219.042969 559.582031 219.371094 559.902344 220.039062 C 560.734375 219.550781 560.691406 218.339844 561.789062 217.890625 C 561.847656 218.8125 561.457031 219.464844 561.105469 220.097656 C 560.234375 221.6875 558.601562 222.484375 557.316406 223.636719 C 556.25 224.601562 555.519531 225.710938 555.105469 227.070312 C 556.359375 226.164062 557.507812 225.191406 558.519531 224.09375 C 559.710938 222.792969 561.101562 222.046875 562.5625 222.25 C 560.007812 225.402344 555.816406 227.035156 554.695312 231.292969 C 556.019531 231.210938 556.730469 230.414062 556.75 228.996094 C 556.761719 228.027344 559.277344 225.988281 560.957031 225.777344 C 559.789062 227.050781 559.835938 228.441406 559.859375 229.890625 C 559.871094 230.910156 559.546875 232.316406 558.648438 232.636719 C 557.210938 233.152344 557.15625 234.273438 556.382812 235.71875 C 558.882812 234.472656 562.234375 236.632812 563.113281 232.71875 C 563.121094 232.691406 563.3125 232.703125 563.421875 232.695312 C 563.6875 233.117188 563.4375 233.496094 563.300781 233.855469 C 562.34375 236.335938 563.386719 238.171875 564.992188 240.003906 C 565.667969 240.769531 566.042969 239.769531 566.667969 240.183594 C 570.109375 242.472656 572.46875 245.71875 574.695312 249.082031 C 575.429688 250.199219 576.15625 251.277344 577.113281 252.238281 C 578.652344 253.78125 578.910156 255.792969 578.988281 258.164062 C 577.898438 257.222656 578.128906 256.066406 577.523438 255.269531 C 576.9375 255.265625 577.355469 256.417969 576.550781 256.15625 C 576.101562 255.546875 576.402344 254.808594 576.1875 254.121094 C 576.109375 254.375 576.105469 254.707031 575.976562 254.769531 C 575.414062 255.039062 575.449219 254.421875 575.429688 254.21875 C 574.957031 249.414062 571.007812 246.734375 568.699219 242.933594 C 568.613281 243.339844 568.644531 243.75 568.480469 243.851562 C 567.992188 244.167969 567.992188 243.597656 567.804688 243.363281 C 567.382812 242.835938 567.523438 241.859375 566.382812 241.902344 C 564.703125 241.964844 563.191406 241.042969 561.597656 240.828125 C 561.96875 242.175781 561.101562 242.273438 560.179688 242.175781 C 558.96875 242.046875 557.777344 241.789062 556.570312 241.648438 C 556.167969 241.605469 555.332031 241.484375 555.542969 242.121094 C 555.984375 243.472656 554.894531 243.980469 554.195312 244.832031 C 555.4375 244.953125 556.289062 244.109375 557.457031 244.101562 C 557.289062 244.777344 557.160156 245.300781 557.019531 245.871094 C 557.890625 245.785156 558.257812 243.992188 558.992188 245.027344 C 559.933594 246.355469 561.746094 246.976562 562.003906 248.84375 C 562.105469 249.578125 562.414062 250.28125 562.6875 251.195312 C 563.59375 249.398438 564.042969 250.363281 564.375 251.375 C 565.324219 254.273438 565.550781 257.277344 563.410156 259.625 C 562.007812 261.164062 561.515625 262.964844 560.617188 264.660156 C 558.859375 267.984375 558.160156 271.316406 559.5625 274.78125 C 560.03125 272.761719 560.199219 270.480469 561.242188 268.230469 C 562.132812 269.449219 561.476562 270.675781 562.214844 271.921875 C 562.550781 270.847656 562.820312 269.992188 563.082031 269.136719 C 563.714844 265.667969 564.957031 262.421875 566.59375 259.3125 C 568.441406 255.90625 567.046875 252.699219 565.980469 249.441406 C 568.492188 252.105469 569.582031 255.25 569.222656 258.921875 C 570.066406 256.671875 569.570312 254.46875 569.132812 251.859375 C 571.21875 253.710938 572.140625 255.683594 572.59375 258.074219 C 572.984375 257.234375 572.515625 256.445312 573.03125 255.632812 C 573.984375 257.058594 573.804688 258.582031 574.058594 260.105469 C 574.695312 259.402344 574.34375 258.453125 575.28125 257.804688 C 575.464844 259.746094 574.855469 261.796875 576.042969 263.144531 C 577.472656 264.765625 576.839844 266.296875 576.589844 267.9375 C 576.566406 268.101562 576.570312 268.261719 576.535156 268.816406 C 578.050781 265.765625 577.335938 262.839844 577.488281 259.992188 C 578.449219 262.070312 579.253906 264.125 579.828125 266.238281 C 580.140625 267.398438 580.0625 268.667969 579.773438 269.871094 C 579.675781 270.269531 579.425781 270.613281 578.972656 270.695312 C 578.625 270.761719 578.410156 270.582031 578.335938 270.265625 C 577.867188 268.253906 577.441406 269.640625 577.054688 270.292969 C 576.859375 270.625 576.585938 270.960938 576.679688 271.347656 C 579.726562 271.359375 576.875 273.699219 577.933594 274.453125 C 578.734375 274.203125 578.042969 272.105469 579.894531 272.804688 C 582.097656 266.445312 579.582031 259.898438 579.820312 253.363281 C 580.503906 253.253906 580.371094 254.230469 581.050781 254.210938 C 581.042969 253.105469 580.585938 251.976562 581.128906 250.738281 C 583.59375 252.859375 581.75 256.621094 584.597656 258.789062 C 584.597656 257.378906 584.582031 256.351562 584.605469 255.316406 C 584.621094 254.808594 584.5 254.1875 584.960938 253.847656 C 585.628906 253.347656 585.671875 254.589844 586.519531 254.402344 C 584.945312 252.167969 583.769531 249.8125 583.296875 247.269531 C 582.992188 245.628906 581.097656 245.589844 580.835938 244.125 C 580.828125 244.078125 580.636719 244.035156 580.535156 244.042969 C 578.511719 244.175781 578.113281 243.925781 577.554688 242.160156 C 577.484375 241.941406 577.394531 241.726562 577.308594 241.488281 C 576.84375 241.898438 577.601562 242.652344 576.828125 242.984375 C 576.070312 242.179688 576.039062 241.03125 575.492188 240.082031 C 575.234375 240.710938 575.8125 241.308594 575.066406 242.101562 C 574.710938 240.253906 573.3125 239.234375 572.59375 237.765625 C 572.289062 237.136719 572.113281 236.417969 571.46875 236.058594 C 569.421875 234.910156 569.398438 232.339844 567.695312 230.785156 C 566.6875 229.867188 566.003906 227.765625 566.625 225.742188 C 566.007812 226.355469 566.332031 227.277344 565.367188 227.605469 C 565.636719 226.070312 564.496094 224.695312 565.605469 223.066406 C 565.0625 223.386719 564.742188 223.726562 564.539062 223.664062 C 564.09375 223.527344 564.339844 223.074219 564.386719 222.757812 C 564.476562 222.078125 564.605469 221.402344 564.714844 220.738281 C 564.167969 220.554688 564.097656 221.359375 563.625 221.140625 C 563.089844 220.695312 563.929688 220.042969 563.421875 219.601562 C 562.574219 219.859375 562.378906 220.984375 561.097656 221.144531 C 561.582031 220.113281 561.859375 219.285156 562.320312 218.578125 C 562.828125 217.816406 562.65625 217.265625 562.078125 216.707031 C 563.433594 214.804688 564.480469 212.746094 565.203125 210.5 C 563.210938 213.328125 559.714844 214.179688 557.65625 216.890625 C 557.558594 216.78125 557.457031 216.675781 557.359375 216.570312 C 557.667969 215.972656 557.980469 215.371094 558.292969 214.773438 C 557.25 215.460938 556.445312 216.289062 555.65625 217.140625 C 555.476562 217.335938 555.371094 217.609375 555.230469 217.84375 C 556.828125 218.636719 555.105469 218.925781 554.914062 219.300781 C 554.523438 220.074219 553.832031 220.695312 553.269531 221.375 C 554.480469 220.597656 555.441406 219.570312 556.5625 218.777344 C 557.6875 217.984375 558.964844 217.378906 560.210938 216.765625 C 560.792969 216.484375 561.453125 215.960938 562.09375 216.71875 Z M 625.75 178.265625 C 626.441406 177.984375 626.644531 177.089844 627.535156 177.128906 C 627.570312 178.234375 626.3125 178.738281 626.230469 179.789062 C 629.515625 179.683594 631.832031 177.65625 634.21875 176.03125 C 636.507812 174.472656 636.347656 172.613281 634.285156 170.828125 C 633.515625 170.160156 632.863281 169.421875 632.929688 168.328125 C 633.007812 167.035156 634.152344 166.847656 635.191406 166.503906 C 633.277344 165.121094 627.742188 166.660156 627.566406 168.777344 C 627.414062 170.535156 625.882812 170.425781 625.375 171.472656 C 626.535156 171.539062 627.652344 170.863281 629.039062 171.285156 C 627.773438 172.332031 626.136719 172.320312 625.210938 173.53125 C 625.988281 174.050781 626.832031 173.917969 627.65625 174.191406 C 627.050781 174.996094 625.980469 175.089844 625.4375 176.191406 C 626.714844 175.71875 627.71875 175.347656 628.71875 174.976562 C 627.738281 176.117188 626.199219 176.585938 625.75 178.265625 Z M 621.304688 177.164062 C 617.324219 177.328125 613.019531 180.195312 610.773438 183.84375 C 611.164062 183.777344 611.503906 183.75 611.832031 183.660156 C 612.679688 183.4375 613.476562 183.097656 614.101562 182.453125 C 614.800781 181.730469 615.316406 181.734375 615.625 182.785156 C 615.722656 182.726562 615.832031 182.679688 615.921875 182.609375 C 617.835938 181.007812 619.800781 179.476562 621.699219 177.828125 C 620.089844 178.738281 618.476562 179.648438 616.863281 180.558594 C 616.796875 180.449219 616.730469 180.347656 616.664062 180.238281 C 618.207031 179.214844 619.753906 178.1875 621.304688 177.164062 Z M 550.601562 276.171875 C 553.371094 275.324219 555.699219 272.503906 555.933594 269.855469 C 555.957031 269.59375 556.109375 269.089844 555.710938 269.203125 C 554.398438 269.566406 554.496094 268.628906 554.296875 267.871094 C 554.105469 267.132812 553.726562 267.320312 553.316406 267.734375 C 552.125 268.9375 551.984375 270.554688 551.347656 272.335938 C 552.585938 271.441406 552.710938 270.035156 554.011719 269.269531 C 553.402344 272.007812 551.773438 273.925781 550.601562 276.171875 Z M 602.148438 186.527344 C 604.710938 185.433594 607.425781 184.675781 609.570312 182.800781 C 608.148438 182.9375 606.796875 183.234375 605.445312 183.511719 C 604.144531 183.773438 602.785156 183.804688 601.582031 184.4375 C 601.332031 184.570312 600.875 184.625 600.964844 185.113281 C 601.148438 186.121094 601.152344 186.132812 600.5 186.378906 C 600.019531 186.554688 599.523438 186.683594 598.925781 186.867188 C 603.261719 187.511719 605.585938 187.292969 606.675781 186.128906 C 605.152344 186.203125 603.738281 186.882812 602.148438 186.527344 Z M 571 262.539062 C 569.511719 262.632812 568.203125 261.914062 566.75 261.761719 C 566.609375 262.875 566.074219 264.050781 566.445312 265.433594 C 567.1875 264.816406 567.160156 263.6875 568.265625 263.4375 C 568.328125 265.007812 567.867188 266.472656 568.164062 267.949219 C 568.660156 267.648438 568.328125 266.757812 569.09375 266.664062 C 569.722656 267.230469 569.175781 268.082031 569.691406 268.871094 C 570.167969 266.601562 570.59375 264.519531 571 262.539062 Z M 555.527344 263.808594 C 556.597656 262.851562 556.5625 261.585938 557.492188 260.691406 C 557.910156 262.332031 557.050781 263.667969 557.089844 265.3125 C 557.96875 264.378906 558.191406 263.414062 558.386719 262.476562 C 558.53125 261.765625 559.21875 260.75 558.605469 260.359375 C 557.242188 259.484375 558.207031 258.832031 558.550781 258.101562 C 558.917969 257.332031 559.425781 256.621094 559.480469 255.53125 C 557.253906 257.859375 556.476562 260.6875 555.527344 263.808594 Z M 566.601562 259.316406 C 566.753906 257.25 567.226562 255.125 565.671875 253.28125 C 565.121094 253.683594 565.214844 254.125 565.230469 254.507812 C 565.347656 256.777344 564.757812 258.875 563.777344 260.898438 C 563.019531 262.46875 562.316406 264.085938 562.136719 265.839844 C 562.015625 267.039062 561.820312 268.316406 563.085938 269.140625 C 563.71875 265.671875 564.964844 262.421875 566.601562 259.316406 Z M 602.78125 206.171875 C 602.957031 203.902344 602.871094 202.027344 601.683594 200.398438 C 600.894531 199.308594 600.304688 199.4375 599.804688 200.664062 C 599.390625 201.679688 598.960938 202.695312 598.484375 203.84375 C 598.078125 201.847656 598.902344 200.03125 598.285156 198.191406 C 597.441406 199.519531 596.71875 200.875 596.5 202.414062 C 596.269531 204.023438 596.578125 205.539062 597.617188 206.847656 C 598.277344 207.679688 598.699219 207.542969 598.796875 206.445312 C 599.511719 206.980469 599.65625 208.007812 600.8125 207.980469 C 600.53125 206.007812 600.097656 204.070312 600.804688 201.929688 C 601.304688 203.433594 601.332031 204.921875 602.78125 206.171875 Z M 602.78125 206.171875 " fill-opacity="1" fill-rule="nonzero"/>
</svg>