<?xml version="1.0" encoding="utf-8"?>
<svg version="1.1" viewBox="0 0 1200 1200" xmlns="http://www.w3.org/2000/svg" width="150pt" height="150pt">
  <path d="m924.05 23.953c-139.18 0-252 112.83-252 252s112.83 252 252 252 252-112.83 252-252c-0.1875-139.08-112.92-251.81-252-252zm-180 252c-0.046875-99.328 80.438-179.9 179.76-180 35.344-0.046875 69.938 10.359 99.422 29.906l-249.32 249.32c-19.5-29.438-29.906-63.938-29.859-99.234zm180 180c-35.297 0.046875-69.797-10.359-99.188-29.906l249.28-249.28c54.844 82.828 32.156 194.44-50.719 249.28-29.484 19.547-64.031 29.953-99.375 29.906zm-159.52 103.22c-34.969-14.719-73.406-19.219-110.81-12.891 6.3281-37.406 1.8281-75.844-12.891-110.81-42.281-102.05-159.28-150.52-261.32-108.23-49.031 20.297-87.938 59.25-108.23 108.23-14.719 34.969-19.219 73.406-12.891 110.81-37.406-6.3281-75.844-1.8281-110.81 12.891-102.14 42.281-150.61 159.28-108.33 261.37 20.297 49.031 59.25 87.938 108.23 108.23 24.656 10.312 51.094 15.656 77.812 15.75 11.062 0 22.125-0.98438 33.047-2.8594-6.3281 37.406-1.875 75.891 12.891 110.86 42.281 102.05 159.28 150.52 261.32 108.23 49.031-20.297 87.938-59.25 108.23-108.23 14.719-34.969 19.219-73.406 12.891-110.86 10.922 1.875 21.938 2.8594 33.047 2.8594 26.719-0.09375 53.156-5.3906 77.812-15.75 102.05-42.281 150.52-159.28 108.23-261.32-20.297-49.031-59.203-87.984-108.23-108.28zm-178.55 218.72c-9 9-14.062 21.234-14.062 33.938 0 26.531-21.469 48-48 48-12.75 0-24.938 5.0625-33.938 14.062-18.75 18.75-49.125 18.75-67.875 0-9-9-21.188-14.062-33.938-14.062-26.531 0-48-21.469-48-48 0-12.75-5.0625-24.938-14.062-33.938-18.75-18.75-18.75-49.125 0-67.875 9-9 14.062-21.234 14.062-33.938 0-26.531 21.469-48 48-48 12.75 0 24.938-5.0625 33.938-14.062 18.75-18.75 49.125-18.75 67.875 0 9 9 21.188 14.062 33.938 14.062 26.531 0 48 21.469 48 48 0 12.75 5.0625 24.938 14.062 33.938 18.75 18.75 18.75 49.172 0 67.875zm-129.94-69.938c19.875 0 36 16.125 36 36s-16.125 36-36 36-36-16.125-36-36 16.078-36 36-36z"/>
</svg>