<?xml version="1.0" encoding="utf-8"?>
<svg xmlns="http://www.w3.org/2000/svg" viewBox="0.9602 13.6523 126.0007 125.9974" width="150pt" height="150pt">
  <path fill="#070706" d="M 18.707 76.664 L 18.707 79.494 C 23.484 78.002 28.929 76.812 35.137 76.059 L 35.137 68.613 C 28.895 67.594 24.203 62.844 24.203 51.316 C 24.203 38.113 30.355 21.023 37.945 21.023 C 45.535 21.023 51.688 38.113 51.688 51.316 C 51.688 62.844 46.996 67.594 40.754 68.613 L 40.754 75.517 C 41.219 75.483 41.687 75.451 42.16 75.422 C 46.66 75.148 51.134 75.18 55.582 75.518 L 55.582 70.074 C 53.707 69.777 52.035 68.992 50.746 67.539 C 53.598 64.352 55.719 59.32 55.719 51.316 C 55.684 47.184 55.211 43.105 54.297 39.078 C 55.277 38.16 56.332 37.609 57.43 37.609 C 62.609 37.609 66.805 49.266 66.805 58.27 C 66.805 66.176 63.57 69.406 59.281 70.078 L 59.281 75.871 C 63.218 76.323 67.133 77.015 71.027 77.949 C 94.383 83.5 111.629 96.301 120.219 103.883 C 117.637 109.066 114.418 113.82 110.555 118.137 C 110.355 118.359 110.133 118.555 109.891 118.727 C 109.648 118.895 109.387 119.035 109.113 119.148 C 108.836 119.258 108.551 119.336 108.258 119.383 C 107.961 119.43 107.668 119.441 107.371 119.418 C 107.074 119.398 106.785 119.34 106.5 119.254 C 106.215 119.164 105.945 119.047 105.688 118.895 C 105.434 118.746 105.195 118.566 104.98 118.363 C 104.766 118.16 104.574 117.934 104.41 117.684 C 95.023 103.375 82.176 96.16 74.121 92.813 C 72.512 92.145 71.242 94.207 72.496 95.41 C 83.879 106.336 89.922 118.984 93.074 128.242 C 93.227 128.676 93.301 129.121 93.289 129.582 C 93.281 130.039 93.191 130.484 93.02 130.91 C 92.852 131.336 92.609 131.719 92.301 132.059 C 91.992 132.398 91.633 132.672 91.223 132.883 C 90.199 133.395 89.164 133.875 88.113 134.328 C 87.066 134.785 86.004 135.211 84.934 135.609 C 83.859 136.008 82.781 136.379 81.688 136.719 C 80.598 137.059 79.496 137.371 78.387 137.652 C 77.281 137.934 76.164 138.188 75.043 138.41 C 73.922 138.633 72.797 138.828 71.664 138.988 C 70.531 139.152 69.395 139.285 68.258 139.391 C 67.117 139.492 65.977 139.563 64.836 139.605 C 63.691 139.648 62.551 139.66 61.406 139.641 C 60.262 139.621 59.121 139.574 57.98 139.496 C 56.84 139.414 55.699 139.305 54.566 139.164 C 53.43 139.027 52.301 138.855 51.176 138.656 C 50.047 138.457 48.93 138.227 47.816 137.969 C 46.703 137.707 45.594 137.418 44.496 137.102 C 43.398 136.781 42.309 136.434 41.23 136.059 C 40.148 135.684 39.082 135.277 38.023 134.844 C 36.965 134.414 35.918 133.953 34.883 133.465 C 33.848 132.977 32.828 132.457 31.824 131.918 C 30.816 131.375 29.824 130.805 28.848 130.207 C 27.871 129.613 26.914 128.992 25.969 128.344 C 25.027 127.699 24.102 127.027 23.191 126.332 C 22.285 125.637 21.398 124.918 20.527 124.176 C 19.66 123.43 18.809 122.664 17.98 121.879 C 17.152 121.09 16.344 120.281 15.559 119.449 C 14.773 118.617 14.012 117.766 13.27 116.895 C 12.531 116.023 11.813 115.133 11.121 114.223 C 10.43 113.313 9.758 112.387 9.117 111.441 C 8.473 110.496 7.855 109.535 7.262 108.555 C 6.668 107.578 6.102 106.586 5.563 105.578 C 5.023 104.57 4.512 103.547 4.023 102.512 C 3.539 101.477 3.082 100.43 2.652 99.371 C 2.223 98.309 1.82 97.238 1.449 96.16 C 0.004 91.945 1.859 87.27 5.738 85.055 C 8.298 83.594 11.17 82.221 14.391 80.989 L 14.391 76.684 C 9.387 75.898 5.613 72.129 5.613 62.91 C 5.613 52.406 10.512 38.805 16.551 38.805 C 18.18 38.805 19.723 39.82 21.113 41.477 C 20.512 44.73 20.199 48.008 20.172 51.316 C 20.172 60.738 23.102 66.066 26.723 69.074 C 25.387 73.871 22.383 76.074 18.707 76.664 Z M 98.629 26.441 C 98.852 26.676 99.043 26.938 99.199 27.219 C 99.359 27.504 99.477 27.801 99.559 28.117 C 99.641 28.43 99.684 28.75 99.68 29.074 C 99.684 29.398 99.641 29.719 99.559 30.031 C 99.477 30.348 99.359 30.645 99.199 30.93 C 99.043 31.215 98.852 31.473 98.629 31.707 C 98.406 31.941 98.156 32.145 97.879 32.316 C 97.543 32.527 97.242 32.785 96.984 33.09 C 96.727 33.391 96.523 33.727 96.371 34.094 C 96.219 34.461 96.125 34.844 96.09 35.242 C 96.059 35.637 96.086 36.031 96.176 36.418 C 96.246 36.734 96.277 37.055 96.27 37.379 C 96.258 37.703 96.211 38.023 96.117 38.336 C 96.027 38.648 95.902 38.945 95.734 39.223 C 95.57 39.504 95.371 39.758 95.141 39.988 C 94.91 40.215 94.656 40.414 94.375 40.578 C 94.094 40.742 93.801 40.867 93.488 40.957 C 93.176 41.047 92.855 41.094 92.531 41.105 C 92.207 41.113 91.887 41.078 91.57 41.004 C 91.18 40.918 90.785 40.887 90.391 40.922 C 89.992 40.953 89.609 41.047 89.238 41.199 C 88.871 41.352 88.535 41.555 88.23 41.813 C 87.922 42.07 87.664 42.367 87.453 42.703 C 87.277 42.98 87.074 43.227 86.836 43.449 C 86.598 43.672 86.34 43.863 86.055 44.02 C 85.77 44.176 85.469 44.297 85.156 44.379 C 84.84 44.457 84.52 44.5 84.195 44.5 C 83.871 44.5 83.551 44.457 83.234 44.379 C 82.918 44.297 82.621 44.176 82.336 44.02 C 82.051 43.863 81.789 43.672 81.555 43.449 C 81.316 43.227 81.109 42.98 80.938 42.703 C 80.727 42.367 80.465 42.07 80.16 41.813 C 79.855 41.555 79.52 41.352 79.148 41.199 C 78.781 41.047 78.398 40.953 78 40.922 C 77.602 40.887 77.211 40.918 76.82 41.004 C 76.504 41.078 76.184 41.113 75.859 41.102 C 75.535 41.094 75.215 41.047 74.902 40.957 C 74.59 40.867 74.293 40.742 74.012 40.578 C 73.734 40.414 73.477 40.215 73.246 39.988 C 73.02 39.758 72.82 39.504 72.652 39.223 C 72.488 38.945 72.359 38.648 72.27 38.336 C 72.18 38.023 72.129 37.707 72.121 37.383 C 72.109 37.055 72.141 36.734 72.215 36.418 C 72.305 36.031 72.332 35.637 72.297 35.242 C 72.266 34.844 72.172 34.465 72.02 34.094 C 71.867 33.727 71.66 33.391 71.402 33.09 C 71.145 32.785 70.848 32.527 70.508 32.32 C 70.234 32.148 69.984 31.945 69.758 31.707 C 69.535 31.473 69.344 31.215 69.188 30.93 C 69.031 30.648 68.91 30.348 68.828 30.035 C 68.746 29.719 68.707 29.398 68.707 29.074 C 68.707 28.75 68.746 28.43 68.828 28.117 C 68.91 27.801 69.031 27.504 69.188 27.219 C 69.344 26.938 69.535 26.676 69.758 26.441 C 69.984 26.207 70.234 26.004 70.508 25.832 C 70.848 25.621 71.145 25.363 71.402 25.063 C 71.66 24.758 71.867 24.422 72.02 24.055 C 72.172 23.688 72.266 23.305 72.297 22.91 C 72.332 22.512 72.305 22.121 72.215 21.73 C 72.141 21.414 72.109 21.094 72.121 20.77 C 72.129 20.445 72.18 20.125 72.27 19.813 C 72.359 19.5 72.488 19.207 72.652 18.926 C 72.82 18.648 73.02 18.391 73.246 18.164 C 73.477 17.934 73.734 17.738 74.012 17.574 C 74.293 17.41 74.59 17.281 74.902 17.191 C 75.215 17.102 75.535 17.055 75.859 17.047 C 76.184 17.039 76.504 17.07 76.82 17.145 C 77.211 17.234 77.602 17.262 78 17.227 C 78.398 17.195 78.781 17.102 79.148 16.949 C 79.52 16.797 79.855 16.594 80.16 16.336 C 80.465 16.082 80.727 15.785 80.938 15.445 C 81.109 15.172 81.316 14.922 81.555 14.699 C 81.789 14.477 82.051 14.285 82.336 14.129 C 82.621 13.973 82.918 13.852 83.234 13.773 C 83.551 13.691 83.871 13.652 84.195 13.652 C 84.52 13.652 84.84 13.691 85.156 13.773 C 85.469 13.852 85.77 13.973 86.055 14.129 C 86.34 14.285 86.598 14.477 86.836 14.699 C 87.074 14.922 87.277 15.172 87.453 15.445 C 87.664 15.785 87.922 16.082 88.23 16.336 C 88.535 16.594 88.871 16.797 89.238 16.949 C 89.609 17.102 89.992 17.195 90.391 17.227 C 90.785 17.262 91.18 17.234 91.57 17.145 C 91.887 17.07 92.207 17.039 92.531 17.047 C 92.855 17.055 93.172 17.102 93.484 17.191 C 93.797 17.281 94.094 17.406 94.375 17.574 C 94.656 17.738 94.91 17.934 95.141 18.164 C 95.371 18.391 95.57 18.648 95.734 18.926 C 95.898 19.207 96.027 19.5 96.117 19.813 C 96.207 20.125 96.258 20.445 96.27 20.77 C 96.277 21.094 96.246 21.414 96.176 21.73 C 96.086 22.121 96.059 22.512 96.09 22.91 C 96.125 23.305 96.219 23.688 96.371 24.055 C 96.523 24.422 96.727 24.758 96.984 25.063 C 97.242 25.363 97.543 25.621 97.879 25.832 C 98.156 26.004 98.406 26.207 98.629 26.441 Z M 85.703 36.637 C 86.199 36.539 86.684 36.395 87.152 36.199 C 87.621 36.008 88.066 35.77 88.488 35.488 C 88.91 35.207 89.301 34.891 89.66 34.531 C 90.02 34.172 90.34 33.785 90.625 33.363 C 90.906 32.941 91.145 32.496 91.34 32.027 C 91.535 31.563 91.684 31.078 91.781 30.582 C 91.883 30.082 91.934 29.582 91.934 29.074 C 91.934 28.566 91.883 28.066 91.785 27.57 C 91.688 27.074 91.543 26.594 91.348 26.125 C 91.156 25.66 90.918 25.215 90.637 24.797 C 90.355 24.375 90.039 23.984 89.68 23.629 C 89.324 23.27 88.934 22.949 88.512 22.668 C 88.094 22.387 87.648 22.148 87.184 21.957 C 86.715 21.762 86.234 21.617 85.738 21.516 C 85.242 21.418 84.742 21.367 84.234 21.367 C 83.73 21.367 83.23 21.414 82.734 21.512 C 82.238 21.609 81.754 21.754 81.289 21.949 C 80.82 22.141 80.375 22.379 79.957 22.656 C 79.535 22.938 79.145 23.258 78.785 23.613 C 78.43 23.969 78.109 24.359 77.824 24.777 C 77.543 25.199 77.305 25.641 77.113 26.109 C 76.918 26.574 76.77 27.055 76.668 27.551 C 76.57 28.047 76.52 28.547 76.52 29.055 C 76.516 29.559 76.563 30.059 76.66 30.555 C 76.758 31.051 76.902 31.535 77.094 32.004 C 77.289 32.469 77.523 32.914 77.805 33.336 C 78.082 33.758 78.402 34.148 78.758 34.508 C 79.113 34.863 79.5 35.188 79.922 35.469 C 80.34 35.75 80.781 35.988 81.25 36.184 C 81.715 36.379 82.195 36.527 82.691 36.629 C 83.188 36.73 83.688 36.781 84.195 36.781 C 84.703 36.785 85.203 36.734 85.703 36.637 Z M 77.465 73.52 C 92.188 64.82 110.012 62.953 119.328 62.617 C 119.77 62.598 120.211 62.617 120.648 62.684 C 121.086 62.746 121.516 62.852 121.934 62.996 C 122.352 63.141 122.75 63.324 123.137 63.543 C 123.52 63.762 123.879 64.02 124.215 64.305 C 124.551 64.594 124.855 64.91 125.133 65.258 C 125.41 65.605 125.648 65.973 125.855 66.363 C 126.063 66.754 126.23 67.164 126.359 67.586 C 126.492 68.008 126.578 68.441 126.629 68.879 C 126.852 71.055 126.961 73.238 126.961 75.422 C 126.953 83.246 125.547 90.809 122.734 98.109 C 114.262 90.871 98.516 79.617 77.465 73.52 Z" fill-opacity="1" fill-rule="nonzero"/>
</svg>