<?xml version="1.0" encoding="UTF-8"?>
<svg version="1.1" viewBox="0 0 1200 1200" xmlns="http://www.w3.org/2000/svg" width="150pt" height="150pt">
 <path d="m689.06 174.74c3 5.5312 5.9062 11.344 8.625 17.438 10.125 22.641 18.375 49.406 24.188 78.938h69.469c-10.172-19.359-23.203-36.984-38.531-52.266-18.281-18.281-39.891-33.328-63.75-44.109zm39.703 144.42c1.6406 17.016 2.4844 34.547 2.4844 52.547s-0.84375 35.578-2.4844 52.547h80.859c4.2188-16.828 6.4219-34.406 6.4219-52.547 0-18.141-2.2031-35.719-6.4219-52.547zm-6.9375 153.14c-5.7656 29.531-14.062 56.297-24.188 78.938-2.7188 6.0938-5.5781 11.906-8.5781 17.391 23.859-10.828 45.422-25.828 63.703-44.109 15.328-15.328 28.312-32.906 38.531-52.266h-69.469zm-210.94 96.375c-3-5.5312-5.8594-11.344-8.625-17.438-10.125-22.641-18.375-49.406-24.188-78.938h-69.469c10.172 19.359 23.203 36.984 38.484 52.266 18.281 18.281 39.891 33.281 63.75 44.109zm-39.703-144.37c-1.6406-17.016-2.4844-34.547-2.4844-52.547s0.84375-35.578 2.4844-52.547h-80.859c-4.2188 16.828-6.4219 34.406-6.4219 52.547s2.25 35.719 6.4219 52.547zm6.9375-153.14c5.7656-29.531 14.062-56.297 24.188-78.938 2.7188-6.0938 5.5781-11.906 8.5781-17.391-23.859 10.828-45.422 25.828-63.703 44.109-15.328 15.328-28.312 32.906-38.484 52.219h69.469zm175.87-59.438c-15.469-34.641-34.688-56.062-54-56.062s-38.531 21.422-54 56.062c-7.6875 17.156-14.109 37.219-18.938 59.438h145.92c-4.8281-22.219-11.297-42.281-18.938-59.438zm-134.63 107.48c-1.7344 16.828-2.6719 34.406-2.6719 52.547s0.9375 35.719 2.6719 52.547h161.16c1.7344-16.828 2.6719-34.406 2.6719-52.547s-0.9375-35.719-2.6719-52.547zm7.6406 153.14c4.8281 22.219 11.297 42.281 18.938 59.438 15.469 34.641 34.688 56.062 54 56.062s38.531-21.422 54-56.062c7.6875-17.156 14.109-37.219 18.938-59.438h-145.92zm-177.05-15.375c-0.28125-0.70312-0.51563-1.4531-0.75-2.2031-8.625-26.109-13.312-54-13.312-82.969 0-29.25 4.7812-57.422 13.641-84 13.219-39.281 35.203-74.25 63.703-102.75 47.812-47.812 113.86-77.391 186.74-77.391 72.797 0 138.79 29.578 186.71 77.438 28.219 28.266 50.062 62.766 63.234 101.25 0.32812 0.84375 0.60938 1.7344 0.84375 2.625 8.625 26.062 13.312 53.906 13.312 82.828 0 29.062-4.6875 57-13.922 84.75-13.219 38.859-35.109 73.641-63.469 102-47.766 47.766-113.81 77.344-186.74 77.344-72.844 0-138.89-29.578-186.66-77.344-28.312-28.312-50.203-62.953-63.375-101.58zm219.89 398.76h60.188c19.266-21.234 38.672-43.359 57.938-65.25 76.641-87.234 150.56-171.37 249.19-238.45 9-6.1406 18.703-10.172 28.781-12.094 10.125-1.875 20.625-1.6406 31.219 0.75 10.172 2.3438 19.406 6.4219 27.984 12.516 8.25 6.0469 14.906 13.406 20.25 22.219l38.344 66.281 26.859-15.516c11.438-6.6094 26.109-2.7188 32.719 8.7188l16.875 29.344c0.9375 1.3125 1.6875 2.6719 2.3438 4.0781 13.125 24 15.656 51.141 9.0469 75.75-6.5625 24.609-22.312 46.828-45.703 61.078l-382.78 221.11c-5.5312 12.844-13.453 24.375-23.203 34.125-19.781 19.781-47.062 32.062-77.109 32.062h-85.594c-30.047 0-57.328-12.281-77.109-32.062-9.75-9.75-17.672-21.281-23.203-34.125l-382.78-221.11c-23.438-14.25-39.141-36.469-45.703-61.078-6.6094-24.609-4.0781-51.75 9.0469-75.75 0.60938-1.4062 1.4062-2.8125 2.3438-4.0781l16.875-29.344c6.6094-11.438 21.281-15.328 32.719-8.7188l26.859 15.516 38.344-66.281c5.3438-8.8125 12-16.172 20.25-22.219 8.5781-6.0938 17.766-10.172 27.938-12.516 10.594-2.3906 21.094-2.6719 31.219-0.75s19.781 5.9531 28.781 12.094c98.578 67.031 172.45 151.13 249.1 238.31 19.266 21.938 38.719 44.062 58.031 65.391zm182.06 32.906v77.25l347.81-200.81c13.078-7.5 21.891-19.734 25.5-33.328 3.6094-13.547 2.1562-28.453-5.2031-41.438l-6.1406-10.641-26.625 15.375-335.34 193.64zm-303.94 77.25v-77.25l-335.34-193.64-26.625-15.375-6.1406 10.641c-7.4062 12.984-8.8594 27.891-5.2031 41.438 3.6562 13.641 12.422 25.828 25.406 33.328zm192.24-62.156h-144.24v79.547c0 16.828 6.8906 32.109 17.953 43.172s26.391 17.953 43.172 17.953h85.594c16.781 0 32.109-6.8906 43.172-17.953s17.953-26.391 17.953-43.172v-79.547h-63.656z"/>
</svg>
