<?xml version="1.0" encoding="utf-8"?>
<svg version="1.1" viewBox="0 0 1200 1200" xmlns="http://www.w3.org/2000/svg" width="150pt" height="150pt">
  <path d="M 135.366 809.44 C 90.746 824.44 56.057 846.002 33.745 872.44 L 33.745 474.38 C 58.685 509.254 111.744 562.88 203.806 569.442 C 179.996 583.318 137.436 601.88 76.685 601.88 C 71.435 601.88 67.31 606.005 67.31 611.255 C 67.31 616.318 71.435 620.63 76.685 620.63 C 153.753 620.63 203.628 593.067 225.566 577.692 C 232.128 605.627 252.941 662.064 313.691 687.752 C 274.131 703.127 192.938 730.877 141.751 723.752 C 136.5 723.002 131.813 726.565 131.063 731.815 C 130.313 736.877 133.875 741.565 139.125 742.315 C 145.5 743.252 152.438 743.627 159.375 743.627 C 219.935 743.627 300.003 713.627 331.315 701.065 L 331.315 754.69 C 318.565 762.378 274.88 785.44 200.255 795.378 C 174.005 798.94 153.942 803.252 135.38 809.44 Z M 1077.338 530.622 L 1166.4 505.872 L 1166.4 554.81 C 1130.776 555.934 1100.963 547.872 1077.338 530.622 Z M 1166.399 232.298 L 1166.399 486.548 L 1064.019 514.86 C 1058.769 516.173 1054.832 520.298 1053.707 525.548 C 1052.957 528.736 1053.332 531.923 1054.644 534.736 L 1054.644 534.923 C 1052.954 555.743 1038.892 665.615 947.204 746.803 C 910.644 677.058 729.892 640.308 672.704 630.183 L 715.079 570.558 C 723.329 571.308 731.767 572.058 740.017 572.996 C 821.207 581.246 900.519 599.058 975.707 626.058 C 980.582 627.933 985.832 625.308 987.707 620.433 C 989.395 615.558 986.957 610.12 982.082 608.433 C 914.953 584.245 844.454 567.37 772.642 557.995 C 797.205 543.558 817.455 525.745 833.017 504.37 C 833.58 503.62 834.142 503.057 834.517 502.307 C 852.142 477.745 863.767 449.057 869.767 416.057 L 902.767 420.557 L 905.205 420.932 L 1036.085 438.932 C 1041.147 439.495 1045.835 435.932 1046.585 430.87 C 1047.335 425.807 1043.772 420.932 1038.71 420.37 L 934.65 406.12 C 1056.525 336.19 1079.587 258.56 1083.9 232.31 Z M 1071.601 549.543 C 1096.351 565.668 1125.601 573.731 1159.913 573.731 C 1162.163 573.731 1164.225 573.731 1166.475 573.543 L 1166.475 1199.983 L 593.665 1199.608 L 593.478 1199.608 C 516.983 1163.05 491.483 1100.988 485.858 1084.488 L 547.17 1005.363 C 562.92 1048.303 630.61 1142.241 920.67 1151.053 L 920.857 1151.053 C 925.92 1151.053 930.045 1147.116 930.232 1141.866 C 930.42 1136.803 926.295 1132.491 921.232 1132.303 C 628.167 1123.303 573.23 1025.805 563.292 993.743 L 566.105 993.743 C 707.667 993.743 770.48 897.745 791.105 855.933 C 811.535 883.683 874.725 929.245 1066.725 929.245 C 1083.225 929.245 1100.85 929.058 1119.6 928.308 C 1124.662 928.12 1128.787 923.62 1128.6 918.558 C 1128.412 913.308 1123.912 909.183 1118.85 909.558 C 873.038 919.12 815.85 861.933 803.1 840.558 C 863.472 825.558 910.535 800.245 946.91 770.62 C 948.222 769.682 949.347 768.557 950.66 767.62 C 1040.662 692.25 1065.412 589.498 1071.6 549.56 Z M 144.749 931.88 C 91.124 975.75 53.999 1026.752 33.749 1083.94 L 33.749 905.63 C 55.494 863.63 104.244 839.817 141.369 827.255 C 158.619 821.443 177.556 817.318 202.681 813.943 C 297.371 801.381 344.246 768.756 346.121 767.443 C 348.558 765.756 350.058 762.943 350.058 759.756 L 350.058 686.818 C 350.058 685.88 349.871 684.755 349.496 683.818 C 349.496 683.63 349.496 683.255 349.308 683.068 C 348.933 682.13 348.371 681.38 347.621 680.63 C 346.496 679.318 344.996 678.38 343.308 678.005 C 343.121 677.818 343.121 677.818 342.933 677.818 C 254.998 656.63 242.436 571.506 241.123 560.818 C 241.123 560.255 241.123 559.88 240.936 559.318 C 240.936 558.755 240.748 558.005 240.373 557.443 L 240.373 557.255 C 239.998 556.13 239.248 555.193 238.498 554.255 C 238.123 553.88 237.936 553.693 237.561 553.505 C 236.998 552.943 236.248 552.38 235.498 552.193 C 234.373 551.443 232.873 551.255 231.373 551.443 C 231.186 551.255 230.998 551.255 230.811 551.443 C 93.001 555.562 40.688 453.565 33.751 438.753 L 33.751 226.133 L 279.371 226.695 C 283.683 246.008 297.933 295.695 335.621 325.133 C 282.371 330.757 172.311 346.883 119.061 385.695 C 114.936 388.883 113.998 394.695 117.186 398.82 C 118.873 401.445 121.873 402.758 124.686 402.758 C 126.561 402.758 128.623 402.195 130.123 400.883 C 192.373 355.507 346.313 342.757 365.063 341.445 L 365.251 341.445 C 376.876 345.382 389.626 347.82 404.251 347.632 C 408.938 363.758 423.375 399.945 461.063 423.57 C 393.003 434.445 316.125 459.382 227.813 499.32 C 223.125 501.383 221.063 507.008 223.313 511.695 C 224.813 515.07 228.188 517.132 231.75 517.132 C 233.063 517.132 234.375 516.945 235.688 516.382 C 335.248 471.383 419.436 445.695 492.748 438.195 L 492.935 438.195 C 505.309 442.132 519.372 444.945 535.497 445.695 L 576.185 485.633 C 387.753 504.571 296.628 569.07 291.565 572.82 C 287.253 575.82 286.315 581.82 289.503 585.945 C 291.19 588.383 294.19 589.883 297.003 589.883 C 298.878 589.883 300.94 589.133 302.44 588.008 C 303.75 586.883 408.94 512.446 627.19 501.008 C 542.62 531.948 399.562 593.818 393 657.568 C 390.562 680.63 405.187 701.256 437.062 719.068 C 449.625 724.88 485.25 746.442 483 767.63 C 481.5 781.693 461.81 809.255 346.31 835.505 C 270 852.755 200.25 886.13 144.75 931.88 Z M 312.37 1061.187 C 297.933 1104.129 307.12 1150.442 339.558 1199.567 L 33.748 1199.379 L 33.748 1190.567 C 35.248 1094.197 76.683 1011.882 156.558 946.257 C 209.818 902.382 276.938 870.507 350.438 853.632 C 448.496 831.507 497.996 803.944 501.558 769.632 C 505.684 731.382 451.121 704.945 445.496 702.32 C 421.496 688.82 410.058 674.382 411.558 659.382 C 417.938 597.7 612.56 523.45 689.248 499.262 C 700.685 499.262 712.31 499.45 724.31 500.012 L 535.69 590.95 C 534.377 591.7 502.69 607.075 502.502 635.95 C 502.502 663.887 530.628 690.887 588.94 718.825 C 613.502 729.138 677.627 764.012 678.94 803.2 C 679.69 827.95 655.315 852.888 606.565 876.888 C 588.94 885.512 568.69 893.2 544.69 899.95 C 485.63 916.64 344.63 965.762 312.38 1061.2 Z M 466.503 1084.904 C 467.253 1088.095 484.316 1152.966 555.377 1199.654 L 362.438 1199.654 C 327.563 1151.649 316.688 1107.212 330.188 1067.274 C 359.628 980.274 493.498 933.962 549.748 918.024 C 574.872 910.898 596.248 903.024 614.81 893.836 C 670.873 866.274 698.622 835.524 697.685 802.524 C 695.624 743.647 600.187 703.334 596.624 701.834 C 531.187 670.334 521.249 647.272 521.249 636.209 C 521.249 618.959 543.562 608.085 543.749 607.897 L 763.499 501.958 C 777.936 502.895 792.936 504.02 808.124 505.708 C 790.499 525.583 767.624 541.521 739.499 554.083 C 730.125 552.958 720.562 552.208 711.187 551.458 C 707.812 551.27 704.625 552.77 702.75 555.395 L 648.938 631.52 C 647.063 634.145 646.688 637.708 647.813 640.708 C 649.125 643.708 651.938 645.77 655.125 646.333 C 725.245 657.213 908.245 698.463 932.245 759.213 C 896.055 787.526 849.185 811.338 788.435 824.838 C 788.06 825.025 787.498 825.213 786.935 825.4 C 786.185 825.588 785.623 825.963 785.06 826.338 C 784.123 826.9 783.56 827.65 782.998 828.4 C 782.248 829.15 781.873 830.088 781.685 831.025 C 781.685 831.025 781.685 831.213 781.498 831.588 C 777.938 841.528 724.878 982.9 552.188 974.838 L 551.25 974.838 C 550.313 974.838 549.375 975.213 548.438 975.588 C 548.25 975.588 547.875 975.588 547.688 975.775 C 546.75 976.15 546 976.713 545.25 977.463 C 544.875 977.65 544.688 978.025 544.313 978.4 L 544.125 978.775 L 468.187 1077.025 C 466.312 1079.275 465.75 1082.087 466.5 1084.9 Z M 738.94 88.875 C 738.94 137.961 699.151 177.75 650.065 177.75 C 600.979 177.75 561.19 137.961 561.19 88.875 C 561.19 39.789 600.979 0 650.065 0 C 699.151 0 738.94 39.789 738.94 88.875 Z M 419.06 287.44 C 413.622 287.44 408.373 285.19 404.623 281.065 C 401.435 277.127 399.748 272.439 400.123 267.377 C 400.498 262.502 402.748 258.002 406.498 254.627 C 424.31 239.252 442.872 231.377 461.81 231.377 C 476.435 231.377 490.873 236.252 504.935 245.439 C 518.998 236.064 533.435 231.377 548.06 231.377 C 566.997 231.377 585.56 239.252 603.372 254.627 C 607.122 257.814 609.372 262.314 609.747 267.377 C 610.122 272.44 608.622 277.315 605.247 281.065 C 601.873 285.002 596.622 287.44 591.185 287.44 C 586.497 287.44 582.185 285.752 578.81 282.752 C 567.935 273.378 557.81 268.69 548.06 268.69 C 538.31 268.69 528.185 273.19 517.31 282.752 C 516.372 283.69 515.247 284.065 514.31 284.627 C 513.56 285.19 512.997 285.565 512.247 285.94 C 509.997 286.877 507.56 287.44 505.122 287.44 C 502.685 287.44 500.247 286.877 497.997 285.94 C 497.247 285.565 496.685 285.002 495.935 284.627 C 494.997 283.877 493.872 283.502 492.935 282.752 C 482.06 273.378 471.935 268.69 462.185 268.69 C 452.435 268.69 442.31 273.19 431.435 282.752 C 427.872 285.752 423.561 287.44 419.061 287.44 Z M 734.44 294.379 C 749.066 294.379 763.503 299.254 777.378 308.817 C 791.441 299.63 805.878 294.755 820.503 294.755 C 839.44 294.755 858.003 302.63 875.815 318.005 C 879.565 321.192 881.815 325.692 882.19 330.755 C 882.565 335.818 881.065 340.693 877.69 344.443 C 874.316 348.38 869.066 350.818 863.628 350.818 C 859.128 350.818 854.628 349.13 851.253 346.13 C 840.378 336.756 830.253 332.068 820.503 332.068 C 810.753 332.068 800.628 336.568 789.753 346.13 C 788.816 346.88 787.691 347.443 786.753 348.005 C 786.003 348.38 785.441 348.755 784.691 349.13 C 782.253 350.068 779.816 350.63 777.378 350.63 L 777.191 350.63 C 774.753 350.63 772.503 350.068 770.253 349.13 C 769.503 348.755 768.941 348.193 768.191 347.818 C 767.253 347.068 766.128 346.693 765.191 345.943 C 754.316 336.568 744.191 331.881 734.441 331.881 C 724.691 331.881 714.566 336.38 703.691 345.943 C 700.315 348.943 696.003 350.63 691.503 350.63 C 686.065 350.63 680.815 348.193 677.253 344.068 C 674.065 340.13 672.378 335.442 672.753 330.38 C 673.128 325.505 675.378 321.005 679.128 317.63 C 696.94 302.255 715.502 294.38 734.44 294.38 Z"/>
</svg>