<?xml version="1.0" encoding="utf-8"?>
<svg version="1.1" viewBox="0 0 1200 1200" xmlns="http://www.w3.org/2000/svg" width="150pt" height="150pt">
  <path d="M 923.077 237.093 C 887.669 279.139 852.976 255.902 842.622 298.744 C 846.772 300.3 856.694 300.603 860.196 291.827 C 864.281 281.646 873.943 277.323 876.494 277.064 C 879.045 276.804 892.792 270.19 892.792 270.19 C 897.374 306.353 877.964 310.481 871.846 313.443 C 865.73 316.404 863.762 323.667 863.762 323.667 C 894.564 370.504 899.536 430.769 899.536 430.769 C 897.829 450.417 902.8 450.395 903.492 467.234 C 904.746 498.014 881.099 511.264 881.099 511.264 C 881.099 511.264 880.45 517.252 876.516 523.996 C 872.582 530.739 862.141 560.958 862.898 570.123 C 863.655 579.288 862.509 591.695 860.218 595.521 C 859.008 597.531 858.229 606.479 857.754 614.477 L 857.797 614.413 L 864.671 617.849 L 859.245 620.66 L 860.218 622.432 L 860.218 624.594 L 864.67 624.334 L 871.544 611.732 L 871.544 619.687 L 880.449 616.509 L 875.478 622.821 L 875.694 625.264 L 881.098 620.335 L 881.098 614.023 L 885.68 622.411 L 885.68 626.237 L 889.874 625.48 L 895.213 620.335 L 905.912 616.509 L 900.941 622.821 L 901.698 631.986 L 654.375 631.986 L 654.699 628.982 L 650.506 619.817 L 657.769 624.399 L 662.351 611.798 L 662.351 624.01 L 669.614 614.456 L 676.488 617.893 L 671.149 620.379 L 670.003 624.766 L 676.487 624.378 L 678.735 620.249 C 679.405 607.344 680.746 578.941 680.313 571.203 C 679.751 561.066 682.129 560.503 682.129 560.503 C 692.332 557.455 694.947 539.666 694.947 539.666 C 694.947 539.666 700.913 515.264 693.175 492.935 C 678.173 449.665 691.013 437.258 691.013 437.258 C 691.013 437.258 700.438 434.016 716.476 418.237 C 732.514 402.457 759.987 400.036 773.107 402.587 C 786.228 405.138 805.185 404.489 805.185 404.489 C 802.375 406.153 798.116 414.173 798.116 414.173 C 813.204 394.676 827.621 395.454 827.621 395.454 C 827.621 395.454 830.907 394.978 831.923 404.229 C 835.446 436.371 850.642 447.936 850.642 447.936 C 846.816 442.985 834.019 424.072 834.214 403.645 C 834.409 383.219 823.277 370.055 823.277 370.055 C 846.34 367.461 843.617 364.003 849.496 360.782 C 863.913 352.871 858.79 340.334 858.79 340.334 C 860.196 358.037 849.755 356.113 844.287 361.474 C 838.796 366.813 819.429 366.143 819.429 366.143 C 819.429 366.143 812.361 367.094 803.585 366.813 C 794.809 366.51 794.701 369.774 788.692 370.055 C 782.683 370.337 782.207 367.181 776.285 364.219 C 770.362 361.258 770.643 355.444 770.643 355.444 C 765.78 350.386 771.508 346.192 771.508 346.192 L 792.042 327.668 L 791.848 324.123 C 790.314 316.601 796.906 313.445 796.906 313.445 C 791.286 314.504 789.081 320.988 789.081 320.988 C 779.527 315.822 771.357 299.222 771.357 299.222 C 786.077 296.001 795.134 299.438 799.781 302.378 C 788.714 282.751 772.654 298.185 751.362 277.715 C 728.32 255.559 750.217 235.453 750.217 235.453 C 745.937 240.963 746.477 251.884 746.521 252.727 L 746.521 252.511 C 746.65 248.683 748.682 247.673 748.682 247.673 C 755.75 279.941 783.05 279.552 783.05 279.552 C 773.129 253.957 783.05 255.881 788.908 230.483 C 794.766 205.083 813.031 193.633 813.031 193.633 C 813.031 193.633 795.263 222.553 796.992 225.903 C 798.721 229.253 808.362 217.993 808.362 217.993 C 808.362 217.993 809.788 219.113 798.332 235.063 C 780.975 259.229 790.335 283.374 804.644 288.713 C 813.247 291.912 815.971 297.057 816.792 300.645 C 817.743 300.299 818.824 299.975 820.013 299.672 C 826.973 294.096 833.198 286.141 828.702 277.257 C 814.566 249.283 826.735 237.223 826.735 237.223 C 822.542 242.823 832.074 278.079 841.629 271.464 C 851.183 264.85 875.608 256.701 878.029 247.533 C 880.45 238.373 854.231 215.333 854.231 215.333 C 871.804 217.733 877.273 232.513 883.131 229.573 C 888.988 226.633 881.596 202.603 881.596 202.603 C 899.04 219.913 891.15 247.773 891.15 247.773 C 912.896 241.413 947.504 194.983 928.371 179.683 C 909.242 164.383 910.991 146.273 910.991 146.273 C 910.991 146.273 926.753 183.683 938.401 177.193 C 950.031 170.713 931.484 133.233 931.484 133.233 C 931.484 133.233 979.432 170.173 923.077 237.093 Z M 814.89 624 L 814.89 623.394 L 813.247 619.784 L 814.89 620.822 L 814.89 611.765 L 819.17 623.524 L 819.969 624.042 L 820.791 623.524 L 824.336 613.797 C 824.119 608.068 823.384 602.211 821.396 599.725 C 816.943 594.126 816.316 586.993 816.943 580.638 C 817.57 574.283 814.392 566.891 814.392 566.891 C 803.714 532.523 803.325 512.681 803.325 512.681 C 803.325 512.681 798.981 509.222 799.499 499.582 C 799.932 491.735 795.501 485.921 793.814 484.019 C 795.392 486.439 797.554 494.048 797.338 499.582 C 797.079 505.958 800.516 513.199 800.516 513.199 C 798.743 521.608 802.699 534.361 802.699 534.361 C 738.542 533.079 726.308 449.43 726.308 449.43 C 728.08 475.843 739.061 488.142 737.245 505.434 C 735.214 524.802 718.634 557.269 712.323 563.753 C 706.011 570.238 702.963 580.181 698.856 585.239 C 695.398 589.497 689.346 616.733 687.487 625.336 L 692.934 620.364 L 692.934 614.053 L 697.516 622.44 L 697.516 626.266 L 701.709 625.509 L 705.298 622.051 L 704.26 619.781 L 706.314 621.078 L 707.07 620.364 L 713.857 617.944 L 716.105 611.783 L 716.105 617.144 L 717.748 616.561 L 716.105 618.657 L 716.105 623.996 L 723.368 614.442 L 730.242 617.879 L 724.903 620.364 L 723.757 624.753 L 730.242 624.363 L 737.115 611.697 L 737.115 622.007 L 740.163 626.201 L 745.956 620.926 C 742.757 610.918 735.904 590.167 730.933 579.814 C 724.254 565.894 725.594 559.019 732.554 554.048 C 739.536 549.077 748.572 524.456 739.018 511.725 C 739.018 511.725 741.071 503.446 739.536 494.951 C 739.536 494.951 754.453 528.758 787.568 534.097 C 787.568 534.097 774.663 554.502 760.419 563.927 C 746.174 573.351 748.422 582.991 749.956 587.574 C 751.253 591.465 757.413 611.783 758.905 622.159 L 760.807 620.322 L 762.169 619.846 L 759.532 616.517 L 765.519 618.657 L 771.506 616.517 L 768.869 619.846 L 770.231 620.322 L 775.57 625.466 L 779.763 626.222 L 779.763 622.396 L 784.346 614.009 L 784.346 620.321 L 790.831 626.244 L 793.878 622.05 L 793.878 611.74 L 800.752 624.342 L 807.236 624.731 L 806.091 620.343 L 800.752 617.857 L 807.625 614.421 Z M 793.391 483.543 C 793.41 483.565 793.428 483.585 793.446 483.603 C 793.427 483.582 793.409 483.562 793.391 483.543 Z M 848.24 524.607 C 842.879 528.693 834.103 529.449 834.103 529.449 C 832.46 508.958 838.556 504.635 838.556 504.635 C 838.556 504.635 831.942 506.667 832.072 525.645 C 832.201 544.623 827.619 563.06 833.606 575.922 C 839.572 588.783 835.768 597.191 835.508 599.093 C 835.357 600.088 834.233 607.675 833.153 614.851 L 839.183 617.878 L 833.844 620.364 L 832.698 624.751 L 839.183 624.362 L 840.047 622.763 L 838.664 619.78 L 840.912 621.185 L 846.056 611.76 L 846.056 622.071 L 846.532 622.719 L 847.786 619.261 C 848.672 611.695 849.45 601.169 847.678 595.613 C 844.738 586.362 846.726 587.508 844.824 577.283 C 842.901 567.081 846.316 532.907 846.316 532.907 C 846.316 532.907 847.743 526.769 853.32 525.385 C 864.365 522.662 867.326 516.609 867.326 516.609 C 860.452 524.629 853.579 520.544 848.24 524.607 Z M 354.463 242.213 C 363.02 242.213 370.748 245.635 376.363 251.213 C 381.961 256.932 385.434 264.635 385.434 273.213 C 385.434 281.791 381.961 289.494 376.363 295.072 C 370.748 300.635 363.02 304.213 354.463 304.213 C 345.892 304.213 338.15 300.635 332.55 295.072 C 326.95 289.494 323.478 281.791 323.478 273.213 C 323.478 264.635 326.95 256.932 332.55 251.213 C 338.15 245.635 345.892 242.213 354.463 242.213 Z M 381.519 316.072 L 392.048 311.494 C 392.863 311.072 393.548 310.635 394.062 309.932 L 404.906 297.353 L 431.706 328.213 C 424.648 325.931 418.691 323.775 415.348 322.213 C 414.106 321.494 413.206 320.931 412.505 320.353 C 407.048 316.635 406.248 316.072 398.649 323.353 C 392.378 329.213 378.562 343.494 371.635 350.494 L 371.578 350.635 C 367.448 354.775 362.906 358.072 357.934 360.213 L 336.278 369.931 Z M 155.525 583.779 C 155.553 583.636 155.553 583.636 155.68 583.636 C 156.151 583.495 155.838 583.636 155.525 583.779 Z M 131.794 633.779 C 129.066 633.779 126.838 631.493 126.838 628.779 C 126.838 626.065 129.066 623.779 131.794 623.779 L 159.98 623.779 C 162.038 621.923 163.538 620.351 164.838 618.351 C 166.18 616.21 167.066 613.779 167.708 610.065 C 168.594 605.065 169.038 596.923 169.408 588.495 C 171.608 588.779 174.023 589.21 176.294 589.21 C 179.308 589.351 182.18 589.065 184.338 587.923 C 186.108 587.065 187.236 585.636 187.966 584.21 C 188.336 584.495 188.708 584.779 189.066 585.065 C 191.408 586.495 193.922 588.065 196.036 588.779 C 198.821 589.923 201.08 589.923 202.936 589.636 C 203.152 589.495 203.365 589.495 203.58 589.351 L 203.566 590.636 C 203.494 593.923 203.452 596.923 203.408 599.351 C 203.379 601.923 203.379 603.779 203.494 605.351 C 203.622 607.065 203.908 608.636 204.422 610.351 C 204.908 612.065 205.58 614.065 206.695 616.21 C 207.75 618.351 209.18 620.636 211.08 623.065 C 211.308 623.351 211.522 623.493 211.736 623.779 L 239.122 623.779 C 241.849 623.779 244.08 626.065 244.08 628.779 C 244.08 631.493 241.849 633.779 239.122 633.779 Z M 143.638 418.496 C 143.608 418.496 143.608 418.353 143.638 418.496 Z M 271.992 558.923 C 274.436 561.065 276.579 563.21 278.108 565.21 C 280.193 567.923 281.035 568.923 281.035 568.923 C 279.522 570.065 275.193 570.21 269.678 570.21 C 266.764 570.065 264.708 569.351 263.563 568.781 L 263.321 568.636 C 257.278 566.065 254.535 567.781 255.094 573.781 C 255.137 574.21 255.178 574.781 255.336 575.495 C 255.493 576.495 255.75 577.351 256.165 578.351 L 256.208 578.495 C 255.007 578.779 253.478 579.065 251.793 579.21 C 249.936 579.21 247.922 579.21 246.022 578.779 C 242.75 578.065 239.28 576.065 236.75 574.781 C 235.637 574.21 234.68 573.781 233.894 573.351 C 232.422 572.781 231.151 572.495 230.08 572.495 C 228.336 572.636 226.965 573.21 225.98 574.495 C 225.008 575.636 224.622 576.923 224.75 578.495 C 224.879 579.636 225.293 580.636 225.908 581.779 C 226.035 582.065 226.167 582.21 226.308 582.495 C 225.308 582.351 224.223 582.065 223.108 582.065 C 221.321 581.495 219.436 581.065 217.766 580.21 C 216.066 579.351 214.394 578.21 212.894 577.065 C 211.308 575.779 210.022 574.636 209.18 573.781 C 205.608 570.495 203.294 570.065 200.808 572.495 C 200.695 572.636 200.566 572.781 200.452 572.923 C 198.379 575.065 198.865 576.636 199.608 578.923 L 199.808 579.636 L 199.536 579.495 C 198.108 578.923 196.236 577.923 194.436 576.636 C 192.394 575.351 190.522 574.065 189.294 573.21 C 181.538 567.495 178.122 569.065 179.053 577.636 C 179.108 578.065 179.18 578.779 179.152 579.351 C 178.608 579.351 177.723 579.351 176.695 579.351 C 174.68 579.21 172.379 578.923 170.365 578.636 C 168.351 578.351 166.581 577.923 165.023 577.636 C 163.794 577.351 162.808 576.923 162.108 576.636 C 161.724 576.495 161.294 576.065 160.879 575.923 C 158.724 574.351 156.966 573.21 153.466 573.923 C 151.366 574.351 150.208 575.351 148.866 576.495 C 148.252 577.065 147.553 577.636 146.667 577.923 C 143.98 578.923 143.11 578.21 142.81 577.351 C 142.538 576.495 142.338 575.495 142.152 574.495 C 141.553 571.065 141.081 568.495 136.995 567.923 C 132.893 567.21 131.553 569.351 129.68 572.351 C 128.393 574.495 126.294 577.923 119.379 577.21 C 118.581 577.21 118.224 577.21 118.18 577.21 C 118.096 577.065 117.795 576.495 117.28 575.779 C 112.61 568.636 107.838 569.351 102.71 572.781 C 101.38 573.495 100.238 574.495 99.082 575.351 L 99.096 575.495 L 99.082 575.495 C 96.61 577.351 93.881 579.636 92.038 578.495 C 91.423 578.065 91.138 577.636 91.238 576.779 C 91.483 574.781 92.983 571.923 95.923 567.923 C 98.738 563.923 101.152 561.351 105.138 557.065 C 107.295 554.781 106.18 556.065 108.053 554.065 C 112.066 549.636 114.981 545.495 116.51 541.781 C 117.666 539.067 118.11 536.351 117.81 534.067 C 117.379 531.067 115.866 528.637 113.152 527.067 C 111.697 526.21 109.981 525.637 107.997 525.353 C 107.295 525.353 106.238 525.21 105.053 525.21 C 102.666 525.067 99.497 524.923 97.909 524.21 C 97.795 524.21 97.952 523.637 98.681 522.21 C 99.538 520.495 113.866 507.21 123.938 497.923 C 128.68 493.495 132.566 489.925 133.61 488.925 C 137.224 485.209 139.581 482.209 141.167 479.639 C 142.866 476.781 143.68 474.639 144.167 472.925 C 145.009 469.925 144.553 466.781 142.538 464.067 C 141.038 462.067 138.68 460.211 135.351 459.067 C 131.393 457.639 126.038 457.211 121.666 456.925 L 122.038 456.495 C 123.71 454.495 125.866 451.925 128.379 449.211 C 130.61 446.496 133.238 443.781 136.01 441.067 C 139.266 437.925 142.752 434.782 145.866 432.067 C 149.466 428.782 151.738 425.496 152.766 422.496 C 153.638 420.068 153.724 417.783 153.066 415.639 C 152.338 413.353 150.838 411.496 148.608 410.068 C 146.553 408.925 143.866 408.353 140.638 408.353 C 139.266 408.353 138.366 408.068 137.923 407.639 C 137.909 407.639 137.879 407.639 137.866 407.639 L 137.838 407.639 C 137.838 407.211 138.066 406.639 138.495 406.07 C 139.366 405.07 140.566 403.783 141.966 402.211 C 146.393 397.211 152.48 390.353 159.738 378.353 C 162.48 373.775 163.581 371.931 164.723 370.072 C 172.238 357.635 179.494 345.494 184.038 339.791 C 185.053 338.494 186.036 337.635 186.952 337.353 C 187.452 337.072 187.879 337.072 188.223 337.072 L 188.236 337.072 C 188.581 337.072 188.936 337.213 189.266 337.494 C 189.736 337.931 190.167 338.494 190.522 339.213 C 191.152 340.635 191.736 341.931 192.379 343.635 C 194.336 348.353 196.808 354.635 202.652 364.353 C 206.536 370.775 211.849 378.072 216.908 384.931 C 222.051 391.931 226.894 398.496 229.422 403.211 C 230.651 405.496 231.25 407.068 231.436 408.353 L 225.68 408.353 C 218.922 408.353 217.936 412.496 222.766 420.783 C 225.723 425.925 231.622 436.067 238.151 445.211 C 243.064 451.925 248.195 458.067 251.922 462.211 L 251.165 462.353 C 249.535 462.495 247.48 462.781 245.493 463.067 C 242.964 463.353 241.865 463.495 241.151 463.639 C 234.535 464.639 234.422 464.639 235.108 471.495 C 235.108 471.639 235.122 471.925 235.165 472.209 C 235.48 475.067 236.165 480.639 240.264 488.353 C 242.293 492.21 245.165 496.495 248.365 500.923 C 249.321 502.21 250.308 503.495 251.293 504.781 C 251.45 504.923 251.623 505.067 251.808 505.353 C 254.035 508.067 256.308 510.639 258.464 512.923 C 260.849 515.21 263.079 517.21 264.978 518.923 C 265.722 519.495 266.45 519.637 267.022 519.637 C 265.293 520.353 263.151 520.637 261.137 520.781 C 259.063 520.923 255.151 521.923 252.408 524.353 C 251.278 525.21 250.293 526.353 249.608 527.781 C 248.849 529.21 248.45 530.923 248.564 532.923 C 248.708 535.351 249.821 538.067 252.293 541.067 C 255.651 545.067 260.45 549.21 265.336 553.21 C 267.563 555.065 269.792 557.065 271.821 558.781 C 271.878 558.781 271.936 558.781 271.992 558.923 Z M 465.691 583.779 C 465.704 583.636 465.704 583.636 465.848 583.636 C 466.305 583.495 465.989 583.636 465.691 583.779 Z M 443.162 633.779 C 440.433 633.779 438.204 631.493 438.204 628.779 C 438.204 626.065 440.433 623.779 443.162 623.779 L 471.363 623.779 C 473.404 621.923 474.904 620.351 476.204 618.351 C 477.562 616.21 478.433 613.779 479.076 610.065 C 479.961 605.065 480.404 597.21 480.777 588.636 C 482.632 588.923 484.604 589.21 486.476 589.21 C 489.489 589.351 492.362 589.21 494.518 587.923 C 496.291 587.065 497.418 585.636 498.132 584.351 C 498.518 584.495 498.89 584.779 499.248 585.065 C 501.576 586.495 504.09 588.065 506.203 588.779 C 508.989 589.923 511.262 589.923 513.118 589.636 C 514.732 589.21 515.961 588.636 516.918 587.923 C 516.203 592.351 515.59 596.351 515.232 599.351 C 514.976 601.636 514.862 603.493 514.932 605.21 C 515.018 607.065 515.277 608.636 515.791 610.351 C 516.277 612.065 516.961 614.065 518.062 616.21 C 519.132 618.351 520.546 620.636 522.446 623.065 C 522.66 623.351 522.89 623.636 523.103 623.779 L 550.49 623.779 C 553.218 623.779 555.459 626.065 555.459 628.779 C 555.459 631.493 553.218 633.779 550.49 633.779 Z M 453.791 418.496 C 453.777 418.496 453.777 418.353 453.791 418.496 Z M 452.148 421.639 C 443.076 421.925 432.291 423.211 421.734 424.925 C 407.476 427.353 393.519 430.639 385.106 433.211 C 371.221 437.211 362.578 444.496 353.35 452.353 C 351.693 453.781 350.049 455.211 349.65 455.495 C 344.592 459.639 339.15 463.925 333.533 467.495 C 328.092 471.209 322.45 474.209 316.865 476.353 C 310.264 478.781 303.521 479.781 297.021 480.639 C 292.35 481.495 287.792 482.067 283.236 483.353 C 273.563 485.925 265.035 490.495 256.678 495.495 L 256.378 495.067 C 253.478 491.067 250.878 487.067 249.094 483.781 C 246.594 479.067 245.695 475.495 245.293 473.067 L 246.879 472.925 C 248.408 472.639 250.25 472.353 252.365 472.209 C 254.564 471.925 256.195 471.639 257.408 471.495 C 259.464 471.353 260.365 471.353 260.964 471.209 C 268.695 470.495 269.208 466.495 262.464 459.067 C 259.079 455.353 252.336 447.925 246.195 439.353 C 240.908 432.067 235.894 423.639 232.75 418.211 L 232.922 418.211 C 234.223 418.211 235.637 417.925 236.964 417.211 C 238.25 416.496 239.45 415.353 240.293 413.925 C 241.022 412.496 241.464 410.925 241.464 409.068 C 241.464 406.353 240.58 402.925 238.165 398.496 C 235.336 393.353 230.25 386.353 224.908 379.072 C 219.98 372.353 214.766 365.213 211.167 359.353 C 209.651 356.635 208.365 354.353 207.266 352.353 L 268.063 285.073 L 301.021 316.213 C 302.078 317.213 303.478 317.635 304.821 317.494 L 317.206 316.932 L 347.463 341.213 L 315.478 379.353 C 314.82 379.775 314.306 380.494 313.95 381.072 L 289.264 410.496 C 287.507 412.639 287.792 415.639 289.892 417.496 C 291.978 419.211 295.093 418.925 296.85 416.925 L 321.75 387.213 L 361.978 369.353 C 368.106 366.494 373.693 362.635 378.706 357.494 L 378.762 357.494 C 385.649 350.353 399.335 336.353 405.476 330.494 C 407.262 328.791 406.562 328.353 406.892 328.494 C 407.848 329.213 409.062 330.072 410.82 330.931 C 417.191 334.213 430.42 338.213 443.876 342.072 L 465.318 366.791 C 463.562 369.635 462.018 372.353 461.476 373.213 C 454.762 384.353 448.948 390.791 444.734 395.496 C 443.363 397.07 442.148 398.496 440.961 399.925 C 439.062 402.211 438.105 404.925 438.134 407.639 C 438.134 409.068 438.461 410.496 439.076 411.925 C 439.72 413.211 440.648 414.353 441.904 415.353 C 444.019 417.068 447.019 418.211 450.863 418.211 C 452.204 418.211 453.204 418.353 453.777 418.639 C 453.748 418.783 453.704 418.925 453.62 419.211 C 453.363 419.925 452.876 420.783 452.12 421.639 Z M 437.691 435.496 C 429.89 437.496 421.062 440.353 412.848 443.639 C 405.392 446.496 398.335 449.781 392.835 453.211 C 384.278 458.639 377.678 465.495 371.135 472.353 C 368.578 475.067 366.02 477.925 363.42 480.353 C 360.392 483.353 357.248 486.067 354.206 488.781 C 347.592 494.495 341.392 499.923 337.491 505.923 C 330.52 516.495 321.85 519.495 312.336 522.781 C 300.563 526.637 287.637 531.067 274.378 547.923 C 273.478 547.067 272.535 546.351 271.637 545.495 C 267.05 541.637 262.522 537.923 259.836 534.637 C 258.836 533.495 258.45 532.637 258.408 532.067 C 258.464 532.067 258.563 532.067 258.695 531.923 C 259.637 531.067 260.978 530.637 261.708 530.637 C 264.894 530.495 268.478 529.637 271.264 528.637 L 271.264 528.781 C 274.821 527.353 277.478 525.067 278.035 522.21 C 278.836 517.923 275.922 515.353 271.463 511.353 C 269.736 509.923 267.695 508.067 265.507 505.923 C 264.665 505.067 263.808 504.21 262.95 503.21 C 270.25 498.923 277.651 494.923 285.693 492.923 C 289.623 491.923 293.935 491.21 298.392 490.495 C 305.392 489.495 312.665 488.353 320.206 485.639 C 326.506 483.353 332.82 479.781 338.934 475.781 C 344.906 471.925 350.635 467.353 355.934 463.067 C 358.092 461.211 358.92 460.639 359.721 459.925 C 368.135 452.781 376.006 446.067 387.863 442.496 C 395.976 440.211 409.448 437.067 423.348 434.782 C 429.307 433.782 435.307 432.925 440.976 432.353 C 440.404 432.925 439.835 433.496 439.248 434.067 C 438.748 434.496 438.248 435.067 437.734 435.496 Z M 411.906 546.21 C 398.005 548.495 384.149 550.636 372.592 549.923 C 367.533 549.636 362.764 548.781 357.835 547.781 C 351.02 546.495 343.906 545.067 334.991 545.067 C 320.836 544.781 302.963 547.781 284.778 550.923 C 295.463 538.923 305.922 535.351 315.535 532.067 C 326.764 528.353 337.02 524.923 345.85 511.353 C 349.049 506.495 354.734 501.495 360.778 496.067 C 363.963 493.353 367.248 490.495 370.364 487.495 C 373.135 484.781 375.748 482.067 378.348 479.209 C 384.478 472.925 390.649 466.353 398.149 461.639 C 403.033 458.639 409.519 455.639 416.491 452.925 C 419.22 451.639 422.019 450.639 424.835 449.781 L 424.606 450.067 C 422.62 452.353 421.163 454.211 420.277 455.495 C 417.989 458.639 417.191 460.781 419.489 463.781 C 420.934 465.639 422.976 466.067 426.505 466.353 C 426.934 466.495 427.876 466.495 428.89 466.495 C 432.976 466.925 438.863 467.067 442.234 468.353 C 443.519 468.781 444.305 469.211 444.676 469.781 C 444.748 469.925 444.791 469.925 444.762 470.067 C 444.433 471.209 443.933 472.639 442.848 474.353 C 441.662 476.353 439.762 478.781 436.72 481.781 C 434.934 483.639 431.534 486.781 427.363 490.639 C 416.734 500.495 401.62 514.495 399.991 517.781 C 395.82 525.923 398.505 530.353 403.606 532.923 C 407.092 534.781 411.519 534.923 414.835 535.067 C 415.648 535.067 416.363 535.067 416.991 535.21 C 417.548 535.21 417.948 535.351 418.206 535.495 C 418.234 536.067 418.019 536.923 417.562 537.923 C 416.577 540.351 414.648 543.21 411.934 546.21 Z M 475.518 577.636 L 475.219 577.636 C 473.976 577.351 473.018 577.065 472.305 576.636 C 471.933 576.495 471.489 576.21 471.062 575.923 C 468.933 574.351 467.162 573.21 463.662 573.923 C 461.562 574.495 460.418 575.351 459.062 576.495 C 458.448 577.065 457.748 577.636 456.863 577.923 C 454.162 578.923 453.32 578.21 453.004 577.351 C 452.734 576.495 452.534 575.495 452.363 574.495 C 451.748 571.065 451.277 568.495 447.204 567.923 C 443.09 567.351 441.748 569.351 439.876 572.495 C 438.59 574.495 436.505 577.923 429.577 577.21 C 428.777 577.21 428.434 577.21 428.39 577.21 C 428.291 577.065 427.989 576.495 427.476 575.779 C 422.791 568.636 418.033 569.351 412.92 572.781 C 411.562 573.636 410.448 574.495 409.276 575.495 C 406.807 577.351 404.062 579.636 402.234 578.495 C 401.62 578.065 401.335 577.636 401.448 576.779 C 401.693 574.781 403.193 571.923 406.12 567.923 C 408.948 563.923 411.348 561.351 415.348 557.065 C 417.476 554.781 416.392 556.065 418.248 554.065 C 422.262 549.636 425.176 545.495 426.706 541.923 C 427.876 539.067 428.32 536.351 428.005 534.067 C 427.59 531.067 426.062 528.637 423.348 527.067 C 421.89 526.21 420.176 525.637 418.191 525.495 C 417.476 525.353 416.448 525.21 415.248 525.21 C 412.876 525.067 409.693 525.067 408.106 524.21 C 407.991 524.21 408.148 523.781 408.892 522.21 C 409.734 520.637 424.062 507.21 434.134 497.923 C 438.89 493.495 442.762 489.925 443.791 488.925 C 447.42 485.209 449.777 482.209 451.376 479.639 C 453.062 476.781 453.89 474.639 454.376 472.925 C 455.204 469.925 454.748 466.781 452.734 464.067 C 451.234 462.067 448.876 460.211 445.548 459.067 C 441.59 457.639 436.234 457.211 431.876 457.067 L 432.248 456.495 C 433.92 454.495 436.062 451.925 438.576 449.211 C 440.791 446.639 443.448 443.925 446.204 441.067 C 449.476 437.925 452.961 434.782 456.062 432.067 C 459.662 428.782 461.933 425.496 462.976 422.639 C 463.848 420.068 463.933 417.783 463.262 415.639 C 462.534 413.353 461.034 411.496 458.805 410.211 C 456.748 408.925 454.062 408.353 450.848 408.353 C 449.476 408.353 448.562 408.211 448.12 407.783 C 448.104 407.639 448.076 407.639 448.062 407.639 L 448.034 407.639 C 448.034 407.211 448.248 406.783 448.704 406.211 C 449.562 405.07 450.777 403.783 452.162 402.211 C 456.604 397.211 462.691 390.353 469.948 378.353 C 472.662 373.931 473.876 371.931 475.048 369.931 C 482.432 357.635 489.489 345.931 494.118 339.931 C 495.132 338.635 496.132 337.931 497.062 337.494 C 497.632 337.213 498.162 337.072 498.604 337.072 C 499.048 337.213 499.461 337.494 499.862 337.635 C 500.376 338.213 500.833 338.775 501.162 339.494 C 501.777 340.775 502.404 342.353 503.062 344.213 C 504.846 348.931 507.118 354.775 512.833 364.353 C 516.703 370.775 522.032 378.072 527.075 384.931 C 532.218 391.931 537.075 398.639 539.59 403.353 C 540.833 405.496 541.432 407.068 541.618 408.353 L 535.861 408.353 C 529.09 408.353 528.118 412.496 532.946 420.783 C 535.904 425.925 541.79 436.067 548.333 445.211 C 553.247 452.067 558.374 458.067 562.09 462.353 L 561.346 462.353 C 559.703 462.495 557.66 462.925 555.673 463.067 C 553.132 463.495 552.032 463.639 551.333 463.781 C 544.703 464.639 544.603 464.639 545.275 471.495 C 545.275 471.781 545.305 471.925 545.346 472.353 C 545.66 475.067 546.346 480.639 550.446 488.353 C 552.475 492.353 555.346 496.639 558.546 500.923 C 561.761 505.21 565.346 509.495 568.646 512.923 C 571.032 515.353 573.246 517.353 575.16 518.923 C 575.904 519.637 576.631 519.781 577.203 519.781 C 575.46 520.353 573.333 520.781 571.318 520.923 C 569.247 521.067 565.346 522.067 562.574 524.353 C 561.459 525.353 560.459 526.495 559.775 527.923 C 559.032 529.353 558.632 531.067 558.747 532.923 C 558.89 535.351 560.004 538.21 562.475 541.067 C 565.833 545.067 570.632 549.21 575.504 553.351 C 580.475 557.495 585.46 561.495 588.275 565.21 C 590.374 567.923 591.218 568.923 591.218 568.923 C 589.688 570.065 585.374 570.351 579.861 570.21 C 576.946 570.21 574.889 569.351 573.746 568.781 L 573.504 568.781 C 567.46 566.065 564.718 567.781 565.261 573.781 C 565.318 574.21 565.361 574.923 565.518 575.636 C 565.66 576.495 565.932 577.636 566.346 578.495 L 566.404 578.636 C 565.173 578.923 563.66 579.21 561.959 579.21 C 560.103 579.351 558.103 579.21 556.203 578.779 C 552.932 578.065 549.459 576.21 546.932 574.923 C 545.818 574.351 544.861 573.781 544.06 573.495 C 542.59 572.781 541.346 572.495 540.247 572.636 C 538.518 572.636 537.146 573.351 536.146 574.495 C 535.175 575.636 534.805 577.065 534.932 578.636 C 535.046 579.779 535.476 580.779 536.09 581.923 C 536.218 582.065 536.346 582.351 536.476 582.495 C 535.489 582.495 534.404 582.21 533.277 582.065 C 531.489 581.636 529.618 581.065 527.946 580.21 C 526.247 579.495 524.56 578.351 523.06 577.21 C 521.476 575.923 520.203 574.781 519.362 573.923 C 515.791 570.636 513.476 570.21 510.976 572.636 C 510.876 572.781 510.732 572.781 510.618 572.923 C 508.546 575.21 509.032 576.636 509.791 579.065 L 509.989 579.779 L 509.719 579.636 C 508.291 579.065 506.418 577.923 504.604 576.779 C 502.576 575.495 500.703 574.21 499.461 573.351 C 491.719 567.636 488.291 569.21 489.219 577.636 C 489.291 578.21 489.362 578.779 489.348 579.351 C 488.791 579.495 487.904 579.495 486.876 579.495 C 484.863 579.351 482.562 579.065 480.533 578.779 C 479.791 578.636 479.062 578.495 478.376 578.351 C 477.748 578.065 477.048 577.923 476.291 577.779 C 476.034 577.636 475.762 577.779 475.504 577.779 Z M 93.75 656.2 C 93.75 645.887 102.188 637.45 112.5 637.45 L 1087.5 637.45 C 1097.812 637.45 1106.25 645.888 1106.25 656.2 C 1106.25 945.7 879.19 1181.2 600 1181.2 C 320.81 1181.2 93.75 945.7 93.75 656.2 Z M 256.32 674.953 L 298.32 697.265 C 331.32 714.515 352.695 751.64 353.07 792.89 L 354.195 827.39 C 355.507 884.39 404.07 923.953 451.695 906.515 L 481.32 895.64 C 520.506 881.578 561.944 905.39 574.882 949.078 C 584.256 980.953 576.569 1013.953 557.444 1036.078 C 548.256 1046.016 536.819 1053.891 523.694 1058.016 L 466.506 1075.828 C 440.069 1084.266 412.882 1088.578 385.694 1089.516 C 450.004 1124.016 522.944 1143.704 600.194 1143.704 C 651.008 1143.704 699.945 1135.078 745.883 1119.516 C 757.508 1106.39 770.446 1094.953 784.508 1085.578 C 829.508 1055.198 827.071 980.576 780.383 954.138 L 759.758 942.513 C 733.883 927.7 719.633 895.638 724.32 863.388 L 727.883 838.638 C 733.133 799.826 764.82 772.263 799.508 776.388 L 917.628 790.45 C 940.502 793.075 961.502 782.2 975.19 764.2 C 985.127 750.513 990.94 733.263 990.565 714.138 C 990.002 699.888 993.377 686.575 999.19 674.95 Z" style="stroke-width: 1;"/>
</svg>