<?xml version="1.0" encoding="utf-8"?>
<svg version="1.1" viewBox="0 0 1200 1200" xmlns="http://www.w3.org/2000/svg" width="150pt" height="150pt">
  <path d="M 555.108 867.541 C 553.939 875.686 557.228 883.83 563.765 888.871 L 822.986 1088.89 L 822.986 1105.39 L 540.288 1105.39 L 455.731 987.562 C 464.972 984.055 496.272 986.101 489.665 970.432 L 432.246 873.61 L 463.624 873.61 C 466.327 873.61 468.844 872.186 470.231 869.811 C 471.587 867.475 471.548 864.552 470.122 862.215 L 439.079 810.093 L 635.435 742.857 C 641.895 740.55 647.045 735.509 649.383 729.052 C 651.721 722.585 651.066 715.425 647.559 709.51 L 647.521 709.51 L 588.13 610.569 C 600.403 609.034 612.675 606.915 624.947 604.507 L 765.093 704.508 C 762.684 707.796 759.327 712.323 761.774 716.484 C 763.121 719.009 765.755 720.613 768.598 720.575 L 800.117 720.575 L 767.539 774.96 L 569.687 849.358 C 561.872 852.28 556.285 859.256 555.116 867.547 L 555.108 867.541 Z M 674.211 84.129 C 688.384 84.129 701.204 89.858 710.48 99.156 C 719.758 108.424 725.493 121.247 725.493 135.42 C 725.493 149.576 719.759 162.4 710.48 171.681 C 701.204 180.951 688.384 186.694 674.211 186.694 C 660.038 186.694 647.217 180.951 637.936 171.681 C 628.66 162.4 622.925 149.576 622.925 135.42 C 622.925 121.247 628.66 108.424 637.936 99.156 C 647.217 89.858 660.038 84.129 674.211 84.129 Z M 719.03 206.37 L 736.452 198.903 C 737.804 198.303 738.937 197.387 739.777 196.308 L 757.747 175.296 L 802.127 226.392 C 790.438 222.747 780.577 219.327 775.024 216.463 C 772.979 215.399 771.48 214.379 770.313 213.57 C 761.289 207.376 759.974 206.461 747.373 218.398 C 736.999 228.221 714.133 251.721 702.665 263.48 L 702.554 263.599 C 695.724 270.634 688.199 275.973 679.982 279.617 L 644.111 295.588 L 719.03 206.37 Z M 344.846 649.596 C 344.882 649.505 344.882 649.371 345.102 649.341 C 345.87 649.161 345.359 649.371 344.846 649.596 Z M 305.544 732.41 C 301.013 732.41 297.325 728.721 297.325 724.176 C 297.325 719.648 301.013 715.972 305.544 715.972 L 352.116 715.972 L 352.226 715.868 C 355.622 712.628 358.105 710.304 360.261 706.944 C 362.49 703.48 363.95 699.446 365.01 693.312 C 366.471 684.868 367.201 671.581 367.821 657.425 C 371.473 657.949 375.455 658.503 379.22 658.683 C 384.222 658.908 388.971 658.475 392.549 656.568 C 395.472 655.039 397.335 652.895 398.542 650.495 C 399.162 650.916 399.783 651.32 400.366 651.711 C 404.238 654.244 408.403 656.645 411.91 658.009 C 416.512 659.748 420.274 659.899 423.344 659.269 C 423.707 659.194 424.037 659.118 424.401 659.014 L 424.365 661.039 C 424.257 666.512 424.184 671.506 424.11 675.526 C 424.072 679.8 424.072 682.844 424.257 685.319 C 424.474 688.273 424.949 690.747 425.789 693.732 C 426.593 696.491 427.727 699.715 429.553 703.33 C 431.304 706.87 433.678 710.664 436.822 714.608 C 437.186 715.088 437.552 715.523 437.916 715.972 L 483.247 715.972 C 487.775 715.972 491.465 719.648 491.465 724.176 C 491.465 728.706 487.775 732.41 483.247 732.41 L 305.544 732.41 Z M 325.157 376.033 C 325.123 375.943 325.123 375.868 325.157 375.974 L 325.157 376.033 Z M 537.673 608.429 C 541.727 612.043 545.27 615.553 547.789 618.807 C 551.261 623.306 552.648 625.016 552.648 625.016 C 550.128 626.845 542.968 627.235 533.838 627.1 C 529.015 627.01 525.617 625.66 523.72 624.836 L 523.317 624.655 C 513.308 620.276 508.779 623.036 509.694 633.025 C 509.767 633.713 509.84 634.779 510.094 636.052 C 510.35 637.538 510.79 639.248 511.483 640.807 L 511.556 640.972 C 509.548 641.483 507.025 641.857 504.215 642.007 C 501.145 642.142 497.824 642.007 494.679 641.303 C 489.275 640.102 483.503 637.072 479.339 634.854 C 477.476 633.864 475.905 633.025 474.589 632.439 C 472.144 631.329 470.063 630.955 468.272 630.969 C 465.386 631.074 463.122 632.213 461.478 634.223 C 459.87 636.188 459.249 638.408 459.468 640.897 C 459.651 642.772 460.345 644.617 461.369 646.417 C 461.587 646.791 461.806 647.151 462.026 647.481 C 460.382 647.256 458.592 647.016 456.73 646.597 C 453.769 645.982 450.665 645.111 447.889 643.761 C 445.076 642.412 442.3 640.477 439.817 638.542 C 437.186 636.473 435.068 634.508 433.68 633.188 C 427.763 627.714 423.928 626.905 419.802 630.969 C 419.62 631.149 419.399 631.329 419.217 631.523 C 415.783 635.198 416.587 637.824 417.829 641.707 L 418.157 642.772 L 417.718 642.621 C 415.346 641.707 412.24 639.908 409.244 637.987 C 405.885 635.844 402.78 633.564 400.734 632.093 C 387.914 622.857 382.252 625.315 383.786 639.382 C 383.894 640.222 384.006 641.377 383.967 642.292 C 383.054 642.427 381.596 642.412 379.877 642.322 C 376.552 642.187 372.754 641.632 369.395 641.077 C 366.069 640.582 363.148 640.057 360.554 639.473 C 358.508 638.993 356.902 638.498 355.733 637.898 C 355.113 637.583 354.381 637.072 353.687 636.593 C 350.146 634.103 347.222 632.064 341.414 633.354 C 337.945 634.148 336.043 635.754 333.817 637.658 C 332.796 638.542 331.626 639.517 330.163 640.028 C 325.707 641.587 324.284 640.417 323.771 638.993 C 323.334 637.718 323.003 635.858 322.713 634.283 C 321.689 628.554 320.921 624.251 314.164 623.245 C 307.372 622.27 305.144 625.87 302.038 630.863 C 299.92 634.283 296.45 639.894 284.981 638.888 C 283.666 638.782 283.08 638.722 283.007 638.663 C 282.861 638.573 282.349 637.763 281.51 636.473 C 273.766 624.506 265.876 625.81 257.403 631.298 C 255.173 632.724 253.311 634.253 251.376 635.844 L 251.412 635.858 L 251.376 635.858 C 247.284 639.188 242.755 642.847 239.723 640.897 C 238.701 640.237 238.224 639.382 238.408 638.122 C 238.81 634.779 241.294 629.904 246.153 623.231 C 250.827 616.811 254.808 612.523 261.421 605.519 C 264.962 601.725 263.137 603.719 266.243 600.406 C 272.89 593.236 277.712 586.247 280.23 580.159 C 282.167 575.57 282.898 571.206 282.387 567.337 C 281.694 562.372 279.171 558.368 274.679 555.758 C 272.268 554.38 269.421 553.42 266.131 553.029 C 264.962 552.879 263.246 552.805 261.274 552.714 C 257.33 552.55 252.071 552.325 249.438 551.004 C 249.256 550.929 249.513 550.135 250.718 547.72 C 252.142 544.946 275.848 522.959 292.541 507.513 C 300.394 500.239 306.821 494.285 308.541 492.561 C 314.529 486.592 318.436 481.447 321.067 477.204 C 323.881 472.599 325.233 468.94 326.034 466.016 C 327.425 461.082 326.655 455.937 323.332 451.394 C 320.848 448.005 316.94 445.095 311.425 443.19 C 304.888 440.911 296.01 440.055 288.779 439.591 L 289.401 438.886 C 292.175 435.512 295.718 431.462 299.883 426.708 C 303.574 422.555 307.954 418.026 312.521 413.541 C 317.928 408.216 323.697 402.893 328.849 398.245 C 334.801 392.92 338.566 387.58 340.282 382.677 C 341.704 378.641 341.851 374.774 340.756 371.264 C 339.552 367.439 337.07 364.32 333.377 362.191 C 329.98 360.226 325.525 359.131 320.192 359.176 C 317.928 359.192 316.431 358.816 315.7 358.202 C 315.663 358.142 315.627 358.111 315.587 358.037 L 315.552 357.931 C 315.552 357.302 315.918 356.507 316.647 355.592 C 318.07 353.806 320.082 351.542 322.384 348.993 C 329.725 340.714 339.808 329.392 351.824 309.536 C 356.352 302.052 358.179 298.978 360.08 295.874 C 372.5 275.238 384.516 255.216 392.041 245.709 C 393.721 243.579 395.365 242.244 396.863 241.57 C 397.702 241.193 398.395 241.044 398.982 241.118 L 399.016 241.118 C 399.565 241.193 400.149 241.464 400.696 241.884 C 401.5 242.514 402.194 243.503 402.78 244.704 C 403.838 246.998 404.787 249.382 405.846 251.977 C 409.097 260 413.189 270.168 422.868 286.306 C 429.299 297.029 438.1 309.026 446.465 320.409 C 454.975 332.001 463.012 342.995 467.174 350.658 C 469.222 354.422 470.208 357.182 470.535 359.057 L 461.004 359.057 C 449.789 359.057 448.181 365.97 456.181 379.782 C 461.077 388.255 470.829 405.172 481.641 420.17 C 489.786 431.493 498.259 441.42 504.433 448.333 L 503.191 448.485 C 500.489 448.829 497.09 449.279 493.804 449.729 C 489.604 450.328 487.776 450.569 486.608 450.749 C 475.65 452.352 475.466 452.383 476.599 463.661 C 476.599 464.066 476.635 464.472 476.709 464.907 C 477.221 469.72 478.353 478.839 485.146 491.706 C 488.506 498.035 493.255 505.353 498.554 512.447 C 500.122 514.561 501.767 516.676 503.409 518.716 C 503.666 519.091 503.958 519.405 504.25 519.751 C 507.94 524.265 511.701 528.539 515.28 532.183 C 519.226 536.173 522.914 539.472 526.056 542.216 C 527.298 543.297 528.505 543.552 529.454 543.626 C 526.569 544.586 523.026 545.201 519.701 545.426 C 516.267 545.636 509.801 547.436 505.236 551.244 C 503.373 552.805 501.73 554.709 500.599 556.958 C 499.357 559.418 498.698 562.178 498.88 565.326 C 499.136 569.421 500.963 574.01 505.054 578.959 C 510.606 585.632 518.571 592.29 526.643 599.04 C 530.329 602.1 534.019 605.205 537.379 608.218 C 537.487 608.324 537.561 608.384 537.671 608.459 L 537.673 608.429 Z M 858.375 649.596 C 858.415 649.505 858.415 649.371 858.633 649.341 C 859.398 649.161 858.889 649.371 858.375 649.596 Z M 821.081 732.41 C 816.555 732.41 812.864 728.721 812.864 724.176 C 812.864 719.648 816.555 715.972 821.081 715.972 L 867.658 715.972 L 867.767 715.868 C 871.164 712.628 873.648 710.304 875.799 706.944 C 878.028 703.48 879.493 699.446 880.546 693.312 C 882.011 684.959 882.743 671.776 883.357 657.74 C 886.429 658.189 889.717 658.594 892.788 658.714 C 897.79 658.954 902.536 658.503 906.119 656.614 C 909.043 655.085 910.904 652.909 912.104 650.54 C 912.73 650.946 913.35 651.351 913.937 651.755 C 917.809 654.26 921.971 656.674 925.476 658.023 C 930.082 659.778 933.839 659.929 936.904 659.315 C 939.571 658.774 941.619 657.663 943.187 656.494 C 942.019 663.842 940.999 670.606 940.412 675.495 C 939.98 679.32 939.791 682.289 939.907 685.139 C 940.051 688.199 940.494 690.808 941.326 693.763 C 942.132 696.522 943.268 699.746 945.094 703.33 C 946.884 706.87 949.223 710.664 952.362 714.653 C 952.724 715.088 953.086 715.554 953.461 715.989 L 998.787 715.989 C 1003.32 715.989 1007.01 719.693 1007.01 724.222 C 1007.01 728.749 1003.32 732.439 998.787 732.439 L 821.079 732.439 L 821.081 732.41 Z M 838.688 376.033 C 838.652 375.943 838.652 375.868 838.688 375.974 L 838.688 376.033 Z M 835.95 381.357 C 820.936 381.688 803.075 383.831 785.615 386.741 C 761.983 390.7 738.899 396.099 724.945 400.224 C 701.97 407.032 687.651 419.12 672.383 432.047 C 669.645 434.342 666.904 436.696 666.248 437.236 C 657.882 444.194 648.86 451.169 639.583 457.272 C 630.56 463.226 621.207 468.371 611.967 471.745 C 601.045 475.778 589.868 477.459 579.131 479.049 C 571.386 480.217 563.824 481.358 556.299 483.338 C 540.263 487.566 526.165 495.26 512.323 503.404 L 511.811 502.714 C 507.024 496.294 502.716 489.725 499.757 484.102 C 495.629 476.289 494.131 470.395 493.473 466.376 L 496.105 466.016 C 498.624 465.686 501.693 465.295 505.161 464.831 C 508.814 464.396 511.518 464.066 513.525 463.916 C 516.924 463.557 518.422 463.452 519.407 463.332 C 532.228 462.177 533.068 455.473 521.891 443.19 C 516.302 437.011 505.126 424.743 494.972 410.631 C 486.204 398.469 477.913 384.492 472.69 375.538 L 472.982 375.538 C 475.136 375.538 477.476 375.028 479.664 373.844 C 481.82 372.673 483.794 370.904 485.18 368.37 C 486.387 366.21 487.119 363.57 487.119 360.376 C 487.119 356.013 485.657 350.283 481.674 342.92 C 476.965 334.222 468.561 322.807 459.722 310.735 C 451.54 299.563 442.92 287.835 436.966 277.891 C 434.446 273.662 432.326 269.868 430.502 266.419 L 531.17 155.051 L 585.743 206.641 C 587.495 208.275 589.796 209.01 592.023 208.845 L 612.553 208.036 L 662.632 248.137 L 609.667 311.17 C 608.571 311.936 607.728 313 607.145 314.186 L 566.273 362.836 C 563.35 366.285 563.825 371.429 567.296 374.368 C 570.767 377.308 575.915 376.812 578.838 373.333 L 620.076 324.234 L 686.664 294.554 C 696.819 290.025 706.06 283.53 714.352 274.982 L 714.463 274.878 C 725.858 263.18 748.505 239.964 758.695 230.276 C 761.654 227.501 760.487 226.692 761.034 227.052 C 762.605 228.161 764.614 229.541 767.537 231.041 C 778.092 236.485 799.97 242.994 822.253 249.517 L 857.752 290.385 C 854.87 295.183 852.315 299.458 851.403 300.957 C 840.296 319.344 830.653 330.111 823.678 337.986 C 821.412 340.55 819.403 342.8 817.431 345.244 C 814.29 349.158 812.72 353.612 812.756 357.931 C 812.756 360.451 813.303 362.836 814.326 365.025 C 815.386 367.201 816.919 369.194 819.003 370.86 C 822.507 373.708 827.475 375.463 833.832 375.434 C 836.06 375.434 837.703 375.718 838.652 376.229 C 838.617 376.409 838.543 376.723 838.397 377.097 C 837.959 378.358 837.155 379.782 835.914 381.297 L 835.95 381.357 Z M 812.026 404.122 C 799.094 407.618 784.484 412.252 770.896 417.546 C 758.551 422.359 746.862 427.817 737.767 433.517 C 723.594 442.425 712.673 453.883 701.824 465.326 C 697.586 469.78 693.351 474.264 689.04 478.418 C 684.035 483.262 678.848 487.821 673.807 492.231 C 662.85 501.844 652.587 510.872 646.121 520.77 C 634.578 538.407 620.223 543.236 604.481 548.531 C 584.975 555.114 563.571 562.313 541.615 590.178 C 540.12 588.888 538.586 587.657 537.087 586.382 C 529.489 580.024 522.002 573.74 517.544 568.401 C 515.903 566.436 515.244 565.116 515.17 564.248 C 515.28 564.096 515.427 563.947 515.648 563.752 C 517.216 562.462 519.446 561.833 520.65 561.758 C 525.91 561.398 531.864 560.182 536.466 558.427 L 536.466 558.473 C 542.346 556.239 546.768 552.58 547.68 547.616 C 548.996 540.611 544.174 536.337 536.794 529.874 C 533.945 527.355 530.55 524.339 526.934 520.694 C 525.546 519.286 524.121 517.771 522.694 516.167 C 534.788 509.118 547.059 502.654 560.356 499.144 C 566.856 497.465 574.016 496.37 581.395 495.275 C 592.973 493.52 605.026 491.72 617.52 487.132 C 627.93 483.338 638.376 477.594 648.494 470.95 C 658.393 464.441 667.891 457.062 676.655 449.788 C 680.236 446.849 681.589 445.666 682.94 444.525 C 696.857 432.782 709.897 421.744 729.512 415.94 C 742.953 411.952 765.272 406.732 788.281 402.908 C 798.146 401.258 808.081 399.863 817.47 398.919 C 816.519 399.834 815.568 400.733 814.619 401.693 C 813.779 402.488 812.936 403.342 812.1 404.182 L 812.026 404.122 Z M 769.326 587.493 C 746.313 591.212 723.374 594.916 704.233 593.671 C 695.87 593.132 687.979 591.633 679.799 590.103 C 668.51 587.988 656.749 585.753 641.994 585.528 C 618.541 585.198 588.957 590.027 558.856 595.32 C 576.534 575.345 593.847 569.481 609.774 564.127 C 628.368 557.873 645.351 552.19 659.961 529.784 C 665.26 521.686 674.683 513.392 684.69 504.618 C 689.95 499.984 695.392 495.23 700.544 490.221 C 705.145 485.766 709.455 481.209 713.767 476.679 C 723.92 465.955 734.149 455.233 746.568 447.418 C 754.639 442.35 765.38 437.371 776.921 432.842 C 781.45 431.042 786.09 429.378 790.729 427.817 L 790.362 428.238 C 787.075 432.197 784.664 435.227 783.204 437.236 C 779.407 442.47 778.089 446.07 781.888 450.928 C 784.263 453.958 787.66 454.902 793.503 455.338 C 794.201 455.368 795.769 455.488 797.448 455.593 C 804.208 455.997 813.96 456.598 819.55 458.517 C 821.666 459.252 822.981 460.122 823.603 460.962 C 823.71 461.156 823.784 461.262 823.747 461.428 C 823.199 463.271 822.358 465.596 820.569 468.535 C 818.597 471.776 815.459 475.795 810.416 480.832 C 807.457 483.787 801.832 489.021 794.929 495.41 C 777.322 511.696 752.303 534.928 749.6 540.267 C 742.696 553.854 747.152 561.307 755.589 565.582 C 761.361 568.506 768.702 568.836 774.181 569.047 C 775.532 569.121 776.7 569.166 777.761 569.271 C 778.674 569.376 779.331 569.525 779.771 569.706 C 779.805 570.665 779.441 572.046 778.71 573.845 C 777.067 577.745 773.89 582.454 769.359 587.536 L 769.326 587.493 Z M 874.67 639.622 L 874.157 639.517 C 872.114 639.052 870.51 638.542 869.34 637.942 C 868.717 637.613 867.986 637.119 867.291 636.623 C 863.746 634.148 860.824 632.093 855.019 633.368 C 851.551 634.179 849.648 635.783 847.422 637.687 C 846.399 638.573 845.23 639.548 843.767 640.057 C 839.312 641.632 837.888 640.477 837.376 639.052 C 836.938 637.763 836.61 635.903 836.317 634.328 C 835.295 628.585 834.526 624.28 827.769 623.306 C 820.974 622.301 818.749 625.884 815.642 630.879 C 813.524 634.328 810.054 639.908 798.584 638.948 C 797.269 638.813 796.686 638.738 796.611 638.722 C 796.467 638.602 795.954 637.807 795.115 636.518 C 787.37 624.535 779.482 625.87 771.007 631.329 C 768.778 632.769 766.913 634.283 764.981 635.858 L 765.017 635.903 L 764.981 635.903 C 760.888 639.233 756.358 642.877 753.33 640.942 C 752.303 640.297 751.831 639.397 752.012 638.167 C 752.415 634.794 754.898 629.949 759.757 623.245 C 764.429 616.828 768.413 612.568 775.027 605.534 C 778.568 601.74 776.742 603.75 779.846 600.42 C 786.493 593.282 791.318 586.293 793.836 580.19 C 795.771 575.599 796.503 571.251 795.992 567.366 C 795.298 562.402 792.776 558.427 788.283 555.789 C 785.873 554.394 783.026 553.465 779.737 553.06 C 778.568 552.908 776.851 552.833 774.879 552.774 C 770.934 552.58 765.676 552.37 763.043 551.05 C 762.86 550.975 763.117 550.164 764.325 547.765 C 765.747 544.99 789.453 522.99 806.146 507.543 C 813.997 500.284 820.427 494.33 822.143 492.621 C 828.133 486.606 832.042 481.508 834.671 477.233 C 837.486 472.615 838.838 468.97 839.639 466.045 C 841.028 461.127 840.261 455.968 836.937 451.438 C 834.453 448.05 830.543 445.109 825.028 443.22 C 818.491 440.956 809.616 440.131 802.383 439.637 L 803.005 438.901 C 805.781 435.542 809.324 431.493 813.488 426.739 C 817.176 422.583 821.56 418.07 826.126 413.555 C 831.532 408.276 837.303 402.923 842.453 398.289 C 848.407 392.95 852.165 387.641 853.887 382.737 C 855.315 378.672 855.454 374.802 854.363 371.309 C 853.157 367.47 850.674 364.351 846.983 362.236 C 843.585 360.256 839.128 359.176 833.795 359.192 C 831.532 359.266 830.034 358.846 829.306 358.217 C 829.267 358.202 829.232 358.142 829.192 358.082 L 829.158 357.976 C 829.158 357.362 829.524 356.536 830.253 355.637 C 831.678 353.823 833.685 351.573 835.989 348.993 C 843.33 340.759 853.413 329.451 865.428 309.581 C 869.923 302.142 871.926 298.842 873.868 295.604 C 886.102 275.267 897.79 255.816 905.459 246.007 C 907.141 243.848 908.785 242.514 910.321 241.808 C 911.271 241.373 912.145 241.224 912.877 241.344 C 913.607 241.464 914.302 241.778 914.956 242.288 C 915.799 242.949 916.562 243.923 917.115 245.138 C 918.136 247.358 919.157 250.028 920.255 252.952 C 923.217 260.765 926.973 270.604 936.434 286.41 C 942.86 297.149 951.671 309.146 960.037 320.514 C 968.545 332.107 976.576 343.115 980.742 350.762 C 982.788 354.527 983.773 357.288 984.112 359.176 L 974.564 359.176 C 963.353 359.176 961.748 366.075 969.743 379.888 C 974.645 388.36 984.394 405.263 995.206 420.274 C 1003.36 431.597 1011.83 441.541 1018 448.454 L 1016.76 448.574 C 1014.05 448.918 1010.66 449.399 1007.38 449.819 C 1003.18 450.42 1001.34 450.674 1000.17 450.853 C 989.215 452.458 989.03 452.504 990.175 463.781 C 990.175 464.186 990.199 464.591 990.28 465.026 C 990.783 469.855 991.918 478.943 998.717 491.795 C 1002.08 498.155 1006.82 505.458 1012.12 512.552 C 1017.46 519.705 1023.38 526.74 1028.85 532.303 C 1032.79 536.292 1036.49 539.576 1039.63 542.322 C 1040.87 543.417 1042.09 543.671 1043.02 543.732 C 1040.14 544.706 1036.6 545.306 1033.28 545.531 C 1029.84 545.756 1023.38 547.54 1018.82 551.35 C 1016.94 552.908 1015.31 554.814 1014.17 557.079 C 1012.94 559.522 1012.28 562.313 1012.45 565.446 C 1012.7 569.541 1014.54 574.13 1018.62 579.064 C 1024.17 585.753 1032.14 592.396 1040.21 599.145 C 1048.42 606.028 1056.69 612.972 1061.37 618.941 C 1064.84 623.455 1066.21 625.166 1066.21 625.166 C 1063.7 626.996 1056.53 627.4 1047.41 627.235 C 1042.58 627.159 1039.19 625.81 1037.3 624.986 L 1036.89 624.806 C 1026.88 620.411 1022.35 623.185 1023.27 633.159 C 1023.33 633.848 1023.42 634.913 1023.65 636.188 C 1023.92 637.687 1024.35 639.397 1025.06 640.942 L 1025.12 641.137 C 1023.12 641.632 1020.6 642.007 1017.78 642.142 C 1014.71 642.292 1011.39 642.142 1008.24 641.452 C 1002.84 640.237 997.078 637.208 992.903 634.988 C 991.042 634.014 989.473 633.159 988.163 632.573 C 985.714 631.478 983.632 631.074 981.841 631.118 C 978.961 631.224 976.69 632.365 975.043 634.359 C 973.438 636.338 972.818 638.573 973.031 641.047 C 973.217 642.907 973.916 644.767 974.936 646.552 C 975.15 646.926 975.371 647.301 975.593 647.616 C 973.951 647.406 972.161 647.137 970.3 646.746 C 967.342 646.117 964.237 645.261 961.454 643.881 C 958.636 642.547 955.871 640.598 953.381 638.663 C 950.757 636.623 948.639 634.659 947.247 633.354 C 941.336 627.85 937.49 627.07 933.372 631.118 C 933.184 631.298 932.966 631.478 932.786 631.659 C 929.348 635.348 930.153 637.987 931.398 641.857 L 931.726 642.907 L 931.29 642.772 C 928.915 641.857 925.811 640.057 922.812 638.122 C 919.453 635.963 916.344 633.713 914.302 632.244 C 901.482 623.02 895.818 625.45 897.354 639.517 C 897.463 640.343 897.571 641.512 897.533 642.427 C 896.621 642.592 895.164 642.547 893.442 642.472 C 890.121 642.322 886.321 641.782 882.961 641.227 C 881.722 641.047 880.514 640.868 879.384 640.657 C 878.356 640.102 877.187 639.773 875.949 639.697 C 875.511 639.667 875.076 639.697 874.63 639.742 L 874.67 639.622 Z M 344.703 1074.91 C 329.182 1071.49 319.668 1063.05 302.205 1037.25 C 299.593 1033.4 296.172 1028.16 294.617 1025.61 C 293.062 1023.06 291.634 1021.01 291.446 1021.03 C 291.273 1021.06 289.838 1023.67 288.291 1026.85 C 286.736 1030.01 282.714 1036.8 279.354 1041.93 C 274.111 1049.95 273.252 1051.63 273.252 1053.92 C 273.252 1058.27 274.996 1059.5 285.696 1062.7 C 293.25 1064.96 298.458 1069.12 298.458 1072.9 C 298.458 1074.31 291.625 1074.73 273.57 1074.48 C 255.135 1074.2 255.315 1074.25 248.276 1066.72 C 242.674 1060.72 239.185 1055.67 238.445 1052.49 C 237.68 1049.26 238.075 1046.58 241.393 1032.79 C 242.905 1026.47 245.175 1016.29 246.412 1010.14 C 247.658 1003.99 248.827 998.334 249.016 997.544 L 249.352 996.125 L 234.818 996.435 C 218.447 996.779 218.704 996.71 215.129 1001.98 C 213.264 1004.72 211.537 1009.58 206.552 1026.07 C 205.435 1029.73 203.243 1035.63 201.67 1039.15 C 200.106 1042.67 198.671 1046.99 198.474 1048.76 C 198.181 1051.6 198.336 1052.21 199.883 1054.04 C 202.015 1056.57 203.467 1057.36 211.356 1060.17 C 220.767 1063.53 226.559 1067.75 227.367 1071.85 L 227.771 1073.84 L 224.36 1074.25 C 222.478 1074.49 212.439 1074.6 202.058 1074.48 L 183.185 1074.26 L 180.073 1072.34 C 176.73 1070.27 170.835 1063.68 165.884 1056.5 L 162.876 1052.11 L 162.481 1040.54 C 162.258 1034.18 162.043 1028.87 162 1028.75 C 161.957 1028.65 159.508 1030.52 156.568 1032.9 C 153.621 1035.3 149.186 1038.81 146.712 1040.7 C 144.236 1042.61 141.296 1045.42 140.179 1046.98 C 137.678 1050.48 136.175 1055.1 137.033 1056.71 C 138.005 1058.53 141.391 1061.11 145.593 1063.22 C 147.725 1064.3 150.716 1066.04 152.228 1067.06 C 154.961 1068.95 157.488 1072.85 156.559 1073.78 C 156.293 1074.05 147.845 1074.25 137.782 1074.25 C 120.12 1074.25 119.398 1074.21 116.846 1072.85 C 113.048 1070.81 109.447 1066.29 105.622 1058.71 L 102.262 1052.11 L 102.305 1045.63 C 102.348 1040.52 102.657 1038.38 103.801 1035.34 C 108.509 1022.98 108.192 1024.51 118.187 965.703 C 120.808 950.216 123.257 936.224 123.618 934.617 C 126.3 922.689 134.902 908.698 146.857 896.864 C 159.8 884.064 174.342 876.619 194.134 872.659 C 206.965 870.095 215.722 869.684 253.159 869.893 L 287.93 870.088 L 294.806 866.75 C 304.981 861.815 307.619 861.145 316.644 861.232 C 323.777 861.3 325.332 861.568 339.77 865.213 C 356.693 869.485 361.978 870.252 377.112 870.604 L 387.176 870.839 L 390.82 867.988 C 395.057 864.687 397.79 863.394 400.548 863.394 C 403.109 863.394 405.429 865.725 406.014 868.897 C 406.427 871.103 405.774 876.09 404.707 878.753 C 404.424 879.476 405.361 880.496 408.017 882.356 C 414.032 886.584 422.515 894.298 424.621 897.482 C 425.781 899.246 426.76 901.723 427.009 903.597 C 427.577 907.784 429.606 910.47 439.548 920.332 C 444.052 924.807 447.747 928.961 447.747 929.559 C 447.747 931.212 438.965 939.48 435.312 941.266 C 432.201 942.795 431.633 942.837 412.339 943.222 C 389.995 943.657 392.565 943.229 367.452 950.531 C 359.606 952.808 352.12 955.219 350.823 955.878 C 346.955 957.854 343.268 962.119 340.397 967.92 C 337.776 973.196 337.682 973.548 337.716 979.47 C 337.742 983.767 338.249 987.746 339.461 992.911 C 341.988 1003.74 343.586 1014.17 344.678 1026.87 C 345.451 1035.81 346.061 1039.42 347.574 1044.15 C 350.668 1053.81 353.917 1057.09 361.617 1058.33 C 366.413 1059.09 373.125 1063.26 374.8 1066.5 C 375.659 1068.15 375.642 1068.44 374.585 1069.6 C 370.013 1074.66 355.36 1077.27 344.703 1074.91 Z M 1061.5 712.377 C 1061.5 712.377 1098.72 741.056 1054.97 793.011 C 1027.48 825.65 1000.55 807.611 992.506 840.872 C 995.732 842.08 1003.44 842.314 1006.15 835.501 C 1009.33 827.597 1016.83 824.241 1018.8 824.039 C 1020.78 823.839 1031.46 818.705 1031.46 818.705 C 1035.02 846.777 1019.95 849.983 1015.19 852.282 C 1010.45 854.581 1008.92 860.219 1008.92 860.219 C 1032.84 896.58 1036.7 943.367 1036.7 943.367 C 1035.38 958.62 1039.23 958.603 1039.77 971.676 C 1040.75 995.572 1022.38 1005.86 1022.38 1005.86 C 1022.38 1005.86 1021.88 1010.51 1018.83 1015.74 C 1015.78 1020.98 1007.67 1044.44 1008.25 1051.55 C 1008.85 1058.67 1007.95 1068.3 1006.17 1071.27 C 1005.24 1072.83 1004.63 1079.78 1004.26 1085.99 L 1004.29 1085.94 L 1009.63 1088.61 L 1005.42 1090.79 L 1006.17 1092.16 L 1006.17 1093.85 L 1009.63 1093.64 L 1014.97 1083.86 L 1014.97 1090.04 L 1021.88 1087.57 L 1018.03 1092.47 L 1018.19 1094.36 L 1022.38 1090.54 L 1022.38 1085.63 L 1025.93 1092.15 L 1025.93 1095.12 L 1029.19 1094.54 L 1033.35 1090.54 L 1041.65 1087.57 L 1037.79 1092.47 L 1038.38 1099.59 L 846.366 1099.59 L 846.616 1097.25 L 843.361 1090.13 L 848.999 1093.69 L 852.557 1083.91 L 852.557 1093.39 L 858.195 1085.97 L 863.531 1088.64 L 859.387 1090.57 L 858.497 1093.98 L 863.531 1093.68 L 865.277 1090.47 C 865.798 1080.45 866.837 1058.4 866.502 1052.39 C 866.065 1044.52 867.911 1044.08 867.911 1044.08 C 875.832 1041.72 877.862 1027.91 877.862 1027.91 C 877.862 1027.91 882.494 1008.96 876.487 991.629 C 864.841 958.037 874.808 948.405 874.808 948.405 C 874.808 948.405 882.125 945.888 894.576 933.638 C 907.027 921.388 928.355 919.507 938.541 921.488 C 948.726 923.467 963.443 922.964 963.443 922.964 C 961.264 924.257 957.96 930.482 957.96 930.482 C 969.671 915.347 980.861 915.95 980.861 915.95 C 980.861 915.95 983.412 915.582 984.204 922.764 C 986.939 947.717 998.739 956.695 998.739 956.695 C 995.767 952.851 985.824 938.168 985.979 922.31 C 986.135 906.451 977.49 896.232 977.49 896.232 C 995.396 894.219 993.276 891.534 997.841 889.034 C 1009.04 882.892 1005.06 873.159 1005.06 873.159 C 1006.15 886.902 998.045 885.409 993.804 889.571 C 989.539 893.715 974.501 893.195 974.501 893.195 C 974.501 893.195 969.016 893.933 962.202 893.715 C 955.392 893.481 955.303 896.014 950.645 896.232 C 945.971 896.45 945.605 894.001 941.007 891.703 C 936.409 889.402 936.632 884.889 936.632 884.889 C 932.851 880.963 937.299 877.708 937.299 877.708 L 953.241 863.325 L 953.086 860.574 C 951.9 854.735 957.016 852.283 957.016 852.283 C 952.652 853.107 950.941 858.141 950.941 858.141 C 943.523 854.13 937.182 841.242 937.182 841.242 C 948.607 838.741 955.642 841.41 959.246 843.692 C 950.655 828.455 938.189 840.437 921.658 824.545 C 903.771 807.345 920.771 791.738 920.771 791.738 C 917.448 796.018 917.867 804.491 917.9 805.146 L 917.9 804.978 C 918 802.008 919.579 801.22 919.579 801.22 C 925.068 826.273 946.258 825.971 946.258 825.971 C 938.561 806.102 946.258 807.595 950.807 787.878 C 955.358 768.159 969.537 759.267 969.537 759.267 C 969.537 759.267 955.748 781.718 957.089 784.32 C 958.431 786.92 965.911 778.178 965.911 778.178 C 965.911 778.178 967.014 779.05 958.121 791.435 C 944.651 810.195 951.915 828.938 963.023 833.084 C 969.704 835.567 971.817 839.561 972.455 842.346 C 973.197 842.078 974.035 841.827 974.949 841.592 C 980.357 837.262 985.192 831.086 981.699 824.19 C 970.729 802.475 980.173 793.111 980.173 793.111 C 976.913 797.459 984.321 824.829 991.736 819.693 C 999.154 814.558 1018.12 808.231 1019.99 801.116 C 1021.88 794.001 1001.52 776.113 1001.52 776.113 C 1015.17 777.975 1019.42 789.453 1023.96 787.171 C 1028.51 784.889 1022.77 766.23 1022.77 766.23 C 1036.32 779.67 1030.18 801.3 1030.18 801.3 C 1047.07 796.364 1073.93 760.321 1059.09 748.44 C 1044.24 736.559 1045.59 722.497 1045.59 722.497 C 1045.59 722.497 1057.83 751.544 1066.87 746.511 C 1075.89 741.475 1061.5 712.378 1061.5 712.378 L 1061.5 712.377 Z M 970.98 1093.38 L 970.98 1092.91 L 969.704 1090.11 L 970.98 1090.91 L 970.98 1083.89 L 974.301 1093.01 L 974.917 1093.41 L 975.554 1093.01 L 978.31 1085.46 C 978.144 1081.01 977.573 1076.47 976.031 1074.54 C 972.576 1070.19 972.083 1064.65 972.576 1059.72 C 973.058 1054.78 970.591 1049.04 970.591 1049.04 C 962.307 1022.36 962.002 1006.96 962.002 1006.96 C 962.002 1006.96 958.63 1004.27 959.029 996.789 C 959.363 990.697 955.924 986.184 954.615 984.707 C 955.842 986.585 957.516 992.493 957.355 996.789 C 957.149 1001.74 959.817 1007.36 959.817 1007.36 C 958.442 1013.89 961.514 1023.79 961.514 1023.79 C 911.707 1022.79 902.21 957.855 902.21 957.855 C 903.585 978.36 912.109 987.908 910.7 1001.33 C 909.123 1016.37 896.252 1041.57 891.352 1046.61 C 886.452 1051.64 884.085 1059.37 880.898 1063.29 C 878.213 1066.6 873.514 1087.74 872.071 1094.42 L 876.299 1090.56 L 876.299 1085.66 L 879.857 1092.17 L 879.857 1095.14 L 883.112 1094.55 L 885.898 1091.87 L 885.093 1090.11 L 886.686 1091.11 L 887.273 1090.56 L 892.544 1088.68 L 894.288 1083.9 L 894.288 1088.06 L 895.563 1087.61 L 894.288 1089.23 L 894.288 1093.38 L 899.927 1085.96 L 905.263 1088.63 L 901.118 1090.56 L 900.229 1093.97 L 905.263 1093.66 L 910.599 1083.83 L 910.599 1091.84 L 912.965 1095.09 L 917.463 1091 C 914.979 1083.23 909.659 1067.12 905.8 1059.08 C 900.615 1048.27 901.654 1042.93 907.059 1039.07 C 912.478 1035.21 919.493 1016.1 912.076 1006.22 C 912.076 1006.22 913.67 999.788 912.478 993.193 C 912.478 993.193 924.06 1019.44 949.768 1023.58 C 949.768 1023.58 939.749 1039.43 928.689 1046.74 C 917.632 1054.06 919.375 1061.55 920.567 1065.11 C 921.577 1068.12 926.357 1083.9 927.514 1091.95 L 928.993 1090.53 L 930.049 1090.16 L 928.003 1087.57 L 932.649 1089.23 L 937.299 1087.57 L 935.253 1090.16 L 936.309 1090.53 L 940.453 1094.52 L 943.706 1095.11 L 943.706 1092.14 L 947.267 1085.63 L 947.267 1090.53 L 952.301 1095.13 L 954.666 1091.87 L 954.666 1083.86 L 960.006 1093.65 L 965.04 1093.95 L 964.148 1090.54 L 960.006 1088.62 L 965.334 1085.95 L 970.98 1093.38 Z M 954.309 984.362 C 954.315 984.37 954.322 984.377 954.327 984.383 C 954.32 984.377 954.315 984.37 954.309 984.362 Z M 996.869 1016.22 C 992.705 1019.39 985.891 1019.98 985.891 1019.98 C 984.621 1004.07 989.35 1000.71 989.35 1000.71 C 989.35 1000.71 984.221 1002.29 984.321 1017.02 C 984.415 1031.75 980.856 1046.07 985.508 1056.06 C 990.138 1066.04 987.188 1072.57 986.983 1074.05 C 986.872 1074.82 986.001 1080.71 985.159 1086.28 L 989.845 1088.63 L 985.69 1090.56 L 984.804 1093.97 L 989.845 1093.66 L 990.505 1092.42 L 989.434 1090.11 L 991.18 1091.19 L 995.173 1083.88 L 995.173 1091.89 L 995.545 1092.39 L 996.515 1089.7 C 997.203 1083.83 997.807 1075.66 996.431 1071.35 C 994.153 1064.16 995.695 1065.05 994.219 1057.12 C 992.717 1049.19 995.378 1022.66 995.378 1022.66 C 995.378 1022.66 996.482 1017.89 1000.81 1016.82 C 1009.4 1014.71 1011.69 1010.01 1011.69 1010.01 C 1006.35 1016.23 1001.02 1013.06 996.869 1016.22 Z" style=""/>
</svg>