<?xml version="1.0" encoding="utf-8"?>
<svg version="1.1" viewBox="0 0 1200 1200" xmlns="http://www.w3.org/2000/svg" width="150pt" height="150pt">
  <path d="m797.81 760.64c15.141-24.609 73.688-122.86 73.688-122.86 3.7031-6.2344 4.5-13.781 2.2031-20.672l-50.016-150c-2.1094-6.3281-6.6094-11.531-12.469-14.438l-50.016-25.031c-2.0156-0.98438-4.125-1.6875-6.2812-2.1562l-125.02-24.984c-8.7188-1.7344-17.672 1.2656-23.578 7.9219-56.297 63.094-85.172 149.76-55.266 248.81 3.1875 10.547 12.938 17.766 23.953 17.766h61.594s34.547 51.797 34.547 51.797l-18.516 37.031c-3 5.9062-3.4219 12.844-1.3594 19.125l23.719 71.156v120.89c0 10.641 6.7031 20.109 16.688 23.578 10.078 3.5156 21.234 0.375 27.797-7.9219l100.03-125.02c5.9062-7.3594 7.125-17.391 3.2344-25.969 0 0-12.516-27.469-20.109-53.25-2.5781-8.9531-4.4062-22.266-4.8281-25.781zm81.656 96.141c-0.60938 0.9375-1.125 1.875-1.6406 2.8594l-37.969 78.375c-5.3438 11.062-1.875 24.422 8.25 31.453l37.641 26.062c4.2188 2.9062 9.1406 4.4531 14.25 4.4531h121.4c45.562 0 73.406-36.234 73.406-36.234 3.375-4.3594 5.2031-9.7031 5.2031-15.188v-78.375c0-10.172-6.1875-19.359-15.609-23.156l-45.328-18.375-15.375-46.078c-2.25-6.8438-7.3594-12.328-14.016-15.141-6.6094-2.7188-14.109-2.5781-20.578 0.5625l-68.766 33.234c-4.0781 1.9688-7.5469 4.9688-9.9844 8.7656zm-618.28-554.11c-3.4688-1.7812-7.2656-2.6719-11.203-2.6719h-75c-10.172 0-19.406 6.2344-23.203 15.75l-49.969 125.02c-3.0938 7.6875-2.1562 16.406 2.4844 23.297 4.6406 6.8438 12.422 10.922 20.719 10.922h59.531l-31.875 63.844c-4.8281 9.6094-2.9531 21.281 4.6406 28.875l97.125 97.125 22.406 44.766 24.141 72.422s24.75 99.094 24.75 99.094c0.70312 2.7188 1.875 5.3906 3.4688 7.7812l50.016 75c2.3906 3.6094 5.7188 6.5625 9.5625 8.5312l50.016 24.984c7.7344 3.8438 16.969 3.4219 24.375-1.125 7.3125-4.5469 11.812-12.562 11.812-21.281v-94.078l23.203-46.641 50.016-124.97c4.8281-12.047-0.42188-25.875-12-31.641l-99.984-50.016c-3.5156-1.7344-7.3125-2.6719-11.203-2.6719h-34.547s31.875-63.797 31.875-63.797c0.5625-1.0312 0.98438-2.1562 1.3594-3.2344l24.984-75c0.84375-2.5312 1.3125-5.25 1.3125-7.9688v-124.97c0-13.828-11.203-25.031-24.984-25.031h-119.11zm-111.52 528.19c20.391 52.172 50.625 109.03 88.172 136.08 9.3281 6.7031 22.359 4.5469 29.062-4.7344 6.75-9.375 4.5938-22.359-4.7344-29.109-31.594-22.734-55.594-71.25-72.938-115.36 2.2969-0.23438 4.5938-0.375 6.9375-0.42188 4.9688 0.32812 9.5625-2.3906 11.672-6.8906 2.1094-4.5938 1.2188-9.8906-2.2031-13.453-15.188-17.672-34.875-38.109-48.984-52.781-3.5156-3.6562-8.7656-4.9219-13.594-3.4219s-8.3438 5.5781-9.1406 10.547c-3.2812 20.109-7.8281 48.094-11.578 71.016-0.84375 5.4844 1.6875 10.828 6.4688 13.641 4.6875 2.7188 10.641 2.3438 14.953-1.0781 1.875-1.4531 3.8438-2.8125 5.9062-4.0312zm417.61 25.125c-1.9219-1.2188-3.7969-2.5312-5.625-3.9375-3.7031-3.2812-9.0469-4.0312-13.453-1.7812-4.4531 2.25-7.0312 6.9375-6.5625 11.906 0.9375 23.297 3.75 51.516 5.7656 71.766 0.51562 5.0156 3.75 9.3281 8.4844 11.109 4.6875 1.7812 10.031 0.79688 13.781-2.5781 15-13.781 35.906-32.906 53.062-48.656 4.0312-3.7031 5.3438-9.5156 3.375-14.625-2.0156-5.1094-6.9375-8.4375-12.422-8.4375-2.3906-0.046875-4.7812-0.23438-7.125-0.51562 10.125-34.125 17.016-70.266 14.156-97.406-1.2188-11.438-11.484-19.734-22.922-18.516-11.391 1.1719-19.734 11.438-18.516 22.875 2.2969 22.078-3.8438 51-12 78.797zm324.37-157.26c-9.7969 29.625-24.141 61.5-45.562 88.312-7.125 9-5.6719 22.125 3.3281 29.25 9 7.2188 22.078 5.7188 29.297-3.2812 25.969-32.672 43.219-71.672 54.422-107.34 2.3438 0.9375 4.5938 2.0156 6.8438 3.1406 4.2188 2.625 9.6094 2.3906 13.594-0.5625 3.9844-3 5.7188-8.0625 4.3594-12.891-4.9219-22.688-12.609-50.109-18.047-69.703-1.3594-4.8281-5.3438-8.4844-10.312-9.4688-4.9219-0.98438-9.9844 0.98437-13.031 4.9688-12.469 16.125-29.766 38.625-43.875 57.047-3.375 4.3594-3.6562 10.312-0.84375 14.953 2.8594 4.6875 8.25 7.1719 13.688 6.1875 2.0156-0.28125 4.0781-0.46875 6.1406-0.60938zm-234.37-366.37c-7.125 7.1719-9.2344 17.906-5.3906 27.234 3.8438 9.375 13.031 15.422 23.109 15.422h119.11l84.422 42.234 22.219 88.875c2.8125 11.109 12.797 18.891 24.234 18.891h55.5s20.25 81.094 20.25 81.094c2.4375 9.6094 10.266 16.875 20.016 18.562s19.547-2.5781 25.031-10.734l50.016-75c2.7656-4.125 4.2188-8.9531 4.2188-13.922v-249.98c0-9.7969-5.7656-18.703-14.719-22.781 0 0-53.203-24.047-91.312-39.047-19.266-7.5469-35.484-12.516-41.812-13.078-17.953-1.5-252.32-0.09375-252.32-0.09375-8.0156 0.046875-15.516 3.9375-20.203 10.453-4.6406 6.5156-5.9062 14.859-3.3281 22.5l20.109 60.281-39.141 39.094zm-132.89 17.016c-20.906 36.984-40.031 81.094-45.094 123.19-1.3594 11.391 6.7969 21.797 18.188 23.156 11.484 1.3594 21.797-6.7969 23.203-18.188 4.3125-35.859 20.766-73.172 38.531-105 1.5938 1.6406 3.0938 3.3281 4.5469 5.0625 2.7656 4.125 7.7812 6.0938 12.656 4.9688 4.8281-1.125 8.4844-5.1562 9.1406-10.031 4.5469-22.875 8.4844-50.953 11.297-71.109 0.70312-5.0156-1.4531-9.9375-5.625-12.844-4.125-2.8594-9.5625-3.0938-13.969-0.65625-17.812 9.7969-42.703 23.484-63.047 34.734-4.7812 2.6719-7.4531 8.0156-6.7031 13.406 0.75 5.4375 4.7344 9.8438 10.031 11.156 2.2969 0.60938 4.5938 1.3594 6.8438 2.1562zm5.5312-123.84-125.02-25.031c-2.7188-0.51562-5.3906-0.5625-8.1562-0.23438l-190.08 24.75h-56.672c-13.781 0-24.984 11.203-24.984 24.984 0 13.828 11.203 25.031 24.984 25.031h58.312c1.0312 0 2.1562-0.046875 3.1875-0.23438l187.64-24.422 120.94 24.188c13.594 2.7188 26.719-6.0938 29.438-19.641 2.6719-13.5-6.0469-26.719-19.594-29.391z" fill-rule="evenodd"/>
</svg>