<?xml version="1.0" encoding="utf-8"?>
<svg version="1.1" xmlns="http://www.w3.org/2000/svg" viewBox="0 0 1200 1200" width="150pt" height="150pt">
  <path d="M 842.435 543.75 C 943.716 600.88 1076.97 522.953 1074.93 406.947 C 1074.93 331.719 1020.74 268.808 948.738 254.407 C 1022.68 95.857 819.606 -43.655 695.959 78 C 572.374 -43.645 369.277 95.905 443.182 254.216 C 354.597 270.134 294.523 367.765 324.559 454.505 C 336.543 428.214 363.544 411.112 392.773 411.112 L 468.567 411.112 C 470.272 411.112 471.788 411.491 473.494 411.68 C 476.147 411.68 478.8 411.871 481.452 412.439 C 483.916 412.816 486.189 413.387 488.464 414.144 C 490.926 414.712 493.201 415.471 495.663 416.228 C 497.938 417.176 500.211 418.312 502.486 419.449 C 504.57 420.585 506.655 421.533 508.739 422.86 C 511.012 424.376 513.285 426.081 515.369 427.786 C 516.697 428.734 518.022 429.493 519.349 430.629 C 519.729 431.007 520.106 431.577 520.486 431.955 C 522.57 433.85 524.277 435.935 526.17 438.019 C 527.498 439.914 529.202 441.43 530.339 443.324 C 531.855 445.408 532.992 447.683 534.319 449.768 C 535.455 451.852 536.783 453.936 537.728 456.021 C 538.676 458.294 539.435 460.567 540.192 462.842 C 540.951 465.306 541.708 467.579 542.277 470.042 C 542.845 472.315 543.036 474.589 543.413 476.864 C 544.646 483.163 544.361 495.669 544.361 502.255 C 548.72 499.223 552.792 495.811 556.678 492.165 C 555.73 493.064 554.831 494.058 553.837 494.865 C 550.805 497.518 547.584 499.98 544.361 502.255 L 544.361 546.405 C 546.068 545.457 547.772 544.7 549.477 543.752 C 559.142 538.825 568.047 532.574 576.384 525.562 C 592.87 577.669 599.88 636.221 600.83 695.714 C 649.195 694.625 684.961 715.515 693.298 762.034 C 703.389 816.274 695.571 978.663 560.465 1020.88 C 548.15 1072.42 536.59 1111.83 530.528 1131.15 L 449.617 1131.15 L 449.617 979.28 C 493.342 980.513 551.039 976.627 594.577 935.035 C 651.99 877.669 637.731 774.544 637.116 770.178 C 635.884 761.887 629.394 755.351 621.105 754.167 C 599.645 749.287 467.434 744.362 430.67 833.515 C 393.721 744.219 261.415 749.287 240.233 754.215 C 231.944 755.398 225.406 761.936 224.223 770.227 C 223.607 774.584 209.348 877.661 266.763 935.084 C 310.344 976.675 367.942 980.464 411.72 979.328 L 411.72 1131.16 L 89.607 1131.16 C 65.067 1131.54 64.404 1168.53 89.607 1169.06 L 999.135 1169.06 C 1023.67 1168.68 1024.29 1131.68 999.135 1131.16 L 861.382 1131.16 C 840.16 1063.13 747.306 741.577 815.525 525.554 C 823.863 532.564 832.768 538.816 842.433 543.744 L 842.435 543.75 Z M 483.028 823.471 C 516 790.499 573.698 789.08 600.844 790.405 C 605.818 871.267 574.836 939.011 476.824 941.194 L 557.355 860.663 C 564.746 853.274 564.746 841.288 557.355 833.85 C 549.965 826.461 537.979 826.461 530.544 833.85 L 450.011 914.383 C 451.623 885.392 458.776 847.78 483.03 823.477 L 483.028 823.471 Z M 260.478 790.405 C 341.434 785.526 409.034 816.316 411.317 914.423 L 330.786 833.892 C 323.396 826.503 311.411 826.503 303.973 833.892 C 296.583 841.282 296.583 853.268 303.973 860.705 L 384.506 941.236 C 286.353 939.009 255.514 871.079 260.486 790.395 L 260.478 790.405 Z M 559.905 489.169 C 559.337 489.785 558.72 490.259 558.104 490.827 C 561.989 487.084 565.684 483.058 568.999 478.747 C 566.726 481.588 564.451 484.432 561.798 487.084 C 561.23 487.843 560.473 488.6 559.905 489.169 Z M 127.504 695.338 C 132.714 695.338 137.879 693.206 141.574 689.085 L 212.771 609.974 L 283.971 689.085 C 291.172 697.091 304.957 697.091 312.158 689.085 L 449.627 536.264 L 449.627 562.696 C 450.055 587.567 487.099 587.613 487.524 562.696 L 487.524 486.902 C 487.05 481.787 485.157 476.954 481.557 473.211 C 478.002 469.99 473.314 468.474 468.577 467.954 L 392.783 467.954 C 367.912 468.38 367.866 505.423 392.783 505.851 L 426.037 505.851 L 298.035 648.06 L 226.835 568.951 C 219.637 560.945 205.85 560.945 198.649 568.951 L 113.381 663.694 C 102.297 675.252 111.723 695.858 127.498 695.336 L 127.504 695.338 Z"/>
</svg>