<?xml version="1.0" encoding="utf-8"?>
<svg version="1.1" viewBox="0 0 1200 1200" xmlns="http://www.w3.org/2000/svg" width="150pt" height="150pt">
  <path d="M 348.988 653.76 C 341.637 645.959 355.016 636.275 360.41 645.33 C 364.59 652.279 354.457 659.517 348.988 653.76 Z M 1146.777 788.807 C 963.857 730.957 746.617 812.177 636.127 966.297 C 642.205 991.559 647.482 1009.664 678.127 1000.258 C 703.912 984.66 723.982 960.86 745.17 939.633 C 836.28 850.891 960.38 781.309 1090.71 786.973 C 1099.327 787.54 1099.46 800.274 1090.71 800.481 C 936.76 802.311 806.549 889.191 707.67 1001.801 C 731.47 994.137 976.648 1064.008 936.5 1088.828 C 910.504 1094.918 884.211 1100.324 857.781 1104.187 C 838.477 1108.495 826.957 1097.628 812.422 1088.347 C 814.461 1096.077 823.66 1108.601 810.621 1110.831 C 738.321 1119.698 665.544 1123.456 592.751 1125.327 C 559.291 1133.199 525.107 1128.237 492.896 1119.23 C 438.146 1130.956 381.177 1128.284 326.216 1119.28 C 317.083 1117.737 307.989 1115.964 298.962 1113.882 C 292.325 1112.351 283.434 1112.023 279.786 1105.589 C 272.685 1087.113 253.427 1079.429 234.587 1079.191 C 213.118 1078.16 191.954 1083.222 170.72 1085.472 C 127.74 1091.613 86.513 1070.738 43.72 1076.144 C 34.622 1077.527 28.919 1066.277 37.29 1060.898 C 97.19 1022.628 153.209 979.034 224.15 961.718 C 184.942 928.573 146.395 887.503 95.68 873.159 C 60.496 847.499 179 849.999 189.496 850.62 C 216.301 851.378 242.871 855.831 268.457 863.858 C 234.177 762.258 206.275 652.822 126.537 575.908 L 126.4 575.846 C 115.166 575.131 119.49 558.846 129.838 560.307 C 194.408 569.463 257.118 588.838 315.598 617.705 C 325.418 622.568 317.977 637.431 308.258 632.646 C 258.218 607.716 204.941 589.911 149.968 579.751 L 149.972 579.754 C 229.012 658.454 250.438 775.444 289.782 876.074 C 334.192 998.984 440.462 1132.106 585.552 1110.184 C 513.212 884.584 427.432 767.614 261.412 649.494 C 248.26 640.674 234.713 632.616 221.092 624.682 C 217.877 622.741 216.795 618.593 218.647 615.327 C 220.498 612.061 224.615 610.866 227.932 612.628 L 227.928 612.628 C 413.558 715.488 550.223 906.348 600.118 1104.678 C 620.325 1094.725 622.853 1068.647 620.634 1048.346 C 619.274 1007.263 607.485 967.361 591.114 929.896 C 548.944 832.036 473.763 744.978 389.634 683.076 C 387.552 681.56 386.271 679.177 386.153 676.603 C 386.036 674.025 387.099 671.537 389.036 669.837 C 392.127 667.259 396.58 667.13 399.806 669.533 L 399.802 669.537 C 426.028 688.259 452.329 708.208 474.122 730.478 C 460.263 681.716 441.97 632.966 402.997 598.888 C 397.037 593.677 403.517 585.138 410.197 586.529 C 498.157 608.109 565.139 683.364 603.967 762.059 C 593.389 656.399 581.146 549.713 572.639 492.799 C 563.846 435.359 529.201 385.281 475.299 391.199 C 460.693 392.332 453.525 389.097 451.01 374.031 C 444.713 347.289 448.443 279.922 490.291 293.508 C 518.959 306.903 524.174 360.407 540.99 387.528 C 546.744 395.141 552.044 403.09 556.873 411.325 L 556.876 411.325 C 547.083 363.705 539.325 281.23 488.927 258.445 C 475.263 246.999 452.54 248.933 437.325 250.648 C 427.813 251.847 416.876 253.968 408.571 247.769 C 394.548 237.308 398.368 210.379 404.97 196.781 C 414.11 177.953 436.048 169.996 453.661 182.605 C 468.895 194.492 481.61 237.918 521.989 263.789 C 514.419 237.824 505.52 212.277 497.45 186.496 C 489.942 153.059 439.434 149.282 443.141 117.137 C 444.438 78.411 516.251 46.419 525.825 96.36 C 528.544 114.164 527.18 134.137 519.423 149.684 C 512.938 162.383 511.856 177.164 516.426 190.672 C 532.734 237.656 548.946 300.999 550.285 306.312 C 552.637 295.3 555.856 284.488 559.91 273.98 C 562.5 267.042 562.496 259.401 559.899 252.468 L 559.895 252.472 C 552.79 231.944 554.059 193.784 576.02 189.464 C 587.474 185.694 597.923 192.874 605.122 201.163 C 617.122 214.983 643.005 244.889 624.321 262.362 C 621.11 265.377 607.407 267.893 595.583 269.456 C 536.278 279.276 578.958 433.311 580.2 443.026 C 585.587 412.253 585.946 372.202 602.114 345.534 C 615.395 323.569 636.481 334.049 643.602 347.807 C 650.434 361.632 661.535 403.921 648.703 415.284 C 639.484 424.651 626.899 420.257 615.379 422.624 C 610.18 423.683 592.106 432.804 591.293 473.843 C 593.621 474.723 611.863 718.333 634.359 857.943 C 638.683 797.623 654.457 739.028 678.191 682.903 C 682.547 660.602 687.598 627.621 671.172 609.383 C 663.191 601.902 654.914 594.129 654.711 593.504 C 640.836 580.051 650.508 562.215 660.645 549.047 C 670.868 535.758 689.938 513.594 708.04 512.758 C 754.716 510.608 687.747 593.359 698.122 640.558 C 716.434 605.165 737.993 571.548 762.52 540.138 L 762.52 540.142 C 769.828 524.451 783.07 483.728 765.898 472.103 C 744.516 458.138 734.071 425.021 763.02 413.826 C 786.973 402.654 819.161 419.65 805.239 447.357 C 801.719 458.712 789.871 470.646 789.684 483.63 C 789.926 492.286 789.371 500.942 788.016 509.493 C 804.48 490.904 822.047 473.325 840.621 456.845 C 847.23 451.029 850.905 442.571 850.648 433.771 L 850.644 433.767 C 850.159 419.075 851.011 402.876 851.011 402.876 C 852.237 333.966 982.753 386.977 924.546 435.696 C 910.437 446.559 892.148 452.348 874.148 455.161 C 853.535 458.528 811.914 508.661 795.734 525.462 C 806.476 520.684 819.691 522.989 829.683 516.794 C 848.913 501.818 902.753 492.173 898.261 535.482 C 896.55 554.583 880.703 585.419 857.527 570.521 C 847.332 563.967 838.554 553.826 830.23 544.123 C 816.663 528.622 794.534 540.802 780.054 548.802 C 775.198 551.9 770.956 555.869 767.534 560.501 C 749.487 584.606 733.163 609.954 718.686 636.356 C 729.058 627.876 788.526 591.716 797.581 587.411 C 806.788 583.036 818.202 580.228 827.624 585.697 C 853.757 601.705 846.265 674.08 806.882 660.576 C 796.374 656.576 780.651 646.275 769.921 638.814 C 765.83 635.958 761.01 634.329 756.026 634.118 C 751.041 633.904 746.096 635.118 741.78 637.614 L 741.784 637.618 C 679.124 676.098 659.924 778.314 649.956 847.888 C 713.566 770.209 807.586 687.83 914.586 697.318 C 919.484 698.01 922.343 704.366 921.05 708.705 C 914.237 731.135 904.495 752.564 892.077 772.447 L 892.077 772.451 C 980.907 747.194 1076.016 745.616 1162.457 776.729 C 1198.717 789.369 998.856 956.582 979.118 973.969 C 976.879 976.211 973.61 977.074 970.555 976.234 C 933.672 962.886 902.738 980.168 882.297 1014.945 C 877.649 1022.473 866.004 1015.211 870.52 1007.746 C 891.577 966.664 923.468 943.938 971.05 957.75 C 1032.91 904.68 1096.71 853.544 1146.8 788.79 Z M 293.815 1095.23 C 325.112 1103.269 357.096 1108.359 389.342 1110.429 L 389.346 1110.429 C 382.174 1089.703 362.28 1075.894 346.944 1061.359 C 332.429 1047.617 319.366 1032.418 307.964 1016 L 307.964 1016.004 C 241.724 1018.469 177.268 1034.774 114.284 1054.215 C 108.714 1055.562 104.929 1047.5 110.288 1044.734 C 144.28 1027.191 184.808 1018.281 222.128 1011.148 C 247.355 1006.344 272.847 1003.063 298.472 1001.32 C 292.445 991.379 287.047 981.066 282.316 970.445 C 202.268 972.731 134.377 1016.024 70.71 1059.109 C 110.596 1063.894 149.498 1073.957 189.85 1066.082 C 224.355 1061.117 277.504 1056.242 293.82 1095.23 Z M 662.774 1047.605 C 663.867 1068.945 659.425 1090.207 649.879 1109.324 L 649.879 1109.332 C 700.369 1107.191 750.798 1103.699 801.009 1097.859 C 798.899 1092.078 796.864 1086.277 794.993 1080.41 C 793.431 1063.285 820.525 1075.015 827.673 1080.41 C 838.611 1088.308 844.47 1092.074 858.392 1089.937 C 877.88 1086.941 897.274 1083.179 916.54 1078.941 C 841.1 1033.386 746.227 1015.347 662.77 1047.605 Z"/>
</svg>