<?xml version="1.0" encoding="UTF-8" standalone="no"?>
<!DOCTYPE svg PUBLIC "-//W3C//DTD SVG 1.1//EN" "http://www.w3.org/Graphics/SVG/1.1/DTD/svg11.dtd">
<svg width="100%" height="100%" viewBox="0 0 150 150" version="1.1" xmlns="http://www.w3.org/2000/svg" xmlns:xlink="http://www.w3.org/1999/xlink" xml:space="preserve" xmlns:serif="http://www.serif.com/" style="fill-rule:evenodd;clip-rule:evenodd;stroke-linejoin:round;stroke-miterlimit:2;">
    <g transform="matrix(0.131869,0,0,0.131869,-4.12199,-4.11356)">
        <path d="M657.14,866.95L657.843,866.528C658.453,866.247 659.015,865.966 659.624,865.731C668.624,861.278 677.296,856.403 685.64,851.059C686.062,850.778 686.531,850.45 687,850.215C697.734,843.278 707.953,835.637 717.516,827.293C717.891,826.918 718.313,826.59 718.688,826.262C734.297,812.621 748.219,797.246 760.313,780.512C772.407,763.731 782.625,745.59 790.735,726.418C790.875,726.043 791.016,725.668 791.203,725.34C807.094,687.137 814.5,644.902 811.359,601.4C811.219,600.556 811.125,599.666 811.125,598.822L811.125,598.635C810.516,591.463 809.672,584.244 808.5,576.979C804.844,554.291 798.469,532.729 789.797,512.526C789.422,511.822 789.094,511.119 788.859,510.322C768.984,465.181 737.531,427.072 698.718,399.092C679.687,385.358 658.921,374.061 636.937,365.576C636.656,365.483 636.375,365.342 636.094,365.248C601.453,352.029 563.719,345.701 524.904,347.764C524.201,347.858 523.498,347.905 522.794,347.905L522.466,347.905C513.419,348.467 504.325,349.452 495.232,350.952C472.591,354.608 451.029,360.983 430.873,369.608C430.264,369.889 429.654,370.17 429.045,370.405C383.717,390.233 345.467,421.827 317.345,460.733C276.423,517.452 257.111,589.783 269.157,664.263C273.048,688.451 280.032,711.325 289.595,732.654C290.017,733.357 290.345,734.107 290.626,734.951C303.423,762.748 320.626,787.826 341.298,809.389C342.048,810.045 342.751,810.748 343.361,811.498C354.33,822.701 366.283,833.014 378.986,842.154C431.064,879.748 496.266,899.06 564.276,892.685C565.166,892.498 566.104,892.404 566.995,892.404C572.151,891.888 577.354,891.185 582.557,890.341C608.995,886.029 634.073,878.013 657.135,866.95L657.14,866.95ZM355.45,611.76C362.341,603.885 369.653,596.572 377.388,589.869C422.294,550.775 480.368,531.416 538.258,531.51C596.196,531.651 654.038,551.244 698.618,590.01C706.352,596.76 713.665,604.026 720.556,611.948C725.759,617.948 725.572,626.807 720.415,632.573C713.572,640.401 706.306,647.667 698.618,654.323C654.087,693.135 596.198,712.729 538.258,712.823C480.367,712.917 422.338,693.604 377.388,654.464C369.607,647.714 362.247,640.355 355.31,632.386C350.154,626.386 350.295,617.527 355.451,611.761L355.45,611.76ZM579.89,580.213C590.624,590.947 597.281,605.76 597.281,622.166C597.281,638.525 590.625,653.385 579.89,664.119C569.155,674.853 554.343,681.463 537.984,681.463C521.578,681.463 506.765,674.854 496.031,664.119C485.297,653.384 478.64,638.572 478.64,622.166C478.64,605.807 485.296,590.947 496.031,580.213C506.766,569.479 521.578,562.869 537.984,562.869C554.343,562.822 569.156,569.478 579.89,580.213ZM459.79,667.729C437.384,659.291 416.337,647.057 397.868,630.979C394.634,628.166 391.446,625.213 388.399,622.166C391.446,619.12 394.634,616.166 397.868,613.354C416.337,597.276 437.384,585.042 459.79,576.604C451.962,589.963 447.509,605.526 447.509,622.166C447.462,638.807 451.962,654.322 459.79,667.728L459.79,667.729ZM616.16,576.698C638.613,585.182 659.707,597.464 678.176,613.495C681.363,616.261 684.457,619.167 687.504,622.167C684.457,625.167 681.363,628.073 678.176,630.839C659.707,646.87 638.66,659.151 616.16,667.636C623.941,654.277 628.394,638.714 628.394,622.167C628.394,605.573 623.941,590.058 616.16,576.698L616.16,576.698ZM333.37,472.358C371.339,419.764 429.323,381.702 498.42,370.498C567.42,359.342 634.45,377.248 687,415.17C739.594,453.139 777.656,511.123 788.86,580.22C800.016,649.22 782.11,716.25 744.188,768.8C706.219,821.394 648.235,859.503 579.138,870.66C510.138,881.816 443.108,863.957 390.558,825.988C337.964,788.019 299.855,730.035 288.698,660.938C277.542,591.938 295.448,524.958 333.37,472.358ZM733.16,334.358C747.222,362.061 758.894,390.936 768.129,420.608C752.801,403.077 735.598,387.42 716.848,373.874C706.77,366.608 696.27,359.952 685.395,353.952C701.567,348.28 717.504,341.764 733.161,334.358L733.16,334.358ZM993.6,939.748C986.616,934.732 985.069,925.029 990.084,918.092C995.1,911.108 1004.8,909.561 1011.74,914.576L1125.83,996.888C1132.82,1001.9 1134.36,1011.61 1129.35,1018.54C1124.33,1025.48 1114.63,1027.08 1107.69,1022.06L993.6,939.748ZM966.788,976.967L1080.88,1059.33C1087.86,1064.34 1097.52,1062.75 1102.53,1055.81C1107.55,1048.83 1105.96,1039.17 1099.02,1034.15L984.928,951.842C977.944,946.827 968.287,948.42 963.272,955.358C958.257,962.249 959.804,971.952 966.788,976.967ZM503.288,401.207C563.897,391.41 622.768,407.113 668.898,440.395C714.976,473.676 748.398,524.536 758.195,585.105C767.992,645.714 752.289,704.585 719.007,750.665C685.725,796.745 634.866,830.165 574.297,839.962C513.688,849.759 454.817,834.056 408.687,800.774C362.609,767.493 329.14,716.633 319.39,656.064C309.593,595.455 325.296,536.584 358.578,490.454C391.859,444.423 442.719,411.001 503.288,401.204L503.288,401.207ZM275.758,467.629C241.539,526.363 226.727,596.819 238.399,669.099C241.774,689.911 247.165,709.833 254.337,728.818L216.837,707.162L229.54,659.818C230.571,655.974 230.149,651.709 227.993,648.006L185.477,574.412L185.43,574.412C181.165,567.006 171.696,564.475 164.289,568.74L114.367,597.568L31.258,597.568C31.305,586.646 31.633,576.099 32.336,565.834C32.711,560.444 33.133,555.1 33.649,549.85C55.446,559.459 79.258,561.569 101.618,556.975C127.868,551.584 152.196,536.866 169.212,513.944C171.79,510.475 174.181,506.866 176.29,503.116C187.54,483.616 205.634,470.585 225.743,465.194C241.962,460.788 259.446,461.397 275.759,467.632L275.758,467.629ZM181.492,245.069C213.508,275.022 248.195,300.1 284.712,320.21C266.618,355.132 251.806,392.351 240.743,431.4C232.962,431.822 225.227,433.041 217.727,435.056C190.258,442.416 165.555,460.134 149.993,486.478C149.571,487.088 149.196,487.744 148.915,488.353C147.462,490.838 145.868,493.181 144.274,495.384C131.993,511.978 114.415,522.618 95.43,526.509C76.399,530.4 56.055,527.634 38.242,517.369L38.008,517.228C55.727,411.148 107.383,316.548 181.488,245.068L181.492,245.069ZM272.289,434.169C282.555,399.2 296.055,365.778 312.367,334.372C334.586,344.872 357.414,353.638 380.523,360.669C346.07,381.669 316.445,409.185 293.007,441.2C286.257,438.153 279.319,435.809 272.288,434.169L272.289,434.169ZM327.508,307.139C358.117,321.436 389.899,332.217 422.242,339.483C443.664,330.624 466.398,324.108 490.258,320.217C495.883,319.326 501.508,318.576 507.133,317.967L507.18,125.867C455.477,156.383 409.305,196.742 370.82,244.647C355.023,264.241 340.586,285.147 327.508,307.131L327.508,307.139ZM474.228,109.699C371.898,119.73 278.758,161.121 204.648,224.119C234.226,251.588 266.242,274.557 299.804,293.025C313.866,269.119 329.523,246.431 346.632,225.15C383.101,179.728 426.179,140.634 474.232,109.7L474.228,109.699ZM642.888,334.649C668.529,327.711 693.747,318.477 718.31,306.993C711.513,295.321 704.248,283.884 696.56,272.774C656.248,214.508 603.513,163.934 538.4,125.824L538.4,316.324C574.681,316.183 609.978,322.652 642.88,334.652L642.888,334.649ZM840.888,224.119C813.466,249.525 783.982,271.135 752.95,288.947C750.653,290.259 748.356,291.572 746.012,292.838C738.559,279.947 730.59,267.385 722.106,255.057C682.965,198.479 632.809,148.747 571.636,109.657C673.776,119.782 766.776,161.173 840.896,224.127L840.888,224.119ZM1014,583.229L840.788,583.229C840.319,579.526 839.804,575.823 839.194,572.12C835.163,547.136 828.178,523.37 818.663,501.104C808.913,438.245 789.647,376.924 760.866,320.264C763.397,318.858 765.882,317.451 768.413,315.998C802.069,296.686 834.179,273.014 863.991,245.076L870.319,251.264C955.819,336.811 1009.96,453.714 1014,583.234L1014,583.229ZM769.358,945.759C749.905,949.04 729.467,947.212 710.202,939.712C709.686,939.525 709.124,939.337 708.608,939.056C703.827,937.134 699.139,934.837 694.546,932.165C685.171,926.728 676.874,920.212 669.796,912.899C665.906,908.868 662.343,904.602 659.155,900.149C636.608,909.805 612.561,916.93 587.249,921.008C582.89,921.711 578.53,922.321 574.218,922.836L542.062,954.992L542.015,954.945C537.14,959.82 529.453,960.992 523.218,957.383L491.624,939.149L414.468,983.68L414.468,1050.99L414.421,1050.99C414.421,1056.34 411.656,1061.59 406.687,1064.44L392.296,1072.74C433.827,1084.13 477.562,1090.23 522.746,1090.23C590.48,1090.23 654.936,1076.49 713.526,1051.74C729.182,1045.13 744.464,1037.73 759.229,1029.57L755.807,1026.15C751.542,1021.84 750.276,1015.7 752.01,1010.3L769.358,945.759ZM271.548,1021.37L271.548,941.259L337.876,902.962C343.079,900.431 346.642,895.134 346.642,888.946L346.642,856.602C351.235,860.352 355.923,863.914 360.704,867.383C392.766,890.539 429.329,907.461 468.374,916.742L392.108,960.758C386.904,963.289 383.342,968.633 383.342,974.774L383.342,1042.09L352.358,1059.94C324.092,1049.54 297.092,1036.55 271.546,1021.37L271.548,1021.37ZM32.158,628.738L118.408,628.738C121.783,628.738 124.877,627.66 127.455,625.879L166.314,603.426L197.814,657.988L183.705,710.629C181.783,717.847 185.252,725.207 191.627,728.488L245.627,759.66C249.33,761.816 253.596,762.238 257.439,761.207L257.439,761.253L267.517,758.535C280.361,783.847 296.579,806.91 315.517,827.301L315.517,879.895L248.158,918.754C243.189,921.613 240.423,926.863 240.377,932.207L240.33,932.207L240.33,1001.07C217.033,984.707 195.236,966.378 175.174,946.269C92.862,864.003 39.614,752.529 32.154,628.739L32.158,628.738ZM959.678,824.158L911.819,789.611C904.835,784.595 895.178,786.189 890.163,793.127L858.897,836.486C851.725,840.986 845.022,846.329 838.928,852.424C832.272,859.127 826.366,866.815 821.35,875.486L821.303,875.486C815.397,885.658 807.662,894.095 798.709,900.611C791.959,896.064 785.068,891.704 778.131,887.486C781.834,886.736 785.209,884.626 787.6,881.345L864.616,774.655C869.632,767.671 868.038,758.014 861.1,752.999L824.162,726.327C837.193,691.218 843.896,653.389 843.053,614.387L1014.05,614.387C1012.88,651.934 1007.54,688.309 998.491,723.087C989.257,758.431 976.179,792.275 959.679,824.147L959.678,824.158ZM761.958,843.658L752.724,837.002C764.724,825.143 775.693,812.299 785.536,798.658C795.379,785.017 804.098,770.58 811.552,755.486L830.349,769.08L771.521,850.596L763.364,844.69C762.943,844.315 762.474,843.986 761.958,843.658L761.958,843.658ZM726.427,860.205C727.271,859.502 728.161,858.846 728.958,858.189L733.833,861.705L733.036,863.299C730.88,862.221 728.677,861.189 726.427,860.205L726.427,860.205ZM739.646,915.424C741.802,911.862 743.912,908.299 746.021,904.736C752.021,908.017 757.974,911.486 763.88,915.095C755.911,916.408 747.708,916.548 739.646,915.423L739.646,915.424ZM687.615,886.08C690.568,884.439 693.474,882.752 696.334,881.017C703.693,884.017 711.006,887.205 718.225,890.58C715.412,895.408 712.506,900.236 709.553,904.971C703.084,901.174 697.319,896.58 692.256,891.33C690.615,889.642 689.068,887.908 687.615,886.08L687.615,886.08ZM819.805,923.721C815.071,927.377 810.102,930.658 804.899,933.471L784.227,1010.58L786.899,1013.25C813.852,996.002 838.977,976.221 862.04,954.236L819.805,923.721ZM882.383,856.971C882.289,857.112 882.149,857.252 882.055,857.44L847.461,905.393L879.617,928.596L938.445,847.08L906.289,823.877L882.383,856.971ZM904.789,946.783L1091.21,1081.31C1108.88,1094.06 1127.54,1091.95 1141.98,1082.39C1147.98,1078.41 1153.32,1073.2 1157.58,1067.3C1161.85,1061.39 1165.13,1054.69 1167.01,1047.66C1171.55,1030.97 1167.66,1012.55 1150.08,999.89L963.614,865.26L904.789,946.783Z"/>
    </g>
</svg>
