<!-- Generated by IcoMoon.io -->
<svg version="1.1" xmlns="http://www.w3.org/2000/svg" width="32" height="32" viewBox="0 0 32 32">
<path d="M17.607 23.512l0.020-0.012c0.017-0.008 0.033-0.016 0.050-0.022 0.253-0.125 0.497-0.262 0.732-0.413 0.012-0.008 0.025-0.017 0.038-0.024 0.302-0.195 0.589-0.41 0.858-0.645 0.011-0.011 0.022-0.020 0.033-0.029 0.439-0.384 0.831-0.816 1.171-1.287 0.34-0.472 0.628-0.982 0.856-1.522 0.004-0.011 0.008-0.021 0.013-0.030 0.447-1.075 0.655-2.263 0.567-3.487-0.004-0.024-0.007-0.049-0.007-0.073v-0.005c-0.017-0.202-0.041-0.405-0.074-0.609-0.103-0.638-0.282-1.245-0.526-1.813-0.011-0.020-0.020-0.040-0.026-0.062-0.559-1.27-1.444-2.342-2.536-3.129-0.535-0.386-1.12-0.704-1.738-0.943-0.008-0.003-0.016-0.007-0.024-0.009-0.975-0.372-2.036-0.55-3.128-0.492-0.020 0.003-0.040 0.004-0.059 0.004h-0.009c-0.255 0.016-0.51 0.044-0.766 0.086-0.637 0.103-1.244 0.282-1.811 0.525-0.017 0.008-0.034 0.016-0.051 0.022-1.275 0.558-2.351 1.447-3.142 2.541-1.151 1.596-1.694 3.63-1.356 5.726 0.109 0.68 0.306 1.324 0.575 1.924 0.012 0.020 0.021 0.041 0.029 0.065 0.36 0.782 0.844 1.487 1.425 2.094 0.021 0.018 0.041 0.038 0.058 0.059 0.309 0.315 0.645 0.605 1.002 0.862 1.465 1.058 3.299 1.601 5.213 1.422 0.025-0.005 0.051-0.008 0.076-0.008 0.145-0.015 0.291-0.034 0.438-0.058 0.744-0.121 1.449-0.347 2.098-0.658h0zM9.12 16.332l0 0c-0.145 0.162-0.149 0.411-0.004 0.58 0.195 0.224 0.402 0.431 0.621 0.621 1.265 1.101 2.897 1.644 4.526 1.642 1.63-0.003 3.259-0.554 4.511-1.646 0.216-0.187 0.421-0.392 0.613-0.612 0.145-0.162 0.15-0.411 0.004-0.58-0.194-0.223-0.4-0.427-0.617-0.617-1.254-1.091-2.881-1.642-4.511-1.646-1.629-0.003-3.262 0.542-4.526 1.642-0.218 0.189-0.423 0.394-0.617 0.616zM15.434 15.445c-0.302-0.302-0.719-0.489-1.179-0.488-0.462 0-0.878 0.186-1.18 0.488s-0.489 0.72-0.489 1.18c0 0.462 0.187 0.878 0.489 1.18s0.719 0.488 1.18 0.488c0.46 0 0.877-0.186 1.179-0.488s0.489-0.72 0.489-1.18c0-0.462-0.187-0.878-0.489-1.18zM12.055 17.907v-0c-0.22-0.377-0.347-0.814-0.345-1.282 0-0.468 0.125-0.906 0.345-1.282-0.63 0.237-1.222 0.582-1.742 1.034-0.091 0.079-0.181 0.162-0.266 0.248 0.086 0.086 0.175 0.169 0.266 0.248 0.52 0.452 1.112 0.796 1.742 1.034zM16.454 15.346v0c0.219 0.376 0.344 0.812 0.344 1.279 0 0.465-0.125 0.903-0.344 1.279 0.633-0.239 1.225-0.584 1.745-1.035 0.090-0.078 0.177-0.16 0.262-0.244-0.086-0.084-0.173-0.166-0.262-0.244-0.52-0.451-1.113-0.796-1.745-1.035zM8.499 12.411c1.068-1.48 2.699-2.55 4.643-2.866 1.941-0.314 3.827 0.19 5.305 1.257 1.48 1.068 2.55 2.699 2.866 4.643 0.314 1.941-0.19 3.827-1.257 5.305-1.068 1.48-2.699 2.552-4.643 2.866-1.941 0.314-3.827-0.189-5.305-1.257-1.48-1.068-2.552-2.699-2.866-4.643-0.314-1.941 0.19-3.825 1.257-5.305zM19.746 8.529h0c-0.44 0.208-0.889 0.392-1.344 0.551 0.306 0.169 0.601 0.356 0.885 0.56 0.527 0.381 1.011 0.822 1.443 1.315-0.26-0.835-0.588-1.647-0.984-2.426zM27.073 25.559c-0.196-0.141-0.24-0.414-0.099-0.609 0.141-0.196 0.414-0.24 0.609-0.099l3.21 2.316c0.197 0.141 0.24 0.414 0.099 0.609s-0.414 0.24-0.609 0.099l-3.21-2.316zM26.318 26.607c-0.196-0.141-0.24-0.414-0.099-0.608 0.141-0.195 0.413-0.24 0.609-0.099l3.21 2.316c0.195 0.141 0.24 0.413 0.099 0.609-0.141 0.195-0.413 0.24-0.609 0.099l-3.21-2.317zM13.279 10.409c1.705-0.276 3.361 0.166 4.659 1.102 1.296 0.936 2.236 2.367 2.512 4.071 0.276 1.705-0.166 3.361-1.102 4.658s-2.367 2.236-4.071 2.512c-1.705 0.276-3.361-0.166-4.659-1.102-1.296-0.936-2.238-2.367-2.512-4.071-0.276-1.705 0.166-3.361 1.102-4.659 0.936-1.295 2.367-2.235 4.071-2.511v0zM6.878 12.278l0 0c-0.459-0.175-0.951-0.193-1.407-0.069-0.566 0.152-1.075 0.518-1.391 1.067-0.059 0.105-0.127 0.207-0.199 0.305-0.479 0.645-1.163 1.059-1.902 1.211-0.629 0.129-1.299 0.070-1.912-0.2-0.015 0.148-0.026 0.298-0.037 0.45-0.020 0.289-0.029 0.585-0.030 0.893h2.338l1.404-0.811c0.208-0.12 0.475-0.049 0.595 0.16h0.001l1.196 2.070c0.061 0.104 0.073 0.224 0.044 0.332l-0.357 1.332 1.055 0.609c-0.202-0.534-0.353-1.095-0.448-1.68-0.328-2.033 0.088-4.015 1.051-5.668zM4.226 6.017l-0-0c-2.085 2.011-3.538 4.672-4.036 7.656l0.007 0.004c0.501 0.289 1.073 0.367 1.609 0.257 0.534-0.109 1.029-0.409 1.374-0.876 0.045-0.062 0.090-0.128 0.131-0.198 0.008-0.017 0.018-0.036 0.030-0.053 0.438-0.741 1.133-1.24 1.905-1.447 0.211-0.057 0.429-0.091 0.647-0.103 0.311-1.099 0.728-2.146 1.237-3.128-1.027-0.566-2.003-1.271-2.904-2.114zM6.781 11.336h-0c0.198 0.046 0.393 0.112 0.583 0.198 0.659-0.901 1.493-1.675 2.462-2.265-0.65-0.198-1.292-0.444-1.917-0.74-0.459 0.883-0.839 1.824-1.127 2.808zM8.334 7.763v-0c0.368-0.618 0.774-1.207 1.218-1.758 1.083-1.348 2.382-2.483 3.836-3.342l-0.001 5.404c-0.158 0.017-0.316 0.038-0.475 0.063-0.671 0.109-1.311 0.293-1.913 0.542-0.91-0.204-1.804-0.508-2.665-0.91zM12.462 2.208l0 0c-1.352 0.87-2.564 1.97-3.59 3.248-0.481 0.599-0.922 1.237-1.317 1.909-0.944-0.52-1.845-1.166-2.677-1.938 2.085-1.772 4.705-2.937 7.584-3.219zM17.206 8.537l-0 0c-0.926-0.338-1.919-0.52-2.939-0.516v-5.359c1.832 1.072 3.315 2.495 4.449 4.134 0.216 0.313 0.421 0.634 0.612 0.963-0.691 0.323-1.4 0.583-2.122 0.778zM22.777 5.427l0 0c-2.085-1.771-4.701-2.935-7.575-3.22 1.721 1.1 3.132 2.499 4.233 4.090 0.239 0.347 0.463 0.7 0.673 1.063 0.066-0.036 0.131-0.073 0.195-0.109 0.873-0.501 1.702-1.109 2.474-1.824zM27.647 15.53v0c-0.114-3.644-1.637-6.932-4.042-9.339l-0.178-0.174c-0.839 0.786-1.742 1.452-2.689 1.995-0.071 0.041-0.141 0.080-0.212 0.12 0.81 1.594 1.352 3.319 1.626 5.087 0.268 0.626 0.464 1.295 0.578 1.998 0.017 0.104 0.032 0.208 0.045 0.313h4.873zM20.764 25.729l-0.488 1.816c-0.049 0.152-0.013 0.325 0.107 0.446l0.096 0.096c-0.415 0.23-0.845 0.438-1.286 0.624-1.648 0.696-3.462 1.083-5.367 1.083-1.271 0-2.501-0.172-3.67-0.492l0.405-0.233c0.14-0.080 0.218-0.228 0.218-0.378h0.001v-1.894l2.171-1.253 0.889 0.513c0.175 0.102 0.392 0.069 0.529-0.069l0.001 0.001 0.905-0.905c0.121-0.015 0.244-0.032 0.367-0.051 0.712-0.115 1.389-0.315 2.023-0.587 0.090 0.125 0.19 0.245 0.299 0.359 0.199 0.206 0.433 0.389 0.696 0.542 0.129 0.075 0.261 0.14 0.396 0.194 0.015 0.008 0.030 0.013 0.045 0.018 0.542 0.211 1.117 0.262 1.664 0.17zM6.76 27.856h-0c0.719 0.427 1.478 0.792 2.273 1.085l0.872-0.502v-1.894c0-0.173 0.1-0.323 0.247-0.394l2.146-1.238c-1.098-0.261-2.127-0.737-3.029-1.389-0.134-0.098-0.266-0.198-0.396-0.303v0.91c0 0.174-0.1 0.323-0.247 0.394l-1.866 1.077v2.254zM0.025 16.81l-0 0c0.21 3.482 1.708 6.618 4.023 8.933 0.564 0.566 1.178 1.081 1.833 1.542v-1.937h0.001c0.001-0.15 0.079-0.298 0.219-0.378l1.895-1.093v-1.48c-0.533-0.574-0.989-1.222-1.35-1.935l-0.284 0.076v-0.001c-0.108 0.029-0.228 0.017-0.332-0.044l-1.519-0.877c-0.179-0.092-0.277-0.299-0.223-0.502l0.397-1.481-0.886-1.535-1.093 0.632c-0.073 0.050-0.16 0.080-0.255 0.080h-2.426zM26.118 22.308l0-0c0.464-0.897 0.832-1.849 1.092-2.843 0.255-0.978 0.405-2.002 0.438-3.058h-4.811c0.024 1.097-0.165 2.161-0.531 3.149l1.039 0.75c0.195 0.141 0.24 0.413 0.099 0.609l-2.167 3.001c-0.067 0.092-0.162 0.152-0.266 0.173 0.195 0.119 0.389 0.241 0.579 0.369 0.252-0.183 0.469-0.421 0.636-0.707h0.001c0.141-0.244 0.307-0.46 0.494-0.649 0.171-0.171 0.36-0.322 0.562-0.448l0.88-1.22c0.141-0.195 0.413-0.24 0.609-0.099l1.346 0.972zM20.556 22.856v0c0.015 0.009 0.028 0.018 0.040 0.029l0.229 0.166 1.655-2.293-0.529-0.382c-0.21 0.425-0.455 0.831-0.732 1.215s-0.585 0.745-0.923 1.079l0.26 0.187zM19.557 23.322v0c0.063 0.028 0.125 0.057 0.186 0.087l0.022-0.045-0.137-0.099c-0.022 0.018-0.047 0.037-0.071 0.057zM19.928 24.875v-0c0.227 0.032 0.458 0.028 0.682-0.009-0.166-0.102-0.334-0.199-0.502-0.291-0.059 0.1-0.119 0.2-0.179 0.301zM18.465 24.050v0c0.041 0.051 0.084 0.1 0.131 0.148 0.142 0.148 0.305 0.277 0.487 0.384 0.083-0.133 0.165-0.269 0.244-0.405-0.203-0.095-0.409-0.185-0.616-0.269-0.080 0.049-0.162 0.096-0.245 0.142zM22.183 25.109l1.188 0.858c-0.649 0.618-1.356 1.175-2.114 1.66l-0.075-0.075 0.582-2.169c0.146-0.079 0.286-0.171 0.419-0.274zM23.944 23.231l0.673-0.931 0.905 0.653-1.655 2.293-0.905-0.653 0.973-1.349c0.003-0.005 0.007-0.009 0.009-0.013zM24.574 25.757l5.244 3.785c0.497 0.359 1.022 0.299 1.428 0.030 0.169-0.112 0.319-0.259 0.439-0.424s0.212-0.355 0.265-0.552c0.128-0.47 0.018-0.988-0.476-1.344l-5.246-3.787-1.655 2.293z"></path>
</svg>
