<!-- Generated by IcoMoon.io -->
<svg version="1.1" xmlns="http://www.w3.org/2000/svg" width="32" height="32" viewBox="0 0 32 32">
<path d="M10.394 18.486l-0.006 0.013c0.164 0.002 0.328 0.036 0.483 0.102 0.156 0.064 0.303 0.164 0.429 0.294 0.257 0.264 0.386 0.611 0.386 0.956 0 0.347-0.129 0.692-0.386 0.956s-0.595 0.396-0.931 0.396c-0.338 0-0.674-0.132-0.931-0.396-0.127-0.132-0.222-0.281-0.286-0.441-0.064-0.158-0.097-0.328-0.1-0.496v-0.066l-0.002-0.008v-0.026l-0.002-0.004v-0.004l-0.006-0.026-0.004-0.008-0.002-0.009-0.002-0.006-0.025-0.051-0.004-0.006-0.008-0.017-0.006-0.008-0.004-0.009-0.006-0.006-0.004-0.006-0.006-0.006c-0.004-0.006-0.008-0.011-0.012-0.015-0.137-0.138-0.357-0.138-0.492 0l-2.269 2.33-2.269-2.33c-0.137-0.138-0.357-0.138-0.492 0-0.099 0.102-0.127 0.249-0.081 0.375-0.008 0.145-0.042 0.288-0.095 0.424-0.062 0.16-0.16 0.311-0.286 0.441-0.257 0.264-0.595 0.396-0.931 0.396-0.338 0-0.674-0.132-0.931-0.396s-0.386-0.611-0.386-0.956c0-0.347 0.129-0.692 0.386-0.956 0.129-0.13 0.274-0.228 0.429-0.294 0.164-0.068 0.336-0.102 0.508-0.102 0.191 0 0.346-0.16 0.346-0.356 0-0.1-0.042-0.192-0.106-0.256-0.006-0.009-0.012-0.015-0.019-0.021l-2.269-2.33 6.196-6.363 1.827 1.877-0.062 0.026c-0.239 0.102-0.463 0.251-0.655 0.449-0.392 0.403-0.589 0.931-0.589 1.459s0.197 1.056 0.589 1.459c0.392 0.403 0.906 0.605 1.421 0.605s1.029-0.202 1.421-0.605c0.193-0.198 0.34-0.428 0.438-0.673l0.025-0.064 1.78 1.828-2.269 2.33c-0.135 0.141-0.135 0.366 0 0.505l0.019 0.019 0.008 0.006 0.006 0.006 0.008 0.004 0.006 0.004 0.004 0.004 0.004 0.002 0.006 0.004 0.041 0.021c0.006 0.002 0.010 0.004 0.014 0.006l0.008 0.004 0.008 0.002 0.008 0.004 0.006 0.002 0.017 0.004h0.004l0.004 0.002h0.1zM17.079 25.354c0.164 0.002 0.33 0.036 0.483 0.102 0.156 0.066 0.301 0.164 0.429 0.294 0.257 0.264 0.386 0.609 0.386 0.956 0 0.345-0.129 0.692-0.386 0.956s-0.593 0.396-0.931 0.396c-0.336 0-0.674-0.132-0.931-0.396-0.127-0.13-0.224-0.281-0.286-0.441-0.064-0.16-0.097-0.328-0.1-0.496 0.006-0.1-0.027-0.2-0.102-0.277-0.135-0.138-0.355-0.138-0.492 0l-2.269 2.33-2.269-2.33c-0.135-0.138-0.355-0.138-0.492 0-0.1 0.102-0.127 0.249-0.081 0.375-0.010 0.145-0.041 0.288-0.095 0.424-0.064 0.16-0.16 0.309-0.286 0.441-0.257 0.264-0.593 0.396-0.931 0.396-0.336 0-0.674-0.132-0.931-0.396s-0.386-0.609-0.386-0.956c0-0.345 0.129-0.692 0.386-0.956 0.127-0.13 0.274-0.23 0.429-0.294 0.162-0.068 0.336-0.102 0.508-0.102 0.191 0 0.346-0.158 0.346-0.356 0-0.1-0.039-0.192-0.106-0.256-0.006-0.006-0.012-0.015-0.019-0.021l-2.269-2.33 1.804-1.853 0.025 0.064c0.097 0.245 0.245 0.475 0.438 0.673 0.392 0.403 0.906 0.605 1.421 0.605s1.029-0.202 1.421-0.605c0.392-0.403 0.589-0.931 0.589-1.459s-0.197-1.057-0.589-1.459c-0.193-0.198-0.417-0.347-0.655-0.449l-0.062-0.026 1.804-1.853 1.827 1.877-0.062 0.026c-0.239 0.1-0.463 0.251-0.655 0.45-0.392 0.403-0.589 0.931-0.589 1.459s0.197 1.056 0.589 1.459c0.392 0.403 0.906 0.605 1.421 0.605s1.029-0.202 1.421-0.605c0.193-0.198 0.338-0.428 0.438-0.673l0.025-0.064 1.78 1.828-2.269 2.33c-0.135 0.138-0.135 0.364 0 0.505 0.075 0.077 0.172 0.111 0.27 0.104h0.004zM17.079 11.621c0.164 0.002 0.33 0.036 0.483 0.102 0.156 0.066 0.301 0.164 0.429 0.294 0.257 0.264 0.386 0.609 0.386 0.956 0 0.345-0.129 0.692-0.386 0.956s-0.593 0.396-0.931 0.396c-0.336 0-0.674-0.132-0.931-0.396-0.127-0.13-0.224-0.281-0.286-0.441-0.064-0.16-0.097-0.328-0.1-0.496 0.006-0.1-0.027-0.2-0.102-0.277-0.135-0.138-0.355-0.138-0.492 0l-2.269 2.33-2.269-2.33c-0.135-0.138-0.355-0.138-0.492 0-0.1 0.102-0.127 0.249-0.081 0.375-0.010 0.145-0.041 0.288-0.095 0.424-0.064 0.16-0.16 0.309-0.286 0.441-0.257 0.264-0.593 0.396-0.931 0.396-0.336 0-0.674-0.132-0.931-0.396s-0.386-0.609-0.386-0.956c0-0.345 0.129-0.692 0.386-0.956 0.127-0.13 0.274-0.23 0.429-0.294 0.156-0.066 0.319-0.1 0.483-0.102 0.098 0.006 0.195-0.028 0.27-0.104 0.135-0.138 0.135-0.364 0-0.505l-2.292-2.354 6.196-6.363 1.827 1.877-0.062 0.026c-0.239 0.1-0.462 0.251-0.655 0.449-0.392 0.403-0.589 0.931-0.589 1.459s0.197 1.057 0.589 1.459c0.392 0.403 0.906 0.605 1.421 0.605s1.029-0.202 1.421-0.605c0.193-0.198 0.338-0.428 0.438-0.673l0.025-0.064 1.78 1.828-2.269 2.33c-0.135 0.138-0.135 0.364 0 0.505 0.075 0.077 0.172 0.111 0.27 0.104l0.004 0z"></path>
<path d="M28.664 10.956l0 0c-0.007-0.233 0.046-0.429 0.132-0.54 0.018-0.024 0.032-0.037 0.038-0.039 0.004-0.002-0.004 0.004 0.005 0.008 0.127 0.067 0.27 0.293 0.408 0.747 0.22 0.719 0.291 1.476 0.371 2.354 0.068 0.722 0.141 1.526 0.31 2.459-0.273-0.224-0.581-0.412-0.919-0.61-0.103-0.487-0.156-1.405-0.216-2.446-0.032-0.567-0.068-1.17-0.114-1.764-0.001-0.008 0-0.017-0.002-0.025-0.005-0.049-0.009-0.097-0.013-0.145zM28.308 14.926c-0.407-0.249-0.848-0.546-1.316-0.958l-0.002-0.011c-0.195-1.255-0.546-3.526-0.305-4.739 0.066-0.335 0.253-0.65 0.467-0.827 0.073-0.060 0.145-0.099 0.207-0.111 0.040-0.008 0.081-0.001 0.118 0.025 0.104 0.071 0.199 0.243 0.269 0.55 0.136 0.611 0.224 1.375 0.291 2.17 0.002 0.061 0.007 0.121 0.014 0.181 0.046 0.589 0.080 1.191 0.113 1.756 0.044 0.751 0.082 1.438 0.142 1.965l0.003-0zM28.573 15.802c1.161 0.675 1.927 1.185 2.107 3.761 0.253 3.619-0.132 2.159 1.312 5.086 0.065 0.131-0.137-0.278 0.282 0.574 0.071 0.147 0.257 0.203 0.416 0.126s0.227-0.259 0.156-0.405c-0.224-0.456-0.037-0.073-0.284-0.574-1.411-2.859-1.011-1.37-1.257-4.882-0.071-1.023-0.227-1.754-0.459-2.304-0.396-1.533-0.507-2.74-0.603-3.78-0.084-0.912-0.157-1.697-0.392-2.467-0.186-0.612-0.436-0.946-0.684-1.078-0.163-0.088-0.328-0.099-0.488-0.051-0.044 0.013-0.086 0.031-0.126 0.053-0.051-0.418-0.114-0.812-0.192-1.161-0.103-0.46-0.284-0.744-0.502-0.893-0.181-0.122-0.38-0.155-0.583-0.117-0.18 0.034-0.355 0.124-0.515 0.255-0.323 0.265-0.598 0.721-0.692 1.193-0.159 0.799-0.087 1.975 0.039 3.067l-0.63-1.283c-0.072-0.147-0.258-0.203-0.416-0.126l-2.927 1.435c-0.158 0.077-0.227 0.258-0.156 0.406 0.038 0.079 0.109 0.131 0.191 0.152 0.141 0.045 0.272 0.115 0.384 0.208s0.205 0.21 0.273 0.347c0.137 0.28 0.141 0.591 0.034 0.869s-0.323 0.523-0.622 0.67c-0.3 0.148-0.626 0.167-0.912 0.082-0.285-0.087-0.528-0.279-0.666-0.558-0.068-0.138-0.104-0.283-0.109-0.427-0.005-0.146 0.019-0.291 0.070-0.429 0.034-0.078 0.037-0.166-0.002-0.245-0.072-0.147-3.343 1.309-3.343 1.309-0.159 0.077-0.227 0.258-0.156 0.406l1.091 2.219c-0.020 0.001-0.040 0.002-0.061 0.005-0.235 0.020-0.469 0.084-0.694 0.193-0.456 0.224-0.785 0.598-0.948 1.027-0.161 0.42-0.16 0.89 0.041 1.31l0.008 0.016c0.209 0.424 0.582 0.718 1.020 0.849 0.437 0.133 0.934 0.101 1.389-0.122 0.225-0.111 0.42-0.257 0.579-0.43 0.014-0.016 0.027-0.029 0.041-0.044l1.090 2.219c0.072 0.147 0.258 0.203 0.416 0.126l2.701-1.323c-0 0.064-0.002 0.129-0.004 0.191-0.007 0.31-0.014 0.614 0.050 0.993 0.186 1.112 0.517 1.93 1.050 2.617 0.529 0.681 1.244 1.223 2.205 1.789 0.489 0.288 0.855 0.602 1.295 1.535 0.088 0.189 0.214 0.448 0.214 0.448s0.258 0.203 0.416 0.126c0.158-0.077 0.227-0.258 0.156-0.406-0.075-0.152-0.139-0.289-0.21-0.439-0.47-0.992-0.88-1.402-1.52-1.779-0.899-0.531-1.565-1.032-2.043-1.648-0.475-0.612-0.772-1.351-0.943-2.368-0.055-0.336-0.050-0.609-0.045-0.887 0.005-0.214 0.009-0.431-0.010-0.675 0.001-0.006-0.001-0.013-0.001-0.018-0.044-0.561-0.212-1.269-0.777-2.418-0.454-0.925-0.441-1.563-0.206-1.929 0.074-0.116 0.171-0.202 0.282-0.259 0.113-0.057 0.239-0.086 0.372-0.083 0.357 0.005 0.739 0.228 0.958 0.674l2.030 4.13c0.072 0.147 0.258 0.203 0.416 0.126s0.227-0.258 0.156-0.406l-0.473-0.963 1.714-0.84c0.158-0.077 0.227-0.258 0.156-0.406l-1.454-2.958c0.317 0.211 0.615 0.383 0.895 0.544l0.062 0.036c0.011 0.009 0.023 0.015 0.036 0.021l0.002-0.010z"></path>
</svg>
