<?xml version="1.0" encoding="UTF-8" standalone="no"?>
<!DOCTYPE svg PUBLIC "-//W3C//DTD SVG 1.1//EN" "http://www.w3.org/Graphics/SVG/1.1/DTD/svg11.dtd">
<svg width="100%" height="100%" viewBox="0 0 150 150" version="1.1" xmlns="http://www.w3.org/2000/svg" xmlns:xlink="http://www.w3.org/1999/xlink" xml:space="preserve" xmlns:serif="http://www.serif.com/" style="fill-rule:evenodd;clip-rule:evenodd;stroke-linejoin:round;stroke-miterlimit:2;">
    <g transform="matrix(0.170389,0,0,0.174984,-3.38835,-27.1114)">
        <path d="M305.823,650.144L303.086,650.144L302.97,650.087L302.855,650.087L302.4,649.974L302.229,649.917L302.001,649.802L301.773,649.745L301.543,649.632C301.43,649.574 301.314,649.517 301.145,649.46L300.003,648.89L299.833,648.775L299.719,648.719L299.605,648.605L299.431,648.49L299.204,648.375L299.033,648.205L298.804,648.035L298.291,647.519C294.583,643.812 294.583,637.762 298.291,633.996L360.716,571.573L311.758,522.615L311.071,524.327C308.389,530.889 304.34,537.051 299.031,542.357C288.248,553.141 274.097,558.561 259.945,558.561C245.795,558.561 231.643,553.141 220.86,542.357C210.075,531.572 204.655,517.421 204.655,503.27C204.655,489.119 210.075,474.97 220.86,464.184C226.166,458.878 232.329,454.884 238.89,452.145L240.602,451.461L190.33,401.188L19.886,571.635L82.31,634.061C82.48,634.231 82.652,634.402 82.822,634.63C84.593,636.342 85.735,638.795 85.735,641.477C85.735,646.728 81.454,651.006 76.205,651.006C71.468,651.006 66.731,651.92 62.224,653.745C57.945,655.514 53.952,658.139 50.413,661.619C43.338,668.695 39.8,677.939 39.8,687.241C39.8,696.485 43.338,705.784 50.413,712.861C57.489,719.936 66.731,723.475 76.033,723.475C85.277,723.475 94.578,719.936 101.652,712.861C105.134,709.379 107.817,705.329 109.528,701.049C111.011,697.396 111.925,693.575 112.153,689.693C110.898,686.326 111.642,682.39 114.378,679.651C118.088,675.943 124.137,675.943 127.903,679.651L190.327,742.075L252.751,679.651C256.459,675.943 262.508,675.943 266.273,679.651C266.387,679.765 266.503,679.879 266.615,680.052L266.786,680.222L266.901,680.394L267.072,680.564L267.188,680.794L267.357,681.021L267.586,681.478L267.699,681.649L268.386,683.018L268.442,683.189L268.498,683.418L268.614,683.644L268.784,684.33L268.784,684.444L268.84,684.558L268.84,685.245L268.898,685.472L268.898,687.241C268.956,691.747 269.869,696.313 271.637,700.538C273.406,704.814 276.031,708.81 279.511,712.348C286.586,719.423 295.83,722.959 305.132,722.959C314.375,722.959 323.676,719.423 330.751,712.348C337.828,705.272 341.365,696.028 341.365,686.727C341.365,677.483 337.827,668.182 330.751,661.106C327.27,657.626 323.221,654.944 318.94,653.232C314.661,651.463 310.153,650.551 305.646,650.494L305.823,650.144ZM489.733,834.114C494.241,834.173 498.805,835.085 503.028,836.855C507.308,838.623 511.302,841.249 514.841,844.728C521.916,851.805 525.454,861.048 525.454,870.35C525.454,879.594 521.916,888.895 514.841,895.97C507.764,903.045 498.521,906.582 489.221,906.582C479.976,906.582 470.675,903.044 463.6,895.97C460.12,892.488 457.437,888.437 455.725,884.159C453.955,879.88 453.044,875.37 452.985,870.862C453.156,868.18 452.244,865.499 450.189,863.445C446.481,859.738 440.432,859.738 436.666,863.445L374.241,925.869L311.818,863.445C308.109,859.738 302.061,859.738 298.294,863.445C295.556,866.183 294.813,870.12 296.068,873.488C295.783,877.368 294.928,881.19 293.445,884.843C291.676,889.121 289.051,893.116 285.569,896.654C278.494,903.728 269.251,907.267 259.949,907.267C250.706,907.267 241.406,903.728 234.33,896.654C227.252,889.577 223.715,880.335 223.715,871.034C223.715,861.791 227.254,852.489 234.33,845.413C237.81,841.932 241.861,839.25 246.142,837.538C250.591,835.713 255.384,834.8 260.121,834.8C265.369,834.8 269.65,830.576 269.65,825.27C269.65,822.589 268.566,820.135 266.739,818.424C266.569,818.253 266.396,818.023 266.226,817.853L203.802,755.429L253.445,705.786L254.129,707.498C256.809,714.059 260.861,720.222 266.168,725.528C276.953,736.312 291.104,741.733 305.255,741.733C319.408,741.733 333.558,736.311 344.341,725.528C355.125,714.743 360.545,700.594 360.545,686.443C360.545,672.291 355.124,658.139 344.341,647.356C339.033,642.048 332.871,638.054 326.31,635.316L324.598,634.631L374.241,584.989L424.512,635.259L422.799,635.944C416.237,638.626 410.075,642.678 404.77,647.985C393.985,658.768 388.565,672.918 388.565,687.07C388.565,701.221 393.986,715.372 404.77,726.157C415.554,736.941 429.705,742.361 443.856,742.361C458.007,742.361 472.158,736.941 482.941,726.157C488.25,720.849 492.243,714.688 494.982,708.126L495.668,706.414L544.625,755.373L482.202,817.797C478.491,821.506 478.491,827.555 482.202,831.321C484.256,833.374 486.938,834.287 489.618,834.114L489.733,834.114ZM489.733,466.235C494.241,466.292 498.805,467.205 503.028,468.975C507.308,470.744 511.302,473.367 514.841,476.848C521.916,483.923 525.454,493.169 525.454,502.468C525.454,511.713 521.916,521.013 514.841,528.09C507.764,535.166 498.521,538.704 489.221,538.704C479.976,538.704 470.675,535.164 463.6,528.09C460.12,524.608 457.437,520.557 455.725,516.278C453.955,512 453.044,507.49 452.985,502.984C453.156,500.302 452.244,497.619 450.189,495.563C446.481,491.855 440.432,491.855 436.666,495.563L374.241,557.99L311.818,495.563C308.109,491.855 302.061,491.855 298.294,495.563C295.556,498.304 294.813,502.24 296.068,505.606C295.783,509.487 294.928,513.31 293.445,516.964C291.676,521.243 289.051,525.237 285.569,528.776C278.494,535.85 269.251,539.387 259.949,539.387C250.706,539.387 241.406,535.85 234.33,528.776C227.252,521.699 223.715,512.454 223.715,503.155C223.715,493.909 227.254,484.609 234.33,477.533C237.81,474.053 241.861,471.372 246.142,469.659C250.422,467.891 254.929,466.978 259.436,466.919C262.118,467.09 264.801,466.179 266.854,464.124C270.563,460.415 270.563,454.368 266.854,450.602L203.802,387.549L374.247,217.102L424.519,267.373L422.806,268.057C416.245,270.74 410.083,274.793 404.775,280.097C393.993,290.882 388.572,305.033 388.572,319.183C388.572,333.335 393.993,347.486 404.775,358.27C415.56,369.054 429.711,374.474 443.862,374.474C458.014,374.474 472.165,369.054 482.948,358.27C488.256,352.965 492.248,346.802 494.99,340.241L495.673,338.527L544.631,387.487L482.209,449.91C478.498,453.619 478.498,459.669 482.209,463.433C484.262,465.489 486.945,466.401 489.626,466.23L489.733,466.235Z"/>
    </g>
    <g transform="matrix(0.116783,0.0898666,-0.100742,0.116925,83.9099,-48.9796)">
        <path d="M704.902,316.337C705.988,317.42 707.071,318.505 708.211,319.589C708.44,319.76 708.612,319.99 708.782,320.161C722.247,333.626 735.657,347.493 748.212,360.558C771.321,384.527 791.694,405.696 804.302,415.511C816.571,414.027 827.926,412.828 839.167,413.171C815.715,393.827 797.226,375.795 780.566,359.648C760.366,339.962 742.905,323.013 722.649,309.775C709.867,301.388 701.708,298.592 697.258,299.335C696.972,299.391 697.029,299.107 696.972,299.22C696.857,299.391 696.8,299.96 696.857,300.873C697.085,305.156 699.882,310.86 704.903,316.337L704.902,316.337ZM778.853,418.647C763.847,420.188 747.013,421.216 727.156,419.96L726.87,419.732C696.058,393.085 640.368,344.868 620.965,311.147C615.602,301.844 613.547,290.775 615.031,282.558C615.545,279.762 616.459,277.481 617.714,276.054C618.514,275.139 619.653,274.511 621.08,274.454C625.073,274.227 630.951,276.623 638.998,282.729C654.973,294.941 673.007,311.714 691.151,329.634C692.463,331.059 693.833,332.428 695.259,333.741C708.612,347.095 721.966,360.958 734.516,373.969C751.179,391.258 766.414,407.121 778.797,418.705L778.853,418.647ZM803.504,434.852C845.558,429.603 874.658,427.663 932.575,486.435C1013.94,569.002 974.293,540.932 1070.01,584.695C1074.31,586.635 1060.91,580.529 1088.75,593.312C1093.52,595.536 1099.18,593.424 1101.41,588.631C1103.62,583.839 1101.51,578.19 1096.74,575.964C1081.84,569.117 1094.33,574.879 1077.95,567.406C984.433,524.667 1025.06,553.14 946.096,473.031C923.097,449.691 904.152,434.97 887.091,426.01C845.666,396.397 817.877,369.35 793.912,346.07C772.912,325.639 754.825,308.066 733.139,293.857C715.909,282.559 702.954,279.135 694.225,280.563C688.461,281.475 684.239,284.272 681.385,288.379C680.587,289.521 679.96,290.718 679.446,291.974C669.519,282.846 659.817,274.512 650.687,267.554C638.647,258.367 628.377,254.886 619.987,255.343C613.083,255.741 607.605,258.652 603.496,263.331C599.846,267.496 597.505,272.917 596.364,279.024C594.082,291.405 596.936,307.498 604.468,320.62C617.248,342.816 643.438,369.862 669.174,393.831L627.292,374.599C622.498,372.374 616.85,374.486 614.623,379.278L573.824,468.18C571.601,472.972 573.71,478.623 578.503,480.846C581.072,482.045 583.869,481.989 586.265,480.962C590.602,479.42 595.224,478.678 599.845,478.851C604.467,479.022 609.145,480.106 613.653,482.16C622.783,486.384 629.346,493.8 632.541,502.474C635.737,511.149 635.622,521.075 631.457,530.148C627.292,539.279 619.816,545.783 611.142,549.035C602.469,552.231 592.598,552.117 583.469,547.95C578.961,545.897 575.081,543.045 571.942,539.676C568.805,536.253 566.352,532.317 564.696,528.036C563.898,525.525 562.127,523.358 559.561,522.16C554.768,519.934 506.095,615.739 506.095,615.739C503.869,620.533 505.98,626.182 510.773,628.407L583.241,661.672C582.784,662.074 582.327,662.471 581.87,662.928C576.622,667.779 572.284,673.657 569.146,680.447C562.814,694.313 562.643,709.431 567.606,722.786C572.456,735.909 582.269,747.206 595.85,753.598L596.364,753.825C610.231,760.16 625.35,760.332 638.646,755.366C651.941,750.461 663.296,740.474 669.63,726.665C672.768,719.816 674.424,712.686 674.652,705.552C674.652,704.924 674.708,704.354 674.708,703.727L747.174,736.992C751.968,739.219 757.617,737.106 759.841,732.314L797.504,650.317C798.816,651.858 800.127,653.456 801.384,654.997C807.659,662.586 813.822,670.06 823.238,677.992C850.855,701.33 875.848,714.91 903.008,721.587C929.94,728.205 958.468,727.977 993.448,723.814C1011.24,721.701 1026.61,722.462 1056.63,736.786C1062.68,739.694 1071.11,743.632 1071.11,743.632C1071.11,743.632 1081.57,743.746 1083.79,738.953C1086.01,734.16 1083.9,728.511 1079.11,726.286C1074.15,724.004 1069.75,721.891 1064.91,719.61C1032.94,704.431 1014.5,702.129 991.221,704.924C958.468,708.805 931.994,709.09 907.63,703.099C883.436,697.165 860.896,684.84 835.618,663.499C827.288,656.424 821.75,649.749 816.104,642.956C811.767,637.708 807.374,632.401 801.838,626.865C801.723,626.695 801.554,626.581 801.44,626.466C788.715,613.741 769.942,599.819 732.396,582.586C702.21,568.719 689.258,553.087 687.319,539.906C686.691,535.741 687.26,531.861 688.745,528.437C690.284,524.956 692.739,521.931 695.992,519.534C704.72,513.029 718.587,511.318 733.137,517.996L827.858,561.475L868.029,579.906C872.822,582.133 878.47,580.021 880.696,575.228C882.922,570.433 880.811,564.784 876.019,562.561L844.577,548.124L868.486,496.084C870.711,491.293 868.6,485.641 863.807,483.418L767.204,439.08C779.243,438.283 790.027,436.912 800.127,435.601L802.352,435.314C802.809,435.314 803.21,435.257 803.667,435.142L803.504,434.852Z"/>
    </g>
</svg>
