<!-- Generated by IcoMoon.io -->
<svg version="1.1" xmlns="http://www.w3.org/2000/svg" width="32" height="32" viewBox="0 0 32 32">
<path d="M25.909 3.030v1.184h0.592v-1.184h-0.592zM19.986 3.034c-0.888 0-1.777 0.592-2.073 1.48-1.185-0.592-2.369 0.296-2.369 1.184s0.888 1.48 1.481 1.48h3.553c0.888 0 1.481-1.184 1.481-2.072s-0.888-2.072-2.073-2.072l-0-0zM24.743 3.512l-0.426 0.416 0.842 0.842 0.417-0.426-0.833-0.833zM27.667 3.512l-0.833 0.833 0.417 0.426 0.842-0.842-0.426-0.416zM8.142 3.33l-5.034 3.257v3.553c0.709-0.021 1.397-0.037 2.073-0.046v-2.914c-0.001-0.292 0.245-0.565 0.537-0.592h4.793c0.31 0 0.592 0.282 0.592 0.592v3.081c0.701 0.053 1.389 0.122 2.073 0.204v-0.324c0.581 0 1.175 0 1.777 0.009v0.546c0.397 0.064 0.789 0.138 1.184 0.213v-0.731c0.588 0.012 1.181 0.026 1.777 0.046v1.064c0.395 0.093 0.786 0.191 1.184 0.296v-1.323c0.594 0.025 1.186 0.061 1.777 0.093v1.739c0.392 0.121 0.787 0.254 1.185 0.389v-2.054c0.804 0.050 1.595 0.103 2.369 0.167v2.739c0.39 0.152 0.785 0.316 1.184 0.481v-3.118c0.823 0.078 1.020 0.165 1.777 0.259v3.627c0.53 0.217 0.888 0.296 1.185 0.592v-6.513c0.007-0.336-0.323-0.638-0.657-0.601-0.291 0.032-0.533 0.309-0.527 0.601v1.101c-0.761-0.092-0.957-0.173-1.777-0.25v-0.851c0.007-0.336-0.323-0.638-0.657-0.601-0.291 0.032-0.534 0.309-0.528 0.601v0.749c-0.775-0.063-1.566-0.126-2.369-0.176v-0.574c0.007-0.336-0.323-0.638-0.657-0.601-0.291 0.032-0.534 0.309-0.527 0.601v0.509c-0.59-0.031-1.184-0.068-1.777-0.093v-0.416c0.007-0.336-0.323-0.638-0.657-0.601-0.291 0.032-0.534 0.309-0.527 0.601v0.379c-0.597-0.020-1.187-0.034-1.777-0.046v-0.333c0.007-0.336-0.323-0.638-0.657-0.601-0.291 0.032-0.534 0.309-0.527 0.601v0.305c-0.6-0.008-1.196-0.009-1.777-0.009v-2.369l-5.034-3.257zM26.205 4.511c-0.491 0-0.888 0.398-0.888 0.888s0.398 0.888 0.888 0.888c0.49 0 0.889-0.398 0.889-0.888s-0.398-0.888-0.889-0.888zM23.836 5.103v0.592h1.185v-0.592h-1.185zM27.389 5.103v0.592h1.185v-0.592h-1.185zM25.159 6.019l-0.842 0.842 0.426 0.416 0.833-0.833-0.416-0.426zM27.25 6.019l-0.417 0.426 0.833 0.833 0.425-0.416-0.842-0.842zM25.909 6.583v1.184h0.592v-1.184h-0.592zM6.365 7.771v2.313c1.203 0 2.492 0.045 3.554 0.102v-2.415l-3.553 0zM6.384 10.677c-0.713 0-1.443 0.012-2.193 0.028 3.566 5.659 4.198 12.245 4.238 17.792h6.515c-0.188-5.651-3.043-13.348-8.56-17.82l-0-0zM8.206 10.705c5.106 4.786 7.748 12.15 7.921 17.792h5.904c-0.198-2.437-1.549-5.885-3.563-8.771-2.116-3.033-4.939-6.564-7.764-8.901-0.814-0.055-1.646-0.098-2.498-0.12h0zM12.685 10.991c2.482 2.33 4.866 5.364 6.746 8.059 2.108 3.021 3.605 6.633 3.794 9.446h5.348v-2.961c-0.92-2.341-2.763-4.478-4.275-6.070-2.263-2.372-5.283-5.61-8.227-7.966-1.144-0.2-2.343-0.392-3.387-0.509l0 0zM3.108 11.195v17.302h4.136c-0.038-5.508-0.645-11.858-4.136-17.302zM18.533 12.046c2.397 2.143 4.743 4.633 6.617 6.597 1.322 1.392 2.467 2.815 3.424 4.284v-7.161c-3.711-1.739-6.92-2.928-10.040-3.719l-0 0z"></path>
</svg>
