<?xml version="1.0" encoding="utf-8"?>
<svg version="1.1" viewBox="0 0 1200 1200" xmlns="http://www.w3.org/2000/svg" width="150pt" height="150pt">
  <path d="M 971.571 113.64 L 971.571 158.05 L 993.771 158.05 L 993.771 113.64 L 971.571 113.64 Z M 749.488 113.784 C 716.173 113.784 682.86 135.991 671.761 169.298 C 627.341 147.091 582.925 180.399 582.925 213.708 C 582.925 247.016 616.24 269.223 638.447 269.223 L 771.701 269.223 C 805.017 269.223 827.224 224.813 827.224 191.505 C 827.224 158.197 793.908 113.788 749.496 113.788 L 749.488 113.784 Z M 927.859 131.687 L 911.899 147.298 L 943.471 178.873 L 959.093 162.911 L 927.859 131.687 Z M 1037.51 131.687 L 1006.28 162.911 L 1021.9 178.873 L 1053.47 147.298 L 1037.51 131.687 Z M 305.316 124.884 L 116.545 247.016 L 116.545 380.247 C 143.115 379.449 168.931 378.863 194.273 378.513 L 194.273 269.223 C 194.227 258.26 203.479 248.048 214.401 247.016 L 394.15 247.016 C 405.778 247.016 416.357 257.594 416.357 269.223 L 416.357 384.758 C 442.629 386.751 468.444 389.338 494.084 392.393 L 494.084 380.247 C 515.871 380.247 538.154 380.253 560.713 380.592 L 560.713 401.065 C 575.612 403.447 590.284 406.231 605.131 409.044 L 605.131 381.637 C 627.196 382.101 649.409 382.623 671.76 383.37 L 671.76 423.274 C 686.59 426.746 701.25 430.425 716.178 434.374 L 716.178 384.758 C 738.465 385.682 760.651 387.032 782.806 388.232 L 782.806 453.458 C 797.505 457.992 812.302 462.998 827.226 468.032 L 827.226 391.01 C 857.37 392.898 887.038 394.855 916.063 397.256 L 916.063 499.956 C 930.694 505.663 945.509 511.81 960.477 517.998 L 960.477 401.073 C 991.351 403.993 998.711 407.243 1027.11 410.784 L 1027.11 546.793 C 1047 554.915 1060.42 557.893 1071.53 568.999 L 1071.53 324.745 C 1071.8 312.152 1059.42 300.81 1046.88 302.193 C 1035.98 303.391 1026.88 313.77 1027.11 324.745 L 1027.11 366.031 C 998.561 362.586 991.221 359.545 960.488 356.664 L 960.488 324.745 C 960.75 312.152 948.376 300.81 935.85 302.193 C 924.937 303.391 915.834 313.77 916.063 324.745 L 916.063 352.846 C 886.985 350.465 857.344 348.128 827.234 346.257 L 827.234 324.745 C 827.504 312.151 815.124 300.81 802.599 302.191 C 791.687 303.391 782.585 313.769 782.819 324.745 L 782.819 343.828 C 760.692 342.652 738.433 341.269 716.191 340.356 L 716.191 324.742 C 716.461 312.151 704.081 300.808 691.556 302.191 C 680.644 303.391 671.543 313.769 671.777 324.742 L 671.777 338.967 C 649.38 338.231 627.265 337.692 605.148 337.233 L 605.148 324.742 C 605.419 312.151 593.039 300.808 580.514 302.191 C 569.602 303.391 560.499 313.769 560.734 324.742 L 560.734 336.194 C 538.222 335.907 515.883 335.849 494.106 335.849 L 494.106 247.027 L 305.316 124.884 Z M 982.671 169.156 C 964.271 169.156 949.358 184.067 949.358 202.464 C 949.358 220.861 964.271 235.771 982.671 235.771 C 1001.06 235.771 1015.99 220.861 1015.99 202.464 C 1015.99 184.067 1001.08 169.156 982.671 169.156 Z M 893.837 191.363 L 893.837 213.568 L 938.259 213.568 L 938.259 191.363 L 893.837 191.363 Z M 1027.09 191.363 L 1027.09 213.568 L 1071.52 213.568 L 1071.52 191.363 L 1027.09 191.363 Z M 943.46 225.715 L 911.888 257.289 L 927.848 272.901 L 959.071 241.672 L 943.46 225.715 Z M 1021.89 225.715 L 1006.26 241.672 L 1037.5 272.901 L 1053.45 257.289 L 1021.89 225.715 Z M 971.571 246.877 L 971.571 291.286 L 993.781 291.286 L 993.781 246.877 L 971.571 246.877 Z M 238.689 291.43 L 238.689 378.167 C 283.785 378.167 332.138 379.862 371.945 381.985 L 371.945 291.428 L 238.689 291.43 Z M 239.383 400.376 C 212.657 400.376 185.275 400.819 157.143 401.42 C 290.864 613.643 314.573 860.602 316.072 1068.63 L 560.37 1068.63 C 553.322 856.722 446.253 568.078 239.384 400.377 L 239.383 400.376 Z M 307.742 401.42 C 499.219 580.891 598.284 857.061 604.779 1068.63 L 826.169 1068.63 C 818.754 977.234 768.09 847.936 692.571 739.702 C 613.218 625.978 507.37 493.564 401.428 405.931 C 370.886 403.854 339.69 402.241 307.736 401.42 L 307.742 401.42 Z M 475.693 412.177 C 568.757 499.541 658.161 613.336 728.661 714.371 C 807.727 827.677 863.833 963.104 870.933 1068.61 L 1071.5 1068.61 L 1071.5 957.584 C 1037.01 869.804 967.891 789.677 911.179 729.975 C 826.311 641.016 713.049 519.59 602.682 431.251 C 559.8 423.755 514.836 416.552 475.679 412.167 L 475.693 412.177 Z M 116.533 419.805 L 116.533 1068.62 L 271.641 1068.62 C 270.206 862.089 247.47 623.961 116.533 419.805 Z M 694.998 451.724 C 784.895 532.07 872.852 625.45 943.122 699.109 C 992.691 751.306 1035.65 804.688 1071.52 859.743 L 1071.52 591.198 C 932.373 525.988 812.018 481.408 695.011 451.721 L 694.998 451.724 Z"/>
</svg>