<!-- Generated by IcoMoon.io -->
<svg version="1.1" xmlns="http://www.w3.org/2000/svg" width="32" height="32" viewBox="0 0 32 32">
<path d="M1.141 21.028c-0.035 0.016 0.095 0.6 0.501 1.436 0.402 0.833 1.119 1.917 2.181 2.69 1.064 0.777 2.207 1.009 3.006 0.955 0.808-0.046 1.269-0.307 1.256-0.347-0.013-0.067-0.488 0.085-1.256 0.056-0.764-0.021-1.831-0.285-2.832-1.017-1.002-0.731-1.712-1.729-2.153-2.495-0.444-0.768-0.653-1.305-0.702-1.278zM1.706 18.933c-0.146 1.378 0.326 2.898 1.234 3.974 1.007 1.193 2.293 1.647 3.194 1.818 0.003 0 0.004 0.003 0.009 0.003 1.23 0.539 2.63 0.499 3.833-0.131-0.178 0.165-0.349 0.307-0.496 0.421-0.366 0.286-0.616 0.425-0.598 0.483 0.011 0.051 0.296 0.006 0.713-0.227 0.25-0.136 0.543-0.349 0.843-0.627-0.221 0.293-0.459 0.566-0.725 0.795-1.019 0.886-2.244 1.062-3.085 1.054-1.602-0.016-3.119-0.699-4.165-1.882-1.026-1.166-1.986-3.379-1.825-5.351 0.247-3.053 1.931-5.877 4.264-7.241-0.064 0.104-0.121 0.208-0.175 0.307l-0.121 0.213-0.265 0.427c-0.184 0.291-0.369 0.592-0.541 0.899-0.437 0.79-0.849 1.607-1.236 2.428-0.362 0.766-0.755 1.666-0.858 2.635zM11.306 12.93c-0.031 0.24-0.055 0.395-0.018 0.416 0.033 0.019 0.124-0.104 0.21-0.347 0.082-0.23 0.146-0.571 0.156-0.945 0.307-0.099 0.62-0.211 0.913-0.392-0.032 0.243-0.070 0.51-0.14 0.79-0.102 0.443-0.268 0.801-0.424 1.038-0.15 0.235-0.274 0.366-0.254 0.408 0.020 0.037 0.186-0.021 0.399-0.238 0.212-0.219 0.437-0.622 0.55-1.113 0.094-0.398 0.119-0.766 0.119-1.065 0.252-0.198 0.477-0.438 0.697-0.67 0.004-0.006 0.009-0.011 0.013-0.014 0.015 0.363-0.002 0.689-0.033 0.931-0.034 0.291-0.078 0.478-0.038 0.496 0.031 0.021 0.141-0.133 0.232-0.438 0.090-0.302 0.145-0.752 0.109-1.238-0.002-0.011-0.002-0.019-0.004-0.029 0.194-0.195 0.388-0.373 0.609-0.51 0.086-0.056 0.172-0.104 0.258-0.144 0.005 0.107 0.009 0.216 0.009 0.325 0.013 0.94-0.163 1.687-0.084 1.719 0.033 0.016 0.123-0.155 0.212-0.464 0.086-0.307 0.156-0.758 0.154-1.254-0.002-0.143-0.010-0.285-0.024-0.427 0.499-0.155 0.996-0.128 1.374-0.061-0.006 0.085-0.010 0.165-0.021 0.254-0.064 0.526-0.203 0.979-0.329 1.3-0.126 0.317-0.223 0.51-0.192 0.544 0.026 0.027 0.183-0.112 0.364-0.422 0.090-0.155 0.181-0.355 0.26-0.584 0.077-0.235 0.141-0.504 0.174-0.79 0.010-0.080 0.015-0.163 0.022-0.243 0.321 0.083 0.64 0.2 0.953 0.334 0 0.002-0.005 0.005-0.005 0.008-0.139 0.624-0.331 1.108-0.263 1.161 0.060 0.053 0.375-0.379 0.532-1.052l0.505 0.238c0.059 0.027 0.119 0.051 0.181 0.077 0.018 0.008 0.037 0.013 0.055 0.024-0.002 0.002-0.002 0.005-0.002 0.008-0.141 0.539-0.291 0.969-0.221 1.020 0.061 0.051 0.331-0.323 0.483-0.897 0.004 0.003 0.009 0.005 0.015 0.005 0.056 0.037 0.106 0.085 0.159 0.136 0.064 0.059 0.134 0.12 0.212 0.171 0.057 0.037 0.119 0.069 0.185 0.099-0.080 0.235-0.152 0.43-0.099 0.491 0.048 0.067 0.253-0.080 0.365-0.392 0.19 0.048 0.385 0.067 0.574 0.040 0.090-0.013 0.179-0.032 0.267-0.053 0.113-0.027 0.216-0.051 0.322-0.056 0.201-0.016 0.368 0.048 0.463 0.173 0.018 0.024 0.040 0.035 0.064 0.043-0.031 0.139-0.049 0.27-0.068 0.392-0.031 0.192-0.053 0.368-0.069 0.515-0.002 0.040-0.004 0.075-0.009 0.11-1.167 0.109-2.35 0.112-3.517 0.011-0.4-0.035-0.773-0.051-1.137-0.045-0.117 0-0.23 0.005-0.346 0.011l-0.205 0.011c-0.046 0-0.095-0.011-0.155-0.027-0.055-0.011-0.119-0.027-0.187-0.029-0.38-0.029-0.771 0.168-1.139 0.368-0.332 0.181-0.636 0.4-0.994 0.673l-0.108 0.083c-0.315 0.24-0.635 0.486-0.971 0.681-0.199 0.096-0.42 0.179-0.658 0.2-0.344 0.035-0.671-0.037-0.944-0.112-0.029-0.016-0.057-0.035-0.091-0.048-0.426-0.192-0.845-0.264-1.207-0.267 0.168-0.128 0.342-0.315 0.479-0.568 0.142-0.267 0.214-0.547 0.241-0.793l1.123-0.358c-0.011 0.307-0.035 0.579-0.063 0.782zM28.558 11.444c0.029 0.072 0.056 0.147 0.042 0.222-0.011 0.064-0.060 0.12-0.117 0.128-0.011 0.005-0.023 0.008-0.035 0.008-0.014 0-0.029-0.002-0.038-0.013-0.020-0.016-0.035-0.032-0.046-0.048-0.035-0.045-0.051-0.104-0.045-0.171v-0.003c0.007-0.061 0.053-0.112 0.149-0.163 0.035-0.019 0.075-0.002 0.090 0.040zM29.224 11.187c0.064 0.166 0.060 0.371-0.010 0.534-0.031 0.069-0.076 0.139-0.137 0.206l-0.099-0.115c0.092-0.136 0.099-0.336 0.018-0.462-0.064-0.102-0.174-0.152-0.298-0.136-0.146 0.011-0.45 0.112-0.474 0.339-0.009 0.099 0.015 0.19 0.068 0.262 0.073 0.104 0.199 0.173 0.323 0.179h0.017c0.095 0 0.183-0.029 0.258-0.088l0.081 0.133c-0.092 0.096-0.178 0.15-0.26 0.166-0.020 0.002-0.042 0.005-0.064 0.005-0.121 0-0.245-0.064-0.379-0.139-0.080-0.051-0.15-0.094-0.212-0.152-0.061-0.064-0.101-0.144-0.112-0.222-0.009-0.077 0.013-0.165 0.062-0.269 0.102-0.213 0.274-0.387 0.475-0.475 0.132-0.059 0.362-0.142 0.489-0.067h0.002c0.113 0.067 0.205 0.176 0.254 0.302zM31.437 12.111c-0.037-0.050-0.108-0.099-0.191-0.107-0.086-0.008-0.161 0.024-0.206 0.069-0.048 0.045-0.061 0.098-0.048 0.141 0.035 0.085 0.132 0.12 0.232 0.131 0.097 0.008 0.199-0.006 0.245-0.085 0.017-0.040 0.009-0.096-0.031-0.15zM29.707 11.991c-0.035-0.029-0.132 0.104-0.311 0.251-0.181 0.144-0.456 0.294-0.774 0.28-0.32-0.011-0.596-0.165-0.757-0.328-0.163-0.157-0.223-0.315-0.263-0.304-0.035 0.005-0.046 0.221 0.119 0.472 0.161 0.251 0.493 0.489 0.892 0.504 0.197 0.005 0.388-0.045 0.543-0.131 0.156-0.085 0.28-0.2 0.367-0.31 0.177-0.224 0.213-0.414 0.185-0.435zM29.374 11.102c-0.066-0.17-0.184-0.31-0.333-0.398-0.181-0.104-0.415-0.029-0.62 0.059-0.238 0.104-0.439 0.307-0.56 0.563-0.069 0.144-0.095 0.272-0.081 0.398 0.015 0.128 0.075 0.251 0.172 0.35 0.077 0.077 0.168 0.128 0.246 0.176 0.121 0.069 0.279 0.163 0.452 0.163 0.029 0 0.060-0.005 0.093-0.011 0.151-0.032 0.274-0.142 0.373-0.243 0.086-0.091 0.183-0.2 0.245-0.344 0.097-0.216 0.101-0.491 0.015-0.713zM27.613 11.070c0.042 0.013 0.101-0.163 0.265-0.36 0.157-0.192 0.448-0.398 0.772-0.368 0.326 0.035 0.587 0.299 0.713 0.523 0.134 0.222 0.167 0.408 0.212 0.403 0.032 0.002 0.075-0.214-0.038-0.526-0.058-0.152-0.157-0.323-0.3-0.464-0.146-0.141-0.34-0.253-0.563-0.277-0.223-0.021-0.43 0.051-0.594 0.16-0.161 0.112-0.282 0.259-0.36 0.398-0.154 0.286-0.14 0.504-0.108 0.512zM24.773 8.334c0.011-0.046-0.437-0.261-1.163-0.614-0.729-0.35-1.728-0.852-2.88-1.279-1.15-0.427-2.244-0.63-3.036-0.63-0.793-0.005-1.273 0.136-1.269 0.179 0.004 0.051 0.488-0.008 1.263 0.061 0.77 0.061 1.827 0.296 2.962 0.718s2.148 0.886 2.893 1.177c0.746 0.296 1.22 0.432 1.232 0.387zM15.574 5.973c0-0.021-0.141-0.064-0.4-0.093s-0.641-0.029-1.105 0.051c-0.466 0.075-1.013 0.246-1.59 0.518-0.579 0.272-1.187 0.651-1.792 1.11-1.201 0.931-2.182 1.935-2.915 2.61-0.731 0.689-1.199 1.086-1.179 1.129 0.021 0.035 0.532-0.291 1.295-0.931 0.768-0.63 1.77-1.602 2.949-2.517 0.593-0.448 1.181-0.83 1.737-1.108 0.556-0.28 1.078-0.47 1.525-0.574 0.896-0.214 1.471-0.131 1.474-0.195zM31.817 12.466c-0.035 0.067-0.077 0.131-0.121 0.192-0.229 0.213-0.556 0.408-0.955 0.451-0.468 0.059-0.923 0.003-1.254 0.037-0.333 0.019-0.534 0.102-0.527 0.144 0.004 0.051 0.203 0.053 0.523 0.096l0.569 0.067 0.254 0.016c-0.967 0.23-1.929 0.096-2.94-0.048-0.605-0.085-1.229-0.176-1.853-0.179-0.174 0-0.358 0.011-0.532 0.029-0.307 0.027-0.625 0.054-0.896-0.016-0.067-0.027-0.215-0.115-0.364-0.214-0.016-0.019-0.029-0.035-0.045-0.056-0.229-0.31-0.344-0.686-0.393-0.963-0.051-0.28-0.051-0.473-0.099-0.486-0.042-0.011-0.131 0.173-0.141 0.51-0.002 0.141 0.016 0.309 0.055 0.486-0.033 0.011-0.064 0.029-0.090 0.053l-1.192 1.094c-0.004 0.002-0.007 0.011-0.011 0.013-0.132-0.136-0.24-0.205-0.278-0.163-0.031 0.032-0.009 0.131 0.051 0.261-0.179-0.040-0.311-0.013-0.318 0.045-0.013 0.096 0.232 0.222 0.51 0.393 0.049 0.026 0.093 0.053 0.137 0.080 0.133 0.163 0.256 0.272 0.331 0.299 0.258 0.347 0.448 0.771 0.531 1.23 0.002 0.014 0.007 0.027 0.012 0.040-0.014 0.075-0.003 0.155 0.035 0.224 0.024 0.048 0.060 0.077 0.097 0.104 0.014-0.027 0.030-0.051 0.051-0.072 0.375-0.406 0.878-0.558 1.364-0.382 0.381 0.136 0.218 0.862-0.163 0.723-0.19-0.067-0.384-0.056-0.557 0.035l0.491 0.71c0.108 0.157 0.128 0.379 0 0.534-0.111 0.133-0.33 0.155-0.438 0l-0.578-0.838c-0.018 0.006-0.036 0.013-0.050 0.030-0.086 0.064-0.13 0.184-0.112 0.301 0.017 0.147-0.027 0.328-0.111 0.486-0.027-0.014-0.049-0.032-0.066-0.048-0.092-0.11-0.133-0.278-0.181-0.475-0.038-0.155-0.081-0.334-0.163-0.499 0.064-0.011 0.124-0.029 0.172-0.051 0.124-0.056 0.181-0.131 0.173-0.173-0.029-0.091-0.298-0.046-0.614-0.118-0.104-0.080-0.21-0.138-0.307-0.187-0.040-0.021-0.080-0.040-0.121-0.064-0.481-0.275-0.83-0.865-0.89-1.508s0.174-1.313 0.592-1.713c0.068-0.061 0.101-0.163 0.095-0.262 0.034-0.071 0.057-0.146 0.070-0.224 0.026-0.179 0.018-0.312 0.033-0.416 0.016-0.112 0.042-0.219 0.078-0.315 0.070-0.195 0.172-0.355 0.271-0.47 0.201-0.235 0.382-0.31 0.37-0.371-0.002-0.048-0.225-0.080-0.516 0.142-0.035 0.024-0.070 0.056-0.106 0.093 0.115-0.32 0.306-0.523 0.481-0.64 0.192-0.131 0.342-0.16 0.342-0.214 0.004-0.043-0.161-0.104-0.42-0.008-0.127 0.048-0.275 0.139-0.406 0.288-0.128 0.142-0.229 0.344-0.295 0.563-0.194-0.216-0.462-0.238-0.609-0.224-0.122 0.008-0.238 0.035-0.351 0.061-0.084 0.019-0.167 0.037-0.251 0.051-0.157 0.021-0.323 0.008-0.481-0.032 0.022-0.229-0.033-0.403-0.090-0.398s-0.104 0.133-0.159 0.304c-0.056-0.024-0.111-0.048-0.164-0.083-0.059-0.037-0.117-0.091-0.176-0.144-0.058-0.056-0.118-0.109-0.185-0.155-0.023-0.016-0.045-0.027-0.067-0.037 0.081-0.467 0.047-0.827-0.020-0.83-0.064-0.005-0.132 0.302-0.234 0.704-0.015-0.008-0.032-0.016-0.050-0.021-0.057-0.024-0.115-0.048-0.17-0.075l-0.536-0.248c0.084-0.56 0.013-0.996-0.051-0.99-0.068 0.003-0.112 0.384-0.21 0.875-0.328-0.139-0.664-0.261-1.006-0.347-0.002-0.096-0.006-0.195-0.013-0.286-0.022-0.251-0.061-0.475-0.112-0.654-0.101-0.358-0.22-0.547-0.252-0.526-0.040 0.019 0.011 0.238 0.057 0.585 0.029 0.227 0.051 0.51 0.049 0.825-0.395-0.069-0.905-0.091-1.421 0.064-0.031-0.208-0.073-0.395-0.119-0.545-0.091-0.307-0.185-0.475-0.221-0.462-0.059 0.027 0.038 0.47 0.089 1.097-0.119 0.053-0.236 0.112-0.351 0.184-0.191 0.123-0.366 0.272-0.534 0.435-0.049-0.334-0.119-0.622-0.184-0.838-0.088-0.291-0.163-0.464-0.2-0.454-0.037 0.013-0.031 0.208 0.006 0.512 0.034 0.275 0.089 0.635 0.124 1.033l-0.144 0.152c-0.185 0.195-0.366 0.382-0.554 0.547-0.016-0.24-0.044-0.382-0.078-0.384-0.040 0-0.077 0.198-0.115 0.507-0.002 0.011-0.002 0.021-0.006 0.032-0.043 0.032-0.087 0.067-0.131 0.096-0.257 0.163-0.542 0.27-0.823 0.363-0.009-0.296-0.040-0.56-0.077-0.758-0.042-0.248-0.093-0.398-0.13-0.392-0.040 0.005-0.060 0.163-0.067 0.413l-0.004 0.825-1.122 0.36v-0.011c-0.013-0.294-0.086-0.459-0.121-0.451-0.040 0.008-0.040 0.179-0.077 0.438-0.035 0.256-0.114 0.604-0.289 0.924-0.172 0.323-0.402 0.552-0.581 0.694-0.048 0.040-0.092 0.072-0.132 0.102-0.007 0-0.013 0.003-0.020 0.003-0.437 0.083-0.68 0.237-0.667 0.288 0.013 0.059 0.274 0.008 0.686 0.003 0.41-0.006 0.978 0.056 1.558 0.323 0.578 0.264 1.042 0.673 1.347 1.006 0.026 0.027 0.049 0.051 0.073 0.077 0.403 0.464 0.774 1.001 1.171 1.633l0.028 0.042c0.113 0.182 0.243 0.39 0.421 0.539 0.1 0.083 0.201 0.139 0.308 0.187 0.022-0.003 0.042-0.016 0.066-0.014 0.571 0.035 1.139 0.003 1.704-0.104 0.391-0.075 0.556 0.649 0.166 0.727-0.466 0.088-0.929 0.139-1.399 0.141 0.006 0.008 0.010 0.010 0.020 0.016 0.099 0.083 0.23 0.203 0.395 0.334 0.147 0.12 0.302 0.216 0.43 0.261 0.053 0.078 0.097 0.165 0.131 0.259l-0.113-0.070c-0.293-0.179-0.579-0.302-0.749-0.408-0.176-0.107-0.249-0.23-0.288-0.211-0.018 0.008-0.020 0.058 0.004 0.136 0.022 0.078 0.079 0.179 0.167 0.272 0.090 0.094 0.206 0.182 0.331 0.264 0.095 0.064 0.199 0.128 0.307 0.192-0.218 0.059-0.432 0.123-0.645 0.2-0.004-0.042-0.018-0.088-0.042-0.128l-0.738-1.287c-0.068-0.12-0.194-0.163-0.304-0.104-0.446 0.235-1.053 0.141-1.662-0.261-0.28-0.185-0.54-0.409-0.814-0.641-0.263-0.227-0.537-0.462-0.828-0.659-0.949-0.638-2.070-0.811-3.129-0.574 0.075-0.091 0.139-0.179 0.194-0.264 0.214-0.331 0.287-0.582 0.249-0.611-0.040-0.035-0.179 0.152-0.421 0.411-0.124 0.131-0.27 0.278-0.446 0.419-0.17 0.139-0.366 0.272-0.583 0.411-0.24 0.12-0.472 0.267-0.691 0.435-0.179 0.126-0.34 0.246-0.463 0.374-0.146 0.139-0.245 0.272-0.3 0.368-0.024 0.029-0.051 0.058-0.075 0.085-0.744 0.956-1.108 2.122-0.995 3.211 0.099 0.979 0.589 1.927 1.381 2.669 0.118 0.111 0.242 0.215 0.371 0.312-0.691-0.264-1.452-0.707-2.094-1.468-0.854-1.012-1.298-2.442-1.161-3.734 0.099-0.916 0.461-1.751 0.825-2.528 0.384-0.814 0.797-1.625 1.23-2.41 0.168-0.304 0.353-0.6 0.532-0.886l0.267-0.43c0.035-0.061 0.081-0.139 0.126-0.227 0.152-0.27 0.379-0.681 0.538-0.758h0.005c0.062-0.029 0.091-0.112 0.069-0.187-0.024-0.072-0.091-0.11-0.151-0.080-0.002 0-0.004 0-0.004 0.003-2.699 1.252-4.697 4.374-4.97 7.769-0.168 2.066 0.827 4.374 1.9 5.589 1.086 1.23 2.659 1.943 4.319 1.959h0.055c0.879 0 2.119-0.198 3.17-1.108 0.691-0.6 1.212-1.441 1.657-2.285 0.040-0.058 0.082-0.117 0.12-0.176l0.472-0.548c0.45-0.534 0.876-1.041 1.381-1.43 0.621-0.477 1.309-0.75 2.055-0.907 0.13-0.030 0.261-0.054 0.393-0.072 0.658-0.104 1.357-0.139 2.092-0.157 0.961-0.030 1.999-0.059 2.993-0.315 0.426-0.187 0.832-0.454 1.209-0.843 0.302-0.312 0.742 0.219 0.439 0.534-2.152 2.226-5.266 0.654-7.605 1.735-0.922 0.627-1.668 1.58-2.337 2.535l-0.384 0.56c-0.629 0.921-1.28 1.868-2.073 2.565-0.969 0.854-1.975 0.95-3.138 1.057l-0.317 0.029c-1.108 0.107-2.602-0.333-3.809-1.123-1.042-0.68-1.903-1.767-2.421-3.061-0.519-1.292-0.695-2.786-0.496-4.201 0.587-4.207 2.624-7.593 5.59-9.293l0.598-0.328c0.569-0.31 1.158-0.624 1.711-1.086 0.368-0.307 0.719-0.643 1.061-0.969 0.353-0.336 0.717-0.683 1.090-0.99 2.047-1.684 4.734-2.466 7.571-2.202 2.377 0.221 4.868 1.131 7.618 2.786 0.090 0.053 0.181 0.101 0.274 0.147-0.461 0.101-0.761 0.294-0.741 0.355 0.024 0.094 0.585-0.067 1.28-0.075l0.276 0.003c0.384 0.091 0.766 0.131 1.143 0.171 0.715 0.075 1.393 0.15 2.039 0.534-0.002 0.136 0.034 0.254 0.082 0.32 0.059 0.083 0.121 0.099 0.15 0.067 0.055-0.064 0.017-0.24 0.051-0.403 0.005-0.002 0.007-0.005 0.009-0.008 0.248-0.243 0.663-0.216 0.887 0.056 0.226 0.272 0.25 0.777 0.051 1.078-0.031 0-0.061-0.003-0.093-0.005-0.119-0.005-0.232-0.013-0.32-0.008-0.199-0.12-0.331-0.216-0.368-0.173-0.025 0.032 0.020 0.152 0.141 0.302 0.12 0.147 0.315 0.312 0.565 0.416 0.214 0.091 0.422 0.115 0.585 0.102 0.248 0.149 0.455 0.4 0.568 0.704 0.165 0.438 0.134 0.985-0.078 1.396z"></path>
</svg>
