<?xml version="1.0" encoding="UTF-8" standalone="no"?>
<!DOCTYPE svg PUBLIC "-//W3C//DTD SVG 1.1//EN" "http://www.w3.org/Graphics/SVG/1.1/DTD/svg11.dtd">
<svg width="100%" height="100%" viewBox="0 0 150 150" version="1.1" xmlns="http://www.w3.org/2000/svg" xmlns:xlink="http://www.w3.org/1999/xlink" xml:space="preserve" xmlns:serif="http://www.serif.com/" style="fill-rule:evenodd;clip-rule:evenodd;stroke-linejoin:round;stroke-miterlimit:2;">
    <g transform="matrix(0.128907,0,0,0.13989,-85.3916,-60.7701)">
        <path d="M703.914,1139.03C702.64,1139.56 707.374,1159.15 722.134,1187.14C736.738,1215.04 762.836,1251.36 801.429,1277.29C840.113,1303.32 881.679,1311.09 910.721,1309.3C940.104,1307.77 956.854,1299.02 956.396,1297.68C955.91,1295.45 938.645,1300.53 910.721,1299.55C882.953,1298.84 844.132,1290 807.75,1265.48C771.33,1240.98 745.488,1207.53 729.444,1181.86C713.308,1156.11 705.686,1138.14 703.914,1139.03ZM724.464,1068.82C719.171,1114.98 736.334,1165.94 769.322,1201.98C805.933,1241.97 852.718,1257.17 885.449,1262.89C885.54,1262.89 885.605,1262.98 885.77,1262.98C930.481,1281.04 981.422,1279.71 1025.16,1258.6C1018.69,1264.14 1012.48,1268.88 1007.11,1272.72C993.786,1282.3 984.714,1286.95 985.366,1288.91C985.761,1290.62 996.121,1289.1 1011.28,1281.31C1020.36,1276.76 1031.03,1269.6 1041.95,1260.3C1033.91,1270.13 1025.25,1279.26 1015.6,1286.95C978.531,1316.64 934.013,1322.54 903.429,1322.27C845.167,1321.74 790.026,1298.84 751.984,1259.22C714.667,1220.14 679.762,1146 685.623,1079.91C694.612,977.592 755.837,882.98 840.664,837.282C838.333,840.769 836.26,844.255 834.315,847.565L829.912,854.715L820.29,869.033C813.611,878.768 806.878,888.875 800.622,899.167C784.743,925.637 769.734,953 755.681,980.54C742.516,1006.22 728.234,1036.35 724.464,1068.82ZM1073.57,867.685C1072.44,875.737 1071.56,880.925 1072.92,881.641C1074.12,882.264 1077.42,878.145 1080.54,870.019C1083.52,862.321 1085.84,850.875 1086.23,838.351C1097.4,835.041 1108.78,831.285 1119.44,825.204C1118.26,833.349 1116.91,842.284 1114.34,851.675C1110.63,866.523 1104.61,878.508 1098.92,886.466C1093.46,894.332 1088.95,898.721 1089.7,900.153C1090.41,901.398 1096.45,899.437 1104.21,892.194C1111.93,884.858 1120.1,871.358 1124.21,854.901C1127.64,841.578 1128.53,829.23 1128.53,819.217C1137.7,812.597 1145.87,804.545 1153.89,796.772C1154.05,796.586 1154.21,796.41 1154.37,796.317C1154.92,808.487 1154.28,819.393 1153.18,827.529C1151.96,837.282 1150.36,843.539 1151.81,844.162C1152.93,844.878 1156.93,839.699 1160.24,829.5C1163.52,819.393 1165.52,804.285 1164.22,788.005C1164.16,787.651 1164.16,787.382 1164.09,787.019C1171.15,780.492 1178.21,774.505 1186.22,769.939C1189.36,768.061 1192.48,766.453 1195.62,765.114C1195.79,768.684 1195.95,772.357 1195.95,776.02C1196.42,807.502 1190.01,832.54 1192.89,833.619C1194.1,834.149 1197.38,828.431 1200.61,818.055C1203.72,807.771 1206.28,792.653 1206.21,776.02C1206.13,771.239 1205.83,766.465 1205.32,761.711C1223.46,756.523 1241.54,757.416 1255.3,759.656C1255.1,762.52 1254.95,765.198 1254.52,768.154C1252.2,785.773 1247.13,800.975 1242.57,811.704C1238,822.341 1234.47,828.784 1235.58,829.946C1236.54,830.839 1242.24,826.19 1248.83,815.814C1252.09,810.635 1255.4,803.922 1258.3,796.233C1261.1,788.358 1263.44,779.33 1264.64,769.763C1265.02,767.076 1265.19,764.305 1265.45,761.627C1277.14,764.398 1288.71,768.331 1300.12,772.803C1300.12,772.887 1299.95,772.98 1299.95,773.073C1294.89,793.992 1287.9,810.189 1290.4,811.974C1292.57,813.759 1304.03,799.273 1309.73,776.736L1328.11,784.695C1330.27,785.587 1332.45,786.396 1334.69,787.289C1335.34,787.558 1336.05,787.735 1336.7,788.098C1336.62,788.181 1336.62,788.274 1336.62,788.358C1331.48,806.423 1326.04,820.825 1328.6,822.527C1330.83,824.228 1340.64,811.704 1346.17,792.477C1346.33,792.57 1346.5,792.653 1346.72,792.653C1348.74,793.909 1350.59,795.517 1352.5,797.219C1354.83,799.18 1357.39,801.244 1360.22,802.937C1362.28,804.192 1364.55,805.261 1366.96,806.247C1364.06,814.122 1361.42,820.649 1363.37,822.703C1365.1,824.935 1372.56,820.016 1376.65,809.557C1383.57,811.165 1390.64,811.788 1397.53,810.895C1400.81,810.449 1404.03,809.826 1407.24,809.11C1411.34,808.218 1415.09,807.409 1418.96,807.232C1426.26,806.693 1432.35,808.841 1435.8,813.043C1436.46,813.852 1437.26,814.205 1438.13,814.475C1437.01,819.124 1436.36,823.512 1435.64,827.622C1434.51,834.065 1433.73,839.96 1433.14,844.878C1433.07,846.226 1432.98,847.389 1432.83,848.551C1390.38,852.214 1347.38,852.298 1304.94,848.904C1290.4,847.742 1276.82,847.203 1263.59,847.389C1259.35,847.389 1255.24,847.565 1250.99,847.742L1243.54,848.104C1241.85,848.104 1240.07,847.742 1237.9,847.203C1235.9,846.849 1233.59,846.31 1231.1,846.226C1217.29,845.241 1203.08,851.861 1189.7,858.564C1177.64,864.645 1166.56,871.981 1153.56,881.102L1149.64,883.872C1138.17,891.924 1126.54,900.153 1114.34,906.679C1107.11,909.896 1099.05,912.676 1090.41,913.383C1077.89,914.545 1066.01,912.128 1056.07,909.636C1055.03,909.088 1053.99,908.465 1052.77,908.018C1037.29,901.584 1022.03,899.167 1008.87,899.074C1014.98,894.788 1021.31,888.521 1026.29,880.032C1031.44,871.079 1034.08,861.698 1035.04,853.469L1075.87,841.485C1075.48,851.768 1074.6,860.889 1073.57,867.685ZM1700.88,817.869C1701.92,820.286 1702.9,822.796 1702.41,825.297C1702.01,827.445 1700.24,829.323 1698.15,829.593C1697.75,829.764 1697.31,829.852 1696.87,829.853C1696.37,829.853 1695.83,829.77 1695.49,829.407C1694.76,828.877 1694.22,828.338 1693.82,827.798C1692.53,826.283 1691.97,824.312 1692.2,822.08L1692.2,821.987C1692.46,819.933 1694.14,818.231 1697.61,816.53C1698.87,815.907 1700.33,816.446 1700.88,817.869ZM1725.11,809.287C1727.45,814.838 1727.29,821.718 1724.73,827.176C1723.59,829.5 1721.97,831.824 1719.73,834.065L1716.12,830.216C1719.48,825.651 1719.73,818.947 1716.76,814.745C1714.45,811.342 1710.43,809.65 1705.93,810.189C1700.62,810.542 1689.57,813.936 1688.69,821.541C1688.37,824.851 1689.25,827.891 1691.17,830.309C1693.82,833.795 1698.4,836.12 1702.9,836.296L1703.52,836.296C1706.97,836.296 1710.19,835.311 1712.91,833.349L1715.87,837.812C1712.51,841.038 1709.38,842.823 1706.42,843.363C1705.71,843.446 1704.91,843.539 1704.08,843.539C1699.68,843.539 1695.18,841.392 1690.29,838.891C1687.39,837.189 1684.83,835.757 1682.57,833.795C1680.34,831.648 1678.9,828.961 1678.49,826.367C1678.16,823.773 1678.97,820.825 1680.73,817.339C1684.43,810.189 1690.68,804.368 1697.99,801.421C1702.8,799.45 1711.14,796.679 1715.79,799.18L1715.87,799.18C1719.97,801.421 1723.34,805.084 1725.11,809.287ZM1805.59,840.229C1804.23,838.537 1801.68,836.919 1798.63,836.659C1795.49,836.38 1792.76,837.459 1791.15,838.983C1789.39,840.499 1788.92,842.284 1789.39,843.716C1790.67,846.58 1794.19,847.742 1797.82,848.104C1801.36,848.365 1805.05,847.919 1806.73,845.241C1807.35,843.902 1807.06,842.024 1805.59,840.229ZM1742.68,836.204C1741.41,835.227 1737.89,839.699 1731.37,844.618C1724.79,849.443 1714.78,854.455 1703.21,853.999C1691.57,853.646 1681.53,848.458 1675.67,843C1669.74,837.728 1667.57,832.447 1666.12,832.81C1664.85,832.987 1664.46,840.229 1670.45,848.634C1676.32,857.039 1688.37,865.008 1702.9,865.537C1710.05,865.714 1717.02,864.022 1722.63,861.158C1728.32,858.295 1732.82,854.455 1735.96,850.782C1742.39,843.27 1743.72,836.919 1742.68,836.204ZM1730.57,806.423C1728.17,800.732 1723.89,796.029 1718.45,793.1C1711.86,789.613 1703.36,792.124 1695.9,795.071C1687.24,798.557 1679.92,805.354 1675.52,813.936C1673.02,818.77 1672.08,823.066 1672.56,827.259C1673.11,831.555 1675.29,835.674 1678.81,838.983C1681.62,841.578 1684.91,843.27 1687.74,844.878C1692.13,847.203 1697.9,850.336 1704.16,850.336C1705.22,850.336 1706.33,850.159 1707.53,849.983C1713.01,848.904 1717.5,845.241 1721.09,841.838C1724.22,838.798 1727.74,835.134 1730.01,830.309C1733.54,823.066 1733.7,813.852 1730.57,806.423ZM1666.53,805.354C1668.06,805.8 1670.22,799.896 1676.16,793.286C1681.86,786.842 1692.46,779.953 1704.25,780.938C1716.12,782.101 1725.6,790.952 1730.17,798.464C1735.06,805.893 1736.26,812.151 1737.89,811.974C1739.07,812.058 1740.61,804.815 1736.52,794.355C1734.42,789.26 1730.82,783.533 1725.6,778.791C1720.29,774.058 1713.23,770.302 1705.13,769.493C1697.03,768.777 1689.48,771.195 1683.54,774.858C1677.68,778.614 1673.27,783.533 1670.45,788.181C1664.85,797.758 1665.35,805.084 1666.53,805.354ZM1563.25,713.689C1563.65,712.164 1547.37,704.93 1520.96,693.122C1494.46,681.407 1458.12,664.588 1416.22,650.279C1374.41,635.979 1334.63,629.173 1305.81,629.173C1276.98,628.997 1259.52,633.739 1259.65,635.17C1259.81,636.872 1277.4,634.901 1305.56,637.225C1333.55,639.28 1372.01,647.155 1413.25,661.287C1454.5,675.411 1491.34,690.975 1518.46,700.719C1545.58,710.648 1562.84,715.204 1563.25,713.689ZM1228.76,634.547C1228.76,633.832 1223.63,632.4 1214.21,631.414C1204.79,630.428 1190.89,630.429 1174.04,633.116C1157.1,635.617 1137.2,641.344 1116.23,650.465C1095.16,659.586 1073.07,672.287 1051.08,687.665C1007.42,718.877 971.724,752.497 945.085,775.127C918.517,798.204 901.484,811.528 902.226,812.959C903.006,814.122 921.565,803.206 949.332,781.747C977.265,760.642 1013.69,728.082 1056.56,697.418C1078.13,682.393 1099.49,669.6 1119.72,660.302C1139.93,650.911 1158.93,644.561 1175.17,641.074C1207.74,633.915 1228.67,636.686 1228.76,634.547ZM1819.4,852.13C1818.14,854.362 1816.59,856.51 1814.99,858.564C1806.65,865.714 1794.77,872.25 1780.26,873.682C1763.24,875.644 1746.69,873.775 1734.67,874.928C1722.55,875.56 1715.26,878.331 1715.5,879.763C1715.65,881.464 1722.89,881.548 1734.52,882.98L1755.22,885.211L1764.44,885.751C1729.29,893.449 1694.31,888.967 1657.53,884.142C1635.54,881.278 1612.85,878.238 1590.14,878.145C1583.81,878.145 1577.14,878.508 1570.79,879.131C1559.64,880.032 1548.08,880.925 1538.22,878.601C1535.79,877.708 1530.42,874.751 1524.98,871.441C1524.39,870.819 1523.94,870.279 1523.35,869.563C1515.03,859.187 1510.84,846.58 1509.06,837.282C1507.22,827.891 1507.22,821.448 1505.46,821.002C1503.95,820.649 1500.68,826.813 1500.33,838.091C1500.24,842.823 1500.9,848.458 1502.33,854.362C1501.13,854.715 1500.02,855.338 1499.04,856.147L1455.71,892.817C1455.56,892.9 1455.47,893.179 1455.3,893.263C1450.49,888.698 1446.57,886.383 1445.2,887.815C1444.08,888.875 1444.88,892.194 1447.04,896.573C1440.54,895.234 1435.74,896.127 1435.48,898.088C1435,901.305 1443.92,905.517 1454.02,911.245C1455.8,912.128 1457.4,913.03 1459.01,913.922C1463.84,919.38 1468.31,923.043 1471.04,923.936C1480.42,935.558 1487.33,949.783 1490.36,965.161C1490.45,965.617 1490.61,966.054 1490.8,966.5C1490.3,969.011 1490.7,971.698 1492.06,974.022C1492.93,975.631 1494.24,976.616 1495.58,977.509C1496.08,976.616 1496.66,975.807 1497.44,975.091C1511.07,961.498 1529.38,956.403 1547.04,962.307C1560.91,966.863 1554.97,991.185 1541.11,986.537C1534.21,984.305 1527.15,984.659 1520.85,987.699L1538.71,1011.49C1542.64,1016.76 1543.35,1024.19 1538.71,1029.38C1534.68,1033.84 1526.72,1034.56 1522.8,1029.38L1501.77,1001.29C1501.13,1001.48 1500.47,1001.74 1499.94,1002.28C1496.82,1004.42 1495.2,1008.45 1495.86,1012.38C1496.46,1017.3 1494.86,1023.38 1491.83,1028.67C1490.86,1028.21 1490.06,1027.59 1489.43,1027.06C1486.07,1023.38 1484.6,1017.75 1482.83,1011.13C1481.46,1005.94 1479.87,999.953 1476.9,994.412C1479.22,994.049 1481.4,993.426 1483.14,992.71C1487.64,990.832 1489.73,988.331 1489.43,986.899C1488.38,983.85 1478.58,985.374 1467.11,982.957C1463.34,980.279 1459.49,978.318 1455.96,976.7C1454.5,975.984 1453.06,975.361 1451.55,974.552C1434.06,965.338 1421.36,945.581 1419.2,924.029C1417.04,902.477 1425.54,880.032 1440.71,866.616C1443.2,864.561 1444.39,861.158 1444.17,857.848C1445.39,855.483 1446.25,852.952 1446.73,850.336C1447.69,844.348 1447.37,839.876 1447.92,836.38C1448.49,832.633 1449.45,829.054 1450.74,825.837C1453.3,819.3 1456.99,813.936 1460.6,810.096C1467.91,802.23 1474.5,799.72 1474.07,797.665C1474,796.056 1465.9,794.978 1455.3,802.407C1454.02,803.206 1452.74,804.285 1451.46,805.531C1455.65,794.801 1462.6,788.005 1468.95,784.072C1475.94,779.683 1481.4,778.707 1481.4,776.913C1481.56,775.481 1475.53,773.426 1466.12,776.652C1461.5,778.261 1456.11,781.301 1451.37,786.303C1446.73,791.045 1443.03,797.842 1440.64,805.177C1433.57,797.935 1423.85,797.219 1418.48,797.665C1414.06,797.935 1409.81,798.827 1405.71,799.72C1402.65,800.343 1399.62,800.975 1396.58,801.421C1390.86,802.137 1384.85,801.691 1379.08,800.343C1379.89,792.653 1377.88,786.842 1375.8,787.019C1373.69,787.205 1372.01,791.491 1370.01,797.219C1367.99,796.41 1365.99,795.61 1364.06,794.448C1361.9,793.193 1359.82,791.398 1357.66,789.613C1355.56,787.735 1353.38,785.95 1350.93,784.425C1350.1,783.886 1349.3,783.533 1348.5,783.179C1351.46,767.522 1350.21,755.454 1347.78,755.361C1345.45,755.184 1342.97,765.467 1339.26,778.967C1338.71,778.707 1338.08,778.437 1337.43,778.261C1335.34,777.452 1333.26,776.652 1331.24,775.75L1311.74,767.438C1314.79,748.657 1312.23,734.078 1309.9,734.255C1307.41,734.348 1305.81,747.132 1302.27,763.589C1290.33,758.94 1278.11,754.831 1265.67,751.967C1265.6,748.75 1265.45,745.44 1265.19,742.4C1264.39,733.986 1262.96,726.473 1261.1,720.485C1257.41,708.501 1253.1,702.15 1251.95,702.866C1250.51,703.489 1252.36,710.825 1254.04,722.456C1255.1,730.053 1255.89,739.536 1255.81,750.089C1241.43,747.765 1222.9,747.049 1204.14,752.237C1203.02,745.254 1201.48,738.997 1199.8,733.986C1196.49,723.702 1193.07,718.068 1191.76,718.514C1189.6,719.416 1193.13,734.255 1194.98,755.277C1190.64,757.062 1186.39,759.033 1182.21,761.441C1175.25,765.56 1168.89,770.562 1162.8,776.02C1161.02,764.844 1158.46,755.184 1156.12,747.941C1152.93,738.188 1150.21,732.377 1148.83,732.74C1147.48,733.186 1147.71,739.713 1149.05,749.903C1150.3,759.117 1152.27,771.195 1153.56,784.518L1148.34,789.613C1141.61,796.14 1135.04,802.407 1128.21,807.948C1127.64,799.896 1126.6,795.164 1125.39,795.071C1123.95,795.071 1122.59,801.691 1121.22,812.058C1121.15,812.42 1121.15,812.774 1121,813.136C1119.44,814.205 1117.85,815.368 1116.23,816.353C1106.87,821.811 1096.51,825.39 1086.32,828.514C1085.99,818.594 1084.88,809.733 1083.52,803.123C1081.99,794.801 1080.15,789.79 1078.79,789.976C1077.32,790.152 1076.6,795.424 1076.36,803.829L1076.22,831.471L1035.43,843.539L1035.43,843.186C1034.96,833.349 1032.31,827.798 1031.03,828.068C1029.57,828.338 1029.57,834.065 1028.22,842.73C1026.94,851.321 1024.06,862.953 1017.71,873.682C1011.46,884.505 1003.09,892.194 996.587,896.926C994.831,898.265 993.236,899.344 991.778,900.329C991.53,900.329 991.301,900.422 991.062,900.422C975.165,903.193 966.349,908.372 966.825,910.073C967.293,912.044 976.778,910.343 991.778,910.166C1006.7,909.98 1027.33,912.044 1048.43,920.988C1069.46,929.84 1086.32,943.526 1097.4,954.702C1098.35,955.594 1099.17,956.403 1100.05,957.296C1114.71,972.86 1128.21,990.832 1142.65,1012.03L1143.68,1013.45C1147.8,1019.54 1152.53,1026.51 1159,1031.52C1162.65,1034.3 1166.32,1036.17 1170.19,1037.79C1170.98,1037.69 1171.72,1037.25 1172.59,1037.33C1193.37,1038.49 1213.99,1037.42 1234.54,1033.84C1248.75,1031.34 1254.76,1055.59 1240.56,1058.19C1223.63,1061.13 1206.77,1062.84 1189.7,1062.93C1189.92,1063.19 1190.08,1063.28 1190.41,1063.46C1194,1066.23 1198.77,1070.25 1204.79,1074.64C1210.14,1078.66 1215.78,1081.88 1220.42,1083.4C1222.35,1086 1223.94,1088.94 1225.17,1092.08L1221.07,1089.75C1210.4,1083.76 1200.03,1079.64 1193.84,1076.07C1187.43,1072.49 1184.79,1068.38 1183.35,1069.01C1182.69,1069.27 1182.63,1070.97 1183.51,1073.56C1184.31,1076.16 1186.39,1079.55 1189.6,1082.68C1192.89,1085.82 1197.08,1088.77 1201.64,1091.54C1205.1,1093.68 1208.87,1095.83 1212.8,1097.98C1204.86,1099.95 1197.08,1102.09 1189.36,1104.68C1189.2,1103.26 1188.72,1101.74 1187.84,1100.4L1161.02,1057.29C1158.55,1053.27 1153.98,1051.84 1149.96,1053.8C1133.74,1061.67 1111.68,1058.54 1089.52,1045.04C1079.33,1038.85 1069.87,1031.34 1059.93,1023.56C1050.36,1015.97 1040.42,1008.09 1029.82,1001.48C995.309,980.103 954.552,974.292 916.023,982.241C918.748,979.201 921.078,976.254 923.087,973.399C930.866,962.307 933.526,953.902 932.159,952.916C930.709,951.754 925.655,958.012 916.84,966.677C912.335,971.065 907.024,975.984 900.612,980.726C894.448,985.374 887.293,989.847 879.421,994.495C870.697,998.521 862.249,1003.44 854.304,1009.07C847.801,1013.28 841.956,1017.3 837.462,1021.6C832.15,1026.25 828.545,1030.72 826.536,1033.94C825.665,1034.92 824.693,1035.9 823.821,1036.8C796.768,1068.82 783.54,1107.91 787.622,1144.39C791.228,1177.21 809.042,1208.96 837.847,1233.82C842.151,1237.55 846.653,1241.04 851.332,1244.29C826.216,1235.44 798.539,1220.59 775.184,1195.1C744.132,1161.2 727.996,1113.27 732.976,1069.99C736.582,1039.3 749.746,1011.32 762.974,985.291C776.934,958.012 791.961,930.825 807.685,904.532C813.776,894.332 820.519,884.412 827.023,874.835L836.746,860.442C838.012,858.388 839.701,855.794 841.314,852.846C846.855,843.809 855.111,830.039 860.882,827.445L861.047,827.445C863.285,826.46 864.349,823.689 863.542,821.188C862.662,818.77 860.239,817.515 858.065,818.501C858.001,818.501 857.928,818.501 857.928,818.594C759.79,860.535 687.146,965.161 677.201,1078.93C671.102,1148.15 707.291,1225.51 746.295,1266.2C785.778,1307.42 842.994,1331.31 903.336,1331.85L905.335,1331.85C937.288,1331.85 982.383,1325.23 1020.59,1294.72C1045.71,1274.61 1064.66,1246.44 1080.85,1218.17C1082.32,1216.21 1083.84,1214.24 1085.2,1212.28L1102.37,1193.93C1118.73,1176.05 1134.22,1159.06 1152.6,1146C1175.17,1130 1200.19,1120.87 1227.31,1115.6C1232.04,1114.61 1236.81,1113.8 1241.6,1113.18C1265.51,1109.69 1290.96,1108.53 1317.68,1107.91C1352.61,1106.92 1390.38,1105.94 1426.5,1097.35C1441.99,1091.1 1456.77,1082.15 1470.47,1069.09C1481.46,1058.63 1497.44,1076.42 1486.45,1086.98C1408.21,1161.57 1294.96,1108.89 1209.91,1145.11C1176.37,1166.12 1149.24,1198.05 1124.92,1230.07L1110.96,1248.85C1088.08,1279.71 1064.4,1311.45 1035.59,1334.79C1000.37,1363.41 963.78,1366.63 921.471,1370.21L909.931,1371.18C869.633,1374.76 815.298,1360.02 771.422,1333.54C733.536,1310.74 702.236,1274.34 683.375,1230.97C664.515,1187.67 658.093,1137.6 665.322,1090.2C686.669,949.244 760.736,835.757 868.597,778.791L890.338,767.792C911.043,757.416 932.462,746.872 952.543,731.401C965.928,721.108 978.697,709.849 991.135,698.933C1003.97,687.665 1017.22,676.043 1030.76,665.75C1105.18,609.323 1202.91,583.122 1306.05,591.974C1392.48,599.393 1483.07,629.889 1583.07,685.34C1586.36,687.126 1589.66,688.734 1593.02,690.259C1576.25,693.652 1565.34,700.096 1566.06,702.15C1566.93,705.284 1587.32,699.919 1612.61,699.649L1622.64,699.742C1636.6,702.783 1650.49,704.122 1664.2,705.46C1690.19,707.961 1714.85,710.472 1738.35,723.349C1738.27,727.905 1739.57,731.847 1741.32,734.078C1743.48,736.849 1745.73,737.388 1746.78,736.319C1748.79,734.171 1747.4,728.267 1748.62,722.81C1748.79,722.726 1748.86,722.633 1748.93,722.54C1757.94,714.405 1773.03,715.297 1781.19,724.418C1789.39,733.539 1790.27,750.442 1783.05,760.549C1781.94,760.549 1780.82,760.456 1779.68,760.372C1775.35,760.195 1771.24,759.926 1768.04,760.103C1760.82,756.077 1756.02,752.86 1754.66,754.292C1753.76,755.361 1755.37,759.387 1759.78,764.398C1764.13,769.316 1771.24,774.858 1780.32,778.344C1788.11,781.385 1795.65,782.194 1801.58,781.747C1810.59,786.749 1818.14,795.164 1822.22,805.354C1828.23,820.016 1827.1,838.351 1819.4,852.13Z" style="fill-rule:nonzero;"/>
    </g>
</svg>
