<?xml version="1.0" encoding="utf-8"?>
<svg xmlns="http://www.w3.org/2000/svg" viewBox="642.0257 353.5874 156.6196 94.3832" width="150pt" height="150pt">
  <path fill="#000000" d="M 653.908 418.745 C 653.742 418.811 654.331 420.995 656.172 424.13 C 657.99 427.245 661.245 431.302 666.055 434.206 C 670.873 437.117 676.057 437.988 679.678 437.783 C 683.333 437.612 685.421 436.637 685.36 436.481 C 685.299 436.231 683.158 436.803 679.67 436.697 C 676.211 436.618 671.378 435.623 666.845 432.89 C 662.306 430.148 659.083 426.409 657.084 423.541 C 655.072 420.651 654.129 418.649 653.908 418.745 Z M 656.468 410.891 C 655.803 416.054 657.944 421.757 662.052 425.787 C 666.612 430.254 672.443 431.957 676.521 432.6 C 676.533 432.6 676.546 432.607 676.561 432.607 C 682.134 434.625 688.488 434.477 693.936 432.118 C 693.121 432.738 692.358 433.269 691.681 433.695 C 690.025 434.763 688.896 435.286 688.973 435.508 C 689.027 435.692 690.312 435.522 692.203 434.654 C 693.334 434.144 694.662 433.349 696.024 432.311 C 695.026 433.405 693.949 434.426 692.748 435.286 C 688.124 438.61 682.572 439.262 678.763 439.24 C 671.505 439.179 664.635 436.613 659.897 432.184 C 655.242 427.815 650.895 419.531 651.62 412.135 C 652.744 400.699 660.373 390.118 670.942 385.008 C 670.659 385.391 670.395 385.785 670.153 386.153 C 669.949 386.461 669.758 386.748 669.6 386.956 C 669.209 387.49 668.804 388.024 668.4 388.555 C 667.578 389.648 666.732 390.775 665.958 391.928 C 663.979 394.885 662.103 397.944 660.352 401.025 C 658.719 403.9 656.935 407.263 656.468 410.891 Z M 699.962 388.404 C 699.825 389.304 699.71 389.883 699.881 389.965 C 700.029 390.035 700.449 389.572 700.834 388.664 C 701.203 387.802 701.49 386.53 701.543 385.13 C 702.936 384.757 704.354 384.338 705.68 383.651 C 705.537 384.562 705.359 385.571 705.048 386.617 C 704.582 388.277 703.833 389.621 703.127 390.503 C 702.44 391.39 701.881 391.875 701.978 392.038 C 702.061 392.175 702.813 391.958 703.779 391.141 C 704.747 390.324 705.763 388.813 706.278 386.974 C 706.709 385.488 706.817 384.103 706.817 382.983 C 707.951 382.241 708.972 381.348 709.977 380.479 C 709.996 380.454 710.01 380.44 710.035 380.425 C 710.104 381.782 710.028 383.001 709.883 383.911 C 709.731 385.008 709.532 385.702 709.711 385.778 C 709.851 385.854 710.349 385.279 710.759 384.132 C 711.179 383.008 711.427 381.319 711.261 379.497 C 711.25 379.456 711.25 379.428 711.247 379.389 C 712.122 378.66 713.007 377.988 713.999 377.471 C 714.392 377.265 714.78 377.088 715.174 376.936 C 715.199 377.334 715.215 377.745 715.215 378.154 C 715.278 381.674 714.472 384.477 714.831 384.596 C 714.986 384.66 715.394 384.013 715.79 382.857 C 716.183 381.705 716.508 380.02 716.493 378.151 C 716.482 377.594 716.446 377.059 716.387 376.556 C 718.645 375.973 720.896 376.072 722.613 376.328 C 722.587 376.643 722.559 376.95 722.516 377.275 C 722.226 379.246 721.598 380.95 721.022 382.144 C 720.454 383.34 720.01 384.06 720.151 384.187 C 720.273 384.285 720.982 383.771 721.807 382.606 C 722.219 382.024 722.62 381.28 722.986 380.411 C 723.333 379.536 723.622 378.527 723.778 377.456 C 723.825 377.153 723.846 376.848 723.871 376.549 C 725.329 376.852 726.771 377.293 728.19 377.796 C 728.19 377.808 728.178 377.821 728.178 377.828 C 727.542 380.168 726.678 381.977 726.982 382.171 C 727.257 382.374 728.682 380.754 729.39 378.237 C 730.164 378.527 730.927 378.827 731.687 379.123 C 731.951 379.222 732.225 379.318 732.501 379.413 C 732.587 379.441 732.671 379.47 732.754 379.504 C 732.748 379.511 732.748 379.525 732.739 379.536 C 732.103 381.554 731.429 383.167 731.739 383.359 C 732.019 383.549 733.242 382.144 733.936 379.991 C 733.958 380.006 733.979 380.017 734.001 380.02 C 734.251 380.158 734.482 380.334 734.724 380.524 C 735.017 380.743 735.329 380.979 735.687 381.166 C 735.948 381.308 736.229 381.424 736.519 381.54 C 736.168 382.418 735.834 383.142 736.069 383.372 C 736.295 383.622 737.222 383.076 737.734 381.904 C 738.591 382.089 739.473 382.155 740.331 382.056 C 740.739 382.006 741.143 381.934 741.545 381.859 C 742.051 381.755 742.525 381.666 743.007 381.644 C 743.915 381.59 744.673 381.825 745.1 382.295 C 745.183 382.385 745.281 382.429 745.39 382.454 C 745.256 382.977 745.17 383.47 745.087 383.926 C 744.948 384.649 744.847 385.309 744.778 385.861 C 744.763 386.001 744.749 386.139 744.735 386.266 C 739.449 386.678 734.088 386.685 728.789 386.306 C 726.982 386.173 725.296 386.114 723.641 386.139 C 723.119 386.139 722.6 386.157 722.074 386.173 C 721.763 386.187 721.456 386.198 721.144 386.212 C 720.939 386.212 720.715 386.173 720.447 386.117 C 720.194 386.074 719.907 386.016 719.591 386.001 C 717.872 385.898 716.1 386.632 714.436 387.386 C 712.939 388.071 711.557 388.883 709.937 389.908 L 709.449 390.211 C 708.017 391.117 706.559 392.038 705.048 392.765 C 704.148 393.13 703.141 393.431 702.061 393.52 C 700.505 393.65 699.024 393.379 697.786 393.093 C 697.652 393.037 697.52 392.97 697.37 392.917 C 695.449 392.198 693.544 391.926 691.909 391.915 C 692.669 391.433 693.456 390.736 694.076 389.784 C 694.719 388.791 695.04 387.734 695.16 386.82 L 700.252 385.474 C 700.205 386.624 700.089 387.648 699.962 388.404 Z M 778.134 382.834 C 778.263 383.105 778.385 383.386 778.328 383.662 C 778.277 383.908 778.053 384.117 777.797 384.147 C 777.745 384.165 777.689 384.176 777.634 384.176 C 777.569 384.176 777.503 384.162 777.46 384.128 C 777.376 384.067 777.308 384.01 777.255 383.944 C 777.098 383.778 777.026 383.561 777.052 383.309 C 777.052 383.305 777.052 383.305 777.052 383.3 C 777.084 383.069 777.29 382.877 777.727 382.682 C 777.881 382.613 778.061 382.678 778.134 382.834 Z M 781.156 381.875 C 781.445 382.497 781.428 383.265 781.102 383.872 C 780.964 384.132 780.763 384.393 780.487 384.646 L 780.035 384.214 C 780.455 383.703 780.487 382.956 780.115 382.486 C 779.825 382.111 779.326 381.915 778.759 381.975 C 778.104 382.017 776.72 382.393 776.617 383.249 C 776.573 383.612 776.684 383.951 776.925 384.23 C 777.255 384.621 777.828 384.881 778.385 384.9 L 778.469 384.9 C 778.892 384.9 779.295 384.784 779.638 384.562 L 780.005 385.065 C 779.579 385.422 779.193 385.626 778.826 385.684 C 778.73 385.698 778.632 385.709 778.534 385.709 C 777.985 385.709 777.428 385.467 776.815 385.182 C 776.458 384.996 776.13 384.84 775.858 384.621 C 775.575 384.381 775.392 384.078 775.347 383.785 C 775.308 383.495 775.403 383.167 775.623 382.776 C 776.082 381.975 776.867 381.325 777.771 381 C 778.375 380.773 779.416 380.465 779.995 380.743 L 780.002 380.743 C 780.512 380.993 780.935 381.406 781.156 381.875 Z M 791.188 385.336 C 791.013 385.141 790.696 384.963 790.314 384.936 C 789.922 384.907 789.586 385.023 789.383 385.196 C 789.167 385.362 789.108 385.564 789.167 385.723 C 789.319 386.049 789.767 386.173 790.215 386.212 C 790.653 386.241 791.115 386.198 791.319 385.898 C 791.402 385.75 791.369 385.535 791.188 385.336 Z M 783.345 384.884 C 783.185 384.78 782.746 385.279 781.931 385.825 C 781.113 386.364 779.869 386.928 778.426 386.874 C 776.972 386.836 775.727 386.252 774.998 385.648 C 774.25 385.058 773.987 384.461 773.808 384.508 C 773.645 384.522 773.598 385.336 774.342 386.28 C 775.072 387.218 776.573 388.108 778.385 388.161 C 779.274 388.186 780.143 387.994 780.846 387.676 C 781.55 387.352 782.111 386.928 782.505 386.515 C 783.308 385.68 783.477 384.963 783.345 384.884 Z M 781.835 381.558 C 781.543 380.924 780.993 380.387 780.328 380.071 C 779.503 379.674 778.444 379.952 777.518 380.287 C 776.43 380.676 775.528 381.432 774.972 382.4 C 774.666 382.932 774.546 383.416 774.602 383.883 C 774.676 384.367 774.947 384.829 775.381 385.199 C 775.731 385.488 776.141 385.68 776.494 385.854 C 777.041 386.114 777.761 386.461 778.541 386.461 C 778.679 386.461 778.812 386.447 778.961 386.428 C 779.645 386.306 780.201 385.895 780.657 385.513 C 781.044 385.174 781.482 384.762 781.768 384.226 C 782.202 383.413 782.227 382.389 781.835 381.558 Z M 773.858 381.432 C 774.042 381.485 774.31 380.823 775.052 380.09 C 775.767 379.366 777.08 378.592 778.555 378.703 C 780.035 378.834 781.211 379.825 781.781 380.661 C 782.396 381.499 782.548 382.198 782.746 382.171 C 782.898 382.183 783.088 381.376 782.57 380.204 C 782.313 379.633 781.864 379 781.211 378.468 C 780.556 377.934 779.67 377.518 778.66 377.427 C 777.654 377.348 776.712 377.616 775.974 378.027 C 775.24 378.443 774.693 378.993 774.342 379.511 C 773.645 380.585 773.702 381.406 773.858 381.432 Z M 760.987 371.188 C 761.038 371.016 759.006 370.206 755.714 368.882 C 752.412 367.577 747.881 365.699 742.663 364.093 C 737.452 362.492 732.497 361.732 728.909 361.732 C 725.311 361.711 723.13 362.25 723.158 362.406 C 723.178 362.6 725.359 362.378 728.87 362.639 C 732.366 362.865 737.155 363.75 742.297 365.327 C 747.437 366.904 752.022 368.647 755.407 369.735 C 758.785 370.849 760.933 371.355 760.987 371.188 Z M 719.304 362.34 C 719.304 362.257 718.66 362.097 717.491 361.99 C 716.31 361.877 714.584 361.877 712.48 362.173 C 710.372 362.453 707.897 363.095 705.28 364.118 C 702.658 365.134 699.902 366.559 697.167 368.281 C 691.726 371.771 687.273 375.525 683.95 378.057 C 680.647 380.639 678.52 382.126 678.619 382.282 C 678.713 382.418 681.02 381.196 684.482 378.799 C 687.968 376.436 692.502 372.794 697.848 369.371 C 700.531 367.681 703.194 366.26 705.716 365.215 C 708.238 364.163 710.603 363.454 712.625 363.066 C 716.686 362.267 719.297 362.572 719.304 362.34 Z M 792.902 386.664 C 792.743 386.92 792.551 387.155 792.35 387.386 C 791.311 388.186 789.835 388.913 788.025 389.076 C 785.907 389.297 783.844 389.091 782.343 389.214 C 780.838 389.282 779.924 389.593 779.952 389.759 C 779.973 389.941 780.877 389.956 782.327 390.118 C 783.047 390.186 783.918 390.284 784.902 390.363 C 785.261 390.388 785.647 390.408 786.049 390.422 C 781.67 391.282 777.315 390.79 772.733 390.241 C 769.992 389.921 767.168 389.585 764.336 389.572 C 763.547 389.578 762.712 389.621 761.92 389.684 C 760.531 389.784 759.096 389.889 757.86 389.629 C 757.563 389.526 756.891 389.198 756.212 388.83 C 756.149 388.757 756.079 388.693 756.011 388.62 C 754.97 387.458 754.452 386.049 754.233 385.008 C 754.004 383.958 754.004 383.235 753.787 383.189 C 753.595 383.142 753.186 383.838 753.147 385.101 C 753.133 385.626 753.212 386.255 753.393 386.92 C 753.244 386.956 753.104 387.026 752.984 387.116 L 747.585 391.213 C 747.56 391.227 747.549 391.254 747.529 391.268 C 746.937 390.757 746.445 390.5 746.276 390.653 C 746.138 390.775 746.236 391.144 746.503 391.636 C 745.69 391.485 745.09 391.582 745.059 391.806 C 745.003 392.168 746.109 392.638 747.378 393.272 C 747.593 393.379 747.794 393.476 747.998 393.576 C 748.591 394.186 749.15 394.598 749.498 394.695 C 750.669 395.991 751.523 397.589 751.907 399.31 C 751.917 399.353 751.935 399.408 751.953 399.451 C 751.892 399.737 751.946 400.041 752.113 400.299 C 752.225 400.475 752.38 400.587 752.554 400.682 C 752.612 400.587 752.684 400.5 752.781 400.417 C 754.481 398.898 756.764 398.323 758.965 398.982 C 760.694 399.495 759.952 402.218 758.221 401.697 C 757.363 401.441 756.488 401.487 755.707 401.828 C 756.448 402.718 757.19 403.604 757.927 404.489 C 758.416 405.075 758.502 405.903 757.927 406.486 C 757.421 406.988 756.43 407.068 755.941 406.486 C 755.07 405.436 754.198 404.391 753.327 403.344 C 753.244 403.371 753.16 403.4 753.089 403.451 C 752.708 403.696 752.507 404.147 752.581 404.591 C 752.665 405.136 752.467 405.819 752.079 406.405 C 751.961 406.355 751.862 406.289 751.783 406.222 C 751.36 405.819 751.18 405.188 750.966 404.45 C 750.796 403.864 750.598 403.191 750.228 402.577 C 750.518 402.532 750.785 402.468 751.006 402.384 C 751.559 402.175 751.826 401.9 751.78 401.733 C 751.65 401.398 750.43 401.564 749.007 401.297 C 748.535 401 748.052 400.778 747.613 400.598 C 747.433 400.519 747.249 400.442 747.067 400.359 C 744.887 399.328 743.303 397.119 743.031 394.71 C 742.761 392.295 743.819 389.784 745.718 388.291 C 746.025 388.053 746.177 387.68 746.141 387.307 C 746.29 387.044 746.409 386.761 746.46 386.461 C 746.587 385.799 746.548 385.297 746.618 384.907 C 746.684 384.483 746.803 384.089 746.96 383.721 C 747.281 382.993 747.747 382.4 748.195 381.963 C 749.104 381.087 749.928 380.81 749.878 380.577 C 749.863 380.394 748.854 380.274 747.533 381.102 C 747.378 381.199 747.213 381.319 747.053 381.456 C 747.57 380.26 748.446 379.497 749.23 379.054 C 750.106 378.567 750.785 378.454 750.785 378.251 C 750.801 378.101 750.052 377.864 748.88 378.224 C 748.304 378.404 747.636 378.743 747.039 379.305 C 746.46 379.839 746.001 380.599 745.704 381.416 C 744.822 380.606 743.617 380.531 742.948 380.577 C 742.394 380.606 741.863 380.703 741.353 380.81 C 740.973 380.881 740.594 380.95 740.214 380.993 C 739.499 381.072 738.754 381.029 738.03 380.877 C 738.139 380.017 737.881 379.366 737.621 379.389 C 737.361 379.402 737.155 379.882 736.909 380.531 C 736.655 380.44 736.407 380.343 736.168 380.22 C 735.899 380.075 735.636 379.879 735.369 379.674 C 735.101 379.47 734.83 379.269 734.519 379.095 C 734.428 379.04 734.323 379 734.225 378.954 C 734.598 377.21 734.435 375.854 734.138 375.85 C 733.845 375.825 733.535 376.972 733.072 378.484 C 732.999 378.458 732.92 378.429 732.847 378.404 C 732.58 378.316 732.321 378.224 732.074 378.124 C 731.271 377.814 730.461 377.5 729.64 377.192 C 730.027 375.095 729.709 373.468 729.416 373.486 C 729.105 373.496 728.909 374.921 728.461 376.763 C 726.975 376.244 725.452 375.782 723.9 375.468 C 723.893 375.102 723.879 374.74 723.846 374.396 C 723.748 373.457 723.567 372.62 723.333 371.947 C 722.872 370.602 722.331 369.9 722.194 369.971 C 722.016 370.046 722.248 370.864 722.453 372.17 C 722.587 373.016 722.685 374.074 722.671 375.258 C 720.882 374.992 718.57 374.911 716.238 375.496 C 716.089 374.716 715.9 374.014 715.691 373.453 C 715.282 372.303 714.849 371.671 714.696 371.728 C 714.425 371.826 714.866 373.486 715.091 375.84 C 714.555 376.032 714.027 376.251 713.5 376.527 C 712.639 376.986 711.846 377.547 711.087 378.151 C 710.868 376.907 710.541 375.825 710.252 375.012 C 709.858 373.923 709.514 373.276 709.347 373.319 C 709.171 373.369 709.207 374.097 709.373 375.239 C 709.528 376.263 709.774 377.616 709.937 379.11 C 709.718 379.296 709.5 379.481 709.284 379.674 C 708.444 380.404 707.623 381.102 706.772 381.721 C 706.705 380.827 706.574 380.295 706.426 380.287 C 706.246 380.287 706.072 381.029 705.901 382.183 C 705.89 382.223 705.89 382.267 705.879 382.307 C 705.68 382.429 705.485 382.556 705.28 382.664 C 704.115 383.28 702.827 383.676 701.553 384.028 C 701.514 382.917 701.37 381.922 701.207 381.185 C 701.012 380.252 700.788 379.692 700.615 379.712 C 700.438 379.731 700.347 380.327 700.318 381.269 C 700.289 382.089 700.304 383.181 700.289 384.361 L 695.212 385.702 C 695.212 385.687 695.212 385.68 695.212 385.662 C 695.153 384.562 694.825 383.944 694.665 383.977 C 694.484 384.006 694.482 384.649 694.314 385.619 C 694.155 386.58 693.789 387.872 693.001 389.08 C 692.221 390.284 691.183 391.144 690.372 391.68 C 690.152 391.822 689.952 391.947 689.775 392.059 C 689.742 392.059 689.711 392.067 689.685 392.067 C 687.708 392.378 686.608 392.956 686.663 393.145 C 686.724 393.369 687.902 393.173 689.769 393.16 C 691.631 393.134 694.206 393.369 696.832 394.367 C 699.457 395.354 701.558 396.883 702.936 398.132 C 703.051 398.233 703.157 398.326 703.261 398.424 C 705.089 400.161 706.772 402.179 708.574 404.543 L 708.702 404.71 C 709.217 405.387 709.803 406.162 710.618 406.724 C 711.062 407.035 711.528 407.248 712.002 407.426 C 712.104 407.411 712.19 407.371 712.306 407.375 C 714.891 407.505 717.464 407.387 720.023 406.981 C 721.796 406.701 722.544 409.418 720.769 409.701 C 718.66 410.033 716.559 410.225 714.439 410.24 C 714.464 410.262 714.487 410.276 714.519 410.293 C 714.971 410.608 715.568 411.054 716.31 411.549 C 716.986 411.997 717.684 412.352 718.267 412.525 C 718.502 412.814 718.704 413.145 718.853 413.494 C 718.674 413.404 718.515 413.321 718.339 413.237 C 717.014 412.566 715.72 412.108 714.95 411.705 C 714.154 411.303 713.821 410.844 713.648 410.911 C 713.568 410.947 713.554 411.136 713.663 411.426 C 713.768 411.715 714.027 412.094 714.425 412.443 C 714.831 412.8 715.355 413.129 715.926 413.434 C 716.349 413.671 716.826 413.911 717.312 414.156 C 716.328 414.373 715.351 414.615 714.396 414.909 C 714.372 414.742 714.312 414.575 714.206 414.422 L 710.868 409.603 C 710.555 409.154 709.98 408.995 709.485 409.217 C 707.46 410.099 704.718 409.744 701.952 408.233 C 700.682 407.549 699.507 406.71 698.268 405.834 C 697.069 404.984 695.832 404.106 694.511 403.368 C 690.217 400.975 685.132 400.323 680.337 401.22 C 680.672 400.877 680.969 400.544 681.219 400.221 C 682.188 398.982 682.514 398.048 682.344 397.94 C 682.164 397.806 681.53 398.508 680.431 399.477 C 679.874 399.962 679.211 400.511 678.413 401.043 C 677.649 401.571 676.749 402.07 675.773 402.584 C 674.68 403.039 673.636 403.589 672.645 404.218 C 671.834 404.685 671.107 405.14 670.546 405.615 C 669.881 406.138 669.434 406.634 669.184 406.999 C 669.071 407.111 668.955 407.217 668.848 407.317 C 665.472 410.891 663.82 415.266 664.33 419.345 C 664.782 423.017 667.006 426.568 670.591 429.348 C 671.137 429.765 671.697 430.155 672.275 430.52 C 669.141 429.53 665.694 427.862 662.782 425.016 C 658.913 421.222 656.902 415.863 657.521 411.027 C 657.97 407.592 659.617 404.465 661.267 401.557 C 663.006 398.505 664.879 395.463 666.833 392.526 C 667.592 391.39 668.436 390.28 669.241 389.202 C 669.65 388.671 670.055 388.132 670.456 387.593 C 670.619 387.363 670.822 387.073 671.028 386.748 C 671.716 385.732 672.739 384.194 673.469 383.908 C 673.481 383.908 673.485 383.908 673.485 383.908 C 673.763 383.799 673.897 383.485 673.795 383.209 C 673.686 382.939 673.385 382.8 673.114 382.909 C 673.108 382.909 673.096 382.909 673.089 382.917 C 660.859 387.611 651.81 399.31 650.57 412.026 C 649.81 419.768 654.321 428.42 659.181 432.966 C 664.103 437.572 671.238 440.245 678.756 440.303 C 678.84 440.303 678.919 440.303 679.003 440.303 C 682.98 440.303 688.608 439.568 693.36 436.151 C 696.498 433.901 698.857 430.756 700.879 427.598 C 701.055 427.379 701.243 427.157 701.413 426.937 C 702.143 426.257 702.852 425.569 703.55 424.886 C 705.593 422.883 707.526 420.988 709.814 419.527 C 712.625 417.733 715.745 416.716 719.127 416.123 C 719.717 416.015 720.306 415.927 720.905 415.856 C 723.889 415.461 727.054 415.335 730.384 415.262 C 734.736 415.157 739.44 415.045 743.942 414.083 C 745.874 413.386 747.718 412.388 749.422 410.927 C 750.792 409.755 752.781 411.744 751.411 412.922 C 741.668 421.27 727.557 415.375 716.958 419.429 C 712.769 421.775 709.391 425.342 706.365 428.928 C 705.779 429.623 705.205 430.321 704.622 431.023 C 701.771 434.474 698.828 438.027 695.23 440.64 C 690.843 443.836 686.285 444.192 681.014 444.592 L 679.571 444.707 C 674.553 445.11 667.786 443.457 662.316 440.494 C 657.597 437.946 653.694 433.874 651.348 429.027 C 648.99 424.184 648.197 418.589 649.093 413.282 C 651.756 397.527 660.986 384.84 674.423 378.468 C 675.331 378.042 676.243 377.631 677.132 377.235 C 679.718 376.074 682.383 374.893 684.889 373.163 C 686.55 372.014 688.145 370.755 689.699 369.537 C 691.296 368.281 692.947 366.975 694.637 365.822 C 703.902 359.515 716.086 356.59 728.938 357.573 C 739.7 358.406 750.991 361.816 763.45 368.013 C 763.859 368.22 764.271 368.4 764.691 368.57 C 762.603 368.943 761.241 369.668 761.338 369.9 C 761.447 370.249 763.986 369.649 767.135 369.62 C 767.569 369.615 767.986 369.615 768.386 369.631 C 770.123 369.964 771.858 370.115 773.564 370.267 C 776.808 370.55 779.876 370.824 782.806 372.271 C 782.79 372.773 782.957 373.218 783.174 373.468 C 783.441 373.778 783.724 373.832 783.851 373.718 C 784.1 373.471 783.931 372.819 784.086 372.209 C 784.086 372.205 784.086 372.205 784.086 372.205 C 784.1 372.194 784.111 372.187 784.125 372.179 C 785.243 371.265 787.124 371.362 788.147 372.386 C 789.167 373.402 789.275 375.294 788.371 376.429 C 788.237 376.422 788.092 376.411 787.954 376.404 C 787.412 376.389 786.907 376.361 786.508 376.375 C 785.601 375.923 785 375.565 784.834 375.728 C 784.722 375.85 784.928 376.299 785.475 376.852 C 786.009 377.402 786.909 378.027 788.034 378.414 C 789.007 378.758 789.948 378.842 790.682 378.799 C 791.803 379.359 792.743 380.295 793.257 381.432 C 794.008 383.076 793.861 385.13 792.902 386.664 Z" fill-opacity="1" fill-rule="nonzero"/>
</svg>