<!-- Generated by IcoMoon.io -->
<svg version="1.1" xmlns="http://www.w3.org/2000/svg" width="32" height="32" viewBox="0 0 32 32">
<path d="M13.841 6.296c0-0.308 0.25-0.558 0.557-0.558h3.201c0.308 0 0.558 0.25 0.558 0.558s-0.25 0.558-0.558 0.558h-3.201c-0.307 0-0.557-0.25-0.557-0.558zM9.575 8.446c0 0.189 0.154 0.342 0.342 0.342h1.018c0.189 0 0.342-0.154 0.342-0.342s-0.154-0.342-0.342-0.342h-1.018c-0.189 0-0.342 0.154-0.342 0.342zM22.843 6.662c0.065 0.065 0.151 0.1 0.242 0.1s0.177-0.035 0.242-0.1 0.1-0.151 0.1-0.242-0.035-0.178-0.1-0.242l-0.72-0.72c-0.065-0.065-0.151-0.1-0.242-0.1s-0.177 0.035-0.242 0.1-0.1 0.151-0.1 0.242 0.035 0.178 0.1 0.242zM27.14 6.761c0.091 0 0.177-0.035 0.242-0.1l0.72-0.72c0.065-0.065 0.1-0.151 0.1-0.242s-0.035-0.178-0.1-0.242-0.151-0.1-0.242-0.1-0.177 0.036-0.242 0.1l-0.72 0.72c-0.065 0.065-0.1 0.151-0.1 0.242s0.035 0.178 0.1 0.242 0.151 0.1 0.242 0.1zM25.113 5.923c0.189 0 0.343-0.154 0.343-0.343v-1.018c0-0.189-0.154-0.343-0.343-0.343s-0.343 0.154-0.343 0.343v1.018c0 0.189 0.154 0.343 0.343 0.343zM27.639 8.446c0 0.189 0.154 0.342 0.343 0.342h1.018c0.189 0 0.343-0.154 0.343-0.342s-0.154-0.342-0.343-0.342h-1.017c-0.189 0-0.343 0.154-0.343 0.342zM21.228 8.79h1.017c0.189 0 0.343-0.154 0.343-0.342s-0.154-0.342-0.343-0.342h-1.017c-0.189 0-0.343 0.154-0.343 0.342s0.154 0.342 0.343 0.342zM7.049 5.923c0.189 0 0.343-0.154 0.343-0.343v-1.018c0-0.189-0.154-0.343-0.343-0.343s-0.343 0.154-0.343 0.343v1.018c0 0.189 0.154 0.343 0.343 0.343zM3.164 8.79h1.018c0.189 0 0.343-0.154 0.343-0.342s-0.154-0.342-0.343-0.342h-1.018c-0.189 0-0.343 0.154-0.343 0.342s0.154 0.342 0.343 0.342zM9.076 6.761c0.091 0 0.178-0.035 0.242-0.1l0.72-0.72c0.065-0.065 0.1-0.151 0.1-0.242s-0.035-0.178-0.1-0.242-0.151-0.1-0.242-0.1-0.178 0.036-0.242 0.1l-0.72 0.72c-0.065 0.065-0.1 0.151-0.1 0.242s0.035 0.178 0.1 0.242 0.151 0.1 0.242 0.1zM4.779 6.663c0.065 0.065 0.151 0.1 0.242 0.1s0.178-0.035 0.242-0.1 0.1-0.151 0.1-0.242-0.035-0.178-0.1-0.242l-0.72-0.72c-0.065-0.065-0.151-0.1-0.242-0.1s-0.178 0.035-0.242 0.1-0.1 0.151-0.1 0.242 0.035 0.178 0.1 0.242zM29.695 13.084v6.726c0 0.668-0.543 1.21-1.21 1.21h-1.223v6.237l0.073 0.029c0.457 0.179 0.765 0.628 0.765 1.117v1.465c0 0.189-0.154 0.343-0.343 0.343h-5.615c-0.189 0-0.343-0.154-0.343-0.343v-1.465c0-0.49 0.308-0.939 0.765-1.117l0.073-0.029v-6.237h-13.276v6.237l0.072 0.029c0.457 0.179 0.765 0.628 0.765 1.117v1.465c0 0.189-0.154 0.343-0.342 0.343l-5.614-0.003c-0.189 0-0.343-0.154-0.343-0.343v-1.465c0-0.49 0.308-0.939 0.765-1.117l0.072-0.029v-6.237h-1.223c-0.667 0-1.21-0.543-1.21-1.21v-6.726c0-0.668 0.542-1.21 1.21-1.21h1.151v-1.505c0-0.189 0.154-0.342 0.343-0.342h0.169l0.287-2.48c0.059-0.504 0.485-0.885 0.992-0.885h1.184c0.507 0 0.934 0.38 0.993 0.885l0.287 2.48h0.169c0.189 0 0.342 0.154 0.342 0.342v1.505h4.601v-1.525l-0.063-0.031c-1.527-0.774-2.476-2.315-2.476-4.020 0-2.485 2.021-4.506 4.506-4.506s4.506 2.021 4.506 4.506c0 1.706-0.949 3.246-2.476 4.020l-0.063 0.031v1.525h4.763v-1.505c0-0.189 0.154-0.342 0.343-0.342h0.169l0.288-2.48c0.059-0.504 0.485-0.885 0.992-0.885h1.184c0.508 0 0.934 0.38 0.992 0.885l0.288 2.48h0.169c0.189 0 0.343 0.154 0.343 0.342v1.505h0.99c0.668 0 1.21 0.543 1.21 1.21zM13.157 6.296c0 0.685 0.557 1.242 1.242 1.242h3.201c0.685 0 1.242-0.558 1.242-1.242s-0.558-1.242-1.242-1.242h-3.201c-0.685 0-1.242 0.558-1.242 1.242zM14.717 11.874h2.565v-1.256l-0.142 0.037c-0.371 0.098-0.755 0.146-1.14 0.146s-0.769-0.049-1.14-0.146l-0.143-0.037zM5.351 11.809h3.395v-1.096h-3.395zM8.677 21.020h-3.255v6.184h3.255zM11.306 16.447l-1.755-2.412h-2.362v4.825h2.362zM16.031 16.447l-1.755-2.412h-2.363l1.755 2.412-1.755 2.413h2.363zM20.756 16.447l-1.755-2.412h-2.363l1.755 2.412-1.755 2.413h2.363zM23.515 18.86l1.755-2.413-1.755-2.412h-2.363l1.755 2.412-1.755 2.413zM26.577 21.020h-3.255v6.184h3.255zM26.811 10.712h-3.395v1.096h3.395z"></path>
</svg>
