<?xml version="1.0" encoding="UTF-8"?>
<svg version="1.1" viewBox="0 0 1200 1200" xmlns="http://www.w3.org/2000/svg" width="150pt" height="150pt">
 <path d="m519.05 236.11c0-11.531 9.375-20.906 20.906-20.906h120.05c11.531 0 20.906 9.375 20.906 20.906s-9.375 20.906-20.906 20.906h-120.05c-11.531 0-20.906-9.375-20.906-20.906zm-159.98 80.625c0 7.0781 5.7656 12.844 12.844 12.844h38.156c7.0781 0 12.844-5.7656 12.844-12.844s-5.7656-12.844-12.844-12.844h-38.156c-7.0781 0-12.844 5.7656-12.844 12.844zm497.53-66.891c2.4375 2.4375 5.6719 3.75 9.0938 3.75s6.6562-1.3125 9.0938-3.75 3.75-5.6719 3.75-9.0938-1.3125-6.6562-3.75-9.0938l-27-27c-2.4375-2.4375-5.6719-3.75-9.0938-3.75s-6.6562 1.3125-9.0938 3.75-3.75 5.6719-3.75 9.0938 1.3125 6.6562 3.75 9.0938zm161.16 3.7031c3.4219 0 6.6562-1.3125 9.0938-3.75l27-27c2.4375-2.4375 3.75-5.6719 3.75-9.0938s-1.3125-6.6562-3.75-9.0938-5.6719-3.75-9.0938-3.75-6.6562 1.3594-9.0938 3.75l-27 27c-2.4375 2.4375-3.75 5.6719-3.75 9.0938s1.3125 6.6562 3.75 9.0938 5.6719 3.75 9.0938 3.75zm-76.031-31.453c7.0781 0 12.844-5.7656 12.844-12.844v-38.156c0-7.0781-5.7656-12.844-12.844-12.844s-12.844 5.7656-12.844 12.844v38.156c0 7.0781 5.7656 12.844 12.844 12.844zm94.734 94.641c0 7.0781 5.7656 12.844 12.844 12.844h38.156c7.0781 0 12.844-5.7656 12.844-12.844s-5.7656-12.844-12.844-12.844h-38.156c-7.0781 0-12.844 5.7656-12.844 12.844zm-240.42 12.891h38.156c7.0781 0 12.844-5.7656 12.844-12.844s-5.7656-12.844-12.844-12.844h-38.156c-7.0781 0-12.844 5.7656-12.844 12.844s5.7656 12.844 12.844 12.844zm-531.71-107.53c7.0781 0 12.844-5.7656 12.844-12.844v-38.156c0-7.0781-5.7656-12.844-12.844-12.844s-12.844 5.7656-12.844 12.844v38.156c0 7.0781 5.7656 12.844 12.844 12.844zm-145.69 107.53h38.156c7.0781 0 12.844-5.7656 12.844-12.844s-5.7656-12.844-12.844-12.844h-38.156c-7.0781 0-12.844 5.7656-12.844 12.844s5.7656 12.844 12.844 12.844zm221.72-76.078c3.4219 0 6.6562-1.3125 9.0938-3.75l27-27c2.4375-2.4375 3.75-5.6719 3.75-9.0938s-1.3125-6.6562-3.75-9.0938-5.6719-3.75-9.0938-3.75-6.6562 1.3594-9.0938 3.75l-27 27c-2.4375 2.4375-3.75 5.6719-3.75 9.0938s1.3125 6.6562 3.75 9.0938 5.6719 3.75 9.0938 3.75zm-161.16-3.7031c2.4375 2.4375 5.6719 3.75 9.0938 3.75s6.6562-1.3125 9.0938-3.75 3.75-5.6719 3.75-9.0938-1.3125-6.6562-3.75-9.0938l-27-27c-2.4375-2.4375-5.6719-3.75-9.0938-3.75s-6.6562 1.3125-9.0938 3.75-3.75 5.6719-3.75 9.0938 1.3125 6.6562 3.75 9.0938zm934.36 240.79v252.24c0 25.031-20.344 45.375-45.375 45.375h-45.844v233.9l2.7188 1.0781c17.156 6.7031 28.688 23.531 28.688 41.906v54.938c0 7.0781-5.7656 12.844-12.844 12.844h-210.56c-7.0781 0-12.844-5.7656-12.844-12.844v-54.938c0-18.375 11.531-35.203 28.688-41.906l2.7188-1.0781v-233.9h-497.86v233.9l2.7188 1.0781c17.156 6.7031 28.688 23.531 28.688 41.906v54.938c0 7.0781-5.7656 12.844-12.844 12.844l-210.52-0.09375c-7.0781 0-12.844-5.7656-12.844-12.844v-54.938c0-18.375 11.531-35.203 28.688-41.906l2.7188-1.0781v-233.9h-45.844c-25.031 0-45.375-20.344-45.375-45.375v-252.24c0-25.031 20.344-45.375 45.375-45.375h43.172v-56.438c0-7.0781 5.7656-12.844 12.844-12.844h6.3281l10.781-93c2.2031-18.891 18.188-33.188 37.219-33.188h44.391c19.031 0 35.016 14.25 37.219 33.188l10.781 93h6.3281c7.0781 0 12.844 5.7656 12.844 12.844v56.438h172.55v-57.188l-2.3438-1.1719c-57.281-29.016-92.859-86.812-92.859-150.74 0-93.188 75.797-168.98 168.98-168.98s168.98 75.797 168.98 168.98c0 63.984-35.578 121.74-92.859 150.74l-2.3438 1.1719v57.188h178.6v-56.438c0-7.0781 5.7656-12.844 12.844-12.844h6.3281l10.781-93c2.2031-18.891 18.188-33.188 37.219-33.188h44.391c19.031 0 35.016 14.25 37.219 33.188l10.781 93h6.3281c7.0781 0 12.844 5.7656 12.844 12.844v56.438h37.125c25.031 0 45.375 20.344 45.375 45.375zm-620.16-254.53c0 25.688 20.906 46.594 46.594 46.594h120.05c25.688 0 46.594-20.906 46.594-46.594s-20.906-46.594-46.594-46.594h-120.05c-25.688 0-46.594 20.906-46.594 46.594zm58.5 209.16h96.188v-47.109l-5.3438 1.4062c-13.922 3.6562-28.312 5.4844-42.75 5.4844s-28.828-1.8281-42.75-5.4844l-5.3438-1.4062zm-351.24-2.4375h127.31v-41.109h-127.31zm124.74 345.42h-122.06v231.89h122.06zm98.578-171.47-65.812-90.469h-88.594v180.94h88.594zm177.19 0-65.812-90.469h-88.594l65.812 90.469-65.812 90.469h88.594zm177.19 0-65.812-90.469h-88.594l65.812 90.469-65.812 90.469h88.594zm103.45 90.469 65.812-90.469-65.812-90.469h-88.594l65.812 90.469-65.812 90.469zm114.84 81h-122.06v231.89h122.06zm8.7656-386.53h-127.31v41.109h127.31z"/>
</svg>
