<?xml version="1.0" encoding="utf-8"?>
<svg xmlns="http://www.w3.org/2000/svg" viewBox="200.1194 0 182.6501 168.7695" width="150pt" height="150pt">
  <path d="M 306.459 6.743 C 305.811 6.734 305.163 6.734 304.496 6.743 C 301.47 6.804 298.267 7.14 294.904 7.82 C 288.778 9.051 275.98 21.136 256.947 26.545 C 222.72 36.272 196.362 81.556 212.713 114.624 C 220.567 130.522 237.346 145.413 260.911 153.465 C 322.526 174.506 374.23 157.561 374.23 137.13 C 374.23 121.09 335.682 106.708 284.673 126.243 C 299.358 101.726 301.172 74.85 301.172 74.85 C 314.391 77.594 326.5 57.326 328.728 58.179 C 329.676 58.535 330.616 58.657 331.481 58.627 L 329.038 69.045 L 329.047 69.045 L 329.047 69.055 L 327.478 76.089 C 327.393 76.446 327.506 76.822 327.759 77.065 C 328.004 77.31 328.361 77.391 328.68 77.269 L 330.917 76.426 L 330.926 76.415 C 331.217 76.303 331.443 76.039 331.517 75.714 L 333.03 68.975 L 337.258 73.63 C 337.569 73.976 338.076 74.036 338.442 73.752 L 340.218 72.421 C 340.443 72.248 340.584 71.994 340.612 71.699 C 340.641 71.404 340.557 71.119 340.368 70.905 L 334.337 64.025 L 336.046 56.655 C 337.174 54.083 340.988 52.152 337.888 48.726 L 340.378 38.003 L 340.378 38.013 C 340.462 37.636 340.34 37.23 340.058 36.985 C 340.058 36.985 339.673 36.64 339.128 36.376 C 338.855 36.243 338.499 36.112 338.114 36.091 L 337.954 36.091 C 337.606 36.091 337.249 36.202 336.902 36.477 C 336.732 36.61 336.61 36.813 336.554 37.038 L 333.895 48.36 C 331.189 49.377 328.539 51.695 328.539 51.695 C 323.1 54.246 317.302 51.003 317.302 51.003 C 320.103 50.709 321.465 47.374 321.465 47.374 C 321.738 45.118 328.285 45.291 328.615 43.186 C 329.234 39.091 325.336 40.595 325.665 37.636 C 325.824 36.234 329.779 34.658 332.674 33.702 L 331.753 38.44 C 332.016 39.303 333.087 38.998 333.547 38.551 L 335.708 32.738 C 342.323 25.267 338.367 18.954 338.367 18.954 C 338.367 18.954 326.473 7.071 306.459 6.746 L 306.459 6.743 Z M 297.111 14.845 C 299.084 14.865 300.888 15.82 300.888 15.82 C 300.888 15.82 295.026 13.889 293.728 19.144 C 292.423 24.41 298.398 25.894 298.398 25.894 C 298.398 25.894 290.854 25.314 292.47 18.779 C 293.259 15.607 295.251 14.813 297.111 14.834 L 297.111 14.845 Z M 315.348 15.027 C 318.054 15.047 319.472 17.885 320.102 17.996 C 320.102 17.996 312.905 17.742 311.177 16.928 C 312.82 15.514 314.201 15.018 315.348 15.027 Z M 335.294 20.872 C 335.294 20.872 336.732 23.911 335.821 24.653 C 330.794 21.614 335.294 20.872 335.294 20.872 Z" style="stroke-width: 1;"/>
</svg>