<!-- Generated by IcoMoon.io -->
<svg version="1.1" xmlns="http://www.w3.org/2000/svg" width="32" height="32" viewBox="0 0 32 32">
<path d="M18.631 2.397c-0.114-0.002-0.227-0.002-0.344 0-0.53 0.011-1.091 0.070-1.68 0.189-1.073 0.216-3.315 2.333-6.65 3.281-5.997 1.704-10.614 9.638-7.75 15.431 1.376 2.785 4.316 5.394 8.444 6.805 10.795 3.686 19.853 0.718 19.853-2.862 0-2.81-6.754-5.33-15.69-1.907 2.573-4.295 2.891-9.004 2.891-9.004 2.316 0.481 4.437-3.070 4.828-2.921 0.166 0.062 0.331 0.084 0.482 0.079l-0.428 1.825h0.002v0.002l-0.275 1.232c-0.015 0.063 0.005 0.128 0.049 0.171 0.043 0.043 0.105 0.057 0.161 0.036l0.392-0.148 0.002-0.002c0.051-0.020 0.091-0.066 0.104-0.123l0.265-1.181 0.741 0.816c0.055 0.061 0.143 0.071 0.207 0.021l0.311-0.233c0.039-0.030 0.064-0.075 0.069-0.127s-0.010-0.102-0.043-0.139l-1.057-1.205 0.299-1.291c0.198-0.451 0.866-0.789 0.323-1.389l0.436-1.879v0.002c0.015-0.066-0.007-0.137-0.056-0.18 0 0-0.067-0.060-0.163-0.107-0.048-0.023-0.11-0.046-0.178-0.050h-0.028c-0.061 0-0.123 0.019-0.184 0.068-0.030 0.023-0.051 0.059-0.061 0.098l-0.466 1.984c-0.474 0.178-0.938 0.584-0.938 0.584-0.953 0.447-1.969-0.121-1.969-0.121 0.491-0.052 0.729-0.636 0.729-0.636 0.048-0.395 1.195-0.365 1.253-0.734 0.108-0.717-0.574-0.454-0.517-0.972 0.028-0.246 0.721-0.522 1.228-0.689l-0.161 0.83c0.046 0.151 0.234 0.098 0.314 0.019l0.379-1.018c1.159-1.309 0.466-2.415 0.466-2.415s-2.084-2.082-5.59-2.139v-0.001zM16.993 3.817c0.346 0.003 0.662 0.171 0.662 0.171s-1.027-0.338-1.254 0.582c-0.229 0.923 0.818 1.183 0.818 1.183s-1.322-0.102-1.039-1.247c0.138-0.556 0.487-0.695 0.813-0.691v0.002zM20.188 3.849c0.474 0.003 0.723 0.501 0.833 0.52 0 0-1.261-0.045-1.564-0.187 0.288-0.248 0.53-0.335 0.731-0.333zM23.682 4.873c0 0 0.252 0.532 0.092 0.662-0.881-0.532-0.092-0.662-0.092-0.662z"></path>
</svg>
