<!-- Generated by IcoMoon.io -->
<svg version="1.1" xmlns="http://www.w3.org/2000/svg" width="32" height="32" viewBox="0 0 32 32">
<path d="M31.914 13.839l-3.255 8.088c-0.176 0.306-0.39 0.594-0.64 0.844l-4.369 3.682v3.655c0 0.482-0.334 0.908-0.817 1.010l-3.868 0.853c-0.316 0.066-0.64-0.009-0.881-0.213-0.25-0.203-0.39-0.51-0.38-0.825l0.176-6.521c0.037-1.558 0.668-3.024 1.781-4.127l4.257-4.257c0.269-0.27 0.649-0.427 1.039-0.418 0.362 0.009 0.686 0.157 0.909 0.408 0.214 0.241 0.333 0.547 0.333 0.872 0 0.352-0.139 0.677-0.38 0.927l-3.153 3.154c-0.269 0.269-0.269 0.696 0 0.965s0.696 0.269 0.965 0l3.153-3.154c0.733-0.732 0.974-1.818 0.631-2.801l2.625-3.246c0.408-0.51 1.169-0.548 1.632-0.083 0.316 0.315 0.408 0.778 0.241 1.186zM0.323 12.653c0.465-0.465 1.225-0.427 1.632 0.083l2.625 3.246c-0.343 0.983-0.102 2.069 0.631 2.801l3.153 3.154c0.27 0.269 0.696 0.269 0.965 0 0.27-0.269 0.27-0.696 0-0.965l-3.153-3.154c-0.242-0.25-0.38-0.575-0.38-0.927 0-0.325 0.121-0.631 0.333-0.872 0.223-0.251 0.548-0.399 0.909-0.408 0.39-0.009 0.77 0.148 1.039 0.418l4.257 4.257c1.113 1.103 1.744 2.569 1.781 4.127l0.176 6.521c0.009 0.316-0.129 0.622-0.38 0.825-0.241 0.204-0.566 0.279-0.881 0.213l-3.868-0.853c-0.482-0.102-0.816-0.528-0.816-1.010v-3.655l-4.369-3.682c-0.251-0.25-0.464-0.537-0.64-0.844l-3.255-8.088c-0.168-0.408-0.074-0.872 0.24-1.186zM18.809 18.050c-0.056 0.176-0.168 0.325-0.315 0.426-0.13 0.084-0.288 0.13-0.437 0.13-0.074 0-0.157-0.009-0.222-0.028-0.418-0.11-0.66-0.547-0.539-0.964 0.437-1.502-0.333-2.236-0.834-2.541-0.037 0.036-0.074 0.064-0.092 0.083-1.781 1.354-4.053 1.419-6.010 0.214l-0.102-0.047c-0.964-0.696-1.8-1.549-2.477-2.551-2.253-3.302-2.355-7.652-0.278-11.083 0.149-0.261 0.427-0.427 0.743-0.446 0.305-0.019 0.593 0.112 0.779 0.361 1.048 1.42 2.457 2.579 4.182 3.47 1.42 0.751 3.182 1.855 4.267 3.756 0.993 1.772 0.993 3.423 0.019 5.055 0.696 0.492 1.995 1.799 1.318 4.165zM15.609 13.079c-0.668-0.287-1.299-0.705-1.948-1.271l1.086-2.411c0.055-0.121 0.065-0.25 0.018-0.371-0.037-0.121-0.129-0.223-0.25-0.269-0.25-0.102-0.529 0-0.64 0.25l-0.937 2.078c-0.519-0.575-0.993-1.215-1.419-1.911l0.825-1.92c0.056-0.111 0.066-0.24 0.019-0.361-0.036-0.121-0.138-0.223-0.259-0.269-0.121-0.056-0.251-0.056-0.371-0.009-0.121 0.046-0.223 0.138-0.27 0.259l-0.547 1.233c-0.844-1.678-1.262-3.191-1.41-3.775-0.009-0.018-0.009-0.037-0.009-0.037-0.028-0.111-0.102-0.223-0.214-0.297s-0.242-0.093-0.361-0.066c-0.121 0.028-0.232 0.102-0.306 0.214-0.066 0.112-0.093 0.242-0.066 0.362 0 0.018 0.288 1.317 0.993 2.977l-0.844-0.492c-0.121-0.065-0.251-0.083-0.371-0.047-0.121 0.028-0.223 0.102-0.288 0.223-0.066 0.121-0.075 0.242-0.047 0.371 0.037 0.121 0.111 0.223 0.232 0.287l2.086 1.206c0.473 0.853 0.983 1.623 1.54 2.281l-1.744-0.167c-0.259-0.019-0.509 0.176-0.528 0.436-0.019 0.269 0.176 0.509 0.435 0.528l2.857 0.268c0.742 0.677 1.54 1.206 2.365 1.568 0.066 0.028 0.13 0.038 0.186 0.038 0.102 0 0.195-0.028 0.278-0.083 0.055-0.037 0.129-0.112 0.176-0.204 0.111-0.242-0.009-0.529-0.269-0.622zM24.541 9.368c-0.548 0.807-1.234 1.503-2.014 2.069l-0.083 0.037c-0.955 0.594-2.012 0.806-3.015 0.64 0.083-0.723 0.028-1.456-0.167-2.198 0.39-0.242 0.779-0.52 1.141-0.853l2.328-0.223c0.214-0.019 0.371-0.214 0.353-0.436-0.019-0.213-0.223-0.371-0.436-0.352l-1.41 0.14c0.454-0.539 0.872-1.16 1.252-1.855l1.715-0.974c0.093-0.056 0.157-0.14 0.186-0.242 0.028-0.112 0.019-0.214-0.038-0.306-0.055-0.093-0.139-0.157-0.24-0.186-0.102-0.027-0.214-0.019-0.306 0.038l-0.686 0.399c0.575-1.354 0.807-2.412 0.807-2.421 0.019-0.102 0-0.204-0.056-0.297-0.064-0.084-0.148-0.14-0.25-0.167-0.102-0.019-0.204 0-0.297 0.055-0.083 0.055-0.14 0.148-0.167 0.241 0 0 0 0.009-0.010 0.028-0.121 0.473-0.464 1.698-1.15 3.062l-0.446-1.002c-0.046-0.102-0.12-0.176-0.222-0.214-0.102-0.036-0.214-0.036-0.306 0.009-0.102 0.047-0.176 0.121-0.214 0.223s-0.028 0.204 0.009 0.297l0.677 1.558c-0.344 0.566-0.724 1.084-1.15 1.549l-0.761-1.689c-0.084-0.204-0.316-0.297-0.52-0.204-0.093 0.047-0.167 0.13-0.204 0.223-0.037 0.102-0.028 0.214 0.009 0.306l0.881 1.957c-0.251 0.212-0.492 0.398-0.742 0.566-0.121-0.316-0.26-0.622-0.436-0.938-0.501-0.89-1.122-1.604-1.79-2.216 0.88-1.438 2.244-2.291 3.348-2.875 1.401-0.724 2.551-1.67 3.404-2.82 0.148-0.204 0.38-0.306 0.63-0.297s0.482 0.148 0.603 0.361c1.689 2.792 1.605 6.326-0.231 9.006z"></path>
</svg>
