<?xml version="1.0" encoding="UTF-8"?>
<svg version="1.1" viewBox="0 0 1200 1200" xmlns="http://www.w3.org/2000/svg" width="150pt" height="150pt">
 <path d="m132.66 861.1c-5.9531 4.9219-11.438 8.6719-16.453 11.25-25.922-54.703-41.531-115.31-44.156-179.26 62.203 3.2344 72.328 22.641 76.828 31.125 26.859 51.469 42.844 61.078 66.75 72.375 12.141 5.7188 25.781 12.234 46.172 30.656 21.188 19.172 28.312 38.203 22.875 61.594-3.4219 9.9844-8.6719 16.125-15.375 18.281-9 2.8594-21.609-0.75-33.844-9.7031-2.3906-1.7812-5.3438-3.9844-8.5781-6.4688-26.859-20.672-67.453-51.938-94.219-29.953zm662.26 17.859c-25.359-8.1562-31.031-5.1094-31.875-4.4062-0.09375 0.14062-3.9844 3.4219-2.1094 21.703 3.8438 38.016-9.375 54.188-21.188 61.125-17.016 9.8906-41.062 6.0469-64.359-10.359-27.703-19.547-52.547-55.828-45.656-92.906 0.32812-1.875 0.75-3.8906 1.1719-6 5.3438-28.078 16.594-86.578-4.5938-104.91-12.422-10.828-36.891-5.625-55.031 0.65625-7.5469 2.5312-14.625 4.875-21.609 7.125-55.266 17.906-72.703 26.062-67.359 53.859 3.2344 16.453 10.875 27.75 18.891 39.703 7.3125 10.828 14.953 22.031 19.219 36.938 6.5625 23.109-1.3594 39-7.2188 50.625-5.5312 11.062-8.0625 16.125-2.625 26.906 7.7344 15.328 8.6719 29.859 3.0469 43.172-12.328 28.875-51.609 41.062-80.297 49.969l-2.2031 0.70312c-23.297 7.2188-39.516 33.141-50.25 58.875 48.703 17.297 101.11 26.766 155.76 26.766 104.02 0 200.06-34.172 277.5-91.875-17.062-25.031-7.9688-59.391-0.42187-88.125 12.656-48.141 14.531-68.766-18.797-79.5zm-621.94-205.55h-40.688c20.531 7.7812 34.547 19.875 43.406 36.797 23.484 45.094 34.594 50.344 52.969 59.016 13.266 6.2812 29.766 14.156 53.484 35.578 19.875 17.953 31.172 37.922 33.844 59.578 3.6094 28.641-7.2656 62.016-37.547 71.719-5.0156 1.5938-10.219 2.3906-15.656 2.3906-14.625 0-30.516-5.6719-45.234-16.453-2.625-1.9219-5.7656-4.2656-9.1875-6.9375-10.219-7.875-24.234-18.703-37.078-25.359-12.844-6.7031-18.375-6-19.219-5.25-7.7344 6.375-15 11.25-21.984 14.812 49.734 89.297 128.02 160.5 222.56 201.28 17.297-42.047 40.641-67.828 69.375-76.781l2.2969-0.70312c20.344-6.3281 54.609-16.922 61.406-32.906 1.2656-3.0938 2.5312-8.25-2.2969-17.672-12.234-24.328-3.5625-41.531 2.7188-54.094 4.9219-9.8438 8.4375-16.969 5.1094-28.734-3.0469-10.266-8.6719-18.656-15.234-28.312-9-13.312-19.125-28.359-23.484-50.906-5.0156-25.734 2.7188-46.219 22.969-60.938 16.078-11.812 38.766-19.078 64.875-27.562 6.7969-2.2031 13.875-4.5 21-6.9375 37.5-12.891 66.141-11.156 84.797 5.1562 34.359 29.766 21.938 94.734 14.531 133.5-0.32812 2.0625-0.75 4.0312-1.1719 5.8594-4.1719 22.688 13.594 48.656 33.328 62.531 14.625 10.266 26.625 11.859 31.547 8.9531 5.625-3.2812 8.0625-15.188 6.375-31.875-1.4531-14.953-1.7812-36.234 13.266-48.328 15.75-12.75 39.281-7.5938 60.188-0.84375 28.312 9.1406 44.391 26.719 47.625 52.219 2.625 20.297-3.1406 42.422-8.7656 63.891-7.9688 30.234-11.625 49.031-4.9688 61.219 100.08-85.312 163.55-212.26 163.55-354h-476.53c-97.219 73.125-254.9 73.125-352.13 0zm176.06-91.828c20.344-49.781 56.203-91.219 110.3-111.75 20.203-7.6875 41.062-11.578 61.969-12.188-19.594-76.875-89.297-133.69-172.26-133.69-82.969 0-152.68 56.859-172.26 133.69 20.906 0.60938 41.766 4.5 61.969 12.188 54.094 20.531 89.953 61.969 110.3 111.75zm0-273.98c43.5 0 78.75-35.25 78.75-78.75s-35.25-78.75-78.75-78.75-78.75 35.25-78.75 78.75 35.25 78.75 78.75 78.75zm199.08 18.609 20.156-11.625c7.2188-4.1719 9.7031-13.406 5.5781-20.625-4.1719-7.2188-13.406-9.7031-20.625-5.5781l-20.156 11.625c-7.2188 4.1719-9.7031 13.406-5.5781 20.625 4.1719 7.2188 13.406 9.7031 20.625 5.5781zm256.64-19.359-26.297 7.0312-6.4688-11.203c-4.1719-7.2188-13.406-9.7031-20.625-5.5781-7.2188 4.1719-9.75 13.406-5.5781 20.625l8.5312 14.812c2.8594 4.9219 7.125 8.5781 12.094 10.641s10.547 2.4844 15.984 1.0312l30.188-8.1094c8.1094-2.1562 12.891-10.453 10.734-18.562s-10.453-12.891-18.562-10.734zm-165.24-173.16c4.1719 7.2188 13.406 9.7031 20.625 5.5781 7.2188-4.1719 9.7031-13.406 5.5781-20.625l-6.8438-11.906 19.266-19.266c5.9062-5.9062 5.9062-15.516 0-21.422s-15.516-5.9062-21.422 0l-22.125 22.125c-3.9844 3.9844-6.375 9.0469-7.0781 14.438-0.70312 5.2969 0.32812 10.781 3.1406 15.656l8.9062 15.422zm143.26 39.609c6.5625 11.391 10.828 23.531 12.891 35.812l29.484-17.016c17.859-10.312 24.047-33.328 13.734-51.188s-33.328-24.047-51.188-13.734l-29.484 17.016c9.6094 7.9219 18.047 17.672 24.609 29.062zm304.97 390.94c-54.656 46.312-103.78 49.875-147.89 38.859-52.781-13.219-98.812-39.188-149.9-36.375-26.859 1.4531-70.969 21.844-94.125 39.234-11.531 8.6719-20.438 6.6094-13.922-9.8906 7.8281-19.688 26.344-55.172 32.672-63.375 5.25-6.7969 5.25-16.078 0-22.875-6.3281-8.2031-24.844-43.688-32.672-63.375-6.5625-16.453 2.3906-18.516 13.922-9.8906 23.109 17.391 67.266 37.781 94.125 39.234 51.094 2.8125 97.125-23.203 149.9-36.375 54.656-13.688 117.05-4.875 188.06 79.828-23.578 16.406-64.406 27.562-94.734 25.969 19.172 16.875 38.109 19.453 54.609 18.984zm-64.359-49.781c10.641 0 19.312-8.6719 19.312-19.312s-8.6719-19.312-19.312-19.312-19.312 8.6719-19.312 19.312 8.6719 19.312 19.312 19.312zm-497.95-331.78 29.391-7.875 14.297 24.797c2.0625 3.5625 5.3906 5.9531 9.0938 6.9844-13.734 25.5-14.438 57.375 1.0312 84.188s43.453 42.188 72.422 43.031c-0.9375 3.7031-0.5625 7.7344 1.5 11.297l13.312 23.062-21.562 21.562c-5.9062 5.9062-5.9062 15.516 0 21.422s15.516 5.9062 21.422 0l24.375-24.375c3.8906-3.8906 6.375-8.9531 7.0781-14.438 0.70312-5.2969-0.32812-10.781-3.1406-15.656l-15.375-26.578v-0.046875c6.0469-1.875 12-4.4062 17.672-7.6875l35.438-20.438c41.062-23.719 55.266-76.734 31.547-117.8s-76.734-55.266-117.8-31.547l-35.438 20.438c-5.6719 3.2812-10.828 7.1719-15.469 11.438v-0.046875l-16.359-28.312c-2.7188-4.6875-7.0781-8.5312-12.094-10.594-4.9688-2.0625-10.547-2.4844-15.984-1.0312l-33.328 8.9062c-8.1094 2.1562-12.891 10.453-10.734 18.562s10.453 12.891 18.562 10.734zm-51.656 420.52c-18.281 10.734-39.703 27.656-59.109 46.828-15 14.812-28.594 30.844-38.344 46.125 160.22-8.1562 183.74-126.19 242.39-184.6-114.56-60.141-244.69-4.7812-258.94 155.39 9.7031-13.125 21.328-26.25 33.703-38.531 21.047-20.812 44.625-39.375 65.016-51.328 7.2188-4.2188 16.453-1.8281 20.672 5.3906s1.8281 16.453-5.3906 20.672zm-152.06 93c-9.75-15.281-23.344-31.312-38.344-46.125-19.406-19.172-40.828-36.141-59.109-46.828-7.2188-4.2188-9.6094-13.453-5.3906-20.672s13.453-9.6094 20.672-5.3906c20.391 11.953 43.969 30.562 65.016 51.328 12.375 12.234 24 25.359 33.703 38.531-14.25-160.22-144.37-215.53-258.94-155.39 58.641 58.406 82.125 176.44 242.39 184.6z"/>
</svg>
