<!-- Generated by IcoMoon.io -->
<svg version="1.1" xmlns="http://www.w3.org/2000/svg" width="32" height="32" viewBox="0 0 32 32">
<path d="M3.538 22.963c-0.159 0.131-0.305 0.231-0.439 0.3-0.691-1.459-1.107-3.075-1.177-4.78 1.659 0.086 1.929 0.604 2.049 0.83 0.716 1.372 1.143 1.629 1.78 1.93 0.324 0.152 0.688 0.326 1.231 0.817 0.565 0.511 0.755 1.019 0.61 1.643-0.091 0.266-0.231 0.43-0.41 0.488-0.24 0.076-0.576-0.020-0.902-0.259-0.064-0.047-0.143-0.106-0.229-0.172-0.716-0.551-1.799-1.385-2.513-0.799zM21.198 23.439c-0.676-0.218-0.828-0.136-0.85-0.117-0.003 0.004-0.106 0.091-0.056 0.579 0.102 1.014-0.25 1.445-0.565 1.63-0.454 0.264-1.095 0.161-1.716-0.276-0.739-0.521-1.401-1.489-1.218-2.477 0.009-0.050 0.020-0.104 0.031-0.16 0.142-0.749 0.442-2.309-0.122-2.798-0.331-0.289-0.984-0.15-1.467 0.017-0.201 0.067-0.39 0.13-0.576 0.19-1.474 0.477-1.939 0.695-1.796 1.436 0.086 0.439 0.29 0.74 0.504 1.059 0.195 0.289 0.399 0.587 0.512 0.985 0.175 0.616-0.036 1.040-0.193 1.35-0.148 0.295-0.215 0.43-0.070 0.718 0.206 0.409 0.231 0.796 0.081 1.151-0.329 0.77-1.376 1.095-2.141 1.332l-0.059 0.019c-0.621 0.192-1.054 0.884-1.34 1.57 1.299 0.461 2.696 0.714 4.154 0.714 2.774 0 5.335-0.911 7.4-2.45-0.455-0.668-0.212-1.584-0.011-2.35 0.337-1.284 0.387-1.834-0.501-2.12zM4.613 17.958h-1.085c0.548 0.207 0.921 0.53 1.157 0.981 0.626 1.203 0.923 1.343 1.412 1.574 0.354 0.168 0.794 0.378 1.426 0.949 0.53 0.479 0.831 1.011 0.902 1.589 0.096 0.764-0.194 1.654-1.001 1.913-0.134 0.043-0.272 0.064-0.417 0.064-0.39 0-0.814-0.151-1.206-0.439-0.070-0.051-0.154-0.114-0.245-0.185-0.272-0.21-0.646-0.499-0.989-0.676-0.343-0.179-0.49-0.16-0.513-0.14-0.206 0.17-0.4 0.3-0.586 0.395 1.326 2.381 3.414 4.28 5.935 5.367 0.461-1.121 1.084-1.809 1.85-2.047l0.061-0.019c0.543-0.169 1.456-0.451 1.637-0.878 0.034-0.082 0.068-0.22-0.061-0.471-0.326-0.649-0.095-1.108 0.072-1.442 0.131-0.262 0.225-0.453 0.136-0.766-0.081-0.274-0.231-0.497-0.406-0.755-0.24-0.355-0.51-0.756-0.626-1.358-0.134-0.686 0.072-1.233 0.613-1.625 0.429-0.315 1.034-0.509 1.73-0.735 0.181-0.059 0.37-0.12 0.56-0.185 1-0.344 1.764-0.297 2.261 0.137 0.916 0.794 0.585 2.526 0.387 3.56-0.009 0.055-0.020 0.108-0.031 0.156-0.111 0.605 0.363 1.297 0.889 1.668 0.39 0.274 0.71 0.316 0.841 0.239 0.15-0.087 0.215-0.405 0.17-0.85-0.039-0.399-0.047-0.966 0.354-1.289 0.42-0.34 1.047-0.203 1.605-0.023 0.755 0.244 1.184 0.712 1.27 1.393 0.070 0.541-0.084 1.131-0.234 1.704-0.212 0.806-0.31 1.308-0.133 1.633 2.669-2.275 4.361-5.66 4.361-9.44h-12.707c-2.592 1.95-6.797 1.95-9.39 0zM9.308 15.509c0.543-1.328 1.499-2.432 2.941-2.98 0.539-0.205 1.095-0.309 1.652-0.325-0.522-2.050-2.381-3.565-4.594-3.565s-4.071 1.516-4.594 3.565c0.558 0.016 1.114 0.12 1.652 0.325 1.442 0.547 2.399 1.652 2.941 2.98zM9.308 8.203c1.16 0 2.1-0.94 2.1-2.1s-0.94-2.1-2.1-2.1-2.1 0.94-2.1 2.1 0.94 2.1 2.1 2.1zM14.617 8.699l0.537-0.31c0.193-0.111 0.259-0.357 0.149-0.55-0.111-0.192-0.357-0.259-0.55-0.149l-0.537 0.31c-0.193 0.111-0.259 0.357-0.149 0.55 0.111 0.193 0.357 0.259 0.55 0.149zM21.46 8.183l-0.701 0.188-0.172-0.299c-0.111-0.192-0.358-0.259-0.55-0.149-0.192 0.111-0.26 0.357-0.149 0.55l0.227 0.395c0.076 0.131 0.19 0.229 0.323 0.284s0.281 0.066 0.426 0.027l0.805-0.216c0.216-0.057 0.344-0.279 0.286-0.495s-0.279-0.344-0.495-0.286zM17.054 3.565c0.111 0.192 0.358 0.259 0.55 0.149 0.192-0.111 0.259-0.357 0.149-0.55l-0.183-0.317 0.514-0.514c0.157-0.158 0.157-0.414 0-0.571s-0.414-0.157-0.571 0l-0.59 0.59c-0.106 0.106-0.17 0.241-0.189 0.385-0.019 0.141 0.009 0.288 0.084 0.417l0.238 0.411zM20.874 4.621c0.175 0.304 0.289 0.628 0.344 0.955l0.786-0.454c0.476-0.275 0.641-0.889 0.366-1.365s-0.889-0.641-1.365-0.366l-0.786 0.454c0.256 0.211 0.481 0.471 0.656 0.775zM29.007 15.046c-1.457 1.235-2.767 1.33-3.944 1.036-1.407-0.352-2.635-1.045-3.997-0.97-0.716 0.039-1.893 0.582-2.51 1.046-0.308 0.231-0.545 0.176-0.371-0.264 0.209-0.525 0.703-1.471 0.871-1.69 0.14-0.181 0.14-0.429 0-0.61-0.169-0.219-0.663-1.165-0.871-1.69-0.175-0.439 0.064-0.494 0.371-0.264 0.616 0.464 1.794 1.008 2.51 1.046 1.363 0.075 2.59-0.619 3.997-0.97 1.457-0.365 3.121-0.13 5.015 2.129-0.629 0.438-1.718 0.735-2.526 0.693 0.511 0.45 1.016 0.519 1.456 0.506zM27.29 13.719c0.284 0 0.515-0.231 0.515-0.515s-0.231-0.515-0.515-0.515-0.515 0.231-0.515 0.515 0.231 0.515 0.515 0.515zM14.012 4.871l0.784-0.21 0.381 0.661c0.055 0.095 0.144 0.159 0.242 0.186-0.366 0.68-0.385 1.53 0.027 2.245s1.159 1.125 1.931 1.147c-0.025 0.099-0.015 0.206 0.040 0.301l0.355 0.615-0.575 0.575c-0.157 0.158-0.157 0.414 0 0.571s0.414 0.158 0.571 0l0.65-0.65c0.104-0.104 0.17-0.239 0.189-0.385 0.019-0.141-0.009-0.287-0.084-0.418l-0.41-0.709v-0.001c0.161-0.050 0.32-0.117 0.471-0.205l0.945-0.545c1.095-0.633 1.474-2.046 0.841-3.141s-2.046-1.474-3.141-0.841l-0.945 0.545c-0.151 0.088-0.289 0.191-0.412 0.305v-0.001l-0.436-0.755c-0.072-0.125-0.189-0.228-0.322-0.282-0.133-0.055-0.281-0.066-0.426-0.027l-0.889 0.237c-0.216 0.058-0.344 0.279-0.286 0.495s0.279 0.344 0.495 0.286zM12.634 16.085c-0.488 0.286-1.059 0.738-1.576 1.249-0.4 0.395-0.762 0.823-1.022 1.23 4.273-0.218 4.9-3.365 6.464-4.923-3.055-1.604-6.525-0.127-6.905 4.144 0.259-0.35 0.569-0.7 0.899-1.027 0.561-0.555 1.19-1.050 1.734-1.369 0.193-0.113 0.439-0.049 0.551 0.144s0.049 0.439-0.144 0.551zM8.579 18.565c-0.26-0.407-0.623-0.835-1.022-1.23-0.518-0.511-1.089-0.964-1.576-1.249-0.192-0.113-0.256-0.359-0.144-0.551s0.359-0.256 0.551-0.144c0.544 0.319 1.173 0.815 1.734 1.369 0.33 0.326 0.64 0.676 0.899 1.027-0.38-4.273-3.85-5.747-6.905-4.144 1.564 1.557 2.19 4.705 6.464 4.923z"></path>
</svg>
