<!-- Generated by IcoMoon.io -->
<svg version="1.1" xmlns="http://www.w3.org/2000/svg" width="32" height="32" viewBox="0 0 32 32">
<path d="M16.532 4.149c-0.5 0-0.952 0.202-1.279 0.53s-0.53 0.779-0.53 1.279 0.202 0.952 0.53 1.279c0.327 0.327 0.779 0.53 1.279 0.53s0.952-0.202 1.279-0.53c0.327-0.327 0.53-0.779 0.53-1.279s-0.202-0.952-0.53-1.279c-0.327-0.327-0.779-0.53-1.279-0.53zM15.47 11.607l1.265-0.563c0.29-0.129 0.555-0.317 0.796-0.566l0.004-0.004c0.405-0.415 1.211-1.243 1.577-1.59 0.444-0.421 0.491-0.389 0.809-0.17 0.041 0.028 0.094 0.064 0.166 0.102 0.196 0.1 0.544 0.222 0.956 0.35l-1.565-1.802-0.634 0.741c-0.030 0.039-0.070 0.071-0.117 0.091l-0.615 0.264-2.643 3.146zM4.923 24.085c0.027-0.006 0.009 0.001-0.009 0.009 0.001-0.004 0.001-0.008 0.009-0.009zM3.528 27.015h6.268c0.16 0 0.29-0.13 0.29-0.29s-0.13-0.29-0.29-0.29h-1.599c-0.013-0.015-0.026-0.031-0.039-0.047-0.111-0.139-0.195-0.273-0.256-0.398-0.064-0.128-0.104-0.241-0.133-0.339-0.030-0.104-0.046-0.192-0.054-0.296-0.006-0.088-0.006-0.195-0.005-0.345 0.003-0.142 0.005-0.318 0.009-0.512l0.001-0.071c-0.013 0.004-0.024 0.006-0.037 0.009-0.108 0.022-0.241 0.017-0.403-0.045-0.124-0.048-0.271-0.133-0.407-0.222-0.021-0.014-0.043-0.028-0.064-0.043-0.043 0.084-0.108 0.16-0.211 0.214-0.126 0.067-0.294 0.082-0.47 0.075-0.133-0.006-0.273-0.026-0.402-0.045-0.022 0.5-0.048 0.969-0.099 1.266-0.037 0.216-0.089 0.358-0.167 0.481-0.076 0.119-0.164 0.201-0.283 0.314l-0.004 0.004h-1.643c-0.16 0-0.29 0.13-0.29 0.29s0.13 0.29 0.29 0.29zM4.22 14.443v0.001c-0.001-0.003-0.001-0.005 0-0.001zM11.716 22.642l-0 0.001c-0.004-0.003-0.006-0.005-0.010-0.009-0.118-0.106-0.249-0.215-0.379-0.323-0.285-0.238-0.566-0.473-0.761-0.709-0.144-0.174-0.209-0.336-0.218-0.481-0.006-0.111 0.017-0.209 0.061-0.295 0.040-0.080 0.098-0.147 0.164-0.202 0.161-0.134 0.389-0.197 0.51-0.205 0.117-0.008 0.242-0.030 0.344-0.063-0.034-0.003-0.076-0.012-0.12-0.050-0.111-0.097-0.241-0.213-0.38-0.353-0.126-0.129-0.259-0.28-0.389-0.439-0.010-0.012-0.021-0.023-0.030-0.036-0.058-0.072-0.116-0.147-0.171-0.222-0.187-0.25-0.354-0.508-0.473-0.732-0.24-0.454-0.28-0.774-0.298-0.944-0.003-0.015-0.004-0.030-0.004-0.044-0.040-0.398-0.033-0.399 0.353-0.456 0.041-0.006 0.106-0.015 0.254-0.036 0.116-0.015 0.236-0.032 0.331-0.044l0.044-0.005c-0.218-0.244-0.517-0.594-0.804-0.993-0.381-0.53-0.725-1.126-0.898-1.425-0.282-0.487-0.226-0.731 0.17-0.731h0.336c-0.012-0.067-0.046-0.164-0.119-0.296-0.147-0.271-0.43-0.658-0.73-1.067-0.295-0.402-0.606-0.825-0.832-1.203-0.341-0.569-0.486-0.928-0.6-1.211-0.037-0.091-0.071-0.175-0.108-0.256-0.021-0.043-0.045-0.077-0.073-0.099-0.019-0.015-0.040-0.024-0.059-0.027h-0.001c-0.021-0.003-0.045 0.003-0.075 0.015-0.053 0.024-0.111 0.071-0.17 0.147-0.265 0.335-0.689 1.041-1.127 1.769-0.067 0.11-0.131 0.218-0.291 0.482-0.424 0.701-0.779 1.1-1.038 1.391-0.081 0.090-0.152 0.17-0.202 0.233-0.026 0.032-0.039 0.061-0.039 0.082l0.001 0.004c0.001 0.003 0.003 0.004 0.004 0.005 0.026 0.022 0.079 0.036 0.158 0.035 0.188-0.001 0.345 0.037 0.465 0.107 0.13 0.075 0.218 0.184 0.26 0.319 0.039 0.124 0.034 0.26-0.017 0.403-0.061 0.173-0.193 0.361-0.403 0.549-0.182 0.164-0.385 0.352-0.576 0.539-0.161 0.158-0.316 0.318-0.446 0.465-0.147 0.167-0.272 0.31-0.37 0.429l-0.022 0.026c0.255 0.017 0.568 0.046 0.799 0.126 0.195 0.067 0.332 0.17 0.42 0.29 0.117 0.16 0.144 0.341 0.095 0.515-0.028 0.103-0.076 0.232-0.175 0.394-0.093 0.151-0.231 0.331-0.442 0.542-0.061 0.061-0.287 0.271-0.564 0.527-0.589 0.545-1.425 1.321-1.475 1.418-0.043 0.085-0.052 0.113-0.045 0.116 0.093 0.046 0.278 0.054 0.417 0.061 0.070 0.003 0.13 0.005 0.171 0.010 0.116 0.014 0.216 0.048 0.301 0.097 0.158 0.093 0.247 0.233 0.272 0.408 0.018 0.137-0.008 0.29-0.076 0.452-0.089 0.215-0.259 0.461-0.493 0.714-0.11 0.117-0.045 0.046-0.17 0.18-0.233 0.247-0.374 0.398-0.539 0.625-0.171 0.236-0.259 0.407-0.273 0.526-0.006 0.044 0.010 0.075 0.046 0.098 0.107 0.068 0.267-0.061 0.411-0.178h0.001l-0.001-0.001c0.068-0.055 0.134-0.11 0.213-0.16 0.299-0.193 0.577-0.24 0.85 0.183 0.030 0.045 0.048 0.073 0.053 0.077 0.003 0.001 0.023 0.004 0.070 0.008 0.405 0.035 0.527-0.162 0.602-0.283 0.11-0.177 0.188-0.303 0.428-0.268 0.238 0.035 0.265 0.187 0.301 0.389 0.010 0.055 0.022 0.121 0.037 0.166 0.018 0.050 0.068 0.091 0.225 0.036 0.052-0.018 0.093-0.053 0.129-0.084 0.079-0.067 0.146-0.124 0.268-0.152 0.205-0.045 0.308 0.027 0.433 0.115 0.024 0.017 0.050 0.035 0.072 0.046 0.041 0.021 0.098 0.039 0.17 0.055 0.091 0.021 0.194 0.039 0.312 0.057 0.119 0.019 0.253 0.039 0.37 0.044 0.061 0.003 0.112 0.004 0.144-0.001 0.001-0.032-0.003-0.073-0.006-0.103-0.054-0.496 0.146-0.582 0.598-0.256 0.072 0.052 0.182 0.131 0.3 0.207 0.106 0.068 0.215 0.131 0.299 0.164l0.015 0.005-0.012-0.037c-0.044-0.137-0.072-0.229 0.049-0.359 0.006-0.006 0.014-0.013 0.021-0.019 0.146-0.143 0.281-0.115 0.49 0.079 0.049 0.046 0.124 0.116 0.216 0.188 0.088 0.068 0.185 0.137 0.285 0.184 0.098 0.048 0.207 0.079 0.312 0.101 0.066 0.014 0.129 0.023 0.187 0.031-0.008-0.012-0.015-0.024-0.023-0.037-0.036-0.063-0.061-0.129-0.067-0.195-0.008-0.088 0.014-0.166 0.071-0.236 0.058-0.071 0.138-0.111 0.24-0.115 0.063-0.001 0.137 0.013 0.223 0.052 0.046 0.021 0.102 0.050 0.168 0.085 0.147 0.079 0.35 0.186 0.541 0.228 0.111 0.024 0.228 0.030 0.336 0.024 0.099-0.005 0.188-0.018 0.259-0.036l-0.003-0.006c-0.024-0.054-0.040-0.115-0.049-0.167-0.009-0.045-0.012-0.082-0.014-0.107-0.032-0.352 0.128-0.45 0.481-0.295l0.014 0.006c0.067 0.030 0.187 0.077 0.357 0.080 0.322 0.005 0.575-0.009 0.664-0.073 0 0-0.049-0.061-0.171-0.219-0.089-0.115-0.214-0.238-0.357-0.366zM23.037 24.085c0.027-0.006 0.009 0.001-0.009 0.009 0.001-0.004 0.001-0.008 0.009-0.009zM21.712 27.015l6.268 0.001c0.16 0 0.29-0.13 0.29-0.29s-0.13-0.29-0.29-0.29h-1.599c-0.013-0.015-0.026-0.032-0.039-0.048-0.111-0.14-0.193-0.274-0.257-0.399-0.064-0.126-0.104-0.24-0.133-0.338-0.030-0.104-0.045-0.196-0.050-0.304-0.004-0.1 0.003-0.205 0.018-0.34 0.021-0.173 0.057-0.411 0.098-0.67-0.055 0.041-0.128 0.080-0.222 0.099-0.108 0.022-0.241 0.017-0.403-0.045-0.124-0.048-0.271-0.133-0.407-0.222-0.021-0.014-0.043-0.028-0.064-0.043-0.043 0.084-0.108 0.16-0.211 0.214-0.126 0.067-0.294 0.082-0.47 0.075-0.108-0.005-0.224-0.019-0.332-0.035-0.022 0.495-0.048 0.96-0.099 1.255-0.037 0.216-0.089 0.358-0.168 0.481-0.076 0.119-0.164 0.201-0.283 0.314l-0.004 0.004h-1.643c-0.16 0-0.29 0.13-0.29 0.29s0.13 0.29 0.29 0.29zM22.333 14.443v0.001c-0.001-0.003-0.001-0.005 0-0.001zM22.235 14.631l0.001 0.001c-0.53 0.012-1.16 0.088-1.775 0.191-0.834 0.139-1.648 0.33-2.14 0.475-0.81 0.24-1.315 0.666-1.854 1.122-0.097 0.081-0.193 0.164-0.216 0.183-0.295 0.246-0.613 0.492-0.941 0.707-0.318 0.21-0.648 0.39-0.974 0.51-0.385 0.142-0.779 0.201-1.158 0.258-0.273 0.041-0.54 0.081-0.805 0.151-0.566 0.149-1.063 0.421-1.551 0.709l-0.018-0.024c-0.169-0.227-0.321-0.459-0.425-0.657-0.146-0.276-0.198-0.483-0.222-0.625l0.093-0.013c0.089-0.012 0.197-0.026 0.32-0.041 0.129-0.015 0.224-0.027 0.295-0.034 0.12-0.012 0.173-0.015 0.207-0.019 0.452-0.041 0.482-0.278 0.088-0.711-0.197-0.218-0.591-0.651-0.95-1.148-0.309-0.429-0.602-0.922-0.786-1.238h0.010c0.076 0 0.158-0.018 0.236-0.059 0.076-0.041 0.146-0.104 0.195-0.193 0.043-0.076 0.068-0.17 0.068-0.282 0-0.153-0.052-0.356-0.192-0.616-0.166-0.307-0.463-0.71-0.774-1.135-0.289-0.394-0.593-0.808-0.803-1.158-0.089-0.149-0.164-0.283-0.228-0.405l3.551-3.928 1.925 1.819c0.062 0.058 0.143 0.084 0.222 0.077l0.724-0.028 1.766 1.415-1.868 2.224c-0.039 0.027-0.068 0.064-0.089 0.106l-1.442 1.716c-0.103 0.122-0.086 0.304 0.036 0.407s0.304 0.086 0.407-0.036l1.455-1.733 2.349-1.046c0.358-0.16 0.684-0.389 0.977-0.691l0.004-0.004c0.402-0.412 1.201-1.232 1.56-1.573 0.104-0.098 0.063-0.126 0.082-0.113 0.055 0.039 0.126 0.088 0.229 0.14 0.372 0.192 1.144 0.421 1.93 0.652l1.252 1.442c-0.102 0.169-0.192 0.32-0.224 0.372-0.392 0.648-0.732 1.028-0.978 1.306-0.080 0.090-0.151 0.17-0.22 0.256-0.111 0.138-0.166 0.295-0.165 0.447 0 0.089 0.019 0.173 0.055 0.25 0.037 0.077 0.091 0.147 0.165 0.206 0.124 0.101 0.299 0.162 0.523 0.161 0.079 0 0.137 0.010 0.17 0.028-0.001 0.006-0.004 0.017-0.009 0.031-0.015 0.044-0.044 0.094-0.088 0.148zM21.395 15.438l-0.003-0.001c-0.456 0.122-0.971 0.286-1.451 0.473-0.436 0.17-0.848 0.362-1.169 0.563-0.5 0.314-0.885 0.719-1.268 1.122-0.149 0.157-0.299 0.316-0.451 0.462-0.176 0.17-0.359 0.331-0.537 0.487-0.387 0.339-0.749 0.657-0.977 1.006-0.407 0.622-0.913 0.792-1.469 0.979-0.688 0.232-1.443 0.486-2.217 1.469-0.053-0.045-0.107-0.089-0.16-0.134-0.268-0.224-0.532-0.446-0.689-0.634-0.058-0.070-0.081-0.116-0.084-0.147 0.004-0.005 0.009-0.010 0.017-0.017 0.055-0.046 0.134-0.068 0.177-0.071 0.186-0.013 0.396-0.055 0.558-0.117v0.001c0.207-0.079 0.363-0.207 0.396-0.383 0.046-0.247-0.124-0.398-0.384-0.626-0.101-0.089-0.22-0.195-0.348-0.323-0.049-0.050-0.099-0.103-0.149-0.16 0.426-0.249 0.859-0.477 1.328-0.6 0.229-0.059 0.482-0.098 0.742-0.137 0.408-0.062 0.834-0.125 1.274-0.287 0.367-0.134 0.736-0.336 1.093-0.571 0.349-0.229 0.684-0.49 0.993-0.746 0.126-0.104 0.174-0.146 0.222-0.186 0.491-0.415 0.951-0.804 1.643-1.009 0.474-0.14 1.261-0.325 2.073-0.46 0.348-0.058 0.698-0.107 1.029-0.14-0.034 0.032-0.067 0.064-0.101 0.098-0.030 0.028-0.059 0.058-0.089 0.088zM19.886 21.904c-0.812 0.131-1.621 0.262-2.296 0.218-0.295-0.019-0.573-0.072-0.862-0.126-0.398-0.075-0.813-0.153-1.334-0.161-0.827-0.012-1.871 0.158-2.932 0.345 0.624-0.705 1.234-0.911 1.796-1.1 0.656-0.22 1.255-0.421 1.77-1.211 0.187-0.286 0.519-0.578 0.872-0.888 0.186-0.164 0.378-0.331 0.559-0.508 0.162-0.157 0.314-0.318 0.466-0.478 0.358-0.378 0.719-0.756 1.157-1.032 0.285-0.179 0.663-0.354 1.071-0.514 0.16-0.063 0.323-0.122 0.487-0.178l-0.013 0.015c-0.116 0.139-0.201 0.246-0.253 0.317-0.134 0.186-0.18 0.312-0.046 0.483 0.084 0.107 0.204 0.14 0.41 0.156 0.024 0.001 0.080 0.005 0.139 0.009 0.238 0.014 0.582 0.035 0.779 0.103 0.075 0.026 0.121 0.057 0.143 0.086 0.004 0.006 0.006 0.010 0.005 0.015-0.019 0.066-0.049 0.148-0.112 0.251-0.070 0.115-0.18 0.256-0.358 0.434-0.104 0.104-0.303 0.289-0.546 0.514-0.621 0.575-1.504 1.394-1.599 1.582-0.243 0.479-0.086 0.742 0.211 0.893 0.204 0.103 0.463 0.115 0.656 0.122 0.048 0.003 0.089 0.004 0.126 0.008 0.032 0.004 0.055 0.009 0.071 0.015 0.001 0.034-0.012 0.082-0.037 0.146-0.058 0.138-0.17 0.304-0.33 0.483l-0.001-0.001zM23.602 23.742l-0.018-0.004c-0.072-0.017-0.129-0.035-0.17-0.055-0.022-0.012-0.048-0.030-0.072-0.046-0.125-0.088-0.228-0.16-0.433-0.115-0.122 0.028-0.189 0.085-0.268 0.152-0.036 0.031-0.077 0.066-0.129 0.084-0.157 0.055-0.207 0.014-0.225-0.036-0.015-0.045-0.027-0.111-0.037-0.166-0.036-0.202-0.063-0.354-0.301-0.389-0.24-0.035-0.318 0.091-0.428 0.268-0.075 0.121-0.197 0.318-0.602 0.283-0.046-0.004-0.067-0.006-0.070-0.008-0.005-0.004-0.023-0.032-0.053-0.077-0.273-0.423-0.551-0.376-0.85-0.183-0.079 0.050-0.144 0.104-0.213 0.16l0.001 0.001h-0.001c-0.144 0.117-0.304 0.246-0.411 0.178-0.036-0.023-0.053-0.054-0.046-0.098 0.014-0.119 0.102-0.29 0.273-0.526 0.165-0.227 0.305-0.378 0.539-0.625 0.125-0.134 0.061-0.063 0.17-0.18 0.234-0.253 0.405-0.499 0.493-0.714 0.068-0.162 0.094-0.316 0.076-0.452-0.024-0.175-0.113-0.316-0.272-0.408-0.085-0.049-0.186-0.082-0.302-0.097-0.041-0.005-0.102-0.008-0.171-0.010-0.139-0.006-0.325-0.014-0.417-0.061-0.006-0.003 0.003-0.031 0.045-0.116 0.050-0.098 0.886-0.873 1.475-1.418 0.277-0.256 0.504-0.466 0.564-0.527 0.211-0.211 0.349-0.392 0.442-0.542 0.099-0.162 0.147-0.291 0.175-0.394 0.049-0.174 0.022-0.356-0.095-0.515-0.088-0.12-0.225-0.223-0.42-0.29-0.231-0.080-0.544-0.11-0.799-0.126l0.022-0.026c0.098-0.119 0.223-0.262 0.37-0.429 0.13-0.147 0.285-0.307 0.446-0.465 0.191-0.187 0.394-0.375 0.576-0.539 0.21-0.188 0.343-0.376 0.403-0.549 0.050-0.143 0.055-0.28 0.017-0.403-0.043-0.135-0.13-0.245-0.26-0.32-0.12-0.070-0.277-0.108-0.465-0.107-0.080 0.001-0.133-0.013-0.158-0.035-0.001-0.001-0.003-0.003-0.004-0.005l-0.001-0.004c0-0.022 0.013-0.050 0.039-0.082 0.050-0.063 0.121-0.143 0.202-0.233 0.259-0.291 0.615-0.691 1.038-1.391 0.158-0.262 0.229-0.379 0.298-0.492 0.432-0.718 0.844-1.404 1.114-1.75 0.059-0.076 0.117-0.124 0.171-0.148 0.033-0.015 0.064-0.021 0.090-0.017s0.050 0.015 0.073 0.033c0.030 0.023 0.057 0.058 0.076 0.1 0.036 0.079 0.072 0.173 0.111 0.276 0.104 0.276 0.237 0.622 0.571 1.18 0.227 0.379 0.537 0.801 0.832 1.203 0.301 0.408 0.584 0.796 0.73 1.067 0.072 0.133 0.107 0.229 0.119 0.296h-0.336c-0.396 0-0.452 0.244-0.17 0.731 0.173 0.299 0.517 0.895 0.898 1.425 0.287 0.399 0.586 0.75 0.804 0.993l-0.044 0.005c-0.095 0.012-0.215 0.028-0.331 0.044-0.148 0.021-0.212 0.030-0.254 0.036-0.387 0.057-0.393 0.058-0.353 0.456 0 0.014 0.001 0.028 0.004 0.044 0.018 0.17 0.058 0.491 0.298 0.944 0.118 0.224 0.286 0.482 0.473 0.732 0.188 0.253 0.397 0.5 0.59 0.697 0.139 0.14 0.269 0.256 0.38 0.353 0.043 0.039 0.086 0.048 0.12 0.050-0.102 0.034-0.227 0.055-0.344 0.063-0.121 0.008-0.349 0.071-0.51 0.205-0.066 0.055-0.124 0.122-0.164 0.202-0.044 0.086-0.067 0.184-0.061 0.295 0.009 0.144 0.074 0.307 0.218 0.481 0.196 0.236 0.477 0.47 0.761 0.709 0.29 0.242 0.581 0.487 0.746 0.698 0.122 0.158 0.172 0.219 0.172 0.219-0.089 0.064-0.342 0.079-0.664 0.073-0.17-0.003-0.29-0.050-0.357-0.080l-0.014-0.006c-0.353-0.155-0.513-0.057-0.481 0.295 0.002 0.024 0.005 0.062 0.014 0.107 0.009 0.053 0.025 0.113 0.049 0.168l0.002 0.006c-0.071 0.018-0.16 0.031-0.259 0.036-0.108 0.005-0.226 0-0.336-0.024-0.191-0.043-0.394-0.149-0.541-0.228-0.066-0.035-0.121-0.064-0.168-0.085-0.086-0.039-0.159-0.053-0.223-0.052-0.101 0.004-0.181 0.044-0.239 0.115-0.057 0.070-0.079 0.148-0.071 0.236 0.006 0.066 0.031 0.131 0.067 0.195 0.008 0.013 0.015 0.026 0.023 0.037-0.058-0.008-0.121-0.017-0.187-0.031-0.104-0.022-0.214-0.053-0.312-0.1-0.099-0.048-0.197-0.116-0.285-0.184-0.093-0.072-0.167-0.142-0.216-0.188-0.209-0.193-0.344-0.222-0.49-0.079-0.006 0.006-0.014 0.013-0.021 0.019-0.121 0.13-0.093 0.223-0.049 0.359l0.012 0.037-0.015-0.005c-0.084-0.032-0.193-0.095-0.299-0.164-0.119-0.076-0.228-0.156-0.3-0.207-0.452-0.326-0.652-0.24-0.598 0.256 0.004 0.030 0.008 0.071 0.006 0.103-0.032 0.005-0.084 0.004-0.144 0.001-0.117-0.005-0.251-0.024-0.37-0.044-0.044-0.006-0.086-0.013-0.126-0.021-0.036-0.019-0.077-0.031-0.121-0.034-0.015-0.001-0.031 0-0.046 0.001l0.001-0.004z"></path>
</svg>
