<!-- Generated by IcoMoon.io -->
<svg version="1.1" xmlns="http://www.w3.org/2000/svg" width="32" height="32" viewBox="0 0 32 32">
<path d="M23.896 16.516c0.211-0.458 0.132-0.997 0.209-1.484 0.013-0.018 0.033-0.007 0.060 0.023 0.166 0.205 0.34 0.481 0.444 0.732 0.127 0.359 0.167 0.321 0.191-0.048 0.043-0.958-0.31-1.999-0.838-2.788-0.084-0.212 0.721 0.444 0.8 0.504 0.040 0.020 0.079 0.033 0.059-0.041-0.402-1.15-1.62-2.276-2.77-2.774-0.075-0.026 0.149 0.178 0.263 0.302 0.044 0.044 0.879 0.934 0.523 0.782-0.207-0.088-1.040-0.439-0.467 0.014 0.44 0.422 0.991 1.192 1.108 1.714 0.014 0.184-0.204-0.024-0.273-0.056-0.104-0.068-0.25-0.154-0.352-0.194-0.082-0.034-0.123-0.039-0.109 0.002 0.71 0.907 1.017 2.093 0.961 3.259 0.001 0.338-0.025 0.567 0.17 0.1l0.021-0.049zM23.024 31.326c0.011-0.688 0.305-1.365 1.016-1.608 0.174-0.090 0.492-0.093 0.535-0.31-0.002-0.293-0.225-1.049-0.479-1.405-0.116-0.081-0.146 0.372-0.318 0.158-0.296-0.385-0.547-1.024-0.676-1.456-0.063-0.073-0.155 0.105-0.233 0.132-0.037 0.014-0.073 0.003-0.111-0.028-0.245-0.271-0.388-0.677-0.524-1.035-0.026-0.050-0.065-0.139-0.131-0.097-0.080 0.045-0.15 0.226-0.247 0.102-0.223-0.316-0.442-0.795-0.626-1.169-0.055-0.115-0.099-0.194-0.122-0.176-0.107 0.545 0.058 1.385 0.042 1.957 0.010 0.164-0.305-0.155-0.408-0.229-0.054-0.039-0.087-0.047-0.102-0.002-0.020 0.272 0.025 0.745 0.031 1.058 0.010 0.21 0.027 0.387-0.047 0.35-0.078-0.024-0.296-0.27-0.411-0.325-0.044-0.021-0.051 0.011-0.051 0.081 0.005 0.278 0.026 0.819 0.041 1.149 0.004 0.956 0.205 1.85-0.585 2.45-0.239 0.227-0.609 0.188-1.005 0.207l-1.967 0.017c-0.295-0.020-0.486 0.035-0.549-0.038 0.175-0.466 0.321-1.186 0.333-1.739 0.088-0.373 0.411-0.746 0.543-1.099 0.439-0.598 0.881-1.090 1.011-1.898 0.049-0.217 0.126-0.397 0.26-0.562 0.399-0.439 0.549-1.323 0.532-2.038 0.003-0.249 0.042-0.467 0.146-0.686 0.244-0.521 0.306-1.613 0.201-2.352-0.013-0.152 0.048-0.102 0.109-0.048 0.341 0.282 0.284-1.26 0.29-1.482 0.004-0.407-0.024-0.781-0.079-1.143 0.001-0.072 0.079-0.009 0.188 0.12 0.108 0.123 0.192 0.221 0.226 0.187 0.072-0.126 0.063-0.263 0.089-0.43 0.091-0.928 0.023-1.628-0.174-2.387-0.068-0.274-0.115-0.447 0.204-0.069 0.075 0.072 0.38 0.525 0.39 0.308 0.030-0.377-0.007-0.82-0.049-1.21-0.056-0.637-0.323-1.434-0.466-2.012 0.081-0.032 0.651 0.726 0.823 1.036 0.031 0.048 0.086 0.131 0.091 0.013-0.009-0.999-0.625-2.118-1.336-3.060-0.072-0.102-0.142-0.199-0.169-0.25-0.122-0.23 0.816 0.434 0.758 0.367 0.058-0.002 0.022-0.048-0.014-0.135-0.384-0.882-1.353-2.017-2.037-2.54-0.052-0.053-0.157-0.101-0.091-0.165 0.021-0.016 0.059-0.032 0.108-0.044 1.093-0.253 2.319-0.258 3.388 0.094 0.053 0.029 0.072 0.061 0.046 0.094-0.029 0.027-0.012 0.023-0.127 0.083-0.159 0.082-0.259 0.162-0.029 0.191 0.858 0.070 2.058 0.516 2.695 0.972 0.143 0.131-0.031 0.158-0.257 0.205-0.282 0.061-0.384 0.108-0.136 0.161 0.908 0.184 1.973 0.631 2.52 1.342 0.019 0.079-0.725-0.069-0.489 0.152 0.735 0.451 1.476 1.014 1.884 1.789 0.019 0.168-0.683-0.081-0.54 0.145 0.525 0.42 1.161 1.025 1.462 1.604 0.016 0.041 0.052 0.114 0.021 0.149-0.030 0.058-0.242-0.007-0.364 0.001-0.24 0.038 0.206 0.406 0.261 0.518 0.375 0.529 0.741 1.030 0.739 1.459-0.073 0.084-0.284-0.052-0.374-0.048-0.135-0.013-0.080 0.096-0.036 0.176 0.362 0.576 0.605 1.229 0.633 1.84-0.005 0.060-0.027 0.085-0.076 0.075-0.075-0.008-0.54-0.365-0.459-0.136 0.32 0.763 0.484 1.599 0.458 2.456-0.020 0.153-0.284-0.221-0.409-0.305l-0.046-0.028c-0.048-0.016-0.033 0.058-0.036 0.084 0.117 0.644 0.326 1.448 0.208 2.013-0.067 0.157-0.21-0.119-0.296-0.193-0.159-0.165-0.31-0.341-0.285-0.184l0.427 2.23c0.075 0.394 0.016 0.385-0.306 0.118-0.395-0.304-0.182 0.090-0.090 0.375 0.053 0.217 0.738 1.745 0.338 1.551-0.233-0.116-0.524-0.407-0.322 0.072 0.412 0.897 0.489 1.759 0.449 2.771 0.042 0.814-0.444 1.419-1.208 1.669-0.138 0.045-0.2 0.060-0.316 0.067-0.726 0.027-3.973 0.095-4.28 0.006l-0.009-0.035zM12.481 3.381c-0.234-0.671-1.188-1.072-1.749-0.575-0.13 0.123 0.137 0.22 0.243 0.237 0.5-0.112 0.956-0.137 1.2 0.424 0.056 0.125 0.253 0.198 0.364 0.17 0.025-0.029-0.027-0.169-0.045-0.224l-0.012-0.032zM7.294 3.577c0.040-0.008 0.158-0.222 0.212-0.304 0.253-0.343 0.715-0.338 1.086-0.234 0.231 0.002 0.532-0.078 0.288-0.235-0.783-0.546-1.64-0.025-1.959 0.821-0.057 0.069 0.376-0.051 0.354-0.040l0.018-0.008zM11.837 6.291c-0.062-0.869-0.159-1.635-0.548-2.206-0.436-0.603-1.033-1.163-1.782-0.927-0.969 0.341-1.258 2.017-1.349 2.974 0.004 0.231-0.073 0.526-0.008 0.742 0.042 0.042 0.223 0.014 0.338 0.014 0.161-0.016 0.448 0.003 0.59-0.054 0.083-0.038 0.242-0.149 0.348-0.215 0.173-0.117 0.37-0.225 0.534-0.353 0.084-0.074 0.080-0.187 0.072-0.325 0.010-0.268-0.271-0.33-0.422-0.492-0.548-0.725 0.092-1.177 0.84-1.108 0.284 0.017 0.682 0.035 0.837 0.3 0.127 0.226 0.070 0.692-0.176 0.87-0.187 0.136-0.376 0.151-0.379 0.429-0.007 0.069-0.004 0.151 0.013 0.219 0.074 0.19 0.315 0.286 0.481 0.449 0.125 0.124 0.241 0.26 0.396 0.323 0.338 0.181 0.201-0.377 0.22-0.552l-0.004-0.089zM10.879 7.644c0.071-0.046 0.241-0.127 0.235-0.226-0.050-0.191-0.282-0.354-0.456-0.441-0.451-0.239-1.060 0.054-1.452 0.464-0.052 0.034 0.050 0.082 0.096 0.126 0.417 0.298 1.095 0.292 1.543 0.094l0.034-0.017zM8.768 31.741c0.214-2.87 2.621-0.746 2.761-3.976 0.060-0.521 0.091-1.325 0.142-1.796 0.009-0.076 0.019-0.135-0.020-0.138-0.121-0.016-0.335 0.327-0.382 0.184-0.015-0.417 0.081-0.798 0.224-1.227 0.122-0.365 0.285-0.829-0.17-0.296-0.365 0.494-0.231-1.381-0.195-1.736-0.010-0.17 0.2-0.787 0.015-0.631-0.102 0.067-0.214 0.231-0.33 0.234-0.39-0.382-0.346-1.318-0.283-1.843 0.016-0.096 0.086-0.384-0.091-0.234-0.901 0.746-0.222 1.931-0.269 2.859-0.13 0.182-0.327-0.595-0.417-0.013-0.040 0.197-0.417 1.214-0.563 0.98-0.056-0.103-0.074-0.549-0.21-0.541-0.173 0.339-0.327 0.999-0.737 1.177-0.094 0.040-0.053-0.858-0.26-0.465-0.080 0.161-0.167 0.39-0.275 0.529-0.077 0.156-0.836-0.395-0.912-0.303-0.056 0.021 0.14 0.298 0.277 0.479 0.507 0.576 1.72 1.39 1.601 2.006-0.043 0.193-0.543 0.317-0.557 0.545 0.003 0.069 0.066 0.117 0.145 0.105 0.055-0.012 0.044-0.003 0.176-0.057 0.312-0.17 0.503-0.119 0.367 0.265-0.081 0.14-0.304 0.236-0.451 0.318-0.257 0.11-0.283 0.374 0.022 0.306 0.162-0.030 0.241-0.080 0.338-0.075 0.044 0.004 0.063 0.030 0.051 0.079-0.035 0.129-0.203 0.328-0.337 0.407-1.751 0.651-3.622-0.504-4.693-1.948-1.072-1.347-1.275-3.235-0.445-4.732 0.093-0.228-0.569 0.286-0.573 0.161 0.111-0.514 0.538-0.963 0.828-1.407 0.127-0.182 0.2-0.258 0.052-0.226-0.155 0.033-0.368 0.090-0.507 0.113-0.071 0.009-0.074-0.012-0.042-0.072 0.294-0.499 0.704-1.063 0.971-1.599 0.051-0.128 0.231-0.44 0.074-0.421-0.134 0.033-0.477 0.458-0.468 0.156 0.012-0.593 0.322-1.778 0.468-2.517 0.003-0.050-0.034-0.043-0.099 0.008-0.067 0.025-0.297 0.34-0.387 0.343-0.155-0.761 0.157-1.506 0.364-2.286 0.005-0.046-0.020-0.042-0.072-0.005-0.114 0.073-0.36 0.341-0.403 0.271-0.069-0.365 0.057-0.848 0.142-1.348 0.056-0.194 0.223-1.146 0.4-1.045 0.116 0.262 0.299 0.653 0.489 0.93 0.213 0.29 0.769 1.247 0.716 0.524 0.007-0.035 0.027-0.034 0.054-0.004 0.084 0.107 0.174 0.297 0.273 0.417 0.377 0.498 1.079 1.159 1.604 1.229-0.351-0.335-0.779-0.873-1.074-1.304-0.437-0.649-0.828-1.582-1.118-2.365-0.13-0.312-0.114 0.396-0.118 0.455-0.001 0.059-0.024 0.068-0.073 0.036-0.617-0.568-0.879-1.529-0.91-2.321-0.016-0.177-0.006-0.361-0.057-0.511-0.106-0.212-0.326 0.499-0.433 0.214-0.149-0.617-0.052-1.558 0.199-2.221 0.084-0.243-0.153-0.088-0.273-0.017-0.483 0.252 0.185-1.335 0.256-1.432 0.157-0.302 0.375-0.579 0.537-0.877 0.068-0.26-0.497 0.128-0.496 0 0.117-0.7 0.881-1.496 1.457-1.932 0.371-0.302-0.421 0.034-0.484-0.072-0.411-0.333-0.697-0.843-0.696-1.393-0.051-2.144 2.364-2.185 3.266-0.439 0.050 0.1-0.121 0.152-0.3 0.309-0.059 0.054-0.129 0.117-0.184 0.176-0.228 0.243-0.23 0.305 0.074 0.131 0.65-0.414 1.412-0.603 2.19-0.464 0.307 0.067 0.529 0.282 0.814 0.161 0.194-0.085 0.19-0.065 0.341-0.125 0.64-0.221 1.299 0.071 1.883 0.384 0.268 0.145 0.589 0.325 0.212-0.087-0.13-0.202-0.561-0.323-0.617-0.528 0.261-0.871 1.318-1.476 2.135-1.072 0.935 0.471 1.085 1.703 0.51 2.563-0.29 0.431-0.284 0.416-0.738 0.29-0.106-0.004-0.009 0.108 0.034 0.153 0.514 0.538 1.146 1.078 1.333 1.796-0.043 0.096-0.377-0.043-0.469-0.025-0.27-0.059 0.341 0.753 0.337 0.871 0.339 0.754 0.409 1.601 0.3 2.458-0.057 0.232-0.214-0.136-0.319-0.226-0.392-0.455-0.131 0.218-0.142 0.423 0.089 0.802-0.159 1.787-0.551 2.576-0.027 0.076-0.126 0.262 0.002 0.163 0.599-0.453 0.948-1.11 1.158-1.809 0.373 1.062 0.131 2.803-0.582 3.424-0.083-0.043 0.018-0.718-0.164-0.511-0.355 0.698-0.655 1.766-1.094 2.361-0.194 0.31-0.529 0.601-0.708 0.897 0.769-0.196 1.388-0.885 1.85-1.545 0.168-0.044-0.040 0.565 0.064 0.516 0.631-0.442 0.964-1.326 1.070-2.096 0.020-0.066 0.015-0.229 0.048-0.346 0.043-0.136 0.125 0.041 0.162 0.102 0.129 0.272 0.205 0.4 0.253 0.063 0.083-0.524 0.043-1.747-0.061-2.106-0.020-0.238 0.409 0.453 0.459 0.442 0.021 0.010 0.036 0 0.043-0.028 0.012-0.056 0.006-0.171 0.005-0.256 0.004-0.917-0.559-1.945-0.838-2.844 0.007-0.058 0.11 0.009 0.145 0.021 0.121 0.058 0.309 0.183 0.182-0.078-0.146-0.366-0.499-1.183-0.597-1.357-0.016-0.048-0.064-0.090 0.003-0.096 0.58 0.169 1.361 0.777 1.674 1.276-0.003 0.12-0.342-0.022-0.411 0.052 0.503 0.766 1.37 1.36 1.663 2.193-0.003 0.063-0.126-0.008-0.282-0.084-0.146-0.073-0.36-0.159-0.522-0.214-0.305-0.112-0.124 0.050-0.010 0.18 0.686 0.737 1.431 1.691 1.496 2.691-0.189-0.078-0.291-0.264-0.448-0.357-0.716-0.535-0.363-0.060-0.125 0.328 0.252 0.235 1.27 2.977 0.528 2.262-0.124-0.086-0.616-0.486-0.415-0.14 0.212 0.393 0.415 0.833 0.519 1.271 0.082 0.227 0.287 1.767-0.072 1.124-0.124-0.185-0.301-0.4-0.457-0.57-0.171-0.183-0.275-0.284-0.243-0.173 0.294 0.814 0.569 1.622 0.547 2.491-0.014 0.307 0.057 0.74-0.124 0.976-0.129-0.069-0.375-0.579-0.535-0.688-0.080-0.079-0.123-0.099-0.111-0.021 0.398 1.161 0.641 2.486 0.386 3.709-0.087 0.324-0.118 0.285-0.309-0.046-0.087-0.135-0.528-0.689-0.382-0.264 0.327 0.786 0.683 2.547 0.113 3.22-0.079 0.029-0.221-0.269-0.359-0.366-0.215-0.186-0.028 0.704-0.073 0.839-0.037 0.578-0.081 1.26-0.497 1.674-0.087 0.025-0.204-0.358-0.306-0.476-0.039-0.054-0.065-0.065-0.082-0.019-0.075 0.445-0.038 1.002-0.26 1.419-0.213 0.444-0.221 0.227-0.523-0.013-0.051-0.027-0.077-0.003-0.077 0.063 0.006 0.127 0.053 0.329 0.066 0.506 0.196 1.293-0.168 2.815-1.569 3.142-0.683 0.115-1.705 0.052-2.501 0.076-0.601 0.042-2.005-0.030-2.79 0-0.138 0.017-0.144-0.067-0.142-0.17l0.003-0.075z"></path>
</svg>
