<?xml version="1.0" encoding="UTF-8" standalone="no"?>
<!DOCTYPE svg PUBLIC "-//W3C//DTD SVG 1.1//EN" "http://www.w3.org/Graphics/SVG/1.1/DTD/svg11.dtd">
<svg width="100%" height="100%" viewBox="0 0 150 150" version="1.1" xmlns="http://www.w3.org/2000/svg" xmlns:xlink="http://www.w3.org/1999/xlink" xml:space="preserve" xmlns:serif="http://www.serif.com/" style="fill-rule:evenodd;clip-rule:evenodd;stroke-linejoin:round;stroke-miterlimit:2;">
    <g transform="matrix(0.130434,0,0,0.130434,-31.131,-24.6531)">
        <path d="M1097.44,782.544C1105.03,766.089 1102.18,746.709 1104.96,729.213C1105.42,728.571 1106.13,728.962 1107.1,730.038C1113.08,737.406 1119.32,747.308 1123.05,756.36C1127.62,769.256 1129.05,767.903 1129.93,754.65C1131.46,720.205 1118.79,682.826 1099.83,654.473C1096.8,646.853 1125.73,670.433 1128.57,672.603C1130.01,673.314 1131.4,673.783 1130.68,671.144C1116.25,629.817 1072.46,589.348 1031.14,571.461C1028.43,570.542 1036.49,577.875 1040.58,582.328C1042.16,583.898 1072.18,615.887 1059.37,610.438C1051.92,607.27 1021.99,594.659 1042.58,610.941C1058.4,626.111 1078.21,653.796 1082.41,672.533C1082.91,679.129 1075.07,671.683 1072.61,670.503C1068.88,668.046 1063.63,664.983 1059.96,663.524C1057.01,662.31 1055.55,662.136 1056.05,663.594C1081.56,696.191 1092.6,738.795 1090.6,780.73C1090.64,792.879 1089.71,801.107 1096.7,784.322L1097.44,782.544ZM1066.09,1314.79C1066.49,1290.07 1077.06,1265.72 1102.61,1257.01C1108.87,1253.76 1120.28,1253.65 1121.85,1245.88C1121.78,1235.35 1113.76,1208.19 1104.64,1195.4C1100.47,1192.49 1099.4,1208.78 1093.2,1201.07C1082.58,1187.24 1073.54,1164.28 1068.91,1148.73C1066.63,1146.1 1063.35,1152.52 1060.54,1153.47C1059.22,1153.97 1057.9,1153.59 1056.54,1152.47C1047.74,1142.74 1042.61,1128.14 1037.7,1115.29C1036.78,1113.51 1035.35,1110.31 1033,1111.8C1030.14,1113.42 1027.62,1119.91 1024.13,1115.46C1016.11,1104.1 1008.24,1086.89 1001.65,1073.45C999.69,1069.33 998.084,1066.47 997.268,1067.12C993.415,1086.71 999.369,1116.88 998.761,1137.44C999.117,1143.33 987.791,1131.88 984.085,1129.21C982.158,1127.8 980.952,1127.51 980.414,1129.14C979.703,1138.93 981.308,1155.93 981.517,1167.18C981.872,1174.73 982.48,1181.09 979.842,1179.77C977.03,1178.91 969.193,1170.08 965.062,1168.09C963.491,1167.34 963.24,1168.47 963.24,1170.99C963.422,1180.97 964.168,1200.42 964.706,1212.29C964.845,1246.66 972.074,1278.77 943.686,1300.32C935.103,1308.47 921.808,1307.06 907.557,1307.77L836.878,1308.38C826.265,1307.66 819.426,1309.63 817.143,1307.02C823.418,1290.29 828.686,1264.41 829.111,1244.54C832.288,1231.14 843.865,1217.74 848.638,1205.03C864.416,1183.55 880.306,1165.84 884.976,1136.81C886.72,1129.01 889.497,1122.56 894.305,1116.61C908.634,1100.83 914.04,1069.08 913.441,1043.36C913.546,1034.41 914.934,1026.58 918.675,1018.7C927.44,999.968 929.688,960.744 925.904,934.172C925.444,928.718 927.614,930.494 929.827,932.462C942.081,942.614 940.015,887.17 940.233,879.201C940.371,864.591 939.374,851.122 937.377,838.122C937.412,835.552 940.233,837.8 944.147,842.435C948.034,846.852 951.063,850.376 952.27,849.161C954.873,844.639 954.518,839.692 955.481,833.704C958.753,800.361 956.297,775.21 949.24,747.915C946.785,738.083 945.11,731.852 956.583,745.425C959.291,748.028 970.225,764.301 970.581,756.499C971.649,742.934 970.33,727.044 968.837,713.002C966.806,690.099 957.225,661.459 952.096,640.683C955.012,639.545 975.502,666.762 981.664,677.914C982.766,679.623 984.763,682.617 984.936,678.374C984.615,642.471 962.459,602.245 936.917,568.398C934.314,564.736 931.823,561.238 930.825,559.424C926.442,551.162 960.141,575.028 958.076,572.607C960.176,572.538 958.865,570.898 957.581,567.765C943.791,536.053 908.946,495.264 884.368,476.491C882.485,474.599 878.744,472.855 881.088,470.572C881.842,470.009 883.196,469.436 884.976,468.976C924.238,459.889 968.299,459.707 1006.74,472.36C1008.63,473.393 1009.34,474.564 1008.38,475.737C1007.34,476.699 1007.96,476.561 1003.82,478.731C998.119,481.69 994.526,484.537 1002.79,485.613C1033.64,488.138 1076.75,504.168 1099.65,520.553C1104.78,525.256 1098.55,526.22 1090.42,527.929C1080.27,530.108 1076.63,531.818 1085.52,533.701C1118.15,540.297 1156.44,556.361 1176.07,581.937C1176.75,584.792 1150.03,579.446 1158.51,587.387C1184.94,603.599 1211.56,623.838 1226.2,651.696C1226.9,657.719 1201.65,648.771 1206.78,656.894C1225.66,672.003 1248.5,693.735 1259.33,714.538C1259.89,715.995 1261.21,718.634 1260.08,719.884C1259.01,721.984 1251.39,719.632 1247,719.918C1238.38,721.272 1254.41,734.525 1256.38,738.552C1269.87,757.575 1283.01,775.565 1282.95,790.988C1280.31,794.017 1272.75,789.105 1269.52,789.278C1264.67,788.818 1266.63,792.733 1268.24,795.587C1281.24,816.286 1290,839.762 1291,861.701C1290.82,863.845 1290.04,864.765 1288.26,864.409C1285.55,864.131 1268.84,851.304 1271.76,859.531C1283.27,886.962 1289.17,916.996 1288.22,947.811C1287.51,953.298 1278,939.866 1273.54,936.845L1271.87,935.84C1270.15,935.268 1270.69,937.907 1270.59,938.87C1274.79,962.023 1282.3,990.919 1278.07,1011.22C1275.65,1016.85 1270.51,1006.95 1267.45,1004.28C1261.72,998.333 1256.3,992.024 1257.19,997.652L1272.54,1077.81C1275.25,1091.98 1273.11,1091.66 1261.54,1082.05C1247.35,1071.14 1255.01,1085.29 1258.3,1095.52C1260.22,1103.32 1284.81,1158.24 1270.44,1151.27C1262.07,1147.11 1251.6,1136.63 1258.87,1153.84C1273.68,1186.08 1276.43,1217.07 1275,1253.43C1276.5,1282.68 1259.05,1304.41 1231.58,1313.4C1226.62,1315.01 1224.38,1315.57 1220.24,1315.82C1194.14,1316.79 1077.46,1319.23 1066.41,1316.04L1066.09,1314.79ZM687.216,310.512C678.815,286.395 644.508,271.997 624.373,289.849C619.713,294.266 629.294,297.755 633.104,298.363C651.06,294.336 667.445,293.451 676.211,313.61C678.242,318.097 685.297,320.736 689.281,319.704C690.175,318.67 688.326,313.645 687.65,311.65L687.216,310.512ZM500.79,317.568C502.213,317.282 506.457,309.584 508.418,306.625C517.496,294.301 534.098,294.483 547.463,298.224C555.76,298.293 566.591,295.438 557.826,289.779C529.681,270.148 498.872,288.885 487.433,319.278C485.368,321.769 500.937,317.456 500.147,317.846L500.79,317.568ZM664.061,415.107C661.822,383.864 658.359,356.362 644.36,335.837C628.686,314.183 607.242,294.049 580.303,302.528C545.468,314.783 535.097,375.029 531.824,409.406C531.963,417.711 529.186,428.325 531.538,436.058C533.031,437.551 539.549,436.553 543.689,436.553C549.46,435.98 559.787,436.656 564.882,434.626C567.875,433.272 573.577,429.253 577.388,426.902C583.619,422.693 590.674,418.813 596.585,414.214C599.614,411.541 599.474,407.479 599.188,402.532C599.544,392.916 589.46,390.668 584.009,384.862C564.309,358.818 587.324,342.571 614.185,345.028C624.408,345.635 638.693,346.277 644.256,355.823C648.812,363.947 646.782,380.697 637.947,387.102C631.213,391.987 624.443,392.517 624.339,402.532C624.087,405.023 624.2,407.947 624.807,410.404C627.472,417.242 636.133,420.696 642.078,426.545C646.573,430.998 650.739,435.875 656.293,438.158C668.444,444.676 663.531,424.62 664.209,418.31L664.061,415.107ZM629.65,463.734C632.21,462.093 638.303,459.178 638.094,455.611C636.306,448.737 627.975,442.897 621.7,439.764C605.498,431.172 583.619,441.716 569.516,456.435C567.659,457.641 571.295,459.385 572.97,460.957C587.967,471.684 612.336,471.466 628.435,464.341L629.65,463.734ZM553.764,1329.71C561.462,1226.58 647.962,1302.89 652.987,1186.83C655.157,1168.12 656.258,1139.23 658.081,1122.28C658.394,1119.56 658.758,1117.42 657.361,1117.32C653.022,1116.76 645.324,1129.08 643.649,1123.93C643.111,1108.94 646.573,1095.26 651.703,1079.85C656.085,1066.72 661.961,1050.06 645.61,1069.22C632.497,1086.99 637.305,1019.59 638.589,1006.84C638.233,1000.72 645.784,978.559 639.127,984.146C635.456,986.536 631.429,992.447 627.264,992.555C613.265,978.833 614.827,945.204 617.109,926.327C617.682,922.874 620.208,912.539 613.829,917.918C581.449,944.714 605.853,987.317 604.179,1020.67C599.509,1027.22 592.419,999.296 589.181,1020.2C587.749,1027.29 574.211,1063.82 568.943,1055.43C566.947,1051.72 566.27,1035.69 561.393,1035.98C555.188,1048.17 549.633,1071.89 534.922,1078.27C531.538,1079.69 533.031,1047.45 525.584,1061.57C522.703,1067.37 519.57,1075.57 515.717,1080.59C512.94,1086.18 485.689,1066.4 482.946,1069.71C480.951,1070.46 487.963,1080.41 492.884,1086.93C511.091,1107.63 554.693,1136.88 550.414,1159.03C548.852,1165.98 530.896,1170.43 530.392,1178.6C530.505,1181.09 532.779,1182.8 535.6,1182.38C537.561,1181.94 537.197,1182.27 541.935,1180.34C553.156,1174.24 560.004,1176.06 555.118,1189.86C552.202,1194.88 544.183,1198.33 538.915,1201.3C529.681,1205.27 528.761,1214.74 539.696,1212.29C545.502,1211.22 548.349,1209.41 551.846,1209.59C553.443,1209.73 554.12,1210.68 553.695,1212.43C552.445,1217.07 546.396,1224.22 541.579,1227.05C478.668,1250.44 411.408,1208.94 372.936,1157.04C334.42,1108.63 327.122,1040.77 356.933,986.993C360.283,978.8 336.486,997.262 336.347,992.762C340.339,974.284 355.692,958.138 366.089,942.183C370.654,935.658 373.292,932.918 367.946,934.064C362.392,935.234 354.729,937.301 349.738,938.115C347.178,938.439 347.065,937.692 348.245,935.525C358.824,917.602 373.535,897.331 383.125,878.061C384.974,873.461 391.422,862.239 385.79,862.916C380.981,864.088 368.657,879.375 368.979,868.505C369.404,847.208 380.556,804.596 385.79,778.057C385.902,776.243 384.583,776.52 382.231,778.343C379.809,779.228 371.548,790.563 368.336,790.666C362.748,763.312 373.968,736.555 381.415,708.515C381.589,706.875 380.695,707.022 378.811,708.342C374.716,710.971 365.881,720.595 364.344,718.096C361.854,704.991 366.375,687.608 369.438,669.652C371.435,662.665 377.458,628.463 383.801,632.099C387.968,641.507 394.555,655.575 401.359,665.512C409.022,675.952 429.009,710.329 427.082,684.327C427.333,683.077 428.046,683.112 429.009,684.18C432.038,688.033 435.274,694.837 438.807,699.15C452.345,717.029 477.6,740.79 496.442,743.325C483.832,731.279 468.445,711.969 457.831,696.477C442.114,673.141 428.081,639.615 417.64,611.47C412.98,600.249 413.543,625.685 413.405,627.821C413.37,629.93 412.545,630.251 410.767,629.106C388.575,608.693 379.168,574.169 378.065,545.712C377.492,539.368 377.849,532.737 376.035,527.366C372.224,519.737 364.31,545.313 360.465,535.055C355.119,512.863 358.608,479.051 367.625,455.22C370.654,446.489 362.14,452.052 357.827,454.612C340.478,463.665 364.492,406.628 367.017,403.14C372.649,392.274 380.487,382.329 386.327,371.61C388.783,362.272 368.476,376.201 368.519,371.61C372.719,346.46 400.187,317.846 420.886,302.172C434.207,291.306 405.742,303.387 403.502,299.577C388.749,287.601 378.455,269.289 378.49,249.519C376.642,172.462 463.454,171.003 495.877,233.741C497.691,237.334 491.53,239.192 485.081,244.85C482.946,246.777 480.447,249.06 478.451,251.16C470.259,259.89 470.189,262.129 481.124,255.863C504.496,240.971 531.859,234.201 559.822,239.192C570.87,241.613 578.845,249.311 589.069,244.963C596.055,241.9 595.908,242.611 601.323,240.468C624.339,232.527 647.997,243.036 668.982,254.258C678.597,259.456 690.14,265.948 676.602,251.125C671.932,243.852 656.441,239.513 654.445,232.136C663.809,200.823 701.822,179.092 731.182,193.62C764.776,210.543 770.157,254.831 749.494,285.718C739.088,301.209 739.305,300.679 722.988,296.158C719.17,296.011 722.668,300.038 724.195,301.643C742.654,320.988 765.384,340.367 772.11,366.195C770.582,369.648 758.58,364.658 755.265,365.301C745.57,363.166 767.519,392.378 767.371,396.613C779.556,423.726 782.056,454.152 778.167,484.936C776.102,493.267 770.479,480.05 766.695,476.812C752.592,460.453 762,484.65 761.6,492.018C764.811,520.839 755.872,556.257 741.795,584.61C740.832,587.353 737.274,594.018 741.865,590.451C763.388,574.169 775.928,550.555 783.479,525.439C796.87,563.59 788.183,626.189 762.563,648.485C759.569,646.958 763.206,622.692 756.654,630.103C743.895,655.184 733.108,693.553 717.322,714.963C710.336,726.115 698.298,736.555 691.884,747.204C719.535,740.148 741.761,715.388 758.363,691.669C764.386,690.099 756.94,711.969 760.646,710.224C783.331,694.334 795.308,662.561 799.083,634.912C799.795,632.525 799.613,626.684 800.792,622.484C802.32,617.597 805.279,623.941 806.599,626.154C811.233,635.944 813.976,640.544 815.685,628.428C818.679,609.587 817.247,565.655 813.507,552.759C812.795,544.211 828.191,569.041 830.005,568.65C830.752,569.006 831.29,568.65 831.532,567.652C831.966,565.655 831.75,561.49 831.715,558.461C831.853,525.509 811.624,488.564 801.608,456.253C801.86,454.187 805.566,456.574 806.816,456.999C811.155,459.099 817.925,463.56 813.368,454.187C808.135,441.04 795.446,411.688 791.923,405.414C791.351,403.704 789.606,402.176 792.027,401.96C812.865,408.017 840.94,429.887 852.197,447.808C852.092,452.122 839.907,447.027 837.417,449.665C855.477,477.203 886.65,498.544 897.195,528.468C897.091,530.75 892.674,528.182 887.076,525.439C881.842,522.801 874.144,519.737 868.304,517.741C857.325,513.714 863.852,519.52 867.948,524.224C892.596,550.694 919.386,585.001 921.703,620.947C914.9,618.135 911.263,611.47 905.605,608.12C879.881,588.888 892.561,605.951 901.109,619.914C910.161,628.358 946.75,726.896 920.098,701.216C915.646,698.118 897.942,683.755 905.17,696.191C912.799,710.329 920.098,726.115 923.838,741.858C926.798,750.016 934.14,805.342 921.243,782.257C916.791,775.6 910.413,767.868 904.815,761.775C898.653,755.188 894.947,751.587 896.093,755.544C906.672,784.792 916.54,813.821 915.759,845.064C915.255,856.112 917.824,871.647 911.298,880.122C906.672,877.627 897.837,859.315 892.066,855.401C889.176,852.545 887.649,851.834 888.074,854.654C902.359,896.368 911.124,944.001 901.934,987.956C898.801,999.611 897.689,998.216 890.816,986.321C887.683,981.473 871.827,961.566 877.104,976.849C888.855,1005.1 901.647,1068.37 881.166,1092.56C878.31,1093.59 873.216,1082.9 868.27,1079.41C860.537,1072.74 867.271,1104.7 865.631,1109.55C864.311,1130.33 862.706,1154.83 847.779,1169.72C844.646,1170.61 840.445,1156.87 836.774,1152.63C835.386,1150.7 834.423,1150.3 833.815,1151.93C831.107,1167.93 832.461,1187.95 824.485,1202.91C816.822,1218.88 816.536,1211.08 805.705,1202.46C803.856,1201.49 802.927,1202.36 802.927,1204.71C803.145,1209.26 804.819,1216.54 805.314,1222.88C812.37,1269.33 799.292,1324.06 748.921,1335.78C724.377,1339.9 687.65,1337.65 659.036,1338.52C637.452,1340.04 586.968,1337.44 558.755,1338.52C553.799,1339.12 553.59,1336.13 553.66,1332.41L553.764,1329.71" style="fill:rgb(4,6,6);fill-rule:nonzero;"/>
    </g>
</svg>
