<!-- Generated by IcoMoon.io -->
<svg version="1.1" xmlns="http://www.w3.org/2000/svg" width="32" height="32" viewBox="0 0 32 32">
<path d="M24.401 0.494c0 0 1.156 2.336 0.431 2.74-0.726 0.404-1.708-1.927-1.708-1.927s-0.109 1.129 1.083 2.082c1.192 0.954-0.964 3.847-2.319 4.243 0 0 0.492-1.736-0.595-2.815 0 0 0.461 1.498 0.096 1.681s-0.706-0.738-1.801-0.888c0 0 1.634 1.436 1.483 2.007s-1.673 1.079-2.268 1.491c-0.595 0.412-1.189-1.785-0.928-2.133 0 0-0.758 0.752 0.123 2.494 0.28 0.554-0.108 1.049-0.541 1.397-0.074 0.019-0.141 0.039-0.201 0.061-0.051-0.224-0.221-0.544-0.757-0.744-0.892-0.333-1.475-1.837-0.393-3.343 0.714-0.994 0.625-1.064 0.625-1.064s-0.601 0.702-0.708 0.493c-0.108-0.209 0.999-2.011 0.999-2.011s-1.138 0.714-1.503 2.296c-0.365 1.583-0.983 1.463-0.365 3.058 0 0-1.701 0.024-2.142-1.987 0 0-0.127 0.063-0.135 0.302v0.013c-0.003-0.053-0.036-0.733 0.23-1.076 0 0-1.364 1.253 0.071 2.633 1.327 1.276 2.327 0.314 3.017 1.537-0.29-0.183-0.854-0.397-1.771-0.197 0 0 0.509 1.034 1.104 1.356 0 0 0.137-0.404 0.488-0.47 0 0-0.411 0.197-0.315 0.665l0.012 0.221-1.28 1.154c0 0-0.357 0.261-0.054 0.576 0 0-0.018 0.362 0.352 0.547s0.399 0.381 0.773 0.364c0.374-0.018 0.381-0.221 0.928-0.202 0.547 0.018 0.987-0.042 0.987-0.042s1.207 0.042 1.549-0.291c0.341-0.334 0.991-0.214 0.904-1.317 0 0 0.319 0.781-0.579 1.274-0.366 0.201-0.197 0.416-1.634 0.578 0 0 0.694 0.82 0.682 2.093s0.785 2.451 1.024 2.76c0 0-0.947-0.721-1.166-2.723-0.063-0.576-0.268-0.547-0.268-0.547s-0.898-0.048-1.838 1.166c0 0 0.265-0.5 0.44-0.603 0 0-1.181 0.040-1.999-0.119s-2.529-0.008-3.529 0.975c-0.999 0.983-1.587 1.185-1.587 1.185s-0.8 0.773 0.135 3.469c0.482 1.391 0.11 2.912 0.11 2.912s-0.163 1.108-0.799 1.298c0 0-0.148 0.035-0.113 0.667 0.027 0.482-0.057 2.252-0.098 3.056l-0.14 0.257-0.404 0.025 0.071-0.273 0.333-0.155-0.428-0.214-0.453 0.595v-0.761l-0.286 0.785-0.453-0.285 0.261 0.571-0.020 0.187h15.411l-0.047-0.571 0.31-0.393-0.667 0.238-0.333 0.321-0.261 0.047v-0.238l-0.286-0.523v0.393l-0.337 0.307-0.013-0.152 0.31-0.393-0.555 0.198v-0.495l-0.428 0.785-0.277 0.016v-0.134l-0.061-0.111 0.338-0.175-0.428-0.214-0.003 0.005c0.030-0.498 0.078-1.056 0.154-1.182 0.143-0.238 0.214-1.011 0.167-1.583s0.603-2.454 0.849-2.874 0.286-0.793 0.286-0.793c0 0 1.474-0.826 1.395-2.744-0.043-1.049-0.353-1.048-0.246-2.272 0 0-0.31-3.755-2.229-6.674 0 0 0.123-0.453 0.504-0.637s1.591-0.442 1.305-2.695c0 0-0.857 0.412-1.016 0.428s-0.761 0.286-1.016 0.92c-0.218 0.547-0.836 0.528-1.095 0.431 0.645-2.67 2.807-1.222 5.013-3.841 3.512-4.17 0.524-6.472 0.524-6.472l0 0zM16.683 30.477l-0.428 0.214 0.333 0.155 0.071 0.274-0.404-0.024-0.428-0.786v0.642l-0.19 0.262-0.404-0.369v-0.393l-0.286 0.523v0.238l-0.261-0.047-0.333-0.321-0.085-0.029 0.164-0.207-0.373 0.133-0.373-0.133 0.164 0.207-0.085 0.029-0.118 0.114c-0.093-0.646-0.477-1.912-0.558-2.155-0.096-0.286-0.236-0.886 0.652-1.473s1.692-1.859 1.692-1.859c-2.063-0.333-2.993-2.439-2.993-2.439 0.096 0.529-0.032 1.045-0.032 1.045 0.595 0.793 0.032 2.328-0.403 2.637-0.434 0.31-0.517 0.738-0.101 1.606 0.31 0.645 0.737 1.938 0.936 2.562l-0.361 0.328-0.19-0.261v-0.642l-0.428 0.789-0.404 0.025 0.071-0.274 0.333-0.155-0.428-0.214-0.453 0.596v-0.333l0.102-0.131-0.102 0.037v-0.334l-0.14 0.384-0.423 0.151-0.047 0.044-0.128-0.081 0.065 0.141-0.224 0.216-0.261 0.047v-0.239l-0.286-0.522v0.393l-0.339 0.31c0.116-0.536 0.493-2.233 0.708-2.498 0.256-0.315 0.446-0.935 0.839-1.339s1.426-2.427 1.553-3.634c0.113-1.078-0.571-1.844-0.682-3.49 0 0 0.762 5.212 4.76 5.292 0 0-0.246-0.795-0.136-1.319 0 0-0.214-0.451-0.198-0.849 0.013-0.345-0.121-0.819-0.22-0.97 0.105 0.119 0.381 0.481 0.354 0.97-0.032 0.601 0.238 0.816 0.238 0.816s0.024 1.236 0.69 3.378c0 0 0.198 0.461 0.159 0.856-0.039 0.397 0 0.841 0.277 1.19 0.124 0.155 0.17 0.52 0.183 0.877l-0.221 0.606-0.051 0.033-0.050-0.033-0.267-0.733v0.565l-0.102-0.065 0.102 0.225v0.038l-0.453-0.597zM15.779 22.305c0 0 0.008 0.008 0.020 0.022-0.007-0.007-0.013-0.019-0.020-0.022zM20.403 24.383c0 0-0.185 0.377-0.873 0.547-0.348 0.086-0.436 0.469-0.436 0.469s-0.213 2.13-0.093 2.765c0.119 0.637-0.005 0.566 0.178 1.142 0.11 0.346 0.062 1.002 0.007 1.473l-0.078 0.216-0.030-0.040v-0.643l-0.321 0.587-0.14-0.087 0.086 0.186-0.054 0.099-0.404 0.025 0.071-0.273 0.333-0.155-0.376-0.189c0.067-0.447 0.137-0.92 0.147-0.982 0.016-0.119 0.253-0.642-0.119-1.444-0.373-0.801-0.088-1.95-0.096-3.133s0.404-1.309 0.404-1.309c0 0-0.38 0.269-0.277 1.546 0 0 0.547-0.047 0.881-0.302 0.333-0.253 0.761 0.001 1.189-0.498v-0z"></path>
</svg>
