<?xml version="1.0" encoding="utf-8"?>
<svg version="1.1" viewBox="0 0 1200 1200" xmlns="http://www.w3.org/2000/svg" width="150pt" height="150pt">
  <path d="M 915.036 18.526 C 915.036 18.526 958.373 106.107 931.199 121.26 C 903.975 136.412 867.154 48.983 867.154 48.983 C 867.154 48.983 863.063 91.309 907.763 127.069 C 952.463 162.83 871.6 271.315 820.787 286.174 C 820.787 286.174 839.223 221.069 798.463 180.612 C 798.463 180.612 815.736 236.777 802.049 243.646 C 788.361 250.515 775.583 215.967 734.519 210.361 C 734.519 210.361 795.785 264.203 790.128 285.618 C 784.471 307.034 727.397 326.076 705.072 341.531 C 682.747 356.987 660.472 274.608 670.271 261.526 C 670.271 261.526 641.835 289.71 674.867 355.067 C 685.373 375.826 670.827 394.414 654.563 407.444 C 651.785 408.151 649.259 408.909 647.037 409.717 C 645.118 401.332 638.754 389.311 618.651 381.836 C 585.215 369.361 563.345 312.942 603.902 256.479 C 630.672 219.203 627.338 216.577 627.338 216.577 C 627.338 216.577 604.812 242.892 600.771 235.063 C 596.73 227.234 638.248 159.655 638.248 159.655 C 638.248 159.655 595.569 186.424 581.881 245.771 C 568.193 305.119 545.01 300.623 568.193 360.429 C 568.193 360.429 504.402 361.338 487.886 285.929 C 487.886 285.929 483.138 288.303 482.835 297.243 L 482.835 297.748 C 482.734 295.778 481.471 270.272 491.472 257.392 C 491.472 257.392 440.307 304.365 494.149 356.136 C 543.899 403.968 581.427 367.905 607.287 413.766 C 596.428 406.897 575.265 398.866 540.868 406.392 C 540.868 406.392 559.961 445.182 582.286 457.253 C 582.286 457.253 587.437 442.101 600.57 439.626 C 600.57 439.626 585.165 447.001 588.751 464.577 L 589.205 472.86 L 541.223 516.146 C 541.223 516.146 527.838 525.945 539.202 537.763 C 539.202 537.763 538.546 551.35 552.385 558.269 C 566.224 565.189 567.335 572.564 581.376 571.906 C 595.417 571.249 595.67 563.623 616.177 564.33 C 636.683 564.987 653.199 562.764 653.199 562.764 C 653.199 562.764 698.454 564.33 711.283 551.855 C 724.061 539.329 748.457 543.824 745.174 502.457 C 745.174 502.457 757.144 531.753 723.456 550.238 C 709.717 557.764 716.081 565.845 662.189 571.906 C 662.189 571.906 688.202 602.666 687.747 650.396 C 687.292 698.127 717.193 742.321 726.133 753.888 C 726.133 753.888 690.626 726.866 682.393 651.76 C 680.019 630.143 672.342 631.254 672.342 631.254 C 672.342 631.254 638.652 629.436 603.398 674.995 C 603.398 674.995 613.348 656.256 619.914 652.367 C 619.914 652.367 575.619 653.882 544.96 647.922 C 514.302 641.962 450.106 647.619 412.631 684.491 C 375.155 721.362 353.132 728.938 353.132 728.938 C 353.132 728.938 323.13 757.93 358.183 859.037 C 376.265 911.212 362.325 968.235 362.325 968.235 C 362.325 968.235 356.213 1009.8 332.373 1016.92 C 332.373 1016.92 326.818 1018.24 328.131 1041.92 C 329.141 1060.01 326.009 1126.38 324.444 1156.53 L 319.191 1166.17 L 304.039 1167.09 L 306.716 1156.84 L 319.191 1151.03 L 303.13 1142.99 L 286.159 1165.32 L 286.159 1136.79 L 275.451 1166.22 L 258.48 1155.52 L 268.279 1176.93 L 267.521 1183.95 L 845.433 1183.95 L 843.666 1162.54 L 855.282 1147.8 L 830.281 1156.72 L 817.805 1168.76 L 808.007 1170.52 L 808.007 1161.58 L 797.299 1141.97 L 797.299 1156.72 L 784.672 1168.24 L 784.167 1162.54 L 795.783 1147.79 L 774.974 1155.21 L 774.974 1136.63 L 758.913 1166.08 L 748.508 1166.67 L 748.508 1161.63 L 746.235 1157.48 L 758.913 1150.92 L 742.852 1142.88 L 742.751 1143.05 C 743.862 1124.36 745.681 1103.44 748.509 1098.74 C 753.863 1089.81 756.54 1060.82 754.772 1039.39 C 753.004 1017.99 777.4 947.373 786.592 931.616 C 795.784 915.858 797.3 901.867 797.3 901.867 C 797.3 901.867 852.556 870.905 849.626 798.982 C 848.01 759.635 836.393 759.686 840.383 713.774 C 840.383 713.774 828.766 572.954 756.792 463.512 C 756.792 463.512 761.388 446.541 775.682 439.621 C 789.975 432.701 835.331 423.054 824.624 338.554 C 824.624 338.554 792.502 354.009 786.541 354.615 C 780.58 355.221 758.004 365.323 748.457 389.113 C 740.275 409.619 717.092 408.912 707.394 405.275 C 731.588 305.168 812.654 359.464 895.388 261.223 C 1027.07 104.844 915.035 18.524 915.035 18.524 L 915.036 18.526 Z M 625.617 1142.9 L 609.556 1150.93 L 622.031 1156.74 L 624.708 1167.01 L 609.556 1166.1 L 593.495 1136.64 L 593.495 1160.73 L 586.373 1170.54 L 571.221 1156.69 L 571.221 1141.94 L 560.513 1161.55 L 560.513 1170.48 L 550.715 1168.71 L 538.239 1156.69 L 535.057 1155.59 L 541.219 1147.81 L 527.229 1152.81 L 513.238 1147.81 L 519.4 1155.59 L 516.218 1156.69 L 511.774 1160.98 C 508.289 1136.74 493.894 1089.27 490.864 1080.17 C 487.277 1069.46 482.025 1046.94 515.31 1024.92 C 548.595 1002.89 578.749 955.219 578.749 955.219 C 501.37 942.744 466.515 863.748 466.515 863.748 C 470.101 883.598 465.303 902.943 465.303 902.943 C 487.628 932.692 466.515 990.225 450.2 1001.84 C 433.937 1013.46 430.805 1029.52 446.412 1062.05 C 458.029 1086.23 474.041 1134.72 481.516 1158.12 L 467.98 1170.43 L 460.858 1160.63 L 460.858 1136.55 L 444.797 1166.14 L 429.645 1167.06 L 432.322 1156.8 L 444.797 1150.98 L 428.736 1142.95 L 411.765 1165.29 L 411.765 1152.81 L 415.604 1147.9 L 411.765 1149.28 L 411.765 1136.74 L 406.512 1151.14 L 390.652 1156.8 L 388.885 1158.46 L 384.086 1155.43 L 386.511 1160.73 L 378.126 1168.82 L 368.328 1170.59 L 368.328 1161.64 L 357.62 1142.05 L 357.62 1156.8 L 344.892 1168.41 C 349.236 1148.32 363.378 1084.67 371.459 1074.72 C 381.056 1062.9 388.178 1039.66 402.926 1024.52 C 417.674 1009.37 456.415 933.5 461.162 888.244 C 465.405 847.837 439.747 819.098 435.605 757.38 C 435.605 757.38 464.192 952.84 614.105 955.836 C 614.105 955.836 604.862 926.036 609.004 906.388 C 609.004 906.388 600.973 889.468 601.579 874.568 C 602.084 861.638 597.033 843.859 593.346 838.202 C 597.286 842.647 607.64 856.233 606.63 874.568 C 605.418 897.094 615.57 905.176 615.57 905.176 C 615.57 905.176 616.479 951.542 641.43 1031.85 C 641.43 1031.85 648.855 1049.13 647.39 1063.96 C 645.925 1078.83 647.39 1095.48 657.795 1108.58 C 662.441 1114.38 664.159 1128.07 664.664 1141.45 L 656.38 1164.17 L 654.461 1165.39 L 652.592 1164.17 L 642.592 1136.7 L 642.592 1157.87 L 638.753 1155.44 L 642.592 1163.88 L 642.592 1165.3 L 625.617 1142.9 Z M 591.726 836.421 C 591.726 836.421 592.029 836.724 592.484 837.229 C 592.231 836.977 591.979 836.522 591.726 836.421 Z M 765.119 914.355 C 765.119 914.355 758.199 928.498 732.39 934.862 C 719.358 938.094 716.024 952.438 716.024 952.438 C 716.024 952.438 708.044 1032.3 712.539 1056.13 C 716.984 1080.03 712.337 1077.35 719.206 1098.96 C 723.348 1111.94 721.53 1136.55 719.459 1154.21 L 716.529 1162.3 L 715.418 1160.79 L 715.418 1136.69 L 703.398 1158.71 L 698.145 1155.43 L 701.377 1162.4 L 699.357 1166.13 L 684.205 1167.05 L 686.882 1156.8 L 699.357 1150.98 L 685.266 1143.91 C 687.791 1127.14 690.417 1109.41 690.771 1107.1 C 691.377 1102.64 700.267 1083.01 686.326 1052.94 C 672.336 1022.89 683.043 979.815 682.74 935.469 C 682.437 891.124 697.892 886.375 697.892 886.375 C 697.892 886.375 683.649 896.477 687.488 944.358 C 687.488 944.358 707.994 942.591 720.52 933.044 C 732.995 923.549 749.057 933.095 765.119 914.356 L 765.119 914.355 Z"/>
</svg>