<!-- Generated by IcoMoon.io -->
<svg version="1.1" xmlns="http://www.w3.org/2000/svg" width="32" height="32" viewBox="0 0 32 32">
<path d="M30.304 9.224c0.261-0.122 0.373 0.216 0.464 0.396 0.983 2.366 0.693 5.051 0.298 7.518-0.040 0.233-0.382 0.16-0.392-0.053-0.093-1.672-0.19-3.436-0.85-4.997-3.28 3.977-3.405 9.157-2.418 10.213 0.672 0.291 1.63 0.637 1.813 1.408 2.369 0.784 1.998 2.701-0.22 2.513 0 0.463 0.058 1.187-0.452 1.322-1.133 0.184-1.36-0.494-0.851-1.441-0.309-0.024-0.617 0.030-0.925 0.026 0.104 0.523 0.36 1.297-0.418 1.361-0.207 0.013-22.349-0.001-23.093-0.001-0.229 0-0.305-0.307-0.115-0.424 0.251-0.155 0.5-0.393 0.748-0.653 0.662-0.712 1.193-1.535 1.569-2.432 0.081-0.187 0.111-0.392 0.087-0.595s-0.103-0.395-0.226-0.557v-0c-0.72-1.028-2.119-1.521-3.307-1.054-0.184 0.068-0.304-0.158-0.234-0.304 0.546-1.182 2.092-1.69 3.21-0.994-0.889-1.606-2.209-3.19-4.002-3.802-0.086-0.026-0.144-0.105-0.144-0.195s0.058-0.168 0.144-0.195h0c1.255-0.442 2.685 0.12 3.699 0.932-0.916-2.628-2.22-5.101-4.074-7.197-0.12-0.136-0.007-0.381 0.187-0.321 2.902 0.743 4.786 3.379 5.61 6.133 0.002-0.758-0.306-4.56-0.046-5.778 0.107-0.819 0.776-1.382 1.537-1.607 0.376-0.953 0.324-2.044 0.829-2.955 0.088-0.166 0.159-0.299 0.367-0.309 0.563 0.018 0.654 0.708 0.909 1.089 0.068 0.116 0.040 0.144 0.168 0.109 0.2-0.055 0.291-0.175 0.524-0.156 0.681 0.122 1.096 0.746 1.775 0.902 0.808 0.229 1.653 0.347 2.485 0.466 2.916-0.017 5.953-0.139 8.744 0.824 0.386-0.365 0.547-0.835 0.744-1.344 0.222-0.576 0.491-1.133 0.805-1.664h-0c0.207-0.349 0.487-0.914 0.936-0.977 0.476-0.067 0.793 0.353 0.735 0.794-0.076 0.565-0.281 1.58-0.374 2.142-0.018 0.112-0.124 0.188-0.236 0.169s-0.188-0.124-0.169-0.236l-0 0c0.045-0.276 0.227-1.236 0.267-1.482 0.035-0.212 0.21-0.733 0.050-0.904-0.354-0.38-0.912 0.8-1.032 1.019-0.409 0.819-0.833 1.658-0.922 2.578-0.202 1.314-0.495 4.697-0.396 5.53 0 0 0.44-1.822 1.52-2.327 0.056-0.562 0.122-1.166 0.194-1.78 0.004-0.054 0.030-0.104 0.072-0.138s0.096-0.050 0.149-0.044c0.054 0.006 0.102 0.034 0.135 0.078s0.046 0.098 0.038 0.151c-0.255 2.127-0.408 4.259-0.458 6.396 0.754-2.242 1.734-4.504 3.393-6.232 0.331-0.339 0.716-0.715 1.15-0.922zM24.294 16.163c-0.203 0.406-0.431 0.8-0.683 1.178l-0-0c-1.297 1.746-1.136 4.045 0.755 5.284 0.368-0.174 0.71-0.383 1.106-0.507-0.225-3.296-0.194-6.604 0.094-9.896-0.683 0.78-0.804 1.598-0.868 2.592-0.061 0.923 0.021 1.857-0.018 2.784-0.004 0.213-0.318 0.21-0.329 0-0.025-0.479-0.043-0.957-0.056-1.436zM19.873 14.661c0.036 2.971-0.303 6.131 1.128 8.854-0.513-2.263-0.538-4.611-0.622-6.92-0.056-1.807-0.080-3.605 0.165-5.407-0.171 0.015-0.343 0.025-0.514 0.037-0.081 1.143-0.137 2.289-0.157 3.435zM6.71 10.27c-0.107 0.792 0.075 4.588 0.148 5.993 0.076 0.802 1.034 0.774 1.42 0.191 0.259-0.414 0.363-0.875 0.806-1.143 0.378-0.229 0.928-0.267 1.219-0.624 0.296-0.363 0.187-0.919 0.378-1.334 0.178-0.386 0.505-0.543 0.916-0.552 0.274-0.006 0.598 0.064 0.786-0.188 0.119-0.159 0.155-0.381 0.229-0.562 0.189-0.468 0.615-0.718 1.070-0.888-0.549-0.051-1.097-0.115-1.641-0.191-0.262-0.037-0.15-0.434 0.11-0.398 0.673 0.093 1.348 0.166 2.026 0.218 0.097 0.007 0.193-0.012 0.28-0.055s0.16-0.109 0.213-0.191c0.341-0.531-0.279-0.895-0.699-1.065-0.475-0.192-0.996-0.456-1.18-0.87-0.067-0.145-0.177-0.267-0.316-0.347s-0.299-0.115-0.458-0.1v0c-0.897 0.077-2.243 0.255-3.137 0.453-0.876 0.234-2.031 0.501-2.171 1.652zM14.21 27.049c0.321-0.65 0.541-1.546 0.541-2.827-1.379 0.956-2.261-0.718-2.471-1.897-0.245 1.683-0.726 3.481-1.955 4.718 1.295 0.001 2.59 0.003 3.885 0.006zM14.933 23.387c0.404-2.343 0.378-8.306 0.337-11.948-0.545 0.611-1.842 0.198-2.073 1.068-0.435 1.639-1.967 0.681-2.011 2.215-0.014 0.547-0.31 0.901-0.852 1.094-0.182 2.117-0.567 4.213-1.026 6.287-0.054 0.246-0.466 0.193-0.442-0.060 0.158-1.694 0.338-3.39 0.377-5.092-0.174 0.635-0.792 0.963-1.469 1.095-0.026 3.1-0.29 6.479-2.275 8.993l4.14 0.005c2.503-1.873 2.191-6.429 2.316-9.122 0.009-0.882 0.526-5.791 2.209-4.611 0.632 0.443 0.581 1.765 0.617 2.218 0.13 1.714 0.046 3.438-0.051 5.151-0.025 0.407 0.048 0.992-0.316 1.268-0.32 0.243-0.84 0.187-0.998-0.184-0.659-1.553-0.477-4.126-0.282-5.182 0.037-0.198 0.334-0.205 0.316 0-0.054 0.645-0.283 5.961 0.787 4.942 0.083-0.17 0.051-0.471 0.062-0.66 0.839-9.559-1.661-8.582-1.928-2.464-0.003 1.371 0.040 2.754 0.395 4.086 0.222 1.221 1.259 2.367 2.165 0.902zM19.995 27.059c0.772 0.002 1.544 0.003 2.316 0.004-1.806-2.025-2.689-4.683-2.77-7.371-0.14-2.806-0.152-5.631 0.052-8.437-0.189 0.011-0.377 0.021-0.566 0.030-0.108 2.204-0.107 4.421-0.329 6.617-0.023 0.194-0.299 0.203-0.309 0-0.058-1.224 0.019-2.462 0.049-3.686 0.022-0.971 0.067-1.941 0.098-2.911-0.943 0.032-1.886 0.029-2.829-0.008 0.152 4.607 0.003 9.252-0.057 15.755l3.867 0.006c-0.919-2.008-1.458-4.295-1.228-6.509 0.024-0.212 0.34-0.224 0.34 0-0.023 2.244 0.336 4.496 1.366 6.51zM25.047 27.066c-0.066-0.68-0.061-2.082-0.061-2.082-0.801-0.029-2.368-0.054-2.959-0.582-0.216-0.248-0.088-0.609 0.103-0.831 0.274-0.318 0.973-0.534 1.377-0.637-0.675-0.462-1.331-1.224-1.423-2.044-0.287-2.541 1.607-3.674 1.551-4.635-0.061-2.555 0.12-5.132 0.468-7.663-0.33 0.334-0.734 0.584-1.18 0.73-0.229 1.374-0.25 2.753-0.412 4.133-0.020 0.192-0.311 0.2-0.306 0 0.019-1.336 0.114-2.663 0.258-3.992-0.728 0.287-0.524 1.398-1.449 1.641-0.419 2.925-0.233 5.905-0.078 8.845 0.288 2.895 0.15 4.978 3.208 7.115zM28.385 24.076c-0.66-0.053-1.25 0.393-1.787 0.73-0.144 0.098-0.524 0.281-0.5 0.477 0.146 1.176 2.975-0.133 3.52-0.054 0.482 0.069 0.789-0.926-1.233-1.153zM27.046 22.631c-1.665-0.526-1.931 0.261-3.335 0.625-0.429 0.094-1.141 0.233-1.338 0.704-0.067 0.159-0.025 0.177 0.11 0.239 0.92 0.422 2.51 0.26 2.782 0.176v-0.001c0.132-0.034 0.25-0.107 0.339-0.209h-0c0.181-0.229 0.22-0.462 0.493-0.621 0.256-0.149 0.557-0.174 0.82-0.301 0.298-0.144 0.353-0.435 0.129-0.612zM29.845 19.003c1.284 0.755 1.13 2.357 0.802 3.598-0.058 0.221-0.377 0.241-0.415-0.005-0.055-0.384-0.151-0.761-0.286-1.125-0.524-1.528-1.459-1.070-2.15 0.032-0.415 0.461-0.481-1.674-0.355-2.218 0.158-0.845 1.868-0.67 2.403-0.282zM26.15 8.81c-0.284-0.001-0.285-0.434 0-0.435 0.284 0.001 0.284 0.434 0 0.435zM24.752 18.485c-0.020 0.171-0.286 0.168-0.302-0.003-0.079-0.194 0.224-0.318 0.302-0.122 0.019 0.039 0.019 0.085 0.001 0.125zM10.969 10.429c0.276 0.001 0.276 0.421 0 0.422-0.276-0.001-0.276-0.421 0-0.422zM18.601 18.894c0.070 0.044 0.106 0.128 0.088 0.209v-0c-0.006 0.156-0.194 0.256-0.315 0.145-0.176-0.14 0.009-0.477 0.227-0.354z"></path>
</svg>
