<?xml version="1.0" encoding="utf-8"?>
<svg version="1.1" viewBox="0 0 1200 1200" xmlns="http://www.w3.org/2000/svg" width="150pt" height="150pt">
  <path d="M 1136.409 345.916 C 1146.178 341.33 1150.397 354.006 1153.823 360.756 C 1190.691 449.476 1179.816 550.164 1165.011 642.676 C 1163.507 651.406 1150.671 648.66 1150.308 640.687 C 1146.828 577.997 1143.183 511.844 1118.445 453.317 C 995.437 602.437 990.75 796.705 1027.781 836.307 C 1052.984 847.221 1088.906 860.178 1095.777 889.108 C 1184.601 918.503 1170.699 990.394 1087.523 983.335 C 1087.53 1000.695 1089.702 1027.863 1070.585 1032.925 C 1028.104 1039.808 1019.604 1014.398 1038.663 978.878 C 1027.081 977.968 1015.541 980.003 1003.979 979.859 C 1007.878 999.461 1017.468 1028.492 988.323 1030.914 C 980.553 1031.402 150.245 1030.867 122.343 1030.867 C 113.737 1030.867 110.921 1019.362 118.038 1014.972 C 127.448 1009.168 136.792 1000.242 146.069 990.48 C 170.909 963.793 190.823 932.914 204.893 899.281 C 207.94 892.266 209.061 884.563 208.143 876.969 C 207.221 869.379 204.296 862.168 199.663 856.082 L 199.663 856.078 C 172.676 817.523 120.188 799.042 75.633 816.562 C 68.727 819.128 64.234 810.644 66.875 805.171 C 87.343 760.854 145.335 741.788 187.265 767.913 C 153.915 707.673 104.429 648.287 37.195 625.353 C 33.988 624.365 31.8 621.404 31.8 618.048 C 31.8 614.697 33.988 611.736 37.195 610.743 L 37.199 610.743 C 84.267 594.173 137.899 615.262 175.919 645.696 C 141.579 547.156 92.653 454.413 23.149 375.796 C 18.637 370.683 22.895 361.519 30.157 363.757 C 138.977 391.617 209.622 490.457 240.517 593.757 C 240.61 565.347 229.056 422.751 238.798 377.087 C 242.798 346.376 267.9 325.252 296.423 316.814 C 310.509 281.082 308.583 240.172 327.517 205.984 C 330.814 199.774 333.466 194.758 341.275 194.414 C 362.385 195.071 365.799 220.965 375.373 235.266 C 377.912 239.626 376.885 240.661 381.67 239.345 C 389.17 237.29 392.588 232.782 401.303 233.501 C 426.85 238.071 442.393 261.489 467.877 267.317 C 498.193 275.919 529.873 280.333 561.072 284.786 C 670.432 284.134 784.292 279.587 888.962 315.673 C 903.447 301.97 909.458 284.353 916.845 265.275 C 925.158 243.674 935.251 222.803 947.021 202.873 L 947.017 202.873 C 954.798 189.768 965.283 168.592 982.103 166.225 C 999.939 163.71 1011.857 179.46 1009.65 195.987 C 1006.818 217.182 999.123 255.233 995.619 276.319 C 994.931 280.514 990.97 283.35 986.779 282.663 C 982.584 281.971 979.744 278.01 980.435 273.819 L 980.431 273.827 C 982.111 263.471 988.947 227.459 990.462 218.268 C 991.771 210.327 998.322 190.795 992.322 184.362 C 979.033 170.131 958.107 214.369 953.631 222.592 C 938.287 253.303 922.381 284.749 919.045 319.272 C 911.482 368.542 900.482 495.394 904.178 526.652 C 904.178 526.652 920.686 458.339 961.17 439.398 C 963.283 418.328 965.732 395.679 968.435 372.64 C 968.588 370.616 969.556 368.741 971.123 367.452 C 972.685 366.159 974.709 365.565 976.724 365.8 C 978.74 366.038 980.568 367.085 981.791 368.706 C 983.014 370.323 983.525 372.37 983.201 374.374 C 973.63 454.124 967.904 534.073 966.021 614.214 C 994.279 530.124 1031.06 445.328 1093.271 380.504 C 1105.681 367.777 1120.103 353.695 1136.4 345.91 Z M 911.041 606.109 C 903.417 621.35 894.865 636.107 885.427 650.298 L 885.423 650.294 C 836.794 715.784 842.829 801.981 913.72 848.434 C 927.517 841.895 940.338 834.055 955.197 829.43 C 946.747 705.832 947.923 581.763 958.72 458.345 C 933.091 487.578 928.579 518.272 926.181 555.563 C 923.884 590.184 926.974 625.203 925.505 659.973 C 925.368 667.973 913.571 667.867 913.157 659.973 C 912.216 642.018 911.552 624.076 911.041 606.109 Z M 745.228 549.805 C 746.587 661.225 733.861 779.705 787.521 881.825 C 768.294 796.955 767.361 708.929 764.197 622.335 C 762.099 554.575 761.208 487.145 770.392 419.575 C 763.962 420.149 757.525 420.524 751.099 420.981 C 748.048 463.86 745.962 506.824 745.22 549.801 Z M 251.614 385.113 C 247.606 414.813 254.438 557.149 257.168 609.833 C 260.036 639.915 295.954 638.86 310.434 616.977 C 320.133 601.454 324.063 584.169 340.672 574.11 C 354.863 565.517 375.481 564.083 386.383 550.712 C 397.465 537.11 393.399 516.239 400.543 500.704 C 407.199 486.236 419.468 480.345 434.898 480.013 C 445.187 479.79 457.304 482.408 464.386 472.955 C 468.84 467.01 470.199 458.65 472.984 451.869 C 480.055 434.326 496.062 424.931 513.121 418.58 C 492.519 416.669 472 414.283 451.566 411.415 C 441.726 410.036 445.937 395.122 455.679 396.489 C 480.917 399.982 506.238 402.712 531.636 404.669 C 535.262 404.939 538.89 404.228 542.144 402.607 C 545.398 400.986 548.152 398.517 550.117 395.458 C 562.91 375.544 539.668 361.88 523.922 355.532 C 506.109 348.348 486.578 338.415 479.66 322.907 C 477.156 317.454 473.015 312.911 467.816 309.911 C 462.612 306.911 456.609 305.607 450.632 306.169 L 450.632 306.173 C 417.012 309.068 366.508 315.736 333.012 323.142 C 300.172 331.923 256.848 341.923 251.61 385.111 Z M 532.869 1014.335 C 544.889 989.952 553.174 956.377 553.17 908.315 C 501.444 944.172 468.401 881.389 460.506 837.182 C 451.319 900.292 433.268 967.702 387.19 1014.112 C 435.749 1014.167 484.311 1014.241 532.87 1014.331 Z M 560.005 877.016 C 575.15 789.156 574.173 565.526 572.646 428.956 C 552.225 451.866 503.576 436.382 494.916 468.999 C 478.604 530.459 421.166 494.538 419.514 552.061 C 419.002 572.557 407.889 585.85 387.561 593.069 C 380.737 672.459 366.303 751.057 349.104 828.819 C 347.065 838.05 331.615 836.045 332.522 826.577 C 338.451 763.037 345.205 699.457 346.647 635.617 C 340.108 659.433 316.936 671.734 291.557 676.687 C 290.58 792.937 280.67 919.653 206.248 1013.907 L 361.508 1014.09 C 455.367 943.86 443.66 772.99 448.363 672.01 C 448.711 638.95 468.093 454.829 531.195 499.11 C 554.898 515.739 552.98 565.294 554.328 582.286 C 559.187 646.566 556.062 711.192 552.406 775.446 C 551.465 790.692 554.215 812.63 540.574 822.989 C 528.574 832.103 509.074 830.005 503.164 816.083 C 478.461 757.853 485.269 661.376 492.582 621.743 C 493.953 614.302 505.12 614.063 504.437 621.743 C 502.426 645.913 493.82 845.268 533.957 807.073 C 537.078 800.706 535.855 789.394 536.277 782.339 C 567.726 423.881 473.992 460.521 463.996 689.941 C 463.898 741.341 465.515 793.226 478.82 843.171 C 487.136 888.952 526.023 931.925 560.011 877.011 Z M 749.805 1014.712 C 778.762 1014.771 807.719 1014.822 836.672 1014.872 C 768.94 938.942 735.846 839.242 732.792 738.442 C 727.538 633.212 727.085 527.272 734.737 422.072 C 727.666 422.494 720.596 422.865 713.518 423.186 C 709.463 505.826 709.51 588.971 701.174 671.326 C 700.307 678.587 689.955 678.939 689.592 671.326 C 687.4 625.422 690.311 578.996 691.443 533.086 C 692.279 496.686 693.959 460.311 695.108 423.916 C 659.739 425.111 624.38 425.013 589.028 423.623 C 594.739 596.393 589.156 770.563 586.887 1014.433 L 731.907 1014.671 C 697.446 939.381 677.219 853.599 685.86 770.591 C 686.746 762.634 698.594 762.208 698.594 770.591 C 697.735 854.731 711.18 939.201 749.801 1014.701 Z M 939.26 1014.979 C 936.78 989.479 936.96 936.893 936.96 936.893 C 906.935 935.796 848.162 934.882 825.99 915.081 C 817.881 905.796 822.681 892.257 829.865 883.921 C 840.146 871.991 866.369 863.905 881.49 860.03 C 856.166 842.69 831.587 814.139 828.115 783.389 C 817.349 688.104 888.396 645.628 886.283 609.569 C 883.998 513.739 890.802 417.121 903.822 322.219 C 891.456 334.726 876.297 344.113 859.591 349.605 C 851.018 401.114 850.209 452.825 844.151 504.582 C 843.42 511.781 832.498 512.094 832.678 504.582 C 833.396 454.484 836.943 404.71 842.365 354.882 C 815.06 365.659 822.72 407.319 788.025 416.409 C 772.33 526.109 779.279 637.859 785.111 748.109 C 795.921 856.679 790.721 934.802 905.421 1014.939 Z M 1064.453 902.854 C 1039.715 900.858 1017.574 917.608 997.457 930.241 C 992.059 933.921 977.805 940.781 978.715 948.12 C 984.175 992.226 1090.277 943.148 1110.715 946.085 C 1128.805 948.679 1140.285 911.363 1064.461 902.839 Z M 1014.211 848.668 C 951.786 828.933 941.794 858.441 889.161 872.121 C 873.059 875.632 846.391 880.851 838.981 898.519 C 836.485 904.464 838.051 905.163 843.09 907.48 C 877.602 923.304 937.2 917.245 947.43 914.069 L 947.43 914.046 C 952.368 912.784 956.805 910.046 960.149 906.194 L 960.145 906.194 C 966.934 897.601 968.379 888.874 978.625 882.913 C 988.211 877.335 999.5 876.382 1009.363 871.612 C 1020.551 866.202 1022.609 855.3 1014.211 848.667 Z M 1119.199 712.63 C 1167.336 740.94 1161.566 801.017 1149.293 847.56 C 1147.106 855.853 1135.145 856.607 1133.731 847.384 C 1131.653 832.978 1128.063 818.833 1123.02 805.181 C 1103.379 747.884 1068.317 765.045 1042.395 806.4 C 1026.817 823.68 1024.352 743.618 1029.071 723.22 C 1034.993 691.525 1099.114 698.083 1119.2 712.63 Z M 980.61 330.39 C 969.942 330.343 969.938 314.117 980.61 314.07 C 991.278 314.117 991.278 330.343 980.61 330.39 Z M 928.211 693.19 C 927.473 699.604 917.503 699.491 916.871 693.069 C 913.917 685.776 925.265 681.155 928.187 688.51 C 928.89 689.987 928.901 691.702 928.21 693.19 Z M 411.33 391.092 C 421.678 391.139 421.678 406.873 411.33 406.92 C 400.978 406.877 400.978 391.139 411.33 391.092 Z M 697.519 708.53 C 700.156 710.194 701.477 713.327 700.828 716.377 L 700.828 716.373 C 700.598 722.233 693.563 725.991 689.016 721.811 C 682.422 716.573 689.36 703.928 697.52 708.53 Z"/>
</svg>