<!-- Generated by IcoMoon.io -->
<svg version="1.1" xmlns="http://www.w3.org/2000/svg" width="32" height="32" viewBox="0 0 32 32">
<path d="M19.654 26.387c-0.078 0.107-0.138 0.188-0.233 0.318-0.075-0.346 0.21-0.603 0.081-0.899-0.177 0.020-0.164 0.263-0.341 0.286-0.098-0.102 0.013-0.196 0.022-0.29 0.028-0.271 0.017-0.286-0.261-0.193 0.012-0.148 0.029-0.288 0.034-0.43 0.003-0.081 0.018-0.187-0.069-0.226-0.1-0.045-0.135 0.068-0.189 0.124-0.104 0.109-0.185 0.244-0.388 0.313 0.081-0.312 0.339-0.511 0.313-0.813-0.010-0.118 0.038-0.268-0.049-0.346-0.121-0.107-0.173 0.128-0.295 0.112-0.168-0.195 0.192-0.708-0.299-0.658-0.134-1.257-0.585-2.389-1.225-3.473 0.116 0.397 0.010 0.726-0.266 1.1-0.037-0.466-0.23-0.807-0.539-1.154 0.017 0.456 0.368 0.775 0.295 1.203-0.236-0.294-0.36-0.684-0.78-0.766-0.020 0.135 0.163 0.269 0.082 0.447-0.158-0.021-0.138-0.219-0.29-0.266-0.041 0.163 0.113 0.333-0.037 0.565-0.19-0.496-0.547-0.809-0.832-1.204-0.124 0.25 0.053 0.456 0.041 0.696-0.201-0.058-0.208-0.259-0.344-0.393-0.060 0.187 0.025 0.417-0.168 0.541-0.137-0.090-0.064-0.23-0.109-0.334-0.080 0.059 0.006 0.194-0.129 0.25-0.148-0.156-0.081-0.41-0.239-0.579-0.069 0.162 0.019 0.356-0.119 0.53-0.179-0.28-0.127-0.627-0.392-0.905-0.081 0.403-0.179 0.757-0.217 1.115-0.049 0.466-0.102 0.934-0.245 1.375-0.344 1.059-0.457 2.171-0.798 3.233-0.169 0.528-0.081 1.138-0.114 1.709-0.008 0.143-0.005 0.297-0.060 0.424-0.331 0.778-0.67 1.551-1.021 2.32-0.089 0.196-0.279 0.29-0.488 0.329-0.804 0.151-1.61 0.141-2.418 0.042-0.094-0.011-0.191-0.033-0.283-0.024-0.358 0.034-0.642-0.046-0.751-0.439-0.111-0.403 0.065-0.868 0.408-1.060 0.211-0.118 0.444-0.177 0.682-0.204 0.364-0.042 0.571-0.23 0.668-0.591 0.138-0.511 0.217-1.008 0.152-1.55-0.117-0.983-0.254-1.969-0.201-2.965 0.020-0.361-0.032-0.714-0.128-1.063-0.095-0.346-0.181-0.695-0.194-1.056-0.019-0.61-0.215-1.172-0.469-1.716-0.198-0.422-0.216-0.921-0.5-1.297-0.265-0.351-0.465-0.745-0.739-1.084-0.178-0.221-0.082-0.391 0.046-0.536 0.16-0.18 0.156 0.069 0.227 0.128 0.133-0.243 0.181-0.541 0.506-0.71-0.029 0.253-0.204 0.429-0.156 0.651 0.146 0.065 0.172-0.166 0.316-0.11 0.093 0.154-0.108 0.308-0.004 0.497 0.302-0.155 0.504-0.403 0.663-0.693 0.057-0.104-0.002-0.183-0.079-0.249-0.090-0.076-0.143-0.013-0.21 0.047-0.194 0.175-0.227 0.012-0.211-0.127 0.026-0.249 0.077-0.496 0.132-0.74 0.034-0.148 0.027-0.311-0.137-0.299-0.297 0.023-0.177-0.12-0.135-0.25 0.075-0.227-0.058-0.26-0.224-0.215-0.184 0.050-0.363 0.121-0.536 0.2-0.257 0.117-0.17 0.342-0.133 0.532 0.077 0.405 0.065 0.795-0.105 1.211-0.353-0.449-0.459-0.93-0.565-1.438-0.061-0.291-0.028-0.555-0.052-0.83-0.011-0.121 0.080-0.357-0.236-0.32-0.048 0.006-0.313-0.3-0.219-0.586 0.069-0.213 0.032-0.23-0.202-0.191-0.057 0.009-0.080 0.002-0.108-0.047-0.225-0.407-0.208-0.576 0.107-0.966 0.075-0.093 0.156-0.181 0.241-0.265 0.057-0.057 0.123-0.15 0.208-0.101 0.091 0.053 0.028 0.148 0.006 0.226-0.022 0.075-0.093 0.147-0.008 0.266 0.291-0.201 0.691-0.201 0.915-0.537 0.12-0.179 0.333-0.255 0.496-0.389 0.496-0.409 0.751-0.875 0.583-1.513-0.141 0.145-0.191 0.349-0.251 0.537-0.176 0.004-0.103-0.178-0.218-0.227-0.080 0.156-0.158 0.311-0.258 0.504-0.191-0.309-0.053-0.616-0.139-0.923-0.155 0.477-0.186 0.959-0.379 1.396-0.039 0.087-0.065 0.181-0.11 0.264-0.185 0.339-0.412 0.388-0.691 0.105-0.15-0.151-0.194 0.069-0.293 0.034-0.067-0.109 0.022-0.239-0.063-0.346-0.065-0.083-0.104-0.184-0.156-0.283-0.079 0.073 0.008 0.212-0.115 0.278-0.020-0.010-0.071-0.020-0.074-0.038-0.070-0.396-0.269-0.776-0.086-1.201 0.12-0.277 0.095-0.579 0.043-0.877-0.177-0.004-0.215 0.134-0.297 0.208-0.5 0.441-1.168 0.344-1.608-0.154-0.366-0.413-0.412-0.977-0.769-1.384-0.097-0.109-0.069-0.269 0.038-0.397s0.196-0.272 0.306-0.397c0.307-0.351 0.418-0.738 0.267-1.194-0.12-0.36-0.004-0.669 0.274-0.901 0.3-0.252 0.501-0.618 0.883-0.774 0.109-0.044 0.102-0.116 0.055-0.201-0.053-0.093-0.104-0.189-0.163-0.279-0.13-0.201-0.316-0.384-0.383-0.602-0.144-0.47-0.436-0.729-0.87-0.943-0.311-0.154-0.451-0.523-0.446-0.916 0.136 0.189 0.315 0.257 0.529 0.3 0.29 0.057 0.45 0.306 0.593 0.539 0.452 0.742 1.245 1.013 1.939 1.412 0.222 0.128 0.44-0.004 0.55-0.251 0.102-0.229 0.192-0.464 0.301-0.689 0.105-0.216 0.224-0.447 0.449-0.544 0.306-0.133 0.363-0.357 0.311-0.638-0.104-0.552 0.291-0.783 0.647-1.041 0.109-0.079 0.154 0.005 0.172 0.093 0.055 0.252 0.055 0.489-0.132 0.705-0.455 0.529-0.455 0.584-0.105 1.181 0.134 0.228 0.248 0.466 0.306 0.724 0.138 0.606 0.437 1.134 0.775 1.644 0.033 0.049 0.060 0.119 0.107 0.14 0.53 0.234 0.611 0.751 0.8 1.213 0.244 0.595 0.527 1.176 0.796 1.76 0.259 0.559 0.848 0.854 1.42 1.076 0.31 0.12 0.59 0.264 0.797 0.521 1.107 1.366 0.782 1.073 2.447 1.292 1.349 0.177 2.689 0.402 4.029 0.628 0.411 0.069 0.83 0.088 1.243 0.148 1.126 0.165 2.154 0.607 3.142 1.153 0.166 0.091 0.321 0.21 0.457 0.342 0.813 0.789 1.473 1.698 1.996 2.698 0.35 0.667 0.452 1.411 0.455 2.159 0.008 2.046 0.006 4.091-0.004 6.136-0.007 1.358 0.313 2.629 0.953 3.821 0.248 0.463 0.576 0.851 1.084 1.048 0.234 0.090 0.427 0.088 0.591-0.151 0.219-0.317 0.542-0.454 0.928-0.449 0.227 0.003 0.453 0.004 0.68 0.001 0.345-0.004 0.499 0.173 0.489 0.52-0.004 0.135 0.041 0.278 0.091 0.406 0.144 0.368-0.076 0.85-0.452 0.966-0.028 0.008-0.435 0.405-0.442 0.438-0.013 0.058-0.057 0.072-0.104 0.077-0.587 0.066-1.163 0.332-1.758 0.165-0.281-0.078-0.595-0.113-0.82-0.373-0.177-0.205-0.489-0.183-0.718-0.389-0.183-0.164-0.402-0.276-0.494-0.529-0.102-0.039-0.17 0.24-0.24 0.072-0.133-0.319-0.525-0.396-0.614-0.757-0.083-0.342-0.3-0.648-0.272-1.067-0.24 0.152-0.175 0.414-0.347 0.614-0.276-0.599 0.001-1.267-0.37-1.807-0.071 0.064-0.067 0.189-0.094 0.293-0.243 0.943-0.595 1.844-1.040 2.706-0.64 1.24-1.203 1.453-2.674 1.331-0.548-0.045-0.792-0.652-0.471-1.105 0.205-0.288 0.482-0.536 0.824-0.6 0.67-0.128 0.821-0.701 1.069-1.176 0.119-0.23 0.102-0.531 0.087-0.835-0.292 0.398-0.607 0.781-0.871 1.197-0.377 0.592-0.868 1.077-1.364 1.561-0.287 0.281-0.702 0.279-1.048 0.432-0.476 0.21-0.978 0.304-1.501 0.267-0.503-0.036-0.798-0.26-0.854-0.66-0.054-0.378 0.188-0.736 0.63-0.888 0.201-0.069 0.42-0.13 0.628-0.125 0.553 0.016 0.92-0.271 1.231-0.677 0.276-0.361 0.55-0.722 0.827-1.081 0.208-0.265 0.287-0.562 0.229-0.928zM6.46 14.251c0.030 0.027 0.060 0.053 0.090 0.079 0.173-0.154 0.348-0.308 0.52-0.464 0.494-0.45 1.009-0.874 1.465-1.364 0.317-0.341 0.44-0.72 0.228-1.211-0.055 0.105-0.104 0.171-0.128 0.245-0.145 0.441-0.285 0.857-0.703 1.163-0.144 0.106-0.399 0.128-0.466 0.36-0.020 0.069-0.075 0.172-0.176 0.145-0.11-0.029 0.028-0.161-0.083-0.26-0.118 0.534-0.568 0.843-0.748 1.306zM6.414 3.345c0.011-0.096 0.093-0.194-0.025-0.266-0.020-0.012-0.066-0.003-0.088 0.013-0.241 0.178-0.464 0.354-0.419 0.717 0.032 0.252-0.022 0.515-0.261 0.667-0.285 0.181-0.141 0.291 0.047 0.4 0.158 0.092 0.844-0.116 0.928-0.276 0.035-0.067 0.002-0.139-0.050-0.15-0.351-0.078-0.203-0.324-0.215-0.54-0.013-0.205 0.159-0.37 0.082-0.565zM8.145 17.625c0.024-0.151 0.227-0.237 0.070-0.376-0.154-0.135-0.255-0.038-0.359 0.073-0.024 0.025-0.055 0.053-0.087 0.060-0.397 0.1-0.436 0.163-0.319 0.544 0.12-0.037 0.175-0.201 0.361-0.177-0.125 0.279 0.011 0.462 0.161 0.684 0.12 0.177 0.167 0.055 0.238 0.023 0.125-0.057 0.116-0.155 0.013-0.217-0.214-0.13-0.096-0.21 0.026-0.309 0.107-0.087 0.234-0.156 0.307-0.306-0.132 0.001-0.248 0.001-0.412 0.001zM7.168 11.888c-0.287 0.345-0.503 0.694-0.6 1.18-0.076 0.374-0.523 0.685-0.606 1.136 0.604-0.663 1.029-1.423 1.205-2.316zM7.572 10.156c0.214-0.138-0.197-0.571 0.29-0.605 0.004 0 0.005-0.067 0.004-0.102-0.005-0.349-0.262-0.713-0.587-0.835 0.001 0.539 0.135 1.054 0.293 1.543zM5.17 7.286c0.562-0.019 0.741 0.121 0.878 0.627 0.044 0.161 0.057 0.349 0.264 0.426 0.099-0.243 0.001-0.445-0.053-0.644-0.173-0.654-0.42-0.754-1.090-0.409z"></path>
</svg>
