<?xml version="1.0" encoding="utf-8"?>
<svg xmlns="http://www.w3.org/2000/svg" viewBox="0.2009 0.6128 160.9958 170.5036" width="150pt" height="150pt">
  <path fill="#000000" d="M 100.167 141.209 C 99.749 141.781 99.431 142.21 98.923 142.902 C 98.523 141.059 100.044 139.688 99.353 138.111 C 98.411 138.22 98.478 139.513 97.537 139.636 C 97.014 139.094 97.604 138.593 97.656 138.093 C 97.806 136.65 97.746 136.568 96.263 137.065 C 96.326 136.277 96.416 135.529 96.442 134.775 C 96.457 134.345 96.539 133.777 96.076 133.571 C 95.541 133.332 95.355 133.934 95.067 134.233 C 94.514 134.812 94.08 135.533 93.001 135.903 C 93.434 134.24 94.805 133.183 94.671 131.572 C 94.618 130.941 94.876 130.145 94.409 129.73 C 93.763 129.159 93.486 130.414 92.836 130.328 C 91.943 129.289 93.86 126.554 91.244 126.82 C 90.531 120.12 88.128 114.093 84.717 108.316 C 85.333 110.431 84.769 112.184 83.301 114.175 C 83.103 111.69 82.075 109.875 80.427 108.025 C 80.517 110.454 82.389 112.154 82 114.433 C 80.741 112.864 80.08 110.786 77.842 110.349 C 77.737 111.07 78.708 111.78 78.279 112.729 C 77.438 112.617 77.543 111.56 76.736 111.313 C 76.515 112.184 77.337 113.088 76.537 114.325 C 75.525 111.683 73.623 110.017 72.106 107.909 C 71.445 109.243 72.39 110.338 72.323 111.619 C 71.254 111.309 71.217 110.241 70.488 109.523 C 70.17 110.517 70.619 111.743 69.591 112.404 C 68.859 111.922 69.251 111.179 69.008 110.626 C 68.582 110.939 69.042 111.661 68.321 111.956 C 67.532 111.126 67.891 109.774 67.047 108.869 C 66.681 109.733 67.148 110.764 66.412 111.694 C 65.459 110.203 65.735 108.354 64.323 106.87 C 63.893 109.019 63.37 110.902 63.168 112.811 C 62.907 115.296 62.626 117.788 61.864 120.135 C 60.033 125.777 59.428 131.703 57.612 137.36 C 56.712 140.174 57.182 143.421 57.007 146.466 C 56.966 147.228 56.981 148.05 56.689 148.723 C 54.926 152.867 53.117 156.988 51.249 161.083 C 50.774 162.126 49.762 162.627 48.648 162.836 C 44.366 163.639 40.069 163.587 35.765 163.06 C 35.264 163 34.748 162.884 34.259 162.933 C 32.35 163.116 30.836 162.686 30.257 160.594 C 29.667 158.449 30.605 155.968 32.432 154.944 C 33.556 154.313 34.797 153.999 36.064 153.857 C 38.003 153.633 39.105 152.631 39.621 150.707 C 40.357 147.987 40.775 145.334 40.432 142.446 C 39.808 137.207 39.079 131.957 39.359 126.648 C 39.464 124.727 39.191 122.844 38.675 120.983 C 38.167 119.141 37.708 117.28 37.64 115.356 C 37.54 112.105 36.493 109.112 35.141 106.213 C 34.087 103.963 33.99 101.307 32.477 99.304 C 31.064 97.436 29.999 95.336 28.542 93.527 C 27.593 92.347 28.105 91.442 28.789 90.673 C 29.644 89.716 29.622 91.043 29.999 91.353 C 30.709 90.06 30.963 88.468 32.697 87.568 C 32.54 88.916 31.61 89.854 31.868 91.039 C 32.645 91.386 32.787 90.157 33.553 90.452 C 34.05 91.274 32.977 92.092 33.534 93.101 C 35.144 92.276 36.221 90.953 37.069 89.406 C 37.375 88.853 37.061 88.431 36.65 88.079 C 36.168 87.672 35.888 88.008 35.533 88.33 C 34.502 89.26 34.326 88.393 34.408 87.653 C 34.547 86.327 34.819 85.012 35.111 83.711 C 35.29 82.923 35.257 82.052 34.382 82.116 C 32.802 82.236 33.441 81.477 33.665 80.786 C 34.065 79.575 33.355 79.403 32.473 79.639 C 31.494 79.904 30.541 80.285 29.618 80.707 C 28.247 81.331 28.714 82.527 28.908 83.543 C 29.319 85.703 29.252 87.781 28.348 89.993 C 26.468 87.601 25.904 85.038 25.336 82.329 C 25.011 80.778 25.187 79.37 25.06 77.905 C 25 77.259 25.486 76.003 23.804 76.201 C 23.546 76.231 22.138 74.602 22.635 73.077 C 23.004 71.941 22.806 71.852 21.558 72.061 C 21.256 72.11 21.129 72.072 20.983 71.811 C 19.784 69.64 19.873 68.743 21.551 66.662 C 21.951 66.169 22.384 65.698 22.833 65.249 C 23.139 64.943 23.49 64.45 23.942 64.711 C 24.428 64.992 24.092 65.5 23.972 65.914 C 23.853 66.314 23.479 66.695 23.927 67.331 C 25.478 66.262 27.608 66.262 28.804 64.472 C 29.446 63.516 30.578 63.116 31.445 62.398 C 34.087 60.22 35.447 57.735 34.55 54.335 C 33.796 55.105 33.53 56.196 33.213 57.197 C 32.275 57.22 32.663 56.248 32.054 55.987 C 31.628 56.82 31.21 57.642 30.679 58.673 C 29.659 57.025 30.395 55.389 29.939 53.756 C 29.114 56.3 28.949 58.867 27.922 61.195 C 27.713 61.659 27.578 62.159 27.335 62.6 C 26.349 64.405 25.142 64.666 23.655 63.157 C 22.855 62.35 22.623 63.527 22.093 63.34 C 21.738 62.757 22.209 62.066 21.757 61.494 C 21.413 61.053 21.203 60.511 20.927 59.985 C 20.505 60.373 20.972 61.117 20.314 61.464 C 20.21 61.412 19.937 61.36 19.918 61.259 C 19.544 59.148 18.483 57.122 19.462 54.862 C 20.101 53.386 19.967 51.776 19.69 50.187 C 18.749 50.165 18.547 50.901 18.106 51.293 C 15.442 53.644 11.885 53.124 9.538 50.475 C 7.588 48.274 7.341 45.267 5.443 43.099 C 4.927 42.516 5.077 41.668 5.645 40.984 C 6.216 40.301 6.691 39.535 7.274 38.866 C 8.91 36.998 9.501 34.935 8.697 32.506 C 8.058 30.586 8.675 28.942 10.158 27.705 C 11.758 26.363 12.83 24.413 14.863 23.58 C 15.446 23.344 15.408 22.963 15.154 22.511 C 14.87 22.014 14.601 21.506 14.287 21.024 C 13.596 19.952 12.606 18.98 12.247 17.814 C 11.481 15.311 9.923 13.928 7.614 12.789 C 5.955 11.97 5.211 10.001 5.237 7.909 C 5.962 8.918 6.915 9.28 8.058 9.508 C 9.605 9.814 10.457 11.141 11.216 12.381 C 13.626 16.335 17.852 17.777 21.547 19.907 C 22.732 20.587 23.894 19.888 24.477 18.569 C 25.018 17.347 25.5 16.096 26.083 14.896 C 26.644 13.745 27.279 12.512 28.475 11.997 C 30.104 11.29 30.407 10.095 30.13 8.6 C 29.577 5.659 31.681 4.426 33.579 3.051 C 34.158 2.629 34.397 3.078 34.498 3.545 C 34.793 4.886 34.789 6.149 33.796 7.3 C 31.371 10.117 31.371 10.412 33.235 13.592 C 33.949 14.806 34.558 16.077 34.868 17.452 C 35.604 20.68 37.196 23.494 38.997 26.214 C 39.172 26.476 39.318 26.849 39.568 26.961 C 42.39 28.206 42.823 30.963 43.832 33.422 C 45.132 36.59 46.638 39.688 48.073 42.797 C 49.452 45.778 52.594 47.348 55.639 48.528 C 57.291 49.167 58.782 49.937 59.888 51.305 C 65.784 58.583 64.054 57.022 72.928 58.191 C 80.117 59.136 87.254 60.332 94.394 61.535 C 96.584 61.901 98.818 62.002 101.015 62.324 C 107.016 63.202 112.494 65.559 117.755 68.467 C 118.637 68.952 119.466 69.587 120.191 70.29 C 124.522 74.493 128.038 79.336 130.825 84.664 C 132.69 88.218 133.235 92.182 133.25 96.165 C 133.291 107.065 133.284 117.964 133.228 128.86 C 133.19 136.097 134.894 142.868 138.306 149.22 C 139.628 151.686 141.377 153.752 144.082 154.802 C 145.327 155.284 146.358 155.269 147.232 153.999 C 148.398 152.31 150.121 151.578 152.176 151.608 C 153.386 151.626 154.589 151.63 155.8 151.615 C 157.638 151.596 158.46 152.538 158.404 154.384 C 158.382 155.101 158.625 155.863 158.89 156.547 C 159.656 158.509 158.487 161.076 156.484 161.692 C 156.334 161.737 154.167 163.852 154.13 164.028 C 154.059 164.338 153.827 164.413 153.577 164.439 C 150.449 164.79 147.378 166.21 144.209 165.317 C 142.711 164.902 141.041 164.715 139.841 163.329 C 138.9 162.238 137.233 162.354 136.015 161.255 C 135.04 160.381 133.874 159.783 133.381 158.438 C 132.836 158.232 132.477 159.716 132.103 158.823 C 131.393 157.126 129.305 156.712 128.834 154.787 C 128.393 152.964 127.234 151.335 127.384 149.104 C 126.106 149.915 126.45 151.309 125.534 152.374 C 124.066 149.183 125.538 145.622 123.565 142.745 C 123.188 143.085 123.21 143.753 123.065 144.306 C 121.768 149.328 119.896 154.133 117.523 158.726 C 114.112 165.332 111.111 166.468 103.276 165.818 C 100.358 165.578 99.057 162.346 100.769 159.933 C 101.86 158.397 103.336 157.078 105.159 156.734 C 108.728 156.054 109.535 153.001 110.854 150.468 C 111.489 149.242 111.395 147.639 111.317 146.018 C 109.763 148.14 108.085 150.18 106.676 152.396 C 104.666 155.55 102.05 158.135 99.409 160.713 C 97.88 162.208 95.668 162.201 93.823 163.015 C 91.289 164.132 88.614 164.637 85.826 164.439 C 83.147 164.248 81.574 163.056 81.275 160.923 C 80.988 158.909 82.277 156.999 84.631 156.192 C 85.703 155.826 86.869 155.497 87.979 155.527 C 90.923 155.613 92.881 154.081 94.54 151.918 C 96.012 149.997 97.469 148.069 98.949 146.156 C 100.055 144.744 100.477 143.163 100.167 141.209 Z M 29.868 76.545 C 30.029 76.687 30.19 76.825 30.35 76.967 C 31.273 76.145 32.204 75.327 33.119 74.497 C 35.75 72.102 38.496 69.838 40.925 67.23 C 42.614 65.414 43.271 63.396 42.139 60.78 C 41.848 61.337 41.586 61.692 41.459 62.088 C 40.686 64.439 39.938 66.654 37.715 68.283 C 36.949 68.848 35.589 68.963 35.23 70.2 C 35.122 70.566 34.831 71.116 34.292 70.974 C 33.706 70.817 34.442 70.118 33.852 69.587 C 33.224 72.435 30.825 74.079 29.868 76.545 Z M 29.622 18.438 C 29.682 17.926 30.115 17.403 29.491 17.022 C 29.386 16.959 29.14 17.004 29.024 17.089 C 27.739 18.035 26.554 18.973 26.793 20.908 C 26.961 22.253 26.677 23.651 25.403 24.462 C 23.886 25.426 24.652 26.012 25.654 26.595 C 26.494 27.085 30.149 25.979 30.597 25.123 C 30.784 24.768 30.608 24.383 30.332 24.323 C 28.464 23.909 29.252 22.597 29.185 21.446 C 29.117 20.355 30.033 19.477 29.622 18.438 Z M 38.844 94.525 C 38.971 93.718 40.054 93.262 39.217 92.522 C 38.399 91.801 37.857 92.32 37.304 92.911 C 37.177 93.045 37.013 93.191 36.841 93.232 C 34.726 93.766 34.52 94.103 35.141 96.132 C 35.78 95.937 36.075 95.063 37.065 95.19 C 36.4 96.677 37.121 97.652 37.924 98.833 C 38.563 99.775 38.814 99.128 39.191 98.956 C 39.856 98.654 39.808 98.131 39.262 97.798 C 38.122 97.103 38.75 96.677 39.4 96.15 C 39.968 95.687 40.648 95.321 41.037 94.521 C 40.334 94.525 39.718 94.525 38.844 94.525 Z M 33.639 63.953 C 32.11 65.791 30.96 67.652 30.444 70.241 C 30.04 72.233 27.656 73.892 27.216 76.294 C 30.433 72.76 32.701 68.713 33.639 63.953 Z M 35.795 54.724 C 36.934 53.991 34.745 51.682 37.338 51.499 C 37.36 51.499 37.364 51.144 37.36 50.953 C 37.334 49.093 35.963 47.153 34.233 46.503 C 34.24 49.373 34.95 52.119 35.795 54.724 Z M 22.993 39.434 C 25.986 39.333 26.943 40.08 27.671 42.774 C 27.903 43.634 27.974 44.631 29.08 45.046 C 29.607 43.753 29.084 42.677 28.8 41.612 C 27.877 38.13 26.562 37.592 22.993 39.434 Z M 22.993 39.434" fill-opacity="1" fill-rule="nonzero"/>
</svg>