<?xml version="1.0" encoding="utf-8"?>
<svg version="1.1" viewBox="0 0 1200 1200" xmlns="http://www.w3.org/2000/svg" width="150pt" height="150pt">
  <path d="M 891.8 381.09 C 908.441 392.809 923.206 406.403 936.097 421.637 L 618.287 421.637 C 631.178 406.403 646.178 392.575 662.584 380.856 C 693.285 359.059 729.144 346.403 766.644 344.528 C 765.941 339.137 764.769 333.981 763.597 328.59 C 761.488 319.449 758.675 310.778 755.16 302.34 L 716.957 290.152 C 698.207 284.058 681.566 271.871 670.082 255.933 L 669.378 254.996 C 651.801 229.918 647.581 197.809 658.598 169.215 L 661.644 161.48 C 663.051 157.965 666.332 155.621 670.082 155.386 L 678.285 155.152 C 708.988 154.215 738.051 168.746 755.863 193.824 L 756.332 194.527 C 767.816 210.699 773.676 230.386 773.207 250.074 L 772.035 294.371 C 772.972 296.48 773.91 298.59 774.613 300.699 C 777.426 289.214 781.176 277.964 785.629 267.183 L 781.176 236.949 C 779.066 222.418 781.879 207.184 788.91 194.293 L 789.379 193.59 C 800.629 173.433 820.785 160.074 843.754 158.199 L 849.613 157.73 C 853.363 157.262 857.113 159.371 858.754 162.652 L 861.566 168.043 C 872.113 188.434 871.879 212.809 860.863 232.965 L 860.629 233.668 C 853.598 246.558 842.113 257.105 828.754 263.199 L 802.973 274.918 C 793.833 297.184 788.442 320.856 787.27 344.762 C 825.003 346.637 860.862 359.059 891.8 381.09 Z M 1074.378 443.668 C 1076.019 445.543 1076.956 448.356 1076.722 450.934 C 1070.16 519.844 1039.222 585 990.238 633.984 C 933.518 690.703 858.288 721.875 778.128 721.875 C 697.968 721.875 622.737 690.703 566.018 633.984 C 516.8 584.994 486.096 519.84 479.534 450.934 C 479.299 448.121 480.003 445.543 481.878 443.668 C 483.753 441.793 486.331 440.621 488.909 440.621 L 1067.349 440.621 C 1070.161 440.621 1072.505 441.793 1074.38 443.668 Z M 964.929 529.92 C 970.319 527.576 972.194 522.42 971.491 517.967 C 971.491 515.857 970.788 511.639 966.804 508.357 C 963.522 505.779 960.944 502.732 959.069 499.217 C 956.96 495.467 955.788 491.482 955.319 487.498 C 955.085 485.857 955.085 484.216 955.085 482.576 C 955.085 474.138 957.429 465.935 961.647 458.904 L 915.944 458.904 L 918.991 464.998 C 922.741 472.732 921.335 482.107 915.241 488.201 C 911.491 491.951 906.57 494.06 901.179 494.06 C 896.023 494.06 890.867 491.951 887.117 488.201 C 886.883 487.966 886.414 487.498 885.711 487.966 C 880.32 490.779 874.226 492.185 868.367 492.185 C 858.054 492.185 848.211 488.201 840.945 480.935 C 836.258 476.248 833.679 469.92 833.679 463.357 C 833.679 461.951 833.914 460.544 834.148 459.138 L 796.414 459.138 C 796.649 460.076 797.117 460.779 797.352 461.716 C 798.524 465.467 799.227 469.451 799.227 473.435 C 799.227 490.778 788.212 506.013 771.571 511.169 C 759.149 515.153 751.18 527.34 752.587 540.231 L 756.102 573.747 C 756.571 576.325 757.274 578.669 758.68 580.544 C 759.852 582.654 761.962 584.294 764.071 585.466 C 769.931 588.513 775.087 592.263 779.54 596.95 C 790.556 608.2 796.415 622.966 796.415 638.669 C 796.415 641.716 796.181 644.997 795.712 648.279 C 794.54 656.014 790.087 663.044 783.993 667.498 L 768.29 678.748 C 764.306 681.56 759.384 683.201 754.462 683.201 C 743.916 683.201 734.775 676.638 731.728 666.56 C 730.556 663.279 730.087 659.997 730.087 656.482 C 730.087 650.857 731.259 645.466 733.837 640.779 C 734.072 640.544 734.072 640.076 734.072 639.841 C 734.072 639.372 733.837 638.669 733.134 638.201 C 723.29 633.044 714.852 625.31 708.759 615.935 C 702.666 606.56 699.15 595.779 698.447 584.529 C 697.744 570.935 687.665 559.919 674.306 557.81 L 660.009 555.466 C 649.696 553.825 639.384 557.809 632.821 565.778 L 617.821 584.294 C 613.368 589.919 607.274 593.903 600.477 596.013 C 589.462 599.528 577.744 597.418 568.368 590.622 C 558.993 583.826 553.602 573.044 553.602 561.56 L 553.602 560.388 C 553.602 555.7 552.196 551.247 549.383 547.497 C 539.07 532.966 525.711 520.544 510.945 510.7 C 524.773 551.948 547.976 589.682 578.914 620.62 C 631.884 673.823 702.43 703.12 777.664 703.12 C 824.306 703.12 869.306 691.87 909.384 670.542 C 909.384 670.308 909.384 670.074 909.15 669.839 C 908.916 669.605 908.681 669.37 907.978 669.37 C 903.524 669.839 899.071 670.542 895.79 670.777 C 894.852 671.011 894.149 671.011 893.446 671.011 C 888.524 671.011 883.602 669.136 879.852 666.089 C 874.462 661.636 871.415 655.073 871.883 648.042 C 872.118 641.011 875.868 634.683 881.727 630.933 L 891.337 624.839 C 894.149 622.964 896.493 620.855 898.602 618.277 C 899.774 616.871 900.008 615.23 900.008 614.292 C 900.008 612.417 899.071 610.542 897.665 609.371 C 892.508 605.152 889.227 599.058 888.524 592.496 L 885.008 561.09 C 884.774 560.152 884.774 559.215 884.774 557.808 C 884.774 550.777 887.118 543.746 891.571 538.355 C 899.071 529.215 910.79 524.996 922.274 527.574 L 943.836 532.262 C 951.102 533.668 958.602 532.965 964.93 529.918 Z M 1044.405 156.799 C 1190.894 303.279 1190.894 541.639 1044.874 687.889 C 971.744 761.247 875.418 797.809 779.324 797.809 C 738.306 797.809 697.524 791.012 658.384 777.887 C 619.244 764.762 581.744 744.84 547.994 718.356 L 516.588 749.762 C 516.12 778.356 501.588 805.309 476.979 821.012 L 471.354 824.528 C 471.823 828.512 472.057 832.497 471.354 836.247 C 496.198 832.497 521.979 839.762 541.198 857.106 L 567.214 880.544 C 569.792 882.888 570.964 886.403 570.027 889.919 C 569.089 893.434 566.277 896.013 562.761 896.716 L 528.542 903.513 C 522.917 904.684 517.526 905.153 511.901 905.153 C 484.948 905.153 458.698 892.263 442.526 869.997 L 436.667 861.794 C 430.105 861.091 423.776 858.278 418.386 855.466 C 422.37 868.591 423.308 882.653 420.73 896.247 L 414.401 930.7 C 413.698 934.216 411.355 937.028 407.839 937.966 C 407.136 938.434 406.198 938.434 405.261 938.434 C 402.683 938.434 400.339 937.262 398.464 935.387 L 374.558 909.84 C 371.511 906.559 368.933 903.278 366.589 899.762 L 338.698 927.653 C 342.448 937.028 345.495 947.107 345.495 956.95 C 369.87 942.888 400.339 941.482 426.12 954.138 L 457.526 969.607 C 460.573 971.247 462.682 974.529 462.682 978.044 C 462.682 981.56 460.807 984.841 457.526 986.482 L 426.354 1002.42 C 414.167 1008.748 400.807 1011.795 387.448 1011.795 C 368.698 1011.795 349.948 1005.702 334.479 993.514 L 328.151 988.592 C 320.651 993.279 311.744 994.92 302.604 994.92 C 297.448 994.92 292.057 994.451 286.901 993.514 C 298.619 1010.623 303.775 1031.951 300.963 1053.045 L 296.275 1087.733 C 295.807 1091.248 293.228 1094.295 289.947 1095.467 C 289.01 1095.702 287.838 1095.936 286.9 1095.936 C 284.557 1095.936 282.213 1094.999 280.338 1093.124 L 255.494 1068.515 C 245.181 1058.437 237.916 1046.25 233.697 1032.656 L 139.947 1126.406 C 142.056 1134.141 144.634 1142.343 147.212 1150.547 C 148.853 1155.469 146.041 1160.625 141.119 1162.266 C 140.181 1162.5 139.244 1162.734 138.306 1162.734 C 134.322 1162.734 130.572 1160.156 129.4 1156.172 C 127.994 1151.015 126.353 1146.328 124.947 1141.406 L 110.65 1155.703 C 108.54 1157.812 102.681 1162.5 94.009 1162.5 C 87.68 1162.5 81.821 1160.156 77.368 1155.703 L 44.321 1123.359 C 39.868 1118.906 37.524 1113.047 37.524 1106.718 C 37.524 1100.389 39.868 1094.53 44.321 1090.077 L 79.477 1054.921 C 55.337 1048.827 34.243 1032.421 22.993 1009.452 L 7.524 978.046 C 5.883 974.764 6.352 971.014 8.461 968.202 C 10.571 965.39 14.086 963.983 17.602 964.686 L 52.055 971.249 C 72.446 975.234 90.493 986.249 103.149 1002.187 C 104.79 986.25 109.243 973.359 116.04 963.984 L 112.524 959.062 C 92.837 932.109 90.493 895.78 106.665 866.718 L 123.54 836.015 C 125.415 832.734 128.696 830.859 132.212 831.093 C 135.727 831.327 139.009 833.437 140.415 836.718 L 154.712 868.593 C 165.493 892.734 164.321 920.39 152.368 943.359 C 164.789 941.718 177.446 943.359 188.227 945.468 L 223.383 910.312 C 219.164 908.437 215.18 906.094 211.195 903.516 L 182.133 883.828 C 179.321 881.953 177.68 878.437 178.149 874.921 C 178.618 871.406 181.196 868.359 184.477 867.187 L 217.055 855.468 C 236.508 848.671 257.601 849.374 276.117 856.64 L 283.148 849.843 C 281.976 845.39 281.273 841.171 281.039 837.187 L 274.476 833.906 C 244.944 818.906 226.429 787.499 227.835 754.218 L 229.241 719.296 C 229.476 715.78 231.585 712.499 234.866 711.093 C 238.148 709.452 241.898 709.921 244.71 712.265 L 271.898 734.296 C 289.242 748.358 300.024 768.515 302.836 790.077 C 316.43 780.233 331.899 778.592 348.774 784.686 L 365.649 767.811 C 352.055 765.233 338.93 759.374 327.68 750.233 L 300.492 728.202 C 297.68 725.858 296.508 722.343 297.211 718.827 C 297.914 715.311 300.492 712.733 304.008 711.796 L 337.992 703.358 C 360.023 697.733 382.992 701.483 401.976 712.499 C 400.101 707.108 398.46 701.483 397.054 695.858 L 391.429 690.467 C 370.569 671.014 363.069 640.78 372.21 613.592 L 381.585 585.701 C 382.522 582.186 385.569 579.842 389.085 579.373 C 392.601 578.904 395.882 580.311 397.991 583.358 L 414.632 607.733 C 430.804 631.171 431.741 662.343 417.21 686.952 L 414.867 690.936 C 416.742 697.968 418.851 704.999 421.429 712.03 L 481.429 652.03 C 367.52 504.85 378.07 291.8 513.07 156.8 C 659.56 10.32 897.92 10.32 1044.4 156.8 Z M 312.68 806.489 C 303.774 813.521 299.555 822.193 300.024 833.677 L 333.305 800.396 C 325.805 799.459 319.008 801.568 312.68 806.49 Z M 111.821 1128.049 C 114.164 1125.705 116.508 1123.127 119.321 1120.784 C 112.758 1097.112 108.305 1075.784 105.493 1056.8 L 103.618 1056.8 L 57.68 1102.738 C 56.508 1103.909 56.273 1105.316 56.273 1106.019 C 56.273 1106.722 56.508 1108.128 57.68 1109.3 L 90.727 1142.581 C 91.898 1143.753 93.07 1143.987 94.008 1143.987 C 95.883 1143.987 97.055 1142.815 97.289 1142.581 Z M 121.195 1010.629 C 125.882 1003.129 131.741 996.333 139.007 990.473 L 163.851 969.848 L 172.054 961.645 C 156.117 960.005 144.632 962.348 136.429 968.911 C 127.523 976.177 122.367 990.473 121.195 1010.629 Z M 316.19 923.681 C 313.378 917.353 310.097 911.024 306.581 904.228 L 303.768 905.868 C 290.174 914.072 274.706 918.056 259.472 918.056 C 254.081 918.056 248.69 917.353 243.534 916.416 L 197.831 962.119 L 181.425 978.76 L 182.831 1009.932 C 184.471 1043.212 166.19 1074.854 136.659 1090.087 L 131.268 1092.9 C 132.206 1097.118 133.143 1101.337 134.315 1105.556 Z M 322.053 969.38 C 327.444 963.755 328.147 955.552 323.694 942.427 L 291.35 974.771 L 291.35 975.005 C 306.35 977.349 316.194 975.474 322.053 969.38 Z M 330.252 909.619 L 442.052 797.819 C 438.537 790.319 434.318 782.584 430.099 774.381 C 427.521 769.459 424.943 764.537 422.365 759.381 L 419.318 760.787 C 410.412 765.24 400.802 767.818 391.193 768.99 L 304.709 855.474 C 309.163 868.364 316.428 882.193 323.225 895.552 L 330.256 909.614 Z M 449.316 840.005 C 452.363 836.958 454.939 831.8 449.784 816.568 L 427.05 839.302 C 440.175 846.333 445.566 843.521 449.316 840.005 Z M 532.988 706.647 C 526.191 700.787 519.629 694.693 513.066 688.131 C 506.269 681.1 499.706 674.068 493.378 666.803 L 429.159 730.787 C 434.549 742.506 440.643 754.225 446.268 765.006 C 449.55 748.834 457.518 733.834 469.706 721.881 L 494.55 697.272 C 497.129 694.928 500.879 693.99 504.16 695.162 C 507.675 696.1 510.019 699.147 510.488 702.662 L 513.769 725.865 Z M 1003.615 647.349 C 1127.829 522.899 1127.829 320.869 1003.849 196.649 C 941.739 134.54 860.179 103.368 778.379 103.368 C 696.579 103.368 615.018 134.54 552.909 196.649 C 428.689 320.869 428.689 523.129 552.909 647.349 C 677.129 771.569 879.389 771.569 1003.609 647.349 Z"/>
</svg>