<!-- Generated by IcoMoon.io -->
<svg version="1.1" xmlns="http://www.w3.org/2000/svg" width="32" height="32" viewBox="0 0 32 32">
<path d="M23.781 10.162c0.444 0.313 0.837 0.675 1.181 1.081h-8.475c0.344-0.406 0.744-0.775 1.181-1.088 0.819-0.581 1.775-0.919 2.775-0.969-0.019-0.144-0.050-0.281-0.081-0.425-0.056-0.244-0.131-0.475-0.225-0.7l-1.019-0.325c-0.5-0.162-0.944-0.487-1.25-0.912l-0.019-0.025c-0.469-0.669-0.581-1.525-0.287-2.288l0.081-0.206c0.038-0.094 0.125-0.156 0.225-0.162l0.219-0.006c0.819-0.025 1.594 0.362 2.069 1.031l0.012 0.019c0.306 0.431 0.462 0.956 0.45 1.481l-0.031 1.181c0.025 0.056 0.050 0.112 0.069 0.169 0.075-0.306 0.175-0.606 0.294-0.894l-0.119-0.806c-0.056-0.388 0.019-0.794 0.206-1.138l0.012-0.019c0.3-0.538 0.837-0.894 1.45-0.944l0.156-0.013c0.1-0.012 0.2 0.044 0.244 0.131l0.075 0.144c0.281 0.544 0.275 1.194-0.019 1.731l-0.006 0.019c-0.188 0.344-0.494 0.625-0.85 0.787l-0.688 0.313c-0.244 0.594-0.387 1.225-0.419 1.862 1.006 0.050 1.962 0.381 2.787 0.969zM28.65 11.831c0.044 0.050 0.069 0.125 0.063 0.194-0.175 1.838-1 3.575-2.306 4.881-1.513 1.512-3.519 2.344-5.656 2.344s-4.144-0.831-5.656-2.344c-1.312-1.306-2.131-3.044-2.306-4.881-0.006-0.075 0.012-0.144 0.063-0.194s0.119-0.081 0.188-0.081h15.425c0.075 0 0.137 0.031 0.188 0.081zM25.731 14.131c0.144-0.063 0.194-0.2 0.175-0.319 0-0.056-0.019-0.169-0.125-0.256-0.088-0.069-0.156-0.15-0.206-0.244-0.056-0.1-0.087-0.206-0.1-0.313-0.006-0.044-0.006-0.088-0.006-0.131 0-0.225 0.063-0.444 0.175-0.631h-1.219l0.081 0.162c0.1 0.206 0.063 0.456-0.1 0.619-0.1 0.1-0.231 0.156-0.375 0.156-0.137 0-0.275-0.056-0.375-0.156-0.006-0.006-0.019-0.019-0.038-0.006-0.144 0.075-0.306 0.113-0.462 0.113-0.275 0-0.538-0.106-0.731-0.3-0.125-0.125-0.194-0.294-0.194-0.469 0-0.037 0.006-0.075 0.012-0.113h-1.006c0.006 0.025 0.019 0.044 0.025 0.069 0.031 0.1 0.050 0.206 0.050 0.313 0 0.462-0.294 0.869-0.738 1.006-0.331 0.106-0.544 0.431-0.506 0.775l0.094 0.894c0.012 0.069 0.031 0.131 0.069 0.181 0.031 0.056 0.088 0.1 0.144 0.131 0.156 0.081 0.294 0.181 0.413 0.306 0.294 0.3 0.45 0.694 0.45 1.112 0 0.081-0.006 0.169-0.019 0.256-0.031 0.206-0.15 0.394-0.313 0.512l-0.419 0.3c-0.106 0.075-0.238 0.119-0.369 0.119-0.281 0-0.525-0.175-0.606-0.444-0.031-0.087-0.044-0.175-0.044-0.269 0-0.15 0.031-0.294 0.1-0.419 0.006-0.006 0.006-0.019 0.006-0.025 0-0.012-0.006-0.031-0.025-0.044-0.262-0.138-0.488-0.344-0.65-0.594s-0.256-0.537-0.275-0.838c-0.019-0.363-0.288-0.656-0.644-0.713l-0.381-0.063c-0.275-0.044-0.55 0.062-0.725 0.275l-0.4 0.494c-0.119 0.15-0.281 0.256-0.462 0.313-0.294 0.094-0.606 0.037-0.856-0.144s-0.394-0.469-0.394-0.775v-0.031c0-0.125-0.037-0.244-0.113-0.344-0.275-0.387-0.631-0.719-1.025-0.981 0.369 1.1 0.988 2.106 1.813 2.931 1.413 1.419 3.294 2.2 5.3 2.2 1.244 0 2.444-0.3 3.513-0.869 0-0.006 0-0.012-0.006-0.019s-0.012-0.012-0.031-0.012c-0.119 0.012-0.238 0.031-0.325 0.038-0.025 0.006-0.044 0.006-0.063 0.006-0.131 0-0.262-0.050-0.363-0.131-0.144-0.119-0.225-0.294-0.212-0.481 0.006-0.188 0.106-0.356 0.262-0.456l0.256-0.163c0.075-0.050 0.137-0.106 0.194-0.175 0.031-0.038 0.038-0.081 0.038-0.106 0-0.050-0.025-0.1-0.062-0.131-0.138-0.113-0.225-0.275-0.244-0.45l-0.094-0.838c-0.006-0.025-0.006-0.050-0.006-0.088 0-0.188 0.063-0.375 0.181-0.519 0.2-0.244 0.512-0.356 0.819-0.287l0.575 0.125c0.194 0.037 0.394 0.019 0.563-0.063zM27.851 4.181c3.906 3.906 3.906 10.262 0.012 14.162-1.95 1.956-4.519 2.931-7.081 2.931-1.094 0-2.181-0.181-3.225-0.531s-2.044-0.881-2.944-1.587l-0.838 0.837c-0.012 0.762-0.4 1.481-1.056 1.9l-0.15 0.094c0.012 0.106 0.019 0.212 0 0.313 0.662-0.1 1.35 0.094 1.863 0.556l0.694 0.625c0.069 0.063 0.1 0.156 0.075 0.25s-0.1 0.163-0.194 0.181l-0.912 0.181c-0.15 0.031-0.294 0.044-0.444 0.044-0.719 0-1.419-0.344-1.85-0.938l-0.156-0.219c-0.175-0.019-0.344-0.094-0.488-0.169 0.106 0.35 0.131 0.725 0.063 1.087l-0.169 0.919c-0.019 0.094-0.081 0.169-0.175 0.194-0.019 0.012-0.044 0.012-0.069 0.012-0.069 0-0.131-0.031-0.181-0.081l-0.637-0.681c-0.081-0.087-0.15-0.175-0.213-0.269l-0.744 0.744c0.1 0.25 0.181 0.519 0.181 0.781 0.65-0.375 1.463-0.412 2.15-0.075l0.838 0.413c0.081 0.044 0.137 0.131 0.137 0.225s-0.050 0.181-0.137 0.225l-0.831 0.425c-0.325 0.169-0.681 0.25-1.037 0.25-0.5 0-1-0.162-1.412-0.488l-0.169-0.131c-0.2 0.125-0.438 0.169-0.681 0.169-0.138 0-0.281-0.012-0.419-0.038 0.312 0.456 0.45 1.025 0.375 1.587l-0.125 0.925c-0.012 0.094-0.081 0.175-0.169 0.206-0.025 0.006-0.056 0.012-0.081 0.012-0.062 0-0.125-0.025-0.175-0.075l-0.662-0.656c-0.275-0.269-0.469-0.594-0.581-0.956l-2.5 2.5c0.056 0.206 0.125 0.425 0.194 0.644 0.044 0.131-0.031 0.269-0.162 0.313-0.025 0.006-0.050 0.012-0.075 0.012-0.106 0-0.206-0.069-0.237-0.175-0.038-0.138-0.081-0.262-0.119-0.394l-0.381 0.381c-0.056 0.056-0.212 0.181-0.444 0.181-0.169 0-0.325-0.063-0.444-0.181l-0.881-0.863c-0.119-0.119-0.181-0.275-0.181-0.444s0.063-0.325 0.181-0.444l0.938-0.938c-0.644-0.163-1.206-0.6-1.506-1.212l-0.412-0.837c-0.044-0.088-0.031-0.188 0.025-0.262s0.15-0.113 0.244-0.094l0.919 0.175c0.544 0.106 1.025 0.4 1.363 0.825 0.044-0.425 0.163-0.769 0.344-1.019l-0.094-0.131c-0.525-0.719-0.587-1.688-0.156-2.462l0.45-0.819c0.050-0.087 0.138-0.137 0.231-0.131s0.181 0.063 0.219 0.15l0.381 0.85c0.287 0.644 0.256 1.381-0.063 1.994 0.331-0.044 0.669 0 0.956 0.056l0.938-0.938c-0.112-0.050-0.219-0.112-0.325-0.181l-0.775-0.525c-0.075-0.050-0.119-0.144-0.106-0.238s0.081-0.175 0.169-0.206l0.869-0.313c0.519-0.181 1.081-0.163 1.575 0.031l0.188-0.181c-0.031-0.119-0.050-0.231-0.056-0.337l-0.175-0.087c-0.788-0.4-1.281-1.238-1.244-2.125l0.037-0.931c0.006-0.094 0.063-0.181 0.15-0.219 0.088-0.044 0.188-0.031 0.263 0.031l0.725 0.587c0.463 0.375 0.75 0.913 0.825 1.488 0.363-0.262 0.775-0.306 1.225-0.144l0.45-0.45c-0.363-0.069-0.713-0.225-1.012-0.469l-0.725-0.587c-0.075-0.063-0.106-0.156-0.088-0.25s0.088-0.163 0.181-0.188l0.906-0.225c0.588-0.15 1.2-0.050 1.706 0.244-0.050-0.144-0.094-0.294-0.131-0.444l-0.15-0.144c-0.556-0.519-0.756-1.325-0.512-2.050l0.25-0.744c0.025-0.094 0.106-0.156 0.2-0.169s0.181 0.025 0.238 0.106l0.444 0.65c0.431 0.625 0.456 1.456 0.069 2.113l-0.062 0.106c0.050 0.188 0.106 0.375 0.175 0.563l1.6-1.6c-3.038-3.925-2.756-9.606 0.844-13.206 3.906-3.906 10.263-3.906 14.169 0zM8.338 21.506c-0.238 0.188-0.35 0.419-0.338 0.725l0.887-0.887c-0.2-0.025-0.381 0.031-0.55 0.163zM2.982 30.081c0.062-0.063 0.125-0.131 0.2-0.194-0.175-0.631-0.294-1.2-0.369-1.706h-0.050l-1.225 1.225c-0.031 0.031-0.038 0.069-0.038 0.087s0.006 0.056 0.038 0.087l0.881 0.887c0.031 0.031 0.062 0.038 0.087 0.038 0.050 0 0.081-0.031 0.087-0.038zM3.232 26.95c0.125-0.2 0.281-0.381 0.475-0.538l0.662-0.55 0.219-0.219c-0.425-0.044-0.731 0.019-0.95 0.194-0.237 0.194-0.375 0.575-0.406 1.112zM8.432 24.631c-0.075-0.169-0.162-0.338-0.256-0.519l-0.075 0.044c-0.362 0.219-0.775 0.325-1.181 0.325-0.144 0-0.288-0.019-0.425-0.044l-1.219 1.219-0.438 0.444 0.037 0.831c0.044 0.887-0.444 1.731-1.231 2.137l-0.144 0.075c0.025 0.112 0.050 0.225 0.081 0.337zM8.588 25.85c0.144-0.15 0.162-0.369 0.044-0.719l-0.862 0.863v0.006c0.4 0.063 0.663 0.012 0.819-0.15zM8.807 24.256l2.981-2.981c-0.094-0.2-0.206-0.406-0.319-0.625-0.069-0.131-0.137-0.262-0.206-0.4l-0.081 0.038c-0.238 0.119-0.494 0.188-0.75 0.219l-2.306 2.306c0.119 0.344 0.313 0.712 0.494 1.069l0.188 0.375zM11.982 22.4c0.081-0.081 0.15-0.219 0.012-0.625l-0.606 0.606c0.35 0.188 0.494 0.113 0.594 0.019zM14.213 18.844c-0.181-0.156-0.356-0.319-0.531-0.494-0.181-0.188-0.356-0.375-0.525-0.569l-1.713 1.706c0.144 0.313 0.306 0.625 0.456 0.913 0.088-0.431 0.3-0.831 0.625-1.15l0.662-0.656c0.069-0.063 0.169-0.088 0.256-0.056 0.094 0.025 0.156 0.106 0.169 0.2l0.088 0.619zM26.763 17.263c3.312-3.319 3.312-8.706 0.006-12.019-1.656-1.656-3.831-2.487-6.013-2.487s-4.356 0.831-6.013 2.487c-3.313 3.313-3.313 8.706 0 12.019s8.706 3.313 12.019 0z"></path>
</svg>
