<?xml version="1.0" encoding="UTF-8" standalone="no"?>
<!DOCTYPE svg PUBLIC "-//W3C//DTD SVG 1.1//EN" "http://www.w3.org/Graphics/SVG/1.1/DTD/svg11.dtd">
<svg width="100%" height="100%" viewBox="0 0 150 150" version="1.1" xmlns="http://www.w3.org/2000/svg" xmlns:xlink="http://www.w3.org/1999/xlink" xml:space="preserve" xmlns:serif="http://www.serif.com/" style="fill-rule:evenodd;clip-rule:evenodd;stroke-linejoin:round;stroke-miterlimit:2;">
    <g transform="matrix(0.162778,0,0,0.162778,-10.4685,-24.3547)">
        <path d="M187.046,500.91L177.059,500.91C177.059,490.656 181.388,485.032 184.715,480.402C187.713,476.434 190.375,473.126 190.375,466.179C190.375,459.232 188.045,455.925 185.049,451.625C181.72,447.324 177.391,441.701 177.391,431.117C177.391,420.863 181.72,415.239 185.049,410.939C188.045,406.971 190.708,403.662 190.708,396.715L200.694,396.715C200.694,406.969 196.366,412.594 193.038,416.892C190.041,420.861 187.378,424.169 187.378,431.117C187.378,438.065 189.708,441.371 193.038,445.34C196.366,449.641 200.694,455.264 200.694,465.848C200.694,476.432 196.366,481.726 193.038,486.356C189.709,490.656 187.046,493.633 187.046,500.91ZM246.631,498.926L236.646,498.926C236.646,488.672 240.974,483.048 244.303,478.418C247.298,474.449 249.961,471.142 249.961,464.194C249.961,457.246 247.631,453.94 244.303,449.97C240.974,445.669 236.646,440.047 236.646,429.463C236.646,419.209 240.974,413.584 244.303,409.285C247.298,405.317 249.961,402.009 249.961,395.062L259.947,395.062C259.947,405.316 255.62,410.938 252.291,415.239C249.294,419.208 246.631,422.515 246.631,429.463C246.631,436.411 248.961,439.717 252.291,443.686C255.62,447.987 259.947,453.61 259.947,464.194C259.947,474.448 255.62,480.072 252.291,484.701C248.963,488.671 246.631,491.979 246.631,498.926ZM124.13,498.926L114.144,498.926C114.144,488.672 118.473,483.048 121.801,478.418C124.797,474.449 127.46,471.142 127.46,464.194C127.46,457.246 125.13,453.94 121.801,449.97C118.473,445.669 114.144,440.047 114.144,429.463C114.144,419.209 118.473,413.584 121.801,409.285C124.797,405.317 127.46,402.009 127.46,395.062L137.446,395.062C137.446,405.316 133.118,410.938 129.789,415.239C126.793,419.208 124.13,422.515 124.13,429.463C124.13,436.411 126.46,439.717 129.789,443.686C133.118,447.987 137.446,453.61 137.446,464.194C137.446,474.448 133.118,480.072 129.789,484.701C126.46,488.671 124.13,491.979 124.13,498.926ZM236.646,272.013C236.646,295.03 217.867,313.691 194.703,313.691C171.539,313.691 152.759,295.03 152.759,272.013C152.759,248.996 171.537,230.335 194.703,230.335C217.869,230.335 236.646,248.994 236.646,272.013ZM200.694,321.96L200.694,370.584C200.709,373.878 198.018,376.552 194.703,376.538C191.387,376.553 188.696,373.878 188.71,370.584L188.71,322.29C190.709,322.621 192.705,322.621 194.703,322.621C196.701,322.621 198.696,322.29 200.694,321.96ZM155.088,303.438C157.419,306.415 160.081,309.06 163.411,311.706L129.124,345.776C128.025,346.887 126.526,347.513 124.964,347.513C123.401,347.513 121.902,346.887 120.803,345.776C118.473,343.461 118.473,339.821 120.803,337.506L155.088,303.438ZM268.603,337.506C270.931,339.821 270.931,343.461 268.603,345.776C267.504,346.888 266.005,347.515 264.442,347.515C262.878,347.515 261.379,346.888 260.28,345.776L225.993,311.706C229.09,309.291 231.884,306.514 234.315,303.437L268.603,337.506ZM299.561,272.344C299.576,275.638 296.884,278.313 293.569,278.298L244.968,278.298C245.301,276.313 245.301,274.329 245.301,272.344C245.301,270.359 245.301,268.374 244.968,266.389L293.569,266.389C296.898,266.389 299.229,269.036 299.561,272.344ZM144.437,277.967L95.836,277.967C92.521,277.981 89.83,275.307 89.844,272.013C89.83,268.719 92.521,266.044 95.836,266.058L144.437,266.058C144.104,268.043 144.104,270.029 144.104,272.013C144.104,273.997 144.104,275.981 144.437,277.967ZM225.993,232.651L260.28,198.581C261.379,197.469 262.878,196.842 264.442,196.842C266.005,196.842 267.504,197.469 268.603,198.581C270.931,200.896 270.931,204.534 268.603,206.85L234.315,240.919C231.986,237.943 229.323,234.966 225.993,232.651ZM120.803,206.85C119.685,205.766 119.053,204.273 119.053,202.716C119.053,201.158 119.685,199.665 120.803,198.581C121.902,197.47 123.401,196.844 124.964,196.844C126.526,196.844 128.025,197.47 129.124,198.581L163.411,232.651C160.317,235.065 157.523,237.84 155.089,240.919L120.803,206.85ZM188.71,222.396L188.71,174.103C188.697,170.808 191.387,168.136 194.703,168.149C198.018,168.136 200.709,170.808 200.694,174.103L200.694,222.066C198.696,221.734 196.699,221.734 194.703,221.734C192.707,221.734 190.708,222.066 188.71,222.396Z" style="fill-rule:nonzero;"/>
    </g>
    <g transform="matrix(0.212331,0,0,0.212331,-99.0432,-43.2568)">
        <path d="M1079.32,371.028C1084.39,371.028 1088.53,379.688 1088.53,384.739C1088.53,389.79 1084.39,393.879 1079.32,393.879C1074.23,393.878 1070.13,389.786 1070.13,384.739C1070.13,379.692 1074.23,371.028 1079.32,371.028ZM1060.92,423.581C1060.92,428.629 1056.81,432.72 1051.71,432.721C1046.63,432.721 1042.52,428.632 1042.52,423.581C1042.52,418.53 1046.63,409.871 1051.71,409.871C1056.81,409.871 1060.92,418.531 1060.92,423.581ZM1005.8,423.581C1005.8,428.63 1001.69,432.722 996.605,432.721C991.52,432.72 987.4,428.63 987.409,423.581C987.409,418.531 991.523,409.871 996.605,409.871C1001.69,409.871 1005.8,418.531 1005.8,423.581ZM1033.32,391.594C1033.32,396.642 1029.2,400.734 1024.13,400.735C1019.04,400.737 1014.92,396.644 1014.93,391.594C1014.93,386.545 1019.04,377.885 1024.13,377.885C1029.19,377.885 1033.32,386.545 1033.32,391.594ZM978.282,384.739C978.282,389.787 974.158,393.88 969.077,393.879C964.005,393.881 959.881,389.787 959.881,384.739C959.881,379.691 963.995,371.028 969.077,371.028C974.159,371.028 978.282,379.688 978.282,384.739ZM1065.91,259.86C1068.11,259.186 1070.38,258.844 1072.65,258.844C1085.27,258.844 1095.48,268.977 1095.48,281.477C1095.46,284.041 1095.01,286.584 1094.13,288.995C1102.2,295.421 1106.9,305.142 1106.91,315.421C1106.91,324.425 1103.3,333.063 1096.88,339.427C1090.43,345.806 1081.72,349.385 1072.65,349.378C1066.07,349.367 1059.62,347.479 1054.08,343.938C1036.88,358.731 1011.36,358.731 994.166,343.938C988.617,347.485 982.167,349.373 975.581,349.378C966.502,349.383 957.791,345.803 951.373,339.427C944.946,333.068 941.335,324.43 941.333,315.421C941.36,305.153 946.069,295.449 954.132,289.03C953.241,286.608 952.777,284.054 952.748,281.477C952.748,268.977 962.969,258.844 975.581,258.844C977.898,258.845 980.202,259.195 982.415,259.883C991.126,245.247 1006.97,236.243 1024.13,236.209C1041.31,236.209 1057.18,245.201 1065.91,259.86ZM932.286,227.069C932.287,232.118 928.168,236.21 923.087,236.209C918.006,236.208 913.888,232.118 913.889,227.069C913.89,222.02 918.006,217.927 923.087,217.929C928.168,217.931 932.287,222.021 932.286,227.069ZM899.292,268.132C896.791,267.695 895.122,265.326 895.563,262.842C896.175,259.378 900.33,257.871 903.043,260.129C904.302,261.176 904.903,262.812 904.62,264.42C904.178,266.906 901.794,268.567 899.292,268.132ZM1148.46,245.35C1149.68,245.35 1150.86,245.841 1151.72,246.698C1152.59,247.555 1153.08,248.709 1153.08,249.92C1153.08,251.142 1152.59,252.297 1151.72,253.154C1150.85,254.01 1149.68,254.491 1148.46,254.49L1143.84,254.49C1141.31,254.492 1139.23,252.444 1139.24,249.92C1139.24,248.709 1139.73,247.555 1140.59,246.698C1141.45,245.841 1142.62,245.353 1143.84,245.35L1148.46,245.35ZM1125.46,245.35C1126.68,245.35 1127.86,245.841 1128.71,246.698C1129.59,247.555 1130.07,248.709 1130.07,249.92C1130.07,252.444 1128.02,254.492 1125.46,254.49L1120.87,254.49C1119.64,254.491 1118.47,254.01 1117.62,253.154C1116.74,252.3 1116.27,251.135 1116.27,249.92C1116.27,248.705 1116.74,247.555 1117.62,246.698C1118.47,245.838 1119.64,245.353 1120.87,245.35L1125.46,245.35ZM1137.92,255.838C1138.78,256.687 1139.27,257.849 1139.27,259.06L1139.27,263.631C1139.27,264.843 1138.79,266.006 1137.92,266.864C1137.07,267.72 1135.89,268.201 1134.68,268.201C1133.45,268.203 1132.29,267.722 1131.41,266.864C1130.56,266.006 1130.08,264.843 1130.08,263.631L1130.08,259.06C1130.08,257.853 1130.56,256.694 1131.41,255.838C1132.28,254.978 1133.46,254.493 1134.68,254.49C1135.89,254.49 1137.08,254.982 1137.92,255.838ZM1137.92,232.989C1138.78,233.838 1139.27,235 1139.27,236.212L1139.27,240.782C1139.28,243.306 1137.21,245.353 1134.68,245.352C1133.45,245.352 1132.29,244.872 1131.41,244.015C1130.56,243.158 1130.08,241.995 1130.08,240.782L1130.08,236.212C1130.08,235 1130.56,233.847 1131.41,232.989C1132.29,232.129 1133.45,231.644 1134.68,231.642C1135.89,231.642 1137.08,232.133 1137.92,232.989ZM1155.66,287.305C1156.67,287.999 1157.37,289.065 1157.57,290.263C1157.62,290.522 1157.64,290.785 1157.64,291.049C1157.64,293.266 1156.03,295.179 1153.84,295.553C1151.34,295.988 1148.95,294.333 1148.51,291.851C1148.31,290.657 1148.58,289.43 1149.27,288.435C1149.96,287.442 1151.03,286.764 1152.22,286.55C1153.42,286.338 1154.66,286.609 1155.66,287.305Z" style="fill-rule:nonzero;"/>
    </g>
    <g transform="matrix(0.129142,0,0,0.129142,-2.35218,-21.715)">
        <path d="M1178.65,993.514L1179.73,994.588L1179.73,1238.86C1180.79,1295.07 1141.66,1329.03 1097.76,1329.66L939.339,1329.43C983.083,1309.75 1012.08,1297.35 1026.24,1292.32C1028.03,1291.53 1029.8,1290.69 1031.55,1289.83L1022.21,1288.27L1015.38,1287.1L939.486,1265.16C931.77,1263.4 918.941,1262.48 901.148,1262.33C897.363,1260.96 892.694,1259.6 887.091,1258.18C878.735,1256.23 871.755,1254.71 865.956,1253.59C842.116,1262.72 819.899,1267.94 799.452,1269.12C795.913,1269.46 792.03,1269.65 787.9,1269.65C777.726,1269.65 765.734,1268.58 751.921,1266.53C748.481,1266.92 744.745,1267.12 740.813,1267.12L740.419,1267.12C737.028,1267.12 731.867,1266.62 724.985,1265.65L687.236,1258.42C664.627,1253.83 643.982,1249.09 625.206,1244.21C587.703,1234.49 557.868,1224.33 535.65,1213.73C524.541,1208.41 515.351,1202.99 508.076,1197.47C506.945,1195.86 506.602,1194.88 506.995,1194.54C514.711,1193.56 520.708,1190.73 524.985,1185.94C525.132,1185.89 525.279,1185.89 525.476,1185.89C526.705,1185.89 528.523,1186.38 530.833,1187.41L531.423,1187.41C532.161,1187.41 532.701,1187.31 533.094,1187.07L539.877,1176.96C541.057,1175.34 541.843,1174.51 542.138,1174.51C542.286,1174.37 542.581,1174.27 542.924,1174.27C544.203,1174.27 546.562,1175.25 550.003,1177.2C550.247,1177.24 550.493,1177.26 550.74,1177.25C551.231,1177.25 551.624,1177.15 552.018,1176.96L560.964,1163.96C561.16,1163.91 561.308,1163.87 561.505,1163.87C561.947,1163.87 562.291,1164.11 562.585,1164.55L566.321,1174.9C566.518,1175.25 566.715,1175.44 566.911,1175.44C567.107,1175.44 567.353,1175.3 567.6,1175C568.14,1173.83 568.189,1168.07 567.796,1157.71C571.728,1141.2 574.432,1127.09 575.759,1115.32L575.808,1110.97L587.31,1148.38C589.374,1154.73 590.898,1158.25 591.831,1158.93C592.039,1159.06 592.277,1159.12 592.52,1159.13C592.816,1159.13 593.061,1159.03 593.305,1158.83C596.55,1154.39 598.811,1151.95 600.04,1151.46C600.551,1151.23 601.104,1151.12 601.662,1151.12C601.958,1151.12 602.203,1151.17 602.498,1151.21C603.235,1151.31 604.759,1152 607.118,1153.27L607.414,1153.27C607.758,1153.27 608.101,1153.12 608.494,1152.92C613.017,1145.6 615.768,1141.98 616.801,1141.98C616.899,1141.98 616.998,1142.03 617.047,1142.08L625.796,1152C627.615,1135.88 629.287,1125.04 630.859,1119.42C635.283,1101.84 638.281,1092.75 640.002,1092.17L640.198,1092.17C640.837,1092.17 641.575,1092.75 642.458,1093.92C647.866,1109.99 651.946,1119.08 654.747,1121.23L663.3,1111.07C667.626,1111.56 672.541,1113.75 677.948,1117.61L684.091,1115.56C687.532,1117.76 689.794,1118.88 690.777,1118.88C690.924,1118.88 691.022,1118.88 691.12,1118.83C693.381,1104.82 696.183,1096.51 699.476,1093.83C702.573,1089.28 707.833,1085.67 715.304,1083.13C715.697,1083.03 716.09,1082.98 716.483,1082.98C720.514,1082.98 727.542,1087.62 737.57,1096.85C741.207,1091.92 743.419,1089.48 744.254,1089.48C744.353,1089.48 744.402,1089.48 744.451,1089.53C751.234,1092.26 755.559,1093.63 757.427,1093.63C757.623,1093.63 757.869,1093.58 758.017,1093.53C761.752,1084.3 764.603,1079.66 766.47,1079.66C766.676,1079.66 766.88,1079.71 767.061,1079.81C774.975,1091.72 779.841,1097.68 781.758,1097.68C781.94,1097.68 782.115,1097.61 782.25,1097.49C786.968,1080.83 791.048,1069.5 794.538,1063.4L807.613,1085.86C808.645,1087.57 809.923,1088.4 811.298,1088.4C811.545,1088.4 811.791,1088.4 811.987,1088.36C817.099,1060.56 820.589,1044.69 822.407,1040.74C824.767,1032.77 827.372,1028.33 830.173,1027.45L830.222,1027.45C831.304,1027.45 832.139,1028.33 832.729,1030.04L842.954,1059.44C847.033,1064.81 850.769,1067.5 854.16,1067.5C854.522,1067.49 854.884,1067.46 855.242,1067.4C854.16,1062.71 855.34,1043.42 858.83,1009.57C859.321,1006.5 860.108,1004.93 861.288,1004.93C861.484,1004.93 861.681,1004.93 861.877,1005.03L861.976,1005.03C863.499,1005.47 865.515,1007.47 867.923,1010.94C872.445,1018.85 878.736,1028.47 886.798,1039.81C890.829,1045.33 895.154,1050.26 899.774,1054.65C900.806,1055.63 902.232,1056.66 904.1,1057.73C909.26,1043.62 913.439,1025.84 916.535,1004.3C929.118,1011.48 938.31,1017.98 944.162,1023.84C944.404,1023.88 944.656,1023.93 944.898,1023.93C945.44,1023.93 945.827,1023.74 946.127,1023.35L950.202,1014.26C950.502,1013.92 950.889,1013.77 951.334,1013.77C951.683,1013.77 952.07,1013.87 952.515,1014.07C952.515,1014.02 952.515,1013.97 952.564,1013.97C953.009,1013.97 956.794,1018.9 963.869,1028.82C964.856,1029.84 965.931,1030.38 967.209,1030.48C968.535,1030.14 969.377,1029.16 969.667,1027.55C971.148,1018.42 973.006,1010.36 975.368,1003.42C976.152,1001.27 977.236,1000.2 978.659,1000.2C987.458,1008.26 992.82,1013.63 994.737,1016.41C997.931,1020.27 1000.34,1023.98 1002.02,1027.5C1002.55,1028.08 1003.19,1028.38 1003.78,1028.38C1004.05,1028.38 1004.32,1028.33 1004.57,1028.23C1006.49,1027.74 1007.76,1026.77 1008.5,1025.4C1010.37,1010.06 1014.2,999.953 1020,995.117L1039.22,1015.44C1039.57,1015.73 1039.87,1015.88 1040.2,1015.88C1040.6,1015.88 1041.05,1015.63 1041.47,1015.09C1044.18,1010.21 1045.62,1005.62 1045.76,1001.32C1042.12,1000.69 1040.6,993.896 1041.18,981.002L1051.74,957.411L1051.95,957.411C1053.09,957.411 1055.1,959.706 1058.05,964.298C1066.49,986.961 1073.09,999.952 1077.76,1003.27C1078.49,1004.01 1079.22,1004.35 1079.96,1004.35C1080.16,1004.35 1080.32,1004.35 1080.51,1004.3C1083.45,1001.86 1086.94,999.659 1090.92,997.804C1091.82,996.874 1092.12,995.995 1091.82,995.019C1088.66,992.626 1086.89,989.744 1086.4,986.423L1088.38,967.472C1089.94,959.854 1093.78,953.748 1099.88,949.205C1100.95,958.729 1109.81,972.258 1126.41,989.646L1126.08,969.572C1132.89,950.767 1135.86,938.41 1134.97,932.403C1135.89,928.691 1138.86,926.249 1143.67,925.028L1143.78,925.028C1143.91,924.93 1144.02,924.881 1144.15,924.881C1145.63,924.881 1149.42,929.961 1155.46,940.12C1158.87,951.012 1162.15,960.34 1165.39,967.96C1167.86,974.601 1171.84,981.586 1177.24,988.864C1177.79,990.572 1178.28,992.088 1178.66,993.503L1178.65,993.514ZM897.747,1294.7C904.136,1295.6 907.676,1297.5 908.264,1300.43C909.885,1305.37 899.86,1312.6 878.183,1322.2C874.005,1324.17 868.352,1326.57 861.225,1329.43L107.444,1329.43C46.998,1331.49 17.648,1300.31 18.214,1237.13L18.214,871.255C20.967,864.416 24.456,856.26 28.782,846.638L32.862,837.749C43.283,855.771 52.522,885.466 60.584,926.836C61.075,915.162 65.499,899.729 73.756,880.436C76.215,880.485 78.671,883.22 81.129,888.69C82.997,891.229 85.996,902.317 90.173,921.902L109.048,874.233C111.456,869.008 113.619,866.37 115.683,866.37C115.93,866.37 116.175,866.37 116.421,866.468C123.155,878.141 128.169,890.937 131.462,904.71C136.033,929.57 137.458,948.472 135.738,961.366L145.765,940.707C151.614,944.125 156.481,950.816 160.413,960.634L189.363,918.239C199.194,930.157 203.715,957.948 203.027,1001.56C203.273,1002 203.567,1002.25 203.913,1002.25C204.355,1002.25 204.944,1001.81 205.535,1000.98L215.659,980.317C216.102,979.73 216.691,979.438 217.282,979.438C218.019,979.438 218.855,979.877 219.837,980.708C233.894,1001.47 240.04,1019.34 238.319,1034.38C241.416,1019.29 245.151,1011.77 249.526,1011.77C250.067,1011.77 250.656,1011.92 251.247,1012.16C256.555,1015.29 262.404,1030.92 268.843,1059.15L284.129,1028.38C285.554,1026.03 287.176,1024.86 288.995,1024.86L289.437,1024.86C291.157,1025.74 293.026,1029.5 295.09,1036.1L303.397,1031.8L313.817,1044.98C316.471,1043.66 319.027,1043.03 321.583,1043.03C329.25,1043.03 336.525,1048.89 343.406,1060.61C344.865,1060.22 346.369,1060.03 347.879,1060.03C352.155,1060.03 356.579,1061.59 361.249,1064.67C366.262,1057.54 370.194,1053.97 373.045,1053.97C373.439,1053.97 373.832,1054.02 374.175,1054.17C383.956,1063.79 390.151,1077.02 392.707,1093.92L403.864,1087.08C407.551,1088.16 413.056,1094.17 420.38,1105.11C427.997,1105.89 432.569,1106.87 434.043,1107.99C442.891,1113.65 448.15,1123.03 449.772,1136.17C449.92,1136.22 450.067,1136.22 450.264,1136.22C451.493,1136.22 453.311,1135.29 455.671,1133.48L472.235,1118.83C478.477,1140.76 481.623,1158.78 481.623,1172.9L487.718,1187.5C487.865,1187.65 488.013,1187.7 488.209,1187.7C488.554,1187.7 488.898,1187.41 489.291,1186.87L496.467,1171.83C497.156,1171.09 497.893,1170.7 498.532,1170.7C499.171,1170.7 499.711,1170.99 500.252,1171.68C500.498,1181.69 501.874,1192.39 504.43,1203.77C505.167,1207.38 506.642,1210.12 508.903,1212.12L513.228,1214.76C517.996,1217.1 524.288,1218.47 532.251,1218.76L542.573,1224.96L553.682,1227.31C563.512,1233.27 575.26,1237.61 588.924,1240.35C596.247,1244.45 601.262,1246.99 603.964,1247.92C650.709,1259.15 681.086,1267.36 695.044,1272.63L762.777,1280.93L763.956,1280.93C776.293,1280.93 793.692,1279.09 816.155,1275.28C820.873,1274.99 824.806,1274.83 827.755,1274.83C830.556,1274.83 832.572,1274.99 833.8,1275.23C837.733,1275.77 840.19,1276.44 841.124,1277.17C845.105,1284.69 848.644,1289.1 851.593,1290.27C877.4,1292.32 892.832,1293.78 897.748,1294.7L897.747,1294.7ZM805.984,758.682C767.597,719.608 741.349,691.134 727.096,673.259L724.933,669.839C738.008,672.673 749.755,677.264 760.273,683.613C783.327,698.265 805.642,715.408 827.17,734.994C850.124,750.428 869.44,762.539 885.268,771.331L944.791,832.286L960.472,849.477L987.748,874.143C997.089,879.172 1004.07,883.324 1008.65,886.499L1090.43,948.773C1089.6,949.212 1087.91,952.142 1085.41,957.711C1082.53,956.31 1079.61,954.974 1076.67,953.705C1077.64,959.468 1078.88,965.671 1080.36,972.362L1079.08,978.418C1078.88,978.466 1078.68,978.515 1078.55,978.418L1066.49,963.717C1064.72,962.545 1062.77,961.031 1060.6,959.274L1050.17,950.188L1040.49,933.24C1037.3,928.894 1033.65,925.279 1029.43,922.447C1025.12,932.704 1023.43,940.03 1024.47,944.425L1037.64,971.727L1029.13,991.166C1028.69,991.459 1028.11,991.409 1027.32,990.971C1014.54,982.472 1007.51,977.539 1006.28,976.123C1005.2,975.39 1004.27,975.048 1003.53,975.146C1002.79,974.902 1001.37,976.123 999.305,978.907C997.631,985.843 996.014,990.238 994.485,992.142C992.762,994.096 990.894,994.683 988.735,993.951C991.097,990.433 992.026,987.65 991.688,985.696C989.771,982.863 986.083,978.321 980.721,972.02C979.588,970.848 975.852,967.966 969.561,963.376C968.728,962.692 968.041,961.715 967.547,960.396C972.416,945.89 975.165,936.219 975.755,931.287L974.875,900.809L971.777,895.876L964.16,886.254L952.554,861.199L950.589,858.659C908.125,815.19 880.453,788.034 867.673,777.338C855.828,769.035 847.126,764.2 841.475,762.783C882.37,805.029 911.468,837.949 928.721,861.49C939.436,879.512 947.695,899.488 953.493,921.467C947.056,913.163 933.439,900.66 912.599,883.859L898.344,868.033L845.702,791.939C844.129,790.67 843.736,792.135 844.424,796.335C844.276,797.85 846.931,807.52 852.337,825.446C852.19,826.178 850.47,824.762 847.225,821.196C837.15,808.595 823.387,787.741 805.986,758.68L805.984,758.682ZM780.475,861.676C779.345,861.138 778.608,861.774 778.313,863.629L779.198,892.592C774.085,881.358 769.859,873.447 766.565,868.953C761.404,861.578 753.883,852.297 744.053,841.113C741.28,837.182 738.894,832.995 736.926,828.61C734.371,820.649 731.077,802.48 726.998,774.054C722.573,755.837 718.74,742.454 715.595,733.907C713.725,729.12 711.317,725.311 708.221,722.478C706.5,720.133 702.666,718.376 696.719,717.106C696.768,718.033 696.818,718.913 696.768,719.694C695.539,730.146 694.9,736.886 694.851,739.914C694.655,742.014 694.801,745.531 695.294,750.415C698.046,766.484 701.29,780.208 705.124,791.588C705.321,791.539 706.451,801.064 708.515,820.16L713.136,842.724C713.382,845.656 713.185,847.56 712.546,848.44C711.71,849.465 710.826,849.368 709.892,848.146C707.926,846.437 703.306,837.353 696.08,820.942C692.984,816.156 691.116,814.593 690.329,816.254C690.231,816.547 690.329,817.133 690.526,818.012L695.49,838.379C696.424,842.677 697.062,845.9 697.455,848.147C700.11,863.19 701.487,873.593 701.536,879.308C701.492,884.568 701.131,889.82 700.455,895.035L696.326,912.471L693.868,930.005C693.377,931.275 692.984,931.86 692.64,931.519C691.902,931.519 691.115,929.858 690.231,926.586C688.461,919.846 687.331,913.838 686.839,908.563C686.495,905.291 686.299,901.775 686.2,898.063C686.397,892.69 686.839,886.878 687.576,880.626C687.674,879.161 687.625,876.915 687.43,873.886C682.661,844.289 679.614,816.644 678.435,791.002C677.795,778.304 677.844,768.487 678.435,761.503C678.533,759.451 679.81,749.146 682.219,730.733C682.661,726.288 682.81,723.162 682.661,721.356L681.187,727.998C680.302,714.714 679.565,707.289 678.975,705.775C677.844,702.014 674.945,696.251 670.177,688.436C669.341,686.727 668.456,684.529 667.67,681.745C667.474,680.816 667.571,676.275 667.916,668.021C668.063,666.311 668.309,665.383 668.654,665.236L668.703,665.236C672.831,675.444 675.338,680.915 676.173,681.794C678.908,685.031 681.579,688.321 684.185,691.66C684.529,691.416 684.971,691.22 685.413,691.024C689.445,689.756 693.377,689.023 697.211,688.876L697.801,688.876C707.435,687.704 726.112,700.402 753.835,727.07L769.564,747.926C772.857,752.37 775.953,756.863 778.804,761.406C791.878,789.832 798.809,803.849 799.497,803.507C801.266,807.12 817.879,823.189 849.337,851.762L879.86,887.123C893.623,904.316 901.488,914.962 903.454,919.016C906.451,924.291 908.811,929.029 910.532,933.327C911.367,936.159 911.122,937.38 909.745,936.989C909.156,936.989 908.024,936.502 906.451,935.622C883.35,918.039 870.915,909.345 869.244,909.443C853.465,904.705 840.195,902.312 829.43,902.36C826.383,901.678 823.58,900.651 820.976,899.284L780.474,861.676L780.475,861.676ZM384.162,979.72C382.884,981.624 380.869,983.822 378.263,986.411L356.538,1006.34C356.538,1006.78 358.061,1006.58 361.159,1005.85L392.518,995.789C394.778,995.641 395.81,996.228 395.614,997.546L395.367,998.718L385.39,1011.81C375.658,1027.83 369.268,1037.79 366.221,1041.8C362.042,1047.32 356.783,1052.78 350.393,1058.16C347.15,1051.03 342.725,1045.17 337.123,1040.62C334.91,1039.35 331.764,1037.84 327.537,1036.13C319.379,1029.54 313.972,1025.87 311.415,1025.09L308.368,1024.41L301.782,1025.97C297.21,1023.19 293.967,1021.33 292.001,1020.31C289.69,1019.23 287.97,1018.74 286.839,1018.79C282.76,1019.57 278.287,1022.65 273.421,1028.02L264.573,1022.55L256.512,1003.21C255.726,1002.24 254.546,1001.01 252.973,999.596C264.23,996.52 277.207,993.98 292.001,992.027C297.211,990.658 302.766,988.705 308.713,986.068L364.354,959.401C367.254,957.739 379.05,949.534 399.743,934.686L414.784,925.26L415.767,924.967L416.013,924.967C416.258,924.967 416.602,925.113 416.996,925.309L405.887,941.818C395.565,961.159 388.29,973.759 384.162,979.718L384.162,979.72ZM362.731,960.043L362.731,959.994L362.781,959.994L362.731,960.043ZM532.893,897.478C541.347,872.814 546.703,855.278 548.916,844.924L554.962,794.422C544.05,802.041 530.828,824.02 515.394,860.358C514.904,860.602 514.657,860.455 514.607,859.869L515.198,837.5C515.443,834.032 516.23,829.197 517.557,822.945C513.478,833.153 503.304,848.195 487.034,868.171C483.641,870.712 470.714,877.109 448.35,887.366C445.894,888.636 440.29,892.592 431.54,899.137C438.913,888.05 447.023,877.745 455.871,868.269C461.72,864.704 468.453,859.624 476.121,853.031L490.965,835.937C497.403,824.996 505.268,813.617 514.41,801.699L552.404,760.038L622.299,700.451C622.864,699.979 623.542,699.659 624.266,699.523L624.461,699.523C629.869,703.039 630.065,713.589 625.151,731.172C619.056,752.32 612.666,772.638 605.982,792.126C595.217,818.354 584.796,842.14 574.672,863.482C570.002,875.89 565.185,898.6 560.221,931.617L549.703,965.805C543.215,980.898 528.863,1003.71 506.645,1034.28C506.252,1034.23 506.302,1033.26 506.891,1031.3C510.823,1022.22 513.526,1015.23 515,1010.35C517.114,1003.71 519.032,996.576 520.752,988.859L523.112,972.547C523.554,952.522 524.144,939.383 524.979,933.132L532.893,897.477L532.893,897.478ZM139.296,916.425C136.987,902.066 134.627,891.76 132.169,885.46C140.624,882.92 157.581,873.933 183.042,858.597C223.496,835.104 251.857,817.325 268.175,805.262C308.82,777.715 345.291,747.238 377.584,713.782C381.959,710.559 385.596,708.898 388.496,708.849L388.644,708.849C389.239,708.715 389.864,708.879 390.315,709.289C393.263,708.41 399.21,708.947 408.304,711.047C412.138,715.541 427.375,721.45 454.016,728.776C468.026,732.879 480.705,734.883 491.913,734.735C495.845,734.686 499.384,734.247 502.53,733.563L528.876,721.792L595.134,685.796C603.391,680.326 614.402,671.633 628.066,659.715C633.473,655.808 637.799,652.927 641.092,650.974C644.483,648.481 652.249,647.261 664.439,647.163L669.354,647.114C687.394,646.626 699.042,648.726 704.351,653.464L662.425,654.147C653.282,655.906 647.138,657.908 644.042,660.057C641.142,661.62 638.733,666.26 636.866,674.074L616.811,684.672C610.323,692.928 606.096,697.615 604.178,698.788L550.947,736.298L524.551,759.157C516.687,770.049 511.182,776.887 508.135,779.621C501.109,786.111 493.26,791.661 484.786,796.13C484,795.642 484.541,793.64 486.458,790.074C496.829,770.244 503.022,759.207 505.038,757.009C505.53,756.57 505.775,756.422 505.726,756.668C513.197,748.462 517.916,743.529 519.98,742.015C523.609,738.712 527.38,735.566 531.285,732.589C535.115,729.71 539.016,726.926 542.983,724.236L539.542,726.045C538.413,726.532 537.282,727.021 536.053,727.411C525.19,730.245 519.537,731.808 518.997,732.198C506.021,739.329 496.828,744.018 491.422,746.265L480.609,752.125C470.876,759.843 457.31,768.585 439.959,778.403C439.418,778.206 439.418,777.719 439.91,777.034L451.855,760.233L453.821,756.717C455.493,753.835 457.115,748.903 458.638,741.917C453.575,742.845 447.579,745.043 440.599,748.463C437.944,749.929 429.491,756.62 415.236,768.537L419.659,754.52L429.195,737.865C429.736,736.351 429.736,735.179 429.244,734.3C429.145,733.664 427.278,732.297 423.74,730.295C423.346,730.001 419.069,728.585 410.861,725.996C404.964,721.503 400.195,719.061 396.656,718.621C394.985,718.231 392.43,718.231 389.086,718.621L367.803,761.749L368.493,782.75C361.513,789.442 354.139,798.281 346.373,809.222C348.191,811.665 355.86,809.955 369.475,804.142C375.815,801.504 389.824,794.471 411.5,782.945C414.596,784.216 413.171,787.391 407.174,792.566L388.398,805.95C341.556,825.486 314.325,837.989 306.658,843.459C304.102,844.632 288.078,857.428 258.685,881.849L218.283,905.536C215.972,906.221 215.775,904.414 217.692,900.116L241.973,860.065C243.792,856.988 243.546,855.425 241.236,855.474C224.327,870.566 211.842,880.529 203.781,885.413L170.406,903.729L139.296,916.425Z" style="fill-rule:nonzero;"/>
    </g>
</svg>
