<!-- Generated by IcoMoon.io -->
<svg version="1.1" xmlns="http://www.w3.org/2000/svg" width="32" height="32" viewBox="0 0 32 32">
<path d="M11.486 29.090v1.914c0 0.549-0.446 0.996-0.996 0.996s-0.994-0.446-0.994-0.996v-1.914c0-0.549 0.445-0.996 0.994-0.996s0.996 0.446 0.996 0.996zM23.093 19.031v3.877c0 0.748 0.608 1.357 1.355 1.357 0.747 0 1.358-0.608 1.358-1.357 0-0.722 0.004-1.29 0.009-1.84-0.477-0.513-0.812-1.159-0.945-1.874zM31.596 18.499c0 1.658-1.351 3.006-3.010 3.006s-3.007-1.349-3.007-3.006c0-1.053 0.564-2.043 1.471-2.584 0.117-0.071 0.189-0.196 0.189-0.332v-8.179c0-0.231 0.059-0.45 0.163-0.64 0-0.001 0.001-0.003 0.002-0.004 0.228-0.419 0.674-0.704 1.183-0.704 0.744 0 1.349 0.605 1.349 1.349v8.179c0 0.136 0.073 0.263 0.19 0.332 0.907 0.54 1.471 1.531 1.471 2.584zM30.405 18.499c0-0.869-0.614-1.597-1.431-1.775v-8.082c0-0.214-0.174-0.388-0.388-0.388-0.213 0-0.387 0.174-0.387 0.388v8.082c-0.817 0.178-1.431 0.906-1.431 1.775 0 1.002 0.816 1.817 1.818 1.817s1.819-0.815 1.819-1.817zM24.528 26.772c-0.549 0-0.996 0.447-0.996 0.996v1.914c0 0.549 0.446 0.994 0.996 0.994s0.997-0.445 0.997-0.994v-1.914c0-0.549-0.447-0.996-0.997-0.996zM28.586 17.457c-0.575 0-1.043 0.468-1.043 1.042 0 0.576 0.469 1.043 1.043 1.043 0.576 0 1.044-0.468 1.044-1.043s-0.469-1.042-1.044-1.042zM7.147 3.621c-1.719 0-3.119 1.399-3.119 3.117 0 1.536 1.112 2.819 2.592 3.071 0.060-0.579 0.165-1.157 0.318-1.728 0.389-1.45 1.058-2.776 1.96-3.921-0.514-0.349-1.123-0.538-1.75-0.538zM9.848 10.586l-0.017-2.131c0-0.006 0.001-0.013 0.001-0.019s0-0.012 0-0.018c0.005-0.365 0.14-0.691 0.394-0.95 0.006-0.007 0.012-0.013 0.019-0.019 0.021-0.020 0.042-0.041 0.066-0.062 0.322-0.279 0.711-0.394 1.127-0.333l2.257 0.321c0.501 0.072 0.969-0.262 1.064-0.758 0.168-0.878-0.024-1.768-0.228-2.709-0.184-0.855-0.373-1.732-0.273-2.61-0.635 0.214-1.255 0.493-1.848 0.835-1.012 0.584-1.899 1.322-2.636 2.183-0.009 0.013-0.018 0.025-0.028 0.037-0.009 0.009-0.017 0.018-0.027 0.027-0.944 1.12-1.639 2.444-2.030 3.902-0.174 0.649-0.282 1.308-0.326 1.967 0 0.002 0.001 0.005 0 0.007 0 0.004 0 0.008-0.001 0.012-0.045 0.711-0.016 1.422 0.089 2.123l1.678-0.708c0.457-0.192 0.726-0.602 0.722-1.097zM23.093 18.254l1.712 0.157c0.029-1.216 0.654-2.356 1.659-3.039v-7.967c0-0.296 0.061-0.577 0.171-0.833-1.277-2.695-3.649-4.677-6.536-5.449-0.030-0.008-0.061-0.015-0.092-0.023-0.34 1.923-0.434 3.736-0.434 4.543 0 0.128 0.104 0.232 0.232 0.232h1.165c0.093 0 0.184 0.034 0.254 0.095l1.311 1.137c0.369 0.32 0.474 0.848 0.256 1.285l-0.615 1.228v1.258c0 0.555-0.451 1.005-1.007 1.005h-2.127c-0.271 0-0.497 0.094-0.691 0.288l-1.666 1.664c-0.454 0.454-0.506 1.157-0.124 1.673l1.109 1.5c0.342 0.465 0.395 0.536 0.868 0.605l0.296 0.042v-0.824c0-1.174 0.956-2.129 2.13-2.129s2.131 0.955 2.131 2.129zM17.043 17.465l-1.109-1.498c-0.61-0.827-0.526-1.955 0.201-2.681l1.666-1.664c0.336-0.336 0.765-0.514 1.238-0.514h2.126c0.129 0 0.233-0.104 0.233-0.231v-1.35c0-0.060 0.014-0.119 0.041-0.173l0.655-1.31c0.063-0.123 0.034-0.263-0.070-0.354l-1.202-1.042h-1.019c-0.556 0-1.007-0.452-1.007-1.007 0-1.113 0.14-2.958 0.453-4.709-1.397-0.25-2.811-0.205-4.168 0.126-0.19 0.846 0.002 1.741 0.206 2.685 0.211 0.976 0.429 1.986 0.231 3.018-0.173 0.903-1.022 1.509-1.933 1.379l-2.258-0.322c-0.181-0.025-0.338 0.017-0.481 0.13-0.065 0.198-0.145 0.39-0.24 0.574l0.016 2.058c0.007 0.807-0.451 1.503-1.196 1.817l-1.831 0.772c0.209 0.906 0.544 1.787 1.004 2.62 0.37 0.671 0.537 1.338 0.527 2.101-0.013 1.282-0.003 2.6 0.006 3.875 0.006 0.821 0.012 1.671 0.012 2.499 0 0.747 0.608 1.356 1.356 1.356s1.357-0.608 1.357-1.356v-6.015c0-1.174 0.956-2.129 2.13-2.129s2.131 0.956 2.131 2.129v3.307c0 0.746 0.608 1.354 1.356 1.354 0.746 0 1.357-0.607 1.357-1.354v-3.119l-0.407-0.059c-0.794-0.116-1.003-0.399-1.381-0.913zM7.147 2.17c0.214 0 0.388-0.174 0.388-0.387v-1.396c0-0.213-0.174-0.387-0.388-0.387-0.213 0-0.387 0.174-0.387 0.387v1.396c0 0.213 0.174 0.387 0.387 0.387zM3.367 9.967l-0.988 0.988c-0.151 0.15-0.151 0.396 0 0.547 0.076 0.076 0.175 0.113 0.274 0.113s0.198-0.037 0.274-0.113l0.989-0.988c0.152-0.152 0.152-0.396 0-0.547-0.151-0.15-0.397-0.15-0.548 0zM2.575 6.738c0-0.214-0.173-0.387-0.387-0.387h-1.397c-0.213 0-0.387 0.173-0.387 0.387s0.174 0.387 0.387 0.387h1.397c0.214 0 0.387-0.173 0.387-0.387zM3.367 3.508c0.076 0.076 0.175 0.113 0.275 0.113s0.198-0.037 0.274-0.113c0.151-0.151 0.151-0.396 0-0.547l-0.989-0.988c-0.151-0.151-0.396-0.151-0.547 0s-0.151 0.397 0 0.547zM14.617 27.029c-0.214 0-0.387 0.174-0.387 0.387v3.323c0 0.214 0.173 0.387 0.387 0.387s0.388-0.173 0.388-0.387v-3.323c0-0.213-0.174-0.387-0.388-0.387zM20.331 25.835c-0.214 0-0.387 0.173-0.387 0.387v2.678c0 0.213 0.173 0.387 0.387 0.387s0.388-0.174 0.388-0.387v-2.678c0-0.214-0.174-0.387-0.388-0.387zM17.475 24.642c-0.214 0-0.388 0.174-0.388 0.388v3.322c0 0.214 0.174 0.387 0.388 0.387s0.387-0.173 0.387-0.387v-3.322c0-0.214-0.173-0.388-0.387-0.388z"></path>
</svg>
