<!-- Generated by IcoMoon.io -->
<svg version="1.1" xmlns="http://www.w3.org/2000/svg" width="32" height="32" viewBox="0 0 32 32">
<path d="M11.67 9.477c0.055-0.069 0.071-0.159 0.044-0.241s-0.094-0.146-0.179-0.169c-0.004-0.023-0.681-0.002-0.715-0.010l1.805-3.007c0.052-0.088 0.047-0.197-0.011-0.28v-0.001c-0.081-0.186-0.548-0.093-0.804-0.114l1.675-2.447 1.675 2.447h-0.575c-0.089 0-0.17 0.044-0.219 0.117-0.048 0.072-0.055 0.166-0.020 0.246 0.001 0.011 0.004 0.021 0.010 0.031h0.001l1.799 3.007c-0.035 0.002-0.714-0.009-0.721 0.010-0.084 0.023-0.151 0.086-0.179 0.169-0.026 0.082-0.010 0.172 0.044 0.241l1.395 2.359c-2.117 0.436-4.302 0.436-6.42 0l1.395-2.359zM13.075 12.676c0.27 0.006 0.55 0.010 0.82 0l-0.001 2.738h-0.819zM11.571 24.815c-3.003 0.642-6.11 0.642-9.115 0l2.001-3.376c0.041-0.060 0.056-0.135 0.039-0.206-0.016-0.070-0.063-0.131-0.126-0.166-0.395-0.043-0.791-0.055-1.188-0.036l2.556-4.262c0.055-0.079 0.061-0.181 0.016-0.266-0.045-0.086-0.133-0.139-0.229-0.139h-0.996l2.484-3.63 2.484 3.63h-0.975c-0.078 0-0.152 0.034-0.201 0.095-0.050 0.060-0.069 0.14-0.053 0.216 0.004 0.029 0.012 0.058 0.026 0.084l2.556 4.273h-1.069c-0.095 0.001-0.182 0.056-0.228 0.141-0.044 0.085-0.039 0.189 0.015 0.267zM7.014 25.815c0.202 0.003 0.456 0 0.652-0.010v3.956h-1.311v-3.956c0.218 0.005 0.441 0.010 0.659 0.010zM24.82 12.013l2.587 3.78h-1.011c-0.085-0.006-0.168 0.029-0.222 0.094h-0.001l-0.819 0.99-0.767-1.342c-0.052-0.090-0.154-0.139-0.256-0.125-0.102 0.012-0.188 0.086-0.215 0.186h-0.001l-0.191 0.731c-0.17-0.18-0.35-0.351-0.539-0.512 0.005-0.043-1.113-0.012-1.151-0.021zM29.544 24.53c-3.114 0.663-6.334 0.663-9.447 0l1.965-3.319 0.789 0.379c0.075 0.032 0.161 0.029 0.233-0.011l0.001 0.001 1.441-0.789 0.642 0.642c0.078 0.078 0.196 0.099 0.295 0.052h0.001l0.601-0.29 0.497 0.575c0.089 0.104 0.246 0.119 0.352 0.031v-0.001l0.695-0.539zM26.34 16.498l2.462 4.123h-1.12c-0.059-0.003-0.115 0.016-0.161 0.052l-0.731 0.57-0.461-0.534c-0.076-0.089-0.201-0.114-0.306-0.063l0.001 0.001-0.617 0.29-0.649-0.649c-0.081-0.084-0.209-0.104-0.311-0.047l-1.492 0.82c-0.324-0.165-0.656-0.313-0.996-0.441h-1.109l2.489-4.149 0.544 0.54c0.065 0.066 0.161 0.091 0.25 0.066 0.090-0.025 0.159-0.095 0.18-0.186l0.001 0.001 0.145-0.545 0.633 1.115c0.041 0.072 0.116 0.12 0.2 0.128 0.084 0.006 0.166-0.027 0.22-0.091zM24.82 25.546c0.22 0.001 0.481-0.001 0.7-0.011v4.465h-1.395v-4.464c0.234 0.005 0.461 0.010 0.695 0.010zM14.438 21.341c-0.040 0.279 0.072 0.558 0.296 0.73l8.871 6.845v0.565h-9.675l-2.894-4.033c0.316-0.12 1.387-0.050 1.161-0.586l-1.965-3.314h1.074c0.092 0 0.179-0.049 0.226-0.13 0.046-0.080 0.045-0.18-0.004-0.26l-1.063-1.784 6.72-2.301c0.221-0.079 0.398-0.251 0.477-0.473s0.058-0.466-0.063-0.669h-0.001l-2.033-3.386c0.42-0.053 0.84-0.125 1.26-0.207l4.796 3.422c-0.082 0.113-0.198 0.268-0.114 0.41 0.046 0.086 0.136 0.141 0.234 0.14h1.079l-1.115 1.861-6.771 2.546c-0.268 0.1-0.459 0.339-0.499 0.622zM22.57 7.651c-0.954-0.008-1.723-0.784-1.723-1.736 0-0.954 0.769-1.729 1.723-1.737 0.953 0.009 1.721 0.784 1.721 1.737 0 0.952-0.769 1.729-1.721 1.736zM22.57 3.581c-0.069 0-0.134-0.027-0.183-0.076s-0.076-0.114-0.076-0.183v-1.064c0-0.069 0.026-0.135 0.075-0.184 0.049-0.050 0.115-0.077 0.184-0.077 0.070 0 0.136 0.028 0.185 0.077 0.049 0.049 0.075 0.115 0.075 0.184v1.064c0 0.069-0.027 0.134-0.076 0.183s-0.115 0.076-0.184 0.076zM24.404 4.34c-0.104-0.001-0.198-0.065-0.238-0.161-0.040-0.095-0.019-0.206 0.054-0.281l0.753-0.751c0.234-0.243 0.607 0.132 0.366 0.366l-0.751 0.752c-0.049 0.049-0.115 0.075-0.184 0.075zM24.904 5.915c0-0.069 0.027-0.135 0.076-0.184s0.115-0.076 0.184-0.076h1.063c0.069 0 0.135 0.027 0.185 0.075 0.049 0.049 0.076 0.115 0.076 0.185 0 0.069-0.027 0.135-0.076 0.184-0.050 0.049-0.116 0.076-0.185 0.075h-1.063c-0.069 0-0.135-0.027-0.184-0.076-0.049-0.048-0.076-0.114-0.076-0.183zM25.155 8.759c-0.069 0-0.135-0.027-0.184-0.076l-0.751-0.751c-0.101-0.101-0.101-0.265 0-0.366s0.266-0.101 0.367 0l0.751 0.751c0.072 0.075 0.092 0.185 0.054 0.281-0.040 0.096-0.134 0.16-0.238 0.161zM22.57 9.825c-0.14 0-0.256-0.114-0.259-0.254v-1.064c0-0.069 0.026-0.135 0.075-0.185 0.049-0.049 0.115-0.076 0.184-0.076 0.070 0 0.136 0.027 0.185 0.076 0.049 0.050 0.075 0.116 0.075 0.185v1.064c-0.003 0.14-0.119 0.254-0.26 0.254zM20.92 7.931l-0.751 0.751c-0.101 0.101-0.265 0.101-0.366 0s-0.101-0.265 0-0.366l0.751-0.751c0.235-0.241 0.608 0.132 0.366 0.366zM18.661 5.915c0-0.141 0.113-0.256 0.254-0.26h1.063c0.142 0.001 0.258 0.117 0.258 0.26s-0.115 0.258-0.258 0.259h-1.063c-0.141-0.003-0.254-0.117-0.254-0.259zM19.802 3.513c-0.101-0.101-0.101-0.265 0-0.366s0.265-0.101 0.366 0l0.751 0.751c0.099 0.103 0.096 0.264-0.003 0.364-0.1 0.1-0.262 0.101-0.364 0.004z"></path>
</svg>
