<?xml version="1.0" encoding="utf-8"?>
<svg xmlns="http://www.w3.org/2000/svg" viewBox="620.0742 205.1758 120.625 123.75" width="150pt" height="150pt">
  <path fill="#000000" d="M 662.929688 317.671875 L 662.929688 325.074219 C 662.929688 327.199219 661.203125 328.925781 659.078125 328.925781 C 656.953125 328.925781 655.234375 327.199219 655.234375 325.074219 L 655.234375 317.671875 C 655.234375 315.546875 656.957031 313.820312 659.078125 313.820312 C 661.199219 313.820312 662.929688 315.546875 662.929688 317.671875 Z M 707.816406 278.773438 L 707.816406 293.765625 C 707.816406 296.660156 710.167969 299.011719 713.054688 299.011719 C 715.945312 299.011719 718.304688 296.660156 718.304688 293.765625 C 718.304688 290.972656 718.320312 288.777344 718.339844 286.648438 C 716.496094 284.664062 715.199219 282.167969 714.683594 279.402344 Z M 740.699219 276.714844 C 740.699219 283.125 735.476562 288.339844 729.058594 288.339844 C 722.640625 288.339844 717.429688 283.125 717.429688 276.714844 C 717.429688 272.644531 719.609375 268.8125 723.117188 266.722656 C 723.570312 266.449219 723.847656 265.964844 723.847656 265.4375 L 723.847656 233.808594 C 723.847656 232.914062 724.074219 232.070312 724.476562 231.332031 C 724.476562 231.328125 724.480469 231.320312 724.484375 231.316406 C 725.367188 229.695312 727.089844 228.59375 729.058594 228.59375 C 731.9375 228.59375 734.277344 230.933594 734.277344 233.808594 L 734.277344 265.4375 C 734.277344 265.964844 734.558594 266.453125 735.011719 266.722656 C 738.519531 268.8125 740.699219 272.644531 740.699219 276.714844 Z M 736.09375 276.714844 C 736.09375 273.355469 733.71875 270.539062 730.558594 269.851562 L 730.558594 238.597656 C 730.558594 237.769531 729.886719 237.097656 729.058594 237.097656 C 728.234375 237.097656 727.5625 237.769531 727.5625 238.597656 L 727.5625 269.851562 C 724.402344 270.539062 722.027344 273.355469 722.027344 276.714844 C 722.027344 280.589844 725.183594 283.742188 729.058594 283.742188 C 732.9375 283.742188 736.09375 280.589844 736.09375 276.714844 Z M 713.367188 308.707031 C 711.242188 308.707031 709.515625 310.4375 709.515625 312.558594 L 709.515625 319.960938 C 709.515625 322.082031 711.242188 323.804688 713.367188 323.804688 C 715.492188 323.804688 717.222656 322.082031 717.222656 319.960938 L 717.222656 312.558594 C 717.222656 310.4375 715.492188 308.707031 713.367188 308.707031 Z M 729.058594 272.683594 C 726.835938 272.683594 725.023438 274.492188 725.023438 276.714844 C 725.023438 278.941406 726.835938 280.75 729.058594 280.75 C 731.285156 280.75 733.097656 278.941406 733.097656 276.714844 C 733.097656 274.492188 731.285156 272.683594 729.058594 272.683594 Z M 646.152344 219.179688 C 639.503906 219.179688 634.089844 224.589844 634.089844 231.234375 C 634.089844 237.175781 638.390625 242.136719 644.113281 243.109375 C 644.34375 240.871094 644.75 238.636719 645.34375 236.425781 C 646.847656 230.820312 649.433594 225.691406 652.921875 221.261719 C 650.933594 219.914062 648.578125 219.179688 646.152344 219.179688 Z M 656.597656 246.113281 L 656.53125 237.871094 C 656.53125 237.847656 656.535156 237.820312 656.535156 237.796875 C 656.535156 237.773438 656.535156 237.75 656.535156 237.726562 C 656.554688 236.316406 657.078125 235.054688 658.058594 234.050781 C 658.082031 234.023438 658.105469 234 658.132812 233.976562 C 658.214844 233.898438 658.296875 233.816406 658.386719 233.738281 C 659.632812 232.660156 661.136719 232.214844 662.746094 232.449219 L 671.472656 233.691406 C 673.410156 233.96875 675.21875 232.679688 675.585938 230.761719 C 676.234375 227.367188 675.492188 223.925781 674.703125 220.285156 C 673.992188 216.980469 673.261719 213.585938 673.648438 210.191406 C 671.191406 211.019531 668.796875 212.097656 666.5 213.421875 C 662.585938 215.679688 659.15625 218.535156 656.304688 221.863281 C 656.269531 221.914062 656.234375 221.960938 656.195312 222.007812 C 656.160156 222.042969 656.128906 222.078125 656.089844 222.113281 C 652.4375 226.445312 649.75 231.566406 648.238281 237.203125 C 647.566406 239.714844 647.148438 242.261719 646.976562 244.808594 C 646.976562 244.816406 646.980469 244.828125 646.976562 244.835938 C 646.976562 244.851562 646.976562 244.867188 646.972656 244.882812 C 646.796875 247.632812 646.910156 250.382812 647.316406 253.09375 L 653.804688 250.355469 C 655.570312 249.613281 656.613281 248.027344 656.597656 246.113281 Z M 707.816406 275.765625 L 714.4375 276.371094 C 714.550781 271.667969 716.964844 267.261719 720.851562 264.617188 L 720.851562 233.808594 C 720.851562 232.664062 721.085938 231.578125 721.511719 230.585938 C 716.574219 220.164062 707.398438 212.5 696.234375 209.511719 C 696.117188 209.480469 696 209.453125 695.878906 209.421875 C 694.5625 216.859375 694.199219 223.871094 694.199219 226.992188 C 694.199219 227.488281 694.601562 227.890625 695.097656 227.890625 L 699.601562 227.890625 C 699.960938 227.890625 700.3125 228.023438 700.582031 228.257812 L 705.652344 232.65625 C 707.078125 233.894531 707.484375 235.9375 706.640625 237.625 L 704.261719 242.375 L 704.261719 247.238281 C 704.261719 249.382812 702.515625 251.125 700.367188 251.125 L 692.140625 251.125 C 691.09375 251.125 690.21875 251.488281 689.46875 252.238281 L 683.027344 258.671875 C 681.273438 260.425781 681.070312 263.144531 682.546875 265.140625 L 686.835938 270.941406 C 688.160156 272.738281 688.363281 273.015625 690.191406 273.28125 L 691.335938 273.445312 L 691.335938 270.257812 C 691.335938 265.71875 695.03125 262.023438 699.574219 262.023438 C 704.117188 262.023438 707.816406 265.714844 707.816406 270.257812 Z M 684.421875 272.714844 L 680.132812 266.921875 C 677.773438 263.722656 678.097656 259.363281 680.910156 256.554688 L 687.351562 250.121094 C 688.652344 248.820312 690.308594 248.132812 692.140625 248.132812 L 700.363281 248.132812 C 700.863281 248.132812 701.265625 247.730469 701.265625 247.238281 L 701.265625 242.019531 C 701.265625 241.789062 701.320312 241.558594 701.425781 241.351562 L 703.957031 236.285156 C 704.199219 235.808594 704.089844 235.269531 703.6875 234.917969 L 699.039062 230.886719 L 695.097656 230.886719 C 692.949219 230.886719 691.203125 229.140625 691.203125 226.992188 C 691.203125 222.6875 691.746094 215.554688 692.953125 208.78125 C 687.550781 207.8125 682.082031 207.988281 676.835938 209.269531 C 676.101562 212.542969 676.84375 216.003906 677.632812 219.652344 C 678.449219 223.425781 679.292969 227.332031 678.527344 231.324219 C 677.859375 234.816406 674.574219 237.160156 671.050781 236.65625 L 662.320312 235.410156 C 661.621094 235.3125 661.011719 235.476562 660.460938 235.914062 C 660.210938 236.679688 659.898438 237.421875 659.53125 238.132812 L 659.59375 246.089844 C 659.621094 249.210938 657.847656 251.902344 654.96875 253.117188 L 647.886719 256.101562 C 648.695312 259.605469 649.992188 263.011719 651.769531 266.234375 C 653.199219 268.828125 653.847656 271.410156 653.808594 274.359375 C 653.757812 279.316406 653.796875 284.414062 653.832031 289.34375 C 653.855469 292.519531 653.878906 295.804688 653.878906 299.007812 C 653.878906 301.898438 656.230469 304.25 659.121094 304.25 C 662.011719 304.25 664.367188 301.898438 664.367188 299.007812 L 664.367188 275.746094 C 664.367188 271.207031 668.0625 267.511719 672.605469 267.511719 C 677.148438 267.511719 680.847656 271.207031 680.847656 275.746094 L 680.847656 288.535156 C 680.847656 291.421875 683.199219 293.769531 686.089844 293.769531 C 688.976562 293.769531 691.335938 291.421875 691.335938 288.535156 L 691.335938 276.472656 L 689.761719 276.246094 C 686.691406 275.796875 685.882812 274.703125 684.421875 272.714844 Z M 646.152344 213.566406 C 646.980469 213.566406 647.652344 212.894531 647.652344 212.070312 L 647.652344 206.671875 C 647.652344 205.847656 646.980469 205.175781 646.152344 205.175781 C 645.328125 205.175781 644.65625 205.847656 644.65625 206.671875 L 644.65625 212.070312 C 644.65625 212.894531 645.328125 213.566406 646.152344 213.566406 Z M 631.53125 243.71875 L 627.710938 247.539062 C 627.125 248.121094 627.125 249.070312 627.710938 249.65625 C 628.003906 249.949219 628.386719 250.09375 628.769531 250.09375 C 629.152344 250.09375 629.535156 249.949219 629.828125 249.65625 L 633.652344 245.835938 C 634.238281 245.25 634.238281 244.304688 633.652344 243.71875 C 633.066406 243.136719 632.117188 243.136719 631.53125 243.71875 Z M 628.46875 231.234375 C 628.46875 230.40625 627.800781 229.738281 626.972656 229.738281 L 621.570312 229.738281 C 620.746094 229.738281 620.074219 230.40625 620.074219 231.234375 C 620.074219 232.0625 620.746094 232.730469 621.570312 232.730469 L 626.972656 232.730469 C 627.800781 232.730469 628.46875 232.0625 628.46875 231.234375 Z M 631.53125 218.742188 C 631.824219 219.035156 632.207031 219.179688 632.59375 219.179688 C 632.976562 219.179688 633.359375 219.035156 633.652344 218.742188 C 634.238281 218.15625 634.238281 217.210938 633.652344 216.625 L 629.828125 212.804688 C 629.246094 212.222656 628.296875 212.222656 627.710938 212.804688 C 627.125 213.390625 627.125 214.339844 627.710938 214.921875 Z M 675.039062 309.703125 C 674.210938 309.703125 673.542969 310.375 673.542969 311.199219 L 673.542969 324.050781 C 673.542969 324.878906 674.210938 325.546875 675.039062 325.546875 C 675.867188 325.546875 676.539062 324.878906 676.539062 324.050781 L 676.539062 311.199219 C 676.539062 310.375 675.867188 309.703125 675.039062 309.703125 Z M 697.136719 305.085938 C 696.308594 305.085938 695.640625 305.753906 695.640625 306.582031 L 695.640625 316.9375 C 695.640625 317.761719 696.308594 318.433594 697.136719 318.433594 C 697.964844 318.433594 698.636719 317.761719 698.636719 316.9375 L 698.636719 306.582031 C 698.636719 305.753906 697.964844 305.085938 697.136719 305.085938 Z M 686.089844 300.472656 C 685.261719 300.472656 684.589844 301.144531 684.589844 301.972656 L 684.589844 314.820312 C 684.589844 315.648438 685.261719 316.316406 686.089844 316.316406 C 686.917969 316.316406 687.585938 315.648438 687.585938 314.820312 L 687.585938 301.972656 C 687.585938 301.144531 686.917969 300.472656 686.089844 300.472656 Z M 686.089844 300.472656 " fill-opacity="1" fill-rule="nonzero"/>
</svg>