<svg viewBox="0 0 1200 1200" xmlns="http://www.w3.org/2000/svg" width="150pt" height="150pt"><path d="M1058.05 266.258c4.85 0 8.78 8.312 8.78 13.159 0 4.847-3.93 8.772-8.78 8.772a8.772 8.772 0 0 1-8.77-8.772c0-4.847 3.93-13.159 8.77-13.159zm-17.54 50.438a8.772 8.772 0 0 1-8.77 8.772c-4.85 0-8.78-3.925-8.78-8.772s3.93-13.159 8.78-13.159c4.84 0 8.77 8.312 8.77 13.159zm-52.561 0a8.771 8.771 0 0 1-8.773 8.772 8.769 8.769 0 0 1-8.772-8.772c0-4.847 3.925-13.159 8.772-13.159 4.845 0 8.773 8.312 8.773 13.159zm26.241-30.699a8.772 8.772 0 0 1-8.77 8.772 8.769 8.769 0 0 1-8.774-8.772c0-4.847 3.924-13.158 8.774-13.158 4.84 0 8.77 8.311 8.77 13.158zm-52.491-6.58a8.77 8.77 0 0 1-8.772 8.772 8.769 8.769 0 0 1-8.772-8.772c0-4.847 3.925-13.159 8.772-13.159 4.845 0 8.772 8.312 8.772 13.159zm83.581-119.851c2.08-.647 4.24-.976 6.42-.976 12.03 0 21.78 9.726 21.78 21.722a21.685 21.685 0 0 1-1.3 7.216 32.52 32.52 0 0 1 12.19 25.362c0 8.641-3.45 16.931-9.56 23.039a32.716 32.716 0 0 1-23.11 9.551 32.872 32.872 0 0 1-17.72-5.221 43.637 43.637 0 0 1-57.129 0 32.797 32.797 0 0 1-17.72 5.221 32.658 32.658 0 0 1-23.094-9.551 32.528 32.528 0 0 1-9.572-23.039 32.564 32.564 0 0 1 12.204-25.329 21.766 21.766 0 0 1-1.315-7.249c0-11.996 9.748-21.722 21.777-21.722 2.215 0 4.41.34 6.515.998 8.302-14.047 23.421-22.688 39.774-22.721 16.38 0 31.53 8.63 39.86 22.699zm-127.442-31.471a8.771 8.771 0 0 1-8.773 8.772 8.769 8.769 0 0 1-8.772-8.772 8.769 8.769 0 0 1 8.772-8.772 8.771 8.771 0 0 1 8.773 8.772zm-31.466 39.41a4.381 4.381 0 0 1-3.556-5.077 4.384 4.384 0 1 1 8.637 1.514 4.392 4.392 0 0 1-5.081 3.563zM1124 145.64c1.16 0 2.28.471 3.11 1.294.82.822 1.28 1.93 1.28 3.092 0 1.173-.46 2.281-1.28 3.103a4.421 4.421 0 0 1-3.11 1.283h-4.41a4.378 4.378 0 0 1-4.38-4.386c0-1.162.46-2.27 1.28-3.092a4.391 4.391 0 0 1 3.1-1.294zm-21.93 0c1.16 0 2.28.471 3.1 1.294.82.822 1.28 1.93 1.28 3.092a4.378 4.378 0 0 1-4.38 4.386h-4.39a4.38 4.38 0 0 1-3.1-1.283 4.346 4.346 0 0 1-1.29-3.103c0-1.162.46-2.27 1.29-3.092a4.391 4.391 0 0 1 3.1-1.294zm11.88 10.066c.82.823 1.28 1.93 1.28 3.092v4.387a4.38 4.38 0 0 1-1.28 3.103 4.385 4.385 0 0 1-3.1 1.283 4.39 4.39 0 0 1-3.11-1.283 4.38 4.38 0 0 1-1.28-3.103v-4.387c0-1.162.46-2.27 1.28-3.092a4.401 4.401 0 0 1 3.11-1.294c1.16 0 2.28.472 3.1 1.294zm0-21.929c.82.823 1.28 1.93 1.28 3.093v4.386a4.378 4.378 0 0 1-4.38 4.386c-1.17 0-2.29-.46-3.11-1.283a4.378 4.378 0 0 1-1.28-3.103v-4.386c0-1.163.46-2.27 1.28-3.093a4.4 4.4 0 0 1 3.11-1.293c1.16 0 2.28.471 3.1 1.293zm16.92 52.128a4.37 4.37 0 0 1 1.81 2.84 4.382 4.382 0 0 1-3.56 5.077 4.391 4.391 0 0 1-5.08-3.553c-.2-1.151.06-2.325.73-3.279a4.384 4.384 0 0 1 2.82-1.809 4.388 4.388 0 0 1 3.28.724zM207.128 390.911h-9.524c0-9.841 4.128-15.238 7.302-19.682 2.858-3.809 5.397-6.983 5.397-13.651 0-6.666-2.222-9.841-5.079-13.968-3.175-4.128-7.303-9.524-7.303-19.682 0-9.841 4.128-15.239 7.303-19.365 2.857-3.809 5.396-6.984 5.396-13.652h9.524c0 9.841-4.128 15.239-7.302 19.365-2.858 3.809-5.397 6.984-5.397 13.652 0 6.666 2.222 9.841 5.397 13.651 3.174 4.127 7.302 9.524 7.302 19.682s-4.128 15.238-7.302 19.682c-3.174 4.127-5.714 6.984-5.714 13.968zm56.825-1.904h-9.523c0-9.841 4.127-15.239 7.302-19.682 2.857-3.809 5.396-6.984 5.396-13.652 0-6.666-2.222-9.841-5.396-13.651-3.175-4.128-7.302-9.524-7.302-19.682 0-9.841 4.127-15.239 7.302-19.365 2.857-3.809 5.396-6.983 5.396-13.651h9.524c0 9.841-4.128 15.238-7.302 19.365-2.858 3.809-5.397 6.983-5.397 13.651 0 6.666 2.222 9.841 5.397 13.651 3.174 4.128 7.302 9.524 7.302 19.682 0 9.841-4.128 15.239-7.302 19.682-3.174 3.81-5.397 6.985-5.397 13.652zm-116.825 0h-9.524c0-9.841 4.128-15.239 7.302-19.682 2.858-3.809 5.397-6.984 5.397-13.652 0-6.666-2.222-9.841-5.397-13.651-3.174-4.128-7.302-9.524-7.302-19.682 0-9.841 4.128-15.239 7.302-19.365 2.858-3.809 5.397-6.983 5.397-13.651h9.524c0 9.841-4.128 15.238-7.303 19.365-2.857 3.809-5.396 6.983-5.396 13.651 0 6.666 2.222 9.841 5.396 13.651 3.175 4.128 7.303 9.524 7.303 19.682 0 9.841-4.128 15.239-7.303 19.682-3.174 3.81-5.396 6.985-5.396 13.652zM254.43 171.229c0 22.091-17.909 40-40 40-22.092 0-40-17.909-40-40 0-22.092 17.908-40 40-40 22.091 0 40 17.908 40 40zm-34.286 47.937v46.666a5.691 5.691 0 0 1-5.714 5.715 5.691 5.691 0 0 1-5.715-5.715v-46.349c1.906.317 3.81.317 5.715.317 1.904 0 3.809-.317 5.714-.634zm-43.493-17.777c2.223 2.857 4.762 5.396 7.937 7.935l-32.698 32.699c-2.222 2.222-5.715 2.222-7.936 0-2.222-2.222-2.222-5.715 0-7.937zm108.255 32.697c2.221 2.222 2.221 5.715 0 7.937-2.222 2.222-5.715 2.222-7.937 0l-32.698-32.699a46.886 46.886 0 0 0 7.936-7.936zm29.524-62.539a5.691 5.691 0 0 1-5.715 5.715h-46.349c.317-1.906.317-3.81.317-5.715 0-1.906 0-3.81-.317-5.715h46.349c3.175 0 5.398 2.54 5.715 5.715zm-147.937 5.397h-46.349a5.69 5.69 0 0 1-5.714-5.715 5.69 5.69 0 0 1 5.714-5.715h46.349c-.317 1.906-.317 3.811-.317 5.715 0 1.905 0 3.809.317 5.715zm77.778-43.492 32.698-32.699c2.222-2.222 5.715-2.222 7.937 0 2.221 2.222 2.221 5.714 0 7.937l-32.699 32.698c-2.222-2.857-4.761-5.714-7.936-7.936zM143.954 108.69c-2.222-2.223-2.222-5.715 0-7.937 2.221-2.222 5.714-2.222 7.936 0l32.698 32.699a46.923 46.923 0 0 0-7.936 7.936zm64.761 14.92V77.261a5.691 5.691 0 0 1 5.715-5.714 5.69 5.69 0 0 1 5.714 5.714v46.032c-1.905-.318-3.81-.318-5.714-.318-1.905 0-3.81.318-5.715.635zm944.077 481.37 1.031 1.031v321.37h-229.26c41.719-18.891 69.375-30.797 82.875-35.625a130.119 130.119 0 0 0 5.063-2.391c-2.859-.469-5.813-.984-8.906-1.5l-6.516-1.125-72.375-21.047c-7.359-1.687-19.593-2.578-36.562-2.719-3.609-1.312-8.062-2.625-13.406-3.984-7.968-1.875-14.625-3.328-20.156-4.406-22.734 8.765-43.922 13.781-63.422 14.906-3.375.328-7.078.516-11.016.516-9.703 0-21.14-1.032-34.312-3-3.281.375-6.844.562-10.594.562h-.375c-3.235 0-8.156-.469-14.719-1.406l-36-6.938c-21.562-4.406-41.25-8.953-59.156-13.641-35.765-9.328-64.218-19.078-85.406-29.25-10.594-5.109-19.359-10.312-26.297-15.609-1.078-1.547-1.406-2.484-1.031-2.812 7.359-.938 13.078-3.656 17.156-8.25.141-.047.281-.047.469-.047 1.172 0 2.906.469 5.109 1.453h.563c.703 0 1.218-.094 1.593-.328l6.469-9.703c1.125-1.547 1.875-2.344 2.156-2.344.141-.141.422-.234.75-.234 1.219 0 3.469.937 6.75 2.812.235.047.469.047.703.047.469 0 .844-.094 1.219-.281l8.531-12.469c.188-.047.329-.094.516-.094.422 0 .75.234 1.031.656l3.563 9.938c.187.328.375.515.562.515.188 0 .422-.14.657-.422.515-1.125.562-6.656.187-16.594 3.75-15.844 6.328-29.391 7.594-40.688l.047-4.171 10.969 35.906c1.968 6.093 3.422 9.468 4.312 10.125.235.14.469.187.656.187.282 0 .516-.094.75-.281 3.094-4.266 5.25-6.61 6.422-7.078a3.82 3.82 0 0 1 1.547-.328c.282 0 .516.047.797.093.703.094 2.156.75 4.406 1.969h.282c.328 0 .656-.14 1.031-.328 4.312-7.031 6.937-10.5 7.922-10.5.093 0 .187.047.234.094l8.344 9.515c1.734-15.469 3.328-25.875 4.828-31.266 4.219-16.874 7.078-25.593 8.719-26.156h.187c.61 0 1.313.563 2.156 1.688 5.157 15.422 9.048 24.14 11.719 26.203l8.157-9.75c4.125.469 8.812 2.578 13.969 6.281l5.859-1.969c3.281 2.11 5.438 3.188 6.375 3.188.141 0 .234 0 .328-.047 2.156-13.453 4.828-21.422 7.969-24 2.953-4.36 7.969-7.829 15.094-10.266.375-.094.75-.141 1.125-.141 3.843 0 10.546 4.453 20.109 13.312 3.469-4.734 5.578-7.078 6.375-7.078.094 0 .141 0 .187.047 6.469 2.625 10.594 3.938 12.375 3.938.188 0 .422-.047.563-.094 3.562-8.859 6.281-13.312 8.062-13.312.235 0 .375.047.563.14 7.547 11.438 12.188 17.156 14.016 17.156a.717.717 0 0 0 .469-.187c4.5-15.985 8.391-26.86 11.719-32.719l12.469 21.562c.984 1.641 2.203 2.437 3.515 2.437.235 0 .469 0 .657-.046 4.875-26.672 8.203-41.907 9.937-45.703 2.25-7.641 4.734-11.907 7.406-12.75h.047c1.031 0 1.828.843 2.391 2.484l9.75 28.219c3.891 5.156 7.453 7.734 10.688 7.734a7.64 7.64 0 0 0 1.031-.093c-1.031-4.5.094-23.016 3.422-55.5.469-2.953 1.219-4.453 2.344-4.453.187 0 .375 0 .562.093h.094c1.453.422 3.375 2.344 5.672 5.672 4.312 7.594 10.312 16.828 18 27.703 3.844 5.297 7.969 10.031 12.375 14.25.984.938 2.344 1.922 4.125 2.953 4.921-13.547 8.906-30.609 11.859-51.281 12 6.891 20.766 13.125 26.344 18.75.234.047.469.094.703.094.516 0 .891-.187 1.172-.562l3.89-8.719c.282-.328.657-.469 1.079-.469.328 0 .703.094 1.125.281 0-.047 0-.094.046-.094.422 0 4.031 4.735 10.781 14.25.938.985 1.969 1.501 3.188 1.594 1.266-.328 2.062-1.265 2.344-2.812 1.406-8.765 3.187-16.5 5.437-23.156.75-2.063 1.781-3.094 3.141-3.094 8.39 7.734 13.5 12.89 15.328 15.562 3.047 3.703 5.343 7.266 6.937 10.641.516.562 1.125.844 1.688.844.281 0 .515-.047.75-.141 1.828-.469 3.047-1.406 3.75-2.719 1.781-14.718 5.438-24.421 10.969-29.062l18.328 19.5c.328.282.609.422.937.422.375 0 .797-.234 1.219-.75 2.578-4.688 3.938-9.094 4.078-13.219-3.469-.609-4.922-7.125-4.359-19.5l10.078-22.641h.187c1.078 0 3 2.203 5.813 6.61 8.063 21.75 14.344 34.218 18.797 37.406.703.703 1.406 1.031 2.109 1.031.188 0 .328 0 .516-.047 2.812-2.344 6.14-4.453 9.937-6.234.844-.891 1.125-1.735.844-2.672-3-2.297-4.687-5.063-5.156-8.25l1.875-18.188c1.5-7.312 5.156-13.172 10.969-17.531 1.031 9.14 9.468 22.124 25.312 38.812l-.328-19.266c6.515-18.047 9.328-29.907 8.484-35.672.891-3.563 3.703-5.907 8.297-7.078h.094c.14-.094.234-.141.375-.141 1.406 0 5.015 4.875 10.781 14.625 3.234 10.453 6.375 19.406 9.469 26.719 2.343 6.374 6.14 13.077 11.297 20.062.515 1.64.984 3.094 1.359 4.453zM884.898 894.055c6.094.843 9.469 2.672 10.031 5.484 1.546 4.734-8.016 11.672-28.688 20.906-3.984 1.875-9.375 4.172-16.172 6.938H46.119v-439.74c2.625-6.563 5.953-14.391 10.078-23.625l3.891-8.532c9.938 17.297 18.75 45.797 26.438 85.5.468-11.203 4.687-26.015 12.562-44.531 2.344.047 4.687 2.672 7.031 7.922 1.781 2.437 4.641 13.078 8.625 31.875l18-45.75c2.297-5.015 4.359-7.547 6.328-7.547.235 0 .469 0 .703.094 6.422 11.203 11.204 23.484 14.344 36.703 4.36 23.859 5.719 42 4.078 54.375l9.563-19.828c5.578 3.281 10.219 9.703 13.969 19.125l27.609-40.688c9.375 11.438 13.687 38.11 13.031 79.969.234.422.515.656.844.656.422 0 .984-.422 1.547-1.218l9.656-19.828c.422-.563.984-.844 1.547-.844.703 0 1.5.422 2.437 1.219 13.406 19.922 19.266 37.078 17.625 51.516 2.954-14.485 6.516-21.703 10.688-21.703.516 0 1.078.14 1.641.375 5.062 3 10.64 18 16.781 45.094l14.578-29.531c1.359-2.25 2.906-3.375 4.64-3.375h.422c1.641.843 3.422 4.452 5.391 10.781l7.922-4.125 9.937 12.656c2.531-1.266 4.969-1.875 7.406-1.875 7.312 0 14.25 5.625 20.812 16.875a16.407 16.407 0 0 1 4.266-.563c4.078 0 8.297 1.5 12.75 4.453 4.781-6.844 8.531-10.266 11.25-10.266.375 0 .75.047 1.078.188 9.328 9.234 15.235 21.937 17.672 38.156l10.641-6.563c3.516 1.031 8.766 6.797 15.75 17.297 7.265.75 11.625 1.688 13.031 2.766 8.438 5.438 13.453 14.438 15 27.047.141.047.281.047.469.047 1.172 0 2.906-.891 5.156-2.625l15.797-14.062c5.953 21.047 8.953 38.344 8.953 51.891l5.813 14.016c.14.14.281.187.468.187.328 0 .657-.281 1.032-.797l6.843-14.438c.657-.703 1.36-1.078 1.969-1.078.61 0 1.125.281 1.641.938.234 9.609 1.547 19.875 3.984 30.797.703 3.468 2.11 6.093 4.266 8.015l4.125 2.531c4.547 2.25 10.547 3.563 18.141 3.844l9.844 5.953 10.594 2.25c9.375 5.719 20.578 9.891 33.609 12.516 6.984 3.938 11.766 6.375 14.344 7.266 44.578 10.781 73.547 18.656 86.859 23.719l64.594 7.969h1.125c11.765 0 28.359-1.782 49.781-5.438 4.499-.281 8.249-.422 11.062-.422 2.671 0 4.593.141 5.765.375 3.75.516 6.094 1.172 6.985 1.875 3.796 7.219 7.171 11.437 9.984 12.562 24.61 1.969 39.328 3.375 44.016 4.266zm-87.51-514.453c-36.609-37.5-61.64-64.828-75.234-81.984l-2.062-3.281c12.469 2.719 23.672 7.125 33.703 13.219 21.985 14.062 43.266 30.515 63.797 49.312 21.89 14.813 40.312 26.437 55.406 34.875l56.766 58.5 14.953 16.5 26.016 23.672c8.906 4.827 15.563 8.812 19.922 11.859 45.891 35.532 71.906 55.453 78 59.766-.797.422-2.391 3.234-4.781 8.578a208.509 208.509 0 0 0-8.344-3.844c.937 5.531 2.109 11.484 3.516 17.906l-1.219 5.812c-.188.047-.375.094-.516 0l-11.484-14.109c-1.687-1.125-3.562-2.578-5.625-4.265l-9.937-8.719-9.235-16.266c-3.047-4.171-6.516-7.64-10.547-10.359-4.125 9.844-5.719 16.875-4.734 21.094l12.562 26.203-8.11 18.656c-.421.281-.984.234-1.734-.187-12.187-8.157-18.89-12.891-20.062-14.25-1.031-.704-1.922-1.032-2.625-.938-.703-.234-2.062.938-4.031 3.609-1.594 6.657-3.141 10.875-4.594 12.703-1.641 1.875-3.422 2.438-5.484 1.735 2.25-3.375 3.14-6.047 2.812-7.922-1.828-2.719-5.343-7.078-10.453-13.125-1.078-1.125-4.641-3.891-10.641-8.297-.797-.656-1.453-1.594-1.922-2.859 4.641-13.922 7.266-23.204 7.828-27.938l-.843-29.25-2.954-4.735-7.265-9.234-11.062-24.047-1.875-2.438c-40.5-41.719-66.89-67.781-79.078-78.047-11.296-7.969-19.594-12.609-24.984-13.969 39 40.546 66.75 72.14 83.203 94.734 10.219 17.296 18.094 36.468 23.625 57.562-6.141-7.969-19.125-19.969-39-36.094l-13.594-15.188-50.203-73.031c-1.5-1.218-1.875.188-1.219 4.219-.141 1.454 2.391 10.735 7.547 27.938-.141.703-1.781-.656-4.875-4.078-9.609-12.094-22.734-32.109-39.328-60zm-24.327 98.848c-1.078-.516-1.781.094-2.062 1.875l.843 27.797c-4.875-10.782-8.906-18.375-12.047-22.688-4.922-7.078-12.094-15.985-21.469-26.719a72.026 72.026 0 0 1-6.797-12c-2.437-7.64-5.578-25.078-9.468-52.359-4.219-17.484-7.875-30.328-10.875-38.531-1.782-4.594-4.079-8.25-7.032-10.969-1.641-2.25-5.297-3.937-10.969-5.156.047.89.094 1.734.047 2.484-1.172 10.031-1.781 16.5-1.828 19.406-.187 2.016-.047 5.391.422 10.078 2.625 15.422 5.719 28.594 9.375 39.516.188-.047 1.266 9.094 3.234 27.422l4.407 21.656c.234 2.813.047 4.641-.563 5.485-.797.984-1.64.89-2.531-.282-1.875-1.64-6.281-10.359-13.172-26.109-2.953-4.593-4.734-6.093-5.484-4.5-.094.282 0 .844.187 1.688 1.922 7.688 3.516 14.203 4.734 19.547.891 4.125 1.5 7.219 1.875 9.375 2.532 14.437 3.844 24.421 3.891 29.906a126.351 126.351 0 0 1-1.031 15.094L692.81 527.2l-2.343 16.828c-.469 1.219-.844 1.781-1.172 1.453-.703 0-1.454-1.594-2.297-4.734-1.688-6.469-2.766-12.235-3.235-17.297-.328-3.141-.515-6.516-.609-10.078.187-5.156.609-10.734 1.312-16.734.094-1.407.047-3.563-.14-6.469-4.547-28.406-7.453-54.938-8.578-79.547-.61-12.187-.563-21.609 0-28.312.094-1.969 1.312-11.859 3.609-29.531.422-4.266.563-7.266.422-9l-1.406 6.375c-.844-12.75-1.547-19.875-2.11-21.328-1.078-3.61-3.843-9.141-8.39-16.641-.797-1.641-1.641-3.75-2.391-6.422-.187-.891-.094-5.25.235-13.172.14-1.641.375-2.531.703-2.672h.047c3.937 9.797 6.328 15.047 7.125 15.891a313.434 313.434 0 0 1 7.64 9.469c.328-.235.75-.422 1.172-.61 3.844-1.218 7.594-1.921 11.25-2.062h.563c9.188-1.125 27 11.062 53.438 36.656l15 20.016c3.14 4.266 6.093 8.578 8.812 12.938 12.468 27.281 19.078 40.734 19.734 40.406 1.687 3.468 17.531 18.89 47.531 46.312l29.109 33.938c13.125 16.5 20.625 26.718 22.5 30.609 2.859 5.062 5.109 9.609 6.75 13.734.797 2.719.563 3.89-.75 3.515-.562 0-1.641-.468-3.141-1.312-22.031-16.875-33.89-25.219-35.484-25.125-15.047-4.547-27.703-6.844-37.969-6.797-2.906-.656-5.578-1.641-8.062-2.953L773.06 478.45zM395.11 591.741c-1.218 1.828-3.14 3.937-5.625 6.422l-20.719 19.125c0 .421 1.453.234 4.407-.469l29.906-9.656c2.156-.141 3.14.422 2.953 1.687l-.235 1.125-9.515 12.562c-9.281 15.375-15.375 24.937-18.281 28.781-3.985 5.297-9.001 10.547-15.094 15.703-3.094-6.843-7.313-12.468-12.656-16.828-2.11-1.219-5.11-2.672-9.141-4.312-7.781-6.329-12.937-9.844-15.375-10.594l-2.906-.657-6.281 1.5c-4.36-2.671-7.453-4.453-9.328-5.437-2.204-1.031-3.844-1.5-4.922-1.453-3.891.75-8.157 3.703-12.797 8.859l-8.438-5.25-7.687-18.562c-.75-.937-1.875-2.109-3.375-3.469 10.735-2.953 23.11-5.39 37.219-7.265 4.969-1.313 10.266-3.188 15.938-5.719 25.687-11.953 43.405-20.485 53.062-25.594 2.766-1.594 14.016-9.469 33.75-23.719l14.344-9.047.937-.281h.234c.235 0 .563.14.938.328l-10.594 15.844c-9.844 18.563-16.782 30.656-20.719 36.375zm-20.437-18.884v-.047h.047zm162.277-60.046c8.062-23.672 13.171-40.501 15.281-50.438l5.765-48.469c-10.406 7.312-23.015 28.406-37.734 63.281-.468.234-.703.094-.75-.469l.563-21.469c.234-3.328.984-7.969 2.25-13.969-3.89 9.797-13.593 24.234-29.109 43.406-3.235 2.438-15.563 8.578-36.891 18.422-2.343 1.219-7.687 5.016-16.031 11.297 7.031-10.641 14.765-20.531 23.203-29.625 5.578-3.422 11.999-8.297 19.312-14.625l14.156-16.406c6.14-10.5 13.64-21.421 22.359-32.859l36.234-39.984 66.656-57.188a4.093 4.093 0 0 1 1.875-.891h.187c5.157 3.375 5.344 13.5.657 30.375-5.812 20.297-11.906 39.797-18.281 58.5-10.265 25.172-20.203 48-29.859 68.484-4.453 11.907-9.047 33.703-13.781 65.391l-10.031 32.812c-6.187 14.485-19.874 36.375-41.062 65.719-.375-.047-.328-.984.234-2.859 3.75-8.718 6.328-15.422 7.734-20.109 2.016-6.375 3.844-13.219 5.485-20.625l2.25-15.656c.422-19.219.984-31.828 1.781-37.828l7.547-34.219zm-375.359 18.184c-2.203-13.781-4.453-23.672-6.797-29.719 8.063-2.437 24.235-11.062 48.516-25.781 38.579-22.547 65.626-39.61 81.188-51.188 38.762-26.438 73.543-55.688 104.34-87.797 4.171-3.093 7.64-4.687 10.406-4.734h.141a1.773 1.773 0 0 1 1.593.422c2.812-.844 8.484-.328 17.156 1.687 3.656 4.313 18.188 9.985 43.594 17.016 13.36 3.938 25.453 5.86 36.141 5.719 3.75-.047 7.125-.469 10.125-1.125l25.125-11.297 63.188-34.547c7.875-5.25 18.375-13.593 31.406-25.031 5.157-3.75 9.282-6.515 12.422-8.39 3.235-2.391 10.641-3.563 22.266-3.657l4.688-.047c17.203-.468 28.312 1.547 33.375 6.094l-39.984.657c-8.719 1.687-14.578 3.609-17.531 5.671-2.766 1.5-5.063 5.953-6.844 13.453l-19.125 10.172c-6.188 7.922-10.219 12.422-12.047 13.547l-50.766 36-25.172 21.938c-7.5 10.454-12.75 17.016-15.656 19.641a104.98 104.98 0 0 1-22.266 15.844c-.75-.468-.234-2.39 1.594-5.812 9.891-19.031 15.797-29.625 17.719-31.734.469-.422.703-.563.656-.328 7.125-7.875 11.625-12.609 13.594-14.062a161.284 161.284 0 0 1 10.781-9.047 280.456 280.456 0 0 1 11.156-8.016l-3.281 1.735c-1.078.468-2.156.937-3.328 1.312-10.36 2.719-15.751 4.219-16.266 4.594-12.375 6.844-21.141 11.344-26.297 13.5l-10.312 5.625c-9.282 7.407-22.219 15.797-38.766 25.219-.516-.188-.516-.656-.047-1.313l11.391-16.125 1.875-3.375c1.594-2.765 3.141-7.499 4.594-14.203-4.828.891-10.547 3-17.203 6.282-2.532 1.407-10.594 7.828-24.188 19.266l4.218-13.453 9.094-15.984c.516-1.453.516-2.578.047-3.422-.094-.61-1.875-1.922-5.25-3.844-.375-.281-4.453-1.641-12.281-4.125-5.625-4.313-10.172-6.656-13.547-7.078-1.594-.375-4.031-.375-7.219 0l-20.297 41.391.657 20.156c-6.656 6.422-13.688 14.906-21.094 25.406 1.734 2.344 9.047.703 22.031-4.875 6.047-2.532 19.406-9.282 40.078-20.344 2.953 1.219 1.593 4.266-4.125 9.234l-17.906 12.844c-44.672 18.75-70.641 30.75-77.953 36-2.438 1.125-17.719 13.406-45.75 36.844l-38.531 22.734c-2.203.657-2.391-1.078-.563-5.203l23.156-38.438c1.734-2.953 1.5-4.453-.703-4.406-16.125 14.484-28.032 24.046-35.719 28.734L191.26 518.81z" style="stroke-width:1"/></svg>