<!-- Generated by IcoMoon.io -->
<svg version="1.1" xmlns="http://www.w3.org/2000/svg" width="32" height="32" viewBox="0 0 32 32">
<path d="M4.262 12.199h-0.347c0-0.356 0.15-0.551 0.266-0.712 0.104-0.138 0.197-0.253 0.197-0.494s-0.081-0.356-0.185-0.505c-0.116-0.149-0.266-0.345-0.266-0.712 0-0.356 0.15-0.551 0.266-0.701 0.104-0.138 0.197-0.253 0.197-0.494h0.347c0 0.356-0.15 0.551-0.266 0.701-0.104 0.138-0.197 0.253-0.197 0.494s0.081 0.356 0.197 0.494c0.116 0.149 0.266 0.345 0.266 0.712s-0.15 0.551-0.266 0.712c-0.116 0.149-0.208 0.253-0.208 0.505zM6.331 12.13h-0.347c0-0.356 0.15-0.551 0.266-0.712 0.104-0.138 0.196-0.253 0.196-0.494s-0.081-0.356-0.196-0.494c-0.116-0.149-0.266-0.345-0.266-0.712 0-0.356 0.15-0.551 0.266-0.701 0.104-0.138 0.196-0.253 0.196-0.494h0.347c0 0.356-0.15 0.551-0.266 0.701-0.104 0.138-0.197 0.253-0.197 0.494s0.081 0.356 0.197 0.494c0.116 0.149 0.266 0.345 0.266 0.712 0 0.356-0.15 0.551-0.266 0.712-0.116 0.138-0.197 0.253-0.197 0.494zM2.077 12.13h-0.347c0-0.356 0.15-0.551 0.266-0.712 0.104-0.138 0.197-0.253 0.197-0.494s-0.081-0.356-0.196-0.494c-0.116-0.149-0.266-0.345-0.266-0.712 0-0.356 0.15-0.551 0.266-0.701 0.104-0.138 0.196-0.253 0.196-0.494h0.347c0 0.356-0.15 0.551-0.266 0.701-0.104 0.138-0.196 0.253-0.196 0.494s0.081 0.356 0.196 0.494c0.116 0.149 0.266 0.345 0.266 0.712 0 0.356-0.15 0.551-0.266 0.712-0.116 0.138-0.196 0.253-0.196 0.494zM5.984 4.25c0 0.799-0.652 1.447-1.457 1.447s-1.457-0.648-1.457-1.447c0-0.799 0.652-1.447 1.457-1.447s1.457 0.648 1.457 1.447zM4.736 5.985v1.689c0.001 0.114-0.093 0.207-0.208 0.207-0.115 0.001-0.209-0.092-0.208-0.207v-1.677c0.069 0.011 0.139 0.011 0.208 0.011s0.139-0.011 0.208-0.023zM3.152 5.341c0.081 0.103 0.173 0.195 0.289 0.287l-1.191 1.183c-0.038 0.039-0.090 0.060-0.144 0.060s-0.106-0.022-0.145-0.060c-0.081-0.080-0.081-0.207 0-0.287l1.191-1.183zM7.094 6.525c0.081 0.080 0.081 0.207 0 0.287-0.038 0.039-0.090 0.060-0.144 0.060s-0.106-0.022-0.145-0.060l-1.191-1.183c0.108-0.084 0.205-0.18 0.289-0.287l1.191 1.183zM8.169 4.262c0.001 0.114-0.093 0.207-0.208 0.207h-1.688c0.012-0.069 0.012-0.138 0.012-0.207s0-0.138-0.012-0.207h1.688c0.116 0 0.197 0.092 0.208 0.207zM2.782 4.457h-1.688c-0.115 0-0.209-0.092-0.208-0.207s0.093-0.207 0.208-0.207h1.688c-0.012 0.069-0.012 0.138-0.012 0.207s0 0.138 0.012 0.207zM5.615 2.883l1.191-1.183c0.038-0.039 0.090-0.060 0.145-0.060s0.106 0.022 0.144 0.060c0.081 0.080 0.081 0.207 0 0.287l-1.191 1.183c-0.081-0.103-0.173-0.207-0.289-0.287zM1.962 1.987c-0.039-0.038-0.061-0.089-0.061-0.144s0.022-0.106 0.061-0.144c0.038-0.039 0.090-0.060 0.145-0.060s0.106 0.022 0.144 0.060l1.191 1.183c-0.107 0.084-0.204 0.18-0.289 0.287l-1.191-1.183zM4.32 2.527v-1.677c-0-0.114 0.093-0.207 0.208-0.207s0.209 0.092 0.208 0.207v1.666c-0.069-0.012-0.139-0.012-0.208-0.012s-0.139 0.012-0.208 0.023z"></path>
<path d="M27.761 7.578c0.23 0 0.417 0.392 0.417 0.621s-0.188 0.414-0.417 0.414c-0.231-0-0.416-0.185-0.416-0.414s0.186-0.621 0.416-0.621zM26.928 9.959c0 0.229-0.186 0.414-0.417 0.414s-0.416-0.185-0.416-0.414 0.186-0.621 0.416-0.621c0.231 0 0.417 0.392 0.417 0.621zM24.431 9.959c0 0.229-0.186 0.414-0.416 0.414s-0.417-0.185-0.417-0.414c0-0.229 0.186-0.621 0.417-0.621s0.416 0.392 0.416 0.621zM25.677 8.51c0 0.229-0.187 0.414-0.416 0.414s-0.417-0.185-0.417-0.414c0-0.229 0.186-0.621 0.417-0.621 0.229 0 0.416 0.392 0.416 0.621zM23.184 8.2c0 0.229-0.187 0.414-0.417 0.414s-0.417-0.185-0.417-0.414 0.186-0.621 0.417-0.621c0.23 0 0.417 0.392 0.417 0.621zM27.154 2.543c0.1-0.031 0.202-0.046 0.305-0.046 0.572 0 1.034 0.459 1.034 1.025-0.001 0.116-0.021 0.231-0.061 0.341 0.366 0.291 0.578 0.731 0.579 1.197 0 0.408-0.164 0.799-0.454 1.087-0.292 0.289-0.687 0.451-1.098 0.451-0.298-0-0.59-0.086-0.841-0.246-0.779 0.67-1.935 0.67-2.714 0-0.251 0.161-0.544 0.246-0.842 0.246-0.411 0-0.806-0.162-1.097-0.451s-0.455-0.679-0.455-1.087c0.001-0.465 0.215-0.905 0.58-1.195-0.040-0.11-0.061-0.225-0.063-0.342 0-0.566 0.463-1.025 1.034-1.025 0.105 0 0.209 0.016 0.31 0.047 0.395-0.663 1.112-1.071 1.89-1.072 0.778 0 1.497 0.407 1.893 1.071zM21.101 1.058c0 0.229-0.187 0.414-0.417 0.414s-0.417-0.185-0.417-0.414c0-0.229 0.186-0.414 0.417-0.414s0.417 0.185 0.417 0.414zM19.606 2.918c-0.113-0.020-0.189-0.127-0.169-0.24 0.028-0.157 0.216-0.225 0.339-0.123 0.057 0.047 0.084 0.122 0.071 0.194-0.020 0.113-0.128 0.188-0.241 0.168zM30.893 1.886c0.055 0 0.109 0.022 0.148 0.061s0.062 0.091 0.062 0.146c0 0.055-0.022 0.108-0.062 0.147s-0.092 0.061-0.148 0.061h-0.209c-0.115 0-0.209-0.093-0.208-0.207 0-0.055 0.022-0.107 0.061-0.146s0.092-0.061 0.147-0.061h0.209zM29.851 1.886c0.055 0 0.109 0.022 0.147 0.061 0.040 0.039 0.062 0.091 0.062 0.146 0 0.114-0.093 0.207-0.209 0.207h-0.208c-0.056 0-0.109-0.022-0.147-0.061-0.040-0.039-0.061-0.091-0.061-0.147s0.021-0.107 0.061-0.146c0.038-0.039 0.091-0.061 0.147-0.061h0.208zM30.415 2.361c0.039 0.038 0.061 0.091 0.061 0.146v0.207c0 0.055-0.022 0.108-0.061 0.146s-0.092 0.061-0.147 0.061c-0.056 0-0.108-0.022-0.148-0.061-0.038-0.039-0.060-0.092-0.060-0.146v-0.207c0-0.055 0.022-0.107 0.060-0.146s0.093-0.061 0.148-0.061c0.055 0 0.109 0.022 0.147 0.061zM30.415 1.326c0.039 0.038 0.061 0.091 0.061 0.146v0.207c0 0.114-0.093 0.207-0.208 0.207-0.056 0-0.108-0.022-0.148-0.061-0.038-0.039-0.060-0.091-0.060-0.146v-0.207c0-0.055 0.022-0.107 0.060-0.146 0.040-0.039 0.092-0.061 0.148-0.061s0.109 0.022 0.147 0.061zM31.219 3.786c0.046 0.031 0.077 0.080 0.087 0.134 0.002 0.012 0.003 0.024 0.003 0.036 0 0.1-0.073 0.187-0.172 0.204-0.113 0.020-0.221-0.055-0.241-0.168-0.009-0.054 0.003-0.11 0.034-0.155s0.080-0.076 0.134-0.085c0.054-0.010 0.111 0.003 0.156 0.034z"></path>
<path d="M31.97 22.739l0.030 0.030v6.73c0.029 1.549-1.049 2.484-2.258 2.502l-4.365-0.006c1.205-0.542 2.004-0.884 2.394-1.022 0.049-0.022 0.098-0.045 0.146-0.069l-0.257-0.043-0.188-0.032-2.091-0.604c-0.213-0.049-0.566-0.074-1.056-0.078-0.104-0.038-0.233-0.075-0.387-0.114-0.23-0.054-0.422-0.096-0.582-0.126-0.657 0.252-1.269 0.395-1.832 0.428-0.098 0.009-0.204 0.015-0.318 0.015-0.28 0-0.611-0.029-0.991-0.086-0.095 0.011-0.198 0.016-0.306 0.016h-0.011c-0.093 0-0.236-0.014-0.425-0.041l-1.040-0.199c-0.623-0.126-1.192-0.257-1.709-0.392-1.033-0.268-1.855-0.548-2.467-0.84-0.306-0.147-0.559-0.296-0.76-0.448-0.031-0.044-0.041-0.071-0.030-0.081 0.213-0.027 0.378-0.105 0.496-0.237 0.004-0.001 0.008-0.001 0.014-0.001 0.034 0 0.084 0.014 0.148 0.042h0.016c0.020 0 0.035-0.003 0.046-0.009l0.187-0.279c0.033-0.045 0.054-0.067 0.062-0.067 0.004-0.004 0.012-0.007 0.022-0.007 0.035 0 0.1 0.027 0.195 0.081 0.007 0.001 0.014 0.002 0.020 0.001 0.014 0 0.024-0.003 0.035-0.008l0.246-0.358c0.005-0.001 0.009-0.002 0.015-0.002 0.012 0 0.022 0.007 0.030 0.019l0.103 0.285c0.005 0.010 0.011 0.015 0.016 0.015s0.012-0.004 0.019-0.012c0.015-0.032 0.016-0.191 0.005-0.476 0.108-0.455 0.183-0.844 0.219-1.168l0.001-0.12 0.317 1.031c0.057 0.175 0.099 0.272 0.125 0.291 0.006 0.004 0.012 0.005 0.019 0.006 0.008 0 0.015-0.003 0.022-0.008 0.089-0.122 0.152-0.19 0.186-0.203 0.014-0.006 0.029-0.009 0.045-0.009 0.008 0 0.015 0.001 0.023 0.002 0.020 0.003 0.062 0.022 0.127 0.057h0.008c0.009 0 0.019-0.004 0.030-0.010 0.125-0.202 0.2-0.301 0.229-0.301 0.003 0 0.005 0.001 0.007 0.003l0.241 0.273c0.050-0.444 0.096-0.743 0.14-0.898 0.122-0.484 0.204-0.735 0.252-0.751h0.005c0.018 0 0.038 0.016 0.062 0.048 0.149 0.443 0.261 0.693 0.339 0.752l0.236-0.28c0.119 0.014 0.255 0.074 0.404 0.18l0.169-0.056c0.095 0.061 0.157 0.091 0.184 0.091 0.004 0 0.007 0 0.009-0.001 0.062-0.386 0.14-0.615 0.23-0.689 0.085-0.125 0.23-0.225 0.436-0.295 0.011-0.003 0.022-0.004 0.032-0.004 0.111 0 0.305 0.128 0.581 0.382 0.1-0.136 0.161-0.203 0.184-0.203 0.003 0 0.004 0 0.005 0.001 0.187 0.075 0.306 0.113 0.358 0.113 0.005 0 0.012-0.001 0.016-0.003 0.103-0.254 0.181-0.382 0.233-0.382 0.006 0 0.011 0.001 0.016 0.004 0.218 0.328 0.352 0.492 0.405 0.492 0.005 0 0.010-0.002 0.014-0.005 0.13-0.459 0.242-0.771 0.339-0.939l0.36 0.619c0.028 0.047 0.064 0.070 0.102 0.070 0.007 0 0.014 0 0.019-0.001 0.141-0.766 0.237-1.203 0.287-1.312 0.065-0.22 0.137-0.342 0.214-0.366h0.001c0.030 0 0.053 0.024 0.069 0.071l0.282 0.81c0.112 0.148 0.215 0.222 0.309 0.222 0.010-0 0.020-0.001 0.030-0.003-0.030-0.129 0.003-0.661 0.099-1.593 0.014-0.085 0.035-0.128 0.068-0.128 0.005 0 0.011 0 0.016 0.003h0.003c0.042 0.012 0.098 0.067 0.164 0.163 0.125 0.218 0.298 0.483 0.52 0.795 0.111 0.152 0.23 0.288 0.358 0.409 0.028 0.027 0.068 0.055 0.119 0.085 0.142-0.389 0.257-0.879 0.343-1.472 0.347 0.198 0.6 0.377 0.761 0.538 0.007 0.001 0.014 0.002 0.020 0.002 0.015 0 0.026-0.005 0.034-0.016l0.112-0.25c0.008-0.009 0.019-0.014 0.031-0.014 0.010 0 0.020 0.003 0.033 0.008 0-0.001 0-0.003 0.001-0.003 0.012 0 0.117 0.136 0.311 0.409 0.027 0.028 0.057 0.043 0.092 0.046 0.037-0.009 0.060-0.036 0.068-0.081 0.041-0.252 0.092-0.474 0.157-0.665 0.022-0.059 0.051-0.089 0.091-0.089 0.242 0.222 0.39 0.37 0.443 0.447 0.088 0.106 0.154 0.209 0.201 0.306 0.015 0.016 0.032 0.024 0.049 0.024 0.007 0 0.015-0.001 0.022-0.004 0.053-0.014 0.088-0.040 0.108-0.078 0.052-0.423 0.157-0.701 0.317-0.834l0.53 0.56c0.010 0.008 0.018 0.012 0.027 0.012 0.011 0 0.023-0.007 0.035-0.022 0.075-0.134 0.114-0.261 0.118-0.379-0.1-0.017-0.142-0.205-0.126-0.56l0.291-0.65h0.006c0.031 0 0.087 0.063 0.168 0.19 0.233 0.624 0.414 0.982 0.543 1.074 0.020 0.020 0.040 0.030 0.061 0.030 0.006 0 0.010 0 0.015-0.001 0.081-0.067 0.177-0.128 0.287-0.179 0.025-0.026 0.033-0.050 0.025-0.077-0.087-0.066-0.136-0.145-0.149-0.237l0.055-0.522c0.043-0.21 0.149-0.378 0.317-0.503 0.029 0.262 0.274 0.635 0.731 1.114l-0.009-0.553c0.188-0.518 0.269-0.859 0.245-1.024 0.025-0.102 0.107-0.17 0.24-0.203h0.003c0.004-0.003 0.007-0.004 0.010-0.004 0.041 0 0.145 0.14 0.312 0.42 0.094 0.3 0.184 0.557 0.274 0.767 0.068 0.183 0.178 0.375 0.326 0.576 0.015 0.047 0.029 0.089 0.039 0.128l-0 0zM24.231 31.037c0.176 0.025 0.274 0.077 0.29 0.158 0.045 0.136-0.232 0.335-0.829 0.6-0.115 0.054-0.271 0.12-0.467 0.199h-20.767c-1.665 0.057-2.474-0.802-2.458-2.543v-10.080c0.076-0.188 0.172-0.413 0.291-0.678l0.112-0.245c0.287 0.497 0.542 1.315 0.764 2.454 0.014-0.322 0.135-0.747 0.363-1.278 0.068 0.001 0.135 0.077 0.203 0.227 0.051 0.070 0.134 0.375 0.249 0.915l0.52-1.313c0.066-0.144 0.126-0.217 0.183-0.217 0.007 0 0.014 0 0.020 0.003 0.186 0.322 0.324 0.674 0.414 1.054 0.126 0.685 0.165 1.206 0.118 1.561l0.276-0.569c0.161 0.094 0.295 0.279 0.404 0.549l0.798-1.168c0.271 0.328 0.395 1.094 0.376 2.296 0.007 0.012 0.015 0.019 0.024 0.019 0.012 0 0.028-0.012 0.045-0.035l0.279-0.569c0.012-0.016 0.028-0.024 0.045-0.024 0.020 0 0.043 0.012 0.070 0.035 0.387 0.572 0.557 1.064 0.509 1.479 0.085-0.416 0.188-0.623 0.309-0.623 0.015 0 0.031 0.004 0.047 0.011 0.146 0.086 0.307 0.517 0.485 1.295l0.421-0.848c0.039-0.065 0.084-0.097 0.134-0.097h0.012c0.047 0.024 0.099 0.128 0.156 0.31l0.229-0.118 0.287 0.363c0.073-0.036 0.144-0.054 0.214-0.054 0.211 0 0.412 0.161 0.601 0.484 0.040-0.011 0.082-0.016 0.123-0.016 0.118 0 0.24 0.043 0.368 0.128 0.138-0.196 0.246-0.295 0.325-0.295 0.011 0 0.022 0.001 0.031 0.006 0.269 0.265 0.44 0.63 0.511 1.095l0.307-0.188c0.102 0.030 0.253 0.195 0.455 0.497 0.21 0.021 0.336 0.049 0.376 0.079 0.244 0.156 0.389 0.414 0.433 0.776 0.004 0.001 0.008 0.001 0.014 0.001 0.034 0 0.084-0.026 0.149-0.076l0.456-0.404c0.172 0.604 0.259 1.101 0.259 1.49l0.168 0.402c0.004 0.004 0.008 0.006 0.014 0.006 0.009 0 0.019-0.008 0.030-0.023l0.198-0.414c0.019-0.020 0.039-0.031 0.057-0.031s0.032 0.008 0.047 0.027c0.007 0.276 0.045 0.571 0.115 0.884 0.020 0.099 0.061 0.175 0.123 0.23l0.119 0.073c0.131 0.064 0.305 0.102 0.524 0.11l0.284 0.171 0.306 0.065c0.271 0.164 0.594 0.284 0.971 0.359 0.202 0.113 0.34 0.183 0.414 0.209 1.288 0.309 2.125 0.536 2.509 0.681l1.866 0.229h0.032c0.34 0 0.819-0.051 1.438-0.156 0.13-0.008 0.238-0.012 0.32-0.012 0.077 0 0.133 0.004 0.167 0.011 0.108 0.015 0.176 0.033 0.202 0.053 0.11 0.207 0.207 0.329 0.288 0.361 0.711 0.056 1.136 0.097 1.272 0.122h-0zM21.703 16.269c-1.058-1.076-1.781-1.861-2.173-2.353l-0.060-0.094c0.36 0.078 0.684 0.205 0.974 0.379 0.635 0.404 1.25 0.876 1.843 1.416 0.632 0.425 1.165 0.759 1.601 1.001l1.64 1.679 0.432 0.474 0.751 0.68c0.257 0.139 0.45 0.253 0.576 0.34l2.253 1.716c-0.023 0.012-0.069 0.093-0.138 0.246-0.079-0.039-0.16-0.075-0.241-0.11 0.027 0.159 0.061 0.33 0.102 0.514l-0.035 0.167c-0.006 0.001-0.011 0.003-0.015 0l-0.332-0.405c-0.049-0.032-0.102-0.074-0.162-0.122l-0.287-0.25-0.267-0.467c-0.088-0.12-0.188-0.219-0.305-0.297-0.119 0.283-0.165 0.484-0.137 0.605l0.363 0.752-0.234 0.536c-0.012 0.008-0.028 0.007-0.050-0.005-0.352-0.234-0.546-0.37-0.58-0.409-0.030-0.020-0.055-0.030-0.076-0.027-0.020-0.007-0.059 0.027-0.116 0.104-0.046 0.191-0.091 0.312-0.133 0.365-0.047 0.054-0.099 0.070-0.158 0.050 0.065-0.097 0.091-0.174 0.081-0.227-0.053-0.078-0.154-0.203-0.302-0.377-0.031-0.032-0.134-0.112-0.307-0.238-0.023-0.019-0.042-0.046-0.055-0.082 0.134-0.4 0.21-0.666 0.226-0.802l-0.024-0.84-0.085-0.136-0.21-0.265-0.32-0.69-0.054-0.070c-1.17-1.198-1.932-1.946-2.284-2.24-0.326-0.229-0.566-0.362-0.722-0.401 1.127 1.164 1.928 2.071 2.404 2.719 0.295 0.497 0.523 1.047 0.682 1.652-0.177-0.229-0.552-0.573-1.127-1.036l-0.393-0.436-1.45-2.096c-0.043-0.035-0.054 0.005-0.035 0.121-0.004 0.042 0.069 0.308 0.218 0.802-0.004 0.020-0.051-0.019-0.141-0.117-0.278-0.347-0.657-0.922-1.136-1.722l-0 0zM21.001 19.107c-0.031-0.015-0.051 0.003-0.060 0.054l0.024 0.798c-0.141-0.309-0.257-0.527-0.348-0.651-0.142-0.203-0.349-0.459-0.62-0.767-0.076-0.108-0.142-0.224-0.196-0.344-0.070-0.219-0.161-0.72-0.274-1.503-0.122-0.502-0.227-0.871-0.314-1.106-0.052-0.132-0.118-0.237-0.203-0.315-0.047-0.065-0.153-0.113-0.317-0.148 0.001 0.026 0.003 0.050 0.001 0.071-0.034 0.288-0.051 0.474-0.053 0.557-0.005 0.058-0.001 0.155 0.012 0.289 0.076 0.443 0.165 0.821 0.271 1.134 0.005-0.001 0.037 0.261 0.093 0.787l0.127 0.622c0.007 0.081 0.001 0.133-0.016 0.157-0.023 0.028-0.047 0.026-0.073-0.008-0.054-0.047-0.181-0.297-0.381-0.749-0.085-0.132-0.137-0.175-0.158-0.129-0.003 0.008 0 0.024 0.005 0.048l0.137 0.561c0.026 0.118 0.043 0.207 0.054 0.269 0.073 0.414 0.111 0.701 0.112 0.858-0.001 0.145-0.011 0.29-0.030 0.433l-0.114 0.48-0.068 0.483c-0.014 0.035-0.024 0.051-0.034 0.042-0.020 0-0.042-0.046-0.066-0.136-0.049-0.186-0.080-0.351-0.093-0.497-0.009-0.090-0.015-0.187-0.018-0.289 0.005-0.148 0.018-0.308 0.038-0.48 0.003-0.040 0.001-0.102-0.004-0.186-0.131-0.815-0.215-1.577-0.248-2.283-0.018-0.35-0.016-0.62 0-0.813 0.003-0.057 0.038-0.34 0.104-0.848 0.012-0.122 0.016-0.209 0.012-0.258l-0.041 0.183c-0.024-0.366-0.045-0.571-0.061-0.612-0.031-0.104-0.111-0.262-0.242-0.478-0.023-0.047-0.047-0.108-0.069-0.184-0.005-0.026-0.003-0.151 0.007-0.378 0.004-0.047 0.011-0.073 0.020-0.077h0.001c0.114 0.281 0.183 0.432 0.206 0.456 0.075 0.089 0.149 0.18 0.221 0.272 0.009-0.007 0.022-0.012 0.034-0.018 0.111-0.035 0.219-0.055 0.325-0.059h0.016c0.265-0.032 0.78 0.318 1.544 1.052l0.433 0.575c0.091 0.122 0.176 0.246 0.255 0.371 0.36 0.783 0.551 1.169 0.57 1.16 0.049 0.1 0.506 0.542 1.373 1.329l0.841 0.974c0.379 0.474 0.596 0.767 0.65 0.879 0.083 0.145 0.148 0.276 0.195 0.394 0.023 0.078 0.016 0.112-0.022 0.101-0.016 0-0.047-0.013-0.091-0.038-0.636-0.484-0.979-0.724-1.025-0.721-0.435-0.131-0.8-0.196-1.097-0.195-0.084-0.019-0.161-0.047-0.233-0.085l-1.116-1.036zM10.082 22.359c-0.035 0.052-0.091 0.113-0.163 0.184l-0.599 0.549c0 0.012 0.042 0.007 0.127-0.014l0.864-0.277c0.062-0.004 0.091 0.012 0.085 0.048l-0.007 0.032-0.275 0.361c-0.268 0.441-0.444 0.716-0.528 0.826-0.115 0.152-0.26 0.302-0.436 0.451-0.089-0.196-0.211-0.358-0.366-0.483-0.061-0.035-0.148-0.077-0.264-0.124-0.225-0.182-0.374-0.283-0.444-0.304l-0.084-0.019-0.181 0.043c-0.126-0.077-0.215-0.128-0.269-0.156-0.064-0.030-0.111-0.043-0.142-0.042-0.112 0.021-0.236 0.106-0.37 0.254l-0.244-0.151-0.222-0.533c-0.022-0.027-0.054-0.061-0.098-0.1 0.31-0.085 0.668-0.155 1.075-0.209 0.144-0.038 0.297-0.092 0.46-0.164l1.533-0.735c0.080-0.046 0.405-0.272 0.975-0.681l0.414-0.26 0.027-0.008h0.007c0.007 0 0.016 0.004 0.027 0.009l-0.306 0.455c-0.284 0.533-0.485 0.88-0.599 1.044v0zM9.492 21.817v-0.001h0.001l-0.001 0.001zM14.18 20.093c0.233-0.68 0.38-1.163 0.441-1.448l0.167-1.391c-0.301 0.21-0.665 0.815-1.090 1.817-0.014 0.007-0.020 0.003-0.022-0.013l0.016-0.616c0.007-0.096 0.028-0.229 0.065-0.401-0.112 0.281-0.393 0.696-0.841 1.246-0.093 0.070-0.45 0.246-1.066 0.529-0.068 0.035-0.222 0.144-0.463 0.324 0.203-0.305 0.427-0.589 0.67-0.85 0.161-0.098 0.347-0.238 0.558-0.42l0.409-0.471c0.177-0.301 0.394-0.615 0.646-0.943l1.047-1.148 1.926-1.642c0.016-0.013 0.034-0.022 0.054-0.026h0.005c0.149 0.097 0.154 0.388 0.019 0.872-0.168 0.583-0.344 1.142-0.528 1.679-0.297 0.723-0.584 1.378-0.863 1.966-0.129 0.342-0.261 0.968-0.398 1.877l-0.29 0.942c-0.179 0.416-0.574 1.044-1.186 1.887-0.011-0.001-0.009-0.028 0.007-0.082 0.108-0.25 0.183-0.443 0.223-0.577 0.058-0.183 0.111-0.379 0.158-0.592l0.065-0.449c0.012-0.552 0.028-0.914 0.051-1.086l0.218-0.982zM3.336 20.615c-0.064-0.396-0.129-0.68-0.196-0.853 0.233-0.070 0.7-0.318 1.402-0.74 1.115-0.647 1.896-1.137 2.345-1.469 1.12-0.759 2.125-1.599 3.014-2.52 0.121-0.089 0.221-0.135 0.301-0.136h0.004c0.016-0.004 0.034 0.001 0.046 0.012 0.081-0.024 0.245-0.009 0.496 0.048 0.106 0.124 0.525 0.287 1.259 0.488 0.386 0.113 0.735 0.168 1.044 0.164 0.108-0.001 0.206-0.013 0.293-0.032l0.726-0.324 1.825-0.992c0.227-0.151 0.531-0.39 0.907-0.719 0.149-0.108 0.268-0.187 0.359-0.241 0.093-0.069 0.307-0.102 0.643-0.105l0.135-0.001c0.497-0.013 0.818 0.044 0.964 0.175l-1.155 0.019c-0.252 0.048-0.421 0.104-0.506 0.163-0.080 0.043-0.146 0.171-0.198 0.386l-0.553 0.292c-0.179 0.227-0.295 0.357-0.348 0.389l-1.467 1.033-0.727 0.63c-0.217 0.3-0.368 0.488-0.452 0.564-0.194 0.179-0.41 0.332-0.643 0.455-0.022-0.013-0.007-0.069 0.046-0.167 0.286-0.546 0.456-0.85 0.512-0.911 0.014-0.012 0.020-0.016 0.019-0.009 0.206-0.226 0.336-0.362 0.393-0.404 0.1-0.091 0.204-0.178 0.311-0.26 0.106-0.079 0.213-0.156 0.322-0.23l-0.095 0.050c-0.031 0.013-0.062 0.027-0.096 0.038-0.299 0.078-0.455 0.121-0.47 0.132-0.357 0.196-0.611 0.326-0.76 0.388l-0.298 0.161c-0.268 0.213-0.642 0.453-1.12 0.724-0.015-0.005-0.015-0.019-0.001-0.038l0.329-0.463 0.054-0.097c0.046-0.079 0.091-0.215 0.133-0.408-0.139 0.026-0.305 0.086-0.497 0.18-0.073 0.040-0.306 0.225-0.699 0.553l0.122-0.386 0.263-0.459c0.015-0.042 0.015-0.074 0.001-0.098-0.003-0.018-0.054-0.055-0.152-0.11-0.011-0.008-0.129-0.047-0.355-0.118-0.162-0.124-0.294-0.191-0.391-0.203-0.046-0.011-0.116-0.011-0.209 0l-0.586 1.188 0.019 0.579c-0.192 0.184-0.395 0.428-0.609 0.729 0.050 0.067 0.261 0.020 0.636-0.14 0.175-0.073 0.561-0.266 1.158-0.584 0.085 0.035 0.046 0.122-0.119 0.265l-0.517 0.369c-1.29 0.538-2.041 0.883-2.252 1.033-0.070 0.032-0.512 0.385-1.322 1.058l-1.113 0.653c-0.064 0.019-0.069-0.031-0.016-0.149l0.669-1.103c0.050-0.085 0.043-0.128-0.020-0.126-0.466 0.416-0.81 0.69-1.032 0.825l-0.92 0.505-0.857 0.35z"></path>
</svg>
