<?xml version="1.0" encoding="utf-8"?>
<svg version="1.1" viewBox="0 0 1200 1200" xmlns="http://www.w3.org/2000/svg" width="150pt" height="150pt">
  <path d="M 437.621 355.4 C 439.684 352.822 440.293 349.447 439.262 346.353 C 438.231 343.259 435.746 340.869 432.559 340.025 C 432.419 339.181 407.012 339.931 405.747 339.65 L 473.435 226.87 C 475.403 223.589 475.216 219.464 473.013 216.37 L 473.013 216.323 C 469.966 209.339 452.481 212.854 442.872 212.058 L 505.684 120.277 L 568.496 212.058 L 546.934 212.058 C 543.606 212.058 540.559 213.698 538.731 216.464 C 536.949 219.183 536.668 222.698 537.981 225.698 C 538.028 226.12 538.121 226.495 538.356 226.87 L 538.403 226.87 L 605.856 339.65 C 604.543 339.744 579.09 339.322 578.809 340.025 C 575.668 340.869 573.137 343.259 572.105 346.353 C 571.121 349.447 571.73 352.822 573.746 355.4 L 626.058 443.853 C 546.658 460.212 464.724 460.212 385.318 443.853 L 437.63 355.4 Z M 490.31 475.36 C 500.435 475.594 510.935 475.735 521.06 475.36 L 521.013 578.02 L 490.31 578.02 Z M 433.913 930.556 C 321.283 954.65 204.793 954.65 92.103 930.556 L 167.15 803.946 C 168.697 801.696 169.259 798.884 168.603 796.212 C 167.994 793.587 166.259 791.29 163.869 789.978 C 149.057 788.384 134.197 787.915 119.338 788.618 L 215.197 628.778 C 217.259 625.825 217.494 621.981 215.806 618.794 C 214.119 615.559 210.837 613.591 207.228 613.591 L 169.869 613.591 L 263.01 477.461 L 356.151 613.591 L 319.589 613.591 C 316.683 613.591 313.87 614.856 312.042 617.153 C 310.167 619.403 309.464 622.403 310.073 625.263 C 310.214 626.341 310.542 627.419 311.058 628.403 L 370.167 727.169 L 406.917 788.622 L 366.839 788.622 C 363.276 788.669 359.995 790.732 358.307 793.919 C 356.667 797.106 356.854 800.997 358.87 803.95 Z M 263.02 968.06 C 270.614 968.154 280.13 968.06 287.489 967.685 L 287.489 1116.045 L 238.317 1116.045 L 238.317 967.685 C 246.473 967.872 254.864 968.06 263.02 968.06 Z M 930.751 450.48 L 1027.782 592.22 L 989.86 592.22 C 986.673 591.986 983.579 593.298 981.517 595.736 L 981.47 595.736 L 950.767 632.861 L 921.986 582.517 C 920.017 579.142 916.22 577.314 912.376 577.829 C 908.533 578.298 905.345 581.064 904.314 584.814 L 904.267 584.814 L 897.095 612.236 C 890.72 605.486 883.97 599.064 876.892 593.017 C 877.079 591.423 835.173 592.548 833.72 592.22 Z M 1107.914 919.868 C 991.154 944.712 870.404 944.712 753.634 919.868 L 827.322 795.418 L 856.9 809.621 C 859.713 810.84 862.947 810.699 865.619 809.199 L 865.666 809.246 L 919.713 779.668 L 943.807 803.762 C 946.713 806.668 951.166 807.465 954.869 805.731 L 954.916 805.731 L 977.463 794.856 L 996.119 816.418 C 999.447 820.309 1005.354 820.871 1009.338 817.59 L 1009.338 817.543 L 1035.4 797.34 Z M 987.754 618.66 L 1080.098 773.26 L 1038.098 773.26 C 1035.895 773.166 1033.785 773.87 1032.051 775.229 L 1004.629 796.604 L 987.332 776.588 C 984.473 773.26 979.785 772.322 975.848 774.244 L 975.895 774.291 L 952.739 785.166 L 928.411 760.838 C 925.364 757.697 920.583 756.947 916.739 759.057 L 860.77 789.807 C 848.63 783.619 836.161 778.088 823.411 773.26 L 781.833 773.26 L 875.161 617.68 L 895.552 637.93 C 897.989 640.414 901.599 641.352 904.927 640.414 C 908.302 639.477 910.88 636.852 911.677 633.43 L 911.723 633.477 L 917.161 613.039 L 940.88 654.851 C 942.427 657.569 945.239 659.351 948.38 659.632 C 951.521 659.866 954.614 658.601 956.63 656.21 Z M 930.74 957.977 C 938.99 958.024 948.787 957.93 956.99 957.555 L 956.99 1124.995 L 904.678 1124.995 L 904.678 957.605 C 913.443 957.792 921.974 957.98 930.74 957.98 Z M 541.442 800.282 C 539.942 810.735 544.16 821.188 552.551 827.657 L 885.231 1084.347 L 885.231 1105.535 L 522.421 1105.535 L 413.901 954.315 C 425.76 949.815 465.932 952.44 457.448 932.331 L 383.76 808.071 L 424.026 808.071 C 427.495 808.071 430.729 806.243 432.51 803.196 C 434.245 800.196 434.198 796.446 432.37 793.446 L 392.526 726.555 L 644.526 640.258 C 652.822 637.305 659.432 630.836 662.432 622.539 C 665.432 614.242 664.588 605.055 660.088 597.461 L 660.041 597.461 L 583.822 470.481 C 599.572 468.512 615.322 465.794 631.072 462.7 L 810.932 591.04 C 807.838 595.259 803.526 601.071 806.666 606.415 C 808.401 609.649 811.776 611.712 815.432 611.665 L 855.885 611.665 L 814.073 681.462 L 560.153 776.946 C 550.122 780.696 542.95 789.649 541.45 800.29 Z M 846.37 286.92 C 810.604 286.639 781.776 257.53 781.776 221.811 C 781.776 186.046 810.604 156.983 846.37 156.655 C 882.089 156.983 910.917 186.045 910.917 221.811 C 910.917 257.529 882.089 286.639 846.37 286.92 Z M 846.37 134.29 C 843.792 134.29 841.355 133.259 839.526 131.431 C 837.698 129.602 836.667 127.165 836.667 124.587 L 836.667 84.696 C 836.667 82.118 837.651 79.633 839.479 77.805 C 841.307 75.93 843.792 74.899 846.37 74.899 C 848.995 74.899 851.479 75.93 853.307 77.805 C 855.136 79.633 856.12 82.118 856.12 84.696 L 856.12 124.587 C 856.12 127.165 855.089 129.602 853.261 131.431 C 851.432 133.259 848.948 134.29 846.37 134.29 Z M 915.14 162.74 C 911.25 162.694 907.734 160.303 906.234 156.694 C 904.734 153.131 905.531 148.959 908.25 146.147 L 936.469 117.975 C 945.234 108.881 959.249 122.943 950.203 131.709 L 922.031 159.927 C 920.202 161.756 917.718 162.74 915.14 162.74 Z M 933.89 221.81 C 933.89 219.232 934.921 216.748 936.749 214.919 C 938.577 213.091 941.062 212.06 943.64 212.06 L 983.484 212.06 C 986.062 212.06 988.546 213.091 990.421 214.873 C 992.25 216.701 993.281 219.185 993.281 221.81 C 993.281 224.388 992.25 226.873 990.421 228.701 C 988.546 230.529 986.062 231.56 983.484 231.513 L 943.64 231.513 C 941.062 231.513 938.577 230.482 936.749 228.654 C 934.921 226.872 933.89 224.388 933.89 221.81 Z M 943.31 328.449 C 940.732 328.449 938.248 327.418 936.42 325.59 L 908.248 297.418 C 904.451 293.622 904.451 287.481 908.248 283.684 C 912.044 279.887 918.232 279.887 922.029 283.684 L 950.201 311.856 C 952.919 314.669 953.669 318.794 952.216 322.403 C 950.716 326.012 947.201 328.403 943.31 328.45 Z M 846.38 368.436 C 841.13 368.436 836.771 364.17 836.677 358.92 L 836.677 319.029 C 836.677 316.451 837.661 313.966 839.489 312.091 C 841.317 310.263 843.802 309.232 846.38 309.232 C 849.005 309.232 851.489 310.263 853.317 312.091 C 855.146 313.966 856.13 316.451 856.13 319.029 L 856.13 358.92 C 856.036 364.17 851.677 368.436 846.38 368.436 Z M 784.494 297.424 L 756.322 325.596 C 752.525 329.393 746.385 329.392 742.588 325.596 C 738.791 321.799 738.791 315.659 742.588 311.862 L 770.76 283.69 C 779.572 274.643 793.541 288.658 784.494 297.424 Z M 699.794 221.817 C 699.794 216.52 704.013 212.208 709.31 212.067 L 749.154 212.067 C 754.498 212.114 758.81 216.473 758.81 221.817 C 758.81 227.161 754.498 231.473 749.154 231.52 L 709.31 231.52 C 704.013 231.426 699.794 227.114 699.794 221.817 Z M 742.589 131.72 C 738.792 127.924 738.792 121.783 742.589 117.986 C 746.385 114.189 752.526 114.189 756.323 117.986 L 784.495 146.158 C 788.198 150.002 788.104 156.049 784.401 159.799 C 780.651 163.549 774.557 163.596 770.76 159.94 Z"/>
</svg>