<!-- Generated by IcoMoon.io -->
<svg version="1.1" xmlns="http://www.w3.org/2000/svg" width="32" height="32" viewBox="0 0 32 32">
<path d="M13.803 10.602c0-1.214 0.985-2.201 2.197-2.201s2.196 0.987 2.196 2.201c0 1.213-0.985 2.2-2.196 2.2s-2.197-0.987-2.197-2.2zM12.927 15.306c-0.839-1.607-1.248-3.066-1.213-4.336 0.062-2.259 0.838-3.736 2.374-4.517 1.175-0.596 2.648-0.596 3.823 0 1.536 0.781 2.313 2.258 2.374 4.517 0.035 1.27-0.373 2.729-1.213 4.335-0.723 1.383-1.612 2.582-2.23 3.343-0.289 0.357-0.532 0.636-0.687 0.81l-0.156 0.174-0.157-0.174c-0.155-0.174-0.398-0.453-0.687-0.81-0.618-0.762-1.508-1.96-2.23-3.343zM16 13.222c1.442 0 2.614-1.176 2.614-2.62s-1.173-2.62-2.614-2.62c-1.443 0-2.615 1.175-2.615 2.62s1.173 2.62 2.615 2.62zM8.714 24.261l2.796-8.648h1.105l0.117 0.209c0.109 0.198 0.22 0.391 0.333 0.579l0.051 0.087c0.129 0.212 0.259 0.416 0.39 0.614l0.096 0.143c0.113 0.17 0.224 0.331 0.333 0.484l0.063 0.089c0.128 0.179 0.253 0.348 0.374 0.506l0.197 0.261-0.295 0.104c-0.102 0.024-0.167 0.040-0.232 0.058l-0.061 0.017c-0.082 0.023-0.162 0.047-0.241 0.076l-0.119-0.179 0.072 0.197c-0.065 0.024-0.127 0.049-0.19 0.077l-0.057 0.026c-0.070 0.033-0.138 0.069-0.202 0.108-0.080 0.052-0.128 0.087-0.173 0.125l-0.038 0.034c-0.053 0.048-0.092 0.092-0.123 0.133-0.034 0.053-0.056 0.096-0.075 0.146-0.032 0.102-0.040 0.153-0.040 0.203 0 1.573 6.411 1.573 6.411 0 0-0.049-0.008-0.101-0.027-0.163-0.032-0.090-0.054-0.133-0.081-0.171-0.038-0.057-0.078-0.1-0.13-0.148l-0.033-0.029c-0.050-0.043-0.098-0.078-0.15-0.111-0.092-0.058-0.16-0.094-0.231-0.128l-0.056-0.025c-0.063-0.028-0.126-0.053-0.191-0.078l0.023-0.215-0.070 0.198c-0.078-0.028-0.158-0.052-0.238-0.076l-0.062-0.017c-0.067-0.018-0.133-0.034-0.198-0.049l-0.315-0.073 0.157-0.267c0.145-0.192 0.27-0.36 0.398-0.539l0.063-0.089c0.109-0.153 0.22-0.314 0.332-0.482l0.098-0.146c0.131-0.198 0.262-0.403 0.391-0.616l0.051-0.087c0.113-0.188 0.223-0.381 0.333-0.579l0.117-0.208h1.105l2.796 8.648zM13.67 18.644v-0.001zM29.641 19.5l-1.828-3.888h-6.885l1.258 3.888zM27.847 24.261h4.032l-2.041-4.34h-3.538zM22.322 19.92l1.403 4.34h3.679l-1.547-4.34zM16.325 19.895l0.768-0.891 0.333 0.053c0.060 0.011 0.121 0.023 0.177 0.036 0.042 0.008 0.083 0.018 0.123 0.027 0.052 0.013 0.104 0.026 0.153 0.040l0.104 0.030c0.046 0.015 0.089 0.029 0.132 0.044l0.087 0.031c0.037 0.014 0.071 0.029 0.105 0.043l0.073 0.032c0.032 0.015 0.061 0.031 0.088 0.045l0.056 0.032c0.031 0.017 0.057 0.035 0.081 0.053 0.068 0.051 0.098 0.078 0.12 0.106l0.108 0.133-0.108 0.133c-0.218 0.267-1.208 0.644-2.727 0.644s-2.51-0.377-2.728-0.644l-0.107-0.133 0.107-0.133c0.023-0.027 0.052-0.055 0.089-0.084 0.055-0.040 0.081-0.058 0.113-0.077l0.037-0.021c0.044-0.023 0.072-0.039 0.105-0.054l0.048-0.022c0.059-0.025 0.093-0.040 0.133-0.055l0.072-0.027c0.054-0.018 0.098-0.032 0.145-0.047l0.102-0.030c0.049-0.014 0.101-0.027 0.155-0.040 0.038-0.009 0.080-0.019 0.123-0.028 0.056-0.012 0.116-0.024 0.178-0.035l0.298-0.047 0.19 0.18 0.612 0.703c0.168 0.184 0.484 0.183 0.652 0.001zM18.374 19.574v0.001zM-0.001 24.68v1.314h32.001v-1.314zM9.677 19.92h-7.516l-2.041 4.34h8.155zM9.813 19.5l1.258-3.888h-3.537l-1.385 3.888zM7.090 15.613h-2.903l-1.828 3.888h3.346z"></path>
</svg>
