<?xml version="1.0" encoding="utf-8"?>
<svg xmlns="http://www.w3.org/2000/svg" viewBox="980.9102 34.6982 149.9922 93.6885" width="150pt" height="150pt">
  <path fill="#000000" d="M 1045.609375 56.242188 C 1045.609375 50.550781 1050.226562 45.925781 1055.90625 45.925781 C 1061.582031 45.925781 1066.199219 50.550781 1066.199219 56.242188 C 1066.199219 61.929688 1061.582031 66.554688 1055.90625 66.554688 C 1050.226562 66.554688 1045.609375 61.929688 1045.609375 56.242188 Z M 1041.5 78.289062 C 1037.566406 70.757812 1035.652344 63.917969 1035.816406 57.964844 C 1036.105469 47.375 1039.746094 40.453125 1046.945312 36.792969 C 1052.453125 34 1059.355469 34 1064.863281 36.792969 C 1072.0625 40.453125 1075.703125 47.375 1075.992188 57.964844 C 1076.15625 63.917969 1074.242188 70.757812 1070.308594 78.285156 C 1066.921875 84.769531 1062.753906 90.386719 1059.855469 93.957031 C 1058.5 95.628906 1057.363281 96.9375 1056.636719 97.753906 L 1055.90625 98.570312 L 1055.171875 97.753906 C 1054.445312 96.9375 1053.308594 95.628906 1051.953125 93.957031 C 1049.054688 90.386719 1044.886719 84.769531 1041.5 78.289062 Z M 1055.90625 68.523438 C 1062.664062 68.523438 1068.160156 63.011719 1068.160156 56.242188 C 1068.160156 49.46875 1062.664062 43.960938 1055.90625 43.960938 C 1049.144531 43.960938 1043.648438 49.46875 1043.648438 56.242188 C 1043.648438 63.011719 1049.144531 68.523438 1055.90625 68.523438 Z M 1021.753906 120.261719 L 1034.859375 79.726562 L 1040.039062 79.726562 L 1040.585938 80.707031 C 1041.097656 81.632812 1041.617188 82.539062 1042.148438 83.421875 L 1042.386719 83.832031 C 1042.992188 84.824219 1043.601562 85.78125 1044.214844 86.710938 L 1044.664062 87.382812 C 1045.195312 88.179688 1045.714844 88.933594 1046.226562 89.652344 L 1046.519531 90.070312 C 1047.121094 90.910156 1047.707031 91.699219 1048.273438 92.441406 L 1049.199219 93.664062 L 1047.816406 94.152344 C 1047.339844 94.265625 1047.035156 94.339844 1046.726562 94.421875 L 1046.441406 94.503906 C 1046.054688 94.613281 1045.679688 94.726562 1045.3125 94.859375 L 1044.753906 94.019531 L 1045.089844 94.941406 C 1044.785156 95.054688 1044.492188 95.171875 1044.199219 95.300781 L 1043.929688 95.421875 C 1043.601562 95.578125 1043.28125 95.746094 1042.984375 95.929688 C 1042.609375 96.175781 1042.382812 96.339844 1042.171875 96.515625 L 1041.992188 96.675781 C 1041.746094 96.902344 1041.558594 97.105469 1041.417969 97.300781 C 1041.257812 97.550781 1041.15625 97.75 1041.066406 97.984375 C 1040.917969 98.460938 1040.878906 98.703125 1040.878906 98.933594 C 1040.878906 106.304688 1070.929688 106.304688 1070.929688 98.933594 C 1070.929688 98.703125 1070.890625 98.460938 1070.804688 98.171875 C 1070.652344 97.75 1070.550781 97.550781 1070.425781 97.371094 C 1070.25 97.105469 1070.0625 96.902344 1069.816406 96.675781 L 1069.660156 96.539062 C 1069.425781 96.339844 1069.199219 96.175781 1068.957031 96.019531 C 1068.527344 95.746094 1068.207031 95.578125 1067.875 95.421875 L 1067.613281 95.304688 C 1067.316406 95.171875 1067.023438 95.054688 1066.71875 94.941406 L 1066.824219 93.933594 L 1066.496094 94.859375 C 1066.128906 94.726562 1065.753906 94.613281 1065.378906 94.503906 L 1065.089844 94.425781 C 1064.773438 94.339844 1064.46875 94.265625 1064.164062 94.195312 L 1062.6875 93.851562 L 1063.421875 92.597656 C 1064.101562 91.699219 1064.6875 90.910156 1065.289062 90.070312 L 1065.582031 89.652344 C 1066.09375 88.933594 1066.613281 88.179688 1067.136719 87.394531 L 1067.59375 86.710938 C 1068.207031 85.78125 1068.820312 84.824219 1069.425781 83.824219 L 1069.664062 83.417969 C 1070.191406 82.539062 1070.710938 81.632812 1071.222656 80.703125 L 1071.769531 79.726562 L 1076.949219 79.726562 L 1090.054688 120.261719 Z M 1044.984375 93.933594 L 1044.984375 93.929688 Z M 1119.84375 97.949219 L 1111.277344 79.726562 L 1079.007812 79.726562 L 1084.902344 97.949219 Z M 1111.4375 120.261719 L 1130.335938 120.261719 L 1120.769531 99.917969 L 1104.1875 99.917969 Z M 1085.539062 99.917969 L 1092.113281 120.261719 L 1109.355469 120.261719 L 1102.105469 99.917969 Z M 1057.429688 99.800781 L 1061.03125 95.625 L 1062.59375 95.875 C 1062.875 95.925781 1063.160156 95.980469 1063.425781 96.042969 C 1063.621094 96.082031 1063.816406 96.128906 1064.003906 96.171875 C 1064.25 96.234375 1064.492188 96.292969 1064.722656 96.359375 L 1065.210938 96.5 C 1065.425781 96.570312 1065.628906 96.636719 1065.828125 96.707031 L 1066.234375 96.851562 C 1066.40625 96.917969 1066.566406 96.988281 1066.726562 97.054688 L 1067.070312 97.207031 C 1067.222656 97.277344 1067.355469 97.351562 1067.484375 97.417969 L 1067.746094 97.566406 C 1067.890625 97.648438 1068.011719 97.730469 1068.125 97.816406 C 1068.445312 98.054688 1068.582031 98.183594 1068.6875 98.3125 L 1069.191406 98.933594 L 1068.6875 99.558594 C 1067.667969 100.8125 1063.023438 102.578125 1055.90625 102.578125 C 1048.785156 102.578125 1044.140625 100.8125 1043.121094 99.558594 L 1042.617188 98.933594 L 1043.121094 98.3125 C 1043.226562 98.183594 1043.363281 98.054688 1043.539062 97.917969 C 1043.796875 97.730469 1043.917969 97.648438 1044.070312 97.558594 L 1044.246094 97.460938 C 1044.453125 97.351562 1044.585938 97.277344 1044.738281 97.207031 L 1044.964844 97.105469 C 1045.242188 96.988281 1045.402344 96.917969 1045.585938 96.847656 L 1045.925781 96.722656 C 1046.179688 96.636719 1046.382812 96.570312 1046.605469 96.5 L 1047.085938 96.359375 C 1047.316406 96.292969 1047.558594 96.234375 1047.8125 96.171875 C 1047.992188 96.128906 1048.1875 96.082031 1048.390625 96.039062 C 1048.652344 95.980469 1048.933594 95.925781 1049.222656 95.875 L 1050.617188 95.65625 L 1051.507812 96.5 L 1054.375 99.796875 C 1055.164062 100.660156 1056.644531 100.65625 1057.429688 99.800781 Z M 1067.035156 98.292969 L 1067.035156 98.296875 Z M 980.90625 122.226562 L 980.90625 128.386719 L 1130.902344 128.386719 L 1130.902344 122.226562 Z M 1026.269531 99.917969 L 991.039062 99.917969 L 981.472656 120.261719 L 1019.695312 120.261719 Z M 1026.90625 97.949219 L 1032.800781 79.726562 L 1016.222656 79.726562 L 1009.730469 97.949219 Z M 1014.140625 79.726562 L 1000.535156 79.726562 L 991.964844 97.949219 L 1007.648438 97.949219 Z M 1014.140625 79.726562 " fill-opacity="1" fill-rule="nonzero"/>
</svg>