<!-- Generated by IcoMoon.io -->
<svg version="1.1" xmlns="http://www.w3.org/2000/svg" width="32" height="32" viewBox="0 0 32 32">
<path d="M30.827 23.347c0.11 0.17 0.066 0.397-0.101 0.512v-0c-0.326 0.226-0.723 0.482-1.182 0.748-1.090-2.129-3.616-4.112-5.247-4.928-0.089-0.045-0.192-0.053-0.288-0.022s-0.174 0.099-0.218 0.189-0.052 0.193-0.020 0.288c0.032 0.095 0.1 0.173 0.19 0.217h-0c1.544 0.772 3.937 2.641 4.928 4.617-1.84 0.963-4.457 1.926-7.581 1.935-0.029 0.001-0.059 0.001-0.088 0.001l-0-0c-0.032-0-0.064-0.001-0.096-0.002-3.466-0.032-4.956-1.246-6.272-2.32-1.055-0.86-1.967-1.604-3.79-1.604-3.219 0-7.657 2.306-9.416 3.297-0.136 0.077-0.306 0.061-0.425-0.040s-0.164-0.265-0.112-0.412h0c0.79-2.23 2.328-4.274 4.398-5.877v-3.054c0-0.207 0.168-0.375 0.375-0.375 0.204 0 0.37 0.163 0.375 0.366v-0.97l0.855-1.27c0.058-0.082 0.080-0.185 0.061-0.284s-0.076-0.186-0.159-0.242c-0.083-0.056-0.186-0.077-0.285-0.056s-0.185 0.079-0.24 0.164l-0.233 0.346v-1.436l0.855-1.27c0.058-0.082 0.080-0.185 0.061-0.284s-0.076-0.186-0.159-0.242c-0.083-0.056-0.186-0.076-0.285-0.056s-0.185 0.079-0.24 0.164v-0l-0.233 0.346v-1.345c0-0.207-0.168-0.375-0.375-0.375s-0.375 0.168-0.375 0.375v1.395l-0.341-0.481c-0.12-0.169-0.354-0.209-0.523-0.089s-0.209 0.354-0.089 0.523l0.953 1.344v1.482l-0.341-0.481c-0.12-0.169-0.354-0.209-0.523-0.089-0.081 0.057-0.136 0.145-0.153 0.243s0.006 0.199 0.064 0.28v-0l0.953 1.344v1.613h-0.506c-1.037-0.001-2.032-0.414-2.765-1.148s-1.146-1.728-1.147-2.766c0-0.268 0.107-0.524 0.296-0.714s0.446-0.296 0.714-0.296h0.102c0.143-0 0.26-0.116 0.26-0.26v-1.93c0-0.268 0.107-0.524 0.296-0.714s0.446-0.296 0.714-0.296c0.144-0 0.26-0.116 0.26-0.26v-0.787c0.004-0.766 0.415-1.473 1.080-1.855s1.482-0.382 2.146 0c0.664 0.382 1.076 1.088 1.080 1.855v0.787c0 0.143 0.116 0.26 0.26 0.26 0.268 0 0.524 0.107 0.714 0.296s0.296 0.446 0.296 0.714v1.93c0 0.144 0.116 0.26 0.26 0.26h0.102l-0 0c0.268 0 0.524 0.107 0.714 0.296s0.296 0.446 0.296 0.714c-0.001 1.037-0.414 2.032-1.147 2.766s-1.728 1.146-2.766 1.147v-0h-0.506v1.869c0.191-0.13 0.385-0.257 0.584-0.38 2.819-1.747 6.188-2.67 9.741-2.67 5.988 0 11.447 2.681 14.246 6.995zM25.481 3.755c0.552 0.001 1.080 0.22 1.47 0.61s0.61 0.919 0.61 1.47c0 0.552-0.219 1.081-0.609 1.471s-0.919 0.609-1.471 0.609c-0.552 0-1.081-0.219-1.471-0.609s-0.609-0.92-0.609-1.471c0-0.552 0.219-1.081 0.609-1.471s0.919-0.609 1.471-0.609zM26.374 6.21c0.207 0 0.375-0.168 0.375-0.375-0-0.336-0.134-0.658-0.372-0.896s-0.56-0.371-0.896-0.372c-0.207 0-0.375 0.168-0.375 0.375s0.168 0.375 0.375 0.375c0.137 0 0.269 0.055 0.366 0.152s0.152 0.229 0.152 0.366c0 0.207 0.168 0.375 0.375 0.375zM30.725 7.161c0.137 0.094 0.196 0.267 0.145 0.425s-0.201 0.264-0.367 0.259c-0.53-0.015-1.033 0.233-1.344 0.662s-0.391 0.984-0.214 1.483c0.056 0.157 0.002 0.331-0.133 0.429s-0.317 0.095-0.449-0.006c-0.42-0.323-0.972-0.419-1.476-0.255s-0.895 0.565-1.045 1.074c-0.047 0.159-0.193 0.269-0.36 0.269s-0.313-0.11-0.36-0.269c-0.15-0.508-0.541-0.91-1.045-1.074s-1.056-0.068-1.476 0.255c-0.132 0.102-0.315 0.104-0.449 0.006s-0.189-0.273-0.133-0.429c0.178-0.499 0.098-1.054-0.214-1.483s-0.814-0.676-1.344-0.662c-0.166 0.005-0.316-0.101-0.367-0.259s0.008-0.331 0.145-0.425c0.437-0.299 0.699-0.795 0.699-1.325s-0.261-1.026-0.699-1.325c-0.137-0.094-0.196-0.267-0.145-0.425s0.201-0.264 0.367-0.259c0.53 0.015 1.033-0.233 1.344-0.662s0.392-0.984 0.214-1.483c-0.056-0.157-0.002-0.331 0.133-0.429s0.317-0.095 0.449 0.006c0.418 0.327 0.973 0.423 1.476 0.255 0.506-0.161 0.898-0.564 1.045-1.074 0.047-0.16 0.193-0.269 0.36-0.269s0.313 0.109 0.36 0.269c0.146 0.51 0.539 0.914 1.045 1.074 0.504 0.168 1.058 0.072 1.476-0.255 0.132-0.101 0.315-0.104 0.449-0.006s0.189 0.272 0.133 0.429c-0.178 0.499-0.098 1.054 0.214 1.483s0.814 0.676 1.344 0.662c0.166-0.005 0.316 0.101 0.367 0.259s-0.008 0.331-0.145 0.425c-0.437 0.3-0.699 0.795-0.699 1.325s0.261 1.026 0.699 1.325zM25.482 8.666c0.75-0.001 1.47-0.299 2.001-0.83s0.829-1.25 0.83-2.001c0-0.751-0.298-1.471-0.829-2.002s-1.251-0.829-2.002-0.829c-0.751 0-1.471 0.298-2.002 0.829s-0.829 1.251-0.829 2.002c0 0.751 0.298 1.471 0.829 2.002s1.251 0.829 2.002 0.829zM11.027 25.262c-0.207 0-0.375 0.168-0.375 0.375s0.168 0.375 0.375 0.375c1.816 0 2.725 0.743 3.776 1.603 1.33 1.088 2.837 2.321 6.392 2.321 3.315 0 6.363-1.347 8.337-2.477 0.855-0.49 1.679-1.031 2.467-1.622v1.941c-0.219 0.248-1.183 1.243-3.487 2.466-0.183 0.097-0.253 0.324-0.155 0.507 0.047 0.088 0.126 0.154 0.221 0.183s0.198 0.019 0.286-0.027c1.584-0.84 2.569-1.582 3.135-2.081v1.379c-0 0.431-0.172 0.844-0.476 1.148s-0.718 0.476-1.149 0.477l-12.917-0c-0.484-0.318-0.966-0.718-1.472-1.138-1.353-1.124-2.885-2.397-4.958-2.397-1.55 0-3.496 0.484-5.785 1.438-0.093 0.038-0.166 0.111-0.205 0.203s-0.038 0.196 0 0.288c0.039 0.092 0.112 0.165 0.205 0.203s0.196 0.037 0.288-0.002v0c2.197-0.916 4.046-1.381 5.496-1.381 1.802 0 3.163 1.131 4.479 2.224 0.232 0.193 0.46 0.381 0.686 0.561h-14.567c-0.405-0.001-0.795-0.152-1.094-0.425s-0.486-0.647-0.524-1.050c0.816-0.571 2.861-1.923 5.049-2.76 0.193-0.074 0.289-0.291 0.215-0.484s-0.29-0.29-0.483-0.217c-1.969 0.753-3.783 1.877-4.788 2.554v-2.921c0-0.2 0.158-0.365 0.358-0.374 0.066 0.357 0.3 0.661 0.629 0.815s0.712 0.139 1.028-0.040c1.707-0.962 6.006-3.2 9.048-3.2 1.556 0 2.294 0.602 3.315 1.435 1.36 1.109 3.053 2.489 6.886 2.489 3.394 0 6.203-1.095 7.964-2.016l0.008 0.015 0.346-0.2 0.307-0.161-0.006-0.013 0.036-0.021c0.43-0.249 0.846-0.512 1.234-0.781 0.241-0.166 0.408-0.419 0.465-0.707s-0.002-0.585-0.162-0.83c-0.094-0.145-0.191-0.289-0.291-0.43 0.131-0.11 0.201-0.175 0.204-0.178 0.151-0.142 0.388-0.134 0.53 0.017 0.062 0.106 0.097 0.225 0.102 0.348l0 2.19c-1.505 1.193-5.896 4.3-10.804 4.3-3.287 0-4.624-1.094-5.917-2.151-1.114-0.911-2.167-1.773-4.251-1.773z"></path>
</svg>
