<!-- Generated by IcoMoon.io -->
<svg version="1.1" xmlns="http://www.w3.org/2000/svg" width="32" height="32" viewBox="0 0 32 32">
<path d="M20.716 25.52c-1.348 0-2.438 1.091-2.439 2.439 0 1.349 1.091 2.439 2.439 2.439 1.355 0 2.445-1.091 2.445-2.439 0-1.349-1.090-2.439-2.445-2.439zM23.522 16.607c0.111-0.299 0.258-0.576 0.439-0.834l-4.397-2.271c-0.105 0.299-0.251 0.576-0.431 0.834l4.39 2.271zM12.686 7.716c-0.188 0.25-0.416 0.473-0.68 0.639l1.834 1.966c0.194-0.242 0.43-0.459 0.688-0.639l-1.841-1.966zM18.327 9.682c0.256 0.18 0.492 0.396 0.688 0.639l2.216-2.369c-0.256-0.188-0.486-0.402-0.688-0.639l-2.216 2.369zM12.589 19.587c0.299 0.105 0.584 0.236 0.855 0.39l2.029-4.384c-0.306-0.098-0.591-0.23-0.855-0.396l-2.029 4.39zM13.229 13.309c-0.084-0.285-0.125-0.591-0.125-0.904v-0.027l-4.501 0.604c0.076 0.299 0.117 0.611 0.125 0.931l4.501-0.604zM17.757 15.455c-0.285 0.125-0.59 0.207-0.91 0.25l2.543 9.211c0.285-0.125 0.59-0.215 0.91-0.25l-2.543-9.211zM22.141 24.957c0.284 0.132 0.549 0.305 0.777 0.515l2.556-3.876c-0.277-0.146-0.541-0.32-0.777-0.521l-2.556 3.883zM25.76 14.309c0.291-0.119 0.59-0.201 0.91-0.25l-1.556-5.626c-0.291 0.117-0.59 0.201-0.902 0.25l1.549 5.626zM19.688 5.605c-0.063-0.285-0.098-0.577-0.098-0.881 0-0.014 0-0.035 0.008-0.049l-6.474 0.674c0.069 0.242 0.104 0.486 0.104 0.75v0.188l6.46-0.681zM9.331 8.515c-0.285-0.146-0.535-0.334-0.758-0.556l-1.869 2.535c0.271 0.16 0.529 0.348 0.758 0.556l1.869-2.535zM7.136 17.17c-0.25 0.188-0.521 0.348-0.805 0.473l1.521 2.605c0.256-0.181 0.528-0.34 0.812-0.473l-1.529-2.605zM10.533 4.278c-1.008 0-1.82 0.813-1.82 1.82 0 1 0.813 1.813 1.82 1.813 1 0 1.813-0.813 1.813-1.813 0-1.008-0.813-1.82-1.813-1.82zM23.599 1.604c-1.724 0-3.126 1.396-3.126 3.119s1.404 3.126 3.126 3.126c1.722 0 3.126-1.404 3.126-3.126s-1.404-3.119-3.126-3.119zM16.423 9.967c-1.348 0-2.439 1.090-2.439 2.439 0 1.348 1.091 2.445 2.439 2.445s2.445-1.098 2.445-2.445c0-1.349-1.098-2.439-2.445-2.439zM27.273 14.892c-1.722 0-3.119 1.396-3.119 3.125 0 1.722 1.396 3.119 3.119 3.119s3.126-1.396 3.126-3.119c0-1.729-1.404-3.125-3.126-3.125zM4.718 10.856c-1.722 0-3.119 1.396-3.119 3.119s1.396 3.126 3.119 3.126c1.73 0 3.126-1.404 3.126-3.126s-1.396-3.119-3.126-3.119zM10.859 20.171c-2.369 0-4.28 1.91-4.279 4.279 0 2.361 1.91 4.279 4.279 4.279 2.363 0 4.273-1.917 4.273-4.279 0-2.369-1.911-4.279-4.273-4.279z"></path>
</svg>
