<!-- Generated by IcoMoon.io -->
<svg version="1.1" xmlns="http://www.w3.org/2000/svg" width="32" height="32" viewBox="0 0 32 32">
<path d="M4.363 10.973c-0.177 0-0.32-0.143-0.32-0.32v-9.079h23.037v3.625c0 0.177-0.143 0.32-0.32 0.32s-0.32-0.143-0.32-0.32v-2.985h-8.259c0 0.004 0.002 0.006 0.002 0.010v2.654h3.821c0.177 0 0.32 0.143 0.32 0.32s-0.143 0.32-0.32 0.32h-3.82v2.415c0 0.177-0.143 0.32-0.32 0.32s-0.32-0.143-0.32-0.32v-5.71c0-0.004 0.002-0.006 0.002-0.010h-3.684l0 2.984c0 0.177-0.143 0.32-0.32 0.32s-0.32-0.143-0.32-0.32v-2.984h-8.537v5.52h4.306v-2.536c0-0.177 0.143-0.32 0.32-0.32s0.32 0.143 0.32 0.32v3.176h-4.946v2.279c0 0.177-0.143 0.32-0.32 0.32zM4.363 14.594c0.177 0 0.32 0.143 0.32 0.32v2.794h4.124v-2.945c0-0.177 0.143-0.32 0.32-0.32s0.32 0.143 0.32 0.32v2.945l8.095 0v-2.625h-3.984c-0.177 0-0.32-0.143-0.32-0.32s0.143-0.32 0.32-0.32h4.624v3.265h8.257v-2.625h-4.53v-2.814h-12.601c-0.177 0-0.32-0.143-0.32-0.32s0.143-0.32 0.32-0.32h3.911v-2.294c0-0.177 0.143-0.32 0.32-0.32s0.32 0.143 0.32 0.32v2.294l8.69 0v2.814l3.89-0v-4.789h-4.327c-0.177 0-0.32-0.143-0.32-0.32s0.143-0.32 0.32-0.32h4.966v9.333h-23.037v-3.434c0-0.177 0.143-0.32 0.32-0.32zM27.605 19.947c0.463-0.011 0.922 0.184 1.234 0.567 0.551 0.693 0.39 1.706-0.335 2.199l-9.842 6.63c-1.762 1.189-4.022 1.387-5.969 0.518l-4.117-1.836c-0.706-0.314-1.518-0.271-2.188 0.116l-0.865 0.493c-0.581 0.334-1.32 0.095-1.591-0.516l-2.122-4.812c-0.232-0.527-0.033-1.143 0.465-1.43 1.308-0.751 3.812-2.073 5.448-2.196l0.002 0.001c2.297-0.178 4.064 0.489 5.389 1.929 0.889 0.979 3.781 1.14 5.574 1.148 0.879 0.002 1.591 0.749 1.524 1.656-0.060 0.79-0.76 1.382-1.552 1.412-2.057 0.080-5.555 0.118-7.22-0.421-0.194-0.065-0.421-0.146-0.679-0.221-0.007 0-0.1-0.023-0.127-0.020-0.176 0.003-0.312 0.154-0.306 0.33 0.004 0.137 0.103 0.267 0.238 0.29l0.673 0.293c1.587 0.506 4.605 0.536 7.038 0.459l0.499-0.016c0.596-0.028 1.147-0.28 1.541-0.708 0.393-0.428 0.612-1.015 0.594-1.596-0.003-0.163-0.021-0.317-0.060-0.466l5.928-3.538c0.247-0.176 0.536-0.258 0.824-0.268zM2.417 13.357c0 0.353-0.287 0.64-0.64 0.64s-0.64-0.287-0.64-0.64v-1.826c0-0.353 0.287-0.64 0.64-0.64s0.64 0.287 0.64 0.64v0.412c0.239 0.002 0.463-0.003 0.696-0.009 0.354-0.010 0.72-0.019 1.151 0.003 0.63 0.031 1.084 0.026 1.642-0.328 0.252-0.159 0.45-0.504 0.66-0.868 0.379-0.659 0.852-1.479 1.918-1.573 0.322-0.029 0.634-0.005 0.935 0.018 0.472 0.036 0.879 0.066 1.129-0.115 0.204-0.148 0.324-0.453 0.463-0.807 0.077-0.196 0.157-0.399 0.261-0.6 0.567-1.093 2.193-1.906 3.479-1.738 0.92 0.119 1.565 0.711 1.771 1.624 0.064 0.286 0.064 0.56 0.064 0.803 0 0.193 0 0.375 0.033 0.522 0.103 0.458 0.663 0.817 1.208 0.794 0.561-0.028 1.143-0.387 1.557-0.96 0.419-0.579 0.704-0.959 1.259-1.455 0.593-0.529 1.443-0.814 2.386-0.798l0.598 0.009c1.376 0.021 3.059 0.047 4.725 0.038l-0.012-0.911 2.672 1.497-2.632 1.566-0.012-0.872c-1.681 0.010-3.378-0.016-4.762-0.038l-0.597-0.009c-0.616-0.014-1.162 0.159-1.514 0.473-0.458 0.409-0.683 0.71-1.073 1.25-0.64 0.885-1.586 1.442-2.531 1.489-1.167 0.058-2.28-0.728-2.52-1.79-0.065-0.287-0.065-0.562-0.065-0.805 0-0.192 0-0.374-0.033-0.521-0.088-0.39-0.3-0.586-0.686-0.636-0.757-0.098-1.856 0.436-2.179 1.058-0.074 0.141-0.138 0.305-0.206 0.478-0.186 0.473-0.396 1.008-0.902 1.375-0.629 0.456-1.344 0.403-1.975 0.356-0.262-0.020-0.509-0.038-0.728-0.019-0.363 0.032-0.56 0.31-0.921 0.937-0.265 0.46-0.566 0.983-1.084 1.311-0.7 0.444-1.327 0.538-1.943 0.538-0.149 0-0.298-0.006-0.447-0.013-0.382-0.020-0.708-0.011-1.053-0.001-0.232 0.006-0.471 0.012-0.73 0.010v0.135z"></path>
</svg>
