<?xml version="1.0" encoding="utf-8"?>
<svg version="1.1" viewBox="0 0 1200 1200" xmlns="http://www.w3.org/2000/svg" width="150pt" height="150pt">
  <path d="m776.86 957c50.812 0 91.688 40.875 91.688 91.453 0 50.531-40.875 91.453-91.688 91.453-50.531 0-91.453-40.875-91.453-91.453 0.046875-50.531 40.922-91.453 91.453-91.453zm105.23-334.22-164.63-85.172c6.75-9.6562 12.234-20.062 16.172-31.266l164.9 85.172c-6.7969 9.6562-12.281 20.062-16.453 31.266zm-406.36-333.42 69.047 73.734c-9.6562 6.75-18.516 14.859-25.781 23.953l-68.766-73.734c9.8906-6.2344 18.469-14.578 25.5-23.953zm211.55 73.734 83.109-88.828c7.5469 8.8594 16.172 16.922 25.781 23.953l-83.109 88.828c-7.3125-9.0938-16.172-17.203-25.781-23.953zm-215.21 371.44 76.078-164.63c9.8906 6.2344 20.578 11.203 32.062 14.859l-76.078 164.39c-10.172-5.7656-20.859-10.688-32.062-14.625zm24-235.45-168.79 22.641c-0.28125-12-1.8281-23.719-4.6875-34.922l168.79-22.641v1.0312c0 11.719 1.5469 23.203 4.6875 33.891zm169.82 80.484 95.344 345.42c-12 1.3125-23.438 4.6875-34.125 9.375l-95.344-345.42c12-1.5938 23.438-4.6875 34.125-9.375zm164.39 356.34 95.859-145.6c8.8594 7.5469 18.75 14.062 29.156 19.547l-95.859 145.36c-8.5781-7.875-18.516-14.344-29.156-19.312zm135.71-399.32-58.078-210.98c11.719-1.8281 22.922-4.9688 33.844-9.375l58.359 210.98c-12 1.8281-23.203 4.9219-34.125 9.375zm-227.68-326.39-242.26 25.547v-7.0312c0-9.8906-1.3125-19.031-3.8906-28.125l242.76-25.266c-0.28125 0.51562-0.28125 1.3125-0.28125 1.8281 0 11.391 1.3125 22.359 3.6562 33.047zm-388.4 109.12-70.078 95.062c-8.5781-7.8281-18.234-14.859-28.406-20.859l70.078-95.062c8.3438 8.3438 17.719 15.375 28.406 20.859zm-82.312 324.56 57.328 97.688c-10.688 4.9688-20.859 10.922-30.469 17.719l-57.047-97.688c10.641-4.6875 20.812-10.688 30.188-17.719zm127.4-483.47c37.5 0 67.969 30.469 67.969 68.25 0 37.5-30.469 67.969-67.969 67.969-37.781 0-68.25-30.469-68.25-67.969 0-37.781 30.469-68.25 68.25-68.25zm489.98-100.27c64.594 0 117.23 52.359 117.23 116.95s-52.641 117.23-117.23 117.23-117.23-52.641-117.23-117.23 52.594-116.95 117.23-116.95zm-269.11 313.64c50.531 0 91.688 40.875 91.688 91.453 0 50.531-41.156 91.688-91.688 91.688s-91.453-41.156-91.453-91.688c0-50.578 40.922-91.453 91.453-91.453zm406.87 184.69c64.594 0 117.23 52.359 117.23 117.19 0 64.594-52.641 116.95-117.23 116.95s-116.95-52.359-116.95-116.95c0-64.828 52.359-117.19 116.95-117.19zm-845.81-151.36c64.875 0 117.23 52.359 117.23 116.95s-52.359 117.23-117.23 117.23c-64.594 0-116.95-52.641-116.95-117.23s52.359-116.95 116.95-116.95zm230.29 349.31c88.547 0 160.22 71.625 160.22 160.45 0 88.547-71.625 160.45-160.22 160.45-88.828 0-160.45-71.906-160.45-160.45-0.046875-88.828 71.625-160.45 160.45-160.45z" fill-rule="evenodd"/>
</svg>