<!-- Generated by IcoMoon.io -->
<svg version="1.1" xmlns="http://www.w3.org/2000/svg" width="32" height="32" viewBox="0 0 32 32">
<path d="M14.316 11.064c0.54 0.312 0.935 0.826 1.096 1.429s0.077 1.245-0.235 1.786l-9.852 17.065c-0.098 0.169-0.258 0.292-0.446 0.343s-0.389 0.024-0.558-0.073l-2.802-1.618c-0.169-0.098-0.292-0.258-0.343-0.446s-0.024-0.389 0.073-0.558l9.852-17.065c0.312-0.54 0.826-0.935 1.429-1.096s1.245-0.077 1.786 0.235zM21.784 9.25c0.603 0.162 1.117 0.556 1.429 1.096s0.397 1.183 0.235 1.786l-5.1 19.033c-0.051 0.188-0.174 0.349-0.343 0.446s-0.369 0.124-0.558 0.073l-3.125-0.837c-0.188-0.051-0.349-0.174-0.446-0.343s-0.124-0.37-0.073-0.558l5.1-19.033c0.161-0.603 0.556-1.117 1.096-1.429s1.183-0.397 1.786-0.235zM28.496 8.918c0.624 0 1.223 0.248 1.664 0.689s0.689 1.040 0.689 1.664v19.704c0 0.195-0.077 0.382-0.215 0.52s-0.325 0.215-0.52 0.215h-3.236c-0.195 0-0.382-0.078-0.52-0.215s-0.215-0.325-0.215-0.52v-19.704c0-0.624 0.248-1.223 0.689-1.664s1.040-0.689 1.664-0.689zM28.635 3.651c0.1 0.093 0.157 0.223 0.157 0.359s-0.057 0.266-0.157 0.359v-0l-3.478 3.229c-0.094 0.087-0.218 0.134-0.346 0.131s-0.249-0.056-0.339-0.148c-0.089-0.092-0.139-0.214-0.139-0.342v-1.728h-7.015c-0.135 0-0.245-0.11-0.245-0.245v-2.512c0-0.135 0.11-0.245 0.245-0.245h7.015v-1.728c0-0.128 0.050-0.251 0.139-0.342s0.211-0.144 0.339-0.148c0.128-0.003 0.252 0.044 0.346 0.131zM4.225 6.57c-0.274-0.23-0.445-0.559-0.476-0.915s0.081-0.71 0.31-0.984c0.23-0.274 0.559-0.445 0.915-0.476s0.71 0.081 0.984 0.31l2.626 2.204c0.274 0.23 0.445 0.559 0.476 0.915s-0.081 0.71-0.31 0.984c-0.23 0.274-0.559 0.445-0.915 0.476s-0.71-0.081-0.984-0.31zM5.922 10.841c0.744 0 1.348 0.744 1.348 1.348v0c0 0.744-0.603 1.348-1.348 1.348h-3.252c-0.744 0-1.348-0.744-1.348-1.348v-0c0-0.744 0.603-1.348 1.348-1.348zM9.894 2.232c-0.084-0.474 0.092-0.957 0.461-1.267s0.875-0.399 1.328-0.234c0.452 0.165 0.783 0.558 0.866 1.033l0.584 3.313c0.062 0.352-0.018 0.714-0.223 1.007s-0.518 0.492-0.87 0.554c-0.352 0.062-0.714-0.018-1.007-0.223s-0.492-0.518-0.554-0.87z"></path>
</svg>
