<!-- Generated by IcoMoon.io -->
<svg version="1.1" xmlns="http://www.w3.org/2000/svg" width="32" height="32" viewBox="0 0 32 32">
<path d="M20.169 11.484c0.608-0.504 1.309-1.47 1.44-3.517-0.331 0.128-0.809 0.27-1.399 0.311-0.48 0.032-0.89-0.012-1.199-0.070 0.076-0.282 0.257-0.793 0.706-1.264 0.753-0.79 1.716-0.893 1.976-0.913 0.423-0.515 0.847-1.030 1.27-1.545 0.306-0.023 0.612-0.047 0.917-0.070 0.588-0.749 1.176-1.498 1.764-2.247 0.282 0.281 0.564 0.562 0.847 0.843-0.144 0.352-0.336 0.908-0.423 1.615-0.075 0.613-0.177 1.438 0.141 1.615 0.492 0.273 1.734-1.147 1.834-1.264 0.094 0.234 0.188 0.468 0.282 0.702-0.494 0.655-0.988 1.311-1.482 1.966-0.522 1.022-1.195 2.714-1.171 3.259 0.052 1.191 0.597 1.72 0.712 3.028 0.082 0.928-0.102 1.702-0.259 2.191-0.129-0.408-0.259-0.817-0.388-1.224 0.053 0.378 0.096 1.079-0.194 1.868-0.163 0.445-0.384 0.786-0.568 1.023-0.776 2.879-1.905 6.417-2.681 9.296 0.077-0.008 0.529-0.049 0.917 0.281 0.412 0.35 0.423 0.841 0.423 0.913-0.776 0.023-1.552 0.047-2.328 0.070 0.048-1.169 0.047-2.45-0.035-3.827-0.066-1.115 0.174-2.818 0.035-3.784 0.47-0.96 0.941-1.919 1.411-2.879-0.541 0.655-1.082 1.311-1.623 1.966-1.668 0.725-2.761 0.6-3.448 0.355-0.833-0.297-1.168-0.803-2.072-0.966-0.988-0.178-1.881 0.193-2.46 0.516 0.353-1.388 0.356-1.706 0.289-1.73-0.167-0.058-0.822 1.677-2.036 3.919-0.717 1.325-1.383 2.37-1.844 3.059-0.188 0.819-0.376 1.639-0.564 2.458 0.102-0.012 0.603-0.064 1.058 0.281 0.51 0.387 0.559 0.966 0.564 1.053h-2.258c-0.099-0.563-0.216-1.15-0.353-1.756-0.133-0.588-0.275-1.149-0.423-1.685 0.334-0.6 0.759-1.544 0.917-2.766 0.267-2.060-0.387-3.679-0.723-4.381-0.736 0.539-1.556 1.344-1.676 2.415-0.114 1.018 0.417 1.512 0.423 2.325 0.006 0.744-0.708 1.762-3.74 3.011 0.071-0.442 0.141-0.884 0.212-1.326-0.306 0.445-0.611 0.889-0.917 1.334 0.024-0.748 0.119-1.921 0.494-3.3 0.176-0.648 0.349-1.101 0.528-1.473 0.394-0.821 0.756-1.38 0.999-1.74 1.196-1.77 0.883-1.724 1.865-3.114 1.347-1.909 2.366-2.604 2.848-2.9 0.289-0.176 0.54-0.304 0.712-0.386 0.743-0.153 1.889-0.364 3.301-0.516 4.211-0.453 5.977 0.131 7.379-1.031v0.001zM12.92 22.242c-0.706 1.067-1.367 2.115-1.986 3.139-0.047 0.585-0.094 1.17-0.141 1.756 0.121 0.012 0.894 0.105 1.34 0.772 0.227 0.338 0.272 0.679 0.282 0.861-0.353-0.006-0.706-0.012-1.058-0.019-0.096-0.234-0.249-0.535-0.494-0.843-0.37-0.467-0.784-0.742-1.058-0.894 0.024-0.521 0.047-1.042 0.071-1.564 0.478-0.832 0.995-1.689 1.556-2.565 0.627-0.981 1.256-1.904 1.877-2.77 0.178-0.124 0.438-0.277 0.777-0.386 0.246-0.079 0.469-0.114 0.647-0.129-0.601 0.845-1.207 1.725-1.812 2.641h0zM18.483 20.887c0.682-0.070 1.364-0.14 2.046-0.211-0.611 2.154-1.223 4.307-1.834 6.46 0.52-0.088 1.004 0.118 1.199 0.491 0.134 0.255 0.095 0.516 0.071 0.632-0.823 0.023-1.646 0.047-2.469 0.070 0.329-2.481 0.658-4.962 0.988-7.443v0z"></path>
</svg>
