<?xml version="1.0" encoding="utf-8"?>
<svg xmlns="http://www.w3.org/2000/svg" viewBox="200.1194 0 182.6501 168.7695" width="150pt" height="150pt">
  <path d="M 315.243 58.606 C 318.711 55.728 322.716 50.217 323.462 38.531 C 321.575 39.262 318.842 40.074 315.475 40.305 C 312.738 40.49 310.396 40.234 308.629 39.904 C 309.061 38.297 310.094 35.376 312.656 32.689 C 316.956 28.179 322.448 27.59 323.932 27.479 C 326.348 24.539 328.765 21.6 331.181 18.66 C 332.926 18.527 334.672 18.392 336.416 18.259 C 339.773 13.984 343.128 9.708 346.485 5.432 C 348.096 7.036 349.707 8.639 351.317 10.243 C 350.493 12.25 349.397 15.428 348.901 19.462 C 348.472 22.959 347.891 27.672 349.707 28.68 C 352.514 30.239 359.603 22.135 360.177 21.467 C 360.714 22.803 361.251 24.139 361.788 25.475 C 358.969 29.216 356.15 32.956 353.33 36.697 C 350.351 42.531 346.507 52.186 346.645 55.298 C 346.943 62.095 350.053 65.116 350.709 72.583 C 351.175 77.882 350.128 82.296 349.233 85.086 C 348.494 82.756 347.756 80.425 347.017 78.098 C 347.319 80.258 347.565 84.255 345.91 88.761 C 344.977 91.303 343.717 93.248 342.666 94.603 C 338.236 111.036 331.792 131.231 327.362 147.664 C 327.802 147.616 330.382 147.385 332.598 149.267 C 334.95 151.267 335.01 154.066 335.014 154.478 C 330.584 154.612 326.154 154.745 321.724 154.879 C 321.999 148.209 321.992 140.894 321.522 133.033 C 321.143 126.671 322.515 116.948 321.724 111.436 C 324.409 105.958 327.093 100.481 329.778 95.003 C 326.69 98.743 323.603 102.484 320.516 106.225 C 310.996 110.364 304.757 109.651 300.835 108.252 C 296.08 106.559 294.171 103.668 289.01 102.737 C 283.368 101.72 278.275 103.839 274.971 105.68 C 276.985 97.756 277.004 95.941 276.619 95.808 C 275.665 95.477 271.928 105.382 264.996 118.179 C 260.902 125.739 257.103 131.707 254.473 135.641 C 253.4 140.317 252.326 144.994 251.252 149.67 C 251.833 149.599 254.694 149.303 257.293 151.273 C 260.205 153.481 260.481 156.784 260.514 157.285 L 247.627 157.285 C 247.06 154.071 246.396 150.723 245.613 147.264 C 244.852 143.91 244.044 140.703 243.197 137.645 C 245.102 134.222 247.53 128.834 248.432 121.856 C 249.954 110.099 246.225 100.858 244.308 96.849 C 240.106 99.927 235.429 104.521 234.744 110.633 C 234.095 116.441 237.123 119.266 237.16 123.905 C 237.192 128.154 233.117 133.962 215.815 141.092 C 216.218 138.572 216.62 136.048 217.023 133.524 C 215.278 136.062 213.533 138.601 211.788 141.139 C 211.926 136.868 212.467 130.173 214.607 122.301 C 215.614 118.601 216.599 116.014 217.62 113.892 C 219.869 109.208 221.934 106.013 223.321 103.96 C 230.146 93.858 228.359 94.121 233.964 86.183 C 241.65 75.289 247.467 71.318 250.219 69.633 C 251.867 68.628 253.299 67.9 254.283 67.429 C 258.523 66.556 265.063 65.354 273.125 64.486 C 297.161 61.899 307.241 65.232 315.243 58.603 L 315.243 58.606 Z M 273.865 120.012 C 269.838 126.103 266.064 132.086 262.528 137.927 C 262.26 141.267 261.991 144.607 261.723 147.948 C 262.416 148.018 266.824 148.549 269.374 152.357 C 270.668 154.287 270.929 156.235 270.985 157.274 C 268.972 157.241 266.958 157.204 264.944 157.167 C 264.396 155.831 263.523 154.116 262.125 152.357 C 260.011 149.692 257.65 148.119 256.084 147.254 C 256.219 144.278 256.353 141.304 256.487 138.328 C 259.213 133.578 262.166 128.686 265.366 123.687 C 268.946 118.086 272.537 112.82 276.079 107.877 C 277.093 107.167 278.577 106.295 280.513 105.672 C 281.919 105.219 283.19 105.022 284.208 104.937 C 280.778 109.758 277.321 114.783 273.864 120.012 L 273.865 120.012 Z M 305.616 112.278 C 309.51 111.877 313.402 111.476 317.295 111.074 C 313.805 123.367 310.314 135.655 306.824 147.947 C 309.795 147.442 312.552 148.622 313.67 150.752 C 314.435 152.207 314.214 153.699 314.073 154.36 C 309.375 154.494 304.676 154.628 299.978 154.761 C 301.858 140.598 303.736 126.44 305.616 112.277 L 305.616 112.278 Z" style="stroke-width: 1;"/>
</svg>