<!-- Generated by IcoMoon.io -->
<svg version="1.1" xmlns="http://www.w3.org/2000/svg" width="32" height="32" viewBox="0 0 32 32">
<path d="M0.388 18.466c-1.1-2.67 0.164-5.975 3.497-6.808 0.026 0.361 0.157 0.879 0.386 1.541l0.642-0.289c-0.144-0.537-0.229-1.056-0.255-1.554-0.105-1.882 0.589-3.43 1.545-4.63 1.499 0.262 1.82 1.935 1.905 3.148 0.164 2.282 2.043 3.056 1.159 6.146-0.662 2.315-2.803 3.903-5.193 3.903-1.421 0-2.718-0.551-3.687-1.456zM25.134 21.7c-0.943-1.181-2.397-1.942-4.027-1.942-2.842 0-5.153 2.309-5.153 5.162 0 2.020 1.159 3.765 2.848 4.617-1.833 0-3.674 0-5.507 0 0.871-0.479 1.565-1.279 1.912-2.204 0.393-1.043 0.19-1.482 0.19-2.414 0-3.162 2.553-5.726 5.71-5.726 1.775 0 3.366 0.813 4.413 2.086zM25.978 30.784c1.683-1.397 2.75-3.509 2.75-5.864 0-4.218-3.412-7.635-7.622-7.635-2.128 0-4.053 0.873-5.441 2.289-2.58-1.338-4.702-3.398-5.5-6.277 0.079 0.393 0.118 0.807 0.118 1.226 0 2.531-1.512 4.716-3.687 5.68 4.342 1.122 5.055 5.91 3.759 9.333h-2.626c-0.648 0-1.172 0.525-1.172 1.168v0.079c6.477 0 12.946 0 19.422 0zM22.35 10.72c0.216 0.079 0.446 0.131 0.675 0.171 1.801 0.505 3.431 1.364 4.793 2.492 2.573 2.131 4.184 5.207 4.184 8.624 0 3.483-1.67 6.612-4.322 8.743 1.375-1.554 2.206-3.594 2.206-5.831 0-3.385-1.905-6.323-4.702-7.792-1.218-0.643-2.606-1.003-4.080-1.003-2.154 0-4.125 0.774-5.651 2.066-2.017-1.063-3.575-2.886-4.316-5.096-0.301-0.905-0.465-1.876-0.465-2.886 0-4.965 3.968-8.993 8.853-8.993 2.089 0 4.001 0.735 5.514 1.955-0.433-0.17-0.91-0.262-1.408-0.262-2.174 0-3.935 1.797-3.935 4.014 0 1.758 1.107 3.253 2.652 3.798z"></path>
</svg>
