<?xml version="1.0" encoding="utf-8"?>
<svg xmlns="http://www.w3.org/2000/svg" viewBox="200.1194 0 182.6501 168.7695" width="150pt" height="150pt">
  <path fill="#010101" d="M 202.332031 98.460938 C 207.863281 103.628906 215.265625 106.773438 223.375 106.773438 C 237.015625 106.773438 249.238281 97.710938 253.015625 84.496094 C 258.058594 66.863281 247.332031 62.445312 246.398438 49.417969 C 245.914062 42.492188 244.082031 32.945312 235.523438 31.449219 C 230.066406 38.300781 226.105469 47.136719 226.703125 57.878906 C 226.851562 60.722656 227.335938 63.683594 228.160156 66.75 L 224.496094 68.398438 C 223.1875 64.617188 222.441406 61.660156 222.292969 59.601562 C 203.265625 64.355469 196.054688 83.222656 202.332031 98.460938 Z M 343.578125 116.917969 C 338.195312 110.179688 329.898438 105.835938 320.589844 105.835938 C 304.367188 105.835938 291.175781 119.015625 291.175781 135.300781 C 291.175781 146.832031 297.792969 156.789062 307.433594 161.65625 C 296.96875 161.65625 286.464844 161.65625 276 161.65625 C 280.972656 158.921875 284.933594 154.355469 286.914062 149.078125 C 289.15625 143.125 288 140.617188 288 135.300781 C 288 117.253906 302.574219 102.617188 320.589844 102.617188 C 330.71875 102.617188 339.800781 107.257812 345.78125 114.523438 Z M 348.398438 168.769531 C 358.003906 160.792969 364.097656 148.738281 364.097656 135.300781 C 364.097656 111.226562 344.621094 91.722656 320.589844 91.722656 C 308.445312 91.722656 297.457031 96.703125 289.53125 104.789062 C 274.804688 97.152344 262.695312 85.394531 258.136719 68.960938 C 258.585938 71.207031 258.808594 73.566406 258.808594 75.960938 C 258.808594 90.410156 250.175781 102.878906 237.765625 108.382812 C 262.546875 114.785156 266.621094 142.113281 259.21875 161.65625 L 244.230469 161.65625 C 240.53125 161.65625 237.539062 164.652344 237.539062 168.320312 L 237.539062 168.769531 C 274.507812 168.769531 311.433594 168.769531 348.398438 168.769531 Z M 327.691406 54.246094 C 318.871094 51.140625 312.554688 42.605469 312.554688 32.570312 C 312.554688 19.917969 322.609375 9.660156 335.015625 9.660156 C 337.859375 9.660156 340.585938 10.183594 343.054688 11.15625 C 334.417969 4.195312 323.503906 0 311.582031 0 C 283.699219 0 261.050781 22.988281 261.050781 51.328125 C 261.050781 57.09375 261.984375 62.632812 263.703125 67.800781 C 267.929688 80.417969 276.824219 90.824219 288.335938 96.890625 C 297.042969 89.515625 308.292969 85.097656 320.589844 85.097656 C 329 85.097656 336.925781 87.15625 343.875 90.824219 C 359.835938 99.210938 370.710938 115.980469 370.710938 135.300781 C 370.710938 148.066406 365.964844 159.710938 358.117188 168.582031 C 373.253906 156.414062 382.785156 138.558594 382.785156 118.675781 C 382.785156 99.171875 373.589844 81.613281 358.902344 69.449219 C 351.125 63.007812 341.820312 58.105469 331.542969 55.222656 C 330.234375 54.996094 328.925781 54.695312 327.691406 54.246094 Z M 327.691406 54.246094 " fill-opacity="1" fill-rule="evenodd"/>
</svg>