<?xml version="1.0" encoding="utf-8"?>
<svg version="1.1" viewBox="0 0 1200 1200" xmlns="http://www.w3.org/2000/svg" width="150pt" height="150pt">
  <path d="M 1181.199 553.109 C 1186.355 553.109 1190.574 557.327 1190.574 562.484 L 1190.574 599.984 C 1190.574 756.314 1127.524 904.674 1012.684 1017.644 C 957.844 1071.782 894.562 1114.438 824.484 1144.204 C 752.294 1174.907 676.829 1190.61 599.954 1190.61 C 493.314 1190.61 386.676 1160.61 291.754 1104.126 C 196.594 1047.166 121.595 968.421 74.954 876.546 C 32.063 792.176 9.329 696.55 9.329 600.456 L 9.329 562.956 C 9.329 557.799 13.547 553.581 18.704 553.581 L 140.814 553.581 C 142.923 522.175 169.173 497.331 201.048 497.331 C 202.688 497.331 204.329 497.331 205.97 497.565 C 210.189 476.003 229.174 459.831 251.908 459.831 C 260.814 459.831 269.252 462.409 276.752 467.097 C 283.08 462.409 290.814 459.831 298.783 459.831 C 313.549 459.831 326.439 468.503 332.533 480.925 C 338.158 478.816 344.486 478.112 350.58 478.816 C 351.986 476.003 354.095 473.659 356.205 471.316 L 356.205 457.254 C 356.205 447.176 360.658 437.801 368.627 431.473 L 421.83 389.52 L 421.83 300.223 C 421.83 293.66 422.533 287.332 423.939 281.004 L 414.564 287.566 C 402.142 296.004 385.97 296.941 372.611 289.675 C 369.798 288.269 368.158 285.691 367.689 282.644 C 367.455 279.832 368.392 276.785 370.502 274.675 L 413.158 232.722 C 424.173 221.707 438.939 215.613 454.642 215.613 L 727.452 215.613 L 776.671 166.629 C 766.358 159.598 759.796 147.879 759.562 135.223 L 759.327 124.911 C 759.327 122.333 760.265 119.99 762.14 118.115 C 763.78 116.24 766.358 115.302 768.937 115.302 L 778.546 115.536 C 795.889 116.239 810.42 127.489 815.108 144.13 L 816.514 149.287 C 817.217 149.521 817.92 149.521 818.624 149.755 L 818.624 110.146 L 754.171 89.99 L 752.764 89.287 C 752.53 89.287 752.53 89.053 752.296 89.053 C 752.061 88.818 751.827 88.818 751.592 88.584 L 751.358 88.35 C 750.889 88.115 750.655 87.881 750.421 87.647 L 749.952 87.178 C 749.717 86.943 749.483 86.475 749.249 86.24 C 749.014 86.24 749.014 86.006 748.78 85.772 L 715.03 28.819 C 712.452 24.365 713.858 18.506 718.311 15.928 C 722.765 13.349 728.624 14.756 731.202 19.209 L 757.921 63.975 L 773.155 42.881 C 776.202 38.662 782.061 37.724 786.28 40.771 C 790.499 43.818 791.436 49.678 788.39 53.896 L 772.452 76.162 L 788.39 81.084 L 814.64 51.787 C 817.921 48.037 824.015 47.569 827.765 51.084 C 831.515 54.365 831.983 60.459 828.468 64.209 L 807.843 87.178 L 826.593 93.038 L 851.437 76.632 C 855.656 73.819 861.515 75.225 864.328 79.444 C 867.14 83.663 865.734 89.523 861.515 92.335 L 837.14 108.273 L 837.14 123.273 L 860.343 119.523 L 897.609 82.726 C 901.359 78.976 907.453 79.21 910.968 82.96 C 914.718 86.71 914.484 92.804 910.734 96.319 L 870.89 134.522 C 869.484 135.929 867.843 136.866 865.968 137.101 L 836.906 141.788 L 836.906 157.257 L 890.109 189.132 C 895.968 192.648 900.187 198.507 901.593 205.304 C 903.234 211.866 901.827 219.132 897.843 224.757 C 891.515 234.132 880.968 239.757 869.484 239.757 C 867.843 239.757 866.437 239.757 864.796 239.523 L 830.343 234.835 L 798.702 320.382 C 789.327 345.695 769.874 365.617 745.968 375.929 L 775.968 411.788 C 777.375 413.663 778.078 415.773 778.078 417.882 L 778.078 507.648 C 778.078 510.929 776.437 513.976 773.859 515.617 L 745.734 533.664 C 744.093 534.601 742.453 535.07 740.578 535.07 C 739.172 535.07 737.531 534.601 736.125 533.898 C 733.078 532.257 731.203 529.211 731.203 525.695 L 731.203 440.383 L 687.375 403.586 L 659.484 505.776 L 667.453 539.995 L 678.703 553.12 L 801.983 553.12 C 798.701 547.495 796.826 541.167 796.826 534.37 C 796.826 513.745 813.701 496.87 834.326 496.87 C 834.326 476.245 851.201 459.37 871.826 459.37 C 874.873 459.37 877.686 459.604 880.498 460.307 C 889.17 448.119 903.467 440.619 918.701 440.619 C 933.935 440.619 948.232 448.119 956.904 460.307 C 959.717 459.604 962.529 459.37 965.576 459.37 C 986.201 459.37 1003.076 476.245 1003.076 496.87 C 1023.701 496.87 1040.576 513.745 1040.576 534.37 C 1040.576 541.167 1038.701 547.495 1035.42 553.12 L 1181.2 553.12 Z M 790.026 289.914 L 752.292 318.508 C 737.995 329.524 721.355 337.493 704.011 342.18 L 697.683 365.618 L 707.292 365.618 C 740.104 365.618 769.636 344.993 781.12 314.29 Z M 374.948 460.31 C 377.526 459.607 380.338 459.372 383.151 459.372 C 385.494 459.372 387.838 459.607 390.182 460.075 L 464.713 424.216 C 478.541 417.653 487.447 403.356 487.447 388.122 L 487.447 348.747 C 487.447 343.591 491.666 339.372 496.822 339.372 C 501.978 339.372 506.197 343.591 506.197 348.747 L 506.197 365.856 L 538.306 365.856 L 552.134 348.512 C 562.447 335.622 577.916 328.356 594.322 328.356 L 625.963 328.356 L 626.666 326.013 C 628.072 321.091 633.228 318.279 638.15 319.685 C 643.072 321.091 645.884 326.247 644.478 331.169 L 625.259 398.2 C 619.4 418.825 622.681 440.857 634.4 458.669 C 635.806 460.544 636.275 463.122 635.806 465.465 L 627.603 507.418 L 644.712 553.356 L 654.087 553.356 L 651.977 550.778 C 650.805 549.606 650.102 548.2 649.868 546.794 L 640.962 508.122 C 640.493 506.481 640.493 504.841 640.962 503.434 L 692.056 316.634 C 693.462 311.713 698.618 308.666 703.54 310.072 C 708.227 311.244 711.04 316.165 710.102 320.853 C 721.352 316.635 731.899 311.01 741.274 303.744 L 802.446 257.103 L 815.571 221.712 C 817.212 217.493 821.196 215.149 825.649 215.618 L 867.837 221.243 C 868.54 221.478 869.244 221.478 869.947 221.478 C 875.103 221.478 879.791 218.899 882.838 214.681 C 883.775 213.274 884.244 211.399 883.775 209.759 C 883.306 208.118 882.134 206.712 880.728 205.774 L 823.072 171.086 C 822.838 170.852 822.603 170.852 822.369 170.618 L 822.603 171.555 C 823.541 175.071 822.369 178.821 819.557 181.164 C 817.916 182.805 815.572 183.508 813.463 183.508 C 812.056 183.508 810.65 183.04 809.478 182.571 L 794.009 175.305 L 737.759 231.555 C 736.119 233.43 733.775 234.368 731.197 234.368 L 454.637 234.368 C 443.856 234.368 433.778 238.587 426.278 246.087 L 396.747 275.149 C 399.325 274.446 401.669 273.508 404.012 271.867 L 428.856 254.758 C 430.497 253.587 432.372 253.118 434.247 253.118 L 441.278 253.118 C 444.794 253.118 447.841 254.993 449.481 257.805 C 451.122 260.618 451.122 264.368 449.481 267.18 C 443.622 277.258 440.575 288.508 440.575 299.992 L 440.575 393.742 C 440.575 396.555 439.403 399.133 437.06 401.008 L 380.341 445.774 C 376.825 448.352 374.95 452.337 374.95 456.79 Z M 420.419 493.119 C 442.685 499.213 458.622 519.369 458.388 543.041 C 458.388 546.557 458.153 549.838 457.45 553.119 L 479.95 553.119 L 437.997 457.728 L 410.341 471.087 C 415.966 476.946 419.481 484.681 420.419 493.118 Z M 517.216 531.322 L 534.325 553.119 L 624.559 553.119 L 608.856 511.4 C 608.153 509.759 608.153 507.884 608.387 506.244 L 616.356 465.227 C 603.466 443.43 599.95 417.415 606.981 392.805 L 609.325 384.368 L 550.731 384.368 C 554.013 402.18 549.091 420.227 537.372 433.821 L 505.028 471.321 Z M 557.994 819.844 C 554.478 784.219 575.572 750.703 608.15 739.922 C 625.963 734.063 637.916 716.954 637.916 697.266 C 637.916 692.813 637.447 688.36 636.041 683.907 C 633.932 676.172 630.651 668.672 626.666 661.641 C 622.682 654.844 617.995 648.281 612.604 642.422 L 608.385 637.735 C 601.12 629.767 595.964 619.923 593.385 609.376 L 28.075 609.376 C 29.481 690.936 47.528 771.561 80.575 844.686 C 83.622 829.686 85.732 813.514 85.966 801.092 C 86.435 783.514 91.826 766.639 102.138 752.342 C 109.638 741.795 119.716 733.123 130.966 727.264 C 139.403 722.81 150.185 722.81 158.622 727.498 C 196.825 748.592 230.341 778.827 255.419 815.389 C 263.153 826.639 267.372 839.999 267.372 853.827 L 267.372 855.936 C 267.372 868.592 273.466 880.546 283.31 887.811 C 292.685 894.374 303.935 896.249 314.716 892.733 C 317.997 891.561 321.279 889.921 324.325 887.811 C 327.372 885.702 330.185 883.124 332.294 880.311 L 358.075 846.795 C 374.247 825.701 399.56 814.92 425.341 818.201 C 426.279 818.201 427.451 818.436 428.622 818.67 L 452.997 822.889 C 480.184 827.577 502.919 847.264 511.825 874.686 C 514.169 881.483 515.341 888.279 515.81 895.545 C 516.513 911.248 521.435 926.248 529.404 939.373 C 537.607 952.499 548.623 963.045 561.748 970.311 C 571.123 975.233 576.982 985.311 576.982 996.327 C 576.982 1001.015 575.81 1005.702 573.701 1009.921 C 571.357 1015.077 569.951 1020.468 569.951 1026.093 C 569.951 1029.608 570.419 1033.124 571.357 1036.405 C 573.701 1044.373 580.498 1047.889 586.123 1047.889 C 589.17 1047.889 592.217 1046.717 594.795 1044.842 L 621.748 1024.451 C 627.138 1020.232 630.654 1014.138 631.826 1007.107 C 632.529 1002.888 632.763 998.435 632.763 993.982 C 632.763 972.654 625.028 952.498 610.966 937.029 C 605.106 930.701 598.544 925.31 591.044 921.326 C 583.544 917.107 577.216 911.248 572.528 903.982 C 567.841 896.716 565.028 888.513 564.091 879.841 L 557.997 819.841 Z M 794.947 877.964 C 809.948 870.23 809.948 847.965 795.182 840.23 C 788.15 836.48 783.932 829.215 783.932 821.246 L 783.932 819.84 C 783.932 800.621 769.167 784.918 750.651 784.918 C 741.745 784.918 733.307 781.168 726.979 774.606 C 719.479 766.637 707.057 766.637 699.557 774.606 C 693.463 780.7 692.057 790.31 695.807 798.044 L 711.041 829.919 C 712.447 832.731 714.322 835.309 716.431 837.653 C 727.681 849.372 727.681 868.356 716.431 880.075 C 704.01 892.965 708.931 914.997 725.572 920.856 C 745.494 927.887 767.291 918.513 776.666 898.825 L 780.885 889.919 C 782.76 885.935 785.806 882.654 789.791 880.544 L 794.947 877.966 Z M 831.276 644.766 C 838.776 644.766 846.276 643.125 853.307 639.375 C 857.525 637.032 862.213 635.86 867.135 635.86 C 875.338 635.86 883.072 639.141 888.932 645.235 C 891.041 647.578 894.088 648.75 897.135 648.75 C 900.182 648.75 902.994 647.579 905.338 645.235 C 909.088 641.251 910.026 634.923 907.682 630.001 L 899.01 611.954 L 897.604 609.141 L 790.494 609.141 C 790.259 610.548 790.025 611.954 790.025 613.36 C 790.025 619.454 792.369 625.313 796.353 629.532 C 805.728 639.375 818.15 644.766 831.275 644.766 Z M 920.801 1070.16 C 1068.701 967.5 1168.54 797.81 1171.821 609.61 L 1024.401 609.61 L 1031.432 625.313 C 1038.228 641.016 1033.306 659.297 1019.244 668.672 C 1004.713 678.515 996.041 695.156 996.041 713.203 C 996.041 715.078 996.041 717.188 996.275 719.063 C 996.744 722.813 997.916 726.329 999.557 729.61 C 1001.432 732.891 1003.541 735.704 1006.353 738.047 C 1017.135 746.953 1023.228 760.313 1023.228 774.375 C 1023.228 792.89 1013.15 809.297 996.978 817.031 C 981.509 824.766 963.228 826.641 946.587 822.891 L 911.196 814.922 C 901.587 812.812 891.743 816.563 885.649 824.531 C 881.899 829.687 879.79 835.781 879.79 842.109 C 879.79 843.047 880.024 844.219 880.024 845.156 L 885.649 899.297 C 886.118 903.985 888.228 908.438 891.743 911.25 C 900.181 918.281 904.868 928.593 904.868 939.609 C 904.868 947.578 902.056 955.781 897.134 962.109 C 892.213 968.672 886.119 974.297 879.322 978.984 L 863.384 989.765 C 860.337 991.875 858.462 995.156 858.228 999.14 C 857.993 1003.124 859.634 1006.874 862.446 1009.218 C 864.556 1011.093 867.603 1011.796 870.181 1011.562 L 890.337 1009.218 C 898.541 1008.281 906.743 1011.093 912.603 1017.187 C 918.931 1023.515 921.743 1032.187 920.572 1041.093 C 919.868 1045.546 919.634 1050 919.634 1054.687 C 919.634 1059.844 920.103 1065 920.806 1070.156 Z M 1171.826 571.876 L 28.026 571.876 L 28.026 590.626 L 1171.826 590.626 Z M 154.451 223.357 C 152.576 220.545 152.576 216.795 154.217 213.982 C 155.858 211.17 159.139 209.295 162.42 209.295 L 209.295 209.295 L 216.561 203.435 L 199.686 192.185 C 170.857 172.966 155.857 138.747 161.014 104.294 C 164.061 86.013 172.498 69.607 185.623 56.482 L 192.888 49.217 C 195.232 46.873 198.748 45.935 202.029 46.873 C 205.31 47.81 207.888 50.389 208.591 53.67 L 215.623 81.795 C 218.67 93.514 225.936 103.826 236.014 110.623 L 236.482 111.092 C 239.06 105.701 242.107 100.31 245.389 95.389 L 266.717 63.28 C 268.826 59.998 272.81 58.592 276.56 59.295 C 280.31 60.233 283.123 63.28 283.826 67.03 L 289.92 103.124 C 292.498 117.42 292.967 131.951 291.56 146.248 L 295.545 143.67 C 305.388 137.108 318.279 136.17 328.826 141.561 L 341.482 147.889 C 344.294 149.061 346.169 151.639 346.638 154.686 C 347.107 157.733 346.169 160.78 344.06 162.889 L 320.857 186.092 C 311.716 218.435 282.185 240.701 248.435 240.701 L 242.107 240.701 L 207.419 286.873 C 205.544 289.217 202.966 290.623 199.919 290.623 L 199.45 290.623 C 196.403 290.623 193.591 288.748 191.95 286.17 Z M 212.575 227.812 L 179.294 227.812 L 201.091 264.14 L 230.153 225.234 C 232.028 222.891 234.606 221.484 237.653 221.484 L 248.669 221.484 C 274.685 221.484 297.185 203.905 303.513 178.593 C 303.982 176.953 304.919 175.312 306.091 174.14 L 321.794 158.437 L 320.857 157.969 C 316.169 155.625 310.544 156.094 306.326 158.906 L 280.779 176.015 L 268.123 186.093 C 265.544 188.202 262.263 188.671 259.216 187.734 C 256.169 186.796 253.826 184.218 253.123 181.171 L 246.56 155.155 C 243.513 143.436 236.247 133.124 226.169 126.327 C 212.106 116.952 202.028 102.889 198.044 86.483 L 194.997 74.764 C 187.028 84.138 182.107 95.388 179.997 107.576 C 175.544 134.294 187.263 161.482 209.997 176.482 L 237.653 194.763 C 240.231 196.638 241.638 199.216 241.872 202.263 C 242.106 205.31 240.7 208.123 238.356 209.998 L 218.434 225.936 C 216.794 227.342 214.684 228.045 212.575 228.045 Z M 958.119 160.78 C 954.135 161.483 949.916 159.608 948.041 156.092 C 946.166 152.576 946.869 147.889 949.681 145.076 L 958.353 136.404 L 963.041 127.029 C 967.26 118.592 975.697 113.201 985.307 113.201 C 993.979 113.201 1001.948 117.655 1006.401 124.92 C 1007.573 123.045 1008.744 121.405 1009.916 119.53 C 1014.369 113.201 1019.995 107.576 1026.557 103.358 C 1035.698 97.264 1042.261 87.889 1045.073 77.108 L 1051.636 51.092 C 1052.339 47.81 1054.917 45.232 1058.198 44.295 C 1061.48 43.357 1064.995 44.295 1067.339 46.638 L 1073.901 53.201 C 1079.995 59.061 1084.917 65.858 1088.901 73.592 C 1092.651 81.092 1095.464 89.295 1096.87 97.733 C 1102.026 129.608 1088.198 161.717 1061.245 179.764 L 1046.245 189.842 L 1087.729 219.139 C 1090.307 220.78 1091.714 223.826 1091.714 226.873 C 1091.714 230.155 1090.073 232.967 1087.495 234.608 L 1033.823 270.233 C 1032.182 271.405 1030.542 271.873 1028.667 271.873 C 1027.495 271.873 1026.323 271.873 1025.385 271.405 C 1022.573 270.233 1020.464 267.889 1019.526 265.076 L 1006.635 220.076 C 982.729 210.936 966.323 187.733 966.323 161.717 L 966.323 159.139 L 958.12 160.78 Z M 978.041 138.75 C 979.213 139.219 980.619 139.687 981.557 140.625 C 983.9 142.5 985.072 145.078 985.072 147.891 L 985.072 161.953 C 985.072 181.406 998.197 198.749 1016.947 203.906 C 1020.229 204.609 1022.572 207.187 1023.51 210.234 L 1034.291 247.734 L 1065.932 226.875 L 1028.432 199.922 C 1027.26 198.984 1026.322 198.047 1025.619 196.875 L 991.166 135.937 C 991.166 135.702 990.932 135.702 990.932 135.468 C 989.76 133.359 987.651 131.952 985.307 131.952 C 982.963 131.952 980.854 133.359 979.682 135.468 Z"/>
</svg>