<!-- Generated by IcoMoon.io -->
<svg version="1.1" xmlns="http://www.w3.org/2000/svg" width="32" height="32" viewBox="0 0 32 32">
<path d="M15.155 1.836c-1.737 0-3.395 0.334-4.907 0.931-0.609 0.925-2.182 2.58-2.215 3.341-0.016 0.336 0.492 0.502 1.526 0.652 0.339 0.051 0.601 0.154 0.784 0.304 0.675 0.554 0.151 1.414-0.281 1.933-0.797 0.95-2.445 2.211-4.794 3.594-1.003 0.589-1.729 0.831-2.272 0.624-0.419-0.16-0.684-0.548-0.825-1.204-0.252 1.027-0.387 2.096-0.387 3.2v0.080c1.814-0.242 3.465-0.195 4.927 0.176 1.436 0.365 2.688 1.040 3.721 2.057 0.822 0.809 1.059 1.584 0.784 2.345-0.256 0.711-0.976 1.37-2.090 2.004-0.807 0.457-1.376 1.005-1.735 1.59-0.49 0.802-0.509 1.414-0.458 2.304 2.269 1.769 5.12 2.825 8.221 2.825 1.965 0 3.827-0.422 5.507-1.181-0.523-0.724-0.707-1.325-0.73-1.863-0.367 0.060-0.745 0.093-1.133 0.093-3.811 0-6.902-3.091-6.902-6.902s3.091-6.902 6.902-6.902c2.207 0 4.172 1.037 5.436 2.65 1.206-0.102 3.104-0.191 4.24-0.521-0.086-0.956-0.277-1.885-0.556-2.771-1.247 0.851-2.396 0.546-3.571 0.236-0.775-0.205-1.561-0.414-2.343-0.221-2.106 0.515-3.959 0.207-4.97-0.394-0.346-0.204-0.605-0.451-0.759-0.716-0.176-0.304-0.215-0.634-0.090-0.96 0.175-0.466 0.698-0.905 1.648-1.225 0.948-0.316 1.134-0.982 1.319-1.651 0.304-1.099 0.611-2.199 3.075-2.404-2.051-1.284-4.478-2.022-7.073-2.022zM12.607 18.739c0-3.418 2.771-6.191 6.193-6.193 3.421 0 6.193 2.771 6.193 6.193s-2.771 6.193-6.193 6.193c-3.421 0-6.193-2.771-6.193-6.193zM15.795 19.491c-0.199 0-0.355-0.154-0.354-0.349 0-0.195 0.16-0.355 0.355-0.355h0.368l1.152-0.983c0.146-0.128 0.371-0.111 0.499 0.039 0.029 0.031 0.051 0.066 0.064 0.105l0.681 1.811 1.268-3.136c0.074-0.183 0.279-0.273 0.461-0.199 0.082 0.032 0.146 0.096 0.185 0.17l1.091 2.189h0.24c0.195 0 0.355 0.16 0.355 0.355s-0.16 0.355-0.355 0.355h-0.461c-0.128 0-0.255-0.074-0.316-0.199l-0.839-1.68-1.313 3.245c-0.035 0.090-0.106 0.166-0.205 0.205-0.183 0.067-0.387-0.025-0.457-0.207l-0.823-2.192-0.848 0.724c-0.065 0.064-0.154 0.102-0.25 0.102h-0.499zM14.739 18.739c0 2.244 1.818 4.061 4.061 4.061s4.061-1.817 4.061-4.061c0-2.244-1.817-4.061-4.061-4.061-2.244 0.001-4.061 1.819-4.061 4.061zM14.029 18.739c0 2.634 2.138 4.771 4.771 4.771s4.771-2.137 4.771-4.771-2.137-4.771-4.771-4.771c-2.636 0-4.771 2.137-4.771 4.771zM29.961 27.702c1.034 0.938-1.264 3.232-2.199 2.199l-3.142-3.479 1.863-1.863 3.479 3.142zM24.14 25.898l-1.366-1.514c0.646-0.457 1.21-1.021 1.668-1.668l1.514 1.366zM28.525 14.685c0.006 0.176 0.010 0.355 0.010 0.533 0 2.956-0.96 5.689-2.585 7.904l-1.124-1.015c0.56-0.995 0.876-2.144 0.876-3.366v0c0-0.003 0-0.005 0-0.008 0-1.321-0.373-2.555-1.001-3.573 1.545-0.131 2.931-0.262 3.824-0.474zM23.196 25.91c-0.591 0.445-1.225 0.845-1.891 1.194-0.336-0.663-0.663-0.858-0.652-1.712 0.531-0.15 1.036-0.359 1.51-0.624l1.034 1.142zM23.136 4.476c2.039 1.517 3.631 3.604 4.542 6.020l-0.084 0.057c-1.010 0.736-2.029 0.467-3.065 0.193-0.861-0.228-1.735-0.458-2.691-0.224-1.91 0.468-3.561 0.205-4.441-0.316-0.242-0.145-0.413-0.301-0.505-0.461-0.066-0.123-0.086-0.244-0.041-0.359 0.106-0.276 0.484-0.56 1.21-0.804 1.306-0.439 1.54-1.287 1.776-2.135 0.557-2.010 1.644-1.702 3.299-1.971zM6.195 25.149c0.004-0.704 0.192-1.401 0.593-2.051 0.419-0.685 1.072-1.315 1.988-1.836 0.966-0.55 1.578-1.087 1.773-1.622 0.176-0.484-0.012-1.008-0.615-1.6-0.941-0.925-2.084-1.539-3.399-1.875-1.024-0.26-3.795-0.484-4.733-0.139 0.217 3.616 1.869 6.845 4.394 9.124zM2.659 10.429l0.099 0.659 0.004 0.033c0.055 0.874 0.201 1.328 0.476 1.434 0.31 0.119 0.851-0.096 1.661-0.57 2.275-1.338 3.859-2.544 4.607-3.44 0.115-0.137 0.601-0.745 0.375-0.931-0.084-0.067-0.227-0.119-0.439-0.147-1.456-0.215-2.17-0.544-2.131-1.385 0.025-0.595 0.548-1.421 1.565-2.685-2.831 1.514-5.055 4.010-6.218 7.034z"></path>
</svg>
