<svg xmlns="http://www.w3.org/2000/svg" viewBox="0 0 1200 1200" width="150pt" height="150pt" xmlns:v="https://vecta.io/nano"><path d="M568.31 68.859c97.312 0 188.29 27.703 265.22 75.844-92.391 7.688-103.92 48.938-115.31 90.141-6.937 25.078-13.922 50.062-49.453 61.922-35.625 12-55.219 28.453-61.781 45.938-4.687 12.234-3.234 24.609 3.375 36 5.766 9.938 15.469 19.219 28.453 26.859 37.922 22.547 107.39 34.078 186.37 14.766 29.297-7.219 58.781.609 87.844 8.297 44.062 11.625 87.141 23.062 133.92-8.859 10.453 33.234 17.625 68.062 20.859 103.92-42.609 12.375-113.77 15.703-159 19.547-47.391-60.469-121.08-99.375-203.86-99.375-142.92 0-258.84 115.92-258.84 258.84s115.92 258.84 258.84 258.84c14.531 0 28.688-1.219 42.469-3.469.844 20.156 7.781 42.703 27.375 69.844-63 28.453-132.84 44.297-206.53 44.297-116.3 0-223.22-39.609-308.29-105.94-1.922-33.375-1.219-56.297 17.156-86.391 13.453-21.938 34.781-42.469 65.062-59.625 41.766-23.766 68.766-48.469 78.375-75.141 10.312-28.547 1.453-57.609-29.391-87.938-38.766-38.156-85.688-63.469-139.55-77.156-54.844-13.922-116.77-15.703-184.78-6.609v-3c0-41.391 5.063-81.469 14.531-120 5.297 24.609 15.234 39.141 30.938 45.141 20.391 7.781 47.625-1.312 85.219-23.391 88.078-51.844 149.86-99.141 179.76-134.76 16.219-19.453 35.859-51.703 10.547-72.469-6.844-5.625-16.688-9.469-29.391-11.391-38.766-5.625-57.844-11.859-57.234-24.469 1.219-28.547 60.234-90.609 83.062-125.29 56.719-22.406 118.88-34.922 184.03-34.922zm-95.531 633.84c0 128.29 103.92 232.22 232.22 232.22s232.22-103.92 232.22-232.22-103.92-232.22-232.22-232.22c-128.29.047-232.22 104.06-232.22 232.22zm119.53 28.219h18.703c3.609 0 6.938-1.453 9.375-3.844l31.781-27.141 30.844 82.219c2.625 6.844 10.312 10.312 17.156 7.781 3.703-1.453 6.375-4.312 7.688-7.687l49.219-121.69 31.453 63c2.297 4.688 7.078 7.453 11.859 7.453h17.297c7.313 0 13.312-6 13.312-13.312s-6-13.312-13.312-13.312h-9l-40.922-82.078c-1.453-2.766-3.844-5.156-6.937-6.375-6.844-2.766-14.531.609-17.297 7.453l-47.531 117.61-25.547-67.922c-.469-1.453-1.312-2.766-2.391-3.937-4.781-5.625-13.219-6.234-18.703-1.453l-43.219 36.844h-13.781c-7.312 0-13.312 6-13.312 13.312-.047 7.313 5.813 13.078 13.266 13.078zM552.7 702.699c0 84.141 68.156 152.29 152.29 152.29s152.29-68.156 152.29-152.29c0-84.141-68.156-152.29-152.29-152.29-84.141.047-152.29 68.203-152.29 152.29zm-26.625 0c0 98.766 80.156 178.92 178.92 178.92s178.92-80.156 178.92-178.92-80.156-178.92-178.92-178.92c-98.859 0-178.92 80.156-178.92 178.92zm597.47 336.14l-130.45-117.84-69.844 69.844 117.84 130.45c35.062 38.766 121.22-47.297 82.453-82.453zm-150.24-135.71l-56.766-51.234c-17.156 24.234-38.297 45.375-62.531 62.531l51.234 56.766zm96.375-352.45c-33.469 7.922-85.453 12.844-143.39 17.766a257.89 257.89 0 0 1 37.547 134.29c0 45.844-11.859 88.922-32.859 126.24l42.141 38.062c60.938-83.062 96.938-185.53 96.938-296.39 0-6.656-.141-13.359-.375-19.969zm-199.82 420.94l-38.766-42.844c-17.766 9.938-36.703 17.766-56.625 23.391-.375 32.062 11.859 39.375 24.469 64.219 24.984-13.078 48.75-28.078 70.922-44.766zm-2.25-803.76c-62.062 10.078-102.84-1.453-123.71 73.922-8.859 31.781-17.625 63.609-66.609 80.062-27.234 9.141-41.391 19.781-45.375 30.141-1.687 4.313-.937 8.859 1.547 13.453 3.469 6 9.844 11.859 18.938 17.297 33 19.547 94.922 29.391 166.55 11.859 35.859-8.766 68.625-.141 100.92 8.391 38.859 10.312 77.062 20.391 114.94-7.219l3.141-2.156c-34.172-90.609-93.891-168.84-170.34-225.74zm-635.29 775.22c.141-26.391 7.219-52.547 22.219-76.922 15.703-25.688 40.219-49.312 74.531-68.859 36.234-20.625 59.156-40.781 66.469-60.844 6.609-18.141-.469-37.781-23.062-60-35.297-34.688-78.141-57.703-127.45-70.312-38.391-9.75-142.31-18.141-177.47-5.203 8.156 135.61 70.078 256.69 164.76 342.14zm-132.61-552l3.703 24.703.141 1.219c2.063 32.766 7.547 49.781 17.859 53.766 11.625 4.453 31.922-3.609 62.297-21.375 85.312-50.156 144.71-95.391 172.78-129 4.313-5.156 22.547-27.938 14.062-34.922-3.141-2.531-8.531-4.453-16.453-5.531-54.609-8.062-81.375-20.391-79.922-51.938.938-22.312 20.531-53.297 58.688-100.69-106.17 56.766-189.56 150.37-233.16 263.76z" fill-rule="evenodd"/></svg>