<!-- Generated by IcoMoon.io -->
<svg version="1.1" xmlns="http://www.w3.org/2000/svg" width="32" height="32" viewBox="0 0 32 32">
<path d="M31.499 14.75c0.137 0 0.25 0.112 0.25 0.25v1c0 4.169-1.681 8.125-4.744 11.138-1.462 1.444-3.15 2.581-5.019 3.375-1.925 0.819-3.937 1.238-5.987 1.238-2.844 0-5.687-0.8-8.219-2.306-2.538-1.519-4.538-3.619-5.781-6.069-1.144-2.25-1.75-4.8-1.75-7.362v-1c0-0.138 0.112-0.25 0.25-0.25h3.256c0.056-0.838 0.756-1.5 1.606-1.5 0.044 0 0.088 0 0.131 0.006 0.112-0.575 0.619-1.006 1.225-1.006 0.237 0 0.463 0.069 0.662 0.194 0.169-0.125 0.375-0.194 0.588-0.194 0.394 0 0.738 0.231 0.9 0.563 0.15-0.056 0.319-0.075 0.481-0.056 0.037-0.075 0.094-0.138 0.15-0.2v-0.375c0-0.269 0.119-0.519 0.331-0.688l1.419-1.119v-2.381c0-0.175 0.019-0.344 0.056-0.513l-0.25 0.175c-0.331 0.225-0.762 0.25-1.119 0.056-0.075-0.037-0.119-0.106-0.131-0.188-0.006-0.075 0.019-0.156 0.075-0.213l1.137-1.119c0.294-0.294 0.688-0.456 1.106-0.456h7.275l1.313-1.306c-0.275-0.188-0.45-0.5-0.456-0.837l-0.006-0.275c0-0.069 0.025-0.131 0.075-0.181 0.044-0.050 0.112-0.075 0.181-0.075l0.256 0.006c0.462 0.019 0.85 0.319 0.975 0.762l0.038 0.138c0.019 0.006 0.038 0.006 0.056 0.012v-1.056l-1.719-0.538-0.038-0.019c-0.006 0-0.006-0.006-0.012-0.006-0.006-0.006-0.012-0.006-0.019-0.013l-0.006-0.006c-0.012-0.006-0.019-0.013-0.025-0.019l-0.012-0.013c-0.006-0.006-0.012-0.019-0.019-0.025-0.006 0-0.006-0.006-0.012-0.012l-0.9-1.519c-0.069-0.119-0.031-0.275 0.087-0.344s0.275-0.031 0.344 0.088l0.712 1.194 0.406-0.563c0.081-0.113 0.238-0.138 0.35-0.056s0.137 0.238 0.056 0.35l-0.425 0.594 0.425 0.131 0.7-0.781c0.087-0.1 0.25-0.112 0.35-0.019 0.1 0.087 0.112 0.25 0.019 0.35l-0.55 0.613 0.5 0.156 0.663-0.438c0.113-0.075 0.269-0.038 0.344 0.075s0.038 0.269-0.075 0.344l-0.65 0.425v0.4l0.619-0.1 0.994-0.981c0.1-0.1 0.262-0.094 0.356 0.006 0.1 0.1 0.094 0.263-0.006 0.356l-1.063 1.019c-0.038 0.038-0.081 0.063-0.131 0.069l-0.775 0.125v0.412l1.419 0.85c0.156 0.094 0.269 0.25 0.306 0.431 0.044 0.175 0.006 0.369-0.1 0.519-0.169 0.25-0.45 0.4-0.756 0.4-0.044 0-0.081 0-0.125-0.006l-0.919-0.125-0.844 2.281c-0.25 0.675-0.769 1.206-1.406 1.481l0.8 0.956c0.038 0.050 0.056 0.106 0.056 0.162v2.394c0 0.088-0.044 0.169-0.113 0.213l-0.75 0.481c-0.044 0.025-0.087 0.037-0.137 0.037-0.038 0-0.081-0.012-0.119-0.031-0.081-0.044-0.131-0.125-0.131-0.219v-2.275l-1.169-0.981-0.744 2.725 0.212 0.912 0.3 0.35h3.287c-0.088-0.15-0.138-0.319-0.138-0.5 0-0.55 0.45-1 1-1 0-0.55 0.45-1 1-1 0.081 0 0.156 0.006 0.231 0.025 0.231-0.325 0.613-0.525 1.019-0.525s0.788 0.2 1.019 0.525c0.075-0.019 0.15-0.025 0.231-0.025 0.55 0 1 0.45 1 1 0.55 0 1 0.45 1 1 0 0.181-0.050 0.35-0.137 0.5h3.887zM21.067 7.731l-1.006 0.763c-0.381 0.294-0.825 0.506-1.288 0.631l-0.169 0.625h0.256c0.875 0 1.663-0.55 1.969-1.369zM9.999 12.275c0.069-0.019 0.144-0.025 0.219-0.025 0.062 0 0.125 0.006 0.188 0.019l1.988-0.956c0.369-0.175 0.606-0.556 0.606-0.963v-1.050c0-0.137 0.113-0.25 0.25-0.25s0.25 0.113 0.25 0.25v0.456h0.856l0.369-0.463c0.275-0.344 0.688-0.537 1.125-0.537h0.844l0.019-0.062c0.038-0.131 0.175-0.206 0.306-0.169s0.206 0.175 0.169 0.306l-0.512 1.787c-0.156 0.55-0.069 1.138 0.244 1.613 0.038 0.050 0.050 0.119 0.038 0.181l-0.219 1.119 0.456 1.225h0.25l-0.056-0.069c-0.031-0.031-0.050-0.069-0.056-0.106l-0.238-1.031c-0.012-0.044-0.012-0.088 0-0.125l1.363-4.981c0.038-0.131 0.175-0.212 0.306-0.175 0.125 0.031 0.2 0.162 0.175 0.287 0.3-0.112 0.581-0.262 0.831-0.456l1.631-1.244 0.35-0.944c0.044-0.112 0.15-0.175 0.269-0.162l1.125 0.15c0.019 0.006 0.038 0.006 0.056 0.006 0.137 0 0.262-0.069 0.344-0.181 0.025-0.038 0.038-0.088 0.025-0.131s-0.044-0.081-0.081-0.106l-1.538-0.925c-0.006-0.006-0.012-0.006-0.019-0.012l0.006 0.025c0.025 0.094-0.006 0.194-0.081 0.256-0.044 0.044-0.106 0.063-0.163 0.063-0.038 0-0.075-0.012-0.106-0.025l-0.413-0.194-1.5 1.5c-0.044 0.050-0.106 0.075-0.175 0.075h-7.375c-0.287 0-0.556 0.112-0.756 0.313l-0.787 0.775c0.069-0.019 0.131-0.044 0.194-0.088l0.662-0.456c0.044-0.031 0.094-0.044 0.144-0.044h0.188c0.094 0 0.175 0.050 0.219 0.125s0.044 0.175 0 0.25c-0.156 0.269-0.238 0.569-0.238 0.875v2.5c0 0.075-0.031 0.144-0.094 0.194l-1.512 1.194c-0.094 0.069-0.144 0.175-0.144 0.294zM11.211 13.15c0.594 0.162 1.019 0.7 1.012 1.331 0 0.094-0.006 0.181-0.025 0.269h0.6l-1.119-2.544-0.738 0.356c0.15 0.156 0.244 0.363 0.269 0.588zM13.792 14.169l0.456 0.581h2.406l-0.419-1.113c-0.019-0.044-0.019-0.094-0.012-0.137l0.212-1.094c-0.344-0.581-0.438-1.275-0.25-1.931l0.063-0.225h-1.563c0.088 0.475-0.044 0.956-0.356 1.319l-0.863 1zM14.88 21.863c-0.094-0.95 0.469-1.844 1.337-2.131 0.475-0.156 0.794-0.612 0.794-1.137 0-0.119-0.012-0.238-0.050-0.356-0.056-0.206-0.144-0.406-0.25-0.594-0.106-0.181-0.231-0.356-0.375-0.512l-0.113-0.125c-0.194-0.212-0.331-0.475-0.4-0.756h-15.075c0.037 2.175 0.519 4.325 1.4 6.275 0.081-0.4 0.138-0.831 0.144-1.163 0.013-0.469 0.156-0.919 0.431-1.3 0.2-0.281 0.469-0.512 0.769-0.669 0.225-0.119 0.513-0.119 0.737 0.006 1.019 0.563 1.912 1.369 2.581 2.344 0.206 0.3 0.319 0.656 0.319 1.025v0.056c0 0.337 0.162 0.656 0.425 0.85 0.25 0.175 0.55 0.225 0.838 0.131 0.088-0.031 0.175-0.075 0.256-0.131s0.156-0.125 0.213-0.2l0.688-0.894c0.431-0.563 1.106-0.85 1.794-0.762 0.025 0 0.056 0.006 0.088 0.012l0.65 0.113c0.725 0.125 1.331 0.65 1.569 1.381 0.063 0.181 0.094 0.362 0.106 0.556 0.019 0.419 0.15 0.819 0.363 1.169 0.219 0.35 0.512 0.631 0.863 0.825 0.25 0.131 0.406 0.4 0.406 0.694 0 0.125-0.031 0.25-0.088 0.363-0.063 0.137-0.1 0.281-0.1 0.431 0 0.094 0.012 0.188 0.037 0.275 0.063 0.212 0.244 0.306 0.394 0.306 0.081 0 0.162-0.031 0.231-0.081l0.719-0.544c0.144-0.113 0.238-0.275 0.269-0.462 0.019-0.113 0.025-0.231 0.025-0.35 0-0.569-0.206-1.106-0.581-1.519-0.156-0.169-0.331-0.313-0.531-0.419-0.2-0.113-0.369-0.269-0.494-0.462s-0.2-0.413-0.225-0.644l-0.162-1.6zM21.199 23.412c0.4-0.206 0.4-0.8 0.006-1.006-0.188-0.1-0.3-0.294-0.3-0.506v-0.038c0-0.512-0.394-0.931-0.887-0.931-0.238 0-0.462-0.1-0.631-0.275-0.2-0.212-0.531-0.212-0.731 0-0.163 0.163-0.2 0.419-0.1 0.625l0.406 0.85c0.038 0.075 0.087 0.144 0.144 0.206 0.3 0.313 0.3 0.819 0 1.131-0.331 0.344-0.2 0.931 0.244 1.087 0.531 0.188 1.113-0.062 1.363-0.587l0.113-0.238c0.050-0.106 0.131-0.194 0.238-0.25l0.137-0.069zM22.167 17.194c0.2 0 0.4-0.044 0.587-0.144 0.112-0.062 0.238-0.094 0.369-0.094 0.219 0 0.425 0.087 0.581 0.25 0.056 0.062 0.137 0.094 0.219 0.094s0.156-0.031 0.219-0.094c0.1-0.106 0.125-0.275 0.063-0.406l-0.231-0.481-0.038-0.075h-2.856c-0.006 0.038-0.012 0.075-0.012 0.113 0 0.163 0.063 0.319 0.169 0.431 0.25 0.262 0.581 0.406 0.931 0.406zM24.555 28.538c3.944-2.738 6.606-7.263 6.694-12.281h-3.931l0.188 0.419c0.181 0.419 0.050 0.906-0.325 1.156-0.387 0.262-0.619 0.706-0.619 1.188 0 0.050 0 0.106 0.006 0.156 0.012 0.1 0.044 0.194 0.088 0.281 0.050 0.087 0.106 0.163 0.181 0.225 0.288 0.238 0.45 0.594 0.45 0.969 0 0.494-0.269 0.931-0.7 1.137-0.413 0.206-0.9 0.256-1.344 0.156l-0.944-0.212c-0.256-0.056-0.519 0.044-0.681 0.256-0.1 0.137-0.156 0.3-0.156 0.469 0 0.025 0.006 0.056 0.006 0.081l0.15 1.444c0.012 0.125 0.069 0.244 0.163 0.319 0.225 0.188 0.35 0.462 0.35 0.756 0 0.212-0.075 0.431-0.206 0.6-0.131 0.175-0.294 0.325-0.475 0.45l-0.425 0.288c-0.081 0.056-0.131 0.144-0.137 0.25s0.038 0.206 0.112 0.269c0.056 0.050 0.138 0.069 0.206 0.063l0.538-0.063c0.219-0.025 0.438 0.050 0.594 0.212 0.169 0.169 0.244 0.4 0.212 0.637-0.019 0.119-0.025 0.238-0.025 0.363 0 0.138 0.012 0.275 0.031 0.413zM31.249 15.25h-30.501v0.5h30.501zM4.119 5.956c-0.050-0.075-0.050-0.175-0.006-0.25s0.131-0.125 0.219-0.125h1.25l0.194-0.156-0.45-0.3c-0.769-0.513-1.169-1.425-1.031-2.344 0.081-0.487 0.306-0.925 0.656-1.275l0.194-0.194c0.063-0.063 0.156-0.088 0.244-0.063s0.156 0.094 0.175 0.181l0.188 0.75c0.081 0.313 0.275 0.587 0.544 0.769l0.012 0.013c0.069-0.144 0.15-0.288 0.238-0.419l0.569-0.856c0.056-0.088 0.162-0.125 0.262-0.106 0.1 0.025 0.175 0.106 0.194 0.206l0.162 0.962c0.069 0.381 0.081 0.769 0.044 1.15l0.106-0.069c0.262-0.175 0.606-0.2 0.887-0.056l0.338 0.169c0.075 0.031 0.125 0.1 0.137 0.181s-0.012 0.162-0.069 0.219l-0.619 0.619c-0.244 0.862-1.031 1.456-1.931 1.456h-0.169l-0.925 1.231c-0.050 0.063-0.119 0.1-0.2 0.1h-0.013c-0.081 0-0.156-0.050-0.2-0.119zM5.669 6.075h-0.888l0.581 0.969 0.775-1.038c0.050-0.062 0.119-0.1 0.2-0.1h0.294c0.694 0 1.294-0.469 1.463-1.144 0.012-0.044 0.037-0.088 0.069-0.119l0.419-0.419-0.025-0.012c-0.125-0.063-0.275-0.050-0.387 0.025l-0.681 0.456-0.338 0.269c-0.069 0.056-0.156 0.069-0.238 0.044s-0.144-0.094-0.162-0.175l-0.175-0.694c-0.081-0.313-0.275-0.587-0.544-0.769-0.375-0.25-0.644-0.625-0.75-1.063l-0.081-0.313c-0.213 0.25-0.344 0.55-0.4 0.875-0.119 0.712 0.194 1.438 0.8 1.837l0.737 0.487c0.069 0.050 0.106 0.119 0.112 0.2s-0.031 0.156-0.094 0.206l-0.531 0.425c-0.044 0.037-0.1 0.056-0.156 0.056zM25.55 4.287c-0.106 0.019-0.219-0.031-0.269-0.125s-0.031-0.219 0.044-0.294l0.231-0.231 0.125-0.25c0.113-0.225 0.337-0.369 0.594-0.369 0.231 0 0.444 0.119 0.563 0.313 0.031-0.050 0.062-0.094 0.094-0.144 0.119-0.169 0.269-0.319 0.444-0.431 0.244-0.163 0.419-0.413 0.494-0.7l0.175-0.694c0.019-0.088 0.087-0.156 0.175-0.181s0.181 0 0.244 0.062l0.175 0.175c0.163 0.156 0.294 0.338 0.4 0.544 0.1 0.2 0.175 0.419 0.212 0.644 0.137 0.85-0.231 1.706-0.95 2.187l-0.4 0.269 1.106 0.781c0.069 0.044 0.106 0.125 0.106 0.206 0 0.088-0.044 0.162-0.113 0.206l-1.431 0.95c-0.044 0.031-0.087 0.044-0.137 0.044-0.031 0-0.063 0-0.088-0.012-0.075-0.031-0.131-0.094-0.156-0.169l-0.344-1.2c-0.637-0.244-1.075-0.862-1.075-1.556v-0.069l-0.219 0.044zM26.081 3.7c0.031 0.013 0.069 0.025 0.094 0.050 0.062 0.050 0.094 0.119 0.094 0.194v0.375c0 0.519 0.35 0.981 0.85 1.119 0.088 0.019 0.15 0.088 0.175 0.169l0.288 1 0.844-0.556-1-0.719c-0.031-0.025-0.056-0.050-0.075-0.081l-0.919-1.625c0-0.006-0.006-0.006-0.006-0.013-0.031-0.056-0.087-0.094-0.15-0.094s-0.119 0.038-0.15 0.094z"></path>
</svg>
