<!-- Generated by IcoMoon.io -->
<svg version="1.1" xmlns="http://www.w3.org/2000/svg" width="32" height="32" viewBox="0 0 32 32">
<path d="M23.060 16.38l-2.53-5.060 2.025-4.045c0.18-0.365 0.71-0.365 0.89 0l4.555 9.105zM27.544 6.005c-0.98 0.705-2.35 0.515-3.095-0.45-0.76-0.985-0.575-2.395 0.41-3.155 0.715-0.545 1.65-0.595 2.4-0.21 0.11-0.315 0.305-0.605 0.59-0.825 0.765-0.59 1.865-0.445 2.455 0.32 0.57 0.745 0.445 1.805-0.27 2.405 0.23 0.115 0.44 0.275 0.605 0.49 0.59 0.765 0.445 1.865-0.32 2.455s-1.865 0.445-2.455-0.32c-0.165-0.215-0.27-0.46-0.32-0.71zM1.79 4.13c-0.675-0.3-0.975-1.075-0.675-1.75s1.080-0.97 1.75-0.675c0.010 0.005 0.015 0.015 0.025 0.015 0.42-0.635 1.245-0.9 1.965-0.58 0.8 0.355 1.16 1.295 0.805 2.095s-1.295 1.16-2.095 0.805c-0.115-0.050-0.215-0.115-0.31-0.185-0.375 0.37-0.95 0.5-1.465 0.27zM14.645 10.645l0.71 0.71-1.855 1.85v3.295h-1v-6.5h1v1.795zM5.725 12.25c0-1.52 0.785-2.75 1.75-2.75s1.75 1.23 1.75 2.75c0 1.245-0.525 2.295-1.25 2.635v1.615h-1v-1.615c-0.725-0.34-1.25-1.39-1.25-2.635zM3.225 12.25c0-1.52 0.785-2.75 1.75-2.75 0.34 0 0.655 0.15 0.92 0.42-0.415 0.585-0.67 1.405-0.67 2.33s0.255 1.745 0.67 2.33c-0.13 0.13-0.27 0.235-0.42 0.305v1.615h-1v-1.615c-0.72-0.34-1.25-1.39-1.25-2.635zM2.5 17.499c0-0.275 0.225-0.5 0.5-0.5h26c0.275 0 0.5 0.225 0.5 0.5 0 7.72-6.055 14-13.5 14s-13.5-6.28-13.5-14zM6.835 17.999l1.12 0.595c0.88 0.46 1.45 1.45 1.46 2.55l0.030 0.92c0.035 1.52 1.33 2.575 2.6 2.11l0.79-0.29c1.045-0.375 2.15 0.26 2.495 1.425 0.25 0.85 0.045 1.73-0.465 2.32-0.245 0.265-0.55 0.475-0.9 0.585l-1.525 0.475c-0.705 0.225-1.43 0.34-2.155 0.365 1.715 0.92 3.66 1.445 5.72 1.445 1.355 0 2.66-0.23 3.885-0.645 0.31-0.35 0.655-0.655 1.030-0.905 1.2-0.81 1.135-2.8-0.11-3.505l-0.55-0.31c-0.69-0.395-1.070-1.25-0.945-2.11l0.095-0.66c0.14-1.035 0.985-1.77 1.91-1.66l3.15 0.375c0.61 0.070 1.17-0.22 1.535-0.7 0.265-0.365 0.42-0.825 0.41-1.335-0.015-0.38 0.075-0.735 0.23-1.045zM14.495 16.38l3.555-7.105c0.185-0.37 0.71-0.37 0.895 0l3.555 7.105zM9.1 7.5c-1.050 0-1.9-0.85-1.9-1.895 0-0.94 0.685-1.715 1.585-1.865v-0.030c0-1.22 0.99-2.21 2.215-2.21s2.215 0.99 2.215 2.21v0.030c0.9 0.15 1.585 0.925 1.585 1.865 0 1.045-0.85 1.895-1.9 1.895h-1.425v9h-1v-5.365l-1.375-1.835 0.8-0.6 0.575 0.765v-1.965h-1.375z"></path>
</svg>
