<?xml version="1.0" encoding="UTF-8" standalone="no"?><!DOCTYPE svg PUBLIC "-//W3C//DTD SVG 1.1//EN" "http://www.w3.org/Graphics/SVG/1.1/DTD/svg11.dtd"><svg width="100%" height="100%" viewBox="0 0 150 150" version="1.1" xmlns="http://www.w3.org/2000/svg" xmlns:xlink="http://www.w3.org/1999/xlink" xml:space="preserve" xmlns:serif="http://www.serif.com/" style="fill-rule:evenodd;clip-rule:evenodd;stroke-linejoin:round;stroke-miterlimit:2;"><path d="M99.411,116.201c0.235,2.031 0.22,4.073 -0.045,6.075c-0.015,0.115 0.03,0.225 0.125,0.29l4.869,3.488c1.232,0.886 1.712,2.027 1.287,3.053l-2.077,4.924c-0.21,0.486 -0.776,1.286 -2.277,1.286c-0.26,0 -0.536,-0.025 -0.806,-0.075l-5.9,-1.051c-0.015,-0.005 -0.03,-0.005 -0.05,-0.005c-0.095,0 -0.18,0.045 -0.24,0.115c-1.261,1.602 -2.718,3.038 -4.324,4.274c-0.09,0.07 -0.135,0.18 -0.12,0.295l0.976,5.91c0.245,1.507 -0.225,2.653 -1.256,3.063l-4.955,2.012c-0.225,0.095 -0.475,0.145 -0.735,0.145c-1.101,-0 -1.907,-0.916 -2.287,-1.461l-3.428,-4.92c-0.06,-0.08 -0.155,-0.13 -0.255,-0.13l-0.035,0c-0.961,0.115 -1.937,0.171 -2.898,0.171c-1.061,-0 -2.132,-0.071 -3.183,-0.206c-0.01,0 -0.025,-0.005 -0.035,-0.005c-0.105,0 -0.195,0.05 -0.255,0.135l-3.488,4.86c-0.39,0.54 -1.201,1.441 -2.292,1.441c-0.265,-0 -0.52,-0.055 -0.761,-0.155l-4.919,-2.077c-1.026,-0.44 -1.476,-1.596 -1.211,-3.088l1.041,-5.895c0.02,-0.11 -0.02,-0.225 -0.105,-0.29c-1.627,-1.286 -3.058,-2.742 -4.264,-4.324c-0.06,-0.08 -0.15,-0.12 -0.245,-0.12l-0.05,0l-5.925,0.971c-0.25,0.045 -0.501,0.065 -0.746,0.065c-1.516,-0 -2.087,-0.801 -2.297,-1.281l-2.047,-5.024c-0.385,-1.016 0.115,-2.132 1.336,-2.988l4.915,-3.433c0.095,-0.065 0.145,-0.175 0.13,-0.29c-0.235,-2.002 -0.22,-4.044 0.045,-6.066c0.015,-0.11 -0.035,-0.225 -0.125,-0.29l-4.864,-3.498c-1.262,-0.921 -1.727,-2.032 -1.282,-3.062l2.072,-4.915c0.21,-0.485 0.776,-1.281 2.272,-1.281c0.26,0 0.536,0.025 0.816,0.07l5.895,1.051c0.015,0.005 0.035,0.005 0.05,0.005c0.1,0 0.185,-0.04 0.24,-0.11c1.266,-1.611 2.723,-3.048 4.329,-4.274c0.085,-0.07 0.135,-0.185 0.115,-0.3l-0.971,-5.905c-0.25,-1.491 0.21,-2.637 1.231,-3.058l4.97,-2.016c0.225,-0.096 0.475,-0.146 0.735,-0.146c1.111,0 1.917,0.926 2.297,1.472l0.11,0.16l0,15.794c-0.165,0.075 -0.33,0.155 -0.49,0.245c-0.16,0.085 -0.32,0.17 -0.475,0.265c-0.316,0.175 -0.621,0.37 -0.916,0.565c-0.155,0.096 -0.3,0.201 -0.446,0.311c-0.145,0.105 -0.285,0.21 -0.425,0.32c-0.275,0.22 -0.55,0.445 -0.811,0.686c-0.165,0.145 -0.32,0.3 -0.48,0.45c-0.145,0.145 -0.28,0.29 -0.42,0.435c-0.025,0.025 -0.046,0.05 -0.071,0.075c-0.01,0.015 -0.025,0.02 -0.03,0.035c-0.01,0.005 -0.015,0.015 -0.02,0.02c-0.11,0.126 -0.225,0.256 -0.33,0.381l-0.02,0.02c-0.14,0.17 -0.275,0.335 -0.405,0.505c-0.205,0.26 -0.396,0.531 -0.581,0.801c-0.055,0.08 -0.11,0.165 -0.165,0.25c-0.055,0.085 -0.105,0.17 -0.16,0.255c-0.07,0.115 -0.14,0.236 -0.21,0.356c-0.02,0.03 -0.04,0.065 -0.06,0.095l-0,0.005c-0.055,0.1 -0.115,0.205 -0.17,0.31c-0.005,0.005 -0.005,0.01 -0.01,0.015c-0.025,0.045 -0.05,0.09 -0.07,0.135c-0.056,0.1 -0.106,0.195 -0.151,0.295c-0.02,0.03 -0.035,0.065 -0.05,0.096c-0.01,0.015 -0.015,0.035 -0.025,0.05c-0.065,0.135 -0.125,0.27 -0.185,0.405c-0.015,0.03 -0.03,0.06 -0.045,0.09c-0.01,0.02 -0.015,0.04 -0.025,0.06c0,0.005 -0.005,0.005 -0.005,0.01c-0.02,0.055 -0.045,0.11 -0.07,0.165c-0.02,0.055 -0.04,0.115 -0.065,0.17c-0.01,0.02 -0.02,0.04 -0.025,0.065c-0.055,0.131 -0.11,0.266 -0.155,0.401c-0.02,0.04 -0.035,0.085 -0.045,0.125l-0.005,0.005c-0.005,0.015 -0.01,0.025 -0.01,0.04c-0.035,0.08 -0.06,0.17 -0.09,0.255c-0.04,0.11 -0.07,0.22 -0.105,0.33c-0.015,0.045 -0.03,0.09 -0.04,0.131c-0.04,0.125 -0.075,0.25 -0.106,0.375c-0.01,0.035 -0.02,0.07 -0.03,0.11c-0.025,0.095 -0.05,0.195 -0.075,0.295c0,0.01 0,0.02 -0.005,0.025c-0.025,0.105 -0.05,0.2 -0.07,0.305c-0.03,0.116 -0.05,0.226 -0.07,0.346c-0.005,0.015 -0.005,0.035 -0.01,0.05c-0.01,0.03 -0.015,0.06 -0.02,0.09c-0.02,0.115 -0.04,0.23 -0.055,0.35c-0.005,0.02 -0.01,0.035 -0.01,0.05c-0.005,0.04 -0.01,0.08 -0.015,0.115c0,0.005 -0.005,0.015 -0.005,0.02c-0.01,0.065 -0.02,0.125 -0.025,0.191c0,0.01 -0.005,0.02 -0.005,0.03l0,0.02c0,0.005 0,0.005 -0.005,0.01c-0.01,0.05 -0.015,0.1 -0.015,0.155c0,0.01 -0.005,0.02 -0.005,0.035c-0.005,0.045 -0.015,0.1 -0.02,0.15c-0.01,0.09 -0.015,0.18 -0.025,0.265c-0.005,0.05 -0.01,0.095 -0.01,0.14c-0.005,0.045 -0.005,0.085 -0.01,0.135c-0.005,0.005 -0.005,0.015 -0.005,0.02c-0.005,0.11 -0.01,0.216 -0.015,0.326c0,0.03 -0.005,0.06 -0.005,0.09c-0.005,0.045 -0.005,0.085 -0.005,0.13l0,0.04c-0.005,0.14 -0.01,0.28 -0.01,0.42c0,0.2 0.005,0.406 0.015,0.611c0.005,0.075 0.005,0.15 0.01,0.225c0.005,0.095 0.01,0.185 0.02,0.28c0.005,0.1 0.015,0.195 0.025,0.29c0.01,0.106 0.02,0.206 0.03,0.306c0.01,0.065 0.015,0.125 0.025,0.185c0.01,0.105 0.03,0.205 0.045,0.31c0.015,0.105 0.03,0.215 0.05,0.325c0.03,0.191 0.07,0.381 0.11,0.566c0.03,0.145 0.06,0.285 0.095,0.425c0.04,0.16 0.08,0.321 0.126,0.481c0.01,0.03 0.015,0.055 0.025,0.085c0.02,0.08 0.045,0.16 0.07,0.245c0.025,0.08 0.05,0.16 0.08,0.245c0.055,0.175 0.115,0.345 0.18,0.521c0.06,0.17 0.125,0.345 0.195,0.52c2.367,5.8 7.982,9.328 13.897,9.328c1.872,-0.005 3.773,-0.355 5.615,-1.101c3.708,-1.506 6.606,-4.369 8.157,-8.052c1.556,-3.688 1.581,-7.756 0.07,-11.465c-0.105,-0.27 -0.225,-0.53 -0.345,-0.79c-0.035,-0.075 -0.075,-0.151 -0.11,-0.231c-0.055,-0.11 -0.11,-0.215 -0.171,-0.33c-0.04,-0.075 -0.08,-0.15 -0.12,-0.23c-0.08,-0.14 -0.155,-0.275 -0.235,-0.415c-0.035,-0.055 -0.075,-0.116 -0.105,-0.176c-0.095,-0.155 -0.195,-0.305 -0.295,-0.46c-0.055,-0.085 -0.115,-0.17 -0.17,-0.255c-0.035,-0.055 -0.07,-0.105 -0.105,-0.15c-0.065,-0.095 -0.136,-0.185 -0.201,-0.276c-0.08,-0.11 -0.165,-0.215 -0.245,-0.32c-0.005,-0.015 -0.015,-0.02 -0.025,-0.035l-0.005,0c-0.06,-0.075 -0.12,-0.155 -0.18,-0.225c-0.03,-0.04 -0.065,-0.075 -0.095,-0.115c-0.03,-0.04 -0.06,-0.075 -0.095,-0.11c-0.075,-0.085 -0.145,-0.17 -0.225,-0.255c-0.145,-0.171 -0.306,-0.336 -0.471,-0.501c-0.08,-0.08 -0.16,-0.16 -0.24,-0.24c-0.08,-0.08 -0.16,-0.16 -0.25,-0.235c-0.08,-0.075 -0.165,-0.155 -0.25,-0.231c-0.055,-0.045 -0.115,-0.095 -0.176,-0.15c-0.015,-0.015 -0.03,-0.03 -0.05,-0.045c-0.095,-0.085 -0.2,-0.165 -0.295,-0.245c-0.09,-0.07 -0.18,-0.14 -0.275,-0.21c-0.18,-0.14 -0.365,-0.275 -0.551,-0.405c-0.095,-0.065 -0.19,-0.131 -0.29,-0.196c-0.095,-0.06 -0.19,-0.125 -0.29,-0.185c-0.09,-0.06 -0.19,-0.12 -0.285,-0.18c-0.005,0 -0.01,-0.005 -0.015,-0.01c-0.015,-0.01 -0.03,-0.015 -0.045,-0.025c-0.02,-0.01 -0.035,-0.02 -0.055,-0.03c-0.06,-0.035 -0.126,-0.075 -0.191,-0.11c-0.1,-0.06 -0.2,-0.115 -0.305,-0.17c-0.1,-0.055 -0.205,-0.105 -0.31,-0.16c-0.1,-0.05 -0.205,-0.105 -0.31,-0.156l-0,-15.173l0.505,-0.7c0.37,-0.526 1.176,-1.431 2.277,-1.431c0.26,-0 0.515,0.05 0.756,0.15l4.934,2.081c1.026,0.441 1.471,1.592 1.206,3.083l-1.046,5.9c-0.025,0.11 0.02,0.225 0.11,0.3c1.602,1.257 3.038,2.708 4.269,4.314c0.055,0.075 0.15,0.12 0.245,0.12l0.045,0l5.9,-0.971c0.266,-0.045 0.521,-0.065 0.766,-0.065c1.556,0 2.117,0.826 2.317,1.317l2.012,4.959c0.1,0.255 0.145,0.495 0.145,0.741c-0,1.13 -1.036,1.971 -1.481,2.281l-4.9,3.428c-0.095,0.066 -0.145,0.176 -0.13,0.286l0,0.005Zm4.364,-87.421c-0,13.642 -9.538,25.097 -22.294,28.044l-0,-1.421c-0,-1.026 -0.241,-1.997 -0.671,-2.862c-1.056,-2.142 -3.263,-3.619 -5.81,-3.619c-2.547,0 -4.759,1.477 -5.815,3.619c-0.425,0.865 -0.671,1.836 -0.671,2.862l0,1.421c-12.761,-2.947 -22.299,-14.402 -22.299,-28.044c0,-15.869 12.911,-28.78 28.785,-28.78c15.869,-0 28.775,12.911 28.775,28.78Zm-28.735,-8.237c1.031,0.01 2.062,0.345 2.828,1.001c0.66,0.57 1.02,1.291 1.02,2.036c0,1.196 0.971,2.162 2.167,2.162c1.196,0 2.162,-0.966 2.162,-2.162c0,-2.026 -0.901,-3.913 -2.532,-5.314c-1.031,-0.881 -2.242,-1.481 -3.528,-1.792l-0,-2.772c-0,-1.191 -0.966,-2.157 -2.157,-2.157c-1.196,0 -2.162,0.966 -2.162,2.157l0,2.772c-1.286,0.311 -2.497,0.911 -3.523,1.792c-1.631,1.401 -2.527,3.288 -2.527,5.314c-0,2.027 0.896,3.919 2.522,5.315c1.987,1.707 3.928,1.892 5.49,2.037c1.281,0.12 2.127,0.195 3.068,1.006c0.66,0.565 1.02,1.291 1.02,2.041c0,0.751 -0.36,1.477 -1.02,2.042c-0.766,0.661 -1.792,0.991 -2.823,1.001l-0.09,0c-1.031,-0.01 -2.057,-0.34 -2.827,-1.001c-0.661,-0.57 -1.021,-1.291 -1.021,-2.037c-0,-1.196 -0.971,-2.161 -2.162,-2.161c-1.196,-0 -2.162,0.97 -2.162,2.161c-0,2.027 0.901,3.914 2.532,5.315c1.026,0.881 2.242,1.481 3.523,1.792l0,2.762c0,1.196 0.966,2.162 2.162,2.162c1.191,-0 2.162,-0.966 2.162,-2.162l-0,-2.762c1.281,-0.311 2.497,-0.911 3.523,-1.792c1.631,-1.401 2.522,-3.288 2.522,-5.32c0,-2.031 -0.891,-3.918 -2.517,-5.319c-1.992,-1.707 -3.933,-1.887 -5.49,-2.032c-1.281,-0.12 -2.127,-0.2 -3.072,-1.011c-0.656,-0.565 -1.016,-1.286 -1.016,-2.037c-0,-0.75 0.36,-1.471 1.016,-2.036c0.77,-0.656 1.796,-0.991 2.827,-1.001l0.085,-0Zm-32.548,-13.026l-9.258,-5.345c-1.036,-0.596 -2.357,-0.24 -2.953,0.791c-0.595,1.035 -0.24,2.357 0.791,2.952l9.258,5.345c0.34,0.2 0.711,0.29 1.076,0.29c0.751,0 1.476,-0.385 1.877,-1.081c0.595,-1.031 0.24,-2.352 -0.791,-2.952Zm-19.132,21.263c0,1.191 0.966,2.157 2.162,2.157l10.689,-0c1.196,-0 2.162,-0.966 2.162,-2.157c0,-1.196 -0.966,-2.162 -2.162,-2.162l-10.689,0c-1.196,0 -2.162,0.966 -2.162,2.162Zm93.401,-26.608l-9.253,5.345c-1.036,0.6 -1.391,1.921 -0.79,2.952c0.4,0.696 1.125,1.081 1.871,1.081c0.365,0 0.741,-0.09 1.081,-0.29l9.253,-5.345c1.036,-0.595 1.391,-1.917 0.791,-2.952c-0.596,-1.031 -1.917,-1.387 -2.953,-0.791Zm-5.139,26.608c-0,1.191 0.971,2.157 2.162,2.157l10.684,-0c1.191,-0 2.162,-0.966 2.162,-2.157c-0,-1.196 -0.971,-2.162 -2.162,-2.162l-10.684,0c-1.191,0 -2.162,0.966 -2.162,2.162Zm-25.302,41.226c0.545,-0.326 1.091,-0.656 1.651,-0.996c1.396,-0.851 2.753,-1.697 4.044,-2.517c5.85,-3.724 10.219,-6.816 10.269,-6.851c1.106,-0.786 2.407,-1.201 3.758,-1.201c2.097,-0 4.068,1.016 5.285,2.722c2.071,2.913 1.386,6.971 -1.532,9.038c-0.04,0.035 -4.459,3.183 -10.519,7.046c-1.256,0.806 -2.582,1.636 -3.958,2.482c-0.551,0.335 -1.096,0.671 -1.647,1.001c2.282,0.585 4.629,0.881 6.971,0.881c4.809,-0 9.619,-1.236 13.907,-3.713c8.578,-4.945 13.907,-14.173 13.917,-24.086c0,-0.776 -0.41,-1.487 -1.081,-1.877c-8.587,-4.949 -19.246,-4.949 -27.824,0.005c-6.806,3.928 -11.56,10.549 -13.241,18.066Zm-35.886,-18.066c-8.573,-4.954 -19.232,-4.959 -27.819,-0.005c-0.671,0.39 -1.086,1.106 -1.081,1.877c0.01,9.913 5.334,19.146 13.902,24.086c4.293,2.477 9.103,3.713 13.917,3.713c2.347,-0 4.689,-0.291 6.976,-0.881c-0.551,-0.33 -1.101,-0.666 -1.652,-1.006c-1.376,-0.836 -2.702,-1.671 -3.958,-2.472c-6.06,-3.868 -10.479,-7.021 -10.529,-7.056c-2.903,-2.062 -3.588,-6.12 -1.516,-9.033c1.211,-1.706 3.187,-2.722 5.284,-2.722c1.351,-0 2.647,0.415 3.753,1.196c0.055,0.04 4.419,3.132 10.264,6.851c1.291,0.815 2.653,1.666 4.054,2.522c0.55,0.34 1.101,0.67 1.641,0.996c-1.681,-7.517 -6.44,-14.138 -13.236,-18.066Zm21.959,37.247c-0.03,-0.01 -0.065,-0.025 -0.095,-0.04l0.165,0.08l0.06,0.015c-0.045,-0.02 -0.13,-0.055 -0.13,-0.055Zm4.769,-9.278l-0,-24.506c-0,-1.196 -0.971,-2.162 -2.162,-2.162c-1.196,0 -2.162,0.966 -2.162,2.162l0,24.506c-0.806,-0.38 -1.626,-0.79 -2.457,-1.211c-0.616,-0.315 -1.241,-0.64 -1.862,-0.971c-1.391,-0.745 -2.792,-1.526 -4.183,-2.327c-1.542,-0.885 -3.073,-1.796 -4.554,-2.697c-7.912,-4.824 -14.468,-9.468 -14.573,-9.543c-0.971,-0.691 -2.322,-0.461 -3.012,0.51c-0.691,0.971 -0.466,2.322 0.51,3.013c0.435,0.31 6.611,4.689 14.232,9.358c1.497,0.921 3.053,1.852 4.629,2.762c2.297,1.331 4.649,2.628 6.951,3.799l0,0.65c0,-0.21 0.01,-0.425 0.03,-0.635c1.462,0.74 2.898,1.431 4.289,2.051l0,34.41c0,1.196 0.966,2.162 2.162,2.162c1.191,0 2.162,-0.966 2.162,-2.162l-0,-34.41c1.391,-0.62 2.827,-1.311 4.289,-2.051c0.02,0.21 0.03,0.425 0.03,0.635l-0,-0.65c2.302,-1.171 4.649,-2.468 6.951,-3.799c1.576,-0.91 3.127,-1.841 4.629,-2.762c7.621,-4.669 13.797,-9.048 14.232,-9.358c0.971,-0.691 1.201,-2.042 0.51,-3.013c-0.69,-0.971 -2.041,-1.201 -3.012,-0.51c-0.11,0.075 -6.661,4.719 -14.573,9.543c-1.481,0.901 -3.012,1.812 -4.554,2.697c-1.391,0.801 -2.792,1.582 -4.183,2.327c-0.626,0.331 -1.251,0.656 -1.867,0.971c-0.826,0.426 -1.646,0.831 -2.452,1.211Zm0.445,9.278l-0.16,0.07l0.09,-0.03l0.145,-0.07c-0.02,0.01 -0.05,0.02 -0.075,0.03Z" style="fill-rule:nonzero;"/></svg>