<?xml version="1.0" encoding="UTF-8"?>
<svg version="1.1" viewBox="0 0 1200 1200" xmlns="http://www.w3.org/2000/svg" width="150pt" height="150pt">
 <path d="m84.797 465.24 57.141-102.42h-37.734l59.391-106.55h-44.297l79.734-142.92 79.734 142.92h-44.297l59.391 106.55h-37.734l57.141 102.42h-97.688v142.74h-33.094v-142.74zm745.13 440.34c2.5781-11.391 5.2031-22.781 6.8906-34.312 1.2656-8.9062 3.4219-29.625-2.4375-37.312-2.4844-3.2812-7.9688-3.9375-11.719-4.1719-18.375-1.0781-33.562-7.7344-45.75-21.656-5.0156-5.7188-8.7656-11.859-13.031-18.094-2.25-3.2812-4.8281-6.75-8.0625-9.1406-11.484-8.3438-36.984-4.875-49.641-2.7188-4.5 0.75-9.0469 0.9375-13.594 0.60938-19.266-1.4062-33.891-11.578-50.062-20.812-20.672-11.812-29.25-11.531-46.641 7.3594-21.047 22.828-41.953 45-64.922 66-24.375 22.266-74.812 67.875-110.44 48.891-15.516-8.25-21.562-24.469-22.547-41.109-1.3125-21.328 2.9531-40.969 17.438-57.234 8.4375-9.4219 17.531-13.969 26.156-21.938 3.5625-3.2812 4.7344-5.7656 5.1562-10.641 1.0781-13.734-6.0938-34.359-10.875-46.875-8.8594-23.062-9.5156-47.156 1.4062-67.453h-352.22c1.7812 58.547 13.641 116.3 34.922 170.58 13.312-18.797 29.344-36.891 47.531-50.016 19.219-13.922 44.297-24.047 67.734-14.391 35.672 14.719 38.484 60.75 35.719 93.562-0.79688 9.6094-1.6875 19.219-1.6875 28.828-0.046875 5.9531 0.5625 23.109 5.1094 27.609 1.2656 1.2656 5.4844 1.0312 6.9375 0.9375 9.6562-0.79688 19.031 0.60938 28.078 4.0312 20.578 7.8281 32.062 22.969 49.641 33.984 17.531 10.969 34.453 9.5625 53.672 3.4219 14.484-4.5938 28.828-9.5625 43.406-13.969 59.484-18 123-25.359 162.56 33.422l0.60938 0.89062 0.51562 0.9375c11.156 20.203 14.906 43.266 4.5938 64.688-11.578 24-36.656 37.312-61.828 42.328-14.297 2.8125-28.547 4.7344-42.75 8.2031-5.8594 1.4062-23.766 6.3281-29.156 11.156-0.75 11.578-2.5781 23.484-6.4688 34.453 137.72 29.906 281.58 0.5625 396.14-78.609-30.797-34.922-61.266-82.922-50.297-131.44zm-381.56-618.61c-7.125 9.5625-11.344 21.375-11.344 34.219 0 31.641 25.641 57.234 57.234 57.234 12.422 0 23.906-3.9375 33.281-10.641 9.3281-7.9688 9.9844-42.234 8.3438-50.297-2.5312-5.9062-6-11.766-9.375-17.062-10.219-15.891-22.922-30.844-35.531-44.859-15.188-16.969-13.734-43.172 3.2344-58.359 15.656-13.969 39.094-13.828 54.562-0.46875 7.3125-16.828 24.047-28.125 42.891-28.125 18.891 0 35.625 11.297 42.891 28.125 15.469-13.406 38.906-13.547 54.562 0.46875 16.969 15.188 18.422 41.391 3.2344 58.359-12.609 14.062-25.312 28.969-35.531 44.859-3.375 5.25-6.7969 11.109-9.375 17.062-3.5625 9.8438-4.4531 22.406 5.8125 49.734 9.375 6.7031 13.781 11.25 35.812 11.25s57.234-25.641 57.234-57.234c0-12.844-4.2188-24.703-11.344-34.219 25.172-6.0469 43.875-28.688 43.875-55.688 0-27.234-18.984-50.016-44.438-55.828 0-0.46875 0.046875-0.9375 0.046875-1.4531 0-31.641-25.641-57.234-57.234-57.234-6.1406 0-12.047 0.98438-17.625 2.7656-10.453-27.328-36.938-46.734-67.922-46.734s-57.469 19.406-67.922 46.734c-5.5312-1.7812-11.438-2.7656-17.625-2.7656-31.641 0-57.234 25.641-57.234 57.234v1.4531c-25.453 5.8125-44.438 28.594-44.438 55.828 0 27 18.703 49.641 43.875 55.688zm599.44 347.95c-7.4062 78.891-73.828 140.68-154.69 140.68s-147.28-61.734-154.69-140.68h-270.28c-13.875 13.031-19.172 32.672-9.2344 58.594 43.781 114.19-40.734 69.984-36.234 144.1 4.7812 78.797 141.14-74.203 154.87-89.109 54.141-58.641 85.922 11.719 124.36 5.2031 101.72-17.344 68.953 48.188 122.11 51.281 54.609 3.1875 38.672 68.062 30.094 106.08-7.9219 35.016 13.406 74.531 46.172 111.19 90.703-69.562 158.53-170.02 185.72-290.21 7.3594-32.531 11.391-65.016 12.375-97.125h-50.625zm-449.81 331.87c-41.109-61.078-116.72-29.109-177.84-9.6562-82.078 26.062-92.578-43.922-136.87-40.359-45.516 3.6562-39.797-51.797-37.078-84.234 8.6719-103.12-61.266-84.281-114.7 0.32813 27.797 60.234 67.969 115.97 120.28 163.26 61.547 55.641 133.08 93.375 208.08 113.53 3.2344-8.0625 5.3906-18.609 6.1406-32.062 1.5469-28.219 66.469-35.156 91.734-40.172 36.141-7.1719 61.125-33.047 40.312-70.641zm441.47-724.13c0-38.672-31.547-70.266-70.266-70.266-38.672 0-70.266 31.547-70.266 70.266 0 38.672 31.547 70.266 70.266 70.266 38.672 0 70.266-31.547 70.266-70.266zm-18.141 120.79c4.2188 7.3125 13.594 9.7969 20.859 5.5781 7.3125-4.2188 9.7969-13.594 5.5781-20.859l-11.438-19.828c-4.2188-7.3125-13.594-9.7969-20.859-5.5781-7.3125 4.2188-9.7969 13.594-5.5781 20.859zm33.562-53.672 19.828 11.438c7.3125 4.2188 16.641 1.7344 20.859-5.5781s1.7344-16.641-5.5781-20.859l-19.828-11.438c-7.3125-4.2188-16.641-1.7344-20.859 5.5781s-1.7344 16.641 5.5781 20.859zm-165.71-20.859c-4.2188-7.3125-13.594-9.7969-20.859-5.5781l-19.828 11.438c-7.3125 4.2188-9.7969 13.594-5.5781 20.859 4.2188 7.3125 13.594 9.7969 20.859 5.5781l19.828-11.438c7.3125-4.2188 9.7969-13.594 5.5781-20.859zm126.28-126.28c7.3125 4.2188 16.641 1.7344 20.859-5.5781l11.438-19.828c4.2188-7.3125 1.7344-16.641-5.5781-20.859s-16.641-1.7344-20.859 5.5781l-11.438 19.828c-4.2188 7.3125-1.7344 16.641 5.5781 20.859zm33.891 33.891c4.2188 7.3125 13.594 9.7969 20.859 5.5781l19.828-11.438c7.3125-4.2188 9.7969-13.594 5.5781-20.859-4.2188-7.3125-13.594-9.7969-20.859-5.5781l-19.828 11.438c-7.3125 4.2188-9.7969 13.594-5.5781 20.859zm-153.05 172.55c7.3125 4.2188 16.641 1.7344 20.859-5.5781l11.438-19.828c4.2188-7.3125 1.7344-16.641-5.5781-20.859s-16.641-1.7344-20.859 5.5781l-11.438 19.828c-4.2188 7.3125-1.7344 16.641 5.5781 20.859zm57.656-18.609v22.875c0 8.4375 6.8438 15.328 15.328 15.328 8.4375 0 15.328-6.8438 15.328-15.328v-22.875c0-8.4375-6.8438-15.328-15.328-15.328-8.4375 0-15.328 6.8438-15.328 15.328zm15.328-200.16c8.4375 0 15.328-6.8438 15.328-15.328v-22.875c0-8.4375-6.8438-15.328-15.328-15.328-8.4375 0-15.328 6.8438-15.328 15.328v22.875c0 8.4375 6.8438 15.328 15.328 15.328zm-130.64 107.72h22.875c8.4375 0 15.328-6.8438 15.328-15.328 0-8.4375-6.8438-15.328-15.328-15.328h-22.875c-8.4375 0-15.328 6.8438-15.328 15.328 0 8.4375 6.8438 15.328 15.328 15.328zm261.24-30.609h-22.875c-8.4375 0-15.328 6.8438-15.328 15.328 0 8.4375 6.8438 15.328 15.328 15.328h22.875c8.4375 0 15.328-6.8438 15.328-15.328 0-8.4375-6.8438-15.328-15.328-15.328zm-251.39-36.797 19.828 11.438c7.3125 4.2188 16.641 1.7344 20.859-5.5781s1.7344-16.641-5.5781-20.859l-19.828-11.438c-7.3125-4.2188-16.641-1.7344-20.859 5.5781s-1.7344 16.641 5.5781 20.859zm53.672-33.562c4.2188 7.3125 13.594 9.7969 20.859 5.5781 7.3125-4.2188 9.7969-13.594 5.5781-20.859l-11.438-19.828c-4.2188-7.3125-13.594-9.7969-20.859-5.5781-7.3125 4.2188-9.7969 13.594-5.5781 20.859zm-429.42 450.89h237.98c-54.656-61.266-83.719-153.56-87.141-276.94-0.375-6-0.79688-11.766-1.1719-17.297 2.9062-8.4844 7.7812-17.578 13.594-26.672 11.016-17.203 25.359-33.984 37.922-48.047 6.0938-6.7969 5.4844-17.203-1.3125-23.297s-17.203-5.4844-23.297 1.3125c-10.266 11.438-21.609 24.609-31.734 38.438-1.4531-15.844-2.9531-30.328-4.4531-44.766-2.2031-10.078-11.156-17.203-21.469-17.203s-19.219 7.1719-21.422 17.203c-1.5469 14.484-3 28.922-4.4531 44.766-10.125-13.828-21.469-27-31.734-38.438-6.0938-6.7969-16.5-7.3594-23.297-1.3125-6.7969 6.0938-7.3594 16.5-1.3125 23.297 12.609 14.062 26.906 30.844 37.922 48.047 5.8594 9.0938 10.688 18.188 13.594 26.672-0.375 5.5312-0.79688 11.297-1.1719 17.297-3.4219 123.37-32.484 215.68-87.141 276.94zm331.5-22.172c7.4531 3.9844 16.734 1.1719 20.719-6.3281 7.4062-13.828 18.469-25.406 31.922-33.469 12.938-7.7344 28.125-12.188 44.391-12.188 23.062 0 43.969 9 59.438 23.625 6.5156 6.1875 12.094 13.359 16.453 21.328l-10.125-8.3906c-6.5156-5.3906-16.172-4.5469-21.562 1.9688s-4.5469 16.172 1.9688 21.562l45.797 38.109c8.3906 6.9844 21.281 3.0469 24.469-7.2188l18.422-58.547c2.5312-8.1094-2.0156-16.688-10.078-19.219-8.1094-2.5312-16.688 2.0156-19.219 10.078l-2.3906 7.5938c-5.9531-11.016-13.594-21-22.594-29.531-21.047-19.922-49.406-32.156-80.625-32.156-21.938 0-42.516 6.0938-60.141 16.641-18.188 10.875-33.188 26.625-43.219 45.375-3.9844 7.4531-1.1719 16.734 6.3281 20.719zm-27.75 107.67c8.1094 2.5312 16.688-2.0156 19.219-10.078l2.3906-7.5938c7.125 13.172 16.641 24.844 28.078 34.359 20.344 17.062 46.594 27.281 75.188 27.281 22.828 0 44.203-6.6094 62.297-17.953 18.609-11.719 33.703-28.547 43.312-48.562 3.6562-7.6406 0.42188-16.781-7.2188-20.438s-16.781-0.42188-20.438 7.2188c-7.0781 14.719-18.234 27.141-32.016 35.812-13.266 8.3438-29.016 13.172-45.984 13.172-21.141 0-40.453-7.5469-55.453-20.109-8.25-6.8906-15.188-15.328-20.438-24.844l10.078 8.3906c6.5156 5.3906 16.172 4.5469 21.562-1.9688s4.5469-16.172-1.9688-21.562l-45.797-38.109c-8.3906-6.9844-21.281-3.0469-24.469 7.2188l-18.422 58.547c-2.5312 8.1094 2.0156 16.688 10.078 19.219z"/>
</svg>
