<!-- Generated by IcoMoon.io -->
<svg version="1.1" xmlns="http://www.w3.org/2000/svg" width="32" height="32" viewBox="0 0 32 32">
<path d="M21.208 24.79c0.050 0.433 0.047 0.869-0.010 1.296-0.003 0.025 0.006 0.048 0.027 0.062l1.039 0.744c0.263 0.189 0.365 0.432 0.275 0.651l-0.443 1.050c-0.045 0.104-0.166 0.274-0.486 0.274-0.055 0-0.114-0.005-0.172-0.016l-1.259-0.224c-0.003-0.001-0.006-0.001-0.011-0.001-0.020 0-0.038 0.010-0.051 0.025-0.269 0.342-0.58 0.648-0.922 0.912-0.019 0.015-0.029 0.038-0.026 0.063l0.208 1.261c0.052 0.322-0.048 0.566-0.268 0.653l-1.057 0.429c-0.048 0.020-0.101 0.031-0.157 0.031-0.235 0-0.407-0.195-0.488-0.312l-0.731-1.050c-0.013-0.017-0.033-0.028-0.054-0.028h-0.007c-0.205 0.025-0.413 0.036-0.618 0.036-0.226 0-0.455-0.015-0.679-0.044-0.002 0-0.005-0.001-0.007-0.001-0.022 0-0.042 0.011-0.054 0.029l-0.744 1.037c-0.083 0.115-0.256 0.307-0.489 0.307-0.057 0-0.111-0.012-0.162-0.033l-1.049-0.443c-0.219-0.094-0.315-0.34-0.258-0.659l0.222-1.258c0.004-0.023-0.004-0.048-0.022-0.062-0.347-0.274-0.652-0.585-0.91-0.922-0.013-0.017-0.032-0.026-0.052-0.026h-0.011l-1.264 0.207c-0.053 0.010-0.107 0.014-0.159 0.014-0.323 0-0.445-0.171-0.49-0.273l-0.437-1.072c-0.082-0.217 0.025-0.455 0.285-0.637l1.049-0.732c0.020-0.014 0.031-0.037 0.028-0.062-0.050-0.427-0.047-0.863 0.010-1.294 0.003-0.023-0.007-0.048-0.027-0.062l-1.038-0.746c-0.269-0.196-0.368-0.433-0.274-0.653l0.442-1.049c0.045-0.103 0.166-0.273 0.485-0.273 0.055 0 0.114 0.005 0.174 0.015l1.258 0.224c0.003 0.001 0.007 0.001 0.011 0.001 0.021 0 0.039-0.009 0.051-0.023 0.27-0.344 0.581-0.65 0.924-0.912 0.018-0.015 0.029-0.039 0.025-0.064l-0.207-1.26c-0.053-0.318 0.045-0.563 0.263-0.652l1.060-0.43c0.048-0.020 0.101-0.031 0.157-0.031 0.237 0 0.409 0.198 0.49 0.314l0.023 0.034v3.369c-0.035 0.016-0.070 0.033-0.105 0.052-0.034 0.018-0.068 0.036-0.101 0.057-0.067 0.037-0.132 0.079-0.195 0.121-0.033 0.020-0.064 0.043-0.095 0.066-0.031 0.022-0.061 0.045-0.091 0.068-0.059 0.047-0.117 0.095-0.173 0.146-0.035 0.031-0.068 0.064-0.102 0.096-0.031 0.031-0.060 0.062-0.090 0.093-0.005 0.005-0.010 0.011-0.015 0.016-0.002 0.003-0.005 0.004-0.006 0.007-0.002 0.001-0.003 0.003-0.004 0.004-0.023 0.027-0.048 0.055-0.070 0.081l-0.004 0.004c-0.030 0.036-0.059 0.071-0.086 0.108-0.044 0.055-0.084 0.113-0.124 0.171-0.012 0.017-0.023 0.035-0.035 0.053s-0.022 0.036-0.034 0.054c-0.015 0.025-0.030 0.050-0.045 0.076-0.004 0.006-0.009 0.014-0.013 0.020v0.001c-0.012 0.021-0.025 0.044-0.036 0.066-0.001 0.001-0.001 0.002-0.002 0.003-0.005 0.010-0.011 0.019-0.015 0.029-0.012 0.021-0.023 0.042-0.032 0.063-0.004 0.006-0.007 0.014-0.011 0.020-0.002 0.003-0.003 0.007-0.005 0.011-0.014 0.029-0.027 0.058-0.039 0.086-0.003 0.006-0.006 0.013-0.010 0.019-0.002 0.004-0.003 0.009-0.005 0.013 0 0.001-0.001 0.001-0.001 0.002-0.004 0.012-0.010 0.023-0.015 0.035-0.004 0.012-0.009 0.025-0.014 0.036-0.002 0.004-0.004 0.009-0.005 0.014-0.012 0.028-0.023 0.057-0.033 0.086-0.004 0.009-0.007 0.018-0.010 0.027l-0.001 0.001c-0.001 0.003-0.002 0.005-0.002 0.009-0.007 0.017-0.013 0.036-0.019 0.054-0.009 0.023-0.015 0.047-0.022 0.070-0.003 0.010-0.006 0.019-0.009 0.028-0.009 0.027-0.016 0.053-0.023 0.080-0.002 0.007-0.004 0.015-0.006 0.023-0.005 0.020-0.011 0.042-0.016 0.063 0 0.002 0 0.004-0.001 0.005-0.005 0.022-0.011 0.043-0.015 0.065-0.006 0.025-0.011 0.048-0.015 0.074-0.001 0.003-0.001 0.007-0.002 0.011-0.002 0.006-0.003 0.013-0.004 0.019-0.004 0.025-0.009 0.049-0.012 0.075-0.001 0.004-0.002 0.007-0.002 0.011-0.001 0.009-0.002 0.017-0.003 0.025 0 0.001-0.001 0.003-0.001 0.004-0.002 0.014-0.004 0.027-0.005 0.041 0 0.002-0.001 0.004-0.001 0.006v0.004c0 0.001 0 0.001-0.001 0.002-0.002 0.011-0.003 0.021-0.003 0.033 0 0.002-0.001 0.004-0.001 0.007-0.001 0.010-0.003 0.021-0.004 0.032-0.002 0.019-0.003 0.038-0.005 0.057-0.001 0.011-0.002 0.020-0.002 0.030-0.001 0.010-0.001 0.018-0.002 0.029-0.001 0.001-0.001 0.003-0.001 0.004-0.001 0.023-0.002 0.046-0.003 0.070 0 0.006-0.001 0.013-0.001 0.019-0.001 0.010-0.001 0.018-0.001 0.028v0.009c-0.001 0.030-0.002 0.060-0.002 0.090 0 0.043 0.001 0.087 0.003 0.13 0.001 0.016 0.001 0.032 0.002 0.048 0.001 0.020 0.002 0.039 0.004 0.060 0.001 0.021 0.003 0.042 0.005 0.062 0.002 0.023 0.004 0.044 0.006 0.065 0.002 0.014 0.003 0.027 0.005 0.039 0.002 0.022 0.006 0.044 0.010 0.066s0.006 0.046 0.011 0.069c0.006 0.041 0.015 0.081 0.023 0.121 0.006 0.031 0.013 0.061 0.020 0.091 0.009 0.034 0.017 0.068 0.027 0.103 0.002 0.006 0.003 0.012 0.005 0.018 0.004 0.017 0.010 0.034 0.015 0.052 0.005 0.017 0.011 0.034 0.017 0.052 0.012 0.037 0.025 0.074 0.038 0.111 0.013 0.036 0.027 0.074 0.042 0.111 0.505 1.237 1.703 1.99 2.965 1.99 0.399-0.001 0.805-0.076 1.198-0.235 0.791-0.321 1.409-0.932 1.74-1.718 0.332-0.787 0.337-1.655 0.015-2.446-0.022-0.058-0.048-0.113-0.074-0.169-0.007-0.016-0.016-0.032-0.023-0.049-0.012-0.023-0.023-0.046-0.036-0.070-0.009-0.016-0.017-0.032-0.026-0.049-0.017-0.030-0.033-0.059-0.050-0.089-0.007-0.012-0.016-0.025-0.022-0.038-0.020-0.033-0.042-0.065-0.063-0.098-0.012-0.018-0.025-0.036-0.036-0.054-0.007-0.012-0.015-0.022-0.022-0.032-0.014-0.020-0.029-0.039-0.043-0.059-0.017-0.023-0.035-0.046-0.052-0.068-0.001-0.003-0.003-0.004-0.005-0.007h-0.001c-0.013-0.016-0.026-0.033-0.038-0.048-0.006-0.009-0.014-0.016-0.020-0.025s-0.013-0.016-0.020-0.023c-0.016-0.018-0.031-0.036-0.048-0.054-0.031-0.036-0.065-0.072-0.1-0.107-0.017-0.017-0.034-0.034-0.051-0.051s-0.034-0.034-0.053-0.050c-0.017-0.016-0.035-0.033-0.053-0.049-0.012-0.010-0.025-0.020-0.038-0.032-0.003-0.003-0.006-0.006-0.011-0.010-0.020-0.018-0.043-0.035-0.063-0.052-0.019-0.015-0.038-0.030-0.059-0.045-0.038-0.030-0.078-0.059-0.118-0.086-0.020-0.014-0.041-0.028-0.062-0.042-0.020-0.013-0.041-0.027-0.062-0.039-0.019-0.013-0.041-0.026-0.061-0.038-0.001 0-0.002-0.001-0.003-0.002-0.003-0.002-0.006-0.003-0.010-0.005-0.004-0.002-0.007-0.004-0.012-0.006-0.013-0.007-0.027-0.016-0.041-0.023-0.021-0.013-0.043-0.025-0.065-0.036-0.021-0.012-0.044-0.022-0.066-0.034-0.021-0.011-0.044-0.022-0.066-0.033v-3.237l0.108-0.149c0.079-0.112 0.251-0.305 0.486-0.305 0.055 0 0.11 0.011 0.161 0.032l1.053 0.444c0.219 0.094 0.314 0.34 0.257 0.658l-0.223 1.259c-0.005 0.023 0.004 0.048 0.023 0.064 0.342 0.268 0.648 0.578 0.911 0.92 0.012 0.016 0.032 0.026 0.052 0.026h0.010l1.259-0.207c0.057-0.010 0.111-0.014 0.163-0.014 0.332 0 0.452 0.176 0.494 0.281l0.429 1.058c0.021 0.054 0.031 0.106 0.031 0.158 0 0.241-0.221 0.42-0.316 0.487l-1.045 0.731c-0.020 0.014-0.031 0.038-0.028 0.061v0.001zM22.139 6.14c0 2.91-2.035 5.354-4.756 5.983v-0.303c0-0.219-0.051-0.426-0.143-0.611-0.225-0.457-0.696-0.772-1.239-0.772s-1.015 0.315-1.241 0.772c-0.091 0.185-0.143 0.392-0.143 0.611v0.303c-2.722-0.629-4.757-3.072-4.757-5.983 0-3.385 2.754-6.14 6.141-6.14 3.385 0 6.139 2.754 6.139 6.14zM16.009 4.383c0.22 0.002 0.44 0.074 0.603 0.214 0.141 0.122 0.218 0.275 0.218 0.434 0 0.255 0.207 0.461 0.462 0.461s0.461-0.206 0.461-0.461c0-0.432-0.192-0.835-0.54-1.134-0.22-0.188-0.478-0.316-0.753-0.382v-0.591c0-0.254-0.206-0.46-0.46-0.46-0.255 0-0.461 0.206-0.461 0.46v0.591c-0.274 0.066-0.533 0.194-0.752 0.382-0.348 0.299-0.539 0.701-0.539 1.134s0.191 0.836 0.538 1.134c0.424 0.364 0.838 0.404 1.171 0.435 0.273 0.026 0.454 0.042 0.654 0.215 0.141 0.121 0.218 0.275 0.218 0.435s-0.077 0.315-0.218 0.436c-0.163 0.141-0.382 0.211-0.602 0.214h-0.019c-0.22-0.002-0.439-0.073-0.603-0.214-0.141-0.122-0.218-0.275-0.218-0.435 0-0.255-0.207-0.461-0.461-0.461-0.255 0-0.461 0.207-0.461 0.461 0 0.432 0.192 0.835 0.54 1.134 0.219 0.188 0.478 0.316 0.752 0.382v0.589c0 0.255 0.206 0.461 0.461 0.461 0.254 0 0.461-0.206 0.461-0.461v-0.589c0.273-0.066 0.533-0.194 0.752-0.382 0.348-0.299 0.538-0.701 0.538-1.135s-0.19-0.836-0.537-1.135c-0.425-0.364-0.839-0.403-1.171-0.433-0.273-0.026-0.454-0.043-0.655-0.216-0.14-0.121-0.217-0.274-0.217-0.435s0.077-0.314 0.217-0.434c0.164-0.14 0.383-0.211 0.603-0.214h0.018zM9.065 1.604l-1.975-1.14c-0.221-0.127-0.503-0.051-0.63 0.169s-0.051 0.503 0.169 0.63l1.975 1.14c0.073 0.043 0.152 0.062 0.23 0.062 0.16 0 0.315-0.082 0.4-0.231 0.127-0.22 0.051-0.502-0.169-0.63zM4.983 6.14c0 0.254 0.206 0.46 0.461 0.46h2.28c0.255 0 0.461-0.206 0.461-0.46 0-0.255-0.206-0.461-0.461-0.461h-2.28c-0.255 0-0.461 0.206-0.461 0.461zM24.909 0.463l-1.974 1.14c-0.221 0.128-0.297 0.41-0.169 0.63 0.085 0.148 0.24 0.231 0.399 0.231 0.078 0 0.158-0.019 0.231-0.062l1.974-1.14c0.221-0.127 0.297-0.409 0.169-0.63s-0.409-0.296-0.63-0.169zM23.813 6.14c0 0.254 0.207 0.46 0.461 0.46h2.279c0.254 0 0.461-0.206 0.461-0.46 0-0.255-0.207-0.461-0.461-0.461h-2.279c-0.254 0-0.461 0.206-0.461 0.461zM18.415 14.935c0.116-0.070 0.233-0.14 0.352-0.212 0.298-0.182 0.587-0.362 0.863-0.537 1.248-0.794 2.18-1.454 2.191-1.462 0.236-0.168 0.514-0.256 0.802-0.256 0.447 0 0.868 0.217 1.127 0.581 0.442 0.621 0.296 1.487-0.327 1.928-0.009 0.007-0.951 0.679-2.244 1.503-0.268 0.172-0.551 0.349-0.844 0.529-0.118 0.071-0.234 0.143-0.351 0.214 0.487 0.125 0.988 0.188 1.487 0.188 1.026 0 2.052-0.264 2.967-0.792 1.83-1.055 2.967-3.024 2.969-5.138 0-0.166-0.087-0.317-0.231-0.4-1.832-1.056-4.106-1.056-5.936 0.001-1.452 0.838-2.466 2.25-2.825 3.854zM10.759 11.081c-1.829-1.057-4.103-1.058-5.935-0.001-0.143 0.083-0.232 0.236-0.231 0.4 0.002 2.115 1.138 4.084 2.966 5.138 0.916 0.528 1.942 0.792 2.969 0.792 0.501 0 1-0.062 1.488-0.188-0.118-0.070-0.235-0.142-0.352-0.215-0.294-0.178-0.576-0.356-0.844-0.527-1.293-0.825-2.236-1.498-2.246-1.505-0.619-0.44-0.765-1.306-0.323-1.927 0.258-0.364 0.68-0.581 1.127-0.581 0.288 0 0.565 0.089 0.801 0.255 0.012 0.009 0.943 0.668 2.19 1.462 0.275 0.174 0.566 0.355 0.865 0.538 0.117 0.073 0.235 0.143 0.35 0.212-0.359-1.604-1.374-3.016-2.824-3.854zM15.444 19.027c-0.006-0.002-0.014-0.005-0.020-0.009l0.035 0.017 0.013 0.003c-0.010-0.004-0.028-0.012-0.028-0.012zM16.461 17.047v-5.228c0-0.255-0.207-0.461-0.461-0.461-0.255 0-0.461 0.206-0.461 0.461v5.228c-0.172-0.081-0.347-0.169-0.524-0.258-0.131-0.067-0.265-0.137-0.397-0.207-0.297-0.159-0.596-0.326-0.892-0.496-0.329-0.189-0.656-0.383-0.972-0.575-1.688-1.029-3.087-2.020-3.109-2.036-0.207-0.147-0.495-0.098-0.643 0.109s-0.099 0.495 0.109 0.643c0.093 0.066 1.41 1 3.036 1.996 0.319 0.196 0.651 0.395 0.988 0.589 0.49 0.284 0.992 0.561 1.483 0.81v0.139c0-0.045 0.002-0.091 0.006-0.135 0.312 0.158 0.618 0.305 0.915 0.438v7.341c0 0.255 0.206 0.461 0.461 0.461 0.254 0 0.461-0.206 0.461-0.461v-7.341c0.297-0.132 0.603-0.28 0.915-0.438 0.004 0.045 0.006 0.091 0.006 0.135v-0.139c0.491-0.25 0.992-0.526 1.483-0.81 0.336-0.194 0.667-0.393 0.988-0.589 1.626-0.996 2.943-1.93 3.036-1.996 0.207-0.147 0.256-0.436 0.109-0.643s-0.435-0.256-0.643-0.109c-0.023 0.016-1.421 1.007-3.109 2.036-0.316 0.192-0.643 0.387-0.972 0.575-0.297 0.171-0.596 0.337-0.892 0.496-0.134 0.071-0.267 0.14-0.398 0.207-0.176 0.091-0.351 0.177-0.523 0.258zM16.556 19.027l-0.034 0.015 0.019-0.006 0.031-0.015c-0.004 0.002-0.011 0.004-0.016 0.006z"></path>
</svg>
