<!-- Generated by IcoMoon.io -->
<svg version="1.1" xmlns="http://www.w3.org/2000/svg" width="32" height="32" viewBox="0 0 32 32">
<path d="M2.261 12.406l1.524-2.731h-1.006l1.584-2.841h-1.181l2.126-3.811 2.126 3.811h-1.181l1.584 2.841h-1.006l1.524 2.731h-2.605v3.806h-0.883v-3.806zM22.131 24.149c0.069-0.304 0.139-0.608 0.184-0.915 0.034-0.238 0.091-0.79-0.065-0.995-0.066-0.087-0.212-0.105-0.313-0.111-0.49-0.029-0.895-0.206-1.22-0.578-0.134-0.152-0.234-0.316-0.348-0.483-0.060-0.087-0.129-0.18-0.215-0.244-0.306-0.223-0.986-0.13-1.324-0.073-0.12 0.020-0.241 0.025-0.363 0.016-0.514-0.038-0.904-0.309-1.335-0.555-0.551-0.315-0.78-0.308-1.244 0.196-0.561 0.609-1.119 1.2-1.731 1.76-0.65 0.594-1.995 1.81-2.945 1.304-0.414-0.22-0.575-0.652-0.601-1.096-0.035-0.569 0.079-1.093 0.465-1.526 0.225-0.251 0.467-0.372 0.697-0.585 0.095-0.087 0.126-0.154 0.137-0.284 0.029-0.366-0.162-0.916-0.29-1.25-0.236-0.615-0.254-1.258 0.037-1.799h-9.393c0.047 1.561 0.364 3.101 0.931 4.549 0.355-0.501 0.783-0.984 1.268-1.334 0.513-0.371 1.181-0.641 1.806-0.384 0.951 0.392 1.026 1.62 0.952 2.495-0.021 0.256-0.045 0.512-0.045 0.769-0.001 0.159 0.015 0.616 0.136 0.736 0.034 0.034 0.146 0.027 0.185 0.025 0.258-0.021 0.508 0.016 0.749 0.108 0.549 0.209 0.855 0.613 1.324 0.906 0.467 0.293 0.919 0.255 1.431 0.091 0.386-0.122 0.769-0.255 1.158-0.372 1.586-0.48 3.28-0.676 4.335 0.891l0.016 0.024 0.014 0.025c0.297 0.539 0.398 1.154 0.122 1.725-0.309 0.64-0.977 0.995-1.649 1.129-0.381 0.075-0.761 0.126-1.14 0.219-0.156 0.038-0.634 0.169-0.777 0.297-0.020 0.309-0.069 0.626-0.172 0.919 3.673 0.797 7.509 0.015 10.564-2.096-0.821-0.931-1.634-2.211-1.341-3.505zM11.956 7.653c-0.19 0.255-0.303 0.57-0.303 0.913 0 0.844 0.684 1.526 1.526 1.526 0.331 0 0.637-0.105 0.887-0.284 0.249-0.213 0.266-1.126 0.223-1.341-0.068-0.158-0.16-0.314-0.25-0.455-0.273-0.424-0.611-0.822-0.947-1.196-0.405-0.452-0.366-1.151 0.086-1.556 0.418-0.372 1.043-0.369 1.455-0.013 0.195-0.449 0.641-0.75 1.144-0.75 0.504 0 0.95 0.301 1.144 0.75 0.413-0.357 1.038-0.361 1.455 0.013 0.453 0.405 0.491 1.104 0.086 1.556-0.336 0.375-0.675 0.772-0.948 1.196-0.090 0.14-0.181 0.296-0.25 0.455-0.095 0.262-0.119 0.598 0.155 1.326 0.25 0.179 0.367 0.3 0.955 0.3s1.526-0.684 1.526-1.526c0-0.342-0.113-0.659-0.302-0.912 0.671-0.161 1.17-0.765 1.17-1.485 0-0.726-0.506-1.334-1.185-1.489 0-0.013 0.001-0.025 0.001-0.039 0-0.844-0.684-1.526-1.526-1.526-0.164 0-0.321 0.026-0.47 0.074-0.279-0.729-0.985-1.246-1.811-1.246s-1.533 0.517-1.811 1.246c-0.148-0.047-0.305-0.074-0.47-0.074-0.844 0-1.526 0.684-1.526 1.526v0.039c-0.679 0.155-1.185 0.763-1.185 1.489 0 0.72 0.499 1.324 1.17 1.485zM27.942 16.931c-0.198 2.104-1.969 3.751-4.125 3.751s-3.927-1.646-4.125-3.751h-7.207c-0.37 0.348-0.511 0.871-0.246 1.563 1.168 3.045-1.086 1.866-0.966 3.843 0.127 2.101 3.764-1.979 4.13-2.376 1.444-1.564 2.291 0.313 3.316 0.139 2.713-0.462 1.839 1.285 3.256 1.367 1.456 0.085 1.031 1.815 0.802 2.829-0.211 0.934 0.358 1.988 1.231 2.965 2.419-1.855 4.227-4.534 4.953-7.739 0.196-0.867 0.304-1.734 0.33-2.59h-1.35zM15.947 25.781c-1.096-1.629-3.113-0.776-4.742-0.258-2.189 0.695-2.469-1.171-3.65-1.076-1.214 0.098-1.061-1.381-0.989-2.246 0.231-2.75-1.634-2.247-3.059 0.009 0.741 1.606 1.812 3.093 3.207 4.354 1.641 1.484 3.549 2.49 5.549 3.027 0.086-0.215 0.144-0.496 0.164-0.855 0.041-0.753 1.773-0.938 2.446-1.071 0.964-0.191 1.63-0.881 1.075-1.884zM27.719 6.471c0-1.031-0.841-1.874-1.874-1.874-1.031 0-1.874 0.841-1.874 1.874 0 1.031 0.841 1.874 1.874 1.874 1.031 0 1.874-0.841 1.874-1.874zM27.235 9.692c0.113 0.195 0.363 0.261 0.556 0.149 0.195-0.113 0.261-0.363 0.149-0.556l-0.305-0.529c-0.113-0.195-0.363-0.261-0.556-0.149-0.195 0.113-0.261 0.363-0.149 0.556zM28.13 8.261l0.529 0.305c0.195 0.113 0.444 0.046 0.556-0.149s0.046-0.444-0.149-0.556l-0.529-0.305c-0.195-0.112-0.444-0.046-0.556 0.149s-0.046 0.444 0.149 0.556zM23.711 7.705c-0.113-0.195-0.363-0.261-0.556-0.149l-0.529 0.305c-0.195 0.112-0.261 0.362-0.149 0.556 0.113 0.195 0.363 0.261 0.556 0.149l0.529-0.305c0.195-0.113 0.261-0.362 0.149-0.556zM27.079 4.337c0.195 0.112 0.444 0.046 0.556-0.149l0.305-0.529c0.113-0.195 0.046-0.444-0.149-0.556s-0.444-0.046-0.556 0.149l-0.305 0.529c-0.113 0.195-0.046 0.444 0.149 0.556zM27.983 5.241c0.113 0.195 0.363 0.261 0.556 0.149l0.529-0.305c0.195-0.112 0.261-0.362 0.149-0.556-0.113-0.195-0.363-0.261-0.556-0.149l-0.529 0.305c-0.195 0.112-0.261 0.362-0.149 0.556zM23.901 9.842c0.195 0.113 0.444 0.046 0.556-0.149l0.305-0.529c0.113-0.195 0.046-0.444-0.149-0.556s-0.444-0.046-0.556 0.149l-0.305 0.529c-0.113 0.195-0.046 0.444 0.149 0.556zM25.439 9.346v0.61c0 0.225 0.183 0.409 0.409 0.409 0.225 0 0.409-0.182 0.409-0.409v-0.61c0-0.225-0.183-0.409-0.409-0.409-0.225 0-0.409 0.182-0.409 0.409zM25.848 4.008c0.225 0 0.409-0.183 0.409-0.409v-0.61c0-0.225-0.183-0.409-0.409-0.409-0.225 0-0.409 0.183-0.409 0.409v0.61c0 0.225 0.183 0.409 0.409 0.409zM22.364 6.881h0.61c0.225 0 0.409-0.183 0.409-0.409 0-0.225-0.183-0.409-0.409-0.409h-0.61c-0.225 0-0.409 0.183-0.409 0.409 0 0.225 0.183 0.409 0.409 0.409zM29.33 6.065h-0.61c-0.225 0-0.409 0.183-0.409 0.409 0 0.225 0.183 0.409 0.409 0.409h0.61c0.225 0 0.409-0.183 0.409-0.409 0-0.225-0.183-0.409-0.409-0.409zM22.626 5.083l0.529 0.305c0.195 0.112 0.444 0.046 0.556-0.149s0.046-0.444-0.149-0.556l-0.529-0.305c-0.195-0.112-0.444-0.046-0.556 0.149s-0.046 0.444 0.149 0.556zM24.058 4.188c0.113 0.195 0.363 0.261 0.556 0.149 0.195-0.112 0.261-0.362 0.149-0.556l-0.305-0.529c-0.113-0.195-0.363-0.261-0.556-0.149-0.195 0.112-0.261 0.362-0.149 0.556zM12.607 16.212h6.346c-1.457-1.634-2.232-4.095-2.324-7.385-0.010-0.16-0.021-0.314-0.031-0.461 0.078-0.226 0.207-0.469 0.363-0.711 0.294-0.459 0.676-0.906 1.011-1.281 0.163-0.181 0.146-0.459-0.035-0.621s-0.459-0.146-0.621 0.035c-0.274 0.305-0.576 0.656-0.846 1.025-0.039-0.423-0.079-0.809-0.119-1.194-0.059-0.269-0.297-0.459-0.572-0.459s-0.512 0.191-0.571 0.459c-0.041 0.386-0.080 0.771-0.119 1.194-0.27-0.369-0.572-0.72-0.846-1.025-0.162-0.181-0.44-0.196-0.621-0.035-0.181 0.162-0.196 0.44-0.035 0.621 0.336 0.375 0.717 0.822 1.011 1.281 0.156 0.242 0.285 0.485 0.363 0.711-0.010 0.148-0.021 0.301-0.031 0.461-0.091 3.29-0.866 5.751-2.324 7.385zM21.447 15.621c0.199 0.106 0.446 0.031 0.552-0.169 0.198-0.369 0.492-0.678 0.851-0.893 0.345-0.206 0.75-0.325 1.184-0.325 0.615 0 1.172 0.24 1.585 0.63 0.174 0.165 0.323 0.356 0.439 0.569l-0.27-0.224c-0.174-0.144-0.431-0.121-0.575 0.053s-0.121 0.431 0.052 0.575l1.221 1.016c0.224 0.186 0.567 0.081 0.652-0.192l0.491-1.561c0.067-0.216-0.054-0.445-0.269-0.512-0.216-0.068-0.445 0.054-0.512 0.269l-0.064 0.203c-0.159-0.294-0.363-0.56-0.602-0.787-0.561-0.531-1.317-0.857-2.15-0.857-0.585 0-1.134 0.162-1.604 0.444-0.485 0.29-0.885 0.71-1.152 1.21-0.106 0.199-0.031 0.446 0.169 0.553zM20.707 18.492c0.216 0.067 0.445-0.054 0.512-0.269l0.064-0.203c0.19 0.351 0.444 0.663 0.749 0.916 0.543 0.455 1.242 0.727 2.005 0.727 0.609 0 1.179-0.176 1.661-0.479 0.496-0.313 0.899-0.761 1.155-1.295 0.098-0.204 0.011-0.448-0.192-0.545s-0.448-0.011-0.545 0.192c-0.189 0.392-0.486 0.724-0.854 0.955-0.354 0.223-0.774 0.351-1.226 0.351-0.564 0-1.079-0.201-1.479-0.536-0.22-0.184-0.405-0.409-0.545-0.663l0.269 0.224c0.174 0.144 0.431 0.121 0.575-0.052s0.121-0.431-0.052-0.575l-1.221-1.016c-0.224-0.186-0.567-0.081-0.652 0.192l-0.491 1.561c-0.067 0.216 0.054 0.445 0.269 0.512z"></path>
</svg>
