<?xml version="1.0" encoding="UTF-8"?>
<svg version="1.1" viewBox="0 0 1200 1200" xmlns="http://www.w3.org/2000/svg" width="150pt" height="150pt">
 <path d="m640.13 444c-1.9688-0.84375-2.9062-3.1406-2.0625-5.1094s3.1406-2.9062 5.1094-2.0625c17.062 7.2188 34.266 38.297 50.297 67.266 10.453 18.891 20.344 36.797 28.828 45.703 1.2656 0.1875 2.1094 0.98438 3.2344 4.2188 0.70312 2.0625-0.375 4.2656-2.4375 4.9688-1.9688 0.70312-4.125-0.32812-4.9219-2.25-0.23438-0.1875-0.46875-0.375-0.75-0.65625-9.375-9.375-19.828-28.312-30.844-48.234-15.375-27.797-31.922-57.703-46.453-63.844zm283.97 86.297c-2.0625-0.65625-3.2344-2.8594-2.5781-4.9219s2.8594-3.2344 4.9219-2.5781c19.922 6.1875 33.281 22.875 47.297 40.359 10.078 12.562 20.484 25.547 33.609 34.781 2.7188 1.9219 17.25 16.688 24.469 25.969 1.7812 2.2969 3.1875 4.3594 3.9375 5.9062 2.1094 4.3125 1.5 7.1719-2.9531 7.875-1.3125 0.1875-3-0.14062-5.1562-1.1719-1.9688-0.9375-2.7656-3.2812-1.875-5.2031 0.23438-0.46875 0.51562-0.89062 0.89062-1.2188-0.32812-0.46875-0.70312-0.9375-1.0781-1.4062-6.8906-8.8594-20.344-22.641-22.781-24.375-14.109-9.8906-24.844-23.297-35.25-36.281-13.266-16.547-25.922-32.297-43.547-37.781zm-457.45 103.41c-2.1562-0.14062-3.7969-2.0156-3.6562-4.1719s2.0156-3.7969 4.1719-3.6562c12.609 0.79688 26.062 12.75 40.734 25.828 12.844 11.438 26.672 23.719 40.594 29.109 2.0156 0.75 3 3.0469 2.25 5.0625s-3.0469 3-5.0625 2.25c-15.375-5.9062-29.719-18.656-43.031-30.516-13.594-12.094-26.062-23.203-36-23.859zm288.56 35.906c-1.875-1.0781-2.4844-3.5156-1.3594-5.3438 1.0781-1.875 3.5156-2.4844 5.3438-1.3594 11.578 6.8438 22.172 22.969 33.047 39.516 6.4688 9.8906 13.078 19.875 19.875 27.938 7.8281 9.2344 16.359 19.734 24.234 29.438 11.672 14.391 21.891 27 26.531 31.266 1.5938 1.4531 1.6875 3.9375 0.23438 5.5312s-3.9375 1.6875-5.5312 0.23438c-4.9688-4.5938-15.422-17.438-27.281-32.062-7.7344-9.5625-16.172-19.922-24.141-29.297-7.0312-8.2969-13.781-18.562-20.438-28.688-10.359-15.75-20.438-31.125-30.516-37.078zm-338.39-443.68c20.484 0 39 8.2969 52.406 21.703s21.703 31.922 21.703 52.406-8.2969 39-21.703 52.406-31.922 21.703-52.406 21.703c-20.484 0-39-8.2969-52.406-21.703s-21.703-31.922-21.703-52.406 8.2969-39 21.703-52.406 31.922-21.703 52.406-21.703zm-4.9219 165.05c0-2.7188 2.2031-4.9219 4.9219-4.9219s4.9219 2.2031 4.9219 4.9219v22.875c0 2.7188-2.2031 4.9219-4.9219 4.9219s-4.9219-2.2031-4.9219-4.9219zm0-204.74c0-2.7188 2.2031-4.9219 4.9219-4.9219s4.9219 2.2031 4.9219 4.9219v22.875c0 2.7188-2.2031 4.9219-4.9219 4.9219s-4.9219-2.2031-4.9219-4.9219zm-86.016 108.94c2.7188 0 4.9219 2.2031 4.9219 4.9219s-2.2031 4.9219-4.9219 4.9219h-22.875c-2.7188 0-4.9219-2.2031-4.9219-4.9219s2.2031-4.9219 4.9219-4.9219zm204.74 0c2.7188 0 4.9219 2.2031 4.9219 4.9219s-2.2031 4.9219-4.9219 4.9219h-22.875c-2.7188 0-4.9219-2.2031-4.9219-4.9219s2.2031-4.9219 4.9219-4.9219zm-181.6 65.719-16.172 16.172c-1.9219 1.9219-1.9219 5.0156 0 6.9375s5.0156 1.9219 6.9375 0l16.172-16.172c1.9219-1.9219 1.9219-5.0156 0-6.9375s-5.0156-1.9219-6.9375 0zm144.79-144.79-16.172 16.172c-1.9219 1.9219-1.9219 5.0156 0 6.9375 1.9219 1.9219 5.0156 1.9219 6.9375 0l16.172-16.172c1.9219-1.9219 1.9219-5.0156 0-6.9375-1.9219-1.9219-5.0156-1.9219-6.9375 0zm-16.172 151.74 16.172 16.172c1.9219 1.9219 5.0156 1.9219 6.9375 0 1.9219-1.9219 1.9219-5.0156 0-6.9375l-16.172-16.172c-1.9219-1.9219-5.0156-1.9219-6.9375 0-1.9219 1.9219-1.9219 5.0156 0 6.9375zm-144.79-144.79 16.172 16.172c1.9219 1.9219 5.0156 1.9219 6.9375 0s1.9219-5.0156 0-6.9375l-16.172-16.172c-1.9219-1.9219-5.0156-1.9219-6.9375 0s-1.9219 5.0156 0 6.9375zm-161.76 273.84c-2.3438 6.3281-5.8594 12.984-9.9375 19.031-4.6406 6.9375-10.125 13.172-15.375 17.438 3.2812 0 6.4219-0.23438 9-1.125 1.5469-0.51562 3.1875 0.28125 3.7031 1.8281 0.23438 0.60938 0.1875 1.2656 0 1.875-2.1562 6.4688-5.8125 13.688-11.109 20.578-3.4688 4.5-7.6406 8.8594-12.516 12.797 3.0938 0.51562 6.1875 0.42188 9.4688 0.375 1.5469-0.046875 3.0938-0.09375 4.0781-0.09375 1.6406 0 2.9531 1.3125 2.9531 2.9531 0 0.23438-0.046875 0.46875-0.09375 0.65625-0.65625 3.7969-5.4375 11.344-11.062 18.703-3.6094 4.7812-7.6406 9.5156-11.062 13.125 3.9844-0.23438 4.9219-0.75 6.0469-1.3125 1.3594-0.70312 2.9531-1.5469 7.2656-2.2969 1.5938-0.28125 3.0938 0.79688 3.4219 2.3906 0.09375 0.5625 0.046875 1.125-0.1875 1.6406-1.6875 4.0312-14.672 22.453-20.953 31.359 3.3281-0.14062 7.4062-0.28125 10.453-0.42188 2.7656-0.09375 4.7344-0.1875 4.9219-0.1875 1.6406 0.14062 2.8125 1.5469 2.7188 3.1406-0.046875 0.60938-0.28125 1.1719-0.60938 1.5938-3.6094 5.2969-6.5156 10.312-9.375 15.328-2.7656 4.8281-5.5312 9.6562-8.9062 14.719 1.7812 0.046875 3.4219 0.09375 4.9688 0.14062 8.1562 0.32812 14.531 0.5625 34.734-4.6406 1.5469-0.42188 3.1406 0.5625 3.5625 2.1094 0.046875 0.28125 0.09375 0.51562 0.09375 0.75l-0.51562 33.141c2.9531-2.25 6.1875-4.2188 9.7031-5.9062l-0.23438-26.859c0-0.23438 0.046875-0.51562 0.09375-0.75 0.42188-1.5469 2.0156-2.5312 3.5625-2.1094 19.734 5.0625 25.641 4.7344 33.188 4.3594 1.6406-0.09375 3.375-0.1875 5.3438-0.23438-3.4219-5.0625-6.1875-9.8906-8.9531-14.719-2.8594-5.0156-5.7656-10.078-9.375-15.328-0.32812-0.42188-0.5625-0.98438-0.60938-1.5938-0.14062-1.6406 1.0781-3.0469 2.7188-3.1406 0.1875 0 2.1562 0.046875 4.9219 0.1875 3.0469 0.14062 7.0781 0.28125 10.453 0.42188-6.2812-8.9062-19.266-27.328-20.953-31.359-0.1875-0.51562-0.28125-1.0781-0.1875-1.6406 0.28125-1.5938 1.8281-2.6719 3.4219-2.3906 4.3125 0.79688 5.9062 1.5938 7.2656 2.2969 1.125 0.5625 2.0625 1.0781 6.0469 1.3125-3.4219-3.6094-7.4062-8.3438-11.062-13.125-5.5781-7.3594-10.406-14.953-11.062-18.703-0.046875-0.23438-0.09375-0.42188-0.09375-0.65625 0-1.6406 1.3125-2.9531 2.9531-2.9531 0.98438 0 2.5312 0.046875 4.0781 0.09375 3.2344 0.09375 6.375 0.1875 9.4688-0.375-4.9219-3.9375-9.0469-8.2969-12.516-12.797-5.2969-6.8906-8.9531-14.109-11.109-20.578-0.1875-0.60938-0.1875-1.2656 0-1.875 0.51562-1.5469 2.2031-2.3438 3.7031-1.8281 2.5781 0.89062 5.7188 1.125 9 1.125-5.2969-4.2656-10.734-10.547-15.375-17.438-4.0781-6.0469-7.5938-12.703-9.9375-19.031zm118.27 112.36-0.46875-0.09375c-1.875-0.375-3.9375-0.84375-6.2812-1.4062l0.09375 9.6562c2.2031-2.625 4.4062-5.3438 6.6562-8.1562zm21.234-30.281-3.8438-0.14062c0.51562 0.79688 0.98438 1.5938 1.4531 2.3438l0.46875 0.79688c0.65625-0.98438 1.2656-2.0156 1.875-3zm12.797-2.1562c-0.09375 0.75-0.51562 1.5-1.1719 1.9688-40.688 67.641-83.578 93.234-108.19 107.91-8.5312 5.1094-14.719 8.7656-17.062 11.953-2.1562 5.2969-3.4219 10.219-3.9375 14.906-1.1719 11.344 2.4844 21.094 9.9375 29.578 1.875 2.1094 3.9375 4.125 6.2812 6.0938 11.531-3.9844 55.594-19.828 62.531-36.844 10.781-26.531 28.547-34.688 48.516-43.828 15.094-6.9375 31.547-14.438 46.547-31.875 75.328-87.375 126.14-49.5 174.05-13.781 18.797 14.016 37.125 27.656 55.828 32.203 18.281-17.203 41.859-33.562 80.203-46.828 8.3906-2.9062 15.422-7.5 21.844-11.719 17.812-11.672 31.734-20.859 58.219 3.3281 13.594-6.3281 22.828-13.875 29.672-21.938-15.703-21.188-32.578-44.297-46.781-65.25-15-22.125-26.953-41.859-31.219-54.234-23.719-68.484-36.844-68.484-53.484-68.531-12.844 0-27.422-0.046875-47.625-20.203-23.062-23.016-45.703-17.672-68.156 2.6719-24.047 21.703-48.094 60-72.234 99.891-35.156 58.078-66.422 64.922-93.281 70.828-18.75 4.125-35.156 7.7344-48.844 31.125-0.51562 0.89062-1.0312 1.7812-1.5469 2.6719zm-51.047-131.9c2.1562 5.7188 5.3438 11.625 9 17.062 4.1719 6.1875 9.0469 11.812 13.781 15.75-2.7656-0.046875-5.4375-0.28125-7.6406-1.0312-1.5469-0.51562-3.1875 0.28125-3.7031 1.8281-0.23438 0.60938-0.1875 1.2656 0 1.875 2.0156 6 5.3906 12.703 10.312 19.078 3.0938 4.0312 6.8438 7.9688 11.203 11.578-2.6719 0.375-5.3906 0.32812-8.2031 0.23438-1.4531-0.046875-2.8594-0.09375-3.75-0.09375-1.6406 0-2.9531 1.3125-2.9531 2.9531 0 0.23438 0.046875 0.46875 0.09375 0.70312 0.60938 3.5625 5.0625 10.547 10.266 17.344 3.1875 4.2188 6.75 8.4375 9.8438 11.719-3.1406-0.23438-3.9375-0.65625-4.9219-1.1719-1.2656-0.65625-2.7656-1.4531-6.7969-2.1562-1.5938-0.28125-3.0938 0.79688-3.4219 2.3906-0.09375 0.5625-0.046875 1.125 0.1875 1.6406 1.5 3.6562 12.797 19.688 18.75 28.172l-0.28125 0.46875c-2.8594-0.09375-6.0469-0.23438-8.5781-0.32812-2.5781-0.09375-4.4062-0.1875-4.5938-0.1875-1.6406 0.14062-2.8125 1.5469-2.7188 3.1406 0.046875 0.60938 0.28125 1.1719 0.60938 1.5938 1.5469 2.2031 2.9531 4.4531 4.3125 6.7031 0.70312 1.125 1.3125 2.25 1.9688 3.2812-3.8906 5.9062-7.8281 11.391-11.719 16.547-1.0312-0.1875-2.1094-0.42188-3.2812-0.65625-2.8594-0.60938-6.0469-1.3594-9.7031-2.2969-1.5469-0.42188-3.1406 0.5625-3.5625 2.1094-0.046875 0.23438-0.09375 0.51562-0.09375 0.75l0.1875 20.062c-2.8125 3.1406-5.6719 6.1406-8.4375 8.9531l0.46875-29.344c0-0.23438-0.046875-0.51562-0.09375-0.75-0.42188-1.5469-2.0156-2.5312-3.5625-2.1094-18.609 4.7812-24.516 4.5469-32.016 4.2656-1.3125-0.046875-2.6719-0.09375-4.1719-0.14062 3.0469-4.5469 5.5312-8.9062 8.0156-13.266 2.625-4.6406 5.2969-9.2812 8.625-14.156 0.375-0.42188 0.5625-0.98438 0.60938-1.5938 0.14062-1.6406-1.0781-3.0469-2.7188-3.1406-0.1875 0-2.0156 0.046875-4.5938 0.1875-2.6719 0.09375-6.1875 0.23438-9.1875 0.375 5.9062-8.3438 17.578-24.938 19.125-28.641 0.1875-0.51562 0.28125-1.0781 0.1875-1.6406-0.28125-1.5938-1.8281-2.6719-3.4219-2.3906-4.0312 0.75-5.4844 1.5-6.7969 2.1562-0.9375 0.51562-1.7812 0.9375-4.9219 1.1719 3.0938-3.2812 6.6094-7.5 9.8438-11.719 5.1562-6.7969 9.6094-13.828 10.219-17.344 0.046875-0.23438 0.09375-0.46875 0.09375-0.70312 0-1.6406-1.3125-2.9531-2.9531-2.9531-0.89062 0-2.3438 0.046875-3.75 0.09375-2.8125 0.09375-5.5312 0.14062-8.2031-0.23438 4.3594-3.5625 8.1094-7.5 11.203-11.578 4.9219-6.375 8.2969-13.078 10.312-19.078 0.1875-0.60938 0.1875-1.2656 0-1.875-0.51562-1.5469-2.2031-2.3438-3.7031-1.8281-2.2031 0.75-4.8281 0.98438-7.6406 1.0312 4.7344-3.9375 9.6094-9.5625 13.781-15.75 3.6562-5.4375 6.8438-11.391 9-17.062zm591.19 507.05c34.594-20.625 66.328-45.141 94.125-72.328 72.609-71.062 118.45-160.4 118.45-246.05 0-8.7656-0.46875-17.391-1.4531-25.969-2.0625-4.2188-35.812-33.609-65.531-59.484-21.094-18.375-40.219-35.016-45.328-40.734-39.703-44.156-50.109-36.844-74.906-19.453-10.828 7.5938-24.094 16.875-42.75 25.266-19.172 8.625-25.969 23.391-33.281 39.188-8.8125 19.125-18.281 39.656-48.469 54.75 7.7812 8.2031 16.594 19.031 26.766 33.094 8.3906 11.625 20.438 22.969 34.266 35.953 22.875 21.516 50.438 47.438 75.375 87.516 1.4062 2.2969 0.70312 5.2969-1.5938 6.75-2.2969 1.4062-5.2969 0.70312-6.75-1.5938-24.281-39-51.328-64.453-73.781-85.547-14.156-13.312-26.484-24.938-35.484-37.359-45.656-63.234-59.484-54.141-79.078-41.25-6.8906 4.5469-14.438 9.5156-24 12.797-56.484 19.547-79.688 46.219-102.42 72.328-18.984 21.844-37.688 43.312-74.25 60.328-2.4375 1.125-5.3906 0.09375-6.5156-2.3906-1.125-2.4375-0.09375-5.3906 2.3906-6.5156 34.688-16.172 52.688-36.844 71.016-57.891 5.9531-6.7969 11.906-13.688 18.469-20.438-18.562-6.0469-35.906-18.984-53.719-32.25-44.344-33.094-91.406-68.156-160.78 12.328-16.406 19.031-33.891 27.047-49.875 34.359-18.094 8.2969-34.172 15.656-43.5 38.625-7.4062 18.234-44.344 33.656-61.922 40.125 5.6719 3.5156 12.094 6.75 19.266 9.75 29.531 12.328 70.453 20.062 115.41 24.656 81.375 8.3438 178.22 20.109 270.24 44.344 91.078 23.953 177.47 60.094 239.68 117.09zm-693.79-162.74c0.28125 0.32812 0.5625 0.65625 0.89062 0.98437 30.281 32.906 93.938 66.938 206.44 88.641 7.8281 1.5 16.828 3.1875 26.062 4.9219 98.438 18.422 222.74 41.672 316.31 125.34-13.734 2.9531-27.656 5.25-41.672 6.8438-15.656 1.7812-31.5 2.7188-47.531 2.7188-123.61 0-236.86-25.5-322.03-74.719-65.484-37.828-114.38-89.672-138.47-154.74zm-11.719-42.141c0.23437 1.2188 0.46875 2.3906 0.70312 3.5625 2.4375 10.266 8.5312 21.422 19.078 32.859 29.062 31.594 90.938 64.406 201.05 85.688 9.0469 1.7344 17.438 3.3281 26.016 4.9219 101.39 18.984 229.97 43.031 326.16 132.32 43.594-10.547 85.266-27.516 123.61-49.312-60.656-54.609-144.66-89.484-233.29-112.78-91.406-24.047-187.74-35.766-268.74-44.062-45.844-4.6875-87.703-12.656-118.17-25.359-11.25-4.6875-21-10.078-28.875-16.172-0.1875-0.14062-0.32812-0.23438-0.51562-0.42188-3.5156-2.7656-6.6094-5.6719-9.3281-8.7656-9.2812-10.5-13.828-22.781-12.375-37.031 0.28125-2.9062 0.84375-5.9062 1.6406-8.9531-9.7031 3.6562-17.297 9.6562-22.031 17.25l-0.23438 0.32812c-4.4531 7.3125-6.2812 16.172-4.7344 25.969z" fill-rule="evenodd"/>
</svg>
