<?xml version="1.0" encoding="UTF-8"?>
<svg version="1.1" viewBox="0 0 1200 1200" xmlns="http://www.w3.org/2000/svg" width="150pt" height="150pt">
 <path d="m962.81 195.71c-0.42188-0.09375-0.79688-0.1875-1.2188-0.32812-8.9531-2.2969-17.719-4.0781-26.25-5.3438 9.4219 12.844 14.953 27.516 16.641 43.828 0.65625 6.4219-4.0312 12.141-10.453 12.797s-12.141-4.0312-12.797-10.453c-2.0625-20.016-11.484-35.484-27.609-47.812-0.1875-0.14062-0.42188-0.32812-0.60938-0.46875-2.625 0.09375-5.25 0.23438-7.8281 0.42188-10.875 0.84375-21.328 2.7656-31.359 5.7188v0.09375h0.046875c-3.3281 40.312 4.4531 82.078 51.141 85.969 11.766 0.98438 25.734-0.32812 42.141-4.3594 47.484-17.484 90.844-18.797 139.97-20.297 16.922-0.51562 40.172 0.46875 53.766-1.0781 11.203-1.3125 16.406-5.2031 15.469-16.781-14.109-40.359-71.156-79.172-132.61-99.562-50.578-16.781-143.02-30.797-165.14 30.703 8.1094-1.7812 16.406-3 24.938-3.7031 23.438-1.8281 48.516 0.65625 75.234 7.4531 11.156-0.79688 17.344-1.3594 21.75-2.8125 4.2188-1.4062 8.2031-4.3594 15.328-9.9844 5.0625-4.0312 12.422-3.1875 16.406 1.875 4.0312 5.0625 3.1875 12.422-1.875 16.406-4.0312 3.2344-7.3594 5.7656-10.453 7.8281 8.8594 3.4688 17.859 7.3125 27 11.578 5.8594 2.7188 8.3438 9.6562 5.625 15.516s-9.6562 8.3438-15.516 5.625c-21.703-10.078-42.234-17.672-61.734-22.828zm-320.11-84.984c-3.4219 0.79688-7.1719 0-10.078-2.4375-17.766-4.0781-37.312-7.5469-58.734-10.734-6.4219-0.9375-10.828-6.8906-9.8906-13.266 0.9375-6.4219 6.8906-10.828 13.266-9.8906 11.391 1.6875 22.266 3.4688 32.719 5.3438-1.9219-4.2188-3.3281-8.5781-4.2656-13.031-1.2656-6.3281 2.7656-12.469 9.0938-13.781 6.3281-1.2656 12.469 2.7656 13.781 9.0938 0.98437 4.7344 2.9531 9.4219 6 14.016 2.4375 3.7031 5.4375 7.3125 9.0469 10.781 48.234 11.719 84.469 28.359 110.95 55.359 4.3125 4.4062 8.3906 9.0938 12.141 14.016 18.328-54.609-39.984-88.172-86.859-103.5-30.328-9.8906-64.125-15.188-95.344-15.188-50.859 0-94.5 13.406-102.09 42.938 1.4062 16.734 15.656 20.156 33.047 24.281 7.7812 1.8281 16.031 3.8438 24.891 7.0312 48.234 17.484 78.328 60.422 113.95 88.219 28.359 22.125 57.609 28.406 99.656-21.375-9.1406-14.156-20.297-25.594-33.984-35.344-2.25 0.89062-4.7812 1.125-7.3125 0.46875-25.594-6.75-36.703-2.1562-54.141 15.234-4.5938 4.5469-11.953 4.5469-16.547-0.046875-4.5469-4.5938-4.5469-11.953 0.046874-16.5 10.641-10.641 20.438-18.188 32.531-22.078-9.8438-3.5156-20.484-6.7031-31.875-9.6094zm-561.05 856.31c6.4688 0 11.719 5.25 11.719 11.719s-5.25 11.719-11.719 11.719h-29.203c-6.4688 0-11.719-5.25-11.719-11.719s5.25-11.719 11.719-11.719zm50.109-97.453c4.5938 4.5938 4.5938 12 0 16.547-4.5938 4.5938-12 4.5938-16.594 0l-20.672-20.672c-4.5938-4.5938-4.5938-12 0-16.547 4.5938-4.5938 12-4.5938 16.594 0zm104.34-33.516c0 6.4688-5.25 11.719-11.719 11.719s-11.719-5.25-11.719-11.719v-29.203c0-6.4688 5.25-11.719 11.719-11.719s11.719 5.25 11.719 11.719zm97.453 50.062c-4.5938 4.5938-12 4.5938-16.547 0-4.5938-4.5938-4.5938-12 0-16.547l20.672-20.672c4.5938-4.5938 12-4.5938 16.547 0 4.5938 4.5938 4.5938 12 0 16.547zm33.516 104.34c-6.4688 0-11.719-5.25-11.719-11.719s5.25-11.719 11.719-11.719h29.203c6.4688 0 11.719 5.25 11.719 11.719s-5.25 11.719-11.719 11.719zm-50.062 97.5c-4.5938-4.5938-4.5938-12 0-16.594s12-4.5938 16.547 0l20.672 20.672c4.5938 4.5938 4.5938 12 0 16.547-4.5938 4.5938-12 4.5938-16.547 0zm-104.34 33.516c0-6.4688 5.25-11.719 11.719-11.719s11.719 5.25 11.719 11.719v29.203c0 6.4688-5.25 11.719-11.719 11.719s-11.719-5.25-11.719-11.719zm-97.5-50.109c4.5938-4.5938 12-4.5938 16.594 0s4.5938 12 0 16.594l-20.672 20.672c-4.5938 4.5938-12 4.5938-16.594 0s-4.5938-12 0-16.547zm109.22-206.16c-62.719 0-113.53 50.859-113.53 113.53 0 62.719 50.859 113.53 113.53 113.53 62.719 0 113.53-50.859 113.53-113.53 0-62.719-50.812-113.53-113.53-113.53zm585.94-534.32c0.09375 6.4688-5.0156 11.766-11.484 11.859s-11.766-5.0156-11.859-11.484c-0.75-45.422-5.25-93.328-21.281-130.45 5.2969-5.9062 11.953-13.078 16.078-20.672 4.0312 7.875 7.6406 16.312 10.781 25.406 14.578-12.328 30.328-21.891 47.156-28.688-0.89063 4.875-1.4531 10.031-1.7344 15.422h-0.046874c-0.32813 3.8438-0.51563 7.6406-0.65625 11.344-13.406 6.7969-25.969 15.75-37.641 26.906 6.6562 27.938 10.031 61.031 10.688 100.36zm-560.53 257.48h44.484l-111 137.06-110.95-137.06h44.484c6.4688 0 11.719-5.25 11.719-11.719 0-181.6 129-349.36 304.45-395.58 6.2344-1.6406 9.9844-8.0156 8.3438-14.297-1.6406-6.2344-8.0156-9.9844-14.297-8.3438-181.82 47.953-316.36 218.9-321.74 406.5h-57.469v0.046875c-9.5625 0-15.328 11.344-9.0469 19.031l135.32 167.11c4.5938 5.8125 13.5 6.0938 18.281 0.23438l64.125-79.172c24.797 74.812 78.141 136.55 148.18 172.31-28.219-57.234 15.094-93.891-9.375-115.36-62.25-54.562-59.344-88.547-37.453-113.53 18.094-20.625 50.203-32.719 60-44.062 2.1094-2.4375 1.3594-5.9062-5.5312-11.812-46.031-39.797-56.531-58.828-47.531-69.234 7.7344-8.9531 23.109-5.7656 41.766-1.9219 19.266 3.9844 43.734 9.0938 50.484 2.5781 20.531-23.391-2.25-60.797-24.562-97.453-16.594-27.234-33-54.141-34.969-79.172-26.203 14.297-50.062 32.391-70.781 53.578-49.594 50.625-86.016 132.84-88.594 208.55-0.046875 6.4688 5.2031 11.719 11.672 11.719zm485.44-238.36c41.766 35.953 72.703 81.516 89.906 133.92l64.734-79.969c4.0781-5.0156 11.438-5.7656 16.406-1.6875 2.7188 2.2031 123.84 152.53 137.21 169.03 6.2812 7.7344 0.46875 19.031-9.0469 19.031v0.046875h-57.469c-7.3594 269.72-266.29 469.26-528.52 409.97-6.2812-1.4062-10.266-7.6406-8.8594-13.969 1.4062-6.2812 7.6406-10.266 13.969-8.8594 251.39 56.859 500.16-138 500.16-398.86 0-6.4688 5.25-11.719 11.719-11.719h44.484l-110.95-137.06-111 137.06h44.484c6.7969 0 12.188 5.6719 11.672 12.844-3.5625 77.297-40.547 158.48-91.734 209.63-82.922 82.969-206.9 109.97-316.64 68.766 0.09375-7.3594-2.25-13.875-6-20.531-29.859-53.109 25.031-90.094-17.766-127.6-46.922-41.156-47.812-63.234-35.062-77.766 14.859-16.969 46.125-27.984 60.094-44.156 12.188-14.109 13.359-29.016-8.1094-47.531-31.688-27.375-46.641-31.547-44.953-33.516 1.9688-2.2969 6.75 4.125 17.391 6.3281 25.219 5.25 57.281 11.906 73.594-4.3594 35.016-36.75 5.9062-84.562-20.859-128.53-18.047-29.578-35.766-58.734-30.469-78.609 94.734-40.266 204.47-28.734 289.18 30.703-18.891 7.6406-35.391 6.7969-47.953 6.0938-31.312-1.6406-47.859 2.7188-40.734 52.5 0.09375 0.65625-4.7812 2.2031-11.578 6.3281-17.016 10.406-41.391 25.359-56.625 61.031-14.344 33.562-21.469 72.094 5.0625 85.5 26.766 13.547 64.641-12.938 87.938-39.328 6.7031-7.6406 18.234-15.797 24.234-4.3125 3.5625 6.75 4.2656 14.953 3.4219 28.969h-0.046875c-0.23438 3.375-2.0625 20.25-20.672 43.828-18.234 23.062-124.26 58.359-153.47 104.3-16.5 25.922-12.516 53.344 31.828 81.609 39.141 24.891 93.375 39.797 132.05 20.766v0.046876c30-14.297 43.641-43.781 43.172-79.172-0.60938-48.797 40.078-94.078 83.203-110.34h-29.109c-4.9688 0-9.2344-3.1406-10.922-7.5469-38.719 26.016-69.094 70.031-68.484 118.17 0.32812 25.219-7.7344 45.891-28.781 55.922v0.046874c-31.266 14.859-75.797 1.0312-107.53-19.219-28.453-18.094-32.484-33.375-24.094-46.641 24.75-38.859 128.39-72.328 152.02-102.19 23.297-29.484 25.688-52.594 26.156-57.422h-0.046875c5.7656-64.641-41.344-78.234-71.953-43.5-17.109 19.406-34.922 31.172-48.328 33.844-6.7031 1.3125-10.734 0.70313-12.328-5.2031-2.4375-9.0469 0.09375-24.703 10.078-48.094 12.047-28.219 32.344-40.641 46.5-49.359 15.188-9.2812 25.734-15.75 23.484-31.594-2.6719-18.609-1.8281-23.297 1.0312-23.719 15.375-2.2031 45.328 8.2031 84.938-13.922z" fill-rule="evenodd"/>
</svg>
