<!-- Generated by IcoMoon.io -->
<svg version="1.1" xmlns="http://www.w3.org/2000/svg" width="32" height="32" viewBox="0 0 32 32">
<path d="M5.708 4.5h-0c-0.553 0.147-1.136 0.363-1.752 0.649-0.166 0.077-0.363 0.007-0.44-0.16s-0.007-0.364 0.159-0.442c0.259-0.121 0.515-0.231 0.766-0.329-0.088-0.059-0.182-0.131-0.296-0.223-0.144-0.114-0.168-0.323-0.053-0.467 0.113-0.144 0.322-0.168 0.466-0.053 0.202 0.16 0.315 0.244 0.435 0.284 0.125 0.041 0.301 0.057 0.617 0.080 0.758-0.193 1.47-0.264 2.135-0.212 0.242 0.020 0.477 0.055 0.708 0.105-0.628-1.75-3.251-1.351-4.686-0.873-1.744 0.58-3.362 1.684-3.763 2.832-0.027 0.329 0.121 0.44 0.439 0.477 0.386 0.044 1.045 0.016 1.525 0.031 1.394 0.043 2.624 0.080 3.972 0.577 0.466 0.115 0.862 0.152 1.196 0.124 1.325-0.111 1.545-1.299 1.451-2.446h0.001v-0.003c-0.285-0.084-0.581-0.139-0.89-0.163-0.073-0.005-0.148-0.009-0.222-0.012-0.005 0.004-0.012 0.009-0.017 0.013-0.458 0.351-0.725 0.791-0.783 1.36-0.019 0.183-0.181 0.316-0.363 0.297s-0.315-0.181-0.297-0.364c0.048-0.464 0.205-0.881 0.472-1.247-0.242 0.036-0.491 0.087-0.745 0.152-0.012 0.004-0.023 0.007-0.035 0.009zM14.79 2.083h0c-0.323 0.083-0.625 0.174-0.904 0.273 0.343 0.111 0.621 0.325 0.923 0.628 0.13 0.129 0.13 0.339 0.001 0.469-0.13 0.131-0.339 0.131-0.47 0.001-0.495-0.495-0.81-0.626-1.536-0.434-0.072 0.019-0.144 0.012-0.207-0.013-0.388 0.277-0.705 0.603-0.964 1.006 1.193 1.416 2.023 1.237 2.828 0.608 1.011-0.791 1.865-2.012 3.233-2.51 0.251-0.090 0.485-0.148 0.706-0.2 0.493-0.117 0.898-0.214 0.938-0.691-0.215-0.84-1.454-1.222-2.897-1.222-0.886 0-1.845 0.151-2.705 0.432-1.33 0.436-2.985 1.391-2.464 2.944 0.106-0.14 0.222-0.273 0.344-0.399 0.751-0.768 1.779-1.242 3.148-1.575 0.102-0.099 0.188-0.201 0.257-0.307 0.086-0.131 0.142-0.264 0.17-0.399 0.037-0.18 0.211-0.295 0.391-0.259 0.18 0.037 0.294 0.212 0.258 0.392-0.027 0.127-0.066 0.251-0.121 0.371 0.297-0.053 0.605-0.104 0.928-0.152 0.181-0.026 0.35 0.099 0.376 0.281 0.027 0.181-0.098 0.351-0.281 0.377-0.608 0.091-1.162 0.189-1.666 0.305-0.082 0.069-0.189 0.092-0.286 0.069zM30.709 26.442h0.829c0.184 0 0.332 0.149 0.332 0.333s-0.149 0.333-0.332 0.333h-0.829c-0.184 0-0.332-0.149-0.332-0.333s0.149-0.333 0.332-0.333zM29.287 23.67l0.587-0.588c0.13-0.131 0.34-0.131 0.471 0 0.13 0.129 0.13 0.34 0 0.471l-0.587 0.588c-0.13 0.131-0.34 0.131-0.471 0-0.13-0.129-0.13-0.34 0-0.471zM26.327 22.717v-0.831c0-0.184 0.149-0.333 0.332-0.333s0.332 0.149 0.332 0.333v0.831c0 0.184-0.149 0.333-0.332 0.333s-0.332-0.149-0.332-0.333zM23.562 24.141l-0.587-0.588c-0.13-0.129-0.13-0.34 0-0.471 0.129-0.131 0.339-0.131 0.47 0l0.587 0.588c0.13 0.129 0.13 0.34 0 0.471-0.129 0.131-0.339 0.131-0.47 0zM22.611 27.109h-0.829c-0.184 0-0.332-0.149-0.332-0.333s0.149-0.333 0.332-0.333h0.829c0.184 0 0.332 0.149 0.332 0.333s-0.149 0.333-0.332 0.333zM24.031 29.882l-0.587 0.587c-0.129 0.131-0.339 0.131-0.47 0-0.13-0.129-0.13-0.34 0-0.471l0.587-0.588c0.129-0.131 0.339-0.131 0.47 0s0.13 0.341 0 0.472zM26.992 30.836v0.831c0 0.184-0.149 0.333-0.332 0.333s-0.332-0.149-0.332-0.333v-0.831c0-0.184 0.149-0.333 0.332-0.333s0.332 0.149 0.332 0.333zM29.758 29.41l0.587 0.589c0.13 0.129 0.13 0.34 0 0.471s-0.34 0.131-0.471 0l-0.587-0.588c-0.13-0.131-0.13-0.341 0-0.472s0.34-0.131 0.471 0zM26.659 23.546c-1.78 0-3.221 1.445-3.221 3.23 0 1.783 1.442 3.23 3.221 3.23 1.778 0 3.221-1.445 3.221-3.23 0-1.783-1.442-3.23-3.221-3.23zM10.034 8.346v0c0.019-1.119 0.114-2.060 0.303-2.855-0.331-0.317-0.688-0.572-1.068-0.765-0.004-0.105-0.009-0.213-0.019-0.323h-0.001c-0.008-0.153-0.024-0.3-0.049-0.439 0.477 0.193 0.924 0.465 1.338 0.816 0.089-0.259 0.192-0.499 0.306-0.723 0.117 0.216 0.306 0.42 0.456 0.588-0.455 1.056-0.583 2.419-0.604 3.711-0.003 0.184-0.153 0.329-0.336 0.327s-0.328-0.153-0.326-0.337zM25.938 15.671h-0c0.184 0 0.332-0.149 0.331-0.333-0.073-2.154-1.107-4.492-2.514-5.933-0.588-0.603-1.265-1.117-2.008-1.524-0.056 0.712-0.521 1.477-0.992 2.252-0.633 1.043-1.279 2.107-0.697 2.772 0.192 0.185 0.886 0.040 1.432-0.073 0.529-0.109 0.966-0.2 1.185 0.055 0.255 0.296-0.043 0.837-1.349 1.97-0.196 0.168-0.217 0.267-0.157 0.336 0.278 0.323 1.189 0.667 1.702 1.253 0.621 0.711 0.704 1.677-1.063 3.23-0.694 0.611 0.535 1.654-0.266 3.282 1.987-1.017 3.501-2.774 4.204-4.902l1.819 2.252c0.136 0.167 0.388 0.159 0.519-0.007l3.839-4.754c0.178-0.219 0.015-0.541-0.257-0.541l-1.631-0.001c-0.153-5.337-3.97-10.2-9.129-11.564-0.178-0.047-0.359 0.060-0.406 0.238-0.047 0.179 0.060 0.36 0.237 0.407 4.978 1.315 8.638 6.087 8.638 11.253 0 0.184 0.149 0.333 0.332 0.333h1.262l-3.148 3.899-3.149-3.899h1.262zM12.165 8.89l-0.001-0c1.124 0.629 1.974 0.333 2.41 0.396 0.081 0.012 0.105 0.145 0.029 0.675-0.064 0.451 0.235 0.635 0.666 0.899 0.402 0.248 0.978 0.601 1.319 1.404 0.283 0.665 0.355 1.111 0.286 1.368-0.045 0.168-0.16 0.185-0.35 0.148-0.38-0.076-0.886-0.411-1.371-0.963-0.868-0.988-2.205-0.601-2.042 1.237h-0.001c0.013 0.137 0.081 0.795 0.742 1.633 0.67 0.849 3.611 1.802 4.313 2.907 0.238 0.377 0.124 0.812-0.684 1.327-0.9 0.576-2.164 0.969-3.051 0.547v-0.001c-0.597-0.285-0.826-0.873-0.817-1.591 0.017-1.369-0.845-2.622-1.943-3.362-0.048 0.125-0.169 0.215-0.31 0.215h-0.826c1.224 0.463 2.378 1.751 2.361 3.139-0.013 1.007 0.374 1.846 1.225 2.252v-0.001c1.097 0.541 2.636 0.117 3.747-0.591 1.258-0.804 1.371-1.584 0.903-2.322-0.829-1.307-3.837-2.311-4.354-2.967-0.528-0.671-0.58-1.151-0.587-1.247h-0.001c-0.024-0.399-0.004-0.632 0.097-0.824 0.17-0.327 0.497-0.095 0.688 0.123 0.661 0.751 1.736 1.504 2.495 1.119 0.753-0.381 0.551-1.477 0.144-2.432-0.432-1.015-1.124-1.44-1.607-1.736-0.193-0.117-0.331-0.161-0.329-0.18 0.202-1.416-0.267-1.54-1.156-1.493-0.356 0.020-0.825 0.044-1.361-0.173 2.403-1.691 5.517-2.019 8.205-0.873 0.15 0.565-0.352 1.395-0.864 2.236-0.759 1.251-1.585 2.611-0.592 3.656 0.463 0.463 1.373 0.273 2.088 0.124 0.302-0.063 0.438-0.245 0.493-0.18 0.048 0.056-0.376 0.175-1.275 0.953-0.609 0.527-0.576 0.951-0.23 1.352 0.396 0.46 1.283 0.773 1.705 1.256 0.362 0.413 0.337 1.041-0.995 2.212-1.214 1.067 0.343 2.119-0.504 3.63-0.106 0.189-0.173 0.375-0.17 0.584-3.114 1.172-6.631 0.404-8.984-1.956-1.452-1.455-2.502-3.764-2.603-5.963-0.015-0.204 0.138-0.365 0.331-0.365h1.262l-3.149-3.899-3.148 3.899h1.262c0.184 0 0.332 0.149 0.332 0.333 0 7.421 7.058 12.964 14.191 11.346 0.18-0.040 0.356 0.073 0.396 0.252 0.040 0.18-0.073 0.357-0.251 0.397-7.44 1.687-14.787-3.99-14.996-11.662l-1.631-0.001c-0.27 0-0.435-0.321-0.256-0.541 0.379-0.469 3.816-4.746 3.893-4.808 0.141-0.116 0.35-0.095 0.466 0.048l1.837 2.275c0.488-1.491 1.366-2.787 2.551-3.81z"></path>
</svg>
