<?xml version="1.0" encoding="UTF-8" standalone="no"?>
<!DOCTYPE svg PUBLIC "-//W3C//DTD SVG 1.1//EN" "http://www.w3.org/Graphics/SVG/1.1/DTD/svg11.dtd">
<svg width="100%" height="100%" viewBox="0 0 150 150" version="1.1" xmlns="http://www.w3.org/2000/svg" xmlns:xlink="http://www.w3.org/1999/xlink" xml:space="preserve" xmlns:serif="http://www.serif.com/" style="fill-rule:evenodd;clip-rule:evenodd;stroke-linejoin:round;stroke-miterlimit:2;">
    <g transform="matrix(-0.133,-4.22278e-20,-4.22278e-20,-0.133345,154.808,155.001)">
        <path d="M962.811,1004.2C962.389,1004.3 962.014,1004.39 961.592,1004.53C952.639,1006.83 943.873,1008.61 935.342,1009.88C944.764,997.032 950.295,982.36 951.983,966.048C952.639,959.626 947.952,953.907 941.53,953.251C935.108,952.595 929.389,957.283 928.733,963.704C926.67,983.72 917.249,999.188 901.124,1011.52C900.936,1011.66 900.702,1011.84 900.515,1011.99C897.89,1011.89 895.265,1011.75 892.686,1011.56C881.811,1010.72 871.358,1008.8 861.327,1005.84L861.327,1005.75L861.374,1005.75C858.046,965.439 865.827,923.673 912.515,919.782C924.281,918.797 938.249,920.11 954.656,924.141C1002.14,941.625 1045.5,942.938 1094.63,944.438C1111.55,944.954 1134.8,943.969 1148.39,945.516C1159.6,946.829 1164.8,950.719 1163.86,962.297C1149.75,1002.66 1092.7,1041.47 1031.25,1061.86C980.673,1078.64 888.231,1092.66 866.111,1031.16C874.221,1032.94 882.517,1034.16 891.049,1034.86C914.487,1036.69 939.565,1034.2 966.283,1027.41C977.439,1028.2 983.627,1028.77 988.033,1030.22C992.252,1031.63 996.236,1034.58 1003.36,1040.2C1008.42,1044.23 1015.78,1043.39 1019.77,1038.33C1023.8,1033.27 1022.96,1025.91 1017.89,1021.92C1013.86,1018.69 1010.53,1016.16 1007.44,1014.09C1016.3,1010.63 1025.3,1006.78 1034.44,1002.52C1040.3,999.797 1042.78,992.86 1040.06,987C1037.35,981.14 1030.41,978.656 1024.55,981.375C1002.85,991.453 982.314,999.047 962.814,1004.2L962.811,1004.2ZM642.701,1089.19C639.279,1088.39 635.529,1089.19 632.623,1091.63C614.857,1095.7 595.311,1099.17 573.889,1102.36C567.467,1103.3 563.061,1109.25 563.998,1115.63C564.936,1122.05 570.889,1126.45 577.264,1125.52C588.655,1123.83 599.53,1122.05 609.983,1120.17C608.061,1124.39 606.655,1128.75 605.718,1133.2C604.452,1139.53 608.483,1145.67 614.811,1146.98C621.139,1148.25 627.28,1144.22 628.592,1137.89C629.577,1133.16 631.545,1128.47 634.592,1123.88C637.03,1120.17 640.03,1116.56 643.639,1113.09C691.873,1101.38 728.108,1084.73 754.589,1057.73C758.902,1053.33 762.98,1048.64 766.73,1043.72C785.058,1098.33 726.746,1131.89 679.871,1147.22C649.543,1157.11 615.746,1162.41 584.527,1162.41C533.668,1162.41 490.027,1149 482.437,1119.47C483.843,1102.73 498.093,1099.31 515.484,1095.19C523.265,1093.36 531.515,1091.34 540.375,1088.16C588.609,1070.67 618.703,1027.73 654.325,999.938C682.684,977.813 711.934,971.532 753.981,1021.31C744.841,1035.47 733.684,1046.91 719.997,1056.66C717.747,1055.77 715.216,1055.53 712.685,1056.19C687.091,1062.94 675.982,1058.34 658.544,1040.95C653.95,1036.41 646.591,1036.41 641.997,1041C637.45,1045.6 637.45,1052.95 642.044,1057.5C652.685,1068.14 662.482,1075.69 674.575,1079.58C664.731,1083.09 654.091,1086.28 642.7,1089.19L642.701,1089.19ZM81.651,232.878C88.12,232.878 93.37,227.628 93.37,221.159C93.37,214.69 88.12,209.44 81.651,209.44L52.448,209.44C45.979,209.44 40.729,214.69 40.729,221.159C40.729,227.628 45.979,232.878 52.448,232.878L81.651,232.878ZM131.76,330.331C136.354,325.738 136.354,318.331 131.76,313.784C127.166,309.191 119.76,309.191 115.166,313.784L94.494,334.456C89.9,339.05 89.9,346.456 94.494,351.003C99.088,355.597 106.494,355.597 111.088,351.003L131.76,330.331ZM236.1,363.847C236.1,357.379 230.85,352.128 224.381,352.128C217.912,352.128 212.662,357.378 212.662,363.847L212.662,393.05C212.662,399.519 217.912,404.769 224.381,404.769C230.85,404.769 236.1,399.519 236.1,393.05L236.1,363.847ZM333.553,313.785C328.959,309.192 321.553,309.192 317.006,313.785C312.412,318.379 312.412,325.785 317.006,330.332L337.678,351.004C342.272,355.598 349.678,355.598 354.225,351.004C358.819,346.411 358.819,339.004 354.225,334.457L333.553,313.785ZM367.069,209.445C360.6,209.445 355.35,214.695 355.35,221.164C355.35,227.633 360.6,232.883 367.069,232.883L396.272,232.883C402.741,232.883 407.991,227.633 407.991,221.164C407.991,214.695 402.741,209.445 396.272,209.445L367.069,209.445ZM317.007,111.945C312.413,116.539 312.413,123.945 317.007,128.539C321.601,133.133 329.007,133.133 333.554,128.539L354.226,107.867C358.82,103.274 358.82,95.867 354.226,91.32C349.632,86.727 342.226,86.727 337.679,91.32L317.007,111.945ZM212.667,78.429C212.667,84.898 217.917,90.148 224.386,90.148C230.855,90.148 236.105,84.898 236.105,78.429L236.105,49.226C236.105,42.758 230.855,37.507 224.386,37.507C217.917,37.507 212.667,42.757 212.667,49.226L212.667,78.429ZM115.167,128.538C119.761,133.132 127.167,133.132 131.761,128.538C136.355,123.945 136.355,116.538 131.761,111.944L111.089,91.272C106.495,86.679 99.089,86.679 94.495,91.272C89.901,95.866 89.901,103.272 94.495,107.819L115.167,128.538ZM224.387,334.698C161.668,334.698 110.857,283.839 110.857,221.168C110.857,158.449 161.716,107.638 224.387,107.638C287.106,107.638 337.917,158.497 337.917,221.168C337.917,283.887 287.105,334.698 224.387,334.698ZM810.327,869.018C810.42,862.55 805.311,857.252 798.843,857.159C792.374,857.066 787.077,862.175 786.984,868.643C786.234,914.065 781.734,961.971 765.703,999.093C771,1005 777.656,1012.17 781.781,1019.76C785.812,1011.89 789.421,1003.45 792.562,994.359C807.14,1006.69 822.89,1016.25 839.718,1023.05C838.827,1018.17 838.265,1013.02 837.983,1007.63L837.936,1007.63C837.608,1003.78 837.421,999.985 837.28,996.281C823.874,989.485 811.311,980.531 799.639,969.375C806.295,941.437 809.67,908.344 810.327,869.015L810.327,869.018ZM249.797,611.538L294.281,611.538L183.281,474.478L72.331,611.538L116.815,611.538C123.284,611.538 128.534,616.788 128.534,623.257C128.534,804.857 257.534,972.617 432.984,1018.84C439.218,1020.48 442.968,1026.85 441.328,1033.13C439.687,1039.37 433.312,1043.12 427.031,1041.48C245.211,993.525 110.671,822.578 105.291,634.978L47.822,634.978L47.822,634.931C38.259,634.931 32.494,623.587 38.775,615.9L174.095,448.79C178.688,442.978 187.595,442.697 192.376,448.556L256.501,527.728C281.298,452.916 334.642,391.178 404.681,355.418C376.462,412.652 419.775,449.309 395.306,470.778C333.056,525.34 335.962,559.325 357.853,584.308C375.947,604.933 408.056,617.027 417.853,628.37C419.962,630.807 419.212,634.276 412.321,640.182C366.29,679.979 355.79,699.01 364.79,709.416C372.525,718.369 387.899,715.182 406.556,711.338C425.822,707.353 450.29,702.244 457.04,708.76C477.571,732.151 454.79,769.557 432.478,806.213C415.884,833.447 399.478,860.354 397.509,885.385C371.306,871.088 347.447,852.994 326.728,831.807C277.134,781.182 240.712,698.967 238.134,623.257C238.088,616.788 243.338,611.538 249.806,611.538L249.797,611.538ZM735.237,849.898C777.003,813.945 807.94,768.382 825.143,715.978L889.877,795.947C893.955,800.963 901.315,801.713 906.283,797.635C909.002,795.432 1030.12,645.105 1043.49,628.605C1049.77,620.871 1043.96,609.574 1034.45,609.574L1034.45,609.527L976.977,609.527C969.617,339.807 710.687,140.267 448.457,199.557C442.176,200.963 438.191,207.198 439.597,213.526C441.004,219.807 447.238,223.792 453.566,222.385C704.956,165.526 953.726,360.385 953.726,621.245C953.726,627.714 958.976,632.964 965.445,632.964L1009.93,632.964L898.979,770.024L787.979,632.964L832.463,632.964C839.26,632.964 844.651,627.293 844.135,620.12C840.573,542.823 803.588,461.64 752.401,410.49C669.479,327.521 545.501,300.52 435.761,341.724C435.855,349.084 433.511,355.599 429.761,362.255C399.902,415.364 454.792,452.349 411.995,489.855C365.073,531.011 364.183,553.089 376.933,567.621C391.792,584.59 423.058,595.605 437.027,611.777C449.215,625.886 450.386,640.793 428.918,659.308C397.23,686.683 382.277,690.855 383.965,692.824C385.934,695.121 390.715,688.699 401.356,686.496C426.575,681.246 458.637,674.59 474.95,690.856C509.966,727.606 480.856,775.418 454.091,819.386C436.044,848.964 418.325,878.12 423.622,897.995C518.356,938.261 628.092,926.729 712.802,867.292C693.911,859.651 677.411,860.495 664.849,861.198C633.537,862.839 616.99,858.479 624.115,808.698C624.209,808.042 619.334,806.495 612.537,802.37C595.521,791.964 571.146,777.011 555.912,741.339C541.568,707.777 534.443,669.245 560.975,655.839C587.741,642.292 625.616,668.777 648.913,695.167C655.616,702.807 667.147,710.964 673.147,699.479C676.709,692.729 677.412,684.526 676.568,670.51L676.522,670.51C676.287,667.135 674.459,650.26 655.85,626.682C637.616,603.62 531.59,568.323 502.38,522.382C485.88,496.46 489.864,469.038 534.208,440.773C573.349,415.882 627.583,400.976 666.258,420.007L666.258,419.96C696.258,434.257 709.899,463.741 709.43,499.132C708.82,547.929 749.508,593.21 792.633,609.472L763.524,609.472C758.555,609.472 754.289,612.613 752.602,617.019C713.883,591.003 683.508,546.988 684.118,498.849C684.446,473.63 676.383,452.958 655.337,442.927L655.337,442.881C624.071,428.022 579.54,441.849 547.807,462.1C519.354,480.194 515.323,495.475 523.713,508.741C548.463,547.6 652.103,581.069 675.733,610.931C699.03,640.415 701.421,663.525 701.889,668.353L701.842,668.353C707.607,732.994 660.498,746.587 629.889,711.853C612.78,692.447 594.967,680.681 581.561,678.009C574.858,676.696 570.827,677.305 569.233,683.212C566.795,692.259 569.326,707.915 579.311,731.306C591.358,759.525 611.655,771.947 625.811,780.665C640.999,789.946 651.545,796.415 649.295,812.259C646.623,830.868 647.467,835.556 650.326,835.978C665.701,838.181 695.654,827.775 735.264,849.9L735.237,849.898Z"/>
    </g>
</svg>
