<!-- Generated by IcoMoon.io -->
<svg version="1.1" xmlns="http://www.w3.org/2000/svg" width="32" height="32" viewBox="0 0 32 32">
<path d="M17.070 11.84c-0.052-0.023-0.078-0.084-0.055-0.136s0.084-0.078 0.136-0.055c0.455 0.193 0.914 1.021 1.341 1.794 0.279 0.504 0.543 0.981 0.769 1.219 0.034 0.005 0.056 0.026 0.086 0.113 0.019 0.055-0.010 0.114-0.065 0.133-0.052 0.019-0.11-0.009-0.131-0.060-0.006-0.005-0.012-0.010-0.020-0.018-0.25-0.25-0.529-0.755-0.823-1.286-0.41-0.741-0.851-1.539-1.239-1.703zM24.643 14.141c-0.055-0.018-0.086-0.076-0.069-0.131s0.076-0.086 0.131-0.069c0.531 0.165 0.887 0.61 1.261 1.076 0.269 0.335 0.546 0.681 0.896 0.928 0.073 0.051 0.46 0.445 0.652 0.692 0.047 0.061 0.085 0.116 0.105 0.157 0.056 0.115 0.040 0.191-0.079 0.21-0.035 0.005-0.080-0.004-0.137-0.031-0.052-0.025-0.074-0.087-0.050-0.139 0.006-0.012 0.014-0.024 0.024-0.032-0.009-0.012-0.019-0.025-0.029-0.038-0.184-0.236-0.543-0.604-0.608-0.65-0.376-0.264-0.663-0.621-0.94-0.967-0.354-0.441-0.691-0.861-1.161-1.008zM12.444 16.9c0.265 0.017 0.598 0.314 0.96 0.636 0.355 0.316 0.738 0.656 1.148 0.814 0.054 0.020 0.115-0.006 0.135-0.060s-0.006-0.115-0.060-0.135c-0.371-0.144-0.74-0.471-1.082-0.776-0.391-0.349-0.75-0.668-1.086-0.689-0.057-0.004-0.107 0.040-0.111 0.098s0.040 0.108 0.098 0.111zM20.139 17.856c-0.050-0.029-0.066-0.094-0.036-0.142 0.029-0.050 0.094-0.066 0.142-0.036 0.309 0.183 0.591 0.613 0.881 1.054 0.172 0.264 0.349 0.53 0.53 0.745 0.209 0.246 0.436 0.526 0.646 0.785 0.311 0.384 0.584 0.72 0.707 0.834 0.043 0.039 0.045 0.105 0.006 0.148s-0.105 0.045-0.148 0.006c-0.133-0.122-0.411-0.465-0.727-0.855-0.206-0.255-0.431-0.531-0.644-0.781-0.188-0.221-0.367-0.495-0.545-0.765-0.276-0.42-0.545-0.83-0.814-0.989zM11.115 6.025c-0.546 0-1.040 0.221-1.397 0.579s-0.579 0.851-0.579 1.397c0 0.546 0.221 1.040 0.579 1.397s0.851 0.579 1.398 0.579c0.546 0 1.040-0.221 1.398-0.579s0.579-0.851 0.579-1.398c0-0.546-0.221-1.040-0.579-1.397s-0.851-0.579-1.398-0.579zM10.984 11.036c0 0.072 0.059 0.131 0.131 0.131s0.131-0.059 0.131-0.131v-0.61c0-0.072-0.059-0.131-0.131-0.131s-0.131 0.059-0.131 0.131zM10.984 5.576c0 0.072 0.059 0.131 0.131 0.131s0.131-0.059 0.131-0.131v-0.61c0-0.072-0.059-0.131-0.131-0.131s-0.131 0.059-0.131 0.131zM8.080 7.872c-0.072 0-0.131 0.059-0.131 0.131s0.059 0.131 0.131 0.131h0.61c0.072 0 0.131-0.059 0.131-0.131s-0.059-0.131-0.131-0.131zM13.54 7.872c-0.072 0-0.131 0.059-0.131 0.131s0.059 0.131 0.131 0.131h0.61c0.072 0 0.131-0.059 0.131-0.131s-0.059-0.131-0.131-0.131zM9.307 9.624c0.051-0.051 0.134-0.051 0.185 0s0.051 0.134 0 0.185l-0.431 0.431c-0.051 0.051-0.134 0.051-0.185 0s-0.051-0.134 0-0.185l0.431-0.431zM13.168 5.763c0.051-0.051 0.134-0.051 0.185 0s0.051 0.134 0 0.185l-0.431 0.431c-0.051 0.051-0.134 0.051-0.185 0s-0.051-0.134 0-0.185l0.431-0.431zM12.737 9.809l0.431 0.431c0.051 0.051 0.134 0.051 0.185 0s0.051-0.134 0-0.185l-0.431-0.431c-0.051-0.051-0.134-0.051-0.185 0s-0.051 0.134 0 0.185zM8.876 5.948c-0.051-0.051-0.051-0.134 0-0.185s0.134-0.051 0.185 0l0.431 0.431c0.051 0.051 0.051 0.134 0 0.185s-0.134 0.051-0.185 0l-0.431-0.431zM4.566 13.251c0.063 0.169 0.156 0.346 0.265 0.508 0.124 0.184 0.269 0.351 0.41 0.465-0.088 0-0.171-0.006-0.24-0.030-0.040-0.014-0.085 0.008-0.099 0.049-0.005 0.016-0.005 0.034 0 0.050 0.058 0.172 0.155 0.365 0.296 0.549 0.093 0.12 0.202 0.236 0.334 0.341-0.082 0.015-0.166 0.012-0.253 0.010-0.041-0.001-0.082-0.002-0.109-0.002-0.044 0-0.079 0.035-0.079 0.079 0 0.006 0.001 0.011 0.003 0.018 0.018 0.1 0.146 0.303 0.295 0.499 0.098 0.127 0.204 0.254 0.295 0.35-0.106-0.006-0.131-0.020-0.161-0.035-0.036-0.019-0.079-0.040-0.194-0.061-0.043-0.008-0.084 0.021-0.091 0.064-0.003 0.015 0 0.030 0.005 0.044 0.045 0.108 0.391 0.599 0.559 0.836-0.090-0.004-0.197-0.008-0.279-0.011-0.074-0.004-0.126-0.005-0.131-0.005-0.044 0.003-0.076 0.040-0.072 0.084 0.001 0.016 0.008 0.031 0.016 0.043 0.096 0.14 0.174 0.275 0.25 0.409 0.074 0.129 0.147 0.258 0.239 0.392-0.053 0.001-0.099 0.004-0.143 0.006-0.201 0.010-0.359 0.019-0.885-0.116-0.041-0.011-0.084 0.015-0.095 0.056-0.001 0.006-0.003 0.014-0.003 0.020l0.006 0.716c-0.094 0.045-0.18 0.098-0.259 0.157l0.014-0.884c0-0.006-0.001-0.012-0.003-0.020-0.011-0.041-0.054-0.067-0.095-0.056-0.539 0.139-0.709 0.133-0.926 0.124-0.041-0.001-0.085-0.003-0.132-0.004 0.090-0.135 0.164-0.264 0.237-0.392 0.076-0.134 0.154-0.267 0.25-0.409 0.009-0.011 0.015-0.026 0.016-0.043 0.002-0.043-0.029-0.080-0.072-0.084-0.005 0-0.058 0.003-0.131 0.005-0.081 0.004-0.19 0.008-0.279 0.011 0.167-0.238 0.514-0.729 0.559-0.836 0.006-0.014 0.007-0.029 0.005-0.044-0.009-0.043-0.049-0.071-0.091-0.064-0.115 0.020-0.158 0.043-0.194 0.061-0.030 0.015-0.055 0.029-0.161 0.035 0.091-0.096 0.199-0.223 0.295-0.35 0.15-0.196 0.278-0.398 0.295-0.499 0.001-0.005 0.003-0.011 0.003-0.018 0-0.044-0.035-0.079-0.079-0.079-0.026 0-0.067 0.001-0.109 0.002-0.087 0.001-0.17 0.004-0.252-0.010 0.13-0.105 0.241-0.221 0.334-0.341 0.141-0.184 0.239-0.376 0.296-0.549 0.005-0.016 0.006-0.034 0-0.050-0.014-0.041-0.058-0.063-0.099-0.049-0.069 0.024-0.152 0.030-0.24 0.030 0.14-0.114 0.286-0.28 0.41-0.465 0.109-0.161 0.202-0.339 0.265-0.508zM7.716 16.247c-0.060 0.075-0.119 0.148-0.178 0.218l-0.003-0.258c0.063 0.015 0.117 0.027 0.168 0.038l0.013 0.003zM8.281 15.44c-0.016 0.026-0.033 0.054-0.050 0.080l-0.012-0.021c-0.012-0.020-0.025-0.041-0.039-0.063l0.102 0.004zM8.624 15.382c-0.002 0.020-0.014 0.040-0.031 0.053-1.085 1.804-2.229 2.486-2.885 2.878-0.228 0.136-0.393 0.234-0.455 0.319-0.058 0.141-0.091 0.273-0.105 0.398-0.031 0.302 0.066 0.563 0.265 0.789 0.050 0.056 0.105 0.11 0.168 0.163 0.308-0.106 1.482-0.529 1.667-0.983 0.287-0.707 0.761-0.925 1.294-1.169 0.402-0.185 0.841-0.385 1.241-0.85 2.009-2.33 3.364-1.32 4.641-0.367 0.501 0.374 0.99 0.738 1.489 0.859 0.488-0.459 1.116-0.895 2.139-1.249 0.224-0.078 0.411-0.2 0.582-0.313 0.475-0.311 0.846-0.556 1.552 0.089 0.363-0.169 0.609-0.37 0.791-0.585-0.419-0.565-0.869-1.181-1.247-1.74-0.4-0.59-0.719-1.116-0.832-1.446-0.633-1.826-0.983-1.826-1.426-1.828-0.343 0-0.731-0.001-1.27-0.539-0.615-0.614-1.219-0.471-1.817 0.071-0.641 0.579-1.283 1.6-1.926 2.664-0.938 1.549-1.771 1.731-2.488 1.889-0.5 0.11-0.938 0.206-1.303 0.83-0.014 0.024-0.027 0.047-0.041 0.071zM7.263 11.865c0.058 0.152 0.143 0.31 0.24 0.455 0.111 0.165 0.241 0.315 0.367 0.42-0.074-0.001-0.145-0.008-0.204-0.027-0.041-0.014-0.085 0.008-0.099 0.049-0.006 0.016-0.005 0.034 0 0.050 0.054 0.16 0.144 0.339 0.275 0.509 0.082 0.107 0.183 0.213 0.299 0.309-0.071 0.010-0.144 0.009-0.219 0.006-0.039-0.001-0.076-0.002-0.1-0.002-0.044 0-0.079 0.035-0.079 0.079 0 0.006 0.001 0.012 0.003 0.019 0.016 0.095 0.135 0.281 0.274 0.463 0.085 0.113 0.18 0.225 0.262 0.313-0.084-0.006-0.105-0.018-0.131-0.031-0.034-0.018-0.074-0.039-0.181-0.057-0.043-0.008-0.082 0.021-0.091 0.064-0.003 0.015-0.001 0.030 0.005 0.044 0.040 0.098 0.341 0.525 0.5 0.751l-0.008 0.012c-0.076-0.002-0.161-0.006-0.229-0.009-0.069-0.002-0.117-0.005-0.123-0.005-0.044 0.004-0.075 0.041-0.072 0.084 0.001 0.016 0.008 0.031 0.016 0.043 0.041 0.059 0.079 0.119 0.115 0.179 0.019 0.030 0.035 0.060 0.053 0.088-0.104 0.158-0.209 0.304-0.313 0.441-0.027-0.005-0.056-0.011-0.088-0.017-0.076-0.016-0.161-0.036-0.259-0.061-0.041-0.011-0.084 0.015-0.095 0.056-0.001 0.006-0.003 0.014-0.003 0.020l0.005 0.535c-0.075 0.084-0.151 0.164-0.225 0.239l0.013-0.782c0-0.006-0.001-0.014-0.003-0.020-0.011-0.041-0.054-0.067-0.095-0.056-0.496 0.128-0.654 0.121-0.854 0.114-0.035-0.001-0.071-0.003-0.111-0.004 0.081-0.121 0.147-0.238 0.214-0.354 0.070-0.124 0.141-0.248 0.23-0.377 0.010-0.011 0.015-0.026 0.016-0.043 0.004-0.044-0.029-0.081-0.072-0.084-0.005 0-0.054 0.001-0.122 0.005-0.071 0.002-0.165 0.006-0.245 0.010 0.157-0.223 0.469-0.665 0.51-0.764 0.005-0.014 0.008-0.029 0.005-0.044-0.008-0.043-0.049-0.071-0.091-0.064-0.107 0.020-0.146 0.040-0.181 0.057-0.025 0.014-0.048 0.025-0.131 0.031 0.082-0.088 0.176-0.2 0.263-0.313 0.138-0.181 0.256-0.369 0.272-0.463 0.001-0.006 0.003-0.012 0.003-0.019 0-0.044-0.035-0.079-0.079-0.079-0.024 0-0.063 0.001-0.1 0.002-0.075 0.002-0.147 0.004-0.219-0.006 0.116-0.095 0.216-0.2 0.299-0.309 0.131-0.17 0.221-0.349 0.275-0.509 0.005-0.016 0.005-0.034 0-0.050-0.014-0.041-0.059-0.063-0.099-0.049-0.059 0.020-0.129 0.026-0.204 0.027 0.126-0.105 0.256-0.255 0.367-0.42 0.098-0.145 0.183-0.304 0.24-0.455zM23.028 25.386c0.922-0.55 1.769-1.204 2.51-1.929 1.936-1.895 3.159-4.277 3.159-6.561 0-0.234-0.012-0.464-0.039-0.692-0.055-0.113-0.955-0.896-1.747-1.586-0.563-0.49-1.073-0.934-1.209-1.086-1.059-1.178-1.336-0.982-1.997-0.519-0.289 0.203-0.642 0.45-1.14 0.674-0.511 0.23-0.692 0.624-0.887 1.045-0.235 0.51-0.488 1.058-1.293 1.46 0.207 0.219 0.442 0.508 0.714 0.883 0.224 0.31 0.545 0.613 0.914 0.959 0.61 0.574 1.345 1.265 2.010 2.334 0.038 0.061 0.019 0.141-0.043 0.18-0.061 0.038-0.141 0.019-0.18-0.043-0.648-1.040-1.369-1.719-1.968-2.281-0.378-0.355-0.706-0.665-0.946-0.996-1.218-1.686-1.586-1.444-2.109-1.1-0.184 0.121-0.385 0.254-0.64 0.341-1.506 0.521-2.125 1.232-2.731 1.929-0.506 0.582-1.005 1.155-1.98 1.609-0.065 0.030-0.144 0.003-0.174-0.064-0.030-0.065-0.002-0.144 0.064-0.174 0.925-0.431 1.405-0.983 1.894-1.544 0.159-0.181 0.318-0.365 0.492-0.545-0.495-0.161-0.957-0.506-1.433-0.86-1.183-0.883-2.438-1.817-4.287 0.329-0.438 0.508-0.904 0.721-1.33 0.916-0.482 0.221-0.911 0.418-1.16 1.030-0.197 0.486-1.183 0.898-1.651 1.070 0.151 0.094 0.322 0.18 0.514 0.26 0.787 0.329 1.879 0.535 3.078 0.657 2.17 0.223 4.753 0.536 7.206 1.183 2.429 0.639 4.733 1.602 6.391 3.122zM4.527 21.046c0.642 1.735 1.946 3.118 3.693 4.126 2.271 1.313 5.291 1.992 8.587 1.992 0.427 0 0.85-0.025 1.267-0.073 0.374-0.043 0.745-0.104 1.111-0.183-2.495-2.231-5.81-2.851-8.435-3.342-0.246-0.046-0.486-0.091-0.695-0.131-3-0.579-4.698-1.486-5.505-2.364-0.009-0.009-0.016-0.017-0.024-0.026zM4.214 19.922c0.006 0.032 0.013 0.064 0.019 0.095 0.065 0.274 0.228 0.571 0.509 0.876 0.775 0.843 2.425 1.718 5.361 2.285 0.241 0.046 0.465 0.089 0.694 0.131 2.704 0.506 6.133 1.148 8.698 3.529 1.163-0.281 2.274-0.734 3.296-1.315-1.617-1.456-3.858-2.386-6.221-3.007-2.438-0.641-5.006-0.954-7.166-1.175-1.223-0.125-2.339-0.337-3.151-0.676-0.3-0.125-0.56-0.269-0.77-0.431-0.005-0.004-0.009-0.006-0.014-0.011-0.094-0.074-0.176-0.151-0.249-0.234-0.247-0.28-0.369-0.608-0.33-0.988 0.008-0.078 0.022-0.157 0.044-0.239-0.259 0.098-0.461 0.258-0.588 0.46l-0.006 0.009c-0.119 0.195-0.168 0.431-0.126 0.692z"></path>
</svg>
