<?xml version="1.0" encoding="UTF-8" standalone="no"?>
<!DOCTYPE svg PUBLIC "-//W3C//DTD SVG 1.1//EN" "http://www.w3.org/Graphics/SVG/1.1/DTD/svg11.dtd">
<svg width="100%" height="100%" viewBox="0 0 150 150" version="1.1" xmlns="http://www.w3.org/2000/svg" xmlns:xlink="http://www.w3.org/1999/xlink" xml:space="preserve" xmlns:serif="http://www.serif.com/" style="fill-rule:evenodd;clip-rule:evenodd;stroke-linejoin:round;stroke-miterlimit:2;">
    <g transform="matrix(0.157549,0,0,0.158535,-19.5298,-20.1323)">
        <path d="M1075.5,1058.5L1040.86,960.062L1040.81,959.968C1040.72,959.687 1040.48,959.453 1040.34,959.171C1040.06,958.562 1039.73,957.953 1039.31,957.437C1038.98,957.062 1038.56,956.828 1038.19,956.546C1037.77,956.218 1037.44,955.89 1036.97,955.656C1036.36,955.374 1035.7,955.234 1035.05,955.093C1034.72,955.046 1034.44,954.859 1034.11,954.812L1034.02,954.812L846.195,940.421C845.82,940.374 845.539,940.515 845.211,940.562C844.883,940.562 844.555,940.468 844.226,940.562C844.039,940.608 843.898,940.702 843.711,940.749C843.195,940.89 842.726,941.124 842.258,941.358C841.836,941.593 841.414,941.78 841.039,942.062C840.664,942.343 840.336,942.718 840.008,943.093C839.68,943.468 839.351,943.796 839.117,944.265C838.883,944.687 838.742,945.108 838.555,945.577C838.367,946.093 838.18,946.562 838.133,947.077C838.086,947.265 837.992,947.405 837.992,947.593C837.945,947.921 838.086,948.249 838.133,948.577C838.133,948.905 838.039,949.233 838.133,949.608L859.321,1062.53C859.368,1062.86 859.555,1063.09 859.649,1063.42C859.789,1063.79 859.883,1064.17 860.071,1064.54C860.352,1065.06 860.68,1065.53 861.008,1065.95C861.243,1066.23 861.43,1066.51 861.711,1066.79C862.18,1067.22 862.696,1067.54 863.211,1067.83C863.493,1067.97 863.727,1068.2 864.055,1068.29C864.946,1068.62 865.883,1068.86 866.868,1068.86L1068.34,1068.86C1070.82,1068.86 1073.21,1067.64 1074.62,1065.58C1076.07,1063.51 1076.45,1060.89 1075.6,1058.54L1075.5,1058.5ZM873.14,1053.34L854.999,956.594L1027.92,969.813L1057.31,1053.34L873.14,1053.34ZM615.42,794.124C615.092,794.124 614.811,794.264 614.483,794.311C613.92,794.358 613.451,794.452 612.936,794.639C612.467,794.78 612.045,795.014 611.623,795.296C611.201,795.53 610.779,795.764 610.404,796.139C609.982,796.514 609.701,796.889 609.373,797.311C609.186,797.593 608.904,797.733 608.717,798.014L565.639,872.639C565.592,872.686 565.592,872.733 565.592,872.827C565.358,873.296 565.264,873.811 565.123,874.28C564.983,874.796 564.748,875.264 564.701,875.733C564.701,875.78 564.654,875.827 564.654,875.921C564.608,876.296 564.748,876.671 564.795,877.046C564.842,877.608 564.842,878.171 564.983,878.733C565.123,879.202 565.404,879.624 565.639,880.046C565.873,880.468 566.061,880.936 566.342,881.311C566.717,881.78 567.186,882.061 567.608,882.436C567.889,882.671 568.123,882.999 568.451,883.186C568.498,883.233 568.545,883.186 568.592,883.233C569.529,883.749 570.561,884.124 571.733,884.217L1014.6,918.108L1015.17,918.108C1016.01,918.108 1016.85,917.968 1017.7,917.687C1017.74,917.687 1017.79,917.64 1017.84,917.593C1018.63,917.312 1019.29,916.843 1019.95,916.327C1020.09,916.234 1020.23,916.187 1020.37,916.046C1021.07,915.39 1021.68,914.593 1022.1,913.702C1022.29,913.327 1022.29,912.952 1022.43,912.53C1022.62,912.015 1022.85,911.499 1022.85,910.89L1022.85,910.843C1022.9,910.327 1022.71,909.812 1022.67,909.296C1022.62,908.78 1022.62,908.265 1022.48,907.796L1022.48,907.749L984.322,799.229C984.275,799.135 984.228,799.088 984.181,799.042C983.993,798.479 983.618,798.057 983.29,797.588C983.056,797.213 982.868,796.838 982.54,796.51C982.212,796.135 981.743,795.901 981.368,795.62C980.947,795.338 980.618,795.01 980.15,794.823C979.728,794.635 979.306,794.588 978.884,794.495C978.321,794.354 977.806,794.167 977.243,794.167C977.15,794.167 977.103,794.12 977.009,794.12L615.369,794.12L615.42,794.124ZM1003.97,901.744L585.15,869.682L619.884,809.541L971.594,809.541L1004.03,901.744L1003.97,901.744ZM238.31,740.404C238.31,740.966 238.498,741.529 238.638,742.091C238.732,742.513 238.779,742.982 238.966,743.357C239.154,743.826 239.482,744.154 239.763,744.576C240.044,744.998 240.279,745.419 240.654,745.748C240.982,746.029 241.357,746.216 241.732,746.498C242.201,746.826 242.669,747.154 243.185,747.388C243.279,747.435 243.279,747.482 243.372,747.482C244.216,747.81 245.107,747.951 245.951,747.951L955.261,747.951C956.104,747.951 956.995,747.81 957.839,747.529C957.932,747.482 957.979,747.435 958.026,747.388C958.589,747.201 959.011,746.826 959.479,746.498C959.854,746.263 960.276,746.076 960.557,745.748C960.932,745.419 961.167,744.951 961.448,744.576C961.729,744.154 962.057,743.826 962.292,743.357C962.479,742.982 962.526,742.513 962.62,742.091C962.76,741.529 962.948,741.013 962.948,740.451C962.948,740.357 962.995,740.31 962.995,740.216C962.995,739.748 962.807,739.373 962.714,738.951C962.62,738.529 962.667,738.107 962.526,737.685L892.682,539.215C891.604,536.121 888.651,534.059 885.416,534.059L657.466,534.434C654.279,534.434 651.56,536.356 650.388,539.121C694.732,460.043 748.685,352.331 748.685,296.071C748.685,249.149 731.904,206.774 704.763,176.161C677.857,145.786 640.685,126.989 599.713,126.989C558.741,126.989 521.572,145.786 494.663,176.161C467.522,206.77 450.741,249.192 450.741,296.071C450.741,351.43 502.96,456.621 546.882,535.281C545.945,534.86 544.914,534.625 543.835,534.625L316.305,535C313.024,535 310.118,537.063 309.04,540.156L238.681,737.686C238.54,738.108 238.587,738.53 238.493,738.999C238.4,739.421 238.212,739.843 238.212,740.311C238.212,740.405 238.259,740.452 238.259,740.546L238.31,740.404ZM518.91,271.464C518.91,248.917 528.051,228.48 542.816,213.714C557.581,198.948 578.019,189.808 600.566,189.808C623.113,189.808 643.55,198.948 658.316,213.714C673.082,228.479 682.222,248.917 682.222,271.464C682.222,294.011 673.081,314.448 658.316,329.214C643.551,343.98 623.113,353.12 600.566,353.12C578.019,353.12 557.582,343.979 542.816,329.214C528.05,314.448 518.91,294.011 518.91,271.464ZM321.8,550.364L543.9,549.989C547.838,549.989 550.931,546.989 551.447,543.192C572.166,579.895 590.494,609.989 599.822,624.989C609.478,609.427 628.838,577.645 650.447,539.067C650.072,540.004 649.838,540.989 649.838,542.067C649.838,546.333 653.306,549.801 657.572,549.801L880.042,549.426L944.448,732.476L256.928,732.429L321.756,550.319L321.8,550.364ZM414.05,1064.91C413.956,1065.1 413.722,1065.19 413.581,1065.38C413.019,1066.18 412.409,1066.79 411.612,1067.35C411.331,1067.54 411.097,1067.73 410.816,1067.91C409.784,1068.43 408.612,1068.8 407.347,1068.8L131.717,1068.8C129.186,1068.8 126.842,1067.59 125.389,1065.52C123.936,1063.46 123.561,1060.84 124.404,1058.49L216.701,799.272C216.748,799.178 216.795,799.178 216.795,799.085C216.983,798.522 217.358,798.1 217.686,797.631C217.92,797.256 218.108,796.835 218.436,796.553C218.764,796.225 219.186,795.991 219.608,795.71C220.029,795.428 220.404,795.053 220.873,794.866C221.248,794.678 221.67,794.678 222.092,794.538C222.654,794.397 223.217,794.21 223.826,794.21C223.92,794.21 223.967,794.163 224.061,794.163L557.061,794.163C557.201,794.163 557.342,794.256 557.529,794.256C558.045,794.303 558.514,794.444 559.029,794.585C559.545,794.725 560.014,794.866 560.483,795.053C560.623,795.147 560.764,795.1 560.904,795.194C561.186,795.381 561.373,795.616 561.608,795.803C562.029,796.131 562.451,796.46 562.826,796.881C563.155,797.256 563.389,797.678 563.623,798.1C563.858,798.522 564.092,798.944 564.28,799.413C564.467,799.928 564.514,800.444 564.608,800.96C564.655,801.288 564.795,801.569 564.795,801.897C564.795,802.038 564.701,802.178 564.701,802.366C564.655,802.882 564.514,803.35 564.42,803.866C564.28,804.382 564.139,804.85 563.905,805.319C563.811,805.46 563.858,805.6 563.764,805.741L414.084,1064.96L414.05,1064.91ZM822.57,1063.37C822.429,1063.84 822.242,1064.26 822.008,1064.68C821.773,1065.1 821.492,1065.52 821.211,1065.9C820.883,1066.27 820.554,1066.6 820.179,1066.93C819.804,1067.26 819.429,1067.49 818.961,1067.73C818.492,1067.96 818.023,1068.15 817.508,1068.29C817.226,1068.38 817.039,1068.52 816.758,1068.62C816.289,1068.71 815.82,1068.76 815.351,1068.76L465.761,1068.76C464.496,1068.76 463.371,1068.38 462.293,1067.82C462.199,1067.77 462.058,1067.77 461.918,1067.73C461.636,1067.54 461.449,1067.3 461.214,1067.12C460.793,1066.79 460.371,1066.46 460.043,1066.09C459.714,1065.71 459.48,1065.29 459.246,1064.87C459.011,1064.44 458.777,1064.02 458.589,1063.55C458.402,1063.04 458.355,1062.52 458.261,1062.01C458.214,1061.68 458.074,1061.4 458.074,1061.07C458.074,1060.93 458.168,1060.79 458.168,1060.6C458.214,1060.09 458.355,1059.62 458.449,1059.1C458.589,1058.59 458.73,1058.12 458.918,1057.65C459.011,1057.51 458.964,1057.37 459.058,1057.23L537.574,921.246C537.762,920.918 538.09,920.684 538.324,920.403C538.699,919.934 538.98,919.512 539.449,919.137C539.871,918.809 540.293,918.621 540.762,918.387C541.184,918.153 541.605,917.918 542.074,917.778C542.637,917.59 543.199,917.59 543.809,917.543C544.184,917.496 544.512,917.356 544.887,917.403L793.987,936.481C794.174,936.481 794.315,936.574 794.502,936.621C795.065,936.715 795.533,936.856 796.049,937.043C796.471,937.231 796.94,937.371 797.315,937.606C797.737,937.887 798.112,938.215 798.487,938.543C798.862,938.871 799.19,939.199 799.518,939.574C799.799,939.949 799.987,940.371 800.221,940.84C800.455,941.309 800.69,941.777 800.83,942.293C800.877,942.48 801.018,942.621 801.018,942.809L822.956,1059.76C823.003,1059.99 822.909,1060.23 822.956,1060.46C822.956,1060.7 823.096,1060.93 823.096,1061.16C823.096,1061.45 822.956,1061.68 822.956,1061.96C822.909,1062.48 822.815,1062.99 822.628,1063.46L822.57,1063.37ZM610.46,770.497C610.46,767.825 612.616,765.669 615.288,765.669L652.647,765.669C655.319,765.669 657.475,767.825 657.475,770.497C657.475,773.169 655.319,775.325 652.647,775.325L615.288,775.325C612.616,775.325 610.46,773.169 610.46,770.497ZM560.491,854.919L542.819,885.481C541.507,887.778 538.553,888.575 536.257,887.262C533.96,885.95 533.163,882.997 534.475,880.7L552.147,850.138C553.46,847.841 556.413,847.044 558.71,848.356C561.007,849.669 561.804,852.622 560.491,854.919ZM569.819,819.575L587.491,789.013C588.804,786.716 591.757,785.919 594.054,787.232C596.351,788.544 597.147,791.497 595.835,793.794L578.163,824.356C576.85,826.653 573.897,827.45 571.6,826.137C569.303,824.825 568.507,821.872 569.819,819.575ZM808.419,918.2C811.091,918.387 813.06,920.731 812.872,923.403C812.685,926.075 810.341,928.044 807.669,927.856L772.466,925.184C769.794,924.997 767.826,922.653 768.013,919.981C768.201,917.309 770.544,915.34 773.216,915.528L808.419,918.2ZM878.825,923.59C881.497,923.778 883.466,926.122 883.278,928.794C883.091,931.465 880.747,933.434 878.075,933.247L842.872,930.575C840.2,930.387 838.232,928.044 838.419,925.372C838.607,922.7 840.95,920.731 843.622,920.919L878.825,923.59ZM949.231,928.981C951.903,929.169 953.872,931.512 953.684,934.184C953.497,936.856 951.153,938.825 948.481,938.637L913.278,935.965C910.606,935.778 908.638,933.434 908.825,930.762C909.013,928.09 911.356,926.122 914.028,926.309L949.231,928.981ZM1024.09,939.575C1023.9,942.247 1021.56,944.216 1018.89,944.028L983.684,941.356C981.012,941.169 979.043,938.825 979.231,936.153C979.418,933.481 981.762,931.513 984.434,931.7L1019.64,934.372C1022.31,934.559 1024.28,936.903 1024.09,939.575ZM738.01,912.856C740.682,913.044 742.651,915.387 742.463,918.059C742.276,920.731 739.932,922.7 737.26,922.512L699.994,919.653C697.322,919.465 695.354,917.122 695.541,914.45C695.729,911.778 698.072,909.809 700.744,909.997L738.01,912.856ZM665.588,907.278C668.26,907.465 670.229,909.809 670.041,912.481C669.854,915.153 667.51,917.122 664.838,916.934L629.635,914.262C626.963,914.075 624.995,911.731 625.182,909.059C625.37,906.387 627.713,904.419 630.385,904.606L665.588,907.278ZM554.818,903.669C555.006,900.997 557.349,899.028 560.021,899.215L595.224,901.887C597.896,902.075 599.865,904.419 599.677,907.09C599.49,909.762 597.146,911.731 594.474,911.544L559.271,908.872C556.599,908.684 554.631,906.34 554.818,903.669ZM690.008,775.329C687.336,775.329 685.18,773.172 685.18,770.5C685.18,767.829 687.336,765.672 690.008,765.672L727.367,765.672C730.039,765.672 732.195,767.829 732.195,770.5C732.195,773.172 730.039,775.329 727.367,775.329L690.008,775.329ZM582.808,770.5C582.808,773.172 580.652,775.329 577.98,775.329L540.621,775.329C537.949,775.329 535.793,773.172 535.793,770.5C535.793,767.829 537.949,765.672 540.621,765.672L577.98,765.672C580.652,765.672 582.808,767.829 582.808,770.5ZM487.136,972.44C489.433,973.8 490.23,976.753 488.917,979.05L471.245,1009.61C469.886,1011.91 466.933,1012.71 464.636,1011.39C462.339,1010.03 461.542,1007.08 462.855,1004.78L480.527,974.222C481.886,971.925 484.839,971.128 487.136,972.44ZM453.574,1040.17L435.902,1070.74C434.543,1073.03 431.59,1073.83 429.293,1072.52C426.996,1071.16 426.199,1068.2 427.511,1065.91L445.183,1035.35C446.543,1033.05 449.496,1032.25 451.793,1033.57C454.09,1034.92 454.887,1037.88 453.574,1040.17ZM523.465,909.484C525.762,910.844 526.559,913.797 525.246,916.094L506.543,948.438C505.184,950.735 502.231,951.532 499.934,950.219C497.637,948.86 496.84,945.907 498.153,943.61L516.856,911.266C518.215,908.969 521.168,908.172 523.465,909.484ZM834.905,1024.14C832.28,1024.57 829.796,1022.74 829.421,1020.11L825.811,996.769C825.389,994.144 827.217,991.66 829.842,991.285C832.467,990.863 834.952,992.691 835.327,995.316L838.936,1018.66C839.358,1021.28 837.53,1023.77 834.905,1024.14ZM764.78,775.334C762.108,775.334 759.952,773.178 759.952,770.506C759.952,767.835 762.108,765.678 764.78,765.678L804.342,765.678C807.014,765.678 809.17,767.835 809.17,770.506C809.17,773.178 807.014,775.334 804.342,775.334L764.78,775.334ZM827.639,977.464C825.014,977.886 822.53,976.058 822.155,973.433L818.545,950.089C818.123,947.464 819.951,944.98 822.576,944.605C825.201,944.183 827.686,946.011 828.061,948.636L831.67,971.98C832.092,974.605 830.264,977.089 827.639,977.464ZM234.669,770.515C234.669,767.843 236.825,765.686 239.497,765.686L276.856,765.686C279.528,765.686 281.684,767.843 281.684,770.515C281.684,773.186 279.528,775.343 276.856,775.343L239.497,775.343C236.825,775.343 234.669,773.186 234.669,770.515ZM842.539,1041.96L846.383,1066.67C846.805,1069.29 844.977,1071.78 842.352,1072.15C839.727,1072.57 837.242,1070.75 836.867,1068.12L833.023,1043.42C832.602,1040.79 834.43,1038.31 837.055,1037.93C839.68,1037.51 842.164,1039.34 842.539,1041.96ZM916.367,775.335C913.695,775.335 911.539,773.178 911.539,770.506C911.539,767.835 913.695,765.678 916.367,765.678L953.726,765.678C956.398,765.678 958.554,767.835 958.554,770.506C958.554,773.178 956.398,775.335 953.726,775.335L916.367,775.335ZM841.648,775.335C838.976,775.335 836.82,773.178 836.82,770.506C836.82,767.835 838.976,765.678 841.648,765.678L879.007,765.678C881.679,765.678 883.835,767.835 883.835,770.506C883.835,773.178 881.679,775.335 879.007,775.335L841.648,775.335ZM444.098,636.725C444.098,623.413 453.379,611.553 469.551,601.897C484.551,592.943 505.832,585.631 531.051,580.944C535.27,580.147 539.301,582.912 540.051,587.131C540.848,591.35 538.082,595.381 533.864,596.131C510.426,600.537 490.88,607.147 477.473,615.162C466.129,621.959 459.614,629.365 459.614,636.724C459.614,648.068 474.239,659.083 497.817,667.755C523.786,677.271 559.786,683.13 599.767,683.13C639.748,683.13 675.798,677.271 701.717,667.755C725.342,659.13 739.92,648.114 739.92,636.724C739.92,629.318 733.31,621.818 721.779,615.021C708.138,606.959 688.357,600.302 664.685,595.943C660.466,595.193 657.7,591.162 658.497,586.943C659.247,582.724 663.278,579.959 667.497,580.756C692.997,585.443 714.559,592.756 729.7,601.709C746.012,611.412 755.434,623.365 755.434,636.725C755.434,655.287 736.918,671.319 707.012,682.241C679.403,692.319 641.481,698.6 599.762,698.6C558.043,698.6 520.121,692.365 492.512,682.241C462.606,671.271 444.09,655.241 444.09,636.725L444.098,636.725ZM428.489,765.625C431.161,765.625 433.317,767.781 433.317,770.453C433.317,773.124 431.161,775.281 428.489,775.281L388.927,775.281C386.255,775.281 384.099,773.124 384.099,770.453C384.099,767.781 386.255,765.625 388.927,765.625L428.489,765.625ZM503.208,765.625C505.88,765.625 508.036,767.781 508.036,770.453C508.036,773.124 505.88,775.281 503.208,775.281L465.849,775.281C463.177,775.281 461.021,773.124 461.021,770.453C461.021,767.781 463.177,765.625 465.849,765.625L503.208,765.625ZM351.568,765.625C354.24,765.625 356.396,767.781 356.396,770.453C356.396,773.124 354.24,775.281 351.568,775.281L314.209,775.281C311.537,775.281 309.381,773.124 309.381,770.453C309.381,767.781 311.537,765.625 314.209,765.625L351.568,765.625Z" style="fill-rule:nonzero;"/>
    </g>
</svg>
