<!-- Generated by IcoMoon.io -->
<svg version="1.1" xmlns="http://www.w3.org/2000/svg" width="32" height="32" viewBox="0 0 32 32">
<path d="M31.982 31.504l-1.164-3.329-0.002-0.003c-0.003-0.009-0.011-0.017-0.016-0.027-0.009-0.021-0.020-0.041-0.035-0.059-0.011-0.013-0.025-0.021-0.038-0.030-0.014-0.011-0.025-0.022-0.041-0.030-0.020-0.010-0.043-0.014-0.065-0.019-0.011-0.002-0.020-0.008-0.032-0.009h-0.003l-6.313-0.487c-0.013-0.002-0.022 0.003-0.033 0.005-0.011 0-0.022-0.003-0.033 0-0.006 0.002-0.011 0.005-0.017 0.006-0.017 0.005-0.033 0.013-0.049 0.021-0.014 0.008-0.028 0.014-0.041 0.024s-0.024 0.022-0.035 0.035-0.022 0.024-0.030 0.040-0.013 0.029-0.019 0.044c-0.006 0.017-0.013 0.033-0.014 0.051-0.002 0.006-0.005 0.011-0.005 0.017-0.002 0.011 0.003 0.022 0.005 0.033 0 0.011-0.003 0.022 0 0.035l0.712 3.819c0.002 0.011 0.008 0.019 0.011 0.030 0.005 0.012 0.008 0.025 0.014 0.038 0.009 0.018 0.020 0.033 0.032 0.048 0.008 0.009 0.014 0.019 0.024 0.028 0.016 0.015 0.033 0.025 0.050 0.035 0.009 0.005 0.017 0.012 0.028 0.016 0.030 0.011 0.061 0.019 0.095 0.019h6.772c0.083 0 0.164-0.041 0.211-0.111 0.049-0.070 0.061-0.159 0.033-0.238l-0.003-0.001zM25.18 31.33l-0.61-3.272 5.812 0.447 0.988 2.825h-6.19zM16.518 22.563c-0.011 0-0.020 0.005-0.032 0.006-0.019 0.002-0.035 0.005-0.052 0.011-0.016 0.005-0.030 0.013-0.044 0.022-0.014 0.008-0.028 0.016-0.041 0.029-0.014 0.013-0.024 0.025-0.035 0.040-0.006 0.010-0.016 0.014-0.022 0.024l-1.448 2.524c-0.002 0.002-0.002 0.003-0.002 0.006-0.008 0.016-0.011 0.033-0.016 0.049-0.005 0.017-0.013 0.033-0.014 0.049 0 0.002-0.002 0.003-0.002 0.006-0.002 0.013 0.003 0.025 0.005 0.038 0.002 0.019 0.002 0.038 0.006 0.057 0.005 0.016 0.014 0.030 0.022 0.044s0.014 0.030 0.024 0.043c0.013 0.016 0.028 0.025 0.043 0.038 0.009 0.008 0.017 0.019 0.028 0.025 0.002 0.002 0.003 0 0.005 0.002 0.031 0.017 0.066 0.030 0.106 0.033l14.904 1.146c0.028 0 0.056-0.005 0.085-0.014 0.001 0 0.003-0.002 0.005-0.003 0.027-0.009 0.049-0.025 0.071-0.043 0.005-0.003 0.009-0.005 0.014-0.009 0.024-0.022 0.044-0.049 0.058-0.079 0.006-0.013 0.006-0.025 0.011-0.040 0.006-0.017 0.014-0.035 0.014-0.055v-0.002c0.002-0.017-0.005-0.035-0.006-0.052s-0.002-0.035-0.006-0.051v-0.002l-1.282-3.67c-0.002-0.003-0.003-0.005-0.005-0.006-0.006-0.019-0.019-0.033-0.030-0.049-0.008-0.013-0.014-0.025-0.025-0.036-0.011-0.013-0.027-0.021-0.039-0.030-0.014-0.010-0.025-0.021-0.041-0.027-0.014-0.006-0.028-0.008-0.043-0.011-0.019-0.005-0.036-0.011-0.055-0.011-0.003 0-0.005-0.002-0.008-0.002l-12.153 0zM29.578 26.203l-14.077-1.084 1.167-2.034h11.821l1.090 3.118h-0.002zM3.843 20.746c0 0.019 0.006 0.038 0.011 0.057 0.003 0.014 0.005 0.030 0.011 0.043 0.006 0.016 0.017 0.027 0.027 0.041s0.017 0.029 0.030 0.040c0.011 0.009 0.024 0.016 0.036 0.025 0.016 0.011 0.031 0.022 0.049 0.030 0.003 0.002 0.003 0.003 0.006 0.003 0.028 0.011 0.058 0.016 0.087 0.016h23.84c0.028 0 0.058-0.005 0.087-0.014 0.003-0.002 0.005-0.003 0.006-0.005 0.019-0.006 0.033-0.019 0.049-0.030 0.013-0.008 0.027-0.014 0.036-0.025 0.013-0.011 0.020-0.027 0.030-0.040 0.009-0.014 0.020-0.025 0.028-0.041 0.006-0.013 0.008-0.029 0.011-0.043 0.005-0.019 0.011-0.036 0.011-0.055 0-0.003 0.002-0.005 0.002-0.008 0-0.016-0.006-0.029-0.009-0.043s-0.002-0.029-0.006-0.043l-2.348-6.712c-0.036-0.105-0.135-0.174-0.244-0.174l-7.662 0.013c-0.107 0-0.198 0.065-0.238 0.159 1.49-2.674 3.304-6.317 3.304-8.22 0-1.587-0.564-3.020-1.476-4.055-0.904-1.027-2.154-1.663-3.531-1.663s-2.626 0.636-3.531 1.663c-0.912 1.035-1.476 2.47-1.476 4.055 0 1.872 1.755 5.43 3.231 8.090-0.031-0.014-0.066-0.022-0.102-0.022l-7.647 0.013c-0.11 0-0.208 0.070-0.244 0.174l-2.365 6.681c-0.005 0.014-0.003 0.029-0.006 0.044-0.003 0.014-0.009 0.029-0.009 0.044 0 0.003 0.002 0.005 0.002 0.008l0.002-0.005zM13.274 4.886c0-0.763 0.307-1.454 0.803-1.953s1.183-0.809 1.941-0.809c0.758 0 1.445 0.309 1.941 0.809s0.803 1.191 0.803 1.953-0.307 1.454-0.803 1.953c-0.496 0.499-1.183 0.809-1.941 0.809s-1.445-0.309-1.941-0.809c-0.496-0.499-0.803-1.191-0.803-1.953zM6.649 14.319l7.465-0.013c0.132 0 0.236-0.101 0.254-0.23 0.696 1.241 1.312 2.259 1.626 2.766 0.325-0.526 0.975-1.601 1.702-2.906-0.013 0.032-0.020 0.065-0.020 0.101 0 0.144 0.117 0.262 0.26 0.262l7.477-0.013 2.165 6.191-23.108-0.002 2.179-6.159 0.001 0.002zM9.75 31.721c-0.003 0.006-0.011 0.009-0.016 0.016-0.019 0.027-0.039 0.048-0.066 0.067-0.009 0.006-0.017 0.013-0.027 0.019-0.035 0.018-0.074 0.030-0.117 0.030h-9.264c-0.085 0-0.164-0.041-0.213-0.111s-0.061-0.158-0.033-0.238l3.102-8.767c0.002-0.003 0.003-0.003 0.003-0.006 0.006-0.019 0.019-0.033 0.030-0.049 0.008-0.013 0.014-0.027 0.025-0.036 0.011-0.011 0.025-0.019 0.039-0.029s0.027-0.022 0.043-0.029c0.013-0.006 0.027-0.006 0.041-0.011 0.019-0.005 0.038-0.011 0.058-0.011 0.003 0 0.005-0.002 0.008-0.002h11.192c0.005 0 0.009 0.003 0.016 0.003 0.017 0.002 0.033 0.006 0.050 0.011s0.033 0.009 0.049 0.016c0.005 0.003 0.009 0.002 0.014 0.005 0.009 0.006 0.016 0.014 0.024 0.021 0.014 0.011 0.028 0.022 0.041 0.036 0.011 0.013 0.019 0.027 0.027 0.041s0.016 0.029 0.022 0.044c0.006 0.017 0.008 0.035 0.011 0.052 0.002 0.011 0.006 0.021 0.006 0.032 0 0.005-0.003 0.009-0.003 0.016-0.002 0.017-0.006 0.033-0.009 0.051-0.005 0.017-0.009 0.033-0.017 0.049-0.003 0.005-0.002 0.009-0.005 0.014l-5.032 8.765zM23.481 31.669c-0.005 0.016-0.011 0.030-0.019 0.044s-0.017 0.028-0.027 0.041c-0.011 0.012-0.022 0.024-0.035 0.035s-0.025 0.019-0.041 0.027c-0.016 0.008-0.032 0.014-0.049 0.019-0.009 0.003-0.016 0.008-0.025 0.011-0.016 0.003-0.032 0.005-0.047 0.005h-11.75c-0.043 0-0.080-0.013-0.117-0.032-0.003-0.002-0.008-0.002-0.013-0.003-0.009-0.006-0.016-0.015-0.024-0.021-0.014-0.011-0.028-0.022-0.039-0.035s-0.019-0.027-0.027-0.041c-0.008-0.015-0.016-0.029-0.022-0.045-0.006-0.017-0.008-0.035-0.011-0.052-0.002-0.011-0.006-0.021-0.006-0.032 0-0.005 0.003-0.009 0.003-0.016 0.002-0.017 0.006-0.033 0.009-0.051 0.005-0.017 0.009-0.033 0.016-0.049 0.003-0.005 0.002-0.009 0.005-0.014l2.639-4.599c0.006-0.011 0.017-0.019 0.025-0.029 0.013-0.016 0.022-0.030 0.038-0.043 0.014-0.011 0.028-0.017 0.044-0.025 0.014-0.008 0.028-0.016 0.044-0.021 0.019-0.006 0.038-0.006 0.058-0.008 0.013-0.002 0.024-0.006 0.036-0.005l8.372 0.645c0.006 0 0.011 0.003 0.017 0.005 0.019 0.003 0.035 0.008 0.052 0.014 0.014 0.006 0.030 0.011 0.043 0.019 0.014 0.009 0.027 0.021 0.039 0.032s0.024 0.022 0.035 0.035c0.009 0.013 0.016 0.027 0.024 0.043s0.016 0.032 0.020 0.049c0.002 0.006 0.006 0.011 0.006 0.017l0.737 3.955c0.002 0.008-0.002 0.016 0 0.024 0 0.008 0.005 0.016 0.005 0.024 0 0.010-0.005 0.018-0.005 0.027-0.002 0.018-0.005 0.035-0.011 0.051l-0.002-0.003zM16.351 21.764c0-0.090 0.072-0.163 0.162-0.163h1.256c0.090 0 0.162 0.073 0.162 0.163s-0.072 0.163-0.162 0.163h-1.256c-0.090 0-0.162-0.073-0.162-0.163zM14.672 24.619l-0.594 1.034c-0.044 0.078-0.143 0.105-0.221 0.060s-0.104-0.144-0.060-0.222l0.594-1.034c0.044-0.078 0.143-0.105 0.221-0.060s0.104 0.144 0.060 0.222zM14.986 23.424l0.594-1.034c0.044-0.078 0.143-0.105 0.221-0.060s0.104 0.144 0.060 0.222l-0.594 1.034c-0.044 0.078-0.143 0.105-0.221 0.060s-0.104-0.144-0.060-0.222zM23.005 26.759c0.090 0.006 0.156 0.086 0.15 0.176s-0.085 0.157-0.175 0.151l-1.183-0.090c-0.090-0.006-0.156-0.086-0.15-0.176s0.085-0.157 0.175-0.151l1.183 0.090zM25.371 26.942c0.090 0.006 0.156 0.086 0.15 0.176s-0.085 0.157-0.175 0.151l-1.183-0.090c-0.090-0.006-0.156-0.086-0.15-0.176s0.085-0.157 0.175-0.151l1.183 0.090zM27.738 27.124c0.090 0.006 0.156 0.086 0.15 0.176s-0.085 0.157-0.175 0.151l-1.183-0.090c-0.090-0.006-0.156-0.086-0.15-0.176s0.085-0.157 0.175-0.151l1.183 0.090zM30.254 27.482c-0.006 0.090-0.085 0.157-0.175 0.151l-1.183-0.090c-0.090-0.006-0.156-0.086-0.15-0.176s0.085-0.157 0.175-0.151l1.183 0.090c0.090 0.006 0.156 0.086 0.15 0.176zM20.639 26.579c0.090 0.006 0.156 0.086 0.15 0.176s-0.085 0.157-0.175 0.151l-1.253-0.097c-0.090-0.006-0.156-0.086-0.15-0.176s0.085-0.157 0.175-0.151l1.253 0.097zM18.204 26.39c0.090 0.006 0.156 0.086 0.15 0.176s-0.085 0.157-0.175 0.151l-1.183-0.090c-0.090-0.006-0.156-0.086-0.15-0.176s0.085-0.157 0.175-0.151l1.183 0.090zM14.481 26.268c0.006-0.090 0.085-0.157 0.175-0.151l1.183 0.090c0.090 0.006 0.156 0.086 0.15 0.176s-0.085 0.157-0.175 0.151l-1.183-0.090c-0.090-0.006-0.156-0.086-0.15-0.176zM19.025 21.927c-0.090 0-0.162-0.073-0.162-0.163s0.072-0.163 0.162-0.163h1.256c0.090 0 0.162 0.073 0.162 0.163s-0.072 0.163-0.162 0.163h-1.256zM15.422 21.764c0 0.090-0.072 0.163-0.162 0.163h-1.256c-0.090 0-0.162-0.073-0.162-0.163s0.072-0.163 0.162-0.163h1.256c0.090 0 0.162 0.073 0.162 0.163zM12.207 28.594c0.077 0.046 0.104 0.146 0.060 0.224l-0.594 1.034c-0.046 0.078-0.145 0.105-0.222 0.060-0.077-0.046-0.104-0.146-0.060-0.224l0.594-1.034c0.046-0.078 0.145-0.105 0.222-0.060zM11.078 30.884l-0.594 1.034c-0.046 0.077-0.145 0.104-0.222 0.060-0.077-0.046-0.104-0.146-0.060-0.224l0.594-1.034c0.046-0.078 0.145-0.105 0.222-0.060 0.077 0.046 0.104 0.146 0.060 0.223zM13.428 26.465c0.077 0.046 0.104 0.146 0.060 0.224l-0.629 1.094c-0.046 0.078-0.145 0.105-0.222 0.060-0.077-0.046-0.104-0.146-0.060-0.224l0.629-1.094c0.046-0.078 0.145-0.105 0.222-0.060zM23.895 30.342c-0.088 0.015-0.172-0.047-0.184-0.136l-0.121-0.789c-0.014-0.089 0.047-0.173 0.135-0.185 0.088-0.014 0.172 0.048 0.184 0.136l0.121 0.79c0.014 0.089-0.047 0.173-0.135 0.185zM21.538 21.928c-0.090 0-0.162-0.073-0.162-0.163s0.072-0.163 0.162-0.163h1.33c0.090 0 0.162 0.073 0.162 0.163s-0.072 0.163-0.162 0.163h-1.33zM23.651 28.764c-0.088 0.014-0.172-0.048-0.184-0.136l-0.121-0.79c-0.014-0.089 0.047-0.173 0.135-0.185 0.088-0.014 0.172 0.048 0.184 0.136l0.121 0.79c0.014 0.089-0.047 0.173-0.135 0.185zM3.721 21.765c0-0.090 0.072-0.163 0.162-0.163h1.256c0.090 0 0.162 0.073 0.162 0.163s-0.072 0.163-0.162 0.163h-1.256c-0.090 0-0.162-0.073-0.162-0.163zM24.152 30.945l0.129 0.836c0.014 0.089-0.047 0.173-0.135 0.185-0.088 0.014-0.172-0.047-0.184-0.136l-0.129-0.835c-0.014-0.089 0.047-0.173 0.136-0.186 0.088-0.014 0.172 0.048 0.184 0.136zM26.633 21.928c-0.090 0-0.162-0.073-0.162-0.163s0.072-0.163 0.162-0.163h1.256c0.090 0 0.162 0.073 0.162 0.163s-0.072 0.163-0.162 0.163h-1.256zM24.122 21.928c-0.090 0-0.162-0.073-0.162-0.163s0.072-0.163 0.162-0.163h1.256c0.090 0 0.162 0.073 0.162 0.163s-0.072 0.163-0.162 0.163h-1.256zM10.76 17.24c0-0.45 0.312-0.851 0.855-1.178 0.504-0.303 1.219-0.55 2.067-0.709 0.142-0.027 0.277 0.067 0.303 0.209 0.027 0.143-0.066 0.279-0.208 0.304-0.788 0.149-1.445 0.373-1.895 0.644-0.381 0.23-0.6 0.48-0.6 0.729 0 0.384 0.492 0.756 1.284 1.049 0.873 0.322 2.083 0.52 3.427 0.52s2.555-0.198 3.427-0.52c0.794-0.292 1.284-0.664 1.284-1.050 0-0.25-0.222-0.504-0.61-0.734-0.458-0.273-1.123-0.498-1.919-0.645-0.142-0.025-0.235-0.162-0.208-0.304 0.025-0.143 0.161-0.236 0.302-0.209 0.857 0.159 1.582 0.406 2.091 0.709 0.548 0.328 0.865 0.732 0.865 1.184 0 0.628-0.622 1.17-1.628 1.539-0.928 0.341-2.203 0.553-3.605 0.553s-2.677-0.211-3.605-0.553c-1.005-0.371-1.627-0.913-1.627-1.539h0zM10.235 21.599c0.090 0 0.162 0.073 0.162 0.163s-0.072 0.163-0.162 0.163h-1.33c-0.090 0-0.162-0.073-0.162-0.163s0.072-0.163 0.162-0.163h1.33zM12.747 21.599c0.090 0 0.162 0.073 0.162 0.163s-0.072 0.163-0.162 0.163h-1.256c-0.090 0-0.162-0.073-0.162-0.163s0.072-0.163 0.162-0.163h1.256zM7.65 21.599c0.090 0 0.162 0.073 0.162 0.163s-0.072 0.163-0.162 0.163h-1.256c-0.090 0-0.162-0.073-0.162-0.163s0.072-0.163 0.162-0.163h1.256z"></path>
</svg>
