<!-- Generated by IcoMoon.io -->
<svg version="1.1" xmlns="http://www.w3.org/2000/svg" width="32" height="32" viewBox="0 0 32 32">
<path d="M25.218 21.62l2.292-5.321c0.339-0.841 0.757-1.231 1.225-1.036l-2.561 5.971-0.957 0.387zM6.596 21.62l-2.292-5.321c-0.338-0.841-0.757-1.231-1.225-1.036l2.561 5.971 0.956 0.387zM21.645 13.475l-0-0c0.019-0.008 0.040 0.001 0.049 0.021s0.005 0.047-0.012 0.059l-4.093 2.863c-0.052 0.037-0.076 0.104-0.068 0.174s0.048 0.126 0.105 0.15c2.794 1.15 5.53-1.258 6.286-4.205-2.524-1.288-6.176-0.525-6.955 2.758-0.017 0.068 0.002 0.137 0.047 0.185s0.106 0.062 0.163 0.036l4.476-2.042zM14.801 25.429l-0 0c-1.162-2.158-1.753-2.552-4.64-3.267l-1.877-0.656c-0.599-0.209-0.725-0.806-0.162-1.008l6.166-2.207c0.066-3.649 0.451-7.585 1.761-9.698 0.457-0.738 0.893-1.498 1.45-2.15 1.923-2.253 4.419-3.706 5.41-4.229 0.033-0.017 0.049-0.057 0.036-0.094s-0.048-0.058-0.084-0.051c-2.665 0.519-5.802 2.95-7.416 5.712-0.338 0.348-0.466-0.098-0.421-0.724 0.606-6.371 6.613-7.746 12.28-6.018 0.073 0.022 0.127 0.081 0.152 0.165 0.023 0.083 0.010 0.168-0.037 0.235-0.919 1.295-2.596 4.913-4.814 6.837-1.004 0.871-4.333 2.904-5.966 1.451-0.635 1.714-0.392 5.18 0.017 8.463l6.881 2.168c0.188 0.059 0.272 0.271 0.252 0.467s-0.16 0.378-0.327 0.484c-0.9 0.576-1.79 0.97-2.687 1.133-1.515 0.274-2.873 1.232-3.875 2.856-0.631 1.022-1.742 0.794-2.098 0.133zM7.31 12.38l0 0c-0.028-0.013-0.058 0-0.071 0.030s-0.006 0.069 0.020 0.086l5.568 3.668c0.078 0.052 0.113 0.153 0.103 0.255s-0.066 0.183-0.149 0.217c-4.046 1.603-7.465-1.776-8.646-6.095 3.678-1.357 8.215-0.608 9.438 4.203 0.025 0.1 0.001 0.2-0.064 0.269s-0.153 0.086-0.237 0.048l-5.961-2.68zM13.852 27.343c-0.041-1.564-0.904-2.724-2.040-3.395-0.742-0.438-1.678-0.514-2.452-0.865l-1.851-0.912c-0.963-0.482-1.787 0.663-1.134 1.27l1.259 1.405c0.154 0.172 0.323 0.29 0.541 0.368l2.408 0.862c0.242 0.073 0.119 0.447-0.139 0.344l-2.493-0.836c-0.222-0.075-0.502-0.271-0.66-0.444l-1.269-1.394c-0.455-0.497-0.513-1.142 0.025-1.727l-0.683-0.317-2.906-6.931c-0.66-1.479-2.592-0.865-1.981 0.738l2.384 7.886c0.368 1.218 0.931 2.249 1.97 2.985l3.364 2.383c0.299 0.212 0.536 0.515 0.503 0.88l-0.096 1.052c-0.021 0.235 0.149 0.498 0.385 0.511l4.408 0.237c0.449 0.024 0.59-0.206 0.622-0.556 0.096-1.050-0.155-3.148-0.166-3.546l-0 0zM17.962 27.343c0.041-1.564 0.904-2.724 2.040-3.395 0.742-0.438 1.678-0.514 2.452-0.865l1.851-0.912c0.962-0.482 1.787 0.663 1.134 1.27l-1.259 1.405c-0.154 0.172-0.323 0.29-0.541 0.368l-2.408 0.862c-0.242 0.073-0.119 0.447 0.138 0.344l2.493-0.836c0.222-0.075 0.502-0.271 0.66-0.444l1.269-1.394c0.455-0.497 0.513-1.142-0.025-1.727l0.683-0.317 2.906-6.931c0.659-1.479 2.591-0.865 1.981 0.738l-2.384 7.886c-0.368 1.218-0.93 2.249-1.97 2.985l-3.364 2.383c-0.299 0.212-0.536 0.515-0.502 0.88l0.095 1.052c0.021 0.235-0.149 0.498-0.385 0.511l-4.408 0.237c-0.449 0.024-0.59-0.206-0.622-0.556-0.096-1.050 0.155-3.148 0.166-3.546l0 0z"></path>
</svg>
