<?xml version="1.0" encoding="utf-8"?>
<svg version="1.1" viewBox="0 0 1200 1200" xmlns="http://www.w3.org/2000/svg" width="150pt" height="150pt">
  <path d="M 945.662 810.737 L 1031.61 611.182 C 1044.31 579.662 1059.98 565.015 1077.56 572.323 L 981.538 796.237 L 945.666 810.741 L 945.662 810.737 Z M 247.361 810.737 L 161.42 611.182 C 148.738 579.662 133.036 565.015 115.47 572.323 L 211.504 796.237 L 247.357 810.741 L 247.361 810.737 Z M 811.677 505.297 L 643.808 581.871 C 641.675 582.835 639.397 582.326 637.685 580.524 C 635.973 578.74 635.298 576.132 635.917 573.601 C 665.121 450.459 802.095 421.871 896.727 470.164 C 868.377 580.665 765.782 670.973 661.005 627.85 C 658.839 626.957 657.343 624.862 657.051 622.22 C 656.74 619.579 657.635 617.066 659.583 615.681 L 813.06 508.319 C 813.698 507.864 813.88 506.881 813.515 506.095 C 813.17 505.328 812.37 504.983 811.675 505.294 L 811.677 505.297 Z M 555.044 953.594 C 568.398 978.372 610.066 986.936 633.713 948.603 C 671.264 887.713 722.205 851.806 779.009 841.514 C 812.642 835.429 846.002 820.652 879.763 799.044 C 886.011 795.054 891.279 788.241 892.023 780.879 C 892.77 773.518 889.617 765.594 882.568 763.368 L 624.537 682.074 C 609.195 558.961 600.07 428.969 623.9 364.701 C 685.154 419.196 809.987 342.948 847.63 310.299 C 930.801 238.151 993.697 102.495 1028.17 53.92 C 1029.96 51.408 1030.45 48.234 1029.57 45.121 C 1028.65 41.986 1026.62 39.766 1023.88 38.946 C 811.391 -25.86 586.115 25.699 563.387 264.629 C 561.729 288.113 566.503 304.841 579.185 291.795 C 639.71 188.223 757.382 97.05 857.301 77.587 C 858.648 77.333 859.98 78.133 860.45 79.5 C 860.906 80.886 860.34 82.377 859.085 83.015 C 821.918 102.653 728.345 157.114 656.216 241.613 C 635.337 266.081 618.977 294.592 601.851 322.251 C 552.732 401.486 538.319 549.081 535.826 685.924 L 304.584 768.676 C 283.45 776.238 288.187 798.647 310.65 806.481 L 381.03 831.076 C 489.285 857.897 511.458 872.67 555.038 953.596 L 555.044 953.594 Z M 274.12 464.234 L 497.647 564.736 C 500.798 566.139 504.077 565.536 506.536 562.932 C 508.996 560.363 509.888 556.593 508.943 552.859 C 463.085 372.475 292.976 344.364 155.036 395.262 C 199.327 557.232 327.549 683.959 479.268 623.841 C 482.403 622.584 484.48 619.559 484.862 615.714 C 485.246 611.888 483.933 608.081 480.998 606.149 L 272.193 468.597 C 271.229 467.96 270.937 466.483 271.446 465.356 C 271.939 464.244 273.085 463.77 274.125 464.244 L 274.12 464.234 Z M 519.442 1025.37 C 517.912 966.735 485.535 923.21 442.942 898.062 C 415.119 881.627 380.013 878.803 350.988 865.613 L 281.573 831.415 C 245.479 813.339 214.546 856.283 239.05 879.039 L 286.276 931.73 C 292.068 938.198 298.391 942.608 306.551 945.539 L 396.865 977.877 C 405.937 980.61 401.31 994.654 391.654 990.79 L 298.17 959.457 C 289.862 956.652 279.352 949.292 273.43 942.805 L 225.86 890.535 C 208.806 871.88 206.62 847.721 226.809 825.785 L 201.193 813.904 L 92.228 553.989 C 67.488 498.511 -4.989 521.539 17.932 581.662 L 107.315 877.395 C 121.124 923.086 142.224 961.748 181.175 989.33 L 307.338 1078.7 C 318.542 1086.64 327.432 1098.01 326.194 1111.7 L 322.604 1151.14 C 321.803 1159.94 328.198 1169.82 337.036 1170.29 L 502.339 1179.18 C 519.172 1180.09 524.456 1171.46 525.659 1158.32 C 529.265 1118.95 519.829 1040.26 519.445 1025.36 L 519.442 1025.37 Z M 673.571 1025.37 C 675.101 966.735 707.478 923.21 750.071 898.062 C 777.894 881.627 812.999 878.803 842.025 865.613 L 911.44 831.415 C 947.534 813.339 978.467 856.283 953.963 879.039 L 906.737 931.73 C 900.945 938.198 894.622 942.608 886.461 945.539 L 796.166 977.877 C 787.076 980.61 791.721 994.654 801.359 990.79 L 894.842 959.457 C 903.169 956.652 913.68 949.292 919.582 942.805 L 967.152 890.535 C 984.206 871.88 986.393 847.721 966.223 825.785 L 991.818 813.904 L 1100.81 553.989 C 1125.53 498.511 1197.99 521.539 1175.1 581.662 L 1085.7 877.395 C 1071.89 923.086 1050.81 961.748 1011.84 989.33 L 885.675 1078.7 C 874.471 1086.64 865.581 1098.01 866.837 1111.7 L 870.408 1151.14 C 871.209 1159.94 864.814 1169.82 855.977 1170.29 L 690.674 1179.18 C 673.84 1180.09 668.556 1171.46 667.353 1158.32 C 663.747 1118.95 673.183 1040.26 673.567 1025.36 L 673.571 1025.37 Z" fill-rule="evenodd"/>
</svg>