<!-- Generated by IcoMoon.io -->
<svg version="1.1" xmlns="http://www.w3.org/2000/svg" width="32" height="32" viewBox="0 0 32 32">
<path d="M29.226 12.448c-0.102 0.212-0.313 0.368-0.514 0.384-0.010 0-0.022 0.002-0.033 0.002-0.135 0-0.258-0.064-0.34-0.178-0.165-0.236 0.003-0.647 0.253-0.81 0.193-0.125 0.424-0.092 0.582 0.086 0.123 0.139 0.143 0.326 0.052 0.517zM28.51 14.134c-0.114 0.099-0.27 0.152-0.42 0.152-0.074 0-0.145-0.011-0.211-0.035-0.232-0.081-0.372-0.28-0.357-0.516 0.012-0.246 0.187-0.456 0.436-0.52 0.253-0.063 0.503 0.031 0.64 0.244 0.144 0.225 0.11 0.505-0.087 0.673zM27.679 15.424c-0.127 0.104-0.284 0.145-0.439 0.145-0.174 0-0.345-0.053-0.472-0.137-0.238-0.155-0.312-0.398-0.192-0.629 0.093-0.185 0.317-0.332 0.566-0.372 0.223-0.038 0.431 0.015 0.573 0.143 0.117 0.107 0.182 0.254 0.176 0.416-0.003 0.169-0.080 0.328-0.212 0.433zM26.804 16.123c-0.051 0.216-0.252 0.395-0.498 0.443-0.047 0.011-0.097 0.016-0.145 0.016-0.188 0-0.382-0.070-0.516-0.199-0.144-0.133-0.223-0.329-0.209-0.523 0.018-0.248 0.15-0.437 0.359-0.517 0.229-0.089 0.518-0.028 0.754 0.149 0.21 0.161 0.31 0.407 0.256 0.63zM25.227 16.828c-0.046 0.222-0.24 0.417-0.482 0.483-0.062 0.015-0.125 0.024-0.192 0.024-0.186 0-0.374-0.068-0.504-0.19-0.104-0.096-0.172-0.222-0.199-0.365-0.054-0.287 0.093-0.62 0.345-0.773s0.556-0.073 0.83 0.217c0.167 0.178 0.243 0.403 0.201 0.605zM23.802 18.209c-0.036 0.034-0.098 0.055-0.149 0.055-0.006 0-0.014-0.002-0.022-0.002-0.155-0.019-0.35-0.043-0.514-0.143-0.155-0.092-0.262-0.244-0.3-0.416-0.049-0.235 0.083-0.606 0.329-0.736 0.156-0.082 0.339-0.063 0.495 0.053 0.18 0.139 0.25 0.383 0.275 0.564 0 0.003 0.031 0.495-0.114 0.624zM22.67 18.484c-0.052 0.183-0.255 0.348-0.484 0.392-0.066 0.011-0.132 0.018-0.195 0.018-0.145 0-0.283-0.029-0.403-0.088-0.198-0.098-0.339-0.27-0.37-0.462-0.030-0.189 0.052-0.37 0.213-0.458 0.291-0.16 0.903 0.035 1.097 0.194 0.134 0.11 0.186 0.258 0.141 0.405zM19.362 16.307c-0.714 0.275-1.132 0.489-1.165 0.445-0.033-0.040 0.34-0.337 1.034-0.681 0.693-0.352 1.709-0.715 2.8-1.126 1.093-0.413 2.021-0.881 2.618-1.312 0.604-0.425 0.904-0.769 0.956-0.734 0.041 0.024-0.181 0.434-0.765 0.932-0.579 0.507-1.534 1.034-2.645 1.455s-2.128 0.737-2.834 1.021zM21.061 21.090c-0.071 0.088-0.182 0.137-0.31 0.14h-0.006c-0.167 0-0.325-0.072-0.433-0.197-0.115-0.132-0.157-0.304-0.113-0.458 0.033-0.114 0.105-0.214 0.21-0.274 0.12-0.073 0.277-0.089 0.405-0.043 0.123 0.044 0.22 0.14 0.268 0.269 0.023 0.059 0.13 0.365-0.021 0.563zM19.913 19.229c-0.085-0.084-0.127-0.19-0.115-0.305 0.011-0.198 0.171-0.416 0.475-0.651 0.052-0.043 0.132-0.051 0.197-0.022 0.233 0.098 0.425 0.27 0.539 0.478 0.081 0.146 0.1 0.281 0.054 0.402-0.059 0.154-0.201 0.257-0.399 0.295-0.051 0.009-0.104 0.014-0.156 0.014-0.226 0-0.463-0.080-0.594-0.211zM19.237 21.171c-0.052 0.013-0.103 0.021-0.154 0.021-0.134 0-0.265-0.049-0.369-0.141-0.165-0.153-0.234-0.4-0.168-0.597 0.057-0.161 0.196-0.273 0.382-0.308 0.335-0.056 0.591 0.181 0.661 0.434 0.074 0.273-0.071 0.515-0.352 0.59zM18.889 22.571c-0.104 0.167-0.284 0.26-0.503 0.26h-0.028c-0.343-0.014-0.595-0.249-0.612-0.575-0.016-0.279 0.166-0.586 0.543-0.632 0.22-0.028 0.424 0.053 0.554 0.224 0.16 0.206 0.178 0.511 0.046 0.723zM17.663 19.644c-0.145 0-0.295-0.058-0.412-0.164-0.138-0.121-0.209-0.286-0.192-0.441 0.018-0.135 0.099-0.237 0.228-0.296 0.19-0.081 0.451-0.030 0.607 0.059 0.192 0.113 0.294 0.303 0.261 0.481-0.035 0.184-0.217 0.334-0.433 0.358-0.019 0-0.038 0.003-0.059 0.003zM17.493 22.063c-0.232 0.593-0.689 1.011-1.062 1.222-0.378 0.216-0.655 0.252-0.673 0.209-0.024-0.053 0.201-0.171 0.494-0.419 0.296-0.238 0.654-0.629 0.853-1.135 0.198-0.507 0.191-1.010 0.132-1.365s-0.149-0.576-0.096-0.603c0.044-0.025 0.237 0.161 0.378 0.542 0.143 0.373 0.207 0.959-0.026 1.549zM25.713 8.036c0.044-0.027 0.239 0.15 0.454 0.495 0.217 0.345 0.433 0.872 0.507 1.476 0.075 0.607-0.009 1.161-0.137 1.542-0.123 0.381-0.271 0.59-0.32 0.573-0.117-0.033 0.197-0.945 0.047-2.074-0.13-1.129-0.658-1.955-0.551-2.012zM15.351 21.743c-0.133 0.145-0.367 0.242-0.605 0.242-0.134 0-0.272-0.031-0.388-0.104-0.251-0.152-0.263-0.34-0.248-0.439 0.030-0.204 0.228-0.391 0.49-0.474 0.254-0.078 0.509-0.035 0.683 0.117 0.224 0.201 0.251 0.458 0.068 0.658zM11.64 21.299c-0.387 0.447-1.019 0.724-1.651 0.724h-0.012c-0.296-0.002-0.592-0.061-0.859-0.174-0.65-0.27-1.118-0.86-1.187-1.503-0.069-0.622 0.241-1.261 0.79-1.644 0.064-0.057 0.133-0.108 0.208-0.152 0.035-0.023 0.075-0.031 0.117-0.034 0.229-0.105 0.48-0.171 0.736-0.193-0.57-0.029-1.094 0.106-1.457 0.241-0.416 0.156-0.656 0.305-0.694 0.262-0.039-0.036 0.141-0.262 0.559-0.495 0.415-0.23 1.096-0.454 1.869-0.359 0.384 0.047 0.742 0.173 1.017 0.359 0.274 0.183 0.46 0.41 0.569 0.613 0.027 0.050 0.050 0.099 0.069 0.147 0.135 0.173 0.238 0.365 0.298 0.577 0.16 0.552 0.018 1.177-0.371 1.629zM10.544 22.494c-0.462 0.121-1.194 0.13-1.873-0.203-0.676-0.336-1.057-0.897-1.192-1.313-0.14-0.425-0.081-0.701-0.033-0.701 0.065-0.004 0.113 0.25 0.305 0.604 0.185 0.349 0.552 0.802 1.119 1.085 0.57 0.279 1.189 0.317 1.618 0.27 0.436-0.045 0.7-0.142 0.728-0.092 0.029 0.037-0.2 0.228-0.673 0.349zM3.676 21.101c-0.24-0.154-0.271-0.392-0.168-0.433 0.102-0.047 0.255 0.038 0.408 0.133 0.151 0.098 0.286 0.2 0.273 0.303-0.011 0.102-0.27 0.151-0.513-0.002zM30.222 7.97c-0.156-0.225-0.421-0.417-0.709-0.595 0.157 0.378 0.238 0.732 0.285 1.007 0.069 0.403 0.069 0.656 0.015 0.668-0.057 0.011-0.159-0.228-0.3-0.608-0.139-0.379-0.312-0.905-0.628-1.418-0.010-0.016-0.020-0.030-0.030-0.044-0.042-0.025-0.083-0.048-0.121-0.075-1.179-0.753-2.445-1.535-3.851-2.091-1.172-0.467-2.063-0.707-2.974-0.804-0.204-0.022-0.406-0.038-0.61-0.051l-0.457-0.038c-0.048 0.006-0.099 0.006-0.153-0.005-0.024-0.006-0.052-0.014-0.078-0.020-0.143-0.016-0.285-0.035-0.427-0.059-0.036-0.002-0.071-0.007-0.108-0.008-1.348-0.388-5.533 0.236-6.729 0.754-0.117 0.029-0.234 0.059-0.347 0.090-1.471 0.739-3.151 1.152-4.839 1.19-0.012 0-0.024 0.002-0.036 0.002-0.546 0.047-1.32 0.025-2.132-0.175-0.406-0.101-0.787-0.223-1.115-0.387-0.33-0.161-0.597-0.369-0.769-0.578-0.174-0.207-0.253-0.409-0.286-0.55-0.058-0.242 0.407-0.937 0.568-0.943 0.128-0.121 0.373-0.226 0.671-0.278 0.591-0.097 1.391-0.176 2.286-0.21 1.054-0.037 1.985 0.010 2.573 0.072 1.337 0.041 3.717 0.845 5.002 1.173 0.886-0.357 2.918-0.41 3.717-0.58 0.22-0.046-8.486-2.992-11.881-2.673-1.142 0.108-2.044 0.293-2.833 0.581-0.94 0.341-1.889 0.733-2.292 1.414-0.531 0.897-0.71 1.94-0.504 2.938 0.134 0.651 0.438 1.285 0.879 1.832 0.228 0.283 0.475 0.529 0.737 0.737 0.26 0.206 0.669 0.343 0.994 0.453 0.882 0.293 1.906 0.455 3.215 0.509 2.532 0.099 5.136-0.236 7.534-0.97 0.12-0.083 0.245-0.179 0.362-0.292 0.163-0.142 0.295-0.292 0.406-0.431 0.030-0.111 0.072-0.222 0.125-0.327 0.142-0.286 0.365-0.548 0.638-0.762 0.555-0.433 1.255-0.608 1.856-0.62 0.327-0.009 0.631 0.022 0.907 0.075 0.022-0.005 0.040-0.008 0.062-0.011 0.222-0.043 0.478-0.094 0.766-0.102 0.579-0.017 1.080 0.161 1.381 0.348 0.307 0.186 0.431 0.364 0.395 0.4-0.040 0.043-0.226-0.059-0.53-0.17-0.303-0.109-0.733-0.217-1.214-0.206 0.307 0.128 0.541 0.267 0.696 0.381 0.191 0.141 0.275 0.243 0.251 0.27-0.050 0.067-0.498-0.198-1.286-0.387-0.394-0.091-0.876-0.158-1.396-0.121-0.519 0.038-1.069 0.193-1.505 0.534-0.218 0.17-0.393 0.372-0.507 0.586-0.056 0.108-0.097 0.214-0.13 0.33-0.032 0.117-0.058 0.246-0.096 0.381-0.039 0.135-0.092 0.275-0.175 0.406-0.084 0.125-0.182 0.224-0.27 0.31-0.162 0.152-0.292 0.268-0.394 0.392-0.045 0.139-0.063 0.319-0.053 0.551l0.005 0.062c0.018 0.415 0.039 0.884-0.273 1.274-0.055 0.071-2.052 1.621-1.642 1.658 0.43 0.038 0.744-0.457 1.87-0.764 0.284-0.077-1.497 2.8-1.218 2.734 0.599-0.143 1.389-1.893 2.26-2.397 0.266-0.154-0.293 2.321-0.040 2.196 0.464-0.229 0.485-1.261 0.992-1.998 0.216-0.315 0.624 2.328 0.887 2.106 0.222-0.187-0.093-1.373 0.031-2.197 0.042-0.281 0.843 1.403 1.076 1.464 0.344 0.090-0.271-2.403-0.389-2.811-0.443-0.651-0.568-1.298-0.368-1.923 0.025-0.075 0.079-0.139 0.152-0.181-0.071-0.046-0.134-0.095-0.192-0.143-0.316-0.28-0.374-0.53-0.328-0.548 0.054-0.027 0.198 0.159 0.514 0.343 0.309 0.189 0.805 0.364 1.379 0.379 0.582 0.016 1.114-0.090 1.507-0.158 0.394-0.072 0.646-0.104 0.664-0.055s-0.2 0.167-0.582 0.307c-0.040 0.013-0.081 0.028-0.122 0.042 0.046 0.038 0.086 0.083 0.106 0.14 0.138 0.376 0.591 0.646 1.024 0.616 0.038-0.001 0.075 0 0.11 0.010 0.054-0.129 0.112-0.242 0.176-0.332 0.159-0.235 0.308-0.347 0.353-0.32 0.080 0.047-0.113 0.415-0.228 0.938 0.278 0.622 0.454 1.562 0.075 2.322-0.342 0.693-1.082 1.281-1.637 1.653-0.803 0.532-1.71 0.908-2.583 1.275l-0.561 0.235c-0.979 0.42-2.086 0.928-2.82 1.683-0.013 0.011-0.025 0.021-0.037 0.029 0.129 0.054 0.252 0.13 0.365 0.22 0.349 0.289 0.509 0.634 0.595 0.875 0.083 0.244 0.097 0.4 0.046 0.422-0.054 0.020-0.164-0.107-0.31-0.313-0.147-0.203-0.333-0.484-0.61-0.709-0.143-0.12-0.297-0.203-0.447-0.254-0.029 0.041-0.058 0.083-0.098 0.125-0.008 0.010-0.017 0.013-0.024 0.022 0.037 0.025 0.074 0.045 0.108 0.070 0.464 0.332 0.809 0.709 1.004 1.006 0.199 0.298 0.265 0.506 0.22 0.53-0.106 0.055-0.613-0.633-1.479-1.246-0.198-0.142-0.397-0.266-0.583-0.376-2.339-0.656-4.935-0.7-7.012-0.11-0.037 0.011-0.074 0.013-0.108 0.016-0.090 0.049-0.177 0.105-0.251 0.162-0.132 0.103-0.25 0.211-0.359 0.3-0.219 0.178-0.399 0.25-0.435 0.211-0.034-0.043-0.144 0.279-0.149 0.327 0 0.054-0.238 0.078-0.575 0.19-0.169 0.059-0.363 0.14-0.553 0.258-0.196 0.114-0.365 0.273-0.573 0.469-0.102 0.095-0.213 0.192-0.337 0.273-0.121 0.081-0.243 0.144-0.355 0.2l-0.432 0.207c-0.164 0.224-0.222 0.404-0.198 0.593 0.061 0.457 0.367 0.893 0.802 1.133 0.237 0.135 0.516 0.218 0.812 0.307l0.186 0.056c0.213 0.036 0.438 0.059 0.681 0.068 0.557 0.022 1.182-0.022 1.857-0.014 0.681 0.010 1.316 0.105 1.88 0.186 0.567 0.083 1.071 0.157 1.495 0.198 0.848 0.086 1.38 0.018 1.39 0.075 0.014 0.041-0.518 0.206-1.407 0.186-0.441-0.006-0.963-0.054-1.534-0.121-0.567-0.063-1.185-0.143-1.831-0.151-0.37-0.005-0.738 0.002-1.093 0.005 0.351 0.1 0.705 0.195 1.061 0.272 0.967 0.212 1.985 0.299 2.973 0.382l0.724 0.067c0.331 0.029 0.661 0.072 0.985 0.114 0.152-0.004 0.314-0.006 0.487-0.006l1.016-0.003c0.353-0.008 0.679-0.041 0.96-0.116 0.279-0.073 0.514-0.186 0.691-0.302 0.356-0.238 0.472-0.487 0.53-0.467 0.026 0.007 0.032 0.082-0.010 0.205-0.043 0.121-0.146 0.293-0.33 0.458-0.18 0.167-0.441 0.326-0.764 0.43-0.255 0.084-0.542 0.132-0.838 0.153 0.103 0.039 0.207 0.083 0.307 0.125 0.139 0.059 0.276 0.119 0.418 0.169 0.311 0.115 0.629 0.142 0.967 0.17 0.184 0.016 0.375 0.036 0.573 0.065 0.106-0.022 0.21-0.049 0.321-0.083 0.824-0.238 1.319-0.729 1.415-0.663 0.042 0.029-0.027 0.198-0.24 0.413-0.125 0.128-0.304 0.267-0.529 0.386 0.343-0.021 0.661-0.072 0.913-0.129l0.285-0.069c0.274-0.070 0.56-0.141 0.868-0.16 0.151-0.008 0.262-0.013 0.361-0.007-0.035-0.117-0.057-0.228-0.063-0.328-0.021-0.313 0.059-0.497 0.113-0.494 0.058 0.005 0.086 0.186 0.176 0.45 0.049 0.154 0.132 0.338 0.251 0.528 0.031 0.021 0.066 0.038 0.105 0.062l0.1 0.059c0.439 0.259 0.853 0.506 1.335 0.645 0.549 0.158 1.127 0.429 1.772 0.831 0.691 0.573 1.768 1.567 1.872 2.76 0.087 0.99-0.896 1.763-0.69 2.137 0.047 0.085 1.415-1.349 1.526-1.33 0.106 0.018-0.466 1.756-0.361 1.761 0.1 0.004 1.022-1.678 1.11-1.686 0.114-0.010 0.375 1.585 0.453 1.553 0.094-0.039 0.081-0.845 0.044-1.395-0.006-0.099 0.882 1.286 0.949 1.247 0.261-0.156-0.243-1.046-0.778-1.897-0.058-0.092 1.808 1.495 1.91 1.464 0.317-0.096-1.582-1.667-2.076-1.973-0.46-0.285-0.719-0.869-0.794-1.048l-0.356-0.854c-0.232-0.55-0.431-1.005-0.691-1.445-0.21-0.357-0.493-0.837-0.838-1.031-0.057-0.033-0.141-0.054-0.239-0.079l-0.17-0.048c-0.216-0.066-0.412-0.156-0.601-0.245-0.061-0.029-0.122-0.059-0.186-0.085-0.471-0.213-1.001-0.45-1.442-0.823l-0.218-0.067c-0.665-0.186-1.249-0.17-1.269-0.276-0.010-0.048 0.135-0.119 0.392-0.154 0.125-0.018 0.278-0.024 0.446-0.013-0.418-0.205-0.768-0.307-0.759-0.395 0.009-0.048 0.154-0.083 0.391-0.061 0.165 0.016 0.376 0.065 0.597 0.156 0.012-0.075 0.033-0.151 0.075-0.237 0.148-0.305 0.427-0.517 0.709-0.707l0.508-0.338c-0.093-0.091-0.166-0.199-0.206-0.318-0.062-0.178-0.034-0.351 0.071-0.475 0.098-0.117 0.266-0.184 0.461-0.187 0.196 0 0.412 0.065 0.562 0.187 0.045 0.035 0.084 0.077 0.118 0.119l2.375-1.585c0.288-0.193 0.535-0.426 0.793-0.673 0.166-0.16 0.337-0.327 0.529-0.483 0.526-0.44 1.028-0.914 1.488-1.416 0.858-0.934 1.582-1.957 2.154-3.043 0.098-0.182 0.187-0.367 0.273-0.548l0.111-0.409 0.099-0.345v-0.105c0.002-0.2 0.012-0.398 0.023-0.594 0.024-0.521 0.045-1.014-0.057-1.524-0.104-0.527-0.312-0.996-0.652-1.477z"></path>
<path d="M10.006 18.512c0.882 0 1.597 0.717 1.597 1.599s-0.715 1.599-1.597 1.599c-0.881 0-1.596-0.716-1.596-1.599s0.715-1.599 1.596-1.599zM10.006 18.846c-0.162 0-0.294 0.567-0.294 1.266s0.132 1.265 0.294 1.265c0.163 0 0.294-0.567 0.294-1.265s-0.132-1.266-0.294-1.266z"></path>
</svg>
