<?xml version="1.0" encoding="UTF-8"?>
<svg version="1.1" xmlns="http://www.w3.org/2000/svg" width="500" height="500">
<path d="M0 0 C3.10726653 1.25978484 6.26520504 2.37644995 9.41748047 3.51782227 C11.79229874 4.38279635 14.15806023 5.2689525 16.52294922 6.16064453 C20.32177195 7.5821825 24.15361459 8.87328725 28.00854492 10.13354492 C29.55237592 10.65839814 31.07017571 11.26007591 32.57373047 11.89111328 C40.25401372 14.80218838 52.1241806 17.86682785 59.99560547 14.80908203 C63.22716241 12.7126606 66.08409919 10.32048702 68.99560547 7.80908203 C72.21909169 6.19733892 75.500419 6.35914198 78.99560547 6.80908203 C83.85532523 9.05202961 85.96890097 11.77318441 88.15966797 16.46142578 C89.09786652 19.09627312 89.54235373 21.68714341 90.05810547 24.43408203 C90.93383073 27.9034854 91.47449966 29.39870022 94.31201172 31.63330078 C97.16279668 33.14393927 100.05330232 34.48683244 102.99560547 35.80908203 C120.34844412 45.38407789 128.85809429 60.46572133 136.06591797 78.22314453 C139.0256794 85.35198406 141.84070416 91.10533887 147.24560547 96.68408203 C151.99560547 101.61255024 151.99560547 101.61255024 151.99560547 103.80908203 C152.70072266 104.07462891 153.40583984 104.34017578 154.13232422 104.61376953 C157.15128333 105.8740717 159.94745623 107.34866197 162.80810547 108.93408203 C163.78392578 109.47291016 164.75974609 110.01173828 165.76513672 110.56689453 C166.50119141 110.97681641 167.23724609 111.38673828 167.99560547 111.80908203 C167.83123672 121.34246925 163.99613117 130.17467021 157.77685547 137.37939453 C151.9081598 142.82602647 146.06775055 146.04755891 137.99560547 146.80908203 C137.23505859 146.88513672 136.47451172 146.96119141 135.69091797 147.03955078 C128.62603593 147.40980664 122.46261078 146.0650036 115.68310547 144.30908203 C103.08060565 141.1019823 92.27550712 141.2171518 79.52832031 143.65942383 C55.94485702 148.08895345 32.67290325 145.12419714 9.99560547 137.80908203 C9.20943848 137.56109863 8.42327148 137.31311523 7.61328125 137.05761719 C-0.51255118 134.44805216 -8.60024419 131.81946595 -14.00439453 124.80908203 C-16.51812354 119.86830433 -17.43042415 114.94552866 -18.57861328 109.53173828 C-18.84633545 108.27240479 -19.11405762 107.01307129 -19.38989258 105.71557617 C-19.59267822 104.75643311 -19.79546387 103.79729004 -20.00439453 102.80908203 C-20.07432617 103.92017334 -20.14425781 105.03126465 -20.21630859 106.17602539 C-22.9998527 149.76493989 -22.9998527 149.76493989 -27.00439453 168.80908203 C-27.262771 170.05286621 -27.262771 170.05286621 -27.52636719 171.32177734 C-30.52031752 185.09450177 -36.36773539 196.60141305 -44.69189453 207.93408203 C-52.3757282 218.62385989 -55.57018059 231.07887417 -58.00439453 243.80908203 C-58.17374512 244.67686279 -58.3430957 245.54464355 -58.51757812 246.4387207 C-59.92818514 254.19051048 -60.56184757 261.9286701 -61.00976562 269.78198242 C-61.12947072 271.87291291 -61.25954253 273.96300857 -61.39111328 276.05322266 C-63.35905627 296.53329048 -63.35905627 296.53329048 -55.20751953 314.48486328 C-51.8385831 318.03897175 -48.14362646 321.20501349 -44.47314453 324.44189453 C-41.40665203 327.38223386 -39.69829197 329.93731647 -38.00439453 333.80908203 C-38.00439453 334.46908203 -38.00439453 335.12908203 -38.00439453 335.80908203 C-48.80455985 336.79709763 -59.61660322 337.25744044 -70.4543457 337.58642578 C-72.45894143 337.65195151 -74.46322066 337.72793204 -76.46704102 337.81396484 C-79.39458944 337.93863249 -82.32152657 338.02971312 -85.25048828 338.11376953 C-86.14118515 338.15831268 -87.03188202 338.20285583 -87.9495697 338.24874878 C-92.2325904 338.33645604 -95.08798686 338.2176984 -98.515625 335.49047852 C-101.38579027 332.39816685 -102.45052123 330.01688926 -103.69189453 325.99658203 C-104.25457031 324.25441406 -104.25457031 324.25441406 -104.82861328 322.47705078 C-107.86846414 311.27558907 -109.45684728 299.62499415 -110.81689453 288.12158203 C-110.89510437 287.4698703 -110.97331421 286.81815857 -111.05389404 286.146698 C-112.89267829 270.74750009 -114.40573269 255.3118998 -115.93090439 239.87911606 C-116.12600125 237.90590177 -116.32185925 235.93276279 -116.51773071 233.95962524 C-117.37961399 225.24573434 -118.21157277 216.52953462 -119.00439453 207.80908203 C-119.11356201 206.60912598 -119.22272949 205.40916992 -119.33520508 204.17285156 C-119.64579461 200.68921865 -119.94130487 197.20466865 -120.23095703 193.71923828 C-120.32160431 192.70080338 -120.41225159 191.68236847 -120.50564575 190.6330719 C-121.57268428 177.22306972 -120.38585304 163.81257693 -117.00439453 150.80908203 C-116.74951425 148.98163848 -116.53262444 147.14784098 -116.37939453 145.30908203 C-116.30462891 144.45314453 -116.22986328 143.59720703 -116.15283203 142.71533203 C-116.07935547 141.77173828 -116.07935547 141.77173828 -116.00439453 140.80908203 C-119.77061908 145.6905169 -122.2042741 150.07280857 -124.06689453 155.93408203 C-124.31584473 156.7054248 -124.56479492 157.47676758 -124.82128906 158.27148438 C-129.33973436 172.85228304 -132.00666844 187.52440492 -131.00439453 202.80908203 C-130.92189453 204.08783203 -130.83939453 205.36658203 -130.75439453 206.68408203 C-129.4353517 220.53403179 -124.88957615 233.6443061 -119.66845703 246.48486328 C-118.85695882 249.32510702 -118.89414554 251.87052238 -119.00439453 254.80908203 C-119.63941895 255.09630127 -120.27444336 255.38352051 -120.92871094 255.67944336 C-123.82948833 256.99227923 -126.72944676 258.30691466 -129.62939453 259.62158203 C-130.62841797 260.07339844 -131.62744141 260.52521484 -132.65673828 260.99072266 C-133.62998047 261.43222656 -134.60322266 261.87373047 -135.60595703 262.32861328 C-136.49621582 262.73184814 -137.38647461 263.13508301 -138.30371094 263.55053711 C-139.19493652 263.96585693 -140.08616211 264.38117676 -141.00439453 264.80908203 C-142.58522827 265.44390503 -142.58522827 265.44390503 -144.19799805 266.09155273 C-147.77960601 268.2835155 -148.19854518 269.77103851 -149.30517578 273.77001953 C-149.64226562 274.96498047 -149.97935547 276.15994141 -150.32666016 277.39111328 C-150.6534375 278.64279297 -150.98021484 279.89447266 -151.31689453 281.18408203 C-151.66300781 282.39708984 -152.00912109 283.61009766 -152.36572266 284.85986328 C-154.79732172 293.7425468 -157.34731908 303.43738383 -155.06689453 312.55908203 C-152.71445036 316.26596376 -149.98727084 319.31906263 -147.01220703 322.53564453 C-143.06388983 327.00630719 -140.00439453 330.74486453 -140.00439453 336.80908203 C-147.27128206 336.87852493 -154.53809831 336.93186392 -161.80525017 336.96451855 C-165.1795306 336.98018947 -168.5535844 337.00145296 -171.92773438 337.03540039 C-175.80491201 337.07165563 -179.68176625 337.08877931 -183.55908203 337.10205078 C-184.7736911 337.11753464 -185.98830017 337.13301849 -187.23971558 337.14897156 C-188.36072662 337.14919815 -189.48173767 337.14942474 -190.63671875 337.1496582 C-191.62711151 337.15632004 -192.61750427 337.16298187 -193.63790894 337.16984558 C-194.41884918 337.05079361 -195.19978943 336.93174164 -196.00439453 336.80908203 C-198.03126465 333.76877685 -198.4998761 332.09715268 -199.15283203 328.57470703 C-199.45108887 327.01079224 -199.45108887 327.01079224 -199.75537109 325.4152832 C-199.96129883 324.30773682 -200.16722656 323.20019043 -200.37939453 322.05908203 C-202.21593283 312.50484052 -204.33570171 303.16258873 -207.00439453 293.80908203 C-208.24284908 289.25982565 -209.37197118 284.37967216 -207.06298828 280.03955078 C-206.65177734 279.44787109 -206.24056641 278.85619141 -205.81689453 278.24658203 C-196.97674521 265.06213076 -195.94956349 249.20830466 -198.00439453 233.80908203 C-199.95764709 224.92786833 -202.85919666 216.33185725 -206.00439453 207.80908203 C-205.9939209 208.77096436 -205.98344727 209.73284668 -205.97265625 210.72387695 C-205.93594548 214.35632476 -205.91331204 217.98875687 -205.89453125 221.62133789 C-205.88458825 223.18158746 -205.87102906 224.74181899 -205.85351562 226.30200195 C-205.5847036 250.89830217 -212.1982641 270.67698017 -223.98339844 292.04956055 C-226.83347114 297.26207731 -229.28391238 302.24036629 -229.31689453 308.30908203 C-229.34203125 309.37642578 -229.34203125 309.37642578 -229.36767578 310.46533203 C-228.29706297 317.37251149 -223.19759236 322.54957405 -218.96533203 327.80908203 C-217.00439453 330.80908203 -217.00439453 330.80908203 -216.00439453 336.80908203 C-234.15439453 336.80908203 -252.30439453 336.80908203 -271.00439453 336.80908203 C-272.05750434 332.59664278 -272.36241149 328.56105594 -272.61767578 324.25048828 C-272.72922938 322.50020133 -272.84148141 320.74995878 -272.9543457 318.99975586 C-273.01286713 318.08207428 -273.07138855 317.1643927 -273.13168335 316.21890259 C-275.0658731 286.48388227 -279.50631846 257.80666846 -285.77355957 228.69476318 C-286.61920706 224.74574895 -287.37523905 220.79841985 -288.00439453 216.80908203 C-288.15674535 219.78802676 -288.30214401 222.76702921 -288.44189453 225.74658203 C-288.48846191 226.73279541 -288.5350293 227.71900879 -288.58300781 228.73510742 C-288.89169396 235.79146352 -289.0728671 242.84105137 -289.18798828 249.90283203 C-289.22047625 251.70499937 -289.25311104 253.50716407 -289.28588867 255.30932617 C-289.33458041 258.0021266 -289.37883746 260.69457469 -289.40768433 263.38766479 C-289.57575057 278.92804402 -289.82627891 295.52830643 -299.00439453 308.80908203 C-302.45317575 312.08368238 -305.51073596 313.40079531 -310.00439453 314.80908203 C-310.01841309 313.71128418 -310.01841309 313.71128418 -310.03271484 312.59130859 C-310.34519301 292.88067629 -312.26699204 273.92763537 -315.5703125 254.47680664 C-316.68111358 247.72331445 -317.33135639 241.21526758 -317.25439453 234.37158203 C-317.24690186 233.46762695 -317.23940918 232.56367188 -317.23168945 231.63232422 C-316.72881655 200.08898902 -302.66032066 172.56806206 -284.00439453 147.80908203 C-282.93318359 146.33568359 -282.93318359 146.33568359 -281.84033203 144.83251953 C-264.6149483 121.61569798 -244.0942542 104.26432926 -218.00439453 91.80908203 C-216.90740234 91.28185547 -215.81041016 90.75462891 -214.68017578 90.21142578 C-205.16902771 85.72546813 -195.37634319 82.0597747 -185.52891541 78.39251709 C-182.40140554 77.22767402 -179.27538483 76.05885876 -176.14941406 74.88989258 C-174.56077813 74.29735243 -172.97126528 73.7071577 -171.38085938 73.11938477 C-162.68155101 69.90137714 -154.10897035 66.53360335 -145.70751953 62.59423828 C-145.01938171 62.27198776 -144.3312439 61.94973724 -143.62225342 61.61772156 C-137.32960436 58.60240058 -131.67154482 54.87205751 -126.00439453 50.80908203 C-124.62906523 49.84415235 -123.2526909 48.88071111 -121.87548828 47.91845703 C-117.56956759 44.90369134 -113.28423865 41.86071243 -109.00439453 38.80908203 C-108.00150391 38.09623047 -106.99861328 37.38337891 -105.96533203 36.64892578 C-100.99516804 33.07891124 -96.1662256 29.36817454 -91.37939453 25.55908203 C-64.5318915 4.25450633 -35.14511838 -14.43210977 0 0 Z " fill="#010101" transform="translate(332.00439453125,123.19091796875)"/>
<path d="M0 0 C0.33 0.66 0.66 1.32 1 2 C0.63648438 2.51046875 0.27296875 3.0209375 -0.1015625 3.546875 C-3.09438534 7.87495726 -5.63169306 12.17355422 -7.875 16.9375 C-14.40875726 30.38229185 -25.64655602 42.11773334 -39.8125 47.375 C-45.21524294 49.21049613 -50.22178141 50.11199724 -55.9296875 50.24609375 C-57.05503906 50.27896484 -58.18039062 50.31183594 -59.33984375 50.34570312 C-61.6887089 50.40669576 -64.03767249 50.46401255 -66.38671875 50.51757812 C-72.26396422 50.6955747 -77.45004588 51.00169291 -83 53 C-80.26700837 56.14888167 -76.8190358 58.06941609 -73.25 60.125 C-72.65445312 60.48464844 -72.05890625 60.84429687 -71.4453125 61.21484375 C-67.33206938 63.59197776 -63.83787247 64.78346389 -59 65 C-56.68617133 64.41019335 -56.68617133 64.41019335 -54.6875 63.25 C-42.55119554 57.40509083 -28.91378758 55.44951121 -15.8125 59.5625 C-9.86962162 61.87823054 -4.0889112 64.63887788 1.65234375 67.4140625 C4.40769655 68.71939883 7.15471225 69.90939635 10 71 C9.02709901 78.40193589 3.83325033 83.59789646 -1.6953125 88.28515625 C-12.99777989 96.7069112 -25.53693491 102.60456497 -40 101 C-50.24232457 99.28407809 -58.32724895 95.98287935 -64.94140625 87.7734375 C-66.53561865 85.10269053 -66.49081961 83.01503477 -66 80 C-65.67 79.34 -65.34 78.68 -65 78 C-65.82177734 77.814375 -65.82177734 77.814375 -66.66015625 77.625 C-75.15852378 75.41404259 -82.37471407 71.22006825 -90 67 C-99.73397141 61.81292586 -109.51965851 56.89743025 -120.6875 56.75 C-121.84636719 56.72421875 -123.00523437 56.6984375 -124.19921875 56.671875 C-132.42071624 57.38164457 -139.6559116 61.06716965 -147 64.625 C-147.91281738 65.06158936 -148.82563477 65.49817871 -149.76611328 65.94799805 C-154.84183791 68.39659548 -159.83365218 70.95519216 -164.77539062 73.66308594 C-183.88871352 84.12651898 -203.40911104 87.56926859 -225 87.3125 C-226.6497383 87.30378949 -228.29947794 87.29533067 -229.94921875 87.28710938 C-242.31456233 87.18870784 -254.63295924 86.60743479 -266.96484375 85.7121582 C-278.82948616 84.85123698 -290.51687237 84.39887588 -302.3125 86.1875 C-303.20420898 86.3205957 -304.09591797 86.45369141 -305.01464844 86.59082031 C-323.81017334 89.586043 -342.3341424 96.10534008 -358 107 C-358.72960937 107.45761719 -359.45921875 107.91523437 -360.2109375 108.38671875 C-367.35676937 112.88833486 -373.67765738 118.43061436 -380 124 C-380.74048584 124.65145996 -381.48097168 125.30291992 -382.24389648 125.97412109 C-388.26837472 131.33146512 -394.06933583 136.88304745 -399.76928711 142.58398438 C-401.19172803 144.00422148 -402.62203084 145.4162176 -404.05273438 146.828125 C-408.89526235 151.66052922 -413.40978252 156.50641045 -417.45825195 162.02734375 C-419.15452011 164.19770744 -421.05048234 166.05716132 -423 168 C-424.30384778 169.92290156 -425.54958665 171.88588531 -426.75 173.875 C-427.08999023 174.43727295 -427.42998047 174.9995459 -427.78027344 175.57885742 C-435.44952107 188.33452756 -442.44660458 200.87662222 -447.4375 214.9375 C-447.83364502 216.05141113 -448.22979004 217.16532227 -448.63793945 218.31298828 C-453.82264178 233.03009818 -457.72762339 247.63461781 -460.94604492 262.91357422 C-461.18427979 264.03135254 -461.42251465 265.14913086 -461.66796875 266.30078125 C-461.98157349 267.80378784 -461.98157349 267.80378784 -462.30151367 269.3371582 C-462.94640782 271.79569037 -463.76642773 273.78811128 -465 276 C-468 275 -468 275 -469.0625 273.09375 C-474.50558497 258.03454826 -475.58073521 242.87028845 -475.5 227 C-475.49890228 226.10702209 -475.49780457 225.21404419 -475.49667358 224.29400635 C-475.44422656 209.37274543 -474.158687 195.40667566 -470 181 C-469.78118164 180.23606934 -469.56236328 179.47213867 -469.33691406 178.68505859 C-468.06715676 174.38392484 -466.60047893 170.19122075 -465 166 C-464.70738281 165.16597656 -464.41476562 164.33195313 -464.11328125 163.47265625 C-457.17640073 144.60810787 -445.57175911 127.42689374 -432.30957031 112.47705078 C-431.05800739 111.06542593 -429.82157691 109.64042773 -428.5859375 108.21484375 C-424.03391424 103.02929148 -419.3000155 98.40728239 -414 94 C-413.12859375 93.24074219 -412.2571875 92.48148437 -411.359375 91.69921875 C-405.87346181 86.98338696 -400.26241043 82.65259967 -394.25 78.625 C-393.34785767 78.01821411 -393.34785767 78.01821411 -392.42749023 77.39916992 C-388.67518586 74.93676824 -384.83871602 72.86779357 -380.80371094 70.90673828 C-378.59461407 69.79620962 -376.56201554 68.48685355 -374.5 67.125 C-367.76287423 63.02907514 -360.41252802 60.56715476 -353 58 C-352.34241699 57.76893555 -351.68483398 57.53787109 -351.00732422 57.29980469 C-331.63806933 50.51498426 -313.44822929 47.61216104 -293 47.6875 C-292.07880371 47.68799347 -291.15760742 47.68848694 -290.20849609 47.68899536 C-274.9438129 47.71392363 -260.10275063 48.77689398 -244.95166016 50.65820312 C-237.98726137 51.46466783 -231.0036798 51.77363229 -224 52 C-223.32759277 52.02723145 -222.65518555 52.05446289 -221.96240234 52.08251953 C-198.88453152 52.95889437 -178.32574857 45.36191871 -157.48510742 36.21655273 C-133.66548283 25.8097017 -133.66548283 25.8097017 -124.67578125 29.28515625 C-123.56589844 29.87167969 -122.45601563 30.45820312 -121.3125 31.0625 C-120.71526123 31.37396973 -120.11802246 31.68543945 -119.50268555 32.00634766 C-114.38106675 34.70835202 -109.38298303 37.62542567 -104.42578125 40.6171875 C-100.18701322 43.03349005 -95.8101699 43.91822858 -91 43 C-86.08128285 40.85944717 -84.54428335 38.56533678 -82.47265625 33.640625 C-81.65068125 31.51752049 -80.84783424 29.38692906 -80.0625 27.25 C-75.491785 14.87066646 -70.1673573 6.74380834 -58 1 C-41.95729245 -6.37964547 -16.58111609 -5.98457501 0 0 Z " fill="#010101" transform="translate(475,3)"/>
<path d="M0 0 C9.11811586 0.52106667 17.9816493 1.88388186 26.94946289 3.52905273 C29.22038107 3.94350088 31.49373695 4.34217235 33.76757812 4.74023438 C35.21371181 5.00166472 36.65968233 5.26399968 38.10546875 5.52734375 C39.12401192 5.70401833 39.12401192 5.70401833 40.16313171 5.88426208 C41.7893521 6.18955451 43.39786777 6.5865166 45 7 C46.33595562 9.67191123 45.74270976 10.79870798 45.03125 13.6796875 C44.79317627 14.65752197 44.55510254 15.63535645 44.30981445 16.64282227 C44.04257568 17.70944092 43.77533691 18.77605957 43.5 19.875 C43.22953857 20.979646 42.95907715 22.08429199 42.68041992 23.22241211 C41.19610509 29.26336607 39.67425946 35.29462725 38.14453125 41.32421875 C28.14344738 80.7906051 21.91685053 125.05807525 42.44140625 162.6953125 C44.81731392 166.20855942 47.59510652 168.53020305 51 171 C56.25622225 175.20103317 60.15484393 178.83549518 63 185 C63 185.99 63 186.98 63 188 C44.19 188 25.38 188 6 188 C3.03 181.73 0.06 175.46 -3 169 C-5.43910428 165.64449401 -5.43910428 165.64449401 -8.05078125 162.42578125 C-12.44364694 156.95890832 -16.03372524 150.8585006 -19.77539062 144.93554688 C-20.78375276 143.3417879 -21.80429818 141.75574384 -22.828125 140.171875 C-31.7160874 126.04469265 -38.02199488 109.04637741 -38.25 92.25 C-38.28867187 90.55617188 -38.28867187 90.55617188 -38.328125 88.828125 C-37.46030602 78.70357019 -33.09712305 71.27333557 -27.625 62.875 C-26.965 61.84246094 -26.305 60.80992187 -25.625 59.74609375 C-23.27309449 56.06831322 -20.90761707 52.39946944 -18.53222656 48.73681641 C-15.8240859 44.50034957 -13.50607929 40.23601479 -11.5 35.625 C-11.20448242 34.94945068 -10.90896484 34.27390137 -10.60449219 33.57788086 C-7.50589766 26.23340614 -5.51612478 18.63585069 -3.52001953 10.93505859 C-2.52360261 7.22726494 -1.27365438 3.61985981 0 0 Z " fill="#010101" transform="translate(325,272)"/>
<path d="M0 0 C1.74841362 -0.01451001 1.74841362 -0.01451001 3.53214872 -0.02931315 C5.44666882 -0.02234444 5.44666882 -0.02234444 7.3998661 -0.01523495 C8.77275678 -0.02084046 10.14564266 -0.02774305 11.51852095 -0.03583091 C15.29048894 -0.05418984 19.06225751 -0.05378366 22.83425999 -0.05024779 C26.90254165 -0.04963589 30.97075918 -0.06619079 35.039011 -0.08042049 C43.00903498 -0.10534403 50.9789924 -0.11358517 58.94905208 -0.11525763 C65.42676252 -0.11668285 71.90445098 -0.12284575 78.38215446 -0.1323595 C96.74456219 -0.1587797 115.10691731 -0.17261745 133.46934418 -0.17036808 C134.95434935 -0.17018828 134.95434935 -0.17018828 136.46935463 -0.17000484 C137.95617119 -0.16982088 137.95617119 -0.16982088 139.47302444 -0.1696332 C155.54061973 -0.16841359 171.60800418 -0.19712771 187.67553847 -0.23941994 C204.17053663 -0.28249505 220.66543192 -0.30323143 237.16048777 -0.30063862 C246.42248349 -0.29964218 255.68425814 -0.30790624 264.94620323 -0.34017277 C272.83134248 -0.36746665 280.71616046 -0.37403139 288.60132645 -0.3536445 C292.62463276 -0.34383779 296.64732244 -0.34371619 300.67057037 -0.36970425 C304.35469051 -0.39325705 308.0377037 -0.38905269 311.72179635 -0.36285185 C313.68383837 -0.35605295 315.64591431 -0.37876863 317.60782373 -0.40257078 C324.15539558 -0.32541761 328.30242127 0.07357981 333.04767859 4.80651051 C335.69416166 8.42212633 335.49566253 12.07989312 335.20372963 16.38590336 C333.74616103 19.99512083 332.30223846 22.98571419 329.20372963 25.38590336 C326.67603362 25.76540285 326.67603362 25.76540285 323.58549881 25.77180672 C322.40870485 25.78148006 321.23191089 25.79115339 320.01945651 25.80111986 C318.72035605 25.79647406 317.4212556 25.79182825 316.08278847 25.78704166 C314.69369937 25.7926436 313.30461501 25.79954475 311.91553819 25.80763763 C308.08958496 25.82604099 304.26382789 25.82558516 300.43784046 25.82205451 C296.31502859 25.82144372 292.19228044 25.83798688 288.06949806 25.85222721 C279.98891193 25.87717547 271.90839143 25.88539302 263.82777001 25.88706435 C257.26132188 25.88848847 250.69489547 25.89464589 244.12845421 25.90416622 C225.52274888 25.93059377 206.91709552 25.94442311 188.31137128 25.9421748 C187.3077636 25.94205493 186.30415592 25.94193506 185.27013588 25.94181156 C184.26530676 25.94168892 183.26047764 25.94156628 182.22519915 25.94143992 C165.93626492 25.94022027 149.64753865 25.96893336 133.35866459 26.01122666 C116.64451718 26.05428269 99.93047128 26.07503917 83.21626699 26.07244533 C73.82799208 26.07144819 64.43993518 26.07974264 55.05171013 26.11197948 C47.05886901 26.13924841 39.06634469 26.14585881 31.07347728 26.12545121 C26.99372835 26.11563161 22.91458776 26.11556909 18.83489609 26.14151096 C15.10146043 26.16500733 11.36911874 26.16091761 7.63571088 26.13465857 C5.64227148 26.12783563 3.64879906 26.15061942 1.65548956 26.1743775 C-6.80187475 26.07566334 -6.80187475 26.07566334 -9.69194531 24.07097328 C-13.43093173 19.7114166 -14.09069823 16.14879842 -14.01111412 10.63980961 C-13.71300652 7.51238982 -12.82877064 5.76883471 -10.79627037 3.38590336 C-7.08260467 0.73192204 -4.53989356 0.00953794 0 0 Z " fill="#010101" transform="translate(81.7962703704834,474.6140966415405)"/>
<path d="M0 0 C0.64155029 0.24057129 1.28310059 0.48114258 1.9440918 0.72900391 C4.74968519 1.87964461 6.43480439 2.67197042 8.10546875 5.25390625 C8.39357422 6.14916016 8.39357422 6.14916016 8.6875 7.0625 C8.21441406 7.64515625 7.74132812 8.2278125 7.25390625 8.828125 C3.51845733 13.45920787 -0.11399095 18.13362841 -3.625 22.9375 C-17.71347358 41.73824175 -35.48606222 56.16348978 -59.3125 60.0625 C-65.0518599 60.56036455 -70.81290399 60.31993406 -76.5625 60.125 C-93.9013926 59.33989804 -93.9013926 59.33989804 -109.375 66.3125 C-110.19097656 66.92351562 -111.00695312 67.53453125 -111.84765625 68.1640625 C-112.66105469 68.79054688 -113.47445312 69.41703125 -114.3125 70.0625 C-131.26633011 82.53245329 -131.26633011 82.53245329 -139.3125 82.0625 C-138.99865824 76.06961683 -137.23682465 73.1351403 -132.9375 69.1875 C-132.40165283 68.67429199 -131.86580566 68.16108398 -131.3137207 67.63232422 C-125.63044233 62.26223165 -119.62463233 57.17221081 -113.28125 52.59765625 C-107.54819966 48.26015106 -105.23845574 42.49095449 -102.3125 36.0625 C-94.66915334 19.37243811 -85.028527 6.12455887 -67.3125 -0.9375 C-45.25002726 -8.45269753 -21.86322121 -8.28440646 0 0 Z " fill="#010101" transform="translate(207.3125,118.9375)"/>
<path d="M0 0 C2.7421875 0.1015625 2.7421875 0.1015625 6 1 C7.72097131 3.17418084 8.88515434 4.9510748 10.125 7.375 C10.464104 8.0055127 10.80320801 8.63602539 11.15258789 9.28564453 C17.74852129 21.84313447 19.4315579 32.24118344 18 46.25 C17.78550821 48.37959705 17.57692361 50.50979953 17.375 52.640625 C17.27960938 53.57422852 17.18421875 54.50783203 17.0859375 55.46972656 C17.00365303 57.89244305 17.27721735 59.70084997 18 62 C19.26623815 59.4675237 19.30473002 57.07437426 19.54394531 54.28637695 C20.25981735 46.34308124 21.35260875 39.70271639 26 33 C26.38542969 32.443125 26.77085937 31.88625 27.16796875 31.3125 C31.86680693 25.76064197 39.44105162 22.84221096 46 20 C46.66 20 47.32 20 48 20 C49.17540912 50.47022093 49.17540912 50.47022093 41.28125 62.65234375 C38.40851936 65.6086984 35.45932333 67.1048542 31.75 68.8125 C30.77546875 69.27946289 30.77546875 69.27946289 29.78125 69.75585938 C28.19278029 70.51505446 26.59708737 71.25910519 25 72 C25.14622803 72.73524902 25.29245605 73.47049805 25.44311523 74.22802734 C26.11275181 77.60941314 26.77516721 80.99217631 27.4375 84.375 C27.66759766 85.53128906 27.89769531 86.68757813 28.13476562 87.87890625 C29.31788495 93.94882276 30.31533797 99.92603371 30.77368164 106.09619141 C30.9010923 108.08427101 30.9010923 108.08427101 32 110 C32.30292969 109.05898438 32.60585938 108.11796875 32.91796875 107.1484375 C36.37035649 96.88687885 39.34928126 90.9833357 49.03125 85.45703125 C55.00872237 82.52335073 62.27492631 79 69 79 C68.60374334 90.74900986 67.22953251 105.76213961 59.23828125 115.046875 C54.6226996 119.12880928 51.07178072 121.10579229 45 122 C38.38280666 122.87240768 38.38280666 122.87240768 32.5625 125.8125 C30.91162801 128.0105545 30.91162801 128.0105545 29.625 130.6875 C28 133 28 133 24.8125 133.8125 C23.884375 133.874375 22.95625 133.93625 22 134 C22 130.04 22 126.08 22 122 C20.205625 122.061875 18.41125 122.12375 16.5625 122.1875 C7.72583432 122.14596456 1.27280484 120.30743318 -5.21875 114.125 C-11.73898416 106.34647504 -13.66982996 95.64612288 -16 86 C-4.04064188 86.51884417 7.16896958 90.2422639 15.8203125 98.80078125 C18.3989202 101.70950057 20.34388743 104.47209508 22 108 C21.74711581 96.89608529 20.00429398 83.00858797 15 73 C12.47780014 72.29295222 9.99215412 71.68586801 7.4375 71.125 C-8.02872838 67.46199083 -8.02872838 67.46199083 -12.91015625 60.7890625 C-18.55634503 51.52040852 -19.12434322 41.57701213 -20 31 C-13.59761071 31.35522455 -8.63791523 32.66349729 -2.9375 35.5625 C-2.26267578 35.89185547 -1.58785156 36.22121094 -0.89257812 36.56054688 C0.74427662 37.3615609 2.37306305 38.17902918 4 39 C3.72285156 38.40832031 3.44570313 37.81664062 3.16015625 37.20703125 C2.79792969 36.41683594 2.43570312 35.62664062 2.0625 34.8125 C1.70285156 34.03519531 1.34320313 33.25789063 0.97265625 32.45703125 C-1.01752976 27.42961358 -1.16025974 22.6044431 -1.125 17.25 C-1.12306641 16.54423828 -1.12113281 15.83847656 -1.11914062 15.11132812 C-1.07690506 10.00082524 -0.72211808 5.05482657 0 0 Z " fill="#010101" transform="translate(414,337)"/>
</svg>
