<!-- Generated by IcoMoon.io -->
<svg version="1.1" xmlns="http://www.w3.org/2000/svg" width="32" height="32" viewBox="0 0 32 32">
<path d="M21.248 7.884c0.199 0.081 0.401 0.152 0.603 0.225 0.152 0.055 0.303 0.112 0.455 0.169 0.243 0.091 0.488 0.174 0.735 0.254 0.099 0.034 0.196 0.072 0.292 0.113 0.492 0.186 1.251 0.382 1.755 0.187 0.207-0.134 0.39-0.287 0.576-0.448 0.206-0.103 0.416-0.093 0.64-0.064 0.311 0.144 0.446 0.318 0.587 0.618 0.060 0.169 0.088 0.334 0.122 0.51 0.056 0.222 0.091 0.318 0.272 0.461 0.182 0.097 0.367 0.183 0.556 0.267 1.111 0.613 1.655 1.578 2.116 2.715 0.189 0.456 0.37 0.824 0.715 1.181 0.304 0.315 0.304 0.315 0.304 0.456 0.045 0.017 0.090 0.034 0.137 0.052 0.193 0.081 0.372 0.175 0.555 0.277 0.062 0.034 0.125 0.069 0.189 0.104 0.047 0.026 0.094 0.052 0.143 0.079-0.011 0.61-0.256 1.175-0.654 1.637-0.376 0.349-0.749 0.555-1.266 0.604-0.049 0.005-0.097 0.010-0.148 0.015-0.452 0.024-0.847-0.062-1.28-0.175-0.807-0.205-1.498-0.198-2.314-0.042-1.509 0.284-2.999 0.094-4.45-0.374-0.050-0.016-0.101-0.032-0.152-0.048-0.52-0.167-1.038-0.335-1.384-0.784-0.161-0.316-0.219-0.631-0.293-0.978-0.017-0.081-0.034-0.161-0.052-0.244-0.013-0.061-0.026-0.123-0.039-0.186-0.004 0.071-0.009 0.142-0.014 0.216-0.178 2.79-0.178 2.79-0.434 4.008-0.017 0.080-0.017 0.080-0.033 0.161-0.192 0.881-0.566 1.618-1.099 2.343-0.492 0.684-0.696 1.481-0.852 2.296-0.011 0.056-0.022 0.111-0.033 0.168-0.090 0.496-0.131 0.991-0.16 1.494-0.008 0.134-0.016 0.268-0.024 0.401-0.126 1.311-0.126 1.311 0.396 2.46 0.216 0.227 0.452 0.43 0.687 0.637 0.196 0.188 0.306 0.352 0.414 0.599 0 0.042 0 0.084 0 0.128-0.691 0.063-1.383 0.093-2.077 0.114-0.128 0.004-0.257 0.009-0.385 0.015-0.187 0.008-0.375 0.014-0.562 0.019-0.057 0.003-0.114 0.006-0.173 0.009-0.274 0.006-0.457-0.002-0.676-0.177-0.184-0.198-0.252-0.35-0.331-0.608-0.036-0.111-0.036-0.111-0.073-0.225-0.195-0.717-0.296-1.463-0.383-2.199-0.005-0.042-0.010-0.083-0.015-0.126-0.118-0.986-0.215-1.973-0.312-2.961-0.012-0.126-0.025-0.253-0.038-0.379-0.055-0.558-0.108-1.116-0.159-1.674-0.007-0.077-0.014-0.154-0.021-0.233-0.020-0.223-0.039-0.446-0.057-0.669-0.006-0.065-0.012-0.13-0.018-0.198-0.068-0.858 0.008-1.716 0.224-2.549 0.016-0.117 0.030-0.234 0.040-0.352 0.005-0.055 0.010-0.11 0.014-0.166 0.005-0.060 0.005-0.060 0.009-0.122-0.241 0.312-0.397 0.593-0.516 0.968-0.016 0.049-0.032 0.099-0.048 0.15-0.289 0.933-0.46 1.872-0.396 2.85 0.005 0.082 0.011 0.164 0.016 0.248 0.084 0.886 0.375 1.725 0.71 2.547 0.052 0.182 0.050 0.345 0.043 0.533-0.041 0.018-0.081 0.037-0.123 0.056-0.186 0.084-0.371 0.168-0.557 0.252-0.064 0.029-0.128 0.058-0.194 0.088-0.062 0.028-0.125 0.056-0.189 0.086-0.057 0.026-0.114 0.052-0.173 0.078-0.057 0.027-0.114 0.053-0.173 0.081-0.101 0.041-0.101 0.041-0.204 0.082-0.229 0.14-0.256 0.235-0.327 0.491-0.022 0.076-0.043 0.153-0.065 0.232-0.021 0.080-0.042 0.16-0.063 0.243-0.022 0.078-0.044 0.155-0.067 0.235-0.156 0.569-0.319 1.189-0.173 1.773 0.151 0.237 0.325 0.433 0.515 0.639 0.253 0.286 0.448 0.525 0.448 0.913-0.465 0.004-0.93 0.008-1.395 0.010-0.216 0.001-0.432 0.002-0.648 0.005-0.248 0.002-0.496 0.003-0.744 0.004-0.078 0.001-0.155 0.002-0.236 0.003-0.072 0-0.143 0-0.217 0-0.063 0-0.127 0.001-0.192 0.001-0.050-0.008-0.1-0.015-0.151-0.023-0.13-0.195-0.16-0.302-0.201-0.527-0.019-0.1-0.019-0.1-0.039-0.202-0.013-0.071-0.026-0.142-0.040-0.215-0.118-0.611-0.253-1.209-0.424-1.808-0.079-0.291-0.152-0.603-0.004-0.881 0.026-0.038 0.053-0.076 0.080-0.115 0.566-0.844 0.631-1.858 0.5-2.844-0.125-0.568-0.311-1.119-0.512-1.664 0.001 0.062 0.001 0.123 0.002 0.187 0.002 0.232 0.004 0.465 0.005 0.697 0.001 0.1 0.002 0.2 0.003 0.3 0.017 1.574-0.406 2.84-1.16 4.208-0.182 0.334-0.339 0.652-0.341 1.041-0.002 0.068-0.002 0.068-0.003 0.138 0.069 0.442 0.395 0.773 0.666 1.11 0.125 0.192 0.125 0.192 0.189 0.576-1.162 0-2.323 0-3.52 0-0.067-0.27-0.087-0.528-0.103-0.804-0.007-0.112-0.014-0.224-0.022-0.336-0.004-0.059-0.007-0.117-0.011-0.178-0.124-1.903-0.408-3.738-0.809-5.602-0.054-0.253-0.103-0.505-0.143-0.761-0.010 0.191-0.019 0.381-0.028 0.572-0.003 0.063-0.006 0.126-0.009 0.191-0.020 0.452-0.031 0.903-0.039 1.355-0.002 0.115-0.004 0.231-0.006 0.346-0.003 0.172-0.006 0.345-0.008 0.517-0.011 0.995-0.027 2.057-0.614 2.907-0.221 0.21-0.416 0.294-0.704 0.384-0.001-0.070-0.001-0.070-0.002-0.142-0.020-1.261-0.143-2.474-0.354-3.719-0.071-0.432-0.113-0.849-0.108-1.287 0-0.058 0.001-0.116 0.001-0.175 0.032-2.019 0.933-3.78 2.127-5.365 0.069-0.094 0.069-0.094 0.139-0.191 1.102-1.486 2.416-2.596 4.085-3.393 0.070-0.034 0.14-0.068 0.213-0.102 0.609-0.287 1.235-0.522 1.866-0.756 0.2-0.075 0.4-0.149 0.6-0.224 0.102-0.038 0.203-0.076 0.305-0.113 0.557-0.206 1.105-0.421 1.643-0.674 0.044-0.021 0.088-0.041 0.133-0.063 0.403-0.193 0.765-0.432 1.128-0.692 0.088-0.062 0.176-0.123 0.264-0.185 0.276-0.193 0.55-0.388 0.824-0.583 0.064-0.046 0.128-0.091 0.194-0.138 0.318-0.228 0.627-0.466 0.934-0.71 1.718-1.364 3.599-2.559 5.848-1.636z"></path>
<path d="M30.4 0.192c0.021 0.042 0.042 0.084 0.064 0.128-0.023 0.033-0.047 0.065-0.070 0.099-0.192 0.277-0.354 0.552-0.497 0.857-0.418 0.86-1.137 1.612-2.044 1.948-0.346 0.117-0.666 0.175-1.032 0.184-0.072 0.002-0.144 0.004-0.218 0.006-0.15 0.004-0.301 0.008-0.451 0.011-0.376 0.011-0.708 0.031-1.063 0.159 0.175 0.202 0.396 0.324 0.624 0.456 0.038 0.023 0.076 0.046 0.116 0.070 0.263 0.152 0.487 0.228 0.796 0.242 0.148-0.038 0.148-0.038 0.276-0.112 0.777-0.374 1.65-0.499 2.488-0.236 0.38 0.148 0.75 0.325 1.118 0.503 0.176 0.084 0.352 0.16 0.534 0.229-0.062 0.474-0.395 0.806-0.748 1.106-0.723 0.539-1.526 0.916-2.451 0.814-0.655-0.11-1.173-0.321-1.596-0.846-0.102-0.171-0.099-0.305-0.068-0.497 0.021-0.042 0.042-0.084 0.064-0.128-0.053-0.012-0.053-0.012-0.106-0.024-0.544-0.141-1.006-0.41-1.494-0.68-0.623-0.332-1.249-0.647-1.964-0.656-0.074-0.002-0.148-0.003-0.225-0.005-0.526 0.045-0.989 0.281-1.459 0.509-0.058 0.028-0.117 0.056-0.177 0.085-0.325 0.157-0.644 0.32-0.961 0.494-1.223 0.67-2.473 0.89-3.854 0.874-0.106-0.001-0.211-0.001-0.317-0.002-0.791-0.006-1.58-0.043-2.369-0.101-0.759-0.055-1.507-0.084-2.262 0.030-0.057 0.009-0.114 0.017-0.173 0.026-1.203 0.192-2.388 0.609-3.391 1.306-0.047 0.029-0.093 0.059-0.141 0.089-0.457 0.288-0.862 0.643-1.266 0.999-0.047 0.042-0.095 0.083-0.144 0.126-0.386 0.343-0.757 0.698-1.122 1.063-0.091 0.091-0.183 0.181-0.274 0.272-0.31 0.309-0.599 0.619-0.858 0.973-0.109 0.139-0.23 0.258-0.355 0.382-0.083 0.123-0.163 0.249-0.24 0.376-0.022 0.036-0.044 0.072-0.066 0.109-0.491 0.816-0.939 1.619-1.258 2.519-0.025 0.071-0.051 0.143-0.077 0.216-0.332 0.942-0.582 1.877-0.788 2.854-0.015 0.072-0.030 0.143-0.046 0.217-0.020 0.096-0.020 0.096-0.041 0.194-0.041 0.157-0.094 0.285-0.173 0.426-0.192-0.064-0.192-0.064-0.26-0.186-0.348-0.964-0.417-1.934-0.412-2.95 0-0.057 0-0.114 0-0.173 0.003-0.955 0.086-1.849 0.352-2.771 0.014-0.049 0.028-0.098 0.042-0.148 0.081-0.275 0.175-0.544 0.278-0.812 0.019-0.053 0.037-0.107 0.057-0.162 0.444-1.207 1.187-2.307 2.035-3.264 0.080-0.090 0.159-0.182 0.238-0.273 0.291-0.332 0.594-0.628 0.933-0.91 0.056-0.049 0.112-0.097 0.169-0.147 0.351-0.302 0.71-0.579 1.095-0.837 0.058-0.039 0.058-0.039 0.117-0.078 0.24-0.158 0.486-0.29 0.744-0.415 0.141-0.071 0.271-0.155 0.403-0.242 0.431-0.262 0.902-0.42 1.376-0.584 0.042-0.015 0.084-0.030 0.128-0.045 1.24-0.434 2.404-0.62 3.712-0.615 0.059 0 0.118 0 0.179 0 0.977 0.002 1.927 0.070 2.896 0.19 0.446 0.052 0.893 0.071 1.341 0.086 0.043 0.002 0.086 0.003 0.13 0.005 1.477 0.056 2.793-0.43 4.127-1.015 1.524-0.666 1.524-0.666 2.1-0.444 0.071 0.038 0.142 0.075 0.215 0.114 0.038 0.020 0.076 0.040 0.116 0.060 0.328 0.173 0.648 0.36 0.965 0.551 0.271 0.155 0.551 0.211 0.859 0.152 0.315-0.137 0.413-0.284 0.546-0.599 0.053-0.136 0.104-0.272 0.154-0.409 0.293-0.792 0.633-1.312 1.412-1.68 1.027-0.472 2.651-0.447 3.712-0.064z"></path>
<path d="M20.8 17.408c0.584 0.033 1.151 0.121 1.725 0.226 0.145 0.027 0.291 0.052 0.436 0.078 0.093 0.017 0.185 0.034 0.278 0.050 0.065 0.011 0.065 0.011 0.132 0.023 0.104 0.020 0.207 0.045 0.31 0.071 0.085 0.171 0.048 0.243 0.002 0.427-0.015 0.063-0.030 0.125-0.046 0.19-0.017 0.068-0.034 0.137-0.052 0.207s-0.035 0.141-0.052 0.214c-0.095 0.387-0.192 0.773-0.29 1.159-0.64 2.526-1.039 5.359 0.275 7.768 0.152 0.225 0.33 0.373 0.548 0.532 0.336 0.269 0.586 0.501 0.768 0.896 0 0.063 0 0.127 0 0.192-1.204 0-2.408 0-3.648 0-0.19-0.401-0.38-0.803-0.576-1.216-0.156-0.215-0.156-0.215-0.323-0.421-0.281-0.35-0.511-0.74-0.75-1.119-0.065-0.102-0.13-0.203-0.195-0.305-0.569-0.904-0.972-1.992-0.987-3.067-0.002-0.108-0.002-0.108-0.005-0.219 0.056-0.648 0.335-1.123 0.685-1.661 0.042-0.066 0.084-0.132 0.128-0.2 0.151-0.235 0.302-0.47 0.454-0.705 0.173-0.271 0.322-0.544 0.45-0.839 0.019-0.043 0.038-0.086 0.057-0.131 0.198-0.47 0.326-0.956 0.453-1.449 0.064-0.237 0.144-0.468 0.225-0.7z"></path>
<path d="M5.235 30.375c0.112-0.001 0.112-0.001 0.226-0.002 0.123 0 0.123 0 0.248 0.001 0.088-0 0.176-0.001 0.264-0.001 0.241-0.001 0.483-0.001 0.724-0.001 0.26 0 0.521-0.001 0.781-0.002 0.51-0.002 1.020-0.002 1.53-0.002 0.415-0 0.829-0 1.244-0.001 1.175-0.002 2.35-0.003 3.526-0.002 0.095 0 0.095 0 0.192 0 0.095 0 0.095 0 0.192 0 1.028 0 2.057-0.002 3.085-0.004 1.056-0.003 2.111-0.004 3.167-0.004 0.593 0 1.186-0 1.778-0.003 0.505-0.002 1.009-0.002 1.514-0.001 0.258 0.001 0.515 0.001 0.772-0.001 0.236-0.002 0.471-0.001 0.707 0 0.126 0 0.251-0.001 0.377-0.003 0.419 0.005 0.684 0.030 0.988 0.333 0.169 0.231 0.157 0.465 0.138 0.741-0.093 0.231-0.186 0.422-0.384 0.576-0.162 0.024-0.162 0.024-0.36 0.025-0.075 0.001-0.151 0.001-0.228 0.002-0.083-0-0.166-0.001-0.252-0.001-0.089 0-0.178 0.001-0.267 0.001-0.245 0.001-0.49 0.001-0.735 0.001-0.264-0-0.528 0.001-0.792 0.002-0.517 0.002-1.034 0.002-1.551 0.002-0.42 0-0.84 0.001-1.261 0.001-1.191 0.002-2.382 0.003-3.572 0.002-0.064 0-0.128 0-0.195-0-0.064 0-0.129-0-0.195-0-1.043-0-2.085 0.002-3.127 0.004-1.070 0.003-2.139 0.004-3.209 0.004-0.601-0-1.202 0-1.803 0.003-0.512 0.002-1.023 0.002-1.535 0.001-0.261-0.001-0.522-0.001-0.783 0.001-0.239 0.002-0.478 0.001-0.717-0-0.128-0-0.255 0.001-0.383 0.003-0.541-0.006-0.541-0.006-0.726-0.135-0.239-0.279-0.282-0.507-0.276-0.86 0.019-0.2 0.076-0.312 0.206-0.464 0.238-0.17 0.4-0.216 0.691-0.217z"></path>
<path d="M13.268 7.612c0.041 0.015 0.082 0.031 0.124 0.047 0.18 0.074 0.287 0.124 0.394 0.29 0.018 0.057 0.018 0.057 0.037 0.116-0.030 0.037-0.061 0.075-0.092 0.113-0.239 0.296-0.472 0.596-0.696 0.903-0.902 1.203-2.039 2.126-3.564 2.376-0.367 0.032-0.736 0.016-1.104 0.004-1.11-0.050-1.11-0.050-2.1 0.396-0.052 0.039-0.104 0.078-0.158 0.118-0.052 0.040-0.104 0.080-0.158 0.121-1.085 0.798-1.085 0.798-1.6 0.768 0.020-0.384 0.133-0.571 0.408-0.824 0.034-0.033 0.069-0.066 0.104-0.1 0.364-0.344 0.748-0.669 1.154-0.962 0.367-0.278 0.515-0.647 0.702-1.058 0.489-1.068 1.106-1.916 2.24-2.368 1.412-0.481 2.909-0.47 4.308 0.060z"></path>
<path d="M26.496 21.568c0.175 0.006 0.175 0.006 0.384 0.064 0.11 0.139 0.185 0.253 0.264 0.408 0.022 0.040 0.043 0.081 0.066 0.122 0.422 0.804 0.53 1.469 0.438 2.366-0.014 0.136-0.027 0.273-0.040 0.409-0.006 0.060-0.012 0.119-0.018 0.181-0.005 0.155 0.012 0.271 0.058 0.418 0.081-0.162 0.084-0.315 0.099-0.494 0.046-0.508 0.116-0.933 0.413-1.362 0.025-0.036 0.049-0.071 0.075-0.108 0.301-0.355 0.785-0.542 1.205-0.724 0.042 0 0.084 0 0.128 0 0.075 1.95 0.075 1.95-0.43 2.73-0.184 0.189-0.373 0.285-0.61 0.394-0.062 0.030-0.062 0.030-0.126 0.060-0.102 0.049-0.204 0.096-0.306 0.144 0.009 0.047 0.019 0.094 0.028 0.143 0.043 0.216 0.085 0.433 0.128 0.649 0.015 0.074 0.029 0.148 0.045 0.224 0.076 0.388 0.14 0.771 0.169 1.166 0.008 0.127 0.008 0.127 0.078 0.25 0.019-0.060 0.039-0.12 0.059-0.183 0.221-0.657 0.412-1.035 1.031-1.388 0.383-0.188 0.848-0.413 1.278-0.413-0.025 0.752-0.113 1.713-0.625 2.307-0.295 0.261-0.523 0.388-0.911 0.445-0.424 0.056-0.424 0.056-0.796 0.244-0.106 0.141-0.106 0.141-0.188 0.312-0.104 0.148-0.104 0.148-0.308 0.2-0.059 0.004-0.119 0.008-0.18 0.012 0-0.253 0-0.507 0-0.768-0.115 0.004-0.23 0.008-0.348 0.012-0.566-0.003-0.979-0.12-1.394-0.516-0.417-0.498-0.541-1.183-0.69-1.8 0.765 0.033 1.483 0.271 2.037 0.819 0.165 0.186 0.29 0.363 0.395 0.589-0.016-0.711-0.128-1.599-0.448-2.24-0.161-0.045-0.32-0.084-0.484-0.12-0.99-0.234-0.99-0.234-1.302-0.662-0.361-0.593-0.398-1.23-0.454-1.907 0.41 0.023 0.727 0.106 1.092 0.292 0.043 0.021 0.086 0.042 0.131 0.064 0.105 0.051 0.209 0.104 0.313 0.156-0.018-0.038-0.035-0.076-0.054-0.115-0.023-0.051-0.046-0.101-0.070-0.153-0.023-0.050-0.046-0.099-0.070-0.151-0.127-0.322-0.137-0.631-0.134-0.973 0-0.045 0-0.090 0-0.137 0.003-0.327 0.025-0.644 0.072-0.967z"></path>
</svg>
