<?xml version="1.0" encoding="utf-8"?>
<svg version="1.1" viewBox="0 0 1200 1200" xmlns="http://www.w3.org/2000/svg" width="150pt" height="150pt">
  <path d="M 108.841 188.12 C 108.876 186.756 108.937 185.399 109.027 184.049 C 109.117 182.7 109.235 181.358 109.384 180.026 C 110.938 166.161 115.519 153.213 122.452 141.857 C 129.384 130.502 138.669 120.739 149.63 113.245 L 149.63 120.714 C 149.63 123.382 150.711 125.799 152.459 127.549 C 154.207 129.299 156.622 130.382 159.29 130.382 C 161.962 130.382 164.379 129.299 166.128 127.549 C 167.877 125.799 168.958 123.382 168.958 120.714 L 168.958 103.132 C 172.712 101.694 176.58 100.488 180.547 99.535 C 184.514 98.581 188.579 97.88 192.728 97.452 L 192.728 120.71 C 192.728 123.378 193.807 125.795 195.555 127.545 C 197.303 129.295 199.72 130.378 202.396 130.378 C 205.066 130.378 207.479 129.295 209.225 127.545 C 210.97 125.795 212.048 123.378 212.048 120.71 L 212.048 97.452 C 216.198 97.878 220.265 98.578 224.232 99.531 C 228.2 100.484 232.069 101.69 235.825 103.128 L 235.825 120.714 C 235.825 123.382 236.908 125.799 238.658 127.549 C 240.408 129.299 242.825 130.382 245.493 130.382 C 248.161 130.382 250.576 129.299 252.324 127.549 C 254.072 125.799 255.153 123.382 255.153 120.714 L 255.153 113.237 C 266.118 120.731 275.405 130.496 282.338 141.853 C 289.271 153.211 293.851 166.161 295.403 180.026 C 295.552 181.358 295.67 182.7 295.76 184.05 C 295.85 185.399 295.911 186.757 295.946 188.12 L 297.63 188.12 C 301.005 188.12 304.059 189.488 306.269 191.699 C 308.479 193.91 309.845 196.964 309.845 200.335 C 309.845 203.708 308.479 206.761 306.269 208.97 C 304.059 211.18 301.005 212.546 297.63 212.546 L 107.16 212.546 C 103.789 212.546 100.737 211.181 98.528 208.972 C 96.319 206.763 94.953 203.71 94.953 200.335 C 94.953 196.962 96.319 193.908 98.528 191.698 C 100.737 189.487 103.789 188.12 107.16 188.12 Z M 217.255 323.53 C 214.835 323.928 212.387 324.235 209.911 324.442 C 207.435 324.649 204.932 324.757 202.403 324.757 C 199.874 324.757 197.37 324.648 194.894 324.441 C 192.417 324.233 189.969 323.926 187.551 323.53 C 165.94 319.983 146.888 308.832 133.239 292.915 C 119.59 276.997 111.344 256.313 111.344 233.698 C 111.344 231.481 111.427 229.285 111.586 227.109 C 111.746 224.934 111.981 222.78 112.286 220.647 L 292.516 220.647 C 292.82 222.78 293.056 224.933 293.215 227.108 C 293.374 229.283 293.457 231.479 293.457 233.698 C 293.457 256.313 285.211 276.998 271.562 292.915 C 257.913 308.833 238.862 319.983 217.25 323.53 Z M 311.858 655.886 L 311.856 655.883 L 311.86 1052.503 C 311.86 1066.325 306.257 1078.833 297.2 1087.887 C 288.142 1096.94 275.629 1102.538 261.809 1102.538 C 248 1102.538 235.493 1096.939 226.439 1087.886 C 217.384 1078.832 211.782 1066.323 211.782 1052.503 L 211.782 687.163 L 193.024 687.163 L 193.024 1052.503 C 193.024 1066.325 187.421 1078.833 178.365 1087.887 C 169.308 1096.94 156.797 1102.538 142.981 1102.538 C 129.168 1102.538 116.659 1096.939 107.604 1087.886 C 98.548 1078.832 92.946 1066.323 92.946 1052.503 L 92.946 445.033 C 85.926 459.403 78.845 480.349 73.537 509.954 C 68.228 539.56 64.691 577.825 64.758 626.833 C 64.758 637.983 64.935 649.689 65.31 661.971 C 65.684 674.254 66.256 687.114 67.043 700.571 C 67.57 709.495 64.428 717.787 58.922 723.979 C 53.417 730.172 45.549 734.264 36.625 734.79 C 36.301 734.811 35.977 734.826 35.656 734.835 C 35.335 734.844 35.015 734.848 34.699 734.848 C 26.192 734.848 18.371 731.528 12.552 726.058 C 6.733 720.588 2.916 712.968 2.414 704.368 C 1.59 690.335 0.987 676.874 0.591 663.96 C 0.194 651.046 0.004 638.679 0.004 626.833 C 0.027 580.978 2.83 542.867 7.705 510.969 C 12.579 479.07 19.525 453.385 27.836 432.383 C 36.047 411.463 46.019 395.099 56.659 382.617 C 67.299 370.135 78.607 361.536 89.488 356.145 C 96.669 352.522 103.41 350.352 109.254 349.09 C 115.098 347.828 120.044 347.473 123.636 347.481 C 124.925 347.481 126.053 347.527 127.01 347.591 C 127.967 347.654 128.753 347.735 129.359 347.805 C 129.372 347.809 129.385 347.811 129.396 347.813 C 129.407 347.815 129.417 347.817 129.425 347.821 L 143.23 347.821 L 153.152 425.419 L 172.882 401.642 L 192.613 377.864 L 179.058 362.845 L 165.504 347.825 L 239.281 347.817 L 225.726 362.837 L 212.172 377.856 L 231.902 401.634 L 251.633 425.411 L 261.555 347.821 L 275.344 347.821 C 275.355 347.817 275.368 347.815 275.382 347.813 C 275.396 347.811 275.41 347.81 275.426 347.806 C 276.031 347.729 276.817 347.65 277.774 347.59 C 278.732 347.53 279.859 347.489 281.149 347.489 C 284.743 347.477 289.687 347.829 295.528 349.089 C 301.37 350.349 308.108 352.517 315.29 356.138 C 322.479 359.722 329.962 364.749 337.308 371.403 C 344.655 378.056 351.866 386.337 358.513 396.427 C 371.813 416.752 383.342 443.817 391.567 481.069 C 399.791 518.322 404.711 565.762 404.794 626.837 C 404.794 638.684 404.602 651.05 404.206 663.962 C 403.81 676.875 403.21 690.333 402.391 704.364 C 401.887 712.965 398.067 720.587 392.246 726.059 C 386.425 731.53 378.604 734.852 370.098 734.852 C 369.78 734.852 369.461 734.845 369.143 734.834 C 368.824 734.823 368.504 734.809 368.184 734.793 C 359.255 734.27 351.384 730.181 345.875 723.991 C 340.367 717.801 337.222 709.51 337.743 700.582 C 338.528 687.123 339.101 674.265 339.477 661.981 C 339.853 649.698 340.032 637.99 340.032 626.832 C 340.05 586.345 337.658 553.132 333.836 526.088 C 330.014 499.044 324.762 478.17 319.059 462.362 C 317.868 459.069 316.665 456.012 315.461 453.163 C 314.257 450.314 313.053 447.673 311.86 445.21 L 311.86 655.89 Z M 598.034 663.216 C 597.364 663.007 596.571 662.656 595.714 662.228 C 595.276 663.968 594.913 666.076 594.459 667.75 C 594.003 669.428 593.455 670.67 592.647 670.67 C 591.586 670.67 590.802 670.245 590.173 669.582 C 589.543 668.918 589.069 668.016 588.627 667.061 C 588.659 667.795 588.517 668.515 588.534 669.25 C 588.55 669.985 588.725 670.735 589.389 671.529 C 590.366 672.697 591.259 672.943 592.152 673.19 C 593.045 673.436 593.938 673.682 594.912 674.85 C 595.895 676.018 595.543 677.307 595.19 678.596 C 594.837 679.886 594.483 681.176 595.459 682.346 C 596.436 683.51 596.919 684.097 597.402 684.684 C 597.885 685.272 598.368 685.86 599.342 687.026 C 600.319 688.19 600.981 688.626 601.643 689.063 C 602.304 689.5 602.965 689.938 603.94 691.104 C 604.918 692.272 604.654 693.487 604.389 694.703 C 604.123 695.919 603.858 697.135 604.834 698.303 C 605.811 699.465 606.525 699.858 607.237 700.25 C 607.95 700.643 608.661 701.035 609.631 702.197 C 610.604 703.357 610.787 704.192 610.969 705.028 C 611.151 705.863 611.332 706.699 612.303 707.861 C 613.28 709.027 614.369 709.108 615.457 709.188 C 616.545 709.268 617.633 709.348 618.608 710.514 C 619.586 711.678 619.446 712.788 619.304 713.899 C 619.163 715.011 619.02 716.123 619.995 717.291 C 620.971 718.457 623.158 717.618 625.345 716.779 C 627.532 715.94 629.719 715.102 630.694 716.268 C 631.668 717.432 630.733 719.205 629.798 720.979 C 628.863 722.753 627.928 724.527 628.904 725.693 C 629.883 726.859 632.109 725.987 634.335 725.115 C 636.56 724.243 638.785 723.371 639.759 724.537 C 640.734 725.703 640.06 727.259 639.387 728.815 C 638.714 730.37 638.041 731.926 639.017 733.092 C 639.992 734.258 641.749 733.778 643.506 733.298 C 645.262 732.819 647.019 732.338 647.994 733.502 C 648.969 734.666 648.644 735.931 647.905 737.242 C 647.165 738.554 646.009 739.912 645.322 741.264 C 644.615 742.662 644.126 743.063 643.493 743.048 C 642.86 743.034 642.084 742.606 640.802 742.346 C 639.269 742.037 638.496 741.467 637.715 740.974 C 636.933 740.481 636.144 740.065 634.58 740.065 C 633.015 740.065 632.233 741.002 631.451 741.94 C 630.669 742.877 629.886 743.815 628.322 743.815 C 626.763 743.815 625.984 742.098 625.204 740.381 C 624.425 738.664 623.644 736.947 622.084 736.947 C 620.521 736.947 619.74 739.805 618.959 742.662 C 618.177 745.52 617.396 748.377 615.834 748.377 C 614.275 748.377 613.496 747.623 612.716 746.87 C 611.935 746.116 611.154 745.362 609.591 745.362 C 608.035 745.362 607.257 745.165 606.477 744.969 C 605.698 744.773 604.918 744.577 603.357 744.577 C 601.797 744.577 601.016 743.281 600.236 741.985 C 599.456 740.689 598.675 739.393 597.115 739.393 C 595.558 739.393 594.78 739.684 594.002 739.975 C 593.224 740.266 592.447 740.557 590.892 740.557 C 589.339 740.557 588.563 741.866 587.786 743.174 C 587.008 744.483 586.23 745.792 584.673 745.792 C 583.113 745.792 582.333 745.881 581.552 745.971 C 580.772 746.061 579.992 746.151 578.431 746.151 C 576.873 746.151 576.093 745.284 575.314 744.417 C 574.535 743.549 573.755 742.682 572.197 742.682 C 570.636 742.682 569.856 741.43 569.076 740.178 C 568.296 738.926 567.517 737.674 565.958 737.674 C 564.404 737.674 563.626 740.327 562.848 742.979 C 562.07 745.631 561.29 748.283 559.732 748.283 C 558.173 748.283 557.394 747.097 556.614 745.91 C 555.834 744.724 555.054 743.537 553.494 743.537 C 551.937 743.537 551.159 741.585 550.38 739.633 C 549.602 737.681 548.824 735.729 547.267 735.729 C 545.712 735.729 544.935 738.34 544.157 740.951 C 543.379 743.562 542.601 746.174 541.044 746.174 C 539.49 746.174 538.712 745.714 537.934 745.254 C 537.156 744.794 536.376 744.334 534.818 744.334 C 533.259 744.334 532.48 743.183 531.7 742.033 C 530.921 740.883 530.142 739.732 528.583 739.732 C 527.031 739.732 526.254 738.955 525.476 738.178 C 524.699 737.4 523.919 736.623 522.361 736.623 C 520.808 736.623 520.032 737.929 519.255 739.236 C 518.478 740.543 517.701 741.849 516.146 741.849 C 514.593 741.849 513.817 742.466 513.039 743.082 C 512.262 743.698 511.484 744.314 509.927 744.314 L 509.929 744.315 L 509.93 744.316 C 508.739 744.316 508.001 744.222 507.352 744.104 C 506.704 743.986 506.145 743.845 505.313 743.749 L 505.313 831.272 C 505.51 832.714 505.711 834.135 505.962 835.197 C 506.213 836.258 506.514 836.96 506.911 836.96 C 507.727 836.96 508.135 835.496 508.543 834.032 C 508.95 832.568 509.356 831.104 510.168 831.104 C 510.983 831.104 511.39 831.916 511.798 832.727 C 512.206 833.539 512.614 834.35 513.43 834.35 C 514.247 834.35 514.655 831.796 515.062 829.243 C 515.469 826.689 515.875 824.135 516.688 824.135 C 517.504 824.135 517.913 828.268 518.32 832.401 C 518.727 836.533 519.133 840.666 519.946 840.666 C 520.76 840.666 521.167 837.499 521.574 834.332 C 521.981 831.165 522.387 827.998 523.2 827.998 C 524.016 827.998 524.424 828.67 524.832 829.342 C 525.239 830.014 525.645 830.686 526.457 830.686 C 527.274 830.686 527.682 829.52 528.089 828.354 C 528.497 827.188 528.903 826.022 529.715 826.022 C 530.532 826.022 530.94 825.849 531.347 825.676 C 531.753 825.503 532.159 825.33 532.969 825.33 C 533.786 825.33 534.194 825.147 534.601 824.963 C 535.008 824.779 535.414 824.596 536.227 824.596 C 537.041 824.596 537.449 824.767 537.855 824.938 C 538.262 825.109 538.668 825.279 539.481 825.279 C 540.297 825.279 540.705 826.27 541.112 827.26 C 541.519 828.25 541.924 829.24 542.735 829.24 C 543.551 829.24 543.959 831.475 544.367 833.709 C 544.774 835.943 545.18 838.178 545.993 838.178 C 546.807 838.178 547.214 838.7 547.621 839.223 C 548.028 839.745 548.434 840.268 549.246 840.268 C 550.063 840.268 550.471 836.098 550.878 831.928 C 551.285 827.758 551.69 823.588 552.5 823.588 C 553.315 823.588 553.722 826.248 554.129 828.908 C 554.536 831.568 554.942 834.229 555.754 834.229 C 556.571 834.229 556.979 835.808 557.386 837.387 C 557.793 838.966 558.2 840.545 559.012 840.545 C 559.828 840.545 560.237 839.714 560.643 838.883 C 561.05 838.052 561.455 837.221 562.266 837.221 C 563.08 837.221 563.488 835.057 563.894 832.893 C 564.301 830.729 564.707 828.565 565.52 828.565 C 566.336 828.565 566.744 828.083 567.152 827.602 C 567.559 827.12 567.965 826.639 568.778 826.639 C 569.594 826.639 570.002 829.279 570.409 831.918 C 570.816 834.558 571.221 837.198 572.032 837.198 C 572.629 837.198 573.008 836.299 573.328 835.161 C 573.649 834.022 573.911 832.643 574.274 831.682 L 574.274 788.026 L 591.071 788.026 L 591.071 839.964 C 591.145 840.054 591.221 840.13 591.302 840.184 C 591.383 840.238 591.469 840.269 591.563 840.269 C 592.379 840.269 592.788 839.23 593.195 838.191 C 593.602 837.152 594.008 836.113 594.821 836.113 C 595.637 836.113 596.045 834.979 596.453 833.845 C 596.86 832.711 597.266 831.578 598.079 831.578 C 598.895 831.578 599.303 829.681 599.71 827.785 C 600.118 825.888 600.524 823.992 601.336 823.992 C 602.153 823.992 602.561 826.379 602.968 828.767 C 603.375 831.155 603.782 833.542 604.594 833.542 C 605.413 833.542 605.822 833.093 606.229 832.644 C 606.637 832.195 607.043 831.746 607.856 831.746 C 608.67 831.746 609.078 833.726 609.485 835.706 C 609.893 837.687 610.301 839.667 611.118 839.667 C 611.936 839.667 612.345 836.743 612.753 833.818 C 613.161 830.893 613.567 827.968 614.379 827.968 C 615.194 827.968 615.601 830.971 616.009 833.974 C 616.416 836.977 616.825 839.98 617.641 839.98 C 618.457 839.98 618.866 836.082 619.274 832.183 C 619.682 828.285 620.09 824.386 620.907 824.386 C 621.725 824.386 622.134 828.06 622.542 831.734 C 622.95 835.408 623.356 839.081 624.168 839.081 C 624.985 839.081 625.393 838.504 625.801 837.927 C 626.209 837.35 626.617 836.773 627.434 836.773 C 628.252 836.773 628.661 834.404 629.07 832.035 C 629.479 829.665 629.887 827.296 630.703 827.296 C 631.52 827.296 631.928 829.187 632.336 831.077 C 632.744 832.968 633.153 834.859 633.969 834.859 C 634.785 834.859 635.194 834.631 635.602 834.404 C 636.011 834.176 636.42 833.949 637.238 833.949 C 638.057 833.949 638.466 832.386 638.875 830.824 C 639.283 829.261 639.692 827.699 640.508 827.699 C 641.326 827.699 641.735 830.477 642.143 833.255 C 642.552 836.033 642.961 838.812 643.781 838.812 C 644.6 838.812 645.008 835.985 645.417 833.159 C 645.825 830.333 646.234 827.507 647.055 827.507 C 647.873 827.507 648.282 828.553 648.691 829.6 C 649.101 830.647 649.51 831.694 650.328 831.694 C 651.147 831.694 651.555 831.117 651.963 830.54 C 652.372 829.963 652.781 829.385 653.602 829.385 C 654.42 829.385 654.828 830.261 655.237 831.137 C 655.646 832.013 656.057 832.889 656.879 832.889 C 657.699 832.889 658.109 833.321 658.519 833.753 C 658.929 834.184 659.338 834.616 660.156 834.616 C 660.976 834.616 661.387 832.176 661.797 829.735 C 662.207 827.295 662.617 824.854 663.437 824.854 C 664.258 824.854 664.668 826.82 665.078 828.786 C 665.488 830.752 665.898 832.718 666.719 832.718 C 667.539 832.718 667.949 833.741 668.359 834.764 C 668.769 835.788 669.179 836.811 670 836.811 C 670.82 836.811 671.23 835.656 671.64 834.501 C 672.051 833.346 672.461 832.19 673.281 832.19 C 674.101 832.19 674.511 834.283 674.921 836.376 C 675.331 838.469 675.74 840.561 676.558 840.561 C 677.379 840.561 677.789 837.042 678.199 833.522 C 678.609 830.003 679.019 826.483 679.839 826.483 C 680.658 826.483 681.066 827.595 681.475 828.706 C 681.883 829.817 682.293 830.929 683.113 830.929 C 683.931 830.929 684.34 832.562 684.75 834.196 C 685.16 835.83 685.57 837.464 686.39 837.464 C 687.209 837.464 687.618 838.219 688.027 838.974 C 688.436 839.728 688.845 840.483 689.664 840.483 C 690.482 840.483 690.891 840.358 691.3 840.233 C 691.709 840.108 692.119 839.983 692.937 839.983 C 692.953 839.983 692.965 839.972 692.978 839.959 C 692.99 839.947 693.001 839.935 693.015 839.933 L 693.015 744.859 L 709.812 744.859 L 709.812 833.183 C 710.38 832.831 710.708 831.921 711.072 831.099 C 711.437 830.276 711.839 829.542 712.558 829.542 C 713.375 829.542 713.783 828.978 714.191 828.415 C 714.6 827.852 715.009 827.288 715.828 827.288 C 716.646 827.288 717.055 828.072 717.464 828.856 C 717.873 829.641 718.281 830.425 719.097 830.425 C 719.914 830.425 720.322 832.776 720.73 835.128 C 721.138 837.479 721.546 839.831 722.363 839.831 C 723.179 839.831 723.587 838.946 723.996 838.061 C 724.405 837.177 724.814 836.292 725.632 836.292 C 726.449 836.292 726.857 834.056 727.265 831.819 C 727.673 829.583 728.082 827.347 728.898 827.347 C 729.716 827.347 730.125 828.56 730.534 829.774 C 730.943 830.988 731.351 832.202 732.167 832.202 C 732.984 832.202 733.392 830.758 733.8 829.313 C 734.208 827.869 734.617 826.425 735.433 826.425 C 736.249 826.425 736.658 826.068 737.066 825.712 C 737.474 825.355 737.882 824.999 738.699 824.999 C 739.515 824.999 739.923 828.242 740.332 831.485 C 740.741 834.729 741.15 837.972 741.968 837.972 C 742.785 837.972 743.193 837.079 743.601 836.187 C 744.009 835.294 744.417 834.402 745.234 834.402 C 746.052 834.402 746.461 834.476 746.87 834.55 C 747.279 834.624 747.687 834.699 748.503 834.699 C 748.587 834.699 748.666 834.662 748.741 834.604 C 748.817 834.546 748.888 834.466 748.956 834.378 L 748.956 663.728 C 748.722 662.781 748.466 661.946 748.164 661.348 C 747.862 660.75 747.513 660.388 747.093 660.388 C 745.847 660.388 745.224 661.006 744.601 661.623 C 743.978 662.24 743.355 662.857 742.109 662.857 C 740.861 662.857 740.237 664.223 739.613 665.59 C 738.99 666.956 738.368 668.322 737.124 668.322 C 735.88 668.322 735.258 668.489 734.635 668.656 C 734.013 668.823 733.39 668.99 732.144 668.99 C 730.898 668.99 730.275 667.421 729.652 665.851 C 729.028 664.282 728.405 662.713 727.159 662.713 C 725.911 662.713 725.287 662.336 724.664 661.959 C 724.041 661.582 723.419 661.205 722.175 661.205 C 720.927 661.205 720.303 660.568 719.679 659.931 C 719.056 659.295 718.433 658.658 717.187 658.658 C 715.941 658.658 715.317 659.585 714.694 660.511 C 714.07 661.438 713.446 662.365 712.198 662.365 C 710.952 662.365 710.329 663.294 709.706 664.222 C 709.083 665.151 708.46 666.08 707.214 666.08 C 705.968 666.08 705.345 667.32 704.722 668.56 C 704.099 669.8 703.476 671.041 702.23 671.041 C 700.985 671.041 700.363 670.33 699.741 669.619 C 699.119 668.908 698.497 668.197 697.253 668.197 C 696.009 668.197 695.387 668.45 694.764 668.703 C 694.142 668.956 693.519 669.209 692.272 669.209 C 691.024 669.209 690.4 667.241 689.777 665.273 C 689.154 663.305 688.532 661.337 687.288 661.337 C 686.044 661.337 685.422 663.668 684.8 665.998 C 684.178 668.328 683.556 670.658 682.311 670.658 C 681.065 670.658 680.442 671.355 679.819 672.052 C 679.196 672.75 678.573 673.447 677.327 673.447 C 676.081 673.447 675.458 671.412 674.835 669.377 C 674.212 667.341 673.589 665.306 672.343 665.306 C 671.096 665.306 670.473 665.032 669.85 664.757 C 669.226 664.483 668.602 664.209 667.354 664.209 C 666.108 664.209 665.485 666.588 664.862 668.968 C 664.239 671.348 663.616 673.728 662.37 673.728 C 661.124 673.728 660.501 670.249 659.878 666.769 C 659.255 663.29 658.632 659.81 657.385 659.81 C 656.141 659.81 655.519 662.197 654.897 664.584 C 654.274 666.97 653.651 669.357 652.405 669.357 C 651.161 669.357 650.539 667.477 649.917 665.597 C 649.295 663.717 648.673 661.837 647.428 661.837 C 646.184 661.837 645.562 661.895 644.94 661.953 C 644.318 662.01 643.696 662.068 642.452 662.068 C 641.208 662.068 640.586 663.43 639.963 664.793 C 639.341 666.155 638.719 667.517 637.475 667.517 C 636.231 667.517 635.609 666.003 634.987 664.488 C 634.365 662.973 633.743 661.459 632.499 661.459 C 631.254 661.459 630.632 663.24 630.01 665.021 C 629.388 666.802 628.766 668.584 627.522 668.584 C 626.278 668.584 625.656 668.288 625.034 667.992 C 624.412 667.696 623.79 667.4 622.545 667.4 C 621.301 667.4 620.68 667.354 620.059 667.308 C 619.437 667.262 618.815 667.216 617.569 667.216 C 616.323 667.216 615.7 668.186 615.077 669.156 C 614.454 670.126 613.83 671.095 612.584 671.095 C 611.338 671.095 610.715 668.271 610.093 665.447 C 609.47 662.623 608.848 659.798 607.604 659.798 C 606.358 659.798 605.735 663.074 605.112 666.349 C 604.489 669.625 603.866 672.9 602.619 672.9 C 601.844 672.9 601.309 671.536 600.865 669.658 C 600.42 667.779 600.067 665.387 599.655 663.33 C 599.715 663.305 599.775 663.279 599.829 663.248 C 599.883 663.217 599.932 663.18 599.971 663.131 C 600.77 662.143 598.962 659.861 597.155 657.578 C 595.348 655.296 593.541 653.014 594.342 652.026 C 595.139 651.037 595.281 650.335 595.423 649.634 C 595.565 648.932 595.707 648.231 596.506 647.245 C 596.596 647.135 596.699 647.05 596.81 646.981 C 596.92 646.912 597.04 646.858 597.163 646.811 C 596.846 646.239 596.51 645.707 596.1 645.319 C 595.69 644.931 595.206 644.686 594.592 644.686 C 593.11 644.686 592.369 642.907 591.629 641.127 C 590.889 639.348 590.151 637.569 588.674 637.569 C 587.19 637.569 586.448 639.642 585.706 641.715 C 584.965 643.789 584.225 645.862 582.745 645.862 C 581.485 645.862 580.758 646.603 580.111 647.455 C 579.464 648.307 578.897 649.27 577.955 649.713 C 578.784 650.772 579.024 651.496 579.292 652.235 C 579.56 652.974 579.856 653.729 580.795 654.85 C 581.776 656.02 580.493 658.089 579.21 660.158 C 577.927 662.227 576.643 664.295 577.619 665.463 C 578.555 666.58 580.458 665.989 582.407 665.319 C 584.355 664.65 586.348 663.901 587.463 664.701 C 586.883 663.641 586.218 662.488 585.862 661.4 C 585.506 660.311 585.459 659.285 586.116 658.479 C 586.639 657.836 588.111 658.309 589.916 659.173 C 591.715 660.034 593.846 661.285 595.699 662.208 C 595.937 661.271 596.195 660.441 596.504 659.843 C 596.814 659.243 597.173 658.879 597.611 658.879 C 598.077 658.879 598.458 659.376 598.784 660.182 C 599.11 660.988 599.382 662.104 599.63 663.34 C 599.261 663.49 598.709 663.426 598.034 663.216 Z M 925.303 547.228 C 924.593 547.348 924.017 547.274 923.681 546.86 C 923.623 546.785 923.597 546.699 923.583 546.607 C 923.568 546.516 923.564 546.42 923.549 546.328 C 924.496 546.334 925.038 546.358 925.596 546.381 C 926.154 546.404 926.728 546.426 927.74 546.43 C 926.861 546.793 926.014 547.108 925.303 547.228 Z M 931.331 550.372 C 930.364 548.538 929.215 546.425 927.986 546.429 L 927.74 546.429 C 928.939 545.935 930.204 545.348 931.283 545.025 C 932.362 544.702 933.256 544.644 933.713 545.206 C 934.506 546.183 934.728 547.467 934.625 548.794 C 934.521 550.121 934.092 551.492 933.58 552.64 C 933.082 553.761 932.298 552.206 931.331 550.372 Z M 1191.098 721.271 L 1191.095 721.272 C 1192.093 722.424 1193.677 722.064 1195.265 721.7 C 1196.853 721.336 1198.445 720.967 1199.458 722.104 C 1200.456 723.26 1200.069 723.975 1199.263 724.743 C 1198.456 725.511 1197.232 726.333 1196.556 727.702 C 1195.861 729.108 1195.549 730.411 1195.188 731.332 C 1194.828 732.254 1194.417 732.794 1193.525 732.674 C 1191.97 732.467 1191.291 732.118 1190.609 731.82 C 1189.927 731.522 1189.242 731.276 1187.673 731.276 C 1186.107 731.276 1185.324 729.912 1184.54 728.548 C 1183.757 727.183 1182.974 725.819 1181.408 725.819 C 1179.845 725.819 1179.064 726.811 1178.282 727.803 C 1177.5 728.796 1176.718 729.788 1175.154 729.788 C 1173.589 729.788 1172.807 728.323 1172.025 726.858 C 1171.243 725.393 1170.46 723.928 1168.896 723.928 C 1167.331 723.928 1166.549 724.536 1165.768 725.143 C 1164.986 725.751 1164.205 726.358 1162.642 726.358 C 1161.08 726.358 1160.298 726.549 1159.518 726.739 C 1158.737 726.929 1157.956 727.12 1156.396 727.12 C 1154.83 727.12 1154.046 726.227 1153.264 725.335 C 1152.482 724.442 1151.701 723.55 1150.138 723.55 C 1148.578 723.55 1147.797 724.919 1147.018 726.288 C 1146.239 727.657 1145.46 729.026 1143.904 729.026 C 1142.343 729.026 1141.563 728.094 1140.783 727.161 C 1140.003 726.228 1139.224 725.296 1137.665 725.296 C 1136.103 725.296 1135.322 727.628 1134.54 729.96 C 1133.759 732.292 1132.978 734.624 1131.415 734.624 C 1129.853 734.624 1129.072 733.334 1128.29 732.044 C 1127.509 730.754 1126.728 729.464 1125.165 729.464 C 1123.603 729.464 1122.822 729.957 1122.04 730.45 C 1121.259 730.943 1120.478 731.436 1118.915 731.436 C 1117.355 731.436 1116.575 730.033 1115.794 728.63 C 1115.014 727.226 1114.234 725.823 1112.673 725.823 C 1111.111 725.823 1110.329 727.149 1109.548 728.475 C 1108.767 729.801 1107.986 731.128 1106.423 731.128 C 1104.863 731.128 1104.082 729.493 1103.302 727.858 C 1102.522 726.223 1101.742 724.589 1100.181 724.589 C 1098.622 724.589 1097.843 725.688 1097.063 726.788 C 1096.284 727.887 1095.503 728.987 1093.943 728.987 C 1092.38 728.987 1091.599 728.092 1090.818 727.198 C 1090.037 726.303 1089.257 725.409 1087.697 725.409 C 1086.136 725.409 1085.356 726.03 1084.575 726.651 C 1083.794 727.272 1083.013 727.893 1081.451 727.893 C 1079.894 727.893 1079.116 728.48 1078.336 729.067 C 1077.557 729.654 1076.777 730.241 1075.216 730.241 C 1073.661 730.241 1072.884 729.043 1072.106 727.844 C 1071.327 726.646 1070.548 725.448 1068.99 725.448 C 1068.452 725.448 1068.012 725.498 1067.632 725.58 C 1067.252 725.662 1066.933 725.776 1066.638 725.905 L 1066.638 834.985 C 1066.656 834.985 1066.667 834.987 1066.678 834.989 C 1066.69 834.991 1066.7 834.993 1066.716 834.993 C 1067.536 834.993 1067.946 833.49 1068.357 831.987 C 1068.767 830.484 1069.177 828.981 1069.997 828.981 C 1070.818 828.981 1071.228 830.24 1071.638 831.499 C 1072.049 832.758 1072.46 834.016 1073.282 834.016 C 1074.103 834.016 1074.513 834.768 1074.924 835.52 C 1075.335 836.272 1075.747 837.024 1076.572 837.024 C 1077.396 837.024 1077.808 837.686 1078.22 838.348 C 1078.631 839.01 1079.042 839.673 1079.865 839.673 C 1080.689 839.673 1081.101 837.951 1081.513 836.229 C 1081.925 834.507 1082.337 832.786 1083.161 832.786 C 1083.984 832.786 1084.395 831.36 1084.807 829.934 C 1085.218 828.508 1085.63 827.083 1086.454 827.083 C 1087.277 827.083 1087.688 828.661 1088.099 830.239 C 1088.51 831.817 1088.921 833.395 1089.744 833.395 C 1090.568 833.395 1090.98 831.661 1091.392 829.926 C 1091.803 828.192 1092.214 826.458 1093.037 826.458 C 1093.859 826.458 1094.27 829.106 1094.681 831.755 C 1095.092 834.403 1095.503 837.052 1096.326 837.052 C 1097.146 837.052 1097.556 837.753 1097.967 838.454 C 1098.378 839.155 1098.791 839.856 1099.615 839.856 C 1100.439 839.856 1100.851 836.434 1101.263 833.012 C 1101.675 829.59 1102.087 826.168 1102.912 826.168 C 1102.974 826.168 1103.02 826.18 1103.064 826.193 C 1103.107 826.206 1103.148 826.221 1103.201 826.227 L 1103.201 790.375 L 1121.619 790.375 L 1121.619 835.539 C 1121.759 836.283 1121.914 836.918 1122.091 837.367 C 1122.268 837.815 1122.468 838.078 1122.701 838.078 C 1123.519 838.078 1123.928 837.576 1124.338 837.074 C 1124.748 836.572 1125.158 836.07 1125.978 836.07 C 1126.802 836.07 1127.214 835.451 1127.626 834.832 C 1128.038 834.213 1128.449 833.594 1129.271 833.594 C 1130.095 833.594 1130.507 831.423 1130.92 829.252 C 1131.333 827.081 1131.746 824.91 1132.572 824.91 C 1133.394 824.91 1133.805 828.889 1134.217 832.867 C 1134.629 836.846 1135.041 840.824 1135.865 840.824 C 1136.687 840.824 1137.098 837.828 1137.509 834.832 C 1137.921 831.836 1138.332 828.84 1139.154 828.84 C 1139.976 828.84 1140.387 829.538 1140.798 830.237 C 1141.21 830.935 1141.621 831.633 1142.443 831.633 C 1143.267 831.633 1143.679 830.003 1144.092 828.373 C 1144.506 826.743 1144.92 825.114 1145.748 825.114 C 1146.57 825.114 1146.981 827.327 1147.393 829.541 C 1147.805 831.755 1148.218 833.969 1149.045 833.969 C 1149.869 833.969 1150.281 832.848 1150.693 831.727 C 1151.105 830.606 1151.517 829.485 1152.342 829.485 C 1153.168 829.485 1153.581 831.431 1153.994 833.377 C 1154.408 835.324 1154.822 837.27 1155.65 837.27 C 1156.474 837.27 1156.886 838.174 1157.299 839.078 C 1157.712 839.983 1158.125 840.887 1158.951 840.887 C 1159.775 840.887 1160.187 837.926 1160.6 834.965 C 1161.012 832.004 1161.426 829.043 1162.252 829.043 C 1163.074 829.043 1163.485 830.195 1163.897 831.348 C 1164.309 832.5 1164.722 833.652 1165.549 833.652 C 1166.379 833.652 1166.794 832.89 1167.208 832.127 C 1167.623 831.364 1168.037 830.602 1168.865 830.602 C 1169.695 830.602 1170.11 832.477 1170.525 834.352 C 1170.94 836.227 1171.355 838.102 1172.185 838.102 C 1173.017 838.102 1173.433 836.703 1173.85 835.305 C 1174.266 833.906 1174.683 832.508 1175.517 832.508 C 1176.347 832.508 1176.744 832.286 1177.078 832.213 C 1177.412 832.141 1177.683 832.217 1178.263 832.813 C 1178.855 833.424 1180.438 833.708 1181.873 834.052 C 1183.308 834.397 1184.595 834.801 1184.595 835.652 C 1184.595 836.502 1181.793 836.927 1178.99 837.352 C 1176.187 837.777 1173.384 838.203 1173.384 839.055 C 1173.384 839.904 1172.953 840.329 1172.521 840.754 C 1172.089 841.179 1171.658 841.603 1171.658 842.453 C 1171.658 843.301 1172.356 843.725 1173.054 844.148 C 1173.753 844.572 1174.451 844.996 1174.451 845.844 C 1174.451 846.695 1177.141 847.121 1179.832 847.547 C 1182.522 847.974 1185.213 848.4 1185.213 849.254 C 1185.213 849.59 1184.759 849.859 1184.029 850.089 C 1183.3 850.318 1182.295 850.508 1181.193 850.684 L 1181.193 876.258 L 336.133 876.258 L 336.133 838.539 C 336.256 839.05 336.391 839.477 336.543 839.776 C 336.696 840.075 336.866 840.246 337.059 840.246 C 337.877 840.246 338.287 836.626 338.695 833.007 C 339.104 829.388 339.512 825.769 340.329 825.769 C 341.145 825.769 341.553 827.922 341.962 830.075 C 342.371 832.229 342.78 834.382 343.598 834.382 C 344.416 834.382 344.826 833.689 345.234 832.995 C 345.643 832.302 346.051 831.608 346.868 831.608 C 347.684 831.608 348.092 829.702 348.5 827.796 C 348.909 825.89 349.317 823.983 350.133 823.983 C 350.95 823.983 351.358 827.762 351.766 831.54 C 352.175 835.318 352.584 839.096 353.403 839.096 C 354.219 839.096 354.627 837.428 355.035 835.759 C 355.444 834.09 355.852 832.421 356.668 832.421 C 357.487 832.421 357.896 832.122 358.305 831.823 C 358.713 831.524 359.121 831.225 359.938 831.225 C 360.754 831.225 361.162 833.437 361.571 835.649 C 361.98 837.861 362.389 840.073 363.207 840.073 C 364.024 840.073 364.432 838.495 364.84 836.917 C 365.248 835.339 365.656 833.761 366.473 833.761 C 367.291 833.761 367.7 831.555 368.109 829.348 C 368.518 827.142 368.926 824.936 369.742 824.936 C 370.559 824.936 370.967 825.324 371.376 825.712 C 371.784 826.099 372.194 826.487 373.012 826.487 C 373.828 826.487 374.236 827.642 374.645 828.798 C 375.053 829.953 375.461 831.108 376.277 831.108 C 377.096 831.108 377.505 832.068 377.914 833.028 C 378.322 833.988 378.731 834.948 379.547 834.948 C 380.361 834.948 380.771 835.989 381.179 837.032 C 381.588 838.075 381.996 839.12 382.809 839.128 L 382.809 788.019 L 399.606 788.019 L 399.606 831.714 C 400.203 832.47 400.542 834.654 400.914 836.65 C 401.286 838.645 401.692 840.452 402.422 840.452 C 403.238 840.452 403.647 840.483 404.055 840.515 C 404.464 840.546 404.873 840.577 405.692 840.577 C 406.51 840.577 406.918 840.496 407.327 840.415 C 407.736 840.334 408.145 840.253 408.965 840.253 C 409.783 840.253 410.193 837.122 410.601 833.991 C 411.01 830.861 411.418 827.73 412.234 827.73 C 413.053 827.73 413.462 830.566 413.871 833.402 C 414.28 836.238 414.69 839.074 415.508 839.074 C 416.324 839.074 416.732 839.197 417.141 839.32 C 417.55 839.443 417.959 839.566 418.777 839.566 C 419.594 839.566 420.002 839.161 420.411 838.756 C 420.819 838.35 421.229 837.945 422.047 837.945 C 422.865 837.945 423.273 837.826 423.682 837.707 C 424.091 837.588 424.5 837.468 425.32 837.468 C 426.139 837.468 426.548 833.996 426.957 830.523 C 427.366 827.05 427.775 823.577 428.594 823.577 C 429.412 823.577 429.821 826.524 430.23 829.47 C 430.64 832.416 431.049 835.362 431.867 835.362 C 432.685 835.362 433.095 832.724 433.504 830.085 C 433.913 827.446 434.322 824.807 435.14 824.807 C 435.959 824.807 436.368 827.072 436.778 829.337 C 437.187 831.601 437.597 833.866 438.418 833.866 C 439.238 833.866 439.648 835.384 440.058 836.901 C 440.468 838.419 440.877 839.936 441.695 839.936 C 442.513 839.936 442.923 839.843 443.332 839.749 C 443.741 839.655 444.15 839.561 444.968 839.561 C 445.787 839.561 446.196 835.797 446.606 832.032 C 447.015 828.267 447.425 824.502 448.246 824.502 C 449.066 824.502 449.476 828.118 449.886 831.733 C 450.296 835.348 450.705 838.963 451.523 838.963 C 452.341 838.963 452.751 836.244 453.16 833.524 C 453.57 830.804 453.98 828.084 454.8 828.084 C 455.619 828.084 456.028 828.37 456.437 828.657 C 456.846 828.943 457.255 829.229 458.074 829.229 C 458.89 829.229 459.297 831.327 459.706 833.426 C 460.114 835.525 460.523 837.623 461.343 837.623 C 462.162 837.623 462.571 837.585 462.98 837.547 C 463.389 837.509 463.798 837.471 464.617 837.471 C 464.683 837.471 464.744 837.446 464.802 837.41 C 464.86 837.375 464.916 837.33 464.972 837.291 L 464.972 743.455 C 464.082 743.408 463.514 743.322 462.851 743.248 C 462.188 743.174 461.429 743.112 460.156 743.112 C 458.603 743.112 457.826 742.851 457.048 742.59 C 456.271 742.329 455.494 742.069 453.941 742.069 C 452.39 742.069 451.615 742.765 450.839 743.461 C 450.063 744.157 449.287 744.854 447.734 744.854 C 446.185 744.854 445.411 745.396 444.635 745.938 C 443.86 746.48 443.084 747.022 441.531 747.022 C 439.978 747.022 439.202 747.374 438.424 747.727 C 437.646 748.079 436.867 748.432 435.308 748.432 C 433.752 748.432 432.973 748.282 432.195 748.131 C 431.417 747.981 430.638 747.83 429.082 747.83 C 427.527 747.83 426.75 745.751 425.972 743.672 C 425.195 741.593 424.417 739.514 422.863 739.514 C 421.31 739.514 420.534 741.003 419.756 742.492 C 418.979 743.982 418.201 745.471 416.644 745.471 C 415.091 745.471 414.315 745.396 413.538 745.321 C 412.76 745.245 411.982 745.17 410.425 745.17 C 409.796 745.17 409.296 745.114 408.872 745.024 C 408.448 744.935 408.099 744.813 407.773 744.682 C 413.189 739.848 417.685 733.995 420.94 727.411 C 424.195 720.827 426.209 713.512 426.66 705.752 C 427.467 691.929 428.075 678.377 428.482 665.184 C 428.888 651.991 429.093 639.158 429.093 626.775 C 429.056 600.524 428.123 576.083 426.291 553.369 C 424.46 530.654 421.73 509.667 418.101 490.325 C 419.002 489.458 419.863 489.297 420.727 489.081 C 421.592 488.865 422.459 488.594 423.371 487.508 C 424.342 486.344 425.853 486.622 427.366 486.899 C 428.878 487.176 430.391 487.454 431.363 486.29 C 432.34 485.122 431.073 483.068 429.807 481.014 C 428.54 478.96 427.273 476.907 428.25 475.739 C 429.228 474.569 430.485 474.626 431.742 474.684 C 432.998 474.743 434.254 474.801 435.23 473.633 C 436.209 472.465 435.442 470.829 434.675 469.194 C 433.907 467.558 433.139 465.922 434.113 464.754 C 435.092 463.584 436.752 463.979 438.411 464.374 C 440.07 464.77 441.728 465.166 442.703 464 C 443.68 462.832 443.48 461.671 443.281 460.51 C 443.082 459.349 442.883 458.188 443.859 457.02 C 444.836 455.852 445.175 455.143 445.513 454.434 C 445.852 453.725 446.191 453.016 447.168 451.848 C 448.142 450.682 449.367 450.715 450.592 450.748 C 451.816 450.782 453.041 450.815 454.015 449.649 C 454.994 448.483 456.214 448.51 457.432 448.537 C 458.651 448.565 459.869 448.592 460.844 447.426 C 461.82 446.26 460.349 444.036 458.878 441.811 C 457.407 439.587 455.935 437.362 456.91 436.196 C 457.889 435.026 459.598 435.463 461.306 435.9 C 463.015 436.337 464.723 436.774 465.699 435.606 C 466.674 434.438 468.036 434.586 469.399 434.733 C 470.762 434.881 472.125 435.028 473.101 433.86 C 474.076 432.698 473.828 431.5 473.58 430.301 C 473.332 429.101 473.084 427.901 474.058 426.735 C 475.033 425.573 475.72 425.16 476.408 424.746 C 477.095 424.333 477.781 423.919 478.754 422.755 C 479.73 421.591 478.897 419.902 478.064 418.214 C 477.23 416.525 476.396 414.837 477.371 413.673 C 478.344 412.507 479.55 411.362 480.892 410.512 C 482.234 409.661 483.713 409.104 485.23 409.114 C 486.763 409.122 486.724 410.95 486.549 413.07 C 486.373 415.19 486.06 417.602 487.047 418.778 C 488.033 419.954 489.324 419.873 490.615 419.792 C 491.905 419.711 493.195 419.63 494.179 420.805 C 495.16 421.977 494.254 423.735 493.347 425.493 C 492.441 427.251 491.535 429.009 492.515 430.18 C 493.494 431.35 494.523 431.484 495.552 431.618 C 496.582 431.752 497.611 431.886 498.59 433.055 C 499.57 434.229 500.795 434.202 502.019 434.174 C 503.244 434.146 504.469 434.118 505.449 435.29 C 506.429 436.462 506.087 437.746 505.743 439.03 C 505.4 440.313 505.056 441.597 506.035 442.766 C 507.013 443.936 508.542 443.652 510.07 443.368 C 511.598 443.084 513.127 442.8 514.105 443.97 C 515.084 445.141 516.367 445.063 517.65 444.985 C 518.933 444.906 520.217 444.827 521.195 445.997 C 522.176 447.165 521.621 448.625 521.065 450.085 C 520.509 451.545 519.951 453.005 520.926 454.173 C 521.902 455.337 521.865 456.36 521.828 457.385 C 521.791 458.409 521.754 459.434 522.73 460.602 C 523.709 461.772 524.742 461.903 525.775 462.034 C 526.808 462.164 527.842 462.294 528.82 463.462 C 529.795 464.624 529.05 466.238 528.304 467.853 C 527.559 469.468 526.814 471.083 527.789 472.247 C 528.761 473.407 529.119 474.096 529.477 474.785 C 529.835 475.474 530.193 476.165 531.168 477.329 C 532.144 478.497 535.092 477.02 538.041 475.544 C 540.989 474.067 543.937 472.591 544.914 473.759 C 545.892 474.927 545.182 476.515 544.472 478.105 C 543.761 479.694 543.05 481.284 544.027 482.454 C 545.007 483.622 544.282 485.224 543.555 486.825 C 542.829 488.427 542.101 490.028 543.078 491.196 C 544.058 492.362 544.68 492.836 545.301 493.31 C 545.922 493.784 546.541 494.259 547.515 495.427 C 548.494 496.595 550 496.327 551.505 496.059 C 553.01 495.792 554.515 495.524 555.492 496.692 C 556.472 497.86 558.019 497.558 559.565 497.257 C 561.111 496.955 562.656 496.653 563.632 497.821 C 564.611 498.985 565.241 499.45 565.87 499.915 C 566.5 500.381 567.129 500.847 568.105 502.013 C 569.084 503.178 567.377 505.601 565.669 508.024 C 563.961 510.447 562.252 512.87 563.226 514.036 C 564.201 515.2 565.263 515.302 566.326 515.406 C 567.388 515.509 568.451 515.614 569.425 516.782 C 570.406 517.95 571.955 517.647 573.503 517.344 C 575.05 517.041 576.597 516.739 577.574 517.907 C 578.552 519.075 579.606 519.186 580.659 519.297 C 581.712 519.409 582.763 519.52 583.738 520.688 C 584.713 521.852 583.168 524.136 581.623 526.42 C 580.078 528.705 578.533 530.989 579.507 532.153 C 580.484 533.317 580.693 534.134 580.901 534.952 C 581.109 535.769 581.316 536.586 582.289 537.751 C 583.261 538.913 584.155 539.153 585.049 539.394 C 585.943 539.634 586.837 539.876 587.812 541.04 C 588.785 542.206 590.58 541.914 591.966 541.672 C 593.352 541.43 594.33 541.239 593.668 542.606 C 592.998 543.991 592.504 544.358 591.794 544.379 C 591.084 544.4 590.156 544.075 588.617 544.075 C 587.076 544.075 586.305 545.251 585.536 546.426 C 584.766 547.602 583.998 548.778 582.461 548.778 C 580.923 548.778 580.155 548.06 579.387 547.342 C 578.619 546.625 577.851 545.907 576.316 545.907 C 574.781 545.907 574.013 545.764 573.247 545.622 C 572.48 545.479 571.715 545.337 570.183 545.337 C 568.646 545.337 567.878 545.51 567.11 545.684 C 566.342 545.858 565.576 546.032 564.043 546.032 C 562.508 546.032 561.74 545.628 560.973 545.223 C 560.207 544.819 559.441 544.415 557.91 544.415 C 556.377 544.415 555.61 545.06 554.844 545.706 C 554.079 546.351 553.314 546.997 551.785 546.997 C 550.25 546.997 548.118 544.939 546.218 543.233 C 544.318 541.528 542.65 540.174 542.043 541.583 C 541.416 543.03 542.965 543.905 544.923 544.72 C 546.882 545.536 549.25 546.292 550.261 547.501 C 551.273 548.711 551.497 549.552 551.721 550.393 C 551.944 551.234 552.168 552.075 553.179 553.286 C 554.189 554.491 555.555 554.373 556.921 554.254 C 558.287 554.136 559.652 554.018 560.66 555.223 C 561.668 556.426 562.13 557.063 562.592 557.7 C 563.054 558.336 563.515 558.973 564.523 560.176 C 565.533 561.381 565.297 562.605 565.06 563.829 C 564.824 565.052 564.588 566.276 565.597 567.481 C 566.605 568.684 566.328 569.94 566.051 571.196 C 565.773 572.452 565.496 573.708 566.504 574.911 C 567.512 576.112 569.44 575.519 571.369 574.927 C 573.298 574.335 575.226 573.743 576.234 574.946 C 577.242 576.147 577.394 577.042 577.547 577.937 C 577.699 578.832 577.851 579.727 578.859 580.93 C 579.865 582.129 580.38 582.719 580.894 583.309 C 581.409 583.899 581.924 584.489 582.93 585.688 C 583.931 586.887 583.244 588.483 582.557 590.079 C 581.871 591.674 581.185 593.27 582.191 594.469 C 583.197 595.669 584.296 595.77 585.395 595.872 C 586.494 595.974 587.594 596.077 588.601 597.278 C 589.605 598.475 589.483 599.596 589.361 600.717 C 589.239 601.838 589.117 602.96 590.121 604.157 C 591.129 605.356 591.779 605.834 592.43 606.312 C 593.08 606.79 593.73 607.268 594.738 608.469 C 595.744 609.672 597.993 608.811 600.242 607.949 C 602.49 607.087 604.738 606.225 605.742 607.426 C 606.75 608.629 606.583 609.793 606.416 610.955 C 606.248 612.118 606.08 613.28 607.086 614.481 C 608.092 615.682 607.95 616.823 607.809 617.963 C 607.667 619.103 607.525 620.243 608.531 621.442 C 609.535 622.643 609.862 623.39 610.19 624.137 C 610.518 624.883 610.846 625.629 611.852 626.829 C 612.707 627.852 613.654 628.063 614.615 628.152 C 615.576 628.242 616.551 628.209 617.461 628.747 C 617.061 627.944 616.585 627.12 616.324 626.355 C 616.063 625.59 616.016 624.885 616.473 624.321 C 617.271 623.334 617.096 622.374 616.919 621.415 C 616.743 620.456 616.566 619.497 617.363 618.512 C 618.158 617.534 618.736 617.19 619.314 616.847 C 619.893 616.503 620.471 616.161 621.266 615.184 C 622.06 614.204 624.12 615.061 626.179 615.919 C 628.238 616.777 630.297 617.635 631.09 616.657 C 631.885 615.68 630.649 613.869 629.414 612.057 C 628.179 610.245 626.943 608.432 627.738 607.454 C 628.537 606.473 629.024 606.053 629.511 605.633 C 629.998 605.213 630.484 604.794 631.281 603.813 C 632.076 602.833 633.061 602.817 634.047 602.801 C 635.033 602.786 636.019 602.77 636.816 601.79 C 637.613 600.809 637.149 599.621 636.685 598.433 C 636.221 597.245 635.756 596.057 636.551 595.079 C 637.348 594.094 640.51 595.839 643.672 597.586 C 646.834 599.332 649.996 601.079 650.793 600.098 C 651.588 599.114 650.155 597.137 648.723 595.162 C 647.29 593.186 645.857 591.212 646.652 590.231 C 647.449 589.251 648.441 589.242 649.433 589.233 C 650.425 589.224 651.416 589.215 652.211 588.235 C 653.004 587.256 654.288 587.485 655.573 587.714 C 656.857 587.943 658.142 588.172 658.937 587.196 C 659.734 586.215 658.805 584.647 657.874 583.079 C 656.944 581.511 656.014 579.944 656.808 578.965 C 657.605 577.985 659.377 578.607 661.148 579.229 C 662.92 579.851 664.691 580.473 665.488 579.493 C 666.287 578.508 666.269 577.679 666.251 576.851 C 666.233 576.023 666.215 575.196 667.012 574.215 C 667.806 573.233 668.097 572.656 668.389 572.08 C 668.68 571.505 668.971 570.93 669.765 569.954 C 670.556 568.973 670.025 567.731 669.494 566.489 C 668.964 565.248 668.433 564.006 669.226 563.028 C 670.019 562.051 670.445 561.586 670.871 561.12 C 671.298 560.654 671.725 560.188 672.519 559.212 C 673.312 558.233 675.045 558.826 676.778 559.419 C 678.511 560.012 680.244 560.606 681.039 559.629 C 681.832 558.649 680.178 558.129 678.198 557.565 C 676.218 557.001 673.912 556.393 673.402 555.239 C 672.904 554.116 673.945 552.378 674.804 550.92 C 675.663 549.463 676.34 548.286 675.113 548.286 C 673.885 548.286 673.27 549.643 672.656 551.001 C 672.042 552.358 671.428 553.715 670.199 553.715 C 668.972 553.715 668.359 552.909 667.746 552.102 C 667.134 551.296 666.521 550.489 665.297 550.489 C 664.074 550.489 663.463 549.358 662.851 548.227 C 662.239 547.096 661.627 545.965 660.402 545.965 C 659.176 545.965 658.562 546.308 657.95 546.651 C 657.337 546.994 656.725 547.337 655.5 547.337 C 654.275 547.337 653.663 546.793 653.051 546.249 C 652.439 545.705 651.828 545.161 650.605 545.161 C 649.385 545.161 648.774 546.592 648.164 548.024 C 647.553 549.456 646.941 550.887 645.719 550.887 C 644.494 550.887 643.882 550.145 643.27 549.403 C 642.657 548.661 642.045 547.919 640.82 547.919 C 639.602 547.919 638.992 549.97 638.383 552.022 C 637.773 554.074 637.164 556.126 635.945 556.126 C 634.729 556.126 634.119 553.42 633.509 550.714 C 632.898 548.008 632.287 545.302 631.066 545.302 C 629.846 545.302 629.235 547.972 628.624 550.642 C 628.013 553.312 627.4 555.982 626.176 555.982 C 624.961 555.982 624.354 556.809 623.746 557.636 C 623.138 558.463 622.529 559.29 621.313 559.29 C 620.088 559.29 619.476 558.479 618.864 557.667 C 618.252 556.856 617.641 556.044 616.418 556.044 C 615.199 556.044 614.59 553.718 613.98 551.392 C 613.37 549.066 612.76 546.739 611.539 546.739 C 610.315 546.739 608.389 549.098 606.648 551.175 C 604.908 553.253 603.354 555.05 602.871 553.927 C 602.371 552.759 602.431 550.819 602.815 548.925 C 603.199 547.031 603.908 545.183 604.707 544.196 C 605.508 543.21 606.679 543.343 607.849 543.476 C 609.019 543.609 610.189 543.741 610.988 542.755 C 611.787 541.769 613.754 542.547 615.72 543.326 C 617.686 544.105 619.652 544.884 620.449 543.899 C 621.246 542.919 619.422 540.625 617.597 538.331 C 615.772 536.037 613.947 533.743 614.742 532.762 C 615.533 531.788 617.302 532.413 619.071 533.038 C 620.84 533.663 622.609 534.288 623.402 533.313 C 624.197 532.333 624.027 531.383 623.857 530.433 C 623.688 529.483 623.518 528.534 624.312 527.555 C 625.107 526.575 625.556 526.126 626.004 525.677 C 626.452 525.228 626.9 524.78 627.695 523.802 C 628.488 522.821 628.083 521.681 627.678 520.54 C 627.273 519.399 626.869 518.259 627.664 517.278 C 628.457 516.3 630.721 517.322 632.985 518.345 C 635.248 519.368 637.512 520.391 638.305 519.415 C 639.1 518.434 639.225 517.723 639.349 517.013 C 639.474 516.303 639.598 515.595 640.391 514.618 C 641.186 513.639 639.883 511.771 638.58 509.903 C 637.278 508.035 635.975 506.167 636.77 505.188 C 637.561 504.212 638.214 503.932 638.867 503.654 C 639.521 503.376 640.174 503.098 640.965 502.126 C 641.752 501.151 642.444 500.903 643.136 500.656 C 643.828 500.408 644.52 500.161 645.309 499.188 C 646.1 498.216 646.512 497.741 646.924 497.266 C 647.336 496.791 647.748 496.315 648.539 495.341 C 649.333 494.36 651.804 495.553 654.277 496.745 C 656.749 497.938 659.222 499.132 660.016 498.153 C 660.809 497.174 659.12 494.995 657.43 492.816 C 655.741 490.636 654.052 488.458 654.845 487.481 C 655.637 486.503 656.526 486.411 657.414 486.32 C 658.303 486.229 659.19 486.139 659.981 485.165 C 660.776 484.188 661.823 484.225 662.869 484.262 C 663.916 484.299 664.962 484.337 665.755 483.36 C 666.548 482.384 664.991 480.311 663.435 478.239 C 661.879 476.167 660.323 474.095 661.118 473.118 C 661.909 472.137 662.613 471.898 663.318 471.66 C 664.022 471.422 664.727 471.184 665.52 470.208 C 666.311 469.233 668.244 469.99 670.176 470.747 C 672.109 471.504 674.042 472.26 674.833 471.286 C 675.626 470.309 676.513 470.218 677.401 470.126 C 678.288 470.035 679.175 469.944 679.966 468.969 C 680.757 467.991 681.45 467.742 682.144 467.493 C 682.838 467.245 683.532 466.997 684.325 466.02 C 685.12 465.042 684.937 464.083 684.754 463.124 C 684.571 462.166 684.387 461.208 685.18 460.231 C 685.971 459.255 685.413 457.993 684.854 456.732 C 684.296 455.47 683.737 454.21 684.528 453.235 C 685.319 452.26 686.426 452.348 687.532 452.437 C 688.638 452.525 689.745 452.614 690.536 451.641 C 691.327 450.667 690.176 448.924 689.024 447.183 C 687.873 445.441 686.721 443.7 687.512 442.727 C 688.303 441.753 690.901 443.049 693.499 444.346 C 696.097 445.643 698.694 446.94 699.485 445.965 C 699.917 445.43 699.668 444.586 699.109 443.599 C 698.55 442.613 697.681 441.485 696.872 440.383 C 696.855 440.385 696.839 440.394 696.823 440.403 C 696.807 440.411 696.79 440.419 696.771 440.419 C 695.509 440.419 694.878 439.549 694.248 438.68 C 693.618 437.811 692.989 436.942 691.732 436.942 C 690.474 436.942 689.845 436.655 689.216 436.368 C 688.588 436.081 687.96 435.794 686.704 435.794 C 685.448 435.794 684.82 435.787 684.193 435.78 C 683.566 435.773 682.939 435.766 681.685 435.766 C 680.427 435.766 679.798 433.851 679.17 431.936 C 678.541 430.021 677.913 428.106 676.657 428.106 C 675.402 428.106 674.774 428.414 674.146 428.721 C 673.518 429.029 672.89 429.337 671.634 429.337 C 670.38 429.337 669.753 431.522 669.127 433.708 C 668.5 435.893 667.874 438.079 666.622 438.079 C 665.365 438.079 664.736 435.837 664.108 433.594 C 663.48 431.352 662.853 429.11 661.599 429.11 C 660.347 429.11 659.721 430.715 659.095 432.321 C 658.469 433.926 657.843 435.532 656.591 435.532 C 655.337 435.532 654.71 433.989 654.084 432.446 C 653.458 430.903 652.833 429.36 651.583 429.36 C 650.329 429.36 648.768 431.58 647.388 433.515 C 646.008 435.45 644.81 437.1 644.282 435.962 C 643.751 434.813 643.499 433.066 643.58 431.36 C 643.66 429.654 644.073 427.989 644.872 427.005 C 645.669 426.022 646.62 425.98 647.572 425.938 C 648.524 425.895 649.476 425.852 650.275 424.868 C 651.07 423.889 651.24 423.216 651.412 422.542 C 651.583 421.868 651.755 421.194 652.552 420.216 C 653.343 419.237 655.047 419.806 656.752 420.376 C 658.457 420.945 660.163 421.514 660.958 420.536 C 661.745 419.561 661.462 418.525 661.179 417.489 C 660.897 416.453 660.614 415.417 661.403 414.442 C 662.198 413.466 662.659 413.027 663.12 412.589 C 663.58 412.15 664.04 411.712 664.833 410.735 C 665.624 409.759 666.443 409.611 667.261 409.464 C 668.08 409.317 668.9 409.171 669.693 408.196 C 670.485 407.217 671.689 407.382 672.892 407.546 C 674.095 407.711 675.298 407.876 676.091 406.899 C 676.884 405.924 676.364 404.695 675.844 403.465 C 675.324 402.235 674.804 401.005 675.595 400.028 C 676.384 399.053 675.643 397.645 674.902 396.237 C 674.161 394.829 673.421 393.421 674.212 392.446 C 675.005 391.467 677.615 392.772 680.226 394.077 C 682.836 395.382 685.446 396.688 686.239 395.712 C 687.028 394.739 685.455 392.657 683.882 390.575 C 682.308 388.493 680.735 386.411 681.524 385.439 C 682.311 384.47 683.445 384.585 684.579 384.7 C 685.713 384.815 686.847 384.929 687.634 383.958 C 688.421 382.985 689.569 383.109 690.718 383.233 C 691.867 383.358 693.017 383.482 693.806 382.509 C 694.595 381.534 694.487 380.639 694.38 379.743 C 694.273 378.848 694.167 377.952 694.958 376.978 C 695.749 376.005 695.165 374.724 694.581 373.442 C 693.997 372.16 693.413 370.878 694.204 369.903 C 694.993 368.929 695.979 368.92 696.966 368.911 C 697.953 368.902 698.94 368.894 699.731 367.919 C 700.522 366.946 700.459 366.087 700.395 365.227 C 700.332 364.367 700.268 363.507 701.059 362.532 C 701.852 361.558 702.063 360.92 702.274 360.282 C 702.484 359.644 702.694 359.005 703.485 358.028 C 704.278 357.056 704.994 356.828 705.709 356.601 C 706.425 356.373 707.139 356.146 707.93 355.173 C 708.719 354.198 709.055 353.664 709.392 353.131 C 709.728 352.597 710.065 352.064 710.856 351.091 C 711.645 350.116 712.681 350.148 713.718 350.179 C 714.754 350.211 715.79 350.243 716.579 349.271 C 717.368 348.292 716.412 346.708 715.456 345.126 C 714.501 343.543 713.546 341.962 714.337 340.989 C 715.128 340.011 717.742 341.32 720.356 342.63 C 722.97 343.94 725.585 345.251 726.376 344.279 C 727.167 343.304 726.282 341.78 725.397 340.256 C 724.513 338.733 723.628 337.21 724.419 336.239 C 725.206 335.267 725.762 334.91 726.318 334.554 C 726.874 334.197 727.43 333.841 728.22 332.868 C 729.007 331.894 729.398 331.405 729.79 330.916 C 730.181 330.428 730.573 329.941 731.36 328.97 C 732.149 327.999 732.671 327.615 733.192 327.231 C 733.714 326.847 734.235 326.462 735.024 325.489 C 735.811 324.515 737.419 325.011 739.027 325.508 C 740.636 326.004 742.245 326.501 743.036 325.529 C 743.827 324.554 744.251 324.089 744.675 323.624 C 745.098 323.159 745.522 322.695 746.313 321.72 C 747.102 320.747 746.482 319.439 745.862 318.13 C 745.242 316.821 744.622 315.511 745.411 314.536 C 746.2 313.566 746.503 313.004 746.805 312.443 C 747.108 311.881 747.411 311.32 748.2 310.349 C 748.987 309.376 750.16 309.522 751.333 309.668 C 752.506 309.814 753.679 309.96 754.466 308.989 C 755.253 308.019 753.384 305.699 751.514 303.38 C 749.645 301.062 747.776 298.743 748.563 297.774 C 749.35 296.802 750.364 296.817 751.378 296.834 C 752.391 296.851 753.405 296.868 754.192 295.899 C 754.977 294.931 757.047 295.805 759.117 296.679 C 761.186 297.553 763.257 298.427 764.044 297.458 C 764.829 296.485 765.006 295.823 765.183 295.162 C 765.36 294.501 765.538 293.841 766.325 292.872 C 767.112 291.899 766.977 290.985 766.843 290.072 C 766.709 289.158 766.575 288.245 767.364 287.274 C 768.151 286.302 768.139 285.213 768.242 284.369 C 768.346 283.525 768.565 282.927 769.817 282.935 C 771.085 282.946 770.63 284.101 770.057 285.498 C 769.485 286.896 768.796 288.536 769.595 289.521 C 770.391 290.501 771.952 290.05 773.512 289.6 C 775.073 289.149 776.634 288.7 777.43 289.685 C 778.223 290.665 777.47 292.088 776.718 293.51 C 775.966 294.933 775.214 296.355 776.009 297.333 C 776.802 298.312 777.215 298.789 777.628 299.267 C 778.041 299.744 778.454 300.222 779.247 301.2 C 780.036 302.173 781.91 301.462 783.784 300.751 C 785.658 300.04 787.532 299.329 788.321 300.302 C 789.116 301.282 789.87 301.484 790.623 301.686 C 791.377 301.887 792.13 302.087 792.923 303.063 C 793.716 304.042 793.078 305.369 792.44 306.695 C 791.802 308.021 791.163 309.347 791.954 310.321 C 792.747 311.302 792.514 312.303 792.282 313.303 C 792.05 314.303 791.817 315.302 792.61 316.278 C 793.401 317.253 794.965 316.795 796.529 316.337 C 798.093 315.879 799.657 315.421 800.45 316.395 C 801.239 317.368 801.403 318.043 801.567 318.718 C 801.731 319.392 801.895 320.067 802.684 321.04 C 803.477 322.02 803.502 322.812 803.526 323.603 C 803.551 324.394 803.575 325.184 804.368 326.161 C 805.157 327.134 806.156 327.131 807.155 327.127 C 808.154 327.124 809.153 327.12 809.942 328.091 C 810.729 329.063 811.384 329.339 812.038 329.614 C 812.693 329.889 813.348 330.163 814.137 331.134 C 814.926 332.104 815.226 332.667 815.526 333.23 C 815.826 333.793 816.126 334.356 816.915 335.329 C 817.706 336.305 816.009 338.491 814.312 340.676 C 812.615 342.861 810.919 345.045 811.712 346.02 C 812.501 346.995 814.781 345.954 817.062 344.913 C 819.342 343.872 821.624 342.831 822.415 343.805 C 823.204 344.78 823.769 345.13 824.335 345.479 C 824.9 345.828 825.465 346.176 826.254 347.149 C 827.047 348.124 827.501 348.565 827.953 349.006 C 828.406 349.448 828.858 349.889 829.649 350.864 C 830.442 351.84 831.079 352.134 831.715 352.428 C 832.351 352.721 832.987 353.014 833.778 353.989 C 834.569 354.963 833.71 356.467 832.852 357.971 C 831.993 359.474 831.133 360.977 831.922 361.95 C 832.713 362.924 832.069 364.253 831.424 365.582 C 830.779 366.911 830.133 368.239 830.922 369.211 C 831.713 370.188 833.424 369.611 835.135 369.033 C 836.846 368.455 838.557 367.876 839.348 368.848 C 840.137 369.827 840.946 369.98 841.755 370.132 C 842.564 370.285 843.374 370.436 844.165 371.411 C 844.954 372.387 845.139 373.046 845.325 373.705 C 845.511 374.363 845.698 375.02 846.489 375.993 C 847.28 376.967 848.08 377.126 848.879 377.285 C 849.678 377.444 850.477 377.602 851.266 378.575 C 852.055 379.547 853.262 379.375 854.469 379.203 C 855.676 379.031 856.883 378.858 857.672 379.829 C 858.461 380.8 856.681 383.049 854.901 385.298 C 853.12 387.547 851.34 389.796 852.129 390.767 C 852.918 391.741 853.615 391.983 854.311 392.225 C 855.007 392.467 855.703 392.708 856.493 393.681 C 857.284 394.653 858.638 394.363 859.993 394.073 C 861.347 393.783 862.702 393.493 863.493 394.466 C 864.284 395.44 863.096 397.211 861.909 398.981 C 860.721 400.752 859.534 402.522 860.325 403.497 C 861.112 404.472 862.801 403.909 864.492 403.346 C 866.182 402.783 867.873 402.22 868.664 403.192 C 869.451 404.163 870.372 404.223 871.294 404.282 C 872.215 404.342 873.137 404.401 873.926 405.372 C 874.711 406.345 873.326 408.271 871.941 410.198 C 870.556 412.124 869.172 414.05 869.961 415.02 C 870.746 415.993 872.487 415.388 874.227 414.781 C 875.968 414.175 877.709 413.567 878.496 414.536 C 879.284 415.507 879.119 416.444 878.953 417.382 C 878.788 418.319 878.623 419.257 879.41 420.227 C 880.198 421.2 881.038 421.324 881.879 421.447 C 882.72 421.57 883.561 421.692 884.348 422.661 C 885.133 423.632 884.423 425.012 883.714 426.391 C 883.004 427.77 882.295 429.149 883.082 430.118 C 883.869 431.091 884.555 431.341 885.241 431.59 C 885.926 431.839 886.612 432.087 887.399 433.056 C 888.186 434.03 890.008 433.994 891.496 433.996 C 892.985 433.999 894.139 434.04 893.59 435.169 C 893.041 436.304 892.279 438.007 891.339 439.426 C 890.399 440.846 889.282 441.981 888.024 441.981 C 886.762 441.981 886.131 439.852 885.501 437.724 C 884.87 435.595 884.241 433.466 882.981 433.466 C 881.723 433.466 881.094 434.484 880.466 435.503 C 879.837 436.521 879.209 437.54 877.953 437.54 C 876.698 437.54 876.07 436.524 875.442 435.509 C 874.815 434.493 874.188 433.477 872.934 433.477 C 871.678 433.477 871.05 432.177 870.422 430.876 C 869.794 429.575 869.166 428.274 867.911 428.274 C 866.653 428.274 866.024 430.976 865.396 433.677 C 864.768 436.378 864.141 439.079 862.887 439.079 C 861.633 439.079 861.006 439.139 860.38 439.199 C 859.753 439.258 859.127 439.318 857.875 439.318 C 856.62 439.318 855.992 437.509 855.364 435.7 C 854.736 433.892 854.108 432.083 852.852 432.083 C 851.6 432.083 850.974 432.656 850.349 433.23 C 849.723 433.803 849.098 434.376 847.848 434.376 C 846.594 434.376 845.967 432.881 845.341 431.386 C 844.715 429.891 844.09 428.396 842.84 428.396 C 841.586 428.396 841.305 429.783 841.206 431.456 C 841.107 433.128 841.19 435.085 840.665 436.224 C 840.131 437.376 839.088 438.135 838.379 438.852 C 837.669 439.57 837.293 440.245 838.094 441.232 C 838.893 442.218 838.583 443.286 838.272 444.354 C 837.961 445.422 837.651 446.489 838.45 447.474 C 839.249 448.462 842.559 446.596 845.869 444.729 C 849.179 442.862 852.489 440.993 853.286 441.978 C 854.081 442.958 853.16 444.518 852.239 446.077 C 851.318 447.637 850.397 449.196 851.192 450.177 C 851.987 451.154 851.439 452.408 850.89 453.663 C 850.341 454.917 849.792 456.171 850.583 457.146 C 851.379 458.124 853.772 456.998 856.164 455.873 C 858.556 454.747 860.948 453.622 861.743 454.603 C 862.537 455.581 861.335 457.366 860.133 459.152 C 858.931 460.937 857.729 462.722 858.524 463.7 C 859.319 464.681 860.995 464.136 862.671 463.591 C 864.347 463.046 866.024 462.501 866.821 463.482 C 867.612 464.458 866.772 465.948 865.933 467.437 C 865.093 468.926 864.254 470.415 865.047 471.392 C 865.84 472.37 865.999 473.054 866.157 473.737 C 866.315 474.42 866.473 475.103 867.266 476.079 C 868.061 477.062 869.605 476.623 871.149 476.184 C 872.693 475.744 874.237 475.304 875.032 476.283 C 875.825 477.255 876.904 477.189 877.982 477.123 C 879.061 477.057 880.139 476.992 880.93 477.966 C 881.719 478.943 881.111 480.243 880.503 481.543 C 879.895 482.843 879.288 484.142 880.079 485.115 C 880.868 486.093 881.295 486.555 881.724 487.016 C 882.152 487.477 882.581 487.937 883.372 488.911 C 884.164 489.888 883.787 491.005 883.409 492.122 C 883.031 493.24 882.653 494.357 883.446 495.333 C 884.239 496.312 884.017 497.303 883.795 498.294 C 883.574 499.285 883.352 500.275 884.145 501.251 C 884.938 502.228 887.744 500.764 890.55 499.3 C 893.355 497.835 896.161 496.371 896.954 497.345 C 897.745 498.324 896.878 499.837 896.011 501.351 C 895.144 502.865 894.278 504.378 895.071 505.357 C 895.864 506.335 896.478 506.649 897.093 506.962 C 897.707 507.275 898.321 507.587 899.114 508.564 C 899.903 509.54 899.461 510.708 899.019 511.876 C 898.577 513.043 898.136 514.21 898.927 515.185 C 899.718 516.163 901.72 515.352 903.722 514.539 C 905.724 513.727 907.725 512.913 908.516 513.888 C 909.309 514.868 907.66 517.016 906.011 519.162 C 904.361 521.308 902.712 523.452 903.505 524.427 C 904.298 525.404 907.068 523.968 909.839 522.533 C 912.609 521.098 915.38 519.663 916.173 520.642 C 916.966 521.616 916.908 522.473 916.851 523.329 C 916.793 524.186 916.735 525.042 917.528 526.017 C 918.319 526.991 919.19 527.095 920.062 527.198 C 920.934 527.302 921.806 527.406 922.599 528.38 C 923.388 529.353 921.659 531.561 919.931 533.768 C 918.202 535.976 916.474 538.184 917.263 539.157 C 918.054 540.132 920.236 539.173 922.417 538.214 C 924.599 537.255 926.781 536.296 927.572 537.27 C 928.304 538.171 927.218 539.863 925.995 541.615 C 924.772 543.367 923.411 545.179 923.595 546.317 C 923.519 546.315 923.447 546.314 923.371 546.314 C 923.295 546.313 923.216 546.313 923.126 546.313 C 921.9 546.313 921.287 547.754 920.674 549.194 C 920.061 550.635 919.449 552.075 918.224 552.075 C 917.001 552.075 916.39 553.495 915.778 554.915 C 915.166 556.335 914.554 557.755 913.33 557.755 C 912.103 557.755 911.49 556.355 910.877 554.956 C 910.264 553.557 909.652 552.157 908.427 552.157 C 907.203 552.157 906.59 553.729 905.979 555.302 C 905.367 556.874 904.755 558.446 903.533 558.446 C 902.312 558.446 901.702 557.734 901.091 557.022 C 900.48 556.31 899.869 555.598 898.646 555.598 C 897.421 555.598 896.809 554.607 896.197 553.616 C 895.585 552.625 894.972 551.634 893.748 551.634 C 892.529 551.634 891.92 551.675 891.31 551.716 C 890.701 551.757 890.091 551.798 888.873 551.798 C 887.656 551.798 887.046 550.496 886.436 549.194 C 885.826 547.892 885.214 546.591 883.994 546.591 C 882.773 546.591 882.163 547.818 881.551 549.046 C 880.94 550.273 880.328 551.501 879.103 551.501 C 877.89 551.501 877.284 551.645 876.676 551.79 C 876.068 551.935 875.459 552.079 874.24 552.079 C 873.017 552.079 872.406 552.729 871.794 553.38 C 871.182 554.03 870.57 554.681 869.345 554.681 C 868.127 554.681 867.517 554.848 866.907 555.015 C 866.297 555.182 865.687 555.349 864.466 555.349 C 864.318 555.349 864.193 555.337 864.087 555.315 C 863.981 555.294 863.894 555.263 863.822 555.224 C 862.787 556.216 860.827 557.14 859.303 558.034 C 857.779 558.928 856.691 559.792 857.4 560.665 C 858.203 561.657 858.822 561.976 859.44 562.293 C 860.059 562.611 860.677 562.929 861.478 563.919 C 862.281 564.907 864.421 563.992 866.561 563.077 C 868.701 562.162 870.839 561.247 871.638 562.235 C 872.435 563.22 872.272 564.168 872.11 565.117 C 871.948 566.065 871.787 567.015 872.587 568.001 C 873.38 568.979 873.9 569.371 874.42 569.763 C 874.94 570.155 875.46 570.548 876.255 571.528 C 877.054 572.511 878.091 572.484 879.128 572.458 C 880.165 572.433 881.203 572.407 882.001 573.392 C 882.802 574.376 882.87 575.137 882.936 575.897 C 883.003 576.658 883.07 577.419 883.869 578.403 C 884.667 579.386 884.78 580.11 884.892 580.836 C 885.003 581.561 885.115 582.288 885.912 583.274 C 886.709 584.257 885.856 585.762 885.003 587.266 C 884.151 588.77 883.298 590.274 884.095 591.255 C 884.892 592.237 885.684 592.41 886.475 592.582 C 887.266 592.755 888.056 592.927 888.849 593.907 C 889.648 594.893 891.717 594.032 893.787 593.17 C 895.856 592.308 897.925 591.446 898.724 592.431 C 899.519 593.409 899.772 594.016 900.025 594.624 C 900.278 595.231 900.531 595.839 901.326 596.817 C 902.119 597.794 901.954 598.738 901.789 599.683 C 901.624 600.627 901.459 601.571 902.252 602.548 C 903.046 603.528 903.455 604.011 903.863 604.493 C 904.271 604.974 904.679 605.456 905.474 606.434 C 906.271 607.417 907.515 607.223 908.759 607.028 C 910.003 606.833 911.248 606.638 912.045 607.618 C 912.839 608.6 912.98 609.302 913.121 610.002 C 913.262 610.703 913.404 611.403 914.201 612.384 C 914.994 613.364 915.136 614.062 915.279 614.76 C 915.421 615.458 915.564 616.155 916.357 617.134 C 917.154 618.118 917.416 618.72 917.679 619.32 C 917.942 619.921 918.205 620.52 919.001 621.501 C 919.798 622.485 919.371 623.647 918.943 624.808 C 918.515 625.97 918.087 627.13 918.884 628.11 C 919.679 629.091 919.931 629.699 920.183 630.307 C 920.435 630.916 920.687 631.524 921.482 632.505 C 922.21 633.403 922.859 633.692 923.501 633.931 C 924.143 634.17 924.779 634.358 925.482 635.056 C 925.666 634.909 925.857 634.744 926.06 634.549 C 926.263 634.353 926.478 634.128 926.709 633.86 C 927.74 632.665 927.111 631.078 926.482 629.491 C 925.853 627.904 925.224 626.317 926.255 625.122 C 927.285 623.929 927.529 623.099 927.773 622.268 C 928.017 621.438 928.261 620.608 929.291 619.415 C 930.324 618.222 931.544 618.231 932.763 618.241 C 933.982 618.25 935.201 618.259 936.232 617.063 C 937.263 615.872 938.384 615.8 939.505 615.727 C 940.626 615.654 941.746 615.581 942.775 614.388 C 943.804 613.196 943.75 612.109 943.695 611.022 C 943.64 609.934 943.585 608.846 944.615 607.653 C 945.646 606.462 946.706 606.334 947.765 606.205 C 948.824 606.077 949.882 605.948 950.912 604.755 C 951.941 603.565 952.428 602.947 952.915 602.329 C 953.402 601.711 953.888 601.093 954.916 599.903 C 955.945 598.714 956.01 597.731 956.075 596.749 C 956.14 595.766 956.205 594.784 957.232 593.595 C 958.259 592.403 958.063 591.194 957.867 589.985 C 957.671 588.776 957.476 587.567 958.505 586.376 C 959.529 585.188 960.694 585.159 961.859 585.13 C 963.025 585.1 964.191 585.071 965.216 583.884 C 966.24 582.696 967.294 582.572 968.349 582.448 C 969.404 582.325 970.458 582.202 971.482 581.016 C 972.509 579.827 973.079 579.279 973.648 578.731 C 974.217 578.183 974.787 577.635 975.814 576.446 C 976.843 575.255 975.963 573.456 975.083 571.657 C 974.204 569.858 973.324 568.059 974.353 566.868 C 975.382 565.676 976.939 565.981 978.496 566.286 C 980.052 566.592 981.609 566.897 982.638 565.708 C 983.664 564.518 984.023 563.791 984.383 563.064 C 984.743 562.337 985.103 561.61 986.13 560.423 C 987.158 559.229 988.64 559.469 990.123 559.71 C 991.605 559.951 993.087 560.192 994.115 559.001 C 995.144 557.811 996.258 556.206 996.939 554.546 C 997.619 552.886 997.865 551.172 997.158 549.766 C 996.431 548.313 994.969 547.367 993.282 546.784 C 991.595 546.201 989.683 545.981 988.056 545.981 C 986.431 545.981 985.619 547.544 984.806 549.106 C 983.993 550.669 983.179 552.231 981.552 552.231 C 979.929 552.231 979.118 552.959 978.306 553.686 C 977.495 554.414 976.683 555.141 975.06 555.141 C 973.443 555.141 972.634 554.232 971.825 553.323 C 971.015 552.414 970.205 551.505 968.583 551.505 C 966.962 551.505 966.152 552.816 965.341 554.128 C 964.53 555.439 963.718 556.751 962.095 556.751 C 960.474 556.751 959.664 555.127 958.853 553.503 C 958.042 551.879 957.232 550.255 955.611 550.255 C 955.273 550.255 955.016 550.267 954.816 550.287 C 954.617 550.307 954.474 550.335 954.365 550.364 C 954.435 550.28 954.483 550.139 954.483 549.935 C 954.484 549.731 954.437 549.464 954.318 549.126 C 954.542 549.301 954.801 549.416 955.09 549.387 C 955.378 549.358 955.697 549.186 956.041 548.79 C 957.06 547.61 957.134 546.645 957.208 545.68 C 957.283 544.715 957.357 543.751 958.376 542.571 C 959.392 541.393 960.206 541.067 961.019 540.741 C 961.833 540.416 962.646 540.09 963.662 538.915 C 964.677 537.739 963.831 535.981 962.984 534.224 C 962.137 532.466 961.291 530.71 962.306 529.536 C 963.322 528.358 963.719 527.675 964.117 526.993 C 964.515 526.31 964.914 525.628 965.931 524.45 C 966.947 523.272 969.133 524.135 971.32 524.997 C 973.506 525.86 975.693 526.723 976.708 525.548 C 977.722 524.376 978.143 523.716 978.564 523.055 C 978.984 522.394 979.405 521.733 980.419 520.559 C 981.435 519.383 981.043 518.017 980.651 516.651 C 980.259 515.285 979.866 513.919 980.88 512.743 C 981.894 511.571 982.578 511.139 983.262 510.708 C 983.946 510.276 984.63 509.844 985.642 508.673 C 986.653 507.503 986.68 506.505 986.706 505.506 C 986.732 504.508 986.759 503.509 987.771 502.337 C 988.786 501.161 989.102 500.407 989.417 499.653 C 989.733 498.899 990.048 498.145 991.064 496.969 C 992.073 495.801 992.76 495.376 993.446 494.949 C 994.133 494.523 994.819 494.096 995.829 492.926 C 996.839 491.759 997.445 491.262 998.051 490.766 C 998.657 490.269 999.263 489.772 1000.271 488.602 C 1001.284 487.428 1001.418 486.52 1001.552 485.613 C 1001.686 484.705 1001.819 483.798 1002.833 482.626 C 1003.845 481.452 1005.609 481.952 1007.374 482.452 C 1009.139 482.952 1010.903 483.452 1011.915 482.278 C 1012.929 481.106 1012.227 479.476 1011.524 477.846 C 1010.822 476.216 1010.12 474.585 1011.134 473.411 C 1012.146 472.239 1012.869 471.841 1013.593 471.444 C 1014.316 471.047 1015.04 470.649 1016.052 469.477 C 1017.066 468.303 1018.227 468.282 1019.388 468.261 C 1020.549 468.24 1021.71 468.219 1022.724 467.048 C 1023.737 465.872 1023.09 464.289 1022.442 462.706 C 1021.795 461.124 1021.148 459.542 1022.161 458.368 C 1023.173 457.198 1024.561 457.376 1025.948 457.553 C 1027.336 457.73 1028.724 457.907 1029.735 456.735 C 1030.745 455.565 1032.504 456.063 1034.263 456.561 C 1036.022 457.059 1037.78 457.557 1038.79 456.387 C 1039.802 455.217 1039.756 454.155 1039.71 453.092 C 1039.663 452.029 1039.616 450.965 1040.626 449.794 C 1041.64 448.62 1041.041 447.078 1040.442 445.536 C 1039.844 443.995 1039.245 442.454 1040.259 441.282 C 1041.271 440.11 1042.834 440.437 1044.397 440.764 C 1045.961 441.091 1047.524 441.419 1048.536 440.247 C 1049.546 439.077 1049.254 437.838 1049.096 436.895 C 1048.938 435.951 1048.915 435.301 1050.462 435.309 C 1052.021 435.317 1052.934 435.169 1053.712 435.315 C 1054.49 435.461 1055.134 435.901 1056.153 437.083 C 1057.171 438.262 1056.881 439.544 1056.591 440.825 C 1056.301 442.106 1056.011 443.387 1057.028 444.567 C 1058.046 445.745 1058.091 446.735 1058.136 447.725 C 1058.181 448.714 1058.226 449.704 1059.243 450.879 C 1060.257 452.055 1062.61 451.049 1064.962 450.043 C 1067.315 449.037 1069.667 448.03 1070.681 449.204 C 1071.699 450.381 1071.294 451.758 1070.89 453.135 C 1070.486 454.512 1070.081 455.889 1071.099 457.067 C 1072.113 458.243 1072.702 458.76 1073.29 459.278 C 1073.879 459.795 1074.468 460.313 1075.482 461.489 C 1076.496 462.661 1076.559 463.63 1076.622 464.601 C 1076.686 465.571 1076.749 466.542 1077.763 467.715 C 1078.779 468.889 1080.08 468.791 1081.38 468.692 C 1082.681 468.594 1083.982 468.497 1084.997 469.672 C 1086.011 470.844 1087.036 470.983 1088.059 471.122 C 1089.083 471.26 1090.107 471.399 1091.119 472.571 C 1092.132 473.743 1092.25 474.665 1092.368 475.586 C 1092.486 476.508 1092.603 477.43 1093.615 478.602 C 1094.628 479.776 1095.197 480.31 1095.765 480.844 C 1096.333 481.378 1096.902 481.913 1097.915 483.086 C 1098.925 484.256 1098.579 485.577 1098.232 486.897 C 1097.885 488.217 1097.539 489.538 1098.548 490.708 C 1099.556 491.876 1099.86 492.632 1100.164 493.389 C 1100.467 494.146 1100.771 494.903 1101.779 496.071 C 1102.792 497.243 1104.235 497.02 1105.677 496.797 C 1107.119 496.575 1108.56 496.352 1109.572 497.524 C 1110.585 498.7 1111.307 499.102 1112.029 499.504 C 1112.751 499.906 1113.472 500.307 1114.486 501.481 C 1115.498 502.651 1116.18 503.084 1116.863 503.519 C 1117.545 503.954 1118.228 504.389 1119.24 505.563 C 1120.252 506.737 1119.944 508.026 1119.636 509.314 C 1119.329 510.603 1119.021 511.891 1120.033 513.063 C 1121.044 514.237 1122.327 514.153 1123.609 514.069 C 1124.892 513.985 1126.175 513.901 1127.189 515.075 C 1128.201 516.245 1127.549 517.83 1126.898 519.415 C 1126.247 521 1125.595 522.586 1126.607 523.758 C 1127.619 524.93 1128.662 525.051 1129.705 525.172 C 1130.748 525.293 1131.791 525.414 1132.802 526.586 C 1133.814 527.756 1133.279 529.241 1132.744 530.725 C 1132.208 532.209 1131.673 533.694 1132.685 534.864 C 1133.697 536.034 1134.845 536.063 1135.994 536.092 C 1137.142 536.121 1138.291 536.151 1139.302 537.321 C 1140.316 538.495 1141.837 538.204 1143.359 537.914 C 1144.88 537.624 1146.402 537.334 1147.416 538.508 C 1148.427 539.68 1147.979 541.091 1147.531 542.502 C 1147.083 543.913 1146.634 545.325 1147.646 546.496 C 1148.656 547.668 1151.289 548.777 1153.489 549.934 C 1155.69 551.091 1157.459 552.297 1156.74 553.664 C 1155.982 555.102 1153.937 553.088 1151.675 550.715 C 1149.412 548.342 1146.933 545.61 1145.306 545.61 C 1143.681 545.61 1142.868 547.699 1142.055 549.788 C 1141.242 551.876 1140.429 553.965 1138.802 553.965 C 1137.181 553.965 1136.37 553.431 1135.559 552.897 C 1134.748 552.363 1133.937 551.829 1132.314 551.829 C 1130.694 551.829 1129.885 552.071 1129.075 552.313 C 1128.265 552.555 1127.454 552.797 1125.833 552.797 C 1124.212 552.797 1123.401 552.946 1122.59 553.094 C 1121.779 553.243 1120.968 553.391 1119.345 553.391 C 1117.724 553.391 1116.913 552.356 1116.103 551.321 C 1115.292 550.286 1114.482 549.25 1112.86 549.25 C 1111.242 549.25 1108.965 548.485 1106.916 548.083 C 1104.868 547.681 1103.046 547.643 1102.337 549.098 C 1101.644 550.524 1104.066 550.846 1106.92 551.111 C 1109.774 551.376 1113.06 551.584 1114.095 552.782 C 1115.129 553.981 1114.9 555.224 1114.672 556.467 C 1114.443 557.709 1114.215 558.952 1115.248 560.149 C 1116.279 561.344 1116.129 562.517 1115.978 563.69 C 1115.828 564.863 1115.677 566.036 1116.709 567.231 C 1117.74 568.424 1117.959 569.278 1118.177 570.131 C 1118.395 570.984 1118.613 571.836 1119.642 573.028 C 1120.672 574.223 1122.207 573.941 1123.742 573.659 C 1125.278 573.376 1126.814 573.094 1127.845 574.289 C 1128.877 575.479 1128.792 576.593 1128.707 577.709 C 1128.622 578.824 1128.537 579.94 1129.568 581.133 C 1130.593 582.325 1131.574 582.516 1132.555 582.708 C 1133.537 582.9 1134.519 583.092 1135.549 584.286 C 1136.578 585.479 1135.922 587.087 1135.266 588.696 C 1134.61 590.304 1133.955 591.913 1134.986 593.106 C 1136.013 594.293 1137.586 593.974 1139.158 593.655 C 1140.73 593.336 1142.302 593.018 1143.33 594.207 C 1144.355 595.399 1145.17 595.735 1145.985 596.07 C 1146.8 596.406 1147.615 596.741 1148.642 597.93 C 1149.67 599.122 1149.746 600.096 1149.823 601.071 C 1149.899 602.045 1149.976 603.02 1151.006 604.211 C 1152.033 605.399 1153.025 605.579 1154.016 605.758 C 1155.008 605.938 1155.998 606.118 1157.021 607.305 C 1158.043 608.493 1157.344 610.131 1156.647 611.77 C 1155.949 613.408 1155.252 615.045 1156.275 616.231 C 1157.302 617.419 1158.675 617.271 1160.047 617.124 C 1161.419 616.977 1162.791 616.831 1163.818 618.02 C 1164.847 619.211 1164.791 620.3 1164.734 621.389 C 1164.676 622.478 1164.619 623.567 1165.646 624.758 C 1166.676 625.95 1167.593 626.197 1168.511 626.443 C 1169.429 626.69 1170.347 626.936 1171.377 628.126 C 1172.402 629.315 1172.402 630.352 1172.402 631.389 C 1172.402 632.426 1172.402 633.463 1173.428 634.653 C 1174.457 635.842 1174.975 636.433 1175.494 637.024 C 1176.012 637.616 1176.531 638.208 1177.56 639.399 C 1178.59 640.59 1181.794 640.891 1184.592 641.258 C 1187.39 641.626 1189.783 642.059 1189.189 643.516 C 1188.619 644.918 1186.712 644.299 1184.569 643.33 C 1182.427 642.36 1180.049 641.04 1178.537 641.04 C 1177.024 641.04 1176.267 640.818 1175.51 640.596 C 1174.753 640.375 1173.996 640.153 1172.483 640.153 C 1170.971 640.153 1170.215 639.935 1169.46 639.717 C 1168.704 639.5 1167.949 639.282 1166.44 639.282 C 1164.934 639.282 1164.181 639.377 1163.427 639.471 C 1162.674 639.566 1161.92 639.661 1160.412 639.661 C 1158.904 639.661 1158.151 640.442 1157.396 641.223 C 1156.642 642.004 1155.887 642.786 1154.377 642.786 C 1152.869 642.786 1152.115 642.706 1151.362 642.626 C 1150.608 642.545 1149.854 642.465 1148.346 642.465 C 1146.84 642.465 1146.087 642.404 1145.334 642.342 C 1144.581 642.281 1143.828 642.219 1142.323 642.219 C 1140.815 642.219 1140.061 643.342 1139.307 644.465 C 1138.553 645.588 1137.799 646.711 1136.291 646.711 C 1134.789 646.711 1134.038 644.903 1133.287 643.094 C 1132.535 641.286 1131.784 639.477 1130.28 639.477 C 1128.778 639.477 1127.575 639.328 1126.598 639.524 C 1125.622 639.72 1124.873 640.262 1124.28 641.645 C 1123.676 643.057 1123.323 644.376 1123.371 645.632 C 1123.419 646.888 1123.869 648.083 1124.873 649.247 C 1125.877 650.411 1127.218 650.268 1128.559 650.125 C 1129.9 649.982 1131.241 649.838 1132.244 651.001 C 1133.244 652.163 1133.345 653.088 1133.446 654.014 C 1133.547 654.939 1133.649 655.864 1134.651 657.024 C 1135.651 658.18 1135.6 659.235 1135.549 660.29 C 1135.498 661.345 1135.448 662.401 1136.448 663.559 C 1137.448 664.717 1138.108 665.159 1138.768 665.601 C 1139.428 666.043 1140.088 666.485 1141.088 667.645 C 1142.09 668.799 1142.491 669.463 1142.89 670.129 C 1143.29 670.794 1143.69 671.46 1144.69 672.618 C 1145.69 673.774 1147.862 672.909 1150.034 672.044 C 1152.206 671.178 1154.378 670.313 1155.378 671.469 C 1156.378 672.629 1155.109 674.736 1153.841 676.842 C 1152.573 678.949 1151.306 681.055 1152.307 682.215 C 1153.303 683.37 1155.823 682.202 1158.342 681.034 C 1160.862 679.866 1163.381 678.698 1164.377 679.852 C 1165.374 681.008 1164.94 682.391 1164.507 683.773 C 1164.074 685.156 1163.641 686.538 1164.639 687.692 C 1165.639 688.848 1165.943 689.595 1166.247 690.343 C 1166.55 691.09 1166.854 691.838 1167.854 692.997 C 1168.85 694.147 1169.464 694.622 1170.079 695.097 C 1170.693 695.572 1171.307 696.047 1172.303 697.2 C 1173.297 698.348 1174.304 698.483 1175.311 698.618 C 1176.318 698.752 1177.325 698.887 1178.319 700.036 C 1179.317 701.19 1179.274 702.235 1179.231 703.28 C 1179.188 704.326 1179.145 705.372 1180.143 706.528 C 1181.141 707.684 1181.426 708.447 1181.711 709.209 C 1181.997 709.972 1182.282 710.735 1183.28 711.891 C 1184.278 713.045 1185.32 713.154 1186.362 713.263 C 1187.404 713.372 1188.446 713.481 1189.444 714.637 C 1190.44 715.791 1190.356 716.873 1190.272 717.954 C 1190.188 719.035 1190.104 720.116 1191.1 721.27 Z M 926.535 638.627 C 926.061 638.933 925.682 639.343 925.301 639.755 C 925.141 640.212 925.026 640.659 925.026 641.085 C 925.026 641.512 925.141 641.917 925.442 642.29 C 926.238 643.27 927.659 642.933 929.08 642.595 C 930.501 642.257 931.922 641.919 932.719 642.899 C 933.514 643.88 934.211 644.128 934.908 644.376 C 935.606 644.624 936.303 644.872 937.098 645.852 C 937.895 646.833 938.89 646.84 939.884 646.846 C 940.879 646.852 941.873 646.858 942.668 647.837 C 943.461 648.813 944.302 648.943 945.143 649.073 C 945.983 649.203 946.824 649.333 947.617 650.31 C 948.414 651.288 946.715 653.476 945.015 655.664 C 943.316 657.852 941.615 660.04 942.41 661.017 C 943.205 661.995 944.982 661.367 946.757 660.739 C 948.533 660.111 950.309 659.483 951.102 660.462 C 951.276 660.681 951.492 660.922 951.736 661.18 C 951.981 661.437 952.252 661.712 952.535 661.997 C 952.563 661.888 952.579 661.772 952.608 661.662 C 952.637 661.552 952.678 661.446 952.754 661.356 C 953.752 660.202 954.903 660.187 956.055 660.172 C 957.206 660.157 958.358 660.142 959.356 658.985 C 960.352 657.829 960.423 656.882 960.495 655.935 C 960.566 654.988 960.639 654.042 961.637 652.888 C 962.631 651.731 962.843 650.907 963.056 650.083 C 963.269 649.26 963.483 648.436 964.481 647.282 C 965.479 646.126 966.679 646.153 967.879 646.181 C 969.079 646.208 970.279 646.235 971.277 645.079 C 972.274 643.925 975.037 643.267 977.397 642.55 C 979.756 641.833 981.711 641.056 981.09 639.661 C 980.473 638.278 978.603 639.097 976.509 640.263 C 974.415 641.428 972.098 642.938 970.586 642.938 C 969.072 642.938 968.315 643.307 967.559 643.677 C 966.802 644.046 966.045 644.415 964.531 644.415 C 963.02 644.415 962.264 643.032 961.508 641.649 C 960.753 640.267 959.998 638.884 958.488 638.884 C 956.982 638.884 956.23 639.496 955.476 640.108 C 954.723 640.721 953.969 641.333 952.461 641.333 C 950.953 641.333 950.199 642.551 949.445 643.768 C 948.69 644.986 947.936 646.204 946.426 646.204 C 944.918 646.204 944.164 644.962 943.41 643.72 C 942.656 642.477 941.902 641.235 940.395 641.235 C 938.889 641.235 938.136 640.256 937.383 639.276 C 936.63 638.297 935.877 637.317 934.371 637.317 C 932.863 637.317 932.11 637.517 931.356 637.718 C 930.602 637.918 929.848 638.118 928.34 638.118 C 927.578 638.118 927.009 638.321 926.535 638.627 Z M 953.92 670.676 C 953.173 671.121 952.303 671.512 951.364 671.805 C 952.337 672.206 953.277 672.553 954.082 672.677 C 954.886 672.8 955.555 672.7 955.985 672.204 C 956.288 671.854 956.369 671.411 956.302 670.904 C 956.236 670.398 956.022 669.829 955.735 669.227 C 955.29 669.733 954.667 670.231 953.92 670.676 Z M 791.986 660.842 L 791.987 660.841 C 791.686 660.841 791.423 660.948 791.178 661.134 C 790.933 661.319 790.706 661.583 790.475 661.895 L 790.475 828.435 C 790.567 828.449 790.65 828.464 790.74 828.475 C 790.831 828.486 790.928 828.494 791.049 828.494 C 791.868 828.494 792.277 831.152 792.687 833.81 C 793.096 836.469 793.506 839.127 794.327 839.127 C 795.147 839.127 795.557 835.315 795.968 831.504 C 796.378 827.692 796.79 823.881 797.612 823.881 C 798.434 823.881 798.845 827.007 799.256 830.133 C 799.667 833.259 800.077 836.385 800.897 836.385 C 801.717 836.385 802.128 834.566 802.538 832.746 C 802.949 830.927 803.36 829.108 804.182 829.108 C 805.003 829.108 805.413 829.413 805.823 829.719 C 806.233 830.025 806.643 830.33 807.463 830.33 C 808.284 830.33 808.694 830.198 809.104 830.065 C 809.514 829.932 809.924 829.799 810.745 829.799 C 811.565 829.799 811.975 828.99 812.385 828.18 C 812.795 827.37 813.206 826.561 814.026 826.561 C 814.846 826.561 815.256 826.166 815.666 825.772 C 816.077 825.377 816.487 824.983 817.307 824.983 C 818.127 824.983 818.538 825.397 818.947 825.811 C 819.357 826.225 819.766 826.639 820.584 826.639 C 821.403 826.639 821.812 826.514 822.222 826.389 C 822.631 826.264 823.041 826.139 823.862 826.139 C 824.682 826.139 825.092 825.829 825.502 825.52 C 825.911 825.21 826.321 824.901 827.139 824.901 C 827.955 824.901 828.364 827.157 828.773 829.414 C 829.182 831.671 829.592 833.928 830.412 833.928 C 831.233 833.928 831.642 834.881 832.051 835.834 C 832.46 836.787 832.869 837.74 833.69 837.74 C 834.508 837.74 834.917 836.028 835.326 834.317 C 835.736 832.605 836.145 830.893 836.963 830.893 C 837.781 830.893 838.191 829.717 838.6 828.541 C 839.01 827.365 839.42 826.19 840.24 826.19 C 841.059 826.19 841.468 829.321 841.877 832.453 C 842.286 835.585 842.695 838.717 843.514 838.717 C 844.332 838.717 844.741 838.697 845.151 838.678 C 845.56 838.658 845.969 838.638 846.787 838.638 C 847.608 838.638 848.018 839.105 848.427 839.572 C 848.837 840.039 849.246 840.506 850.065 840.506 C 850.883 840.506 851.291 836.852 851.7 833.199 C 852.108 829.546 852.518 825.893 853.338 825.893 C 854.156 825.893 854.565 829.584 854.975 833.276 C 855.385 836.967 855.795 840.659 856.615 840.659 C 857.434 840.659 857.843 837.648 858.252 834.637 C 858.661 831.626 859.07 828.616 859.889 828.616 C 860.709 828.616 861.119 830.458 861.529 832.301 C 861.938 834.144 862.348 835.987 863.166 835.987 C 863.982 835.987 864.391 834.858 864.8 833.729 C 865.209 832.6 865.619 831.471 866.439 831.471 C 867.26 831.471 867.669 831.323 868.078 831.174 C 868.488 831.026 868.898 830.877 869.721 830.877 C 870.541 830.877 870.951 832.903 871.361 834.928 C 871.77 836.954 872.179 838.979 872.998 838.979 C 873.82 838.979 874.231 838.474 874.642 837.969 C 875.053 837.464 875.463 836.96 876.283 836.96 C 877.103 836.96 877.513 834.115 877.924 831.27 C 878.334 828.425 878.744 825.581 879.564 825.581 C 880.385 825.581 880.795 829.237 881.205 832.893 C 881.616 836.549 882.027 840.206 882.849 840.206 C 883.672 840.206 884.083 840.291 884.494 840.377 C 884.904 840.463 885.314 840.549 886.135 840.549 C 886.957 840.549 887.368 836.418 887.779 832.286 C 888.19 828.154 888.601 824.022 889.424 824.022 C 890.109 824.022 890.51 826.765 890.863 829.961 C 891.217 833.157 891.523 836.808 892.021 838.624 L 892.021 767.8 L 917.513 767.8 L 917.513 837.163 C 917.691 837.82 917.879 838.435 918.109 838.886 C 918.339 839.337 918.611 839.624 918.959 839.624 C 919.779 839.624 920.189 838.485 920.599 837.345 C 921.009 836.205 921.42 835.066 922.24 835.066 C 923.06 835.066 923.469 832.344 923.879 829.622 C 924.289 826.9 924.699 824.179 925.521 824.179 C 926.341 824.179 926.752 824.764 927.162 825.348 C 927.572 825.933 927.982 826.518 928.802 826.518 C 929.623 826.518 930.033 827.346 930.443 828.173 C 930.853 829 931.263 829.827 932.084 829.827 C 932.904 829.827 933.314 829.47 933.724 829.112 C 934.134 828.755 934.544 828.397 935.365 828.397 C 936.185 828.397 936.595 830.208 937.005 832.018 C 937.415 833.829 937.826 835.639 938.646 835.639 C 939.466 835.639 939.876 833.977 940.287 832.315 C 940.698 830.653 941.109 828.991 941.931 828.991 C 942.753 828.991 943.165 827.775 943.576 826.559 C 943.987 825.344 944.398 824.128 945.22 824.128 C 946.043 824.128 946.454 828.181 946.865 832.233 C 947.276 836.286 947.687 840.339 948.509 840.339 C 949.332 840.339 949.743 838.311 950.154 836.284 C 950.565 834.257 950.976 832.229 951.798 832.229 C 952.621 832.229 953.032 831.724 953.443 831.22 C 953.854 830.715 954.265 830.21 955.088 830.21 C 955.908 830.21 956.317 831.067 956.727 831.925 C 957.136 832.782 957.546 833.64 958.369 833.64 C 959.189 833.64 959.599 834.511 960.01 835.382 C 960.421 836.253 960.832 837.124 961.654 837.124 C 962.476 837.124 962.887 834.635 963.298 832.145 C 963.709 829.656 964.119 827.167 964.939 827.167 C 965.757 827.167 966.167 826.631 966.576 826.095 C 966.986 825.559 967.396 825.022 968.216 825.022 C 969.037 825.022 969.447 828.317 969.858 831.612 C 970.268 834.907 970.679 838.202 971.502 838.202 C 972.322 838.202 972.732 834.976 973.142 831.749 C 973.552 828.523 973.963 825.296 974.783 825.296 C 975.605 825.296 976.016 824.969 976.427 824.642 C 976.838 824.315 977.248 823.988 978.068 823.988 C 978.886 823.988 979.296 826.272 979.706 828.556 C 980.116 830.84 980.527 833.125 981.349 833.125 C 982.172 833.125 982.583 834.837 982.993 836.55 C 983.404 838.263 983.814 839.976 984.634 839.976 C 985.457 839.976 985.868 837.348 986.279 834.72 C 986.69 832.092 987.101 829.464 987.924 829.464 C 988.746 829.464 989.157 831.761 989.568 834.058 C 989.979 836.355 990.39 838.652 991.213 838.652 C 992.035 838.652 992.446 837.868 992.857 837.085 C 993.268 836.302 993.679 835.519 994.502 835.519 C 995.322 835.519 995.732 833.772 996.143 832.025 C 996.554 830.278 996.965 828.531 997.787 828.531 C 998.607 828.531 999.017 829.138 999.428 829.745 C 999.838 830.353 1000.248 830.96 1001.068 830.96 C 1001.888 830.96 1002.299 830.629 1002.709 830.298 C 1003.119 829.967 1003.529 829.636 1004.349 829.636 C 1005.168 829.636 1005.577 829.347 1005.986 829.058 C 1006.395 828.769 1006.804 828.48 1007.623 828.48 C 1008.441 828.48 1008.849 827.606 1009.258 826.732 C 1009.667 825.858 1010.076 824.984 1010.896 824.984 C 1011.714 824.984 1012.124 825.762 1012.533 826.54 C 1012.942 827.319 1013.351 828.097 1014.17 828.097 C 1014.988 828.097 1015.397 831.184 1015.806 834.271 C 1016.214 837.358 1016.623 840.445 1017.439 840.445 C 1018.255 840.445 1018.663 838.616 1019.071 836.787 C 1019.479 834.958 1019.888 833.129 1020.709 833.129 C 1021.527 833.129 1021.936 831.758 1022.345 830.386 C 1022.754 829.015 1023.164 827.644 1023.982 827.644 C 1024.8 827.644 1025.208 829.277 1025.617 830.91 C 1026.026 832.543 1026.435 834.175 1027.255 834.175 C 1028.074 834.175 1028.483 834.817 1028.892 835.459 C 1029.301 836.1 1029.71 836.742 1030.529 836.742 C 1031.345 836.742 1031.753 835.396 1032.162 834.05 C 1032.572 832.705 1032.982 831.359 1033.802 831.359 C 1033.882 831.359 1033.954 831.341 1034.023 831.314 C 1034.091 831.287 1034.156 831.25 1034.22 831.211 L 1034.22 729.821 C 1033.892 730.278 1033.541 730.7 1033.115 731.007 C 1032.688 731.315 1032.185 731.508 1031.552 731.508 C 1029.997 731.508 1029.22 732.482 1028.442 733.455 C 1027.663 734.429 1026.884 735.403 1025.326 735.403 C 1023.771 735.403 1022.993 735.075 1022.215 734.746 C 1021.437 734.418 1020.658 734.09 1019.099 734.09 C 1017.536 734.09 1016.755 732.759 1015.974 731.428 C 1015.194 730.097 1014.413 728.766 1012.853 728.766 C 1011.294 728.766 1010.515 729.571 1009.736 730.375 C 1008.956 731.18 1008.177 731.985 1006.618 731.985 C 1005.066 731.985 1004.289 732.852 1003.512 733.719 C 1002.735 734.586 1001.956 735.454 1000.4 735.454 C 998.849 735.454 998.073 733.742 997.297 732.03 C 996.521 730.318 995.743 728.606 994.189 728.606 C 992.63 728.606 991.851 729.889 991.071 731.172 C 990.291 732.455 989.511 733.739 987.95 733.739 C 986.39 733.739 985.61 731.229 984.829 728.719 C 984.049 726.209 983.269 723.7 981.708 723.7 C 980.15 723.7 979.37 724.129 978.591 724.559 C 977.811 724.989 977.03 725.418 975.47 725.418 C 973.911 725.418 973.132 725.959 972.353 726.5 C 971.573 727.042 970.794 727.583 969.236 727.583 C 967.677 727.583 966.898 726.655 966.118 725.727 C 965.339 724.799 964.56 723.872 963.001 723.872 C 961.443 723.872 960.663 725.593 959.884 727.315 C 959.105 729.037 958.325 730.758 956.767 730.758 C 955.208 730.758 954.429 729.266 953.649 727.774 C 952.869 726.282 952.089 724.79 950.528 724.79 C 948.966 724.79 948.185 724.831 947.404 724.872 C 946.624 724.913 945.845 724.954 944.286 724.954 C 942.728 724.954 941.947 726.615 941.168 728.276 C 940.388 729.937 939.608 731.598 938.052 731.598 C 936.497 731.598 935.72 729.683 934.941 727.768 C 934.163 725.853 933.384 723.938 931.825 723.938 C 930.267 723.938 929.487 726.718 928.708 729.498 C 927.929 732.279 927.149 735.059 925.591 735.059 C 924.036 735.059 923.259 732.859 922.48 730.658 C 921.702 728.458 920.923 726.258 919.364 726.258 C 917.806 726.258 917.025 726.904 916.246 727.549 C 915.466 728.195 914.686 728.84 913.13 728.84 C 911.573 728.84 910.795 729.606 910.016 730.371 C 909.236 731.137 908.456 731.903 906.895 731.903 C 905.339 731.903 904.933 731.627 904.749 731 C 904.564 730.372 904.6 729.393 903.927 727.985 C 903.261 726.6 902.778 726.266 902.714 725.987 C 902.649 725.709 903.003 725.486 904.009 724.324 C 905.013 723.16 906.666 723.573 908.32 723.987 C 909.974 724.4 911.628 724.813 912.634 723.649 C 913.636 722.488 914.114 721.889 914.593 721.289 C 915.071 720.69 915.55 720.09 916.552 718.93 C 917.554 717.774 916.782 716.098 916.01 714.422 C 915.238 712.745 914.466 711.069 915.466 709.91 C 916.468 708.75 917.722 708.821 918.976 708.893 C 920.229 708.964 921.483 709.035 922.485 707.875 C 923.485 706.719 922.944 705.242 922.403 703.765 C 921.862 702.288 921.321 700.811 922.321 699.652 C 923.323 698.496 924.444 698.454 925.565 698.412 C 926.685 698.369 927.806 698.326 928.806 697.168 C 929.806 696.008 930.851 695.899 931.896 695.791 C 932.941 695.683 933.987 695.574 934.989 694.414 C 935.985 693.262 936.712 692.883 937.439 692.503 C 938.166 692.123 938.893 691.742 939.892 690.586 C 940.888 689.434 940.934 688.467 940.98 687.499 C 941.026 686.531 941.073 685.563 942.071 684.406 C 943.071 683.252 943.501 682.613 943.931 681.974 C 944.36 681.335 944.79 680.695 945.79 679.539 C 946.669 678.522 946.205 677.126 945.582 675.686 C 944.959 674.246 944.177 672.762 944.419 671.566 C 943.683 670.934 943.595 669.766 943.408 668.756 C 943.222 667.746 942.936 666.895 941.806 666.895 C 940.552 666.895 939.925 667.069 939.298 667.244 C 938.672 667.419 938.046 667.594 936.794 667.594 C 935.542 667.594 934.916 668.499 934.29 669.404 C 933.664 670.31 933.038 671.215 931.786 671.215 C 930.532 671.215 929.905 671.394 929.278 671.572 C 928.651 671.751 928.024 671.93 926.771 671.93 C 925.519 671.93 924.893 670.214 924.267 668.498 C 923.641 666.782 923.015 665.066 921.763 665.066 C 920.513 665.066 919.888 666.669 919.263 668.271 C 918.638 669.874 918.013 671.477 916.763 671.477 C 915.509 671.477 914.882 670.67 914.255 669.863 C 913.629 669.057 913.003 668.25 911.751 668.25 C 910.505 668.25 909.882 667.416 909.258 666.582 C 908.635 665.748 908.011 664.914 906.763 664.914 C 905.515 664.914 904.891 663.941 904.267 662.969 C 903.643 661.996 903.019 661.023 901.771 661.023 C 900.519 661.023 899.893 661.708 899.267 662.393 C 898.642 663.077 898.017 663.762 896.767 663.762 C 895.522 663.762 894.9 666.202 894.278 668.643 C 893.655 671.083 893.032 673.523 891.786 673.523 C 890.534 673.523 889.908 673.595 889.283 673.666 C 888.657 673.737 888.032 673.809 886.782 673.809 C 885.534 673.809 884.91 670.996 884.286 668.184 C 883.662 665.371 883.038 662.559 881.79 662.559 C 880.538 662.559 879.912 663.328 879.287 664.098 C 878.661 664.867 878.036 665.637 876.786 665.637 C 875.538 665.637 874.914 665.39 874.29 665.143 C 873.666 664.896 873.042 664.648 871.794 664.648 C 870.546 664.648 869.922 666.652 869.298 668.656 C 868.674 670.66 868.05 672.664 866.802 672.664 C 865.554 672.664 864.93 670.802 864.306 668.939 C 863.682 667.077 863.058 665.215 861.81 665.215 C 860.558 665.215 859.932 666.052 859.307 666.889 C 858.682 667.726 858.058 668.563 856.81 668.563 C 855.561 668.563 854.937 667.753 854.314 666.943 C 853.69 666.134 853.067 665.324 851.821 665.324 C 850.575 665.324 849.952 665.078 849.329 664.832 C 848.705 664.586 848.081 664.34 846.833 664.34 C 845.585 664.34 844.961 663.889 844.337 663.438 C 843.714 662.986 843.091 662.535 841.845 662.535 C 840.593 662.535 839.967 663.623 839.342 664.711 C 838.717 665.799 838.093 666.887 836.845 666.887 C 835.597 666.887 834.973 666.222 834.349 665.557 C 833.725 664.892 833.102 664.227 831.856 664.227 C 830.61 664.227 829.987 662.986 829.364 661.746 C 828.741 660.506 828.118 659.266 826.872 659.266 C 825.626 659.266 825.003 661.979 824.38 664.692 C 823.758 667.405 823.136 670.118 821.891 670.118 C 820.645 670.118 820.022 670.715 819.4 671.313 C 818.777 671.911 818.155 672.508 816.911 672.508 C 815.667 672.508 815.045 671.31 814.422 670.112 C 813.8 668.914 813.177 667.715 811.93 667.715 C 810.684 667.715 810.061 666.152 809.438 664.588 C 808.814 663.025 808.19 661.461 806.942 661.461 C 805.694 661.461 805.07 662.189 804.446 662.916 C 803.822 663.644 803.198 664.372 801.95 664.372 C 800.702 664.372 800.078 663.376 799.454 662.381 C 798.831 661.386 798.208 660.391 796.962 660.391 C 795.717 660.391 795.095 660.504 794.473 660.618 C 793.851 660.731 793.229 660.844 791.985 660.844 Z M 700.494 436.264 C 700.686 436.205 700.712 435.997 700.497 435.543 C 700.292 435.116 700.122 435.022 699.964 435.151 C 699.806 435.28 699.659 435.631 699.501 436.094 C 699.946 436.235 700.303 436.324 700.494 436.264 Z M 604.237 642.216 C 603.68 643.93 603.232 646.058 602.658 647.716 C 603.023 647.751 603.362 647.741 603.661 647.659 C 603.96 647.576 604.22 647.421 604.427 647.165 C 605.224 646.179 606.422 646.334 607.621 646.49 C 608.82 646.646 610.019 646.802 610.818 645.817 C 610.866 645.759 610.901 645.7 610.932 645.642 C 610.963 645.584 610.991 645.526 611.029 645.47 C 610.191 644.609 609.654 643.042 609.025 641.691 C 608.396 640.34 607.675 639.204 606.47 639.204 C 605.46 639.204 604.794 640.503 604.237 642.216 Z M 953.479 547.888 C 953.416 547.602 953.581 547.634 954.047 548.554 C 954.106 548.667 954.145 548.764 954.178 548.854 C 954.21 548.945 954.237 549.03 954.27 549.12 C 953.831 548.774 953.541 548.173 953.479 547.888 Z M 954.084 550.49 C 954.054 550.474 954.103 550.415 954.32 550.36 C 954.222 550.479 954.114 550.506 954.084 550.49 Z"/>
</svg>