<!-- Generated by IcoMoon.io -->
<svg version="1.1" xmlns="http://www.w3.org/2000/svg" width="32" height="32" viewBox="0 0 32 32">
<path d="M17.877 16.898c0.303 2.932 0.598 5.779 0.883 8.521 1.546 0 2.902 0.007 4.256-0.013 0.106-0.001 0.289-0.17 0.305-0.28 0.256-1.721 0.49-3.447 0.745-5.277h-2.949c-0.247 0-0.496 0.013-0.742-0.004-0.535-0.040-0.676-0.295-0.418-0.774 0.204-0.38 0.4-0.772 0.669-1.103 0.144-0.177 0.427-0.313 0.657-0.329 0.615-0.045 1.237-0.022 1.855-0.013 0.634 0.009 1.107-0.25 1.406-0.814 0.296-0.558 0.161-1.068-0.178-1.556-0.682-0.976-1.353-1.958-2.049-2.925-0.236-0.328-0.257-0.587-0.030-0.943 0.749-1.175 1.455-2.377 2.19-3.56 0.371-0.598 0.728-0.59 1.090 0.033 0.792 1.365 1.576 2.736 2.341 4.115 0.129 0.233 0.151 0.525 0.221 0.789-0.265 0.069-0.526 0.148-0.792 0.204-0.118 0.024-0.246 0.004-0.46 0.004 0.202 0.398 0.368 0.759 0.562 1.107 0.917 1.646 1.842 3.288 2.762 4.933 0.283 0.506 0.114 0.82-0.487 0.828-1.193 0.017-2.387 0.006-3.643 0.006 0.096 1.099 0.172 2.154 0.286 3.205 0.068 0.63 0.243 1.251 0.281 1.882 0.029 0.476 0.291 0.539 0.656 0.617 0.837 0.177 1.685 0.339 2.492 0.615 0.331 0.114 0.846 0.609 0.794 0.75-0.145 0.39-0.518 0.719-0.858 1.003-0.145 0.12-0.434 0.086-0.658 0.087-3.65 0.007-7.3-0.001-10.95 0.019-0.565 0.003-0.857-0.194-1.156-0.692-0.246-0.41-0.751-0.755-1.215-0.924-0.788-0.288-1.060-0.929-0.984-1.808 0.145-1.68 0.285-3.361 0.41-5.043 0.065-0.861 0.093-1.724 0.145-2.688h-0.623c-1.485 0.001-2.971 0.019-4.455-0.013-0.27-0.006-0.653-0.151-0.768-0.354-0.108-0.19-0.009-0.594 0.135-0.815 1.288-1.974 2.607-3.928 3.915-5.888 0.032-0.047 0.049-0.102 0.111-0.232-0.39 0-0.73 0.010-1.070-0.003-0.529-0.019-0.673-0.257-0.41-0.692 1.284-2.121 2.57-4.243 3.865-6.357 0.427-0.697 0.823-0.684 1.274 0.030 1.357 2.151 2.705 4.308 4.061 6.461 0.259 0.411 0.111 0.562-0.324 0.561-0.37-0.001-0.739 0-1.26 0 0.308 0.571 0.532 1.064 0.822 1.516 0.946 1.464 1.931 2.905 2.866 4.376 0.174 0.273 0.354 0.771 0.227 0.952-0.177 0.25-0.636 0.405-0.981 0.417-1.422 0.050-2.846 0.030-4.268 0.039-0.124-0.001-0.242 0.010-0.554 0.027l0.001 0zM3.115 15.283c-0.912-0.003-1.045-0.221-0.61-1.008 0.752-1.362 1.508-2.723 2.262-4.085 0.285-0.515 0.569-1.030 0.89-1.611-0.306 0-0.528 0.004-0.748-0.001-0.61-0.016-0.81-0.341-0.516-0.887 0.899-1.678 1.803-3.355 2.731-5.017 0.099-0.18 0.37-0.388 0.541-0.371 0.187 0.019 0.407 0.252 0.513 0.444 0.841 1.546 1.652 3.109 2.486 4.659 0.439 0.817 0.244 1.162-0.689 1.173-0.102 0.001-0.204 0-0.427 0 0.512 0.917 0.966 1.782 1.472 2.613 0.207 0.339 0.167 0.578-0.039 0.881-0.748 1.103-1.472 2.222-2.212 3.33-0.319 0.479-0.437 0.989-0.142 1.504 0.306 0.536 0.795 0.825 1.428 0.807 0.556-0.016 1.116-0.109 1.665-0.063 0.28 0.023 0.638 0.21 0.794 0.439 0.472 0.692 0.87 1.436 1.278 2.17 0.085 0.152 0.093 0.349 0.132 0.508-0.801-0.341-1.518-0.755-2.291-0.952-2.14-0.545-4.284-0.456-6.339 0.372-0.551 0.221-0.969 0.766-1.461 1.146-0.187 0.145-0.403 0.322-0.62 0.344-0.51 0.052-1.030 0.029-1.544 0.016-0.729-0.019-0.935-0.365-0.562-0.989 0.976-1.636 1.969-3.263 2.955-4.892 0.090-0.149 0.188-0.3 0.332-0.529-0.497 0-0.89 0.001-1.281 0zM10.476 27.080c0.095 0.509 0.188 0.864 0.223 1.225 0.083 0.872-0.434 1.352-1.247 1.007-1.022-0.436-1.967-1.054-2.943-1.597-0.070-0.039-0.122-0.108-0.223-0.2-0.942 0.821-2.104 1.107-3.297 1.328-0.459 0.085-0.81-0.026-0.927-0.467-0.122-0.461 0.013-0.86 0.559-0.986 1.221-0.281 1.616-1.215 1.77-2.301 0.115-0.812 0.188-1.635 0.221-2.455 0.029-0.689 0.383-1.124 0.962-1.378 1.365-0.597 2.815-0.753 4.278-0.601 0.822 0.085 1.649 0.289 2.433 0.556 0.876 0.299 1.301 0.946 1.288 1.936-0.012 0.916 0.099 1.842 0.24 2.751 0.106 0.687 0.532 1.183 1.232 1.4 0.193 0.061 0.408 0.125 0.551 0.256 0.207 0.189 0.548 0.571 0.499 0.643-0.187 0.271-0.482 0.577-0.782 0.635-0.381 0.075-0.818-0.033-1.211-0.138-1.104-0.293-2.222-0.573-3.090-1.402-0.102-0.098-0.283-0.115-0.536-0.213h-0zM6.039 22.64c1.106 1.096 5.095 1.127 6.052 0.014-1.163-1.101-5.052-1.093-6.052-0.014z"></path>
</svg>
