<!-- Generated by IcoMoon.io -->
<svg version="1.1" xmlns="http://www.w3.org/2000/svg" width="32" height="32" viewBox="0 0 32 32">
<path d="M3.873 25.471c0.425 0.514 1.056 0.816 1.731 0.816 0.54 0 1.056-0.194 1.461-0.54 0.402 0.346 0.919 0.54 1.459 0.54 0.675 0 1.306-0.302 1.731-0.816 0.194 0.052 0.394 0.079 0.595 0.079 0.86 0 1.607-0.488 1.986-1.2-0.695-0.176-1.324-0.543-1.825-1.071-0.246 0.050-0.496 0.074-0.745 0.074-2.115 0-3.835-1.723-3.835-3.837 0-1.28 0.619-2.444 1.646-3.151-0.035-0.12-0.068-0.24-0.096-0.361-0.346-0.144-0.725-0.22-1.112-0.22-1.135 0-2.154 0.643-2.644 1.655-1.309 0.314-2.241 1.49-2.241 2.849 0 0.37 0.067 0.725 0.196 1.059-0.704 0.394-1.144 1.133-1.144 1.96 0 1.239 1.006 2.245 2.245 2.245 0.201 0 0.401-0.026 0.591-0.079v-0zM30.051 21.499c0.17-0.379 0.259-0.793 0.259-1.212 0-1.616-1.315-2.931-2.931-2.931h-0.041c-0.505-0.962-1.503-1.572-2.596-1.572-0.079 0-0.159 0.002-0.238 0.011-0.050 0.287-0.126 0.572-0.229 0.847 0.819 0.721 1.297 1.766 1.297 2.873 0 2.115-1.723 3.837-3.837 3.837-0.25 0-0.499-0.024-0.745-0.074-0.499 0.525-1.126 0.892-1.823 1.071 0.379 0.712 1.126 1.2 1.986 1.2 0.203 0 0.402-0.026 0.593-0.079 0.425 0.514 1.056 0.816 1.731 0.816 0.54 0 1.056-0.194 1.461-0.54 0.402 0.346 0.919 0.54 1.459 0.54 0.675 0 1.306-0.302 1.731-0.816 0.194 0.052 0.394 0.079 0.596 0.079 1.235 0 2.245-1.006 2.245-2.245-0.004-0.716-0.35-1.386-0.919-1.805l-0 0zM29.987 30.379h-2.235c-0.735-1.142-1.143-2.337-1.398-3.505-0.501-0.006-0.995-0.146-1.42-0.405-0.429 0.259-0.921 0.399-1.422 0.405-0.255 1.168-0.659 2.361-1.394 3.505h-1.936c-1.26-1.933-1.896-3.96-2.28-5.925-0.686-0.052-1.341-0.29-1.901-0.686-0.56 0.396-1.217 0.634-1.905 0.686-0.381 1.966-1.018 3.99-2.28 5.925h-1.933c-0.735-1.142-1.143-2.337-1.398-3.505-0.501-0.006-0.995-0.146-1.42-0.405-0.429 0.259-0.921 0.399-1.423 0.405-0.255 1.168-0.659 2.361-1.394 3.505h-2.239c-0.163 0-0.294 0.131-0.294 0.294s0.131 0.294 0.294 0.294h27.976c0.163 0 0.294-0.131 0.294-0.294s-0.131-0.294-0.293-0.294h-0.001zM8.453 14.942c0 0.588 0.115 1.147 0.34 1.675-1.089 0.549-1.775 1.655-1.775 2.896 0 1.793 1.455 3.251 3.249 3.251 0.326 0 0.645-0.050 0.954-0.144 0.616 0.793 1.558 1.259 2.567 1.259 0.825 0 1.614-0.314 2.213-0.869 0.596 0.555 1.385 0.869 2.21 0.869 1.009 0 1.954-0.466 2.567-1.259 0.308 0.094 0.628 0.144 0.954 0.144 1.793 0 3.251-1.459 3.251-3.251 0-1.080-0.54-2.086-1.426-2.687 0.285-0.584 0.431-1.23 0.431-1.884 0-2.365-1.922-4.29-4.29-4.29-0.050 0-0.1 0-0.152 0.002-0.721-1.455-2.21-2.385-3.844-2.385-1.681 0-3.195 0.971-3.896 2.489-1.953 0.434-3.353 2.171-3.353 4.184l0-0zM3.421 7.951l-0.962 0.963c-0.115 0.115-0.115 0.303 0 0.416 0.056 0.056 0.132 0.085 0.205 0.085 0.076 0 0.15-0.030 0.209-0.085l0.965-0.965c0.115-0.115 0.115-0.299 0-0.414s-0.303-0.115-0.416 0l-0 0zM3.421 3.837c0.059 0.059 0.132 0.085 0.209 0.085 0.074 0 0.15-0.026 0.209-0.085 0.115-0.115 0.115-0.299 0-0.414l-0.966-0.966c-0.115-0.115-0.299-0.115-0.414 0s-0.115 0.302 0 0.416l0.962 0.964zM5.597 9.095v1.365c0 0.161 0.133 0.294 0.294 0.294 0.164 0 0.294-0.133 0.294-0.294v-1.365c0-0.161-0.129-0.294-0.294-0.294-0.161 0-0.294 0.133-0.294 0.294zM5.894 7.86c1.083 0 1.962-0.88 1.962-1.966s-0.88-1.966-1.963-1.966c-1.086 0-1.969 0.88-1.969 1.966s0.884 1.966 1.969 1.966v0zM5.891 2.986c0.164 0 0.294-0.132 0.294-0.294v-1.365c0-0.161-0.129-0.294-0.294-0.294-0.161 0-0.294 0.133-0.294 0.294v1.365c0 0.161 0.133 0.294 0.294 0.294zM8.914 9.33c0.056 0.056 0.133 0.085 0.205 0.085 0.076 0 0.15-0.030 0.209-0.085 0.115-0.117 0.115-0.303 0-0.416l-0.965-0.963c-0.115-0.115-0.299-0.115-0.414 0s-0.115 0.299 0 0.414l0.965 0.965zM8.156 3.923c0.074 0 0.15-0.026 0.205-0.085l0.965-0.962c0.115-0.115 0.115-0.302 0-0.416-0.115-0.115-0.299-0.115-0.414 0l-0.964 0.964c-0.115 0.115-0.115 0.299 0 0.414 0.059 0.059 0.131 0.086 0.208 0.086v-0zM8.799 5.894c0 0.161 0.133 0.294 0.294 0.294h1.365c0.161 0 0.294-0.133 0.294-0.294s-0.133-0.294-0.294-0.294h-1.365c-0.161 0-0.294 0.133-0.294 0.294zM1.329 6.187h1.361c0.164 0 0.294-0.133 0.294-0.294s-0.129-0.294-0.294-0.294h-1.361c-0.164 0-0.294 0.133-0.294 0.294s0.129 0.294 0.294 0.294z"></path>
</svg>
