<!-- Generated by IcoMoon.io -->
<svg version="1.1" xmlns="http://www.w3.org/2000/svg" width="32" height="32" viewBox="0 0 32 32">
<path d="M2.902 5.017c0.001-0.036 0.003-0.073 0.005-0.109s0.006-0.072 0.010-0.107c0.041-0.37 0.164-0.715 0.348-1.018s0.432-0.563 0.725-0.763v0.199c0 0.071 0.029 0.136 0.075 0.182s0.111 0.076 0.182 0.076c0.071 0 0.136-0.029 0.182-0.076s0.075-0.111 0.075-0.182v-0.469c0.1-0.038 0.203-0.071 0.309-0.096s0.214-0.044 0.325-0.056v0.62c0 0.071 0.029 0.136 0.075 0.182s0.111 0.076 0.182 0.076c0.071 0 0.136-0.029 0.182-0.076s0.075-0.111 0.075-0.182v-0.62c0.111 0.011 0.219 0.030 0.325 0.055s0.209 0.058 0.309 0.096v0.469c0 0.071 0.029 0.136 0.076 0.182s0.111 0.076 0.182 0.076c0.071 0 0.136-0.029 0.182-0.076s0.075-0.111 0.075-0.182v-0.199c0.292 0.2 0.54 0.46 0.725 0.763s0.307 0.648 0.348 1.018c0.004 0.036 0.007 0.071 0.010 0.107s0.004 0.072 0.005 0.109h0.045c0.090 0 0.171 0.036 0.23 0.095s0.095 0.14 0.095 0.23c0 0.090-0.036 0.171-0.095 0.23s-0.14 0.095-0.23 0.095h-5.079c-0.090 0-0.171-0.036-0.23-0.095s-0.095-0.14-0.095-0.23c0-0.090 0.036-0.171 0.095-0.23s0.14-0.095 0.23-0.095zM5.793 8.627c-0.065 0.011-0.13 0.019-0.196 0.024s-0.133 0.008-0.2 0.008c-0.067 0-0.134-0.003-0.2-0.008s-0.131-0.014-0.196-0.024c-0.576-0.095-1.084-0.392-1.448-0.816s-0.584-0.976-0.584-1.579c0-0.059 0.002-0.118 0.006-0.176s0.011-0.115 0.019-0.172h4.806c0.008 0.057 0.014 0.114 0.019 0.172s0.006 0.117 0.006 0.176c0 0.603-0.22 1.155-0.584 1.579s-0.872 0.722-1.448 0.816zM8.316 17.49l-0-0 0 10.577c0 0.369-0.149 0.702-0.391 0.944s-0.575 0.391-0.944 0.391c-0.368 0-0.702-0.149-0.943-0.391s-0.391-0.575-0.391-0.944v-9.742h-0.5v9.742c0 0.369-0.149 0.702-0.391 0.944s-0.575 0.391-0.944 0.391c-0.368 0-0.702-0.149-0.943-0.391s-0.391-0.575-0.391-0.944v-16.199c-0.187 0.383-0.376 0.942-0.518 1.731s-0.236 1.81-0.234 3.117c0 0.297 0.005 0.61 0.015 0.937s0.025 0.67 0.046 1.029c0.014 0.238-0.070 0.459-0.217 0.624s-0.357 0.274-0.595 0.288c-0.009 0.001-0.017 0.001-0.026 0.001s-0.017 0-0.026 0c-0.227 0-0.435-0.089-0.591-0.234s-0.257-0.349-0.27-0.578c-0.022-0.374-0.038-0.733-0.049-1.078s-0.016-0.674-0.016-0.99c0.001-1.223 0.075-2.239 0.205-3.090s0.315-1.536 0.537-2.096c0.219-0.558 0.485-0.994 0.769-1.327s0.585-0.562 0.875-0.706c0.192-0.097 0.371-0.154 0.527-0.188s0.288-0.043 0.384-0.043c0.034 0 0.064 0.001 0.090 0.003s0.046 0.004 0.063 0.006c0 0 0.001 0 0.001 0s0.001 0 0.001 0h0.368l0.265 2.069 1.052-1.268-0.723-0.801 1.967-0-0.723 0.801 1.052 1.268 0.265-2.069h0.368c0-0 0.001-0 0.001-0s0.001-0 0.001-0c0.016-0.002 0.037-0.004 0.063-0.006s0.056-0.003 0.090-0.003c0.096-0 0.228 0.009 0.383 0.043s0.335 0.091 0.527 0.188c0.192 0.096 0.391 0.23 0.587 0.407s0.388 0.398 0.565 0.667c0.355 0.542 0.662 1.264 0.881 2.257s0.351 2.258 0.353 3.887c0 0.316-0.005 0.646-0.016 0.99s-0.027 0.703-0.048 1.077c-0.013 0.229-0.115 0.433-0.271 0.579s-0.364 0.234-0.591 0.234c-0.008 0-0.017-0-0.025-0s-0.017-0.001-0.026-0.001c-0.238-0.014-0.448-0.123-0.595-0.288s-0.231-0.386-0.217-0.624c0.021-0.359 0.036-0.702 0.046-1.029s0.015-0.64 0.015-0.937c0-1.080-0.063-1.965-0.165-2.687s-0.242-1.278-0.394-1.699c-0.032-0.088-0.064-0.169-0.096-0.245s-0.064-0.146-0.096-0.212v5.618zM15.948 17.686c-0.018-0.006-0.039-0.015-0.062-0.026-0.012 0.046-0.021 0.103-0.033 0.147s-0.027 0.078-0.048 0.078c-0.028 0-0.049-0.011-0.066-0.029s-0.029-0.042-0.041-0.067c0.001 0.020-0.003 0.039-0.002 0.058s0.005 0.040 0.023 0.061c0.026 0.031 0.050 0.038 0.074 0.044s0.048 0.013 0.074 0.044c0.026 0.031 0.017 0.066 0.007 0.1s-0.019 0.069 0.007 0.1c0.026 0.031 0.039 0.047 0.052 0.062s0.026 0.031 0.052 0.062c0.026 0.031 0.044 0.043 0.061 0.054s0.035 0.023 0.061 0.054c0.026 0.031 0.019 0.064 0.012 0.096s-0.014 0.065 0.012 0.096c0.026 0.031 0.045 0.041 0.064 0.052s0.038 0.021 0.064 0.052c0.026 0.031 0.031 0.053 0.036 0.076s0.010 0.045 0.036 0.076c0.026 0.031 0.055 0.033 0.084 0.035s0.058 0.004 0.084 0.035c0.026 0.031 0.022 0.061 0.019 0.090s-0.008 0.059 0.018 0.090c0.026 0.031 0.084 0.009 0.143-0.014s0.117-0.045 0.143-0.014c0.026 0.031 0.001 0.078-0.024 0.126s-0.050 0.095-0.024 0.126c0.026 0.031 0.085 0.008 0.145-0.015s0.119-0.047 0.145-0.015c0.026 0.031 0.008 0.073-0.010 0.114s-0.036 0.083-0.010 0.114c0.026 0.031 0.073 0.018 0.12 0.006s0.094-0.026 0.12 0.005c0.026 0.031 0.017 0.065-0.002 0.1s-0.051 0.071-0.069 0.107c-0.019 0.037-0.032 0.048-0.049 0.048s-0.038-0.012-0.072-0.019c-0.041-0.008-0.061-0.023-0.082-0.037s-0.042-0.024-0.084-0.024c-0.042 0-0.063 0.025-0.083 0.050s-0.042 0.050-0.083 0.050c-0.042 0-0.062-0.046-0.083-0.092s-0.042-0.092-0.083-0.092c-0.042 0-0.063 0.076-0.083 0.152s-0.042 0.152-0.083 0.152c-0.042 0-0.062-0.020-0.083-0.040s-0.042-0.040-0.083-0.040c-0.041 0-0.062-0.005-0.083-0.010s-0.042-0.010-0.083-0.010c-0.042 0-0.062-0.035-0.083-0.069s-0.042-0.069-0.083-0.069c-0.042 0-0.062 0.008-0.083 0.016s-0.041 0.016-0.083 0.016c-0.041 0-0.062 0.035-0.083 0.070s-0.041 0.070-0.083 0.070c-0.042 0-0.062 0.002-0.083 0.005s-0.042 0.005-0.083 0.005c-0.042 0-0.062-0.023-0.083-0.046s-0.042-0.046-0.083-0.046c-0.042 0-0.062-0.033-0.083-0.067s-0.042-0.067-0.083-0.067c-0.041 0-0.062 0.071-0.083 0.141s-0.042 0.141-0.083 0.141c-0.042 0-0.062-0.032-0.083-0.063s-0.042-0.063-0.083-0.063c-0.042 0-0.062-0.052-0.083-0.104s-0.041-0.104-0.083-0.104c-0.041 0-0.062 0.070-0.083 0.139s-0.041 0.139-0.083 0.139c-0.041 0-0.062-0.012-0.083-0.025s-0.042-0.025-0.083-0.025c-0.042 0-0.062-0.031-0.083-0.061s-0.042-0.061-0.083-0.061c-0.041 0-0.062-0.021-0.083-0.041s-0.042-0.041-0.083-0.041c-0.041 0-0.062 0.035-0.083 0.070s-0.041 0.070-0.083 0.070c-0.041 0-0.062 0.016-0.083 0.033s-0.041 0.033-0.083 0.033l0 0 0 0c-0.032 0-0.051-0.003-0.069-0.006s-0.032-0.007-0.054-0.009v2.334c0.005 0.038 0.011 0.076 0.017 0.105s0.015 0.047 0.025 0.047c0.022 0 0.033-0.039 0.044-0.078s0.022-0.078 0.043-0.078c0.022 0 0.033 0.022 0.043 0.043s0.022 0.043 0.044 0.043c0.022 0 0.033-0.068 0.044-0.136s0.022-0.136 0.043-0.136c0.022 0 0.033 0.11 0.044 0.22s0.022 0.22 0.043 0.22c0.022 0 0.033-0.084 0.043-0.169s0.022-0.169 0.043-0.169c0.022 0 0.033 0.018 0.044 0.036s0.022 0.036 0.043 0.036c0.022 0 0.033-0.031 0.044-0.062s0.022-0.062 0.043-0.062c0.022 0 0.033-0.005 0.044-0.009s0.022-0.009 0.043-0.009c0.022 0 0.033-0.005 0.044-0.010s0.022-0.010 0.043-0.010c0.022 0 0.033 0.005 0.043 0.009s0.022 0.009 0.043 0.009c0.022 0 0.033 0.026 0.043 0.053s0.022 0.053 0.043 0.053c0.022 0 0.033 0.060 0.044 0.119s0.022 0.119 0.043 0.119c0.022 0 0.033 0.014 0.043 0.028s0.022 0.028 0.043 0.028c0.022 0 0.033-0.111 0.044-0.222s0.022-0.222 0.043-0.222c0.022 0 0.033 0.071 0.043 0.142s0.022 0.142 0.043 0.142c0.022 0 0.033 0.042 0.044 0.084s0.022 0.084 0.043 0.084c0.022 0 0.033-0.022 0.043-0.044s0.022-0.044 0.043-0.044c0.022 0 0.033-0.058 0.043-0.115s0.022-0.115 0.043-0.115c0.022 0 0.033-0.013 0.044-0.026s0.022-0.026 0.043-0.026c0.022 0 0.033 0.070 0.043 0.141s0.022 0.141 0.043 0.141c0.016 0 0.026-0.024 0.035-0.054s0.016-0.067 0.025-0.093v-1.164h0.448v1.385c0.002 0.002 0.004 0.004 0.006 0.006s0.004 0.002 0.007 0.002c0.022 0 0.033-0.028 0.044-0.055s0.022-0.055 0.043-0.055c0.022 0 0.033-0.030 0.044-0.060s0.022-0.060 0.043-0.060c0.022 0 0.033-0.051 0.043-0.101s0.022-0.101 0.043-0.101c0.022 0 0.033 0.064 0.044 0.127s0.022 0.127 0.043 0.127c0.022 0 0.033-0.012 0.044-0.024s0.022-0.024 0.043-0.024c0.022 0 0.033 0.053 0.043 0.106s0.022 0.106 0.044 0.106c0.022 0 0.033-0.078 0.044-0.156s0.022-0.156 0.043-0.156c0.022 0 0.033 0.080 0.043 0.16s0.022 0.16 0.044 0.16c0.022 0 0.033-0.104 0.044-0.208s0.022-0.208 0.044-0.208c0.022 0 0.033 0.098 0.044 0.196s0.022 0.196 0.043 0.196c0.022 0 0.033-0.015 0.044-0.031s0.022-0.031 0.044-0.031c0.022 0 0.033-0.063 0.044-0.126s0.022-0.126 0.044-0.126c0.022 0 0.033 0.050 0.044 0.101s0.022 0.101 0.044 0.101c0.022 0 0.033-0.006 0.044-0.012s0.022-0.012 0.044-0.012c0.022 0 0.033-0.042 0.044-0.083s0.022-0.083 0.044-0.083c0.022 0 0.033 0.074 0.044 0.148s0.022 0.148 0.044 0.148c0.022 0 0.033-0.075 0.044-0.151s0.022-0.151 0.044-0.151c0.022 0 0.033 0.028 0.044 0.056s0.022 0.056 0.044 0.056c0.022 0 0.033-0.015 0.044-0.031s0.022-0.031 0.044-0.031c0.022 0 0.033 0.023 0.044 0.047s0.022 0.047 0.044 0.047c0.022 0 0.033 0.012 0.044 0.023s0.022 0.023 0.044 0.023c0.022 0 0.033-0.065 0.044-0.13s0.022-0.13 0.044-0.13c0.022 0 0.033 0.052 0.044 0.105s0.022 0.105 0.044 0.105c0.022 0 0.033 0.027 0.044 0.055s0.022 0.055 0.044 0.055c0.022 0 0.033-0.031 0.044-0.062s0.022-0.062 0.044-0.062c0.022 0 0.033 0.056 0.044 0.112s0.022 0.112 0.044 0.112c0.022 0 0.033-0.094 0.044-0.188s0.022-0.188 0.044-0.188c0.022 0 0.033 0.030 0.044 0.059s0.022 0.059 0.044 0.059c0.022 0 0.033 0.044 0.044 0.087s0.022 0.087 0.044 0.087c0.022 0 0.033 0.020 0.044 0.040s0.022 0.040 0.044 0.040c0.022 0 0.033-0.003 0.044-0.007s0.022-0.007 0.044-0.007c0 0 0.001-0 0.001-0.001s0.001-0.001 0.001-0.001v-2.535h0.448v2.355c0.015-0.009 0.024-0.034 0.034-0.056s0.020-0.042 0.040-0.042c0.022 0 0.033-0.015 0.044-0.030s0.022-0.030 0.044-0.030c0.022 0 0.033 0.021 0.044 0.042s0.022 0.042 0.044 0.042c0.022 0 0.033 0.063 0.044 0.125s0.022 0.125 0.044 0.125c0.022 0 0.033-0.024 0.044-0.047s0.022-0.047 0.044-0.047c0.022 0 0.033-0.060 0.044-0.119s0.022-0.119 0.044-0.119c0.022 0 0.033 0.032 0.044 0.065s0.022 0.065 0.044 0.065c0.022 0 0.033-0.038 0.044-0.077s0.022-0.077 0.044-0.077c0.022 0 0.033-0.010 0.044-0.019s0.022-0.019 0.044-0.019c0.022 0 0.033 0.086 0.044 0.173s0.022 0.173 0.044 0.173c0.022 0 0.033-0.024 0.044-0.048s0.022-0.048 0.044-0.048c0.022 0 0.033 0.002 0.044 0.004s0.022 0.004 0.044 0.004c0.002 0 0.004-0.001 0.006-0.003s0.004-0.004 0.006-0.006v-4.551c-0.006-0.025-0.013-0.048-0.021-0.063s-0.017-0.026-0.029-0.026c-0.033 0-0.050 0.016-0.066 0.033s-0.033 0.033-0.066 0.033c-0.033 0-0.050 0.036-0.067 0.073s-0.033 0.073-0.066 0.073c-0.033 0-0.050 0.004-0.066 0.009s-0.033 0.009-0.066 0.009c-0.033 0-0.050-0.042-0.066-0.084s-0.033-0.084-0.066-0.084c-0.033 0-0.050-0.010-0.067-0.020s-0.033-0.020-0.066-0.020c-0.033 0-0.050-0.017-0.067-0.034s-0.033-0.034-0.066-0.034c-0.033 0-0.050 0.025-0.066 0.049s-0.033 0.049-0.067 0.049c-0.033 0-0.050 0.025-0.066 0.050s-0.033 0.050-0.066 0.050c-0.033 0-0.050 0.033-0.066 0.066s-0.033 0.066-0.066 0.066c-0.033 0-0.050-0.019-0.066-0.038s-0.033-0.038-0.066-0.038c-0.033 0-0.050 0.007-0.066 0.014s-0.033 0.014-0.066 0.014c-0.033 0-0.050-0.052-0.067-0.105s-0.033-0.105-0.066-0.105c-0.033 0-0.050 0.062-0.066 0.124s-0.033 0.124-0.066 0.124c-0.033 0-0.050 0.019-0.066 0.037s-0.033 0.037-0.066 0.037c-0.033 0-0.050-0.054-0.066-0.109s-0.033-0.109-0.066-0.109c-0.033 0-0.050-0.007-0.066-0.015s-0.033-0.015-0.067-0.015c-0.033 0-0.050 0.063-0.066 0.127s-0.033 0.127-0.066 0.127c-0.033 0-0.050-0.093-0.066-0.186s-0.033-0.186-0.066-0.186c-0.033 0-0.050 0.064-0.066 0.127s-0.033 0.127-0.066 0.127c-0.033 0-0.050-0.050-0.066-0.1s-0.033-0.1-0.066-0.1c-0.033 0-0.050 0.002-0.066 0.003s-0.033 0.003-0.066 0.003c-0.033 0-0.050 0.036-0.066 0.073s-0.033 0.073-0.066 0.073c-0.033 0-0.050-0.040-0.066-0.081s-0.033-0.081-0.066-0.081c-0.033 0-0.050 0.047-0.066 0.095s-0.033 0.095-0.066 0.095c-0.033 0-0.050-0.008-0.066-0.016s-0.033-0.016-0.066-0.016c-0.033 0-0.050-0.001-0.066-0.002s-0.033-0.002-0.066-0.002c-0.033 0-0.050 0.026-0.066 0.052s-0.033 0.052-0.066 0.052c-0.033 0-0.050-0.075-0.066-0.151s-0.033-0.151-0.066-0.151c-0.033 0-0.050 0.087-0.066 0.175s-0.033 0.175-0.066 0.175c-0.021 0-0.035-0.036-0.047-0.086s-0.021-0.114-0.032-0.169c0.002-0.001 0.003-0.001 0.005-0.002s0.003-0.002 0.004-0.003c0.021-0.026-0.027-0.087-0.075-0.148s-0.096-0.122-0.075-0.148c0.021-0.026 0.025-0.045 0.029-0.064s0.008-0.037 0.029-0.064c0.002-0.003 0.005-0.005 0.008-0.007s0.006-0.003 0.009-0.005c-0.008-0.015-0.017-0.029-0.028-0.040s-0.024-0.017-0.040-0.017c-0.040 0-0.059-0.047-0.079-0.095s-0.039-0.095-0.079-0.095c-0.040 0-0.059 0.055-0.079 0.111s-0.040 0.111-0.079 0.111c-0.034 0-0.053 0.020-0.070 0.042s-0.032 0.048-0.057 0.060c0.022 0.028 0.028 0.048 0.036 0.067s0.015 0.040 0.040 0.070c0.026 0.031-0.008 0.086-0.042 0.142s-0.068 0.11-0.042 0.141c0.025 0.030 0.076 0.014 0.128-0.004s0.105-0.038 0.135-0.016c-0.015-0.028-0.033-0.059-0.043-0.088s-0.011-0.056 0.007-0.078c0.014-0.017 0.053-0.005 0.101 0.018s0.105 0.056 0.154 0.081c0.006-0.025 0.013-0.047 0.021-0.063s0.018-0.026 0.030-0.026c0.012 0 0.023 0.013 0.031 0.035s0.016 0.051 0.023 0.084c-0.010 0.004-0.025 0.002-0.043-0.003zM24.675 14.593c-0.019 0.003-0.034 0.001-0.043-0.010-0.002-0.002-0.002-0.004-0.003-0.007s-0-0.005-0.001-0.007c0.025 0 0.040 0.001 0.055 0.001s0.030 0.001 0.057 0.001c-0.023 0.010-0.046 0.018-0.065 0.021zM24.835 14.677c-0.026-0.049-0.056-0.105-0.089-0.105h-0.007c0.032-0.013 0.066-0.029 0.094-0.037s0.053-0.010 0.065 0.005c0.021 0.026 0.027 0.060 0.024 0.096s-0.014 0.072-0.028 0.103c-0.013 0.030-0.034-0.012-0.060-0.060zM31.763 19.234l-0 0c0.027 0.031 0.069 0.021 0.111 0.011s0.085-0.020 0.112 0.011c0.027 0.031 0.016 0.050-0.005 0.070s-0.054 0.042-0.072 0.079c-0.019 0.038-0.027 0.072-0.036 0.097s-0.021 0.039-0.044 0.036c-0.041-0.006-0.060-0.015-0.078-0.023s-0.036-0.015-0.078-0.015c-0.042 0-0.063-0.036-0.084-0.073s-0.042-0.073-0.084-0.073c-0.042 0-0.063 0.026-0.083 0.053s-0.042 0.053-0.083 0.053c-0.042 0-0.063-0.039-0.083-0.078s-0.042-0.078-0.083-0.078c-0.042 0-0.063 0.016-0.083 0.032s-0.042 0.032-0.083 0.032c-0.042 0-0.063 0.005-0.083 0.010s-0.042 0.010-0.083 0.010c-0.042 0-0.063-0.024-0.084-0.048s-0.042-0.048-0.083-0.048c-0.042 0-0.062 0.037-0.083 0.073s-0.042 0.073-0.083 0.073c-0.042 0-0.062-0.025-0.083-0.050s-0.042-0.050-0.083-0.050c-0.042 0-0.062 0.062-0.083 0.124s-0.042 0.124-0.083 0.124c-0.042 0-0.062-0.034-0.083-0.069s-0.042-0.069-0.083-0.069c-0.042 0-0.062 0.013-0.083 0.026s-0.042 0.026-0.083 0.026c-0.042 0-0.062-0.037-0.083-0.075s-0.042-0.075-0.083-0.075c-0.042 0-0.063 0.035-0.083 0.071s-0.042 0.071-0.083 0.071c-0.042 0-0.062-0.044-0.083-0.087s-0.042-0.087-0.083-0.087c-0.042 0-0.062 0.029-0.083 0.059s-0.042 0.059-0.083 0.059c-0.042 0-0.063-0.024-0.083-0.048s-0.042-0.048-0.083-0.048c-0.042 0-0.062 0.017-0.083 0.033s-0.042 0.033-0.083 0.033c-0.042 0-0.062 0.016-0.083 0.031s-0.042 0.031-0.083 0.031c-0.041 0-0.062-0.032-0.083-0.064s-0.042-0.064-0.083-0.064c-0.014 0-0.026 0.001-0.036 0.004s-0.019 0.005-0.026 0.009v2.909c0 0 0.001 0 0.001 0s0.001 0 0.001 0c0.022 0 0.033-0.040 0.044-0.080s0.022-0.080 0.044-0.080c0.022 0 0.033 0.034 0.044 0.067s0.022 0.067 0.044 0.067c0.022 0 0.033 0.020 0.044 0.040s0.022 0.040 0.044 0.040c0.022 0 0.033 0.018 0.044 0.035s0.022 0.035 0.044 0.035c0.022 0 0.033-0.046 0.044-0.092s0.022-0.092 0.044-0.092c0.022 0 0.033-0.038 0.044-0.076s0.022-0.076 0.044-0.076c0.022 0 0.033 0.042 0.044 0.084s0.022 0.084 0.044 0.084c0.022 0 0.033-0.046 0.044-0.093s0.022-0.092 0.044-0.092c0.022 0 0.033 0.071 0.044 0.141s0.022 0.141 0.044 0.141c0.022 0 0.033 0.019 0.044 0.037s0.022 0.037 0.044 0.037c0.022 0 0.033-0.091 0.044-0.183s0.022-0.183 0.044-0.183c0.002 0 0.003 0 0.004 0.001s0.002 0.001 0.004 0.001v-0.956h0.491v1.204c0.004 0.020 0.008 0.037 0.013 0.049s0.010 0.019 0.016 0.019c0.022 0 0.033-0.013 0.044-0.027s0.022-0.027 0.044-0.027c0.022 0 0.033-0.017 0.044-0.033s0.022-0.033 0.044-0.033c0.022 0 0.033-0.058 0.044-0.116s0.022-0.116 0.044-0.116c0.022 0 0.033 0.106 0.044 0.212s0.022 0.212 0.044 0.212c0.022 0 0.033-0.080 0.044-0.16s0.022-0.16 0.044-0.16c0.022 0 0.033 0.019 0.044 0.037s0.022 0.037 0.044 0.037c0.022 0 0.033-0.043 0.044-0.087s0.022-0.087 0.044-0.087c0.022 0 0.033 0.059 0.044 0.118s0.022 0.118 0.044 0.118c0.022 0 0.033-0.030 0.044-0.060s0.022-0.060 0.044-0.060c0.022 0 0.033 0.052 0.044 0.104s0.022 0.104 0.044 0.104c0.022 0 0.033 0.024 0.044 0.048s0.022 0.048 0.044 0.048c0.022 0 0.033-0.079 0.044-0.158s0.022-0.158 0.044-0.158c0.022 0 0.033 0.031 0.044 0.061s0.022 0.061 0.044 0.061c0.022 0 0.033-0.020 0.044-0.041s0.022-0.041 0.044-0.041c0.022 0 0.033 0.050 0.044 0.1s0.022 0.1 0.044 0.1c0.022 0 0.033-0.037 0.044-0.075s0.022-0.075 0.044-0.075c0.022 0 0.033-0.006 0.042-0.008s0.016 0 0.032 0.016c0.016 0.016 0.058 0.024 0.096 0.033s0.073 0.020 0.073 0.043c0 0.023-0.075 0.034-0.149 0.045s-0.149 0.023-0.149 0.045c0 0.023-0.012 0.034-0.023 0.045s-0.023 0.023-0.023 0.045c0 0.023 0.019 0.034 0.037 0.045s0.037 0.023 0.037 0.045c0 0.023 0.072 0.034 0.143 0.045s0.143 0.023 0.143 0.046c0 0.009-0.012 0.016-0.032 0.022s-0.046 0.011-0.076 0.016v0.682h-22.535v-1.006c0.003 0.014 0.007 0.025 0.011 0.033s0.009 0.013 0.014 0.013c0.022 0 0.033-0.097 0.044-0.193s0.022-0.193 0.044-0.193c0.022 0 0.033 0.057 0.044 0.115s0.022 0.115 0.044 0.115c0.022 0 0.033-0.018 0.044-0.037s0.022-0.037 0.044-0.037c0.022 0 0.033-0.051 0.044-0.102s0.022-0.102 0.044-0.102c0.022 0 0.033 0.101 0.044 0.202s0.022 0.201 0.044 0.201c0.022 0 0.033-0.044 0.044-0.089s0.022-0.089 0.044-0.089c0.022 0 0.033-0.008 0.044-0.016s0.022-0.016 0.044-0.016c0.022 0 0.033 0.059 0.044 0.118s0.022 0.118 0.044 0.118c0.022 0 0.033-0.042 0.044-0.084s0.022-0.084 0.044-0.084c0.022 0 0.033-0.059 0.044-0.118s0.022-0.118 0.044-0.118c0.022 0 0.033 0.010 0.044 0.021s0.022 0.021 0.044 0.021c0.022 0 0.033 0.031 0.044 0.062s0.022 0.062 0.044 0.062c0.022 0 0.033 0.026 0.044 0.051s0.022 0.051 0.044 0.051c0.022 0 0.033 0.028 0.044 0.056s0.022 0.056 0.043 0.056v-1.363h0.448v1.165c0.016 0.020 0.025 0.078 0.035 0.132s0.021 0.101 0.040 0.101c0.022 0 0.033 0.001 0.044 0.002s0.022 0.002 0.044 0.002c0.022 0 0.033-0.002 0.044-0.004s0.022-0.004 0.044-0.004c0.022 0 0.033-0.084 0.044-0.167s0.022-0.167 0.044-0.167c0.022 0 0.033 0.076 0.044 0.151s0.022 0.151 0.044 0.151c0.022 0 0.033 0.003 0.044 0.007s0.022 0.007 0.044 0.007c0.022 0 0.033-0.011 0.044-0.022s0.022-0.022 0.044-0.022c0.022 0 0.033-0.003 0.044-0.006s0.022-0.006 0.044-0.006c0.022 0 0.033-0.093 0.044-0.185s0.022-0.185 0.044-0.185c0.022 0 0.033 0.079 0.044 0.157s0.022 0.157 0.044 0.157c0.022 0 0.033-0.070 0.044-0.141s0.022-0.141 0.044-0.141c0.022 0 0.033 0.060 0.044 0.121s0.022 0.121 0.044 0.121c0.022 0 0.033 0.040 0.044 0.081s0.022 0.081 0.044 0.081c0.022 0 0.033-0.002 0.044-0.005s0.022-0.005 0.044-0.005c0.022 0 0.033-0.1 0.044-0.201s0.022-0.201 0.044-0.201c0.022 0 0.033 0.096 0.044 0.193s0.022 0.193 0.044 0.193c0.022 0 0.033-0.073 0.044-0.145s0.022-0.145 0.044-0.145c0.022 0 0.033 0.008 0.044 0.015s0.022 0.015 0.044 0.015c0.022 0 0.033 0.056 0.044 0.112s0.022 0.112 0.044 0.112c0.022 0 0.033-0.001 0.044-0.002s0.022-0.002 0.044-0.002c0.002 0 0.003-0.001 0.005-0.002s0.003-0.002 0.005-0.003v-2.502c-0.024-0.001-0.039-0.004-0.057-0.006s-0.038-0.004-0.072-0.004c-0.041 0-0.062-0.007-0.083-0.014s-0.041-0.014-0.083-0.014c-0.041 0-0.062 0.019-0.083 0.037s-0.041 0.037-0.083 0.037c-0.041 0-0.062 0.014-0.083 0.029s-0.041 0.029-0.083 0.029c-0.041 0-0.062 0.009-0.083 0.019s-0.042 0.019-0.083 0.019c-0.041 0-0.062-0.004-0.083-0.008s-0.042-0.008-0.083-0.008c-0.041 0-0.062-0.055-0.083-0.111s-0.041-0.111-0.083-0.111c-0.041 0-0.062 0.040-0.083 0.079s-0.041 0.079-0.083 0.079c-0.041 0-0.062-0.002-0.083-0.004s-0.041-0.004-0.083-0.004c-0.017 0-0.030-0.002-0.041-0.004s-0.021-0.006-0.029-0.009c0.144-0.129 0.264-0.285 0.351-0.461s0.14-0.371 0.153-0.578c0.022-0.369 0.038-0.73 0.049-1.082s0.016-0.694 0.016-1.024c-0.001-0.7-0.026-1.352-0.075-1.957s-0.122-1.165-0.218-1.681c0.024-0.023 0.047-0.027 0.070-0.033s0.046-0.013 0.070-0.042c0.026-0.031 0.066-0.024 0.107-0.016s0.081 0.015 0.107-0.016c0.026-0.031-0.008-0.086-0.041-0.141s-0.068-0.11-0.042-0.141c0.026-0.031 0.060-0.030 0.093-0.028s0.067 0.003 0.093-0.028c0.026-0.031 0.006-0.075-0.015-0.118s-0.041-0.087-0.015-0.118c0.026-0.031 0.070-0.021 0.115-0.010s0.088 0.021 0.114-0.010c0.026-0.031 0.021-0.062 0.015-0.093s-0.011-0.062 0.015-0.093c0.026-0.031 0.035-0.050 0.044-0.069s0.018-0.038 0.044-0.069c0.026-0.031 0.059-0.030 0.091-0.029s0.065 0.002 0.091-0.029c0.026-0.031 0.059-0.030 0.091-0.030s0.065 0.001 0.091-0.030c0.026-0.031-0.013-0.090-0.052-0.15s-0.078-0.119-0.052-0.15c0.026-0.031 0.072-0.020 0.117-0.008s0.091 0.023 0.117-0.008c0.026-0.031 0.062-0.027 0.099-0.023s0.073 0.008 0.099-0.023c0.026-0.031 0.019-0.063 0.013-0.095s-0.013-0.064 0.013-0.095c0.026-0.031 0.044-0.042 0.063-0.053s0.037-0.022 0.063-0.053c0.026-0.031 0.004-0.076-0.018-0.121s-0.044-0.090-0.018-0.121c0.026-0.031 0.058-0.062 0.094-0.084s0.075-0.038 0.116-0.037c0.041 0 0.040 0.049 0.035 0.105s-0.013 0.121 0.013 0.152c0.026 0.031 0.061 0.029 0.095 0.027s0.069-0.004 0.095 0.027c0.026 0.031 0.002 0.078-0.022 0.125s-0.048 0.094-0.022 0.125c0.026 0.031 0.054 0.035 0.081 0.038s0.055 0.007 0.081 0.038c0.026 0.031 0.059 0.031 0.091 0.030s0.065-0.002 0.091 0.030c0.026 0.031 0.017 0.066 0.008 0.1s-0.018 0.068 0.008 0.1c0.026 0.031 0.067 0.024 0.108 0.016s0.082-0.015 0.108 0.016c0.026 0.031 0.060 0.029 0.095 0.027s0.068-0.004 0.095 0.027c0.026 0.031 0.011 0.070-0.003 0.109s-0.030 0.078-0.004 0.109c0.026 0.031 0.025 0.058 0.024 0.086s-0.002 0.055 0.024 0.086c0.026 0.031 0.054 0.035 0.081 0.038s0.055 0.007 0.081 0.038c0.026 0.031 0.006 0.074-0.014 0.117s-0.040 0.086-0.014 0.117c0.026 0.031 0.035 0.049 0.045 0.068s0.019 0.037 0.045 0.068c0.026 0.031 0.105-0.008 0.183-0.048s0.157-0.079 0.183-0.048c0.026 0.031 0.007 0.073-0.012 0.116s-0.038 0.085-0.012 0.116c0.026 0.031 0.007 0.074-0.013 0.117s-0.039 0.085-0.013 0.117c0.026 0.031 0.043 0.044 0.059 0.056s0.033 0.025 0.059 0.056c0.026 0.031 0.066 0.024 0.106 0.017s0.080-0.014 0.106 0.017c0.026 0.031 0.067 0.023 0.109 0.015s0.082-0.016 0.108 0.015c0.026 0.031 0.043 0.043 0.060 0.056s0.034 0.025 0.060 0.056c0.026 0.031-0.019 0.096-0.065 0.16s-0.091 0.129-0.065 0.16c0.026 0.031 0.054 0.034 0.083 0.037s0.057 0.006 0.083 0.037c0.026 0.031 0.067 0.023 0.109 0.015s0.082-0.016 0.109 0.015c0.026 0.031 0.054 0.034 0.082 0.037s0.056 0.006 0.082 0.037c0.026 0.031-0.015 0.092-0.056 0.153s-0.082 0.122-0.056 0.153c0.026 0.031 0.032 0.053 0.037 0.075s0.011 0.044 0.037 0.075c0.026 0.031 0.050 0.037 0.074 0.044s0.048 0.013 0.074 0.044c0.026 0.031 0.074 0.023 0.111 0.017s0.063-0.012 0.045 0.025c-0.018 0.037-0.031 0.047-0.050 0.047s-0.044-0.008-0.085-0.008c-0.041 0-0.062 0.031-0.082 0.063s-0.041 0.063-0.082 0.063c-0.041 0-0.062-0.019-0.082-0.038s-0.041-0.038-0.082-0.038c-0.041 0-0.061-0.004-0.082-0.008s-0.041-0.008-0.082-0.008c-0.041 0-0.061 0.005-0.082 0.009s-0.041 0.009-0.082 0.009c-0.041 0-0.061-0.011-0.082-0.022s-0.041-0.022-0.082-0.022c-0.041 0-0.061 0.017-0.082 0.034s-0.041 0.034-0.082 0.034c-0.041 0-0.098-0.055-0.148-0.1s-0.095-0.082-0.111-0.044c-0.017 0.039 0.025 0.062 0.077 0.084s0.115 0.042 0.142 0.074c0.027 0.032 0.033 0.055 0.039 0.077s0.012 0.045 0.039 0.077c0.027 0.032 0.063 0.029 0.1 0.026s0.073-0.006 0.1 0.026c0.027 0.032 0.039 0.049 0.052 0.066s0.025 0.034 0.052 0.066c0.027 0.032 0.021 0.065 0.014 0.097s-0.013 0.065 0.014 0.097c0.027 0.032 0.020 0.066 0.012 0.099s-0.015 0.067 0.012 0.099c0.027 0.032 0.078 0.016 0.13 0s0.103-0.032 0.13 0.001c0.027 0.032 0.031 0.056 0.035 0.080s0.008 0.048 0.035 0.080c0.027 0.032 0.041 0.048 0.054 0.063s0.027 0.031 0.054 0.063c0.027 0.032 0.008 0.075-0.010 0.117s-0.037 0.085-0.010 0.117c0.027 0.032 0.056 0.035 0.085 0.037s0.059 0.005 0.085 0.037c0.027 0.032 0.024 0.062 0.020 0.092s-0.007 0.060 0.020 0.092c0.027 0.032 0.044 0.045 0.062 0.057s0.035 0.026 0.062 0.058c0.027 0.032 0.087 0.009 0.147-0.014s0.12-0.046 0.147-0.014c0.027 0.032 0.022 0.063 0.018 0.094s-0.009 0.062 0.018 0.094c0.027 0.032 0.023 0.062 0.019 0.093s-0.008 0.061 0.019 0.093c0.027 0.032 0.035 0.052 0.044 0.072s0.017 0.040 0.044 0.072c0.023 0.027 0.048 0.033 0.074 0.035s0.052 0.002 0.076 0.016c-0.011-0.021-0.023-0.043-0.030-0.064s-0.008-0.039 0.004-0.054c0.021-0.026 0.017-0.052 0.012-0.078s-0.009-0.051 0.012-0.077c0.021-0.026 0.037-0.035 0.052-0.044s0.031-0.018 0.052-0.044c0.021-0.026 0.076-0.003 0.131 0.020s0.11 0.046 0.131 0.020c0.021-0.026-0.012-0.074-0.045-0.123s-0.066-0.097-0.045-0.123c0.021-0.026 0.034-0.037 0.047-0.049s0.026-0.022 0.047-0.049c0.021-0.026 0.047-0.027 0.074-0.027s0.053-0.001 0.074-0.027c0.021-0.026 0.009-0.058-0.003-0.090s-0.025-0.063-0.004-0.089c0.021-0.026 0.106 0.020 0.19 0.067s0.169 0.093 0.19 0.067c0.021-0.026-0.017-0.079-0.055-0.132s-0.076-0.105-0.055-0.132c0.021-0.026 0.048-0.026 0.074-0.027s0.053-0 0.074-0.027c0.021-0.026 0.055-0.020 0.090-0.014s0.069 0.012 0.090-0.014c0.021-0.026-0.004-0.068-0.028-0.11s-0.050-0.084-0.028-0.11c0.021-0.026 0.069-0.010 0.116 0.007s0.094 0.033 0.116 0.007c0.021-0.026 0.021-0.048 0.020-0.070s-0.001-0.044 0.020-0.070c0.021-0.026 0.029-0.042 0.037-0.057s0.016-0.031 0.037-0.057c0.021-0.026 0.007-0.059-0.007-0.092s-0.028-0.066-0.007-0.092c0.021-0.026 0.032-0.038 0.044-0.051s0.023-0.025 0.044-0.051c0.021-0.026 0.067-0.010 0.114 0.006s0.092 0.032 0.114 0.006c0.021-0.026-0.023-0.040-0.076-0.055s-0.114-0.031-0.128-0.062c-0.013-0.030 0.014-0.076 0.037-0.115s0.041-0.070 0.008-0.070c-0.033 0-0.049 0.036-0.066 0.072s-0.033 0.072-0.066 0.072c-0.033 0-0.049-0.021-0.065-0.043s-0.033-0.043-0.065-0.043c-0.033 0-0.049-0.030-0.065-0.060s-0.033-0.060-0.065-0.060c-0.033 0-0.049 0.009-0.065 0.018s-0.033 0.018-0.065 0.018c-0.033 0-0.049-0.014-0.065-0.029s-0.033-0.029-0.065-0.029c-0.033 0-0.049 0.038-0.065 0.076s-0.033 0.076-0.065 0.076c-0.033 0-0.049-0.020-0.065-0.040s-0.033-0.040-0.065-0.040c-0.032 0-0.049 0.055-0.065 0.109s-0.032 0.109-0.065 0.109c-0.032 0-0.049-0.072-0.065-0.144s-0.033-0.144-0.065-0.144c-0.033 0-0.049 0.071-0.065 0.142s-0.033 0.142-0.065 0.142c-0.032 0-0.049 0.022-0.065 0.044s-0.032 0.044-0.065 0.044c-0.033 0-0.049-0.022-0.065-0.043s-0.033-0.043-0.065-0.043c-0.032 0-0.049-0.062-0.065-0.124s-0.033-0.124-0.065-0.124c-0.033 0-0.084 0.063-0.13 0.118s-0.088 0.103-0.101 0.073c-0.013-0.031-0.012-0.083-0.002-0.133s0.029-0.1 0.050-0.126c0.021-0.026 0.053-0.023 0.084-0.019s0.062 0.007 0.084-0.019c0.021-0.026 0.074-0.006 0.126 0.015s0.105 0.042 0.126 0.015c0.021-0.026-0.027-0.087-0.076-0.148s-0.097-0.122-0.076-0.149c0.021-0.026 0.068-0.009 0.115 0.007s0.094 0.033 0.116 0.007c0.021-0.026 0.017-0.051 0.012-0.077s-0.009-0.051 0.012-0.077c0.021-0.026 0.033-0.038 0.045-0.050s0.024-0.024 0.045-0.050c0.021-0.026 0.010-0.057-0-0.087s-0.022-0.061-0-0.087c0.021-0.026 0.082 0.001 0.142 0.028s0.121 0.055 0.142 0.029c0.021-0.026 0.025-0.045 0.028-0.064s0.007-0.038 0.028-0.064c0.021-0.026-0.014-0.076-0.048-0.126s-0.069-0.1-0.048-0.126c0.021-0.026 0.038-0.034 0.056-0.041s0.035-0.015 0.056-0.041c0.021-0.026 0.039-0.033 0.058-0.039s0.037-0.013 0.058-0.039c0.021-0.026 0.032-0.039 0.043-0.051s0.022-0.025 0.043-0.051c0.021-0.026 0.087 0.006 0.153 0.037s0.132 0.064 0.153 0.038c0.021-0.026-0.024-0.084-0.069-0.142s-0.090-0.116-0.069-0.142c0.021-0.026 0.045-0.029 0.069-0.031s0.047-0.005 0.068-0.031c0.021-0.026 0.049-0.025 0.077-0.024s0.056 0.002 0.077-0.024c0.021-0.026-0.020-0.081-0.062-0.137s-0.083-0.111-0.062-0.137c0.021-0.026 0.040-0.033 0.059-0.039s0.038-0.013 0.059-0.039c0.021-0.026 0.073-0.006 0.124 0.014s0.103 0.040 0.124 0.014c0.021-0.026 0.045-0.028 0.068-0.031s0.047-0.005 0.068-0.031c0.021-0.026 0.040-0.033 0.058-0.039s0.037-0.013 0.058-0.039c0.021-0.026 0.016-0.052 0.011-0.077s-0.010-0.051 0.011-0.077c0.021-0.026 0.006-0.060-0.009-0.093s-0.030-0.067-0.009-0.093c0.021-0.026 0.051-0.024 0.080-0.021s0.059 0.005 0.080-0.021c0.021-0.026-0.010-0.072-0.040-0.119s-0.061-0.093-0.040-0.119c0.021-0.026 0.090 0.009 0.16 0.043s0.139 0.069 0.16 0.043c0.012-0.014 0.005-0.037-0.010-0.063s-0.038-0.056-0.060-0.086c-0 0-0.001 0-0.001 0.001s-0.001 0-0.001 0c-0.034 0-0.050-0.023-0.067-0.046s-0.034-0.046-0.067-0.046c-0.034 0-0.050-0.008-0.067-0.015s-0.034-0.015-0.067-0.015c-0.034 0-0.050-0-0.067-0s-0.033-0-0.067-0c-0.034 0-0.050-0.051-0.067-0.102s-0.034-0.102-0.067-0.102c-0.033 0-0.050 0.008-0.067 0.016s-0.034 0.016-0.067 0.016c-0.033 0-0.050 0.058-0.067 0.117s-0.033 0.117-0.067 0.117c-0.034 0-0.050-0.060-0.067-0.12s-0.033-0.12-0.067-0.12c-0.033 0-0.050 0.043-0.067 0.086s-0.033 0.086-0.067 0.086c-0.033 0-0.050-0.041-0.067-0.082s-0.033-0.082-0.067-0.082c-0.033 0-0.075 0.059-0.112 0.111s-0.069 0.096-0.083 0.065c-0.014-0.031-0.021-0.077-0.019-0.123s0.013-0.090 0.034-0.116c0.021-0.026 0.047-0.027 0.072-0.028s0.051-0.002 0.072-0.029c0.021-0.026 0.026-0.044 0.030-0.062s0.009-0.036 0.030-0.062c0.021-0.026 0.067-0.011 0.112 0.004s0.091 0.030 0.112 0.004c0.021-0.026 0.013-0.054 0.006-0.081s-0.015-0.055 0.006-0.081c0.021-0.026 0.034-0.038 0.046-0.049s0.025-0.023 0.046-0.049c0.021-0.026 0.043-0.030 0.065-0.034s0.044-0.008 0.065-0.034c0.021-0.026 0.053-0.022 0.085-0.017s0.064 0.009 0.085-0.017c0.021-0.026 0.007-0.059-0.007-0.092s-0.028-0.066-0.007-0.092c0.021-0.026 0.001-0.064-0.018-0.101s-0.040-0.075-0.018-0.101c0.021-0.026 0.091 0.009 0.16 0.043s0.139 0.070 0.16 0.044c0.021-0.026-0.021-0.081-0.063-0.137s-0.084-0.111-0.063-0.137c0.021-0.026 0.051-0.023 0.081-0.020s0.060 0.006 0.081-0.020c0.021-0.026 0.052-0.023 0.082-0.019s0.061 0.007 0.082-0.019c0.021-0.026 0.018-0.050 0.015-0.074s-0.006-0.048 0.015-0.074c0.021-0.026 0.006-0.060-0.010-0.094s-0.031-0.068-0.010-0.094c0.021-0.026 0.047-0.026 0.074-0.026s0.053-0 0.074-0.026c0.021-0.026 0.019-0.049 0.018-0.072s-0.003-0.046 0.018-0.072c0.021-0.026 0.027-0.043 0.032-0.060s0.011-0.034 0.032-0.060c0.021-0.026 0.040-0.032 0.059-0.038s0.038-0.012 0.059-0.038c0.021-0.026 0.030-0.040 0.039-0.054s0.018-0.028 0.039-0.054c0.021-0.026 0.049-0.025 0.076-0.024s0.055 0.002 0.076-0.024c0.021-0.026-0.004-0.068-0.030-0.111s-0.051-0.084-0.030-0.11c0.021-0.026 0.091 0.009 0.16 0.044s0.139 0.070 0.161 0.044c0.021-0.026-0.003-0.067-0.026-0.107s-0.047-0.081-0.026-0.107c0.021-0.026 0.036-0.035 0.051-0.045s0.030-0.019 0.051-0.045c0.021-0.026 0.031-0.039 0.042-0.052s0.021-0.026 0.042-0.052c0.021-0.026 0.035-0.036 0.049-0.046s0.028-0.021 0.049-0.046c0.021-0.026 0.064-0.013 0.107 0.001s0.086 0.026 0.107 0.001c0.021-0.026 0.032-0.038 0.044-0.051s0.023-0.025 0.044-0.051c0.021-0.026 0.005-0.061-0.012-0.096s-0.033-0.070-0.012-0.096c0.021-0.026 0.029-0.041 0.037-0.056s0.016-0.030 0.037-0.056c0.021-0.026 0.052-0.022 0.084-0.018s0.063 0.008 0.084-0.018c0.021-0.026-0.029-0.088-0.079-0.15s-0.1-0.124-0.079-0.149c0.021-0.026 0.048-0.026 0.075-0.025s0.054 0.001 0.075-0.025c0.021-0.026 0.076-0.003 0.131 0.021s0.11 0.047 0.131 0.021c0.021-0.026 0.026-0.044 0.030-0.061s0.009-0.035 0.030-0.061c0.021-0.026 0.017-0.050 0.014-0.075s-0.007-0.049 0.014-0.075c0.021-0.026 0.021-0.055 0.023-0.077s0.009-0.038 0.042-0.038c0.034 0 0.022 0.031 0.006 0.068s-0.034 0.081-0.012 0.107c0.021 0.026 0.063 0.014 0.104 0.002s0.083-0.024 0.104 0.002c0.021 0.026 0.001 0.064-0.019 0.102s-0.040 0.076-0.019 0.102c0.021 0.026 0.032 0.039 0.043 0.052s0.022 0.025 0.043 0.052c0.021 0.026 0.071 0.007 0.121-0.012s0.1-0.038 0.121-0.012c0.021 0.026 0.041 0.032 0.061 0.037s0.040 0.011 0.061 0.037c0.021 0.026 0.004 0.062-0.013 0.097s-0.034 0.071-0.013 0.097c0.021 0.026 0.015 0.053 0.009 0.080s-0.012 0.053 0.009 0.079c0.021 0.026 0.063 0.014 0.105 0.002s0.083-0.024 0.105 0.002c0.021 0.026 0.025 0.044 0.030 0.062s0.009 0.036 0.030 0.062c0.021 0.026 0.022 0.047 0.022 0.068s0.001 0.042 0.022 0.068c0.021 0.026 0.048 0.026 0.074 0.026s0.053-0 0.074 0.026c0.021 0.026 0.038 0.033 0.056 0.041s0.035 0.015 0.056 0.041c0.021 0.026 0.029 0.041 0.037 0.056s0.016 0.030 0.037 0.056c0.021 0.026-0.024 0.084-0.069 0.143s-0.090 0.117-0.069 0.143c0.021 0.026 0.082-0.002 0.143-0.030s0.122-0.056 0.143-0.030c0.021 0.026 0.036 0.035 0.051 0.045s0.030 0.019 0.051 0.045c0.021 0.026 0.033 0.038 0.045 0.050s0.024 0.024 0.045 0.050c0.021 0.026 0.038 0.034 0.055 0.042s0.034 0.016 0.055 0.042c0.021 0.026-0.002 0.066-0.025 0.106s-0.046 0.080-0.025 0.106c0.021 0.026 0.004 0.061-0.013 0.097s-0.034 0.071-0.013 0.097c0.021 0.026 0.067 0.011 0.112-0.005s0.091-0.031 0.112-0.005c0.021 0.026 0.043 0.030 0.064 0.034s0.043 0.008 0.064 0.034c0.021 0.026 0.026 0.044 0.031 0.061s0.010 0.035 0.031 0.061c0.021 0.026 0.042 0.030 0.064 0.034s0.043 0.008 0.064 0.034c0.021 0.026 0.053 0.021 0.085 0.017s0.064-0.009 0.085 0.017c0.021 0.026-0.026 0.086-0.074 0.146s-0.095 0.12-0.074 0.146c0.021 0.026 0.040 0.032 0.058 0.039s0.037 0.013 0.058 0.039c0.021 0.026 0.057 0.018 0.093 0.010s0.072-0.015 0.093 0.010c0.021 0.026-0.011 0.073-0.042 0.12s-0.063 0.094-0.042 0.12c0.021 0.026 0.066 0.011 0.111-0.004s0.090-0.030 0.111-0.004c0.021 0.026 0.046 0.027 0.070 0.029s0.049 0.003 0.070 0.029c0.021 0.026-0.016 0.077-0.053 0.129s-0.074 0.103-0.053 0.129c0.021 0.026 0.067 0.010 0.114-0.006s0.093-0.032 0.114-0.007c0.021 0.026 0.017 0.051 0.012 0.076s-0.009 0.050 0.012 0.076c0.021 0.026 0.043 0.029 0.066 0.033s0.045 0.007 0.066 0.032c0.021 0.026 0.002 0.063-0.017 0.099s-0.038 0.074-0.017 0.099c0.021 0.026 0.039 0.033 0.058 0.039s0.037 0.013 0.058 0.039c0.021 0.026 0.070 0.025 0.109 0.025s0.070 0.001 0.056 0.031c-0.015 0.030-0.035 0.076-0.060 0.114s-0.055 0.068-0.088 0.068c-0.034 0-0.050-0.057-0.067-0.114s-0.034-0.114-0.067-0.114c-0.034 0-0.050 0.027-0.067 0.054s-0.034 0.054-0.067 0.054c-0.033 0-0.050-0.027-0.067-0.054s-0.033-0.054-0.067-0.054c-0.034 0-0.050-0.035-0.067-0.069s-0.034-0.069-0.067-0.069c-0.034 0-0.050 0.072-0.067 0.144s-0.033 0.144-0.067 0.144c-0.033 0-0.050 0.002-0.067 0.003s-0.033 0.003-0.067 0.003c-0.033 0-0.050-0.048-0.067-0.096s-0.034-0.096-0.067-0.096c-0.033 0-0.050 0.015-0.067 0.031s-0.033 0.031-0.067 0.031c-0.033 0-0.050-0.040-0.067-0.080s-0.033-0.080-0.067-0.080c-0.033 0-0.041 0.037-0.044 0.082s-0 0.097-0.014 0.127c-0.014 0.031-0.042 0.051-0.061 0.070s-0.029 0.037-0.008 0.063c0.021 0.026 0.013 0.055 0.005 0.083s-0.017 0.057 0.005 0.083c0.021 0.026 0.11-0.023 0.198-0.073s0.177-0.1 0.198-0.073c0.021 0.026-0.003 0.068-0.028 0.109s-0.049 0.083-0.028 0.109c0.021 0.026 0.007 0.059-0.008 0.093s-0.029 0.067-0.008 0.093c0.021 0.026 0.085-0.004 0.149-0.034s0.128-0.060 0.149-0.034c0.021 0.026-0.011 0.074-0.043 0.121s-0.064 0.095-0.043 0.121c0.021 0.026 0.066 0.012 0.111-0.003s0.089-0.029 0.111-0.003c0.021 0.026-0.001 0.066-0.024 0.105s-0.045 0.079-0.024 0.105c0.021 0.026 0.025 0.044 0.030 0.063s0.008 0.036 0.030 0.062c0.021 0.026 0.062 0.014 0.104 0.003s0.082-0.023 0.104 0.003c0.021 0.026 0.050 0.024 0.079 0.022s0.058-0.004 0.079 0.022c0.021 0.026 0.005 0.061-0.011 0.095s-0.032 0.069-0.011 0.095c0.021 0.026 0.032 0.038 0.044 0.051s0.023 0.025 0.044 0.051c0.021 0.026 0.011 0.056 0.001 0.086s-0.020 0.060 0.001 0.086c0.021 0.026 0.015 0.053 0.009 0.079s-0.012 0.053 0.009 0.079c0.021 0.026 0.096-0.013 0.171-0.052s0.15-0.078 0.171-0.052c0.021 0.026-0.002 0.066-0.025 0.107s-0.046 0.081-0.025 0.107c0.021 0.026 0.038 0.034 0.054 0.043s0.033 0.017 0.054 0.043c0.021 0.026 0.009 0.057-0.003 0.088s-0.024 0.062-0.002 0.088c0.021 0.026 0.074 0.004 0.128-0.017s0.107-0.043 0.128-0.017c0.021 0.026-0.023 0.083-0.067 0.141s-0.088 0.114-0.067 0.14c0.021 0.026 0.095-0.012 0.169-0.050s0.148-0.077 0.169-0.050c0.021 0.026 0.020 0.049 0.018 0.072s-0.003 0.046 0.018 0.072c0.021 0.026 0.044 0.029 0.068 0.031s0.047 0.006 0.068 0.032c0.021 0.026-0.025 0.085-0.071 0.144s-0.092 0.118-0.071 0.144c0.021 0.026 0.079 0 0.137-0.025s0.116-0.051 0.137-0.025c0.020 0.024-0.009 0.069-0.042 0.116s-0.069 0.095-0.064 0.125c-0.002-0-0.004-0-0.006-0s-0.004-0-0.007-0c-0.033 0-0.049 0.038-0.065 0.077s-0.033 0.077-0.065 0.077c-0.033 0-0.049 0.038-0.065 0.076s-0.033 0.076-0.065 0.076c-0.033 0-0.049-0.037-0.065-0.075s-0.033-0.075-0.065-0.075c-0.033 0-0.049 0.042-0.065 0.084s-0.033 0.084-0.065 0.084c-0.033 0-0.049-0.019-0.065-0.038s-0.033-0.038-0.065-0.038c-0.033 0-0.049-0.026-0.065-0.053s-0.033-0.053-0.065-0.053c-0.032 0-0.049 0.001-0.065 0.002s-0.032 0.002-0.065 0.002c-0.032 0-0.049-0.035-0.065-0.069s-0.033-0.069-0.065-0.069c-0.033 0-0.049 0.033-0.065 0.065s-0.033 0.065-0.065 0.065c-0.032 0-0.049 0.004-0.065 0.008s-0.032 0.008-0.065 0.008c-0.033 0-0.049 0.017-0.065 0.035s-0.033 0.035-0.065 0.035c-0.032 0-0.049 0.004-0.065 0.009s-0.033 0.009-0.065 0.009c-0.004 0-0.007-0-0.010-0.001s-0.005-0.001-0.007-0.002c-0.028 0.026-0.080 0.051-0.12 0.075s-0.070 0.047-0.051 0.070c0.021 0.026 0.038 0.035 0.054 0.043s0.033 0.017 0.054 0.043c0.021 0.026 0.078 0.002 0.136-0.022s0.114-0.049 0.135-0.022c0.021 0.026 0.017 0.052 0.013 0.077s-0.009 0.051 0.013 0.077c0.021 0.026 0.035 0.037 0.049 0.047s0.028 0.021 0.049 0.047c0.021 0.026 0.049 0.025 0.077 0.025s0.055-0.001 0.077 0.025c0.021 0.026 0.023 0.047 0.025 0.067s0.004 0.041 0.025 0.067c0.021 0.026 0.024 0.046 0.027 0.065s0.006 0.039 0.027 0.065c0.021 0.026-0.002 0.066-0.024 0.106s-0.045 0.080-0.024 0.106c0.021 0.026 0.042 0.031 0.063 0.035s0.042 0.009 0.063 0.035c0.021 0.026 0.076 0.003 0.132-0.020s0.11-0.046 0.132-0.020c0.021 0.026 0.028 0.042 0.035 0.058s0.014 0.032 0.035 0.058c0.021 0.026 0.017 0.051 0.012 0.076s-0.009 0.050 0.012 0.076c0.021 0.026 0.032 0.039 0.043 0.052s0.022 0.026 0.043 0.052c0.021 0.026 0.054 0.021 0.088 0.016s0.066-0.010 0.088 0.016c0.021 0.026 0.025 0.045 0.029 0.064s0.008 0.037 0.029 0.064c0.021 0.026 0.025 0.045 0.029 0.063s0.008 0.037 0.029 0.063c0.021 0.026 0.028 0.042 0.035 0.058s0.014 0.032 0.035 0.058c0.021 0.026 0.010 0.057-0.002 0.088s-0.023 0.062-0.002 0.088c0.021 0.026 0.028 0.042 0.035 0.059s0.013 0.032 0.035 0.059c0.019 0.024 0.037 0.032 0.054 0.038s0.034 0.011 0.053 0.030c0.005-0.004 0.010-0.008 0.015-0.014s0.011-0.011 0.017-0.018c0.027-0.032 0.011-0.074-0.006-0.116s-0.034-0.085-0.006-0.116c0.027-0.032 0.034-0.054 0.040-0.076s0.013-0.044 0.040-0.076c0.028-0.032 0.060-0.032 0.093-0.031s0.065 0 0.093-0.031c0.027-0.032 0.057-0.034 0.087-0.036s0.060-0.004 0.087-0.036c0.027-0.032 0.026-0.061 0.025-0.090s-0.003-0.058 0.025-0.090c0.027-0.032 0.056-0.035 0.084-0.039s0.056-0.007 0.084-0.039c0.027-0.032 0.040-0.048 0.053-0.065s0.026-0.033 0.053-0.065c0.027-0.032 0.029-0.058 0.031-0.084s0.003-0.052 0.031-0.084c0.027-0.032 0.022-0.064 0.017-0.096s-0.010-0.064 0.017-0.096c0.027-0.032 0.058-0.032 0.089-0.033s0.062-0.002 0.090-0.033c0.027-0.032 0.055-0.035 0.084-0.038s0.056-0.007 0.084-0.038c0.027-0.032 0.043-0.046 0.058-0.061s0.030-0.029 0.058-0.061c0.027-0.032 0.004-0.080-0.020-0.128s-0.047-0.096-0.019-0.128c0.027-0.032 0.069-0.024 0.11-0.016s0.083 0.016 0.11-0.015c0.027-0.032 0.037-0.051 0.047-0.070s0.019-0.039 0.047-0.070c0.027-0.032 0.067-0.025 0.106-0.019s0.079 0.013 0.106-0.019c0.027-0.032 0.057-0.075 0.075-0.119s0.025-0.090 0.006-0.127c-0.019-0.039-0.058-0.064-0.103-0.080s-0.096-0.021-0.139-0.021c-0.043 0-0.065 0.042-0.087 0.083s-0.043 0.083-0.087 0.083c-0.043 0-0.065 0.019-0.087 0.039s-0.043 0.039-0.087 0.039c-0.043 0-0.065-0.024-0.086-0.048s-0.043-0.048-0.086-0.048c-0.043 0-0.065 0.035-0.086 0.070s-0.043 0.070-0.087 0.070c-0.043 0-0.065-0.043-0.086-0.087s-0.043-0.087-0.086-0.087c-0.009 0-0.016 0-0.021 0.001s-0.009 0.001-0.012 0.002c0.002-0.002 0.003-0.006 0.003-0.011s-0.001-0.013-0.004-0.022c0.006 0.005 0.013 0.008 0.021 0.007s0.016-0.005 0.025-0.016c0.027-0.031 0.029-0.057 0.031-0.083s0.004-0.051 0.031-0.083c0.027-0.031 0.049-0.040 0.070-0.049s0.043-0.017 0.070-0.049c0.027-0.031 0.005-0.078-0.018-0.125s-0.045-0.094-0.018-0.125c0.027-0.031 0.038-0.050 0.048-0.068s0.021-0.036 0.048-0.068c0.027-0.031 0.085-0.008 0.144 0.015s0.117 0.046 0.144 0.015c0.027-0.031 0.038-0.049 0.049-0.066s0.022-0.035 0.049-0.067c0.027-0.031 0.017-0.068 0.006-0.104s-0.021-0.073 0.006-0.104c0.027-0.031 0.045-0.043 0.064-0.054s0.036-0.023 0.063-0.054c0.027-0.031 0.028-0.058 0.028-0.084s0.001-0.053 0.028-0.085c0.027-0.031 0.035-0.051 0.044-0.072s0.017-0.040 0.044-0.072c0.027-0.031 0.045-0.042 0.064-0.054s0.037-0.023 0.064-0.054c0.027-0.031 0.043-0.044 0.059-0.058s0.032-0.027 0.059-0.058c0.027-0.031 0.031-0.056 0.034-0.080s0.007-0.048 0.034-0.080c0.027-0.031 0.074-0.018 0.121-0.005s0.094 0.027 0.121-0.005c0.027-0.031 0.008-0.075-0.010-0.118s-0.037-0.087-0.010-0.118c0.027-0.031 0.046-0.042 0.066-0.052s0.039-0.021 0.066-0.052c0.027-0.031 0.058-0.032 0.089-0.032s0.062-0.001 0.089-0.032c0.027-0.031 0.010-0.074-0.008-0.116s-0.035-0.084-0.008-0.116c0.027-0.031 0.064-0.026 0.101-0.022s0.074 0.009 0.101-0.022c0.027-0.031 0.074-0.018 0.121-0.005s0.094 0.027 0.121-0.005c0.027-0.031 0.026-0.060 0.025-0.088s-0.003-0.057 0.024-0.088c0.027-0.031 0.011-0.072-0.005-0.114s-0.032-0.082-0.005-0.113c0.027-0.031 0.069-0.023 0.11-0.014s0.083 0.017 0.11-0.014c0.027-0.031 0.019-0.064 0.015-0.089s-0.005-0.043 0.036-0.042c0.042 0 0.066-0.004 0.087 0s0.038 0.016 0.065 0.047c0.027 0.031 0.019 0.066 0.012 0.1s-0.015 0.068 0.012 0.1c0.027 0.031 0.028 0.058 0.030 0.084s0.002 0.053 0.030 0.084c0.027 0.031 0.090 0.005 0.152-0.022s0.125-0.054 0.152-0.022c0.027 0.031 0.016 0.068 0.006 0.105s-0.022 0.073 0.006 0.105c0.027 0.031 0.043 0.045 0.058 0.059s0.031 0.028 0.058 0.059c0.027 0.031 0.029 0.057 0.030 0.083s0.003 0.052 0.030 0.083c0.027 0.031 0.062 0.029 0.096 0.026s0.069-0.005 0.096 0.026c0.027 0.031 0.054 0.035 0.082 0.039s0.055 0.007 0.082 0.039c0.027 0.031 0.030 0.056 0.033 0.080s0.006 0.049 0.033 0.080c0.027 0.031 0.042 0.046 0.057 0.060s0.030 0.028 0.057 0.060c0.027 0.031 0.018 0.066 0.008 0.102s-0.018 0.070 0.008 0.102c0.027 0.031 0.035 0.051 0.043 0.072s0.016 0.040 0.043 0.072c0.027 0.031 0.066 0.025 0.104 0.019s0.077-0.012 0.104 0.019c0.027 0.031 0.046 0.042 0.066 0.053s0.038 0.021 0.066 0.053c0.027 0.031 0.045 0.043 0.063 0.054s0.036 0.023 0.063 0.055c0.027 0.031 0.019 0.066 0.011 0.1s-0.016 0.069 0.011 0.1c0.027 0.031 0.061 0.029 0.095 0.027s0.068-0.004 0.095 0.027c0.027 0.031 0.010 0.073-0.008 0.116s-0.035 0.085-0.008 0.116c0.027 0.031 0.055 0.034 0.083 0.038s0.056 0.006 0.083 0.038c0.027 0.031 0.013 0.071-0.002 0.11s-0.029 0.079-0.002 0.11c0.027 0.031 0.058 0.032 0.088 0.033s0.061 0.002 0.088 0.033c0.027 0.031 0.068 0.024 0.108 0.016s0.081-0.015 0.108 0.016c0.027 0.031 0.015 0.069 0.003 0.107s-0.024 0.075 0.003 0.107c0.027 0.031 0.097 0.061 0.156 0.092s0.106 0.063 0.087 0.099c-0.020 0.038-0.075-0.015-0.135-0.079s-0.126-0.136-0.17-0.136c-0.043 0-0.065 0.056-0.087 0.111s-0.043 0.111-0.087 0.111c-0.043 0-0.065-0.014-0.086-0.028s-0.043-0.028-0.087-0.028c-0.043 0-0.065 0.006-0.086 0.013s-0.043 0.013-0.086 0.013c-0.043 0-0.065 0.004-0.086 0.008s-0.043 0.008-0.087 0.008c-0.043 0-0.065-0.028-0.086-0.055s-0.043-0.055-0.086-0.055c-0.043 0-0.104-0.020-0.159-0.031s-0.103-0.012-0.122 0.027c-0.018 0.038 0.046 0.047 0.122 0.054s0.164 0.013 0.191 0.045c0.028 0.032 0.021 0.065 0.015 0.098s-0.012 0.066 0.015 0.098c0.027 0.032 0.023 0.063 0.019 0.094s-0.008 0.063 0.020 0.094c0.027 0.032 0.033 0.055 0.039 0.077s0.012 0.045 0.039 0.077c0.027 0.032 0.068 0.024 0.109 0.017s0.082-0.015 0.109 0.017c0.028 0.032 0.025 0.061 0.023 0.091s-0.005 0.059 0.023 0.091c0.027 0.032 0.053 0.037 0.080 0.042s0.052 0.010 0.080 0.042c0.027 0.032 0.010 0.075-0.008 0.118s-0.035 0.086-0.007 0.118c0.027 0.032 0.069 0.023 0.111 0.015s0.084-0.017 0.111 0.015c0.027 0.032 0.049 0.041 0.071 0.050s0.043 0.018 0.071 0.050c0.027 0.032 0.029 0.058 0.032 0.084s0.004 0.052 0.032 0.084c0.027 0.032 0.054 0.036 0.080 0.041s0.053 0.010 0.080 0.041c0.027 0.032 0.009 0.075-0.010 0.119s-0.037 0.087-0.010 0.119c0.027 0.032 0.064 0.028 0.101 0.024s0.073-0.008 0.101 0.024c0.027 0.032 0.026 0.061 0.024 0.090s-0.003 0.058 0.024 0.090c0.027 0.032 0.052 0.038 0.076 0.045s0.049 0.013 0.076 0.045c0.027 0.032 0.027 0.059 0.027 0.087s0 0.055 0.027 0.087c0.027 0.032 0.041 0.047 0.055 0.063s0.028 0.032 0.055 0.063c0.027 0.032 0.113 0.040 0.188 0.050s0.138 0.021 0.123 0.060c-0.015 0.037-0.066 0.021-0.123-0.005s-0.121-0.061-0.161-0.061c-0.040 0-0.061-0.006-0.081-0.012s-0.040-0.012-0.081-0.012c-0.040 0-0.060-0.006-0.081-0.012s-0.040-0.012-0.081-0.012c-0.040 0-0.060 0.003-0.080 0.005s-0.040 0.005-0.080 0.005c-0.040 0-0.060 0.021-0.080 0.042s-0.040 0.042-0.081 0.042c-0.040 0-0.060-0.002-0.080-0.004s-0.040-0.004-0.080-0.004c-0.040 0-0.060-0.002-0.080-0.003s-0.040-0.003-0.080-0.003c-0.040 0-0.060 0.030-0.080 0.060s-0.040 0.060-0.080 0.060c-0.040 0-0.060-0.048-0.080-0.096s-0.040-0.096-0.080-0.096c-0.040 0-0.072-0.004-0.098 0.001s-0.046 0.020-0.062 0.057c-0.016 0.038-0.026 0.073-0.024 0.106s0.013 0.065 0.040 0.096c0.027 0.031 0.063 0.027 0.098 0.023s0.072-0.008 0.098 0.023c0.027 0.031 0.029 0.056 0.032 0.080s0.005 0.049 0.032 0.080c0.027 0.031 0.025 0.059 0.024 0.087s-0.003 0.056 0.024 0.087c0.027 0.031 0.044 0.043 0.062 0.054s0.035 0.024 0.062 0.055c0.027 0.031 0.037 0.048 0.048 0.066s0.021 0.035 0.048 0.066c0.027 0.031 0.085 0.008 0.142-0.015s0.116-0.046 0.142-0.015c0.027 0.031-0.007 0.087-0.041 0.143s-0.068 0.112-0.041 0.143c0.027 0.031 0.094-0 0.161-0.032s0.134-0.062 0.161-0.032c0.027 0.031 0.015 0.068 0.003 0.105s-0.023 0.074 0.004 0.105c0.027 0.031 0.035 0.051 0.043 0.071s0.016 0.040 0.043 0.071c0.027 0.031 0.043 0.043 0.059 0.056s0.033 0.025 0.059 0.056c0.026 0.031 0.053 0.034 0.080 0.038s0.054 0.007 0.080 0.038c0.027 0.031 0.025 0.059 0.024 0.087s-0.002 0.056 0.024 0.087c0.027 0.031 0.034 0.051 0.042 0.072s0.015 0.041 0.042 0.072c0.027 0.031 0.054 0.034 0.082 0.037s0.056 0.006 0.082 0.037c0.027 0.031 0.024 0.060 0.022 0.088s-0.004 0.058 0.022 0.088zM24.708 17.030c-0.013 0.008-0.023 0.019-0.033 0.030-0.004 0.012-0.007 0.024-0.007 0.035s0.003 0.022 0.011 0.032c0.021 0.026 0.059 0.017 0.097 0.008s0.076-0.018 0.097 0.008c0.021 0.026 0.040 0.033 0.058 0.039s0.037 0.013 0.058 0.039c0.021 0.026 0.048 0.026 0.074 0.026s0.053 0 0.074 0.026c0.021 0.026 0.044 0.029 0.066 0.033s0.045 0.007 0.066 0.033c0.021 0.026-0.024 0.084-0.069 0.143s-0.091 0.117-0.069 0.143c0.021 0.026 0.069 0.009 0.116-0.007s0.095-0.034 0.116-0.007c0.005 0.006 0.010 0.012 0.017 0.019s0.014 0.014 0.021 0.022c0.001-0.003 0.001-0.006 0.002-0.009s0.002-0.006 0.004-0.008c0.027-0.031 0.057-0.031 0.088-0.032s0.061-0.001 0.088-0.032c0.027-0.031 0.028-0.056 0.030-0.081s0.004-0.050 0.030-0.081c0.026-0.031 0.032-0.053 0.038-0.075s0.011-0.044 0.038-0.075c0.027-0.031 0.059-0.030 0.091-0.029s0.064 0.001 0.091-0.029c0.027-0.031 0.1-0.048 0.163-0.067s0.115-0.040 0.098-0.077c-0.016-0.037-0.066-0.015-0.122 0.016s-0.118 0.071-0.158 0.071c-0.040 0-0.061 0.010-0.081 0.020s-0.040 0.020-0.081 0.020c-0.040 0-0.060-0.037-0.081-0.074s-0.040-0.074-0.081-0.074c-0.040 0-0.060 0.016-0.080 0.033s-0.040 0.033-0.080 0.033c-0.040 0-0.060 0.032-0.080 0.065s-0.040 0.065-0.081 0.065c-0.040 0-0.060-0.033-0.080-0.066s-0.040-0.066-0.080-0.066c-0.040 0-0.060-0.026-0.080-0.052s-0.040-0.052-0.080-0.052c-0.040 0-0.060 0.005-0.080 0.011s-0.040 0.011-0.080 0.011c-0.020 0-0.035 0.005-0.048 0.014zM25.438 17.885c-0.020 0.012-0.043 0.022-0.068 0.030 0.026 0.011 0.051 0.020 0.072 0.023s0.039 0.001 0.051-0.013c0.008-0.009 0.010-0.021 0.008-0.035s-0.007-0.029-0.015-0.045c-0.012 0.014-0.028 0.027-0.048 0.039zM21.12 17.622l0-0c-0.008 0-0.015 0.003-0.022 0.008s-0.013 0.012-0.019 0.020v4.441c0.002 0 0.005 0.001 0.007 0.001s0.005 0 0.008 0c0.022 0 0.033 0.071 0.044 0.142s0.022 0.142 0.044 0.142c0.022 0 0.033-0.102 0.044-0.203s0.022-0.203 0.044-0.203c0.022 0 0.033 0.083 0.044 0.167s0.022 0.167 0.044 0.167c0.022 0 0.033-0.049 0.044-0.097s0.022-0.097 0.044-0.097c0.022 0 0.033 0.008 0.044 0.016s0.022 0.016 0.044 0.016c0.022 0 0.033-0.004 0.044-0.007s0.022-0.007 0.044-0.007c0.022 0 0.033-0.022 0.044-0.043s0.022-0.043 0.044-0.043c0.022 0 0.033-0.011 0.044-0.021s0.022-0.021 0.044-0.021c0.022 0 0.033 0.011 0.044 0.022s0.022 0.022 0.044 0.022c0.022 0 0.033-0.003 0.044-0.007s0.022-0.007 0.044-0.007c0.022 0 0.033-0.008 0.044-0.017s0.022-0.017 0.044-0.017c0.022 0 0.033 0.060 0.044 0.12s0.022 0.12 0.044 0.12c0.022 0 0.033 0.025 0.044 0.051s0.022 0.051 0.044 0.051c0.022 0 0.033-0.046 0.044-0.091s0.022-0.091 0.044-0.091c0.022 0 0.033-0.031 0.044-0.063s0.022-0.063 0.044-0.063c0.022 0 0.033 0.084 0.044 0.167s0.022 0.167 0.044 0.167c0.022 0 0.033-0.001 0.044-0.001s0.022-0.001 0.044-0.001c0.022 0 0.033 0.012 0.044 0.025s0.022 0.025 0.044 0.025c0.022 0 0.033-0.097 0.044-0.195s0.022-0.195 0.044-0.195c0.022 0 0.033 0.098 0.044 0.197s0.022 0.197 0.044 0.197c0.022 0 0.033-0.080 0.044-0.161s0.022-0.161 0.044-0.161c0.022 0 0.033 0.049 0.044 0.098s0.022 0.098 0.044 0.098c0.022 0 0.033-0.030 0.044-0.060s0.022-0.060 0.044-0.060c0.022 0 0.033-0.004 0.044-0.008s0.022-0.008 0.044-0.008c0.022 0 0.033 0.054 0.044 0.108s0.022 0.108 0.044 0.108c0.022 0 0.033-0.013 0.044-0.027s0.022-0.027 0.044-0.027c0.022 0 0.033-0.076 0.044-0.152s0.022-0.152 0.044-0.152c0.022 0 0.033 0.098 0.044 0.195s0.022 0.195 0.044 0.195c0.022 0 0.033 0.002 0.044 0.005s0.022 0.005 0.044 0.005c0.022 0 0.033-0.11 0.044-0.22s0.022-0.22 0.044-0.22c0.018 0 0.029 0.073 0.038 0.158s0.018 0.183 0.031 0.231v-1.889h0.68v1.85c0.005 0.018 0.010 0.034 0.016 0.046s0.013 0.020 0.023 0.020c0.022 0 0.033-0.030 0.044-0.061s0.022-0.061 0.044-0.061c0.022 0 0.033-0.073 0.044-0.145s0.022-0.145 0.044-0.145c0.022 0 0.033 0.016 0.044 0.031s0.022 0.031 0.044 0.031c0.022 0 0.033 0.022 0.044 0.044s0.022 0.044 0.044 0.044c0.022 0 0.033-0.010 0.044-0.019s0.022-0.019 0.044-0.019c0.022 0 0.033 0.048 0.044 0.097s0.022 0.097 0.044 0.097c0.022 0 0.033-0.044 0.044-0.089s0.022-0.089 0.044-0.089c0.022 0 0.033-0.032 0.044-0.065s0.022-0.065 0.044-0.065c0.022 0 0.033 0.108 0.044 0.216s0.022 0.216 0.044 0.216c0.022 0 0.033-0.054 0.044-0.108s0.022-0.108 0.044-0.108c0.022 0 0.033-0.013 0.044-0.027s0.022-0.027 0.044-0.027c0.022 0 0.033 0.023 0.044 0.046s0.022 0.046 0.044 0.046c0.022 0 0.033 0.023 0.044 0.046s0.022 0.046 0.044 0.046c0.022 0 0.033-0.066 0.044-0.133s0.022-0.133 0.044-0.133c0.022 0 0.033-0.014 0.044-0.029s0.022-0.029 0.044-0.029c0.022 0 0.033 0.088 0.044 0.176s0.022 0.176 0.044 0.176c0.022 0 0.033-0.086 0.044-0.172s0.022-0.172 0.044-0.172c0.022 0 0.033-0.009 0.044-0.017s0.022-0.017 0.044-0.017c0.022 0 0.033 0.061 0.044 0.122s0.022 0.122 0.044 0.122c0.022 0 0.033 0.046 0.044 0.091s0.022 0.091 0.044 0.091c0.022 0 0.033-0.070 0.044-0.14s0.022-0.14 0.044-0.14c0.022 0 0.033 0.061 0.044 0.122s0.022 0.122 0.044 0.122c0.022 0 0.033-0.021 0.044-0.042s0.022-0.042 0.044-0.042c0.022 0 0.033-0.047 0.044-0.093s0.022-0.093 0.044-0.093c0.022 0 0.033 0.016 0.044 0.032s0.022 0.032 0.044 0.032c0.022 0 0.033-0.009 0.044-0.018s0.022-0.018 0.044-0.018c0.022 0 0.033-0.008 0.044-0.015s0.022-0.015 0.044-0.015c0.022 0 0.033-0.023 0.044-0.047s0.022-0.047 0.044-0.047c0.022 0 0.033 0.021 0.044 0.041s0.022 0.042 0.044 0.042c0.022 0 0.033 0.082 0.044 0.165s0.022 0.165 0.044 0.165c0.022 0 0.033-0.049 0.044-0.098s0.022-0.098 0.044-0.098c0.022 0 0.033-0.037 0.044-0.073s0.022-0.073 0.044-0.073c0.022 0 0.033 0.044 0.044 0.087s0.022 0.087 0.044 0.087c0.022 0 0.033 0.017 0.044 0.034s0.022 0.034 0.044 0.034c0.022 0 0.033-0.036 0.044-0.072s0.022-0.072 0.044-0.072c0.002 0 0.004-0 0.006-0.001s0.004-0.002 0.005-0.003v-2.704c-0.009 0.012-0.018 0.023-0.029 0.032s-0.025 0.013-0.042 0.013c-0.041 0-0.062 0.026-0.083 0.052s-0.042 0.052-0.083 0.052c-0.041 0-0.062-0.009-0.083-0.018s-0.042-0.017-0.083-0.017c-0.042 0-0.063-0.035-0.083-0.071s-0.042-0.071-0.083-0.071c-0.042 0-0.062 0.021-0.083 0.043s-0.042 0.043-0.083 0.043c-0.041 0-0.062 0.023-0.083 0.046s-0.041 0.046-0.083 0.046c-0.041 0-0.062-0.046-0.083-0.091s-0.041-0.091-0.083-0.091c-0.042 0-0.062 0.034-0.083 0.068s-0.042 0.068-0.083 0.068c-0.042 0-0.062-0.067-0.083-0.134s-0.042-0.134-0.083-0.134c-0.042 0-0.062 0.011-0.083 0.023s-0.042 0.023-0.083 0.023c-0.042 0-0.062 0.014-0.083 0.029s-0.042 0.029-0.083 0.029c-0.042 0-0.062-0.025-0.083-0.049s-0.042-0.049-0.083-0.049c-0.042 0-0.062 0.046-0.083 0.092s-0.042 0.092-0.083 0.092c-0.042 0-0.062-0.040-0.083-0.080s-0.042-0.080-0.083-0.080c-0.042 0-0.062 0.001-0.083 0.002s-0.042 0.002-0.083 0.002c-0.042 0-0.062 0.044-0.083 0.089s-0.042 0.089-0.083 0.089c-0.041 0-0.062-0.051-0.083-0.102s-0.042-0.102-0.083-0.102c-0.042 0-0.062 0.074-0.083 0.148s-0.042 0.148-0.083 0.148c-0.041 0-0.062-0.059-0.083-0.117s-0.042-0.117-0.083-0.117c-0.042 0-0.062 0.017-0.083 0.034s-0.042 0.034-0.083 0.034c-0.042 0-0.062 0.020-0.083 0.041s-0.042 0.041-0.083 0.041c-0.041 0-0.052-0.007-0.057-0.024s-0.004-0.043-0.022-0.080c-0.018-0.037-0.031-0.046-0.032-0.053s0.008-0.013 0.035-0.044c0.027-0.031 0.071-0.020 0.115-0.009s0.088 0.022 0.115-0.009c0.027-0.031 0.039-0.047 0.052-0.063s0.026-0.032 0.052-0.063c0.027-0.031 0.006-0.076-0.014-0.12s-0.041-0.089-0.015-0.12c0.027-0.031 0.060-0.029 0.094-0.027s0.067 0.004 0.094-0.027c0.027-0.031 0.012-0.070-0.002-0.11s-0.029-0.079-0.002-0.11c0.027-0.031 0.057-0.032 0.087-0.033s0.060-0.002 0.086-0.033c0.027-0.031 0.055-0.034 0.082-0.037s0.056-0.006 0.082-0.037c0.027-0.031 0.046-0.041 0.065-0.051s0.039-0.020 0.065-0.051c0.027-0.031 0.028-0.056 0.029-0.082s0.002-0.052 0.029-0.082c0.027-0.031 0.038-0.048 0.050-0.065s0.023-0.034 0.050-0.065c0.023-0.027 0.011-0.064-0.006-0.103s-0.037-0.078-0.031-0.11c-0.020-0.017-0.022-0.048-0.027-0.075s-0.013-0.050-0.043-0.050c-0.033 0-0.050 0.005-0.067 0.009s-0.033 0.009-0.067 0.009c-0.033 0-0.050 0.024-0.067 0.048s-0.033 0.048-0.067 0.048c-0.033 0-0.050 0.005-0.067 0.010s-0.033 0.010-0.067 0.010c-0.033 0-0.050-0.046-0.067-0.092s-0.033-0.092-0.067-0.092c-0.033 0-0.050 0.043-0.067 0.085s-0.033 0.085-0.067 0.085c-0.033 0-0.050-0.022-0.067-0.043s-0.033-0.043-0.067-0.043c-0.033 0-0.050-0.022-0.066-0.044s-0.033-0.044-0.067-0.044c-0.033 0-0.050-0.026-0.067-0.052s-0.033-0.052-0.067-0.052c-0.033 0-0.050 0.018-0.067 0.037s-0.033 0.037-0.067 0.037c-0.033 0-0.050 0.065-0.066 0.13s-0.033 0.13-0.066 0.13c-0.033 0-0.050 0.002-0.067 0.004s-0.033 0.004-0.067 0.004c-0.033 0-0.050-0.075-0.067-0.15s-0.033-0.15-0.067-0.15c-0.033 0-0.050 0.020-0.067 0.041s-0.033 0.041-0.067 0.041c-0.033 0-0.050-0.007-0.067-0.013s-0.033-0.013-0.067-0.013c-0.033 0-0.050 0.053-0.067 0.107s-0.033 0.107-0.067 0.107c-0.033 0-0.050-0.050-0.067-0.099s-0.033-0.099-0.067-0.099c-0.033 0-0.050 0.022-0.067 0.045s-0.033 0.045-0.067 0.045c-0.033 0-0.050-0.022-0.067-0.043s-0.033-0.043-0.066-0.043c-0.033 0-0.050-0.007-0.066-0.013s-0.033-0.013-0.067-0.013c-0.033 0-0.050-0.012-0.067-0.024s-0.033-0.024-0.066-0.024c-0.033 0-0.050 0.029-0.067 0.058s-0.033 0.058-0.067 0.058c-0.033 0-0.050-0.018-0.067-0.035s-0.033-0.035-0.066-0.035c-0.033 0-0.050-0.033-0.066-0.066s-0.033-0.066-0.066-0.066c-0.033 0-0.050 0.072-0.066 0.145s-0.033 0.145-0.066 0.145c-0.033 0-0.050 0.016-0.066 0.032s-0.033 0.032-0.066 0.032c-0.033 0-0.050-0.032-0.066-0.064s-0.033-0.064-0.066-0.064c-0.033 0-0.050-0.042-0.066-0.083s-0.033-0.083-0.067-0.083c-0.033 0-0.050 0.019-0.067 0.039s-0.033 0.039-0.067 0.039c-0.033 0-0.050-0.027-0.067-0.053s-0.033-0.053-0.066-0.053c-0.033 0-0.050 0.003-0.066 0.006s-0.033 0.006-0.066 0.006zM18.68 11.634c0.005-0.002 0.006-0.007 0-0.019s-0.010-0.014-0.014-0.010-0.008 0.013-0.012 0.025c0.012 0.004 0.021 0.006 0.026 0.005zM16.113 17.126c-0.015 0.046-0.027 0.102-0.042 0.147 0.010 0.001 0.019 0.001 0.027-0.002s0.015-0.006 0.020-0.013c0.021-0.026 0.053-0.022 0.085-0.018s0.064 0.008 0.085-0.018c0.001-0.002 0.002-0.003 0.003-0.005s0.002-0.003 0.003-0.005c-0.022-0.023-0.037-0.065-0.053-0.101s-0.036-0.066-0.068-0.066c-0.027 0-0.045 0.035-0.060 0.080zM25.426 14.61c-0.002-0.008 0.003-0.007 0.015 0.018 0.002 0.003 0.003 0.006 0.003 0.008s0.002 0.005 0.002 0.007c-0.012-0.009-0.019-0.025-0.021-0.033zM25.442 14.68c-0.001-0 0-0.002 0.006-0.003-0.003 0.003-0.006 0.004-0.006 0.003z"></path>
</svg>
