<?xml version="1.0" encoding="utf-8"?>
<svg version="1.1" viewBox="0 0 1200 1200" xmlns="http://www.w3.org/2000/svg" width="150pt" height="150pt">
  <path d="M 670.388 633.671 C 681.767 743.619 692.82 850.385 703.497 953.218 C 761.464 953.218 812.313 953.487 863.098 952.732 C 867.087 952.68 873.936 946.368 874.528 942.217 C 884.126 877.671 892.917 812.962 902.459 744.321 L 791.863 744.321 C 782.589 744.321 773.26 744.806 764.039 744.158 C 743.979 742.648 738.696 733.105 748.348 715.148 C 756.004 700.912 763.336 686.192 773.422 673.789 C 778.814 667.156 789.438 662.034 798.065 661.441 C 821.144 659.77 844.438 660.632 867.626 660.956 C 891.406 661.279 909.147 651.573 920.363 630.437 C 931.47 609.512 926.402 590.371 913.676 572.09 C 888.116 535.477 862.934 498.647 836.836 462.411 C 827.993 450.116 827.183 440.41 835.703 427.038 C 863.797 382.983 890.274 337.904 917.829 293.528 C 931.74 271.096 945.114 271.419 958.699 294.768 C 988.41 345.94 1017.81 397.383 1046.49 449.099 C 1051.34 457.835 1052.15 468.78 1054.79 478.702 C 1044.87 481.291 1035.05 484.256 1025.08 486.36 C 1020.66 487.277 1015.86 486.521 1007.82 486.521 C 1015.38 501.458 1021.63 514.993 1028.91 528.043 C 1063.31 589.785 1097.98 651.361 1132.49 713.042 C 1143.12 732.023 1136.75 743.78 1114.21 744.102 C 1069.46 744.749 1024.71 744.317 977.58 744.317 C 981.19 785.514 984.04 825.095 988.3 864.506 C 990.84 888.125 997.42 911.419 998.82 935.092 C 999.9 952.939 1009.72 955.307 1023.41 958.224 C 1054.79 964.855 1086.61 970.948 1116.86 981.3 C 1129.27 985.56 1148.57 1004.12 1146.62 1009.44 C 1141.18 1024.06 1127.21 1036.42 1114.43 1047.04 C 1108.99 1051.55 1098.14 1050.27 1089.74 1050.32 C 952.876 1050.6 815.973 1050.27 679.114 1051.02 C 657.923 1051.14 646.975 1043.74 635.76 1025.08 C 626.54 1009.71 607.612 996.78 590.196 990.42 C 560.645 979.63 550.455 955.587 553.313 922.634 C 558.76 859.653 563.989 796.612 568.681 733.526 C 571.108 701.227 572.186 668.873 574.127 632.745 L 550.778 632.745 C 495.076 632.8 439.374 633.447 383.724 632.26 C 373.586 632.045 359.243 626.598 354.929 618.996 C 350.885 611.878 354.605 596.726 359.998 588.422 C 408.312 514.385 457.76 441.106 506.829 367.61 C 508.016 365.831 508.662 363.783 510.98 358.929 C 496.368 358.929 483.589 359.307 470.863 358.823 C 451.019 358.12 445.626 349.17 455.494 332.885 C 503.647 253.347 551.856 173.768 600.44 94.485 C 616.456 68.333 631.284 68.818 648.215 95.618 C 699.118 176.286 749.644 257.173 800.487 337.893 C 810.194 353.316 804.641 358.977 788.355 358.923 C 774.497 358.869 760.639 358.923 741.118 358.923 C 752.658 380.33 761.07 398.827 771.961 415.757 C 807.443 470.651 844.381 524.682 879.43 579.844 C 885.955 590.089 892.695 608.746 887.95 615.541 C 881.319 624.923 864.116 630.747 851.174 631.179 C 797.846 633.067 744.46 632.311 691.126 632.635 C 686.489 632.581 682.067 633.012 670.365 633.66 L 670.388 633.671 Z M 116.807 573.115 C 82.619 573.007 77.606 564.811 93.943 535.317 C 122.146 484.251 150.509 433.186 178.764 382.113 C 189.44 362.807 200.118 343.503 212.143 321.718 C 200.658 321.718 192.352 321.881 184.103 321.664 C 161.24 321.072 153.744 308.884 164.745 288.395 C 198.447 225.466 232.365 162.591 267.145 100.253 C 270.864 93.513 281.003 85.695 287.419 86.34 C 294.431 87.041 302.681 95.777 306.67 103.002 C 338.215 160.97 368.626 219.579 399.903 277.707 C 416.349 308.335 409.07 321.277 374.074 321.708 C 370.245 321.762 366.418 321.708 358.058 321.708 C 377.256 356.11 394.294 388.518 413.276 419.686 C 421.041 432.411 419.531 441.363 411.819 452.74 C 383.779 494.1 356.602 536.051 328.885 577.623 C 316.915 595.579 312.492 614.722 323.548 634.026 C 335.033 654.138 353.367 664.977 377.093 664.277 C 397.962 663.685 418.938 660.18 439.536 661.906 C 450.05 662.768 463.477 669.776 469.302 678.352 C 486.988 704.289 501.924 732.221 517.24 759.721 C 520.42 765.436 520.744 772.825 522.2 778.756 C 492.164 765.976 465.257 750.447 436.3 743.06 C 356.062 722.622 275.664 725.966 198.602 757.026 C 177.949 765.33 162.258 785.766 143.816 800.001 C 136.805 805.447 128.717 812.08 120.576 812.889 C 101.433 814.829 81.968 813.967 62.662 813.482 C 35.323 812.781 27.611 799.785 41.578 776.382 C 78.191 715.018 115.399 654.031 152.39 592.935 C 155.784 587.333 159.448 581.676 164.831 573.115 C 146.184 573.115 131.469 573.17 116.807 573.115 Z M 392.854 1015.5 C 396.413 1034.59 399.917 1047.9 401.212 1061.44 C 404.338 1094.13 384.927 1112.13 354.46 1099.19 C 316.121 1082.83 280.693 1059.66 244.08 1039.29 C 241.438 1037.82 239.496 1035.23 235.722 1031.79 C 200.402 1062.58 156.831 1073.3 112.081 1081.6 C 94.88 1084.79 81.723 1080.64 77.301 1064.09 C 72.719 1046.82 77.787 1031.83 98.277 1027.1 C 144.057 1016.57 158.887 981.53 164.656 940.814 C 168.969 910.347 171.72 879.503 172.96 848.766 C 174.038 822.937 187.304 806.599 209.035 797.109 C 260.207 774.73 314.615 768.854 369.452 774.569 C 400.296 777.751 431.301 785.408 460.688 795.437 C 493.528 806.653 509.489 830.919 509.004 868.018 C 508.572 902.366 512.723 937.093 518.009 971.175 C 522 996.94 537.961 1015.55 564.221 1023.69 C 571.446 1025.96 579.534 1028.39 584.873 1033.3 C 592.638 1040.4 605.416 1054.7 603.584 1057.4 C 596.575 1067.58 585.52 1079.02 574.251 1081.23 C 559.96 1084.05 543.569 1079.99 528.848 1076.05 C 487.435 1065.05 445.536 1054.58 412.971 1023.48 C 409.143 1019.81 402.348 1019.16 392.859 1015.5 L 392.854 1015.5 Z M 226.456 848.984 C 267.923 890.073 417.506 891.259 453.41 849.523 C 409.785 808.219 263.969 808.542 226.456 848.984 Z"/>
</svg>