<!-- Generated by IcoMoon.io -->
<svg version="1.1" xmlns="http://www.w3.org/2000/svg" width="32" height="32" viewBox="0 0 32 32">
<path d="M19.891 1.17c0.054-0.573 0.676-0.997 1.206-0.836 0.396 0.115 0.701 0.432 0.932 0.772 0.062 0.082 0.112 0.182 0.2 0.233 0.141 0.005 0.275-0.046 0.411-0.071 0.55-0.103 1.123-0.036 1.648 0.161 0.419 0.1 0.847 0.156 1.276 0.182 0.347 0.054 0.666 0.215 0.986 0.358 0.157 0.059 0.329 0.057 0.491 0.101 0.259 0.054 0.502 0.171 0.727 0.311 0.291 0.185 0.646 0.129 0.967 0.2 0.19 0.029 0.38 0.106 0.574 0.069 0.365-0.046 0.732-0.081 1.1-0.086 0.276 0.004 0.591 0.046 0.785 0.274 0.192 0.235 0.321 0.553 0.27 0.864-0.039 0.126-0.173 0.159-0.261 0.231 0.012 0.221 0.081 0.441 0.052 0.667-0.050 0.423-0.104 0.874-0.362 1.221-0.106 0.166-0.268 0.275-0.406 0.407-0.039 0.289-0.074 0.585-0.2 0.851-0.068 0.156-0.141 0.323-0.277 0.429-0.054 0.039-0.114-0.011-0.13-0.066-0.054-0.296 0.054-0.596 0.014-0.892-0.071-0.042-0.135 0.052-0.174 0.102-0.388 0.56-0.715 1.169-0.948 1.816-0.112 0.337-0.212 0.701-0.135 1.057 0.074 0.276 0.28 0.485 0.375 0.752 0.253-0.112 0.421-0.348 0.615-0.539 0.041-0.049 0.123-0.078 0.153 0 0.031 0.104-0.003 0.219-0.031 0.322-0.107 0.268-0.241 0.536-0.45 0.735 0.052 0.115 0.141 0.218 0.152 0.349-0.004 0.133-0.089 0.238-0.153 0.346-0.116 0.2-0.23 0.417-0.426 0.544-0.192 0.121-0.413 0.181-0.616 0.277 0.024-0.081 0.059-0.157 0.092-0.234-0.222 0.026-0.453 0.014-0.661-0.075-0.237-0.093-0.419-0.285-0.651-0.386-0.21 0.091-0.383 0.255-0.548 0.414-0.172 0.167-0.27 0.433-0.187 0.671 0.128 0.382 0.248 0.769 0.436 1.125-0.073-0.017-0.141-0.049-0.202-0.091-0.017 0.111 0.054 0.206 0.045 0.313-0.041 0.024-0.105 0.066-0.067 0.124 0.075 0.14 0.117 0.295 0.145 0.453-0.13-0.085-0.209-0.233-0.342-0.318 0.043 0.202 0.115 0.397 0.169 0.598 0.233 0.818 0.398 1.657 0.477 2.507 0.022 0.29 0.122 0.563 0.212 0.836 0.21 0.62 0.566 1.168 0.873 1.738 0.409 0.767 0.708 1.593 0.946 2.433 0.17 0.617 0.275 1.252 0.36 1.886 0.073 0.466 0.126 0.949 0.337 1.373 0.231 0.357 0.416 0.743 0.573 1.14 0.185 0.464 0.373 0.933 0.462 1.429 0.071 0.387-0.024 0.792-0.22 1.124-0.128 0.207-0.313 0.41-0.561 0.438-0.14 0.019-0.266-0.092-0.305-0.227 0.124 0.036 0.281 0.080 0.382-0.035 0.102-0.125 0.187-0.279 0.2-0.444-0.127-0.009-0.257-0.022-0.38 0.010-0.15 0.2-0.336 0.37-0.535 0.515-0.17 0.127-0.387 0.146-0.587 0.105 0.164-0.135 0.357-0.271 0.406-0.499 0.048-0.164 0.020-0.409-0.16-0.467-0.17 0.24-0.296 0.554-0.578 0.685-0.201 0.124-0.501 0.062-0.601-0.168 0.257 0.005 0.47-0.211 0.514-0.466 0.078-0.422-0.253-0.858-0.661-0.89-0.081 0.119-0.12 0.264-0.195 0.388-0.107 0.182-0.247 0.345-0.41 0.476-0.119 0.099-0.291 0.125-0.424 0.040 0.211-0.227 0.421-0.497 0.438-0.826 0.030-0.299-0.111-0.584-0.31-0.79-0.267-0.276-0.231-0.71-0.13-1.054-0.128 0.221-0.283 0.459-0.52 0.556 0.102-0.231 0.166-0.522 0.031-0.753-0.028 0.030-0.055 0.061-0.092 0.079-0.083-0.24-0.154-0.491-0.307-0.695-0.059 0.24-0.067 0.503-0.176 0.723-0.072-0.303-0.158-0.608-0.304-0.884-0.066-0.13-0.219-0.138-0.33-0.205-0.089-0.047-0.138-0.141-0.209-0.208-0.024 0.124-0.043 0.267-0.14 0.354-0.045-0.288-0.104-0.603-0.325-0.807-0.071 0.209-0.155 0.429-0.316 0.581 0.014-0.283 0.017-0.591-0.141-0.836-0.098-0.164-0.247-0.281-0.385-0.402-0.015 0.083-0.026 0.166-0.038 0.251-0.145-0.287-0.284-0.579-0.463-0.845-0.036 0.028-0.070 0.059-0.103 0.090-0.056-0.107-0.085-0.226-0.129-0.336-0.083-0.236-0.193-0.471-0.204-0.726-0.010-0.122 0.007-0.247-0.017-0.368-0.046 0.123-0.078 0.252-0.126 0.373-0.019-0.173-0.005-0.351-0.041-0.522-0.041-0.266-0.161-0.508-0.266-0.751-0.023-0.026-0.016-0.086-0.054-0.090-0.106 0.1-0.212 0.198-0.326 0.287 0.019-0.195 0.052-0.405-0.038-0.588-0.059-0.113-0.14-0.223-0.252-0.28-0.045 0.308-0.117 0.61-0.175 0.916-0.001 0.034-0.015 0.056-0.043 0.069-0.028-0.259-0.091-0.515-0.211-0.745-0.187-0.365-0.389-0.731-0.465-1.142-0.116 0.011-0.24 0.027-0.331 0.112-0.142 0.132-0.235 0.312-0.373 0.448l0.034-0.331c-0.113 0.048-0.269 0.046-0.33 0.177-0.136 0.257-0.285 0.508-0.444 0.751-0.068 0.096-0.134 0.199-0.232 0.266 0.035-0.17 0.077-0.339 0.078-0.514-0.105 0.092-0.158 0.241-0.243 0.356-0.103-0.081-0.242-0.030-0.295 0.085-0.175 0.335-0.124 0.733-0.084 1.096 0.144 0.971 0.458 1.93 1.010 2.737-0.159-0.096-0.307-0.208-0.445-0.335-0.007 0.161 0.072 0.306 0.136 0.448 0.247 0.509 0.378 1.068 0.453 1.63 0.039 0.327 0.098 0.657 0.25 0.951 0.16 0.332 0.423 0.593 0.701 0.819-0.14 0.011-0.273-0.043-0.412-0.040 0.042 0.198 0.21 0.329 0.366 0.431 0.415 0.279 0.949 0.26 1.354 0.558 0.322 0.251 0.497 0.663 0.543 1.072 0.014 0.211-0.037 0.449-0.198 0.591-0.060-0.238-0.11-0.516-0.325-0.657-0.159-0.077-0.336-0.017-0.503-0.021 0.011 0.241-0.025 0.486-0.087 0.719-0.035 0.102-0.061 0.221-0.153 0.287-0.022-0.179-0.078-0.349-0.128-0.52-0.057 0.059-0.121 0.112-0.197 0.143-0.305 0.131-0.64 0.161-0.966 0.175-0.059 0.215-0.108 0.449-0.254 0.621-0.092-0.211-0.085-0.452-0.133-0.675-0.181-0.005-0.369-0.002-0.538 0.073-0.173 0.124-0.24 0.371-0.438 0.463 0.019-0.131 0.049-0.27-0.010-0.395-0.139-0.084-0.302-0.043-0.448-0.004-0.501 0.135-1.045 0.24-1.548 0.068-0.287-0.085-0.514-0.332-0.596-0.628-0.119-0.416-0.074-0.857-0.15-1.28-0.050-0.296-0.154-0.579-0.274-0.851-0.055-0.099-0.113-0.226-0.231-0.253-0.122 0.038-0.119 0.206-0.22 0.276 0.014-0.328-0.089-0.662-0.302-0.905-0.032 0.135-0.037 0.281-0.1 0.406 0.020-0.379-0.188-0.703-0.342-1.027-0.097 0.116-0.035 0.324-0.143 0.436-0.022-0.309-0.137-0.628-0.36-0.839l-0.010 0.238c-0.169-0.248-0.262-0.545-0.417-0.802-0.262 0.492-0.601 0.932-0.936 1.37-0.419 0.535-0.835 1.072-1.289 1.574-0.082 0.083-0.131 0.222-0.053 0.326 0.18 0.259 0.516 0.328 0.806 0.304 0.289-0.035 0.593-0.084 0.872 0.024 0.111 0.038 0.205 0.111 0.308 0.167 0.131 0.045 0.278 0.026 0.403 0.094 0.294 0.129 0.471 0.458 0.493 0.779-0.001 0.060-0.006 0.134-0.056 0.173-0.071-0.147-0.168-0.306-0.329-0.352 0.038 0.169 0.107 0.334 0.097 0.511-0.121-0.071-0.219-0.174-0.341-0.244 0.007 0.095 0.014 0.188 0.016 0.283-0.070 0.002-0.118-0.058-0.173-0.092-0.2-0.152-0.434-0.287-0.688-0.276-0.155 0.056-0.264 0.205-0.425 0.252-0.326 0.105-0.673 0.087-1.010 0.073-0.492-0.015-0.985-0.013-1.477 0.003-0.367 0.008-0.733 0.015-1.098-0.028-0.274-0.038-0.57-0.199-0.64-0.499-0.064-0.209 0.038-0.458-0.107-0.638-0.239-0.423-0.237-0.938-0.198-1.412 0.047-0.519 0.225-1.009 0.368-1.504 0.118-0.4 0.197-0.808 0.249-1.222-0.118 0.062-0.24 0.118-0.359 0.177 0.067-0.138 0.104-0.289 0.116-0.443-0.015-0.088-0.11-0.11-0.175-0.143 0.044-0.127 0.128-0.236 0.148-0.372 0.061-0.281 0.004-0.575-0.139-0.82-0.008 0.001-0.027 0.003-0.036 0.003-0.174 0.375-0.428 0.702-0.611 1.071-0.11 0.164-0.186 0.357-0.317 0.506 0.012-0.154 0.031-0.306 0.032-0.459-0.22 0.348-0.535 0.609-0.846 0.868-0.099 0.080-0.201 0.185-0.203 0.326-0.025 0.333 0.019 0.667 0.065 0.997-0.137-0.088-0.255-0.206-0.377-0.316-0.167 0.438-0.358 0.865-0.592 1.268-0.198 0.345-0.4 0.697-0.505 1.087-0.052 0.168 0.105 0.289 0.229 0.358 0.347 0.207 0.795 0.109 1.121 0.367 0.296 0.21 0.405 0.621 0.349 0.975-0.027 0.118-0.059 0.256-0.169 0.319-0.053-0.215-0.15-0.421-0.293-0.587-0.011-0.003-0.034-0.011-0.045-0.014 0.032 0.141 0.038 0.287 0.027 0.43 0.005 0.058-0.027 0.096-0.074 0.121-0.062-0.157-0.126-0.326-0.254-0.437-0.043 0.166-0.13 0.316-0.237 0.445-0.065 0.063-0.128 0.145-0.222 0.157-0.015-0.139-0.071-0.289-0.2-0.354-0.116-0.061-0.224-0.138-0.314-0.236-0.097 0.149-0.184 0.303-0.26 0.464-0.050 0.082-0.092 0.184-0.184 0.222-0.001-0.191-0.163-0.336-0.342-0.331-0.43 0.005-0.857 0.072-1.282 0.143-0.276 0.036-0.571 0.085-0.834-0.039-0.3-0.131-0.479-0.457-0.533-0.78-0.047-0.292 0.052-0.579 0.052-0.87 0.041-0.677-0.119-1.339-0.143-2.013 0.009-0.060-0.047-0.111-0.105-0.082 0.012-0.218 0.172-0.379 0.278-0.553-0.086 0.020-0.164 0.063-0.245 0.1 0.107-0.286 0.252-0.554 0.345-0.844 0.151-0.447 0.228-0.916 0.305-1.382-0.067 0.053-0.101 0.132-0.139 0.209-0.070-0.403 0.057-0.811 0.233-1.167 0.051-0.111 0.118-0.215 0.149-0.335-0.144 0.012-0.291 0.035-0.434 0.002 0.207-0.288 0.383-0.604 0.488-0.949 0.059-0.191 0.129-0.382 0.129-0.584-0.057-0.037-0.135-0.12-0.073-0.189 0.141-0.167 0.279-0.336 0.4-0.522-0.105 0.075-0.194 0.193-0.33 0.197-0.155 0.017-0.354-0.003-0.441-0.155 0.217 0.003 0.414-0.122 0.574-0.263 0.106-0.090 0.154-0.25 0.106-0.386l0.119-0.103-0.083 0.021c0.012-0.206-0.143-0.362-0.281-0.485 0.165-0.067 0.328-0.186 0.386-0.367 0.051-0.259-0.006-0.529 0.054-0.786-0.102 0.085-0.213 0.157-0.33 0.217 0.059-0.173 0.181-0.316 0.232-0.493 0.1-0.238 0.050-0.504 0.118-0.749 0.022-0.090 0.068-0.174 0.081-0.266-0.031-0.004-0.062-0.007-0.093-0.010 0.060-0.16 0.17-0.299 0.199-0.471 0.041-0.195 0.016-0.399 0.069-0.592-0.092 0-0.181 0.020-0.269 0.042 0.286-0.339 0.554-0.713 0.685-1.149 0.054-0.164 0.087-0.34 0.186-0.484 0.051-0.082 0.117-0.151 0.173-0.227-0.123 0.025-0.248 0.026-0.374 0.017 0.11-0.121 0.239-0.231 0.305-0.388 0.092-0.213 0.205-0.43 0.198-0.67-0.166 0.085-0.334 0.165-0.513 0.217 0.186-0.223 0.407-0.416 0.59-0.643 0.315-0.393 0.601-0.812 0.944-1.181 0.121-0.139 0.272-0.261 0.329-0.446 0.040-0.129 0.14-0.219 0.218-0.323-0.055 0.008-0.111 0.013-0.166 0.016 0.067-0.236 0.325-0.311 0.455-0.497-0.1-0.007-0.203 0-0.297 0.037 0.281-0.312 0.691-0.438 1.045-0.635l0.022-0.036c-0.088 0.001-0.176 0.004-0.264-0.001 0.193-0.225 0.469-0.338 0.722-0.47-0.139-0.107-0.325-0.116-0.491-0.088 0.053-0.045 0.118-0.064 0.184-0.079 0.347-0.089 0.686-0.209 1.017-0.35 0.957-0.405 1.962-0.703 2.992-0.814 0.294-0.010 0.565-0.142 0.841-0.233 0.763-0.263 1.514-0.599 2.163-1.1 0.216-0.168 0.414-0.361 0.582-0.581 0.156-0.206 0.269-0.447 0.451-0.633 0.17-0.18 0.401-0.268 0.61-0.388 0.702-0.395 1.376-0.859 1.962-1.426 0.144-0.139 0.27-0.296 0.412-0.437 0.209-0.193 0.467-0.327 0.739-0.397 0.126-0.034 0.256-0.069 0.367-0.144 0.331-0.231 0.695-0.416 1.079-0.531 0.223-0.068 0.445-0.154 0.678-0.186 0.109 0.049 0.177 0.159 0.264 0.24-0.13 0.14-0.306 0.225-0.465 0.324-0.694 0.427-1.258 1.066-1.64 1.8-0.116 0.22-0.204 0.455-0.259 0.699-0.080-0.241-0.005-0.501 0.011-0.749-0.218-0.029-0.339 0.191-0.452 0.336 0.076-0.265 0.229-0.499 0.356-0.739l-0.094 0.023c0.090-0.299 0.236-0.598 0.48-0.793 0.025-0.020 0.045-0.047 0.059-0.078-0.507 0.236-0.929 0.621-1.373 0.961l-1.524 1.243c-0.561 0.496-1.148 1.010-1.464 1.719-0.121 0.237-0.104 0.518-0.212 0.759-0.077 0.185-0.227 0.319-0.372 0.444-0.2 0.179-0.426 0.324-0.657 0.455 0.145-0.186 0.315-0.365 0.385-0.6-0.198 0.067-0.355 0.219-0.535 0.322-0.207 0.12-0.399 0.266-0.616 0.366 0.088-0.175 0.203-0.337 0.279-0.517-0.151 0.026-0.299 0.075-0.454 0.085 0.041-0.085 0.122-0.136 0.185-0.201 0.207-0.188 0.375-0.424 0.496-0.681-0.364 0.169-0.709 0.378-1.067 0.558-0.42 0.171-0.866 0.257-1.301 0.374-0.457 0.122-0.922 0.221-1.364 0.397-0.153 0.067-0.313 0.134-0.441 0.249-0.052 0.041-0.028 0.113-0.035 0.171-0.138-0.035-0.283 0.020-0.398 0.101-0.028 0.057 0.055 0.075 0.088 0.1 0.077 0.045 0.187 0.014 0.245 0.088-0.447 0.175-0.779 0.546-1.073 0.923-0.117 0.165-0.245 0.33-0.309 0.528 0.137-0.029 0.237-0.149 0.379-0.166-0.166 0.243-0.401 0.433-0.534 0.702 0.183-0.166 0.37-0.376 0.635-0.37-0.188 0.263-0.406 0.514-0.527 0.82 0.132-0.082 0.236-0.214 0.388-0.259-0.074 0.326-0.147 0.655-0.151 0.992 0 0.422 0.083 0.838 0.077 1.26 0.005 0.533-0.021 1.082-0.217 1.582 0.11-0.037 0.193-0.12 0.285-0.188-0.098 0.326-0.231 0.64-0.32 0.97 0.098-0.021 0.147-0.127 0.213-0.195 0.277-0.328 0.39-0.796 0.747-1.050-0.086 0.36-0.218 0.721-0.207 1.097 0.069-0.105 0.128-0.217 0.205-0.316 0.043 0.231-0.016 0.471 0.025 0.704 0.047 0.179 0.187 0.346 0.374 0.358-0.016-0.343-0.076-0.684-0.068-1.028 0.007-0.203 0.005-0.417 0.089-0.604 0.036-0.088 0.128-0.142 0.142-0.241 0.063-0.32 0.163-0.662 0.415-0.876l0.075-0.038c-0.090 0.341-0.24 0.666-0.3 1.015 0.001 0.131 0.024 0.273-0.052 0.39-0.089 0.141-0.058 0.315-0.053 0.473 0.015 0.19 0.002 0.382 0.032 0.571 0.071 0.019 0.085-0.073 0.116-0.117 0.075-0.344 0.104-0.698 0.173-1.043 0.014-0.052 0.028-0.122 0.091-0.124 0.081 0.336 0.063 0.687 0.028 1.028-0.024 0.083-0.007 0.198-0.082 0.253-0.036-0.096-0.061-0.196-0.097-0.292-0.161 0.282-0.136 0.628-0.142 0.942 0.009 0.096-0.015 0.221 0.067 0.289 0.047-0.093 0.070-0.212 0.161-0.271 0.008 0.285 0.019 0.59 0.173 0.837 0.073 0.122 0.164 0.244 0.297 0.298-0.112-0.392-0.166-0.796-0.244-1.195-0.040-0.341-0.002-0.685 0.044-1.023 0.042-0.286 0.043-0.58 0.121-0.86 0.024-0.093 0.065-0.183 0.078-0.279 0-0.094-0.031-0.184-0.061-0.271-0.094-0.055-0.103-0.183-0.103-0.283 0.003-0.335 0.185-0.627 0.264-0.944-0.064 0.044-0.118 0.102-0.181 0.148 0.115-0.262 0.314-0.479 0.52-0.669 0.089-0.076 0.18-0.156 0.291-0.198-0.288 0.524-0.53 1.097-0.564 1.709-0.034 0.426 0.096 0.838 0.147 1.254 0.016-0.145-0.027-0.287-0.032-0.43-0.031-0.542 0.061-1.111 0.361-1.565 0.384-0.609 1.006-0.989 1.616-1.315 0.154-0.074 0.302-0.169 0.47-0.203-0.162 0.269-0.383 0.499-0.515 0.788-0.11 0.229-0.173 0.484-0.168 0.74 0.060-0.044 0.129-0.077 0.204-0.057-0.037 0.107-0.089 0.208-0.11 0.32 0.086-0.035 0.171-0.080 0.265-0.076-0.008 0.115-0.117 0.183-0.163 0.281-0.052 0.111-0.15 0.205-0.166 0.329 0.101-0.089 0.215-0.163 0.347-0.189-0.104 0.204-0.288 0.385-0.309 0.628 0.096-0.155 0.243-0.316 0.433-0.315-0.096 0.184-0.222 0.372-0.208 0.591 0.061-0.024 0.124-0.041 0.19-0.034-0.174 0.242-0.336 0.515-0.342 0.828 0.086-0.095 0.159-0.243 0.3-0.246-0.131 0.251-0.255 0.509-0.302 0.793 0.061-0.066 0.141-0.104 0.229-0.113-0.086 0.251-0.206 0.49-0.263 0.752 0.075-0.086 0.14-0.196 0.262-0.214-0.071 0.356 0 0.725-0.078 1.080 0.094-0.070 0.135-0.188 0.209-0.277 0.062 0.133 0.053 0.285 0.078 0.427 0.025 0.237 0.054 0.487-0.027 0.716 0.056-0.043 0.103-0.098 0.146-0.154 0.102 0.155 0.014 0.358 0.023 0.531 0.081-0.074 0.167-0.142 0.256-0.207 0.039 0.227-0.1 0.428-0.106 0.652l0.1-0.068c0.052 0.111 0.022 0.233 0.035 0.35 0.052-0.023 0.103-0.046 0.159-0.055-0.017 0.175-0.078 0.349-0.042 0.526l0.088 0.017c-0.042 0.183-0.13 0.382-0.046 0.569-0.026 0.355-0.117 0.706-0.091 1.065 0.020 0.554 0.2 1.086 0.433 1.578 0.197 0.413 0.426 0.83 0.472 1.297 0.049-0.65-0.31-1.222-0.502-1.818-0.248-0.687-0.265-1.446-0.131-2.16 0.075-0.457 0.046-0.927 0.129-1.383 0.097-0.543 0.201-1.088 0.375-1.612 0.008-0.040 0.037-0.083 0.015-0.122-0.118 0.289-0.302 0.542-0.424 0.829 0.025-0.336 0.145-0.654 0.219-0.98 0.11-0.465 0.251-0.933 0.25-1.415-0.084 0.134-0.159 0.29-0.285 0.387 0.036-0.199 0.107-0.391 0.119-0.593 0.003-0.090 0.024-0.193-0.032-0.271-0.050 0.086-0.102 0.172-0.14 0.265-0.080 0.201-0.195 0.387-0.258 0.596l0.192-0.001c-0.084 0.321-0.267 0.619-0.268 0.962 0.103-0.086 0.159-0.221 0.272-0.297-0.174 0.445-0.235 0.924-0.238 1.402-0.281-0.482-0.385-1.066-0.341-1.623 0.031-0.354 0.295-0.621 0.384-0.951-0.149 0.149-0.306 0.291-0.439 0.456-0.048 0.057-0.091 0.122-0.155 0.163 0.036-0.424 0.124-0.847 0.308-1.23 0.159-0.376 0.391-0.712 0.578-1.073-0.256 0.234-0.481 0.503-0.741 0.733 0.291-0.544 0.645-1.046 0.969-1.569-0.167 0.136-0.317 0.294-0.486 0.428-0.109 0.087-0.195 0.208-0.323 0.269 0.201-0.434 0.492-0.821 0.651-1.277l-0.040 0.008c-0.154 0.184-0.313 0.38-0.521 0.494 0.165-0.287 0.367-0.548 0.55-0.823 0.122-0.191 0.21-0.411 0.233-0.641 0.006-0.060 0.002-0.129-0.038-0.177-0.101 0.334-0.288 0.63-0.499 0.899-0.158 0.181-0.304 0.375-0.486 0.53 0.077-0.417 0.345-0.76 0.461-1.162-0.143 0.243-0.293 0.512-0.539 0.653 0.225-0.387 0.479-0.77 0.591-1.214-0.183 0.209-0.323 0.475-0.555 0.634 0.127-0.259 0.238-0.53 0.301-0.814-0.081 0.053-0.153 0.12-0.233 0.173 0.059-0.102 0.175-0.149 0.241-0.247 0.048-0.091 0.075-0.193 0.098-0.295-0.122 0.013-0.216 0.12-0.341 0.122-0.002-0.054 0.008-0.107 0.034-0.155l0.393-0.893c0.166-0.359 0.347-0.708 0.495-1.076 0.036-0.085 0.066-0.177 0.129-0.246 0.020 0.318-0.033 0.637-0.102 0.945 0.14-0.176 0.182-0.425 0.344-0.583 0.009 0.287-0.091 0.564-0.075 0.851l0.028-0.017c0.080-0.628 0.114-1.278 0.364-1.866 0.156-0.367 0.2-0.784 0.42-1.121 0.058-0.082 0.097-0.198 0.199-0.229-0.027 0.254-0.162 0.561 0.010 0.784 0.054-0.057 0.113-0.108 0.18-0.148-0.013 0.314 0.023 0.635 0.139 0.927 0.113 0.258 0.309 0.462 0.487 0.672 0.257 0.282 0.548 0.548 0.895 0.701-0.121-0.212-0.253-0.418-0.331-0.653-0.125-0.279-0.143-0.594-0.121-0.896 0.007-0.092 0.045-0.179 0.097-0.253 0.192-0.29 0.47-0.514 0.632-0.828 0.083-0.122 0.128-0.277 0.246-0.37l-0.229 0.655c-0.011-0.005-0.034-0.016-0.045-0.021-0.154 0.247-0.246 0.532-0.319 0.815-0.006 0.080 0.001 0.16 0.003 0.241 0.137-0.191 0.232-0.415 0.323-0.633-0.017 0.198-0.060 0.393-0.099 0.587-0.099 0.606-0.077 1.239 0.087 1.832 0.060 0.162 0.115 0.344 0.245 0.463-0.037-0.203-0.106-0.42-0.012-0.618 0.007 0 0.020 0 0.027-0.001 0.098 0.308 0.277 0.577 0.39 0.878l0.038 0.052c0.038-0.064 0.036-0.163 0.107-0.198 0.054 0.127 0.169 0.207 0.254 0.309 0.146 0.165 0.307 0.353 0.313 0.59 0.073-0.067 0.127-0.154 0.188-0.231 0.088 0.153 0.137 0.358 0.325 0.411-0.008-0.057 0.008-0.123-0.034-0.17-0.237-0.279-0.497-0.564-0.597-0.93-0.053-0.251-0.026-0.509 0.020-0.758-0.132 0.155-0.266 0.324-0.313 0.53-0.057-0.040-0.057-0.117-0.072-0.179-0.060-0.276-0.039-0.567 0.051-0.835 0.042-0.171 0.151-0.329 0.143-0.509-0.213 0.078-0.35 0.269-0.5 0.431 0.030-0.155 0.024-0.319 0.076-0.47 0.107-0.342 0.276-0.66 0.445-0.973 0.034-0.066 0.070-0.132 0.071-0.209-0.228 0.077-0.474 0.052-0.71 0.047 0.053-0.066 0.141-0.083 0.21-0.126 0.199-0.107 0.295-0.328 0.423-0.508 0.12-0.19 0.263-0.373 0.332-0.593-0.168 0.15-0.335 0.313-0.542 0.403 0.184-0.283 0.312-0.6 0.498-0.883 0.134-0.206 0.179-0.454 0.276-0.676 0.081 0.049 0.093 0.154 0.103 0.242 0.021 0.409-0.128 0.795-0.219 1.185 0.004 0.016 0.011 0.048 0.014 0.063l0.055-0.103c-0.069 0.398-0.184 0.79-0.283 1.182 0.149-0.134 0.296-0.29 0.485-0.359-0.116 0.216-0.258 0.424-0.314 0.668 0.106-0.047 0.208-0.1 0.312-0.152-0.056 0.48-0.29 0.908-0.532 1.31 0.118-0.050 0.191-0.17 0.278-0.263 0.152-0.174 0.257-0.385 0.392-0.57-0.112 0.425-0.251 0.858-0.204 1.304 0.024 0.145 0.048 0.302 0.144 0.417-0.062-0.576 0.098-1.152 0.355-1.659 0.039-0.062 0.082-0.169 0.171-0.147 0.201 0.176 0.144 0.473 0.235 0.703 0.033 0.11 0.103 0.207 0.204 0.255-0.001-0.278 0.064-0.547 0.088-0.822-0.058 0.028-0.121 0.028-0.183 0.023-0.074-0.346 0.018-0.69 0.096-1.023-0.25 0.15-0.43 0.435-0.494 0.729-0.068-0.006-0.070-0.081-0.078-0.135 0.001-0.182 0.042-0.359 0.067-0.537-0.138 0.023-0.225 0.144-0.338 0.218 0.073-0.265 0.242-0.485 0.423-0.68 0.096-0.145 0.201-0.283 0.296-0.428-0.157 0.051-0.264 0.184-0.386 0.287 0.077-0.351 0.285-0.644 0.455-0.95 0.044-0.086 0.094-0.175 0.105-0.274-0.188 0.131-0.372 0.276-0.584 0.363 0.165-0.338 0.436-0.62 0.541-0.989-0.173 0.011-0.326 0.107-0.489 0.159 0.262-0.492 0.658-0.892 1.090-1.221l-1.284 0.549c0.038-0.071 0.117-0.097 0.178-0.142 0.164-0.111 0.333-0.215 0.501-0.32-0.175 0.048-0.345 0.117-0.52 0.165 0.335-0.285 0.726-0.487 1.056-0.778 0.073-0.069 0.179-0.108 0.228-0.199-0.134 0.011-0.271-0.006-0.402 0.030 0-0.009-0.001-0.028-0.001-0.038 0.242-0.119 0.503-0.22 0.701-0.411-0.224 0.030-0.451 0.058-0.673 0.1 0.247-0.171 0.519-0.304 0.75-0.501-0.142-0.083-0.303-0.111-0.452-0.176 0.202-0.104 0.415-0.183 0.609-0.305-0.242-0.241-0.485-0.507-0.567-0.856-0.017-0.058-0.017-0.124-0.054-0.173 0.015-0.043 0.032-0.087 0.036-0.136 0.074 0.11 0.136 0.238 0.247 0.316-0.036-0.122-0.1-0.232-0.128-0.358-0.031-0.131-0.022-0.268-0.010-0.401 0.094 0.057 0.068 0.201 0.145 0.273zM23.482 1.589c-0.249 0.044-0.498 0.101-0.749 0.135 0.021 0.088-0.066 0.119-0.124 0.154-0.25 0.133-0.534 0.19-0.775 0.346-0.092 0.058-0.169 0.144-0.272 0.182l0.004 0.031c0.057 0.003 0.114 0.008 0.173 0.013-0.148 0.156-0.383 0.185-0.566 0.284 0.138 0.025 0.279 0.010 0.419 0.024-0.212 0.181-0.465 0.298-0.691 0.458-0.285 0.182-0.514 0.453-0.829 0.584 0.231 0.013 0.446-0.090 0.66-0.167 0.269-0.125 0.51-0.308 0.756-0.476 0.043-0.024 0.085-0.069 0.139-0.053-0.192 0.21-0.414 0.388-0.627 0.574-0.22 0.176-0.399 0.4-0.574 0.623l-0.003 0.043c0.11-0.037 0.221-0.061 0.336-0.079-0.116 0.15-0.252 0.283-0.357 0.443-0.088 0.132-0.206 0.262-0.216 0.431 0.102-0.044 0.209-0.076 0.321-0.074-0.286 0.358-0.582 0.713-0.806 1.119-0.011 0.014-0.035 0.040-0.047 0.052-0.013-0.331 0.181-0.619 0.24-0.936-0.077 0.046-0.143 0.119-0.234 0.13 0.088-0.158 0.199-0.303 0.264-0.475 0.039-0.115 0.128-0.199 0.178-0.306-0.175 0.101-0.395 0.208-0.439 0.433-0.070 0.302-0.229 0.573-0.301 0.875 0.069-0.056 0.133-0.129 0.225-0.145-0.037 0.419-0.126 0.83-0.246 1.231-0.072 0.237-0.181 0.463-0.215 0.711 0.126-0.091 0.201-0.269 0.368-0.288-0.028 0.244-0.139 0.475-0.172 0.721 0.094-0.11 0.145-0.273 0.294-0.318-0.069 0.364-0.172 0.726-0.17 1.1 0.051 0.22 0.089 0.443 0.108 0.668 0.095-0.209 0.144-0.502 0.391-0.58 0.136 0.161 0.063 0.403 0.059 0.599 0.052-0.037 0.075-0.098 0.095-0.158 0.112 0.097-0.014 0.277 0.010 0.403 0.068-0.044 0.121-0.109 0.183-0.161 0.158 0.257 0.222 0.563 0.3 0.853l0.030 0.019c0.024-0.059 0.067-0.12 0.128-0.139 0.065 0.052 0.038 0.154 0.059 0.229 0.063 0.345 0.015 0.7-0.114 1.021 0.008-0.004 0.026-0.010 0.034-0.014 0.102-0.185 0.22-0.36 0.298-0.56 0.152-0.351 0.19-0.737 0.285-1.107-0.114 0.17-0.218 0.353-0.279 0.552-0.064-0.107-0.026-0.246-0.010-0.362 0.049-0.3 0.222-0.551 0.334-0.826-0.187 0.158-0.333 0.362-0.5 0.542-0.072 0.063-0.028 0.224-0.128 0.244-0.042-0.238-0.036-0.489 0.059-0.712 0.053-0.168 0.165-0.306 0.229-0.466-0.164 0.159-0.305 0.342-0.439 0.529-0.037 0.080-0.098-0.004-0.085-0.056-0.006-0.166 0.080-0.32 0.080-0.484-0.124 0.082-0.215 0.202-0.303 0.321-0.009-0.375 0.174-0.722 0.379-1.018-0.279 0.165-0.556 0.345-0.767 0.6 0.055-0.382 0.238-0.732 0.445-1.047 0.133-0.206 0.382-0.268 0.606-0.281-0.034 0.131-0.165 0.204-0.189 0.336 0.309-0.057 0.622-0.14 0.936-0.075-0.084 0.085-0.187 0.148-0.279 0.221 0.064 0.014 0.203-0.024 0.189 0.086-0.066 0.088-0.146 0.165-0.217 0.25-0.076 0.090-0.192 0.122-0.269 0.21 0.242-0.046 0.47-0.154 0.716-0.183 0.134-0.009 0.063 0.163 0.059 0.242 0.217-0.049 0.411-0.159 0.603-0.272l0.006 0.010c-0.136 0.188-0.242 0.421-0.225 0.662 0.179-0.008 0.325-0.161 0.512-0.131 0.005 0.073-0.029 0.138-0.052 0.205 0.189-0.075 0.392-0.159 0.599-0.112-0.058 0.085-0.151 0.131-0.214 0.211 0.163-0.050 0.321-0.122 0.491-0.132 0.055-0.004 0.095 0.048 0.086 0.104-0.023 0.177-0.115 0.331-0.211 0.475 0.148-0.066 0.291-0.148 0.426-0.24 0.013 0.142-0.032 0.277-0.103 0.396 0.083-0.050 0.152-0.125 0.248-0.151 0.077-0.178 0.183-0.339 0.277-0.506-0.085 0.024-0.21 0.072-0.271-0.021-0.015-0.103 0.061-0.188 0.083-0.285-0.126-0.016-0.245 0.053-0.367 0.080-0.044-0.031-0.089-0.046-0.123 0.011 0.008-0.012 0.026-0.034 0.035-0.046l0.151-0.028-0.044-0.060c-0.12 0.014-0.236 0.044-0.354 0.067 0.008-0.096 0.124-0.136 0.128-0.234-0.204 0.064-0.417 0.108-0.631 0.109 0.054-0.082 0.158-0.108 0.217-0.187-0.209-0.018-0.419 0.018-0.619 0.078 0.008-0.159 0.128-0.27 0.233-0.37l0.004-0.059c-0.119-0.085-0.277-0.105-0.417-0.082-0.091 0.046-0.16 0.151-0.27 0.148 0.033-0.066 0.099-0.101 0.132-0.166-0.092-0.022-0.185-0.011-0.276 0.007 0.101-0.128 0.264-0.189 0.416-0.217-0.018-0.029-0.042-0.048-0.073-0.058-0.21-0.079-0.392-0.226-0.612-0.276-0.096-0.033-0.212-0.029-0.284-0.112 0.219-0.207 0.519-0.36 0.821-0.308-0.069 0.052-0.173 0.056-0.22 0.134 0.185-0.058 0.377-0.009 0.565-0.017-0.057 0.048-0.137 0.074-0.17 0.147 0.134 0.018 0.262-0.025 0.387-0.064 0.098-0.036 0.201-0.006 0.3-0.021 0.248-0.099 0.473-0.246 0.706-0.374 0.059 0.115-0.125 0.055-0.13 0.14 0.131-0.017 0.253-0.078 0.386-0.085-0.063 0.112-0.175 0.18-0.244 0.287 0.090-0.034 0.185-0.063 0.26-0.127 0.111-0.095 0.253-0.148 0.343-0.269 0.070-0.098 0.155-0.183 0.234-0.273-0.049 0.012-0.093 0.035-0.124 0.076-0.059 0.029-0.161 0.029-0.12 0.124l-0.031-0.049c-0.083 0.053-0.164 0.109-0.253 0.152 0.053-0.046 0.067-0.111 0.077-0.179 0.113-0.119 0.262-0.194 0.37-0.319l-0.096 0.052-0.026-0.046c-0.043 0.020-0.106 0.005-0.126 0.059 0.019 0.001 0.056 0.001 0.075 0.002-0.052 0.126-0.202 0.155-0.282 0.257l-0.011-0.086-0.061 0.067c0.025-0.23 0.326-0.288 0.399-0.492l0.035 0.009c0.098-0.125 0.201-0.275 0.365-0.303-0.012 0.052-0.065 0.076-0.098 0.112-0.11 0.103-0.206 0.221-0.32 0.319 0.159-0.068 0.273-0.219 0.396-0.339 0.106 0.044 0.14-0.126 0.244-0.128-0.082 0.134-0.212 0.227-0.297 0.359-0.023 0.070-0.091 0.031-0.125 0.002l-0.003 0.149c0.069-0.059 0.147-0.105 0.224-0.153-0.007 0.085-0.081 0.131-0.137 0.183 0.128-0.067 0.253-0.142 0.378-0.218-0.036 0.105-0.072 0.21-0.122 0.308-0.015-0.004-0.045-0.013-0.059-0.017-0.111 0.077-0.194 0.193-0.314 0.253-0.099 0.11-0.232 0.189-0.308 0.319l0.084 0.007c0.034-0.094 0.083-0.003 0.11 0.029l0.074-0.055c0.008 0.054 0.063 0.065 0.1 0.089 0.113-0.12 0.23-0.236 0.333-0.365 0.099-0.111 0.19-0.242 0.334-0.293-0.027 0.138-0.109 0.253-0.169 0.376-0.107 0.188-0.192 0.396-0.347 0.55-0.192 0.195-0.394 0.382-0.602 0.559-0.040 0.035-0.085 0.068-0.106 0.12 0.139-0.055 0.286-0.086 0.423-0.151 0.155-0.065 0.307-0.157 0.479-0.158-0.099 0.126-0.22 0.231-0.322 0.356 0.22-0.142 0.43-0.342 0.703-0.344-0.074 0.106-0.168 0.196-0.24 0.305 0.1-0.018 0.193-0.070 0.298-0.069-0.134 0.166-0.339 0.269-0.44 0.47 0.144-0.039 0.293-0.061 0.442-0.047 0.011 0.23-0.244 0.344-0.417 0.415 0.066 0.068 0.174 0.037 0.258 0.067-0.148 0.146-0.362 0.196-0.508 0.345 0.234-0.047 0.491-0.071 0.716 0.024 0.003 0.012 0.008 0.035 0.009 0.047-0.186 0.127-0.381 0.255-0.519 0.441 0.193-0.156 0.472-0.265 0.694-0.104-0.102 0.162-0.308 0.219-0.399 0.392 0.154-0.085 0.321-0.163 0.499-0.153 0.072 0.016 0.177 0.010 0.204 0.1-0.137 0.064-0.277 0.146-0.359 0.281 0.090-0.050 0.218-0.083 0.279 0.031 0.069 0.201-0.023 0.411-0.057 0.61 0.125-0.109 0.264-0.239 0.441-0.22-0.031 0.069-0.065 0.135-0.099 0.201 0.124-0.049 0.252-0.084 0.384-0.086 0.051 0.006 0.136-0.019 0.16 0.044-0.051 0.009-0.094 0.028-0.126 0.069 0.046 0.022 0.096 0.042 0.133 0.082 0.037 0.074 0.016 0.161 0.025 0.241 0.071-0.034 0.089-0.141 0.168-0.157 0.164 0.070 0.216 0.271 0.336 0.392 0.188 0.124 0.383 0.245 0.589 0.334-0.036-0.056-0.096-0.086-0.141-0.133-0.061-0.052-0.037-0.155-0.108-0.198-0.148-0.121-0.265-0.278-0.373-0.436-0.159-0.241-0.419-0.397-0.538-0.668-0.103-0.233-0.159-0.485-0.221-0.734-0.104-0.461-0.276-0.908-0.313-1.384-0.048-0.595-0.008-1.214 0.217-1.768 0.103-0.23 0.241-0.475 0.482-0.567 0.637-0.292 1.309-0.489 1.978-0.686 0.304-0.077 0.6-0.189 0.911-0.233 0.177-0.027 0.357-0.016 0.537-0.020-0.138-0.085-0.298-0.122-0.456-0.134-0.167-0.003-0.326 0.060-0.487 0.097 0.111-0.12 0.214-0.248 0.332-0.36-0.036-0.021-0.071-0.044-0.104-0.068l0.062-0.043c-0.116 0.048-0.205 0.148-0.324 0.191 0.006-0.129 0.112-0.209 0.186-0.298l-0.032-0.007c-0.042 0.053-0.108 0.085-0.174 0.087 0.067-0.112 0.185-0.182 0.245-0.297-0.101 0.041-0.197 0.098-0.304 0.121 0.077-0.076 0.168-0.131 0.248-0.202 0.001-0.022 0.001-0.067 0.002-0.089l-0.107 0.066c0.004-0.068 0.054-0.11 0.102-0.146-0.090-0.278-0.198-0.587-0.107-0.878 0.042-0.163 0.219-0.217 0.289-0.356-0.45 0.063-0.893-0.089-1.343-0.054-0.581 0.022-1.191 0.089-1.696 0.416-0.159 0.086-0.163 0.298-0.232 0.451-0.119-0.050-0.176-0.178-0.257-0.272-0.057 0.101-0.114 0.208-0.204 0.282-0.118 0.053-0.222-0.048-0.335-0.066-0.143 0.005-0.274 0.084-0.417 0.082-0.132 0.010-0.279-0.036-0.353-0.157-0.059-0.082-0.019-0.204-0.064-0.284-0.070 0.008-0.115 0.102-0.192 0.119 0.048-0.233 0.213-0.428 0.413-0.535 0.238-0.119 0.51-0.142 0.771-0.127-0.039-0.044-0.085-0.077-0.138-0.101 0.039-0.024 0.053-0.069 0.006-0.095-0.083-0.087-0.189-0.145-0.296-0.194 0.018-0.006 0.054-0.020 0.072-0.027l-0.001-0.016c-0.076-0.011-0.201 0.022-0.236-0.063 0.423 0.001 0.854 0.052 1.244 0.233 0.159 0.078 0.286 0.218 0.455 0.278 0.219 0.042 0.443-0.003 0.66-0.038 0.091-0.018 0.186-0.031 0.266-0.084-0.094-0.051-0.185-0.107-0.279-0.155-0.285-0.145-0.612-0.176-0.925-0.152-0.201 0.006-0.387-0.081-0.567-0.159-0.774-0.375-1.646-0.57-2.498-0.442zM29.862 3.129c-0.097 0.068-0.032 0.221 0.056 0.261 0.089-0.026 0.14-0.121 0.211-0.18 0.080-0.090 0.208-0.158 0.221-0.293-0.18 0.009-0.344 0.107-0.488 0.212zM25.182 3.109c-0.002 0.129 0.129 0.184 0.224 0.11 0.030-0.065 0.050-0.135-0.001-0.196-0.075 0.008-0.229-0.035-0.223 0.086zM20.184 3.929c-0.191 0.086-0.384 0.209-0.475 0.413-0.083 0.135-0.044 0.302-0.094 0.449 0.358-0.084 0.531-0.444 0.746-0.713 0.069-0.106 0.204-0.165 0.238-0.292-0.146 0.018-0.283 0.077-0.415 0.143zM28.367 5.791c-0.032 0.194-0.011 0.393 0 0.587 0.020 0.131 0.021 0.277 0.104 0.387 0.135-0.115 0.17-0.304 0.216-0.469 0.034-0.194 0.056-0.392 0.048-0.589-0.126-0.010-0.263 0.010-0.368 0.085zM29.989 6.135c0.071 0.388-0.038 0.78-0.004 1.169 0.095-0.043 0.13-0.154 0.175-0.242 0.103-0.252 0.195-0.523 0.174-0.8-0.116-0.040-0.23-0.088-0.346-0.127zM23.184 7.455c-0.041 0.028-0.101 0.041-0.118 0.095 0.131-0.067 0.267-0.132 0.38-0.231-0.097 0.022-0.174 0.091-0.262 0.136zM13.72 9.144c-0.139 0.298-0.289 0.592-0.435 0.886-0.056 0.092-0.056 0.233-0.158 0.288l0.024 0.208c0.072-0.094 0.109-0.209 0.155-0.319 0.068-0.171 0.153-0.334 0.234-0.499 0.035-0.064 0.061-0.138 0.125-0.179-0.054 0.498-0.369 0.942-0.31 1.455 0.019 0.299 0.206 0.563 0.19 0.868-0.019 0.372-0.165 0.728-0.147 1.102 0.010 0.138 0.096 0.249 0.166 0.36 0.097 0.143 0.181 0.295 0.243 0.459 0.087 0.222 0.112 0.473 0.259 0.666 0.079-0.046 0.047-0.156 0.071-0.231 0.064 0.060 0.087 0.151 0.13 0.226 0.088 0.178 0.19 0.358 0.211 0.561l0.040-0.001c0.038-0.314-0.018-0.628-0.013-0.942 0.237 0.227 0.458 0.502 0.533 0.837 0.017 0.053 0.017 0.118 0.054 0.163 0.073-0.161 0.107-0.345 0.069-0.521-0.068-0.41-0.45-0.658-0.536-1.061-0.1-0.336-0.006-0.682-0.002-1.023 0.033-0.372 0.221-0.714 0.226-1.090-0.135 0.229-0.349 0.389-0.527 0.578 0.039-0.229 0.129-0.446 0.264-0.632 0.093-0.151 0.241-0.262 0.307-0.43-0.073 0.038-0.146 0.089-0.232 0.071-0.053-0.109 0.112-0.192 0.059-0.306-0.050-0.128-0.017-0.267-0.028-0.4-0.15 0.283-0.414 0.523-0.719 0.594 0.099-0.132 0.229-0.241 0.297-0.396 0.050-0.115 0.135-0.219 0.151-0.347-0.143 0.24-0.336 0.449-0.546 0.626 0.042-0.149 0.13-0.275 0.203-0.408 0.084-0.169 0.152-0.348 0.181-0.536-0.047 0.040-0.064 0.102-0.088 0.157-0.094 0.233-0.255 0.426-0.404 0.622 0.034-0.181 0.090-0.358 0.098-0.542 0.015-0.224-0.022-0.453 0.031-0.674 0.009-0.154 0.063-0.333-0.034-0.468-0.065 0.084-0.098 0.186-0.142 0.282zM26.79 8.964c0.061 0.076 0.124 0.178 0.229 0.186-0.002 0.022-0.006 0.068-0.008 0.091-0.031 0.025-0.063 0.050-0.095 0.074l-0.018-0.065c-0.044 0.033-0.158 0.037-0.122 0.121 0.034 0.091 0.155 0.035 0.159-0.047 0.036-0.010 0.070-0.022 0.105-0.035 0.075 0.105 0.151 0.283 0.304 0.249l-0.065 0.057c0.035 0.052 0.067 0.108 0.111 0.155 0.054 0.058 0.152 0.047 0.192 0.123-0.077 0.039-0.158 0.064-0.235 0.1-0.018 0.050 0.030 0.090 0.071 0.104 0.122 0.063 0.258-0.023 0.342-0.113 0.089-0.104-0.005-0.238-0.057-0.333-0.134-0.232-0.233-0.543-0.512-0.622-0.031-0.063-0.076-0.131-0.154-0.118-0.081 0.004-0.208-0.023-0.246 0.073zM26.625 9.029c0.031 0.083 0.076 0.159 0.124 0.233l0.105-0.067c-0.067-0.063-0.127-0.195-0.229-0.166zM26.967 9.405c-0.032 0.037-0.077 0.064-0.091 0.114 0.023 0.046 0.056 0.087 0.095 0.123 0.052 0.047 0.107-0.019 0.154-0.040-0.014-0.095-0.069-0.17-0.158-0.197zM27.2 9.564l0.041 0.084c-0.057 0.040-0.114 0.079-0.173 0.116 0.020 0.127 0.118 0.060 0.181 0.016l-0.083 0.11c0.073 0.062 0.142 0.020 0.201-0.034-0.043-0.057-0.086-0.115-0.117-0.179-0.012-0.041-0.003-0.094-0.051-0.112zM24.058 9.696c-0.043 0.201-0.061 0.414-0.169 0.594 0.164-0.092 0.28-0.251 0.436-0.356 0.121-0.063 0.039-0.214 0.055-0.322-0.112-0.012-0.235 0.008-0.323 0.084zM27.898 9.991c-0.114 0.128-0.235 0.252-0.361 0.367 0.077 0.1 0.174 0.191 0.293 0.231 0.084 0.024 0.158-0.039 0.194-0.115 0.099-0.195 0.166-0.411 0.185-0.631-0.002-0.063 0.019-0.145-0.034-0.191-0.108 0.098-0.181 0.229-0.279 0.338zM29.117 10.362c-0.118 0.067-0.226 0.18-0.371 0.162-0.027 0.056-0.058 0.115-0.047 0.18l0.119 0.007c0.018-0.034 0.045-0.062 0.078-0.082 0.041 0.019 0.073 0.054 0.109 0.086 0.206 0.025 0.353-0.16 0.456-0.32 0.097-0.173 0.213-0.351 0.225-0.556-0.19 0.172-0.347 0.39-0.569 0.523zM18.11 10.787c0.033 0.135 0.144 0.23 0.261 0.289-0.11-0.393-0.053-0.803-0.003-1.199-0.185 0.251-0.33 0.588-0.258 0.91zM26.994 10.077c0.019 0.086 0.064 0.17 0.136 0.22 0.093 0.073 0.186 0.189 0.317 0.135-0.098-0.176-0.287-0.263-0.453-0.355zM28.14 10.542c0.062 0.070 0.159 0.12 0.253 0.089-0.007-0.081 0.002-0.164-0.031-0.238-0.109-0.027-0.192 0.044-0.222 0.149zM26.915 10.507c0.007 0.024 0.014 0.048 0.020 0.072 0.163 0.166 0.36 0.323 0.595 0.345 0.175 0.018 0.359 0.039 0.533 0.006-0.38-0.151-0.77-0.27-1.148-0.423zM28.476 10.667c0.045 0.007 0.090 0.042 0.137 0.024 0.051-0.041 0.041-0.111 0.044-0.169-0.097-0.053-0.253 0.021-0.181 0.145zM21.368 11.579c0.204-0.285 0.367-0.612 0.394-0.972-0.277 0.234-0.331 0.629-0.394 0.972zM21.484 12.522c0.059-0.098 0.084-0.213 0.13-0.317 0.158-0.405 0.362-0.79 0.615-1.138-0.391 0.381-0.662 0.902-0.746 1.454zM18.624 11.136c0.021 0.103 0.080 0.19 0.121 0.285 0.142 0.301 0.249 0.619 0.322 0.945 0.022 0.11 0.068 0.239 0.187 0.266-0.030-0.37-0.081-0.752-0.26-1.079-0.101-0.159-0.225-0.3-0.369-0.417zM15.28 11.304c-0.007 0.203-0.044 0.406-0.124 0.592-0.027 0.080-0.082 0.151-0.082 0.238 0.056-0.040 0.107-0.088 0.174-0.108 0.003 0.067-0.027 0.128-0.058 0.186-0.091 0.159-0.148 0.336-0.212 0.509-0.025 0.089-0.064 0.184-0.041 0.278 0.082-0.181 0.187-0.372 0.354-0.477-0.061 0.208-0.108 0.421-0.164 0.631-0.038 0.158-0.053 0.327-0.015 0.489 0.086-0.078 0.114-0.202 0.182-0.295 0.023 0.383-0.070 0.778 0.050 1.15 0.068 0.212 0.134 0.448 0.042 0.664 0.12-0.102 0.219-0.269 0.165-0.434-0.066-0.257-0.083-0.536 0.008-0.787 0.029-0.044 0.030-0.131 0.097-0.131 0.040 0.33 0.128 0.665 0.315 0.939 0.229 0.333 0.526 0.605 0.816 0.878 0.227 0.207 0.266 0.544 0.282 0.84 0.014 0.328-0.121 0.636-0.287 0.907 0.267-0.273 0.456-0.664 0.416-1.062-0.031-0.296-0.101-0.594-0.253-0.848-0.186-0.41-0.323-0.857-0.31-1.315-0.1 0.104-0.078 0.294-0.177 0.388-0.201-0.369-0.286-0.813-0.177-1.228-0.173 0.073-0.33 0.228-0.353 0.428l-0.023-0.027c-0.102-0.311-0.009-0.638 0.070-0.941-0.128 0.188-0.243 0.393-0.409 0.545 0.087-0.315 0.231-0.612 0.288-0.937 0.015-0.104 0.039-0.215 0.005-0.318-0.081 0.246-0.21 0.481-0.388 0.664-0.005-0.17 0.012-0.352-0.061-0.509-0.010-0.302 0.030-0.637-0.129-0.907zM4.346 11.87c-0.133 0.19-0.238 0.399-0.329 0.614s-0.244 0.391-0.343 0.6c0.126-0.047 0.213-0.161 0.298-0.262 0.113-0.16 0.242-0.315 0.305-0.506 0.074-0.223 0.167-0.439 0.238-0.663-0.083 0.045-0.113 0.144-0.169 0.217zM18.2 11.699c-0.047 0.205-0.066 0.417-0.059 0.629 0.008 0.085 0.030 0.174 0.087 0.239 0.107-0.012 0.077-0.177 0.11-0.255 0.169 0.193 0.243 0.47 0.459 0.62 0.005-0.1 0.015-0.199 0.035-0.297 0.209 0.252 0.408 0.526 0.527 0.839 0.019 0.040 0.030 0.087 0.068 0.113-0.070-0.26-0.16-0.518-0.303-0.745-0.069-0.108-0.125-0.234-0.234-0.306-0.31-0.194-0.496-0.532-0.69-0.836zM19.483 12.165c-0.044 0.191-0.063 0.407-0.189 0.562 0.138 0.196 0.231 0.425 0.251 0.668 0.031 0.13 0.010 0.287 0.099 0.393-0.048-0.314-0.018-0.635-0.045-0.951-0.023-0.224-0.006-0.469-0.116-0.671zM3.81 13.254c-0.141 0.057-0.336-0.007-0.432 0.145 0.127 0.040 0.267-0.023 0.399-0.019-0.049 0.064-0.092 0.133-0.127 0.207-0.085 0.177-0.199 0.348-0.222 0.549-0.012 0.158-0.111 0.288-0.183 0.421-0.237 0.397-0.362 0.885-0.282 1.351 0.113-0.106 0.186-0.248 0.285-0.366 0.158-0.212 0.361-0.386 0.515-0.601l-0.179 0.027-0.015 0.048c0.018 0.005 0.053 0.015 0.070 0.020-0.023-0.004-0.071-0.010-0.096-0.013 0.067-0.182 0.157-0.355 0.277-0.503 0.174-0.193 0.399-0.326 0.588-0.501-0.084-0.047-0.146 0.015-0.193 0.080 0.018-0.12 0.089-0.218 0.128-0.329 0.059-0.193 0.214-0.33 0.282-0.519-0.179 0.106-0.391 0.14-0.557 0.27-0.143 0.108-0.283 0.22-0.415 0.341 0.095-0.299 0.322-0.519 0.476-0.782-0.114 0.044-0.211 0.12-0.319 0.177zM4.971 13.711c-0.195 0.076-0.402 0.138-0.559 0.29 0.037 0.059 0.040 0.135 0.001 0.193-0.157 0.304-0.411 0.53-0.65 0.761 0.067 0.017 0.096 0.061 0.085 0.134 0.081-0.050 0.148-0.123 0.239-0.155-0.099 0.265-0.268 0.496-0.384 0.755 0.075-0.020 0.15-0.054 0.23-0.049-0.188 0.213-0.393 0.416-0.527 0.673 0.050-0.016 0.077-0.065 0.115-0.097 0.106-0.106 0.251-0.15 0.371-0.235 0.112-0.071 0.154-0.209 0.233-0.312 0.104-0.144 0.185-0.306 0.301-0.44 0.037-0.044 0.076-0.086 0.091-0.144-0.116 0.040-0.223 0.103-0.34 0.141 0.028-0.099 0.125-0.144 0.19-0.214 0.147-0.152 0.324-0.266 0.48-0.406 0.136-0.126 0.283-0.242 0.446-0.329l0.007-0.038c-0.369 0.049-0.741 0.226-0.977 0.532-0.031 0.061-0.128 0.037-0.098-0.040 0.111-0.153 0.248-0.282 0.371-0.424 0.19-0.236 0.503-0.351 0.634-0.641-0.089-0.002-0.178 0.008-0.261 0.044zM3.653 16.511c-0.103 0.222-0.251 0.434-0.271 0.687 0.172-0.147 0.392-0.207 0.58-0.327 0.336-0.22 0.666-0.484 0.85-0.859l-1.088 0.754c0.195-0.251 0.387-0.511 0.492-0.818l-0.044-0.021c-0.233 0.122-0.404 0.344-0.519 0.585zM7.171 16.594c-0.055 0.216-0.103 0.439-0.070 0.665 0.043 0.35 0.163 0.685 0.307 1.003 0.061 0.106 0.111 0.236 0.219 0.298 0.030-0.2-0.014-0.4 0.001-0.601 0.099 0.119 0.172 0.261 0.277 0.376 0.197 0.222 0.43 0.42 0.699 0.541-0.050-0.094-0.119-0.174-0.181-0.259-0.218-0.308-0.406-0.638-0.571-0.979-0.037-0.062-0.059-0.142-0.119-0.182-0.091 0.040-0.109 0.16-0.173 0.23-0.124-0.297-0.271-0.59-0.33-0.911-0.018-0.060-0.017-0.132-0.057-0.181zM4.017 16.978l-0.424 0.535c-0.098 0.119-0.206 0.241-0.247 0.393 0.073-0.026 0.145-0.054 0.219-0.077 0.058-0.102 0.142-0.184 0.221-0.268 0.182-0.183 0.319-0.406 0.486-0.602 0.081-0.11 0.192-0.193 0.256-0.317-0.188 0.077-0.384 0.167-0.512 0.335zM3.63 17.824c-0.216 0.373-0.413 0.794-0.396 1.239 0.071-0.111 0.115-0.237 0.187-0.348 0.079-0.123 0.175-0.233 0.251-0.359 0.163-0.262 0.28-0.558 0.49-0.786-0.188 0.048-0.374 0.134-0.532 0.254zM3.739 18.609c-0.024 0.244 0.006 0.49 0.012 0.735-0.005 0.249 0.119 0.471 0.204 0.696 0.068 0.173 0.098 0.358 0.155 0.534 0.1-0.087 0.080-0.265 0.203-0.332 0.119 0.431 0.226 0.941 0.62 1.192-0.066-0.183-0.116-0.371-0.206-0.543-0.143-0.281-0.228-0.586-0.294-0.895-0.061 0.064-0.094 0.16-0.18 0.194-0.048-0.322-0.032-0.647-0.043-0.97-0.076 0.013-0.149 0.036-0.224 0.056-0.075-0.387 0.062-0.773 0.11-1.155-0.117 0.161-0.296 0.287-0.355 0.487zM2.237 18.946c-0.050 0.167-0.059 0.343-0.109 0.51-0.089 0.316-0.234 0.609-0.339 0.919l0.063-0.021c0.131-0.265 0.339-0.481 0.444-0.759 0.094-0.226 0.062-0.477 0.115-0.713 0.032-0.176 0.107-0.348 0.089-0.531-0.11 0.187-0.207 0.383-0.264 0.594zM2.506 20.569c-0.142 0.076-0.296 0.125-0.435 0.21 0.028-0.121 0.129-0.205 0.202-0.3 0.234-0.255 0.482-0.566 0.457-0.942-0.202 0.279-0.423 0.581-0.752 0.697-0.074 0.020-0.085 0.111-0.093 0.176 0.038 0.043 0.106 0.083 0.096 0.154-0.009 0.132-0.067 0.255-0.105 0.381 0.135-0.052 0.256-0.138 0.396-0.176-0.026 0.273-0.283 0.438-0.337 0.702 0.102-0.087 0.212-0.168 0.344-0.195-0.141 0.354-0.34 0.691-0.391 1.077-0.031 0.278-0.181 0.515-0.25 0.78 0.077-0.060 0.139-0.134 0.213-0.196-0.039 0.301-0.156 0.585-0.19 0.888 0.082-0.030 0.102-0.137 0.163-0.196 0.137-0.233 0.196-0.507 0.336-0.739 0.108-0.206 0.264-0.379 0.383-0.576-0.201 0.089-0.361 0.243-0.53 0.383 0.098-0.341 0.375-0.581 0.576-0.858-0.064 0.026-0.128 0.051-0.195 0.067-0.129 0.029-0.225 0.137-0.354 0.166 0.072-0.319 0.329-0.541 0.52-0.788 0.107-0.125 0.101-0.305 0.166-0.451 0.128-0.303 0.301-0.58 0.473-0.856 0.132-0.214 0.204-0.466 0.213-0.719-0.315 0.426-0.493 0.966-0.903 1.313zM15.267 19.338l-0.003 0.034c-0.222 0.206-0.398 0.462-0.588 0.699-0.213 0.314-0.449 0.608-0.658 0.924 0.024-0.189 0.098-0.368 0.121-0.559 0.033-0.227 0.090-0.449 0.143-0.671-0.199 0.26-0.34 0.579-0.597 0.788-0.005-0.208 0.043-0.415 0.047-0.622l-0.046 0.024c-0.187 0.257-0.317 0.551-0.487 0.82-0.168 0.324-0.389 0.611-0.617 0.889 0.354-0.252 0.56-0.691 0.952-0.891 0.16-0.051 0.305-0.142 0.4-0.287-0.054 0.672 0.021 1.347 0.163 2.004 0.069 0.266 0.167 0.531 0.326 0.752-0.225-0.667-0.225-1.408-0.023-2.081 0.196-0.654 0.529-1.256 0.905-1.816l-0.039-0.007zM13.267 22.57c-0.093-0.11-0.019-0.264-0.018-0.392-0.147 0.205-0.227 0.462-0.228 0.719 0.049-0.040 0.094-0.090 0.16-0.094 0.013 0.189-0.036 0.373-0.033 0.561 0.059-0.068 0.114-0.14 0.167-0.214 0.078 0.038 0.050 0.143 0.057 0.215-0.009 0.355-0.059 0.706-0.081 1.059-0.012 0.177 0.052 0.345 0.098 0.511 0.038 0.121 0.066 0.247 0.122 0.361-0.053-0.208-0.008-0.453 0.143-0.604 0.147 0.129 0.275 0.309 0.257 0.519-0.017 0.195-0.042 0.392-0.002 0.587 0.097-0.136 0.198-0.291 0.18-0.469 0.020-0.254-0.147-0.461-0.185-0.701-0.019-0.184 0.008-0.369 0.026-0.552-0.172 0.121-0.301 0.293-0.452 0.439 0.006-0.503 0.019-1.006 0.044-1.508 0.058-0.357 0.113-0.718 0.22-1.063-0.207 0.165-0.317 0.419-0.477 0.626zM26.129 22.336c-0.18 0.417-0.193 0.89-0.151 1.338 0.060 0.453 0.19 0.922 0.482 1.273-0.322-0.932-0.427-1.979-0.118-2.931-0.1 0.081-0.159 0.202-0.213 0.32zM1.86 23.628c-0.223 0.211-0.315 0.535-0.332 0.839 0.143-0.276 0.285-0.556 0.483-0.795 0.107-0.148 0.254-0.264 0.345-0.424-0.182 0.102-0.344 0.237-0.496 0.38zM1.479 25.167c-0.055 0.069-0.128 0.138-0.141 0.231 0.121-0.091 0.267-0.149 0.366-0.272 0.099-0.116 0.204-0.228 0.306-0.343-0.204 0.081-0.374 0.228-0.531 0.384zM1.472 25.552c-0.192 0.417-0.422 0.82-0.52 1.276 0.056-0.021 0.076-0.084 0.108-0.129 0.127-0.217 0.265-0.429 0.436-0.61 0.132-0.139 0.292-0.244 0.443-0.358-0.253 0.054-0.451 0.254-0.64 0.425 0.106-0.255 0.267-0.477 0.404-0.713 0.024-0.051 0.068-0.101 0.058-0.161-0.116 0.062-0.23 0.149-0.29 0.271zM14.089 25.544c0.069 0.085 0.174 0.123 0.248 0.203 0.218 0.235 0.321 0.55 0.459 0.835-0.053-0.193-0.111-0.385-0.186-0.57-0.080-0.222-0.204-0.438-0.187-0.683-0.092 0.102-0.206 0.176-0.335 0.215zM1.034 27.504c0.001-0.252 0.126-0.482 0.15-0.731-0.098 0.036-0.158 0.136-0.206 0.227-0.103 0.341-0.114 0.704-0.091 1.058 0.038-0.061 0.046-0.135 0.074-0.2 0.172-0.431 0.477-0.786 0.807-1.095 0.071-0.071 0.161-0.122 0.222-0.206-0.443 0.142-0.732 0.552-0.957 0.947zM27.463 27.114c-0.014 0.236-0.026 0.475-0.092 0.704-0.057 0.233-0.178 0.443-0.257 0.666 0.279-0.315 0.513-0.708 0.532-1.147-0.004-0.067 0.013-0.146-0.030-0.201-0.033-0.064-0.102-0.028-0.153-0.022zM28.547 27.973c0.076 0.252 0.122 0.524 0.051 0.783-0.039 0.163-0.139 0.298-0.212 0.445 0.351-0.187 0.534-0.659 0.41-1.050-0.045-0.104-0.118-0.236-0.248-0.178zM30.328 28.095c-0.005 0.090 0.011 0.18 0.035 0.266 0.097 0.373 0.022 0.773-0.136 1.116 0.184-0.155 0.275-0.401 0.324-0.636 0.037-0.25 0.061-0.527-0.061-0.758-0.034-0.071-0.118-0.018-0.162 0.012zM29.516 28.279c0.167 0.403 0.026 0.869-0.237 1.188 0.404-0.21 0.642-0.773 0.442-1.211-0.038-0.103-0.162-0.045-0.204 0.022zM19.991 28.988c-0.083 0.037-0.079 0.155-0.048 0.227 0.078 0.088 0.199 0.112 0.299 0.164 0.096 0.036 0.169 0.115 0.267 0.147-0.018-0.051-0.037-0.099-0.055-0.148 0.067 0.018 0.1 0.083 0.143 0.134 0.171 0.209 0.271 0.471 0.33 0.737 0.082-0.096 0.062-0.235 0.038-0.349-0.083-0.354-0.325-0.647-0.61-0.847-0.105-0.072-0.242-0.133-0.363-0.065zM21.237 29.182c0.384 0.117 0.586 0.505 0.764 0.843-0.056-0.419-0.238-0.894-0.644-1.059-0.13-0.061-0.129 0.131-0.12 0.215zM18.777 29.513c0.089 0.104 0.187 0.203 0.301 0.277 0.008-0.052 0.018-0.102 0.029-0.152 0.049-0.024 0.069 0.036 0.096 0.066 0.145 0.208 0.218 0.457 0.275 0.704 0.005 0.038 0.023 0.066 0.055 0.087 0.056-0.434-0.129-0.868-0.425-1.168-0.079-0.073-0.173-0.166-0.288-0.129-0.114 0.053-0.117 0.226-0.043 0.316zM17.687 29.503c-0.029 0.135 0.095 0.221 0.186 0.288 0.061 0.037 0.107 0.108 0.182 0.115l0.015-0.124c0.222 0.194 0.247 0.519 0.371 0.772 0.077-0.434-0.15-0.855-0.431-1.156-0.1-0.115-0.311-0.052-0.323 0.106zM3.879 29.65c0.109 0.096 0.204 0.208 0.325 0.287 0-0.031-0.002-0.093-0.003-0.124 0.32 0.227 0.406 0.665 0.439 1.042 0.113-0.295 0.086-0.651-0.097-0.91-0.14-0.202-0.322-0.4-0.56-0.463-0.088-0.041-0.199 0.106-0.104 0.169zM3.259 29.793c0.271 0.169 0.394 0.489 0.447 0.798 0.009 0.005 0.028 0.014 0.038 0.018 0.011-0.129 0.023-0.26 0.004-0.388-0.045-0.257-0.21-0.494-0.443-0.596-0.121-0.044-0.152 0.127-0.046 0.168zM4.882 29.738c0.148 0.080 0.306 0.153 0.426 0.278 0.111 0.115 0.196 0.255 0.263 0.403 0.027 0.046 0.035 0.11 0.084 0.139-0.001-0.114 0.002-0.23-0.038-0.336-0.083-0.299-0.361-0.511-0.653-0.54-0.040-0.002-0.067 0.017-0.082 0.056z"></path>
</svg>
