<?xml version="1.0" encoding="UTF-8" standalone="no"?>
<!DOCTYPE svg PUBLIC "-//W3C//DTD SVG 1.1//EN" "http://www.w3.org/Graphics/SVG/1.1/DTD/svg11.dtd">
<svg width="100%" height="100%" viewBox="0 0 150 150" version="1.1" xmlns="http://www.w3.org/2000/svg" xmlns:xlink="http://www.w3.org/1999/xlink" xml:space="preserve" xmlns:serif="http://www.serif.com/" style="fill-rule:evenodd;clip-rule:evenodd;stroke-linejoin:round;stroke-miterlimit:2;">
    <g transform="matrix(0.126743,0,0,0.131316,-0.477181,-45.9708)">
        <path d="M739.435,391.833C741.446,371.37 764.442,356.248 784.037,362.005C798.674,366.098 809.982,377.44 818.513,389.579C820.802,392.493 822.641,396.065 825.901,397.903C831.103,398.077 836.064,396.273 841.093,395.371C861.452,391.695 882.643,394.088 902.031,401.129C917.535,404.701 933.351,406.714 949.236,407.615C962.068,409.557 973.859,415.28 985.693,420.378C991.514,422.494 997.861,422.424 1003.86,423.986C1013.44,425.928 1022.41,430.09 1030.74,435.084C1041.49,441.675 1054.64,439.697 1066.5,442.229C1073.54,443.27 1080.54,446.01 1087.72,444.691C1101.21,443.061 1114.81,441.812 1128.41,441.604C1138.63,441.743 1150.26,443.235 1157.45,451.385C1164.55,459.779 1169.31,471.12 1167.43,482.219C1165.97,486.729 1161.04,487.907 1157.79,490.474C1158.24,498.381 1160.8,506.219 1159.73,514.267C1157.89,529.354 1155.88,545.482 1146.35,557.864C1142.42,563.795 1136.45,567.68 1131.35,572.396C1129.89,582.698 1128.61,593.276 1123.97,602.779C1121.44,608.363 1118.74,614.294 1113.74,618.11C1111.73,619.497 1109.51,617.727 1108.92,615.752C1106.91,605.173 1110.93,594.49 1109.44,583.912C1106.8,582.42 1104.44,585.784 1102.99,587.553C1088.63,607.531 1076.55,629.277 1067.93,652.377C1063.79,664.411 1060.08,677.384 1062.95,690.112C1065.7,699.963 1073.3,707.419 1076.83,716.958C1086.19,712.969 1092.41,704.541 1099.58,697.708C1101.08,695.974 1104.12,694.934 1105.24,697.708C1106.38,701.419 1105.14,705.513 1104.1,709.189C1100.14,718.761 1095.18,728.334 1087.44,735.41C1089.35,739.502 1092.64,743.179 1093.07,747.861C1092.92,752.613 1089.77,756.359 1087.41,760.209C1083.11,767.353 1078.91,775.087 1071.67,779.631C1064.56,783.966 1056.41,786.082 1048.88,789.516C1049.75,786.638 1051.06,783.898 1052.28,781.158C1044.06,782.094 1035.54,781.643 1027.82,778.486C1019.04,775.157 1012.32,768.324 1003.73,764.717C995.952,767.977 989.567,773.804 983.469,779.492C977.122,785.457 973.477,794.961 976.569,803.459C981.322,817.089 985.759,830.893 992.698,843.622C989.997,843.032 987.496,841.888 985.244,840.362C984.614,844.316 987.258,847.714 986.895,851.53C985.378,852.397 983.02,853.888 984.433,855.97C987.21,860.965 988.775,866.513 989.787,872.132C984.996,869.115 982.047,863.808 977.122,860.791C978.716,868.004 981.388,874.977 983.364,882.121C991.963,911.325 998.099,941.256 1000.99,971.605C1001.82,981.941 1005.52,991.687 1008.83,1001.43C1016.59,1023.55 1029.77,1043.13 1041.11,1063.47C1056.23,1090.85 1067.3,1120.33 1076.1,1150.33C1082.38,1172.36 1086.26,1195.01 1089.43,1217.65C1092.13,1234.27 1094.1,1251.51 1101.91,1266.65C1110.44,1279.38 1117.28,1293.18 1123.11,1307.35C1129.96,1323.91 1136.91,1340.64 1140.2,1358.37C1142.83,1372.17 1139.3,1386.65 1132.05,1398.49C1127.3,1405.88 1120.46,1413.13 1111.3,1414.13C1106.11,1414.8 1101.45,1410.85 1100.03,1406.02C1104.61,1407.31 1110.44,1408.87 1114.15,1404.78C1117.94,1400.33 1121.05,1394.82 1121.54,1388.94C1116.86,1388.61 1112.04,1388.15 1107.47,1389.3C1101.94,1396.44 1095.04,1402.52 1087.69,1407.68C1081.41,1412.22 1073.37,1412.88 1065.98,1411.43C1072.04,1406.61 1079.2,1401.76 1080.99,1393.63C1082.77,1387.78 1081.73,1379.04 1075.06,1376.95C1068.79,1385.52 1064.11,1396.71 1053.7,1401.41C1046.27,1405.85 1035.17,1403.62 1031.47,1395.43C1040.98,1395.62 1048.84,1387.91 1050.47,1378.8C1053.35,1363.73 1041.11,1348.19 1026.02,1347.03C1023.04,1351.26 1021.58,1356.45 1018.81,1360.87C1014.86,1367.38 1009.66,1373.17 1003.66,1377.85C999.254,1381.37 992.898,1382.33 987.983,1379.28C995.78,1371.18 1003.56,1361.55 1004.18,1349.8C1005.28,1339.12 1000.08,1328.94 992.698,1321.6C982.81,1311.76 984.156,1296.24 987.907,1283.99C983.164,1291.88 977.428,1300.37 968.658,1303.84C972.437,1295.59 974.794,1285.21 969.804,1276.95C968.762,1278.01 967.756,1279.14 966.404,1279.78C963.318,1271.23 960.717,1262.26 955.063,1254.96C952.877,1263.54 952.566,1272.9 948.542,1280.78C945.872,1269.95 942.681,1259.08 937.305,1249.24C934.877,1244.6 929.188,1244.32 925.097,1241.93C921.801,1240.27 919.998,1236.9 917.362,1234.51C916.46,1238.94 915.766,1244.04 912.194,1247.16C910.529,1236.87 908.344,1225.63 900.159,1218.35C897.523,1225.81 894.435,1233.67 888.47,1239.09C888.991,1228.98 889.095,1217.99 883.268,1209.26C879.661,1203.42 874.146,1199.24 869.013,1194.9C868.458,1197.85 868.043,1200.83 867.591,1203.86C862.214,1193.62 857.082,1183.2 850.457,1173.7C849.132,1174.71 847.859,1175.79 846.642,1176.93C844.561,1173.12 843.486,1168.88 841.856,1164.93C838.769,1156.51 834.711,1148.13 834.295,1139.03C833.913,1134.66 834.537,1130.2 833.671,1125.91C831.971,1130.29 830.792,1134.9 829.023,1139.23C828.329,1133.06 828.849,1126.71 827.496,1120.61C825.971,1111.1 821.53,1102.47 817.646,1093.8C816.814,1092.88 817.057,1090.74 815.635,1090.6C811.716,1094.17 807.797,1097.68 803.564,1100.84C804.258,1093.87 805.473,1086.38 802.142,1079.86C799.958,1075.84 796.976,1071.9 792.813,1069.87C791.148,1080.86 788.478,1091.64 786.327,1102.57C786.293,1103.78 785.772,1104.58 784.731,1105.04C783.691,1095.81 781.368,1086.65 776.927,1078.46C770.026,1065.42 762.535,1052.38 759.725,1037.7C755.424,1038.1 750.846,1038.68 747.481,1041.69C742.244,1046.41 738.776,1052.84 733.677,1057.69L734.926,1045.89C730.73,1047.61 724.972,1047.53 722.718,1052.21C717.689,1061.4 712.173,1070.35 706.312,1079.02C703.78,1082.45 701.352,1086.13 697.746,1088.52C699.029,1082.45 700.59,1076.41 700.624,1070.17C696.74,1073.46 694.797,1078.78 691.641,1082.87C687.826,1079.99 682.693,1081.79 680.715,1085.92C674.23,1097.89 676.137,1112.08 677.594,1125.05C682.936,1159.72 694.52,1193.95 714.949,1222.74C709.052,1219.32 703.607,1215.3 698.474,1210.79C698.23,1216.54 701.144,1221.7 703.502,1226.78C712.625,1244.94 717.481,1264.92 720.255,1284.97C721.711,1296.63 723.862,1308.44 729.515,1318.9C735.446,1330.76 745.158,1340.05 755.424,1348.13C750.256,1348.51 745.331,1346.58 740.198,1346.7C741.759,1353.76 747.968,1358.46 753.725,1362.07C769.055,1372.03 788.824,1371.34 803.808,1381.98C815.704,1390.93 822.19,1405.63 823.89,1420.24C824.409,1427.77 822.537,1436.27 816.571,1441.33C814.352,1432.83 812.513,1422.9 804.536,1417.88C798.64,1415.13 792.119,1417.29 785.946,1417.12C786.361,1425.74 785.01,1434.46 782.72,1442.78C781.437,1446.42 780.466,1450.68 777.067,1453.02C776.269,1446.63 774.188,1440.57 772.35,1434.46C770.234,1436.55 767.875,1438.45 765.067,1439.56C753.794,1444.23 741.412,1445.29 729.342,1445.8C727.157,1453.46 725.353,1461.83 719.943,1467.96C716.543,1460.43 716.787,1451.84 715.017,1443.86C708.324,1443.68 701.352,1443.79 695.11,1446.45C688.728,1450.86 686.23,1459.7 678.911,1462.99C679.605,1458.33 680.715,1453.36 678.531,1448.88C673.397,1445.87 667.363,1447.36 661.952,1448.74C643.43,1453.57 623.314,1457.29 604.689,1451.17C594.076,1448.15 585.682,1439.31 582.63,1428.77C578.225,1413.92 579.89,1398.17 577.082,1383.09C575.244,1372.52 571.393,1362.41 566.953,1352.7C564.908,1349.17 562.757,1344.63 558.421,1343.68C553.913,1345.04 554.016,1351.05 550.271,1353.52C550.791,1341.82 546.976,1329.88 539.102,1321.21C537.923,1326.04 537.749,1331.23 535.391,1335.71C536.119,1322.18 528.42,1310.63 522.731,1299.05C519.16,1303.18 521.448,1310.61 517.459,1314.63C516.628,1303.6 512.395,1292.21 504.141,1284.69L503.76,1293.18C497.517,1284.32 494.083,1273.73 488.326,1264.54C478.649,1282.1 466.094,1297.8 453.711,1313.44C438.208,1332.52 422.844,1351.7 406.022,1369.61C403.004,1372.59 401.166,1377.55 404.079,1381.26C410.739,1390.52 423.155,1392.97 433.872,1392.11C444.555,1390.86 455.793,1389.1 466.128,1392.97C470.221,1394.33 473.724,1396.92 477.505,1398.94C482.36,1400.54 487.77,1399.88 492.418,1402.28C503.309,1406.88 509.829,1418.62 510.662,1430.1C510.628,1432.23 510.454,1434.88 508.581,1436.27C505.945,1431.02 502.373,1425.34 496.407,1423.7C497.829,1429.73 500.361,1435.63 499.979,1441.94C495.505,1439.41 491.863,1435.74 487.354,1433.24C487.597,1436.62 487.875,1439.94 487.944,1443.34C485.343,1443.4 483.574,1441.26 481.528,1440.04C474.14,1434.63 465.469,1429.78 456.069,1430.19C450.347,1432.2 446.289,1437.51 440.358,1439.2C428.289,1442.95 415.456,1442.3 403.004,1441.82C384.794,1441.3 366.586,1441.37 348.377,1441.91C334.816,1442.19 321.254,1442.43 307.764,1440.91C297.636,1439.56 286.675,1433.81 284.109,1423.09C281.75,1415.63 285.497,1406.74 280.155,1400.3C271.31,1385.19 271.38,1366.82 272.837,1349.89C274.57,1331.38 281.161,1313.88 286.433,1296.21C290.803,1281.94 293.716,1267.35 295.659,1252.59C291.289,1254.8 286.779,1256.79 282.374,1258.92C284.837,1253.99 286.225,1248.6 286.675,1243.12C286.12,1239.98 282.617,1239.19 280.189,1238.01C281.82,1233.49 284.941,1229.59 285.669,1224.72C287.924,1214.7 285.808,1204.19 280.536,1195.45C280.224,1195.49 279.531,1195.56 279.218,1195.56C272.766,1208.94 263.403,1220.61 256.604,1233.79C252.547,1239.66 249.737,1246.54 244.881,1251.85C245.333,1246.37 246.026,1240.92 246.061,1235.47C237.911,1247.89 226.256,1257.22 214.776,1266.44C211.1,1269.3 207.354,1273.05 207.284,1278.08C206.348,1289.96 207.978,1301.89 209.678,1313.68C204.614,1310.53 200.244,1306.34 195.735,1302.41C189.562,1318.03 182.485,1333.29 173.85,1347.67C166.531,1359.98 159.04,1372.55 155.155,1386.48C153.248,1392.46 159.04,1396.79 163.618,1399.26C176.451,1406.64 193.03,1403.14 205.065,1412.37C216.025,1419.86 220.048,1434.53 217.966,1447.18C216.962,1451.38 215.782,1456.31 211.724,1458.56C209.747,1450.89 206.174,1443.55 200.903,1437.62C200.487,1437.51 199.653,1437.23 199.238,1437.13C200.418,1442.15 200.66,1447.36 200.244,1452.49C200.418,1454.55 199.238,1455.92 197.503,1456.8C195.215,1451.21 192.856,1445.17 188.104,1441.21C186.509,1447.12 183.283,1452.49 179.329,1457.08C176.937,1459.34 174.578,1462.24 171.11,1462.69C170.554,1457.73 168.474,1452.36 163.722,1450.07C159.422,1447.88 155.432,1445.13 152.104,1441.66C148.53,1446.97 145.305,1452.49 142.495,1458.21C140.657,1461.13 139.097,1464.78 135.697,1466.13C135.663,1459.3 129.663,1454.13 123.038,1454.3C107.118,1454.49 91.338,1456.88 75.625,1459.4C65.429,1460.7 54.503,1462.44 44.792,1458.01C33.693,1453.32 27.069,1441.7 25.092,1430.15C23.357,1419.74 27.033,1409.48 26.999,1399.08C28.525,1374.93 22.595,1351.29 21.727,1327.24C22.074,1325.1 19.993,1323.29 17.843,1324.31C18.293,1316.51 24.19,1310.78 28.109,1304.57C24.919,1305.3 22.039,1306.82 19.056,1308.14C23.01,1297.94 28.387,1288.38 31.82,1278.01C37.404,1262.05 40.247,1245.3 43.092,1228.67C40.63,1230.56 39.346,1233.38 37.959,1236.13C35.357,1221.73 40.076,1207.17 46.56,1194.48C48.434,1190.53 50.931,1186.82 52.076,1182.52C46.734,1182.93 41.323,1183.77 36.017,1182.58C43.681,1172.29 50.168,1161.02 54.052,1148.7C56.238,1141.9 58.838,1135.08 58.838,1127.85C56.723,1126.54 53.845,1123.56 56.133,1121.1C61.336,1115.13 66.468,1109.09 70.909,1102.47C67.024,1105.14 63.729,1109.35 58.7,1109.51C52.978,1110.1 45.624,1109.42 42.399,1103.96C50.411,1104.07 57.694,1099.62 63.625,1094.56C67.544,1091.34 69.313,1085.64 67.544,1080.79L71.949,1077.12L68.863,1077.88C69.313,1070.53 63.59,1064.97 58.457,1060.57C64.562,1058.17 70.596,1053.94 72.747,1047.46C74.619,1038.23 72.539,1028.56 74.758,1019.39C70.987,1022.41 66.893,1025.01 62.55,1027.13C64.735,1020.96 69.244,1015.86 71.117,1009.52C74.828,1001.01 72.955,991.513 75.487,982.773C76.285,979.547 77.984,976.564 78.47,973.269C77.327,973.139 76.183,973.023 75.037,972.923C77.255,967.201 81.313,962.24 82.389,956.101C83.915,949.13 82.979,941.845 84.956,934.979C81.557,934.979 78.262,935.708 75.002,936.47C85.58,924.365 95.5,911.012 100.32,895.44C102.332,889.578 103.546,883.3 107.187,878.168C109.061,875.253 111.522,872.791 113.604,870.051C109.061,870.953 104.413,870.987 99.765,870.641C103.824,866.305 108.61,862.386 111.038,856.803C114.436,849.207 118.633,841.438 118.356,832.87C112.216,835.888 106.008,838.766 99.384,840.604C106.251,832.628 114.436,825.76 121.2,817.644C132.853,803.597 143.432,788.648 156.126,775.503C160.6,770.544 166.184,766.174 168.3,759.584C169.792,754.971 173.469,751.78 176.347,748.069C174.3,748.346 172.254,748.52 170.208,748.624C172.704,740.196 182.243,737.525 187.03,730.866C183.318,730.623 179.537,730.866 176.035,732.184C186.439,721.05 201.596,716.541 214.672,709.501L215.504,708.217C212.244,708.253 208.984,708.356 205.724,708.182C212.868,700.137 223.066,696.113 232.43,691.397C227.297,687.58 220.395,687.269 214.256,688.274C216.233,686.678 218.626,685.986 221.055,685.465C233.886,682.274 246.408,678.008 258.651,672.979C294.063,658.516 331.208,647.868 369.326,643.914C380.217,643.567 390.24,638.85 400.437,635.59C428.67,626.19 456.417,614.19 480.418,596.328C488.395,590.328 495.713,583.426 501.957,575.588C507.713,568.234 511.911,559.633 518.639,553.009C524.918,546.592 533.484,543.435 541.183,539.17C567.161,525.053 592.065,508.509 613.741,488.254C619.083,483.295 623.731,477.676 628.967,472.646C636.702,465.744 646.24,460.958 656.299,458.461C660.946,457.247 665.767,455.998 669.859,453.327C682.103,445.073 695.56,438.483 709.78,434.356C718.035,431.928 726.255,428.876 734.857,427.731C738.88,429.465 741.412,433.419 744.638,436.298C739.816,441.293 733.331,444.344 727.435,447.848C701.769,463.074 680.924,485.896 666.772,512.116C662.473,519.955 659.213,528.349 657.2,537.054C654.252,528.452 657.027,519.158 657.617,510.313C649.57,509.272 645.096,517.146 640.898,522.313C643.708,512.845 649.362,504.486 654.078,495.919L650.61,496.751C653.94,486.069 659.35,475.421 668.368,468.45C669.304,467.722 670.033,466.785 670.553,465.675C651.79,474.104 636.181,487.838 619.777,499.977L563.415,544.337C542.675,562.026 520.964,580.374 509.275,605.693C504.8,614.156 505.425,624.179 501.437,632.781C498.592,639.37 493.042,644.157 487.667,648.631C480.28,655.013 471.92,660.181 463.353,664.863C468.729,658.238 475.008,651.822 477.608,643.429C470.29,645.822 464.464,651.233 457.804,654.909C450.139,659.175 443.029,664.411 435.017,667.985C438.277,661.742 442.508,655.949 445.353,649.532C439.768,650.469 434.289,652.203 428.566,652.551C430.092,649.532 433.074,647.694 435.398,645.37C443.064,638.642 449.273,630.249 453.746,621.058C440.289,627.092 427.525,634.549 414.276,640.966C398.738,647.071 382.263,650.122 366.169,654.319C349.279,658.689 332.076,662.193 315.74,668.505C310.087,670.897 304.156,673.292 299.439,677.384C297.531,678.84 298.399,681.407 298.156,683.488C293.057,682.24 287.681,684.216 283.45,687.096C282.409,689.142 285.497,689.766 286.71,690.668C289.554,692.262 293.612,691.152 295.762,693.824C279.218,700.066 266.94,713.316 256.084,726.773C251.749,732.67 247.031,738.566 244.673,745.606C249.737,744.566 253.448,740.3 258.685,739.675C252.547,748.346 243.841,755.145 238.95,764.751C245.714,758.821 252.616,751.329 262.431,751.537C255.495,760.937 247.413,769.885 242.939,780.81C247.829,777.898 251.68,773.179 257.298,771.549C254.558,783.169 251.853,794.927 251.714,806.962C251.714,822.014 254.801,836.893 254.558,851.947C254.732,870.987 253.795,890.584 246.546,908.411C250.604,907.092 253.691,904.11 257.09,901.718C253.484,913.371 248.558,924.573 245.263,936.331C248.869,935.569 250.708,931.788 253.136,929.359C263.368,917.637 267.565,900.954 280.779,891.867C277.588,904.7 272.698,917.602 273.114,931.025C275.68,927.279 277.866,923.291 280.71,919.752C282.305,928.007 280.12,936.574 281.646,944.864C283.381,951.245 288.548,957.21 295.485,957.627C294.896,945.384 292.675,933.21 292.953,920.933C293.195,913.683 293.127,906.053 296.247,899.359C297.565,896.202 300.965,894.296 301.485,890.757C303.809,879.347 307.519,867.138 316.816,859.472L319.59,858.12C316.26,870.293 310.711,881.878 308.492,894.364C308.526,899.046 309.394,904.11 306.583,908.272C303.289,913.302 304.433,919.51 304.641,925.163C305.195,931.961 304.711,938.794 305.821,945.558C308.457,946.252 308.977,942.956 310.122,941.395C312.896,929.117 313.972,916.492 316.538,904.18C317.058,902.342 317.578,899.81 319.902,899.74C322.884,911.741 322.226,924.261 320.942,936.436C320.04,939.384 320.666,943.512 317.926,945.453C316.608,942.019 315.67,938.448 314.353,935.014C308.387,945.071 309.323,957.418 309.115,968.657C309.462,972.091 308.561,976.529 311.578,978.957C313.312,975.628 314.179,971.397 317.544,969.281C317.855,979.443 318.238,990.333 323.926,999.143C326.631,1003.48 329.995,1007.85 334.921,1009.79C330.793,995.812 328.781,981.385 325.902,967.13C324.411,954.956 325.833,942.678 327.532,930.609C329.093,920.411 329.128,909.903 332.007,899.914C332.909,896.584 334.4,893.394 334.885,889.96C334.885,886.595 333.74,883.404 332.631,880.283C329.163,878.305 328.816,873.762 328.816,870.189C328.921,858.224 335.649,847.819 338.562,836.477C336.203,838.038 334.192,840.119 331.868,841.749C336.134,832.386 343.487,824.651 351.117,817.852C354.412,815.147 357.777,812.268 361.87,810.777C351.221,829.471 342.273,849.935 341.024,871.785C339.777,886.977 344.563,901.683 346.47,916.563C347.059,911.394 345.464,906.33 345.291,901.197C344.147,881.844 347.545,861.554 358.644,845.322C372.864,823.575 395.859,810.014 418.404,798.395C424.091,795.758 429.572,792.359 435.78,791.146C429.78,800.753 421.63,808.973 416.739,819.275C412.681,827.459 410.358,836.548 410.53,845.703C412.75,844.143 415.317,842.964 418.091,843.657C416.739,847.472 414.796,851.079 414.034,855.068C417.223,853.819 420.346,852.224 423.849,852.362C423.572,856.455 419.513,858.883 417.814,862.386C415.906,866.34 412.265,869.705 411.675,874.143C415.422,870.953 419.618,868.317 424.508,867.381C420.657,874.663 413.86,881.115 413.061,889.786C416.6,884.237 422.045,878.513 429.086,878.549C425.548,885.104 420.866,891.832 421.386,899.636C423.64,898.769 425.964,898.18 428.427,898.422C421.976,907.058 416.01,916.805 415.767,927.973C418.958,924.573 421.63,919.302 426.866,919.198C422.01,928.146 417.432,937.372 415.698,947.5C417.953,945.142 420.901,943.788 424.162,943.476C420.97,952.424 416.531,960.957 414.449,970.321C417.223,967.235 419.618,963.315 424.126,962.691C421.49,975.385 424.126,988.566 421.248,1001.25C424.716,998.761 426.242,994.531 428.982,991.374C431.271,996.127 430.958,1001.54 431.86,1006.63C432.798,1015.09 433.872,1024 430.855,1032.2C432.936,1030.66 434.67,1028.72 436.266,1026.71C440.047,1032.23 436.787,1039.48 437.098,1045.68C440.081,1043.03 443.272,1040.6 446.567,1038.28C448.023,1046.38 442.855,1053.56 442.647,1061.54L446.358,1059.12C448.266,1063.07 447.157,1067.43 447.643,1071.63C449.549,1070.81 451.457,1069.99 453.538,1069.68C452.914,1075.93 450.659,1082.12 451.978,1088.45L455.238,1089.05C453.677,1095.58 450.417,1102.7 453.538,1109.35C452.567,1122.03 449.203,1134.55 450.174,1147.35C450.903,1167.12 457.561,1186.1 466.197,1203.67C473.481,1218.41 481.944,1233.3 483.643,1249.97C485.446,1226.78 472.163,1206.35 465.088,1185.08C455.897,1160.57 455.273,1133.46 460.231,1107.97C463.007,1091.64 461.932,1074.89 465.018,1058.62C468.591,1039.23 472.441,1019.78 478.892,1001.08C479.17,999.668 480.244,998.103 479.446,996.719C475.076,1007.05 468.279,1016.07 463.77,1026.3C464.706,1014.3 469.145,1002.96 471.851,991.305C475.91,974.691 481.146,958.009 481.112,940.806C477.99,945.592 475.216,951.142 470.567,954.61C471.886,947.5 474.522,940.667 474.973,933.453C475.076,930.227 475.874,926.551 473.793,923.777C471.955,926.863 470.013,929.915 468.626,933.245C465.677,940.424 461.412,947.048 459.087,954.505L466.197,954.47C463.076,965.916 456.312,976.564 456.278,988.808C460.093,985.721 462.14,980.934 466.336,978.194C459.919,994.08 457.631,1011.18 457.527,1028.24C447.121,1011.04 443.272,990.196 444.902,970.287C446.047,957.662 455.827,948.124 459.122,936.331C453.608,941.638 447.815,946.702 442.89,952.598C441.121,954.644 439.526,956.968 437.168,958.425C438.485,943.303 441.746,928.181 448.544,914.515C454.439,901.092 463.007,889.092 469.91,876.225C460.439,884.583 452.116,894.191 442.508,902.376C453.261,882.953 466.371,865.022 478.336,846.362C472.163,851.218 466.613,856.871 460.371,861.658C456.348,864.779 453.157,869.08 448.439,871.265C455.861,855.762 466.648,841.957 472.51,825.691L471.018,825.968C465.331,832.523 459.435,839.53 451.735,843.587C457.839,833.356 465.295,824.025 472.059,814.21C476.567,807.378 479.828,799.54 480.66,791.32C480.868,789.17 480.73,786.706 479.238,785.008C475.492,796.938 468.591,807.482 460.787,817.089C454.96,823.541 449.549,830.477 442.821,835.992C445.665,821.113 455.584,808.869 459.885,794.51C454.579,803.181 449.064,812.788 439.942,817.817C448.266,804.014 457.665,790.314 461.793,774.498C455.029,781.955 449.861,791.458 441.26,797.146C445.942,787.886 450.069,778.209 452.393,768.081C449.41,769.989 446.741,772.347 443.757,774.255C445.942,770.613 450.243,768.949 452.671,765.445C454.439,762.185 455.446,758.543 456.278,754.901C451.769,755.353 448.301,759.167 443.653,759.272C443.584,757.329 443.965,755.457 444.902,753.757L459.435,721.883C465.574,709.084 472.268,696.598 477.748,683.488C479.065,680.436 480.175,677.176 482.533,674.713C483.262,686.054 481.32,697.466 478.753,708.461C483.92,702.182 485.482,693.304 491.482,687.65C491.829,697.882 488.118,707.767 488.706,718.033L489.748,717.443C492.697,695.038 493.979,671.833 503.205,650.851C508.962,637.74 510.592,622.862 518.743,610.825C520.893,607.913 522.315,603.75 526.096,602.641C525.09,611.693 520.096,622.654 526.477,630.63C528.489,628.583 530.674,626.781 533.136,625.358C532.651,636.561 534.004,648.007 538.27,658.446C542.467,667.672 549.716,674.922 556.271,682.448C565.774,692.506 576.526,702.009 589.359,707.488C584.884,699.929 579.994,692.575 577.116,684.182C572.503,674.228 571.844,662.99 572.641,652.203C572.884,648.909 574.305,645.822 576.214,643.186C583.324,632.816 593.59,624.838 599.59,613.635C602.643,609.265 604.342,603.75 608.678,600.421L600.215,623.798C599.798,623.624 598.967,623.242 598.55,623.034C592.862,631.844 589.463,642.007 586.758,652.135C586.55,654.978 586.792,657.857 586.862,660.735C591.926,653.902 595.428,645.926 598.793,638.122C598.168,645.197 596.572,652.135 595.116,659.071C591.44,680.714 592.273,703.292 598.342,724.449C600.563,730.241 602.608,736.728 607.394,740.994C606.042,733.745 603.475,726.01 606.943,718.935C607.186,718.935 607.673,718.935 607.949,718.9C611.591,729.895 618.181,739.502 622.377,750.254L623.8,752.092C625.188,749.802 625.117,746.266 627.754,745.017C629.766,749.56 633.997,752.405 637.154,756.047C642.564,761.942 648.494,768.636 648.738,777.099C651.443,774.706 653.42,771.619 655.708,768.844C658.969,774.29 660.772,781.608 667.744,783.516C667.466,781.469 668.021,779.111 666.495,777.446C657.72,767.491 648.112,757.329 644.402,744.254C642.425,735.305 643.43,726.079 645.13,717.201C640.24,722.75 635.28,728.75 633.546,736.104C631.43,734.682 631.43,731.942 630.875,729.721C628.656,719.871 629.418,709.466 632.748,699.929C634.309,693.824 638.332,688.17 638.02,681.754C630.147,684.529 625.083,691.361 619.533,697.153C620.643,691.604 620.435,685.777 622.343,680.367C626.297,668.157 632.54,656.816 638.784,645.649C640.032,643.29 641.384,640.931 641.419,638.191C632.992,640.931 623.904,640.03 615.163,639.856C617.141,637.498 620.366,636.908 622.933,635.348C630.286,631.532 633.858,623.624 638.576,617.208C643.014,610.409 648.32,603.889 650.852,596.051C644.644,601.392 638.471,607.219 630.806,610.445C637.604,600.351 642.355,589.01 649.222,578.917C654.183,571.563 655.847,562.72 659.421,554.778C662.402,556.511 662.853,560.291 663.235,563.413C663.998,578.016 658.519,591.784 655.119,605.727C655.258,606.282 655.535,607.427 655.639,607.982L657.686,604.305C655.119,618.526 650.888,632.503 647.211,646.515C652.726,641.729 658.171,636.179 665.142,633.683C660.843,641.382 655.605,648.804 653.524,657.545C657.443,655.88 661.223,653.973 665.073,652.135C662.992,669.267 654.356,684.529 645.408,698.888C649.778,697.118 652.482,692.818 655.674,689.488C661.293,683.28 665.178,675.753 670.171,669.13C666.044,684.286 660.877,699.755 662.61,715.675C663.512,720.842 664.379,726.461 667.952,730.554C665.663,709.986 671.559,689.419 681.098,671.349C682.554,669.13 684.149,665.313 687.409,666.112C694.831,672.39 692.75,683.002 696.116,691.223C697.328,695.142 699.931,698.61 703.676,700.31C703.642,690.39 706.034,680.782 706.936,670.968C704.786,671.973 702.463,671.973 700.173,671.799C697.433,659.453 700.833,647.174 703.71,635.278C694.45,640.619 687.792,650.816 685.432,661.291C682.901,661.083 682.831,658.411 682.554,656.47C682.588,649.984 684.114,643.671 685.051,637.29C679.953,638.122 676.727,642.423 672.565,645.059C675.27,635.59 681.514,627.752 688.208,620.779C691.745,615.612 695.63,610.688 699.167,605.519C693.375,607.357 689.422,612.075 684.877,615.752C687.722,603.23 695.422,592.757 701.698,581.83C703.329,578.744 705.168,575.588 705.584,572.05C698.647,576.732 691.814,581.9 683.975,585.022C690.08,572.952 700.104,562.894 703.988,549.713C697.607,550.095 691.918,553.529 685.918,555.401C695.595,537.852 710.267,523.562 726.221,511.804L678.739,531.4C680.126,528.868 683.073,527.932 685.328,526.337C691.398,522.383 697.642,518.672 703.85,514.925C697.363,516.626 691.086,519.087 684.6,520.822C696.982,510.66 711.445,503.445 723.654,493.041C726.36,490.578 730.279,489.19 732.081,485.93C727.123,486.312 722.059,485.722 717.203,487.005C717.203,486.692 717.169,486 717.169,485.653C726.116,481.422 735.758,477.814 743.111,470.982C734.821,472.057 726.429,473.062 718.209,474.554C727.331,468.45 737.389,463.698 745.956,456.657C740.718,453.709 734.753,452.704 729.238,450.38C736.695,446.668 744.602,443.859 751.748,439.489C742.799,430.887 733.816,421.385 730.764,408.933C730.14,406.851 730.14,404.493 728.753,402.76C729.307,401.233 729.931,399.637 730.071,397.903C732.81,401.822 735.1,406.401 739.192,409.175C737.874,404.805 735.481,400.885 734.44,396.412C733.296,391.73 733.643,386.839 734.059,382.087C737.527,384.135 736.591,389.267 739.435,391.833M872.239,406.817C863.013,408.378 853.822,410.424 844.526,411.638C845.29,414.794 842.098,415.904 839.947,417.152C830.687,421.904 820.213,423.951 811.299,429.5C807.9,431.581 805.056,434.633 801.241,435.986L801.38,437.096C803.496,437.2 805.612,437.373 807.761,437.547C802.282,443.131 793.611,444.136 786.813,447.675C791.912,448.576 797.148,448.021 802.316,448.542C794.478,454.993 785.113,459.189 776.755,464.878C766.211,471.364 757.748,481.04 746.094,485.722C754.626,486.173 762.604,482.496 770.512,479.756C780.466,475.282 789.38,468.762 798.466,462.761C800.062,461.894 801.622,460.3 803.599,460.854C796.489,468.346 788.27,474.692 780.396,481.352C772.245,487.631 765.656,495.641 759.17,503.584L759.066,505.111C763.124,503.793 767.251,502.925 771.483,502.301C767.182,507.642 762.152,512.393 758.268,518.116C755.008,522.834 750.638,527.482 750.291,533.516C754.072,531.956 758.025,530.81 762.152,530.881C751.574,543.644 740.614,556.337 732.325,570.835C731.909,571.321 731.041,572.258 730.591,572.708C730.105,560.881 737.284,550.615 739.47,539.308C736.625,540.938 734.163,543.54 730.833,543.956C734.093,538.303 738.186,533.134 740.579,526.996C742.036,522.904 745.296,519.886 747.17,516.07C740.684,519.678 732.568,523.492 730.937,531.539C728.336,542.326 722.475,552.002 719.804,562.789C722.371,560.778 724.729,558.176 728.127,557.621C726.775,572.57 723.481,587.241 719.041,601.565C716.37,610.028 712.347,618.075 711.098,626.953C715.746,623.693 718.52,617.346 724.694,616.688C723.654,625.394 719.561,633.647 718.347,642.423C721.816,638.504 723.723,632.676 729.203,631.081C726.637,644.088 722.856,656.989 722.926,670.343C724.799,678.182 726.221,686.159 726.914,694.205C730.417,686.748 732.255,676.274 741.378,673.5C746.406,679.256 743.701,687.892 743.562,694.865C745.504,693.546 746.337,691.361 747.066,689.21C751.193,692.679 746.545,699.096 747.446,703.605C749.978,702.044 751.921,699.721 754.211,697.847C760.072,707.003 762.43,717.929 765.309,728.299L766.419,728.993C767.321,726.878 768.881,724.727 771.17,724.033C773.563,725.906 772.557,729.547 773.355,732.218C775.679,744.531 773.91,757.191 769.124,768.671C769.437,768.533 770.095,768.324 770.373,768.185C774.153,761.595 778.523,755.318 781.402,748.208C787.021,735.686 788.443,721.883 791.946,708.703C787.714,714.773 783.865,721.293 781.645,728.403C779.287,724.588 780.674,719.629 781.263,715.467C783.067,704.749 789.483,695.801 793.611,685.986C786.709,691.639 781.297,698.922 775.125,705.339C772.453,707.593 774.083,713.351 770.373,714.045C768.812,705.547 769.055,696.598 772.557,688.621C774.5,682.621 778.662,677.696 781.021,671.973C774.951,677.662 769.748,684.182 764.789,690.84C763.436,693.684 761.182,690.702 761.633,688.829C761.424,682.899 764.581,677.418 764.581,671.557C760.003,674.47 756.638,678.772 753.378,683.002C753.031,669.615 759.829,657.233 767.39,646.654C757.088,652.551 746.823,658.967 739.019,668.054C741.065,654.423 747.828,641.936 755.458,630.665C760.384,623.311 769.574,621.092 777.864,620.642C776.615,625.323 771.76,627.926 770.859,632.642C782.27,630.596 793.854,627.647 805.473,629.971C802.351,632.989 798.571,635.243 795.137,637.845C797.496,638.33 802.628,636.978 802.142,640.931C799.715,644.088 796.732,646.827 794.131,649.845C791.322,653.071 787.021,654.215 784.177,657.336C793.126,655.706 801.553,651.822 810.64,650.816C815.601,650.505 812.964,656.643 812.825,659.453C820.837,657.718 828.017,653.765 835.127,649.74L835.335,650.088C830.306,656.816 826.386,665.105 827.011,673.708C833.635,673.429 839.046,667.95 845.948,669.025C846.121,671.626 844.873,673.95 844.041,676.343C851.047,673.673 858.538,670.655 866.204,672.355C864.052,675.372 860.619,677.037 858.296,679.881C864.33,678.112 870.157,675.511 876.47,675.164C878.516,675.025 879.972,676.863 879.661,678.875C878.793,685.188 875.395,690.702 871.857,695.835C877.337,693.477 882.609,690.564 887.604,687.269C888.089,692.333 886.423,697.153 883.788,701.419C886.84,699.616 889.407,696.945 892.945,696.044C895.789,689.696 899.707,683.939 903.176,677.973C900.02,678.84 895.408,680.54 893.153,677.21C892.597,673.534 895.408,670.516 896.205,667.048C891.557,666.493 887.153,668.956 882.643,669.892C881.013,668.782 879.349,668.262 878.1,670.274C878.413,669.858 879.071,669.059 879.383,668.644L884.967,667.637L883.337,665.487C878.897,665.973 874.597,667.048 870.227,667.881C870.504,664.447 874.805,663.025 874.944,659.521C867.383,661.811 859.509,663.372 851.602,663.407C853.614,660.493 857.428,659.557 859.614,656.747C851.879,656.088 844.11,657.372 836.722,659.521C837,653.833 841.474,649.879 845.358,646.306L845.498,644.192C841.093,641.174 835.265,640.446 830.063,641.279C826.699,642.909 824.133,646.654 820.074,646.551C821.288,644.192 823.751,642.943 824.964,640.619C821.566,639.822 818.133,640.238 814.768,640.862C818.513,636.284 824.513,634.098 830.167,633.128C829.509,632.087 828.607,631.428 827.461,631.046C819.692,628.238 812.964,622.965 804.814,621.196C801.276,620.017 796.976,620.156 794.304,617.208C802.386,609.82 813.484,604.341 824.653,606.213C822.087,608.085 818.27,608.225 816.502,610.999C823.334,608.919 830.445,610.688 837.415,610.375C835.301,612.075 832.352,613.011 831.139,615.612C836.098,616.271 840.815,614.711 845.463,613.323C849.07,612.039 852.885,613.115 856.562,612.56C865.718,609.022 874.043,603.785 882.678,599.207C884.863,603.299 878.065,601.184 877.857,604.201C882.713,603.611 887.221,601.426 892.147,601.149C889.823,605.137 885.661,607.565 883.129,611.381C886.459,610.167 889.962,609.127 892.736,606.837C896.83,603.439 902.102,601.565 905.43,597.23C908.031,593.727 911.154,590.709 914.102,587.484C912.298,587.901 910.668,588.732 909.524,590.188C907.338,591.23 903.558,591.23 905.084,594.629L903.94,592.894C900.887,594.803 897.869,596.779 894.575,598.305C896.552,596.675 897.072,594.351 897.419,591.923C901.616,587.693 907.095,584.987 911.119,580.548L907.581,582.42L906.61,580.79C905.014,581.518 902.69,580.963 901.962,582.906C902.656,582.94 904.043,582.94 904.737,582.974C902.83,587.484 897.28,588.49 894.298,592.131L893.881,589.044L891.627,591.438C892.563,583.218 903.697,581.171 906.401,573.888L907.686,574.2C911.292,569.725 915.108,564.385 921.177,563.379C920.727,565.252 918.784,566.084 917.57,567.367C913.512,571.044 909.94,575.24 905.742,578.744C911.638,576.316 915.836,570.94 920.379,566.639C924.298,568.2 925.547,562.129 929.397,562.061C926.379,566.847 921.558,570.177 918.403,574.894C917.535,577.391 915.038,576.004 913.789,574.963L913.686,580.27C916.252,578.154 919.131,576.524 921.975,574.824C921.732,577.876 918.992,579.506 916.911,581.344C921.663,578.952 926.275,576.281 930.889,573.576C929.57,577.322 928.218,581.068 926.379,584.57C925.825,584.432 924.715,584.12 924.195,583.98C920.102,586.72 917.015,590.882 912.576,592.999C908.933,596.919 904.008,599.762 901.2,604.375L904.32,604.617C905.57,601.253 907.373,604.513 908.378,605.658L911.119,603.681C911.43,605.624 913.442,606.005 914.83,606.872C919.026,602.606 923.327,598.444 927.143,593.83C930.819,589.877 934.183,585.195 939.489,583.357C938.484,588.282 935.467,592.374 933.247,596.779C929.293,603.507 926.137,610.93 920.414,616.409C913.304,623.382 905.846,630.041 898.147,636.352C896.656,637.602 894.991,638.781 894.227,640.619C899.362,638.642 904.806,637.532 909.87,635.243C915.592,632.919 921.212,629.624 927.593,629.59C923.917,634.098 919.443,637.845 915.697,642.284C923.848,637.22 931.583,630.076 941.71,630.006C938.969,633.786 935.501,637.012 932.83,640.897C936.541,640.272 939.975,638.4 943.859,638.434C938.901,644.365 931.305,648.041 927.593,655.221C932.935,653.833 938.415,653.036 943.93,653.556C944.345,661.776 934.911,665.833 928.495,668.365C930.923,670.794 934.946,669.684 938.033,670.76C932.553,675.961 924.645,677.765 919.234,683.072C927.871,681.407 937.409,680.54 945.698,683.939C945.802,684.356 945.975,685.188 946.046,685.604C939.178,690.148 931.963,694.691 926.865,701.351C934.009,695.767 944.311,691.882 952.531,697.639C948.749,703.431 941.154,705.443 937.791,711.616C943.479,708.599 949.651,705.789 956.242,706.137C958.913,706.691 962.798,706.483 963.803,709.709C958.74,711.997 953.571,714.911 950.519,719.733C953.85,717.963 958.566,716.785 960.82,720.842C963.386,728.022 959.953,735.513 958.704,742.624C963.318,738.739 968.45,734.091 975.004,734.785C973.859,737.248 972.608,739.606 971.33,741.964C975.91,740.23 980.663,738.981 985.549,738.878C987.43,739.086 990.579,738.184 991.476,740.439C989.605,740.75 987.983,741.444 986.8,742.9C988.498,743.699 990.369,744.392 991.715,745.814C993.079,748.451 992.316,751.572 992.631,754.417C995.265,753.202 995.914,749.387 998.834,748.797C1004.9,751.295 1006.84,758.474 1011.25,762.775C1018.22,767.214 1025.4,771.515 1033.03,774.706C1031.71,772.694 1029.49,771.619 1027.82,769.955C1025.57,768.115 1026.44,764.439 1023.83,762.879C1018.36,758.543 1014.03,752.959 1010.03,747.306C1004.14,738.704 994.539,733.12 990.13,723.444C986.313,715.12 984.232,706.137 981.942,697.257C978.096,680.818 971.746,664.863 970.358,647.868C968.59,626.642 970.046,604.549 978.373,584.744C982.181,576.524 987.286,567.784 996.19,564.489C1019.75,554.049 1044.61,547.043 1069.34,540.002C1080.58,537.262 1091.54,533.239 1103.02,531.678C1109.57,530.707 1116.24,531.123 1122.87,530.95C1117.75,527.932 1111.86,526.58 1106.01,526.164C1099.82,526.06 1093.97,528.313 1088,529.632C1092.09,525.366 1095.92,520.788 1100.28,516.798C1098.96,516.036 1097.64,515.238 1096.43,514.371L1098.72,512.845C1094.42,514.544 1091.13,518.116 1086.72,519.678C1086.93,515.064 1090.85,512.22 1093.59,509.03L1092.41,508.788C1090.85,510.694 1088.42,511.804 1085.98,511.908C1088.45,507.92 1092.82,505.423 1095.04,501.295C1091.3,502.751 1087.76,504.797 1083.78,505.631C1086.61,502.925 1089.98,500.948 1092.96,498.416C1093.01,497.619 1093.01,496.023 1093.04,495.226L1089.07,497.584C1089.22,495.156 1091.06,493.665 1092.85,492.381C1089.52,482.462 1085.53,471.432 1088.9,461.028C1090.46,455.201 1096.99,453.293 1099.58,448.333C1082.94,450.587 1066.57,445.143 1049.92,446.391C1028.42,447.189 1005.88,449.581 987.181,461.236C981.283,464.322 981.15,471.884 978.611,477.329C974.212,475.56 972.093,470.982 969.11,467.618C966.994,471.224 964.879,475.04 961.583,477.676C957.213,479.583 953.364,475.976 949.201,475.317C943.895,475.491 939.073,478.3 933.767,478.231C928.877,478.578 923.467,476.947 920.727,472.612C918.541,469.699 920.033,465.328 918.368,462.484C915.766,462.761 914.102,466.126 911.257,466.716C913.026,458.391 919.131,451.455 926.519,447.605C935.327,443.339 945.386,442.541 955.028,443.061C953.571,441.501 951.872,440.321 949.93,439.454C951.386,438.587 951.907,436.992 950.138,436.055C947.085,432.934 943.131,430.887 939.178,429.118C939.837,428.91 941.19,428.39 941.848,428.148L941.813,427.593C939.005,427.211 934.391,428.39 933.073,425.338C948.715,425.373 964.67,427.177 979.098,433.662C984.996,436.437 989.682,441.431 995.914,443.581C1004.03,445.073 1012.29,443.478 1020.33,442.229C1023.69,441.57 1027.2,441.119 1030.15,439.246C1026.69,437.408 1023.32,435.431 1019.82,433.697C1009.27,428.529 997.173,427.419 985.616,428.287C978.201,428.494 971.295,425.408 964.636,422.598C936.021,409.21 903.766,402.239 872.239,406.817M1108.19,461.756C1104.61,464.184 1107.02,469.663 1110.27,471.086C1113.56,470.15 1115.43,466.75 1118.07,464.67C1121.03,461.444 1125.78,459.016 1126.23,454.195C1119.59,454.508 1113.49,458.01 1108.19,461.756M935.119,461.062C935.051,465.675 939.906,467.618 943.409,464.981C944.519,462.658 945.247,460.16 943.375,457.976C940.599,458.253 934.911,456.727 935.119,461.062M750.256,490.335C743.181,493.423 736.071,497.793 732.672,505.075C729.585,509.897 731.041,515.862 729.203,521.1C742.453,518.116 748.834,505.249 756.777,495.641C759.343,491.861 764.338,489.745 765.586,485.236C760.176,485.861 755.113,487.977 750.256,490.335M1052.9,556.789C1051.73,563.725 1052.49,570.801 1052.9,577.738C1053.63,582.42 1053.66,587.622 1056.75,591.542C1061.75,587.449 1063.03,580.686 1064.73,574.79C1065.98,567.853 1066.81,560.812 1066.5,553.771C1061.85,553.425 1056.79,554.119 1052.9,556.789M1112.9,569.068C1115.54,582.906 1111.51,596.919 1112.76,610.791C1116.27,609.265 1117.58,605.277 1119.25,602.154C1123.07,593.172 1126.47,583.495 1125.7,573.61C1121.4,572.188 1117.21,570.454 1112.9,569.068M861.209,616.202C859.682,617.208 857.464,617.659 856.839,619.601C861.694,617.208 866.724,614.884 870.886,611.345C867.312,612.144 864.435,614.607 861.209,616.202M511.183,676.482C506.049,687.13 500.5,697.605 495.089,708.113C493.008,711.409 493.008,716.437 489.228,718.38L490.128,725.802C492.8,722.437 494.153,718.345 495.852,714.426C498.384,708.321 501.505,702.495 504.489,696.598C505.771,694.309 506.743,691.674 509.101,690.216C507.089,707.975 495.471,723.826 497.621,742.138C498.315,752.821 505.251,762.219 504.662,773.111C503.969,786.394 498.557,799.089 499.217,812.441C499.599,817.367 502.754,821.32 505.355,825.275C508.927,830.373 512.049,835.818 514.339,841.646C517.564,849.553 518.466,858.536 523.911,865.438C526.824,863.808 525.646,859.854 526.548,857.184C528.906,859.334 529.772,862.559 531.368,865.264C534.628,871.611 538.408,878.029 539.172,885.277L540.663,885.243C542.085,874.04 540.004,862.837 540.178,851.634C548.952,859.75 557.103,869.565 559.878,881.497C560.502,883.404 560.502,885.693 561.889,887.323C564.595,881.565 565.844,875.011 564.457,868.733C561.959,854.097 547.808,845.252 544.616,830.859C540.906,818.859 544.408,806.511 544.548,794.336C545.762,781.053 552.733,768.844 552.906,755.422C547.913,763.607 540.004,769.295 533.415,776.059C534.872,767.873 538.2,760.138 543.195,753.515C546.629,748.138 552.109,744.15 554.536,738.15C551.831,739.502 549.126,741.341 545.97,740.682C544.028,736.796 550.097,733.814 548.155,729.756C546.317,725.177 547.531,720.218 547.114,715.467C541.565,725.559 531.819,734.126 520.512,736.658C524.189,731.942 528.975,728.056 531.506,722.507C533.345,718.415 536.502,714.703 537.091,710.125C531.819,718.691 524.674,726.15 516.905,732.461C518.466,727.155 521.726,722.645 524.397,717.894C527.518,711.859 530.016,705.477 531.091,698.748C529.356,700.171 528.732,702.39 527.83,704.367C524.361,712.691 518.396,719.559 512.881,726.565C514.131,720.113 516.211,713.801 516.523,707.211C517.079,699.2 515.726,691.049 517.667,683.142C518.015,677.662 519.991,671.245 516.42,666.424C514.026,669.407 512.813,673.048 511.183,676.482M994.568,670.066C996.83,672.772 999.149,676.412 1003.02,676.69C1002.96,677.488 1002.78,679.118 1002.72,679.95C1001.57,680.852 1000.39,681.719 999.216,682.586L998.548,680.262C996.925,681.442 992.698,681.58 994.043,684.564C995.293,687.824 999.769,685.812 999.912,682.899C1001.23,682.552 1002.51,682.1 1003.8,681.65C1006.56,685.395 1009.38,691.742 1015.04,690.529L1012.64,692.575C1013.95,694.414 1015.13,696.424 1016.73,698.091C1018.74,700.171 1022.35,699.755 1023.83,702.495C1020.99,703.883 1017.98,704.784 1015.13,706.067C1014.48,707.836 1016.24,709.292 1017.74,709.778C1022.24,712.033 1027.27,708.946 1030.39,705.755C1033.69,702.044 1030.22,697.257 1028.27,693.858C1023.32,685.569 1019.65,674.47 1009.34,671.662C1008.21,669.407 1006.54,666.979 1003.66,667.463C1000.67,667.603 995.952,666.632 994.568,670.066M988.46,672.39C989.605,675.338 991.266,678.078 993.041,680.714L996.925,678.32C994.463,676.066 992.211,671.349 988.46,672.39M1001.12,685.812C999.941,687.13 998.281,688.1 997.756,689.87C998.624,691.5 999.836,692.991 1001.27,694.274C1003.2,695.94 1005.21,693.581 1006.98,692.853C1006.47,689.454 1004.42,686.782 1001.12,685.812M1009.72,691.466L1011.25,694.448C1009.13,695.87 1007.02,697.257 1004.84,698.575C1005.59,703.118 1009.2,700.726 1011.53,699.13L1008.47,703.049C1011.18,705.269 1013.71,703.778 1015.9,701.836C1014.3,699.789 1012.71,697.743 1011.59,695.454C1011.14,693.997 1011.46,692.09 1009.72,691.466M893.533,696.182C891.939,703.362 891.28,710.958 887.291,717.373C893.361,714.079 897.661,708.426 903.419,704.68C907.894,702.424 904.876,697.049 905.465,693.2C901.337,692.783 896.759,693.477 893.533,696.182M1035.56,706.726C1031.34,711.305 1026.86,715.709 1022.21,719.837C1025.05,723.409 1028.63,726.669 1033.06,728.091C1036.18,728.958 1038.92,726.704 1040.24,723.999C1043.89,717.027 1046.38,709.327 1047.1,701.488C1047.04,699.235 1047.81,696.321 1045.86,694.657C1041.87,698.159 1039.16,702.841 1035.56,706.726M1080.65,719.975C1076.28,722.368 1072.3,726.392 1066.94,725.767C1065.95,727.78 1064.8,729.86 1065.22,732.184L1069.62,732.426C1070.29,731.207 1071.29,730.198 1072.5,729.513C1074.03,730.207 1075.21,731.456 1076.52,732.566C1084.12,733.467 1089.56,726.842 1093.38,721.155C1096.95,714.981 1101.25,708.633 1101.7,701.315C1094.66,707.454 1088.87,715.223 1080.65,719.975M673.536,735.132C674.749,739.953 678.877,743.352 683.178,745.432C679.12,731.421 681.201,716.785 683.073,702.633C676.242,711.581 670.865,723.618 673.536,735.132M1002.13,709.778C1002.82,712.865 1004.48,715.848 1007.16,717.617C1010.59,720.218 1014.03,724.38 1018.87,722.437C1015.24,716.159 1008.27,713.039 1002.13,709.778M1044.51,726.392C1046.8,728.89 1050.4,730.692 1053.88,729.583C1053.63,726.704 1053.95,723.721 1052.73,721.086C1048.71,720.113 1045.62,722.645 1044.51,726.392M999.187,725.143C999.456,725.993 999.708,726.848 999.941,727.709C1005.98,733.64 1013.26,739.224 1021.96,740.022C1028.44,740.682 1035.25,741.41 1041.66,740.23C1027.61,734.854 1013.2,730.588 999.187,725.143M1056.92,730.866C1058.58,731.108 1060.25,732.358 1061.99,731.733C1063.86,730.276 1063.49,727.78 1063.62,725.698C1060.02,723.79 1054.26,726.461 1056.92,730.866M794.028,763.399C801.588,753.236 807.588,741.549 808.594,728.716C798.362,737.074 796.35,751.156 794.028,763.399M798.327,797.076C800.512,793.574 801.45,789.482 803.148,785.77C808.976,771.307 816.537,757.572 825.901,745.156C811.438,758.751 801.414,777.341 798.327,797.076M692.543,747.583C693.306,751.26 695.49,754.381 697.016,757.745C702.252,768.505 706.243,779.828 708.913,791.493C709.711,795.412 711.445,800.025 715.815,800.996C714.705,787.782 712.833,774.151 706.208,762.462C702.487,756.796 697.872,751.771 692.543,747.583M568.896,753.584C568.653,760.832 567.266,768.081 564.317,774.706C563.312,777.55 561.3,780.082 561.3,783.204C563.381,781.781 565.253,780.047 567.751,779.354C567.855,781.747 566.746,783.932 565.601,785.978C562.237,791.666 560.121,797.978 557.763,804.153C556.825,807.343 555.403,810.707 556.237,814.071C559.253,807.621 563.139,800.788 569.347,797.042C567.092,804.464 565.358,812.06 563.277,819.552C561.855,825.205 561.335,831.24 562.721,836.998C565.913,834.224 566.919,829.783 569.451,826.454C570.317,840.119 566.849,854.236 571.289,867.519C573.786,875.081 576.249,883.508 572.849,891.208C577.289,887.565 580.931,881.601 578.954,875.705C576.526,866.548 575.867,856.559 579.232,847.611C580.307,846.05 580.342,842.928 582.803,842.928C584.296,854.721 587.52,866.653 594.458,876.433C602.921,888.33 613.915,898.04 624.632,907.786C633.026,915.174 634.482,927.21 635.072,937.788C635.592,949.512 630.597,960.507 624.46,970.148C634.343,960.402 641.315,946.459 639.858,932.239C638.713,921.661 636.112,911.047 630.494,901.96C623.627,887.323 618.563,871.369 619.013,855.033C615.303,858.744 616.135,865.543 612.458,868.872C605.036,855.692 601.88,839.842 605.903,825.032C599.521,827.633 593.695,833.182 592.862,840.327L591.994,839.356C588.214,828.258 591.648,816.569 594.597,805.748C589.88,812.441 585.614,819.795 579.474,825.205C582.7,813.967 588.006,803.354 590.122,791.77C590.677,788.06 591.579,784.106 590.296,780.43C587.312,789.204 582.526,797.596 575.936,804.118C575.764,798.048 576.387,791.562 573.682,785.944C573.301,775.157 574.792,763.191 568.896,753.584M164.485,773.804C159.56,780.601 155.675,788.06 152.312,795.724C148.947,803.354 143.293,809.667 139.617,817.158C144.264,815.493 147.49,811.401 150.645,807.795C154.808,802.071 159.594,796.557 161.918,789.724C164.658,781.747 168.092,774.047 170.728,766.069C167.676,767.665 166.531,771.204 164.485,773.804M676.865,767.699C675.132,775.018 674.438,782.579 674.681,790.14C674.958,793.158 675.791,796.348 677.906,798.672C681.86,798.256 680.75,792.359 681.964,789.585C688.208,796.487 690.948,806.372 698.924,811.713C699.098,808.141 699.48,804.603 700.208,801.1C707.942,810.083 715.294,819.863 719.7,831.032C720.394,832.454 720.809,834.153 722.232,835.055C719.63,825.76 716.301,816.569 711.029,808.452C708.463,804.603 706.416,800.094 702.392,797.528C690.912,790.591 684.046,778.521 676.865,767.699M724.313,784.314C722.683,791.146 721.989,798.846 717.307,804.361C722.405,811.366 725.839,819.517 726.602,828.223C727.747,832.87 726.983,838.454 730.279,842.235C728.51,831.032 729.62,819.552 728.613,808.28C727.781,800.268 728.405,791.528 724.313,784.314M144.681,823.194C139.478,825.239 132.263,822.95 128.691,828.361C133.373,829.783 138.577,827.529 143.432,827.668C141.629,829.957 140.033,832.42 138.75,835.055C135.593,841.368 131.397,847.472 130.529,854.652C130.079,860.305 126.437,864.918 123.767,869.67C114.991,883.855 110.378,901.266 113.326,917.88C117.523,914.099 120.194,909.036 123.871,904.804C129.732,897.244 137.223,891.035 142.912,883.335L136.287,884.305L135.733,886.006C136.391,886.179 137.709,886.526 138.333,886.734C137.467,886.595 135.697,886.387 134.795,886.283C137.259,879.798 140.588,873.623 145.027,868.317C151.444,861.415 159.768,856.663 166.775,850.42C163.652,848.756 161.364,850.94 159.629,853.264C160.288,848.998 162.924,845.496 164.346,841.506C166.531,834.604 172.254,829.714 174.786,822.986C168.162,826.766 160.322,827.979 154.184,832.628C148.912,836.477 143.709,840.466 138.853,844.801C142.357,834.119 150.75,826.281 156.474,816.881C152.275,818.442 148.67,821.182 144.681,823.194M187.619,839.495C180.405,842.2 172.74,844.42 166.948,849.83C168.3,851.947 168.439,854.652 166.982,856.732C161.19,867.589 151.791,875.636 142.947,883.889C145.444,884.479 146.484,886.075 146.103,888.676C149.086,886.873 151.582,884.271 154.947,883.161C151.27,892.629 145.027,900.884 140.761,910.11C143.535,909.382 146.312,908.168 149.259,908.376C142.287,915.972 134.727,923.221 129.767,932.412C131.605,931.857 132.611,930.088 134.033,928.943C137.951,925.163 143.328,923.603 147.768,920.551C151.895,918.019 153.456,913.093 156.369,909.416C160.218,904.284 163.202,898.492 167.503,893.705C168.855,892.144 170.312,890.618 170.866,888.572C166.566,889.994 162.612,892.248 158.277,893.602C159.317,890.063 162.89,888.467 165.318,885.971C170.763,880.56 177.283,876.467 183.075,871.473C188.104,866.965 193.55,862.837 199.585,859.715L199.861,858.362C186.197,860.097 172.462,866.445 163.722,877.369C162.577,879.555 159.005,878.687 160.08,875.947C164.172,870.502 169.271,865.889 173.815,860.825C180.855,852.397 192.405,848.305 197.261,837.934C193.966,837.865 190.671,838.212 187.619,839.495M138.853,939.453C135.039,947.361 129.559,954.956 128.831,963.975C135.211,958.737 143.328,956.587 150.265,952.286C162.682,944.448 174.89,935.014 181.688,921.626L141.455,948.54C148.67,939.592 155.78,930.297 159.664,919.337L158.034,918.573C149.398,922.943 143.086,930.852 138.853,939.453M268.986,942.436C266.94,950.135 265.171,958.112 266.386,966.159C267.981,978.645 272.42,990.611 277.727,1001.96C279.981,1005.73 281.82,1010.38 285.843,1012.6C286.953,1005.45 285.323,998.313 285.877,991.132C289.554,995.397 292.225,1000.46 296.109,1004.55C303.394,1012.49 312.029,1019.54 321.948,1023.87C320.11,1020.51 317.544,1017.67 315.254,1014.64C307.208,1003.65 300.237,991.86 294.132,979.686C292.779,977.466 291.947,974.623 289.727,973.201C286.362,974.623 285.705,978.923 283.311,981.421C278.732,970.806 273.288,960.367 271.102,948.887C270.443,946.736 270.478,944.17 268.986,942.436M152.346,956.136L136.669,975.247C133.061,979.477 129.038,983.848 127.547,989.294C130.253,988.357 132.923,987.351 135.663,986.553C137.814,982.911 140.9,979.998 143.848,976.981C150.577,970.461 155.64,962.482 161.814,955.477C164.797,951.558 168.924,948.575 171.283,944.17C164.346,946.909 157.097,950.135 152.346,956.136M138.022,986.345C130.045,999.668 122.76,1014.68 123.385,1030.58C126.02,1026.62 127.65,1022.11 130.287,1018.15C133.201,1013.75 136.773,1009.82 139.581,1005.35C145.618,995.984 149.952,985.443 157.687,977.293C150.716,978.993 143.848,982.079 138.022,986.345M142.045,1014.34C141.143,1023.04 142.253,1031.83 142.495,1040.57C142.322,1049.46 146.9,1057.38 150.022,1065.42C152.52,1071.6 153.629,1078.19 155.745,1084.47C159.456,1081.38 158.692,1075.01 163.236,1072.63C167.64,1088.01 171.594,1106.21 186.163,1115.19C183.734,1108.67 181.861,1101.94 178.533,1095.81C173.26,1085.78 170.104,1074.89 167.676,1063.87C165.422,1066.15 164.207,1069.59 161.017,1070.81C159.248,1059.33 159.837,1047.73 159.422,1036.19C156.611,1036.66 153.907,1037.49 151.132,1038.19C148.357,1024.36 153.421,1010.6 155.19,996.957C150.854,1002.71 144.23,1007.19 142.045,1014.34M86.516,1026.39C84.678,1032.34 84.331,1038.65 82.493,1044.59C79.198,1055.86 73.822,1066.33 69.973,1077.39L72.297,1076.63C77.151,1067.18 84.817,1059.45 88.701,1049.55C92.169,1041.48 90.99,1032.51 92.968,1024.11C94.147,1017.84 96.922,1011.7 96.262,1005.17C92.204,1011.84 88.598,1018.84 86.516,1026.39M96.436,1084.3C91.199,1087.01 85.475,1088.76 80.343,1091.79C81.383,1087.47 85.129,1084.47 87.799,1081.07C96.436,1071.97 105.627,1060.85 104.691,1047.46C97.233,1057.41 89.048,1068.2 76.875,1072.33C74.135,1073.06 73.718,1076.29 73.441,1078.61C74.863,1080.16 77.36,1081.56 76.978,1084.09C76.632,1088.81 74.515,1093.2 73.093,1097.68C78.089,1095.81 82.562,1092.76 87.73,1091.41C86.759,1101.14 77.255,1107.05 75.279,1116.48C79.059,1113.38 83.117,1110.47 88.007,1109.51C82.805,1122.16 75.417,1134.16 73.544,1147.96C72.4,1157.87 66.85,1166.36 64.284,1175.79C67.128,1173.66 69.417,1171.01 72.157,1168.78C70.701,1179.54 66.4,1189.68 65.117,1200.48C68.135,1199.41 68.897,1195.6 71.151,1193.47C76.215,1185.14 78.4,1175.37 83.568,1167.09C87.557,1159.72 93.349,1153.56 97.719,1146.52C90.297,1149.7 84.365,1155.21 78.123,1160.18C81.73,1148.01 91.995,1139.44 99.418,1129.56C97.059,1130.49 94.667,1131.38 92.204,1131.94C87.418,1132.99 83.881,1136.84 79.128,1137.88C81.799,1126.51 91.303,1118.56 98.343,1109.76C102.297,1105.28 102.089,1098.89 104.482,1093.66C109.199,1082.84 115.616,1072.95 121.963,1063.1C126.853,1055.46 129.524,1046.48 129.837,1037.43C118.182,1052.63 111.593,1071.9 96.436,1084.3M568.41,1040.38L568.305,1041.6C560.087,1048.97 553.6,1058.08 546.559,1066.54C538.687,1077.74 529.946,1088.24 522.212,1099.52C523.114,1092.76 525.819,1086.38 526.685,1079.58C527.9,1071.46 530.016,1063.56 531.992,1055.61C524.639,1064.89 519.402,1076.29 509.899,1083.73C509.726,1076.29 511.494,1068.92 511.633,1061.51L509.934,1062.37C503.032,1071.54 498.211,1082.04 491.932,1091.64C485.724,1103.19 477.54,1113.45 469.111,1123.38C482.186,1114.37 489.817,1098.72 504.315,1091.59C510.245,1089.77 515.587,1086.52 519.126,1081.35C517.113,1105.35 519.888,1129.45 525.16,1152.87C527.726,1162.37 531.334,1171.81 537.23,1179.73C528.906,1155.91 528.906,1129.47 536.398,1105.44C543.646,1082.08 555.959,1060.61 569.867,1040.63L568.41,1040.38M494.43,1155.74C490.996,1151.83 493.736,1146.32 493.77,1141.73C488.326,1149.05 485.378,1158.24 485.343,1167.39C487.146,1165.97 488.811,1164.16 491.274,1164.03C491.759,1170.76 489.956,1177.35 490.06,1184.04C492.245,1181.62 494.291,1179.05 496.233,1176.41C499.113,1177.76 498.072,1181.52 498.349,1184.08C498.003,1196.74 496.165,1209.3 495.366,1221.9C494.916,1228.22 497.275,1234.2 498.973,1240.15C500.395,1244.46 501.401,1248.96 503.483,1253.03C501.505,1245.61 503.205,1236.87 508.789,1231.48C514.235,1236.08 518.952,1242.52 518.292,1250.02C517.667,1256.98 516.731,1264.03 518.224,1270.99C521.795,1266.14 525.541,1260.59 524.882,1254.24C525.61,1245.18 519.437,1237.8 518.05,1229.2C517.356,1222.62 518.361,1216.02 519.021,1209.51C512.673,1213.84 507.887,1219.98 502.303,1225.18C502.511,1207.23 502.996,1189.28 503.933,1171.35C506.083,1158.59 508.13,1145.71 512.084,1133.4C504.419,1139.3 500.361,1148.35 494.43,1155.74M970.116,1147.38C963.456,1162.26 962.97,1179.15 964.532,1195.13C966.751,1211.31 971.573,1228.06 982.352,1240.58C970.462,1207.32 966.578,1169.92 977.991,1135.96C974.278,1138.86 972.093,1143.18 970.116,1147.38M72.573,1193.51C64.318,1201.04 60.92,1212.59 60.296,1223.47C65.603,1213.63 70.839,1203.64 78.157,1195.08C82.111,1189.81 87.557,1185.67 90.921,1179.94C84.192,1183.57 78.192,1188.41 72.573,1193.51M58.457,1248.44C56.411,1250.91 53.74,1253.38 53.254,1256.69C57.728,1253.44 63.14,1251.37 66.781,1246.98C70.458,1242.83 74.343,1238.84 78.089,1234.74C70.527,1237.63 64.249,1242.89 58.457,1248.44M58.215,1262.18C51.104,1277.07 42.608,1291.46 39,1307.72C41.081,1306.96 41.809,1304.73 42.988,1303.12C47.67,1295.38 52.804,1287.82 59.116,1281.33C64.007,1276.38 69.902,1272.63 75.487,1268.54C66.122,1270.47 58.804,1277.59 51.832,1283.72C55.752,1274.63 61.718,1266.69 66.781,1258.26C67.683,1256.45 69.279,1254.66 68.932,1252.51C64.63,1254.72 60.434,1257.82 58.215,1262.18M524.847,1261.9C527.414,1264.92 531.298,1266.28 534.038,1269.13C542.085,1277.52 545.9,1288.76 550.999,1298.95C549.057,1292.05 546.906,1285.21 544.132,1278.59C541.183,1270.68 536.606,1262.94 537.23,1254.21C533.83,1257.85 529.599,1260.48 524.847,1261.9M42.017,1331.87C42.051,1322.88 46.665,1314.66 47.566,1305.79C43.925,1307.06 41.706,1310.63 39.936,1313.88C36.121,1326.04 35.705,1339.01 36.571,1351.63C37.959,1349.44 38.272,1346.82 39.311,1344.48C45.659,1329.1 56.966,1316.43 69.174,1305.4C71.811,1302.87 75.14,1301.04 77.395,1298.05C61.024,1303.12 50.341,1317.74 42.017,1331.87M1019.46,1317.95C1018.95,1326.38 1018.5,1334.91 1016.04,1343.07C1013.92,1351.39 1009.45,1358.88 1006.54,1366.86C1016.86,1355.63 1025.53,1341.58 1026.23,1325.93C1026.09,1323.55 1026.72,1320.72 1025.12,1318.74C1023.9,1316.46 1021.33,1317.74 1019.46,1317.95M1059.57,1348.62C1062.37,1357.6 1064.07,1367.32 1061.44,1376.58C1059.98,1382.39 1056.3,1387.21 1053.59,1392.46C1066.57,1385.77 1073.33,1368.93 1068.76,1354.99C1067.09,1351.29 1064.41,1346.58 1059.57,1348.62M1125.43,1352.95C1125.23,1356.17 1125.85,1359.37 1126.71,1362.45C1130.28,1375.77 1127.54,1390.06 1121.69,1402.28C1128.48,1396.76 1131.87,1387.98 1133.68,1379.59C1135.04,1370.67 1135.93,1360.76 1131.42,1352.54C1130.15,1350.01 1127.06,1351.88 1125.43,1352.95M1095.39,1359.54C1101.56,1373.93 1096.37,1390.56 1086.61,1401.96C1101.56,1394.46 1110.34,1374.38 1102.95,1358.74C1101.53,1355.06 1096.95,1357.12 1095.39,1359.54M743.111,1384.83C740.024,1386.14 740.198,1390.35 741.342,1392.93C744.221,1396.06 748.696,1396.92 752.407,1398.77C755.944,1400.05 758.65,1402.89 762.291,1404.01C761.633,1402.2 760.939,1400.46 760.245,1398.73C762.708,1399.39 763.956,1401.71 765.517,1403.52C771.829,1410.98 775.54,1420.35 777.725,1429.82C780.743,1426.4 780.015,1421.44 779.113,1417.36C776.061,1404.73 767.078,1394.26 756.534,1387.14C752.65,1384.58 747.586,1382.39 743.111,1384.83M789.206,1391.76C803.426,1395.92 810.883,1409.77 817.473,1421.87C815.393,1406.92 808.663,1389.96 793.645,1384.07C788.824,1381.88 788.859,1388.74 789.206,1391.76M698.23,1403.59C701.526,1407.31 705.132,1410.85 709.365,1413.47C709.676,1411.63 710.023,1409.83 710.439,1408.06C712.243,1407.19 713.006,1409.35 713.977,1410.42C719.353,1417.85 722.024,1426.73 724.139,1435.54C724.313,1436.88 725.007,1437.88 726.186,1438.63C728.267,1423.15 721.399,1407.64 710.474,1396.92C707.561,1394.3 704.093,1391.01 699.826,1392.32C695.595,1394.21 695.49,1400.37 698.23,1403.59M657.894,1403.23C656.818,1408.06 661.397,1411.12 664.761,1413.52C667.016,1414.83 668.715,1417.36 671.489,1417.61L672.045,1413.19C680.265,1420.13 681.166,1431.72 685.779,1440.74C688.623,1425.23 680.23,1410.21 669.825,1399.46C666.114,1395.34 658.311,1397.6 657.894,1403.23M147.213,1408.47C151.236,1411.88 154.773,1415.88 159.214,1418.71C159.214,1417.61 159.143,1415.38 159.109,1414.27C170.937,1422.36 174.127,1437.99 175.341,1451.48C179.503,1440.94 178.533,1428.24 171.768,1418.98C166.601,1411.78 159.872,1404.69 151.062,1402.44C147.802,1400.98 143.709,1406.23 147.213,1408.47M124.287,1413.59C134.31,1419.62 138.853,1431.06 140.831,1442.09C141.177,1442.26 141.871,1442.58 142.218,1442.74C142.634,1438.13 143.051,1433.47 142.357,1428.9C140.691,1419.74 134.588,1411.26 125.986,1407.61C121.513,1406.05 120.367,1412.15 124.287,1413.59M184.325,1411.61C189.804,1414.47 195.631,1417.08 200.07,1421.53C204.163,1425.64 207.32,1430.64 209.782,1435.91C210.788,1437.55 211.065,1439.84 212.904,1440.88C212.868,1436.82 212.972,1432.68 211.516,1428.88C208.464,1418.22 198.163,1410.63 187.376,1409.6C185.885,1409.53 184.879,1410.21 184.325,1411.61Z" style="fill-rule:nonzero;"/>
    </g>
</svg>
