<?xml version="1.0" encoding="utf-8"?>
<svg xmlns="http://www.w3.org/2000/svg" viewBox="0.1797 334.6656 129.5188 124.6664" width="150pt" height="150pt">
  <path fill="#000000" d="M 81.449219 338.164062 C 81.675781 335.859375 84.265625 334.15625 86.472656 334.804688 C 88.121094 335.265625 89.394531 336.542969 90.355469 337.910156 C 90.613281 338.238281 90.820312 338.640625 91.1875 338.847656 C 91.773438 338.867188 92.332031 338.664062 92.898438 338.5625 C 95.191406 338.148438 97.578125 338.417969 99.761719 339.210938 C 101.507812 339.613281 103.289062 339.839844 105.078125 339.941406 C 106.523438 340.160156 107.851562 340.804688 109.183594 341.378906 C 109.839844 341.617188 110.554688 341.609375 111.230469 341.785156 C 112.308594 342.003906 113.320312 342.472656 114.257812 343.035156 C 115.46875 343.777344 116.949219 343.554688 118.285156 343.839844 C 119.078125 343.957031 119.867188 344.265625 120.675781 344.117188 C 122.195312 343.933594 123.726562 343.792969 125.257812 343.769531 C 126.410156 343.785156 127.71875 343.953125 128.527344 344.871094 C 129.328125 345.816406 129.863281 347.09375 129.652344 348.34375 C 129.488281 348.851562 128.933594 348.984375 128.566406 349.273438 C 128.617188 350.164062 128.90625 351.046875 128.785156 351.953125 C 128.578125 353.652344 128.351562 355.46875 127.277344 356.863281 C 126.835938 357.53125 126.164062 357.96875 125.589844 358.5 C 125.425781 359.660156 125.28125 360.851562 124.757812 361.921875 C 124.472656 362.550781 124.167969 363.21875 123.605469 363.648438 C 123.378906 363.804688 123.128906 363.605469 123.0625 363.382812 C 122.835938 362.191406 123.289062 360.988281 123.121094 359.796875 C 122.824219 359.628906 122.558594 360.007812 122.394531 360.207031 C 120.777344 362.457031 119.417969 364.90625 118.445312 367.507812 C 117.980469 368.863281 117.5625 370.324219 117.886719 371.757812 C 118.195312 372.867188 119.050781 373.707031 119.449219 374.78125 C 120.503906 374.332031 121.203125 373.382812 122.011719 372.613281 C 122.179688 372.417969 122.523438 372.300781 122.648438 372.613281 C 122.777344 373.03125 122.636719 373.492188 122.519531 373.90625 C 122.074219 374.984375 121.515625 376.0625 120.644531 376.859375 C 120.859375 377.320312 121.230469 377.734375 121.277344 378.261719 C 121.261719 378.796875 120.90625 379.21875 120.640625 379.652344 C 120.15625 380.457031 119.683594 381.328125 118.867188 381.839844 C 118.066406 382.328125 117.148438 382.566406 116.300781 382.953125 C 116.398438 382.628906 116.546875 382.320312 116.683594 382.011719 C 115.757812 382.117188 114.796875 382.066406 113.929688 381.710938 C 112.941406 381.335938 112.183594 380.566406 111.214844 380.160156 C 110.339844 380.527344 109.621094 381.183594 108.933594 381.824219 C 108.21875 382.496094 107.808594 383.566406 108.15625 384.523438 C 108.691406 386.058594 109.191406 387.613281 109.972656 389.046875 C 109.667969 388.980469 109.386719 388.851562 109.132812 388.679688 C 109.0625 389.125 109.359375 389.507812 109.320312 389.9375 C 109.148438 390.035156 108.882812 390.203125 109.042969 390.4375 C 109.355469 391 109.53125 391.625 109.644531 392.257812 C 109.105469 391.917969 108.773438 391.320312 108.21875 390.980469 C 108.398438 391.792969 108.699219 392.578125 108.921875 393.382812 C 109.890625 396.671875 110.582031 400.042969 110.90625 403.460938 C 111 404.625 111.417969 405.722656 111.789062 406.820312 C 112.664062 409.3125 114.148438 411.515625 115.425781 413.808594 C 117.128906 416.890625 118.375 420.210938 119.367188 423.589844 C 120.074219 426.070312 120.511719 428.621094 120.867188 431.171875 C 121.171875 433.042969 121.394531 434.984375 122.273438 436.691406 C 123.234375 438.125 124.003906 439.679688 124.660156 441.273438 C 125.433594 443.140625 126.214844 445.023438 126.585938 447.019531 C 126.882812 448.574219 126.484375 450.207031 125.667969 451.539062 C 125.132812 452.371094 124.363281 453.1875 123.332031 453.300781 C 122.746094 453.375 122.222656 452.929688 122.0625 452.386719 C 122.578125 452.53125 123.234375 452.707031 123.652344 452.246094 C 124.078125 451.746094 124.429688 451.125 124.484375 450.464844 C 123.957031 450.425781 123.414062 450.375 122.898438 450.503906 C 122.277344 451.308594 121.5 451.992188 120.671875 452.574219 C 119.964844 453.085938 119.058594 453.160156 118.226562 452.996094 C 118.910156 452.453125 119.714844 451.90625 119.917969 450.992188 C 120.117188 450.332031 120 449.347656 119.25 449.113281 C 118.542969 450.078125 118.015625 451.339844 116.84375 451.867188 C 116.007812 452.367188 114.757812 452.117188 114.339844 451.195312 C 115.410156 451.214844 116.296875 450.347656 116.480469 449.320312 C 116.804688 447.625 115.425781 445.875 113.726562 445.742188 C 113.390625 446.21875 113.226562 446.804688 112.914062 447.300781 C 112.46875 448.035156 111.882812 448.6875 111.207031 449.214844 C 110.710938 449.609375 109.996094 449.71875 109.441406 449.375 C 110.320312 448.464844 111.195312 447.378906 111.265625 446.054688 C 111.390625 444.851562 110.804688 443.707031 109.972656 442.878906 C 108.859375 441.769531 109.011719 440.023438 109.433594 438.644531 C 108.898438 439.53125 108.253906 440.488281 107.265625 440.878906 C 107.691406 439.949219 107.957031 438.78125 107.394531 437.851562 C 107.277344 437.96875 107.164062 438.097656 107.011719 438.167969 C 106.664062 437.207031 106.371094 436.195312 105.734375 435.375 C 105.488281 436.339844 105.453125 437.394531 105 438.28125 C 104.699219 437.0625 104.339844 435.835938 103.734375 434.730469 C 103.460938 434.207031 102.820312 434.175781 102.359375 433.90625 C 101.988281 433.71875 101.785156 433.339844 101.488281 433.070312 C 101.386719 433.570312 101.308594 434.144531 100.90625 434.496094 C 100.71875 433.335938 100.472656 432.070312 99.550781 431.25 C 99.253906 432.089844 98.90625 432.976562 98.234375 433.585938 C 98.292969 432.449219 98.304688 431.210938 97.648438 430.226562 C 97.242188 429.570312 96.621094 429.097656 96.042969 428.609375 C 95.980469 428.941406 95.933594 429.277344 95.882812 429.617188 C 95.277344 428.464844 94.699219 427.292969 93.953125 426.222656 C 93.804688 426.335938 93.660156 426.457031 93.523438 426.585938 C 93.289062 426.15625 93.167969 425.679688 92.984375 425.234375 C 92.636719 424.285156 92.179688 423.34375 92.132812 422.316406 C 92.089844 421.824219 92.160156 421.324219 92.0625 420.839844 C 91.871094 421.332031 91.738281 421.851562 91.539062 422.339844 C 91.460938 421.644531 91.519531 420.929688 91.367188 420.242188 C 91.195312 419.171875 90.695312 418.199219 90.257812 417.222656 C 90.164062 417.121094 90.191406 416.878906 90.03125 416.863281 C 89.589844 417.265625 89.148438 417.660156 88.671875 418.015625 C 88.75 417.230469 88.886719 416.386719 88.511719 415.652344 C 88.265625 415.199219 87.929688 414.757812 87.460938 414.527344 C 87.273438 415.765625 86.972656 416.980469 86.730469 418.210938 C 86.726562 418.347656 86.667969 418.4375 86.550781 418.488281 C 86.433594 417.449219 86.171875 416.417969 85.671875 415.496094 C 84.894531 414.027344 84.050781 412.558594 83.734375 410.90625 C 83.25 410.949219 82.734375 411.015625 82.355469 411.355469 C 81.765625 411.886719 81.375 412.609375 80.800781 413.15625 C 80.84375 412.710938 80.90625 412.269531 80.941406 411.828125 C 80.46875 412.019531 79.820312 412.011719 79.566406 412.539062 C 79 413.574219 78.378906 414.582031 77.71875 415.558594 C 77.433594 415.945312 77.160156 416.359375 76.753906 416.628906 C 76.898438 415.945312 77.074219 415.265625 77.078125 414.5625 C 76.640625 414.933594 76.421875 415.53125 76.066406 415.992188 C 75.636719 415.667969 75.058594 415.871094 74.835938 416.335938 C 74.105469 417.683594 74.320312 419.28125 74.484375 420.742188 C 75.085938 424.648438 76.390625 428.503906 78.691406 431.746094 C 78.027344 431.359375 77.414062 430.90625 76.835938 430.398438 C 76.808594 431.046875 77.136719 431.628906 77.402344 432.199219 C 78.429688 434.246094 78.976562 436.496094 79.289062 438.753906 C 79.453125 440.066406 79.695312 441.398438 80.332031 442.574219 C 81 443.910156 82.09375 444.957031 83.25 445.867188 C 82.667969 445.910156 82.113281 445.691406 81.535156 445.707031 C 81.710938 446.5 82.410156 447.03125 83.058594 447.4375 C 84.785156 448.558594 87.011719 448.480469 88.699219 449.679688 C 90.039062 450.6875 90.769531 452.34375 90.960938 453.988281 C 91.019531 454.835938 90.808594 455.792969 90.136719 456.363281 C 89.886719 455.40625 89.679688 454.289062 88.78125 453.722656 C 88.117188 453.414062 87.382812 453.65625 86.6875 453.636719 C 86.734375 454.609375 86.582031 455.589844 86.324219 456.527344 C 86.179688 456.9375 86.070312 457.417969 85.6875 457.679688 C 85.597656 456.960938 85.363281 456.277344 85.15625 455.589844 C 84.917969 455.824219 84.652344 456.039062 84.335938 456.164062 C 83.066406 456.691406 81.671875 456.808594 80.3125 456.867188 C 80.066406 457.730469 79.863281 458.671875 79.253906 459.363281 C 78.871094 458.515625 78.898438 457.546875 78.699219 456.648438 C 77.945312 456.628906 77.160156 456.640625 76.457031 456.941406 C 75.738281 457.4375 75.457031 458.433594 74.632812 458.804688 C 74.710938 458.277344 74.835938 457.71875 74.589844 457.214844 C 74.011719 456.875 73.332031 457.042969 72.722656 457.199219 C 70.636719 457.742188 68.371094 458.160156 66.273438 457.472656 C 65.078125 457.132812 64.132812 456.136719 63.789062 454.949219 C 63.292969 453.277344 63.480469 451.503906 63.164062 449.804688 C 62.957031 448.613281 62.523438 447.476562 62.023438 446.382812 C 61.792969 445.984375 61.550781 445.472656 61.0625 445.367188 C 60.554688 445.519531 60.566406 446.195312 60.144531 446.472656 C 60.203125 445.15625 59.773438 443.8125 58.886719 442.835938 C 58.753906 443.378906 58.734375 443.964844 58.46875 444.46875 C 58.550781 442.945312 57.683594 441.644531 57.042969 440.339844 C 56.640625 440.804688 56.898438 441.640625 56.449219 442.09375 C 56.355469 440.851562 55.878906 439.570312 54.949219 438.722656 C 54.933594 439.042969 54.921875 439.359375 54.90625 439.679688 C 54.203125 438.679688 53.816406 437.488281 53.167969 436.453125 C 52.078125 438.429688 50.664062 440.199219 49.269531 441.960938 C 47.523438 444.109375 45.792969 446.269531 43.898438 448.285156 C 43.558594 448.621094 43.351562 449.179688 43.679688 449.597656 C 44.429688 450.640625 45.828125 450.917969 47.035156 450.820312 C 48.238281 450.679688 49.503906 450.480469 50.667969 450.917969 C 51.128906 451.070312 51.523438 451.363281 51.949219 451.589844 C 52.496094 451.769531 53.105469 451.695312 53.628906 451.964844 C 54.855469 452.484375 55.589844 453.804688 55.683594 455.097656 C 55.679688 455.339844 55.660156 455.636719 55.449219 455.792969 C 55.152344 455.203125 54.75 454.5625 54.078125 454.378906 C 54.238281 455.058594 54.523438 455.722656 54.480469 456.433594 C 53.976562 456.148438 53.566406 455.734375 53.058594 455.453125 C 53.085938 455.832031 53.117188 456.207031 53.125 456.589844 C 52.832031 456.597656 52.632812 456.355469 52.402344 456.21875 C 51.570312 455.609375 50.59375 455.0625 49.535156 455.109375 C 48.890625 455.335938 48.433594 455.933594 47.765625 456.125 C 46.40625 456.546875 44.960938 456.472656 43.558594 456.417969 C 41.507812 456.359375 39.457031 456.367188 37.40625 456.429688 C 35.878906 456.460938 34.351562 456.488281 32.832031 456.316406 C 31.691406 456.164062 30.457031 455.515625 30.167969 454.308594 C 29.902344 453.46875 30.324219 452.46875 29.722656 451.742188 C 28.726562 450.042969 28.734375 447.972656 28.898438 446.066406 C 29.09375 443.980469 29.835938 442.011719 30.429688 440.019531 C 30.921875 438.414062 31.25 436.769531 31.46875 435.105469 C 30.976562 435.355469 30.46875 435.578125 29.972656 435.820312 C 30.25 435.265625 30.40625 434.65625 30.457031 434.039062 C 30.394531 433.6875 30 433.597656 29.726562 433.464844 C 29.910156 432.957031 30.261719 432.515625 30.34375 431.96875 C 30.597656 430.839844 30.359375 429.65625 29.765625 428.671875 C 29.730469 428.675781 29.652344 428.683594 29.617188 428.683594 C 28.890625 430.191406 27.835938 431.503906 27.070312 432.988281 C 26.613281 433.652344 26.296875 434.425781 25.75 435.023438 C 25.800781 434.40625 25.878906 433.792969 25.882812 433.179688 C 24.964844 434.578125 23.652344 435.628906 22.359375 436.667969 C 21.945312 436.988281 21.523438 437.410156 21.515625 437.976562 C 21.410156 439.316406 21.59375 440.660156 21.785156 441.988281 C 21.214844 441.632812 20.722656 441.160156 20.214844 440.71875 C 19.519531 442.476562 18.722656 444.195312 17.75 445.816406 C 16.925781 447.203125 16.082031 448.617188 15.644531 450.1875 C 15.429688 450.859375 16.082031 451.347656 16.597656 451.625 C 18.042969 452.457031 19.910156 452.0625 21.265625 453.101562 C 22.5 453.945312 22.953125 455.597656 22.71875 457.023438 C 22.605469 457.496094 22.472656 458.050781 22.015625 458.304688 C 21.792969 457.441406 21.390625 456.613281 20.796875 455.945312 C 20.75 455.933594 20.65625 455.902344 20.609375 455.890625 C 20.742188 456.457031 20.769531 457.042969 20.722656 457.621094 C 20.742188 457.851562 20.609375 458.007812 20.414062 458.105469 C 20.15625 457.476562 19.890625 456.796875 19.355469 456.351562 C 19.175781 457.015625 18.8125 457.621094 18.367188 458.136719 C 18.097656 458.390625 17.832031 458.71875 17.441406 458.769531 C 17.378906 458.210938 17.144531 457.605469 16.609375 457.347656 C 16.125 457.101562 15.675781 456.792969 15.300781 456.402344 C 14.898438 457 14.535156 457.621094 14.21875 458.265625 C 14.011719 458.59375 13.835938 459.003906 13.453125 459.15625 C 13.449219 458.386719 12.773438 457.804688 12.027344 457.824219 C 10.234375 457.847656 8.457031 458.113281 6.6875 458.398438 C 5.539062 458.546875 4.308594 458.742188 3.214844 458.242188 C 1.964844 457.714844 1.21875 456.40625 0.996094 455.105469 C 0.800781 453.933594 1.214844 452.777344 1.210938 451.605469 C 1.382812 448.886719 0.714844 446.222656 0.617188 443.515625 C 0.65625 443.273438 0.421875 443.070312 0.179688 443.183594 C 0.230469 442.304688 0.894531 441.660156 1.335938 440.960938 C 0.976562 441.042969 0.652344 441.214844 0.316406 441.363281 C 0.761719 440.214844 1.367188 439.136719 1.753906 437.96875 C 2.382812 436.171875 2.703125 434.285156 3.023438 432.414062 C 2.746094 432.625 2.601562 432.945312 2.445312 433.253906 C 2.152344 431.632812 2.683594 429.992188 3.414062 428.5625 C 3.625 428.117188 3.90625 427.699219 4.035156 427.214844 C 3.433594 427.261719 2.824219 427.355469 2.226562 427.222656 C 3.089844 426.0625 3.820312 424.792969 4.257812 423.40625 C 4.503906 422.640625 4.796875 421.871094 4.796875 421.058594 C 4.558594 420.910156 4.234375 420.574219 4.492188 420.296875 C 5.078125 419.625 5.65625 418.945312 6.15625 418.199219 C 5.71875 418.5 5.347656 418.972656 4.78125 418.992188 C 4.136719 419.058594 3.308594 418.984375 2.945312 418.367188 C 3.847656 418.378906 4.667969 417.878906 5.335938 417.308594 C 5.777344 416.945312 5.976562 416.304688 5.777344 415.757812 C 5.902344 415.65625 6.148438 415.449219 6.273438 415.34375 L 5.925781 415.429688 C 5.976562 414.601562 5.332031 413.976562 4.753906 413.480469 C 5.441406 413.210938 6.121094 412.734375 6.363281 412.003906 C 6.574219 410.964844 6.339844 409.875 6.589844 408.84375 C 6.164062 409.183594 5.707031 409.472656 5.214844 409.714844 C 5.460938 409.019531 5.96875 408.445312 6.179688 407.730469 C 6.597656 406.773438 6.386719 405.703125 6.671875 404.71875 C 6.761719 404.355469 6.953125 404.019531 7.007812 403.648438 C 6.910156 403.636719 6.714844 403.617188 6.621094 403.609375 C 6.871094 402.964844 7.328125 402.40625 7.449219 401.714844 C 7.621094 400.929688 7.515625 400.109375 7.738281 399.335938 C 7.355469 399.335938 6.984375 399.417969 6.617188 399.503906 C 7.808594 398.140625 8.925781 396.636719 9.46875 394.882812 C 9.695312 394.222656 9.832031 393.515625 10.242188 392.9375 C 10.453125 392.609375 10.730469 392.332031 10.964844 392.023438 C 10.453125 392.125 9.929688 392.128906 9.40625 392.089844 C 9.863281 391.601562 10.402344 391.160156 10.675781 390.53125 C 11.058594 389.675781 11.53125 388.800781 11.5 387.835938 C 10.808594 388.175781 10.109375 388.5 9.363281 388.707031 C 10.136719 387.808594 11.058594 387.035156 11.820312 386.121094 C 13.132812 384.539062 14.324219 382.855469 15.753906 381.375 C 16.257812 380.816406 16.886719 380.324219 17.125 379.582031 C 17.292969 379.0625 17.707031 378.703125 18.03125 378.285156 C 17.800781 378.316406 17.570312 378.335938 17.339844 378.347656 C 17.621094 377.398438 18.695312 377.097656 19.234375 376.347656 C 18.816406 376.320312 18.390625 376.347656 17.996094 376.496094 C 19.167969 375.242188 20.875 374.734375 22.347656 373.941406 L 22.441406 373.796875 C 22.074219 373.800781 21.707031 373.8125 21.339844 373.792969 C 22.144531 372.886719 23.292969 372.433594 24.347656 371.902344 C 23.769531 371.472656 22.992188 371.4375 22.300781 371.550781 C 22.523438 371.371094 22.792969 371.292969 23.066406 371.234375 C 24.511719 370.875 25.921875 370.394531 27.300781 369.828125 C 31.289062 368.199219 35.472656 367 39.765625 366.554688 C 40.992188 366.515625 42.121094 365.984375 43.269531 365.617188 C 46.449219 364.558594 49.574219 363.207031 52.277344 361.195312 C 53.175781 360.519531 54 359.742188 54.703125 358.859375 C 55.351562 358.03125 55.824219 357.0625 56.582031 356.316406 C 57.289062 355.59375 58.253906 355.238281 59.121094 354.757812 C 62.046875 353.167969 64.851562 351.304688 67.292969 349.023438 C 67.894531 348.464844 68.417969 347.832031 69.007812 347.265625 C 69.878906 346.488281 70.953125 345.949219 72.085938 345.667969 C 72.609375 345.53125 73.152344 345.390625 73.613281 345.089844 C 74.992188 344.160156 76.507812 343.417969 78.109375 342.953125 C 79.039062 342.679688 79.964844 342.335938 80.933594 342.207031 C 81.386719 342.402344 81.671875 342.847656 82.035156 343.171875 C 81.492188 343.734375 80.761719 344.078125 80.097656 344.472656 C 77.207031 346.1875 74.859375 348.757812 73.265625 351.710938 C 72.78125 352.59375 72.414062 353.539062 72.1875 354.519531 C 71.855469 353.550781 72.167969 352.503906 72.234375 351.507812 C 71.328125 351.390625 70.824219 352.277344 70.351562 352.859375 C 70.667969 351.792969 71.304688 350.851562 71.835938 349.886719 C 71.738281 349.910156 71.542969 349.957031 71.445312 349.980469 C 71.820312 348.777344 72.429688 347.578125 73.445312 346.792969 C 73.550781 346.710938 73.632812 346.605469 73.691406 346.480469 C 71.578125 347.429688 69.820312 348.976562 67.972656 350.34375 C 65.84375 351.992188 63.707031 353.628906 61.625 355.339844 C 59.289062 357.332031 56.84375 359.398438 55.527344 362.25 C 55.023438 363.203125 55.09375 364.332031 54.644531 365.300781 C 54.324219 366.042969 53.699219 366.582031 53.09375 367.085938 C 52.261719 367.804688 51.320312 368.386719 50.355469 368.914062 C 50.960938 368.167969 51.667969 367.445312 51.960938 366.5 C 51.136719 366.769531 50.480469 367.378906 49.730469 367.792969 C 48.867188 368.273438 48.066406 368.863281 47.164062 369.265625 C 47.53125 368.5625 48.007812 367.910156 48.328125 367.1875 C 47.699219 367.292969 47.082031 367.488281 46.4375 367.527344 C 46.609375 367.1875 46.945312 366.980469 47.207031 366.71875 C 48.070312 365.960938 48.769531 365.015625 49.273438 363.980469 C 47.757812 364.660156 46.320312 365.5 44.828125 366.222656 C 43.078125 366.910156 41.222656 367.253906 39.410156 367.726562 C 37.507812 368.21875 35.570312 368.613281 33.730469 369.324219 C 33.09375 369.59375 32.425781 369.863281 31.894531 370.324219 C 31.679688 370.488281 31.777344 370.777344 31.75 371.011719 C 31.175781 370.871094 30.570312 371.09375 30.09375 371.417969 C 29.976562 371.648438 30.324219 371.71875 30.460938 371.820312 C 30.78125 372 31.238281 371.875 31.480469 372.175781 C 29.617188 372.878906 28.234375 374.371094 27.011719 375.886719 C 26.523438 376.550781 25.992188 377.214844 25.726562 378.007812 C 26.296875 377.890625 26.714844 377.410156 27.304688 377.339844 C 26.613281 378.316406 25.632812 379.082031 25.082031 380.164062 C 25.84375 379.496094 26.621094 378.652344 27.726562 378.675781 C 26.945312 379.734375 26.035156 380.742188 25.53125 381.972656 C 26.082031 381.644531 26.515625 381.113281 27.148438 380.929688 C 26.839844 382.238281 26.535156 383.5625 26.519531 384.917969 C 26.519531 386.613281 26.867188 388.289062 26.839844 389.984375 C 26.859375 392.128906 26.753906 394.335938 25.9375 396.34375 C 26.394531 396.195312 26.742188 395.859375 27.125 395.589844 C 26.71875 396.902344 26.164062 398.164062 25.792969 399.488281 C 26.199219 399.402344 26.40625 398.976562 26.679688 398.703125 C 27.832031 397.382812 28.304688 395.503906 29.792969 394.480469 C 29.433594 395.925781 28.882812 397.378906 28.929688 398.890625 C 29.21875 398.46875 29.464844 398.019531 29.785156 397.621094 C 29.964844 398.550781 29.71875 399.515625 29.890625 400.449219 C 30.085938 401.167969 30.667969 401.839844 31.449219 401.886719 C 31.382812 400.507812 31.132812 399.136719 31.164062 397.753906 C 31.191406 396.9375 31.183594 396.078125 31.535156 395.324219 C 31.683594 394.96875 32.066406 394.753906 32.125 394.355469 C 32.386719 393.070312 32.804688 391.695312 33.851562 390.832031 C 33.929688 390.792969 34.085938 390.71875 34.164062 390.679688 C 33.789062 392.050781 33.164062 393.355469 32.914062 394.761719 C 32.917969 395.289062 33.015625 395.859375 32.699219 396.328125 C 32.328125 396.894531 32.457031 397.59375 32.480469 398.230469 C 32.542969 398.996094 32.488281 399.765625 32.613281 400.527344 C 32.910156 400.605469 32.96875 400.234375 33.097656 400.058594 C 33.410156 398.675781 33.53125 397.253906 33.820312 395.867188 C 33.878906 395.660156 33.9375 395.375 34.199219 395.367188 C 34.535156 396.71875 34.460938 398.128906 34.316406 399.5 C 34.214844 399.832031 34.285156 400.296875 33.976562 400.515625 C 33.828125 400.128906 33.722656 399.726562 33.574219 399.339844 C 32.902344 400.472656 33.007812 401.863281 32.984375 403.128906 C 33.023438 403.515625 32.921875 404.015625 33.261719 404.289062 C 33.457031 403.914062 33.554688 403.4375 33.933594 403.199219 C 33.96875 404.34375 34.011719 405.570312 34.652344 406.5625 C 34.957031 407.050781 35.335938 407.542969 35.890625 407.761719 C 35.425781 406.1875 35.199219 404.5625 34.875 402.957031 C 34.707031 401.585938 34.867188 400.203125 35.058594 398.84375 C 35.234375 397.695312 35.238281 396.511719 35.5625 395.386719 C 35.664062 395.011719 35.832031 394.652344 35.886719 394.265625 C 35.886719 393.886719 35.757812 393.527344 35.632812 393.175781 C 35.242188 392.953125 35.203125 392.441406 35.203125 392.039062 C 35.214844 390.691406 35.972656 389.519531 36.300781 388.242188 C 36.035156 388.417969 35.808594 388.652344 35.546875 388.835938 C 36.027344 387.78125 36.855469 386.910156 37.714844 386.144531 C 38.085938 385.839844 38.464844 385.515625 38.925781 385.347656 C 37.726562 387.453125 36.71875 389.757812 36.578125 392.21875 C 36.4375 393.929688 36.976562 395.585938 37.191406 397.261719 C 37.257812 396.679688 37.078125 396.109375 37.058594 395.53125 C 36.929688 393.351562 37.3125 391.066406 38.5625 389.238281 C 40.164062 386.789062 42.753906 385.261719 45.292969 383.953125 C 45.933594 383.65625 46.550781 383.273438 47.25 383.136719 C 46.574219 384.21875 45.65625 385.144531 45.105469 386.304688 C 44.648438 387.226562 44.386719 388.25 44.40625 389.28125 C 44.65625 389.105469 44.945312 388.972656 45.257812 389.050781 C 45.105469 389.480469 44.886719 389.886719 44.800781 390.335938 C 45.160156 390.195312 45.511719 390.015625 45.90625 390.03125 C 45.875 390.492188 45.417969 390.765625 45.226562 391.160156 C 45.011719 391.605469 44.601562 391.984375 44.535156 392.484375 C 44.957031 392.125 45.429688 391.828125 45.980469 391.722656 C 45.546875 392.542969 44.78125 393.269531 44.691406 394.246094 C 45.089844 393.621094 45.703125 392.976562 46.496094 392.980469 C 46.097656 393.71875 45.570312 394.476562 45.628906 395.355469 C 45.882812 395.257812 46.144531 395.191406 46.421875 395.21875 C 45.695312 396.191406 45.023438 397.289062 44.996094 398.546875 C 45.355469 398.164062 45.65625 397.570312 46.246094 397.558594 C 45.699219 398.566406 45.183594 399.605469 44.988281 400.746094 C 45.242188 400.480469 45.574219 400.328125 45.941406 400.292969 C 45.582031 401.300781 45.082031 402.261719 44.847656 403.316406 C 45.160156 402.96875 45.429688 402.527344 45.9375 402.457031 C 45.640625 403.886719 45.9375 405.371094 45.613281 406.800781 C 46.003906 406.519531 46.175781 406.042969 46.484375 405.6875 C 46.742188 406.222656 46.707031 406.832031 46.808594 407.40625 C 46.914062 408.359375 47.035156 409.363281 46.695312 410.285156 C 46.929688 410.113281 47.125 409.894531 47.304688 409.667969 C 47.730469 410.289062 47.363281 411.105469 47.398438 411.804688 C 47.734375 411.503906 48.09375 411.230469 48.464844 410.96875 C 48.628906 411.882812 48.046875 412.691406 48.023438 413.589844 C 48.128906 413.523438 48.335938 413.386719 48.441406 413.316406 C 48.65625 413.761719 48.53125 414.253906 48.585938 414.726562 C 48.800781 414.632812 49.015625 414.542969 49.25 414.507812 C 49.179688 415.210938 48.925781 415.90625 49.074219 416.621094 C 49.167969 416.636719 49.351562 416.671875 49.441406 416.6875 C 49.265625 417.421875 48.898438 418.226562 49.25 418.972656 C 49.140625 420.402344 48.761719 421.8125 48.871094 423.253906 C 48.953125 425.480469 49.703125 427.617188 50.675781 429.597656 C 51.496094 431.257812 52.449219 432.933594 52.640625 434.8125 C 52.84375 432.199219 51.347656 429.898438 50.550781 427.503906 C 49.515625 424.742188 49.445312 421.691406 50.003906 418.820312 C 50.316406 416.980469 50.195312 415.09375 50.542969 413.261719 C 50.945312 411.078125 51.378906 408.886719 52.105469 406.78125 C 52.136719 406.621094 52.257812 406.445312 52.167969 406.289062 C 51.675781 407.453125 50.910156 408.46875 50.402344 409.621094 C 50.507812 408.269531 51.007812 406.992188 51.3125 405.679688 C 51.769531 403.808594 52.359375 401.929688 52.355469 399.992188 C 52.003906 400.53125 51.691406 401.15625 51.167969 401.546875 C 51.316406 400.746094 51.613281 399.976562 51.664062 399.164062 C 51.675781 398.800781 51.765625 398.386719 51.53125 398.074219 C 51.324219 398.421875 51.105469 398.765625 50.949219 399.140625 C 50.617188 399.949219 50.136719 400.695312 49.875 401.535156 C 50.140625 401.535156 50.40625 401.53125 50.675781 401.53125 C 50.324219 402.820312 49.5625 404.019531 49.558594 405.398438 C 49.988281 405.050781 50.21875 404.511719 50.691406 404.203125 C 49.96875 405.992188 49.710938 407.917969 49.699219 409.839844 C 48.527344 407.902344 48.09375 405.554688 48.277344 403.3125 C 48.40625 401.890625 49.507812 400.816406 49.878906 399.488281 C 49.257812 400.085938 48.605469 400.65625 48.050781 401.320312 C 47.851562 401.550781 47.671875 401.8125 47.40625 401.976562 C 47.554688 400.273438 47.921875 398.570312 48.6875 397.03125 C 49.351562 395.519531 50.316406 394.167969 51.09375 392.71875 C 50.027344 393.660156 49.089844 394.742188 48.007812 395.664062 C 49.21875 393.476562 50.695312 391.457031 52.042969 389.355469 C 51.347656 389.902344 50.722656 390.539062 50.019531 391.078125 C 49.566406 391.429688 49.207031 391.914062 48.675781 392.160156 C 49.511719 390.414062 50.726562 388.859375 51.386719 387.027344 C 51.34375 387.035156 51.257812 387.050781 51.21875 387.058594 C 50.578125 387.796875 49.914062 388.585938 49.046875 389.042969 C 49.734375 387.890625 50.574219 386.839844 51.335938 385.734375 C 51.84375 384.964844 52.210938 384.082031 52.304688 383.15625 C 52.328125 382.914062 52.3125 382.636719 52.144531 382.445312 C 51.722656 383.789062 50.945312 384.976562 50.066406 386.058594 C 49.410156 386.785156 48.800781 387.566406 48.042969 388.1875 C 48.363281 386.511719 49.480469 385.132812 49.964844 383.515625 C 49.367188 384.492188 48.746094 385.574219 47.71875 386.140625 C 48.65625 384.585938 49.714844 383.042969 50.179688 381.261719 C 49.417969 382.101562 48.835938 383.171875 47.867188 383.8125 C 48.394531 382.769531 48.859375 381.679688 49.121094 380.539062 C 48.785156 380.753906 48.484375 381.019531 48.148438 381.234375 C 48.394531 380.824219 48.878906 380.636719 49.152344 380.242188 C 49.351562 379.875 49.464844 379.464844 49.558594 379.054688 C 49.050781 379.105469 48.660156 379.535156 48.136719 379.546875 C 48.128906 379.328125 48.171875 379.117188 48.277344 378.925781 C 48.835938 377.734375 49.332031 376.515625 49.914062 375.335938 C 50.605469 373.894531 51.359375 372.488281 51.976562 371.011719 C 52.125 370.667969 52.25 370.300781 52.515625 370.023438 C 52.597656 371.300781 52.378906 372.585938 52.089844 373.824219 C 52.671875 373.117188 52.847656 372.117188 53.523438 371.480469 C 53.5625 372.632812 53.144531 373.746094 53.210938 374.902344 L 53.328125 374.835938 C 53.660156 372.3125 53.804688 369.699219 54.84375 367.335938 C 55.492188 365.859375 55.675781 364.183594 56.59375 362.828125 C 56.835938 362.5 56.996094 362.03125 57.421875 361.90625 C 57.308594 362.925781 56.746094 364.160156 57.464844 365.058594 C 57.691406 364.828125 57.9375 364.625 58.214844 364.464844 C 58.160156 365.726562 58.3125 367.015625 58.792969 368.191406 C 59.265625 369.230469 60.082031 370.046875 60.820312 370.894531 C 61.890625 372.027344 63.101562 373.097656 64.546875 373.714844 C 64.042969 372.863281 63.492188 372.035156 63.167969 371.089844 C 62.648438 369.96875 62.574219 368.703125 62.664062 367.488281 C 62.691406 367.117188 62.851562 366.769531 63.066406 366.472656 C 63.867188 365.304688 65.023438 364.40625 65.699219 363.144531 C 66.042969 362.652344 66.234375 362.03125 66.722656 361.65625 C 66.398438 362.53125 66.105469 363.417969 65.769531 364.289062 C 65.722656 364.269531 65.628906 364.226562 65.582031 364.203125 C 64.941406 365.195312 64.558594 366.339844 64.253906 367.480469 C 64.230469 367.800781 64.257812 368.125 64.265625 368.449219 C 64.835938 367.679688 65.230469 366.78125 65.609375 365.902344 C 65.539062 366.699219 65.359375 367.480469 65.195312 368.261719 C 64.78125 370.699219 64.875 373.242188 65.558594 375.625 C 65.808594 376.277344 66.039062 377.007812 66.578125 377.488281 C 66.425781 376.671875 66.136719 375.800781 66.527344 375.003906 C 66.554688 375.003906 66.609375 375.003906 66.640625 375 C 67.050781 376.238281 67.792969 377.320312 68.265625 378.53125 C 68.304688 378.582031 68.386719 378.683594 68.425781 378.738281 C 68.582031 378.480469 68.574219 378.082031 68.871094 377.941406 C 69.097656 378.453125 69.574219 378.773438 69.929688 379.183594 C 70.539062 379.847656 71.207031 380.601562 71.234375 381.554688 C 71.539062 381.285156 71.761719 380.9375 72.019531 380.625 C 72.386719 381.238281 72.589844 382.0625 73.375 382.277344 C 73.34375 382.046875 73.40625 381.78125 73.234375 381.59375 C 72.246094 380.472656 71.164062 379.328125 70.746094 377.855469 C 70.523438 376.847656 70.636719 375.808594 70.828125 374.808594 C 70.277344 375.433594 69.71875 376.109375 69.523438 376.9375 C 69.285156 376.777344 69.285156 376.46875 69.222656 376.21875 C 68.972656 375.109375 69.058594 373.9375 69.433594 372.863281 C 69.609375 372.175781 70.0625 371.539062 70.027344 370.816406 C 69.140625 371.128906 68.570312 371.898438 67.945312 372.550781 C 68.070312 371.925781 68.046875 371.269531 68.261719 370.660156 C 68.707031 369.285156 69.410156 368.007812 70.113281 366.75 C 70.253906 366.484375 70.40625 366.21875 70.410156 365.910156 C 69.460938 366.21875 68.4375 366.117188 67.453125 366.097656 C 67.675781 365.832031 68.039062 365.765625 68.328125 365.589844 C 69.15625 365.160156 69.558594 364.269531 70.089844 363.546875 C 70.589844 362.78125 71.1875 362.046875 71.472656 361.164062 C 70.773438 361.765625 70.078125 362.421875 69.214844 362.785156 C 69.980469 361.648438 70.515625 360.371094 71.289062 359.234375 C 71.847656 358.40625 72.035156 357.410156 72.4375 356.515625 C 72.773438 356.710938 72.824219 357.136719 72.867188 357.488281 C 72.953125 359.132812 72.335938 360.683594 71.953125 362.253906 C 71.96875 362.316406 72 362.445312 72.011719 362.507812 C 72.070312 362.402344 72.183594 362.195312 72.242188 362.09375 C 71.953125 363.695312 71.476562 365.269531 71.0625 366.847656 C 71.683594 366.308594 72.296875 365.683594 73.082031 365.402344 C 72.597656 366.269531 72.007812 367.105469 71.773438 368.089844 C 72.214844 367.902344 72.640625 367.6875 73.074219 367.480469 C 72.839844 369.410156 71.867188 371.128906 70.859375 372.746094 C 71.351562 372.546875 71.65625 372.0625 72.015625 371.6875 C 72.648438 370.988281 73.085938 370.140625 73.648438 369.394531 C 73.183594 371.101562 72.601562 372.84375 72.796875 374.636719 C 72.898438 375.21875 72.996094 375.851562 73.398438 376.3125 C 73.140625 373.996094 73.804688 371.679688 74.878906 369.644531 C 75.042969 369.394531 75.222656 368.964844 75.589844 369.054688 C 76.425781 369.761719 76.191406 370.957031 76.570312 371.882812 C 76.707031 372.324219 77 372.714844 77.421875 372.90625 C 77.417969 371.789062 77.6875 370.707031 77.789062 369.601562 C 77.546875 369.714844 77.285156 369.714844 77.027344 369.695312 C 76.71875 368.304688 77.101562 366.921875 77.425781 365.582031 C 76.382812 366.183594 75.632812 367.332031 75.367188 368.511719 C 75.082031 368.488281 75.074219 368.1875 75.042969 367.96875 C 75.046875 367.238281 75.21875 366.527344 75.324219 365.808594 C 74.75 365.902344 74.386719 366.386719 73.917969 366.683594 C 74.222656 365.617188 74.925781 364.734375 75.679688 363.949219 C 76.078125 363.367188 76.515625 362.8125 76.914062 362.230469 C 76.261719 362.4375 75.816406 362.96875 75.304688 363.382812 C 75.625 361.972656 76.492188 360.792969 77.199219 359.5625 C 77.382812 359.214844 77.589844 358.859375 77.636719 358.460938 C 76.855469 358.988281 76.085938 359.570312 75.203125 359.921875 C 75.890625 358.5625 77.019531 357.429688 77.457031 355.945312 C 76.738281 355.988281 76.097656 356.375 75.421875 356.585938 C 76.511719 354.609375 78.164062 353 79.960938 351.675781 C 78.183594 352.421875 76.414062 353.191406 74.613281 353.882812 C 74.769531 353.597656 75.101562 353.492188 75.355469 353.3125 C 76.039062 352.867188 76.742188 352.449219 77.441406 352.027344 C 76.710938 352.21875 76.003906 352.496094 75.273438 352.691406 C 76.667969 351.546875 78.296875 350.734375 79.671875 349.5625 C 79.976562 349.285156 80.417969 349.128906 80.621094 348.761719 C 80.0625 348.804688 79.492188 348.738281 78.945312 348.882812 C 78.945312 348.847656 78.941406 348.769531 78.941406 348.730469 C 79.949219 348.253906 81.035156 347.847656 81.863281 347.078125 C 80.929688 347.199219 79.984375 347.3125 79.058594 347.480469 C 80.085938 346.792969 81.21875 346.257812 82.183594 345.464844 C 81.59375 345.132812 80.921875 345.019531 80.300781 344.757812 C 81.140625 344.339844 82.03125 344.023438 82.835938 343.53125 C 81.828125 342.5625 80.816406 341.492188 80.472656 340.089844 C 80.402344 339.855469 80.402344 339.589844 80.246094 339.394531 C 80.308594 339.222656 80.378906 339.042969 80.394531 338.847656 C 80.703125 339.289062 80.960938 339.804688 81.421875 340.117188 C 81.273438 339.625 81.003906 339.183594 80.886719 338.679688 C 80.757812 338.152344 80.796875 337.601562 80.84375 337.066406 C 81.234375 337.296875 81.128906 337.875 81.449219 338.164062 M 96.40625 339.851562 C 95.367188 340.027344 94.332031 340.257812 93.285156 340.394531 C 93.371094 340.75 93.011719 340.875 92.769531 341.015625 C 91.726562 341.550781 90.546875 341.78125 89.542969 342.40625 C 89.160156 342.640625 88.839844 342.984375 88.410156 343.136719 L 88.425781 343.261719 C 88.664062 343.273438 88.902344 343.292969 89.144531 343.3125 C 88.527344 343.941406 87.550781 344.054688 86.785156 344.453125 C 87.359375 344.554688 87.949219 344.492188 88.53125 344.550781 C 87.648438 345.277344 86.59375 345.75 85.652344 346.390625 C 84.464844 347.121094 83.511719 348.210938 82.199219 348.738281 C 83.160156 348.789062 84.058594 348.375 84.949219 348.066406 C 86.070312 347.5625 87.074219 346.828125 88.097656 346.152344 C 88.277344 346.054688 88.453125 345.875 88.675781 345.9375 C 87.875 346.78125 86.949219 347.496094 86.0625 348.246094 C 85.144531 348.953125 84.402344 349.855469 83.671875 350.75 L 83.660156 350.921875 C 84.117188 350.773438 84.582031 350.675781 85.058594 350.605469 C 84.574219 351.207031 84.007812 351.742188 83.570312 352.386719 C 83.203125 352.917969 82.710938 353.441406 82.671875 354.121094 C 83.097656 353.945312 83.542969 353.816406 84.007812 353.824219 C 82.816406 355.261719 81.582031 356.691406 80.648438 358.324219 C 80.601562 358.378906 80.503906 358.484375 80.453125 358.535156 C 80.398438 357.203125 81.207031 356.046875 81.453125 354.773438 C 81.132812 354.957031 80.855469 355.25 80.480469 355.296875 C 80.847656 354.660156 81.308594 354.078125 81.578125 353.386719 C 81.742188 352.925781 82.109375 352.585938 82.320312 352.15625 C 81.589844 352.5625 80.675781 352.992188 80.492188 353.898438 C 80.199219 355.113281 79.539062 356.203125 79.238281 357.417969 C 79.527344 357.191406 79.792969 356.898438 80.175781 356.835938 C 80.023438 358.519531 79.652344 360.171875 79.152344 361.785156 C 78.851562 362.738281 78.398438 363.644531 78.257812 364.644531 C 78.78125 364.277344 79.09375 363.5625 79.789062 363.488281 C 79.671875 364.46875 79.210938 365.398438 79.074219 366.386719 C 79.464844 365.945312 79.679688 365.289062 80.296875 365.109375 C 80.007812 366.574219 79.582031 368.027344 79.589844 369.53125 C 79.800781 370.414062 79.960938 371.3125 80.039062 372.21875 C 80.433594 371.378906 80.640625 370.199219 81.667969 369.886719 C 82.234375 370.535156 81.929688 371.507812 81.914062 372.292969 C 82.132812 372.144531 82.226562 371.898438 82.308594 371.65625 C 82.773438 372.046875 82.25 372.769531 82.351562 373.277344 C 82.636719 373.101562 82.855469 372.839844 83.113281 372.628906 C 83.773438 373.660156 84.039062 374.890625 84.363281 376.058594 L 84.488281 376.136719 C 84.589844 375.898438 84.765625 375.65625 85.023438 375.578125 C 85.292969 375.789062 85.179688 376.199219 85.269531 376.5 C 85.53125 377.886719 85.332031 379.3125 84.792969 380.605469 C 84.828125 380.589844 84.902344 380.566406 84.933594 380.550781 C 85.359375 379.808594 85.851562 379.101562 86.175781 378.300781 C 86.808594 376.890625 86.96875 375.335938 87.363281 373.851562 C 86.886719 374.535156 86.453125 375.269531 86.203125 376.070312 C 85.9375 375.640625 86.09375 375.082031 86.160156 374.613281 C 86.363281 373.40625 87.085938 372.398438 87.550781 371.292969 C 86.773438 371.929688 86.164062 372.75 85.46875 373.472656 C 85.167969 373.726562 85.351562 374.375 84.933594 374.453125 C 84.757812 373.496094 84.785156 372.488281 85.179688 371.589844 C 85.398438 370.914062 85.867188 370.359375 86.132812 369.714844 C 85.449219 370.355469 84.863281 371.089844 84.304688 371.839844 C 84.152344 372.160156 83.898438 371.824219 83.949219 371.613281 C 83.925781 370.945312 84.28125 370.328125 84.28125 369.667969 C 83.765625 369.996094 83.386719 370.480469 83.019531 370.957031 C 82.980469 369.449219 83.746094 368.054688 84.597656 366.863281 C 83.4375 367.527344 82.28125 368.25 81.402344 369.273438 C 81.632812 367.738281 82.394531 366.332031 83.253906 365.0625 C 83.808594 364.234375 84.84375 363.984375 85.777344 363.933594 C 85.636719 364.460938 85.089844 364.753906 84.988281 365.285156 C 86.273438 365.054688 87.578125 364.722656 88.886719 364.984375 C 88.535156 365.324219 88.109375 365.578125 87.722656 365.871094 C 87.988281 365.925781 88.566406 365.773438 88.511719 366.21875 C 88.238281 366.574219 87.902344 366.882812 87.609375 367.222656 C 87.292969 367.585938 86.808594 367.714844 86.488281 368.066406 C 87.496094 367.882812 88.445312 367.445312 89.46875 367.332031 C 90.027344 367.296875 89.730469 367.988281 89.714844 368.304688 C 90.617188 368.109375 91.425781 367.664062 92.226562 367.210938 L 92.25 367.25 C 91.683594 368.007812 91.242188 368.941406 91.3125 369.910156 C 92.058594 369.878906 92.667969 369.261719 93.445312 369.382812 C 93.464844 369.675781 93.324219 369.9375 93.230469 370.207031 C 94.019531 369.90625 94.863281 369.566406 95.726562 369.757812 C 95.484375 370.097656 95.097656 370.285156 94.835938 370.605469 C 95.515625 370.40625 96.171875 370.113281 96.882812 370.074219 C 97.113281 370.058594 97.277344 370.265625 97.242188 370.492188 C 97.144531 371.203125 96.761719 371.824219 96.363281 372.402344 C 96.980469 372.136719 97.574219 371.808594 98.136719 371.4375 C 98.191406 372.007812 98.003906 372.550781 97.707031 373.03125 C 98.050781 372.828125 98.339844 372.527344 98.738281 372.425781 C 99.058594 371.710938 99.5 371.0625 99.890625 370.390625 C 99.535156 370.488281 99.015625 370.679688 98.761719 370.304688 C 98.699219 369.890625 99.015625 369.550781 99.105469 369.160156 C 98.582031 369.097656 98.085938 369.375 97.578125 369.480469 C 97.394531 369.355469 97.207031 369.296875 97.066406 369.523438 C 97.101562 369.476562 97.175781 369.386719 97.210938 369.339844 C 97.421875 369.304688 97.628906 369.265625 97.839844 369.226562 L 97.65625 368.984375 C 97.15625 369.039062 96.671875 369.160156 96.179688 369.253906 C 96.210938 368.867188 96.695312 368.707031 96.710938 368.3125 C 95.859375 368.570312 94.972656 368.746094 94.082031 368.75 C 94.308594 368.421875 94.738281 368.316406 94.984375 368 C 94.113281 367.925781 93.238281 368.070312 92.40625 368.3125 C 92.4375 367.671875 92.941406 367.226562 93.378906 366.824219 C 93.382812 366.765625 93.390625 366.644531 93.394531 366.585938 C 92.898438 366.246094 92.242188 366.164062 91.65625 366.257812 C 91.277344 366.441406 90.988281 366.863281 90.53125 366.851562 C 90.667969 366.585938 90.945312 366.445312 91.082031 366.183594 C 90.699219 366.09375 90.3125 366.140625 89.933594 366.210938 C 90.355469 365.695312 91.03125 365.449219 91.667969 365.339844 C 91.59375 365.222656 91.492188 365.148438 91.363281 365.105469 C 90.488281 364.789062 89.730469 364.195312 88.8125 363.996094 C 88.414062 363.863281 87.929688 363.878906 87.628906 363.546875 C 88.539062 362.714844 89.789062 362.097656 91.046875 362.308594 C 90.757812 362.519531 90.328125 362.535156 90.128906 362.847656 C 90.898438 362.613281 91.699219 362.8125 92.484375 362.777344 C 92.246094 362.96875 91.914062 363.074219 91.777344 363.367188 C 92.335938 363.441406 92.867188 363.265625 93.390625 363.109375 C 93.796875 362.964844 94.226562 363.085938 94.640625 363.023438 C 95.671875 362.625 96.609375 362.035156 97.582031 361.519531 C 97.828125 361.980469 97.0625 361.742188 97.039062 362.082031 C 97.585938 362.015625 98.09375 361.769531 98.648438 361.738281 C 98.386719 362.1875 97.917969 362.460938 97.632812 362.890625 C 98.007812 362.753906 98.402344 362.636719 98.714844 362.378906 C 99.175781 361.996094 99.769531 361.785156 100.144531 361.296875 C 100.4375 360.902344 100.789062 360.5625 101.121094 360.199219 C 100.917969 360.246094 100.734375 360.339844 100.605469 360.503906 C 100.359375 360.621094 99.933594 360.621094 100.105469 361.003906 C 100.074219 360.957031 100.007812 360.859375 99.976562 360.808594 C 99.632812 361.023438 99.292969 361.246094 98.921875 361.417969 C 99.144531 361.234375 99.203125 360.972656 99.242188 360.699219 C 99.714844 360.222656 100.332031 359.917969 100.785156 359.417969 C 100.6875 359.46875 100.484375 359.574219 100.386719 359.628906 C 100.359375 359.582031 100.304688 359.492188 100.277344 359.445312 C 100.097656 359.527344 99.835938 359.464844 99.753906 359.683594 C 99.832031 359.6875 99.988281 359.6875 100.066406 359.691406 C 99.851562 360.199219 99.226562 360.3125 98.890625 360.722656 C 98.878906 360.632812 98.855469 360.460938 98.84375 360.375 C 98.78125 360.441406 98.652344 360.578125 98.589844 360.644531 C 98.695312 359.71875 99.949219 359.488281 100.253906 358.667969 L 100.398438 358.703125 C 100.804688 358.199219 101.234375 357.597656 101.917969 357.484375 C 101.867188 357.695312 101.648438 357.789062 101.511719 357.933594 C 101.054688 358.347656 100.652344 358.820312 100.179688 359.214844 C 100.84375 358.941406 101.316406 358.335938 101.828125 357.851562 C 102.269531 358.027344 102.410156 357.34375 102.84375 357.335938 C 102.503906 357.875 101.960938 358.25 101.605469 358.78125 C 101.507812 359.0625 101.226562 358.90625 101.085938 358.789062 C 101.082031 358.988281 101.078125 359.183594 101.074219 359.386719 C 101.363281 359.148438 101.6875 358.964844 102.007812 358.773438 C 101.980469 359.117188 101.671875 359.300781 101.4375 359.507812 C 101.972656 359.238281 102.492188 358.9375 103.011719 358.632812 C 102.863281 359.054688 102.710938 359.476562 102.503906 359.871094 C 102.441406 359.855469 102.316406 359.820312 102.257812 359.804688 C 101.796875 360.113281 101.449219 360.582031 100.949219 360.820312 C 100.539062 361.261719 99.984375 361.582031 99.667969 362.101562 C 99.753906 362.109375 99.933594 362.121094 100.019531 362.128906 C 100.160156 361.75 100.363281 362.117188 100.476562 362.246094 C 100.550781 362.191406 100.707031 362.078125 100.785156 362.023438 C 100.820312 362.242188 101.046875 362.285156 101.203125 362.382812 C 101.675781 361.902344 102.160156 361.433594 102.589844 360.914062 C 103.003906 360.46875 103.382812 359.941406 103.980469 359.734375 C 103.867188 360.289062 103.527344 360.75 103.277344 361.246094 C 102.832031 362.003906 102.476562 362.839844 101.832031 363.457031 C 101.03125 364.242188 100.191406 364.992188 99.324219 365.703125 C 99.15625 365.84375 98.96875 365.976562 98.882812 366.183594 C 99.460938 365.960938 100.074219 365.835938 100.644531 365.578125 C 101.289062 365.316406 101.921875 364.945312 102.640625 364.941406 C 102.226562 365.449219 101.722656 365.871094 101.300781 366.371094 C 102.21875 365.800781 103.089844 364.996094 104.230469 364.988281 C 103.921875 365.414062 103.53125 365.777344 103.230469 366.214844 C 103.648438 366.144531 104.035156 365.933594 104.472656 365.9375 C 103.914062 366.605469 103.058594 367.019531 102.640625 367.828125 C 103.242188 367.671875 103.859375 367.582031 104.480469 367.640625 C 104.527344 368.566406 103.464844 369.023438 102.742188 369.308594 C 103.015625 369.582031 103.46875 369.457031 103.816406 369.578125 C 103.199219 370.164062 102.308594 370.367188 101.699219 370.964844 C 102.671875 370.777344 103.746094 370.679688 104.679688 371.0625 C 104.691406 371.109375 104.710938 371.203125 104.71875 371.25 C 103.945312 371.761719 103.132812 372.273438 102.558594 373.023438 C 103.363281 372.394531 104.523438 371.957031 105.449219 372.605469 C 105.023438 373.257812 104.167969 373.484375 103.789062 374.179688 C 104.429688 373.839844 105.125 373.523438 105.867188 373.5625 C 106.167969 373.625 106.605469 373.601562 106.71875 373.964844 C 106.148438 374.222656 105.566406 374.550781 105.222656 375.09375 C 105.597656 374.894531 106.128906 374.761719 106.382812 375.21875 C 106.671875 376.027344 106.285156 376.871094 106.144531 377.671875 C 106.664062 377.234375 107.242188 376.710938 107.980469 376.789062 C 107.851562 377.066406 107.710938 377.332031 107.566406 377.597656 C 108.082031 377.402344 108.617188 377.261719 109.167969 377.25 C 109.378906 377.273438 109.734375 377.171875 109.835938 377.425781 C 109.625 377.460938 109.441406 377.539062 109.308594 377.703125 C 109.5 377.792969 109.710938 377.871094 109.863281 378.03125 C 110.015625 378.328125 109.929688 378.679688 109.964844 379 C 110.261719 378.863281 110.335938 378.433594 110.664062 378.367188 C 111.347656 378.648438 111.566406 379.457031 112.0625 379.941406 C 112.847656 380.441406 113.65625 380.925781 114.515625 381.285156 C 114.367188 381.058594 114.117188 380.9375 113.929688 380.75 C 113.675781 380.542969 113.773438 380.128906 113.480469 379.953125 C 112.863281 379.464844 112.375 378.835938 111.925781 378.199219 C 111.261719 377.230469 110.179688 376.601562 109.683594 375.511719 C 109.253906 374.574219 109.019531 373.5625 108.761719 372.5625 C 108.328125 370.710938 107.613281 368.914062 107.457031 367 C 107.257812 364.609375 107.421875 362.121094 108.359375 359.890625 C 108.789062 358.964844 109.363281 357.980469 110.367188 357.609375 C 113.019531 356.433594 115.820312 355.644531 118.605469 354.851562 C 119.871094 354.542969 121.105469 354.089844 122.398438 353.914062 C 123.136719 353.804688 123.886719 353.851562 124.632812 353.832031 C 124.058594 353.492188 123.394531 353.339844 122.734375 353.292969 C 122.039062 353.28125 121.378906 353.535156 120.707031 353.683594 C 121.167969 353.203125 121.597656 352.6875 122.089844 352.238281 C 121.941406 352.152344 121.792969 352.0625 121.65625 351.964844 L 121.914062 351.792969 C 121.429688 351.984375 121.058594 352.386719 120.5625 352.5625 C 120.585938 352.042969 121.027344 351.722656 121.335938 351.363281 L 121.203125 351.335938 C 121.027344 351.550781 120.753906 351.675781 120.480469 351.6875 C 120.757812 351.238281 121.25 350.957031 121.5 350.492188 C 121.078125 350.65625 120.679688 350.886719 120.230469 350.980469 C 120.550781 350.675781 120.929688 350.453125 121.265625 350.167969 C 121.269531 350.078125 121.269531 349.898438 121.273438 349.808594 C 121.125 349.898438 120.976562 349.984375 120.828125 350.074219 C 120.84375 349.800781 121.050781 349.632812 121.253906 349.488281 C 120.878906 348.371094 120.429688 347.128906 120.808594 345.957031 C 120.984375 345.300781 121.71875 345.085938 122.011719 344.527344 C 120.136719 344.78125 118.292969 344.167969 116.417969 344.308594 C 113.996094 344.398438 111.457031 344.667969 109.351562 345.980469 C 108.6875 346.328125 108.671875 347.179688 108.386719 347.792969 C 107.890625 347.59375 107.652344 347.078125 107.316406 346.699219 C 107.078125 347.105469 106.839844 347.535156 106.46875 347.832031 C 105.976562 348.046875 105.542969 347.640625 105.074219 347.566406 C 104.476562 347.585938 103.933594 347.902344 103.335938 347.894531 C 102.785156 347.933594 102.175781 347.75 101.867188 347.261719 C 101.621094 346.933594 101.789062 346.441406 101.601562 346.121094 C 101.308594 346.152344 101.121094 346.53125 100.800781 346.597656 C 101 345.660156 101.6875 344.878906 102.519531 344.445312 C 103.511719 343.964844 104.644531 343.875 105.730469 343.933594 C 105.566406 343.757812 105.375 343.625 105.15625 343.527344 C 105.320312 343.429688 105.378906 343.25 105.179688 343.144531 C 104.835938 342.792969 104.390625 342.5625 103.945312 342.363281 C 104.019531 342.339844 104.171875 342.28125 104.246094 342.253906 L 104.242188 342.191406 C 103.925781 342.148438 103.40625 342.28125 103.257812 341.9375 C 105.019531 341.941406 106.816406 342.144531 108.441406 342.875 C 109.105469 343.1875 109.632812 343.75 110.335938 343.992188 C 111.25 344.160156 112.179688 343.980469 113.085938 343.839844 C 113.464844 343.765625 113.859375 343.714844 114.191406 343.503906 C 113.800781 343.296875 113.421875 343.074219 113.027344 342.878906 C 111.839844 342.296875 110.476562 342.171875 109.175781 342.269531 C 108.339844 342.292969 107.5625 341.945312 106.8125 341.628906 C 103.589844 340.121094 99.957031 339.335938 96.40625 339.851562 M 122.980469 346.039062 C 122.578125 346.3125 122.847656 346.929688 123.214844 347.089844 C 123.585938 346.984375 123.796875 346.601562 124.09375 346.367188 C 124.425781 346.003906 124.960938 345.730469 125.011719 345.1875 C 124.265625 345.222656 123.578125 345.617188 122.980469 346.039062 M 103.488281 345.960938 C 103.480469 346.480469 104.027344 346.699219 104.421875 346.402344 C 104.546875 346.140625 104.628906 345.859375 104.417969 345.613281 C 104.105469 345.644531 103.464844 345.472656 103.488281 345.960938 M 82.667969 349.257812 C 81.871094 349.605469 81.070312 350.097656 80.6875 350.917969 C 80.339844 351.460938 80.503906 352.132812 80.296875 352.722656 C 81.789062 352.386719 82.507812 350.9375 83.402344 349.855469 C 83.691406 349.429688 84.253906 349.191406 84.394531 348.683594 C 83.785156 348.753906 83.214844 348.992188 82.667969 349.257812 M 116.753906 356.742188 C 116.621094 357.523438 116.707031 358.320312 116.753906 359.101562 C 116.835938 359.628906 116.839844 360.214844 117.1875 360.65625 C 117.75 360.195312 117.894531 359.433594 118.085938 358.769531 C 118.226562 357.988281 118.320312 357.195312 118.285156 356.402344 C 117.761719 356.363281 117.191406 356.441406 116.753906 356.742188 M 123.511719 358.125 C 123.808594 359.683594 123.355469 361.261719 123.496094 362.824219 C 123.890625 362.652344 124.039062 362.203125 124.226562 361.851562 C 124.65625 360.839844 125.039062 359.75 124.953125 358.636719 C 124.46875 358.476562 123.996094 358.28125 123.511719 358.125 M 95.164062 363.433594 C 94.992188 363.546875 94.742188 363.597656 94.671875 363.816406 C 95.21875 363.546875 95.785156 363.285156 96.253906 362.886719 C 95.851562 362.976562 95.527344 363.253906 95.164062 363.433594 M 55.742188 370.222656 C 55.164062 371.421875 54.539062 372.601562 53.929688 373.785156 C 53.695312 374.15625 53.695312 374.722656 53.269531 374.941406 C 53.300781 375.21875 53.332031 375.5 53.371094 375.777344 C 53.671875 375.398438 53.824219 374.9375 54.015625 374.496094 C 54.300781 373.808594 54.652344 373.152344 54.988281 372.488281 C 55.132812 372.230469 55.242188 371.933594 55.507812 371.769531 C 55.28125 373.769531 53.972656 375.554688 54.214844 377.617188 C 54.292969 378.820312 55.074219 379.878906 55.007812 381.105469 C 54.929688 382.601562 54.320312 384.03125 54.394531 385.535156 C 54.4375 386.089844 54.792969 386.535156 55.085938 386.980469 C 55.488281 387.554688 55.839844 388.167969 56.097656 388.824219 C 56.460938 389.714844 56.5625 390.726562 57.175781 391.503906 C 57.503906 391.320312 57.371094 390.875 57.472656 390.574219 C 57.738281 390.816406 57.835938 391.179688 58.015625 391.484375 C 58.382812 392.199219 58.808594 392.921875 58.894531 393.738281 L 59.0625 393.734375 C 59.222656 392.472656 58.988281 391.210938 59.007812 389.949219 C 59.996094 390.863281 60.914062 391.96875 61.226562 393.3125 C 61.296875 393.527344 61.296875 393.785156 61.453125 393.96875 C 61.757812 393.320312 61.898438 392.582031 61.742188 391.875 C 61.460938 390.226562 59.867188 389.230469 59.507812 387.609375 C 59.089844 386.257812 59.484375 384.867188 59.5 383.496094 C 59.636719 382 60.421875 380.625 60.441406 379.113281 C 59.878906 380.035156 58.988281 380.675781 58.246094 381.4375 C 58.410156 380.515625 58.785156 379.644531 59.347656 378.898438 C 59.734375 378.292969 60.351562 377.84375 60.625 377.167969 C 60.320312 377.320312 60.015625 377.527344 59.660156 377.453125 C 59.441406 377.015625 60.125 376.679688 59.90625 376.222656 C 59.699219 375.707031 59.835938 375.148438 59.789062 374.613281 C 59.164062 375.75 58.066406 376.714844 56.792969 377 C 57.207031 376.46875 57.746094 376.03125 58.03125 375.40625 C 58.238281 374.945312 58.59375 374.527344 58.660156 374.011719 C 58.066406 374.976562 57.261719 375.816406 56.386719 376.527344 C 56.5625 375.929688 56.929688 375.421875 57.230469 374.886719 C 57.582031 374.207031 57.863281 373.488281 57.984375 372.730469 C 57.789062 372.890625 57.71875 373.140625 57.617188 373.363281 C 57.226562 374.300781 56.554688 375.074219 55.933594 375.863281 C 56.074219 375.136719 56.308594 374.425781 56.34375 373.683594 C 56.40625 372.78125 56.253906 371.863281 56.472656 370.972656 C 56.511719 370.355469 56.734375 369.632812 56.332031 369.089844 C 56.0625 369.425781 55.925781 369.835938 55.742188 370.222656 M 110.183594 369.5 C 110.4375 369.804688 110.699219 370.214844 111.136719 370.246094 C 111.128906 370.335938 111.109375 370.519531 111.101562 370.613281 C 110.972656 370.714844 110.839844 370.8125 110.707031 370.910156 L 110.632812 370.648438 C 110.449219 370.78125 109.972656 370.796875 110.125 371.132812 C 110.265625 371.5 110.769531 371.273438 110.785156 370.945312 C 110.933594 370.90625 111.078125 370.855469 111.222656 370.804688 C 111.535156 371.226562 111.851562 371.941406 112.488281 371.804688 C 112.421875 371.863281 112.285156 371.976562 112.21875 372.035156 C 112.367188 372.242188 112.5 372.46875 112.679688 372.65625 C 112.90625 372.890625 113.3125 372.84375 113.480469 373.152344 C 113.160156 373.308594 112.820312 373.410156 112.5 373.554688 C 112.425781 373.753906 112.625 373.917969 112.792969 373.972656 C 113.300781 374.226562 113.867188 373.878906 114.21875 373.519531 C 114.589844 373.101562 114.199219 372.5625 113.980469 372.179688 C 113.421875 371.246094 113.007812 369.996094 111.847656 369.679688 C 111.71875 369.425781 111.53125 369.152344 111.207031 369.207031 C 110.871094 369.222656 110.339844 369.113281 110.183594 369.5 M 109.496094 369.761719 C 109.625 370.09375 109.8125 370.402344 110.011719 370.699219 C 110.15625 370.609375 110.304688 370.515625 110.449219 370.429688 C 110.171875 370.175781 109.917969 369.644531 109.496094 369.761719 M 110.921875 371.273438 C 110.789062 371.421875 110.601562 371.53125 110.542969 371.730469 C 110.640625 371.914062 110.777344 372.082031 110.9375 372.226562 C 111.15625 372.414062 111.382812 372.148438 111.582031 372.066406 C 111.523438 371.683594 111.292969 371.382812 110.921875 371.273438 M 111.890625 371.910156 C 111.933594 371.996094 112.019531 372.164062 112.0625 372.246094 C 111.824219 372.40625 111.585938 372.5625 111.339844 372.710938 C 111.425781 373.222656 111.832031 372.953125 112.09375 372.773438 C 111.976562 372.921875 111.863281 373.066406 111.75 373.214844 C 112.054688 373.464844 112.339844 373.296875 112.585938 373.078125 C 112.40625 372.847656 112.226562 372.617188 112.101562 372.359375 C 112.050781 372.195312 112.085938 371.980469 111.890625 371.910156 M 98.804688 372.441406 C 98.625 373.25 98.550781 374.105469 98.101562 374.828125 C 98.785156 374.457031 99.269531 373.820312 99.917969 373.398438 C 100.421875 373.144531 100.082031 372.539062 100.148438 372.105469 C 99.683594 372.058594 99.167969 372.136719 98.804688 372.441406 M 114.800781 373.628906 C 114.324219 374.144531 113.820312 374.640625 113.296875 375.105469 C 113.617188 375.507812 114.019531 375.875 114.519531 376.035156 C 114.871094 376.132812 115.179688 375.878906 115.328125 375.574219 C 115.738281 374.789062 116.019531 373.921875 116.101562 373.039062 C 116.09375 372.785156 116.179688 372.457031 115.960938 372.269531 C 115.511719 372.664062 115.207031 373.191406 114.800781 373.628906 M 119.878906 375.121094 C 119.386719 375.390625 118.9375 375.84375 118.335938 375.773438 C 118.222656 376 118.09375 376.234375 118.140625 376.496094 C 118.261719 376.503906 118.511719 376.515625 118.636719 376.523438 C 118.714844 376.382812 118.824219 376.273438 118.960938 376.195312 C 119.132812 376.273438 119.265625 376.414062 119.414062 376.539062 C 120.269531 376.640625 120.882812 375.894531 121.3125 375.253906 C 121.714844 374.558594 122.199219 373.84375 122.25 373.019531 C 121.457031 373.710938 120.804688 374.585938 119.878906 375.121094 M 74.027344 376.828125 C 74.164062 377.371094 74.628906 377.753906 75.113281 377.988281 C 74.65625 376.410156 74.890625 374.761719 75.101562 373.167969 C 74.332031 374.175781 73.726562 375.53125 74.027344 376.828125 M 111.035156 373.972656 C 111.113281 374.320312 111.300781 374.65625 111.601562 374.855469 C 111.988281 375.148438 112.375 375.617188 112.921875 375.398438 C 112.511719 374.691406 111.726562 374.339844 111.035156 373.972656 M 115.808594 375.84375 C 116.066406 376.125 116.472656 376.328125 116.863281 376.203125 C 116.835938 375.878906 116.871094 375.542969 116.734375 375.246094 C 116.28125 375.136719 115.933594 375.421875 115.808594 375.84375 M 110.703125 375.703125 C 110.726562 375.773438 110.769531 375.917969 110.789062 375.992188 C 111.46875 376.660156 112.289062 377.289062 113.269531 377.378906 C 114 377.453125 114.765625 377.535156 115.488281 377.402344 C 113.90625 376.796875 112.28125 376.316406 110.703125 375.703125 M 117.207031 376.347656 C 117.394531 376.375 117.582031 376.515625 117.777344 376.445312 C 117.988281 376.28125 117.945312 376 117.960938 375.765625 C 117.554688 375.550781 116.90625 375.851562 117.207031 376.347656 M 87.597656 380.011719 C 88.449219 378.867188 89.125 377.550781 89.238281 376.105469 C 88.085938 377.046875 87.859375 378.632812 87.597656 380.011719 M 88.082031 383.804688 C 88.328125 383.410156 88.433594 382.949219 88.625 382.53125 C 89.28125 380.902344 90.132812 379.355469 91.1875 377.957031 C 89.558594 379.488281 88.429688 381.582031 88.082031 383.804688 M 76.167969 378.230469 C 76.253906 378.644531 76.5 378.996094 76.671875 379.375 C 77.261719 380.585938 77.710938 381.863281 78.011719 383.175781 C 78.101562 383.617188 78.296875 384.136719 78.789062 384.246094 C 78.664062 382.757812 78.453125 381.222656 77.707031 379.90625 C 77.289062 379.269531 76.765625 378.699219 76.167969 378.230469 M 62.242188 378.90625 C 62.214844 379.722656 62.058594 380.539062 61.726562 381.285156 C 61.613281 381.605469 61.386719 381.890625 61.386719 382.242188 C 61.621094 382.082031 61.832031 381.886719 62.113281 381.808594 C 62.125 382.078125 62 382.324219 61.871094 382.554688 C 61.492188 383.195312 61.253906 383.90625 60.988281 384.601562 C 60.882812 384.960938 60.722656 385.339844 60.816406 385.71875 C 61.15625 384.992188 61.59375 384.222656 62.292969 383.800781 C 62.039062 384.636719 61.84375 385.492188 61.609375 386.335938 C 61.449219 386.972656 61.390625 387.652344 61.546875 388.300781 C 61.90625 387.988281 62.019531 387.488281 62.304688 387.113281 C 62.402344 388.652344 62.011719 390.242188 62.511719 391.738281 C 62.792969 392.589844 63.070312 393.539062 62.6875 394.40625 C 63.1875 393.996094 63.597656 393.324219 63.375 392.660156 C 63.101562 391.628906 63.027344 390.503906 63.40625 389.496094 C 63.527344 389.320312 63.53125 388.96875 63.808594 388.96875 C 63.976562 390.296875 64.339844 391.640625 65.121094 392.742188 C 66.074219 394.082031 67.3125 395.175781 68.519531 396.273438 C 69.464844 397.105469 69.628906 398.460938 69.695312 399.652344 C 69.753906 400.972656 69.191406 402.210938 68.5 403.296875 C 69.613281 402.199219 70.398438 400.628906 70.234375 399.027344 C 70.105469 397.835938 69.8125 396.640625 69.179688 395.617188 C 68.40625 393.96875 67.835938 392.171875 67.886719 390.332031 C 67.46875 390.75 67.5625 391.515625 67.148438 391.890625 C 66.3125 390.40625 65.957031 388.621094 66.410156 386.953125 C 65.691406 387.246094 65.035156 387.871094 64.941406 388.675781 L 64.84375 388.566406 C 64.417969 387.316406 64.804688 386 65.136719 384.78125 C 64.605469 385.535156 64.125 386.363281 63.433594 386.972656 C 63.796875 385.707031 64.394531 384.511719 64.632812 383.207031 C 64.695312 382.789062 64.796875 382.34375 64.652344 381.929688 C 64.316406 382.917969 63.777344 383.863281 63.035156 384.597656 C 63.015625 383.914062 63.085938 383.183594 62.78125 382.550781 C 62.738281 381.335938 62.90625 379.988281 62.242188 378.90625 M 16.695312 381.183594 C 16.140625 381.949219 15.703125 382.789062 15.324219 383.652344 C 14.945312 384.511719 14.308594 385.222656 13.894531 386.066406 C 14.417969 385.878906 14.78125 385.417969 15.136719 385.011719 C 15.605469 384.367188 16.144531 383.746094 16.40625 382.976562 C 16.714844 382.078125 17.101562 381.210938 17.398438 380.3125 C 17.054688 380.492188 16.925781 380.890625 16.695312 381.183594 M 74.402344 380.496094 C 74.207031 381.320312 74.128906 382.171875 74.15625 383.023438 C 74.1875 383.363281 74.28125 383.722656 74.519531 383.984375 C 74.964844 383.9375 74.839844 383.273438 74.976562 382.960938 C 75.679688 383.738281 75.988281 384.851562 76.886719 385.453125 C 76.90625 385.050781 76.949219 384.652344 77.03125 384.257812 C 77.902344 385.269531 78.730469 386.371094 79.226562 387.628906 C 79.304688 387.789062 79.351562 387.980469 79.511719 388.082031 C 79.21875 387.035156 78.84375 386 78.25 385.085938 C 77.960938 384.652344 77.730469 384.144531 77.277344 383.855469 C 75.984375 383.074219 75.210938 381.714844 74.402344 380.496094 M 79.746094 382.367188 C 79.5625 383.136719 79.484375 384.003906 78.957031 384.625 C 79.53125 385.414062 79.917969 386.332031 80.003906 387.3125 C 80.132812 387.835938 80.046875 388.464844 80.417969 388.890625 C 80.21875 387.628906 80.34375 386.335938 80.230469 385.066406 C 80.136719 384.164062 80.207031 383.179688 79.746094 382.367188 M 14.464844 386.746094 C 13.878906 386.976562 13.066406 386.71875 12.664062 387.328125 C 13.191406 387.488281 13.777344 387.234375 14.324219 387.25 C 14.121094 387.507812 13.941406 387.785156 13.796875 388.082031 C 13.441406 388.792969 12.96875 389.480469 12.871094 390.289062 C 12.820312 390.925781 12.410156 391.445312 12.109375 391.980469 C 11.121094 393.578125 10.601562 395.539062 10.933594 397.410156 C 11.40625 396.984375 11.707031 396.414062 12.121094 395.9375 C 12.78125 395.085938 13.625 394.386719 14.265625 393.519531 C 14.078125 393.546875 13.703125 393.601562 13.519531 393.628906 L 13.457031 393.820312 C 13.53125 393.839844 13.679688 393.878906 13.75 393.902344 C 13.652344 393.886719 13.453125 393.863281 13.351562 393.851562 C 13.628906 393.121094 14.003906 392.425781 14.503906 391.828125 C 15.226562 391.050781 16.164062 390.515625 16.953125 389.8125 C 16.601562 389.625 16.34375 389.871094 16.148438 390.132812 C 16.222656 389.652344 16.519531 389.257812 16.679688 388.808594 C 16.925781 388.03125 17.570312 387.480469 17.855469 386.722656 C 17.109375 387.148438 16.226562 387.285156 15.535156 387.808594 C 14.941406 388.242188 14.355469 388.691406 13.808594 389.179688 C 14.203125 387.976562 15.148438 387.09375 15.792969 386.035156 C 15.320312 386.210938 14.914062 386.519531 14.464844 386.746094 M 19.300781 388.582031 C 18.488281 388.886719 17.625 389.136719 16.972656 389.746094 C 17.125 389.984375 17.140625 390.289062 16.976562 390.523438 C 16.324219 391.746094 15.265625 392.652344 14.269531 393.582031 C 14.550781 393.648438 14.667969 393.828125 14.625 394.121094 C 14.960938 393.917969 15.242188 393.625 15.621094 393.5 C 15.207031 394.566406 14.503906 395.496094 14.023438 396.535156 C 14.335938 396.453125 14.648438 396.316406 14.980469 396.339844 C 14.195312 397.195312 13.34375 398.011719 12.785156 399.046875 C 12.992188 398.984375 13.105469 398.785156 13.265625 398.65625 C 13.707031 398.230469 14.3125 398.054688 14.8125 397.710938 C 15.277344 397.425781 15.453125 396.871094 15.78125 396.457031 C 16.214844 395.878906 16.550781 395.226562 17.035156 394.6875 C 17.1875 394.511719 17.351562 394.339844 17.414062 394.109375 C 16.929688 394.269531 16.484375 394.523438 15.996094 394.675781 C 16.113281 394.277344 16.515625 394.097656 16.789062 393.816406 C 17.402344 393.207031 18.136719 392.746094 18.789062 392.183594 C 19.355469 391.675781 19.96875 391.210938 20.648438 390.859375 C 20.65625 390.820312 20.671875 390.746094 20.679688 390.707031 C 19.140625 390.902344 17.59375 391.617188 16.609375 392.847656 C 16.480469 393.09375 16.078125 392.996094 16.199219 392.6875 C 16.660156 392.074219 17.234375 391.554688 17.746094 390.984375 C 18.539062 390.035156 19.839844 389.574219 20.386719 388.40625 C 20.015625 388.398438 19.644531 388.4375 19.300781 388.582031 M 13.808594 399.839844 C 13.378906 400.730469 12.761719 401.585938 12.679688 402.601562 C 13.398438 402.011719 14.3125 401.769531 15.09375 401.285156 C 16.492188 400.402344 17.867188 399.339844 18.632812 397.832031 C 17.128906 398.847656 15.625 399.875 14.101562 400.863281 C 14.914062 399.855469 15.714844 398.808594 16.152344 397.574219 L 15.96875 397.488281 C 14.996094 397.980469 14.285156 398.871094 13.808594 399.839844 M 28.464844 400.175781 C 28.234375 401.042969 28.035156 401.941406 28.171875 402.847656 C 28.351562 404.253906 28.851562 405.601562 29.449219 406.878906 C 29.703125 407.304688 29.910156 407.828125 30.363281 408.078125 C 30.488281 407.273438 30.304688 406.46875 30.367188 405.660156 C 30.78125 406.140625 31.082031 406.710938 31.519531 407.171875 C 32.339844 408.066406 33.3125 408.859375 34.429688 409.347656 C 34.222656 408.96875 33.933594 408.648438 33.675781 408.308594 C 32.769531 407.070312 31.984375 405.742188 31.296875 404.371094 C 31.144531 404.121094 31.050781 403.800781 30.800781 403.640625 C 30.421875 403.800781 30.347656 404.285156 30.078125 404.566406 C 29.5625 403.371094 28.949219 402.195312 28.703125 400.902344 C 28.628906 400.660156 28.632812 400.371094 28.464844 400.175781 M 15.328125 401.71875 C 14.742188 402.441406 14.144531 403.148438 13.5625 403.871094 C 13.15625 404.347656 12.703125 404.839844 12.535156 405.453125 C 12.839844 405.347656 13.140625 405.234375 13.449219 405.144531 C 13.691406 404.734375 14.039062 404.40625 14.371094 404.066406 C 15.128906 403.332031 15.699219 402.433594 16.394531 401.644531 C 16.730469 401.203125 17.195312 400.867188 17.460938 400.371094 C 16.679688 400.679688 15.863281 401.042969 15.328125 401.71875 M 13.714844 405.121094 C 12.816406 406.621094 11.996094 408.3125 12.066406 410.101562 C 12.363281 409.65625 12.546875 409.148438 12.84375 408.703125 C 13.171875 408.207031 13.574219 407.765625 13.890625 407.261719 C 14.570312 406.207031 15.058594 405.019531 15.929688 404.101562 C 15.144531 404.292969 14.371094 404.640625 13.714844 405.121094 M 14.167969 408.273438 C 14.066406 409.253906 14.191406 410.242188 14.21875 411.226562 C 14.199219 412.230469 14.714844 413.121094 15.066406 414.027344 C 15.347656 414.722656 15.472656 415.464844 15.710938 416.171875 C 16.128906 415.824219 16.042969 415.105469 16.554688 414.839844 C 17.050781 416.570312 17.496094 418.621094 19.136719 419.632812 C 18.863281 418.898438 18.652344 418.140625 18.277344 417.449219 C 17.683594 416.320312 17.328125 415.09375 17.054688 413.851562 C 16.800781 414.109375 16.664062 414.496094 16.304688 414.632812 C 16.105469 413.339844 16.171875 412.035156 16.125 410.734375 C 15.808594 410.789062 15.503906 410.882812 15.191406 410.960938 C 14.878906 409.402344 15.449219 407.851562 15.648438 406.316406 C 15.160156 406.964844 14.414062 407.46875 14.167969 408.273438 M 7.914062 409.632812 C 7.707031 410.300781 7.667969 411.011719 7.460938 411.679688 C 7.089844 412.949219 6.484375 414.128906 6.050781 415.375 L 6.3125 415.289062 C 6.859375 414.226562 7.722656 413.355469 8.160156 412.238281 C 8.550781 411.332031 8.417969 410.320312 8.640625 409.375 C 8.773438 408.667969 9.085938 407.976562 9.011719 407.242188 C 8.554688 407.992188 8.148438 408.78125 7.914062 409.632812 M 9.03125 416.152344 C 8.441406 416.457031 7.796875 416.65625 7.21875 416.996094 C 7.335938 416.511719 7.757812 416.171875 8.058594 415.789062 C 9.03125 414.765625 10.066406 413.511719 9.960938 412.003906 C 9.121094 413.125 8.199219 414.339844 6.828125 414.804688 C 6.519531 414.886719 6.472656 415.25 6.441406 415.511719 C 6.601562 415.6875 6.882812 415.84375 6.839844 416.128906 C 6.800781 416.660156 6.5625 417.15625 6.402344 417.660156 C 6.964844 417.449219 7.46875 417.105469 8.050781 416.953125 C 7.941406 418.050781 6.871094 418.714844 6.648438 419.777344 C 7.074219 419.429688 7.53125 419.101562 8.082031 418.992188 C 7.496094 420.417969 6.664062 421.769531 6.453125 423.324219 C 6.324219 424.4375 5.699219 425.394531 5.410156 426.457031 C 5.730469 426.21875 5.988281 425.917969 6.296875 425.667969 C 6.132812 426.878906 5.648438 428.023438 5.503906 429.238281 C 5.84375 429.117188 5.929688 428.6875 6.183594 428.449219 C 6.753906 427.511719 7 426.410156 7.582031 425.476562 C 8.03125 424.648438 8.683594 423.953125 9.175781 423.160156 C 8.339844 423.519531 7.671875 424.140625 6.96875 424.699219 C 7.375 423.328125 8.53125 422.363281 9.367188 421.25 C 9.101562 421.355469 8.832031 421.457031 8.554688 421.519531 C 8.015625 421.636719 7.617188 422.070312 7.082031 422.1875 C 7.382812 420.90625 8.453125 420.011719 9.246094 419.019531 C 9.691406 418.515625 9.667969 417.796875 9.9375 417.207031 C 10.46875 415.988281 11.191406 414.875 11.90625 413.765625 C 12.457031 412.90625 12.757812 411.894531 12.792969 410.875 C 11.480469 412.585938 10.738281 414.757812 9.03125 416.152344 M 62.1875 411.207031 L 62.175781 411.34375 C 61.25 412.175781 60.519531 413.199219 59.726562 414.152344 C 58.839844 415.414062 57.855469 416.597656 56.984375 417.867188 C 57.085938 417.105469 57.390625 416.386719 57.488281 415.621094 C 57.625 414.707031 57.863281 413.816406 58.085938 412.921875 C 57.257812 413.96875 56.667969 415.25 55.597656 416.089844 C 55.578125 415.25 55.777344 414.421875 55.792969 413.585938 L 55.601562 413.683594 C 54.824219 414.714844 54.28125 415.898438 53.574219 416.980469 C 52.875 418.28125 51.953125 419.4375 51.003906 420.554688 C 52.476562 419.539062 53.335938 417.777344 54.96875 416.972656 C 55.636719 416.769531 56.238281 416.402344 56.636719 415.820312 C 56.410156 418.523438 56.722656 421.238281 57.316406 423.875 C 57.605469 424.945312 58.011719 426.007812 58.675781 426.902344 C 57.738281 424.21875 57.738281 421.242188 58.582031 418.535156 C 59.398438 415.902344 60.785156 413.484375 62.351562 411.234375 L 62.1875 411.207031 M 53.855469 424.199219 C 53.46875 423.757812 53.777344 423.136719 53.78125 422.621094 C 53.167969 423.445312 52.835938 424.480469 52.832031 425.511719 C 53.035156 425.351562 53.222656 425.148438 53.5 425.132812 C 53.554688 425.890625 53.351562 426.632812 53.363281 427.386719 C 53.609375 427.113281 53.839844 426.824219 54.058594 426.527344 C 54.382812 426.679688 54.265625 427.101562 54.296875 427.390625 C 54.257812 428.816406 54.050781 430.230469 53.960938 431.652344 C 53.910156 432.363281 54.175781 433.035156 54.367188 433.707031 C 54.527344 434.191406 54.640625 434.699219 54.875 435.15625 C 54.652344 434.320312 54.84375 433.335938 55.472656 432.730469 C 56.085938 433.246094 56.617188 433.972656 56.542969 434.816406 C 56.472656 435.601562 56.367188 436.394531 56.535156 437.179688 C 56.9375 436.632812 57.359375 436.007812 57.285156 435.292969 C 57.367188 434.273438 56.671875 433.441406 56.515625 432.472656 C 56.4375 431.730469 56.550781 430.988281 56.625 430.253906 C 55.910156 430.742188 55.371094 431.433594 54.742188 432.019531 C 54.765625 430 54.820312 427.976562 54.925781 425.957031 C 55.167969 424.519531 55.398438 423.070312 55.84375 421.683594 C 54.980469 422.347656 54.523438 423.367188 53.855469 424.199219 M 107.429688 423.257812 C 106.679688 424.933594 106.625 426.835938 106.800781 428.636719 C 107.050781 430.457031 107.59375 432.34375 108.808594 433.753906 C 107.46875 430.007812 107.03125 425.796875 108.316406 421.972656 C 107.898438 422.296875 107.652344 422.785156 107.429688 423.257812 M 6.34375 428.453125 C 5.414062 429.300781 5.03125 430.601562 4.960938 431.828125 C 5.558594 430.71875 6.148438 429.59375 6.972656 428.628906 C 7.417969 428.035156 8.03125 427.570312 8.410156 426.925781 C 7.652344 427.332031 6.976562 427.878906 6.34375 428.453125 M 4.753906 434.640625 C 4.523438 434.917969 4.222656 435.195312 4.167969 435.570312 C 4.671875 435.203125 5.28125 434.96875 5.691406 434.476562 C 6.105469 434.007812 6.542969 433.558594 6.964844 433.097656 C 6.113281 433.421875 5.40625 434.015625 4.753906 434.640625 M 4.726562 436.1875 C 3.925781 437.863281 2.96875 439.484375 2.5625 441.316406 C 2.796875 441.230469 2.878906 440.980469 3.011719 440.796875 C 3.539062 439.925781 4.117188 439.074219 4.828125 438.34375 C 5.378906 437.785156 6.042969 437.363281 6.671875 436.902344 C 5.617188 437.121094 4.792969 437.921875 4.007812 438.613281 C 4.449219 437.589844 5.121094 436.695312 5.691406 435.746094 C 5.792969 435.542969 5.972656 435.339844 5.933594 435.097656 C 5.449219 435.347656 4.976562 435.695312 4.726562 436.1875 M 57.28125 436.15625 C 57.570312 436.496094 58.007812 436.648438 58.316406 436.96875 C 59.222656 437.914062 59.652344 439.179688 60.226562 440.328125 C 60.007812 439.550781 59.765625 438.78125 59.453125 438.035156 C 59.121094 437.144531 58.605469 436.273438 58.675781 435.289062 C 58.292969 435.699219 57.816406 435.996094 57.28125 436.15625 M 2.902344 444.035156 C 2.90625 443.023438 3.425781 442.097656 3.527344 441.097656 C 3.117188 441.242188 2.867188 441.644531 2.667969 442.011719 C 2.238281 443.378906 2.191406 444.839844 2.289062 446.261719 C 2.445312 446.015625 2.480469 445.71875 2.597656 445.457031 C 3.3125 443.722656 4.585938 442.296875 5.960938 441.054688 C 6.257812 440.769531 6.632812 440.5625 6.886719 440.226562 C 5.042969 440.796875 3.839844 442.445312 2.902344 444.035156 M 112.988281 442.46875 C 112.929688 443.417969 112.878906 444.378906 112.601562 445.296875 C 112.363281 446.234375 111.859375 447.078125 111.53125 447.976562 C 112.695312 446.710938 113.671875 445.128906 113.75 443.367188 C 113.734375 443.097656 113.804688 442.78125 113.625 442.558594 C 113.488281 442.300781 113.199219 442.445312 112.988281 442.46875 M 117.503906 445.921875 C 117.820312 446.933594 118.011719 448.027344 117.714844 449.070312 C 117.550781 449.726562 117.136719 450.269531 116.832031 450.859375 C 118.292969 450.105469 119.054688 448.210938 118.539062 446.640625 C 118.351562 446.222656 118.050781 445.691406 117.503906 445.921875 M 124.921875 446.410156 C 124.898438 446.773438 124.96875 447.132812 125.066406 447.480469 C 125.46875 448.980469 125.160156 450.589844 124.5 451.964844 C 125.265625 451.34375 125.648438 450.355469 125.851562 449.410156 C 126.003906 448.40625 126.105469 447.289062 125.597656 446.363281 C 125.453125 446.078125 125.105469 446.289062 124.921875 446.410156 M 121.539062 447.152344 C 122.234375 448.773438 121.648438 450.644531 120.550781 451.929688 C 122.234375 451.085938 123.222656 448.824219 122.390625 447.0625 C 122.230469 446.648438 121.714844 446.878906 121.539062 447.152344 M 81.863281 450 C 81.515625 450.148438 81.535156 450.621094 81.664062 450.914062 C 81.988281 451.265625 82.492188 451.363281 82.910156 451.570312 C 83.308594 451.714844 83.613281 452.035156 84.023438 452.160156 C 83.949219 451.957031 83.871094 451.761719 83.792969 451.566406 C 84.070312 451.640625 84.210938 451.902344 84.386719 452.105469 C 85.097656 452.945312 85.515625 454 85.761719 455.066406 C 86.101562 454.683594 86.019531 454.125 85.917969 453.664062 C 85.574219 452.242188 84.5625 451.0625 83.375 450.261719 C 82.9375 449.972656 82.367188 449.726562 81.863281 450 M 87.054688 450.78125 C 88.65625 451.25 89.496094 452.808594 90.238281 454.171875 C 90.003906 452.488281 89.246094 450.578125 87.554688 449.914062 C 87.011719 449.667969 87.015625 450.441406 87.054688 450.78125 M 76.808594 452.113281 C 77.179688 452.53125 77.585938 452.929688 78.0625 453.226562 C 78.097656 453.019531 78.136719 452.816406 78.183594 452.617188 C 78.386719 452.519531 78.472656 452.761719 78.582031 452.882812 C 79.1875 453.71875 79.488281 454.71875 79.726562 455.710938 C 79.746094 455.863281 79.824219 455.976562 79.957031 456.058594 C 80.191406 454.316406 79.417969 452.570312 78.1875 451.363281 C 77.859375 451.066406 77.46875 450.695312 76.988281 450.84375 C 76.511719 451.058594 76.5 451.75 76.808594 452.113281 M 72.265625 452.074219 C 72.144531 452.617188 72.660156 452.960938 73.039062 453.230469 C 73.292969 453.378906 73.484375 453.664062 73.796875 453.691406 C 73.8125 453.566406 73.84375 453.320312 73.859375 453.195312 C 74.785156 453.976562 74.886719 455.28125 75.40625 456.296875 C 75.726562 454.550781 74.78125 452.859375 73.609375 451.648438 C 73.191406 451.183594 72.3125 451.4375 72.265625 452.074219 M 14.75 452.664062 C 15.203125 453.046875 15.601562 453.496094 16.101562 453.816406 C 16.101562 453.691406 16.09375 453.441406 16.089844 453.316406 C 17.421875 454.226562 17.78125 455.988281 17.917969 457.507812 C 18.386719 456.320312 18.277344 454.890625 17.515625 453.847656 C 16.933594 453.035156 16.175781 452.238281 15.183594 451.984375 C 14.816406 451.820312 14.355469 452.410156 14.75 452.664062 M 12.167969 453.238281 C 13.296875 453.917969 13.808594 455.207031 14.03125 456.449219 C 14.070312 456.46875 14.148438 456.503906 14.1875 456.523438 C 14.234375 456.003906 14.28125 455.480469 14.203125 454.964844 C 14.015625 453.933594 13.328125 452.976562 12.359375 452.566406 C 11.855469 452.390625 11.726562 453.078125 12.167969 453.238281 M 18.929688 453.015625 C 19.546875 453.339844 20.203125 453.632812 20.703125 454.132812 C 21.164062 454.597656 21.519531 455.160156 21.796875 455.753906 C 21.910156 455.9375 21.941406 456.195312 22.148438 456.3125 C 22.144531 455.855469 22.15625 455.390625 21.992188 454.960938 C 21.648438 453.761719 20.488281 452.90625 19.273438 452.789062 C 19.105469 452.78125 18.992188 452.859375 18.929688 453.015625 Z M 18.929688 453.015625 " fill-opacity="1" fill-rule="nonzero"/>
</svg>