<?xml version="1.0" encoding="UTF-8" standalone="no"?>
<!DOCTYPE svg PUBLIC "-//W3C//DTD SVG 1.1//EN" "http://www.w3.org/Graphics/SVG/1.1/DTD/svg11.dtd">
<svg width="100%" height="100%" viewBox="0 0 150 150" version="1.1" xmlns="http://www.w3.org/2000/svg" xmlns:xlink="http://www.w3.org/1999/xlink" xml:space="preserve" xmlns:serif="http://www.serif.com/" style="fill-rule:evenodd;clip-rule:evenodd;stroke-linejoin:round;stroke-miterlimit:2;">
    <g transform="matrix(0.200691,0,0,0.200691,-41.6559,-47.2847)">
        <path d="M418.964,480.143C464.152,480.143 502.448,450.096 515.011,408.987L581.339,408.987C583.308,408.987 585.136,407.769 585.839,405.941C586.589,404.112 586.074,402.003 584.62,400.644C574.026,390.8 570.651,375.05 576.37,362.3C581.62,350.581 592.823,344.628 607.073,345.988C608.667,346.128 610.214,345.519 611.245,344.3C612.277,343.081 612.651,341.441 612.183,339.894C606.136,317.91 616.777,304.878 623.621,299.066C636.418,288.238 655.637,285.472 670.402,292.316C686.527,299.769 695.386,317.16 695.386,341.16C695.386,343.597 697.214,345.66 699.605,345.941C702.042,346.269 704.292,344.722 704.901,342.332C707.901,330.566 715.87,322.363 727.354,319.27C741.37,315.473 757.963,320.16 768.651,330.942C780.698,343.083 784.073,361.176 778.214,381.848C777.792,383.301 778.073,384.895 779.011,386.067C779.948,387.285 781.355,387.988 782.855,387.988L839.293,387.988C841.965,387.988 844.121,385.832 844.121,383.16C844.121,380.488 841.964,378.332 839.293,378.332L789.043,378.332C795.136,349.457 783.418,332.16 775.543,324.144C762.277,310.738 742.402,305.16 724.824,309.941C716.105,312.285 708.84,317.066 703.496,323.722C698.714,298.644 683.902,287.91 674.434,283.55C656.059,275.019 633.137,278.3 617.34,291.706C604.215,302.815 598.59,318.753 601.449,336.19C586.074,336.753 573.652,344.722 567.511,358.362C561.464,371.768 563.011,387.19 570.933,399.378L517.355,399.378C518.62,393.05 519.323,386.487 519.323,379.784C519.323,324.378 474.276,279.334 418.873,279.334C363.47,279.334 318.423,324.381 318.423,379.784C318.423,435.187 363.47,480.234 418.873,480.234L418.964,480.143ZM418.964,288.933C469.026,288.933 509.761,329.667 509.761,379.73C509.761,386.48 508.964,392.996 507.558,399.324L434.855,399.324C432.183,399.324 430.027,401.481 430.027,404.153C430.027,406.824 432.183,408.981 434.855,408.981L504.839,408.981C492.605,444.7 458.808,470.481 419.011,470.481C368.949,470.481 328.261,429.747 328.261,379.684C328.261,329.621 368.995,288.887 419.011,288.887L418.964,288.933Z" style="fill-rule:nonzero;"/>
    </g>
    <g transform="matrix(0.157342,0,0,0.207424,-19.3605,-43.8528)">
        <path d="M1055.1,909.61L976.772,909.61L972.741,809.34C972.647,807.465 974.147,805.871 976.022,805.824C977.194,805.778 978.272,806.34 978.881,807.231C987.788,819.372 997.959,825.934 1009.16,829.45C1019.15,832.59 1030.02,833.34 1041.6,833.481C1039.82,829.778 1037.47,826.403 1035.13,823.028C1033.59,820.778 1031.99,818.528 1030.49,815.997C1029.51,814.403 1030.07,812.294 1031.66,811.309C1032.22,810.981 1032.84,810.84 1033.4,810.84C1045.63,810.84 1052.38,812.481 1059.04,814.122C1064.01,815.34 1068.93,816.559 1076.38,816.981C1070.8,805.497 1066.12,797.247 1061.94,789.981C1052.34,773.153 1045.49,761.247 1037.76,726.934C1037.33,725.106 1038.51,723.278 1040.33,722.856C1040.76,722.762 1041.13,722.762 1041.51,722.809C1048.44,723.559 1053.88,726.887 1059.04,730.028C1061.01,731.2 1062.88,732.372 1064.76,733.309C1050.46,708.559 1040.71,685.403 1031.24,662.856C1026.08,650.622 1021.02,638.528 1015.26,626.34C1014.46,624.652 1015.16,622.59 1016.9,621.793C1018.4,621.09 1020.13,621.559 1021.07,622.824C1023.04,625.168 1034.43,624.84 1042.4,624.465C1024.72,603.043 1005.79,579.84 999.178,550.074C998.849,548.668 999.459,547.308 1000.58,546.558C1003.49,544.543 1006.12,545.715 1009.58,547.308C1013.1,548.902 1018.07,551.199 1024.77,548.246C1021.96,543.933 1018.12,538.824 1013.85,533.199C1001.76,517.168 986.569,496.965 981.412,477.465C980.943,475.637 982.021,473.762 983.849,473.293C984.131,473.199 984.412,473.199 984.74,473.199C986.943,473.199 991.115,474.184 995.287,475.168L997.068,475.59C983.287,453.137 972.927,422.106 961.818,389.106L958.537,379.356C954.553,393.09 949.162,409.872 942.271,426.044C934.958,443.106 926.005,459.56 915.13,471.185C922.302,470.435 930.692,469.544 930.927,469.357C932.286,468.044 934.443,468.138 935.755,469.497C936.786,470.575 936.927,472.169 936.318,473.388C933.786,478.638 921.599,499.872 908.146,518.107C902.567,525.654 896.755,532.685 891.271,537.982C898.724,538.31 905.943,538.123 910.396,532.638C911.567,531.185 913.724,530.951 915.177,532.123C916.396,533.107 916.771,534.748 916.161,536.107C910.771,548.669 902.192,566.904 891.505,584.107C885.599,593.669 878.989,602.857 871.958,610.638C876.411,610.497 881.943,610.357 886.489,610.075L886.583,610.075C890.098,609.935 891.692,611.763 892.114,610.872C893.005,609.232 895.067,608.575 896.708,609.466C898.255,610.31 898.911,612.185 898.255,613.779C894.036,623.904 884.193,643.685 871.63,665.295C863.661,679.029 854.568,693.467 845.146,706.639C851.005,706.029 859.068,705.092 864.834,704.435C869.193,703.92 872.334,703.592 872.756,703.592C874.631,703.732 876.037,705.42 875.849,707.295C875.803,707.623 875.756,707.904 875.662,708.185C871.303,724.029 865.678,741.044 857.287,758.81C849.506,775.31 839.381,792.419 825.74,809.81C834.131,810.982 844.49,811.123 854.849,810.42C867.365,809.529 879.88,807.326 888.927,803.998C890.708,803.342 892.677,804.279 893.286,806.014C893.568,806.717 893.568,807.467 893.333,808.17C890.943,816.185 884.427,826.451 879.505,834.186L877.396,837.467C886.021,835.076 901.584,829.733 914.849,824.248C926.427,819.467 935.943,814.873 936.599,812.764C937.161,810.983 939.036,809.951 940.864,810.514C941.896,810.842 942.646,811.545 943.021,812.483C948.646,825.983 945.786,863.483 943.63,891.608C943.114,898.311 942.646,904.405 942.364,909.561L816.974,909.561L813.74,828.936C813.646,827.061 815.146,825.467 817.021,825.42C818.193,825.373 819.271,825.936 819.881,826.826C827.099,836.67 835.35,841.967 844.443,844.826C852.974,847.498 862.349,848.061 872.334,848.108C872.521,847.498 872.568,846.889 872.005,845.529C871.443,845.623 871.021,845.623 870.693,845.623C870.412,845.623 870.177,845.576 869.896,845.483C868.115,844.92 867.084,843.045 867.646,841.264C868.302,839.108 870.74,835.311 873.74,830.576C877.115,825.232 881.334,818.623 884.193,812.67C875.615,815.014 865.443,816.56 855.271,817.264C841.959,818.201 828.552,817.685 818.849,815.576C818.286,815.482 817.771,815.248 817.302,814.873C815.849,813.701 815.615,811.545 816.786,810.092C831.88,791.623 842.802,773.436 851.052,755.951C858.459,740.248 863.661,725.154 867.74,710.998L865.49,711.279C855.975,712.357 840.365,714.138 837.834,714.138C837.131,714.138 836.428,713.904 835.772,713.435C834.272,712.31 833.944,710.154 835.069,708.654C844.725,695.716 854.147,681.185 862.491,667.123C856.913,660.092 851.522,652.685 846.882,644.764C841.819,636.045 837.741,626.67 835.444,616.311C835.116,614.905 835.725,613.545 836.85,612.795C839.522,610.92 841.819,611.999 844.819,613.358C847.491,614.577 851.194,616.264 856.116,614.389C853.866,611.014 850.866,607.03 847.585,602.67C837.647,589.451 825.132,572.811 820.866,556.732C820.397,554.904 821.475,553.029 823.303,552.56C823.584,552.467 823.866,552.467 824.147,552.467C826.022,552.467 829.491,553.263 832.959,554.107C822.037,535.732 813.647,510.795 804.74,484.216L802.678,478.076C799.443,488.998 795.225,502.029 789.834,514.592C784.068,528.092 776.99,541.123 768.506,550.639C773.896,550.076 779.475,549.514 779.522,549.467C780.881,548.201 783.037,548.248 784.303,549.607C785.287,550.638 785.475,552.185 784.912,553.404C782.897,557.576 772.818,575.201 761.709,590.295C757.491,596.014 753.037,601.451 748.818,605.67C754.256,605.811 759.412,605.389 762.599,601.451C763.771,599.998 765.927,599.764 767.381,600.936C768.599,601.92 768.974,603.561 768.365,604.92C763.912,615.232 756.881,630.232 748.115,644.389C743.521,651.795 738.412,659.014 732.927,665.201C736.302,665.107 740.146,664.967 743.427,664.779C746.146,664.639 747.036,666.701 747.552,665.764C748.443,664.123 750.505,663.467 752.146,664.357C753.693,665.201 754.349,667.076 753.693,668.67C750.224,677.014 742.115,693.279 731.802,711.045C725.474,721.967 718.255,733.404 710.802,743.951C715.442,743.435 721.349,742.779 725.661,742.263C729.27,741.842 731.848,741.56 732.27,741.607C734.145,741.748 735.551,743.388 735.411,745.31C735.364,745.638 735.317,745.92 735.223,746.201C731.661,759.232 727.02,773.201 720.129,787.779C713.848,801.091 705.738,814.873 694.817,828.935C701.473,829.732 709.489,829.826 717.551,829.263C727.77,828.56 737.942,826.732 745.348,824.013C747.129,823.357 749.098,824.294 749.708,826.029C749.989,826.732 749.989,827.482 749.754,828.185C747.739,834.841 742.395,843.326 738.316,849.654L737.426,851.013C744.645,848.904 756.41,844.826 766.582,840.607C775.91,836.763 783.598,833.107 784.066,831.56C784.628,829.779 786.503,828.748 788.285,829.31C789.316,829.638 790.066,830.342 790.441,831.279C795.128,842.482 792.785,873.373 791.003,896.529C790.628,901.404 790.347,905.67 790.066,909.56L681.456,909.56L678.831,843.935C678.737,842.06 680.237,840.466 682.112,840.42C683.284,840.373 684.362,840.935 684.971,841.826C690.925,849.935 697.674,854.295 705.127,856.638C712.065,858.794 719.752,859.31 727.955,859.357L727.955,859.216C728.002,858.7 727.909,858.138 727.627,857.481L727.393,857.013L727.299,856.731L727.205,855.7C727.205,855.607 727.205,855.56 727.252,855.466L727.252,855.278L727.299,855.138L727.299,855.044L727.346,854.95C727.909,853.075 729.924,849.935 732.409,845.997C734.94,841.966 738.08,837.091 740.377,832.591C733.58,834.326 725.705,835.497 717.83,836.06C706.861,836.857 695.846,836.435 687.783,834.654C687.221,834.56 686.705,834.326 686.236,833.951C684.783,832.779 684.549,830.623 685.721,829.169C698.049,814.075 707.002,799.169 713.752,784.872C719.658,772.356 723.877,760.263 727.158,748.919L726.267,749.013C718.486,749.904 705.595,751.404 703.486,751.404C702.783,751.404 702.08,751.169 701.424,750.701C699.924,749.576 699.596,747.42 700.721,745.92C708.361,735.701 715.815,724.217 722.471,713.061C717.314,706.732 712.205,700.123 707.846,692.952C702.971,684.983 698.986,676.358 696.877,666.749C696.548,665.342 697.158,663.983 698.283,663.233C700.767,661.499 702.83,662.436 705.502,663.655C707.47,664.545 710.236,665.811 713.798,664.733C711.97,662.061 709.673,658.967 707.142,655.592C698.845,644.53 688.345,630.654 684.783,617.108C684.315,615.28 685.393,613.405 687.221,612.936C687.502,612.843 687.783,612.843 688.111,612.843C689.518,612.843 691.861,613.358 694.299,613.921C685.486,598.687 678.643,578.343 671.424,556.733L670.252,553.311C667.627,562.076 664.252,572.249 660.033,582.092C655.439,592.92 649.814,603.373 643.064,611.248C646.955,610.873 650.517,610.545 650.517,610.498C651.876,609.185 654.033,609.279 655.345,610.638C656.376,611.717 656.517,613.31 655.908,614.529C654.126,618.185 645.783,632.763 636.549,645.279C633.314,649.685 629.939,653.81 626.658,657.185C630.549,657.185 634.111,656.623 636.361,653.857C637.533,652.404 639.689,652.169 641.142,653.341C642.361,654.326 642.736,655.966 642.127,657.326C638.424,665.951 632.517,678.467 625.205,690.279C621.595,696.091 617.611,701.763 613.346,706.732C615.783,706.638 618.455,706.544 620.752,706.45L620.893,706.45C621.971,706.45 622.955,706.919 623.611,707.716C623.658,707.669 623.705,707.622 623.705,707.575C624.596,705.888 626.658,705.279 628.299,706.169C629.94,707.013 630.549,709.029 629.799,710.669C626.846,717.654 620.143,731.153 611.565,745.872C606.456,754.638 600.737,763.778 594.784,772.31C598.393,771.935 602.659,771.42 605.846,771.045C608.94,770.67 611.096,770.435 611.518,770.482C613.393,770.623 614.799,772.31 614.612,774.185C614.565,774.513 614.518,774.795 614.424,775.076C611.424,785.951 607.58,797.623 601.815,809.764C596.706,820.639 590.096,831.889 581.284,843.373C586.581,843.935 592.815,843.982 599.096,843.56C607.581,842.951 616.018,841.498 622.112,839.201C623.893,838.545 625.862,839.482 626.472,841.217C626.753,841.92 626.753,842.67 626.518,843.373C624.831,848.951 620.378,855.982 617.003,861.326C623.003,859.498 631.956,856.357 639.831,853.123C647.471,849.982 653.753,847.029 654.081,845.951C654.643,844.17 656.518,843.138 658.346,843.701C659.378,844.029 660.128,844.732 660.503,845.67C664.487,855.138 662.471,880.967 661.018,900.279C660.737,903.654 660.549,906.7 660.362,909.56L505.622,909.56C505.434,906.372 505.153,902.669 504.825,898.544C503.981,887.575 502.716,870.841 503.466,860.856C506.794,862.637 511.575,864.746 518.466,867.371C518.653,867.465 537.591,874.59 541.857,874.262C543.357,874.168 544.669,873.418 545.513,872.199C546.357,870.981 546.591,869.434 546.169,868.028C545.7,866.481 544.529,864.606 542.185,860.903C541.2,859.356 540.075,857.574 538.997,855.746C550.435,857.856 564.263,858.184 573.45,856.121C575.091,855.746 576.403,854.574 576.966,852.981C577.528,851.387 577.2,849.653 576.122,848.34C559.856,828.418 552.028,809.387 547.294,793.918C555.544,794.856 560.044,795.324 561.356,795.324C563.184,795.324 564.872,794.293 565.669,792.652C566.512,791.012 566.325,789.043 565.2,787.59C552.778,770.996 541.106,749.902 534.919,737.106C535.388,737.106 535.903,737.153 536.419,737.153C540.403,737.293 545.7,737.387 546.075,737.387C547.997,737.293 549.731,736.075 550.388,734.247C551.044,732.419 550.575,730.356 549.169,729.044C539.7,720.09 531.403,705.56 525.638,693.747C527.513,693.793 529.341,693.7 531.075,693.606C532.294,693.559 533.56,693.465 534.778,693.465C536.888,693.465 538.81,692.059 539.419,690.043C540.028,687.981 539.231,685.778 537.45,684.606C530.091,679.731 519.497,663.887 513.216,653.434C515.091,653.621 517.247,653.856 519.779,654.137L520.294,654.184C522.45,654.418 524.466,653.2 525.263,651.184C526.06,649.215 525.451,646.918 523.763,645.559C512.701,636.793 502.622,615.887 493.763,583.45C493.201,581.387 491.372,579.981 489.263,579.887L489.122,579.887C487.06,579.887 485.232,581.2 484.529,583.169C483.122,587.247 481.763,591.278 480.451,595.263C473.326,616.497 466.576,636.56 457.576,649.404C456.544,650.904 456.404,652.825 457.247,654.419C458.091,656.013 459.732,657.044 461.56,657.044C462.638,657.044 463.904,656.81 465.638,656.435C461.747,664.544 455.513,672.794 450.263,679.779C447.169,683.857 444.591,687.373 442.669,690.467C431.56,679.17 421.903,662.108 415.294,648.326C418.06,648.56 420.825,648.42 423.357,648.279C424.857,648.185 426.357,648.138 427.81,648.138C429.919,648.138 431.841,646.732 432.45,644.716C433.06,642.654 432.263,640.451 430.482,639.279C421.154,633.045 407.513,612.467 400.107,599.904C402.732,600.185 405.966,600.56 409.997,600.935L410.56,600.982C412.716,601.216 414.732,599.998 415.529,597.982C416.325,596.013 415.716,593.716 414.029,592.357C400.576,581.716 388.341,556.498 377.701,517.357C377.138,515.294 375.31,513.841 373.201,513.794C371.091,513.748 369.169,515.06 368.466,517.076C366.779,521.951 365.185,526.826 363.544,531.607C354.966,557.154 346.856,581.295 335.935,596.81C334.904,598.31 334.763,600.232 335.607,601.825C336.451,603.419 338.092,604.45 339.92,604.45C341.467,604.45 343.529,604.028 346.529,603.325C341.888,613.731 333.873,624.372 327.17,633.278C324.639,636.606 322.529,639.559 320.608,642.325C306.452,627.981 294.264,605.856 286.155,588.747C290.092,589.31 294.076,589.075 297.686,588.888C299.607,588.794 301.436,588.7 303.217,588.7C305.326,588.7 307.248,587.294 307.857,585.278C308.467,583.216 307.67,581.013 305.889,579.841C293.936,571.872 276.264,544.825 267.451,529.685C270.966,530.107 275.513,530.622 281.513,531.185L282.263,531.279C284.419,531.513 286.434,530.294 287.231,528.279C288.028,526.31 287.419,524.013 285.731,522.654C269.184,509.529 254.137,478.592 241.059,430.685C240.497,428.622 238.669,427.169 236.559,427.122C234.45,427.028 232.528,428.388 231.825,430.403C229.809,436.356 227.794,442.262 225.825,448.122C215.372,479.341 205.481,508.825 192.075,527.856C191.044,529.356 190.903,531.278 191.747,532.872C192.591,534.466 194.231,535.497 196.059,535.497C198.075,535.497 201.075,534.841 205.715,533.716C205.762,533.716 205.856,533.669 205.903,533.669C200.325,547.075 189.965,560.857 181.341,572.294C176.513,578.716 172.341,584.247 169.622,588.888C168.309,591.138 169.013,593.997 171.216,595.403C179.325,600.56 185.935,599.716 190.622,598.122C183.825,619.028 169.622,636.231 155.794,652.919L152.653,656.716C151.481,658.169 151.2,660.185 151.997,661.872C152.794,663.56 154.481,664.638 156.356,664.638C157.294,664.638 158.7,664.685 160.388,664.779C165.778,665.013 170.654,665.2 174.826,664.919C171.451,672.513 168.216,680.153 165.076,687.653C156.076,709.028 146.795,731.106 132.451,754.731C131.56,756.231 131.513,758.106 132.357,759.606C133.201,761.106 134.841,762.091 136.576,762.091C142.482,762.091 147.31,759.138 151.998,756.278C153.685,755.247 155.326,754.216 156.966,753.372C151.248,776.06 146.044,785.2 138.544,798.278C134.279,805.731 129.404,814.216 123.497,826.919C122.794,828.419 122.935,830.153 123.779,831.56C124.669,832.966 126.216,833.81 127.857,833.81C138.169,833.81 144.076,832.356 149.748,830.95C153.217,830.106 156.592,829.263 160.998,828.747C158.326,832.638 155.748,836.763 154.154,841.825C153.685,843.278 153.966,844.919 154.857,846.138C155.748,847.356 157.201,848.106 158.748,848.106C179.186,848.106 198.92,846.7 215.232,832.168L212.138,909.371L162.122,909.371C158.934,909.371 156.309,911.949 156.309,915.184C156.309,918.371 158.887,920.996 162.122,920.996L1054.52,920.996C1057.71,920.996 1060.33,918.418 1060.33,915.184C1060.33,911.996 1057.76,909.371 1054.52,909.371L1055.1,909.61ZM257.42,891.001C256.014,872.579 253.998,846.282 255.779,832.126C260.373,834.845 267.92,838.407 280.388,843.142C285.076,844.923 296.044,848.814 304.294,851.158C304.013,852.939 304.248,854.439 304.763,856.079C304.904,856.454 304.951,856.642 304.951,856.783C305.138,859.314 307.248,861.283 309.779,861.283C326.138,861.283 341.888,860.205 355.201,849.283L352.763,909.611L258.638,909.611C258.404,904.548 257.888,898.127 257.373,891.002L257.42,891.001ZM391.16,895.314C390.035,880.736 388.488,860.204 389.66,848.486C393.551,850.689 399.551,853.407 408.879,856.923C409.066,856.97 422.567,862.079 430.957,864.189C431.144,865.689 431.613,867.001 431.988,867.939C432.691,869.814 434.519,871.079 436.535,871.079C449.754,871.079 462.551,870.235 473.519,861.985L471.597,909.563L392.238,909.563C392.004,905.532 391.676,900.704 391.254,895.266L391.16,895.314ZM458.379,685.784C465.832,675.893 475.067,663.612 478.301,651.378C478.676,649.924 478.395,648.378 477.457,647.206C476.52,646.034 475.113,645.331 473.613,645.331C473.051,645.331 472.442,645.377 471.738,645.518C478.348,633.049 483.691,617.393 489.222,600.987C495.176,619.549 501.644,633.565 508.769,643.315C507.457,643.128 506.848,642.987 506.519,642.94C504.973,642.237 503.098,642.378 501.644,643.456C499.769,644.815 499.113,647.346 500.144,649.456C501.551,652.409 512.05,671.159 522.785,683.722C521.848,683.394 521.051,682.831 520.395,682.034C518.895,680.159 516.223,679.69 514.114,680.909C512.051,682.175 511.207,684.753 512.145,686.956C516.551,697.222 524.754,714.378 535.067,727.55C532.395,727.456 530.098,727.316 529.114,727.175C527.895,726.706 526.536,726.706 525.27,727.316C522.926,728.441 521.895,731.16 522.879,733.55C526.676,742.644 538.207,765.144 551.52,784.738C549.317,784.504 547.208,784.269 545.755,784.082C542.614,783.707 540.88,783.566 540.505,783.566C539.052,783.66 537.739,784.41 536.942,785.629C536.099,786.801 535.864,788.301 536.239,789.66C540.552,805.457 547.536,825.894 563.661,847.785C553.255,848.394 539.989,846.941 531.973,843.941C530.239,843.285 528.317,843.707 527.004,844.972C525.692,846.238 525.176,848.113 525.692,849.894C526.817,853.597 529.161,857.863 531.551,861.753C521.379,858.331 507.504,852.8 504.739,850.222C503.942,848.722 502.442,847.691 500.661,847.597C498.646,847.504 496.724,848.675 495.974,850.55C492.599,858.613 493.677,876.612 495.411,899.347C495.692,903.191 495.974,906.66 496.161,909.613L481.208,909.613L483.599,849.847C483.692,847.738 482.38,845.769 480.364,845.066C478.349,844.363 476.146,845.066 474.88,846.754C465.88,858.988 454.63,861.051 440.989,861.332L440.989,861.191C441.13,860.441 441.13,859.597 440.895,858.847C440.848,858.66 440.708,858.425 440.614,858.191L440.614,858.144C439.958,856.504 438.645,854.394 436.208,850.55C434.661,848.16 432.88,845.3 431.239,842.488C445.208,845.394 462.786,845.91 474.317,843.378C475.958,843.003 477.27,841.832 477.833,840.238C478.395,838.644 478.067,836.91 476.989,835.597C456.88,810.988 447.411,787.409 441.786,768.566C452.38,769.785 458.427,770.441 460.02,770.441C461.848,770.441 463.535,769.41 464.332,767.769C465.176,766.129 464.989,764.16 463.864,762.707C457.442,754.082 451.208,744.473 445.536,735.098C454.957,723.426 464.052,710.676 467.567,694.832C467.988,692.91 467.192,690.941 465.598,689.816C462.551,687.707 459.363,689.16 457.442,690.051C456.363,690.566 455.332,690.988 454.301,691.176C455.52,689.535 456.879,687.707 458.285,685.785L458.379,685.784ZM445.441,698.675C449.425,700.831 452.988,701.159 455.8,700.737C452.237,710.065 446.519,718.409 440.378,726.237C434.847,716.534 430.112,707.487 426.831,700.737C430.44,700.925 435.222,701.018 441.503,701.018C443.144,701.018 444.55,700.034 445.394,698.674L445.441,698.675ZM335.331,639.33C344.19,627.564 355.253,612.892 359.097,598.408C359.472,596.955 359.191,595.408 358.253,594.237C357.316,593.065 355.909,592.362 354.409,592.362C353.331,592.362 352.019,592.549 350.331,592.924C359.05,577.033 365.94,556.549 373.112,535.033C380.847,559.877 389.331,578.111 398.706,590.205C395.331,589.783 394.019,589.502 393.55,589.408C391.956,588.658 390.081,588.799 388.581,589.877C386.706,591.236 386.05,593.768 387.081,595.877C388.628,599.064 402.597,624.002 416.05,638.955C413.332,638.674 411.269,637.924 409.769,636.002C408.269,634.127 405.597,633.658 403.488,634.877C401.425,636.142 400.582,638.721 401.519,640.924C407.004,653.627 417.269,675.19 430.207,691.08C425.988,690.939 422.145,690.705 420.738,690.517C419.52,690.002 418.113,690.002 416.801,690.611C414.457,691.736 413.426,694.455 414.41,696.845C417.598,704.486 425.472,720.142 435.363,736.97C435.41,737.064 435.504,737.158 435.551,737.252C440.004,744.799 444.832,752.486 449.895,759.846C446.567,759.471 443.145,759.096 440.989,758.814C437.239,758.393 435.129,758.205 434.754,758.205C433.348,758.346 432.035,759.096 431.192,760.268C430.395,761.439 430.114,762.939 430.489,764.299C435.739,783.471 444.27,808.455 464.286,835.127C451.395,836.111 434.239,834.377 424.114,830.627C422.379,829.971 420.457,830.392 419.145,831.658C417.785,832.924 417.317,834.799 417.832,836.58C419.332,841.642 422.848,847.549 426.129,852.799C413.66,848.768 394.348,841.361 391.02,837.846C390.27,836.252 388.676,835.127 386.895,835.08C384.88,834.987 382.958,836.158 382.208,838.033C378.27,847.502 379.583,869.955 381.598,896.111C381.973,901.268 382.348,905.861 382.536,909.658L362.52,909.658L365.473,836.767C365.567,834.658 364.254,832.689 362.238,831.986C360.223,831.283 358.02,831.986 356.754,833.674C346.113,848.205 332.848,851.018 317.004,851.486C317.145,851.345 317.379,851.251 317.473,851.064C318.317,849.845 318.551,848.298 318.129,846.892C317.52,844.876 315.879,842.298 312.551,837.048C310.301,833.533 307.582,829.267 305.332,825.142C322.535,829.08 345.082,829.923 359.66,826.689C361.301,826.314 362.613,825.142 363.176,823.548C363.738,821.955 363.41,820.22 362.332,818.908C337.16,788.111 325.629,758.674 318.785,735.33C332.613,736.924 340.488,737.767 342.457,737.767C344.285,737.767 345.973,736.736 346.77,735.095C347.613,733.455 347.426,731.486 346.301,730.033C338.098,719.064 330.129,706.736 323.004,694.783C332.988,682.08 342.457,667.924 346.301,650.58C346.723,648.658 345.926,646.689 344.332,645.564C341.098,643.361 337.723,644.908 335.519,645.892C333.598,646.783 331.723,647.627 329.426,647.392C331.113,645.002 333.176,642.283 335.379,639.33L335.331,639.33ZM334.534,656.533C330.737,667.361 324.456,676.924 317.753,685.783C310.394,672.939 304.206,661.033 300.175,652.502C301.863,652.596 303.831,652.643 306.081,652.737C311.238,652.924 316.628,653.065 318.831,653.065C319.066,653.252 319.206,653.534 319.488,653.674C325.534,657.518 330.644,657.471 334.488,656.487L334.534,656.533ZM222.784,814.693C220.769,813.99 218.565,814.693 217.3,816.381C203.8,834.803 187.019,838.084 166.862,838.6C168.081,836.491 169.487,834.475 170.94,832.412C172.346,830.397 173.752,828.334 175.065,826.178C175.955,824.678 176.002,822.803 175.112,821.303C174.268,819.803 172.627,818.866 170.893,818.866C159.877,818.866 153.831,820.366 147.924,821.819C144.314,822.709 140.846,823.553 136.205,824.022C140.424,815.491 144.08,809.116 147.408,803.303C155.892,788.537 161.986,777.85 168.83,747.522C169.158,746.022 168.783,744.428 167.752,743.256C166.721,742.084 165.174,741.475 163.627,741.662C157.533,742.272 152.611,745.084 148.299,747.709C159.127,728.115 166.908,709.647 174.455,691.647C179.095,680.631 183.455,670.225 188.471,659.678C189.549,657.428 188.752,654.756 186.643,653.491C184.627,652.225 182.002,652.694 180.455,654.475C178.533,655.647 172.018,655.694 166.814,655.6C181.486,637.788 197.142,617.631 202.72,592.506C203.142,590.584 202.345,588.616 200.751,587.491C197.329,585.147 193.673,586.787 191.048,588.006C188.189,589.319 185.283,590.631 181.345,589.6C183.595,586.319 186.455,582.569 189.548,578.444C200.282,564.147 213.689,546.382 218.329,528.944C218.704,527.491 218.423,525.944 217.486,524.772C216.548,523.6 215.142,522.897 213.642,522.897C212.048,522.897 209.798,523.319 206.611,524.069C217.72,504.522 226.392,478.694 235.486,451.6C235.814,450.616 236.142,449.584 236.517,448.553C246.595,481.787 257.705,505.6 270.079,520.553C263.704,519.803 261.594,519.381 260.938,519.194C259.344,518.397 257.376,518.491 255.876,519.616C254.001,520.975 253.344,523.506 254.376,525.616C256.298,529.6 274.438,561.944 291.267,579.757C286.298,579.663 282.782,578.772 280.298,575.678C278.798,573.803 276.126,573.335 274.016,574.553C271.954,575.819 271.11,578.397 272.048,580.6C278.891,596.538 291.97,623.866 308.329,643.272C302.282,643.085 296.141,642.804 294.173,642.475C292.907,641.913 291.454,641.913 290.141,642.522C287.798,643.647 286.766,646.366 287.751,648.757C291.595,657.944 300.923,676.601 312.782,696.757C312.829,696.897 312.922,696.991 313.016,697.132C318.922,707.163 325.438,717.523 332.235,727.273C327.501,726.757 322.251,726.148 319.063,725.773C314.516,725.257 312.032,725.023 311.657,725.023C310.251,725.163 308.938,725.913 308.095,727.085C307.298,728.257 307.016,729.757 307.391,731.116C313.86,754.741 324.453,785.678 349.532,818.585C333.501,820.179 311.188,817.976 298.204,813.195C296.47,812.539 294.548,812.96 293.236,814.226C291.876,815.492 291.408,817.367 291.923,819.148C293.986,825.992 299.095,834.242 303.454,841.132C287.985,836.304 260.892,825.851 257.282,821.632C256.579,819.944 254.938,818.773 253.063,818.679C251.048,818.632 249.126,819.757 248.376,821.632C243.641,832.976 245.282,860.163 247.72,891.898C248.235,898.789 248.704,904.929 248.938,909.757L222.313,909.757L225.923,819.616C226.017,817.507 224.704,815.538 222.688,814.835L222.784,814.693Z" style="fill-rule:nonzero;"/>
    </g>
</svg>
