<?xml version="1.0" encoding="UTF-8"?>
<svg version="1.1" viewBox="0 0 1200 1200" xmlns="http://www.w3.org/2000/svg" width="150pt" height="150pt">
 <path d="m859.5 1085.2c-38.832-51.668-66.332-109.83-84-171.33-6.5-17.832 21-27.5 27.5-8 17.832 59.832 43.668 114.67 82.332 164.83 53.332-29.168 79.168-105 32.332-168-46.832-61.332-118-118-150.33-189-55 85.668-116.33 257-34 342.5 39 38.832 85.836 43.664 126.17 29zm76-271.34c67.832-139 137.33-373.33-1.668-492.83-61.332-51.668-139-55-200.33-22.668 66.332 69.5 114.67 151.83 151.83 240.83 6.5 17.832-19.332 29.168-25.832 11.332-37.168-87.332-84-168-150.33-236-109.83 84-87.332 216.5 17.832 295.67 82.5 61.336 164.83 95.336 208.5 203.67zm-534.83-223c156.67 25.832 255.33 182.67 213.33 334.5-4.832 16.168-32.332 13-27.5-8 37.168-135.67-51.668-276.33-192.33-299l19.332 16.168c14.5 11.332-1.668 34-17.832 22.668l-53.332-43.668c-9.668-4.832-8-19.332 0-24.168l63-32.332c16.168-9.668 29.168 16.168 13 24.168zm190.66 452.34c-1.668 19.332-29.168 17.832-29.168 0l1.668-21c-100.17 122.83-286 130.83-395.83 17.832-14.5-13 6.5-32.332 19.332-19.332 100.17 101.83 266.67 92.168 355.5-17.832l-24.168 9.668c-17.832 6.5-27.5-19.332-9.668-25.832l64.668-27.5c9.668-3.168 19.332 3.168 19.332 14.5zm-515.5-82.336c-16.168-9.668 0-34 14.5-24.168l17.832 11.332c-55-147 29.168-311.83 182.67-352.33 17.832-4.832 25.832 22.668 6.5 27.5-137.33 35.5-213.33 184.17-161.67 316.67l3.168-25.832c3.168-17.832 30.668-14.5 29.168 4.832l-9.832 69.5c-4.832 9.668-13 16.168-22.668 9.668zm211.67 1.668c35.5-30.668 61.332-69.5 84-109.83 8-16.168 34-3.168 24.168 13-22.668 43.668-50.168 82.332-85.668 114.67 56.5 32.332 111.5-8 130.83-61.332 19.332-50.168 6.5-142.17-14.5-187.5-38.832 40.332-92.168 66.332-132.5 103.5-37 35.328-43.5 90.328-6.332 127.5zm841.83-625.5c-19.332 13-55 29.168-69.5 43.668-16.168 17.832-14.5 40.332-3.168 53.332 16.168 16.168 48.5 16.168 64.668-22.668 9.668-22.5 11.336-50 8-74.332zm-66.164-71c3.168-17.832 4.832-40.332 1.668-71.168-24.168 16.168-51.668 29.168-76 46.832-21 14.5-24.168 38.832-13 59.832 11.332 19.332 32.332 27.5 53.332 16.168 9.6641-4.832 25.832-19.332 34-51.664zm-202-185.83c-9.668 30.668-25.832 59.832-35.5 92.168-19.332 58.168 61.332 95.332 87.332 42 20.832-45.336-22.832-105.17-51.832-134.17zm-236 21c8.1641 35.5 8.1641 72.664 14.664 109.83 13 67.832 109.83 58.168 106.67-8-3.332-56.668-76-88.832-121.33-101.83zm-193.84 160c27.5 34 46.832 72.668 71.168 106.67 48.5 64.668 150.33 8 111.5-61.332-30.832-56.672-127.67-55.004-182.67-45.336z"/>
</svg>
