<!-- Generated by IcoMoon.io -->
<svg version="1.1" xmlns="http://www.w3.org/2000/svg" width="32" height="32" viewBox="0 0 32 32">
<path d="M5.275 7.173l3.992-4.575c0.31-0.355 0.814-0.355 1.125 0l3.087 3.539-2.25 2.58h-1.729c-0.426 0-0.825 0.19-1.116 0.522l-1.758 1.944c-0.018-0.138-0.046-0.275-0.093-0.409l-1.257-3.601zM5.668 11.186c-0.15 0.219-0.396 0.351-0.663 0.351h-0.801v1.594h-1.602v-1.594h-0.801c-0.266 0-0.514-0.132-0.663-0.35-0.148-0.219-0.178-0.498-0.080-0.744l1.601-3.986c0.123-0.304 0.416-0.501 0.744-0.501s0.622 0.198 0.744 0.501l1.602 3.986c0.098 0.245 0.068 0.524-0.081 0.743zM8.87 19.768c-4.638-1.087-7.869-3.205-7.869-5.579h7.406c0 1.975 0.168 3.848 0.463 5.579h-0zM21.392 21.131c-1.087 4.639-3.205 7.869-5.579 7.869s-4.493-3.23-5.579-7.869c1.731 0.295 3.604 0.463 5.579 0.463s3.848-0.168 5.579-0.463zM22.161 14.189c0 2.051-0.192 4.019-0.532 5.816-1.797 0.34-3.765 0.532-5.816 0.532s-4.019-0.192-5.816-0.532c-0.34-1.797-0.532-3.765-0.532-5.816h12.696zM30.302 17.245c-1.206 5.718-5.712 10.23-11.434 11.434 1.629-1.544 2.926-4.299 3.667-7.767 3.467-0.739 6.22-2.037 7.766-3.667zM9.089 20.912c0.739 3.467 2.038 6.223 3.668 7.768-5.722-1.204-10.229-5.717-11.434-11.434 1.544 1.628 4.299 2.927 7.765 3.666zM30.624 14.189c0 2.373-3.23 4.492-7.869 5.579 0.295-1.731 0.463-3.604 0.463-5.579h7.405zM18.137 13.19h-12.811l3.472-3.471c0.133-0.138 0.315-0.216 0.504-0.216h1.84l4.062-4.207c0.278-0.287 0.729-0.287 1.006 0l1.127 1.168c-0.386 0.629-0.625 1.419-0.625 2.302 0 1.358 0.546 2.557 1.424 3.196v1.227zM26.688 13.035c-0.529-0.117-0.854-0.405-1.449-1.284-0.089-0.132-0.205-0.31-0.259-0.397s-0.102-0.157-0.108-0.156c-0.006 0.001-0.055 0.090-0.108 0.198s-0.19 0.34-0.304 0.515c-0.18 0.273-0.208 0.331-0.208 0.409 0 0.148 0.059 0.191 0.423 0.299 0.258 0.077 0.436 0.219 0.436 0.348 0 0.048-0.233 0.063-0.848 0.054-0.629-0.009-0.622-0.007-0.862-0.265-0.191-0.204-0.31-0.376-0.335-0.485-0.026-0.11-0.012-0.202 0.101-0.672 0.051-0.215 0.128-0.563 0.171-0.772s0.082-0.403 0.088-0.429l0.012-0.049-0.495 0.010c-0.558 0.012-0.549 0.009-0.671 0.189-0.063 0.093-0.122 0.259-0.292 0.821-0.037 0.125-0.113 0.326-0.166 0.445s-0.102 0.268-0.109 0.328c-0.011 0.097-0.005 0.118 0.047 0.18 0.073 0.086 0.122 0.113 0.391 0.209 0.321 0.116 0.518 0.259 0.546 0.398l0.014 0.068-0.117 0.014c-0.064 0.008-0.406 0.011-0.76 0.007l-0.643-0.007-0.107-0.066c-0.113-0.070-0.314-0.295-0.483-0.539l-0.102-0.149-0.014-0.395c-0.007-0.217-0.015-0.398-0.016-0.402s-0.085 0.060-0.186 0.142c-0.1 0.082-0.251 0.201-0.336 0.265s-0.184 0.161-0.222 0.214c-0.086 0.12-0.137 0.277-0.108 0.332 0.034 0.062 0.148 0.15 0.291 0.222 0.073 0.037 0.175 0.096 0.226 0.132 0.094 0.064 0.18 0.197 0.148 0.229-0.009 0.009-0.297 0.016-0.64 0.016-0.601 0-0.626-0.002-0.713-0.048-0.129-0.069-0.252-0.224-0.383-0.482l-0.114-0.225 0.002-0.221c0.001-0.174 0.011-0.248 0.051-0.351 0.16-0.421 0.149-0.369 0.489-2.374 0.090-0.528 0.173-1.006 0.186-1.060 0.091-0.407 0.384-0.884 0.792-1.287 0.44-0.436 0.936-0.69 1.611-0.825 0.437-0.087 0.736-0.101 2.011-0.094l1.185 0.007 0.234-0.114c0.347-0.168 0.437-0.191 0.745-0.188 0.243 0.003 0.296 0.011 0.788 0.136 0.577 0.146 0.757 0.172 1.272 0.184l0.343 0.008 0.124-0.097c0.144-0.112 0.237-0.157 0.331-0.157 0.087 0 0.166 0.080 0.187 0.188 0.014 0.075-0.009 0.245-0.045 0.336-0.010 0.024 0.022 0.059 0.113 0.122 0.205 0.144 0.494 0.408 0.565 0.516 0.040 0.060 0.073 0.145 0.082 0.208 0.020 0.143 0.088 0.234 0.427 0.57 0.154 0.153 0.28 0.294 0.28 0.315 0 0.057-0.3 0.339-0.425 0.399-0.106 0.052-0.125 0.053-0.782 0.067-0.762 0.015-0.674 0-1.53 0.249-0.267 0.078-0.522 0.16-0.566 0.182-0.132 0.068-0.258 0.212-0.356 0.411-0.089 0.18-0.092 0.192-0.091 0.394 0.001 0.147 0.018 0.282 0.059 0.458 0.086 0.37 0.141 0.725 0.178 1.157 0.026 0.305 0.047 0.428 0.098 0.59 0.106 0.329 0.216 0.441 0.479 0.483 0.164 0.026 0.392 0.168 0.449 0.279 0.029 0.056 0.029 0.066-0.007 0.106-0.156 0.172-0.655 0.261-1.018 0.181h0z"></path>
</svg>
