<?xml version="1.0" encoding="utf-8"?>
<svg version="1.1" viewBox="0 0 1200 1200" xmlns="http://www.w3.org/2000/svg" width="150pt" height="150pt">
  <path d="M 486.77 789.823 C 449.215 766.025 433.157 719.15 448.497 677.148 C 458.1 677.866 467.993 678.296 478.599 678.296 C 495.805 678.296 512.147 677.008 527.914 674.857 C 526.771 697.222 521.895 720.442 510.714 742.09 C 503.547 755.992 495.52 772.333 486.775 789.968 L 486.77 789.823 Z M 682.027 312.176 C 703.386 292.68 731.484 281.784 760.298 281.784 C 776.785 281.784 793.411 285.228 809.323 292.68 C 850.613 312.032 875.125 352.602 876.129 395.179 L 878.853 395.179 C 890.464 395.179 902.078 397.616 913.115 402.777 C 951.963 420.98 969.449 466.282 953.826 505.56 C 991.957 538.816 1005.15 594.297 982.642 642.319 C 971.602 665.827 953.83 683.747 932.611 695.218 C 944.222 719.874 945.085 749.12 932.611 775.638 C 921.431 799.577 901.645 816.493 878.853 824.809 C 868.531 828.537 857.635 830.544 846.455 830.544 C 832.982 830.544 819.222 827.678 806.174 821.514 C 804.742 824.378 803.163 827.245 801.442 829.97 C 783.383 858.351 752.705 873.835 721.309 873.835 C 706.4 873.835 691.491 870.251 677.584 862.938 C 683.175 850.179 688.48 838.281 692.923 827.673 C 727.328 746.104 830.829 714.708 831.833 714.423 C 837.569 712.702 840.866 706.827 839.145 701.091 C 837.423 695.356 831.549 692.058 825.813 693.779 C 821.082 695.069 711.416 728.186 673.142 819.213 C 665.685 837.133 656.082 858.49 645.759 881.715 C 628.269 921.13 608.632 965.429 592.575 1005.86 L 438.04 933.46 C 458.968 895.332 480.183 852.036 499.249 813.333 C 510.432 790.543 520.893 769.469 529.782 752.124 C 543.545 725.604 548.85 697.502 549.853 671.128 C 624.398 655.216 681.45 613.787 710.839 551.858 C 746.103 477.601 734.633 385.28 682.452 312.315 L 682.027 312.176 Z M 745.818 609.338 C 736.644 637.435 732.771 650.194 735.926 658.938 C 737.358 662.952 740.653 666.106 744.955 667.254 C 745.813 667.543 746.961 667.828 748.823 667.828 C 755.845 667.828 772.047 662.952 813.905 629.41 C 818.637 625.681 819.357 618.941 815.628 614.355 C 812.043 609.623 805.161 608.905 800.573 612.633 C 786.524 623.959 769.323 636.142 758.427 642.307 C 760.287 634.71 763.587 624.534 766.453 615.787 C 773.336 594.429 781.936 567.91 785.092 544.256 C 785.949 538.382 781.797 533.076 775.917 532.216 C 770.041 531.358 764.736 535.511 763.877 541.391 C 760.867 563.183 752.551 588.7 745.959 609.199 L 745.818 609.338 Z M 613.497 1134.35 C 625.397 1149.4 639.446 1161.44 652.061 1170.47 L 355.319 1170.47 C 367.937 1161.6 381.983 1149.54 393.882 1134.35 C 405.351 1119.87 412.519 1087.9 416.962 1031.28 L 590.563 1031.28 C 595.005 1087.9 602.173 1119.87 613.643 1134.35 L 613.497 1134.35 Z M 455.811 656.22 C 455.713 656.172 455.616 656.124 455.518 656.074 C 455.568 656.077 455.617 656.08 455.667 656.083 L 455.811 656.22 Z M 455.518 656.074 C 243.503 644.535 237.211 474.292 301.275 401.344 C 368.938 324.221 343.422 228.46 343.422 228.46 C 448.357 273.619 430.582 380.415 430.582 380.415 C 430.582 380.415 475.021 336.116 462.117 290.1 C 447.926 239.353 421.692 240.929 407.356 202.511 C 382.699 136.857 484.049 34.214 484.049 34.214 C 499.101 179.288 620.808 270.174 655.07 312.033 C 758.14 438.04 715.421 628.272 523.328 653.788 C 561.318 635.148 585.831 608.914 596.009 575.371 C 622.961 486.636 540.388 380.983 536.804 376.54 C 534.369 373.531 530.496 371.955 526.628 372.672 C 522.755 373.247 519.6 375.967 518.312 379.695 C 497.812 437.465 467.28 457.821 440.187 475.74 C 414.671 492.796 390.443 508.853 385.855 550.855 C 380.137 604.177 419.898 638.54 455.518 656.074 Z M 531.22 405.636 C 552.148 437.031 593.722 509.709 575.658 569.345 C 565.19 603.897 535.517 629.557 487.35 645.754 C 471.867 640.738 400.765 614.219 407.358 553.294 C 410.797 521.324 428.143 509.714 452.226 493.802 C 477.602 476.886 508.708 456.24 531.215 405.637 L 531.22 405.636 Z"/>
</svg>