<!-- Generated by IcoMoon.io -->
<svg version="1.1" xmlns="http://www.w3.org/2000/svg" width="32" height="32" viewBox="0 0 32 32">
<path d="M21.778 26.903c0.163 2.066 0.463 3.251 0.885 3.779h-0.005c0.438 0.549 0.955 0.988 1.419 1.318h-10.922c0.464-0.324 0.981-0.764 1.419-1.318 0.422-0.528 0.759-1.695 0.922-3.76 0.097-1.584 0.123-3.343 0.149-4.916 0.014-0.926 0.031-1.784 0.054-2.495 0.041-1.089-0.224-2.099-0.605-2.985 2.231-1.686 3.479-3.942 3.483-6.442 0.007-2.999-1.826-5.866-4.71-7.46l-0.016 0.002c0.404-0.976 1.168-1.773 2.127-2.222 0.549-0.257 1.156-0.402 1.803-0.404 1.678-0.005 3.132 0.952 3.835 2.341l0.091-0.042c0.386-0.181 0.811-0.281 1.26-0.283 1.579-0.005 2.873 1.217 2.971 2.756 1.792 0.503 3.103 2.128 3.109 4.063 0.002 0.947-0.308 1.815-0.834 2.524 0.774 0.632 1.262 1.584 1.264 2.653 0.004 0.964-0.389 1.83-1.016 2.459-0.285 0.284-0.616 0.52-0.988 0.694-0.448 0.21-0.951 0.33-1.483 0.33-0.003 0.117-0.010 0.236-0.025 0.353-0.155 1.218-0.933 2.206-1.978 2.695-0.496 0.232-1.049 0.346-1.627 0.322-0.014-0.508-0.025-0.983-0.044-1.402-0.137-3.227 2.814-5.875 2.843-5.9 0.164-0.146 0.181-0.391 0.034-0.554s-0.395-0.18-0.559-0.034c-0.137 0.116-3.267 2.917-3.11 6.516 0.033 0.707 0.050 1.561 0.071 2.488 0.037 1.573 0.080 3.34 0.181 4.924zM20.646 11.435c0.136 1.070 0.208 1.551 0.45 1.79 0.111 0.11 0.27 0.163 0.431 0.134 0.033-0.004 0.076-0.012 0.138-0.041 0.234-0.109 0.696-0.523 1.562-2.281 0.099-0.197 0.017-0.43-0.179-0.523-0.194-0.1-0.434-0.017-0.528 0.178-0.29 0.592-0.671 1.262-0.936 1.635-0.058-0.28-0.108-0.667-0.15-1-0.107-0.812-0.237-1.821-0.504-2.65-0.064-0.207-0.285-0.318-0.495-0.254s-0.32 0.283-0.256 0.49c0.242 0.766 0.367 1.737 0.469 2.516l-0.003 0.007zM14.861 21.425l0.002 0.005c0.014-0.718 0.024-1.382 0.044-1.952 0.032-0.888-0.171-1.73-0.484-2.486-0.491 0.317-1.015 0.614-1.587 0.882-0.353 0.165-0.689 0.305-1.020 0.431 0.15 1.625 1.421 2.921 3.045 3.121z"></path>
<path d="M9.968 2.588c4.109 0 7.445 3.306 7.445 7.379s-3.336 7.379-7.445 7.379c-4.109 0-7.445-3.306-7.445-7.379s3.336-7.379 7.445-7.379zM12.202 10.443c-0.659-1.233-1.977-1.233-2.636-0.616s-0.659 1.849 0 3.082c0.461 0.925 1.647 1.849 2.636 2.466 0.988-0.617 2.174-1.541 2.636-2.466 0.659-1.233 0.659-2.466 0-3.082s-1.977-0.617-2.636 0.616zM9.073 8.266c0-0.313-0.078-0.56-0.234-0.741s-0.332-0.31-0.53-0.388c-0.197-0.078-0.479-0.168-0.843-0.268v-1.012c0.197 0.070 0.309 0.222 0.336 0.457h1.205c-0.031-0.409-0.18-0.729-0.448-0.96s-0.632-0.363-1.093-0.398v-0.529h-0.421v0.529c-0.466 0.031-0.846 0.165-1.142 0.405s-0.444 0.557-0.444 0.953c0 0.318 0.077 0.568 0.23 0.751s0.333 0.315 0.537 0.398c0.204 0.083 0.477 0.167 0.82 0.255v1.031c-0.228-0.074-0.356-0.242-0.382-0.503h-1.198c0.018 0.409 0.169 0.732 0.454 0.969s0.661 0.375 1.126 0.414v0.535h0.421v-0.529c0.334-0.013 0.622-0.084 0.866-0.212s0.428-0.294 0.553-0.496c0.125-0.202 0.188-0.423 0.188-0.662zM6.649 6.263c0 0.109 0.034 0.2 0.102 0.274s0.166 0.139 0.293 0.196v-0.907c-0.123 0.022-0.219 0.069-0.29 0.14s-0.105 0.171-0.105 0.297zM7.466 8.769c0.132-0.022 0.236-0.074 0.313-0.156s0.115-0.185 0.115-0.307c0-0.113-0.036-0.206-0.108-0.277s-0.179-0.134-0.319-0.186v0.927z"></path>
</svg>
