<svg xmlns="http://www.w3.org/2000/svg" viewBox="0 0 1200 1200" width="150pt" height="150pt" xmlns:v="https://vecta.io/nano"><path d="M168.74 890.02H75.412c-6.141 0-11.016-4.969-11.016-11.016s4.828-11.016 11.016-11.016h83.719c2.859-4.5 5.625-9 8.25-13.547-1.172 11.906-.703 23.766 1.359 35.578zM481.5 641.76c-14.062 26.859-42.234 45.234-74.625 45.234-7.594 0-15.094-.984-22.312-3.094-15.844 19.359-39.609 30.609-64.922 30.609-1.969 0-3.938-.094-5.813-.234 8.907 49.406 23.672 100.59 54.234 149.44-1.406.75-2.859 1.64-4.171 2.531-14.766 8.813-28.594 17.297-41.906 19.828-1.875.422-3.844.563-5.813.563-9.375 0-16.078-3.61-17.156-6.282-1.406-3.75-.656-12.328.094-20.156l.984-12.328c1.641-34.547-12.656-61.641-37.969-72.188-7.031-2.953-14.438-4.5-21.891-4.5-8.344 0-16.5 1.875-24.328 5.485-6.703 3.094-13.078 7.5-18.797 12.75 8.672-25.219 14.625-50.391 19.031-75.141-1.969.093-3.937.234-5.953.234-25.312 0-48.984-11.203-64.922-30.609-7.172 2.11-14.625 3.094-22.219 3.094-46.453 0-84.188-37.828-84.188-84.188 0-31.031 16.5-58.781 42.891-73.5-4.828-12.562-7.359-25.969-7.359-39.703 0-51.047 34.969-95.062 84.047-106.83 18.375-37.969 56.578-62.156 99.141-62.156 14.531 0 28.734 2.859 41.719 8.25.984 4.641 2.203 9.141 3.515 13.547-38.391 26.625-61.641 70.406-61.641 118.31 0 79.312 64.5 143.81 143.81 143.81 9.469 0 18.938-.891 27.938-2.766 18.844 19.641 42.609 33.469 68.578 39.984zm185.53-18.7c9.703 55.453 23.766 112.55 48.656 168.79-14.766 5.062-31.781 8.344-51.281 9.797-15.188 1.125-31.266 1.219-46.781 1.312h-15.188c-15.609 0-30.938.094-46.781 1.078-28.5 1.969-56.766 6.938-84.188 14.766 33-64.922 50.297-131.39 61.406-195.74-5.297.75-10.453 1.219-15.844 1.219-37.828 0-73.172-17.484-96.281-47.203-11.531 3.61-23.531 5.391-35.766 5.391-67.219 0-121.82-54.703-121.82-121.82 0-46.547 25.734-88.031 66.562-108.7-8.484-19.688-12.75-40.828-12.75-62.719 0-75.609 52.5-140.63 125.68-157.03 26.297-56.906 83.062-93.328 146.11-93.328 61.312 0 117.09 34.875 144.14 89.438h5.719c88.781 0 160.87 72.094 160.87 160.87 0 24.422-5.485 48.656-16.172 70.547 33.234 22.547 53.484 60.281 53.484 100.92 0 67.125-54.703 121.82-121.92 121.82-12.234 0-24.188-1.781-35.766-5.391a121.58 121.58 0 0 1-96.281 47.203c-5.25 0-10.547-.468-15.797-1.219zM1135.5 879c0 6.047-4.969 11.016-11.016 11.016h-180.79c3.844-10.359 6.281-21.469 6.609-33.562.235-7.5-.328-14.859-.89-21.328l-.235-1.969c-.328-3.844-1.078-11.906-.89-16.406 2.531-.422 6.14-.75 9.469-1.125l1.312-.094c8.578-.89 18.281-1.781 28.172-5.484 7.031-2.531 13.547-6.281 19.125-10.875 8.578 23.109 19.828 46.312 34.312 68.906h83.719c6.141-.094 11.109 4.875 11.109 10.922zm25.7-276.19c0 46.312-37.828 84.188-84.188 84.188-7.594 0-15.094-.984-22.359-3.094-7.922 9.703-17.719 17.391-28.828 22.547-4.172-9.14-10.219-17.297-17.812-23.766-14.859-12.656-29.25-14.062-39.844-15.094-2.625-.094-4.734-.328-6.938-.89-11.438-2.625-23.859-4.407-36-6.141l-2.296-.328c-8.907-1.219-18.141-2.531-25.969-4.078-5.719-1.078-12.75-4.313-20.344-7.594l-.657-.328c-10.688-4.828-22.219-9.891-35.344-12.562-3.843-.75-11.109-2.203-19.266-2.203-21.891 0-34.781 9.89-41.906 18.469-8.25 10.219-10.875 21.328-10.875 31.266-21.656-6.469-39.703-21.656-50.062-41.484 25.969-6.469 49.641-20.344 68.438-40.031 9.141 1.875 18.469 2.765 27.938 2.765 79.312 0 143.9-64.5 143.9-143.81 0-41.578-17.953-80.766-48.656-107.81 3.844-10.359 6.703-21 8.578-31.781 2.954-.328 5.954-.422 8.907-.422 41.062 0 78.469 22.875 97.359 59.109 61.828-.75 111.47 48.75 111.47 109.92 0 15.609-3.282 31.125-9.703 45.328 21.469 15.656 34.453 40.875 34.453 67.828zm-151 147.98c-3.281 18.375-14.625 32.812-30.375 38.531-7.922 2.953-16.172 3.609-24.094 4.406-9.563.891-17.953 1.547-23.203 6.141-7.266 6.469-6.844 17.625-5.156 35.344.562 6.703 1.219 13.734.984 20.578-.75 28.5-16.969 51.281-32.438 73.266-7.828 10.875-15.094 21.234-20.672 32.109-20.344 40.406-13.406 92.203 15.938 126.1 7.922-2.203 16.594-.422 23.859 4.64 8.016 5.719 13.219 14.625 13.875 24 .985 15.75-9.375 31.266-25.312 37.828-15.516 6.047-31.266 3.282-41.719-.234-37.312-12.422-66-50.625-73.172-97.172-2.531-16.078-2.859-33.141-.984-52.594-14.766 7.828-30.141 14.297-45.984 19.359 2.297 24.094 11.766 46.875 26.859 64.172 7.922-2.109 16.594-.422 23.859 4.641 8.015 5.718 13.219 14.625 13.875 24.094.984 15.609-9.375 31.125-25.312 37.734-6.61 2.531-13.219 3.515-19.5 3.515-8.485 0-16.172-1.781-22.219-3.75-37.312-12.422-66-50.625-73.172-97.172-.891-5.812-1.547-12.094-1.875-18.703-5.719.328-11.438.563-17.297.563-20.578 0-41.25-2.11-61.641-6.281-7.828 17.812-21.141 32.672-37.547 41.578l-1.547.89c-2.953 1.547-9.797 5.156-9.891 7.031 0 .985 4.078 4.313 10.219 5.063 1.641.234 3.422.328 5.297.422 8.906.656 19.922 1.547 28.5 9.469 6.047 5.625 9.235 13.641 8.906 22.547-.421 10.359-5.718 20.812-13.734 27.188-11.109 8.906-25.219 10.781-36.656 10.781-2.297 0-4.64-.094-6.703-.235-36.516-1.969-65.344-17.812-76.922-42.469-7.922-17.062-6.937-34.969-6.047-52.266l.563-12.328c.094-3.094 0-5.953-.234-8.812-5.485 1.218-11.109 1.875-16.594 2.203-4.5.328-9.141.328-13.641.422-11.109.234-21.562.421-30.469 4.078-6.141 2.437-11.672 8.156-13.734 14.062-1.219 3.187-1.079 6.14.234 8.484 2.203 3.844 7.031 6.61 12.656 9.797 5.484 3.188 11.766 6.703 16.734 12.234 7.828 8.672 10.875 20.812 8.344 33.328-2.766 13.734-11.766 25.734-23.672 31.359-6.141 2.953-12.984 4.313-19.922 4.313-16.078 0-32.906-7.5-44.016-20.812-12.891-15.094-19.125-36.75-17.625-60.938 1.078-17.391 5.625-33.984 10.125-50.062l2.109-7.5c3.281-12 6.703-25.406 7.594-38.859-35.109 5.625-77.906-7.688-105.19-34.219-29.578-28.828-41.25-74.719-28.734-114.23 5.297-16.734 17.484-31.594 31.266-37.828 9.469-4.407 19.359-4.641 28.406-.75 16.594 6.937 25.875 25.969 24.656 50.812-.234 3.843-.563 7.687-.891 11.531-1.125 11.109-2.109 21.562 1.406 30.281 6.61 16.406 29.391 22.547 47.438 19.125 17.297-3.422 32.812-12.75 49.172-22.688 3.516-2.204 7.172-4.313 10.781-6.375 51.938-30.281 111.14-48.422 171.24-52.594 17.953-1.219 36-1.079 53.484-1.079 18.281-.093 37.078 0 55.453-1.406 40.734-2.953 72.938-13.547 95.953-31.453 27.281-21.469 41.062-56.109 33.328-84.375l-.984-3.609c-3.187-11.016-7.594-26.062 2.203-38.297 11.672-13.969 31.359-10.125 39.703-8.485 10.781 2.204 20.812 6.61 30.375 11.016 9 3.938 17.625 7.829 25.969 9.469 8.156 1.641 17.484 2.953 27.281 4.313 12.328 1.781 25.078 3.515 36.188 6.14 3.75.891 7.031 1.219 10.547 1.407 8.156.75 17.297 1.546 26.859 9.796 13.922 11.906 20.297 31.5 16.641 51.422z"/></svg>