<?xml version="1.0" encoding="UTF-8"?>
<svg version="1.1" viewBox="0 0 1200 1200" xmlns="http://www.w3.org/2000/svg" width="150pt" height="150pt">
 <path d="m1055.1 909.61h-78.328l-4.0312-100.27c-0.09375-1.875 1.4062-3.4688 3.2812-3.5156 1.1719-0.046875 2.25 0.51562 2.8594 1.4062 8.9062 12.141 19.078 18.703 30.281 22.219 9.9844 3.1406 20.859 3.8906 32.438 4.0312-1.7812-3.7031-4.125-7.0781-6.4688-10.453-1.5469-2.25-3.1406-4.5-4.6406-7.0312-0.98438-1.5938-0.42188-3.7031 1.1719-4.6875 0.5625-0.32812 1.1719-0.46875 1.7344-0.46875 12.234 0 18.984 1.6406 25.641 3.2812 4.9688 1.2188 9.8906 2.4375 17.344 2.8594-5.5781-11.484-10.266-19.734-14.438-27-9.6094-16.828-16.453-28.734-24.188-63.047-0.42188-1.8281 0.75-3.6562 2.5781-4.0781 0.42188-0.09375 0.79688-0.09375 1.1719-0.046875 6.9375 0.75 12.375 4.0781 17.531 7.2188 1.9688 1.1719 3.8438 2.3438 5.7188 3.2812-14.297-24.75-24.047-47.906-33.516-70.453-5.1562-12.234-10.219-24.328-15.984-36.516-0.79688-1.6875-0.09375-3.75 1.6406-4.5469 1.5-0.70312 3.2344-0.23438 4.1719 1.0312 1.9688 2.3438 13.359 2.0156 21.328 1.6406-17.672-21.422-36.609-44.625-43.219-74.391-0.32812-1.4062 0.28125-2.7656 1.4062-3.5156 2.9062-2.0156 5.5312-0.84375 9 0.75 3.5156 1.5938 8.4844 3.8906 15.188 0.9375-2.8125-4.3125-6.6562-9.4219-10.922-15.047-12.094-16.031-27.281-36.234-32.438-55.734-0.46875-1.8281 0.60938-3.7031 2.4375-4.1719 0.28125-0.09375 0.5625-0.09375 0.89062-0.09375 2.2031 0 6.375 0.98438 10.547 1.9688l1.7812 0.42188c-13.781-22.453-24.141-53.484-35.25-86.484l-3.2812-9.75c-3.9844 13.734-9.375 30.516-16.266 46.688-7.3125 17.062-16.266 33.516-27.141 45.141 7.1719-0.75 15.562-1.6406 15.797-1.8281 1.3594-1.3125 3.5156-1.2188 4.8281 0.14062 1.0312 1.0781 1.1719 2.6719 0.5625 3.8906-2.5312 5.25-14.719 26.484-28.172 44.719-5.5781 7.5469-11.391 14.578-16.875 19.875 7.4531 0.32812 14.672 0.14062 19.125-5.3438 1.1719-1.4531 3.3281-1.6875 4.7812-0.51562 1.2188 0.98438 1.5938 2.625 0.98438 3.9844-5.3906 12.562-13.969 30.797-24.656 48-5.9062 9.5625-12.516 18.75-19.547 26.531 4.4531-0.14062 9.9844-0.28125 14.531-0.5625h0.09375c3.5156-0.14062 5.1094 1.6875 5.5312 0.79688 0.89062-1.6406 2.9531-2.2969 4.5938-1.4062 1.5469 0.84375 2.2031 2.7188 1.5469 4.3125-4.2188 10.125-14.062 29.906-26.625 51.516-7.9688 13.734-17.062 28.172-26.484 41.344 5.8594-0.60938 13.922-1.5469 19.688-2.2031 4.3594-0.51562 7.5-0.84375 7.9219-0.84375 1.875 0.14062 3.2812 1.8281 3.0938 3.7031-0.046875 0.32812-0.09375 0.60938-0.1875 0.89062-4.3594 15.844-9.9844 32.859-18.375 50.625-7.7812 16.5-17.906 33.609-31.547 51 8.3906 1.1719 18.75 1.3125 29.109 0.60938 12.516-0.89062 25.031-3.0938 34.078-6.4219 1.7812-0.65625 3.75 0.28125 4.3594 2.0156 0.28125 0.70312 0.28125 1.4531 0.046875 2.1562-2.3906 8.0156-8.9062 18.281-13.828 26.016l-2.1094 3.2812c8.625-2.3906 24.188-7.7344 37.453-13.219 11.578-4.7812 21.094-9.375 21.75-11.484 0.5625-1.7812 2.4375-2.8125 4.2656-2.25 1.0312 0.32812 1.7812 1.0312 2.1562 1.9688 5.625 13.5 2.7656 51 0.60938 79.125-0.51562 6.7031-0.98438 12.797-1.2656 17.953h-125.39l-3.2344-80.625c-0.09375-1.875 1.4062-3.4688 3.2812-3.5156 1.1719-0.046875 2.25 0.51562 2.8594 1.4062 7.2188 9.8438 15.469 15.141 24.562 18 8.5312 2.6719 17.906 3.2344 27.891 3.2812 0.1875-0.60938 0.23438-1.2188-0.32812-2.5781-0.5625 0.09375-0.98438 0.09375-1.3125 0.09375-0.28125 0-0.51563-0.046875-0.79688-0.14062-1.7812-0.5625-2.8125-2.4375-2.25-4.2188 0.65625-2.1562 3.0938-5.9531 6.0938-10.688 3.375-5.3438 7.5938-11.953 10.453-17.906-8.5781 2.3438-18.75 3.8906-28.922 4.5938-13.312 0.9375-26.719 0.42188-36.422-1.6875-0.5625-0.09375-1.0781-0.32812-1.5469-0.70312-1.4531-1.1719-1.6875-3.3281-0.51562-4.7812 15.094-18.469 26.016-36.656 34.266-54.141 7.4062-15.703 12.609-30.797 16.688-44.953l-2.25 0.28125c-9.5156 1.0781-25.125 2.8594-27.656 2.8594-0.70312 0-1.4062-0.23438-2.0625-0.70312-1.5-1.125-1.8281-3.2812-0.70312-4.7812 9.6562-12.938 19.078-27.469 27.422-41.531-5.5781-7.0312-10.969-14.438-15.609-22.359-5.0625-8.7188-9.1406-18.094-11.438-28.453-0.32813-1.4062 0.28125-2.7656 1.4062-3.5156 2.6719-1.875 4.9688-0.79688 7.9688 0.5625 2.6719 1.2188 6.375 2.9062 11.297 1.0312-2.25-3.375-5.25-7.3594-8.5312-11.719-9.9375-13.219-22.453-29.859-26.719-45.938-0.46875-1.8281 0.60938-3.7031 2.4375-4.1719 0.28125-0.09375 0.5625-0.09375 0.84375-0.09375 1.875 0 5.3438 0.79688 8.8125 1.6406-10.922-18.375-19.312-43.312-28.219-69.891l-2.0625-6.1406c-3.2344 10.922-7.4531 23.953-12.844 36.516-5.7656 13.5-12.844 26.531-21.328 36.047 5.3906-0.5625 10.969-1.125 11.016-1.1719 1.3594-1.2656 3.5156-1.2188 4.7812 0.14062 0.98438 1.0312 1.1719 2.5781 0.60938 3.7969-2.0156 4.1719-12.094 21.797-23.203 36.891-4.2188 5.7188-8.6719 11.156-12.891 15.375 5.4375 0.14062 10.594-0.28125 13.781-4.2188 1.1719-1.4531 3.3281-1.6875 4.7812-0.51562 1.2188 0.98438 1.5938 2.625 0.98437 3.9844-4.4531 10.312-11.484 25.312-20.25 39.469-4.5938 7.4062-9.7031 14.625-15.188 20.812 3.375-0.09375 7.2188-0.23438 10.5-0.42188 2.7188-0.14062 3.6094 1.9219 4.125 0.98438 0.89063-1.6406 2.9531-2.2969 4.5938-1.4062 1.5469 0.84375 2.2031 2.7188 1.5469 4.3125-3.4688 8.3438-11.578 24.609-21.891 42.375-6.3281 10.922-13.547 22.359-21 32.906 4.6406-0.51562 10.547-1.1719 14.859-1.6875 3.6094-0.42188 6.1875-0.70312 6.6094-0.65625 1.875 0.14062 3.2812 1.7812 3.1406 3.7031-0.046876 0.32812-0.09375 0.60938-0.1875 0.89062-3.5625 13.031-8.2031 27-15.094 41.578-6.2812 13.312-14.391 27.094-25.312 41.156 6.6562 0.79688 14.672 0.89062 22.734 0.32812 10.219-0.70312 20.391-2.5312 27.797-5.25 1.7812-0.65625 3.75 0.28125 4.3594 2.0156 0.28125 0.70312 0.28125 1.4531 0.046876 2.1562-2.0156 6.6562-7.3594 15.141-11.438 21.469l-0.89063 1.3594c7.2188-2.1094 18.984-6.1875 29.156-10.406 9.3281-3.8438 17.016-7.5 17.484-9.0469 0.5625-1.7812 2.4375-2.8125 4.2188-2.25 1.0312 0.32812 1.7812 1.0312 2.1562 1.9688 4.6875 11.203 2.3438 42.094 0.5625 65.25-0.375 4.875-0.65625 9.1406-0.9375 13.031h-108.61l-2.625-65.625c-0.09375-1.875 1.4062-3.4688 3.2812-3.5156 1.1719-0.046875 2.25 0.51562 2.8594 1.4062 5.9531 8.1094 12.703 12.469 20.156 14.812 6.9375 2.1562 14.625 2.6719 22.828 2.7188v-0.14062c0.046876-0.51562-0.046874-1.0781-0.32812-1.7344l-0.23438-0.46875-0.09375-0.28125-0.09375-1.0312c0-0.09375 0-0.14062 0.046876-0.23438v-0.1875l0.046874-0.14062v-0.09375l0.046876-0.09375c0.5625-1.875 2.5781-5.0156 5.0625-8.9531 2.5312-4.0312 5.6719-8.9062 7.9688-13.406-6.7969 1.7344-14.672 2.9062-22.547 3.4688-10.969 0.79688-21.984 0.375-30.047-1.4062-0.5625-0.09375-1.0781-0.32812-1.5469-0.70312-1.4531-1.1719-1.6875-3.3281-0.51562-4.7812 12.328-15.094 21.281-30 28.031-44.297 5.9062-12.516 10.125-24.609 13.406-35.953l-0.89063 0.09375c-7.7812 0.89062-20.672 2.3906-22.781 2.3906-0.70312 0-1.4062-0.23438-2.0625-0.70312-1.5-1.125-1.8281-3.2812-0.70312-4.7812 7.6406-10.219 15.094-21.703 21.75-32.859-5.1562-6.3281-10.266-12.938-14.625-20.109-4.875-7.9688-8.8594-16.594-10.969-26.203-0.32813-1.4062 0.28125-2.7656 1.4062-3.5156 2.4844-1.7344 4.5469-0.79688 7.2188 0.42188 1.9688 0.89062 4.7344 2.1562 8.2969 1.0781-1.8281-2.6719-4.125-5.7656-6.6562-9.1406-8.2969-11.062-18.797-24.938-22.359-38.484-0.46875-1.8281 0.60937-3.7031 2.4375-4.1719 0.28125-0.09375 0.5625-0.09375 0.89062-0.09375 1.4062 0 3.75 0.51562 6.1875 1.0781-8.8125-15.234-15.656-35.578-22.875-57.188l-1.1719-3.4219c-2.625 8.7656-6 18.938-10.219 28.781-4.5938 10.828-10.219 21.281-16.969 29.156 3.8906-0.375 7.4531-0.70312 7.4531-0.75 1.3594-1.3125 3.5156-1.2188 4.8281 0.14062 1.0312 1.0781 1.1719 2.6719 0.5625 3.8906-1.7812 3.6562-10.125 18.234-19.359 30.75-3.2344 4.4062-6.6094 8.5312-9.8906 11.906 3.8906 0 7.4531-0.5625 9.7031-3.3281 1.1719-1.4531 3.3281-1.6875 4.7812-0.51562 1.2188 0.98438 1.5938 2.625 0.98438 3.9844-3.7031 8.625-9.6094 21.141-16.922 32.953-3.6094 5.8125-7.5938 11.484-11.859 16.453 2.4375-0.09375 5.1094-0.1875 7.4062-0.28125h0.14062c1.0781 0 2.0625 0.46875 2.7188 1.2656 0.046876-0.046875 0.09375-0.09375 0.09375-0.14062 0.89063-1.6875 2.9531-2.2969 4.5938-1.4062 1.6406 0.84375 2.25 2.8594 1.5 4.5-2.9531 6.9844-9.6562 20.484-18.234 35.203-5.1094 8.7656-10.828 17.906-16.781 26.438 3.6094-0.375 7.875-0.89062 11.062-1.2656 3.0938-0.375 5.25-0.60938 5.6719-0.5625 1.875 0.14062 3.2812 1.8281 3.0938 3.7031-0.046874 0.32812-0.09375 0.60938-0.1875 0.89062-3 10.875-6.8438 22.547-12.609 34.688-5.1094 10.875-11.719 22.125-20.531 33.609 5.2969 0.5625 11.531 0.60938 17.812 0.1875 8.4844-0.60938 16.922-2.0625 23.016-4.3594 1.7812-0.65625 3.75 0.28125 4.3594 2.0156 0.28125 0.70312 0.28125 1.4531 0.046874 2.1562-1.6875 5.5781-6.1406 12.609-9.5156 17.953 6-1.8281 14.953-4.9688 22.828-8.2031 7.6406-3.1406 13.922-6.0938 14.25-7.1719 0.5625-1.7812 2.4375-2.8125 4.2656-2.25 1.0312 0.32812 1.7812 1.0312 2.1562 1.9688 3.9844 9.4688 1.9688 35.297 0.51562 54.609-0.28125 3.375-0.46875 6.4219-0.65625 9.2812h-154.74c-0.1875-3.1875-0.46875-6.8906-0.79688-11.016-0.84375-10.969-2.1094-27.703-1.3594-37.688 3.3281 1.7812 8.1094 3.8906 15 6.5156 0.1875 0.09375 19.125 7.2188 23.391 6.8906 1.5-0.09375 2.8125-0.84375 3.6562-2.0625s1.0781-2.7656 0.65625-4.1719c-0.46875-1.5469-1.6406-3.4219-3.9844-7.125-0.98438-1.5469-2.1094-3.3281-3.1875-5.1562 11.438 2.1094 25.266 2.4375 34.453 0.375 1.6406-0.375 2.9531-1.5469 3.5156-3.1406s0.23438-3.3281-0.84375-4.6406c-16.266-19.922-24.094-38.953-28.828-54.422 8.25 0.9375 12.75 1.4062 14.062 1.4062 1.8281 0 3.5156-1.0312 4.3125-2.6719 0.84375-1.6406 0.65625-3.6094-0.46875-5.0625-12.422-16.594-24.094-37.688-30.281-50.484 0.46875 0 0.98438 0.046875 1.5 0.046875 3.9844 0.14062 9.2812 0.23438 9.6562 0.23438 1.9219-0.09375 3.6562-1.3125 4.3125-3.1406s0.1875-3.8906-1.2188-5.2031c-9.4688-8.9531-17.766-23.484-23.531-35.297 1.875 0.046875 3.7031-0.046875 5.4375-0.14062 1.2188-0.046875 2.4844-0.14062 3.7031-0.14062 2.1094 0 4.0312-1.4062 4.6406-3.4219 0.60938-2.0625-0.1875-4.2656-1.9688-5.4375-7.3594-4.875-17.953-20.719-24.234-31.172 1.875 0.1875 4.0312 0.42188 6.5625 0.70312l0.51562 0.046875c2.1562 0.23438 4.1719-0.98438 4.9688-3 0.79688-1.9688 0.1875-4.2656-1.5-5.625-11.062-8.7656-21.141-29.672-30-62.109-0.5625-2.0625-2.3906-3.4688-4.5-3.5625h-0.14062c-2.0625 0-3.8906 1.3125-4.5938 3.2812-1.4062 4.0781-2.7656 8.1094-4.0781 12.094-7.125 21.234-13.875 41.297-22.875 54.141-1.0312 1.5-1.1719 3.4219-0.32812 5.0156s2.4844 2.625 4.3125 2.625c1.0781 0 2.3438-0.23438 4.0781-0.60938-3.8906 8.1094-10.125 16.359-15.375 23.344-3.0938 4.0781-5.6719 7.5938-7.5938 10.688-11.109-11.297-20.766-28.359-27.375-42.141 2.7656 0.23438 5.5312 0.09375 8.0625-0.046875 1.5-0.09375 3-0.14062 4.4531-0.14062 2.1094 0 4.0312-1.4062 4.6406-3.4219 0.60938-2.0625-0.1875-4.2656-1.9688-5.4375-9.3281-6.2344-22.969-26.812-30.375-39.375 2.625 0.28125 5.8594 0.65625 9.8906 1.0312l0.5625 0.046875c2.1562 0.23438 4.1719-0.98438 4.9688-3 0.79688-1.9688 0.1875-4.2656-1.5-5.625-13.453-10.641-25.688-35.859-36.328-75-0.5625-2.0625-2.3906-3.5156-4.5-3.5625s-4.0312 1.2656-4.7344 3.2812c-1.6875 4.875-3.2812 9.75-4.9219 14.531-8.5781 25.547-16.688 49.688-27.609 65.203-1.0312 1.5-1.1719 3.4219-0.32812 5.0156s2.4844 2.625 4.3125 2.625c1.5469 0 3.6094-0.42188 6.6094-1.125-4.6406 10.406-12.656 21.047-19.359 29.953-2.5312 3.3281-4.6406 6.2812-6.5625 9.0469-14.156-14.344-26.344-36.469-34.453-53.578 3.9375 0.5625 7.9219 0.32812 11.531 0.14062 1.9219-0.09375 3.75-0.1875 5.5312-0.1875 2.1094 0 4.0312-1.4062 4.6406-3.4219 0.60938-2.0625-0.1875-4.2656-1.9688-5.4375-11.953-7.9688-29.625-35.016-38.438-50.156 3.5156 0.42188 8.0625 0.9375 14.062 1.5l0.75 0.09375c2.1562 0.23438 4.1719-0.98438 4.9688-3 0.79688-1.9688 0.1875-4.2656-1.5-5.625-16.547-13.125-31.594-44.062-44.672-91.969-0.5625-2.0625-2.3906-3.5156-4.5-3.5625-2.1094-0.09375-4.0312 1.2656-4.7344 3.2812-2.0156 5.9531-4.0312 11.859-6 17.719-10.453 31.219-20.344 60.703-33.75 79.734-1.0312 1.5-1.1719 3.4219-0.32812 5.0156s2.4844 2.625 4.3125 2.625c2.0156 0 5.0156-0.65625 9.6562-1.7812 0.046875 0 0.14062-0.046875 0.1875-0.046875-5.5781 13.406-15.938 27.188-24.562 38.625-4.8281 6.4219-9 11.953-11.719 16.594-1.3125 2.25-0.60938 5.1094 1.5938 6.5156 8.1094 5.1562 14.719 4.3125 19.406 2.7188-6.7969 20.906-21 38.109-34.828 54.797l-3.1406 3.7969c-1.1719 1.4531-1.4531 3.4688-0.65625 5.1562s2.4844 2.7656 4.3594 2.7656c0.9375 0 2.3438 0.046875 4.0312 0.14062 5.3906 0.23438 10.266 0.42188 14.438 0.14062-3.375 7.5938-6.6094 15.234-9.75 22.734-9 21.375-18.281 43.453-32.625 67.078-0.89062 1.5-0.9375 3.375-0.09375 4.875s2.4844 2.4844 4.2188 2.4844c5.9062 0 10.734-2.9531 15.422-5.8125 1.6875-1.0312 3.3281-2.0625 4.9688-2.9062-5.7188 22.688-10.922 31.828-18.422 44.906-4.2656 7.4531-9.1406 15.938-15.047 28.641-0.70312 1.5-0.5625 3.2344 0.28125 4.6406 0.89062 1.4062 2.4375 2.25 4.0781 2.25 10.312 0 16.219-1.4531 21.891-2.8594 3.4688-0.84375 6.8438-1.6875 11.25-2.2031-2.6719 3.8906-5.25 8.0156-6.8438 13.078-0.46875 1.4531-0.1875 3.0938 0.70312 4.3125s2.3438 1.9688 3.8906 1.9688c20.438 0 40.172-1.4062 56.484-15.938l-3.0938 77.203h-50.016c-3.1875 0-5.8125 2.5781-5.8125 5.8125 0 3.1875 2.5781 5.8125 5.8125 5.8125h892.4c3.1875 0 5.8125-2.5781 5.8125-5.8125 0-3.1875-2.5781-5.8125-5.8125-5.8125zm-797.68-18.609c-1.4062-18.422-3.4219-44.719-1.6406-58.875 4.5938 2.7188 12.141 6.2812 24.609 11.016 4.6875 1.7812 15.656 5.6719 23.906 8.0156-0.28125 1.7812-0.046875 3.2812 0.46875 4.9219 0.14062 0.375 0.1875 0.5625 0.1875 0.70312 0.1875 2.5312 2.2969 4.5 4.8281 4.5 16.359 0 32.109-1.0781 45.422-12l-2.4375 60.328h-94.125c-0.23438-5.0625-0.75-11.484-1.2656-18.609zm133.74 4.3125c-1.125-14.578-2.6719-35.109-1.5-46.828 3.8906 2.2031 9.8906 4.9219 19.219 8.4375 0.1875 0.046875 13.688 5.1562 22.078 7.2656 0.1875 1.5 0.65625 2.8125 1.0312 3.75 0.70312 1.875 2.5312 3.1406 4.5469 3.1406 13.219 0 26.016-0.84375 36.984-9.0938l-1.9219 47.578h-79.359c-0.23438-4.0312-0.5625-8.8594-0.98438-14.297zm67.219-209.53c7.4531-9.8906 16.688-22.172 19.922-34.406 0.375-1.4531 0.09375-3-0.84375-4.1719s-2.3438-1.875-3.8438-1.875c-0.5625 0-1.1719 0.046875-1.875 0.1875 6.6094-12.469 11.953-28.125 17.484-44.531 5.9531 18.562 12.422 32.578 19.547 42.328-1.3125-0.1875-1.9219-0.32812-2.25-0.375-1.5469-0.70312-3.4219-0.5625-4.875 0.51562-1.875 1.3594-2.5312 3.8906-1.5 6 1.4062 2.9531 11.906 21.703 22.641 34.266-0.9375-0.32812-1.7344-0.89062-2.3906-1.6875-1.5-1.875-4.1719-2.3438-6.2812-1.125-2.0625 1.2656-2.9062 3.8438-1.9688 6.0469 4.4062 10.266 12.609 27.422 22.922 40.594-2.6719-0.09375-4.9688-0.23438-5.9531-0.375-1.2188-0.46875-2.5781-0.46875-3.8438 0.14062-2.3438 1.125-3.375 3.8438-2.3906 6.2344 3.7969 9.0938 15.328 31.594 28.641 51.188-2.2031-0.23438-4.3125-0.46875-5.7656-0.65625-3.1406-0.375-4.875-0.51562-5.25-0.51562-1.4531 0.09375-2.7656 0.84375-3.5625 2.0625-0.84375 1.1719-1.0781 2.6719-0.70312 4.0312 4.3125 15.797 11.297 36.234 27.422 58.125-10.406 0.60938-23.672-0.84375-31.688-3.8438-1.7344-0.65625-3.6562-0.23438-4.9688 1.0312s-1.8281 3.1406-1.3125 4.9219c1.125 3.7031 3.4688 7.9688 5.8594 11.859-10.172-3.4219-24.047-8.9531-26.812-11.531-0.79688-1.5-2.2969-2.5312-4.0781-2.625-2.0156-0.09375-3.9375 1.0781-4.6875 2.9531-3.375 8.0625-2.2969 26.062-0.5625 48.797 0.28125 3.8438 0.5625 7.3125 0.75 10.266h-14.953l2.3906-59.766c0.09375-2.1094-1.2188-4.0781-3.2344-4.7812s-4.2188 0-5.4844 1.6875c-9 12.234-20.25 14.297-33.891 14.578v-0.14062c0.14062-0.75 0.14062-1.5938-0.09375-2.3438-0.046875-0.1875-0.1875-0.42188-0.28125-0.65625v-0.046875c-0.65625-1.6406-1.9688-3.75-4.4062-7.5938-1.5469-2.3906-3.3281-5.25-4.9688-8.0625 13.969 2.9062 31.547 3.4219 43.078 0.89062 1.6406-0.375 2.9531-1.5469 3.5156-3.1406s0.23438-3.3281-0.84375-4.6406c-20.109-24.609-29.578-48.188-35.203-67.031 10.594 1.2188 16.641 1.875 18.234 1.875 1.8281 0 3.5156-1.0312 4.3125-2.6719 0.84375-1.6406 0.65625-3.6094-0.46875-5.0625-6.4219-8.625-12.656-18.234-18.328-27.609 9.4219-11.672 18.516-24.422 22.031-40.266 0.42188-1.9219-0.375-3.8906-1.9688-5.0156-3.0469-2.1094-6.2344-0.65625-8.1562 0.23438-1.0781 0.51562-2.1094 0.9375-3.1406 1.125 1.2188-1.6406 2.5781-3.4688 3.9844-5.3906zm-12.938 12.891c3.9844 2.1562 7.5469 2.4844 10.359 2.0625-3.5625 9.3281-9.2812 17.672-15.422 25.5-5.5312-9.7031-10.266-18.75-13.547-25.5 3.6094 0.1875 8.3906 0.28125 14.672 0.28125 1.6406 0 3.0469-0.98438 3.8906-2.3438zm-110.11-59.344c8.8594-11.766 19.922-26.438 23.766-40.922 0.375-1.4531 0.09375-3-0.84375-4.1719s-2.3438-1.875-3.8438-1.875c-1.0781 0-2.3906 0.1875-4.0781 0.5625 8.7188-15.891 15.609-36.375 22.781-57.891 7.7344 24.844 16.219 43.078 25.594 55.172-3.375-0.42188-4.6875-0.70312-5.1562-0.79688-1.5938-0.75-3.4688-0.60938-4.9688 0.46875-1.875 1.3594-2.5312 3.8906-1.5 6 1.5469 3.1875 15.516 28.125 28.969 43.078-2.7188-0.28125-4.7812-1.0312-6.2812-2.9531-1.5-1.875-4.1719-2.3438-6.2812-1.125-2.0625 1.2656-2.9062 3.8438-1.9688 6.0469 5.4844 12.703 15.75 34.266 28.688 50.156-4.2188-0.14062-8.0625-0.375-9.4688-0.5625-1.2188-0.51562-2.625-0.51562-3.9375 0.09375-2.3438 1.125-3.375 3.8438-2.3906 6.2344 3.1875 7.6406 11.062 23.297 20.953 40.125 0.046875 0.09375 0.14062 0.1875 0.1875 0.28125 4.4531 7.5469 9.2812 15.234 14.344 22.594-3.3281-0.375-6.75-0.75-8.9062-1.0312-3.75-0.42188-5.8594-0.60938-6.2344-0.60938-1.4062 0.14062-2.7188 0.89062-3.5625 2.0625-0.79688 1.1719-1.0781 2.6719-0.70312 4.0312 5.25 19.172 13.781 44.156 33.797 70.828-12.891 0.98438-30.047-0.75-40.172-4.5-1.7344-0.65625-3.6562-0.23438-4.9688 1.0312-1.3594 1.2656-1.8281 3.1406-1.3125 4.9219 1.5 5.0625 5.0156 10.969 8.2969 16.219-12.469-4.0312-31.781-11.438-35.109-14.953-0.75-1.5938-2.3438-2.7188-4.125-2.7656-2.0156-0.09375-3.9375 1.0781-4.6875 2.9531-3.9375 9.4688-2.625 31.922-0.60938 58.078 0.375 5.1562 0.75 9.75 0.9375 13.547h-20.016l2.9531-72.891c0.09375-2.1094-1.2188-4.0781-3.2344-4.7812s-4.2188 0-5.4844 1.6875c-10.641 14.531-23.906 17.344-39.75 17.812 0.14062-0.14062 0.375-0.23438 0.46875-0.42188 0.84375-1.2188 1.0781-2.7656 0.65625-4.1719-0.60938-2.0156-2.25-4.5938-5.5781-9.8438-2.25-3.5156-4.9688-7.7812-7.2188-11.906 17.203 3.9375 39.75 4.7812 54.328 1.5469 1.6406-0.375 2.9531-1.5469 3.5156-3.1406s0.23438-3.3281-0.84375-4.6406c-25.172-30.797-36.703-60.234-43.547-83.578 13.828 1.5938 21.703 2.4375 23.672 2.4375 1.8281 0 3.5156-1.0312 4.3125-2.6719 0.84375-1.6406 0.65625-3.6094-0.46875-5.0625-8.2031-10.969-16.172-23.297-23.297-35.25 9.9844-12.703 19.453-26.859 23.297-44.203 0.42188-1.9219-0.375-3.8906-1.9688-5.0156-3.2344-2.2031-6.6094-0.65625-8.8125 0.32812-1.9219 0.89062-3.7969 1.7344-6.0938 1.5 1.6875-2.3906 3.75-5.1094 5.9531-8.0625zm-0.79688 17.203c-3.7969 10.828-10.078 20.391-16.781 29.25-7.3594-12.844-13.547-24.75-17.578-33.281 1.6875 0.09375 3.6562 0.14062 5.9062 0.23438 5.1562 0.1875 10.547 0.32812 12.75 0.32812 0.23438 0.1875 0.375 0.46875 0.65625 0.60938 6.0469 3.8438 11.156 3.7969 15 2.8125zm-111.75 158.16c-2.0156-0.70312-4.2188 0-5.4844 1.6875-13.5 18.422-30.281 21.703-50.438 22.219 1.2188-2.1094 2.625-4.125 4.0781-6.1875 1.4062-2.0156 2.8125-4.0781 4.125-6.2344 0.89062-1.5 0.9375-3.375 0.046875-4.875-0.84375-1.5-2.4844-2.4375-4.2188-2.4375-11.016 0-17.062 1.5-22.969 2.9531-3.6094 0.89063-7.0781 1.7344-11.719 2.2031 4.2188-8.5312 7.875-14.906 11.203-20.719 8.4844-14.766 14.578-25.453 21.422-55.781 0.32812-1.5-0.046875-3.0938-1.0781-4.2656-1.0312-1.1719-2.5781-1.7812-4.125-1.5938-6.0938 0.60938-11.016 3.4219-15.328 6.0469 10.828-19.594 18.609-38.062 26.156-56.062 4.6406-11.016 9-21.422 14.016-31.969 1.0781-2.25 0.28125-4.9219-1.8281-6.1875-2.0156-1.2656-4.6406-0.79688-6.1875 0.98437-1.9219 1.1719-8.4375 1.2188-13.641 1.125 14.672-17.812 30.328-37.969 35.906-63.094 0.42188-1.9219-0.375-3.8906-1.9688-5.0156-3.4219-2.3438-7.0781-0.70313-9.7031 0.51562-2.8594 1.3125-5.7656 2.625-9.7031 1.5938 2.25-3.2812 5.1094-7.0312 8.2031-11.156 10.734-14.297 24.141-32.062 28.781-49.5 0.375-1.4531 0.09375-3-0.84375-4.1719-0.9375-1.1719-2.3438-1.875-3.8438-1.875-1.5938 0-3.8438 0.42187-7.0312 1.1719 11.109-19.547 19.781-45.375 28.875-72.469 0.32812-0.98437 0.65625-2.0156 1.0312-3.0469 10.078 33.234 21.188 57.047 33.562 72-6.375-0.75-8.4844-1.1719-9.1406-1.3594-1.5938-0.79687-3.5625-0.70312-5.0625 0.42188-1.875 1.3594-2.5312 3.8906-1.5 6 1.9219 3.9844 20.062 36.328 36.891 54.141-4.9688-0.09375-8.4844-0.98437-10.969-4.0781-1.5-1.875-4.1719-2.3438-6.2812-1.125-2.0625 1.2656-2.9062 3.8438-1.9688 6.0469 6.8438 15.938 19.922 43.266 36.281 62.672-6.0469-0.1875-12.188-0.46875-14.156-0.79688-1.2656-0.5625-2.7188-0.5625-4.0312 0.046876-2.3438 1.125-3.375 3.8438-2.3906 6.2344 3.8438 9.1875 13.172 27.844 25.031 48 0.046875 0.14063 0.14062 0.23438 0.23438 0.375 5.9062 10.031 12.422 20.391 19.219 30.141-4.7344-0.51563-9.9844-1.125-13.172-1.5-4.5469-0.51563-7.0312-0.75-7.4062-0.75-1.4062 0.14062-2.7188 0.89062-3.5625 2.0625-0.79688 1.1719-1.0781 2.6719-0.70312 4.0312 6.4688 23.625 17.062 54.562 42.141 87.469-16.031 1.5938-38.344-0.60938-51.328-5.3906-1.7344-0.65625-3.6562-0.23437-4.9688 1.0312-1.3594 1.2656-1.8281 3.1406-1.3125 4.9219 2.0625 6.8438 7.1719 15.094 11.531 21.984-15.469-4.8281-42.562-15.281-46.172-19.5-0.70312-1.6875-2.3438-2.8594-4.2188-2.9531-2.0156-0.046876-3.9375 1.0781-4.6875 2.9531-4.7344 11.344-3.0938 38.531-0.65625 70.266 0.51562 6.8906 0.98438 13.031 1.2188 17.859h-26.625l3.6094-90.141c0.09375-2.1094-1.2188-4.0781-3.2344-4.7812zm196.18-334.55c45.188 0 83.484-30.047 96.047-71.156h66.328c1.9688 0 3.7969-1.2188 4.5-3.0469 0.75-1.8281 0.23438-3.9375-1.2188-5.2969-10.594-9.8438-13.969-25.594-8.25-38.344 5.25-11.719 16.453-17.672 30.703-16.312 1.5938 0.14062 3.1406-0.46875 4.1719-1.6875s1.4062-2.8594 0.9375-4.4062c-6.0469-21.984 4.5938-35.016 11.438-40.828 12.797-10.828 32.016-13.594 46.781-6.75 16.125 7.4531 24.984 24.844 24.984 48.844 0 2.4375 1.8281 4.5 4.2188 4.7812 2.4375 0.32813 4.6875-1.2188 5.2969-3.6094 3-11.766 10.969-19.969 22.453-23.062 14.016-3.7969 30.609 0.89062 41.297 11.672 12.047 12.141 15.422 30.234 9.5625 50.906-0.42187 1.4531-0.14062 3.0469 0.79688 4.2188 0.9375 1.2188 2.3438 1.9219 3.8438 1.9219h56.438c2.6719 0 4.8281-2.1562 4.8281-4.8281 0-2.6719-2.1562-4.8281-4.8281-4.8281h-50.25c6.0938-28.875-5.625-46.172-13.5-54.188-13.266-13.406-33.141-18.984-50.719-14.203-8.7188 2.3438-15.984 7.125-21.328 13.781-4.7812-25.078-19.594-35.812-29.062-40.172-18.375-8.5312-41.297-5.25-57.094 8.1562-13.125 11.109-18.75 27.047-15.891 44.484-15.375 0.5625-27.797 8.5312-33.938 22.172-6.0469 13.406-4.5 28.828 3.4219 41.016h-53.578c1.2656-6.3281 1.9688-12.891 1.9688-19.594 0-55.406-45.047-100.45-100.45-100.45s-100.45 45.047-100.45 100.45 45.047 100.45 100.45 100.45zm0-191.21c50.062 0 90.797 40.734 90.797 90.797 0 6.75-0.79688 13.266-2.2031 19.594h-72.703c-2.6719 0-4.8281 2.1562-4.8281 4.8281s2.1562 4.8281 4.8281 4.8281h69.984c-12.234 35.719-46.031 61.5-85.828 61.5-50.062 0-90.75-40.734-90.75-90.797s40.734-90.797 90.75-90.797z"/>
</svg>
