<!-- Generated by IcoMoon.io -->
<svg version="1.1" xmlns="http://www.w3.org/2000/svg" width="32" height="32" viewBox="0 0 32 32">
<path d="M4.5 23.734h-2.489c-0.164 0-0.294-0.133-0.294-0.294s0.129-0.294 0.294-0.294h2.232c0.076-0.12 0.15-0.24 0.22-0.361-0.031 0.317-0.019 0.634 0.036 0.949zM12.84 17.114c-0.375 0.716-1.126 1.206-1.99 1.206-0.203 0-0.402-0.026-0.595-0.082-0.422 0.516-1.056 0.816-1.731 0.816-0.053 0-0.105-0.003-0.155-0.006 0.238 1.317 0.631 2.682 1.446 3.985-0.037 0.020-0.076 0.044-0.111 0.067-0.394 0.235-0.762 0.461-1.117 0.529-0.050 0.011-0.102 0.015-0.155 0.015-0.25 0-0.429-0.096-0.457-0.168-0.037-0.1-0.018-0.329 0.003-0.538l0.026-0.329c0.044-0.921-0.338-1.644-1.013-1.925-0.188-0.079-0.385-0.12-0.584-0.12-0.223 0-0.44 0.050-0.649 0.146-0.179 0.082-0.349 0.2-0.501 0.34 0.231-0.672 0.39-1.344 0.508-2.004-0.053 0.002-0.105 0.006-0.159 0.006-0.675 0-1.306-0.299-1.731-0.816-0.191 0.056-0.39 0.082-0.593 0.082-1.239 0-2.245-1.009-2.245-2.245 0-0.828 0.44-1.567 1.144-1.96-0.129-0.335-0.196-0.693-0.196-1.059 0-1.361 0.933-2.535 2.241-2.849 0.49-1.012 1.509-1.658 2.644-1.658 0.388 0 0.766 0.076 1.112 0.22 0.026 0.124 0.059 0.244 0.094 0.361-1.024 0.71-1.644 1.877-1.644 3.155 0 2.115 1.72 3.835 3.835 3.835 0.252 0 0.505-0.024 0.745-0.074 0.502 0.524 1.136 0.892 1.829 1.066zM17.787 16.615c0.259 1.479 0.634 3.001 1.297 4.501-0.394 0.135-0.848 0.223-1.367 0.261-0.405 0.030-0.834 0.032-1.247 0.035h-0.405c-0.416 0-0.825 0.003-1.248 0.029-0.76 0.052-1.514 0.185-2.245 0.394 0.88-1.731 1.341-3.504 1.637-5.22-0.141 0.020-0.279 0.032-0.422 0.032-1.009 0-1.951-0.466-2.567-1.259-0.307 0.096-0.627 0.144-0.954 0.144-1.793 0-3.249-1.459-3.249-3.249 0-1.241 0.686-2.348 1.775-2.899-0.226-0.525-0.34-1.089-0.34-1.673 0-2.016 1.4-3.75 3.351-4.187 0.701-1.518 2.215-2.489 3.896-2.489 1.635 0 3.122 0.93 3.844 2.385h0.152c2.367 0 4.29 1.922 4.29 4.29 0 0.651-0.146 1.297-0.431 1.881 0.886 0.601 1.426 1.607 1.426 2.691 0 1.79-1.459 3.249-3.251 3.249-0.326 0-0.645-0.047-0.954-0.144-0.599 0.769-1.524 1.259-2.565 1.259-0.001 0-0.002 0-0.003 0h0c-0.14 0-0.281-0.012-0.421-0.032zM30.28 23.44c0 0.161-0.133 0.294-0.294 0.294h-4.821c0.102-0.276 0.168-0.573 0.176-0.895 0.006-0.2-0.009-0.396-0.024-0.569l-0.006-0.052c-0.009-0.102-0.029-0.317-0.024-0.438 0.067-0.011 0.164-0.020 0.253-0.030l0.035-0.003c0.229-0.024 0.488-0.047 0.751-0.146 0.188-0.067 0.361-0.168 0.51-0.29 0.229 0.616 0.529 1.235 0.915 1.837h2.233c0.164-0.003 0.296 0.13 0.296 0.291zM30.965 16.075c0 1.235-1.009 2.245-2.245 2.245-0.203 0-0.402-0.026-0.596-0.082-0.211 0.259-0.473 0.464-0.769 0.601-0.111-0.244-0.273-0.461-0.475-0.634-0.396-0.337-0.78-0.375-1.063-0.402-0.070-0.003-0.126-0.009-0.185-0.024-0.305-0.070-0.636-0.118-0.96-0.164l-0.061-0.009c-0.238-0.032-0.484-0.067-0.692-0.109-0.152-0.029-0.34-0.115-0.543-0.203l-0.018-0.009c-0.285-0.129-0.593-0.264-0.942-0.335-0.102-0.020-0.296-0.059-0.514-0.059-0.584 0-0.927 0.264-1.117 0.492-0.22 0.273-0.29 0.569-0.29 0.834-0.578-0.172-1.059-0.578-1.335-1.106 0.692-0.172 1.324-0.543 1.825-1.067 0.244 0.050 0.492 0.074 0.745 0.074 2.115 0 3.837-1.72 3.837-3.835 0-1.109-0.479-2.154-1.297-2.875 0.102-0.276 0.179-0.56 0.229-0.848 0.079-0.009 0.159-0.011 0.238-0.011 1.095 0 2.093 0.61 2.596 1.576 1.649-0.020 2.973 1.3 2.973 2.931 0 0.416-0.088 0.83-0.259 1.209 0.573 0.418 0.919 1.090 0.919 1.809zM26.939 20.021c-0.087 0.49-0.39 0.875-0.81 1.027-0.211 0.079-0.431 0.096-0.642 0.117-0.255 0.024-0.479 0.041-0.619 0.164-0.194 0.172-0.183 0.47-0.137 0.942 0.015 0.179 0.032 0.366 0.026 0.549-0.020 0.76-0.453 1.367-0.865 1.954-0.209 0.29-0.402 0.566-0.551 0.856-0.543 1.078-0.358 2.459 0.425 3.363 0.211-0.059 0.442-0.011 0.636 0.124 0.214 0.152 0.352 0.39 0.37 0.64 0.026 0.42-0.25 0.834-0.675 1.009-0.414 0.161-0.834 0.088-1.113-0.006-0.995-0.331-1.76-1.35-1.951-2.591-0.067-0.429-0.076-0.884-0.026-1.402-0.394 0.209-0.804 0.381-1.226 0.516 0.061 0.642 0.314 1.25 0.716 1.711 0.211-0.056 0.442-0.011 0.636 0.124 0.214 0.152 0.352 0.39 0.37 0.642 0.026 0.416-0.25 0.83-0.675 1.006-0.176 0.067-0.352 0.094-0.52 0.094-0.226 0-0.431-0.047-0.593-0.1-0.995-0.331-1.76-1.35-1.951-2.591-0.024-0.155-0.041-0.323-0.050-0.499-0.152 0.009-0.305 0.015-0.461 0.015-0.549 0-1.1-0.056-1.644-0.168-0.209 0.475-0.564 0.871-1.001 1.109l-0.041 0.024c-0.079 0.041-0.261 0.137-0.264 0.188 0 0.026 0.109 0.115 0.273 0.135 0.044 0.006 0.091 0.009 0.141 0.011 0.238 0.017 0.531 0.041 0.76 0.253 0.161 0.15 0.246 0.364 0.238 0.601-0.011 0.276-0.152 0.555-0.366 0.725-0.296 0.238-0.672 0.288-0.977 0.288-0.061 0-0.124-0.003-0.179-0.006-0.974-0.052-1.742-0.475-2.051-1.133-0.211-0.455-0.185-0.933-0.161-1.394l0.015-0.329c0.002-0.082 0-0.159-0.006-0.235-0.146 0.032-0.296 0.050-0.443 0.059-0.12 0.009-0.244 0.009-0.364 0.011-0.296 0.006-0.575 0.011-0.813 0.109-0.164 0.065-0.311 0.218-0.366 0.375-0.033 0.085-0.029 0.164 0.006 0.226 0.059 0.102 0.188 0.176 0.338 0.261 0.146 0.085 0.314 0.179 0.446 0.326 0.209 0.231 0.29 0.555 0.223 0.889-0.074 0.366-0.314 0.686-0.631 0.836-0.164 0.079-0.346 0.115-0.531 0.115-0.429 0-0.877-0.2-1.174-0.555-0.344-0.402-0.51-0.98-0.47-1.625 0.029-0.464 0.15-0.906 0.27-1.335l0.056-0.2c0.088-0.32 0.179-0.677 0.203-1.036-0.936 0.15-2.078-0.205-2.805-0.913-0.789-0.769-1.1-1.992-0.766-3.046 0.141-0.446 0.466-0.843 0.834-1.009 0.253-0.118 0.516-0.124 0.758-0.020 0.442 0.185 0.69 0.692 0.657 1.355-0.006 0.102-0.015 0.205-0.024 0.308-0.030 0.296-0.056 0.575 0.037 0.808 0.176 0.438 0.784 0.601 1.265 0.51 0.461-0.091 0.875-0.34 1.311-0.605 0.094-0.059 0.191-0.115 0.287-0.17 1.385-0.808 2.964-1.291 4.566-1.402 0.479-0.032 0.96-0.029 1.426-0.029 0.488-0.002 0.989 0 1.479-0.038 1.086-0.079 1.945-0.361 2.559-0.839 0.727-0.573 1.095-1.496 0.889-2.25l-0.026-0.096c-0.085-0.294-0.203-0.695 0.059-1.021 0.311-0.372 0.836-0.27 1.059-0.226 0.288 0.059 0.555 0.176 0.81 0.294 0.24 0.105 0.47 0.209 0.692 0.253 0.218 0.044 0.466 0.079 0.727 0.115 0.329 0.047 0.669 0.094 0.965 0.164 0.1 0.024 0.188 0.032 0.281 0.038 0.218 0.020 0.461 0.041 0.716 0.261 0.371 0.317 0.541 0.84 0.444 1.371z"></path>
</svg>
