<!-- Generated by IcoMoon.io -->
<svg version="1.1" xmlns="http://www.w3.org/2000/svg" width="32" height="32" viewBox="0 0 32 32">
<path d="M12.981 21.062c-1.001-0.635-1.43-1.885-1.021-3.005 0.256 0.019 0.52 0.031 0.803 0.031 0.459 0 0.895-0.034 1.315-0.092-0.030 0.596-0.161 1.216-0.459 1.793-0.191 0.371-0.405 0.806-0.638 1.277l-0-0.004zM18.187 8.325c0.57-0.52 1.319-0.81 2.087-0.81 0.44 0 0.883 0.092 1.307 0.291 1.101 0.516 1.755 1.598 1.782 2.733h0.073c0.31 0 0.619 0.065 0.914 0.203 1.036 0.485 1.502 1.693 1.086 2.741 1.017 0.887 1.369 2.366 0.768 3.647-0.294 0.627-0.768 1.105-1.334 1.411 0.31 0.657 0.333 1.437 0 2.145-0.298 0.638-0.826 1.089-1.434 1.311-0.275 0.099-0.566 0.153-0.864 0.153-0.359 0-0.726-0.076-1.074-0.241-0.038 0.076-0.080 0.153-0.126 0.226-0.482 0.757-1.3 1.17-2.137 1.17-0.398 0-0.795-0.096-1.166-0.291 0.149-0.34 0.291-0.658 0.409-0.94 0.917-2.175 3.678-3.012 3.704-3.020 0.153-0.046 0.241-0.203 0.195-0.356s-0.203-0.241-0.356-0.195c-0.126 0.034-3.051 0.918-4.071 3.345-0.199 0.478-0.455 1.047-0.73 1.667-0.466 1.051-0.99 2.232-1.418 3.311l-4.121-1.931c0.558-1.017 1.124-2.171 1.632-3.203 0.298-0.608 0.577-1.17 0.814-1.632 0.367-0.707 0.508-1.457 0.535-2.16 1.988-0.424 3.509-1.529 4.293-3.181 0.94-1.98 0.634-4.442-0.757-6.388l-0.011-0.004zM19.888 16.249c-0.245 0.749-0.348 1.090-0.264 1.323 0.038 0.107 0.126 0.191 0.241 0.222 0.023 0.008 0.053 0.015 0.103 0.015 0.187 0 0.619-0.13 1.736-1.024 0.126-0.099 0.145-0.279 0.046-0.401-0.096-0.126-0.279-0.145-0.401-0.046-0.375 0.302-0.833 0.627-1.124 0.791 0.050-0.203 0.138-0.474 0.214-0.707 0.184-0.57 0.413-1.277 0.497-1.908 0.023-0.157-0.088-0.298-0.245-0.321s-0.298 0.088-0.321 0.245c-0.080 0.581-0.302 1.262-0.478 1.808l-0.004 0.004zM16.36 30.249c0.317 0.401 0.692 0.722 1.028 0.963h-7.913c0.336-0.237 0.711-0.558 1.028-0.963 0.306-0.386 0.497-1.239 0.615-2.749h4.629c0.118 1.51 0.31 2.362 0.615 2.749h-0.004zM12.155 17.499c-0.003-0.001-0.005-0.003-0.008-0.004 0.001 0 0.003 0 0.004 0l0.004 0.004zM12.147 17.495c-5.654-0.308-5.822-4.848-4.113-6.793 1.804-2.057 1.124-4.61 1.124-4.61 2.798 1.204 2.324 4.052 2.324 4.052s1.185-1.181 0.841-2.408c-0.378-1.353-1.078-1.311-1.46-2.336-0.658-1.751 2.045-4.488 2.045-4.488 0.401 3.869 3.647 6.292 4.561 7.409 2.749 3.36 1.609 8.433-3.513 9.113 1.013-0.497 1.667-1.197 1.938-2.091 0.719-2.366-1.483-5.184-1.579-5.302-0.065-0.080-0.168-0.122-0.271-0.103-0.103 0.015-0.187 0.088-0.222 0.187-0.547 1.541-1.361 2.083-2.083 2.561-0.68 0.455-1.326 0.883-1.449 2.003-0.152 1.422 0.908 2.338 1.858 2.806zM14.166 10.817c0.558 0.837 1.667 2.775 1.185 4.366-0.279 0.921-1.070 1.606-2.355 2.038-0.413-0.134-2.309-0.841-2.133-2.466 0.092-0.853 0.554-1.162 1.196-1.586 0.677-0.451 1.506-1.002 2.106-2.351l0-0z"></path>
</svg>
