<!-- Generated by IcoMoon.io -->
<svg version="1.1" xmlns="http://www.w3.org/2000/svg" width="32" height="32" viewBox="0 0 32 32">
<path d="M7.987 24.499c-1.639 0-2.968 1.329-2.968 2.968s1.329 2.968 2.968 2.968c1.639 0 2.968-1.329 2.968-2.968s-1.329-2.968-2.968-2.968zM8.981 1.6c-1.833 0-3.319 1.486-3.319 3.319 0 1.146 0.58 2.156 1.463 2.752 0.335 0.197 0.366 0.228 0.643 0.343 0.564 0.236 2.085 0.724 2.744 1.069s0.955 0.633 1.213 1.005c0.258 0.372 0.342 0.813 0.335 1.229s-0.249 0.829-0.38 1.267c-0.13 0.438-0.273 0.942-0.404 1.364s-0.524 1.244-1.146 1.55-1.293 0.235-1.627 0.096c-0.335-0.139-0.533-0.456-0.765-0.644l-0.623-0.48c-0.56-0.379-1.236-0.6-1.963-0.6-1.939 0-3.51 1.572-3.51 3.511s1.572 3.511 3.51 3.511c1.212 0 2.28-0.614 2.911-1.548l0.376-0.503c0.093-0.131 0.513-0.567 0.957-0.694s1.117-0.266 1.707-0.064c0.59 0.202 1.382 0.977 1.835 1.276s0.589 0.364 0.883 0.522c0.248 0.123 0.507 0.18 0.774 0.263 0.159 0.043 0.427 0.098 0.716 0.129s0.505 0.066 1.018 0.060c0.513-0.006 2.916-0.472 3.494 0.766s-0.112 1.951-0.168 2.927c-0.052 0.255-0.080 0.52-0.080 0.791 0 2.168 1.757 3.925 3.925 3.925s3.925-1.757 3.925-3.925c0-0.813-0.247-1.568-0.67-2.195l-0.119-0.164c-0.104-0.147-0.237-0.303-0.4-0.473-0.65-0.682-2.62-1.528-3.374-2.346s-0.949-1.616-1.149-2.561c-0.1-0.473-0.152-0.846-0.189-1.188s0.010-1.567 0.5-1.947c0.49-0.38 1.715-0.399 2.441-0.335 0.363 0.032 0.777 0.21 1.133 0.381l0.672 0.351c0.355 0.15 0.746 0.233 1.155 0.233 1.639 0 2.968-1.329 2.968-2.968s-1.329-2.968-2.968-2.968c-1.229 0-2.284 0.748-2.734 1.813s-0.215 1.419-0.512 1.818c-0.297 0.399-0.802 0.491-1.268 0.574s-1.12 0.065-1.532-0.072-0.705-0.43-0.941-0.75c-0.236-0.321-0.715-1.096-0.766-1.676s0.183-1.271 0.463-1.803c0.139-0.266 0.515-0.64 0.73-0.844l0.002-0.002c0.124-0.172 0.548-0.571 0.742-1.031s0.233-0.745 0.233-1.155c0-1.639-1.329-2.968-2.968-2.968s-2.968 1.329-2.968 2.968c0 0.41 0.191 1.13 0.688 1.626s0.972 0.874 0.86 1.493-0.366 0.806-0.67 0.933c-0.304 0.128-0.556 0.155-0.868 0.264s-0.623 0.122-0.935 0.183c-0.513-0.011-1.12-0.037-1.532-0.287s-0.721-0.716-0.941-1.213c-0.221-0.497-0.327-1.263-0.383-1.771s0.079-0.847 0.108-1.15c0.029-0.303 0.068-0.44 0.068-0.669 0-1.833-1.486-3.319-3.319-3.319z"></path>
</svg>
