<!-- Generated by IcoMoon.io -->
<svg version="1.1" xmlns="http://www.w3.org/2000/svg" width="32" height="32" viewBox="0 0 32 32">
<path d="M9.051 10.469c1.935 0 3.574-1.286 4.112-3.046h2.84c0.084 0 0.163-0.052 0.193-0.13 0.032-0.078 0.010-0.169-0.052-0.227-0.454-0.421-0.598-1.096-0.353-1.642 0.225-0.502 0.704-0.757 1.315-0.698 0.068 0.006 0.134-0.020 0.179-0.072s0.060-0.122 0.040-0.189c-0.259-0.941 0.197-1.499 0.49-1.748 0.548-0.464 1.371-0.582 2.003-0.289 0.69 0.319 1.070 1.064 1.070 2.091 0 0.104 0.078 0.193 0.181 0.205 0.104 0.014 0.201-0.052 0.227-0.155 0.128-0.504 0.47-0.855 0.961-0.987 0.6-0.163 1.311 0.038 1.768 0.5 0.516 0.52 0.66 1.294 0.409 2.179-0.018 0.062-0.006 0.13 0.034 0.181 0.040 0.052 0.1 0.082 0.165 0.082h2.416c0.114 0 0.207-0.092 0.207-0.207s-0.092-0.207-0.207-0.207h-2.151c0.261-1.236-0.241-1.977-0.578-2.32-0.568-0.574-1.419-0.813-2.171-0.608-0.373 0.1-0.684 0.305-0.913 0.59-0.205-1.074-0.839-1.533-1.244-1.72-0.787-0.365-1.768-0.225-2.444 0.349-0.562 0.476-0.803 1.158-0.68 1.905-0.658 0.024-1.19 0.365-1.453 0.949-0.259 0.574-0.193 1.234 0.146 1.756h-2.294c0.054-0.271 0.084-0.552 0.084-0.839 0-2.372-1.929-4.301-4.301-4.301s-4.301 1.929-4.301 4.301c0 2.372 1.929 4.301 4.301 4.301l0.004-0.004zM9.051 2.283c2.143 0 3.887 1.744 3.887 3.887 0 0.289-0.034 0.568-0.094 0.839h-3.113c-0.114 0-0.207 0.092-0.207 0.207s0.092 0.207 0.207 0.207h2.996c-0.524 1.529-1.971 2.633-3.675 2.633-2.143 0-3.885-1.744-3.885-3.887s1.744-3.887 3.885-3.887l-0.002 0.002z"></path>
<path d="M31.286 30.895h-2.629l-0.135-4.437c-0.003-0.083 0.047-0.154 0.11-0.156 0.039-0.002 0.076 0.023 0.096 0.062 0.299 0.537 0.64 0.828 1.016 0.983 0.335 0.139 0.7 0.172 1.089 0.178-0.060-0.164-0.139-0.313-0.217-0.463-0.052-0.1-0.105-0.199-0.156-0.311-0.033-0.071-0.014-0.164 0.039-0.207 0.019-0.015 0.040-0.021 0.058-0.021 0.411 0 0.637 0.073 0.861 0.145 0.167 0.054 0.332 0.108 0.582 0.127-0.187-0.508-0.344-0.873-0.485-1.195-0.322-0.745-0.552-1.271-0.812-2.79-0.014-0.081 0.025-0.162 0.086-0.18 0.014-0.004 0.027-0.004 0.040-0.002 0.233 0.033 0.415 0.18 0.588 0.319 0.066 0.052 0.129 0.104 0.192 0.145-0.48-1.095-0.807-2.12-1.125-3.118-0.173-0.541-0.343-1.077-0.536-1.616-0.027-0.075-0.003-0.166 0.055-0.201 0.050-0.031 0.108-0.010 0.14 0.046 0.066 0.104 0.448 0.089 0.716 0.073-0.593-0.948-1.229-1.975-1.451-3.292-0.011-0.062 0.009-0.122 0.047-0.156 0.098-0.089 0.186-0.037 0.302 0.033 0.118 0.071 0.285 0.172 0.51 0.041-0.094-0.191-0.223-0.417-0.367-0.666-0.406-0.709-0.916-1.603-1.089-2.466-0.016-0.081 0.020-0.164 0.082-0.185 0.009-0.004 0.019-0.004 0.030-0.004 0.074 0 0.214 0.044 0.354 0.087l0.060 0.019c-0.463-0.994-0.81-2.367-1.183-3.827l-0.11-0.431c-0.134 0.608-0.315 1.35-0.546 2.066-0.245 0.755-0.546 1.483-0.911 1.998 0.241-0.033 0.522-0.073 0.53-0.081 0.046-0.058 0.118-0.054 0.162 0.006 0.035 0.048 0.039 0.118 0.019 0.172-0.085 0.232-0.494 1.172-0.946 1.979-0.187 0.334-0.382 0.645-0.566 0.879 0.25 0.014 0.492 0.006 0.642-0.236 0.039-0.064 0.112-0.075 0.16-0.023 0.041 0.044 0.053 0.116 0.033 0.176-0.181 0.556-0.469 1.363-0.828 2.124-0.198 0.423-0.42 0.83-0.656 1.174 0.149-0.006 0.335-0.012 0.488-0.025h0.003c0.118-0.006 0.172 0.075 0.186 0.035 0.030-0.073 0.099-0.102 0.154-0.062 0.052 0.037 0.074 0.12 0.052 0.191-0.142 0.448-0.472 1.323-0.894 2.28-0.267 0.608-0.573 1.247-0.889 1.829 0.197-0.027 0.467-0.068 0.661-0.098 0.146-0.023 0.252-0.037 0.266-0.037 0.063 0.006 0.11 0.081 0.104 0.164-0.002 0.015-0.003 0.027-0.006 0.039-0.146 0.701-0.335 1.454-0.617 2.24-0.261 0.73-0.601 1.487-1.059 2.257 0.282 0.052 0.629 0.058 0.977 0.027 0.42-0.039 0.84-0.137 1.144-0.284 0.060-0.029 0.126 0.012 0.146 0.089 0.009 0.031 0.009 0.064 0.002 0.095-0.080 0.355-0.299 0.809-0.464 1.151l-0.071 0.145c0.29-0.106 0.812-0.342 1.257-0.585 0.389-0.212 0.708-0.415 0.73-0.508 0.019-0.079 0.082-0.124 0.143-0.1 0.035 0.015 0.060 0.046 0.072 0.087 0.189 0.597 0.093 2.257 0.020 3.501-0.017 0.297-0.033 0.566-0.043 0.794h-4.209l-0.109-3.568c-0.003-0.083 0.047-0.154 0.11-0.156 0.039-0.002 0.076 0.023 0.096 0.062 0.242 0.436 0.519 0.67 0.824 0.797 0.286 0.118 0.601 0.143 0.936 0.145 0.006-0.027 0.008-0.054-0.011-0.114-0.019 0.004-0.033 0.004-0.044 0.004-0.009 0-0.017-0.002-0.027-0.006-0.060-0.025-0.094-0.108-0.076-0.187 0.022-0.095 0.104-0.263 0.205-0.473 0.113-0.236 0.255-0.529 0.351-0.792-0.288 0.104-0.629 0.172-0.971 0.203-0.447 0.041-0.897 0.019-1.223-0.075-0.019-0.004-0.036-0.015-0.052-0.031-0.049-0.052-0.057-0.147-0.017-0.212 0.507-0.817 0.873-1.622 1.15-2.396 0.249-0.695 0.423-1.363 0.56-1.989l-0.076 0.012c-0.319 0.048-0.843 0.127-0.928 0.127-0.024 0-0.047-0.010-0.069-0.031-0.050-0.050-0.061-0.145-0.024-0.212 0.324-0.573 0.64-1.216 0.92-1.838-0.187-0.311-0.368-0.639-0.524-0.989-0.17-0.386-0.307-0.801-0.384-1.259-0.011-0.062 0.009-0.122 0.047-0.156 0.090-0.083 0.167-0.035 0.267 0.025 0.090 0.054 0.214 0.129 0.379 0.046-0.076-0.149-0.176-0.326-0.286-0.519-0.334-0.585-0.754-1.321-0.897-2.033-0.016-0.081 0.020-0.164 0.082-0.185 0.009-0.004 0.019-0.004 0.028-0.004 0.063 0 0.179 0.035 0.296 0.073-0.367-0.813-0.648-1.917-0.947-3.093l-0.069-0.272c-0.109 0.483-0.25 1.060-0.431 1.616-0.194 0.597-0.431 1.174-0.716 1.595 0.181-0.025 0.368-0.050 0.37-0.052 0.046-0.056 0.118-0.054 0.16 0.006 0.033 0.046 0.039 0.114 0.020 0.168-0.068 0.185-0.406 0.965-0.779 1.632-0.142 0.253-0.291 0.494-0.433 0.68 0.183 0.006 0.356-0.012 0.463-0.187 0.039-0.064 0.112-0.075 0.16-0.023 0.041 0.044 0.053 0.116 0.033 0.176-0.149 0.456-0.385 1.12-0.68 1.747-0.154 0.328-0.326 0.647-0.51 0.921 0.113-0.004 0.242-0.010 0.352-0.019 0.091-0.006 0.121 0.085 0.138 0.044 0.030-0.073 0.099-0.102 0.154-0.062 0.052 0.037 0.074 0.12 0.052 0.191-0.116 0.369-0.389 1.089-0.735 1.875-0.212 0.483-0.455 0.989-0.705 1.456 0.156-0.023 0.354-0.052 0.499-0.075 0.121-0.019 0.208-0.031 0.222-0.029 0.063 0.006 0.11 0.079 0.105 0.164-0.002 0.015-0.003 0.027-0.006 0.039-0.12 0.577-0.275 1.195-0.507 1.84-0.211 0.589-0.483 1.199-0.85 1.821 0.223 0.035 0.492 0.039 0.763 0.015 0.343-0.031 0.684-0.112 0.933-0.232 0.060-0.029 0.126 0.012 0.146 0.089 0.009 0.031 0.009 0.064 0.002 0.095-0.068 0.295-0.247 0.67-0.384 0.95l-0.030 0.060c0.242-0.093 0.637-0.274 0.979-0.46 0.313-0.17 0.571-0.332 0.587-0.4 0.019-0.079 0.082-0.124 0.142-0.1 0.035 0.015 0.060 0.046 0.072 0.087 0.157 0.496 0.079 1.863 0.019 2.887-0.013 0.216-0.022 0.404-0.031 0.577h-3.646l-0.088-2.904c-0.003-0.083 0.047-0.154 0.11-0.156 0.039-0.002 0.076 0.023 0.096 0.062 0.2 0.359 0.426 0.552 0.677 0.655 0.233 0.095 0.491 0.118 0.766 0.12v-0.006c0.002-0.023-0.002-0.048-0.011-0.077l-0.008-0.021-0.003-0.012-0.003-0.046c0-0.004 0-0.006 0.002-0.010v-0.008l0.002-0.006v-0.004l0.002-0.004c0.019-0.083 0.087-0.222 0.17-0.396 0.085-0.178 0.19-0.394 0.267-0.593-0.228 0.077-0.492 0.129-0.757 0.154-0.368 0.035-0.738 0.017-1.009-0.062-0.019-0.004-0.036-0.015-0.052-0.031-0.049-0.052-0.057-0.147-0.017-0.212 0.414-0.668 0.714-1.328 0.941-1.96 0.198-0.554 0.34-1.089 0.45-1.591l-0.030 0.004c-0.261 0.039-0.694 0.106-0.765 0.106-0.024 0-0.047-0.010-0.069-0.031-0.050-0.050-0.061-0.145-0.024-0.212 0.256-0.452 0.507-0.96 0.73-1.454-0.173-0.28-0.345-0.573-0.491-0.89-0.164-0.353-0.297-0.734-0.368-1.16-0.011-0.062 0.009-0.122 0.047-0.156 0.083-0.077 0.153-0.035 0.242 0.019 0.066 0.039 0.159 0.095 0.278 0.048-0.061-0.118-0.138-0.255-0.223-0.404-0.279-0.489-0.631-1.104-0.75-1.703-0.016-0.081 0.020-0.164 0.082-0.185 0.009-0.004 0.019-0.004 0.030-0.004 0.047 0 0.126 0.023 0.208 0.048-0.296-0.674-0.526-1.574-0.768-2.531l-0.039-0.151c-0.088 0.388-0.201 0.838-0.343 1.274-0.154 0.479-0.343 0.942-0.57 1.29 0.131-0.017 0.25-0.031 0.25-0.033 0.046-0.058 0.118-0.054 0.162 0.006 0.035 0.048 0.039 0.118 0.019 0.172-0.060 0.162-0.34 0.807-0.65 1.361-0.109 0.195-0.222 0.378-0.332 0.527 0.131 0 0.25-0.025 0.326-0.147 0.039-0.064 0.112-0.075 0.16-0.023 0.041 0.044 0.053 0.116 0.033 0.176-0.124 0.382-0.323 0.936-0.568 1.458-0.121 0.257-0.255 0.508-0.398 0.728 0.082-0.004 0.172-0.008 0.249-0.012h0.005c0.036 0 0.069 0.021 0.091 0.056 0.002-0.002 0.003-0.004 0.003-0.006 0.030-0.075 0.099-0.102 0.154-0.062 0.055 0.037 0.076 0.127 0.050 0.199-0.099 0.309-0.324 0.906-0.612 1.558-0.172 0.388-0.363 0.792-0.563 1.17 0.121-0.017 0.264-0.039 0.371-0.056 0.104-0.017 0.176-0.027 0.19-0.025 0.063 0.006 0.11 0.081 0.104 0.164-0.002 0.015-0.003 0.027-0.006 0.039-0.101 0.481-0.23 0.998-0.423 1.535-0.171 0.481-0.393 0.979-0.689 1.487 0.178 0.025 0.387 0.027 0.598 0.008 0.285-0.027 0.568-0.091 0.773-0.193 0.060-0.029 0.126 0.012 0.146 0.089 0.009 0.031 0.009 0.064 0.002 0.095-0.057 0.247-0.206 0.558-0.319 0.794 0.201-0.081 0.502-0.22 0.766-0.363 0.256-0.139 0.467-0.27 0.478-0.317 0.019-0.079 0.082-0.124 0.143-0.1 0.035 0.015 0.060 0.046 0.072 0.087 0.134 0.419 0.066 1.562 0.017 2.416-0.009 0.149-0.016 0.284-0.022 0.411h-5.194c-0.006-0.141-0.016-0.305-0.027-0.487-0.028-0.485-0.071-1.226-0.046-1.668 0.112 0.079 0.272 0.172 0.504 0.288 0.006 0.004 0.642 0.319 0.785 0.305 0.050-0.004 0.094-0.037 0.123-0.091s0.036-0.122 0.022-0.185c-0.016-0.068-0.055-0.151-0.134-0.315-0.033-0.068-0.071-0.147-0.107-0.228 0.384 0.093 0.848 0.108 1.156 0.017 0.055-0.017 0.099-0.068 0.118-0.139s0.008-0.147-0.028-0.205c-0.546-0.882-0.809-1.724-0.968-2.408 0.277 0.041 0.428 0.062 0.472 0.062 0.061 0 0.118-0.046 0.145-0.118 0.028-0.073 0.022-0.16-0.016-0.224-0.417-0.734-0.809-1.668-1.016-2.234 0.016 0 0.033 0.002 0.050 0.002 0.134 0.006 0.312 0.010 0.324 0.010 0.065-0.004 0.123-0.058 0.145-0.139s0.006-0.172-0.041-0.23c-0.318-0.396-0.596-1.039-0.79-1.562 0.063 0.002 0.124-0.002 0.182-0.006 0.041-0.002 0.083-0.006 0.124-0.006 0.071 0 0.135-0.062 0.156-0.151 0.020-0.091-0.006-0.189-0.066-0.241-0.247-0.216-0.603-0.917-0.813-1.379 0.063 0.008 0.135 0.019 0.22 0.031l0.017 0.002c0.072 0.010 0.14-0.044 0.167-0.133 0.027-0.087 0.006-0.189-0.050-0.249-0.371-0.388-0.71-1.313-1.007-2.748-0.019-0.091-0.080-0.154-0.151-0.158h-0.005c-0.069 0-0.131 0.058-0.154 0.145-0.047 0.18-0.093 0.359-0.137 0.535-0.239 0.94-0.466 1.827-0.768 2.396-0.035 0.066-0.039 0.151-0.011 0.222s0.083 0.116 0.145 0.116c0.036 0 0.079-0.010 0.137-0.027-0.131 0.359-0.34 0.724-0.516 1.033-0.104 0.18-0.19 0.336-0.255 0.473-0.373-0.5-0.697-1.255-0.919-1.865 0.093 0.010 0.186 0.004 0.271-0.002 0.050-0.004 0.101-0.006 0.149-0.006 0.071 0 0.135-0.062 0.156-0.151 0.020-0.091-0.006-0.189-0.066-0.241-0.313-0.276-0.771-1.186-1.020-1.742 0.088 0.012 0.197 0.029 0.332 0.046l0.019 0.002c0.072 0.010 0.14-0.044 0.167-0.133 0.027-0.087 0.006-0.189-0.050-0.249-0.452-0.471-0.862-1.587-1.219-3.319-0.019-0.091-0.080-0.156-0.151-0.158s-0.135 0.056-0.159 0.145c-0.057 0.216-0.11 0.431-0.165 0.643-0.288 1.13-0.56 2.199-0.927 2.885-0.035 0.066-0.039 0.151-0.011 0.222s0.083 0.116 0.145 0.116c0.052 0 0.121-0.019 0.222-0.050-0.156 0.46-0.425 0.931-0.65 1.325-0.085 0.147-0.156 0.278-0.22 0.4-0.475-0.635-0.884-1.614-1.156-2.371 0.132 0.025 0.266 0.015 0.387 0.006 0.064-0.004 0.126-0.008 0.186-0.008 0.071 0 0.135-0.062 0.156-0.151 0.020-0.091-0.006-0.189-0.066-0.241-0.401-0.353-0.994-1.549-1.29-2.219 0.118 0.019 0.271 0.041 0.472 0.066l0.025 0.004c0.072 0.010 0.14-0.044 0.167-0.133 0.027-0.087 0.006-0.189-0.050-0.249-0.555-0.581-1.061-1.95-1.499-4.070-0.019-0.091-0.080-0.156-0.151-0.158-0.071-0.004-0.135 0.056-0.159 0.145-0.068 0.263-0.135 0.525-0.201 0.784-0.351 1.381-0.683 2.686-1.133 3.528-0.035 0.066-0.039 0.151-0.011 0.222s0.083 0.116 0.145 0.116c0.068 0 0.168-0.029 0.324-0.079 0.002 0 0.005-0.002 0.006-0.002-0.187 0.593-0.535 1.203-0.824 1.709-0.162 0.284-0.302 0.529-0.393 0.734-0.044 0.1-0.020 0.226 0.054 0.288 0.272 0.228 0.494 0.191 0.651 0.12-0.228 0.925-0.705 1.686-1.169 2.425l-0.105 0.168c-0.039 0.064-0.049 0.154-0.022 0.228s0.083 0.122 0.146 0.122c0.032 0 0.079 0.002 0.135 0.006 0.181 0.010 0.345 0.019 0.485 0.006-0.113 0.336-0.222 0.674-0.327 1.006-0.302 0.946-0.614 1.923-1.095 2.968-0.030 0.066-0.031 0.149-0.003 0.216s0.083 0.11 0.142 0.11c0.198 0 0.36-0.131 0.518-0.257 0.057-0.046 0.112-0.091 0.167-0.129-0.192 1.004-0.367 1.408-0.618 1.987-0.143 0.33-0.307 0.705-0.505 1.267-0.024 0.066-0.019 0.143 0.009 0.205 0.030 0.062 0.082 0.1 0.137 0.1 0.346 0 0.544-0.064 0.735-0.127 0.116-0.037 0.23-0.075 0.378-0.097-0.090 0.172-0.176 0.355-0.23 0.579-0.016 0.064-0.006 0.137 0.024 0.191s0.079 0.087 0.131 0.087c0.686 0 1.348-0.062 1.896-0.705l-0.104 3.416h-1.679c-0.107 0-0.195 0.114-0.195 0.257 0 0.141 0.087 0.257 0.195 0.257h29.954c0.107 0 0.195-0.114 0.195-0.257 0-0.141-0.086-0.257-0.195-0.257l0.019 0.011zM4.51 30.072c-0.047-0.815-0.115-1.979-0.055-2.605 0.154 0.12 0.408 0.278 0.826 0.487 0.157 0.079 0.526 0.251 0.802 0.355-0.009 0.079-0.002 0.145 0.016 0.218 0.005 0.017 0.006 0.025 0.006 0.031 0.006 0.112 0.077 0.199 0.162 0.199 0.549 0 1.078-0.048 1.525-0.531l-0.082 2.67h-3.159c-0.008-0.224-0.025-0.508-0.042-0.823l0.002-0zM9 30.263c-0.038-0.645-0.090-1.554-0.050-2.072 0.131 0.097 0.332 0.218 0.645 0.373 0.006 0.002 0.459 0.228 0.741 0.322 0.006 0.066 0.022 0.124 0.035 0.166 0.024 0.083 0.085 0.139 0.153 0.139 0.444 0 0.873-0.037 1.241-0.402l-0.065 2.105h-2.664c-0.008-0.178-0.019-0.392-0.033-0.633l-0.003 0.002zM11.256 20.991c0.25-0.438 0.56-0.981 0.669-1.522 0.013-0.064 0.003-0.133-0.028-0.185s-0.079-0.083-0.129-0.083c-0.019 0-0.039 0.002-0.063 0.008 0.222-0.552 0.401-1.245 0.587-1.971 0.2 0.821 0.417 1.442 0.656 1.873-0.044-0.008-0.064-0.015-0.076-0.017-0.052-0.031-0.115-0.025-0.164 0.023-0.063 0.060-0.085 0.172-0.050 0.265 0.047 0.131 0.4 0.96 0.76 1.516-0.031-0.015-0.058-0.039-0.080-0.075-0.050-0.083-0.14-0.104-0.211-0.050-0.069 0.056-0.098 0.17-0.066 0.268 0.148 0.454 0.423 1.213 0.769 1.796-0.090-0.004-0.167-0.010-0.2-0.017-0.041-0.021-0.087-0.021-0.129 0.006-0.079 0.050-0.113 0.17-0.080 0.276 0.127 0.402 0.514 1.398 0.961 2.265-0.074-0.010-0.145-0.021-0.194-0.029-0.105-0.017-0.164-0.023-0.176-0.023-0.049 0.004-0.093 0.037-0.12 0.091-0.028 0.052-0.036 0.118-0.024 0.178 0.145 0.699 0.379 1.603 0.92 2.572-0.349 0.027-0.795-0.037-1.064-0.17-0.058-0.029-0.123-0.010-0.167 0.046s-0.061 0.139-0.044 0.218c0.038 0.164 0.116 0.353 0.197 0.525-0.341-0.151-0.807-0.396-0.9-0.51-0.027-0.066-0.077-0.112-0.137-0.116-0.068-0.004-0.132 0.048-0.157 0.131-0.113 0.357-0.077 1.153-0.019 2.159 0.009 0.17 0.019 0.324 0.025 0.454h-0.502l0.080-2.645c0.003-0.093-0.041-0.18-0.109-0.212s-0.142 0-0.184 0.075c-0.302 0.541-0.68 0.633-1.138 0.645v-0.006c0.005-0.033 0.005-0.071-0.003-0.104-0.002-0.008-0.006-0.019-0.009-0.029v-0.002c-0.022-0.073-0.066-0.166-0.148-0.336-0.052-0.106-0.112-0.232-0.167-0.357 0.469 0.129 1.059 0.151 1.446 0.039 0.055-0.017 0.099-0.068 0.118-0.139s0.008-0.147-0.028-0.205c-0.675-1.089-0.993-2.132-1.182-2.966 0.356 0.054 0.559 0.083 0.612 0.083 0.061 0 0.118-0.046 0.145-0.118 0.028-0.073 0.022-0.16-0.016-0.224-0.216-0.382-0.425-0.807-0.615-1.222 0.316-0.517 0.621-1.081 0.739-1.782 0.014-0.085-0.013-0.172-0.066-0.222-0.102-0.093-0.209-0.029-0.274 0.010-0.036 0.023-0.071 0.041-0.105 0.050 0.041-0.073 0.087-0.154 0.134-0.239l0.003-0zM10.822 21.561c0.134 0.095 0.253 0.11 0.348 0.091-0.12 0.413-0.312 0.782-0.518 1.128-0.186-0.429-0.345-0.83-0.455-1.128 0.121 0.008 0.282 0.012 0.492 0.012 0.055 0 0.102-0.044 0.131-0.104l0.002 0zM7.126 18.935c0.297-0.521 0.669-1.17 0.798-1.811 0.013-0.064 0.003-0.133-0.028-0.185s-0.079-0.083-0.129-0.083c-0.036 0-0.080 0.008-0.137 0.025 0.293-0.703 0.524-1.61 0.765-2.562 0.26 1.099 0.544 1.906 0.859 2.441-0.113-0.019-0.157-0.031-0.173-0.035-0.053-0.033-0.116-0.027-0.167 0.021-0.063 0.060-0.085 0.172-0.050 0.265 0.052 0.141 0.521 1.245 0.972 1.906-0.091-0.012-0.16-0.046-0.211-0.131-0.050-0.083-0.14-0.104-0.211-0.050-0.069 0.056-0.098 0.17-0.066 0.268 0.184 0.562 0.529 1.516 0.963 2.219-0.142-0.006-0.271-0.017-0.318-0.025-0.041-0.023-0.088-0.023-0.132 0.004-0.079 0.050-0.113 0.17-0.080 0.276 0.107 0.338 0.371 1.031 0.703 1.776 0.002 0.004 0.005 0.008 0.006 0.012 0.149 0.334 0.312 0.674 0.481 1-0.112-0.017-0.227-0.033-0.299-0.046-0.126-0.019-0.197-0.027-0.209-0.027-0.047 0.006-0.091 0.039-0.12 0.091-0.027 0.052-0.036 0.118-0.024 0.178 0.176 0.848 0.463 1.954 1.134 3.134-0.433 0.044-1.009-0.033-1.348-0.199-0.058-0.029-0.123-0.010-0.167 0.046-0.046 0.056-0.061 0.139-0.044 0.218 0.050 0.224 0.168 0.485 0.278 0.718-0.419-0.178-1.067-0.506-1.178-0.662-0.025-0.071-0.079-0.12-0.138-0.122-0.068-0.004-0.132 0.048-0.157 0.131-0.132 0.419-0.088 1.413-0.020 2.57 0.013 0.228 0.025 0.431 0.031 0.599h-0.672l0.099-3.225c0.003-0.093-0.041-0.18-0.109-0.212s-0.142 0-0.184 0.075c-0.357 0.643-0.802 0.767-1.334 0.788 0.005-0.006 0.013-0.010 0.016-0.019 0.028-0.054 0.036-0.122 0.022-0.185-0.020-0.089-0.076-0.203-0.187-0.436-0.076-0.156-0.167-0.344-0.242-0.527 0.577 0.174 1.334 0.212 1.824 0.068 0.055-0.017 0.099-0.068 0.118-0.139s0.008-0.147-0.028-0.205c-0.845-1.363-1.232-2.665-1.462-3.698 0.464 0.071 0.729 0.108 0.795 0.108 0.061 0 0.118-0.046 0.145-0.118 0.028-0.073 0.022-0.16-0.016-0.224-0.275-0.485-0.543-1.031-0.782-1.56 0.335-0.562 0.653-1.189 0.782-1.956 0.014-0.085-0.013-0.172-0.066-0.222-0.109-0.097-0.222-0.029-0.296 0.015-0.064 0.039-0.127 0.077-0.205 0.066 0.057-0.106 0.126-0.226 0.2-0.357h-0.002zM7.099 19.697c-0.127 0.479-0.338 0.902-0.563 1.294-0.247-0.568-0.455-1.095-0.59-1.473 0.057 0.004 0.123 0.006 0.198 0.010 0.173 0.008 0.354 0.015 0.428 0.015 0.008 0.008 0.013 0.021 0.022 0.027 0.203 0.17 0.374 0.168 0.503 0.124l0.002 0.002zM3.348 26.695c-0.068-0.031-0.142 0-0.184 0.075-0.453 0.815-1.016 0.96-1.693 0.983 0.041-0.093 0.088-0.183 0.137-0.274 0.047-0.089 0.094-0.18 0.138-0.276 0.030-0.066 0.031-0.149 0.002-0.216-0.028-0.066-0.083-0.108-0.142-0.108-0.37 0-0.573 0.066-0.771 0.131-0.121 0.039-0.238 0.077-0.393 0.097 0.142-0.378 0.264-0.66 0.376-0.917 0.285-0.653 0.489-1.126 0.719-2.468 0.011-0.066-0.002-0.137-0.036-0.189s-0.087-0.079-0.138-0.071c-0.205 0.027-0.37 0.151-0.514 0.268 0.363-0.867 0.625-1.684 0.878-2.481 0.156-0.487 0.302-0.948 0.47-1.415 0.036-0.1 0.009-0.218-0.061-0.274-0.068-0.056-0.156-0.035-0.208 0.044-0.065 0.052-0.283 0.054-0.458 0.050 0.492-0.788 1.018-1.68 1.205-2.792 0.014-0.085-0.013-0.172-0.066-0.222-0.115-0.104-0.238-0.031-0.326 0.023-0.096 0.058-0.193 0.116-0.326 0.071 0.076-0.145 0.172-0.311 0.275-0.494 0.36-0.633 0.81-1.419 0.966-2.19 0.013-0.064 0.003-0.133-0.028-0.185s-0.079-0.083-0.129-0.083c-0.054 0-0.129 0.019-0.236 0.052 0.373-0.865 0.664-2.008 0.969-3.207 0.011-0.044 0.022-0.089 0.035-0.135 0.338 1.471 0.711 2.524 1.127 3.186-0.214-0.033-0.285-0.052-0.307-0.060-0.053-0.035-0.12-0.031-0.17 0.019-0.063 0.060-0.085 0.172-0.050 0.265 0.064 0.176 0.673 1.608 1.238 2.396-0.167-0.004-0.285-0.044-0.368-0.18-0.050-0.083-0.14-0.104-0.211-0.050-0.069 0.056-0.098 0.17-0.066 0.268 0.23 0.705 0.669 1.915 1.218 2.773-0.203-0.008-0.409-0.021-0.475-0.035-0.043-0.025-0.091-0.025-0.135 0.002-0.079 0.050-0.113 0.17-0.080 0.276 0.129 0.407 0.442 1.232 0.84 2.124 0.002 0.006 0.005 0.010 0.008 0.017 0.198 0.444 0.417 0.902 0.645 1.334-0.159-0.023-0.335-0.050-0.442-0.066-0.153-0.023-0.236-0.033-0.249-0.033-0.047 0.006-0.091 0.039-0.12 0.091-0.027 0.052-0.036 0.118-0.024 0.178 0.217 1.045 0.573 2.414 1.415 3.871-0.538 0.071-1.287-0.027-1.723-0.238-0.058-0.029-0.123-0.010-0.167 0.046-0.046 0.056-0.061 0.139-0.044 0.218 0.069 0.303 0.241 0.668 0.387 0.973-0.519-0.214-1.429-0.676-1.55-0.863-0.024-0.075-0.079-0.127-0.142-0.131-0.068-0.002-0.132 0.048-0.157 0.131-0.159 0.502-0.104 1.705-0.022 3.109 0.017 0.305 0.033 0.577 0.041 0.79h-0.894l0.121-3.989c0.003-0.093-0.041-0.18-0.109-0.212l0.003-0.006z"></path>
</svg>
