<!-- Generated by IcoMoon.io -->
<svg version="1.1" xmlns="http://www.w3.org/2000/svg" width="32" height="32" viewBox="0 0 32 32">
<path d="M22.92 28.939c-1.036-1.378-1.769-2.929-2.24-4.569-0.173-0.476 0.56-0.733 0.733-0.213 0.476 1.596 1.164 3.058 2.196 4.395 1.422-0.778 2.111-2.8 0.862-4.48-1.249-1.636-3.147-3.147-4.009-5.040-1.467 2.284-3.102 6.853-0.907 9.133 1.040 1.036 2.289 1.164 3.365 0.773zM24.947 21.703c1.809-3.707 3.662-9.955-0.044-13.142-1.636-1.378-3.707-1.467-5.342-0.604 1.769 1.853 3.058 4.049 4.049 6.422 0.173 0.476-0.516 0.778-0.689 0.302-0.991-2.329-2.24-4.48-4.009-6.293-2.929 2.24-2.329 5.773 0.476 7.885 2.2 1.636 4.395 2.542 5.56 5.431zM10.685 15.756c4.178 0.689 6.809 4.871 5.689 8.92-0.129 0.431-0.862 0.347-0.733-0.213 0.991-3.618-1.378-7.369-5.129-7.973l0.516 0.431c0.387 0.302-0.044 0.907-0.476 0.604l-1.422-1.164c-0.258-0.129-0.213-0.516 0-0.644l1.68-0.862c0.431-0.258 0.778 0.431 0.347 0.644zM15.769 27.819c-0.044 0.516-0.778 0.476-0.778 0l0.044-0.56c-2.671 3.275-7.627 3.489-10.555 0.476-0.387-0.347 0.173-0.862 0.516-0.516 2.671 2.715 7.111 2.458 9.48-0.476l-0.644 0.258c-0.476 0.173-0.733-0.516-0.258-0.689l1.724-0.733c0.258-0.084 0.516 0.084 0.516 0.387zM2.022 25.623c-0.431-0.258 0-0.907 0.387-0.644l0.476 0.302c-1.467-3.92 0.778-8.315 4.871-9.395 0.476-0.129 0.689 0.604 0.173 0.733-3.662 0.947-5.689 4.911-4.311 8.445l0.084-0.689c0.084-0.476 0.818-0.387 0.778 0.129l-0.262 1.853c-0.129 0.258-0.347 0.431-0.604 0.258zM7.667 25.668c0.947-0.818 1.636-1.853 2.24-2.929 0.213-0.431 0.907-0.084 0.644 0.347-0.604 1.164-1.338 2.196-2.284 3.058 1.507 0.862 2.973-0.213 3.489-1.636 0.516-1.338 0.173-3.791-0.387-5-1.036 1.076-2.458 1.769-3.533 2.76-0.987 0.942-1.16 2.409-0.169 3.4zM30.115 8.988c-0.516 0.347-1.467 0.778-1.853 1.164-0.431 0.476-0.387 1.076-0.084 1.422 0.431 0.431 1.293 0.431 1.724-0.604 0.258-0.6 0.302-1.333 0.213-1.982zM28.351 7.094c0.084-0.476 0.129-1.076 0.044-1.898-0.644 0.431-1.378 0.778-2.027 1.249-0.56 0.387-0.644 1.036-0.347 1.596 0.302 0.516 0.862 0.733 1.422 0.431 0.258-0.129 0.689-0.516 0.907-1.378zM22.964 2.139c-0.258 0.818-0.689 1.596-0.947 2.458-0.516 1.551 1.636 2.542 2.329 1.12 0.556-1.209-0.609-2.805-1.382-3.578zM16.671 2.699c0.218 0.947 0.218 1.938 0.391 2.929 0.347 1.809 2.929 1.551 2.845-0.213-0.089-1.511-2.027-2.369-3.235-2.715zM11.502 6.965c0.733 0.907 1.249 1.938 1.898 2.845 1.293 1.724 4.009 0.213 2.973-1.636-0.822-1.511-3.405-1.467-4.871-1.209z"></path>
</svg>
