<?xml version="1.0" encoding="utf-8"?>
<svg xmlns="http://www.w3.org/2000/svg" viewBox="37.7336 34.2799 87.5002 87.4957" width="150pt" height="150pt">
  <path d="M 52.158 53.89 L 63.073 41.379 C 63.922 40.407 65.3 40.407 66.149 41.379 L 74.59 51.055 L 68.437 58.11 L 63.709 58.11 C 62.545 58.11 61.454 58.629 60.658 59.537 L 55.851 64.854 C 55.803 64.477 55.725 64.103 55.596 63.737 L 52.158 53.89 Z M 53.233 64.864 C 52.824 65.462 52.149 65.823 51.42 65.823 L 49.231 65.823 L 49.231 70.182 L 44.851 70.182 L 44.851 65.823 L 42.661 65.823 C 41.933 65.823 41.256 65.462 40.847 64.866 C 40.442 64.266 40.36 63.503 40.628 62.833 L 45.007 51.933 C 45.342 51.103 46.145 50.562 47.041 50.562 C 47.936 50.562 48.741 51.103 49.075 51.933 L 53.455 62.833 C 53.723 63.503 53.641 64.266 53.233 64.864 Z M 61.987 88.331 C 49.304 85.359 40.471 79.566 40.471 73.076 L 60.721 73.076 C 60.721 78.477 61.18 83.598 61.988 88.331 L 61.987 88.331 Z M 96.227 92.059 C 93.256 104.745 87.462 113.576 80.972 113.576 C 74.48 113.576 68.687 104.745 65.716 92.059 C 70.45 92.866 75.57 93.326 80.972 93.326 C 86.373 93.326 91.493 92.866 96.227 92.059 Z M 98.33 73.076 C 98.33 78.684 97.805 84.065 96.875 88.979 C 91.961 89.909 86.581 90.433 80.972 90.433 C 75.364 90.433 69.982 89.909 65.068 88.979 C 64.139 84.064 63.614 78.684 63.614 73.076 L 98.33 73.076 Z M 120.592 81.432 C 117.295 97.066 104.974 109.406 89.328 112.696 C 93.783 108.473 97.33 100.94 99.356 91.459 C 108.837 89.438 116.365 85.89 120.592 81.432 Z M 62.587 91.459 C 64.608 100.94 68.159 108.476 72.618 112.699 C 56.971 109.406 44.648 97.067 41.354 81.435 C 45.577 85.887 53.11 89.438 62.587 91.459 Z M 121.471 73.076 C 121.471 79.566 112.638 85.359 99.955 88.331 C 100.762 83.598 101.222 78.477 101.222 73.076 L 121.471 73.076 Z M 87.326 70.344 L 52.296 70.344 L 61.79 60.854 C 62.155 60.477 62.652 60.264 63.168 60.264 L 68.2 60.264 L 79.308 48.761 C 80.067 47.975 81.3 47.975 82.06 48.761 L 85.142 51.954 C 84.086 53.673 83.433 55.835 83.433 58.249 C 83.433 61.961 84.927 65.242 87.326 66.989 L 87.326 70.344 Z M 110.709 69.919 C 109.262 69.6 108.375 68.812 106.747 66.409 C 106.504 66.049 106.186 65.56 106.04 65.323 C 105.895 65.085 105.762 64.894 105.746 64.896 C 105.729 64.898 105.596 65.141 105.451 65.437 C 105.306 65.733 104.932 66.366 104.62 66.844 C 104.129 67.591 104.052 67.748 104.052 67.962 C 104.052 68.368 104.214 68.483 105.208 68.78 C 105.914 68.99 106.4 69.379 106.4 69.731 C 106.4 69.862 105.762 69.902 104.081 69.878 C 102.361 69.852 102.38 69.858 101.723 69.154 C 101.202 68.595 100.876 68.125 100.806 67.829 C 100.735 67.528 100.773 67.277 101.083 65.992 C 101.223 65.404 101.434 64.453 101.55 63.88 C 101.666 63.307 101.775 62.779 101.791 62.707 L 101.823 62.574 L 100.469 62.602 C 98.942 62.634 98.968 62.628 98.634 63.12 C 98.461 63.374 98.301 63.827 97.835 65.366 C 97.733 65.707 97.527 66.257 97.381 66.584 C 97.235 66.912 97.101 67.316 97.084 67.48 C 97.054 67.745 97.071 67.803 97.213 67.973 C 97.412 68.208 97.548 68.282 98.282 68.544 C 99.161 68.86 99.698 69.251 99.776 69.632 L 99.813 69.819 L 99.494 69.858 C 99.318 69.88 98.384 69.889 97.417 69.878 L 95.658 69.858 L 95.366 69.677 C 95.056 69.486 94.507 68.871 94.045 68.202 L 93.766 67.794 L 93.728 66.714 C 93.709 66.121 93.688 65.626 93.685 65.616 C 93.68 65.607 93.453 65.781 93.177 66.003 C 92.903 66.227 92.491 66.552 92.259 66.729 C 92.028 66.907 91.755 67.17 91.651 67.314 C 91.417 67.641 91.277 68.072 91.357 68.222 C 91.449 68.392 91.762 68.632 92.154 68.828 C 92.353 68.929 92.632 69.091 92.772 69.188 C 93.028 69.362 93.264 69.727 93.176 69.813 C 93.152 69.837 92.365 69.858 91.426 69.858 C 89.782 69.858 89.715 69.853 89.476 69.726 C 89.123 69.537 88.787 69.114 88.429 68.409 L 88.117 67.793 L 88.123 67.19 C 88.125 66.713 88.154 66.512 88.262 66.229 C 88.699 65.079 88.669 65.22 89.6 59.738 C 89.846 58.293 90.073 56.988 90.108 56.839 C 90.356 55.727 91.159 54.423 92.274 53.319 C 93.478 52.126 94.833 51.433 96.679 51.062 C 97.874 50.824 98.691 50.785 102.178 50.804 L 105.417 50.823 L 106.057 50.511 C 107.005 50.051 107.252 49.99 108.093 49.997 C 108.757 50.004 108.903 50.028 110.249 50.368 C 111.826 50.766 112.318 50.838 113.727 50.871 L 114.666 50.893 L 115.006 50.627 C 115.399 50.32 115.655 50.198 115.911 50.198 C 116.15 50.198 116.366 50.416 116.422 50.712 C 116.46 50.918 116.398 51.382 116.299 51.631 C 116.272 51.698 116.36 51.793 116.608 51.966 C 117.168 52.36 117.958 53.081 118.153 53.377 C 118.262 53.541 118.354 53.773 118.377 53.947 C 118.431 54.337 118.619 54.587 119.545 55.506 C 119.965 55.924 120.311 56.311 120.311 56.367 C 120.311 56.522 119.49 57.293 119.15 57.459 C 118.86 57.602 118.808 57.605 117.011 57.641 C 114.928 57.682 115.168 57.642 112.827 58.323 C 112.096 58.536 111.399 58.761 111.279 58.821 C 110.917 59.006 110.574 59.402 110.306 59.944 C 110.062 60.437 110.054 60.469 110.056 61.021 C 110.058 61.422 110.106 61.792 110.218 62.274 C 110.454 63.285 110.603 64.256 110.706 65.439 C 110.777 66.272 110.834 66.61 110.974 67.052 C 111.263 67.951 111.566 68.259 112.283 68.373 C 112.732 68.444 113.355 68.832 113.512 69.135 C 113.592 69.288 113.591 69.315 113.492 69.424 C 113.066 69.894 111.7 70.138 110.708 69.919 L 110.709 69.919 Z" style="fill: rgb(8, 8, 8);"/>
</svg>