<!-- Generated by IcoMoon.io -->
<svg version="1.1" xmlns="http://www.w3.org/2000/svg" width="32" height="32" viewBox="0 0 32 32">
<path d="M21.712 12.804c0 1.887-0.989 3.42-2.861 4.435-1.011 0.546-2.015 0.8-2.499 0.899v-3.056l2.995-2.353c0.15-0.116 0.176-0.334 0.058-0.484-0.116-0.15-0.334-0.176-0.484-0.057l-2.57 2.016v-2.87l1.828-1.434c0.15-0.116 0.176-0.334 0.058-0.484-0.116-0.15-0.334-0.176-0.484-0.057l-1.401 1.098v-2.691c0-0.191-0.153-0.345-0.345-0.345-0.191 0-0.345 0.152-0.345 0.345v2.691l-1.401-1.098c-0.148-0.119-0.365-0.092-0.484 0.057-0.119 0.148-0.092 0.365 0.057 0.484l1.828 1.434v2.87l-2.57-2.016c-0.148-0.119-0.365-0.092-0.484 0.057-0.119 0.148-0.092 0.365 0.057 0.484l2.995 2.352v3.056c-0.482-0.099-1.484-0.351-2.499-0.899-1.873-1.011-2.861-2.547-2.861-4.435 0-2.070 0.698-4.765 1.824-7.030 0.576-1.158 2.105-3.853 3.881-3.853s3.305 2.694 3.881 3.853c1.122 2.263 1.824 4.956 1.824 7.030zM16.048 18.193c0.016-0.004 0.121-0.020 0.297-0.055v2.404c0 0.191-0.152 0.345-0.345 0.345-0.191 0-0.345-0.152-0.345-0.345v-2.404c0.176 0.036 0.281 0.055 0.297 0.055zM28.714 18.404c0.086 0.538-0.016 1.095-0.281 1.571l-2.864 5.101c-0.631 1.124-0.964 2.398-0.964 3.684v1.315h-4.771v-2.234c0-0.045-0.010-0.094-0.029-0.135l-0.345-0.816c-0.374-0.876-0.476-1.836-0.304-2.771 0.176-0.938 0.621-1.789 1.286-2.461 0.435-0.438 0.944-0.784 1.514-1.030l0.144-0.064c0.067-0.029 0.125-0.080 0.164-0.148l1.516-2.704c0.246-0.441 0.806-0.599 1.247-0.355 0.004 0.003 0.006 0.006 0.010 0.006 0.438 0.25 0.591 0.81 0.345 1.251l-1.945 3.465c-0.093 0.166-0.035 0.378 0.131 0.47s0.378 0.035 0.47-0.131l1.945-3.465c0.396-0.706 0.201-1.59-0.429-2.070l0.172-2.765c0.006-0.090-0.023-0.179-0.080-0.246l-0.055-0.061c-0.451-0.531-0.726-1.18-0.796-1.875l-0.039-0.377c-0.054-0.535 0.205-1.054 0.644-1.341 1.696 2.403 2.832 5.197 3.29 8.102l0.012 0.086zM11.578 21.663c0.669 0.672 1.11 1.524 1.286 2.461 0.172 0.935 0.068 1.891-0.304 2.771l-0.345 0.816c-0.019 0.043-0.029 0.090-0.029 0.135v2.234h-4.771v-1.315c0-1.288-0.334-2.56-0.964-3.684l-2.864-5.101c-0.265-0.474-0.368-1.034-0.281-1.571l0.013-0.086c0.457-2.906 1.594-5.699 3.29-8.102 0.439 0.289 0.699 0.806 0.644 1.341l-0.039 0.377c-0.066 0.694-0.345 1.344-0.796 1.875l-0.055 0.061c-0.058 0.070-0.086 0.156-0.080 0.246l0.173 2.765c-0.63 0.476-0.825 1.363-0.429 2.070l1.945 3.465c0.092 0.166 0.304 0.224 0.47 0.131s0.224-0.304 0.131-0.47l-1.945-3.465c-0.25-0.441-0.094-1.001 0.345-1.251 0.004-0.003 0.006-0.006 0.010-0.006 0.441-0.244 1.001-0.086 1.247 0.355l1.516 2.704c0.036 0.064 0.094 0.119 0.164 0.148l0.144 0.064c0.57 0.246 1.079 0.591 1.514 1.030z"></path>
</svg>
