<?xml version="1.0" encoding="UTF-8" standalone="no"?>
<!DOCTYPE svg PUBLIC "-//W3C//DTD SVG 1.1//EN" "http://www.w3.org/Graphics/SVG/1.1/DTD/svg11.dtd">
<svg width="100%" height="100%" viewBox="0 0 150 150" version="1.1" xmlns="http://www.w3.org/2000/svg" xmlns:xlink="http://www.w3.org/1999/xlink" xml:space="preserve" xmlns:serif="http://www.serif.com/" style="fill-rule:evenodd;clip-rule:evenodd;stroke-linejoin:round;stroke-miterlimit:2;">
    <g transform="matrix(0.157531,0,0,0.166526,-19.5262,-24.8738)">
        <path d="M715.13,215.44C725.161,205.409 739.036,199.174 754.364,199.174C769.692,199.174 783.567,205.408 793.598,215.44C803.629,225.472 809.864,239.346 809.864,254.674C809.864,270.002 803.63,283.877 793.598,293.908C783.566,303.939 769.692,310.174 754.364,310.174C739.036,310.174 725.161,303.94 715.13,293.908C705.099,283.876 698.864,270.002 698.864,254.674C698.864,239.346 705.098,225.471 715.13,215.44ZM754.364,209.018C741.755,209.018 730.317,214.128 722.067,222.377C713.817,230.627 708.708,242.065 708.708,254.674C708.708,267.283 713.817,278.721 722.067,286.971C730.317,295.221 741.755,300.33 754.364,300.33C766.973,300.33 778.411,295.221 786.661,286.971C794.911,278.722 800.02,267.283 800.02,254.674C800.02,242.065 794.911,230.627 786.661,222.377C778.411,214.127 766.973,209.018 754.364,209.018ZM754.598,239.252C751.411,243.283 749.442,248.721 749.442,254.721C749.442,260.721 751.411,266.159 754.598,270.19C758.02,274.503 762.848,277.175 768.286,277.175C773.724,277.175 778.552,274.503 781.974,270.19C785.162,266.159 787.131,260.721 787.131,254.721C787.131,248.721 785.162,243.283 781.974,239.252C778.552,234.94 773.724,232.268 768.286,232.268C762.848,232.268 758.02,234.94 754.598,239.252ZM768.286,242.065C765.989,242.065 763.88,243.33 762.286,245.346C760.411,247.69 759.286,250.971 759.286,254.721C759.286,258.424 760.458,261.752 762.286,264.096C763.88,266.111 766.036,267.377 768.286,267.377C770.583,267.377 772.693,266.111 774.286,264.096C776.161,261.752 777.286,258.471 777.286,254.721C777.286,251.018 776.114,247.69 774.286,245.346C772.693,243.33 770.536,242.065 768.286,242.065ZM1009.55,259.456C1012.08,257.487 1014.14,255.284 1015.83,252.846C1022.2,243.612 1023.14,231.002 1020.47,217.924C1017.7,204.283 1011.05,190.268 1002.51,178.783C1000.59,176.205 998.625,173.768 996.515,171.518C996.234,171.518 995.953,171.471 995.671,171.471C994.734,171.424 993.656,171.377 992.531,171.377C979.922,171.377 968.484,176.486 960.234,184.736C951.984,192.986 946.875,204.424 946.875,217.033C946.875,229.642 951.984,241.08 960.234,249.33C968.483,257.58 979.922,262.689 992.531,262.689C995.625,262.689 998.625,262.408 1001.48,261.798C1004.25,261.236 1006.92,260.439 1009.5,259.455L1009.55,259.456ZM978.89,201.518C982.312,197.205 987.14,194.533 992.578,194.533C998.016,194.533 1002.84,197.205 1006.27,201.518C1009.45,205.549 1011.42,210.986 1011.42,216.987C1011.42,222.987 1009.45,228.425 1006.27,232.456C1002.84,236.768 998.016,239.44 992.578,239.44C987.14,239.44 982.312,236.768 978.89,232.456C975.703,228.424 973.734,222.987 973.734,216.987C973.734,210.986 975.703,205.549 978.89,201.518ZM992.578,204.33C994.875,204.33 996.985,205.596 998.578,207.611C1000.45,209.955 1001.58,213.236 1001.58,216.986C1001.58,220.689 1000.41,224.018 998.578,226.361C996.985,228.377 994.828,229.643 992.578,229.643C990.281,229.643 988.172,228.377 986.578,226.361C984.703,224.018 983.578,220.736 983.578,216.986C983.578,213.283 984.75,209.955 986.578,207.611C988.172,205.596 990.328,204.33 992.578,204.33ZM831.368,1002.52L831.322,1002.38L831.275,1002.33C831.322,1002.38 831.368,1002.61 831.322,1002.52L831.368,1002.52ZM859.399,246.2C859.681,248.872 857.759,251.31 855.04,251.591C852.368,251.872 849.931,249.95 849.649,247.231C849.321,244.372 848.712,241.513 847.774,238.7C844.259,228.012 836.571,217.934 826.165,209.403C826.119,209.356 826.072,209.309 825.978,209.262C820.868,205.091 815.056,201.294 808.822,198.012C789.416,187.793 765.556,182.309 742.119,184.84C735.322,185.59 728.572,186.997 721.963,189.153C718.822,190.184 715.775,191.544 712.775,193.184C696.837,202.09 683.244,219.575 675.322,240.153C667.354,260.778 665.197,284.403 672.088,305.45C673.588,310.044 675.51,314.497 677.9,318.809C679.213,321.153 678.369,324.153 675.979,325.465C673.635,326.778 670.635,325.934 669.322,323.543C666.604,318.668 664.4,313.653 662.713,308.496C656.01,287.965 657.041,265.371 663.322,244.84C644.338,231.574 625.072,243.575 601.447,258.293C576.697,273.715 547.541,291.855 508.306,290.309C453.65,288.153 397.686,351.809 346.826,409.649C339.983,417.478 333.185,425.165 326.201,432.899L324.608,434.681C260.249,506.306 241.452,527.212 240.139,646.231C243.232,648.059 246.092,649.793 248.623,651.387C268.92,664.371 331.217,715.465 377.943,768.997C398.99,793.091 416.99,817.747 426.74,839.825C430.021,847.231 432.365,854.356 433.677,861.106C449.568,864.856 465.88,866.825 482.333,867.246C498.364,867.668 514.583,866.637 530.708,864.387C510.786,836.403 490.208,804.668 485.38,775.325C478.724,734.591 495.177,708.247 513.271,679.278C523.256,663.34 533.709,646.559 540.74,626.309C543.506,618.387 546.412,611.731 549.225,605.356C555.74,590.544 561.741,576.997 561.741,555.528C561.741,552.809 563.944,550.606 566.663,550.606C569.382,550.606 571.585,552.809 571.585,555.528C571.585,579.012 565.21,593.45 558.226,609.294C555.413,615.669 552.507,622.278 550.023,629.497C542.616,650.872 531.882,668.075 521.664,684.435C504.602,711.763 489.039,736.654 495.086,773.732C499.914,803.17 522.602,836.357 543.18,864.951C543.273,865.092 543.367,865.185 543.461,865.326C545.101,867.623 546.742,869.873 548.336,872.076C557.476,884.732 565.82,896.264 571.633,906.06C591.836,940.232 624.321,963.763 651.742,983.638C676.82,1001.78 697.82,1017.01 703.211,1035.58C705.836,1044.67 710.43,1048.98 714.883,1049.92C717.32,1050.44 719.664,1049.97 721.539,1048.75C723.32,1047.58 724.68,1045.65 725.008,1043.26C725.711,1038.67 723.133,1032.34 714.696,1025.45C705.836,1018.23 701.008,1011.25 699.227,1005.11C697.961,1000.8 698.102,996.858 699.367,993.436C700.68,989.92 703.117,987.108 706.305,985.092C710.336,982.608 715.586,981.436 721.352,981.998C739.493,983.779 759.836,989.639 778.211,994.982C795.414,999.998 810.883,1004.45 820.258,1004.31C825.836,1004.22 829.586,1003.42 831.274,1002.11L831.321,1002.15C831.04,1001.31 830.055,1000.09 828.274,998.592C820.352,991.888 801.321,983.451 767.571,975.295C733.212,966.998 722.337,959.404 724.212,951.811C726.04,944.17 740.806,939.858 757.024,935.077C772.962,930.389 790.54,925.233 793.868,919.093C797.29,912.811 797.805,909.858 796.399,909.108C789.321,905.264 763.633,914.264 742.821,921.624C729.555,926.312 718.118,930.343 712.633,930.343C704.758,930.343 695.571,929.968 686.664,927.671C677.383,925.28 668.617,920.827 662.242,912.624C651.039,898.233 645.836,875.827 641.617,857.593C640.07,850.937 638.664,844.89 637.117,840.015C630.461,819.015 617.289,805.234 606.695,794.171C594.461,781.374 585.273,771.812 590.383,758.077C598.68,735.765 610.071,727.796 624.086,718.093C643.024,704.921 667.024,688.234 694.164,621.765C695.195,619.281 698.008,618.062 700.539,619.093C703.024,620.124 704.242,622.937 703.211,625.468C674.899,694.702 649.633,712.28 629.664,726.158C617.055,734.924 606.789,742.049 599.57,761.502C596.617,769.471 603.976,777.158 613.726,787.377C623.617,797.736 635.71,810.346 643.445,828.908C644.523,828.393 645.508,827.877 646.492,827.408C648.836,826.236 651.414,824.877 654.226,823.377C720.273,788.268 758.666,766.049 785.986,741.486C813.127,717.111 829.674,690.064 852.033,645.252C861.971,625.33 878.283,613.752 894.736,602.033C920.283,583.845 946.158,565.471 944.095,513.017C943.252,491.267 966.736,477.017 992.564,461.314C1011.08,450.064 1030.91,438.064 1042.39,422.595C1036.81,425.079 1030.77,427.236 1024.44,429.111L1024.2,429.157C991.158,438.814 949.861,440.266 926.096,441.11L920.658,441.298C903.127,441.954 877.955,451.61 850.486,462.204C797.002,482.782 734.936,506.595 695.466,477.298C693.31,475.704 692.841,472.61 694.435,470.454C696.029,468.298 699.123,467.829 701.279,469.423C736.435,495.532 795.779,472.751 846.969,453.064C875.235,442.189 901.11,432.252 920.281,431.502L925.719,431.314C949.063,430.471 989.61,429.064 1021.49,419.736L1021.67,419.69C1048.58,411.815 1069.16,398.174 1066.2,374.128C1062.78,376.424 1058.89,378.721 1054.44,381.018C1012.62,402.815 979.203,403.424 948.407,404.034C923.516,404.503 900.407,404.972 876.313,417.253C849.641,430.847 813.313,442.565 776.844,447.394C745.906,451.519 714.782,450.675 689.282,441.863C686.751,440.972 685.391,438.207 686.235,435.629C687.126,433.097 689.891,431.738 692.47,432.582C716.376,440.879 745.954,441.582 775.579,437.644C810.829,432.957 846.032,421.613 871.86,408.441C897.876,395.175 922.11,394.707 948.266,394.191C977.938,393.629 1010.14,393.019 1049.94,372.253C1075.44,358.941 1079.51,347.269 1073.98,336.628C1068.45,326.034 1054.34,315.394 1040.84,305.175C1025.33,293.456 1010.47,282.253 1007.47,270.159C1006.15,270.534 1004.84,270.815 1003.48,271.097C999.967,271.8 996.357,272.175 992.654,272.175C977.326,272.175 963.451,265.94 953.42,255.909C943.389,245.877 937.154,232.003 937.154,216.675C937.154,201.347 943.389,187.472 953.42,177.441C961.998,168.863 973.389,163.05 986.092,161.55C985.717,161.268 985.295,160.987 984.92,160.706C979.201,156.722 973.389,153.909 967.67,152.081C950.982,146.737 934.482,149.784 920.232,156.909C905.701,164.175 893.56,175.565 885.826,186.675C882.451,191.597 879.92,196.378 878.514,200.691C877.998,202.847 876.076,204.441 873.733,204.441L867.17,204.347C856.951,204.207 845.42,204.066 837.92,206.269C847.014,214.894 853.764,224.785 857.186,235.285C858.311,238.707 859.061,242.223 859.483,245.785L859.399,246.2ZM949.915,288.622C949.915,285.903 952.118,283.7 954.837,283.7C957.556,283.7 959.759,285.903 959.759,288.622C959.759,290.778 959.759,288.716 959.712,291.06C959.665,297.903 959.619,303.622 963.556,308.919C965.15,311.075 964.728,314.169 962.525,315.762C960.369,317.356 957.275,316.934 955.681,314.731C949.822,306.809 949.869,299.59 949.916,291.012L949.915,288.622ZM901.353,308.684C898.635,308.778 896.385,306.622 896.338,303.95C896.244,301.231 898.4,298.981 901.072,298.934C910.916,298.606 924.181,310.887 930.838,317.028L931.729,317.825C933.698,319.653 933.838,322.747 932.01,324.762C930.182,326.731 927.088,326.872 925.073,325.044L924.182,324.247C918.51,318.997 907.213,308.591 901.307,308.778L901.353,308.684ZM666.563,394.325C668.673,392.638 671.766,393.013 673.454,395.122C675.141,397.231 674.766,400.325 672.657,402.013C662.954,409.747 656.251,419.825 652.548,430.56C649.548,439.185 648.564,448.232 649.548,456.716C650.532,465.012 653.486,472.747 658.454,478.935C662.767,484.325 668.579,488.591 675.938,491.123C678.469,492.013 679.829,494.779 678.985,497.357C678.095,499.888 675.329,501.248 672.751,500.404C663.516,497.216 656.204,491.826 650.767,485.076C644.626,477.388 641.017,467.967 639.798,457.888C638.626,447.997 639.798,437.45 643.267,427.372C647.579,414.997 655.361,403.278 666.517,394.372L666.563,394.325ZM615.047,418.137C617.297,416.637 620.344,417.246 621.844,419.497C623.344,421.747 622.735,424.793 620.485,426.293C619.641,426.856 618.844,427.7 618.141,428.731C615.188,433.043 613.688,440.122 613.688,447.528C613.735,454.934 615.329,462.434 618.657,467.45C619.688,468.997 620.86,470.262 622.172,471.153C624.422,472.7 624.985,475.747 623.438,477.95C621.891,480.2 618.844,480.762 616.641,479.216C614.204,477.575 612.188,475.372 610.5,472.841C606.047,466.184 603.891,456.669 603.891,447.482C603.844,438.247 605.954,429.107 610.032,423.154C611.438,421.091 613.125,419.357 615,418.091L615.047,418.137ZM552.188,350.684C555.61,347.262 560.345,345.153 565.547,345.153C570.75,345.153 575.485,347.262 578.906,350.684C582.328,354.106 584.438,358.84 584.438,364.043C584.438,369.246 582.328,373.981 578.906,377.402C575.484,380.824 570.75,382.933 565.547,382.933C560.485,382.933 555.891,380.918 552.469,377.683C552.376,377.59 552.235,377.496 552.141,377.402C548.719,373.98 546.61,369.246 546.61,364.043C546.61,358.84 548.719,354.106 552.141,350.684L552.188,350.684ZM565.547,354.95C568.079,354.95 570.329,355.981 571.969,357.622C573.61,359.262 574.641,361.559 574.641,364.044C574.641,366.575 573.61,368.825 571.969,370.465C570.329,372.106 568.032,373.137 565.547,373.137C563.11,373.137 560.907,372.2 559.313,370.7L559.125,370.465C557.485,368.825 556.454,366.528 556.454,364.044C556.454,361.512 557.485,359.262 559.125,357.622C560.766,355.981 563.016,354.997 565.547,354.997L565.547,354.95ZM469.406,337.7C472.828,334.278 477.563,332.169 482.765,332.169C487.968,332.169 492.703,334.278 496.124,337.7C499.546,341.122 501.656,345.856 501.656,351.059C501.656,356.262 499.546,360.996 496.124,364.418C492.702,367.84 487.968,369.949 482.765,369.949C477.563,369.949 472.828,367.84 469.406,364.418C465.984,360.996 463.875,356.262 463.875,351.059C463.875,345.856 465.985,341.121 469.406,337.7ZM482.765,341.965C485.297,341.965 487.547,342.997 489.187,344.637C490.828,346.278 491.859,348.575 491.859,351.059C491.859,353.59 490.828,355.84 489.187,357.481C487.547,359.122 485.25,360.153 482.765,360.153C480.234,360.153 477.984,359.122 476.343,357.481C474.703,355.84 473.672,353.544 473.672,351.059C473.672,348.528 474.703,346.278 476.343,344.637C477.984,342.997 480.281,341.965 482.765,341.965ZM471.515,409.653C474.937,406.231 479.672,404.122 484.874,404.122C490.077,404.122 494.812,406.232 498.233,409.653C501.655,413.075 503.765,417.81 503.765,423.012C503.765,428.075 501.749,432.669 498.515,436.09C498.421,436.184 498.327,436.325 498.233,436.418C494.811,439.84 490.077,441.95 484.874,441.95C479.672,441.95 474.937,439.84 471.515,436.418C468.093,432.997 465.984,428.262 465.984,423.059C465.984,417.856 468.094,413.122 471.515,409.7L471.515,409.653ZM484.921,413.919C487.453,413.919 489.703,414.95 491.343,416.591C492.984,418.231 494.015,420.528 494.015,423.013C494.015,425.45 493.078,427.607 491.578,429.247L491.39,429.435C489.75,431.075 487.453,432.107 484.968,432.107C482.437,432.107 480.187,431.075 478.546,429.435C476.906,427.794 475.921,425.544 475.921,423.013C475.921,420.481 476.953,418.232 478.593,416.591C480.234,414.95 482.531,413.919 485.062,413.919L484.921,413.919ZM799.181,742.739C819.806,722.63 834.525,700.317 851.259,668.442C855.994,681.801 859.134,689.958 861.525,696.098C867.807,712.27 868.557,714.286 877.837,759.754C881.915,779.723 883.04,794.207 882.337,805.738C881.4,805.129 880.462,804.519 879.525,803.863C876.15,801.566 872.869,799.316 869.681,797.019C865.228,793.832 861.759,794.722 858.9,798.754C855.9,802.925 854.822,812.066 853.463,822.988C852.9,827.347 852.338,832.081 851.634,836.722C848.822,854.91 843.853,873.519 830.212,871.41C828.291,871.128 828.291,844.316 828.337,786.379L828.337,773.488C828.337,769.784 822.525,762.988 815.493,756.379C810.15,751.363 803.915,746.16 799.181,742.691L799.181,742.739ZM936.391,740.723C933.063,720.52 931.938,699.192 932.407,688.598C932.969,675.145 930.344,654.098 927.86,633.895C926.548,623.395 925.282,613.129 924.485,604.457C929.688,610.41 935.829,617.113 942.438,624.285C972.11,656.629 1011.02,699.097 1010.97,723.894C1010.92,735.8 999.907,743.582 970.281,743.535C964.14,743.535 955.562,742.645 946.609,741.754C943.14,741.426 939.625,741.051 936.437,740.77L936.391,740.723ZM927.438,746.395C927.86,748.833 928.329,751.223 928.844,753.567C932.454,770.395 937.844,785.114 945.672,791.255C969.484,810.052 983.031,808.88 1004.5,807.099C1012.66,806.396 1022.03,805.646 1033.42,805.927C1056.3,806.49 1068.91,808.505 1074.06,811.13C1071.77,813.005 1067.27,815.068 1061.31,817.037C1038.2,824.724 996.11,830.115 968.266,822.896L968.126,822.849C967.282,822.615 966.391,822.38 965.595,822.146C963.017,821.396 960.251,822.849 959.501,825.427C959.079,826.787 959.313,828.193 959.97,829.318C960.86,830.958 961.845,832.552 962.876,834.193L963.157,834.615C970.891,846.381 982.938,858.427 994.376,869.912C997.939,873.474 1001.45,877.037 1004.78,880.459C1017.81,894.053 1027.28,905.678 1021.61,911.115C1011.95,920.396 993.157,904.599 974.829,885.568C967.845,878.302 961.095,870.709 954.86,863.63C944.266,851.677 935.032,841.271 928.563,836.818C927.485,836.068 926.219,835.833 925.001,836.021C913.61,837.333 909.017,847.927 903.813,860.068C900.672,867.333 897.297,875.209 892.141,881.068C883.281,891.146 875.219,897.474 869.407,899.443C867.672,900.005 866.407,900.193 865.61,899.865C865.141,899.677 864.766,899.068 864.438,898.036C863.407,894.474 864.016,888.286 866.828,879.005C870.485,866.864 874.891,857.864 878.969,849.567C889.657,827.77 898.235,810.426 887.454,757.645C878.032,711.333 877.235,709.27 870.673,692.395C867.813,685.036 863.876,674.817 857.642,656.817C857.595,656.63 857.501,656.489 857.454,656.302C858.579,654.099 859.704,651.896 860.829,649.599C869.689,631.88 885.017,620.958 900.438,609.99C905.126,606.662 909.766,603.334 914.313,599.818C914.97,609.755 916.516,622.13 918.11,634.834C920.595,654.709 923.173,675.475 922.61,687.99C922.095,699.709 923.407,723.756 927.298,745.646C927.298,745.833 927.345,746.021 927.391,746.208L927.438,746.395ZM207.198,741.708C206.167,739.223 207.386,736.364 209.87,735.333C212.355,734.302 215.214,735.52 216.245,738.005C225.058,759.567 250.183,778.036 267.479,790.786C278.213,798.708 286.276,804.614 287.448,809.724C288.058,812.349 286.417,814.974 283.745,815.583C281.12,816.192 278.495,814.552 277.886,811.88C277.511,810.333 270.714,805.317 261.667,798.661C243.433,785.255 217.042,765.802 207.151,741.661L207.198,741.708ZM181.557,803.396C205.745,828.38 261.01,871.787 313.977,896.443C342.336,909.662 370.227,917.537 392.868,914.677C405.009,926.677 427.087,925.271 433.79,924.849L434.915,924.755C477.103,922.927 501.337,925.786 511.509,930.614C514.04,931.833 515.165,932.724 515.025,933.239C514.556,934.927 511.837,937.13 507.15,939.567C490.228,948.521 453.009,956.536 405.34,956.536C403.793,956.536 402.246,957.286 401.309,958.693C399.762,960.943 400.371,963.99 402.574,965.49C407.871,969.099 422.449,974.536 438.621,980.584C462.668,989.537 490.512,999.943 491.309,1003.83C492.528,1009.83 490.559,1012.88 486.34,1013.72C466.746,1017.71 414.34,993.943 372.67,975.052C352.373,965.818 334.514,957.755 323.639,954.333C322.655,954.005 321.53,954.005 320.452,954.427C317.921,955.364 316.655,958.224 317.593,960.755C320.358,968.161 328.281,979.364 334.515,988.271C338.405,993.802 341.64,998.396 341.968,999.427C350.499,1026.8 351.952,1037.91 349.046,1038.8C335.358,1043.07 269.218,951.099 254.218,930.192C252.155,927.333 250.937,925.645 250.515,925.223C227.359,903.285 191.218,852.051 163.374,800.623C140.921,759.139 123.952,717.795 123.952,692.243C123.952,677.571 125.874,666.134 129.249,657.321C134.452,643.774 143.171,636.555 153.577,633.602C164.499,630.508 177.436,631.774 190.327,635.243C210.905,640.774 231.202,651.79 243.436,659.665C263.358,672.415 324.577,722.665 370.696,775.445C391.134,798.836 408.524,822.648 417.899,843.789C426.664,863.617 428.211,880.773 417.945,892.211C415.274,895.164 411.758,897.836 407.351,900.133C403.32,902.242 398.914,903.648 394.132,904.492C393.992,904.492 393.851,904.539 393.711,904.539C372.945,908.055 345.945,900.367 318.149,887.43C266.258,863.242 212.259,820.821 188.589,796.446C186.714,794.524 183.62,794.477 181.651,796.352C179.729,798.227 179.682,801.321 181.557,803.29L181.557,803.396Z"/>
    </g>
</svg>
