<!-- Generated by IcoMoon.io -->
<svg version="1.1" xmlns="http://www.w3.org/2000/svg" width="32" height="32" viewBox="0 0 32 32">
<path d="M19.867 2.347c-0.337 0.356-0.547 0.849-0.547 1.394s0.21 1.037 0.547 1.394c0.337 0.356 0.803 0.578 1.319 0.578s0.981-0.221 1.319-0.578c0.337-0.356 0.547-0.849 0.547-1.394s-0.21-1.037-0.547-1.394c-0.337-0.356-0.803-0.578-1.319-0.578s-0.981 0.222-1.319 0.578zM21.186 2.119c0.424 0 0.808 0.181 1.085 0.475s0.449 0.699 0.449 1.147c0 0.448-0.172 0.854-0.449 1.147s-0.662 0.475-1.085 0.475-0.808-0.181-1.085-0.475c-0.277-0.293-0.449-0.699-0.449-1.147s0.172-0.854 0.449-1.147c0.277-0.293 0.662-0.475 1.085-0.475zM21.194 3.193c0.115-0.153 0.277-0.248 0.46-0.248s0.345 0.095 0.46 0.248c0.107 0.143 0.173 0.336 0.173 0.55s-0.066 0.406-0.173 0.55c-0.115 0.153-0.277 0.248-0.46 0.248s-0.345-0.095-0.46-0.248c-0.107-0.143-0.173-0.336-0.173-0.55s0.066-0.406 0.173-0.55zM21.654 3.293c0.076 0 0.148 0.045 0.202 0.117 0.061 0.083 0.101 0.202 0.101 0.333 0 0.133-0.038 0.25-0.101 0.333-0.054 0.072-0.124 0.117-0.202 0.117-0.076 0-0.148-0.045-0.202-0.117-0.061-0.083-0.101-0.202-0.101-0.333 0-0.133 0.038-0.25 0.101-0.333 0.054-0.072 0.124-0.117 0.202-0.117zM29.762 3.911l-0.002-0c-0.087 0.035-0.176 0.063-0.27 0.083-0.096 0.022-0.197 0.032-0.301 0.032-0.424 0-0.808-0.181-1.085-0.475s-0.449-0.699-0.449-1.147 0.172-0.854 0.449-1.147c0.277-0.293 0.662-0.475 1.085-0.475 0.038 0 0.074 0.002 0.106 0.003 0.009 0 0.019 0.002 0.028 0.002 0.071 0.080 0.137 0.166 0.201 0.258 0.287 0.408 0.511 0.906 0.604 1.39 0.090 0.465 0.058 0.913-0.156 1.241-0.057 0.087-0.126 0.165-0.211 0.235zM28.732 1.853c-0.107 0.143-0.173 0.336-0.173 0.55s0.066 0.406 0.173 0.55c0.115 0.153 0.277 0.248 0.46 0.248s0.345-0.095 0.46-0.248c0.107-0.143 0.173-0.336 0.173-0.55s-0.066-0.406-0.173-0.55c-0.115-0.153-0.277-0.248-0.46-0.248s-0.345 0.095-0.46 0.248zM29.192 1.953c-0.076 0-0.148 0.045-0.202 0.117-0.061 0.083-0.101 0.201-0.101 0.333 0 0.133 0.038 0.25 0.101 0.333 0.054 0.072 0.124 0.117 0.202 0.117 0.076 0 0.148-0.045 0.202-0.117 0.062-0.083 0.101-0.201 0.101-0.333 0-0.133-0.038-0.25-0.101-0.333-0.054-0.072-0.124-0.117-0.202-0.117zM23.774 30.309h-0.002c0.002 0.003 0-0.005-0.002-0.007l0.002 0.002 0.002 0.005zM24.716 3.44l0.003-0.015c-0.014-0.127-0.039-0.251-0.077-0.373-0.115-0.373-0.342-0.724-0.647-1.031 0.252-0.078 0.64-0.073 0.983-0.068l0.221 0.003c0.079 0 0.143-0.057 0.161-0.133 0.047-0.153 0.132-0.323 0.246-0.498 0.26-0.395 0.668-0.799 1.156-1.057 0.479-0.253 1.033-0.361 1.594-0.172 0.192 0.065 0.388 0.165 0.58 0.306 0.013 0.010 0.027 0.020 0.039 0.030-0.427 0.053-0.81 0.26-1.098 0.565-0.337 0.356-0.547 0.849-0.547 1.394s0.21 1.037 0.547 1.394c0.337 0.356 0.803 0.578 1.319 0.578 0.124 0 0.246-0.013 0.364-0.038 0.046-0.010 0.090-0.020 0.134-0.033 0.101 0.43 0.6 0.828 1.121 1.244 0.454 0.363 0.928 0.741 1.114 1.117 0.186 0.378 0.049 0.793-0.808 1.266-1.338 0.738-2.42 0.759-3.417 0.779-0.879 0.018-1.693 0.035-2.568 0.506-0.868 0.468-2.051 0.871-3.236 1.037-0.996 0.14-1.99 0.115-2.793-0.18-0.087-0.030-0.18 0.018-0.21 0.108-0.028 0.092 0.017 0.19 0.102 0.221 0.857 0.313 1.903 0.343 2.943 0.197 1.226-0.172 2.446-0.588 3.343-1.071 0.81-0.436 1.586-0.453 2.423-0.47 1.035-0.022 2.158-0.043 3.563-0.818 0.15-0.082 0.28-0.163 0.395-0.245 0.099 0.854-0.592 1.339-1.497 1.619l-0.006 0.002c-1.071 0.331-2.434 0.381-3.219 0.411l-0.183 0.007c-0.644 0.027-1.514 0.38-2.464 0.766-1.72 0.699-3.715 1.509-4.896 0.581-0.072-0.057-0.176-0.040-0.23 0.037s-0.038 0.187 0.035 0.243c1.326 1.041 3.412 0.195 5.21-0.536 0.923-0.376 1.769-0.719 2.358-0.743l0.183-0.007c0.799-0.030 2.186-0.082 3.297-0.425l0.008-0.002c0.213-0.067 0.416-0.143 0.603-0.232-0.386 0.55-1.052 0.976-1.674 1.376-0.868 0.558-1.657 1.064-1.629 1.837 0.069 1.863-0.8 2.516-1.659 3.162-0.553 0.416-1.101 0.828-1.435 1.535-0.751 1.592-1.308 2.553-2.22 3.419-0.918 0.873-2.208 1.662-4.428 2.909-0.095 0.053-0.181 0.102-0.26 0.143-0.033 0.017-0.066 0.035-0.102 0.053-0.26-0.659-0.666-1.107-0.999-1.475-0.328-0.363-0.575-0.636-0.476-0.919 0.243-0.691 0.588-0.944 1.011-1.256 0.671-0.493 1.52-1.117 2.472-3.577 0.035-0.090-0.006-0.19-0.090-0.226-0.085-0.037-0.18 0.007-0.214 0.095-0.912 2.361-1.719 2.954-2.355 3.422-0.471 0.345-0.854 0.628-1.133 1.42-0.172 0.488 0.137 0.828 0.548 1.282 0.356 0.393 0.799 0.883 1.022 1.629 0.052 0.173 0.099 0.388 0.151 0.624 0.142 0.648 0.317 1.444 0.693 1.955 0.214 0.291 0.509 0.45 0.821 0.535 0.299 0.082 0.608 0.095 0.873 0.095 0.184 0 0.569-0.143 1.015-0.31 0.699-0.261 1.563-0.581 1.801-0.445 0.047 0.027 0.030 0.132-0.085 0.355-0.112 0.218-0.703 0.401-1.238 0.568-0.545 0.17-1.041 0.323-1.103 0.595-0.063 0.27 0.302 0.54 1.457 0.834 1.134 0.29 1.774 0.589 2.040 0.828 0.060 0.053 0.093 0.097 0.102 0.126l-0.002-0.001c-0.057 0.047-0.183 0.075-0.37 0.078-0.315 0.005-0.835-0.153-1.413-0.331-0.618-0.19-1.301-0.398-1.911-0.461-0.194-0.020-0.37 0.022-0.506 0.11-0.107 0.072-0.189 0.172-0.233 0.296-0.043 0.122-0.047 0.262-0.005 0.415 0.060 0.218 0.222 0.466 0.52 0.723 0.284 0.245 0.37 0.47 0.347 0.633-0.011 0.085-0.057 0.153-0.117 0.195-0.063 0.043-0.142 0.060-0.224 0.042-0.15-0.033-0.304-0.186-0.392-0.509-0.181-0.66-0.887-1.201-1.73-1.845-0.922-0.706-2.013-1.542-2.692-2.756-0.195-0.348-0.476-0.758-0.783-1.207-0.054-0.078-0.109-0.158-0.164-0.24-0.003-0.005-0.006-0.008-0.009-0.013-0.692-1.016-1.454-2.195-1.616-3.241-0.203-1.317 0.32-2.201 0.893-3.172 0.343-0.581 0.704-1.192 0.953-1.952 0.083-0.256 0.181-0.491 0.276-0.718 0.235-0.563 0.449-1.076 0.449-1.91 0-0.097-0.074-0.175-0.165-0.175s-0.165 0.078-0.165 0.175c0 0.763-0.202 1.244-0.421 1.77-0.095 0.226-0.192 0.463-0.285 0.744-0.236 0.719-0.588 1.316-0.923 1.882-0.608 1.029-1.161 1.965-0.937 3.412 0.162 1.042 0.854 2.17 1.523 3.164-0.542 0.080-1.087 0.117-1.626 0.102-0.553-0.015-1.101-0.085-1.635-0.218-0.044-0.24-0.123-0.493-0.233-0.756-0.328-0.784-0.933-1.66-1.64-2.516-1.57-1.902-3.664-3.717-4.346-4.178-0.085-0.057-0.181-0.118-0.285-0.183 0.044-4.228 0.676-4.971 2.839-7.515l0.054-0.063c0.235-0.275 0.463-0.548 0.693-0.826 1.709-2.055 3.59-4.316 5.427-4.24 1.319 0.055 2.298-0.59 3.13-1.137 0.794-0.523 1.441-0.949 2.079-0.478-0.211 0.729-0.246 1.532-0.020 2.261 0.057 0.183 0.131 0.361 0.222 0.535 0.044 0.085 0.145 0.115 0.224 0.068 0.080-0.047 0.109-0.153 0.065-0.236-0.080-0.153-0.145-0.311-0.195-0.475-0.232-0.748-0.159-1.587 0.109-2.32 0.266-0.731 0.723-1.352 1.259-1.669 0.101-0.058 0.203-0.107 0.309-0.143 0.222-0.077 0.449-0.127 0.677-0.153 0.788-0.090 1.59 0.105 2.242 0.468 0.209 0.117 0.405 0.252 0.577 0.4 0.003 0.002 0.005 0.003 0.006 0.005 0.35 0.303 0.608 0.661 0.726 1.041 0.032 0.1 0.052 0.202 0.063 0.303 0.009 0.097 0.091 0.165 0.181 0.155 0.091-0.010 0.156-0.097 0.146-0.192zM27.758 4.947l0 0.085c-0.002 0.305-0.003 0.561 0.194 0.843 0.054 0.078 0.158 0.093 0.23 0.037 0.074-0.057 0.088-0.167 0.035-0.243-0.132-0.188-0.131-0.391-0.129-0.634 0.002-0.083 0.002-0.010 0.002-0.087 0-0.097-0.074-0.175-0.165-0.175s-0.165 0.078-0.165 0.175zM26.126 5.66c-0.091 0.003-0.167-0.073-0.169-0.168-0.003-0.097 0.069-0.177 0.159-0.178 0.331-0.012 0.777 0.425 1 0.643l0.030 0.028c0.066 0.065 0.071 0.175 0.009 0.246-0.061 0.070-0.165 0.075-0.233 0.010l-0.030-0.028c-0.191-0.186-0.57-0.556-0.769-0.55l0.002-0.003zM18.235 8.702l-0.002 0.002c-0.375 0.316-0.636 0.733-0.781 1.172-0.117 0.358-0.156 0.733-0.117 1.084 0.041 0.358 0.162 0.693 0.369 0.966 0.183 0.24 0.428 0.431 0.739 0.545 0.087 0.030 0.18-0.018 0.209-0.108 0.028-0.092-0.017-0.19-0.102-0.221-0.247-0.090-0.443-0.242-0.588-0.433-0.167-0.22-0.266-0.495-0.299-0.789-0.033-0.301 0-0.623 0.101-0.929 0.124-0.381 0.35-0.739 0.676-1.014 0.071-0.060 0.083-0.17 0.027-0.245s-0.161-0.088-0.232-0.028zM16.504 9.548l-0.002-0.002c-0.063 0.045-0.12 0.107-0.167 0.18-0.137 0.211-0.208 0.536-0.206 0.864 0 0.326 0.072 0.664 0.222 0.901 0.057 0.090 0.124 0.168 0.206 0.226 0.074 0.055 0.176 0.035 0.228-0.045 0.052-0.078 0.033-0.187-0.043-0.241-0.044-0.032-0.083-0.077-0.118-0.132-0.112-0.178-0.165-0.445-0.167-0.708 0-0.263 0.050-0.515 0.15-0.668 0.024-0.037 0.050-0.067 0.079-0.087 0.076-0.053 0.096-0.162 0.046-0.241s-0.153-0.102-0.228-0.048zM14.392 7.152h-0.002c-0.115 0.122-0.186 0.29-0.186 0.475s0.071 0.353 0.186 0.475c0.003 0.003 0.008 0.007 0.011 0.010 0.115 0.115 0.269 0.187 0.44 0.187 0.175 0 0.334-0.075 0.449-0.197s0.186-0.29 0.186-0.475-0.071-0.353-0.186-0.475c-0.115-0.122-0.274-0.197-0.449-0.197s-0.334 0.075-0.449 0.197zM14.841 7.303v0.002c-0.085 0-0.161 0.035-0.216 0.093s-0.090 0.138-0.090 0.228c0 0.088 0.035 0.17 0.090 0.228l0.006 0.008c0.054 0.053 0.128 0.087 0.21 0.087 0.084 0 0.161-0.037 0.216-0.095s0.090-0.138 0.090-0.228c0-0.088-0.035-0.17-0.090-0.228s-0.131-0.095-0.216-0.095zM11.61 6.691c-0.115 0.122-0.186 0.29-0.186 0.475s0.071 0.353 0.186 0.475c0.115 0.122 0.274 0.197 0.449 0.197s0.334-0.075 0.449-0.197 0.186-0.29 0.186-0.475c0-0.185-0.071-0.353-0.186-0.475s-0.274-0.197-0.449-0.197c-0.175 0-0.334 0.075-0.449 0.197zM12.059 6.842c-0.083 0-0.161 0.037-0.216 0.095s-0.090 0.138-0.090 0.228c0 0.088 0.035 0.17 0.090 0.228s0.131 0.095 0.216 0.095c0.084 0 0.161-0.037 0.216-0.095s0.090-0.138 0.090-0.228c0-0.088-0.035-0.17-0.090-0.228s-0.131-0.095-0.216-0.095zM11.68 9.247v0.002c-0.115 0.122-0.186 0.29-0.186 0.475s0.071 0.353 0.186 0.475c0.115 0.122 0.274 0.197 0.449 0.197s0.334-0.075 0.449-0.197c0.003-0.003 0.006-0.008 0.009-0.012 0.109-0.122 0.176-0.285 0.176-0.465 0-0.185-0.071-0.353-0.186-0.475s-0.274-0.197-0.449-0.197c-0.175 0-0.334 0.075-0.449 0.197zM12.131 9.398h0.005c-0.085 0-0.162 0.037-0.217 0.095s-0.090 0.138-0.090 0.228c0 0.090 0.033 0.17 0.088 0.228s0.131 0.095 0.216 0.095c0.084 0 0.161-0.037 0.216-0.095l0.006-0.007c0.050-0.058 0.082-0.135 0.082-0.221 0-0.088-0.035-0.17-0.090-0.228s-0.131-0.095-0.216-0.095zM22.692 21.080v-0.002c0.159 0.123 0.369 0.308 0.548 0.486 0.236 0.235 0.432 0.476 0.432 0.608v0.458c-0.002 2.058-0.002 3.011 0.063 3.021 0.458 0.075 0.625-0.586 0.72-1.232 0.024-0.165 0.043-0.333 0.061-0.488 0.046-0.388 0.082-0.713 0.183-0.861 0.096-0.143 0.213-0.175 0.362-0.062 0.107 0.082 0.217 0.162 0.331 0.243 0.032 0.023 0.063 0.045 0.095 0.067 0.024-0.41-0.014-0.924-0.151-1.634-0.312-1.615-0.337-1.687-0.548-2.261-0.080-0.218-0.186-0.508-0.345-0.983-0.562 1.132-1.057 1.925-1.75 2.639zM27.303 21.008c-0.112-0.718-0.15-1.475-0.134-1.852 0.019-0.478-0.069-1.226-0.153-1.943-0.044-0.373-0.087-0.738-0.113-1.046 0.175 0.211 0.381 0.45 0.603 0.704 0.997 1.149 2.305 2.658 2.303 3.539-0.002 0.423-0.372 0.699-1.367 0.698-0.206 0-0.495-0.032-0.796-0.063-0.117-0.012-0.235-0.025-0.342-0.035l-0.002-0.002zM27.002 21.21c0.014 0.087 0.030 0.172 0.047 0.255 0.121 0.598 0.302 1.121 0.566 1.339 0.8 0.668 1.256 0.626 1.977 0.563 0.274-0.025 0.589-0.052 0.972-0.042 0.769 0.020 1.193 0.092 1.366 0.185-0.077 0.067-0.228 0.14-0.428 0.21-0.777 0.273-2.191 0.465-3.127 0.208l-0.005-0.002c-0.028-0.008-0.058-0.017-0.085-0.025-0.087-0.027-0.18 0.025-0.205 0.117-0.014 0.048-0.006 0.098 0.016 0.138 0.030 0.058 0.063 0.115 0.098 0.173l0.009 0.015c0.26 0.418 0.665 0.846 1.049 1.254 0.12 0.127 0.238 0.253 0.35 0.375 0.438 0.483 0.756 0.896 0.566 1.089-0.325 0.33-0.956-0.232-1.572-0.908-0.235-0.258-0.462-0.528-0.671-0.779-0.356-0.425-0.666-0.794-0.884-0.953-0.036-0.027-0.079-0.035-0.12-0.028-0.383 0.047-0.537 0.423-0.712 0.854-0.106 0.258-0.219 0.538-0.392 0.746-0.298 0.358-0.569 0.583-0.764 0.653-0.058 0.020-0.101 0.027-0.128 0.015-0.016-0.007-0.028-0.028-0.039-0.065-0.035-0.127-0.014-0.346 0.080-0.676 0.123-0.431 0.271-0.751 0.408-1.046 0.359-0.774 0.647-1.39 0.285-3.266-0.317-1.645-0.343-1.719-0.564-2.318-0.096-0.261-0.228-0.624-0.438-1.264-0.002-0.007-0.005-0.012-0.006-0.018 0.038-0.078 0.076-0.157 0.113-0.238 0.298-0.629 0.813-1.017 1.331-1.407 0.158-0.118 0.313-0.236 0.466-0.361 0.022 0.353 0.074 0.793 0.128 1.244 0.084 0.706 0.17 1.444 0.151 1.888-0.017 0.416 0.027 1.271 0.158 2.048 0 0.007 0.002 0.013 0.003 0.020l0.002 0.007zM2.798 21.043l-0.002-0.002c0.332 0.858 1.219 1.549 1.832 2.025 0.304 0.236 0.532 0.415 0.545 0.47 0.020 0.095 0.109 0.153 0.197 0.132 0.090-0.022 0.145-0.115 0.124-0.208-0.039-0.182-0.31-0.391-0.671-0.673-0.581-0.453-1.426-1.109-1.722-1.875-0.035-0.088-0.131-0.132-0.214-0.095s-0.124 0.138-0.090 0.226zM1.936 23.235c0.813 0.888 2.67 2.43 4.45 3.306 0.953 0.47 1.89 0.749 2.651 0.648 0.408 0.426 1.15 0.376 1.375 0.361l0.038-0.003c1.418-0.065 2.232 0.037 2.574 0.208 0.085 0.043 0.123 0.075 0.118 0.093-0.016 0.060-0.107 0.138-0.265 0.225-0.569 0.318-1.819 0.603-3.421 0.603-0.052 0-0.104 0.027-0.135 0.077-0.052 0.080-0.032 0.188 0.043 0.241 0.178 0.128 0.668 0.321 1.211 0.536 0.808 0.318 1.744 0.688 1.771 0.826 0.041 0.213-0.025 0.322-0.167 0.351-0.659 0.142-2.42-0.703-3.82-1.374-0.682-0.328-1.282-0.614-1.648-0.736-0.033-0.012-0.071-0.012-0.107 0.003-0.085 0.033-0.128 0.135-0.096 0.225 0.093 0.263 0.359 0.661 0.569 0.978 0.131 0.197 0.239 0.36 0.25 0.396 0.287 0.972 0.336 1.367 0.238 1.399-0.46 0.152-2.683-3.116-3.187-3.858-0.069-0.102-0.11-0.162-0.124-0.177-0.778-0.779-1.993-2.599-2.929-4.426-0.755-1.474-1.325-2.942-1.325-3.85 0-0.521 0.065-0.928 0.178-1.241 0.175-0.481 0.468-0.738 0.818-0.843 0.367-0.11 0.802-0.065 1.235 0.058 0.692 0.197 1.374 0.588 1.785 0.868 0.67 0.453 2.727 2.238 4.277 4.113 0.687 0.831 1.271 1.677 1.586 2.428 0.295 0.704 0.347 1.314 0.002 1.72-0.090 0.105-0.208 0.2-0.356 0.281-0.135 0.075-0.284 0.125-0.444 0.155-0.005 0-0.009 0.002-0.014 0.002-0.698 0.125-1.605-0.148-2.539-0.608-1.744-0.859-3.559-2.366-4.354-3.232-0.063-0.068-0.167-0.070-0.233-0.003-0.065 0.067-0.066 0.177-0.003 0.246v0.004z"></path>
</svg>
