<?xml version="1.0" encoding="UTF-8" standalone="no"?>
<!DOCTYPE svg PUBLIC "-//W3C//DTD SVG 1.1//EN" "http://www.w3.org/Graphics/SVG/1.1/DTD/svg11.dtd">
<svg width="100%" height="100%" viewBox="0 0 150 150" version="1.1" xmlns="http://www.w3.org/2000/svg" xmlns:xlink="http://www.w3.org/1999/xlink" xml:space="preserve" xmlns:serif="http://www.serif.com/" style="fill-rule:evenodd;clip-rule:evenodd;stroke-linejoin:round;stroke-miterlimit:2;">
    <g transform="matrix(0.128143,0,0,0.127007,-68.6759,-20.7028)">
        <path d="M1522.54,558.493C1522.54,558.493 1527.7,504.208 1527.7,504.208C1529.74,484.424 1529.16,464.575 1528.38,444.79C1528.26,441.087 1527.47,435.369 1525.19,434.232C1520.52,431.926 1518.02,437.708 1515.1,440.47C1505.18,449.826 1497.45,460.709 1492.29,473.573C1488.19,483.742 1475.82,489.005 1477.51,503.071C1468.47,498.588 1473.44,491.993 1470.11,487.25C1463.63,494.495 1464.03,503.429 1463.35,512.167C1462.88,517.885 1462.57,517.853 1456.71,514.994C1453.83,513.564 1446.15,518.99 1444.92,522.953C1440.87,535.818 1447.39,548.812 1444.34,561.774C1443.49,565.413 1445.35,569.246 1439.72,570.318C1435.77,571.065 1434.72,574.769 1435.12,578.31C1436.09,587.568 1438.04,596.307 1436.26,606.151C1434.49,615.734 1432.1,633.407 1427.09,643.348C1425.92,645.719 1427.87,649.78 1428.59,652.996C1429.3,656.212 1430.28,659.396 1431.15,662.645C1425.14,665.893 1425.27,658.649 1421.72,658.129C1421.38,658.746 1420.37,659.688 1420.56,660.078C1428.33,675.737 1419.16,693.344 1426.02,709.1C1426.51,710.27 1426.47,712.251 1425.79,713.226C1420.86,720.341 1423.71,720.893 1422.38,727.813C1416.83,756.238 1439.54,779.174 1436.13,806.592C1434.63,818.677 1430.72,830.437 1427.87,842.327C1427.81,842.75 1426.89,843.107 1426.95,843.367C1431.93,865.133 1417.32,886.704 1426.57,908.535C1436.67,932.412 1441.22,957.167 1439.46,983.319C1438.01,1004.96 1412.05,1033.15 1389.57,1036.17C1384.88,1036.79 1380.54,1039.35 1375.98,1040.91C1373.26,1041.79 1370.17,1043.09 1368.03,1040.2C1365.95,1037.47 1367.99,1034.84 1369.11,1032.17C1371.51,1026.33 1378.97,1024.28 1380.28,1016.36C1371.61,1015.58 1368.67,1024.25 1362.38,1026.26C1360.16,1026.98 1357.43,1028.47 1355.71,1027.76C1352.2,1026.2 1353.77,1022.72 1354.81,1020.19C1357.99,1012.65 1361.02,1004.96 1365.01,997.84C1368.19,992.155 1370.83,986.827 1368.52,979.193C1355.48,981.759 1356.88,995.663 1353.24,1002.97C1348.61,1012.39 1345.59,1011.58 1338.63,1009.05C1332.74,1006.9 1325.83,998.132 1321.81,1011.26C1321.7,1011.58 1320.95,1011.97 1320.6,1011.91C1294.74,1008.75 1307.7,1027.98 1309.19,1035.62C1315.43,1067.39 1322.84,1098.93 1326.09,1131.26L1330.18,1174.56C1331.96,1194.31 1338.49,1200.65 1358.84,1200.84C1385.35,1201.1 1411.91,1201.53 1438.39,1200.58C1471.83,1199.41 1500.38,1209.58 1521.63,1235.64C1531.51,1247.75 1543.48,1251.72 1557.71,1253.05C1564.18,1253.67 1570.9,1253.54 1576.43,1258.8C1468.73,1260.75 1361.05,1256.56 1251.24,1264.23L1266.58,1281.08C1268.76,1283.59 1271.73,1286.41 1269.2,1289.95C1267.41,1292.49 1263.97,1292.03 1261.12,1291.74C1250.13,1290.47 1240.07,1285.99 1226.36,1280.14C1231.68,1287.19 1234.73,1290.73 1237.23,1294.66C1239.32,1297.95 1245.85,1300.35 1241.88,1305.09C1238.92,1308.63 1233.54,1306.56 1229.63,1304.83C1221.71,1301.36 1214.02,1297.39 1206.32,1293.4C1201.17,1290.77 1196.28,1287.52 1188.7,1290.25C1193.18,1297.13 1197.61,1303.6 1201.63,1310.29C1203.55,1313.54 1206.21,1317.54 1203.1,1320.95C1199.59,1324.81 1195.94,1321.14 1192.8,1319.35C1185.22,1315.13 1177.86,1310.52 1170.38,1306.13C1164.02,1302.4 1157.19,1300.45 1149.76,1300.19C1139.88,1299.83 1135.63,1302.66 1141.8,1312.56C1142.8,1314.19 1143.41,1316.07 1144.04,1317.92C1145.08,1321.01 1147.55,1324.65 1144.53,1327.35C1141.24,1330.21 1137.8,1327.22 1135.76,1324.98C1124.64,1312.86 1111.48,1311.85 1096.18,1314.87C1081.01,1317.86 1066.39,1313.44 1053.3,1305.38C1040.01,1297.2 1026.21,1295.87 1011.65,1300.61C994.37,1306.2 979.036,1304.83 964.677,1291.87C950.188,1278.84 930.924,1275.73 914.323,1283.49C881.122,1299.02 847.239,1293.01 813.388,1291.42C757.543,1288.75 701.732,1286.25 645.79,1288.69C641.112,1288.88 636.206,1290.34 630.586,1287.35C635.427,1280.57 643.289,1281.08 649.428,1278.39C655.666,1275.66 662.456,1273.16 652.027,1266.47C649.818,1265.04 647.382,1261.95 647.317,1259.55C646.959,1243.73 639.065,1228.13 631.074,1218.35C619.898,1204.68 626.363,1193.11 625.843,1179.99C619.703,1183.14 621.653,1190.64 614.96,1193.76C604.565,1155.04 625.518,1122.26 631.723,1085.35C630.586,1084.02 628.247,1090.13 626.006,1087.92C623.147,1085.13 626.331,1082.72 627.5,1080.45C629.027,1077.43 631.009,1074.67 632.698,1071.74C633.64,1070.09 635.524,1067.1 635.134,1066.74C620.516,1053.32 643.971,1048 640.722,1036.23L628.994,1047.28C629.027,1033.96 637.441,1026.72 641.339,1017.66C642.541,1014.89 649.006,1010.58 638.935,1010.61C636.174,1010.64 638.87,1005.73 640.17,1003.49C643.451,997.58 646.992,991.83 650.208,986.372C649.753,982.117 638.416,991.765 644.296,981.629C656.868,959.896 665.899,936.116 674.768,913.343C687.113,881.668 711.088,853.925 712.68,818.97C713.719,796.359 734.381,785.379 737.564,765.269C739.903,750.715 751.663,741.814 758.486,730.054C781.161,690.778 812.511,658.194 839.604,622.361C861.208,593.773 890.023,571.813 916.077,547.415C931.606,532.829 946.485,517.755 960.486,501.772C969.94,490.986 977.834,479.681 976.924,464.315C976.827,463.145 977.932,461.521 978.939,460.644C997.618,444.336 1005.32,419.094 1027.05,404.312C1035.17,398.757 1041.44,387.874 1051.42,382.384C1045.73,373.028 1065.48,371.891 1058.01,361.917L1079.81,345.512C1078.32,341.906 1073.7,346.876 1072.86,342.945C1072.24,340.119 1075.03,338.982 1076.95,337.618C1079.68,335.668 1084.1,334.336 1084.94,331.803C1086.14,328.132 1101.15,329.561 1089.23,321.082C1089.1,320.985 1089.78,318.905 1090.3,318.775C1104.11,315.884 1105.96,299.251 1118.14,294.476C1124.38,292.007 1124.21,291.682 1130.39,281.513C1130.85,280.766 1131.86,280.149 1132.69,279.792C1152.93,271.573 1163.04,251.918 1178.83,239.119C1190.88,229.34 1207.62,224.305 1219.98,214.072C1243.77,194.45 1273.68,191.753 1301.27,183.242C1309.19,180.805 1321.12,182.007 1329.83,180.383C1344.58,177.557 1358.93,182.592 1373.16,178.856C1374.91,178.401 1377.06,178.401 1378.76,178.921C1404.15,186.815 1430.34,184.736 1456.3,185.061C1466.05,185.191 1476.02,185.873 1484.59,190.162C1521.72,208.646 1561.64,220.959 1597.38,242.4C1606.48,247.858 1614.99,254.225 1622.43,261.957C1631.23,271.053 1633.18,280.279 1625.67,291.779C1617.53,304.189 1612.49,318.288 1620.74,332.42C1625.26,340.217 1609.69,334.531 1615.81,342.133C1618.92,346.032 1622.31,350.547 1622.13,356.492C1616.48,357.532 1617.27,349.703 1611.52,349.768C1615.38,365.166 1621.79,379.818 1621.19,396.256L1607.71,359.319C1602.15,360.163 1612.23,377.706 1598.07,367.992C1590.39,378.291 1576.43,379.98 1568.43,390.051C1560.09,400.544 1559.69,411.134 1562.88,423.837C1571.07,456.161 1573.4,489.329 1575.62,524.122C1568.89,521.134 1570.36,516.326 1569.9,512.72C1566.36,483.872 1561.74,455.284 1554.77,427.118C1553.76,422.992 1554.92,415.293 1548.37,416.202C1541.89,417.144 1535.43,421.563 1536.43,430.107C1538.55,448.007 1537.26,465.809 1536.4,483.644C1535.27,507.424 1531.98,530.782 1526.72,553.945C1526.37,555.764 1526.11,557.843 1522.54,558.493ZM1301.17,324.753C1292.69,337.228 1278.37,340.931 1266.32,348.046C1258.36,347.299 1247.89,354.381 1243.81,340.866C1243.61,340.249 1240.1,340.119 1238.32,340.574C1233.6,341.776 1236.76,344.927 1236.85,347.429C1237.23,360.261 1226.04,371.631 1211.32,372.8C1214.31,363.444 1224.43,359.968 1227.63,352.496C1205.14,337.26 1181.45,354.77 1153.27,348.858C1169.21,346.649 1159.8,336.123 1165.51,331.478C1171.62,326.475 1174.24,318.223 1181.19,313.87C1146.69,329.756 1122.91,357.369 1100.47,386.445C1110.24,384.918 1115.26,374.815 1126.49,373.873C1122.34,388.654 1110.93,397.068 1103.68,409.12C1112.11,409.12 1114.47,398.985 1123.92,400.089C1113.83,417.015 1096.58,424.551 1083.35,439.105C1091.5,437.189 1094.98,430.009 1103.19,431.763C1096.12,459.864 1069.9,471.722 1054.08,494.527C1067.3,488.972 1074.77,478.089 1089.16,473.216C1074.29,500.342 1048.27,514.182 1034.88,538.611C1050.96,529.353 1065.9,518.827 1081.47,509.244C1104.6,495.015 1122.31,490.889 1133.77,497.256C1117.82,501.804 1103.45,506.807 1089.82,514.019C1050.86,534.68 1016.82,561.449 987.515,594.358C986.605,595.333 985.436,596.502 988.002,598.906C1025.3,567.589 1057.2,527.696 1111.38,513.889C1101.13,531.529 1085.27,537.799 1071.72,550.599C1083.81,546.668 1093.16,543.354 1102.74,540.626C1106.93,539.488 1113.34,535.85 1115.09,542.152C1116.52,547.383 1109.72,549.104 1105.63,551.476C1101.35,553.945 1093.68,552.223 1093,559.045C1091.54,574.314 1080,580.811 1069.32,588.023C1060.22,594.163 1050.67,599.653 1040.4,605.956C1046.28,608.295 1050.73,602.317 1056.19,607.125C1049.73,615.279 1038.75,618.561 1032.38,627.949C1043.1,631.62 1049.6,627.982 1055.35,620.055C1063.47,608.912 1072.95,599.036 1087.83,595.82C1066.56,609.822 1065.35,636.071 1049.17,654.166C1059.96,654.328 1063.53,644.355 1073.15,642.308C1069.45,655.823 1058.21,663.489 1053.95,675.119C1065.38,678.141 1068.93,676.354 1074.64,661.02C1081.5,642.795 1094.42,628.729 1103.56,610.699C1108.94,618.236 1101.55,623.239 1104.8,629.573L1129.38,602.87C1129.15,620.607 1118.8,633.244 1108.3,650.397L1146.28,622.037C1142.58,636.363 1132.43,643.673 1121.85,650.267C1096.28,666.251 1079.61,688.699 1069.97,721.38C1086.18,702.408 1102.41,689.349 1123.14,681.909C1098.88,701.369 1085.66,726.903 1077.57,755.686C1088.42,746.362 1094.2,732.588 1109.43,721.12L1096.51,754.874C1107.52,741.457 1116.74,727.065 1132.73,712.901C1130.04,734.927 1116.3,747.987 1112.27,765.984C1121.07,761.209 1127.05,754.192 1138.09,754.224C1131.37,766.049 1121.01,774.69 1120.26,791.486C1138.96,770.857 1148.59,747.077 1168.34,731.256C1163.01,747.499 1151.99,761.306 1148.74,778.914C1154.53,776.185 1154.11,767.446 1162.39,768.161C1163.2,776.867 1156.55,785.541 1161.35,794.312C1168.17,791.778 1168.37,782.78 1177.27,782.422L1168.79,805.52C1173.05,804.383 1173.83,800.03 1177.83,801.264C1178.57,807.307 1173.92,811.79 1172.72,817.28C1172.34,819.034 1171.04,820.789 1172.79,822.511C1178.09,827.578 1178.09,827.546 1176.65,831.867C1173.83,840.573 1170.58,849.182 1172.3,862.274C1176.22,837.747 1189.93,822.608 1202.55,806.592C1203.48,815.201 1202.73,823.29 1202.73,831.347C1202.7,839.891 1201.99,848.662 1207.18,857.141C1212.03,851.716 1208.97,842.945 1216.03,839.111C1222.59,844.471 1217.42,852.95 1221.19,859.09C1223.2,857.044 1226.59,853.243 1226.88,853.438C1234.15,859.09 1244.64,854.152 1249.38,856.849C1262.64,864.386 1264.88,856.296 1268.39,846.323L1280.21,858.96C1281.29,855.419 1281.36,851.229 1283.02,850.514C1287.63,848.435 1287.6,853.827 1289.61,856.069C1291.71,858.376 1290.81,865.425 1296.42,862.144C1300.68,859.643 1298.03,854.217 1295.68,851.878C1284.28,840.378 1281.07,823.778 1270.47,811.985C1266.21,807.274 1267.67,796.684 1259.49,797.431C1252.99,798.016 1253.15,794.572 1252.28,791.356C1250.04,783.202 1252.58,774.203 1246.53,766.471C1243.06,762.021 1243.38,756.433 1238.32,750.878C1227.79,739.345 1233.99,708.386 1244.62,696.593C1246.23,694.806 1247.83,692.337 1250.42,693.897C1251.63,694.611 1252.24,697.178 1252.28,698.932C1252.47,706.566 1252.38,714.201 1252.38,721.867C1260.05,687.757 1252.02,652.184 1264.23,616.157C1270.24,626.39 1272.04,635.941 1272.36,645.947C1273.11,668.72 1269.37,691.233 1267.59,713.876C1266.58,726.87 1265.28,739.865 1272.36,751.658C1273.79,748.149 1273.88,744.803 1274.14,741.457C1275.73,723.167 1283.66,710.432 1288.63,718.197C1288.89,702.311 1287.49,686.132 1296.53,671.546C1298.24,698.152 1296.16,725.116 1307.92,752.047C1316.18,739.865 1307.06,729.729 1308.48,719.496C1314.3,718.879 1317.67,726.416 1323.76,722.842C1319.98,712.869 1312.77,704.422 1313.52,693.734C1319.34,691.785 1320.31,700.037 1325.57,697.698C1327.26,690.551 1320.8,681.844 1329.86,676.386C1337.27,692.11 1341.01,710.075 1356.86,722.907C1358.29,714.72 1358.61,708.613 1355.22,702.181C1345.64,683.858 1336.59,665.244 1327.33,646.726C1326.29,631.653 1323.36,616.189 1338.05,601.278C1340.03,618.138 1345.33,631.425 1350.59,646.564C1352.66,641.918 1348.38,637.24 1354.88,634.511C1363.41,652.022 1382.33,663.619 1382.97,686.425C1386.58,662.71 1371.14,639.092 1384.37,612.356L1389.6,627.397C1390.03,619.275 1388.11,608.132 1391.1,606.606C1403.14,600.401 1393.05,592.214 1396.22,585.132C1383.53,589.225 1379.49,600.498 1370.92,611.219L1368.64,583.638C1359.45,590.882 1360.72,602.87 1351.88,610.406C1349.61,597.379 1356.34,587.211 1356.86,575.808C1349.55,580.714 1353.41,590.297 1346.56,595.105C1345.36,593.124 1344.51,591.954 1343.92,590.687C1335.7,572.202 1334.31,550.371 1316.61,536.5C1309.79,531.139 1307.51,523.895 1311.95,515.286C1317.61,504.371 1311.77,503.104 1302.02,501.154C1288.28,498.393 1277.62,507.424 1265.38,508.919C1263.52,501.869 1271.26,500.472 1270.51,494.462C1249.71,498.75 1235.15,513.597 1217.19,528.476C1218.68,511.615 1228.34,503.461 1235.9,490.077L1206.77,509.276C1216.35,490.921 1232.27,479.324 1249.38,466.394C1234.64,467.336 1224.09,476.14 1210.21,476.432C1214.46,468.506 1222.76,468.798 1226.94,462.853L1216.41,463.373C1227.11,451.483 1241.6,450.508 1252.38,442.809C1247.63,439.43 1242.17,446.285 1237.17,441.119C1240.68,432.088 1250.53,431.471 1257.06,427.085C1256.24,421.855 1248.52,423.382 1249.36,415.683C1277.88,422.31 1302.99,409.51 1329.08,401.713L1408.44,377.479C1405.97,371.306 1401.1,376.049 1400.48,370.104L1453.17,348.695C1403.66,358.864 1361.54,388.329 1312.67,400.511C1345.29,383.943 1379.86,371.598 1414.52,351.327C1386.64,356.98 1361.92,360.975 1337.79,367.343C1326.93,370.234 1317.35,377.933 1307.12,383.294C1298.97,387.578 1290.07,390.226 1280.9,391.09C1271.09,392.097 1261.14,392.162 1249.97,383.813L1274.98,380.532C1306.17,375.757 1333.53,358.214 1364.88,353.731C1379.23,351.684 1393.34,347.526 1407.6,344.342C1397.27,343.985 1387.22,345.122 1377.38,347.071L1283.92,366.238C1274.57,368.252 1266.73,363.607 1260.34,359.254C1256.02,356.33 1264.46,352.107 1266.18,347.948C1274.12,348.241 1281.19,345.609 1288.31,342.458C1303.44,335.733 1320.05,329.983 1335.81,334.207C1354.74,339.242 1371.77,333.492 1393.05,332.062C1360.01,329.106 1330.84,322.122 1300.94,324.818C1305.49,318.061 1312.84,316.859 1319.94,315.884C1334.12,313.935 1347.69,317.054 1361.31,320.725C1384.43,326.995 1407.66,324.038 1433.27,322.024C1427.09,318.451 1422.12,321.439 1416.34,315.429C1431.06,317.541 1432.9,305.943 1439.66,299.608C1445.61,293.956 1444.66,287.556 1443.49,284.242C1441.52,278.59 1435.35,283.56 1431.38,284.73C1409.55,291.259 1390.32,287.394 1374.08,271.183C1370.57,267.674 1365.88,264.231 1370.46,257.668C1386.22,235.253 1411.57,228.268 1435.47,240.158C1443.37,244.057 1443.17,243.959 1446.62,235.675C1447.16,234.278 1450.44,233.986 1454.67,232.297C1418.74,216.118 1384.95,212.805 1351.82,231.939C1352.63,233.174 1358.9,230.477 1359.03,236.455C1357.92,237.137 1356.65,238.631 1355.56,238.501C1345.97,237.332 1347.92,252.503 1338.11,250.716C1338.49,251.528 1338.63,252.536 1339.24,253.055C1348.35,260.82 1338.92,260.365 1335.29,261.307C1321.24,264.978 1307.58,269.688 1294.35,275.601C1292.31,276.478 1290.59,278.07 1288.66,279.304L1284.18,289.018C1286.85,289.927 1290.71,289.538 1291.63,292.624C1292.76,296.75 1288.47,296.815 1286.1,297.627C1272.64,302.337 1264.27,313.935 1253.18,322.836L1279.63,318.581C1275.73,329.171 1265.51,328.814 1259.56,335.474C1275.67,338.267 1287.43,327.612 1301.17,324.753ZM976.924,684.833C962.955,694.579 943.009,696.366 935.569,714.818C945.218,710.757 949.863,698.802 962.046,698.087C963.02,704.162 956.036,706.891 958.7,712.446C965.619,708.386 965.262,698.315 974.391,694.579C974.878,702.246 971.629,707.671 968.705,712.934C961.461,726.156 947.882,732.783 937.194,742.366C928.325,750.391 922.25,759.617 918.806,770.922C929.234,763.385 938.785,755.296 947.199,746.167C957.108,735.349 968.673,729.144 980.823,730.834C959.577,757.05 924.719,770.63 915.395,806.04C926.408,805.358 932.321,798.73 932.483,786.938C932.58,778.881 953.502,761.923 967.471,760.169C957.757,770.76 958.147,782.325 958.342,794.377C958.44,802.856 955.743,814.551 948.271,817.215C936.316,821.503 935.862,830.827 929.429,842.847C950.221,832.484 978.094,850.449 985.403,817.897C985.468,817.67 987.06,817.768 987.97,817.703C990.179,821.211 988.1,824.362 986.963,827.351C979.004,847.98 987.678,863.249 1001.03,878.485C1006.65,884.852 1009.77,876.536 1014.97,879.979C1043.59,899.016 1063.21,926.012 1081.73,953.983C1087.83,963.274 1093.88,972.241 1101.84,980.232C1114.63,993.064 1116.78,1009.79 1117.42,1029.51C1108.37,1021.68 1110.29,1012.07 1105.24,1005.44C1100.38,1005.41 1103.85,1014.99 1097.15,1012.82C1093.42,1007.75 1095.92,1001.61 1094.13,995.891C1093.49,998.002 1093.45,1000.76 1092.38,1001.28C1087.7,1003.52 1088,998.392 1087.83,996.703C1083.9,956.745 1051.06,934.459 1031.86,902.85C1031.14,906.228 1031.4,909.639 1030.04,910.484C1025.98,913.115 1025.98,908.372 1024.42,906.423C1020.91,902.037 1022.08,893.916 1012.6,894.273C998.625,894.793 986.053,887.126 972.799,885.339C975.885,896.547 968.673,897.359 961.006,896.547C950.935,895.475 941.027,893.331 930.989,892.162C927.643,891.804 920.69,890.797 922.445,896.092C926.116,907.333 917.052,911.556 911.237,918.638C921.568,919.645 928.65,912.628 938.363,912.563L934.725,927.279C941.969,926.565 945.023,911.653 951.13,920.262C958.959,931.308 974.033,936.473 976.177,952.002C977.022,958.109 979.588,963.957 981.862,971.558C989.399,956.615 993.135,964.639 995.897,973.053C1003.79,997.158 1005.67,1022.14 987.872,1041.66C976.21,1054.46 972.116,1069.44 964.645,1083.54C950.026,1111.18 944.211,1138.89 955.873,1167.71C959.772,1150.91 961.169,1131.94 969.842,1113.23C977.249,1123.36 971.792,1133.56 977.932,1143.93L985.144,1120.77C990.406,1091.92 1000.74,1064.92 1014.35,1039.06C1029.71,1010.74 1018.12,984.066 1009.25,956.972C1030.14,979.128 1039.2,1005.28 1036.21,1035.81C1043.23,1017.1 1039.1,998.782 1035.46,977.081C1052.81,992.48 1060.48,1008.88 1064.25,1028.76C1067.5,1021.78 1063.6,1015.22 1067.89,1008.46C1075.81,1020.32 1074.32,1032.99 1076.43,1045.66C1081.73,1039.81 1078.8,1031.91 1086.6,1026.52C1088.13,1042.67 1083.06,1059.72 1092.93,1070.93C1104.83,1084.41 1099.57,1097.15 1097.48,1110.79C1097.29,1112.16 1097.32,1113.49 1097.03,1118.1C1109.63,1092.73 1103.68,1068.4 1104.95,1044.71C1112.94,1062 1119.63,1079.08 1124.41,1096.66C1127.02,1106.31 1126.37,1116.87 1123.95,1126.87C1123.14,1130.19 1121.07,1133.05 1117.3,1133.73C1114.4,1134.28 1112.63,1132.79 1112.01,1130.15C1108.11,1113.42 1104.57,1124.96 1101.35,1130.38C1099.72,1133.14 1097.44,1135.94 1098.22,1139.15C1123.57,1139.25 1099.86,1158.71 1108.65,1164.98C1115.32,1162.9 1109.57,1145.45 1124.96,1151.27C1143.29,1098.38 1122.37,1043.93 1124.35,989.588C1130.04,988.679 1128.92,996.8 1134.59,996.638C1134.52,987.444 1130.71,978.056 1135.23,967.757C1155.73,985.398 1140.39,1016.68 1164.08,1034.71L1164.14,1005.83C1164.28,1001.61 1163.27,996.443 1167.1,993.617C1172.65,989.458 1173.02,999.789 1180.07,998.23C1166.97,979.648 1157.19,960.058 1153.27,938.91C1150.72,925.265 1134.97,924.94 1132.8,912.758C1132.73,912.368 1131.13,912.011 1130.3,912.076C1113.46,913.18 1110.15,911.101 1105.51,896.417C1104.92,894.598 1104.17,892.811 1103.45,890.83C1099.6,894.241 1105.89,900.511 1099.46,903.272C1093.16,896.58 1092.9,887.029 1088.35,879.134C1086.21,884.365 1091.02,889.335 1084.81,895.93C1081.86,880.564 1070.23,872.085 1064.25,859.87C1061.71,854.64 1060.25,848.662 1054.89,845.673C1037.87,836.122 1037.67,814.746 1023.51,801.817C1015.13,794.182 1009.44,776.705 1014.61,759.877C1009.48,764.977 1012.17,772.644 1004.15,775.373C1006.39,762.605 996.904,751.17 1006.13,737.623C1001.61,740.287 998.95,743.114 997.261,742.594C993.558,741.457 995.604,737.688 995.994,735.057C996.741,729.404 997.813,723.784 998.723,718.261C994.175,716.735 993.59,723.427 989.659,721.608C985.209,717.904 992.193,712.479 987.97,708.808C980.92,710.952 979.296,720.308 968.64,721.64C972.669,713.064 974.975,706.177 978.809,700.296C983.032,693.962 981.603,689.381 976.795,684.735C988.067,668.915 996.774,651.794 1002.78,633.114C986.216,656.635 957.14,663.717 940.02,686.262C939.208,685.353 938.363,684.476 937.551,683.598L945.315,668.655C936.641,674.372 929.949,681.259 923.387,688.341C921.892,689.966 921.015,692.24 919.846,694.189C933.133,700.784 918.806,703.188 917.214,706.306C913.966,712.739 908.216,717.904 903.538,723.557C913.608,717.092 921.6,708.548 930.924,701.953C940.28,695.359 950.903,690.323 961.266,685.223C966.106,682.884 971.597,678.531 976.924,684.833ZM1506.33,365.036C1512.08,362.697 1513.77,355.258 1521.17,355.583C1521.46,364.776 1511.01,368.967 1510.32,377.706C1537.64,376.829 1556.9,359.968 1576.76,346.454C1595.8,333.492 1594.46,318.028 1577.31,303.182C1570.9,297.627 1565.48,291.487 1566.04,282.391C1566.68,271.638 1576.2,270.078 1584.85,267.219C1568.92,255.719 1522.89,268.519 1521.43,286.127C1520.16,300.745 1507.42,299.836 1503.2,308.542C1512.86,309.094 1522.14,303.474 1533.67,306.983C1523.15,315.689 1509.54,315.592 1501.85,325.663C1508.31,329.983 1515.33,328.879 1522.17,331.153C1517.14,337.845 1508.24,338.625 1503.72,347.786L1531.02,337.683C1522.86,347.169 1510.06,351.067 1506.33,365.036ZM1469.36,355.875C1436.26,357.239 1400.45,381.084 1381.78,411.427C1385.02,410.875 1387.85,410.647 1390.58,409.9C1397.63,408.048 1404.26,405.222 1409.44,399.862C1415.27,393.852 1419.56,393.884 1422.12,402.623C1422.93,402.136 1423.85,401.746 1424.59,401.161L1472.63,361.398L1432.41,384.106C1431.87,383.196 1431.32,382.351 1430.77,381.442L1469.36,355.875ZM881.349,1179.27C904.382,1172.22 923.744,1148.77 925.693,1126.74C925.888,1124.57 927.155,1120.37 923.842,1121.32C912.926,1124.34 913.738,1116.54 912.082,1110.24C910.49,1104.1 907.338,1105.66 903.927,1109.1C894.019,1119.11 892.85,1132.56 887.554,1147.37C897.852,1139.93 898.892,1128.24 909.71,1121.87C904.642,1144.64 891.095,1160.59 881.349,1179.27ZM1310.05,433.745C1331.36,424.649 1353.93,418.346 1371.77,402.753C1359.94,403.89 1348.7,406.359 1337.45,408.666C1326.64,410.842 1315.34,411.102 1305.33,416.365C1303.26,417.469 1299.45,417.924 1300.19,421.985C1301.72,430.366 1301.76,430.464 1296.34,432.511C1292.34,433.972 1288.21,435.045 1283.23,436.571C1319.3,441.932 1338.63,440.112 1347.69,430.431C1335.03,431.049 1323.27,436.701 1310.05,433.745ZM1050.99,1065.89C1038.62,1066.67 1027.73,1060.7 1015.65,1059.43C1014.48,1068.69 1010.03,1078.47 1013.11,1089.97C1019.29,1084.83 1019.06,1075.45 1028.25,1073.37C1028.77,1086.43 1024.94,1098.61 1027.41,1110.89C1031.53,1108.39 1028.77,1100.98 1035.14,1100.2C1040.37,1104.91 1035.82,1111.99 1040.11,1118.56L1050.99,1065.89ZM922.315,1076.45C931.216,1068.49 930.924,1057.97 938.655,1050.53C942.131,1064.17 934.984,1075.28 935.309,1088.96C942.619,1081.2 944.471,1073.17 946.095,1065.37C947.297,1059.46 953.014,1051.02 947.914,1047.77C936.576,1040.49 944.6,1035.06 947.459,1028.99C950.513,1022.6 954.736,1016.68 955.191,1007.62C936.674,1026.98 930.209,1050.5 922.315,1076.45ZM1014.41,1039.09C1015.68,1021.91 1019.61,1004.24 1006.68,988.906C1002.1,992.252 1002.88,995.923 1003.01,999.107C1003.99,1017.98 999.08,1035.42 990.926,1052.25C984.624,1065.31 978.776,1078.76 977.282,1093.35C976.275,1103.32 974.65,1113.94 985.176,1120.8C990.439,1091.95 1000.8,1064.92 1014.41,1039.09ZM1315.31,597.119C1316.77,578.245 1316.06,562.651 1306.17,549.104C1299.62,540.041 1294.7,541.113 1290.55,551.314L1279.57,577.758C1276.19,561.157 1283.05,546.051 1277.91,530.75C1270.89,541.795 1264.88,553.068 1263.07,565.867C1261.14,579.252 1263.71,591.857 1272.36,602.74C1277.85,609.659 1281.36,608.522 1282.16,599.394C1288.12,603.844 1289.32,612.388 1298.93,612.161C1296.6,595.755 1292.98,579.642 1298.87,561.839C1303.03,574.346 1303.26,586.724 1315.31,597.119Z" style="fill-rule:nonzero;"/>
    </g>
</svg>
