<!-- Generated by IcoMoon.io -->
<svg version="1.1" xmlns="http://www.w3.org/2000/svg" width="32" height="32" viewBox="0 0 32 32">
<path d="M26.971 10.716c0 0 0.141-1.471 0.141-1.471 0.056-0.536 0.040-1.074 0.019-1.61-0.003-0.1-0.025-0.255-0.087-0.286-0.128-0.062-0.196 0.094-0.276 0.169-0.271 0.253-0.483 0.548-0.624 0.897-0.112 0.276-0.45 0.418-0.404 0.799-0.247-0.121-0.111-0.3-0.202-0.429-0.177 0.196-0.166 0.438-0.185 0.675-0.013 0.155-0.021 0.154-0.182 0.077-0.079-0.039-0.289 0.108-0.322 0.216-0.111 0.349 0.068 0.701-0.016 1.052-0.023 0.099 0.028 0.202-0.126 0.232-0.108 0.020-0.137 0.121-0.126 0.217 0.027 0.251 0.080 0.488 0.031 0.754-0.048 0.26-0.114 0.739-0.251 1.008-0.032 0.064 0.021 0.174 0.041 0.261s0.046 0.173 0.070 0.261c-0.164 0.088-0.161-0.108-0.258-0.122-0.009 0.017-0.037 0.042-0.032 0.053 0.212 0.424-0.038 0.901 0.149 1.328 0.013 0.032 0.012 0.085-0.006 0.112-0.135 0.193-0.057 0.208-0.093 0.395-0.152 0.77 0.469 1.392 0.376 2.135-0.041 0.327-0.148 0.646-0.226 0.968-0.002 0.011-0.027 0.021-0.025 0.028 0.136 0.59-0.263 1.174-0.010 1.766 0.276 0.647 0.401 1.318 0.352 2.026-0.040 0.586-0.749 1.35-1.364 1.432-0.128 0.017-0.247 0.086-0.372 0.128-0.074 0.024-0.159 0.059-0.217-0.019-0.057-0.074-0.001-0.145 0.030-0.218 0.066-0.158 0.27-0.214 0.305-0.428-0.237-0.021-0.317 0.214-0.489 0.268-0.061 0.020-0.135 0.060-0.182 0.041-0.096-0.042-0.053-0.137-0.025-0.205 0.087-0.204 0.17-0.413 0.279-0.606 0.087-0.154 0.159-0.298 0.096-0.505-0.356 0.070-0.318 0.446-0.418 0.644-0.127 0.255-0.209 0.233-0.399 0.165-0.161-0.058-0.35-0.296-0.46 0.060-0.003 0.009-0.023 0.019-0.033 0.018-0.707-0.086-0.353 0.435-0.312 0.642 0.171 0.861 0.373 1.715 0.462 2.591l0.112 1.173c0.049 0.535 0.227 0.707 0.783 0.712 0.725 0.007 1.451 0.019 2.175-0.007 0.914-0.032 1.695 0.244 2.276 0.95 0.27 0.328 0.597 0.436 0.986 0.472 0.177 0.017 0.361 0.013 0.512 0.156-2.944 0.053-5.888-0.061-8.89 0.147l0.419 0.457c0.060 0.068 0.141 0.144 0.072 0.24-0.049 0.069-0.143 0.056-0.221 0.049-0.3-0.034-0.575-0.156-0.95-0.314 0.145 0.191 0.229 0.287 0.297 0.393 0.057 0.089 0.236 0.154 0.127 0.283-0.081 0.096-0.228 0.040-0.335-0.007-0.216-0.094-0.427-0.202-0.637-0.31-0.141-0.071-0.274-0.159-0.482-0.085 0.122 0.186 0.244 0.362 0.353 0.543 0.052 0.088 0.125 0.196 0.040 0.289-0.096 0.105-0.196 0.005-0.282-0.043-0.207-0.114-0.408-0.239-0.613-0.358-0.174-0.101-0.361-0.154-0.564-0.161-0.27-0.010-0.386 0.067-0.218 0.335 0.027 0.044 0.044 0.095 0.061 0.145 0.028 0.084 0.096 0.182 0.013 0.256-0.090 0.078-0.184-0.004-0.24-0.064-0.304-0.328-0.664-0.356-1.082-0.274-0.415 0.081-0.814-0.039-1.172-0.257-0.363-0.222-0.741-0.258-1.139-0.129-0.472 0.151-0.892 0.114-1.284-0.237-0.396-0.353-0.923-0.437-1.377-0.227-0.908 0.421-1.834 0.258-2.759 0.215-1.527-0.072-3.052-0.14-4.582-0.074-0.128 0.005-0.262 0.045-0.416-0.036 0.132-0.184 0.347-0.17 0.515-0.243 0.171-0.074 0.356-0.142 0.071-0.323-0.060-0.039-0.127-0.122-0.129-0.188-0.010-0.429-0.226-0.851-0.444-1.116-0.306-0.37-0.129-0.684-0.143-1.039-0.168 0.085-0.115 0.289-0.297 0.373-0.284-1.049 0.289-1.937 0.458-2.937-0.031-0.036-0.095 0.13-0.156 0.070-0.078-0.076 0.009-0.141 0.041-0.202 0.042-0.082 0.096-0.157 0.142-0.236 0.026-0.045 0.077-0.126 0.067-0.135-0.4-0.364 0.242-0.508 0.153-0.827l-0.321 0.299c0.001-0.361 0.231-0.557 0.337-0.803 0.033-0.075 0.21-0.192-0.066-0.191-0.075 0.001-0.002-0.132 0.034-0.193 0.090-0.16 0.187-0.316 0.274-0.464-0.012-0.115-0.322 0.146-0.162-0.128 0.344-0.589 0.591-1.233 0.833-1.85 0.337-0.858 0.993-1.61 1.036-2.557 0.028-0.613 0.593-0.91 0.68-1.455 0.064-0.394 0.385-0.636 0.572-0.954 0.62-1.064 1.477-1.947 2.218-2.918 0.591-0.775 1.378-1.37 2.091-2.031 0.425-0.395 0.831-0.804 1.214-1.237 0.258-0.292 0.474-0.599 0.449-1.015-0.003-0.032 0.028-0.076 0.055-0.099 0.511-0.442 0.721-1.126 1.315-1.526 0.222-0.151 0.393-0.445 0.666-0.594-0.156-0.253 0.384-0.284 0.18-0.555l0.596-0.444c-0.041-0.098-0.167 0.037-0.19-0.070-0.017-0.077 0.059-0.107 0.112-0.144 0.075-0.053 0.195-0.089 0.218-0.158 0.033-0.099 0.443-0.061 0.117-0.29-0.004-0.003 0.015-0.059 0.029-0.063 0.378-0.078 0.428-0.529 0.761-0.658 0.171-0.067 0.166-0.076 0.335-0.351 0.013-0.020 0.040-0.037 0.063-0.047 0.553-0.223 0.83-0.755 1.261-1.102 0.329-0.265 0.787-0.401 1.125-0.679 0.65-0.532 1.468-0.605 2.222-0.835 0.216-0.066 0.543-0.033 0.781-0.077 0.403-0.077 0.796 0.060 1.185-0.041 0.048-0.012 0.107-0.012 0.153 0.002 0.694 0.214 1.41 0.158 2.12 0.166 0.267 0.004 0.539 0.022 0.773 0.138 1.015 0.501 2.106 0.834 3.083 1.415 0.249 0.148 0.481 0.32 0.685 0.53 0.241 0.246 0.294 0.496 0.089 0.808-0.223 0.336-0.36 0.718-0.135 1.101 0.124 0.211-0.302 0.057-0.135 0.263 0.085 0.106 0.178 0.228 0.173 0.389-0.154 0.028-0.133-0.184-0.29-0.182 0.106 0.417 0.281 0.814 0.264 1.26l-0.369-1.001c-0.152 0.023 0.124 0.498-0.264 0.235-0.21 0.279-0.592 0.325-0.81 0.598-0.228 0.284-0.239 0.571-0.152 0.915 0.224 0.876 0.288 1.775 0.348 2.717-0.184-0.081-0.144-0.211-0.156-0.309-0.097-0.782-0.223-1.556-0.414-2.319-0.028-0.112 0.004-0.32-0.175-0.296-0.177 0.026-0.354 0.145-0.326 0.377 0.058 0.485 0.023 0.967-0.001 1.451-0.031 0.644-0.121 1.277-0.265 1.905-0.010 0.049-0.017 0.106-0.114 0.123zM20.919 4.383c-0.232 0.338-0.623 0.438-0.953 0.631-0.218-0.020-0.504 0.172-0.615-0.195-0.005-0.017-0.101-0.020-0.15-0.008-0.129 0.033-0.043 0.118-0.040 0.186 0.010 0.348-0.296 0.656-0.698 0.687 0.082-0.253 0.358-0.348 0.446-0.55-0.615-0.413-1.262 0.062-2.033-0.099 0.436-0.060 0.178-0.345 0.335-0.471 0.167-0.136 0.239-0.359 0.429-0.477-0.943 0.43-1.593 1.179-2.207 1.966 0.267-0.041 0.404-0.315 0.711-0.341-0.113 0.401-0.425 0.628-0.624 0.955 0.23 0 0.295-0.275 0.553-0.245-0.276 0.459-0.747 0.663-1.109 1.057 0.223-0.052 0.318-0.246 0.542-0.199-0.193 0.761-0.91 1.083-1.343 1.701 0.361-0.15 0.566-0.445 0.959-0.577-0.406 0.735-1.118 1.11-1.484 1.772 0.44-0.251 0.848-0.536 1.274-0.796 0.632-0.386 1.116-0.497 1.43-0.325-0.436 0.123-0.829 0.259-1.201 0.454-1.065 0.56-1.996 1.285-2.797 2.177-0.025 0.026-0.057 0.058 0.013 0.123 1.020-0.849 1.892-1.929 3.373-2.304-0.28 0.478-0.714 0.648-1.084 0.995 0.331-0.107 0.586-0.196 0.848-0.27 0.115-0.031 0.29-0.129 0.338 0.041 0.039 0.142-0.147 0.188-0.259 0.253-0.117 0.067-0.327 0.020-0.345 0.205-0.040 0.414-0.355 0.59-0.647 0.785-0.249 0.166-0.51 0.315-0.791 0.486 0.161 0.063 0.282-0.099 0.432 0.032-0.177 0.221-0.477 0.31-0.651 0.564 0.293 0.099 0.471 0.001 0.628-0.214 0.222-0.302 0.481-0.569 0.888-0.657-0.581 0.379-0.615 1.091-1.057 1.581 0.295 0.004 0.393-0.266 0.656-0.321-0.101 0.366-0.408 0.574-0.525 0.889 0.312 0.082 0.409 0.033 0.566-0.382 0.188-0.494 0.541-0.875 0.791-1.363 0.147 0.204-0.055 0.34 0.034 0.511l0.672-0.723c-0.006 0.481-0.289 0.823-0.576 1.288l1.038-0.768c-0.101 0.388-0.379 0.586-0.668 0.765-0.699 0.433-1.155 1.041-1.418 1.927 0.443-0.514 0.887-0.868 1.454-1.069-0.663 0.527-1.025 1.219-1.246 1.999 0.297-0.253 0.455-0.626 0.871-0.937l-0.353 0.915c0.301-0.364 0.553-0.753 0.99-1.137-0.074 0.597-0.449 0.951-0.559 1.438 0.241-0.129 0.404-0.32 0.706-0.319-0.184 0.32-0.467 0.555-0.487 1.010 0.511-0.559 0.774-1.203 1.314-1.632-0.146 0.44-0.447 0.814-0.536 1.291 0.158-0.074 0.147-0.311 0.373-0.291 0.022 0.236-0.16 0.471-0.028 0.709 0.186-0.069 0.192-0.312 0.435-0.322l-0.232 0.626c0.116-0.031 0.138-0.149 0.247-0.115 0.020 0.164-0.107 0.285-0.14 0.434-0.010 0.048-0.046 0.095 0.002 0.142 0.145 0.137 0.145 0.136 0.106 0.253-0.077 0.236-0.166 0.469-0.119 0.824 0.107-0.665 0.482-1.075 0.827-1.509 0.025 0.233 0.005 0.452 0.005 0.671-0.001 0.232-0.020 0.469 0.122 0.699 0.133-0.147 0.049-0.385 0.242-0.489 0.179 0.145 0.038 0.375 0.141 0.541 0.055-0.055 0.148-0.158 0.156-0.153 0.199 0.153 0.485 0.019 0.615 0.092 0.363 0.204 0.424-0.015 0.52-0.285l0.323 0.342c0.030-0.096 0.031-0.209 0.077-0.229 0.126-0.056 0.125 0.090 0.18 0.151 0.057 0.063 0.033 0.253 0.186 0.165 0.116-0.068 0.044-0.215-0.020-0.278-0.312-0.312-0.399-0.761-0.689-1.081-0.116-0.128-0.077-0.415-0.3-0.394-0.178 0.016-0.173-0.077-0.197-0.165-0.061-0.221 0.008-0.465-0.157-0.674-0.095-0.121-0.086-0.272-0.224-0.422-0.288-0.313-0.118-1.151 0.172-1.471 0.044-0.048 0.088-0.115 0.159-0.073 0.033 0.019 0.050 0.089 0.051 0.136 0.005 0.207 0.003 0.414 0.003 0.621 0.21-0.924-0.010-1.888 0.324-2.864 0.164 0.277 0.213 0.536 0.222 0.807 0.020 0.617-0.082 1.227-0.13 1.841-0.028 0.352-0.063 0.704 0.13 1.024 0.039-0.095 0.042-0.186 0.049-0.276 0.043-0.496 0.26-0.841 0.396-0.63 0.007-0.43-0.031-0.869 0.216-1.264 0.047 0.721-0.010 1.451 0.311 2.181 0.226-0.33-0.023-0.605 0.015-0.882 0.159-0.017 0.251 0.188 0.418 0.091-0.103-0.27-0.3-0.499-0.28-0.789 0.159-0.053 0.186 0.171 0.329 0.107 0.046-0.194-0.13-0.43 0.117-0.577 0.203 0.426 0.305 0.913 0.738 1.26 0.039-0.222 0.048-0.387-0.045-0.562-0.262-0.496-0.509-1.001-0.762-1.503-0.028-0.408-0.109-0.827 0.293-1.231 0.054 0.457 0.199 0.817 0.343 1.227 0.057-0.126-0.060-0.253 0.117-0.327 0.233 0.474 0.75 0.789 0.768 1.407 0.099-0.643-0.323-1.282 0.038-2.007l0.143 0.408c0.012-0.22-0.041-0.522 0.041-0.563 0.329-0.168 0.053-0.39 0.14-0.582-0.347 0.111-0.457 0.416-0.692 0.707l-0.062-0.747c-0.251 0.196-0.216 0.521-0.458 0.725-0.062-0.353 0.122-0.628 0.136-0.937-0.2 0.133-0.094 0.393-0.282 0.523-0.033-0.054-0.056-0.085-0.072-0.12-0.225-0.501-0.263-1.092-0.747-1.468-0.186-0.145-0.249-0.342-0.127-0.575 0.155-0.296-0.005-0.33-0.271-0.383-0.376-0.075-0.667 0.17-1.002 0.21-0.051-0.191 0.161-0.229 0.14-0.392-0.569 0.116-0.967 0.518-1.458 0.922 0.041-0.457 0.305-0.678 0.511-1.040l-0.796 0.52c0.262-0.497 0.697-0.812 1.165-1.162-0.403 0.026-0.691 0.264-1.071 0.272 0.116-0.215 0.343-0.207 0.457-0.368l-0.288 0.014c0.293-0.322 0.689-0.349 0.983-0.557-0.13-0.092-0.279 0.094-0.416-0.046 0.096-0.245 0.365-0.261 0.544-0.38-0.022-0.142-0.233-0.1-0.21-0.309 0.78 0.18 1.466-0.167 2.179-0.378l2.169-0.657c-0.068-0.167-0.201-0.039-0.218-0.2l1.44-0.58c-1.353 0.276-2.505 1.074-3.841 1.404 0.892-0.449 1.837-0.783 2.784-1.333-0.762 0.153-1.438 0.261-2.098 0.434-0.297 0.078-0.559 0.287-0.838 0.432-0.223 0.116-0.466 0.188-0.717 0.211-0.268 0.027-0.54 0.029-0.846-0.197l0.684-0.089c0.853-0.129 1.601-0.605 2.458-0.726 0.392-0.055 0.778-0.168 1.168-0.254-0.282-0.010-0.557 0.021-0.826 0.074l-2.555 0.519c-0.256 0.055-0.47-0.071-0.645-0.189-0.118-0.079 0.113-0.194 0.16-0.306 0.217 0.008 0.41-0.063 0.605-0.149 0.414-0.182 0.868-0.338 1.299-0.224 0.517 0.136 0.983-0.019 1.565-0.058-0.903-0.080-1.701-0.269-2.518-0.196 0.124-0.183 0.325-0.216 0.519-0.242 0.388-0.053 0.759 0.032 1.131 0.131 0.632 0.17 1.267 0.090 1.967 0.035-0.169-0.097-0.305-0.016-0.463-0.179 0.402 0.057 0.453-0.257 0.637-0.429 0.163-0.153 0.137-0.327 0.105-0.416-0.054-0.153-0.223-0.018-0.331 0.013-0.597 0.177-1.122 0.072-1.566-0.367-0.096-0.095-0.224-0.188-0.099-0.366 0.431-0.607 1.124-0.797 1.777-0.474 0.216 0.106 0.21 0.103 0.305-0.121 0.015-0.038 0.104-0.046 0.22-0.092-0.982-0.438-1.906-0.528-2.812-0.010 0.022 0.033 0.194-0.040 0.197 0.122-0.030 0.018-0.065 0.059-0.095 0.055-0.262-0.032-0.209 0.379-0.477 0.331 0.010 0.022 0.014 0.049 0.031 0.063 0.249 0.21-0.009 0.198-0.108 0.224-0.384 0.099-0.758 0.227-1.119 0.387-0.056 0.024-0.103 0.067-0.156 0.1l-0.122 0.263c0.073 0.025 0.178 0.014 0.204 0.098 0.031 0.112-0.086 0.114-0.151 0.136-0.368 0.128-0.597 0.442-0.9 0.683l0.723-0.115c-0.107 0.287-0.386 0.277-0.549 0.458 0.44 0.076 0.762-0.213 1.137-0.29zM12.055 14.139c-0.382 0.264-0.927 0.313-1.131 0.812 0.264-0.11 0.391-0.434 0.724-0.453 0.027 0.165-0.164 0.239-0.091 0.389 0.189-0.11 0.179-0.383 0.429-0.484 0.013 0.208-0.075 0.355-0.155 0.497-0.198 0.358-0.569 0.538-0.861 0.797-0.242 0.217-0.409 0.467-0.503 0.774 0.285-0.204 0.546-0.423 0.776-0.671 0.271-0.293 0.587-0.461 0.919-0.415-0.581 0.71-1.534 1.078-1.789 2.038 0.301-0.018 0.463-0.198 0.467-0.518 0.003-0.218 0.575-0.678 0.956-0.725-0.266 0.287-0.255 0.6-0.25 0.927 0.003 0.23-0.071 0.547-0.275 0.619-0.327 0.116-0.339 0.369-0.515 0.695 0.568-0.281 1.33 0.206 1.53-0.676 0.002-0.006 0.045-0.003 0.070-0.005 0.060 0.095 0.004 0.18-0.028 0.261-0.218 0.559 0.020 0.973 0.385 1.385 0.154 0.172 0.239-0.053 0.381 0.040 0.782 0.516 1.319 1.247 1.825 2.005 0.167 0.252 0.332 0.495 0.55 0.711 0.35 0.348 0.408 0.801 0.426 1.335-0.247-0.212-0.195-0.473-0.333-0.652-0.133-0.001-0.038 0.259-0.221 0.2-0.102-0.137-0.034-0.304-0.083-0.459-0.018 0.057-0.019 0.132-0.048 0.146-0.128 0.061-0.12-0.078-0.124-0.124-0.107-1.083-1.005-1.686-1.53-2.543-0.020 0.092-0.013 0.184-0.050 0.207-0.111 0.071-0.111-0.057-0.154-0.11-0.096-0.119-0.064-0.339-0.323-0.329-0.382 0.014-0.726-0.194-1.088-0.242 0.084 0.304-0.113 0.326-0.322 0.304-0.275-0.029-0.546-0.087-0.821-0.119-0.091-0.010-0.282-0.037-0.234 0.106 0.1 0.305-0.147 0.419-0.306 0.611 0.282 0.027 0.476-0.163 0.742-0.165l-0.099 0.399c0.198-0.019 0.282-0.423 0.448-0.19 0.214 0.299 0.626 0.439 0.685 0.86 0.023 0.165 0.093 0.324 0.155 0.53 0.206-0.405 0.308-0.187 0.384 0.041 0.216 0.653 0.267 1.33-0.219 1.859-0.319 0.347-0.431 0.753-0.635 1.135-0.4 0.749-0.559 1.5-0.24 2.281 0.107-0.455 0.145-0.969 0.382-1.476 0.203 0.274 0.053 0.551 0.221 0.832l0.197-0.628c0.144-0.782 0.426-1.513 0.798-2.214 0.42-0.767 0.103-1.49-0.139-2.224 0.571 0.6 0.819 1.309 0.737 2.136 0.192-0.507 0.079-1.003-0.021-1.591 0.474 0.417 0.684 0.862 0.787 1.4 0.089-0.189-0.018-0.367 0.1-0.55 0.216 0.321 0.176 0.665 0.233 1.008 0.145-0.159 0.065-0.373 0.278-0.519 0.042 0.438-0.097 0.9 0.173 1.203 0.325 0.365 0.182 0.71 0.124 1.080-0.005 0.037-0.004 0.073-0.012 0.198 0.344-0.687 0.182-1.347 0.216-1.988 0.218 0.468 0.401 0.931 0.532 1.408 0.071 0.261 0.054 0.548-0.013 0.819-0.022 0.090-0.079 0.167-0.182 0.186-0.079 0.015-0.128-0.025-0.145-0.097-0.107-0.453-0.203-0.141-0.291 0.006-0.045 0.075-0.107 0.151-0.086 0.238 0.693 0.003 0.045 0.53 0.285 0.7 0.182-0.056 0.025-0.529 0.446-0.371 0.501-1.433-0.071-2.908-0.017-4.381 0.156-0.025 0.125 0.195 0.28 0.191-0.002-0.249-0.106-0.503 0.017-0.783 0.56 0.478 0.141 1.326 0.789 1.814l0.002-0.782c0.004-0.114-0.024-0.254 0.081-0.331 0.152-0.113 0.162 0.167 0.355 0.125-0.358-0.503-0.625-1.034-0.733-1.607-0.070-0.37-0.5-0.378-0.56-0.709-0.002-0.011-0.046-0.020-0.068-0.018-0.46 0.030-0.551-0.026-0.678-0.424-0.016-0.049-0.037-0.098-0.056-0.151-0.105 0.092 0.067 0.262-0.109 0.337-0.172-0.181-0.179-0.44-0.304-0.654-0.059 0.142 0.073 0.276-0.097 0.455-0.081-0.416-0.399-0.646-0.562-0.977-0.069-0.142-0.109-0.304-0.256-0.385-0.465-0.259-0.471-0.838-0.858-1.188-0.229-0.207-0.385-0.68-0.243-1.136-0.14 0.138-0.067 0.346-0.286 0.42 0.061-0.346-0.198-0.656 0.054-1.023-0.124 0.072-0.196 0.149-0.242 0.135-0.101-0.031-0.045-0.133-0.035-0.204 0.020-0.153 0.050-0.305 0.075-0.455-0.124-0.041-0.14 0.14-0.248 0.091-0.122-0.1 0.069-0.247-0.046-0.347-0.193 0.058-0.237 0.312-0.528 0.348 0.11-0.232 0.173-0.419 0.278-0.578 0.115-0.172 0.076-0.296-0.055-0.422 0.308-0.429 0.546-0.893 0.71-1.399-0.453 0.637-1.248 0.829-1.716 1.44-0.022-0.025-0.045-0.048-0.068-0.072l0.212-0.405c-0.237 0.155-0.42 0.341-0.599 0.533-0.041 0.044-0.065 0.106-0.097 0.158 0.363 0.179-0.028 0.244-0.072 0.328-0.089 0.174-0.246 0.314-0.374 0.467 0.275-0.175 0.494-0.407 0.749-0.585s0.546-0.315 0.829-0.453c0.132-0.063 0.282-0.181 0.428-0.011zM26.528 5.474c0.157-0.063 0.203-0.265 0.406-0.256 0.008 0.249-0.278 0.363-0.297 0.599 0.747-0.024 1.273-0.481 1.816-0.847 0.52-0.351 0.484-0.77 0.015-1.172-0.175-0.151-0.323-0.317-0.308-0.563 0.017-0.291 0.278-0.334 0.514-0.411-0.435-0.312-1.694 0.035-1.734 0.512-0.035 0.396-0.383 0.371-0.498 0.607 0.264 0.015 0.518-0.137 0.833-0.042-0.288 0.236-0.66 0.233-0.87 0.506 0.177 0.117 0.369 0.087 0.555 0.149-0.137 0.181-0.381 0.202-0.504 0.451l0.746-0.274c-0.223 0.257-0.573 0.363-0.675 0.741zM25.517 5.226c-0.905 0.037-1.884 0.683-2.394 1.505 0.089-0.015 0.166-0.021 0.241-0.041 0.193-0.050 0.374-0.127 0.516-0.272 0.159-0.163 0.277-0.162 0.347 0.075 0.022-0.013 0.047-0.024 0.068-0.040l1.313-1.077-1.099 0.615c-0.015-0.025-0.030-0.048-0.045-0.072l1.055-0.693zM9.443 27.536c0.63-0.191 1.159-0.826 1.212-1.423 0.005-0.059 0.040-0.173-0.051-0.147-0.298 0.082-0.276-0.13-0.322-0.3-0.044-0.166-0.13-0.124-0.223-0.031-0.271 0.271-0.303 0.636-0.448 1.037 0.282-0.202 0.31-0.518 0.606-0.691-0.139 0.617-0.509 1.049-0.775 1.555zM21.162 7.336c0.583-0.246 1.2-0.417 1.687-0.84-0.323 0.031-0.631 0.098-0.938 0.16-0.296 0.059-0.604 0.066-0.878 0.209-0.057 0.030-0.161 0.042-0.14 0.152 0.042 0.227 0.043 0.23-0.105 0.285-0.109 0.040-0.222 0.069-0.358 0.11 0.986 0.145 1.514 0.096 1.762-0.166-0.346 0.017-0.668 0.17-1.029 0.090zM14.080 24.463c-0.338 0.021-0.636-0.141-0.966-0.175-0.032 0.251-0.154 0.516-0.069 0.827 0.169-0.139 0.163-0.393 0.414-0.45 0.014 0.354-0.091 0.684-0.023 1.017 0.113-0.068 0.037-0.268 0.211-0.29 0.143 0.128 0.019 0.319 0.136 0.497l0.297-1.427zM10.563 24.75c0.243-0.216 0.235-0.501 0.447-0.702 0.095 0.37-0.1 0.671-0.091 1.041 0.2-0.21 0.25-0.428 0.295-0.639 0.033-0.16 0.189-0.389 0.050-0.477-0.31-0.197-0.091-0.344-0.012-0.509 0.084-0.173 0.199-0.334 0.211-0.579-0.506 0.525-0.683 1.162-0.899 1.865zM13.080 23.737c0.035-0.465 0.142-0.944-0.211-1.36-0.125 0.091-0.104 0.19-0.1 0.276 0.027 0.511-0.107 0.984-0.33 1.44-0.172 0.354-0.332 0.718-0.373 1.114-0.028 0.27-0.072 0.558 0.216 0.744 0.144-0.782 0.427-1.514 0.799-2.214zM21.306 11.762c0.040-0.511 0.020-0.934-0.25-1.301-0.179-0.246-0.314-0.216-0.427 0.060l-0.3 0.716c-0.092-0.45 0.095-0.859-0.045-1.274-0.192 0.299-0.356 0.605-0.406 0.951-0.053 0.363 0.017 0.704 0.254 0.999 0.15 0.187 0.246 0.157 0.268-0.091 0.163 0.121 0.196 0.352 0.458 0.346-0.064-0.445-0.163-0.881-0.002-1.363 0.114 0.339 0.12 0.674 0.449 0.956z"></path>
</svg>
