<!-- Generated by IcoMoon.io -->
<svg version="1.1" xmlns="http://www.w3.org/2000/svg" width="32" height="32" viewBox="0 0 32 32">
<path d="M15.149 0.721c-0.274 0.032-0.463 0.124-0.568 0.264-0.103 0.138-0.139 0.349-0.086 0.642l1.734 1.238c0.239 0.171-0.017 0.53-0.257 0.359l-2.726-1.946c-0.283 0.136-0.524 0.273-0.672 0.461-0.152 0.193-0.241 0.458-0.273 0.834l2.487 1.776c0.227 0.173-0.019 0.518-0.256 0.359l-2.851-2.037c-0.476 0.146-0.941 0.694-1.077 1.55l2.502 1.787c0.241 0.171-0.017 0.531-0.257 0.359l-2.964-2.117c-0.437 0.145-0.747 0.363-0.941 0.65-0.192 0.285-0.277 0.645-0.279 1.058l5.959 4.257c0 0 0.014 0.009 0.026 0.022 0.006 0.006 0.014 0.014 0.024 0.027 0.005 0.007 0.017 0.025 0.017 0.025s0.017 0.041 0.017 0.041c0 0 0.010 0.063 0.010 0.063s-0.014 0.081-0.014 0.081-0.043 0.072-0.043 0.072c-0 0-0.051 0.041-0.051 0.041s-0.030 0.015-0.042 0.019c-0.012 0.004-0.022 0.007-0.030 0.008-0.017 0.003-0.028 0.004-0.038 0.004-0.077 0.002-0.082-0.009-0.133-0.023-0.102-0.027-0.302-0.089-0.737-0.238-0.037-0.013-0.037-0.052-0.065-0.076-0.001 0.004-0.002 0.003-0.004 0.007-0.066 0.172-0.124 0.386-0.17 0.592-0.090 0.406-0.132 0.768-0.134 0.78l1.552 0.425c1.837 0.503 6.612 2.118 6.911 2.219l2.472-4.277-0.628-2.315c-0.185-0.683-0.798-1.494-1.629-2.294s-1.87-1.597-2.886-2.3c-1.977-1.367-3.797-2.345-3.899-2.4l-0 0zM8.716 6.463l-1.848 0.572c-0.668 0.234-1.432 0.903-2.171 1.788s-1.459 1.98-2.087 3.045c-1.222 2.070-2.066 3.955-2.114 4.061 0.052 0.271 0.157 0.454 0.304 0.548 0.145 0.093 0.358 0.114 0.646 0.040l1.111-1.819c0.156-0.243 0.522-0.018 0.377 0.231l-1.747 2.859c0.156 0.273 0.31 0.503 0.508 0.637 0.204 0.138 0.474 0.208 0.852 0.212l1.593-2.608c0.154-0.251 0.53-0.021 0.377 0.231l-1.826 2.99c0.18 0.464 0.759 0.888 1.624 0.962l1.603-2.624c0.154-0.251 0.531-0.021 0.377 0.231l-1.9 3.109c0.176 0.425 0.417 0.718 0.717 0.891 0.297 0.171 0.662 0.23 1.074 0.203l2.994-4.968c0.283-0.307 0.576-0.875 0.824-1.281 0 0 0.008-0.014 0.020-0.028 0.006-0.007 0.014-0.015 0.026-0.026 0.006-0.005 0.024-0.019 0.024-0.019s0.038-0.020 0.038-0.020c0 0 0.063-0.015 0.063-0.015s0.083 0.008 0.083 0.008c0 0 0.074 0.039 0.074 0.039s0.045 0.048 0.045 0.048c0 0 0.018 0.028 0.023 0.040s0.007 0.021 0.010 0.029c0.004 0.017 0.006 0.029 0.007 0.038 0.007 0.077-0.002 0.081-0.012 0.133-0.020 0.104-0.068 0.307-0.184 0.752-0.041 0.156-0.007 0.254 0.083 0.368s0.249 0.225 0.423 0.311c0.273 0.136 0.463 0.169 0.58 0.196l0.213-0.46 0.34-1.715c0.368-1.86 1.351-5.486 1.419-5.737l-4.563-3.251zM25.165 9.747c-0.097-0.002-0.197 0.001-0.3 0.010l-3.685 6.328-0.002-0.001c-0.001 0.001-0.010 0.018-0.010 0.018-0.164 0.228-0.511 0.003-0.37-0.24l0.019-0.033c0.158-0.388 0.418-1.042 0.256-1.386l-1.244-0.381-0.19 0.645-0.306 1.735c-0.336 1.907-0.948 5.631-0.948 5.631-0.008 0.048-0.032 0.092-0.067 0.125-0.223 0.21-0.549 0.382-0.769 0.54-0.098 0.070-0.156 0.131-0.181 0.163l4.022 3.663c0.030-0.016 0.104-0.084 0.18-0.182 0.154-0.199 0.319-0.496 0.514-0.703 0.023-0.024 0.052-0.043 0.083-0.054l2.333-0.873c0.663-0.248 1.413-0.933 2.133-1.834 0.72-0.901 1.416-2.011 2.023-3.088 1.178-2.095 1.981-3.997 2.027-4.104-0.058-0.27-0.167-0.45-0.316-0.541-0.147-0.090-0.359-0.106-0.646-0.026l-1.072 1.841c-0.151 0.244-0.52 0.029-0.382-0.222l1.123-1.928 0.003-0.004 0.562-0.964c-0.162-0.269-0.321-0.496-0.522-0.626-0.205-0.134-0.478-0.198-0.856-0.195l-1.537 2.641c-0.149 0.255-0.531 0.032-0.382-0.222l1.763-3.027c-0.19-0.46-0.778-0.873-1.644-0.928l-1.548 2.657c-0.148 0.255-0.53 0.032-0.382-0.222l1.834-3.148c-0.185-0.422-0.431-0.71-0.735-0.876-0.226-0.124-0.489-0.184-0.78-0.19l-0 0zM9.949 16.883c-0.261 0.473-0.249 0.441-0.261 0.473l-2.811 4.663 0.26 1.867c0.098 0.701 0.604 1.581 1.327 2.48s1.654 1.82 2.574 2.644c1.789 1.605 3.471 2.804 3.566 2.872 0.276 0.002 0.476-0.065 0.597-0.19 0.119-0.124 0.182-0.329 0.166-0.626v-0.001l-1.564-1.447c-0.205-0.201 0.084-0.513 0.3-0.324l2.459 2.275c0.298-0.1 0.554-0.206 0.725-0.374 0.175-0.172 0.297-0.423 0.375-0.793l-2.244-2.075c-0.206-0.2 0.084-0.514 0.3-0.325l2.572 2.379c0.49-0.086 1.020-0.571 1.263-1.403l-2.257-2.087c-0.206-0.2 0.083-0.514 0.299-0.325l2.675 2.473c0.452-0.089 0.786-0.266 1.015-0.526 0.227-0.258 0.356-0.605 0.41-1.015l-5.376-4.972c0 0-0.012-0.011-0.023-0.024-0.006-0.007-0.012-0.016-0.021-0.030-0.004-0.007-0.013-0.027-0.013-0.028s-0.012-0.042-0.012-0.042l-0.002-0.064c0-0 0.024-0.079 0.024-0.079s0.052-0.066 0.053-0.066c0 0 0.056-0.035 0.056-0.035s0.031-0.012 0.043-0.014c0.012-0.003 0.023-0.003 0.031-0.004 0.017-0.001 0.029-0 0.038 0.001 0.077 0.008 0.080 0.019 0.129 0.039 0.098 0.040 0.144 0.013 0.557 0.215 0.145 0.071 0.336-0.019 0.336-0.019 0.141-0.037 0.392-0.2 0.511-0.354 0.187-0.242 0.083-0.37 0.133-0.479l-0.174-0.227-1.614-0.67c-1.787-0.742-5.279-2.144-5.286-2.147l-0.005-0.003c-0.041-0.016-0.076-0.045-0.101-0.081l-1.031-1.534z"></path>
</svg>
