<?xml version="1.0" encoding="utf-8"?>
<svg version="1.1" viewBox="0 0 1200 1200" xmlns="http://www.w3.org/2000/svg" width="150pt" height="150pt">
  <path d="M 568.081 27.05 C 557.801 28.258 550.708 31.703 546.794 36.951 C 542.938 42.116 541.566 50.032 543.575 61.025 L 608.59 107.464 C 617.54 113.89 607.938 127.328 598.955 120.943 L 530.892 72.34 L 530.841 72.291 L 530.743 72.242 L 496.723 47.954 C 486.109 53.067 477.069 58.198 471.518 65.232 C 465.803 72.47 462.467 82.408 461.282 96.508 L 554.547 163.127 C 563.077 169.609 553.845 182.555 544.937 176.607 L 447.544 107.031 L 447.493 107.005 L 438.029 100.231 C 420.18 105.722 402.735 126.243 397.642 158.369 L 491.483 225.399 C 500.502 231.811 490.837 245.329 481.847 238.879 L 383.541 168.654 L 383.518 168.63 L 370.69 159.474 C 354.293 164.914 342.666 173.096 335.399 183.857 C 328.183 194.533 325.006 208.039 324.919 223.523 L 491.319 342.399 L 548.378 383.169 C 548.378 383.169 548.887 383.523 549.366 383.987 C 549.606 384.216 549.881 384.497 550.251 384.998 C 550.438 385.247 550.872 385.929 550.878 385.935 C 550.878 385.942 551.523 387.468 551.523 387.475 C 551.523 387.48 551.908 389.849 551.908 389.849 C 551.908 389.856 551.38 392.895 551.38 392.901 C 551.38 392.907 549.75 395.588 549.75 395.594 C 549.743 395.601 547.832 397.127 547.826 397.134 C 547.819 397.134 546.684 397.702 546.238 397.853 C 545.798 398.001 545.426 398.099 545.107 398.164 C 544.47 398.286 544.054 398.299 543.696 398.305 C 540.793 398.38 540.636 397.977 538.721 397.461 C 534.891 396.437 527.399 394.111 511.089 388.547 C 509.708 388.077 509.701 386.605 508.64 385.688 C 508.59 385.824 508.554 385.813 508.497 385.955 C 506.022 392.4 503.846 400.434 502.132 408.173 C 498.758 423.416 497.165 436.978 497.115 437.411 L 555.301 453.341 C 624.193 472.204 803.265 532.752 814.461 536.535 L 907.147 376.14 L 883.602 289.315 C 876.659 263.708 853.66 233.306 822.53 203.288 C 791.404 173.263 752.415 143.398 714.301 117.041 C 640.17 65.762 571.908 29.093 568.086 27.046 L 568.081 27.05 Z M 326.865 242.378 L 257.554 263.809 C 232.517 272.574 203.846 297.654 176.134 330.863 C 148.423 364.07 121.438 405.119 97.885 445.033 C 52.071 522.65 20.403 593.352 18.629 597.327 C 20.571 607.492 24.527 614.335 30.043 617.865 C 35.472 621.34 43.455 622.145 54.262 619.354 L 95.941 551.147 C 101.774 542.035 115.527 550.454 110.067 559.795 L 66.463 631.172 L 66.389 631.314 L 66.364 631.34 L 44.572 666.99 C 50.434 677.218 56.202 685.838 63.621 690.873 C 71.258 696.055 81.413 698.658 95.575 698.827 L 155.327 601.021 C 161.088 591.592 175.215 600.242 169.453 609.669 L 100.985 721.791 C 107.747 739.193 129.465 755.106 161.867 757.877 L 221.978 659.472 C 227.741 650.043 241.891 658.692 236.129 668.12 L 164.895 784.715 C 171.501 800.668 180.52 811.648 191.78 818.131 C 202.935 824.553 216.614 826.742 232.045 825.726 L 344.335 639.443 C 354.931 627.947 365.917 606.639 375.229 591.39 C 375.229 591.39 375.543 590.864 375.972 590.354 C 376.184 590.101 376.487 589.802 376.958 589.393 C 377.195 589.188 377.846 588.698 377.846 588.698 C 377.852 588.698 379.286 587.953 379.286 587.953 C 379.291 587.953 381.636 587.402 381.642 587.402 C 381.648 587.402 384.738 587.689 384.743 587.689 C 384.75 587.689 387.53 589.15 387.53 589.15 C 387.537 589.15 389.209 590.95 389.209 590.95 C 389.209 590.956 389.868 592.011 390.054 592.44 C 390.234 592.867 390.332 593.227 390.414 593.544 C 390.582 594.169 390.644 594.623 390.682 594.981 C 390.956 597.874 390.595 598.035 390.222 599.982 C 389.476 603.871 387.68 611.502 383.304 628.164 C 381.767 634.015 383.046 637.681 386.427 641.954 C 389.806 646.229 395.762 650.391 402.306 653.63 C 412.561 658.711 419.676 659.969 424.049 660.982 L 432.025 643.728 L 444.762 579.419 C 458.565 509.679 495.423 373.682 497.975 364.298 L 326.89 242.377 L 326.865 242.378 Z M 943.685 365.503 C 940.053 365.416 936.285 365.552 932.423 365.887 L 794.238 603.192 L 794.162 603.168 C 794.138 603.192 793.805 603.839 793.805 603.839 C 787.669 612.38 774.642 603.95 779.921 594.855 L 780.639 593.608 C 786.571 579.049 796.321 554.551 790.225 541.641 L 743.569 527.35 L 736.46 551.543 L 725.003 616.604 C 712.403 688.119 689.467 827.756 689.467 827.756 C 689.169 829.555 688.276 831.199 686.943 832.439 C 678.57 840.312 666.373 846.78 658.118 852.694 C 654.444 855.324 652.279 857.588 651.32 858.799 L 802.142 996.168 C 803.252 995.563 806.038 993.028 808.891 989.36 C 814.667 981.881 820.846 970.768 828.16 963.004 C 829.028 962.085 830.096 961.404 831.28 960.963 L 918.773 928.23 C 943.638 918.931 971.746 893.253 998.774 859.47 C 1025.76 825.691 1051.88 784.067 1074.62 743.671 C 1118.79 665.102 1148.92 593.768 1150.63 589.77 C 1148.47 579.644 1144.38 572.883 1138.78 569.466 C 1133.28 566.103 1125.3 565.475 1114.54 568.504 L 1074.33 637.549 C 1068.66 646.693 1054.84 638.64 1060 629.213 L 1102.11 556.92 L 1102.22 556.779 L 1123.28 520.643 C 1117.19 510.545 1111.24 502.047 1103.7 497.171 C 1096 492.152 1085.77 489.733 1071.6 489.868 L 1013.96 588.901 C 1008.39 598.447 994.06 590.11 999.619 580.562 L 1059.85 477.165 L 1059.92 477.039 L 1065.74 467.047 C 1058.61 449.787 1036.57 434.328 1004.1 432.23 L 946.053 531.884 C 940.494 541.431 926.183 533.094 931.743 523.547 L 992.552 419.162 L 1000.51 405.49 C 993.56 389.678 984.343 378.864 972.946 372.623 C 964.468 367.978 954.603 365.738 943.704 365.49 L 943.685 365.503 Z M 373.078 633.11 C 363.302 650.864 363.744 649.63 363.302 650.864 L 257.882 825.743 L 267.633 895.753 C 271.301 922.027 290.28 955.049 317.391 988.746 C 344.494 1022.42 379.423 1056.98 413.921 1087.91 C 480.999 1148.09 544.084 1193.06 547.643 1195.61 C 558.003 1195.69 565.483 1193.16 570.033 1188.47 C 574.511 1183.83 576.868 1176.15 576.253 1164.99 L 576.253 1164.97 L 517.59 1110.72 C 509.914 1103.2 520.751 1091.48 528.83 1098.56 L 590.237 1155.36 L 590.361 1155.48 L 621.061 1183.87 C 632.24 1180.13 641.842 1176.16 648.233 1169.85 C 654.809 1163.4 659.363 1153.98 662.307 1140.13 L 578.174 1062.33 C 570.454 1054.84 581.323 1043.07 589.412 1050.14 L 677.272 1131.42 L 685.869 1139.37 C 704.261 1136.16 724.127 1117.96 733.218 1086.74 L 648.58 1008.48 C 640.862 1000.98 651.706 989.216 659.801 996.302 L 748.498 1078.29 L 748.883 1078.69 L 760.123 1089.05 C 777.071 1085.73 789.607 1079.06 798.183 1069.32 C 806.68 1059.63 811.527 1046.62 813.56 1031.25 L 611.953 844.801 C 611.953 844.801 611.507 844.405 611.093 843.891 C 610.881 843.629 610.627 843.299 610.322 842.761 C 610.173 842.486 609.846 841.731 609.846 841.725 C 609.846 841.718 609.386 840.142 609.386 840.136 L 609.312 837.733 C 609.312 837.728 610.223 834.784 610.223 834.784 C 610.223 834.778 612.191 832.313 612.198 832.307 C 612.203 832.307 614.28 831.011 614.287 831.011 C 614.293 831.011 615.465 830.577 615.917 830.484 C 616.375 830.385 616.768 830.36 617.096 830.341 C 617.748 830.304 618.175 830.328 618.536 830.365 C 621.428 830.663 621.531 831.086 623.361 831.831 C 627.028 833.325 628.766 832.332 644.237 839.901 C 649.672 842.556 656.847 839.181 656.847 839.181 C 662.121 837.809 671.531 831.676 675.999 825.893 C 682.997 816.83 679.126 812.035 680.974 807.946 L 674.466 799.417 L 613.927 774.31 C 546.919 746.501 415.959 693.901 415.719 693.804 L 415.527 693.704 C 413.99 693.089 412.662 692.029 411.73 690.651 L 373.078 633.11 Z" fill-rule="evenodd"/>
</svg>