<?xml version="1.0" encoding="utf-8"?>
<svg version="1.1" viewBox="0 0 1200 1200" xmlns="http://www.w3.org/2000/svg" width="150pt" height="150pt">
  <path d="M 488.819 368.958 C 509.014 410.878 501.44 475.344 472.139 514.348 C 471.261 536.446 474.542 557.598 478.007 579.942 C 484.394 621.122 490.999 663.704 471.706 715.642 C 467.67 726.501 463.596 736.525 459.655 746.22 C 435.108 806.59 417.373 850.21 457.553 978.42 C 477.815 1043.09 474.866 1102.129 449.233 1144.66 C 431.62 1173.89 404.866 1192.562 371.858 1198.656 C 366.975 1199.555 361.924 1200.012 356.842 1200.012 C 326.666 1200.012 294.729 1183.906 269.213 1155.832 C 226.838 1109.202 206.908 1036.885 214.529 957.432 C 229.135 805.156 227.514 802.324 186.037 729.742 L 185.56 728.906 C 164.677 692.363 147.299 661.918 150.822 629.734 L 150.822 629.726 C 150.822 629.722 150.826 629.722 150.826 629.718 C 154.471 596.503 180.381 561.441 247.756 515.898 C 300.007 480.578 338.214 475.058 359.706 474.195 C 347.804 443.395 346.609 395.965 364.648 362.985 C 377.441 339.599 397.934 327.169 423.914 327.044 L 424.316 327.044 C 452.894 327.044 475.804 341.927 488.82 368.95 Z M 455.585 505.107 C 481.945 472.042 489.429 413.421 471.933 377.097 C 465.058 362.824 451.218 345.804 424.32 345.804 L 424.007 345.804 C 409.319 345.874 397.378 351.171 388.339 361.534 C 403.116 364.917 411.331 375.327 415.874 387.343 C 429.694 423.872 423.8 482.798 403.003 516.013 C 402.296 517.142 401.886 518.505 401.824 519.947 C 400.738 544.474 403.609 568.048 406.386 590.845 C 411.089 629.398 415.945 669.265 402.156 716.535 C 399.081 727.058 395.968 736.8 392.96 746.226 C 373.71 806.526 358.5 854.156 390.98 986.116 C 405.57 1045.397 403.722 1098.928 385.781 1136.846 C 375.641 1158.27 360.961 1172.97 343.004 1179.873 C 347.656 1180.779 352.285 1181.255 356.844 1181.255 C 360.785 1181.255 364.695 1180.904 368.453 1180.208 C 396.031 1175.119 418.41 1159.474 433.176 1134.974 C 455.996 1097.104 458.297 1043.491 439.66 984.014 C 397.469 849.374 417.246 800.734 442.285 739.144 C 446.172 729.581 450.195 719.691 454.129 709.101 C 471.727 661.745 465.496 621.616 459.477 582.811 C 455.867 559.568 452.141 535.533 453.555 510.416 C 453.668 508.479 454.375 506.62 455.586 505.1 Z M 244.832 427.992 C 244.832 402.949 265.203 382.574 290.25 382.574 C 315.293 382.574 335.668 402.949 335.668 427.992 C 335.668 453.035 315.297 473.41 290.25 473.41 C 265.203 473.41 244.828 453.035 244.832 427.992 Z M 290.251 401.321 C 276.122 401.321 264.556 412.372 263.669 426.274 C 267.184 419.633 274.161 415.09 282.192 415.09 C 293.747 415.09 303.149 424.492 303.149 436.047 C 303.149 444.074 298.605 451.051 291.961 454.57 C 305.867 453.679 316.918 442.117 316.918 427.988 C 316.918 413.281 304.953 401.32 290.25 401.32 Z M 204.28 441.71 C 227.28 441.71 245.987 460.421 245.987 483.417 C 245.987 506.417 227.28 525.128 204.28 525.128 C 181.28 525.128 162.569 506.417 162.569 483.417 C 162.569 460.421 181.28 441.71 204.28 441.71 Z M 205.325 506.326 C 217.496 505.77 227.236 495.724 227.236 483.42 C 227.236 470.761 216.939 460.463 204.279 460.463 C 191.972 460.463 181.924 470.205 181.373 482.377 C 184.42 477.166 190.058 473.647 196.519 473.647 C 206.186 473.647 214.054 481.514 214.054 491.182 C 214.054 497.638 210.535 503.283 205.325 506.326 Z M 172.66 549.22 C 172.66 569.451 156.202 585.908 135.972 585.908 C 115.745 585.908 99.288 569.45 99.288 549.22 C 99.288 528.99 115.742 512.529 135.972 512.529 C 156.203 512.529 172.66 528.99 172.66 549.22 Z M 138.221 567 C 147.052 565.89 153.91 558.347 153.91 549.219 C 153.91 539.325 145.867 531.278 135.972 531.278 C 126.844 531.278 119.301 538.137 118.191 546.973 C 120.793 543.165 125.164 540.653 130.113 540.653 C 138.067 540.653 144.535 547.126 144.535 555.079 C 144.535 560.027 142.029 564.402 138.221 567 Z M 735.866 252.892 C 739.331 230.548 742.616 209.396 741.729 187.298 C 712.428 148.298 704.854 83.826 725.045 41.908 C 738.061 14.881 760.975 -0.002 789.553 -0.002 L 789.955 -0.002 C 815.935 0.124 836.432 12.553 849.244 35.936 C 867.28 68.919 866.08 116.349 854.182 147.146 C 875.679 148.009 913.886 153.533 966.132 188.849 C 1098.8 278.529 1070.765 327.593 1028.327 401.859 L 1027.85 402.691 C 986.378 475.271 984.76 478.101 999.358 630.381 C 1006.979 709.841 987.042 782.158 944.663 828.791 C 919.155 856.865 887.218 872.963 857.05 872.963 L 857.042 872.963 C 851.956 872.963 846.905 872.506 842.026 871.608 C 809.018 865.514 782.26 846.842 764.647 817.612 C 739.019 775.072 736.065 716.04 756.331 651.372 C 772.237 600.594 779.042 563.117 779.964 532.582 C 779.933 511.406 777.777 493.43 774.347 476.715 C 769.566 456.957 762.269 438.949 754.222 419.16 C 750.28 409.469 746.206 399.445 742.171 388.59 C 722.874 336.648 729.479 294.066 735.87 252.89 Z M 741.942 50.047 C 737.192 59.907 734.301 71.415 733.118 83.606 C 734.231 78.149 735.661 72.965 737.438 68.18 C 742.833 53.652 753.692 36.332 774.833 36.332 L 775.071 36.332 C 790.063 36.426 801.435 45.43 808.872 63.09 C 822.098 94.486 819.102 145.97 807.7 169.31 C 806.673 171.423 806.607 174.099 807.536 176.294 C 808.466 178.486 810.243 179.849 812.169 179.849 L 815.735 179.841 C 828.16 179.841 857.25 179.841 900.676 217.962 C 943.93 255.923 964.68 285.927 967.961 315.251 C 971.016 342.524 958.934 369.962 943.649 404.7 L 943.29 405.517 C 910.884 479.147 908.943 483.557 920.298 637.277 C 925.696 710.367 911.856 776.482 882.321 818.677 C 870.634 835.372 857.102 847.118 843.493 852.755 C 844.138 852.887 844.774 853.04 845.427 853.161 C 849.18 853.856 853.086 854.208 857.036 854.208 L 857.04 854.208 C 881.938 854.208 908.813 840.345 930.778 816.177 C 969.606 773.447 987.801 706.378 980.684 632.167 C 965.512 473.961 968.114 469.414 1011.559 393.387 L 1012.035 392.555 C 1032.145 357.364 1048.031 329.567 1044.086 302.43 C 1039.824 273.098 1012.539 242.86 955.617 204.383 C 898.451 165.738 860.272 165.738 843.967 165.738 L 839.217 165.746 C 835.799 165.746 832.651 163.886 831.002 160.89 C 829.354 157.894 829.467 154.238 831.299 151.351 C 846.116 127.986 849.991 76.404 832.78 44.931 C 823.323 27.645 808.89 18.833 789.874 18.743 L 789.561 18.743 C 762.663 18.743 748.823 35.763 741.944 50.04 Z M 878.202 100.952 C 878.202 75.909 898.573 55.534 923.62 55.534 C 948.663 55.534 969.038 75.909 969.038 100.952 C 969.038 125.995 948.667 146.37 923.62 146.37 C 898.577 146.37 878.198 125.995 878.202 100.952 Z M 923.62 74.284 C 909.788 74.284 898.386 84.874 897.081 98.366 C 900.694 91.487 907.901 86.78 916.198 86.78 C 928.104 86.78 937.788 96.464 937.788 108.37 C 937.788 116.667 933.085 123.874 926.202 127.487 C 939.698 126.186 950.288 114.784 950.288 100.952 C 950.288 86.245 938.323 74.284 923.62 74.284 Z M 1009.6 198.09 C 986.604 198.09 967.893 179.379 967.893 156.379 C 967.893 133.383 986.6 114.672 1009.6 114.672 C 1032.6 114.672 1051.311 133.383 1051.311 156.379 C 1051.311 179.379 1032.6 198.09 1009.6 198.09 Z M 1009.599 133.421 C 997.454 133.421 987.509 142.914 986.716 154.859 C 989.818 149.527 995.58 145.922 1002.177 145.922 C 1012.037 145.922 1020.06 153.942 1020.06 163.801 C 1020.06 170.403 1016.459 176.164 1011.123 179.262 C 1023.073 178.473 1032.561 168.527 1032.561 156.379 C 1032.561 143.719 1022.26 133.422 1009.6 133.422 Z M 1041.216 222.192 C 1041.216 201.962 1057.67 185.501 1077.9 185.501 C 1098.127 185.501 1114.588 201.961 1114.588 222.192 C 1114.588 242.423 1098.13 258.88 1077.9 258.88 C 1057.673 258.88 1041.216 242.422 1041.216 222.192 Z M 1077.902 204.252 C 1068.664 204.252 1061.035 211.283 1060.07 220.275 C 1062.628 216.505 1066.952 214.021 1071.843 214.021 C 1079.686 214.021 1086.073 220.403 1086.073 228.251 C 1086.073 233.141 1083.588 237.461 1079.815 240.024 C 1088.811 239.063 1095.838 231.434 1095.838 222.192 C 1095.838 212.298 1087.795 204.251 1077.9 204.251 Z M 230.816 297.808 C 155.255 288.128 99.649 242.694 74.196 169.768 C 64.457 141.784 59.801 110.288 60.735 78.686 C 60.739 78.627 60.75 78.573 60.754 78.518 C 60.762 78.33 60.793 78.143 60.813 77.955 C 60.852 77.577 60.91 77.202 60.996 76.834 C 61.039 76.643 61.09 76.455 61.149 76.264 C 61.27 75.85 61.426 75.455 61.602 75.069 C 61.649 74.971 61.668 74.866 61.719 74.768 C 61.735 74.733 61.762 74.705 61.781 74.67 C 62.035 74.17 62.328 73.701 62.672 73.26 C 62.774 73.123 62.895 73.006 63.004 72.877 C 63.258 72.584 63.52 72.307 63.805 72.045 C 63.965 71.901 64.125 71.768 64.289 71.635 C 64.567 71.412 64.86 71.213 65.164 71.022 C 65.332 70.916 65.5 70.807 65.672 70.713 C 66.059 70.51 66.465 70.334 66.887 70.178 C 66.988 70.139 67.082 70.088 67.184 70.053 C 67.192 70.049 67.195 70.049 67.203 70.045 C 67.723 69.877 68.246 69.768 68.774 69.69 C 68.942 69.662 69.113 69.662 69.281 69.647 C 69.668 69.612 70.051 69.592 70.434 69.608 C 70.633 69.616 70.828 69.631 71.024 69.651 C 71.414 69.694 71.797 69.756 72.18 69.842 C 72.344 69.881 72.508 69.909 72.668 69.955 C 73.215 70.112 73.742 70.311 74.254 70.561 C 74.273 70.573 74.289 70.573 74.305 70.58 C 97.705 82.299 167.333 89.834 264.895 78.686 C 301.381 74.545 338.268 68.103 374.545 59.541 C 394.904 54.732 414.478 51.674 432.83 50.381 C 434.673 49.611 436.756 49.385 438.834 49.935 C 438.92 49.959 438.994 49.99 439.076 50.014 C 496.89 47.132 543.437 61.85 577.406 93.866 C 619.09 133.146 640.57 197.694 641.301 285.706 C 643.512 288.92 645.703 292.186 647.82 295.463 C 662.379 317.85 676.398 343.358 691.906 375.717 C 694.145 380.389 692.172 385.987 687.504 388.225 C 686.195 388.85 684.813 389.147 683.457 389.147 C 679.961 389.147 676.609 387.186 674.996 383.823 C 660.183 352.921 646.82 328.499 633.027 307.128 C 587.947 275.038 516.717 248.554 334.677 290.882 C 297.681 299.484 263.025 301.851 231.677 297.921 C 231.591 297.913 231.509 297.894 231.423 297.886 C 231.22 297.855 231.013 297.843 230.81 297.8 Z M 157.998 188.79 C 137.643 188.79 117.436 186.986 99.459 182.279 C 101.35 186.357 103.369 190.306 105.494 194.154 C 120.638 197.115 138.256 198.626 157.99 198.626 C 216.274 198.626 275.227 185.884 286.45 183.329 L 286.767 183.255 L 287.095 183.259 C 292.068 183.353 297.189 183.4 302.318 183.4 C 315.623 183.4 329.47 183.087 343.482 182.466 C 353.384 182.037 363.111 181.818 372.396 181.818 C 375.509 181.818 378.579 181.841 381.607 181.892 L 381.896 181.9 C 409.154 182.38 433.83 184.783 456.732 189.146 C 465.365 187.161 473.537 185.576 481.193 184.411 C 451.736 175.239 418.928 170.353 381.951 169.606 C 381.904 169.606 381.845 169.622 381.795 169.622 C 381.716 169.622 381.642 169.599 381.568 169.595 C 369.533 169.372 356.771 169.595 343.607 170.251 C 323.943 171.255 304.935 171.552 287.048 171.169 C 277.068 173.774 216.959 188.79 157.998 188.79 Z M 597.092 266.518 C 600.295 267.744 603.4 269.018 606.396 270.334 C 590.896 251.443 574.572 235.681 556.943 222.576 C 546.427 214.756 535.193 207.76 523.552 201.721 C 484.372 195.279 399.532 220.553 294.672 269.041 C 386.752 232.916 462.662 212.447 505.432 212.447 C 510.444 212.447 515.037 212.732 519.084 213.299 L 519.444 213.349 L 519.768 213.494 C 531.393 218.619 542.514 224.529 552.842 231.06 C 568.6 241.021 583.127 252.669 597.088 266.517 Z M 564.549 107.493 C 543.694 87.837 517.178 75.536 485.389 70.704 C 521.186 92.845 541.721 122.798 553.256 147.052 C 566.623 175.154 570.459 200.177 571.514 210.095 C 589.377 223.814 605.948 240.084 621.647 259.357 C 617.358 190.231 598.205 139.216 564.549 107.497 Z M 378.86 77.778 C 348.423 84.961 317.563 90.657 286.868 94.813 C 313.313 116.028 358.747 139.387 383.946 150.907 C 441.277 152.243 489.359 163.177 530.836 184.341 C 537.367 187.681 543.777 191.306 550.027 195.193 C 547.601 184.197 543.375 169.763 536.027 154.47 C 515.745 112.266 482.28 83.505 436.589 68.911 C 418.547 70.016 399.144 72.989 378.859 77.778 Z M 262.256 97.828 C 198.282 104.789 138.634 104.328 99.216 97.211 C 126.026 121.337 177.516 149.836 286.126 152.399 C 303.943 152.825 322.97 152.524 342.677 151.52 L 342.7 151.52 C 315.857 137.513 280.802 117.126 262.259 97.829 Z M 217.653 165.496 C 140.492 153.789 101.586 126.692 80.043 104.934 C 80.984 117.755 82.945 130.345 85.82 142.454 C 113.19 154.95 151.303 163.153 201.92 167.442 C 207.291 166.86 212.552 166.2 217.654 165.497 Z M 1125.81 1038.597 C 1135.549 1066.589 1140.201 1098.082 1139.279 1129.687 C 1139.275 1129.742 1139.263 1129.801 1139.259 1129.855 C 1139.252 1130.039 1139.22 1130.219 1139.201 1130.402 C 1139.158 1130.789 1139.099 1131.172 1139.009 1131.547 C 1138.967 1131.73 1138.916 1131.91 1138.861 1132.094 C 1138.732 1132.515 1138.576 1132.926 1138.388 1133.328 C 1138.349 1133.418 1138.33 1133.512 1138.287 1133.601 C 1138.271 1133.633 1138.248 1133.656 1138.232 1133.687 C 1137.97 1134.187 1137.67 1134.664 1137.326 1135.113 C 1137.232 1135.23 1137.127 1135.336 1137.029 1135.449 C 1136.767 1135.762 1136.486 1136.055 1136.181 1136.332 C 1136.041 1136.465 1135.888 1136.586 1135.74 1136.707 C 1135.439 1136.945 1135.127 1137.16 1134.799 1137.363 C 1134.65 1137.449 1134.509 1137.551 1134.357 1137.629 C 1133.916 1137.871 1133.451 1138.078 1132.967 1138.246 C 1132.924 1138.258 1132.888 1138.281 1132.849 1138.297 C 1132.834 1138.301 1132.822 1138.308 1132.806 1138.312 C 1132.279 1138.484 1131.744 1138.598 1131.209 1138.672 C 1131.064 1138.691 1130.912 1138.691 1130.767 1138.707 C 1130.478 1138.73 1130.189 1138.773 1129.904 1138.773 C 1129.81 1138.773 1129.728 1138.746 1129.638 1138.742 C 1129.197 1138.734 1128.752 1138.668 1128.31 1138.594 C 1128.091 1138.551 1127.877 1138.535 1127.662 1138.484 C 1127.189 1138.367 1126.724 1138.187 1126.263 1137.996 C 1126.099 1137.922 1125.92 1137.879 1125.756 1137.801 C 1125.74 1137.793 1125.72 1137.789 1125.705 1137.781 C 1102.305 1126.066 1032.681 1118.531 935.115 1129.679 C 898.637 1133.82 861.746 1140.262 825.465 1148.824 C 805.117 1153.625 785.555 1156.684 767.219 1157.977 C 766.078 1158.457 764.856 1158.746 763.586 1158.746 C 762.781 1158.746 761.965 1158.641 761.152 1158.422 C 761.078 1158.406 761.012 1158.375 760.945 1158.356 C 756.191 1158.594 751.504 1158.735 746.902 1158.735 C 695.543 1158.735 653.786 1143.888 622.602 1114.501 C 580.918 1075.221 559.438 1010.677 558.707 922.661 C 556.493 919.438 554.297 916.176 552.188 912.907 C 537.637 890.536 523.622 865.024 508.102 832.653 C 505.867 827.985 507.836 822.383 512.504 820.145 C 517.176 817.91 522.77 819.879 525.012 824.547 C 539.832 855.465 553.192 879.887 566.977 901.242 C 612.047 933.328 683.287 959.824 865.327 917.488 C 902.321 908.886 936.977 906.515 968.317 910.449 C 968.391 910.457 968.466 910.472 968.54 910.48 C 968.759 910.511 968.985 910.519 969.2 910.57 C 1044.757 920.24 1100.355 965.678 1125.8 1038.6 Z M 968.754 929.441 C 864.264 982.326 777.009 1015.116 718.825 1023.963 C 748.254 1033.124 781.04 1038.01 817.981 1038.76 C 818.165 1038.756 818.34 1038.768 818.52 1038.772 C 830.555 1038.983 843.297 1038.76 856.391 1038.112 C 876.04 1037.112 895.052 1036.807 912.95 1037.19 C 926.38 1033.686 1030.518 1007.737 1100.53 1026.081 C 1075.341 971.757 1029.24 937.781 968.754 929.441 Z M 869.57 935.749 C 722.54 969.936 644.051 960.245 593.61 938.03 C 609.106 956.921 625.43 972.683 643.059 985.788 C 653.583 993.616 664.817 1000.612 676.45 1006.643 C 718.72 1013.596 814.08 983.667 930.41 927.479 C 911.152 928.057 890.812 930.811 869.57 935.749 Z M 701.11 1135.049 C 705.497 1136.064 709.981 1136.943 714.594 1137.642 C 678.805 1115.501 658.274 1085.556 646.739 1061.302 C 633.372 1033.2 629.536 1008.177 628.481 998.259 C 610.621 984.54 594.051 968.27 578.348 948.997 C 578.856 957.15 579.583 965.029 580.505 972.677 C 594.477 989.06 609.009 1002.763 624.915 1014.517 L 625.637 1015.053 L 625.735 1015.928 C 626.645 1024.166 630.063 1045.971 642.122 1070.354 C 651.415 1089.147 669.18 1115.451 701.11 1135.049 Z M 896.649 1115.946 C 902.148 1115.107 907.647 1114.295 913.13 1113.556 C 886.689 1092.345 841.255 1068.985 816.056 1057.462 C 758.717 1056.122 710.639 1045.188 669.166 1024.024 C 662.631 1020.685 656.221 1017.056 649.967 1013.169 C 651.143 1018.516 652.76 1024.685 654.944 1031.36 C 659.448 1033.841 664.018 1036.235 668.632 1038.415 C 707.006 1056.528 751.506 1065.888 804.682 1067.032 L 805.131 1067.044 L 805.545 1067.216 C 832.81 1078.748 873.009 1098.408 896.529 1115.857 Z M 1083.527 1108.622 C 1089.617 1109.341 1095.406 1110.177 1100.789 1111.153 C 1073.979 1087.024 1022.489 1058.529 913.879 1055.962 C 896.051 1055.537 877.019 1055.837 857.328 1056.845 L 857.308 1056.845 C 861.148 1058.853 865.171 1061.001 869.277 1063.248 C 878.035 1062.958 886.676 1062.806 895.035 1062.806 C 900.098 1062.806 905.133 1062.857 910 1062.962 C 988.79 1064.653 1047.141 1080.024 1083.52 1108.622 Z M 982.33 1042.865 C 1059.505 1054.568 1098.411 1081.669 1119.95 1103.431 C 1118.555 1084.399 1114.965 1065.856 1109.36 1048.665 C 1074.627 1034.607 1023.303 1037.208 982.33 1042.864 Z"/>
</svg>