<!-- Generated by IcoMoon.io -->
<svg version="1.1" xmlns="http://www.w3.org/2000/svg" width="32" height="32" viewBox="0 0 32 32">
<path d="M13.035 9.839c0.539 1.118 0.337 2.837-0.445 3.877-0.023 0.589 0.064 1.153 0.156 1.749 0.17 1.098 0.346 2.234-0.168 3.619-0.108 0.29-0.216 0.557-0.321 0.815-0.655 1.61-1.128 2.773-0.056 6.192 0.54 1.725 0.462 3.299-0.222 4.433-0.47 0.779-1.183 1.277-2.063 1.44-0.13 0.024-0.265 0.036-0.4 0.036-0.805 0-1.656-0.43-2.337-1.178-1.13-1.243-1.661-3.172-1.458-5.291 0.389-4.061 0.346-4.136-0.76-6.072l-0.013-0.022c-0.557-0.974-1.020-1.786-0.926-2.645v-0c0-0 0-0 0-0 0.097-0.886 0.788-1.821 2.585-3.035 1.393-0.942 2.412-1.089 2.985-1.112-0.317-0.821-0.349-2.086 0.132-2.966 0.341-0.624 0.888-0.955 1.58-0.958h0.011c0.762 0 1.373 0.397 1.72 1.117zM12.149 13.47c0.703-0.882 0.902-2.445 0.436-3.414-0.183-0.381-0.552-0.834-1.27-0.834h-0.008c-0.392 0.002-0.71 0.143-0.951 0.419 0.394 0.090 0.613 0.368 0.734 0.688 0.369 0.974 0.211 2.545-0.343 3.431-0.019 0.030-0.030 0.066-0.031 0.105-0.029 0.654 0.048 1.283 0.122 1.891 0.125 1.028 0.255 2.091-0.113 3.352-0.082 0.281-0.165 0.54-0.245 0.792-0.513 1.608-0.919 2.878-0.053 6.397 0.389 1.581 0.34 3.008-0.139 4.019-0.27 0.571-0.662 0.963-1.141 1.147 0.124 0.024 0.248 0.037 0.369 0.037 0.105 0 0.209-0.009 0.31-0.028 0.735-0.136 1.332-0.553 1.726-1.206 0.609-1.010 0.67-2.44 0.173-4.026-1.125-3.59-0.598-4.887 0.070-6.53 0.104-0.255 0.211-0.519 0.316-0.801 0.469-1.263 0.303-2.333 0.143-3.368-0.096-0.62-0.196-1.261-0.158-1.931 0.003-0.052 0.022-0.101 0.054-0.142zM6.529 11.413c0-0.668 0.543-1.211 1.211-1.211s1.211 0.543 1.211 1.211-0.543 1.211-1.211 1.211c-0.668 0-1.211-0.543-1.211-1.211zM7.74 10.702c-0.377 0-0.685 0.295-0.709 0.665 0.094-0.177 0.28-0.298 0.494-0.298 0.308 0 0.559 0.251 0.559 0.559 0 0.214-0.121 0.4-0.298 0.494 0.371-0.024 0.666-0.332 0.666-0.709 0-0.392-0.319-0.711-0.711-0.711zM5.447 11.779c0.613 0 1.112 0.499 1.112 1.112s-0.499 1.112-1.112 1.112-1.112-0.499-1.112-1.112c0-0.613 0.499-1.112 1.112-1.112zM5.475 13.502c0.325-0.015 0.584-0.283 0.584-0.611 0-0.338-0.275-0.612-0.612-0.612-0.328 0-0.596 0.26-0.611 0.584 0.081-0.139 0.232-0.233 0.404-0.233 0.258 0 0.468 0.21 0.468 0.468 0 0.172-0.094 0.323-0.233 0.404zM4.604 14.646c0 0.54-0.439 0.978-0.978 0.978s-0.978-0.439-0.978-0.978 0.439-0.978 0.978-0.978c0.539 0 0.978 0.439 0.978 0.978zM3.686 15.12c0.236-0.030 0.418-0.231 0.418-0.474 0-0.264-0.214-0.478-0.478-0.478-0.243 0-0.445 0.183-0.474 0.419 0.069-0.102 0.186-0.169 0.318-0.169 0.212 0 0.385 0.173 0.385 0.385 0 0.132-0.067 0.249-0.168 0.318zM19.623 6.744c0.092-0.596 0.18-1.16 0.156-1.749-0.781-1.040-0.983-2.759-0.445-3.877 0.347-0.721 0.958-1.118 1.72-1.118h0.011c0.693 0.003 1.239 0.335 1.581 0.958 0.481 0.88 0.449 2.144 0.132 2.966 0.573 0.023 1.592 0.17 2.985 1.112 3.538 2.391 2.79 3.7 1.659 5.68l-0.013 0.022c-1.106 1.935-1.149 2.011-0.76 6.072 0.203 2.119-0.328 4.047-1.459 5.291-0.68 0.749-1.532 1.178-2.336 1.178h-0c-0.136 0-0.27-0.012-0.4-0.036-0.88-0.163-1.594-0.66-2.063-1.44-0.683-1.134-0.762-2.709-0.222-4.433 0.424-1.354 0.606-2.353 0.63-3.168-0.001-0.565-0.058-1.044-0.15-1.49-0.128-0.527-0.322-1.007-0.537-1.535-0.105-0.258-0.214-0.526-0.321-0.815-0.515-1.385-0.338-2.521-0.168-3.619zM19.785 1.335c-0.127 0.263-0.204 0.57-0.235 0.895 0.030-0.146 0.068-0.284 0.115-0.411 0.144-0.387 0.433-0.849 0.997-0.849h0.006c0.4 0.002 0.703 0.243 0.901 0.714 0.353 0.837 0.273 2.21-0.031 2.833-0.027 0.056-0.029 0.128-0.004 0.186s0.072 0.095 0.124 0.095l0.095-0c0.331 0 1.107 0 2.265 1.017 1.153 1.012 1.707 1.812 1.794 2.594 0.081 0.727-0.241 1.459-0.648 2.385l-0.010 0.022c-0.864 1.963-0.916 2.081-0.613 6.18 0.144 1.949-0.225 3.712-1.013 4.837-0.312 0.445-0.672 0.758-1.035 0.909 0.017 0.004 0.034 0.008 0.052 0.011 0.1 0.019 0.204 0.028 0.31 0.028h0c0.664 0 1.381-0.37 1.966-1.014 1.035-1.139 1.521-2.928 1.331-4.907-0.405-4.219-0.335-4.34 0.823-6.367l0.013-0.022c0.536-0.938 0.96-1.68 0.855-2.403-0.114-0.782-0.841-1.589-2.359-2.615-1.524-1.031-2.543-1.031-2.977-1.031l-0.127 0c-0.091 0-0.175-0.050-0.219-0.13s-0.041-0.177 0.008-0.254c0.395-0.623 0.498-1.999 0.040-2.838-0.252-0.461-0.637-0.696-1.144-0.698h-0.008c-0.717 0-1.086 0.454-1.27 0.835zM23.419 2.692c0-0.668 0.543-1.211 1.211-1.211s1.211 0.543 1.211 1.211-0.543 1.211-1.211 1.211c-0.668 0-1.211-0.543-1.211-1.211zM24.63 1.981c-0.369 0-0.673 0.282-0.708 0.642 0.096-0.183 0.289-0.309 0.51-0.309 0.317 0 0.576 0.258 0.576 0.576 0 0.221-0.125 0.413-0.309 0.51 0.36-0.035 0.642-0.339 0.642-0.708 0-0.392-0.319-0.711-0.711-0.711zM26.923 5.282c-0.613 0-1.112-0.499-1.112-1.112s0.499-1.112 1.112-1.112 1.112 0.499 1.112 1.112c0 0.613-0.499 1.112-1.112 1.112zM26.923 3.558c-0.324 0-0.589 0.253-0.61 0.572 0.083-0.142 0.236-0.238 0.412-0.238 0.263 0 0.477 0.214 0.477 0.477 0 0.176-0.096 0.33-0.238 0.412 0.319-0.021 0.572-0.286 0.572-0.61 0-0.338-0.275-0.612-0.612-0.612zM27.766 5.925c0-0.539 0.439-0.978 0.978-0.978s0.978 0.439 0.978 0.978-0.439 0.978-0.978 0.978c-0.539 0-0.978-0.439-0.978-0.978zM28.744 5.447c-0.246 0-0.45 0.188-0.476 0.427 0.068-0.101 0.184-0.167 0.314-0.167 0.209 0 0.379 0.17 0.379 0.379 0 0.13-0.066 0.246-0.167 0.314 0.24-0.026 0.427-0.229 0.427-0.476 0-0.264-0.214-0.478-0.478-0.478zM6.155 7.942c-2.015-0.258-3.498-1.47-4.177-3.414-0.26-0.746-0.384-1.586-0.359-2.429 0-0.002 0-0.003 0-0.004 0-0.005 0.001-0.010 0.002-0.015 0.001-0.010 0.003-0.020 0.005-0.030 0.001-0.005 0.002-0.010 0.004-0.015 0.003-0.011 0.007-0.022 0.012-0.032 0.001-0.003 0.002-0.005 0.003-0.008 0-0.001 0.001-0.002 0.002-0.003 0.007-0.013 0.015-0.026 0.024-0.038 0.003-0.004 0.006-0.007 0.009-0.010 0.007-0.008 0.014-0.015 0.021-0.022 0.004-0.004 0.009-0.007 0.013-0.011 0.007-0.006 0.015-0.011 0.023-0.016 0.004-0.003 0.009-0.006 0.014-0.008 0.010-0.005 0.021-0.010 0.032-0.014 0.003-0.001 0.005-0.002 0.008-0.003 0-0 0-0 0-0 0.014-0.004 0.028-0.007 0.042-0.009 0.004-0.001 0.009-0.001 0.014-0.001 0.010-0.001 0.021-0.001 0.031-0.001 0.005 0 0.010 0.001 0.016 0.001 0.010 0.001 0.021 0.003 0.031 0.005 0.004 0.001 0.009 0.002 0.013 0.003 0.015 0.004 0.029 0.010 0.042 0.016 0 0 0.001 0 0.001 0 0.624 0.313 2.481 0.513 5.082 0.216 0.973-0.11 1.957-0.282 2.924-0.511 0.543-0.128 1.065-0.21 1.554-0.244 0.049-0.021 0.105-0.027 0.16-0.012 0.002 0.001 0.004 0.001 0.006 0.002 1.542-0.077 2.783 0.316 3.689 1.169 1.112 1.047 1.684 2.769 1.704 5.116 0.059 0.086 0.117 0.173 0.174 0.26 0.388 0.597 0.762 1.277 1.176 2.14 0.060 0.125 0.007 0.274-0.117 0.334-0.035 0.017-0.072 0.025-0.108 0.025-0.093 0-0.183-0.052-0.226-0.142-0.395-0.824-0.751-1.475-1.119-2.045-1.202-0.856-3.102-1.562-7.956-0.433-0.987 0.229-1.911 0.293-2.747 0.188-0.002-0-0.004-0.001-0.007-0.001-0.005-0.001-0.011-0.001-0.016-0.002zM4.213 5.034c-0.543 0-1.082-0.048-1.561-0.174 0.050 0.109 0.104 0.214 0.161 0.317 0.404 0.079 0.874 0.119 1.4 0.119 1.554 0 3.126-0.34 3.426-0.408l0.008-0.002 0.009 0c0.133 0.003 0.269 0.004 0.406 0.004 0.355 0 0.724-0.008 1.098-0.025 0.264-0.011 0.523-0.017 0.771-0.017 0.083 0 0.165 0.001 0.246 0.002l0.008 0c0.727 0.013 1.385 0.077 1.996 0.193 0.23-0.053 0.448-0.095 0.652-0.126-0.786-0.245-1.66-0.375-2.646-0.395-0.001 0-0.003 0-0.004 0s-0.004-0.001-0.006-0.001c-0.321-0.006-0.661 0-1.012 0.018-0.524 0.027-1.031 0.035-1.508 0.024-0.266 0.069-1.869 0.47-3.441 0.47zM15.922 7.107c0.085 0.033 0.168 0.067 0.248 0.102-0.413-0.504-0.849-0.924-1.319-1.274-0.28-0.209-0.58-0.395-0.89-0.556-1.045-0.172-3.307 0.502-6.103 1.795 2.455-0.963 4.48-1.509 5.62-1.509 0.134 0 0.256 0.008 0.364 0.023l0.010 0.001 0.009 0.004c0.31 0.137 0.607 0.294 0.882 0.468 0.42 0.266 0.808 0.576 1.18 0.946zM15.055 2.866c-0.556-0.524-1.263-0.852-2.111-0.981 0.955 0.59 1.502 1.389 1.81 2.036 0.356 0.749 0.459 1.417 0.487 1.681 0.476 0.366 0.918 0.8 1.337 1.314-0.114-1.843-0.625-3.204-1.523-4.050zM10.103 2.074c-0.812 0.192-1.635 0.343-2.453 0.454 0.705 0.566 1.917 1.189 2.589 1.496 1.529 0.036 2.811 0.327 3.917 0.892 0.174 0.089 0.345 0.186 0.512 0.289-0.065-0.293-0.177-0.678-0.373-1.086-0.541-1.125-1.433-1.892-2.652-2.282-0.481 0.029-0.999 0.109-1.539 0.236zM6.994 2.609c-1.706 0.186-3.297 0.173-4.348-0.016 0.715 0.643 2.088 1.403 4.984 1.472 0.475 0.011 0.983 0.003 1.508-0.023h0.001c-0.716-0.374-1.651-0.917-2.145-1.432zM5.804 4.413c-2.058-0.312-3.095-1.035-3.67-1.615 0.025 0.342 0.077 0.678 0.154 1.001 0.73 0.333 1.746 0.552 3.096 0.666 0.143-0.016 0.284-0.033 0.42-0.052zM30.022 27.696c0.26 0.746 0.384 1.586 0.359 2.429-0 0.001-0 0.003-0.001 0.004-0 0.005-0.001 0.010-0.002 0.015-0.001 0.010-0.003 0.021-0.005 0.031-0.001 0.005-0.002 0.010-0.004 0.015-0.003 0.011-0.008 0.022-0.013 0.033-0.001 0.002-0.002 0.005-0.003 0.007-0 0.001-0.001 0.001-0.001 0.002-0.007 0.013-0.015 0.026-0.024 0.038-0.003 0.003-0.005 0.006-0.008 0.009-0.007 0.008-0.014 0.016-0.023 0.024-0.004 0.004-0.008 0.007-0.012 0.010-0.008 0.006-0.016 0.012-0.025 0.017-0.004 0.002-0.008 0.005-0.012 0.007-0.012 0.006-0.024 0.012-0.037 0.016-0.001 0-0.002 0.001-0.003 0.001s-0.001 0-0.001 0c-0.014 0.005-0.028 0.008-0.043 0.010-0.004 0-0.008 0-0.012 0.001-0.008 0.001-0.015 0.002-0.023 0.002-0.003 0-0.005-0.001-0.007-0.001-0.012-0-0.024-0.002-0.035-0.004-0.006-0.001-0.012-0.002-0.017-0.003-0.013-0.003-0.025-0.008-0.037-0.013-0.004-0.002-0.009-0.003-0.014-0.005-0-0-0.001-0-0.001-0.001-0.624-0.312-2.481-0.513-5.082-0.216-0.973 0.11-1.956 0.282-2.924 0.511-0.543 0.128-1.064 0.21-1.553 0.244-0.030 0.013-0.063 0.020-0.097 0.020-0.021 0-0.043-0.003-0.065-0.009-0.002-0-0.004-0.001-0.006-0.002-0.127 0.006-0.252 0.010-0.374 0.010-1.37 0-2.483-0.396-3.315-1.18-1.112-1.047-1.684-2.769-1.704-5.116-0.059-0.086-0.118-0.173-0.174-0.26-0.388-0.597-0.762-1.277-1.176-2.14-0.060-0.124-0.007-0.274 0.117-0.334s0.274-0.007 0.334 0.117c0.395 0.824 0.751 1.476 1.119 2.045 1.202 0.856 3.102 1.562 7.956 0.433 0.986-0.229 1.911-0.293 2.746-0.188 0.002 0 0.004 0.001 0.006 0.001 0.006 0.001 0.012 0.001 0.018 0.002 2.015 0.258 3.497 1.47 4.176 3.414zM25.833 24.785c-2.786 1.41-5.113 2.285-6.665 2.521 0.785 0.244 1.659 0.375 2.644 0.395 0.005-0 0.010 0 0.014 0 0.321 0.006 0.661-0 1.010-0.018 0.524-0.027 1.031-0.035 1.508-0.025 0.358-0.093 3.135-0.785 5.002-0.296-0.672-1.449-1.901-2.355-3.514-2.577zM23.189 24.953c-3.921 0.912-6.014 0.653-7.359 0.061 0.413 0.504 0.849 0.924 1.319 1.274 0.281 0.209 0.58 0.395 0.89 0.556 1.127 0.185 3.67-0.613 6.772-2.111-0.514 0.015-1.056 0.089-1.622 0.221zM18.696 30.268c0.117 0.027 0.237 0.050 0.36 0.069-0.954-0.59-1.502-1.389-1.809-2.036-0.356-0.749-0.459-1.417-0.487-1.681-0.476-0.366-0.918-0.8-1.337-1.314 0.014 0.217 0.033 0.428 0.058 0.631 0.373 0.437 0.76 0.802 1.184 1.116l0.019 0.014 0.003 0.023c0.024 0.22 0.115 0.801 0.437 1.451 0.248 0.501 0.722 1.203 1.573 1.725zM23.911 29.759c0.147-0.022 0.293-0.044 0.439-0.064-0.705-0.566-1.917-1.189-2.589-1.496-1.529-0.036-2.811-0.327-3.917-0.892-0.174-0.089-0.345-0.186-0.512-0.289 0.031 0.143 0.074 0.307 0.133 0.485 0.12 0.066 0.242 0.13 0.365 0.188 1.023 0.483 2.21 0.733 3.628 0.763l0.012 0 0.011 0.005c0.727 0.308 1.799 0.832 2.426 1.297zM28.894 29.563c0.162 0.019 0.317 0.041 0.46 0.067-0.715-0.643-2.088-1.403-4.984-1.472-0.475-0.011-0.983-0.003-1.508 0.024h-0.001c0.102 0.054 0.21 0.111 0.319 0.171 0.234-0.008 0.464-0.012 0.687-0.012 0.135 0 0.269 0.001 0.399 0.004 2.101 0.045 3.657 0.455 4.627 1.218zM26.195 27.81c2.058 0.312 3.096 1.035 3.67 1.615-0.037-0.508-0.133-1.002-0.282-1.46-0.926-0.375-2.295-0.306-3.387-0.155z"></path>
</svg>
