<!-- Generated by IcoMoon.io -->
<svg version="1.1" xmlns="http://www.w3.org/2000/svg" width="32" height="32" viewBox="0 0 32 32">
<path d="M24.641 0.639c-3.711 0-6.72 3.009-6.72 6.72s3.009 6.72 6.72 6.72 6.72-3.009 6.72-6.72c-0.005-3.709-3.011-6.715-6.72-6.72zM19.841 7.359c-0.001-2.649 2.145-4.797 4.794-4.8 0.942-0.001 1.865 0.276 2.651 0.797l-6.649 6.649c-0.52-0.785-0.797-1.705-0.796-2.646zM24.641 12.159c-0.941 0.001-1.861-0.276-2.645-0.797l6.647-6.647c1.462 2.209 0.858 5.185-1.352 6.647-0.786 0.521-1.707 0.799-2.65 0.797zM20.387 14.911c-0.933-0.393-1.957-0.512-2.955-0.344 0.169-0.998 0.049-2.022-0.344-2.955-1.127-2.721-4.247-4.014-6.969-2.886-1.307 0.541-2.345 1.58-2.886 2.886-0.393 0.932-0.513 1.957-0.344 2.955-0.998-0.169-2.022-0.049-2.955 0.344-2.724 1.127-4.016 4.247-2.889 6.97 0.541 1.308 1.58 2.345 2.886 2.886 0.657 0.275 1.362 0.418 2.075 0.42 0.295 0 0.59-0.026 0.881-0.076-0.169 0.997-0.050 2.024 0.344 2.956 1.128 2.721 4.247 4.014 6.969 2.886 1.308-0.541 2.345-1.58 2.886-2.886 0.392-0.933 0.512-1.957 0.344-2.956 0.291 0.050 0.585 0.076 0.881 0.076 0.712-0.003 1.418-0.144 2.075-0.42 2.721-1.128 4.014-4.247 2.886-6.969-0.541-1.308-1.579-2.346-2.886-2.887zM15.626 20.744c-0.24 0.24-0.375 0.566-0.375 0.905 0 0.707-0.572 1.28-1.28 1.28-0.34 0-0.665 0.135-0.905 0.375-0.5 0.5-1.31 0.5-1.81 0-0.24-0.24-0.565-0.375-0.905-0.375-0.707 0-1.28-0.573-1.28-1.28 0-0.34-0.135-0.665-0.375-0.905-0.5-0.5-0.5-1.31 0-1.81 0.24-0.24 0.375-0.566 0.375-0.905 0-0.707 0.572-1.28 1.28-1.28 0.34 0 0.665-0.135 0.905-0.375 0.5-0.5 1.31-0.5 1.81 0 0.24 0.24 0.565 0.375 0.905 0.375 0.707 0 1.28 0.573 1.28 1.28 0 0.34 0.135 0.665 0.375 0.905 0.5 0.5 0.5 1.311 0 1.81zM12.161 18.879c0.53 0 0.96 0.43 0.96 0.96s-0.43 0.96-0.96 0.96-0.96-0.43-0.96-0.96 0.429-0.96 0.96-0.96z"></path>
</svg>
