<!-- Generated by IcoMoon.io -->
<svg version="1.1" xmlns="http://www.w3.org/2000/svg" width="32" height="32" viewBox="0 0 32 32">
<path d="M4.507 16.003v0.719c1.213-0.379 2.596-0.681 4.173-0.872v-1.891c-1.585-0.259-2.777-1.465-2.777-4.393 0-3.353 1.562-7.693 3.49-7.693s3.49 4.34 3.49 7.693c0 2.928-1.192 4.134-2.777 4.393v1.753c0.118-0.009 0.237-0.017 0.357-0.024 1.143-0.070 2.279-0.061 3.409 0.024v-1.383c-0.476-0.075-0.901-0.275-1.228-0.644 0.724-0.809 1.263-2.087 1.263-4.12-0.009-1.049-0.129-2.085-0.361-3.108 0.249-0.233 0.517-0.373 0.796-0.373 1.315 0 2.381 2.96 2.381 5.247 0 2.008-0.822 2.828-1.911 2.999v1.471c1 0.115 1.994 0.291 2.983 0.528 5.932 1.41 10.312 4.661 12.493 6.586-0.656 1.316-1.473 2.524-2.454 3.62-0.051 0.056-0.107 0.106-0.169 0.15-0.062 0.043-0.128 0.078-0.198 0.107s-0.143 0.048-0.217 0.060c-0.075 0.012-0.15 0.015-0.225 0.009s-0.149-0.020-0.221-0.042c-0.072-0.023-0.141-0.053-0.206-0.091s-0.125-0.084-0.18-0.135c-0.054-0.052-0.103-0.109-0.145-0.172-2.384-3.634-5.647-5.466-7.692-6.316-0.409-0.17-0.731 0.354-0.413 0.66 2.891 2.775 4.426 5.987 5.226 8.338 0.039 0.11 0.058 0.223 0.055 0.34-0.002 0.116-0.025 0.229-0.068 0.337s-0.104 0.205-0.183 0.292c-0.078 0.086-0.17 0.156-0.274 0.209-0.26 0.13-0.523 0.252-0.79 0.367-0.266 0.116-0.536 0.224-0.807 0.325-0.273 0.101-0.547 0.196-0.824 0.282s-0.557 0.166-0.838 0.237c-0.281 0.072-0.565 0.136-0.849 0.192s-0.57 0.106-0.858 0.147c-0.288 0.042-0.576 0.075-0.865 0.102-0.29 0.026-0.579 0.044-0.869 0.054-0.291 0.011-0.58 0.014-0.871 0.009s-0.58-0.017-0.87-0.037c-0.29-0.021-0.579-0.049-0.867-0.084-0.289-0.035-0.575-0.078-0.861-0.129-0.287-0.051-0.57-0.109-0.853-0.174-0.283-0.067-0.564-0.14-0.843-0.22-0.279-0.082-0.555-0.17-0.829-0.265s-0.546-0.199-0.814-0.309c-0.269-0.109-0.535-0.226-0.797-0.35s-0.522-0.256-0.777-0.393c-0.256-0.138-0.508-0.283-0.756-0.435-0.248-0.151-0.491-0.309-0.731-0.473s-0.474-0.334-0.706-0.511c-0.23-0.177-0.455-0.359-0.677-0.548-0.22-0.189-0.436-0.384-0.647-0.583-0.21-0.2-0.415-0.406-0.615-0.617s-0.393-0.427-0.581-0.649c-0.188-0.221-0.37-0.448-0.546-0.679s-0.346-0.466-0.509-0.707c-0.164-0.24-0.321-0.484-0.471-0.733s-0.295-0.5-0.431-0.756c-0.137-0.256-0.267-0.516-0.391-0.779-0.123-0.263-0.239-0.529-0.348-0.798s-0.211-0.542-0.306-0.816c-0.367-1.070 0.104-2.258 1.089-2.82 0.65-0.371 1.38-0.72 2.198-1.033v-1.093c-1.271-0.2-2.229-1.157-2.229-3.498 0-2.668 1.244-6.122 2.778-6.122 0.414 0 0.806 0.258 1.159 0.679-0.153 0.826-0.232 1.659-0.239 2.499 0 2.393 0.744 3.746 1.664 4.51-0.339 1.218-1.102 1.778-2.036 1.928zM24.805 3.248c0.057 0.060 0.105 0.126 0.145 0.198 0.041 0.072 0.071 0.148 0.091 0.228s0.032 0.161 0.031 0.243c0.001 0.082-0.010 0.164-0.031 0.243-0.021 0.080-0.051 0.156-0.091 0.228-0.040 0.072-0.088 0.138-0.145 0.197s-0.12 0.111-0.19 0.155c-0.085 0.054-0.162 0.119-0.227 0.197s-0.117 0.162-0.156 0.255-0.062 0.19-0.071 0.292c-0.008 0.1-0.001 0.2 0.022 0.299 0.018 0.080 0.026 0.162 0.024 0.244-0.003 0.082-0.015 0.164-0.039 0.243-0.023 0.079-0.055 0.155-0.097 0.225-0.042 0.071-0.092 0.136-0.151 0.194s-0.123 0.108-0.195 0.15-0.146 0.073-0.225 0.096c-0.079 0.023-0.161 0.035-0.243 0.038s-0.164-0.007-0.244-0.026c-0.099-0.022-0.199-0.030-0.299-0.021-0.101 0.008-0.199 0.032-0.293 0.070-0.093 0.039-0.179 0.090-0.256 0.156s-0.144 0.141-0.197 0.226c-0.045 0.070-0.096 0.133-0.157 0.189s-0.126 0.105-0.198 0.145c-0.072 0.040-0.149 0.070-0.228 0.091-0.080 0.020-0.162 0.031-0.244 0.031s-0.164-0.011-0.244-0.031c-0.080-0.021-0.156-0.052-0.228-0.091s-0.139-0.088-0.198-0.145c-0.061-0.056-0.113-0.119-0.157-0.189-0.054-0.085-0.12-0.161-0.198-0.226s-0.163-0.117-0.257-0.156c-0.093-0.039-0.19-0.062-0.292-0.070s-0.2-0.001-0.3 0.021c-0.080 0.019-0.162 0.028-0.244 0.025s-0.164-0.014-0.243-0.037c-0.079-0.023-0.155-0.055-0.226-0.096s-0.136-0.092-0.195-0.15c-0.057-0.058-0.108-0.123-0.151-0.194-0.042-0.071-0.074-0.146-0.097-0.225s-0.036-0.16-0.038-0.242c-0.003-0.083 0.005-0.165 0.024-0.245 0.023-0.098 0.030-0.198 0.021-0.299-0.008-0.101-0.032-0.197-0.070-0.292-0.039-0.093-0.091-0.179-0.157-0.255-0.065-0.077-0.141-0.143-0.227-0.196-0.070-0.044-0.133-0.095-0.19-0.156-0.057-0.059-0.105-0.125-0.145-0.197s-0.071-0.148-0.091-0.227c-0.021-0.080-0.031-0.162-0.031-0.244s0.010-0.164 0.031-0.243c0.021-0.080 0.052-0.156 0.091-0.228s0.088-0.138 0.145-0.198c0.057-0.059 0.121-0.111 0.19-0.155 0.086-0.054 0.162-0.119 0.227-0.195 0.066-0.077 0.118-0.163 0.157-0.256s0.062-0.19 0.070-0.291c0.009-0.101 0.002-0.2-0.021-0.3-0.019-0.080-0.027-0.162-0.024-0.244s0.015-0.164 0.038-0.243c0.023-0.079 0.055-0.154 0.097-0.225 0.043-0.071 0.093-0.136 0.151-0.194 0.059-0.058 0.124-0.108 0.195-0.15s0.147-0.074 0.226-0.097c0.079-0.023 0.161-0.035 0.243-0.037s0.164 0.006 0.244 0.025c0.099 0.023 0.199 0.030 0.3 0.021s0.198-0.032 0.292-0.071c0.094-0.039 0.18-0.090 0.257-0.156 0.077-0.065 0.144-0.14 0.198-0.226 0.043-0.069 0.096-0.133 0.157-0.189 0.059-0.056 0.126-0.105 0.198-0.145s0.148-0.070 0.228-0.090c0.081-0.021 0.162-0.031 0.244-0.031s0.164 0.010 0.244 0.031c0.079 0.020 0.156 0.051 0.228 0.090s0.138 0.088 0.198 0.145c0.060 0.057 0.112 0.12 0.157 0.189 0.054 0.086 0.119 0.162 0.197 0.226 0.077 0.066 0.163 0.117 0.256 0.156s0.192 0.062 0.293 0.071c0.1 0.009 0.2 0.002 0.299-0.021 0.081-0.019 0.162-0.027 0.244-0.025s0.163 0.014 0.242 0.037c0.079 0.023 0.155 0.055 0.226 0.097 0.071 0.042 0.136 0.091 0.195 0.15s0.109 0.123 0.151 0.194c0.042 0.071 0.074 0.146 0.097 0.225s0.036 0.161 0.039 0.243c0.002 0.082-0.006 0.164-0.024 0.244-0.023 0.099-0.030 0.199-0.022 0.3s0.033 0.198 0.071 0.291 0.090 0.179 0.156 0.256c0.066 0.076 0.142 0.142 0.227 0.195 0.070 0.044 0.134 0.095 0.19 0.155zM21.522 5.838c0.126-0.025 0.249-0.061 0.368-0.111 0.119-0.048 0.232-0.109 0.339-0.181s0.206-0.152 0.298-0.243c0.091-0.091 0.173-0.189 0.245-0.297 0.071-0.107 0.132-0.22 0.182-0.339 0.050-0.118 0.087-0.241 0.112-0.367 0.026-0.127 0.039-0.254 0.039-0.383s-0.013-0.256-0.038-0.382c-0.025-0.126-0.061-0.248-0.111-0.367s-0.109-0.231-0.181-0.337c-0.072-0.107-0.152-0.206-0.243-0.297-0.090-0.091-0.189-0.173-0.297-0.244s-0.219-0.132-0.337-0.181c-0.119-0.050-0.241-0.086-0.367-0.112s-0.253-0.038-0.382-0.038c-0.128 0-0.255 0.012-0.381 0.037s-0.249 0.061-0.367 0.111c-0.119 0.049-0.232 0.109-0.338 0.18-0.107 0.072-0.206 0.153-0.298 0.243-0.090 0.090-0.172 0.189-0.244 0.296-0.071 0.107-0.132 0.219-0.181 0.338s-0.087 0.24-0.113 0.366c-0.025 0.126-0.038 0.253-0.038 0.382-0.001 0.128 0.011 0.255 0.036 0.381s0.061 0.249 0.11 0.368c0.050 0.118 0.109 0.231 0.181 0.338 0.070 0.107 0.152 0.206 0.242 0.298 0.090 0.090 0.188 0.173 0.296 0.244 0.106 0.071 0.218 0.132 0.337 0.182 0.118 0.050 0.24 0.087 0.366 0.113s0.253 0.039 0.382 0.039c0.129 0.001 0.256-0.012 0.383-0.037zM19.43 15.205c3.739-2.21 8.266-2.684 10.632-2.769 0.112-0.005 0.224 0 0.335 0.017 0.111 0.016 0.22 0.043 0.327 0.079s0.207 0.083 0.306 0.139c0.097 0.056 0.188 0.121 0.274 0.194 0.085 0.073 0.163 0.154 0.233 0.242s0.131 0.182 0.183 0.281c0.053 0.099 0.095 0.203 0.128 0.311 0.034 0.107 0.056 0.217 0.069 0.328 0.057 0.553 0.084 1.107 0.084 1.662-0.002 1.987-0.359 3.908-1.074 5.762-2.152-1.838-6.151-4.696-11.497-6.245z"></path>
</svg>
