<?xml version="1.0" encoding="utf-8"?>
<svg version="1.1" viewBox="0 0 1200 1200" xmlns="http://www.w3.org/2000/svg" width="150pt" height="150pt">
  <path fill="#000000" d="M 237.321 1035.95 C 242.125 1042.16 246.856 1048.42 251.636 1054.66 C 257.022 1061.68 263.379 1066.66 272.939 1066.38 C 276.542 1066.28 280.327 1067.35 283.809 1068.54 C 291.452 1071.16 295.637 1077.36 294.703 1083.9 C 293.732 1090.82 288.625 1094.69 279.927 1095.31 C 270.876 1095.95 262.19 1094.32 253.965 1090.69 C 247.972 1088.05 240.79 1088.07 235.829 1083.22 C 227.252 1074.85 218.759 1066.45 212.233 1056.21 C 207.659 1049.02 202.212 1042.39 197.165 1035.5 C 196.911 1040.77 196.607 1045.97 198.67 1049.95 C 202.952 1058.18 205.572 1068.09 217.158 1070.3 C 223.078 1071.41 227.87 1075.69 231.413 1080.68 C 236.969 1088.52 232.747 1099.01 223.272 1099.79 C 197.833 1101.9 188.091 1098.21 177.015 1076.76 C 169.311 1061.85 163.233 1046.25 159.024 1029.95 C 158.551 1028.15 158.623 1025.98 157.398 1024.88 C 150.993 1034.22 155.773 1045.78 151.005 1056.14 C 148.033 1052.68 149.149 1048.16 145 1045.52 C 145.485 1052.77 141.724 1058.06 140.293 1063.98 C 138.764 1070.22 131.983 1071.57 129.678 1077.08 C 128.464 1079.98 127.3 1075.16 125.529 1075.83 C 123.927 1080.2 120.142 1082.14 116.976 1084.98 C 113.021 1088.54 107.61 1088.17 104.553 1091.71 C 100.659 1096.21 95.236 1096.82 90.372 1098.16 C 80.084 1101.06 70.112 1096.45 59.958 1095.31 C 59.145 1095.23 58.393 1094.98 58.162 1093.98 C 58.041 1093.41 51.005 1086.54 50.519 1086.39 C 44.017 1084.39 40.22 1076.06 42.707 1069.69 C 43.568 1067.47 44.357 1064.99 44.284 1062.67 C 44.102 1056.67 46.771 1053.62 52.74 1053.68 C 56.67 1053.72 60.576 1053.71 64.507 1053.65 C 71.179 1053.56 76.772 1055.93 80.557 1061.42 C 83.396 1065.54 86.744 1065.59 90.784 1064.03 C 99.567 1060.62 105.245 1053.91 109.539 1045.9 C 120.615 1025.28 126.147 1003.29 126.026 979.796 C 125.844 944.42 125.82 909.032 125.953 873.645 C 126.002 860.713 127.773 847.841 133.827 836.304 C 142.877 819.004 154.293 803.282 168.353 789.634 C 170.706 787.353 173.4 785.291 176.263 783.714 C 193.344 774.275 211.129 766.62 230.612 763.77 C 237.745 762.726 245 762.399 252.109 761.21 C 275.292 757.303 298.464 753.421 321.805 750.352 C 350.617 746.555 345 751.626 364.144 727.994 C 367.735 723.554 372.575 721.054 377.937 718.98 C 387.824 715.146 398.027 710.051 402.504 700.37 C 407.162 690.277 412.051 680.22 416.273 669.928 C 419.548 661.948 420.956 652.998 430.115 648.958 C 430.928 648.588 431.401 647.378 431.971 646.528 C 437.818 637.698 442.986 628.568 445.376 618.078 C 446.383 613.618 448.361 609.488 450.678 605.548 C 456.731 595.228 456.731 594.268 448.858 585.118 C 445.631 581.388 445.619 577.288 446.577 572.928 C 446.905 571.408 447.681 569.958 449.562 571.328 C 455.725 575.788 462.555 579.798 460.759 589.338 C 459.861 594.198 460.844 598.078 466.133 600.368 C 470.016 602.048 472.078 606.048 473.898 609.788 C 475.79 613.678 477.355 617.738 479.114 621.708 C 481.007 625.988 484.78 628.258 488.625 626.048 C 500.623 619.138 514.344 614.458 522.169 601.618 C 524.632 597.588 527.398 593.288 532.42 592.288 C 536.132 591.548 539.226 590.378 541.579 587.098 C 541.664 593.888 539.25 600.288 533.864 602.938 C 526.366 606.638 521.308 611.128 518.821 619.258 C 517.656 623.048 514.441 626.198 512.197 629.678 C 511.178 631.248 510.304 632.898 509.382 634.508 C 508.557 635.978 508.436 637.208 510.329 637.978 C 516.928 640.688 520.41 647.018 525.602 651.368 C 530.418 655.388 532.42 660.728 530.346 666.958 C 527.737 674.845 529.654 681.542 534.968 687.608 C 536.86 689.779 538.401 692.266 540.257 694.486 C 542.101 696.706 542.586 699.46 540.912 701.353 C 534.749 708.389 533.949 718.155 527.616 725.3 C 519.997 733.902 508.448 735.588 499.798 727.957 C 498.367 726.683 497.712 724.294 494.655 724.366 C 493.757 729.522 493.32 734.751 495.395 739.543 C 498.573 746.882 495.128 753.458 493.915 760.312 C 493.854 760.64 492.968 760.809 492.629 760.979 C 490.494 759.851 492.01 757.437 490.639 756.175 C 489.741 757.886 489.062 759.645 487.946 761.076 C 486.478 762.932 488.007 765.177 486.854 767.069 C 485.131 767.676 484.379 763.854 481.783 766.475 C 476.955 771.376 473.036 770.527 469.834 764.667 C 469.045 763.236 468.608 761.61 467.929 760.106 C 464.593 752.548 464.059 744.214 461.378 735.952 C 459.898 741.253 462.288 746.567 458.976 751.917 C 457.253 748.569 455.894 745.9 454.511 743.194 C 452.534 744.044 453.796 747.198 450.751 747.125 C 449.719 743.874 448.858 740.331 446.408 737.832 C 443.496 748.872 447.912 756.94 456.489 764.012 C 459.303 766.341 462.979 767.64 465.066 770.745 C 468.948 776.556 475.863 776.556 480.897 780.026 C 482.353 777.963 481.14 776.726 480.752 775.428 C 480.364 774.081 479.272 772.431 480.849 771.522 C 482.317 770.672 483.457 772.274 484.452 773.269 C 485.908 774.724 487.315 776.253 488.613 777.854 C 494.06 784.612 494.351 787.523 490.457 794.572 C 489.984 795.421 489.572 795.542 488.589 795.384 C 484.537 794.705 483.894 794.996 485.095 798.684 C 486.708 803.634 482.135 808.923 481.298 808.826 C 475.839 808.183 477.416 812.259 477.222 814.358 C 476.809 819.114 477.379 823.687 476.324 828.722 C 474.48 837.517 472.648 845.839 466.546 853.604 C 463.61 846.422 463.392 839.677 464.726 832.664 C 465.357 829.365 466.873 825.483 462.421 823.457 C 459.425 822.086 456.331 820.848 453.153 819.987 C 450.29 819.223 447.985 819.781 449.283 823.711 C 450.011 825.956 452.085 828.418 446.953 828.03 C 444.115 827.824 444.006 830.651 444.588 833.21 C 445.534 837.432 446.42 841.702 446.869 846.009 C 447.135 848.411 446.565 851.226 443.217 848.205 C 442.064 847.162 441.155 846.07 439.59 847.392 C 438.255 848.533 437.236 849.903 438.231 851.699 C 440.985 856.721 444.479 861.016 449.707 863.697 C 451.515 860.421 448.033 857.765 449.647 855.096 C 452.134 854.137 452.595 858.129 455.118 857 C 455.955 853.155 452.934 850.11 452.425 845.73 C 458.054 848.654 458.879 853.822 461.184 858.019 C 462.409 857.012 462.336 852.706 465.114 855.811 C 467.334 858.311 468.996 861.246 465.915 865.08 C 465.285 865.861 464.678 866.66 464.088 867.47 C 551.757 866.253 636.75 859.967 689.236 839.902 C 748.899 817.123 755.145 769.145 638.831 672.965 C 612.944 651.524 597.499 630.262 590.559 609.58 C 586.229 596.635 585.169 584.161 586.909 572.193 C 566.049 564.78 552.229 552.053 552.229 537.698 C 552.229 514.884 587.019 496.298 629.649 496.298 C 633.698 496.298 637.676 496.479 641.545 496.806 C 651.705 489.68 662.987 482.993 675.173 476.772 C 729.082 449.329 801.977 430.635 870.28 423.729 C 873.28 403.952 907.269 387.03 955.685 378.713 C 965.157 394.731 974.342 410.135 982.513 424.668 C 989.852 437.65 1003.27 445.497 1018.16 445.497 C 1033.06 445.497 1046.44 437.65 1053.74 424.668 C 1062.24 409.592 1071.75 393.647 1081.59 377.014 C 1138.13 384.896 1178.05 404.132 1178.05 426.586 C 1178.05 456.127 1109.06 480.063 1024.06 480.063 C 973.873 480.063 929.288 471.746 901.196 458.84 C 830.144 462.526 749.445 481.04 692.171 510.218 C 691.303 510.687 690.436 511.122 689.57 511.591 C 700.451 518.715 707.033 527.826 707.033 537.734 C 707.033 560.55 672.252 579.134 629.657 579.134 C 627.742 579.134 625.86 579.099 623.981 579.025 C 623.294 585.136 623.908 591.356 626.04 597.756 C 630.777 611.856 642.493 627.332 662.741 644.073 C 816.452 771.231 796.882 838.92 702.514 874.933 C 641.374 898.268 543.072 904.393 445.046 905.008 C 444.87 905.431 444.686 905.851 444.491 906.266 C 440.099 915.681 436.702 925.398 436.375 935.952 C 436.156 942.2 434.664 948.242 433.014 954.222 C 431.34 960.264 430.455 966.378 430.794 972.614 C 431.704 989.853 429.338 1006.9 427.313 1023.91 C 426.196 1033.28 427.555 1041.9 429.945 1050.73 C 431.619 1056.98 435.198 1060.23 441.494 1060.96 C 445.607 1061.42 449.635 1062.44 453.286 1064.49 C 459.218 1067.81 462.263 1075.87 460.347 1082.83 C 458.466 1089.62 453.553 1091.02 447.354 1090.42 C 445.765 1090.27 444.09 1090.64 442.465 1090.84 C 428.489 1092.55 414.538 1092.72 400.635 1090.11 C 397.02 1089.43 393.732 1087.8 392.192 1084.42 C 386.126 1071.12 380.254 1057.74 374.528 1044.29 C 373.582 1042.1 373.631 1039.43 373.497 1036.96 C 372.927 1027.07 374.455 1016.53 371.532 1007.39 C 365.636 989.028 363.671 969.787 357.726 951.469 C 355.251 943.85 354.341 935.758 353.492 927.691 C 353.386 926.687 353.252 925.685 353.097 924.681 C 347.798 924.633 342.626 924.297 337.634 923.702 C 337.402 924.133 337.118 924.539 336.763 924.913 C 335.896 924.558 335.555 924.014 335.398 923.417 C 334.997 923.363 334.597 923.306 334.199 923.249 C 334.15 924.382 333.95 925.504 332.638 926.368 C 331.152 925.412 330.617 924.092 330.389 922.638 C 329.082 922.408 327.79 922.16 326.514 921.895 C 325.866 922.75 325.044 923.451 323.77 923.821 C 323.726 922.972 323.818 922.149 323.975 921.339 C 321.954 920.874 319.977 920.364 318.049 919.811 C 314.956 923.604 312.021 927.555 310.086 932.604 C 307.489 928.588 310.158 925.653 309.443 922.826 C 306.822 923.627 307.162 927.06 304.432 927.424 C 303.037 924.342 306.191 922.037 305.852 919.696 C 298.585 921.115 296.438 927.861 292.349 932.956 C 291.088 925.556 297.166 920.036 297.457 912.15 C 292.107 918.155 288.77 924.051 288.128 932.119 C 283.36 925.653 281.528 919.963 283.53 913.097 C 272.454 931.852 264.653 951.42 262.336 973.172 C 253.844 972.311 260.067 981.191 257.168 984.563 C 255.057 984.842 254.159 980.766 252.06 982.622 C 250.544 983.969 251.381 986.553 251.211 988.603 C 250.775 993.832 255.227 997.265 256.634 1002.66 C 253.128 1001.46 251.721 999.121 249.925 997.241 C 248.991 996.27 248.385 994.317 246.65 995.094 C 245.146 995.761 245.412 997.605 245.461 999 C 245.546 1001.45 245.837 1003.88 246.043 1006.44 C 241.227 1004.82 241.033 1005.09 241.518 1009.77 C 241.688 1011.4 243.605 1013.02 241.906 1014.78 C 238.849 1014.38 239.068 1010.18 236.01 1009.83 C 233.766 1014.95 238.704 1019.4 237.406 1025.39 C 235.756 1023.14 234.725 1021.75 233.366 1019.89 C 232.359 1026.23 233.73 1031.37 237.321 1035.95 Z M 448.676 787.353 C 446.759 789.076 449.149 791.345 447.245 791.854 C 445.498 792.315 444.551 790.532 444.2 789.343 C 443.035 785.327 438.619 784.951 436.132 783.119 C 428.914 777.83 426.488 770.636 423.976 763.005 C 423.564 761.719 422.715 760.567 421.768 758.759 C 418.093 767.251 420.228 773.802 425.711 779.698 C 433.597 788.166 442.513 795.518 451.054 803.294 C 454.026 805.987 457.047 808.644 460.043 811.313 C 460.565 810.852 461.087 810.403 461.608 809.942 C 458.503 801.935 450.714 796.597 448.676 787.353 Z M 463.828 631.048 C 463.61 634.788 466.17 639.048 460.104 640.388 C 459.206 640.588 458.636 641.838 459.243 642.988 C 460.698 645.768 472.563 649.358 475.293 647.768 C 478.544 645.878 481.031 643.968 476.106 640.838 C 471.969 638.208 471.047 633.668 471.593 629.308 C 472.369 623.018 468.523 619.978 464.35 616.908 C 463.974 616.628 463.173 616.478 462.834 616.688 C 460.808 617.928 462.215 619.628 462.409 621.288 C 461.075 624.658 464.047 627.508 463.828 631.048 Z M 438.971 864.122 C 438.413 863.988 437.879 863.515 437.467 863.078 C 435.671 861.161 433.912 859.475 431.255 861.817 C 428.758 864.025 431.528 865.454 432.312 867.705 C 436.654 867.699 440.997 867.683 445.34 867.657 C 444.827 865.908 442.929 865.122 438.971 864.122 Z M 470.222 809.129 C 468.79 801.329 461.05 795.942 459.74 789.476 C 458.066 781.069 454.329 775.028 449.368 769.059 C 452.413 784.514 459.776 797.653 470.222 809.129 Z M 447.439 712.405 C 441.822 714.516 437.37 720.812 437.285 726.853 C 437.273 727.472 437.285 728.625 437.357 728.625 C 445.777 729.219 438.668 736.716 442.368 739.094 C 445.109 730.638 447.414 721.722 447.439 712.405 Z M 465.078 696.525 C 464.156 699.982 462.458 703.476 464.168 707.673 C 467.759 706.327 467.99 703.088 468.742 700.297 C 471.107 691.551 474.213 689.124 483.93 689.452 C 472.345 683.471 468.074 685.218 465.078 696.525 Z M 1018.14 419.211 C 1012.75 419.211 1008.08 416.498 1005.41 411.798 C 957.895 327.587 882.476 220.238 896.136 129.623 C 906.405 61.288 961.473 20.144 1018.14 19.928 C 1074.76 20.144 1129.86 61.288 1140.13 129.623 C 1153.76 220.238 1078.31 327.587 1030.86 411.798 C 1028.19 416.498 1023.56 419.211 1018.14 419.211 Z M 1078.88 150.264 C 1078.88 116.64 1051.69 89.45 1018.14 89.45 C 984.581 89.45 957.389 116.64 957.389 150.264 C 957.389 183.893 984.581 211.012 1018.14 211.012 C 1051.69 211.012 1078.88 183.822 1078.88 150.264 Z" fill-opacity="1" fill-rule="nonzero" style=""/>
</svg>