<!-- Generated by IcoMoon.io -->
<svg version="1.1" xmlns="http://www.w3.org/2000/svg" width="32" height="32" viewBox="0 0 32 32">
<path d="M6.329 27.625c0.128 0.166 0.254 0.333 0.382 0.499 0.144 0.187 0.313 0.32 0.568 0.313 0.096-0.003 0.197 0.026 0.29 0.058 0.204 0.070 0.315 0.235 0.29 0.41-0.026 0.185-0.162 0.288-0.394 0.304-0.241 0.017-0.473-0.026-0.692-0.123-0.16-0.070-0.351-0.070-0.484-0.199-0.229-0.223-0.455-0.447-0.629-0.72-0.122-0.192-0.267-0.369-0.402-0.552-0.007 0.141-0.015 0.279 0.040 0.385 0.114 0.219 0.184 0.484 0.493 0.543 0.158 0.030 0.286 0.144 0.38 0.277 0.148 0.209 0.036 0.489-0.217 0.51-0.678 0.056-0.938-0.042-1.234-0.614-0.205-0.398-0.368-0.814-0.48-1.248-0.013-0.048-0.011-0.106-0.043-0.135-0.171 0.249-0.043 0.557-0.17 0.834-0.079-0.092-0.050-0.213-0.16-0.283 0.013 0.193-0.087 0.334-0.126 0.492-0.041 0.166-0.222 0.202-0.283 0.349-0.032 0.077-0.063-0.051-0.111-0.033-0.043 0.117-0.144 0.168-0.228 0.244-0.105 0.095-0.25 0.085-0.331 0.179-0.104 0.12-0.248 0.136-0.378 0.172-0.274 0.077-0.54-0.046-0.811-0.076-0.022-0.002-0.042-0.009-0.048-0.035-0.003-0.015-0.191-0.198-0.204-0.202-0.173-0.053-0.275-0.275-0.208-0.445 0.023-0.059 0.044-0.125 0.042-0.187-0.005-0.16 0.066-0.241 0.226-0.24 0.105 0.001 0.209 0.001 0.314-0.001 0.178-0.002 0.327 0.061 0.428 0.207 0.076 0.11 0.165 0.111 0.273 0.070 0.234-0.091 0.386-0.27 0.5-0.483 0.295-0.55 0.443-1.136 0.44-1.763-0.005-0.943-0.006-1.887-0.002-2.831 0.001-0.345 0.049-0.688 0.21-0.996 0.241-0.461 0.546-0.881 0.921-1.245 0.063-0.061 0.135-0.116 0.211-0.158 0.455-0.252 0.93-0.456 1.449-0.532 0.19-0.028 0.384-0.037 0.573-0.068 0.618-0.104 1.236-0.208 1.859-0.29 0.768-0.101 0.619 0.034 1.129-0.596 0.096-0.118 0.225-0.185 0.368-0.24 0.264-0.102 0.536-0.238 0.655-0.496 0.124-0.269 0.255-0.537 0.367-0.812 0.087-0.213 0.125-0.451 0.369-0.559 0.022-0.010 0.034-0.042 0.050-0.065 0.156-0.235 0.294-0.479 0.357-0.759 0.027-0.119 0.080-0.229 0.141-0.334 0.161-0.275 0.161-0.301-0.049-0.545-0.086-0.099-0.086-0.209-0.061-0.325 0.009-0.041 0.029-0.079 0.080-0.043 0.164 0.119 0.346 0.226 0.299 0.48-0.024 0.13 0.002 0.233 0.143 0.294 0.104 0.045 0.159 0.151 0.207 0.251 0.050 0.104 0.092 0.212 0.139 0.318 0.050 0.114 0.151 0.175 0.254 0.116 0.32-0.184 0.686-0.309 0.895-0.651 0.066-0.107 0.139-0.222 0.273-0.249 0.099-0.020 0.181-0.051 0.244-0.138 0.002 0.181-0.062 0.352-0.206 0.422-0.2 0.099-0.335 0.218-0.401 0.435-0.031 0.101-0.117 0.185-0.177 0.278-0.027 0.042-0.050 0.086-0.075 0.129-0.022 0.039-0.025 0.072 0.025 0.093 0.176 0.072 0.269 0.241 0.407 0.357 0.128 0.107 0.182 0.25 0.127 0.416-0.070 0.21-0.018 0.389 0.123 0.551 0.050 0.058 0.092 0.124 0.141 0.183s0.062 0.133 0.017 0.183c-0.164 0.188-0.186 0.448-0.355 0.639-0.203 0.229-0.511 0.274-0.742 0.071-0.038-0.034-0.056-0.098-0.137-0.096-0.024 0.137-0.036 0.277 0.020 0.405 0.085 0.196-0.007 0.371-0.039 0.554-0.002 0.009-0.025 0.013-0.034 0.018-0.057-0.030-0.017-0.094-0.053-0.128-0.024 0.046-0.042 0.093-0.072 0.131-0.039 0.049 0.002 0.109-0.029 0.16-0.046 0.016-0.066-0.086-0.135-0.016-0.129 0.131-0.233 0.108-0.319-0.048-0.021-0.038-0.033-0.082-0.051-0.122-0.089-0.202-0.103-0.424-0.175-0.644-0.039 0.141 0.024 0.283-0.064 0.426-0.046-0.089-0.082-0.16-0.119-0.233-0.053 0.023-0.019 0.107-0.1 0.105-0.028-0.087-0.050-0.181-0.116-0.248-0.078 0.294 0.040 0.51 0.269 0.698 0.075 0.062 0.173 0.097 0.229 0.18 0.104 0.155 0.288 0.155 0.422 0.247 0.039-0.055 0.006-0.088-0.004-0.123-0.010-0.036-0.039-0.080 0.003-0.104 0.039-0.023 0.070 0.020 0.096 0.047 0.039 0.039 0.076 0.080 0.111 0.122 0.145 0.18 0.153 0.258 0.049 0.446-0.013 0.023-0.024 0.026-0.050 0.022-0.108-0.018-0.125-0.010-0.093 0.088 0.043 0.132-0.079 0.273-0.101 0.27-0.146-0.017-0.104 0.092-0.109 0.148-0.011 0.127 0.004 0.249-0.024 0.383-0.049 0.235-0.098 0.456-0.261 0.664-0.078-0.192-0.084-0.371-0.049-0.558 0.017-0.088 0.057-0.192-0.061-0.246-0.080-0.037-0.162-0.070-0.247-0.093-0.076-0.020-0.138-0.006-0.103 0.099 0.019 0.060 0.075 0.126-0.062 0.115-0.076-0.006-0.079 0.070-0.063 0.138 0.025 0.113 0.049 0.226 0.061 0.341 0.007 0.064-0.008 0.139-0.097 0.059-0.031-0.028-0.055-0.057-0.097-0.022-0.036 0.030-0.063 0.067-0.036 0.115 0.073 0.134 0.167 0.248 0.306 0.32 0.048-0.087-0.045-0.158-0.002-0.229 0.066-0.026 0.079 0.081 0.146 0.051 0.022-0.103-0.058-0.184-0.072-0.301 0.15 0.078 0.172 0.216 0.234 0.328 0.033-0.027 0.031-0.142 0.105-0.059 0.059 0.067 0.104 0.145 0.021 0.247-0.017 0.021-0.033 0.042-0.049 0.064 2.338-0.032 4.604-0.2 6.004-0.735 1.591-0.607 1.758-1.887-1.344-4.452-0.69-0.572-1.102-1.139-1.287-1.69-0.115-0.345-0.144-0.678-0.097-0.997-0.556-0.198-0.925-0.537-0.925-0.92 0-0.608 0.928-1.104 2.065-1.104 0.108 0 0.214 0.005 0.317 0.014 0.271-0.19 0.572-0.368 0.897-0.534 1.438-0.732 3.381-1.23 5.203-1.414 0.080-0.527 0.986-0.979 2.277-1.2 0.253 0.427 0.498 0.838 0.715 1.225 0.196 0.346 0.554 0.555 0.951 0.555s0.754-0.209 0.949-0.555c0.227-0.402 0.48-0.827 0.743-1.271 1.508 0.21 2.572 0.723 2.572 1.322 0 0.788-1.84 1.426-4.106 1.426-1.338 0-2.527-0.222-3.276-0.566-1.895 0.098-4.047 0.592-5.574 1.37-0.023 0.012-0.046 0.024-0.069 0.037 0.29 0.19 0.466 0.433 0.466 0.697 0 0.608-0.927 1.104-2.063 1.104-0.051 0-0.101-0.001-0.151-0.003-0.018 0.163-0.002 0.329 0.055 0.499 0.126 0.376 0.439 0.789 0.979 1.235 4.099 3.391 3.577 5.196 1.061 6.156-1.63 0.622-4.252 0.786-6.866 0.802-0.005 0.011-0.010 0.022-0.015 0.034-0.117 0.251-0.208 0.51-0.216 0.792-0.006 0.167-0.046 0.328-0.090 0.487-0.045 0.161-0.068 0.324-0.059 0.49 0.024 0.46-0.039 0.914-0.093 1.368-0.030 0.25 0.006 0.48 0.070 0.715 0.045 0.167 0.14 0.253 0.308 0.273 0.11 0.012 0.217 0.039 0.314 0.094 0.158 0.089 0.239 0.303 0.188 0.489-0.050 0.181-0.181 0.218-0.346 0.202-0.042-0.004-0.087 0.006-0.13 0.011-0.373 0.046-0.745 0.050-1.115-0.019-0.096-0.018-0.184-0.062-0.225-0.152-0.162-0.355-0.318-0.711-0.471-1.070-0.025-0.058-0.024-0.13-0.027-0.195-0.015-0.264 0.026-0.545-0.052-0.789-0.157-0.49-0.21-1.003-0.368-1.491-0.066-0.203-0.090-0.419-0.113-0.634-0.003-0.027-0.006-0.053-0.011-0.080-0.141-0.001-0.279-0.010-0.412-0.026-0.006 0.012-0.014 0.022-0.023 0.032-0.023-0.009-0.032-0.024-0.036-0.040-0.011-0.001-0.021-0.003-0.032-0.004-0.001 0.030-0.007 0.060-0.042 0.083-0.040-0.026-0.054-0.061-0.060-0.099-0.035-0.006-0.069-0.013-0.103-0.020-0.017 0.023-0.039 0.041-0.073 0.051-0.001-0.023 0.001-0.045 0.005-0.066-0.054-0.012-0.107-0.026-0.158-0.041-0.082 0.101-0.161 0.206-0.212 0.341-0.069-0.107 0.002-0.185-0.017-0.261-0.070 0.021-0.061 0.113-0.134 0.123-0.037-0.082 0.047-0.144 0.038-0.206-0.194 0.038-0.251 0.218-0.36 0.354-0.034-0.197 0.128-0.345 0.136-0.555-0.143 0.16-0.232 0.317-0.249 0.532-0.127-0.172-0.176-0.324-0.123-0.507-0.295 0.5-0.503 1.022-0.565 1.602-0.226-0.023-0.061 0.214-0.138 0.304-0.056 0.007-0.080-0.101-0.136-0.052-0.040 0.036-0.018 0.105-0.023 0.16-0.012 0.139 0.107 0.231 0.145 0.375-0.093-0.032-0.131-0.094-0.179-0.145-0.025-0.026-0.041-0.078-0.087-0.057-0.040 0.018-0.033 0.067-0.032 0.104 0.002 0.065 0.010 0.13 0.016 0.198-0.128-0.043-0.134-0.036-0.121 0.089 0.005 0.043 0.056 0.087 0.010 0.134-0.082-0.011-0.076-0.123-0.157-0.132-0.060 0.137 0.072 0.255 0.037 0.415-0.044-0.060-0.072-0.097-0.108-0.147-0.027 0.169 0.010 0.306 0.105 0.428zM11.965 20.996c-0.051 0.046 0.013 0.106-0.038 0.12-0.047 0.012-0.072-0.035-0.081-0.067-0.031-0.107-0.149-0.117-0.215-0.166-0.192-0.141-0.257-0.333-0.324-0.536-0.011-0.034-0.034-0.065-0.059-0.113-0.098 0.226-0.041 0.401 0.105 0.558 0.21 0.226 0.448 0.422 0.676 0.629 0.079 0.072 0.16 0.143 0.24 0.214 0.014-0.012 0.028-0.024 0.042-0.037-0.083-0.214-0.29-0.356-0.345-0.602zM12.369 16.828c-0.006 0.1 0.062 0.213-0.099 0.249-0.024 0.005-0.039 0.039-0.023 0.069 0.039 0.074 0.355 0.17 0.428 0.127 0.087-0.050 0.153-0.101 0.022-0.185-0.11-0.070-0.135-0.191-0.12-0.307 0.021-0.168-0.082-0.249-0.193-0.331-0.010-0.007-0.031-0.011-0.040-0.006-0.054 0.033-0.017 0.078-0.011 0.123-0.036 0.090 0.044 0.166 0.038 0.26zM11.706 23.043c-0.015-0.004-0.029-0.016-0.040-0.028-0.048-0.051-0.095-0.096-0.166-0.034-0.067 0.059 0.007 0.097 0.028 0.157 0.116-0 0.232-0.001 0.347-0.001-0.014-0.047-0.064-0.068-0.17-0.094zM12.539 21.577c-0.038-0.208-0.245-0.352-0.28-0.524-0.045-0.224-0.144-0.385-0.277-0.544 0.081 0.412 0.278 0.762 0.556 1.069zM11.932 18.997c-0.15 0.056-0.268 0.224-0.271 0.385-0 0.017 0 0.047 0.002 0.047 0.225 0.016 0.035 0.216 0.134 0.279 0.073-0.226 0.135-0.463 0.135-0.712zM12.402 18.574c-0.025 0.092-0.070 0.185-0.024 0.297 0.096-0.036 0.102-0.122 0.122-0.197 0.063-0.233 0.146-0.298 0.405-0.289-0.309-0.16-0.423-0.113-0.503 0.189zM27.15 11.179c-0.144 0-0.268-0.072-0.339-0.198-1.267-2.246-3.278-5.108-2.914-7.525 0.274-1.822 1.742-2.919 3.253-2.925 1.51 0.006 2.979 1.103 3.253 2.925 0.363 2.416-1.649 5.279-2.914 7.525-0.071 0.125-0.195 0.198-0.339 0.198zM28.77 4.007c0-0.897-0.725-1.622-1.62-1.622s-1.62 0.725-1.62 1.622c0 0.897 0.725 1.62 1.62 1.62s1.62-0.725 1.62-1.62z"></path>
</svg>
