<!-- Generated by IcoMoon.io -->
<svg version="1.1" xmlns="http://www.w3.org/2000/svg" width="32" height="32" viewBox="0 0 32 32">
<path d="M27.425 7.829c0.075-0.163 0.047-0.356 0.075-0.53 0.005-0.006 0.012-0.003 0.021 0.008 0.059 0.073 0.121 0.172 0.159 0.261 0.045 0.128 0.059 0.115 0.068-0.017 0.015-0.342-0.111-0.713-0.299-0.995-0.030-0.076 0.257 0.159 0.286 0.18 0.014 0.007 0.028 0.012 0.021-0.014-0.143-0.41-0.578-0.812-0.989-0.99-0.027-0.009 0.053 0.064 0.094 0.108 0.016 0.016 0.314 0.333 0.186 0.279-0.074-0.032-0.371-0.157-0.167 0.005 0.157 0.151 0.354 0.426 0.396 0.612 0.005 0.065-0.073-0.008-0.097-0.020-0.037-0.024-0.089-0.055-0.126-0.069-0.029-0.012-0.044-0.014-0.039 0.001 0.253 0.324 0.363 0.747 0.343 1.163 0 0.121-0.009 0.202 0.061 0.036l0.007-0.018zM27.113 13.115c0.004-0.246 0.109-0.487 0.363-0.574 0.062-0.032 0.175-0.033 0.191-0.11-0.001-0.105-0.080-0.374-0.171-0.501-0.041-0.029-0.052 0.133-0.114 0.056-0.105-0.137-0.195-0.365-0.241-0.52-0.023-0.026-0.055 0.037-0.083 0.047-0.013 0.005-0.026 0.001-0.040-0.010-0.087-0.097-0.138-0.242-0.187-0.369-0.009-0.018-0.023-0.050-0.047-0.035-0.028 0.016-0.053 0.081-0.088 0.036-0.080-0.113-0.158-0.284-0.223-0.417-0.019-0.041-0.035-0.069-0.044-0.063-0.038 0.195 0.021 0.494 0.015 0.698 0.004 0.058-0.109-0.055-0.146-0.082-0.019-0.014-0.031-0.017-0.036-0.001-0.007 0.097 0.009 0.266 0.011 0.378 0.004 0.075 0.010 0.138-0.017 0.125-0.028-0.008-0.106-0.096-0.147-0.116-0.016-0.007-0.018 0.004-0.018 0.029 0.002 0.099 0.009 0.292 0.015 0.41 0.001 0.341 0.073 0.66-0.209 0.874-0.085 0.081-0.217 0.067-0.359 0.074-0.232 0.004-0.469 0.006-0.702 0.006-0.105-0.007-0.173 0.012-0.196-0.013 0.062-0.166 0.115-0.423 0.119-0.621 0.032-0.133 0.146-0.266 0.194-0.392 0.157-0.213 0.315-0.389 0.361-0.678 0.017-0.078 0.045-0.142 0.093-0.201 0.142-0.157 0.196-0.472 0.19-0.727 0.001-0.089 0.015-0.167 0.052-0.245 0.087-0.186 0.109-0.576 0.072-0.84-0.005-0.054 0.017-0.036 0.039-0.017 0.122 0.101 0.101-0.45 0.103-0.529 0.001-0.145-0.009-0.279-0.028-0.408 0-0.025 0.028-0.003 0.067 0.043 0.039 0.044 0.069 0.079 0.081 0.067 0.026-0.045 0.022-0.094 0.032-0.154 0.033-0.331 0.008-0.581-0.062-0.852-0.024-0.098-0.041-0.16 0.073-0.025 0.027 0.026 0.136 0.188 0.139 0.11 0.011-0.135-0.002-0.293-0.017-0.432-0.020-0.228-0.115-0.512-0.166-0.718 0.029-0.011 0.232 0.259 0.294 0.37 0.011 0.017 0.031 0.047 0.033 0.005-0.003-0.357-0.223-0.756-0.477-1.092-0.026-0.036-0.051-0.071-0.061-0.089-0.044-0.082 0.291 0.155 0.271 0.131 0.021-0.001 0.008-0.017-0.005-0.048-0.137-0.315-0.483-0.72-0.727-0.907-0.019-0.019-0.056-0.036-0.033-0.059 0.007-0.006 0.021-0.011 0.039-0.016 0.39-0.090 0.828-0.092 1.209 0.034 0.019 0.010 0.026 0.022 0.016 0.034-0.010 0.010-0.004 0.008-0.045 0.030-0.057 0.029-0.092 0.058-0.010 0.068 0.306 0.025 0.735 0.184 0.962 0.347 0.051 0.047-0.011 0.056-0.092 0.073-0.101 0.022-0.137 0.039-0.049 0.057 0.324 0.065 0.704 0.225 0.899 0.479 0.007 0.028-0.259-0.025-0.174 0.054 0.263 0.161 0.527 0.362 0.672 0.639 0.007 0.060-0.244-0.029-0.193 0.052 0.187 0.15 0.414 0.366 0.522 0.572 0.006 0.014 0.019 0.041 0.008 0.053-0.011 0.021-0.086-0.003-0.13 0-0.086 0.013 0.074 0.145 0.093 0.185 0.134 0.189 0.265 0.368 0.264 0.521-0.026 0.030-0.101-0.019-0.133-0.017-0.048-0.005-0.028 0.034-0.013 0.063 0.129 0.206 0.216 0.439 0.226 0.657-0.002 0.021-0.009 0.030-0.027 0.027-0.027-0.003-0.193-0.13-0.164-0.048 0.114 0.272 0.173 0.571 0.163 0.877-0.007 0.055-0.101-0.079-0.146-0.109-0.004-0.002-0.012-0.007-0.017-0.010-0.017-0.006-0.012 0.021-0.013 0.030 0.042 0.23 0.116 0.517 0.074 0.719-0.024 0.056-0.075-0.042-0.106-0.069-0.057-0.059-0.111-0.122-0.102-0.066 0.039 0.214 0.122 0.611 0.153 0.796 0.027 0.141 0.005 0.138-0.109 0.042-0.141-0.108-0.065 0.032-0.032 0.134 0.019 0.077 0.263 0.623 0.121 0.554-0.083-0.041-0.187-0.145-0.115 0.025 0.147 0.32 0.174 0.628 0.16 0.989 0.015 0.29-0.159 0.506-0.431 0.595-0.049 0.016-0.071 0.022-0.113 0.024-0.259 0.010-1.418 0.034-1.528 0.002l-0.003-0.012zM23.35 3.141c-0.084-0.24-0.424-0.382-0.624-0.205-0.046 0.044 0.049 0.079 0.087 0.085 0.178-0.040 0.341-0.049 0.428 0.151 0.020 0.045 0.090 0.071 0.13 0.060 0.009-0.010-0.010-0.060-0.016-0.080l-0.004-0.011zM21.499 3.211c0.014-0.003 0.056-0.079 0.076-0.109 0.090-0.122 0.255-0.121 0.388-0.083 0.082 0.001 0.19-0.028 0.103-0.084-0.279-0.195-0.586-0.009-0.699 0.293-0.020 0.025 0.134-0.018 0.126-0.014l0.006-0.003zM23.12 4.18c-0.022-0.31-0.057-0.583-0.196-0.787-0.156-0.215-0.369-0.415-0.636-0.331-0.346 0.122-0.449 0.72-0.482 1.061 0.001 0.082-0.026 0.188-0.003 0.265 0.015 0.015 0.080 0.005 0.121 0.005 0.057-0.006 0.16 0.001 0.211-0.019 0.030-0.013 0.086-0.053 0.124-0.077 0.062-0.042 0.132-0.080 0.191-0.126 0.030-0.027 0.029-0.067 0.026-0.116 0.004-0.096-0.097-0.118-0.151-0.175-0.196-0.259 0.033-0.42 0.3-0.396 0.102 0.006 0.243 0.012 0.299 0.107 0.045 0.081 0.025 0.247-0.063 0.311-0.067 0.048-0.134 0.054-0.135 0.153-0.002 0.025-0.001 0.054 0.005 0.078 0.027 0.068 0.113 0.102 0.172 0.16 0.045 0.044 0.086 0.093 0.141 0.115 0.121 0.065 0.072-0.134 0.079-0.197l-0.001-0.032zM22.778 4.663c0.025-0.016 0.086-0.045 0.084-0.081-0.018-0.068-0.1-0.126-0.163-0.157-0.161-0.085-0.378 0.019-0.518 0.166-0.018 0.012 0.018 0.029 0.034 0.045 0.149 0.106 0.391 0.104 0.551 0.034l0.012-0.006zM22.025 13.263c0.076-1.024 0.936-0.266 0.985-1.419 0.022-0.186 0.033-0.473 0.051-0.641 0.003-0.027 0.007-0.048-0.007-0.049-0.043-0.006-0.12 0.117-0.136 0.066-0.005-0.149 0.029-0.285 0.080-0.438 0.044-0.13 0.102-0.296-0.061-0.105-0.13 0.177-0.082-0.493-0.070-0.62-0.004-0.061 0.072-0.281 0.005-0.225-0.036 0.024-0.076 0.082-0.118 0.084-0.139-0.136-0.123-0.47-0.101-0.658 0.006-0.034 0.031-0.137-0.033-0.084-0.322 0.266-0.079 0.689-0.096 1.020-0.046 0.065-0.117-0.212-0.149-0.005-0.014 0.070-0.149 0.433-0.201 0.35-0.020-0.037-0.027-0.196-0.075-0.193-0.062 0.121-0.117 0.357-0.263 0.42-0.034 0.014-0.019-0.306-0.093-0.166-0.029 0.058-0.060 0.139-0.098 0.189-0.028 0.056-0.298-0.141-0.326-0.108-0.020 0.007 0.050 0.106 0.099 0.171 0.181 0.206 0.614 0.496 0.571 0.716-0.016 0.069-0.194 0.113-0.199 0.194 0.001 0.025 0.024 0.042 0.052 0.037 0.019-0.004 0.016-0.001 0.063-0.020 0.111-0.061 0.179-0.042 0.131 0.094-0.029 0.050-0.109 0.084-0.161 0.114-0.092 0.040-0.101 0.134 0.008 0.109 0.058-0.011 0.086-0.029 0.121-0.027 0.016 0.001 0.023 0.011 0.018 0.028-0.012 0.046-0.073 0.117-0.12 0.145-0.625 0.232-1.293-0.18-1.675-0.695-0.382-0.481-0.455-1.155-0.159-1.689 0.033-0.081-0.203 0.102-0.204 0.057 0.040-0.184 0.192-0.344 0.295-0.502 0.045-0.065 0.072-0.092 0.018-0.081-0.055 0.012-0.131 0.032-0.181 0.040-0.025 0.003-0.027-0.004-0.015-0.026 0.105-0.178 0.251-0.379 0.346-0.571 0.018-0.046 0.082-0.157 0.027-0.15-0.048 0.012-0.17 0.163-0.167 0.056 0.004-0.212 0.115-0.635 0.167-0.898 0.001-0.018-0.012-0.015-0.035 0.003-0.024 0.009-0.106 0.121-0.138 0.122-0.056-0.272 0.056-0.537 0.13-0.816 0.002-0.016-0.007-0.015-0.026-0.002-0.041 0.026-0.128 0.122-0.144 0.097-0.025-0.13 0.020-0.303 0.051-0.481 0.020-0.069 0.080-0.409 0.143-0.373 0.041 0.093 0.107 0.233 0.174 0.332 0.076 0.104 0.275 0.445 0.255 0.187 0.002-0.012 0.010-0.012 0.019-0.001 0.030 0.038 0.062 0.106 0.097 0.149 0.134 0.178 0.385 0.414 0.573 0.439-0.125-0.12-0.278-0.311-0.384-0.465-0.156-0.232-0.295-0.565-0.399-0.844-0.046-0.111-0.041 0.141-0.042 0.162-0 0.021-0.009 0.024-0.026 0.013-0.22-0.203-0.314-0.546-0.325-0.828-0.006-0.063-0.002-0.129-0.020-0.182-0.038-0.076-0.116 0.178-0.155 0.076-0.053-0.22-0.018-0.556 0.071-0.793 0.030-0.087-0.055-0.031-0.097-0.006-0.172 0.090 0.066-0.477 0.091-0.511 0.056-0.108 0.134-0.207 0.192-0.313 0.024-0.093-0.177 0.046-0.177 0 0.042-0.25 0.315-0.534 0.52-0.69 0.132-0.108-0.15 0.012-0.173-0.026-0.146-0.119-0.249-0.301-0.248-0.497-0.018-0.765 0.844-0.78 1.166-0.157 0.018 0.036-0.043 0.054-0.107 0.11-0.021 0.019-0.046 0.042-0.066 0.063-0.081 0.087-0.082 0.109 0.027 0.047 0.232-0.148 0.504-0.215 0.782-0.166 0.11 0.024 0.189 0.1 0.291 0.057 0.069-0.030 0.068-0.023 0.122-0.045 0.229-0.079 0.464 0.025 0.672 0.137 0.096 0.052 0.21 0.116 0.076-0.031-0.046-0.072-0.2-0.115-0.22-0.189 0.093-0.311 0.471-0.527 0.762-0.382 0.334 0.168 0.387 0.608 0.182 0.915-0.103 0.154-0.101 0.149-0.263 0.104-0.038-0.001-0.003 0.039 0.012 0.054 0.183 0.192 0.409 0.385 0.476 0.641-0.015 0.034-0.134-0.015-0.167-0.009-0.096-0.021 0.122 0.269 0.12 0.311 0.121 0.269 0.146 0.571 0.107 0.877-0.020 0.083-0.076-0.048-0.114-0.081-0.14-0.162-0.047 0.078-0.051 0.151 0.032 0.286-0.057 0.638-0.197 0.92-0.010 0.027-0.045 0.093 0.001 0.058 0.214-0.162 0.338-0.396 0.413-0.646 0.133 0.379 0.047 1.001-0.208 1.222-0.030-0.015 0.006-0.256-0.059-0.183-0.127 0.249-0.234 0.63-0.391 0.843-0.069 0.111-0.189 0.214-0.253 0.32 0.275-0.070 0.495-0.316 0.66-0.552 0.060-0.016-0.014 0.202 0.023 0.184 0.225-0.158 0.344-0.473 0.382-0.748 0.007-0.024 0.005-0.082 0.017-0.123 0.015-0.048 0.045 0.014 0.058 0.036 0.046 0.097 0.073 0.143 0.090 0.023 0.030-0.187 0.016-0.623-0.022-0.752-0.007-0.085 0.146 0.162 0.164 0.158 0.007 0.004 0.013 0 0.015-0.010 0.004-0.020 0.002-0.061 0.002-0.091 0.001-0.327-0.2-0.694-0.299-1.015 0.002-0.021 0.039 0.003 0.052 0.007 0.043 0.021 0.11 0.065 0.065-0.028-0.052-0.131-0.178-0.422-0.213-0.484-0.006-0.017-0.023-0.032 0.001-0.034 0.207 0.060 0.486 0.277 0.598 0.455-0.001 0.043-0.122-0.008-0.147 0.018 0.179 0.274 0.489 0.485 0.594 0.783-0.001 0.023-0.045-0.003-0.101-0.030-0.052-0.026-0.128-0.057-0.186-0.076-0.109-0.040-0.044 0.018-0.004 0.064 0.245 0.263 0.511 0.604 0.534 0.961-0.068-0.028-0.104-0.094-0.16-0.127-0.255-0.191-0.13-0.022-0.045 0.117 0.090 0.084 0.453 1.063 0.189 0.807-0.044-0.031-0.22-0.173-0.148-0.050 0.076 0.14 0.148 0.297 0.185 0.454 0.029 0.081 0.102 0.631-0.026 0.401-0.044-0.066-0.108-0.143-0.163-0.203-0.061-0.065-0.098-0.101-0.087-0.062 0.105 0.29 0.203 0.579 0.195 0.889-0.005 0.11 0.021 0.264-0.044 0.348-0.046-0.025-0.134-0.207-0.191-0.246-0.029-0.028-0.044-0.035-0.040-0.007 0.142 0.414 0.229 0.887 0.138 1.324-0.031 0.116-0.042 0.102-0.11-0.016-0.031-0.048-0.189-0.246-0.136-0.094 0.117 0.281 0.244 0.909 0.040 1.149-0.028 0.010-0.079-0.096-0.128-0.131-0.077-0.066-0.010 0.251-0.026 0.299-0.013 0.206-0.029 0.45-0.177 0.598-0.031 0.009-0.073-0.128-0.109-0.17-0.014-0.019-0.023-0.023-0.029-0.007-0.027 0.159-0.013 0.358-0.093 0.506-0.076 0.159-0.079 0.081-0.186-0.005-0.018-0.010-0.028-0.001-0.028 0.022 0.002 0.045 0.019 0.117 0.024 0.18 0.070 0.461-0.060 1.005-0.56 1.121-0.244 0.041-0.609 0.019-0.893 0.027-0.214 0.015-0.716-0.011-0.996 0-0.049 0.006-0.051-0.024-0.051-0.061l0.001-0.027zM0.307 13.577l2.711-7.394 1.65 1.932 2.121-3.445 1.237 1.68 3.005-5.041 3.123 6.47 1.532-1.176 3.208 6.902h12.512c0.326 0 0.593 0.267 0.593 0.593 0 9.15-7.176 16.593-16 16.593s-16-7.443-16-16.593c0-0.224 0.126-0.42 0.311-0.521h-0.004l-0 0zM16.571 13.493h0.236l-0.295-0.756h0.236l-0.295-0.672h0.177l-0.295-0.756h0.236l-0.53-1.26-0.53 1.26h0.236l-0.295 0.756h0.177l-0.295 0.672h0.236l-0.295 0.756h0.177v0.012h1.128l-0.009-0.012zM14.391 13.241h0.295l-0.412-1.008h0.295l-0.354-1.008h0.236l-0.354-0.924h0.295l-0.766-1.848-0.707 1.848h0.295l-0.412 0.924h0.295l-0.413 1.008h0.295l-0.354 1.008h0.236l-0.093 0.264h1.764l-0.139-0.264zM12.093 12.904h0.412l-0.589-1.344h0.412l-0.53-1.344h0.412l-0.589-1.344h0.413l-1.002-2.436-0.943 2.436h0.354l-0.53 1.344h0.412l-0.53 1.344h0.354l-0.53 1.344h0.412l-0.263 0.6h2.589l-0.263-0.6zM8.852 13.073h0.354l-0.471-1.092h0.354l-0.471-1.092h0.354l-0.471-1.092h0.354l-0.825-2.016-0.825 2.016h0.354l-0.471 1.092h0.354l-0.471 1.092h0.295l-0.412 1.092h0.295l-0.152 0.432h2.012l-0.152-0.432zM6.2 13.325h0.295l-0.354-0.84h0.236l-0.354-0.924h0.236l-0.354-0.84h0.295l-0.648-1.596-0.648 1.596h0.236l-0.354 0.84h0.295l-0.354 0.924h0.236l-0.354 0.84h0.236l-0.042 0.18h1.482l-0.084-0.18zM3.49 13.409h0.236l-0.354-0.84h0.236l-0.295-0.84h0.236l-0.354-0.756h0.236l-0.589-1.512-0.589 1.512h0.236l-0.354 0.756h0.236l-0.295 0.84h0.236l-0.354 0.84h0.236l-0.034 0.096h1.364l-0.034-0.096zM6.789 4.923v0l0-0-0 0zM5.138 14.69l1.327 0.705c1.043 0.545 1.719 1.719 1.73 3.022l0.036 1.090c0.041 1.801 1.576 3.052 3.081 2.501l0.936-0.344c1.238-0.444 2.548 0.308 2.957 1.689 0.296 1.007 0.053 2.050-0.551 2.75-0.29 0.314-0.652 0.563-1.067 0.693l-1.807 0.563c-0.836 0.267-1.695 0.403-2.554 0.433 2.033 1.090 4.338 1.712 6.779 1.712 1.606 0 3.153-0.272 4.604-0.764 0.367-0.415 0.776-0.777 1.221-1.073 1.422-0.96 1.345-3.319-0.13-4.154l-0.652-0.367c-0.818-0.468-1.268-1.481-1.12-2.501l0.113-0.782c0.166-1.227 1.167-2.098 2.264-1.967l3.733 0.444c0.723 0.083 1.387-0.261 1.819-0.83 0.314-0.433 0.498-0.978 0.486-1.582-0.018-0.45 0.089-0.871 0.273-1.239l-23.478 0z"></path>
</svg>
