<?xml version="1.0" encoding="UTF-8" standalone="no"?>
<!DOCTYPE svg PUBLIC "-//W3C//DTD SVG 1.1//EN" "http://www.w3.org/Graphics/SVG/1.1/DTD/svg11.dtd">
<svg width="100%" height="100%" viewBox="0 0 150 150" version="1.1" xmlns="http://www.w3.org/2000/svg" xmlns:xlink="http://www.w3.org/1999/xlink" xml:space="preserve" xmlns:serif="http://www.serif.com/" style="fill-rule:evenodd;clip-rule:evenodd;stroke-linejoin:round;stroke-miterlimit:2;">
    <g transform="matrix(0.148148,0,0,0.148148,-13.8889,-31.1326)">
        <path d="M961.481,457.862C963.866,452.69 962.97,446.6 963.844,441.103C963.989,440.901 964.213,441.024 964.515,441.36C966.396,443.678 968.355,446.79 969.531,449.634C970.964,453.686 971.412,453.261 971.691,449.096C972.173,438.27 968.187,426.527 962.231,417.615C961.28,415.219 970.37,422.631 971.266,423.314C971.714,423.537 972.15,423.683 971.926,422.855C967.392,409.868 953.633,397.15 940.647,391.53C939.796,391.239 942.326,393.545 943.614,394.945C944.106,395.437 953.544,405.491 949.514,403.778C947.174,402.781 937.77,398.818 944.241,403.934C949.211,408.704 955.436,417.402 956.757,423.291C956.914,425.362 954.451,423.022 953.678,422.653C952.503,421.881 950.857,420.918 949.704,420.459C948.775,420.078 948.316,420.022 948.472,420.481C956.488,430.725 959.959,444.114 959.332,457.291C959.343,461.109 959.052,463.695 961.246,458.422L961.481,457.862ZM951.629,625.12C951.753,617.35 955.078,609.704 963.105,606.961C965.075,605.942 968.657,605.909 969.15,603.468C969.128,600.154 966.609,591.623 963.743,587.604C962.433,586.686 962.097,591.803 960.149,589.384C956.813,585.041 953.969,577.82 952.514,572.938C951.797,572.11 950.767,574.125 949.883,574.427C949.469,574.584 949.055,574.461 948.629,574.114C945.864,571.058 944.252,566.468 942.707,562.426C942.416,561.866 941.968,560.859 941.229,561.329C940.333,561.844 939.539,563.881 938.441,562.482C935.922,558.911 933.448,553.503 931.377,549.283C930.761,547.984 930.258,547.089 930,547.29C928.791,553.447 930.661,562.93 930.47,569.39C930.582,571.237 927.022,567.643 925.858,566.803C925.253,566.356 924.873,566.266 924.705,566.781C924.481,569.86 924.985,575.2 925.052,578.738C925.164,581.111 925.354,583.104 924.526,582.69C923.641,582.421 921.178,579.644 919.88,579.017C919.387,578.782 919.309,579.141 919.309,579.936C919.365,583.07 919.6,589.183 919.768,592.911C919.812,603.714 922.085,613.801 913.162,620.574C910.464,623.138 906.289,622.69 901.81,622.914C894.478,623.037 886.977,623.105 879.599,623.105C876.263,622.881 874.113,623.496 873.397,622.679C875.367,617.417 877.024,609.29 877.158,603.043C878.155,598.833 881.793,594.624 883.293,590.627C888.253,583.876 893.246,578.312 894.713,569.188C895.261,566.736 896.134,564.71 897.646,562.84C902.146,557.881 903.848,547.906 903.658,539.823C903.691,537.013 904.128,534.55 905.303,532.076C908.057,526.187 908.763,513.861 907.576,505.509C907.43,503.796 908.113,504.356 908.807,504.972C912.659,508.163 912.009,490.743 912.077,488.235C912.121,483.645 911.808,479.413 911.181,475.327C911.192,474.521 912.077,475.226 913.308,476.681C914.528,478.07 915.48,479.178 915.861,478.797C916.678,477.376 916.566,475.819 916.868,473.939C917.898,463.46 917.126,455.556 914.909,446.98C914.136,443.89 913.61,441.931 917.215,446.197C918.066,447.014 921.503,452.13 921.615,449.678C921.951,445.413 921.537,440.42 921.066,436.009C920.428,428.81 917.417,419.809 915.805,413.283C916.723,412.924 923.16,421.477 925.097,424.982C925.444,425.519 926.071,426.459 926.127,425.127C926.026,413.842 919.062,401.203 911.035,390.567C910.218,389.414 909.434,388.317 909.121,387.746C907.744,385.149 918.335,392.65 917.685,391.888C918.346,391.866 917.932,391.351 917.529,390.366C913.196,380.402 902.247,367.583 894.522,361.683C893.929,361.09 892.753,360.542 893.492,359.825C893.727,359.646 894.153,359.467 894.713,359.321C907.05,356.466 920.898,356.411 932.978,360.385C933.571,360.71 933.795,361.079 933.493,361.448C933.168,361.751 933.359,361.706 932.06,362.389C930.269,363.318 929.138,364.214 931.735,364.549C941.431,365.344 954.977,370.382 962.175,375.532C963.788,377.01 961.828,377.312 959.276,377.849C956.085,378.532 954.943,379.07 957.731,379.663C967.986,381.734 980.021,386.783 986.189,394.822C986.402,395.717 978.006,394.038 980.67,396.534C988.977,401.628 997.34,407.987 1001.94,416.742C1002.16,418.634 994.227,415.824 995.84,418.376C1001.77,423.123 1008.95,429.952 1012.35,436.49C1012.53,436.949 1012.95,437.778 1012.59,438.17C1012.25,438.83 1009.86,438.091 1008.48,438.181C1005.77,438.606 1010.81,442.771 1011.42,444.036C1015.67,450.014 1019.8,455.668 1019.77,460.515C1018.95,461.467 1016.57,459.922 1015.55,459.978C1014.03,459.833 1014.65,461.064 1015.15,461.96C1019.24,468.464 1021.99,475.842 1022.3,482.738C1022.25,483.41 1022,483.701 1021.44,483.589C1020.59,483.499 1015.34,479.469 1016.26,482.055C1019.88,490.676 1021.73,500.113 1021.43,509.797C1021.21,511.521 1018.22,507.301 1016.82,506.349C1016.68,506.271 1016.43,506.114 1016.29,506.035C1015.76,505.856 1015.92,506.685 1015.89,506.987C1017.21,514.264 1019.57,523.343 1018.24,529.725C1017.48,531.494 1015.87,528.381 1014.9,527.542C1013.1,525.672 1011.4,523.69 1011.68,525.459C1012.91,532.221 1015.53,544.805 1016.51,550.649C1017.36,555.104 1016.68,555.004 1013.05,551.981C1008.59,548.555 1011,553 1012.03,556.213C1012.63,558.664 1020.36,575.928 1015.85,573.733C1013.22,572.423 1009.92,569.132 1012.21,574.539C1016.86,584.671 1017.73,594.411 1017.28,605.841C1017.75,615.033 1012.26,621.862 1003.63,624.683C1002.08,625.187 1001.37,625.366 1000.07,625.444C991.865,625.747 955.201,626.519 951.73,625.511L951.629,625.12ZM832.568,309.525C829.926,301.945 819.144,297.423 812.819,303.031C811.353,304.42 814.364,305.517 815.562,305.707C821.204,304.442 826.354,304.162 829.108,310.499C829.746,311.909 831.963,312.738 833.217,312.413C833.497,312.088 832.915,310.51 832.702,309.883L832.568,309.525ZM773.983,311.741C774.431,311.652 775.763,309.234 776.379,308.304C779.233,304.431 784.45,304.487 788.649,305.662C791.257,305.685 794.66,304.789 791.906,303.009C783.062,296.84 773.378,302.729 769.784,312.279C769.135,313.062 774.028,311.708 773.781,311.831L773.983,311.741ZM825.291,342.394C824.585,332.576 823.499,323.933 819.1,317.485C814.174,310.678 807.434,304.352 798.971,307.017C788.022,310.868 784.764,329.799 783.734,340.603C783.779,343.211 782.905,346.547 783.644,348.977C784.114,349.447 786.163,349.134 787.462,349.134C789.275,348.954 792.522,349.167 794.123,348.529C795.063,348.104 796.855,346.839 798.053,346.1C800.012,344.779 802.228,343.558 804.087,342.114C805.038,341.274 804.994,339.998 804.904,338.442C805.016,335.419 801.848,334.714 800.135,332.889C793.944,324.705 801.176,319.6 809.617,320.373C812.83,320.563 817.32,320.765 819.066,323.765C820.499,326.318 819.861,331.579 817.085,333.595C814.969,335.128 812.842,335.296 812.808,338.442C812.73,339.226 812.763,340.144 812.953,340.916C813.793,343.066 816.514,344.152 818.383,345.988C819.794,347.387 821.104,348.921 822.85,349.637C826.668,351.686 825.123,345.383 825.335,343.402L825.291,342.394ZM814.476,357.676C815.282,357.161 817.197,356.243 817.129,355.123C816.57,352.962 813.95,351.126 811.98,350.141C806.886,347.443 800.012,350.757 795.578,355.381C794.996,355.761 796.138,356.31 796.664,356.802C801.378,360.172 809.035,360.105 814.095,357.866L814.476,357.676ZM790.63,629.81C793.048,597.4 820.23,621.38 821.809,584.906C822.492,579.029 822.839,569.949 823.41,564.62C823.511,563.77 823.623,563.098 823.186,563.064C821.82,562.885 819.402,566.759 818.876,565.147C818.708,560.433 819.794,556.134 821.406,551.287C822.783,547.167 824.63,541.928 819.492,547.951C815.372,553.537 816.883,532.356 817.286,528.348C817.174,526.422 819.548,519.459 817.454,521.216C816.301,521.966 815.036,523.825 813.726,523.858C809.326,519.548 809.819,508.98 810.535,503.046C810.714,501.96 811.509,498.714 809.505,500.404C799.329,508.823 806.998,522.213 806.471,532.691C805.005,534.751 802.777,525.974 801.758,532.546C801.31,534.774 797.056,546.249 795.399,543.618C794.772,542.454 794.56,537.416 793.026,537.505C791.078,541.334 789.331,548.79 784.708,550.794C783.644,551.242 784.114,541.11 781.775,545.544C780.868,547.368 779.883,549.943 778.674,551.522C777.8,553.28 769.236,547.066 768.374,548.107C767.747,548.342 769.952,551.466 771.497,553.515C777.218,560.019 790.921,569.21 789.578,576.174C789.085,578.357 783.443,579.756 783.286,582.32C783.32,583.104 784.036,583.641 784.921,583.507C785.536,583.372 785.424,583.473 786.913,582.869C790.44,580.954 792.589,581.525 791.056,585.858C790.138,587.436 787.619,588.522 785.962,589.451C783.062,590.705 782.771,593.683 786.208,592.911C788.033,592.575 788.928,592.004 790.026,592.06C790.529,592.105 790.742,592.407 790.608,592.956C790.216,594.411 788.313,596.661 786.801,597.546C767.03,604.901 745.894,591.858 733.803,575.547C721.701,560.333 719.406,539.006 728.776,522.112C729.829,519.537 722.35,525.336 722.305,523.926C723.559,518.115 728.384,513.044 731.653,508.028C733.086,505.979 733.915,505.117 732.236,505.476C730.489,505.845 728.082,506.494 726.515,506.752C725.709,506.853 725.675,506.618 726.045,505.935C729.37,500.303 733.993,493.933 737.005,487.877C737.587,486.433 739.613,482.906 737.844,483.119C736.333,483.488 732.459,488.291 732.56,484.876C732.695,478.182 736.199,464.792 737.844,456.452C737.878,455.881 737.464,455.97 736.725,456.541C735.964,456.821 733.366,460.381 732.359,460.415C730.601,451.817 734.128,443.409 736.467,434.598C736.523,434.083 736.243,434.128 735.65,434.542C734.363,435.371 731.586,438.394 731.105,437.61C730.321,433.49 731.743,428.027 732.706,422.384C733.333,420.19 735.225,409.443 737.217,410.584C738.527,413.54 740.598,417.962 742.737,421.086C745.144,424.366 751.424,435.169 750.82,426.997C750.898,426.605 751.122,426.616 751.424,426.952C752.376,428.161 753.395,430.299 754.503,431.654C758.757,437.274 766.695,444.741 772.617,445.536C768.654,441.752 763.817,435.684 760.481,430.814C755.544,423.481 751.133,412.947 747.853,404.102C746.386,400.576 746.565,408.569 746.521,409.241C746.509,409.902 746.252,410.002 745.692,409.644C738.718,403.229 735.762,392.381 735.415,383.436C735.236,381.443 735.348,379.361 734.777,377.67C733.579,375.275 731.094,383.313 729.885,380.089C728.205,373.114 729.302,362.49 732.135,355C733.086,352.257 730.411,354.004 729.056,354.81C723.604,357.653 731.15,339.73 731.944,338.632C733.713,335.218 736.176,332.094 738.012,328.725C738.785,325.791 732.403,330.169 732.415,328.725C733.736,320.821 742.367,311.831 748.872,306.905C753.059,303.49 744.114,307.286 743.408,306.088C738.774,302.326 735.538,296.572 735.549,290.358C734.967,266.143 762.25,265.684 772.438,285.399C773.009,286.53 771.072,287.112 769.046,288.892C768.374,289.496 767.59,290.213 766.963,290.873C764.388,293.616 764.366,294.321 767.803,292.351C775.147,287.671 783.745,285.544 792.533,287.112C796.004,287.873 798.512,290.291 801.725,288.925C803.919,287.963 803.874,288.186 805.576,287.515C812.808,285.018 820.242,288.321 826.836,291.847C829.858,293.482 833.486,295.519 829.231,290.862C827.765,288.578 822.895,287.212 822.268,284.895C825.212,275.054 837.158,268.225 846.383,272.793C856.94,278.111 858.63,292.026 852.137,301.733C848.868,306.603 848.935,306.435 843.808,305.013C842.61,304.968 843.707,306.233 844.188,306.737C849.987,312.816 857.13,318.906 859.246,327.023C858.765,328.109 854.992,326.542 853.951,326.743C850.906,326.071 857.802,335.251 857.757,336.584C861.586,345.103 862.369,354.664 861.149,364.337C860.5,366.956 858.731,362.803 857.544,361.784C853.111,356.646 856.067,364.247 855.943,366.565C856.951,375.622 854.141,386.75 849.719,395.661C849.417,396.523 848.297,398.617 849.741,397.497C856.503,392.381 860.444,384.958 862.817,377.066C867.027,389.056 864.295,408.726 856.246,415.734C855.305,415.253 856.447,407.629 854.387,409.958C850.379,417.839 846.987,429.896 842.028,436.625C839.833,440.129 836.049,443.409 834.034,446.756C842.722,444.54 849.708,436.759 854.925,429.303C856.817,428.81 854.477,435.684 855.641,435.136C862.772,430.143 866.534,420.156 867.721,411.469C867.945,410.719 867.889,408.883 868.258,407.562C868.74,406.028 869.669,408.021 870.083,408.715C871.538,411.794 872.4,413.238 872.938,409.431C873.878,403.509 873.43,389.705 872.255,385.653C872.031,382.966 876.867,390.769 877.438,390.646C877.673,390.758 877.841,390.646 877.92,390.332C878.054,389.705 877.987,388.395 877.976,387.444C878.02,377.088 871.662,365.479 868.516,355.325C868.594,354.675 869.758,355.425 870.15,355.56C871.516,356.22 873.643,357.62 872.21,354.675C870.564,350.544 866.579,341.319 865.471,339.349C865.291,338.812 864.743,338.33 865.504,338.263C872.053,340.166 880.875,347.04 884.413,352.671C884.379,354.026 880.551,352.425 879.767,353.253C885.443,361.907 895.239,368.613 898.553,378.017C898.519,378.734 897.131,377.928 895.373,377.066C893.727,376.237 891.309,375.275 889.473,374.648C886.025,373.383 888.074,375.207 889.361,376.685C897.108,385.003 905.527,395.784 906.255,407.08C904.117,406.196 902.975,404.102 901.195,403.05C893.112,397.005 897.097,402.367 899.784,406.756C902.628,409.409 914.125,440.375 905.751,432.303C904.352,431.329 898.788,426.818 901.06,430.725C903.456,435.169 905.751,440.129 906.927,445.077C907.856,447.641 910.162,465.027 906.109,457.773C904.71,455.679 902.706,453.25 900.948,451.335C899.012,449.264 897.847,448.133 898.206,449.376C901.531,458.567 904.632,467.692 904.385,477.51C904.229,480.98 905.035,485.862 902.986,488.526C901.531,487.742 898.754,481.988 896.94,480.757C896.034,479.861 895.552,479.637 895.687,480.521C900.176,493.631 902.93,508.599 900.042,522.414C899.056,526.075 898.709,525.638 896.549,521.899C895.563,520.377 890.582,514.118 892.238,518.921C895.933,527.799 899.952,547.682 893.515,555.283C892.619,555.608 891.018,552.25 889.462,551.152C887.033,549.059 889.149,559.101 888.634,560.624C888.219,567.15 887.716,574.853 883.025,579.532C882.04,579.812 880.719,575.491 879.565,574.159C879.129,573.554 878.827,573.431 878.636,573.946C877.785,578.973 878.211,585.264 875.703,589.966C873.296,594.982 873.207,592.53 869.803,589.821C869.221,589.519 868.93,589.787 868.93,590.526C868.997,591.959 869.523,594.243 869.68,596.236C871.897,610.834 867.788,628.03 851.958,631.714C844.244,633.012 832.702,632.307 823.712,632.576C816.928,633.057 801.064,632.24 792.197,632.576C790.641,632.766 790.574,631.826 790.597,630.661L790.63,629.81ZM103.465,639.721L189.232,405.782L241.441,466.922L308.565,357.927L347.72,411.095L442.81,251.59L541.635,456.289L590.112,419.073L691.611,637.45L1087.5,637.45C1097.81,637.45 1106.25,645.888 1106.25,656.2C1106.25,945.7 879.19,1181.2 600,1181.2C320.81,1181.2 93.75,945.7 93.75,656.2C93.75,649.106 97.743,642.899 103.592,639.716L103.479,639.716L103.465,639.721ZM618.081,637.058L625.54,637.058L616.217,613.135L623.676,613.135L614.353,591.869L619.946,591.869L610.623,567.945L618.081,567.945L601.301,528.071L584.521,567.945L591.98,567.945L582.657,591.869L588.249,591.869L578.927,613.135L586.386,613.135L577.062,637.058L582.655,637.058L582.655,637.45L618.356,637.45L618.081,637.058ZM549.095,629.084L558.418,629.084L545.366,597.182L554.689,597.182L543.501,565.283L550.96,565.283L539.773,536.038L549.095,536.038L524.858,477.556L502.483,536.038L511.805,536.038L498.754,565.283L508.077,565.283L495.024,597.182L504.348,597.182L493.16,629.084L500.618,629.084L497.685,637.45L553.495,637.45L549.095,629.084ZM476.38,618.451L489.432,618.451L470.785,575.918L483.836,575.918L467.057,533.386L480.109,533.386L461.461,490.853L474.514,490.853L442.815,413.764L412.983,490.853L424.17,490.853L407.39,533.386L420.442,533.386L403.661,575.918L414.849,575.918L398.069,618.451L411.12,618.451L402.79,637.45L484.71,637.45L476.38,618.451ZM373.829,623.769L385.016,623.769L370.101,589.209L381.289,589.209L366.372,554.65L377.559,554.65L362.642,520.09L373.83,520.09L347.728,456.289L321.623,520.09L332.811,520.09L317.895,554.65L329.082,554.65L314.167,589.209L323.489,589.209L310.438,623.769L319.76,623.769L314.962,637.45L378.627,637.45L373.829,623.769ZM289.929,631.743L299.252,631.743L288.065,605.157L295.525,605.157L284.336,575.917L291.794,575.917L280.607,549.329L289.932,549.329L269.419,498.822L248.909,549.329L256.369,549.329L245.181,575.917L254.504,575.917L243.316,605.157L250.775,605.157L239.588,631.743L247.047,631.743L245.712,637.45L292.598,637.45L289.929,631.743ZM204.163,634.402L211.621,634.402L200.434,607.817L207.894,607.817L198.57,581.23L206.028,581.23L194.841,557.306L202.301,557.306L183.653,509.454L165.007,557.306L172.465,557.306L161.278,581.23L168.738,581.23L159.413,607.817L166.872,607.817L155.685,634.402L163.145,634.402L162.075,637.45L205.232,637.45L204.163,634.402ZM308.565,365.914L308.565,365.916L308.567,365.911L308.565,365.914ZM256.32,674.953L298.32,697.265C331.32,714.515 352.695,751.64 353.07,792.89L354.195,827.39C355.507,884.39 404.07,923.953 451.695,906.515L481.32,895.64C520.506,881.578 561.944,905.39 574.882,949.078C584.256,980.953 576.569,1013.95 557.444,1036.08C548.256,1046.02 536.819,1053.89 523.694,1058.02L466.506,1075.83C440.069,1084.27 412.882,1088.58 385.694,1089.52C450.004,1124.02 522.944,1143.7 600.194,1143.7C651.008,1143.7 699.945,1135.08 745.883,1119.52C757.508,1106.39 770.446,1094.95 784.508,1085.58C829.508,1055.2 827.071,980.576 780.383,954.138L759.758,942.513C733.883,927.7 719.633,895.638 724.32,863.388L727.883,838.638C733.133,799.826 764.82,772.263 799.508,776.388L917.628,790.45C940.502,793.075 961.502,782.2 975.19,764.2C985.127,750.513 990.94,733.263 990.565,714.138C990.002,699.888 993.377,686.575 999.19,674.95L256.32,674.953Z" style="fill:rgb(4,6,6);fill-rule:nonzero;"/>
    </g>
</svg>
