<!-- Generated by IcoMoon.io -->
<svg version="1.1" xmlns="http://www.w3.org/2000/svg" width="32" height="32" viewBox="0 0 32 32">
<path d="M18.375 4.66c0.080 0.147 0.157 0.303 0.23 0.465 0.27 0.604 0.49 1.317 0.645 2.105h1.852c-0.271-0.516-0.619-0.986-1.027-1.394-0.488-0.487-1.064-0.889-1.7-1.176zM19.434 8.511c0.044 0.454 0.066 0.921 0.066 1.401s-0.023 0.949-0.066 1.401h2.156c0.113-0.449 0.171-0.918 0.171-1.401s-0.059-0.953-0.171-1.401zM19.249 12.595c-0.154 0.787-0.375 1.501-0.645 2.105-0.073 0.162-0.149 0.318-0.229 0.464 0.636-0.289 1.211-0.689 1.699-1.176 0.409-0.409 0.755-0.877 1.027-1.394h-1.852zM13.624 15.165c-0.080-0.148-0.156-0.303-0.23-0.465-0.27-0.604-0.49-1.317-0.645-2.105h-1.852c0.271 0.516 0.619 0.986 1.026 1.394 0.488 0.488 1.064 0.887 1.7 1.176zM12.565 11.315c-0.044-0.454-0.066-0.921-0.066-1.401s0.023-0.949 0.066-1.401h-2.156c-0.113 0.449-0.171 0.918-0.171 1.401s0.060 0.953 0.171 1.401zM12.75 7.231c0.154-0.787 0.375-1.501 0.645-2.105 0.072-0.162 0.149-0.317 0.229-0.464-0.636 0.289-1.211 0.689-1.699 1.176-0.409 0.409-0.755 0.877-1.026 1.393h1.852zM17.44 5.646c-0.413-0.924-0.925-1.495-1.44-1.495s-1.027 0.571-1.44 1.495c-0.205 0.458-0.376 0.992-0.505 1.585h3.891c-0.129-0.593-0.301-1.127-0.505-1.585zM13.85 8.512c-0.046 0.449-0.071 0.918-0.071 1.401s0.025 0.953 0.071 1.401h4.298c0.046-0.449 0.071-0.918 0.071-1.401s-0.025-0.953-0.071-1.401zM14.053 12.596c0.129 0.592 0.301 1.127 0.505 1.585 0.412 0.924 0.925 1.495 1.44 1.495s1.027-0.571 1.44-1.495c0.205-0.457 0.376-0.992 0.505-1.585h-3.891zM9.332 12.186c-0.008-0.019-0.014-0.039-0.020-0.059-0.23-0.696-0.355-1.44-0.355-2.213 0-0.78 0.127-1.531 0.364-2.24 0.352-1.048 0.939-1.98 1.699-2.74 1.275-1.275 3.036-2.064 4.98-2.064 1.941 0 3.701 0.789 4.979 2.065 0.753 0.754 1.335 1.674 1.686 2.7 0.009 0.022 0.016 0.046 0.023 0.070 0.23 0.695 0.355 1.438 0.355 2.209 0 0.775-0.125 1.52-0.371 2.26-0.352 1.036-0.936 1.964-1.692 2.72-1.274 1.274-3.035 2.063-4.98 2.063-1.942 0-3.704-0.789-4.978-2.063-0.755-0.755-1.339-1.679-1.69-2.709zM15.196 22.82h1.605c0.514-0.566 1.031-1.156 1.545-1.74 2.044-2.326 4.015-4.57 6.645-6.359 0.24-0.164 0.499-0.271 0.767-0.322 0.27-0.050 0.55-0.044 0.832 0.020 0.271 0.063 0.517 0.171 0.746 0.334 0.22 0.161 0.398 0.357 0.54 0.592l1.023 1.768 0.716-0.414c0.305-0.176 0.696-0.073 0.872 0.233l0.45 0.782c0.025 0.035 0.045 0.071 0.063 0.109 0.35 0.64 0.418 1.364 0.241 2.020-0.175 0.656-0.595 1.249-1.219 1.629l-10.207 5.896c-0.148 0.343-0.359 0.65-0.619 0.91-0.527 0.527-1.255 0.855-2.056 0.855h-2.283c-0.801 0-1.529-0.328-2.056-0.855-0.26-0.26-0.471-0.567-0.619-0.91l-10.207-5.896c-0.625-0.38-1.044-0.973-1.219-1.629-0.176-0.656-0.109-1.38 0.241-2.020 0.016-0.038 0.038-0.075 0.063-0.109l0.45-0.782c0.176-0.305 0.568-0.409 0.872-0.233l0.716 0.414 1.023-1.768c0.143-0.235 0.32-0.431 0.54-0.592 0.229-0.162 0.474-0.271 0.745-0.334 0.282-0.064 0.563-0.071 0.832-0.020s0.527 0.159 0.768 0.322c2.629 1.788 4.599 4.030 6.643 6.355 0.514 0.585 1.033 1.175 1.547 1.744zM20.051 23.697v2.060l9.275-5.355c0.349-0.2 0.584-0.526 0.68-0.889 0.096-0.361 0.058-0.759-0.139-1.105l-0.164-0.284-9.652 5.574zM11.946 25.757v-2.060l-9.652-5.574-0.164 0.284c-0.198 0.346-0.236 0.744-0.139 1.105 0.098 0.364 0.331 0.689 0.677 0.889zM17.072 24.1h-3.846v2.121c0 0.449 0.184 0.856 0.479 1.151s0.704 0.479 1.151 0.479h2.282c0.448 0 0.856-0.184 1.151-0.479s0.479-0.704 0.479-1.151v-2.121h-1.698z"></path>
</svg>
