<!-- Generated by IcoMoon.io -->
<svg version="1.1" xmlns="http://www.w3.org/2000/svg" width="32" height="32" viewBox="0 0 32 32">
<path d="M23.41 10.638h-0.805c-0.050 0-0.091-0.041-0.091-0.091s0.041-0.091 0.091-0.091h0.805c0.050 0 0.091 0.041 0.091 0.091s-0.041 0.091-0.091 0.091zM5.148 9.737c0.385-0.127 0.894-0.304 1.436-0.534s1.118-0.513 1.632-0.849c0.096-0.063 0.655-0.375 1.271-0.512 0.314-0.069 0.643-0.094 0.928-0.015-0.056 0.083-0.115 0.174-0.164 0.251-0.028 0.044-0.053 0.083-0.075 0.115-0.009 0.013-0.006 0.032 0.007 0.041 0.032 0.022 0.097 0.032 0.168 0.031 0.046-0.001 0.096-0.007 0.14-0.016-0.032 0.069-0.102 0.196-0.201 0.338-0.080 0.114-0.18 0.233-0.295 0.336-0.004 0.003-0.007 0.009-0.009 0.015-0.004 0.016 0.004 0.034 0.021 0.038 0.027 0.007 0.029 0.007 0.108 0.007 0.035 0 0.088-0.002 0.187-0.002-0.022 0.121-0.206 0.339-0.352 0.51-0.043 0.052-0.083 0.097-0.115 0.137-0.004 0.006-0.006 0.012-0.006 0.019 0 0.016 0.013 0.031 0.031 0.031h0.265c-0.034 0.050-0.121 0.146-0.198 0.229-0.027 0.030-0.052 0.056-0.071 0.078-0.006 0.006-0.009 0.013-0.009 0.022 0 0.016 0.013 0.031 0.031 0.031 0.031 0 0.125-0.022 0.221-0.044 0.069-0.016 0.139-0.032 0.184-0.040-0.027 0.074-0.111 0.242-0.234 0.408-0.090 0.122-0.201 0.242-0.323 0.319-0.010 0.006-0.018 0.018-0.016 0.030 0.001 0.007 0.004 0.015 0.010 0.021 0.021 0.035 0.090 0.155 0.422 0.075-0.083 0.234-0.201 0.351-0.316 0.465-0.059 0.059-0.117 0.116-0.171 0.189-0.004 0.006-0.007 0.012-0.007 0.021 0 0.016 0.013 0.031 0.031 0.031 0.058 0 0.112-0.004 0.165-0.015 0.040-0.007 0.078-0.019 0.117-0.034-0.006 0.084-0.046 0.173-0.117 0.27-0.086 0.118-0.217 0.246-0.389 0.388-0.012 0.009-0.016 0.024-0.010 0.037 0.004 0.012 0.016 0.019 0.030 0.019 0.057 0.021 0.329 0.119 0.848-0.252l-0.007 0.019c-0.021 0.052-0.041 0.103-0.049 0.186v0.004c0 0.016 0.013 0.031 0.031 0.031 0.251 0 0.327-0.056 0.447-0.145 0.030-0.022 0.062-0.046 0.1-0.069 0.006 0.201 0.025 0.877-0.031 1.225v0.004c0 0.016 0.013 0.031 0.030 0.031l0.442 0.004c0.016-0.003 0.028-0.019 0.025-0.035-0.027-0.146-0.043-0.398-0.050-0.644-0.009-0.277-0.012-0.541-0.009-0.624 0.115 0.099 0.214 0.142 0.322 0.15 0.115 0.010 0.236-0.019 0.394-0.060 0.003 0 0.004-0.001 0.007-0.003 0.015-0.007 0.022-0.025 0.015-0.041-0.021-0.044-0.052-0.084-0.081-0.122-0.016-0.021-0.032-0.043-0.046-0.063 0.142 0.111 0.435 0.317 0.683 0.317 0.006 0 0.013-0.001 0.018-0.006 0.013-0.010 0.016-0.030 0.006-0.043-0.065-0.087-0.115-0.178-0.153-0.271-0.034-0.083-0.058-0.168-0.072-0.252 0.060 0.018 0.127 0.010 0.19 0.001 0.025-0.003 0.052-0.006 0.072-0.007h0.003c0.016-0.001 0.030-0.016 0.028-0.032s-0.016-0.029-0.032-0.028c-0.037 0.003-0.159-0.189-0.276-0.397-0.103-0.183-0.198-0.376-0.226-0.462 0.047-0.001 0.099-0.006 0.147-0.016 0.063-0.013 0.125-0.037 0.177-0.077 0.004-0.003 0.009-0.007 0.012-0.013 0.007-0.016 0-0.034-0.016-0.040-0.087-0.038-0.198-0.152-0.301-0.288-0.108-0.143-0.205-0.31-0.258-0.439 0.069-0.001 0.118-0.006 0.186-0.010l0.046-0.004 0.006-0.002c0.016-0.004 0.027-0.021 0.022-0.037-0.004-0.015-0.018-0.031-0.038-0.055-0.037-0.043-0.096-0.114-0.127-0.202h0.173c0.004 0 0.009-0.002 0.013-0.003 0.015-0.007 0.021-0.027 0.013-0.041-0.018-0.035-0.055-0.072-0.103-0.119-0.087-0.086-0.211-0.208-0.304-0.414 0.030 0 0.059-0.001 0.088-0.004s0.057-0.006 0.086-0.013c0.071 0.046 0.145 0.097 0.224 0.158 0.133 0.1 0.279 0.229 0.456 0.404 0.018 0.018 0.105 0.088 0.227 0.181 0.004 0.004 0.009 0.007 0.013 0.010 0.124 0.093 0.282 0.206 0.439 0.307 0.183 0.118 0.37 0.221 0.509 0.262 0.049 0.015 0.1-0.013 0.114-0.062 0.015-0.049-0.013-0.1-0.062-0.114-0.121-0.035-0.29-0.131-0.462-0.24-0.102-0.065-0.202-0.134-0.292-0.199 0.36-0.121 0.801-0.279 1.267-0.476 0.543-0.23 1.118-0.513 1.633-0.849 0.111-0.072 0.838-0.476 1.559-0.56 0.38-0.044 0.756 0.003 1.028 0.24 0.389 0.339 0.646 0.494 0.886 0.639l0.062 0.037c-0.046 0.037-0.093 0.074-0.14 0.112-0.481 0.383-1.018 0.813-1.696 1.172-0.044 0.024-0.062 0.080-0.038 0.124s0.080 0.062 0.124 0.038c0.693-0.369 1.237-0.802 1.724-1.192 0.294-0.234 0.566-0.453 0.836-0.627 0.034 0.035 0.080 0.066 0.175 0.047-0.019 0.024-0.040 0.052-0.062 0.080-0.109 0.143-0.257 0.336-0.432 0.476-0.013 0.010-0.015 0.030-0.004 0.043 0.004 0.006 0.010 0.009 0.016 0.010 0.044 0.015 0.090 0.022 0.136 0.027 0.030 0.003 0.059 0.004 0.088 0.004-0.093 0.206-0.217 0.329-0.304 0.414-0.047 0.047-0.086 0.084-0.103 0.119-0.007 0.015-0.002 0.034 0.013 0.041 0.004 0.001 0.009 0.003 0.013 0.003h0.173c-0.032 0.090-0.091 0.159-0.127 0.202-0.019 0.024-0.034 0.040-0.038 0.055-0.004 0.016 0.006 0.032 0.022 0.037l0.006 0.002 0.046 0.004c0.069 0.006 0.118 0.010 0.187 0.010-0.053 0.13-0.15 0.296-0.258 0.44-0.103 0.136-0.212 0.249-0.301 0.288-0.016 0.007-0.022 0.025-0.016 0.040 0.003 0.006 0.006 0.010 0.012 0.013 0.052 0.040 0.114 0.063 0.177 0.077 0.049 0.010 0.1 0.015 0.147 0.016-0.028 0.084-0.122 0.277-0.226 0.462-0.116 0.206-0.239 0.398-0.276 0.397-0.018-0.001-0.032 0.012-0.032 0.028-0.001 0.016 0.012 0.031 0.028 0.032h0.003c0.022 0.001 0.047 0.004 0.072 0.007 0.063 0.007 0.13 0.016 0.19-0.001-0.015 0.084-0.038 0.17-0.072 0.252-0.038 0.093-0.088 0.184-0.153 0.271-0.010 0.013-0.007 0.032 0.006 0.043 0.006 0.004 0.012 0.006 0.018 0.006 0.248 0 0.541-0.206 0.683-0.317-0.013 0.021-0.030 0.041-0.046 0.063-0.029 0.038-0.060 0.078-0.081 0.122-0.007 0.015 0 0.034 0.015 0.041 0.003 0.002 0.004 0.002 0.007 0.003 0.159 0.041 0.279 0.071 0.394 0.060 0.108-0.009 0.206-0.052 0.322-0.15 0.003 0.083 0 0.347-0.009 0.624-0.007 0.246-0.024 0.498-0.050 0.644-0.003 0.016 0.007 0.032 0.025 0.035h0.007l0.435-0.004c0.016 0 0.031-0.013 0.031-0.031v-0.004c-0.056-0.347-0.037-1.025-0.031-1.225 0.038 0.025 0.071 0.049 0.1 0.069 0.121 0.088 0.196 0.145 0.447 0.145 0.018 0 0.031-0.013 0.031-0.031v-0.004c-0.007-0.084-0.028-0.136-0.049-0.186l-0.007-0.019c0.519 0.37 0.79 0.273 0.848 0.252 0.012 0 0.024-0.007 0.030-0.019 0.006-0.013 0.001-0.030-0.010-0.037-0.174-0.142-0.304-0.27-0.389-0.388-0.071-0.097-0.109-0.186-0.117-0.27 0.038 0.015 0.078 0.027 0.117 0.034 0.053 0.010 0.109 0.015 0.165 0.015 0.018 0 0.031-0.013 0.031-0.031 0-0.007-0.003-0.015-0.007-0.021-0.053-0.072-0.112-0.13-0.171-0.189-0.115-0.114-0.232-0.23-0.316-0.465 0.33 0.080 0.401-0.040 0.422-0.075 0.006-0.004 0.010-0.012 0.010-0.021 0.002-0.013-0.006-0.025-0.016-0.030-0.124-0.077-0.233-0.196-0.323-0.319-0.124-0.167-0.208-0.336-0.233-0.408 0.046 0.009 0.115 0.024 0.184 0.040 0.097 0.022 0.19 0.044 0.221 0.044 0.018 0 0.031-0.013 0.031-0.031 0-0.009-0.003-0.016-0.009-0.022-0.019-0.022-0.044-0.050-0.071-0.078-0.075-0.083-0.164-0.178-0.196-0.229h0.265c0.016 0 0.031-0.013 0.031-0.031 0-0.007-0.003-0.013-0.006-0.019-0.031-0.040-0.071-0.087-0.115-0.137-0.146-0.171-0.33-0.389-0.352-0.51 0.097 0 0.15 0.002 0.187 0.002 0.078 0.001 0.083 0.001 0.108-0.007 0.016-0.004 0.025-0.022 0.021-0.038-0.001-0.006-0.004-0.010-0.009-0.015-0.115-0.103-0.214-0.223-0.295-0.336-0.1-0.142-0.17-0.268-0.201-0.338 0.044 0.010 0.093 0.015 0.14 0.016 0.071 0.002 0.136-0.009 0.168-0.031 0.013-0.009 0.016-0.028 0.007-0.041-0.022-0.032-0.047-0.072-0.075-0.115-0.081-0.124-0.186-0.288-0.264-0.392 0.050 0.002 0.115-0.004 0.148-0.052 0.14-0.022 0.285-0.031 0.422-0.009 0.136 0.021 0.265 0.071 0.378 0.164 0.14 0.115 0.308 0.217 0.491 0.329 0.274 0.167 0.584 0.354 0.885 0.644 0.037 0.035 0.094 0.034 0.13-0.001 0.035-0.037 0.034-0.094-0.001-0.13-0.314-0.304-0.634-0.498-0.917-0.67-0.175-0.106-0.336-0.205-0.469-0.314-0.14-0.117-0.301-0.178-0.468-0.204-0.162-0.025-0.33-0.016-0.49 0.010-0.006 0.002-0.013 0.003-0.019 0.006l-0.029-0.030c-0.128-0.122-0.341-0.326-0.469-0.951-0.003-0.016-0.019-0.027-0.035-0.024-0.013 0.003-0.022 0.013-0.024 0.027-0.093 0.593-0.347 0.798-0.506 0.925-0.018 0.015-0.034 0.028-0.049 0.040-0.007 0.006-0.012 0.016-0.010 0.025 0.003 0.037 0.012 0.066 0.024 0.088 0.016 0.029 0.038 0.050 0.063 0.062 0.016 0.009 0.034 0.013 0.050 0.016-0.043 0.103-0.090 0.183-0.148 0.262-0.024-0.007-0.052-0.006-0.075 0.009-0.229 0.137-0.454 0.302-0.687 0.485-0.037-0.024-0.080-0.047-0.121-0.074-0.234-0.14-0.484-0.29-0.86-0.619-0.319-0.277-0.743-0.333-1.169-0.285-0.758 0.088-1.522 0.513-1.638 0.59-0.506 0.33-1.071 0.608-1.603 0.833-0.513 0.217-1 0.388-1.377 0.513-0.096-0.072-0.162-0.127-0.175-0.142-0.183-0.183-0.336-0.314-0.473-0.419s-0.26-0.183-0.383-0.258c-0.027-0.016-0.058-0.018-0.084-0.006-0.091-0.1-0.171-0.205-0.237-0.291-0.022-0.030-0.043-0.056-0.062-0.080 0.111 0.022 0.153-0.024 0.19-0.063l0.012-0.013c0.010-0.010 0.012-0.028 0.003-0.041l-0.019-0.024c-0.112-0.14-0.196-0.245-0.264-0.413 0.016-0.001 0.034-0.007 0.050-0.016 0.024-0.013 0.047-0.032 0.063-0.062 0.013-0.024 0.022-0.053 0.024-0.090 0-0.009-0.003-0.019-0.010-0.025-0.015-0.012-0.031-0.027-0.049-0.040-0.159-0.127-0.413-0.332-0.506-0.925-0.002-0.013-0.010-0.024-0.024-0.027-0.016-0.003-0.032 0.007-0.035 0.024-0.13 0.625-0.342 0.829-0.469 0.951-0.049 0.047-0.086 0.083-0.105 0.127-0.003 0.004-0.003 0.010-0.003 0.016 0.001 0.022 0.007 0.040 0.016 0.053-0.292-0.059-0.611-0.031-0.914 0.035-0.646 0.143-1.231 0.47-1.333 0.537-0.506 0.33-1.071 0.608-1.603 0.835-0.534 0.226-1.038 0.401-1.422 0.528-0.049 0.016-0.075 0.068-0.059 0.117s0.068 0.075 0.116 0.059l-0.016 0zM9.432 15.503c0.031-0.004 0.060-0.007 0.087-0.009h0.003l0.004-0.001c0.015-0.003 0.025-0.018 0.024-0.032-0.002-0.016-0.015-0.028-0.029-0.028h-0.003c-0.047 0.003-0.196-0.227-0.336-0.476-0.127-0.224-0.243-0.462-0.273-0.56 0.059-0.002 0.122-0.007 0.183-0.019 0.075-0.016 0.147-0.044 0.209-0.091 0.004-0.003 0.009-0.007 0.012-0.013 0.007-0.016 0-0.034-0.016-0.040-0.105-0.046-0.239-0.181-0.361-0.345-0.131-0.174-0.251-0.378-0.313-0.534 0.087-0.001 0.146-0.006 0.23-0.013l0.055-0.004 0.006-0.002c0.016-0.004 0.027-0.021 0.022-0.037s-0.021-0.035-0.044-0.063c-0.044-0.053-0.118-0.14-0.156-0.252h0.215c0.004 0 0.009-0.001 0.013-0.003 0.015-0.007 0.021-0.027 0.013-0.041-0.021-0.043-0.065-0.086-0.122-0.142-0.105-0.103-0.257-0.252-0.369-0.506 0.038 0 0.075-0.001 0.115-0.006 0.055-0.004 0.108-0.015 0.161-0.031 0.006-0.001 0.012-0.004 0.016-0.010 0.010-0.013 0.009-0.032-0.004-0.043-0.209-0.168-0.386-0.4-0.518-0.571-0.031-0.040-0.059-0.077-0.084-0.109 0.142 0.034 0.193-0.022 0.239-0.071l0.015-0.016c0.010-0.010 0.012-0.028 0.002-0.041l-0.022-0.028c-0.136-0.171-0.237-0.296-0.32-0.501 0.021-0.001 0.044-0.007 0.065-0.019 0.028-0.015 0.053-0.038 0.072-0.072 0.015-0.028 0.025-0.062 0.028-0.105 0-0.009-0.003-0.019-0.010-0.025-0.018-0.015-0.037-0.031-0.059-0.047-0.19-0.153-0.496-0.398-0.606-1.109-0.002-0.013-0.010-0.024-0.024-0.027-0.016-0.003-0.032 0.007-0.035 0.024-0.155 0.749-0.41 0.994-0.563 1.14-0.058 0.056-0.102 0.097-0.124 0.15-0.003 0.004-0.003 0.010-0.003 0.016 0.013 0.125 0.13 0.131 0.208 0.128-0.093 0.124-0.223 0.326-0.323 0.478-0.034 0.052-0.063 0.099-0.090 0.137-0.010 0.013-0.007 0.032 0.007 0.043 0.037 0.027 0.114 0.037 0.198 0.035 0.059-0.001 0.122-0.009 0.177-0.022-0.037 0.080-0.121 0.239-0.246 0.416-0.096 0.136-0.215 0.279-0.352 0.403-0.004 0.003-0.007 0.009-0.009 0.015-0.004 0.016 0.004 0.034 0.021 0.038 0.031 0.009 0.034 0.009 0.127 0.007 0.044 0 0.111-0.001 0.23-0.001-0.022 0.146-0.246 0.411-0.423 0.619-0.052 0.060-0.099 0.116-0.137 0.165-0.004 0.006-0.007 0.012-0.007 0.019 0 0.016 0.013 0.031 0.031 0.031l0.327 0.001c-0.035 0.059-0.146 0.18-0.242 0.283-0.032 0.035-0.062 0.068-0.086 0.094-0.006 0.006-0.009 0.013-0.009 0.022 0 0.018 0.013 0.031 0.031 0.031 0.035 0 0.149-0.027 0.264-0.052 0.087-0.021 0.177-0.041 0.232-0.050-0.028 0.084-0.131 0.293-0.283 0.5-0.108 0.146-0.24 0.289-0.389 0.382-0.010 0.006-0.018 0.018-0.016 0.031 0.002 0.009 0.006 0.016 0.012 0.022 0.024 0.041 0.108 0.183 0.507 0.084-0.1 0.289-0.242 0.431-0.382 0.568-0.071 0.069-0.14 0.139-0.204 0.226-0.004 0.006-0.007 0.012-0.007 0.021 0 0.018 0.013 0.031 0.031 0.031 0.068 0 0.133-0.006 0.198-0.018 0.050-0.010 0.099-0.024 0.147-0.044-0.006 0.103-0.053 0.215-0.14 0.335-0.103 0.142-0.26 0.295-0.469 0.466-0.010 0.009-0.015 0.024-0.009 0.037s0.018 0.019 0.031 0.018c0.003 0 0.006-0.002 0.009-0.003 0.010-0.004-0.010 0.004-0.010 0.004 0.069 0.025 0.397 0.142 1.025-0.313-0.006 0.015-0.010 0.028-0.016 0.041-0.025 0.061-0.050 0.122-0.058 0.221v0.004c0 0.018 0.013 0.031 0.031 0.031 0.298 0 0.388-0.066 0.531-0.171 0.038-0.028 0.080-0.058 0.128-0.090v0.012c0.007 0.239 0.029 1.050-0.038 1.466v0.004c0 0.016 0.013 0.031 0.030 0.031l0.528 0.006c0.016-0.003 0.028-0.019 0.025-0.035-0.032-0.174-0.052-0.478-0.060-0.771-0.010-0.341-0.013-0.665-0.009-0.757 0.139 0.121 0.258 0.174 0.388 0.184 0.136 0.012 0.28-0.024 0.469-0.072 0.003 0 0.004-0.001 0.007-0.003 0.015-0.007 0.022-0.025 0.015-0.041-0.024-0.052-0.060-0.099-0.096-0.145-0.027-0.035-0.055-0.069-0.072-0.103 0.156 0.124 0.529 0.398 0.839 0.398 0.006 0 0.013-0.002 0.018-0.006 0.013-0.010 0.016-0.029 0.006-0.043-0.078-0.105-0.139-0.214-0.184-0.326-0.041-0.103-0.071-0.208-0.088-0.313 0.074 0.025 0.156 0.015 0.234 0.006l0.003-0.003zM23.761 10.675c-0.007 0.006-0.012 0.016-0.010 0.025 0.003 0.043 0.013 0.077 0.028 0.105 0.019 0.034 0.046 0.057 0.072 0.072 0.022 0.012 0.044 0.018 0.065 0.019-0.083 0.205-0.183 0.332-0.32 0.501l-0.022 0.028c-0.010 0.012-0.009 0.030 0.002 0.041 0.004 0.004 0.010 0.010 0.015 0.016 0.044 0.049 0.097 0.105 0.239 0.071-0.025 0.032-0.053 0.069-0.084 0.109-0.13 0.171-0.307 0.403-0.518 0.571-0.013 0.010-0.015 0.030-0.004 0.043 0.004 0.006 0.010 0.009 0.016 0.010 0.053 0.018 0.106 0.027 0.161 0.031 0.038 0.003 0.077 0.004 0.115 0.006-0.112 0.252-0.262 0.401-0.369 0.506-0.056 0.056-0.1 0.099-0.122 0.142-0.007 0.015-0.002 0.034 0.013 0.041 0.004 0.003 0.009 0.003 0.013 0.003h0.215c-0.038 0.112-0.112 0.199-0.156 0.252-0.024 0.028-0.040 0.047-0.044 0.063s0.006 0.032 0.022 0.037l0.006 0.001 0.055 0.004c0.086 0.007 0.145 0.012 0.232 0.013-0.063 0.158-0.183 0.36-0.313 0.534-0.124 0.164-0.257 0.301-0.361 0.345-0.016 0.007-0.022 0.025-0.016 0.040 0.003 0.006 0.006 0.010 0.012 0.013 0.062 0.047 0.134 0.075 0.209 0.091 0.062 0.013 0.124 0.018 0.183 0.019-0.029 0.099-0.146 0.336-0.273 0.56-0.14 0.249-0.289 0.481-0.336 0.476h-0.003c-0.015 0-0.028 0.012-0.029 0.028-0.002 0.015 0.009 0.030 0.024 0.032l0.004 0.002h0.003c0.027 0.001 0.056 0.004 0.087 0.009 0.078 0.009 0.161 0.019 0.234-0.006-0.018 0.105-0.047 0.209-0.088 0.313-0.046 0.112-0.106 0.221-0.184 0.326-0.010 0.013-0.007 0.032 0.006 0.043 0.006 0.004 0.012 0.006 0.018 0.006 0.31 0 0.681-0.274 0.838-0.398-0.019 0.034-0.046 0.068-0.072 0.103-0.035 0.046-0.072 0.093-0.096 0.145-0.007 0.015 0 0.034 0.015 0.041 0.003 0.001 0.004 0.001 0.007 0.003 0.189 0.049 0.333 0.084 0.469 0.072 0.13-0.012 0.249-0.063 0.388-0.184 0.006 0.091 0.003 0.416-0.009 0.757-0.009 0.293-0.028 0.597-0.060 0.771-0.003 0.016 0.007 0.032 0.025 0.035h0.007l0.521-0.006c0.016 0 0.031-0.013 0.031-0.031v-0.004c-0.068-0.416-0.044-1.225-0.038-1.466v-0.012c0.050 0.032 0.091 0.063 0.128 0.090 0.143 0.105 0.233 0.171 0.531 0.171 0.016 0 0.031-0.013 0.031-0.031v-0.004c-0.009-0.099-0.034-0.161-0.057-0.221-0.006-0.013-0.012-0.028-0.016-0.041 0.628 0.454 0.955 0.338 1.025 0.313-0.001 0-0.019-0.009-0.009-0.004 0.003 0.001 0.006 0.001 0.009 0.003l0.002 0.002 0.004-0.002c0.012 0 0.022-0.007 0.027-0.018 0.006-0.013 0.001-0.028-0.009-0.037-0.208-0.17-0.366-0.324-0.469-0.466-0.087-0.121-0.136-0.232-0.14-0.335 0.049 0.019 0.097 0.034 0.147 0.044 0.063 0.013 0.128 0.018 0.198 0.018 0.016 0 0.031-0.013 0.031-0.031 0-0.007-0.003-0.015-0.007-0.021-0.063-0.087-0.134-0.156-0.203-0.226-0.139-0.139-0.282-0.28-0.382-0.568 0.401 0.099 0.483-0.043 0.507-0.084 0.006-0.006 0.010-0.013 0.012-0.022 0.002-0.013-0.006-0.025-0.016-0.031-0.149-0.093-0.28-0.236-0.389-0.382-0.152-0.206-0.255-0.416-0.283-0.5 0.054 0.009 0.143 0.029 0.231 0.050 0.115 0.027 0.227 0.052 0.264 0.052 0.016 0 0.031-0.013 0.031-0.031 0-0.009-0.003-0.016-0.009-0.022-0.024-0.027-0.053-0.059-0.086-0.094-0.094-0.103-0.205-0.226-0.242-0.283l0.327-0.002c0.016 0 0.031-0.013 0.031-0.031 0-0.007-0.003-0.013-0.006-0.019-0.038-0.047-0.086-0.103-0.137-0.164-0.177-0.208-0.402-0.473-0.423-0.619 0.119 0 0.186 0.001 0.23 0.001 0.093 0.002 0.097 0.002 0.127-0.007 0.016-0.004 0.025-0.022 0.021-0.038-0.002-0.006-0.006-0.012-0.010-0.016-0.137-0.124-0.257-0.267-0.351-0.401-0.125-0.175-0.209-0.335-0.246-0.416 0.054 0.013 0.118 0.021 0.177 0.022 0.083 0.001 0.159-0.009 0.196-0.035 0.013-0.009 0.016-0.028 0.007-0.041-0.025-0.038-0.056-0.086-0.090-0.137-0.099-0.153-0.23-0.354-0.323-0.479 0.078 0.003 0.195-0.004 0.208-0.128 0-0.006 0-0.012-0.003-0.016-0.022-0.053-0.066-0.094-0.124-0.15-0.153-0.148-0.409-0.391-0.563-1.14-0.003-0.016-0.019-0.027-0.035-0.024-0.013 0.003-0.022 0.013-0.024 0.027-0.11 0.711-0.416 0.957-0.606 1.109-0.021 0.018-0.041 0.032-0.059 0.047l-0.001 0.001zM25.383 10.638h0.733c0.050 0 0.091-0.041 0.091-0.091s-0.041-0.091-0.091-0.091h-0.733c-0.050 0-0.091 0.041-0.091 0.091s0.041 0.091 0.091 0.091zM31.026 21.315l0.003 0.002c0.015 0.004 0.031-0.003 0.037-0.018 0.006-0.013 0.002-0.028-0.010-0.037-0.276-0.226-0.485-0.429-0.621-0.616-0.121-0.167-0.185-0.32-0.189-0.465 0.070 0.028 0.137 0.049 0.208 0.063 0.084 0.016 0.169 0.024 0.258 0.024 0.018 0 0.031-0.013 0.031-0.031 0-0.007-0.003-0.015-0.007-0.021-0.084-0.114-0.175-0.205-0.268-0.298-0.187-0.186-0.379-0.378-0.513-0.773 0.538 0.137 0.646-0.049 0.678-0.103 0.007-0.006 0.013-0.015 0.014-0.025 0.002-0.013-0.006-0.024-0.016-0.029-0.198-0.122-0.375-0.313-0.518-0.507-0.211-0.286-0.35-0.577-0.381-0.68 0.069 0.010 0.196 0.040 0.322 0.068 0.152 0.035 0.299 0.069 0.346 0.069 0.016 0 0.031-0.013 0.031-0.031 0-0.009-0.003-0.016-0.009-0.022-0.035-0.040-0.074-0.081-0.113-0.125l-0.002-0.002c-0.133-0.145-0.288-0.314-0.326-0.389l0.448-0.002c0.016 0 0.031-0.013 0.031-0.031 0-0.007-0.003-0.015-0.007-0.021-0.050-0.062-0.112-0.136-0.18-0.215-0.239-0.282-0.544-0.642-0.563-0.835 0.162 0 0.255 0.001 0.316 0.001 0.122 0.002 0.127 0.002 0.165-0.010 0.017-0.004 0.025-0.022 0.021-0.038-0.002-0.006-0.006-0.012-0.010-0.016-0.183-0.164-0.339-0.354-0.466-0.532-0.174-0.246-0.29-0.469-0.335-0.569 0.075 0.021 0.167 0.032 0.251 0.034 0.107 0.003 0.208-0.012 0.254-0.046 0.013-0.009 0.016-0.028 0.007-0.041-0.034-0.050-0.074-0.112-0.119-0.183-0.136-0.209-0.316-0.487-0.438-0.649 0.099 0.006 0.269 0.007 0.285-0.159 0-0.006 0-0.012-0.003-0.016-0.030-0.068-0.087-0.122-0.162-0.196-0.204-0.195-0.541-0.519-0.748-1.513-0.003-0.016-0.019-0.027-0.036-0.024-0.013 0.003-0.022 0.013-0.023 0.027-0.147 0.944-0.553 1.27-0.805 1.473-0.028 0.022-0.055 0.043-0.078 0.063-0.007 0.006-0.012 0.016-0.010 0.025 0.003 0.055 0.016 0.099 0.035 0.133 0.023 0.044 0.057 0.074 0.091 0.091 0.032 0.018 0.066 0.024 0.096 0.024-0.111 0.28-0.245 0.45-0.429 0.678l-0.030 0.037c-0.010 0.012-0.009 0.030 0.002 0.041 0.006 0.006 0.013 0.013 0.021 0.022 0.061 0.065 0.13 0.142 0.335 0.083-0.038 0.047-0.082 0.105-0.13 0.168-0.173 0.226-0.407 0.532-0.686 0.757-0.013 0.010-0.015 0.029-0.004 0.043 0.004 0.006 0.010 0.009 0.016 0.010 0.069 0.022 0.14 0.034 0.211 0.041 0.056 0.004 0.111 0.007 0.165 0.007-0.149 0.344-0.354 0.546-0.496 0.684-0.074 0.074-0.133 0.13-0.159 0.184-0.007 0.015-0.001 0.034 0.013 0.041 0.005 0.001 0.009 0.003 0.013 0.003h0.298c-0.049 0.156-0.15 0.277-0.212 0.35-0.030 0.035-0.052 0.060-0.056 0.080-0.004 0.016 0.006 0.032 0.022 0.037l0.006 0.001 0.073 0.006c0.116 0.010 0.196 0.016 0.318 0.018-0.083 0.211-0.243 0.487-0.42 0.723-0.164 0.217-0.341 0.4-0.482 0.46-0.016 0.007-0.022 0.025-0.016 0.040 0.003 0.006 0.006 0.010 0.012 0.013 0.080 0.062 0.175 0.097 0.274 0.119 0.084 0.018 0.171 0.025 0.254 0.027-0.034 0.124-0.192 0.448-0.364 0.755-0.187 0.332-0.386 0.64-0.453 0.636h-0.003c-0.016 0-0.030 0.012-0.031 0.028s0.010 0.031 0.025 0.032h0.007c0.035 0.002 0.077 0.006 0.117 0.012 0.107 0.013 0.221 0.027 0.321-0.012-0.024 0.145-0.063 0.291-0.121 0.432-0.061 0.149-0.14 0.293-0.245 0.432-0.010 0.013-0.007 0.032 0.006 0.043 0.006 0.004 0.012 0.006 0.018 0.006 0.429 0 0.954-0.404 1.135-0.552-0.023 0.059-0.068 0.116-0.115 0.177s-0.094 0.122-0.125 0.19c-0.007 0.015 0 0.034 0.015 0.041 0.003 0.001 0.005 0.001 0.007 0.003 0.249 0.065 0.439 0.111 0.618 0.096 0.173-0.015 0.332-0.086 0.519-0.252 0.010 0.106 0.010 0.541-0.003 1-0.012 0.381-0.035 0.773-0.078 1.003-0.003 0.016 0.007 0.032 0.025 0.035h0.007l0.675-0.018c0.016 0 0.031-0.015 0.030-0.031v-0.004c-0.089-0.546-0.055-1.569-0.043-1.886l0.001-0.040c0.074 0.047 0.133 0.090 0.186 0.13 0.187 0.137 0.305 0.224 0.696 0.224 0.016 0 0.031-0.013 0.031-0.031v-0.004c-0.010-0.13-0.044-0.209-0.077-0.289-0.012-0.028-0.022-0.056-0.033-0.086 0.844 0.621 1.282 0.465 1.373 0.432v-0.001c-0.003-0.003-0.012-0.007-0.005-0.004l-0.002 0.002zM6.646 10.547c0-0.050-0.041-0.091-0.091-0.091h-1.063c-0.050 0-0.091 0.041-0.091 0.091s0.041 0.091 0.091 0.091h1.063c0.050 0 0.091-0.041 0.091-0.091zM3.148 20.912l0.001 0.040c0.010 0.317 0.046 1.34-0.043 1.886v0.004c0 0.016 0.013 0.031 0.030 0.031l0.683 0.018c0.016-0.003 0.028-0.019 0.025-0.035-0.043-0.23-0.066-0.622-0.078-1.003-0.013-0.457-0.013-0.894-0.003-1 0.187 0.167 0.347 0.237 0.519 0.252 0.178 0.015 0.369-0.031 0.618-0.096 0.003 0 0.004-0.002 0.007-0.003 0.015-0.007 0.022-0.025 0.015-0.041-0.031-0.068-0.080-0.13-0.127-0.19s-0.093-0.119-0.115-0.177c0.181 0.147 0.705 0.552 1.136 0.552 0.006 0 0.013-0.001 0.018-0.006 0.013-0.010 0.016-0.029 0.006-0.043-0.105-0.139-0.184-0.285-0.245-0.432-0.058-0.142-0.097-0.288-0.121-0.432 0.1 0.040 0.214 0.025 0.322 0.012 0.041-0.004 0.081-0.010 0.116-0.012h0.007c0.016-0.003 0.027-0.018 0.025-0.032-0.001-0.016-0.015-0.028-0.031-0.028h-0.003c-0.066 0.004-0.267-0.304-0.453-0.636-0.173-0.307-0.33-0.631-0.364-0.755 0.081-0.002 0.168-0.009 0.254-0.027 0.099-0.021 0.193-0.058 0.274-0.119 0.004-0.003 0.009-0.007 0.012-0.013 0.007-0.016 0-0.034-0.016-0.040-0.142-0.060-0.319-0.242-0.482-0.46-0.177-0.236-0.338-0.512-0.42-0.723 0.122-0.001 0.202-0.007 0.32-0.018l0.072-0.006 0.006-0.001c0.016-0.004 0.027-0.021 0.022-0.037-0.006-0.019-0.027-0.044-0.056-0.080-0.062-0.072-0.164-0.193-0.212-0.35h0.298c0.004 0 0.009-0.001 0.013-0.003 0.015-0.007 0.021-0.027 0.013-0.041-0.027-0.055-0.086-0.111-0.159-0.184-0.142-0.14-0.347-0.341-0.495-0.684 0.055 0 0.109-0.001 0.165-0.007 0.071-0.006 0.142-0.018 0.211-0.041 0.006-0.001 0.012-0.004 0.016-0.010 0.010-0.013 0.009-0.032-0.004-0.043-0.279-0.224-0.512-0.531-0.686-0.757-0.049-0.063-0.091-0.119-0.13-0.168 0.204 0.059 0.274-0.018 0.335-0.083 0.007-0.007 0.015-0.015 0.021-0.022 0.010-0.010 0.012-0.028 0.002-0.041l-0.030-0.037c-0.184-0.23-0.319-0.398-0.429-0.678 0.029 0 0.063-0.007 0.096-0.024 0.035-0.018 0.068-0.049 0.091-0.091 0.019-0.035 0.032-0.080 0.035-0.134 0-0.009-0.003-0.019-0.010-0.025-0.024-0.019-0.050-0.041-0.078-0.063-0.252-0.204-0.659-0.529-0.805-1.473-0.001-0.013-0.010-0.024-0.024-0.027-0.016-0.003-0.032 0.007-0.035 0.024-0.205 0.992-0.544 1.317-0.748 1.513-0.075 0.072-0.134 0.128-0.162 0.196-0.003 0.004-0.003 0.010-0.003 0.016 0.016 0.167 0.186 0.165 0.285 0.159-0.124 0.162-0.302 0.439-0.438 0.649-0.046 0.071-0.086 0.133-0.119 0.183-0.009 0.013-0.006 0.032 0.007 0.041 0.047 0.034 0.146 0.047 0.254 0.046 0.084-0.001 0.175-0.013 0.252-0.034-0.044 0.1-0.159 0.323-0.335 0.569-0.127 0.18-0.285 0.37-0.469 0.534-0.004 0.003-0.007 0.009-0.009 0.015-0.004 0.016 0.004 0.034 0.021 0.038 0.038 0.012 0.044 0.012 0.165 0.010 0.060-0.001 0.153-0.001 0.316-0.001-0.019 0.193-0.324 0.553-0.563 0.835-0.068 0.080-0.13 0.153-0.18 0.215-0.004 0.006-0.007 0.013-0.007 0.021 0 0.018 0.013 0.031 0.031 0.031l0.448 0.002c-0.040 0.075-0.195 0.246-0.327 0.391-0.041 0.046-0.083 0.090-0.114 0.125-0.006 0.006-0.009 0.013-0.009 0.022 0 0.016 0.013 0.031 0.031 0.031 0.046 0 0.195-0.034 0.347-0.069 0.124-0.028 0.251-0.058 0.322-0.068-0.031 0.103-0.17 0.394-0.38 0.68-0.143 0.195-0.32 0.385-0.518 0.507-0.010 0.006-0.016 0.018-0.016 0.029 0.002 0.010 0.007 0.019 0.016 0.024 0.030 0.055 0.139 0.24 0.677 0.103-0.133 0.395-0.326 0.585-0.513 0.773-0.093 0.091-0.184 0.183-0.268 0.298-0.004 0.006-0.007 0.012-0.007 0.021 0 0.018 0.013 0.031 0.031 0.031 0.090 0 0.174-0.007 0.258-0.024 0.069-0.013 0.139-0.034 0.208-0.063-0.003 0.143-0.068 0.296-0.189 0.465-0.136 0.187-0.345 0.392-0.621 0.616-0.012 0.009-0.016 0.024-0.010 0.037 0.006 0.015 0.022 0.022 0.037 0.018l0.003-0.001c0.007-0.003-0.001 0.001-0.004 0.004 0 0-0.001 0.001 0 0.001 0.091 0.032 0.528 0.19 1.373-0.432-0.010 0.030-0.022 0.058-0.032 0.086-0.032 0.080-0.065 0.161-0.077 0.289v0.004c0 0.016 0.013 0.031 0.031 0.031 0.391 0 0.509-0.087 0.696-0.224 0.053-0.040 0.114-0.083 0.186-0.13l-0.002 0.001zM9.396 10.638c0.050 0 0.091-0.041 0.091-0.091s-0.041-0.091-0.091-0.091h-0.867c-0.050 0-0.091 0.041-0.091 0.091s0.041 0.091 0.091 0.091h0.867zM17.647 10.731l11.047 15.241h-1.915l-9.63-15.241h-0.217l9.63 15.241h-9.493l-0.158-2.784c0-0.052-0.041-0.093-0.091-0.093h-2.020c-0.050 0-0.091 0.041-0.091 0.093l-0.159 2.784h-9.491l9.658-15.241h-0.218l-9.658 15.241h-1.93l11.091-15.241h-0.876c-0.052 0-0.093-0.041-0.093-0.093s0.041-0.093 0.093-0.093h5.642c0.052 0 0.093 0.041 0.093 0.093s-0.041 0.093-0.093 0.093h-1.119zM16.41 14.353c0-0.004 0-0.007-0.002-0.012l-0.086-1.512c0-0.052-0.041-0.093-0.091-0.093h-0.841c-0.050 0-0.091 0.041-0.091 0.093l-0.087 1.512v0.012c0 0.050 0.041 0.091 0.091 0.091h1.015c0.050 0 0.091-0.041 0.091-0.091zM16.376 15.277h-1.13c-0.050 0-0.091 0.041-0.091 0.093l-0.112 1.963v0.012c0 0.050 0.041 0.091 0.091 0.091h1.355c0.050 0 0.091-0.041 0.091-0.091v-0.012l-0.112-1.963c0-0.052-0.041-0.093-0.091-0.093h-0.002zM16.817 21.518c0-0.004 0-0.007-0.002-0.012l-0.142-2.492c0-0.052-0.041-0.093-0.091-0.093h-1.546c-0.050 0-0.091 0.041-0.091 0.093l-0.143 2.492c0 0.004-0.001 0.007-0.001 0.012 0 0.050 0.041 0.091 0.091 0.091h1.83c0.050 0 0.091-0.041 0.091-0.091h0.003zM16.203 10.731h-0.785l-0.060 1.071c0 0.004-0.002 0.007-0.002 0.012 0 0.050 0.041 0.091 0.091 0.091h0.724c0.050 0 0.091-0.041 0.091-0.091 0-0.004 0-0.007-0.001-0.012l-0.060-1.071h0.001z"></path>
</svg>
