<?xml version="1.0" encoding="utf-8"?>
<svg version="1.1" viewBox="0 0 1200 1200" xmlns="http://www.w3.org/2000/svg" width="150pt" height="150pt">
  <path d="M 877.883 398.941 L 847.688 398.941 C 845.808 398.941 844.259 397.392 844.259 395.512 C 844.259 393.632 845.808 392.084 847.688 392.084 L 877.883 392.084 C 879.763 392.084 881.311 393.632 881.311 395.512 C 881.311 397.392 879.763 398.941 877.883 398.941 Z M 193.032 365.151 C 207.465 360.396 226.544 353.759 246.895 345.132 C 267.247 336.504 288.813 325.887 308.114 313.278 C 311.709 310.901 332.668 299.232 355.784 294.088 C 367.562 291.489 379.896 290.549 390.568 293.536 C 388.467 296.632 386.254 300.061 384.43 302.936 C 383.379 304.595 382.439 306.034 381.609 307.25 C 381.277 307.747 381.388 308.467 381.886 308.798 C 383.102 309.628 385.535 310.016 388.19 309.96 C 389.904 309.905 391.785 309.683 393.444 309.352 C 392.227 311.95 389.627 316.707 385.923 322.016 C 382.936 326.274 379.176 330.753 374.862 334.625 C 374.696 334.735 374.586 334.956 374.531 335.177 C 374.365 335.785 374.696 336.45 375.305 336.615 C 376.301 336.892 376.41 336.892 379.342 336.892 C 380.669 336.892 382.66 336.836 386.365 336.836 C 385.535 341.372 378.623 349.555 373.148 355.971 C 371.544 357.907 370.051 359.621 368.835 361.114 C 368.669 361.336 368.613 361.556 368.613 361.833 C 368.613 362.441 369.111 362.995 369.775 362.995 L 379.73 362.995 C 378.457 364.874 375.194 368.469 372.319 371.566 C 371.324 372.672 370.383 373.667 369.664 374.498 C 369.443 374.718 369.332 374.995 369.332 375.327 C 369.332 375.935 369.831 376.488 370.494 376.488 C 371.655 376.488 375.194 375.658 378.789 374.829 C 381.388 374.221 383.987 373.613 385.701 373.336 C 384.706 376.101 381.554 382.405 376.909 388.654 C 373.535 393.243 369.388 397.723 364.797 400.598 C 364.41 400.82 364.133 401.263 364.189 401.705 C 364.244 401.982 364.355 402.257 364.577 402.479 C 365.351 403.807 367.95 408.286 380.392 405.3 C 377.295 414.092 372.871 418.46 368.558 422.72 C 366.346 424.932 364.189 427.088 362.143 429.798 C 361.977 430.02 361.866 430.241 361.866 430.572 C 361.866 431.18 362.364 431.734 363.028 431.734 C 365.185 431.734 367.23 431.568 369.221 431.18 C 370.714 430.905 372.152 430.462 373.591 429.909 C 373.369 433.061 371.876 436.379 369.221 440.029 C 366.014 444.453 361.092 449.264 354.622 454.573 C 354.179 454.904 354.014 455.458 354.234 455.956 C 354.401 456.399 354.844 456.674 355.341 456.674 C 357.497 457.448 367.673 461.154 387.139 447.218 L 386.862 447.937 C 386.088 449.873 385.314 451.808 385.038 454.904 L 385.038 455.071 C 385.038 455.679 385.535 456.232 386.199 456.232 C 395.6 456.232 398.475 454.13 402.955 450.812 C 404.061 449.983 405.278 449.098 406.715 448.214 C 406.937 455.734 407.656 481.118 405.554 494.168 L 405.554 494.334 C 405.554 494.942 406.052 495.496 406.66 495.496 L 422.974 495.662 L 423.251 495.662 C 423.859 495.552 424.3 494.942 424.191 494.334 C 423.195 488.86 422.586 479.404 422.31 470.168 C 421.978 459.772 421.867 449.873 421.978 446.776 C 426.292 450.481 429.996 452.085 434.035 452.417 C 438.347 452.804 442.882 451.698 448.8 450.149 C 448.911 450.149 448.966 450.095 449.077 450.039 C 449.629 449.762 449.906 449.099 449.629 448.491 C 448.855 446.832 447.695 445.338 446.588 443.9 C 445.98 443.126 445.371 442.297 444.874 441.522 C 450.182 445.67 461.188 453.412 470.479 453.412 C 470.699 453.412 470.976 453.357 471.142 453.191 C 471.639 452.804 471.75 452.085 471.363 451.588 C 468.93 448.325 467.05 444.896 465.612 441.412 C 464.34 438.315 463.455 435.108 462.902 431.956 C 465.169 432.619 467.658 432.342 470.036 432.011 C 470.976 431.9 471.971 431.79 472.746 431.734 L 472.856 431.734 C 473.464 431.679 473.962 431.126 473.906 430.517 C 473.852 429.909 473.298 429.412 472.69 429.467 C 471.308 429.578 466.717 422.388 462.349 414.591 C 458.477 407.734 454.939 400.49 453.888 397.281 C 455.658 397.226 457.593 397.06 459.418 396.673 C 461.796 396.176 464.118 395.291 466.054 393.797 C 466.22 393.688 466.386 393.521 466.497 393.3 C 466.773 392.692 466.497 392.029 465.888 391.807 C 462.625 390.369 458.477 386.111 454.607 381.023 C 450.57 375.659 446.919 369.41 444.929 364.543 C 447.529 364.488 449.353 364.322 451.897 364.156 L 453.611 363.991 L 453.833 363.935 C 454.441 363.769 454.828 363.161 454.662 362.552 C 454.496 361.999 453.999 361.391 453.225 360.506 C 451.841 358.903 449.629 356.248 448.468 352.93 L 454.939 352.93 C 455.104 352.93 455.27 352.874 455.436 352.819 C 455.989 352.542 456.21 351.823 455.933 351.271 C 455.27 349.944 453.888 348.561 452.063 346.791 C 448.8 343.583 444.155 338.994 440.671 331.251 C 441.777 331.251 442.882 331.196 443.989 331.086 C 445.095 330.975 446.145 330.865 447.196 330.588 C 449.851 332.302 452.617 334.238 455.602 336.505 C 460.58 340.265 466.054 345.076 472.69 351.658 C 473.354 352.322 476.616 354.976 481.206 358.46 C 481.372 358.626 481.538 358.736 481.704 358.847 C 486.349 362.332 492.267 366.589 498.184 370.35 C 505.042 374.773 512.065 378.645 517.263 380.194 C 519.089 380.746 521.023 379.695 521.522 377.871 C 522.075 376.046 521.023 374.11 519.198 373.613 C 514.664 372.285 508.305 368.691 501.889 364.599 C 498.073 362.165 494.313 359.566 490.94 357.133 C 504.434 352.597 520.968 346.681 538.444 339.27 C 558.794 330.643 580.362 320.025 599.663 307.416 C 603.811 304.707 631.074 289.554 658.117 286.402 C 672.385 284.743 686.486 286.513 696.662 295.416 C 711.261 308.136 720.883 313.943 729.898 319.362 L 732.221 320.745 C 730.506 322.127 728.736 323.51 726.967 324.947 C 708.938 339.326 688.808 355.418 663.371 368.912 C 661.712 369.797 661.048 371.899 661.933 373.558 C 662.818 375.218 664.919 375.881 666.578 374.996 C 692.569 361.17 712.975 344.913 731.225 330.312 C 742.231 321.519 752.461 313.335 762.581 306.809 C 763.853 308.136 765.567 309.298 769.162 308.579 C 768.443 309.464 767.669 310.514 766.84 311.565 C 762.747 316.93 757.216 324.174 750.637 329.428 C 750.138 329.815 750.083 330.534 750.47 331.032 C 750.637 331.252 750.858 331.363 751.078 331.418 C 752.738 331.972 754.452 332.248 756.166 332.414 C 757.273 332.525 758.378 332.58 759.485 332.58 C 756 340.322 751.355 344.913 748.093 348.12 C 746.323 349.89 744.885 351.272 744.222 352.6 C 743.945 353.152 744.166 353.871 744.719 354.148 C 744.885 354.203 745.051 354.259 745.218 354.259 L 751.688 354.259 C 750.47 357.631 748.259 360.231 746.932 361.834 C 746.212 362.719 745.659 363.327 745.493 363.881 C 745.327 364.489 745.715 365.097 746.323 365.263 L 746.544 365.319 L 748.259 365.485 C 750.858 365.706 752.682 365.871 755.282 365.871 C 753.291 370.738 749.641 376.987 745.604 382.352 C 741.733 387.439 737.641 391.697 734.323 393.135 C 733.715 393.412 733.493 394.075 733.715 394.629 C 733.824 394.849 733.935 395.016 734.157 395.126 C 736.093 396.619 738.415 397.504 740.793 398.001 C 742.618 398.389 744.553 398.555 746.323 398.611 C 745.272 401.763 741.733 409.007 737.861 415.92 C 733.493 423.662 728.903 430.85 727.52 430.795 C 726.857 430.74 726.304 431.238 726.304 431.846 C 726.249 432.454 726.746 433.007 727.354 433.062 L 727.465 433.062 C 728.295 433.117 729.235 433.228 730.175 433.339 C 732.553 433.616 735.042 433.947 737.309 433.284 C 736.756 436.436 735.871 439.643 734.6 442.741 C 733.161 446.224 731.282 449.653 728.848 452.915 C 728.461 453.414 728.572 454.133 729.069 454.519 C 729.29 454.685 729.512 454.741 729.732 454.741 C 739.023 454.741 750.029 446.998 755.337 442.852 C 754.84 443.626 754.23 444.4 753.622 445.229 C 752.517 446.667 751.355 448.16 750.581 449.819 C 750.304 450.372 750.581 451.09 751.134 451.367 C 751.245 451.423 751.3 451.423 751.411 451.478 C 757.384 453.026 761.862 454.133 766.176 453.745 C 770.213 453.414 773.919 451.81 778.233 448.104 C 778.343 451.201 778.233 461.101 777.9 471.497 C 777.625 480.732 777.015 490.189 776.021 495.663 C 775.91 496.272 776.297 496.88 776.96 496.99 L 777.237 496.99 L 793.551 496.824 C 794.159 496.824 794.713 496.327 794.713 495.663 L 794.713 495.497 C 792.61 482.501 793.329 457.063 793.551 449.542 C 794.988 450.482 796.205 451.367 797.311 452.141 C 801.846 455.459 804.667 457.56 814.068 457.56 C 814.731 457.56 815.228 457.063 815.228 456.4 L 815.228 456.234 C 814.952 453.082 814.178 451.146 813.404 449.265 L 813.127 448.546 C 832.593 462.428 842.769 458.778 844.925 458.003 C 845.368 458.003 845.81 457.727 846.032 457.285 C 846.252 456.786 846.087 456.178 845.644 455.901 C 839.118 450.593 834.252 445.782 831.045 441.357 C 828.39 437.708 826.952 434.39 826.675 431.238 C 828.114 431.791 829.607 432.233 831.045 432.509 C 833.036 432.896 835.137 433.062 837.238 433.062 C 837.902 433.062 838.4 432.565 838.4 431.901 C 838.4 431.625 838.289 431.348 838.123 431.127 C 836.133 428.417 833.921 426.261 831.708 424.048 C 827.395 419.79 823.026 415.422 819.874 406.628 C 832.262 409.614 834.917 405.135 835.69 403.808 C 835.911 403.642 836.077 403.365 836.077 403.034 C 836.133 402.536 835.856 402.094 835.469 401.928 C 830.823 399.051 826.731 394.572 823.357 389.982 C 818.712 383.733 815.56 377.373 814.62 374.665 C 816.335 374.996 818.933 375.549 821.532 376.158 C 825.183 376.987 828.667 377.817 829.827 377.817 C 830.491 377.817 830.989 377.318 830.989 376.655 C 830.989 376.323 830.879 376.047 830.657 375.826 C 829.938 374.996 828.998 373.945 828.002 372.895 C 825.183 369.797 821.864 366.203 820.647 364.323 L 830.602 364.323 C 831.21 364.323 831.763 363.826 831.763 363.161 C 831.763 362.885 831.653 362.664 831.542 362.442 C 830.38 360.949 828.887 359.18 827.228 357.3 C 821.754 350.884 814.841 342.7 814.012 338.165 C 817.661 338.165 819.653 338.221 821.035 338.221 C 823.965 338.276 824.132 338.276 825.072 337.944 C 825.68 337.778 826.012 337.114 825.846 336.506 C 825.791 336.285 825.68 336.119 825.515 335.953 C 821.201 332.082 817.495 327.603 814.454 323.343 C 810.694 318.035 808.095 313.28 806.933 310.68 C 808.592 311.068 810.417 311.233 812.187 311.288 C 814.842 311.344 817.275 310.957 818.491 310.128 C 818.989 309.795 819.099 309.076 818.768 308.579 C 817.938 307.362 816.998 305.869 815.947 304.265 C 812.906 299.621 808.98 293.482 806.048 289.555 C 807.929 289.611 810.362 289.389 811.579 287.619 C 816.832 286.79 822.252 286.458 827.394 287.287 C 832.482 288.061 837.349 289.942 841.552 293.426 C 846.805 297.74 853.11 301.555 859.966 305.758 C 870.253 312.007 881.865 319.031 893.148 329.924 C 894.53 331.251 896.686 331.196 898.014 329.869 C 899.341 328.487 899.285 326.329 897.959 325.003 C 886.179 313.611 874.179 306.31 863.561 299.896 C 856.981 295.915 850.952 292.209 845.976 288.117 C 840.722 283.747 834.694 281.425 828.445 280.485 C 822.363 279.544 816.058 279.877 810.086 280.872 C 809.866 280.928 809.589 280.983 809.367 281.094 L 808.261 279.987 C 803.45 275.398 795.487 267.766 790.676 244.319 C 790.565 243.711 789.957 243.323 789.349 243.434 C 788.85 243.545 788.519 243.931 788.464 244.43 C 784.98 266.661 775.467 274.347 769.495 279.104 C 768.832 279.656 768.224 280.154 767.67 280.597 C 767.395 280.818 767.228 281.205 767.284 281.537 C 767.395 282.919 767.726 284.026 768.169 284.855 C 768.777 285.96 769.606 286.734 770.547 287.178 C 771.155 287.51 771.818 287.675 772.427 287.786 C 770.822 291.656 769.054 294.643 766.896 297.629 C 766.011 297.353 764.961 297.408 764.076 297.961 C 755.504 303.105 747.043 309.298 738.306 316.156 C 736.923 315.271 735.32 314.386 733.77 313.39 C 724.978 308.137 715.632 302.496 701.53 290.163 C 689.585 279.767 673.659 277.665 657.676 279.49 C 629.252 282.808 600.606 298.734 596.236 301.611 C 577.269 313.998 556.088 324.395 536.125 332.855 C 516.881 340.984 498.631 347.4 484.473 352.099 C 480.878 349.39 478.39 347.343 477.893 346.791 C 471.035 339.933 465.283 335.011 460.141 331.086 C 454.998 327.16 450.407 324.228 445.762 321.408 C 444.767 320.8 443.605 320.744 442.609 321.187 C 439.181 317.426 436.194 313.5 433.706 310.292 C 432.876 309.186 432.102 308.192 431.383 307.307 C 435.531 308.136 437.135 306.422 438.517 304.929 L 438.96 304.43 C 439.346 304.044 439.402 303.379 439.071 302.882 L 438.352 301.997 C 434.149 296.744 430.996 292.817 428.453 286.513 C 429.061 286.458 429.724 286.236 430.332 285.905 C 431.217 285.407 432.102 284.688 432.71 283.582 C 433.209 282.698 433.54 281.591 433.595 280.209 C 433.595 279.877 433.485 279.49 433.209 279.269 C 432.656 278.826 432.047 278.273 431.383 277.776 C 425.41 273.019 415.899 265.333 412.415 243.102 C 412.359 242.603 412.028 242.217 411.53 242.106 C 410.922 241.995 410.314 242.382 410.203 242.991 C 405.337 266.438 397.374 274.07 392.618 278.66 C 390.793 280.429 389.411 281.756 388.692 283.415 C 388.581 283.581 388.581 283.802 388.581 284.023 C 388.636 284.853 388.857 285.516 389.189 286.015 C 378.239 283.802 366.294 284.853 354.903 287.341 C 330.681 292.706 308.726 304.983 304.91 307.47 C 285.942 319.858 264.762 330.254 244.799 338.771 C 224.779 347.231 205.866 353.812 191.487 358.568 C 189.662 359.177 188.667 361.112 189.275 362.937 C 189.883 364.762 191.819 365.757 193.643 365.149 L 193.032 365.151 Z M 353.692 581.378 C 354.853 581.211 355.96 581.101 356.955 581.046 L 357.066 581.046 L 357.231 580.991 C 357.785 580.88 358.171 580.326 358.116 579.774 C 358.06 579.166 357.563 578.723 357.011 578.723 L 356.9 578.723 C 355.13 578.834 349.545 570.207 344.291 560.861 C 339.534 552.455 335.166 543.551 334.059 539.847 C 336.271 539.791 338.649 539.57 340.917 539.128 C 343.737 538.52 346.447 537.469 348.769 535.699 C 348.936 535.588 349.102 535.422 349.211 535.202 C 349.488 534.593 349.211 533.929 348.603 533.709 C 344.677 531.994 339.645 526.906 335.055 520.767 C 330.133 514.242 325.654 506.61 323.331 500.748 C 326.594 500.693 328.806 500.526 331.958 500.251 L 334.004 500.085 L 334.226 500.029 C 334.834 499.863 335.221 499.255 335.055 498.647 C 334.889 498.038 334.281 497.319 333.396 496.269 C 331.737 494.278 328.973 491.015 327.534 486.812 L 335.609 486.812 C 335.774 486.812 335.94 486.757 336.106 486.701 C 336.659 486.426 336.88 485.707 336.603 485.153 C 335.829 483.549 334.17 481.946 332.014 479.845 C 328.088 475.974 322.392 470.388 318.189 460.876 C 319.626 460.876 321.008 460.821 322.501 460.655 C 324.548 460.489 326.538 460.102 328.53 459.494 C 328.751 459.439 328.971 459.328 329.138 459.106 C 329.525 458.609 329.47 457.89 328.971 457.503 C 321.119 451.199 314.483 442.516 309.561 436.101 C 308.4 434.608 307.349 433.225 306.409 432.009 C 311.719 433.28 313.653 431.179 315.368 429.354 L 315.92 428.746 C 316.308 428.358 316.363 427.695 315.976 427.198 L 315.146 426.147 C 310.06 419.732 306.243 415.03 303.146 407.343 C 303.92 407.288 304.805 407.067 305.58 406.624 C 306.631 406.072 307.571 405.187 308.29 403.914 C 308.842 402.864 309.23 401.592 309.34 399.988 C 309.34 399.657 309.23 399.269 308.953 399.048 C 308.29 398.495 307.571 397.887 306.741 397.279 C 299.607 391.528 288.159 382.348 284.012 355.692 C 283.956 355.194 283.624 354.807 283.127 354.697 C 282.519 354.586 281.911 354.973 281.8 355.581 C 275.993 383.674 266.427 392.855 260.675 398.329 C 258.518 400.43 256.859 401.979 256.029 403.97 C 255.918 404.136 255.918 404.357 255.918 404.578 C 256.417 409.279 260.785 409.499 263.716 409.389 C 260.232 414.035 255.366 421.61 251.605 427.307 C 250.333 429.243 249.227 431.012 248.231 432.451 C 247.845 432.948 247.955 433.667 248.508 434.054 C 249.89 435.05 252.766 435.436 255.918 435.381 C 258.13 435.326 260.508 435.05 262.555 434.551 C 261.172 437.539 258.019 443.51 253.319 450.146 C 249.725 455.234 245.245 460.599 240.102 465.244 C 239.937 465.355 239.826 465.576 239.771 465.798 C 239.605 466.406 239.937 467.069 240.545 467.236 C 241.706 467.567 241.816 467.567 245.301 467.511 C 246.96 467.511 249.448 467.457 253.928 467.457 C 253.099 472.931 244.693 482.886 238.056 490.684 C 236.12 492.951 234.352 495.052 232.913 496.877 C 232.747 497.099 232.637 497.32 232.637 497.596 C 232.637 498.205 233.135 498.758 233.798 498.758 L 246.075 498.813 C 244.748 501.025 240.6 505.56 237.005 509.431 C 235.789 510.758 234.683 511.975 233.798 512.971 C 233.576 513.191 233.466 513.468 233.466 513.8 C 233.466 514.463 233.964 514.961 234.627 514.961 C 235.954 514.961 240.213 513.965 244.526 513.025 C 247.789 512.251 251.163 511.476 253.208 511.145 C 252.157 514.297 248.286 522.15 242.59 529.892 C 238.554 535.368 233.576 540.732 227.991 544.216 C 227.604 544.437 227.328 544.879 227.383 545.378 C 227.439 545.709 227.604 545.986 227.825 546.207 C 228.71 547.756 231.862 553.064 246.849 549.359 C 243.089 560.199 237.779 565.508 232.525 570.65 C 229.871 573.25 227.271 575.849 224.893 579.112 C 224.728 579.332 224.618 579.553 224.618 579.886 C 224.618 580.549 225.115 581.046 225.778 581.046 C 228.322 581.046 230.756 580.826 233.189 580.383 C 235.069 579.997 236.895 579.498 238.719 578.724 C 238.498 582.596 236.728 586.798 233.466 591.278 C 229.595 596.587 223.733 602.339 215.88 608.753 C 215.493 609.084 215.327 609.637 215.548 610.135 C 215.77 610.633 216.212 610.854 216.71 610.799 C 216.82 610.799 216.93 610.743 217.041 610.688 C 217.429 610.522 216.655 610.854 216.655 610.854 C 219.253 611.794 231.53 616.164 255.089 599.13 C 254.867 599.684 254.701 600.181 254.48 600.678 C 253.539 602.947 252.6 605.269 252.323 608.974 L 252.323 609.14 C 252.323 609.803 252.821 610.302 253.485 610.302 C 264.656 610.302 268.029 607.813 273.393 603.886 C 274.831 602.836 276.38 601.729 278.204 600.513 L 278.204 600.955 C 278.481 609.914 279.31 640.33 276.766 655.925 L 276.766 656.091 C 276.766 656.699 277.265 657.253 277.873 657.253 L 297.394 657.473 L 297.671 657.473 C 298.279 657.362 298.721 656.754 298.611 656.146 C 297.394 649.621 296.675 638.228 296.343 627.223 C 295.956 614.449 295.846 602.282 296.012 598.853 C 301.209 603.388 305.689 605.379 310.556 605.766 C 315.644 606.208 321.063 604.881 328.141 603.056 C 328.251 603.056 328.307 603.001 328.418 602.945 C 328.97 602.67 329.247 602.005 328.97 601.397 C 328.085 599.462 326.703 597.692 325.376 595.978 C 324.381 594.65 323.33 593.379 322.666 592.107 C 328.528 596.752 342.518 607.038 354.133 607.038 C 354.353 607.038 354.63 606.982 354.797 606.816 C 355.294 606.43 355.405 605.711 355.018 605.212 C 352.086 601.286 349.819 597.194 348.105 592.992 C 346.557 589.12 345.45 585.194 344.787 581.268 C 347.552 582.208 350.649 581.821 353.579 581.489 L 353.692 581.378 Z M 891.049 400.32 C 890.772 400.541 890.606 400.928 890.661 401.261 C 890.772 402.864 891.16 404.136 891.712 405.187 C 892.431 406.458 893.427 407.343 894.423 407.896 C 895.252 408.339 896.082 408.56 896.856 408.616 C 893.759 416.302 889.998 421.059 884.855 427.418 L 884.025 428.469 C 883.639 428.911 883.694 429.575 884.081 430.017 C 884.247 430.183 884.468 430.405 884.634 430.625 C 886.293 432.451 888.284 434.551 893.593 433.28 C 892.653 434.496 891.602 435.879 890.441 437.372 C 885.575 443.787 878.938 452.47 871.03 458.774 C 870.532 459.162 870.477 459.88 870.865 460.378 C 871.03 460.599 871.251 460.71 871.473 460.765 C 873.463 461.429 875.454 461.761 877.501 461.927 C 878.938 462.037 880.376 462.092 881.813 462.148 C 877.61 471.605 871.97 477.19 867.988 481.116 C 865.886 483.217 864.227 484.821 863.398 486.426 C 863.122 486.978 863.342 487.697 863.896 487.974 C 864.062 488.083 864.227 488.083 864.393 488.083 L 872.467 488.083 C 871.03 492.286 868.265 495.549 866.606 497.541 C 865.721 498.592 865.112 499.31 864.947 499.918 C 864.781 500.526 865.167 501.134 865.777 501.301 L 865.997 501.356 L 868.044 501.522 C 871.251 501.799 873.463 501.965 876.725 502.019 C 874.348 507.937 869.869 515.515 865.002 522.039 C 860.356 528.178 855.379 533.321 851.453 534.98 C 850.845 535.256 850.624 535.921 850.845 536.473 C 850.956 536.695 851.067 536.86 851.288 536.97 C 853.611 538.74 856.321 539.791 859.14 540.399 C 861.463 540.897 863.785 541.063 865.998 541.118 C 864.892 544.824 860.523 553.727 855.767 562.132 C 850.514 571.479 844.928 580.16 843.158 579.995 L 843.047 579.995 C 842.494 579.995 841.996 580.437 841.942 581.045 C 841.886 581.599 842.273 582.152 842.825 582.262 L 842.992 582.318 L 843.102 582.318 C 844.098 582.373 845.203 582.484 846.365 582.649 C 849.297 582.981 852.393 583.369 855.158 582.429 C 854.494 586.355 853.388 590.281 851.84 594.152 C 850.125 598.355 847.858 602.447 844.928 606.373 C 844.54 606.87 844.651 607.59 845.149 607.977 C 845.369 608.143 845.591 608.198 845.812 608.198 C 857.426 608.198 871.361 597.912 877.223 593.267 C 876.504 594.539 875.509 595.811 874.514 597.139 C 873.186 598.852 871.804 600.622 870.919 602.558 C 870.642 603.11 870.919 603.829 871.471 604.106 C 871.582 604.161 871.638 604.161 871.748 604.217 C 878.826 606.042 884.247 607.369 889.333 606.927 C 894.2 606.484 898.68 604.549 903.877 600.014 C 904.099 603.443 903.988 615.609 903.546 628.384 C 903.214 639.388 902.495 650.78 901.279 657.307 C 901.168 657.915 901.555 658.523 902.218 658.634 L 902.495 658.634 L 922.02 658.412 C 922.63 658.412 923.18 657.915 923.18 657.251 L 923.18 657.085 C 920.63 641.49 921.52 611.13 921.74 602.116 L 921.74 601.673 C 923.62 602.89 925.17 604.051 926.55 605.046 C 931.92 608.972 935.29 611.461 946.46 611.461 C 947.07 611.461 947.62 610.964 947.62 610.3 L 947.62 610.134 C 947.29 606.43 946.35 604.106 945.47 601.839 C 945.24 601.342 945.02 600.788 944.86 600.291 C 968.41 617.324 980.69 612.954 983.29 612.015 C 983.24 612.015 982.57 611.683 982.96 611.849 C 983.07 611.904 983.18 611.904 983.29 611.959 L 983.35 612.015 L 983.51 611.959 C 983.95 611.959 984.34 611.683 984.51 611.296 C 984.73 610.798 984.56 610.245 984.17 609.913 C 976.38 603.553 970.46 597.748 966.59 592.438 C 963.33 587.904 961.5 583.757 961.34 579.885 C 963.16 580.603 964.99 581.157 966.87 581.544 C 969.24 582.041 971.68 582.207 974.28 582.207 C 974.88 582.207 975.44 581.71 975.44 581.046 C 975.44 580.77 975.33 580.493 975.16 580.272 C 972.78 577.01 970.13 574.41 967.53 571.811 C 962.33 566.612 956.97 561.304 953.21 550.52 C 968.25 554.224 971.34 548.916 972.23 547.368 C 972.45 547.146 972.62 546.869 972.67 546.538 C 972.73 546.04 972.45 545.598 972.06 545.377 C 966.48 541.892 961.56 536.529 957.47 531.053 C 951.77 523.31 947.9 515.458 946.85 512.306 C 948.89 512.637 952.21 513.411 955.53 514.185 C 959.84 515.181 964.05 516.121 965.43 516.121 C 966.04 516.121 966.59 515.623 966.59 514.96 C 966.59 514.628 966.48 514.352 966.26 514.13 C 965.37 513.136 964.27 511.918 963.05 510.592 C 959.51 506.72 955.36 502.13 953.98 499.974 L 966.26 499.918 C 966.86 499.918 967.42 499.42 967.42 498.757 C 967.42 498.48 967.31 498.259 967.2 498.038 C 965.76 496.268 963.99 494.167 962.05 491.899 C 955.42 484.102 946.96 474.148 946.18 468.672 C 950.66 468.672 953.15 468.727 954.81 468.727 C 958.29 468.783 958.46 468.783 959.57 468.452 C 960.17 468.285 960.51 467.622 960.34 467.013 C 960.28 466.792 960.12 466.571 959.95 466.405 C 954.81 461.76 950.33 456.395 946.79 451.362 C 942.09 444.782 938.94 438.809 937.56 435.767 C 939.6 436.266 941.98 436.542 944.19 436.597 C 947.29 436.652 950.16 436.266 951.55 435.27 C 952.05 434.938 952.15 434.219 951.82 433.722 C 950.88 432.283 949.72 430.513 948.45 428.579 C 944.75 422.827 939.82 415.306 936.34 410.606 C 939.27 410.717 943.64 410.44 944.14 405.795 C 944.14 405.573 944.14 405.353 944.03 405.187 C 943.2 403.195 941.54 401.647 939.38 399.546 C 933.63 394.015 924.06 384.89 918.26 356.798 C 918.15 356.19 917.54 355.802 916.93 355.913 C 916.43 356.024 916.1 356.412 916.04 356.909 C 911.896 383.565 900.448 392.799 893.315 398.495 C 892.541 399.16 891.767 399.712 891.102 400.265 L 891.049 400.32 Z M 951.88 398.937 L 979.36 398.937 C 981.25 398.937 982.79 397.389 982.79 395.509 C 982.79 393.629 981.24 392.08 979.36 392.08 L 951.88 392.08 C 950 392.08 948.45 393.629 948.45 395.509 C 948.45 397.389 950 398.937 951.88 398.937 Z M 1163.46 799.312 L 1163.57 799.368 C 1164.12 799.534 1164.74 799.257 1164.95 798.704 C 1165.17 798.206 1165.01 797.653 1164.56 797.321 C 1154.22 788.861 1146.36 781.229 1141.29 774.205 C 1136.75 767.956 1134.37 762.205 1134.2 756.785 C 1136.81 757.836 1139.34 758.61 1142.01 759.163 C 1145.15 759.772 1148.36 760.047 1151.68 760.047 C 1152.34 760.047 1152.84 759.55 1152.84 758.887 C 1152.84 758.61 1152.73 758.333 1152.56 758.113 C 1149.42 753.854 1145.99 750.425 1142.5 746.941 C 1135.48 739.974 1128.29 732.784 1123.26 717.964 C 1143.44 723.107 1147.47 716.139 1148.7 714.093 C 1148.97 713.872 1149.19 713.539 1149.24 713.153 C 1149.3 712.656 1149.03 712.268 1148.64 712.047 C 1141.23 707.457 1134.59 700.323 1129.23 693.023 C 1121.31 682.295 1116.12 671.401 1114.96 667.53 C 1117.56 667.916 1122.32 669.023 1127.02 670.074 C 1132.71 671.401 1138.25 672.673 1140.01 672.673 C 1140.61 672.673 1141.17 672.175 1141.17 671.511 C 1141.17 671.179 1141.06 670.903 1140.84 670.682 C 1139.52 669.189 1138.07 667.641 1136.59 665.982 L 1136.53 665.926 C 1131.55 660.506 1125.74 654.147 1124.31 651.327 L 1141.12 651.271 C 1141.72 651.271 1142.28 650.773 1142.28 650.11 C 1142.28 649.833 1142.17 649.557 1142.01 649.336 C 1140.12 647.013 1137.8 644.248 1135.25 641.262 C 1126.3 630.699 1114.84 617.205 1114.13 609.961 C 1120.22 609.961 1123.69 610.016 1125.97 610.016 C 1130.55 610.072 1130.72 610.072 1132.15 609.63 C 1132.77 609.464 1133.1 608.8 1132.93 608.191 C 1132.87 607.971 1132.71 607.749 1132.54 607.583 C 1125.68 601.445 1119.83 594.311 1115.07 587.619 C 1108.54 578.385 1104.18 570.034 1102.52 566.273 C 1105.34 567.047 1108.77 567.49 1111.92 567.545 C 1115.95 567.655 1119.71 567.102 1121.43 565.831 C 1121.93 565.499 1122.04 564.78 1121.7 564.283 C 1120.43 562.402 1118.94 560.08 1117.23 557.425 C 1112.13 549.572 1105.39 539.175 1100.8 533.093 C 1104.51 533.313 1110.87 533.368 1111.48 527.12 C 1111.48 526.898 1111.48 526.677 1111.37 526.512 C 1110.26 523.968 1108.1 521.921 1105.29 519.157 C 1097.65 511.856 1084.99 499.69 1077.25 462.417 C 1077.14 461.808 1076.53 461.422 1075.91 461.532 C 1075.42 461.642 1075.09 462.03 1075.03 462.527 C 1069.5 497.92 1054.3 510.141 1044.84 517.773 C 1043.79 518.603 1042.79 519.377 1041.91 520.151 C 1041.63 520.373 1041.46 520.759 1041.52 521.091 C 1041.63 523.137 1042.13 524.796 1042.85 526.069 C 1043.73 527.728 1045 528.833 1046.28 529.498 C 1047.49 530.161 1048.76 530.381 1049.87 530.381 C 1045.72 540.89 1040.69 547.249 1033.78 555.82 L 1032.67 557.202 C 1032.28 557.645 1032.34 558.309 1032.73 558.75 C 1032.95 558.972 1033.22 559.249 1033.5 559.58 C 1035.77 562.013 1038.37 564.889 1046.05 562.678 C 1044.62 564.446 1042.96 566.604 1041.19 568.982 C 1034.72 577.443 1025.92 588.946 1015.47 597.352 C 1014.98 597.738 1014.92 598.457 1015.31 598.956 C 1015.47 599.176 1015.69 599.287 1015.91 599.342 C 1018.51 600.172 1021.17 600.615 1023.82 600.89 C 1025.92 601.057 1027.97 601.167 1030.02 601.167 C 1024.43 614.052 1016.74 621.629 1011.43 626.827 C 1008.67 629.592 1006.46 631.694 1005.46 633.739 C 1005.19 634.293 1005.41 635.012 1005.96 635.288 C 1006.13 635.343 1006.29 635.398 1006.46 635.398 L 1017.63 635.398 C 1015.8 641.261 1011.99 645.795 1009.67 648.505 C 1008.56 649.832 1007.73 650.772 1007.56 651.491 C 1007.4 652.099 1007.79 652.708 1008.39 652.873 L 1008.61 652.928 L 1011.33 653.15 C 1015.69 653.537 1018.68 653.758 1023.27 653.813 C 1020.17 661.722 1014.14 672.063 1007.51 680.912 C 1001.37 689.041 994.74 695.898 989.43 698.165 C 988.82 698.442 988.6 699.105 988.82 699.659 C 988.93 699.879 989.04 700.045 989.26 700.156 C 992.25 702.479 995.84 703.807 999.55 704.636 C 1002.7 705.3 1005.96 705.575 1009.06 705.631 C 1007.79 710.277 1001.87 722.443 995.4 733.945 C 988.37 746.388 980.91 757.947 978.42 757.78 L 978.31 757.78 C 977.7 757.78 977.2 758.222 977.15 758.83 C 977.09 759.439 977.54 759.992 978.09 760.047 L 978.37 760.047 C 979.69 760.103 981.24 760.269 982.74 760.489 C 986.77 760.988 991.03 761.485 994.79 760.047 C 993.9 765.467 992.41 770.942 990.26 776.25 C 987.99 781.836 985 787.255 981.08 792.453 C 980.69 792.951 980.8 793.669 981.3 794.057 C 981.52 794.222 981.74 794.277 981.96 794.277 C 998.05 794.277 1017.74 779.126 1024.54 773.596 C 1023.66 775.807 1022 777.964 1020.23 780.232 C 1018.46 782.499 1016.69 784.821 1015.53 787.365 C 1015.25 787.918 1015.53 788.637 1016.08 788.914 C 1016.19 788.969 1016.25 788.969 1016.36 789.025 C 1025.7 791.458 1032.84 793.172 1039.53 792.62 C 1046 792.066 1051.97 789.412 1059 783.162 C 1059.38 787.144 1059.38 803.458 1058.89 820.656 C 1058.44 834.925 1057.56 849.633 1055.95 858.261 C 1055.84 858.87 1056.23 859.478 1056.89 859.589 L 1057.17 859.589 L 1082.5 858.926 C 1083.11 858.926 1083.65 858.372 1083.61 857.764 L 1083.61 857.598 C 1080.29 837.136 1081.56 798.757 1082.01 786.868 L 1082.05 785.374 C 1084.82 787.144 1087.04 788.748 1089.03 790.241 C 1096.05 795.384 1100.47 798.647 1115.13 798.647 C 1115.74 798.647 1116.28 798.149 1116.28 797.486 L 1116.28 797.32 C 1115.9 792.453 1114.63 789.466 1113.41 786.481 C 1112.97 785.429 1112.58 784.38 1112.19 783.273 C 1143.83 806.554 1160.26 800.693 1163.69 799.476 L 1163.69 799.421 C 1163.57 799.31 1163.24 799.144 1163.52 799.255 L 1163.46 799.312 Z M 249.215 395.505 C 249.215 393.624 247.667 392.076 245.786 392.076 L 205.914 392.076 C 204.034 392.076 202.485 393.624 202.485 395.505 C 202.485 397.384 204.034 398.933 205.914 398.933 L 245.786 398.933 C 247.667 398.933 249.215 397.384 249.215 395.505 Z M 118.037 784.211 L 118.092 785.704 C 118.48 797.594 119.807 835.973 116.489 856.435 L 116.489 856.601 C 116.489 857.209 116.987 857.761 117.595 857.761 L 142.923 858.426 L 143.2 858.426 C 143.808 858.315 144.251 857.707 144.14 857.098 C 142.536 848.472 141.651 833.762 141.208 819.493 C 140.711 802.35 140.711 785.981 141.098 781.999 C 148.122 788.249 154.094 790.903 160.565 791.457 C 167.256 792.009 174.39 790.295 183.736 787.862 C 183.847 787.862 183.902 787.806 184.013 787.751 C 184.566 787.474 184.841 786.81 184.566 786.202 C 183.404 783.658 181.58 781.336 179.81 779.069 C 178.04 776.801 176.326 774.589 175.496 772.433 C 182.299 777.963 201.93 793.114 218.078 793.114 C 218.3 793.114 218.576 793.059 218.743 792.894 C 219.24 792.506 219.351 791.788 218.963 791.289 C 215.037 786.092 212.051 780.616 209.783 775.087 C 207.626 769.778 206.133 764.304 205.249 758.884 C 209.009 760.377 213.267 759.825 217.305 759.326 C 218.853 759.16 220.346 758.94 221.673 758.884 L 221.95 758.884 C 222.558 758.774 222.946 758.221 222.89 757.667 C 222.835 757.059 222.336 756.617 221.728 756.617 L 221.618 756.617 C 219.129 756.782 211.608 745.224 204.641 732.782 C 198.169 721.28 192.253 709.114 190.98 704.468 C 194.023 704.412 197.286 704.137 200.493 703.472 C 204.198 702.698 207.737 701.316 210.778 698.993 C 210.945 698.882 211.111 698.716 211.221 698.496 C 211.497 697.887 211.221 697.223 210.612 697.002 C 205.304 694.735 198.668 687.932 192.53 679.748 C 185.894 670.9 179.865 660.558 176.769 652.65 C 181.359 652.595 184.345 652.374 188.77 651.987 L 191.479 651.765 L 191.7 651.71 C 192.308 651.545 192.696 650.936 192.53 650.328 C 192.308 649.609 191.534 648.669 190.429 647.342 C 188.106 644.632 184.29 640.098 182.465 634.235 L 193.636 634.235 C 193.802 634.235 193.969 634.18 194.134 634.125 C 194.687 633.849 194.908 633.129 194.632 632.576 C 193.636 630.531 191.425 628.429 188.659 625.664 C 183.35 620.41 175.662 612.889 170.078 600.004 C 172.124 600.004 174.171 599.949 176.272 599.727 C 178.926 599.506 181.581 599.064 184.179 598.179 C 184.401 598.124 184.622 598.013 184.788 597.791 C 185.175 597.294 185.119 596.575 184.622 596.188 C 174.171 587.783 165.432 576.28 158.907 567.819 C 157.082 565.441 155.478 563.339 154.04 561.515 C 161.672 563.726 164.327 560.85 166.594 558.417 C 166.871 558.141 167.147 557.864 167.368 557.587 C 167.756 557.201 167.811 556.537 167.424 556.039 L 166.317 554.657 C 159.405 546.029 154.373 539.725 150.225 529.218 C 151.33 529.218 152.603 528.943 153.819 528.333 C 155.147 527.67 156.363 526.509 157.248 524.906 C 157.966 523.578 158.465 521.919 158.576 519.873 C 158.576 519.541 158.465 519.154 158.188 518.933 C 157.303 518.214 156.307 517.385 155.257 516.555 C 145.8 508.923 130.538 496.702 125.062 461.309 C 125.007 460.811 124.676 460.425 124.177 460.314 C 123.569 460.203 122.961 460.59 122.85 461.199 C 115.163 498.416 102.444 510.582 94.812 517.938 C 91.991 520.647 89.78 522.749 88.729 525.293 C 88.618 525.458 88.618 525.68 88.618 525.901 C 89.226 532.15 95.587 532.095 99.291 531.874 C 94.646 537.957 87.955 548.354 82.867 556.206 C 81.152 558.861 79.659 561.184 78.388 563.064 C 78.056 563.561 78.166 564.28 78.664 564.612 C 80.433 565.884 84.139 566.382 88.176 566.327 C 91.328 566.272 94.757 565.828 97.632 565.054 C 95.973 568.816 91.659 577.166 85.078 586.401 C 80.323 593.148 74.405 600.282 67.493 606.42 C 67.327 606.531 67.216 606.752 67.161 606.974 C 66.995 607.582 67.327 608.245 67.935 608.412 C 69.373 608.853 69.594 608.853 74.129 608.798 C 76.397 608.743 79.881 608.743 85.963 608.743 C 85.244 615.988 73.797 629.481 64.838 640.043 C 62.294 643.029 59.972 645.795 58.091 648.117 C 57.925 648.339 57.815 648.616 57.815 648.891 C 57.815 649.555 58.313 650.053 58.976 650.053 L 75.789 650.109 C 74.294 652.928 68.488 659.344 63.512 664.763 C 61.963 666.478 60.415 668.137 59.253 669.463 C 59.032 669.685 58.921 669.962 58.921 670.293 C 58.921 670.902 59.419 671.455 60.083 671.455 C 61.797 671.455 67.382 670.183 73.078 668.855 C 77.724 667.804 82.48 666.699 85.135 666.311 C 83.973 670.183 78.776 681.078 70.867 691.805 C 65.503 699.105 58.867 706.239 51.456 710.829 C 51.069 711.05 50.848 711.493 50.848 711.935 C 50.904 712.322 51.124 712.653 51.456 712.819 C 52.563 714.866 56.655 721.834 76.84 716.69 C 71.862 731.511 64.619 738.645 57.595 745.669 C 54.112 749.096 50.683 752.525 47.531 756.839 C 47.365 757.06 47.254 757.281 47.254 757.613 C 47.254 758.276 47.752 758.775 48.416 758.775 C 51.79 758.775 54.942 758.498 58.094 757.89 C 60.693 757.392 63.291 756.617 65.891 755.512 C 65.78 760.876 63.347 766.627 58.813 772.932 C 53.725 779.955 45.871 787.642 35.531 796.048 C 35.088 796.38 34.922 796.933 35.144 797.431 C 35.365 797.984 35.973 798.26 36.526 798.094 L 36.637 798.039 C 36.914 797.929 36.581 798.094 36.472 798.205 C 36.472 798.205 36.416 798.26 36.472 798.26 C 39.899 799.477 56.269 805.394 87.957 782.057 C 87.57 783.164 87.127 784.215 86.741 785.265 C 85.524 788.252 84.308 791.293 83.865 796.104 L 83.865 796.27 C 83.865 796.878 84.363 797.432 85.026 797.432 C 99.681 797.432 104.106 794.169 111.128 789.026 C 113.12 787.533 115.387 785.929 118.096 784.159 L 118.037 784.211 Z M 352.349 398.925 C 354.23 398.925 355.778 397.377 355.778 395.497 C 355.778 393.617 354.23 392.069 352.349 392.069 L 319.832 392.069 C 317.953 392.069 316.405 393.617 316.405 395.497 C 316.405 397.377 317.953 398.925 319.832 398.925 L 352.349 398.925 Z M 661.753 402.409 L 1076.01 973.941 L 1004.18 973.941 L 643.053 402.409 L 634.924 402.409 L 996.05 973.941 L 640.067 973.941 L 634.15 869.535 C 634.15 867.6 632.601 866.052 630.722 866.052 L 554.959 866.052 C 553.078 866.052 551.53 867.6 551.53 869.535 L 545.557 973.941 L 189.636 973.941 L 551.799 402.409 L 543.614 402.409 L 181.451 973.941 L 109.062 973.941 L 524.986 402.409 L 492.137 402.409 C 490.202 402.409 488.653 400.861 488.653 398.925 C 488.653 396.99 490.202 395.442 492.137 395.442 L 703.715 395.442 C 705.651 395.442 707.199 396.99 707.199 398.925 C 707.199 400.861 705.651 402.409 703.715 402.409 L 661.753 402.409 Z M 615.356 538.223 C 615.356 538.058 615.356 537.947 615.3 537.781 L 612.093 481.097 C 612.093 479.161 610.545 477.613 608.664 477.613 L 577.142 477.613 C 575.262 477.613 573.714 479.161 573.714 481.097 L 570.451 537.781 L 570.451 538.223 C 570.451 540.104 572 541.652 573.879 541.652 L 611.927 541.652 C 613.807 541.652 615.356 540.104 615.356 538.223 Z M 614.084 572.898 L 571.723 572.898 C 569.843 572.898 568.295 574.447 568.295 576.381 L 564.092 649.988 L 564.092 650.43 C 564.092 652.311 565.64 653.859 567.521 653.859 L 618.342 653.859 C 620.222 653.859 621.77 652.311 621.77 650.43 L 621.77 649.988 L 617.567 576.381 C 617.567 574.447 616.019 572.898 614.14 572.898 L 614.084 572.898 Z M 630.62 806.927 C 630.62 806.76 630.62 806.65 630.564 806.485 L 625.255 713.025 C 625.255 711.09 623.706 709.541 621.827 709.541 L 563.87 709.541 C 561.99 709.541 560.442 711.09 560.442 713.025 L 555.078 806.485 C 555.078 806.65 555.023 806.76 555.023 806.927 C 555.023 808.807 556.571 810.356 558.451 810.356 L 627.08 810.356 C 628.96 810.356 630.509 808.807 630.509 806.927 L 630.62 806.927 Z M 607.614 402.399 L 578.193 402.399 L 575.926 442.548 C 575.926 442.714 575.87 442.824 575.87 442.989 C 575.87 444.87 577.419 446.418 579.299 446.418 L 606.452 446.418 C 608.333 446.418 609.881 444.87 609.881 442.989 C 609.881 442.824 609.881 442.714 609.826 442.548 L 607.559 402.399 L 607.614 402.399 Z"/>
</svg>