<!-- Generated by IcoMoon.io -->
<svg version="1.1" xmlns="http://www.w3.org/2000/svg" width="32" height="32" viewBox="0 0 32 32">
<path d="M9.847 9.313c-0.598-0.598-1.623-0.174-1.623 0.671s1.025 1.27 1.623 0.672c0.373-0.371 0.373-0.974 0-1.344zM9.176 8.533c1.287 0 1.938 1.566 1.025 2.478-0.912 0.912-2.478 0.262-2.478-1.025 0.001-0.801 0.651-1.453 1.452-1.453zM12.978 4.698c-0.877-0.877-2.386-0.253-2.386 0.989 0 1.242 1.51 1.867 2.386 0.989 0.546-0.545 0.546-1.433 0-1.978zM10.161 6.191c-2.53 0.683-4.485 2.337-5.12 5.166-0.298 1.332 0.12 3.105-0.31 4.15-0.289 0.696-1.913 2.087-2.25 2.707-0.197 0.361 0.61 0.527 1.074 0.855 0.54 0.383 0.45 0.793 0.042 1.275-0.098 0.115-0.161 0.218-0.135 0.301 0.045 0.137 0.246 0.31 0.715 0.547 0.327 0.168 0.361 0.36 0.25 0.581-0.15 0.297-0.69 0.505-0.386 0.828 0.588 0.624 0.489 1.52 0.638 2.267 0.24 1.21 1.473 0.679 2.28 0.459 4.581-1.245 5.243 0.983 5.753 2.709 0.313 1.055 0.5 1.837 1.835 1.201 1.66-0.793 3.477-1.851 4.837-2.713-0.68-0.665-1.968-0.985-4.555-0.343-1.662 0.411-2.521 0.62-2.74-1.482-0.051-0.495-0.105-1.006-0.408-1.328-0.526-0.558-0.204-0.865 0.223-1.28-0.554-0.288-0.811-0.545-0.893-0.795-0.185-0.573 0.629-0.964 0.326-1.227-0.466-0.404-1.754-0.552-1.238-1.503 0.179-0.326 0.617-0.793 1.066-1.262 1.248-1.317 1.277-1.311 1.24-3.165-0.015-0.685-0.030-1.409 0.117-2.063 0.635-2.827 2.553-4.539 5.056-5.283-1.113-0.532-2.344-0.845-3.702-0.938-0.144 1.591-2.092 2.306-3.231 1.17-0.226-0.23-0.396-0.515-0.485-0.838zM18.928 2.786c-0.98-0.98-2.661-0.284-2.661 1.103 0 1.384 1.681 2.083 2.661 1.103 0.608-0.611 0.608-1.598 0-2.205zM24.93 5.612c-0.769-0.769-2.014-0.769-2.782 0-0.767 0.769-0.767 2.014 0 2.781 0.769 0.769 2.014 0.769 2.782 0 0.767-0.768 0.767-2.014 0-2.781zM21.075 6.871c-1.872-0.055-3.74 0.31-5.226 1.235-1.365 0.85-2.408 2.175-2.836 4.084-0.133 0.595-0.119 1.286-0.105 1.944 0.040 1.991-0.034 2.097-1.377 3.517-0.425 0.448-0.845 0.891-0.99 1.159-0.179 0.328 0.891 0.68 1.127 0.887 0.755 0.655-0.26 1.195-0.179 1.451 0.043 0.131 0.235 0.296 0.685 0.525 0.495 0.25 0.31 0.567 0.004 0.854-0.144 0.135-0.325 0.301-0.131 0.508 0.418 0.442 0.48 1.040 0.54 1.617 0.175 1.683 0.819 1.372 2.126 1.049 5.235-1.299 5.68 1.040 6.005 2.739 0.317 1.66 0.688 1.395 2.135 0.66 2.010-1.020 4.073-2.356 5.738-3.465-0.525-0.925-0.806-1.817-0.824-2.929-0.020-1.137 0.273-2.438 0.968-4.055 1.125-2.625 1.144-5.513-0.308-7.89-0.649-1.061-1.563-1.961-2.693-2.627-0.765 1.48-2.755 1.8-3.938 0.615-0.484-0.481-0.761-1.152-0.721-1.877zM22.075 14.020c0.468-0.467 0.135-1.273-0.527-1.273-0.66 0-0.994 0.805-0.526 1.273 0.291 0.29 0.764 0.29 1.054 0zM22.793 13.492c0 0.67-0.527 1.217-1.192 1.245 0.122 1.378 1.28 2.445 2.678 2.445 1.486 0 2.69-1.203 2.69-2.69 0-1.485-1.203-2.69-2.69-2.69-0.734 0-1.4 0.296-1.885 0.775 0.247 0.229 0.4 0.553 0.4 0.915zM19.488 10.003c0.47-0.47 0.136-1.272-0.526-1.272s-0.995 0.803-0.526 1.273c0.29 0.29 0.761 0.29 1.052 0zM17.278 14.273c0.692-0.693 0.2-1.88-0.777-1.88s-1.47 1.186-0.78 1.88c0.431 0.43 1.127 0.43 1.557 0zM20.329 13.743h-2.247c-0.2 1.283-1.785 1.81-2.713 0.883-1.006-1.006-0.291-2.733 1.132-2.733 0.794 0 1.46 0.58 1.58 1.35h2.247c0.047-0.234 0.161-0.445 0.32-0.611l-1.198-2.012c-0.815 0.35-1.736-0.248-1.736-1.144 0-1.106 1.343-1.662 2.126-0.88 0.477 0.477 0.488 1.251 0.020 1.741l1.2 2.012c0.28-0.12 0.599-0.133 0.89-0.034 1.231-1.315 3.307-1.35 4.582-0.076 1.245 1.245 1.245 3.265 0 4.51s-3.262 1.245-4.509 0c-0.543-0.543-0.891-1.28-0.93-2.095-0.39-0.156-0.684-0.498-0.766-0.911zM8.799 14.818c0.38-0.38 0.11-1.035-0.429-1.035-0.537 0-0.808 0.654-0.428 1.035 0.236 0.235 0.62 0.235 0.856 0zM9.478 14.389c0 0.981-1.195 1.477-1.889 0.781-0.695-0.695-0.2-1.887 0.781-1.887 0.611 0 1.107 0.498 1.107 1.106z"></path>
</svg>
