<?xml version="1.0" encoding="utf-8"?>
<svg version="1.1" viewBox="0 0 1200 1200" xmlns="http://www.w3.org/2000/svg" width="150pt" height="150pt">
  <path d="m369.28 349.22c-22.406-22.406-60.844-6.5156-60.844 25.172s38.438 47.625 60.844 25.219c13.969-13.922 13.969-36.516 0-50.391zm-25.172-29.25c48.281 0 72.656 58.734 38.438 92.906-34.219 34.219-92.906 9.8438-92.906-38.438 0.046875-30.047 24.422-54.469 54.469-54.469zm142.55-143.81c-32.906-32.906-89.484-9.4688-89.484 37.078 0 46.594 56.625 70.031 89.484 37.078 20.484-20.438 20.484-53.719 0-74.156zm-105.61 56.016c-94.875 25.594-168.19 87.656-192 193.74-11.156 49.969 4.5 116.44-11.625 155.63-10.828 26.109-71.719 78.281-84.375 101.53-7.4062 13.547 22.875 19.781 40.266 32.062 20.25 14.344 16.875 29.719 1.5938 47.812-3.6562 4.3125-6.0469 8.1562-5.0625 11.297 1.6875 5.1562 9.2344 11.625 26.812 20.531 12.281 6.2812 13.547 13.5 9.375 21.797-5.625 11.156-25.875 18.938-14.484 31.031 22.031 23.391 18.328 57 23.906 85.031 9 45.375 55.219 25.453 85.5 17.203 171.79-46.688 196.6 36.844 215.72 101.58 11.719 39.562 18.75 68.906 68.812 45.047 62.25-29.719 130.4-69.422 181.4-101.72-25.5-24.938-73.781-36.938-170.81-12.844-62.344 15.422-94.547 23.25-102.75-55.594-1.9219-18.562-3.9375-37.734-15.281-49.781-19.734-20.906-7.6406-32.438 8.3438-48-20.766-10.781-30.422-20.438-33.469-29.812-6.9375-21.469 23.578-36.141 12.234-46.031-17.484-15.141-65.766-20.719-46.406-56.344 6.7031-12.234 23.156-29.719 39.984-47.344 46.781-49.406 47.906-49.172 46.5-118.69-0.5625-25.688-1.125-52.828 4.4062-77.344 23.812-106.03 95.719-170.21 189.61-198.1-41.719-19.969-87.891-31.688-138.84-35.156-5.3906 59.672-78.469 86.484-121.18 43.875-8.4844-8.625-14.859-19.312-18.188-31.406zm328.74-127.69c-36.75-36.75-99.797-10.641-99.797 41.344 0 51.891 63.047 78.094 99.797 41.344 22.781-22.922 22.781-59.906 0-82.688zm225.1 105.98c-28.828-28.828-75.516-28.828-104.34 0-28.781 28.828-28.781 75.516 0 104.3 28.828 28.828 75.516 28.828 104.34 0 28.781-28.781 28.781-75.516 0-104.3zm-144.56 47.203c-70.219-2.0625-140.26 11.625-195.98 46.312-51.188 31.875-90.281 81.562-106.36 153.14-4.9688 22.312-4.4531 48.234-3.9375 72.891 1.5 74.672-1.2656 78.656-51.656 131.9-15.938 16.781-31.688 33.422-37.125 43.453-6.7031 12.281 33.422 25.5 42.281 33.281 28.312 24.562-9.75 44.812-6.7031 54.422 1.5938 4.9219 8.8125 11.109 25.688 19.688 18.562 9.375 11.625 21.281 0.14062 32.016-5.3906 5.0625-12.188 11.297-4.9219 19.031 15.656 16.594 18 39 20.25 60.656 6.5625 63.094 30.703 51.469 79.734 39.328 196.31-48.703 213 39 225.19 102.7 11.906 62.25 25.781 52.312 80.062 24.75 75.375-38.25 152.72-88.359 215.16-129.94-19.688-34.688-30.234-68.156-30.891-109.83-0.75-42.656 10.219-91.406 36.281-152.06 42.188-98.438 42.891-206.72-11.531-295.87-24.328-39.797-58.594-73.547-100.97-98.531-28.688 55.5-103.31 67.5-147.66 23.062-18.141-18.047-28.547-43.219-27.047-70.406zm37.5 268.08c17.531-17.531 5.0625-47.719-19.781-47.719-24.75 0-37.266 30.188-19.734 47.719 10.922 10.875 28.641 10.875 39.516 0zm26.906-19.781c0 25.125-19.781 45.656-44.719 46.688 4.5938 51.656 48 91.688 100.41 91.688 55.734 0 100.88-45.094 100.88-100.88 0-55.688-45.094-100.88-100.88-100.88-27.516 0-52.5 11.109-70.688 29.062 9.2812 8.5781 15 20.719 15 34.312zm-123.94-130.87c17.625-17.625 5.1094-47.719-19.734-47.719s-37.312 30.094-19.734 47.719c10.875 10.875 28.547 10.875 39.469 0zm-82.875 160.13c25.969-25.969 7.5-70.5-29.156-70.5s-55.125 44.484-29.25 70.5c16.172 16.125 42.281 16.125 58.406 0zm114.42-19.875h-84.281c-7.5 48.094-66.938 67.875-101.72 33.094-37.734-37.734-10.922-102.47 42.469-102.47 29.766 0 54.75 21.75 59.25 50.625h84.281c1.7812-8.7656 6.0469-16.688 12-22.922l-44.906-75.469c-30.562 13.125-65.109-9.2812-65.109-42.891 0-41.484 50.344-62.344 79.734-33 17.906 17.906 18.281 46.922 0.75 65.297l45 75.469c10.5-4.5 22.453-4.9688 33.375-1.2656 46.172-49.312 124.03-50.625 171.84-2.8594 46.688 46.688 46.688 122.44 0 169.13s-122.34 46.688-169.08 0c-20.344-20.344-33.422-48-34.875-78.562-14.625-5.8594-25.641-18.656-28.734-34.172zm-432.37 40.312c14.25-14.25 4.125-38.812-16.078-38.812-20.156 0-30.281 24.516-16.031 38.812 8.8594 8.8125 23.25 8.8125 32.109 0zm25.453-16.078c0 36.797-44.812 55.406-70.828 29.297-26.062-26.062-7.5-70.781 29.297-70.781 22.922 0 41.531 18.656 41.531 41.484z"/>
</svg>