<!-- Generated by IcoMoon.io -->
<svg version="1.1" xmlns="http://www.w3.org/2000/svg" width="32" height="32" viewBox="0 0 32 32">
<path d="M6.135 7.895c-0.129 0.046-0.216 0.046-0.302 0.092-1.252 0.643-2.33 1.425-3.194 2.575h-0.043c-0.043 0-0.043 0-0.086-0.046 0-0.092-0.043-0.23-0.086-0.368-0.043-0.92 0.345-1.84 0.776-2.668 0.173-0.276 0.086-0.597-0.259-0.551-0.302 0-0.518 0.138-0.733 0.322-0.043 0.046-0.086 0.092-0.173 0.092-0.043 0.046-0.043 0.046-0.086 0.046-0.129-0.046-0.216-0.184-0.173-0.367 0.129-0.506 0.906-0.552 1.294-0.552 0.388-0.046 0.562-0.276 0.388-0.689-0.259-0.552-0.604-0.966-1.122-1.241-0.086-0.047-0.129-0.139-0.129-0.231-0.043-0.184 0.173-0.276 0.302-0.276 0.259 0.046 0.474 0.184 0.647 0.413 0.129 0.231 0.302 0.506 0.519 0.92 0.043 0.092 0.043 0.138 0.043 0.138 0.129 0.185 0.302 0.185 0.388 0 0.129-0.184-0.173-0.827-0.259-0.965-0.173-0.323-0.345-0.598-0.302-0.92 0-0.046 0.043-0.046 0.043-0.092 0.302-0.231 0.561 0.184 0.647 0.459 0.086 0.322 0.129 0.644 0.216 0.966 0 0.092 0.043 0.184 0.129 0.23 0 0.046 0.043 0.046 0.086 0.046h0.086c0.216-0.184 0.302-0.689 0.388-0.966 0.043-0.23 0.174-0.413 0.303-0.551 0.173-0.138 0.518 0 0.474 0.276 0 0.046-0.043 0.138-0.129 0.23-0.173 0.276-0.474 0.552-0.474 0.874 0 0.092 0.043 0.184 0.129 0.184s0.173 0 0.259-0.046l0.345-0.368c0.216-0.184 0.561-0.23 0.69 0.092 0.043 0.046 0 0.092-0.043 0.138-0.043 0.092-0.086 0.138-0.129 0.184-0.345 0.138-0.518 0.184-0.561 0.23-0.259 0.093-0.431 0.277-0.518 0.506-0.043 0.046-0.043 0.092-0.043 0.138 0.086 0.138 0.173 0.184 0.345 0.092 0.431-0.138 0.69-0.184 0.69-0.184 0.216-0.092 0.474-0.092 0.562 0.092 0.043 0.092 0.043 0.138 0 0.23-0.131 0.23-0.432 0.184-0.691 0.184-0.216 0.046-0.388 0.046-0.474 0.092-0.431 0.185-0.734 0.506-0.864 1.058 0 0.046 0.043 0.093 0.086 0.093 0.562-0.139 0.993-0.185 1.338-0.277 0.518-0.092 0.993-0.276 1.468-0.551 0.863-0.461 1.597-1.012 2.201-1.564 0.173-0.184 0.691-0.643 1.511-1.425 1.295-1.242 2.72-2.161 4.446-2.437 0.518-0.092 1.035-0.138 1.553-0.184 0.346 0 0.691-0.277 0.95-0.369 0.517-0.138 0.993-0.138 1.424 0.046 0.259 0.138 0.561 0.415 0.776 0.598 0.173 0.138 0.388 0.23 0.605 0.322 0.216 0.092 0.647 0.23 1.294 0.461 0.086 0 0.216 0.046 0.303 0.138 0.216 0.138 0.345 0.322 0.345 0.597 0 0.552-0.173 0.92-0.562 1.287-0.82 0.69-1.77 1.012-2.891 1.472-0.345 0.138-0.519 0.184-0.605 0.23-0.733 0.413-1.251 0.69-2.072 1.012-0.69 0.276-1.251 0.505-1.684 0.736-0.992 0.413-1.813 1.012-2.46 1.747-0.388 0.461-0.69 0.828-0.821 1.242-0.388 0.874-0.345 1.932-0.259 2.852l0.043 0.046c0.691-0.092 1.381-0.322 1.856-0.92 0.476-0.551 0.346-1.15 0-1.747-0.086-0.139-0.086-0.277-0.086-0.415 0.043-0.092 0.129-0.184 0.216-0.184s0.174 0 0.26 0.092c0.431 0.322 0.388 1.287 0.431 1.84 0 0.046 0.043 0.092 0.086 0.092h0.043c0.388-0.092 0.776-1.104 0.949-1.379 0.131-0.231 0.26-0.415 0.433-0.507s0.345-0.092 0.474 0v0.046c0.173 0.092 0.173 0.23 0 0.369-0.474 0.322-0.821 0.735-1.037 1.15-0.043 0.092-0.043 0.138-0.043 0.23 0 0.046 0.086 0.092 0.13 0.092h0.043c0.303-0.138 0.562-0.23 0.777-0.276 0.388-0.138 1.078-0.092 1.295 0.322 0.086 0.138 0.043 0.322-0.13 0.367-0.13 0-0.389-0.092-0.476-0.138-0.474-0.138-1.122-0.046-1.468 0.368-0.173 0.185-0.043 0.461 0.131 0.552l0.776 0.276c0.345 0.184 0.993 0.69 0.69 1.15-0.086 0.092-0.259 0.046-0.345-0.046l-0.431-0.459c-0.345-0.367-1.080-0.736-1.511-0.415-0.259 0.185-0.259 0.369-0.13 0.644 0.216 0.459 0.388 0.92 0.173 1.379-0.129 0.277-0.518 0.369-0.518-0.046 0-0.276 0.129-0.551 0.043-0.874-0.173-0.505-0.648-0.322-0.95-0.092-0.863 0.644-1.683 1.196-2.719 1.104-0.562-0.046-0.907-0.597-1.036-1.104-0.173-0.551-0.216-1.104-0.129-1.655v-0.046h-0.086c-0.474 0.276-0.906 0.689-1.295 1.196-0.82 1.104-1.165 2.299-0.992 3.633 0.129 1.427 0.906 2.805 1.899 3.817h0.043v-0.046c0.259-0.828 0.647-1.564 1.165-2.253 0.562-0.736 1.295-0.691 2.116-0.323 0.992 0.461 1.77 1.196 2.417 2.161 0.129 0.185 0.302 0.277 0.517 0.138 0.13-0.046 0.259-0.138 0.303-0.276 0.302-0.321 0.302-0.643 0.129-1.058-0.086-0.276-0.217-0.643-0.043-0.874 0.043-0.046 0.086-0.092 0.173-0.092 0.043 0 0.086 0.046 0.13 0.092 0.086 0.093 0.129 0.231 0.129 0.415 0.086 0.459 0.086 0.736 0.086 0.782 0.043 0.138 0.086 0.183 0.216 0.138 0.043 0 0.086-0.046 0.086-0.092 0.043-0.185 0.086-0.414 0.086-0.644 0.043-0.505 0.043-0.874 0.043-1.149 0.043-0.275 0.129-0.552 0.259-0.782 0.129-0.184 0.388-0.413 0.648-0.321 0.043 0.046 0.086 0.092 0.086 0.138 0 0 0 0.046-0.043 0.046-0.26 0.461-0.389 0.966-0.433 1.471-0.129 0.92-0.173 1.38-0.173 1.426 0 0.092 0.043 0.138 0.13 0.138s0.173-0.046 0.216-0.092c0.476-0.461 0.95-0.966 1.425-1.518 0.259-0.275 0.476-0.505 0.734-0.643 0.173-0.138 0.388-0.184 0.647-0.23 0.216 0 0.388 0.092 0.474 0.23l0.043 0.092c0.13 0.138 0.086 0.23-0.129 0.23-0.518 0.092-0.992 0.321-1.468 0.782-0.776 0.874-1.294 1.379-1.51 1.609-0.086 0.138-0.13 0.277-0.086 0.369 0 0.046 0.043 0.046 0.086 0.092h0.259c0.733-0.323 2.029-0.92 2.633-0.23 0.086 0.092 0.129 0.183 0.129 0.321 0 0 0 0.046-0.043 0.046-0.086 0.138-0.216 0.138-0.388 0.092-0.518-0.138-0.992-0.138-1.425 0-0.431 0.092-0.906 0.276-1.381 0.46-0.173 0.092-0.388 0.23-0.388 0.46s0.086 0.368 0.259 0.459c0.562 0.323 0.95 0.599 1.209 0.829s0.345 0.505 0.345 0.874c0 0.092-0.086 0.184-0.173 0.184-0.086 0.046-0.173-0.046-0.259-0.138-0.216-0.461-0.561-0.828-0.993-1.15-0.517-0.275-1.035-0.599-1.553-0.323-0.172 0.093-0.303 0.185-0.476 0.231-0.517 0.184-0.949 0.046-1.337-0.322-0.605-0.597-1.209-1.15-1.899-1.655-0.044 0-0.044 0-0.044 0.046 0.13 0.828 0.174 1.609 0.087 2.391 0 0.046 0.043 0.092 0.086 0.092 1.51 1.104 3.279 1.794 5.135 1.932 3.627 0.276 7.382-1.426 9.885-4.277 1.080-1.242 1.899-2.667 2.417-4.277 0.993-2.989 0.864-6.484-0.69-9.197-1.166-2.070-2.979-3.357-5.266-3.588 0 0-0.043 0-0.043-0.046 0.043-0.046 0.086-0.046 0.129-0.046 1.424-0.184 2.763 0.23 3.884 1.104 1.166 0.874 2.029 1.978 2.677 3.265 1.035 2.115 1.468 4.369 1.381 6.807-0.043 1.15-0.217 2.207-0.519 3.265-1.165 3.909-3.324 6.898-6.56 8.921-1.683 1.058-3.582 1.793-5.655 2.116-0.561 0.092-1.078 0.138-1.683 0.138-2.029 0.046-3.971-0.321-5.87-1.104-1.209-0.506-2.417-1.15-3.539-1.931-0.043-0.046-0.086 0-0.043 0.046 0.086 0.506-0.086 0.782-0.561 0.92-0.173 0.046-0.388 0.092-0.605 0.046-0.431-0.046-0.776-0.046-1.122 0-0.691 0.046-1.295 0.599-1.511 1.288-0.043 0.183-0.043 0.368-0.043 0.598-0.043 0.092-0.043 0.184-0.086 0.23-0.129 0.184-0.345 0-0.431-0.183-0.129-0.277 0-0.737 0.173-1.012 0.129-0.183 0.302-0.46 0.604-0.782 0.043-0.046 0.086-0.138 0.086-0.229v-0.046c0-0.092-0.043-0.138-0.173-0.138-0.302-0.046-0.863-0.046-1.123 0-0.302 0-0.561 0.138-0.863 0.276-0.129 0.092-0.216 0.046-0.259-0.138 0-0.183 0.043-0.321 0.173-0.414 0.302-0.184 0.604-0.276 0.906-0.23 0.26 0.046 0.519 0.046 0.778 0.046 0.129 0 0.216-0.046 0.302-0.092v-0.046c0 0 0-0.046-0.043-0.046-0.647-0.183-1.425-0.551-1.899-1.149-0.431-0.597-0.216-1.287 0.388-1.655 0.259-0.139 0.518-0.231 0.864-0.323 0 0 0.043 0 0.043-0.046h-0.043c-0.086-0.138-0.26-0.367-0.562-0.782-1.035-1.287-1.727-2.758-2.115-4.415-0.776-3.219-0.043-6.576 2.072-9.059 0.648-0.782 1.338-1.425 2.029-1.932 0.217-0.138 0.562-0.413 1.036-0.735zM19.219 1.713c-0.66 0-1.196 0.55-1.196 1.228s0.536 1.228 1.196 1.228c0.66 0 1.196-0.55 1.196-1.228s-0.536-1.228-1.196-1.228z"></path>
<path d="M19.597 2.929c0 0.523-0.179 0.946-0.401 0.946s-0.401-0.424-0.401-0.946c0-0.523 0.179-0.946 0.401-0.946s0.401 0.424 0.401 0.946z"></path>
</svg>
