<?xml version="1.0" encoding="utf-8"?>
<svg xmlns="http://www.w3.org/2000/svg" viewBox="451.0556 358.0492 110.5565 100.168" width="150pt" height="150pt">
  <path fill="#1c1c1c" d="M 470.261719 381.253906 C 469.804688 381.40625 469.5 381.40625 469.195312 381.558594 C 464.773438 383.691406 460.964844 386.285156 457.914062 390.097656 C 457.914062 390.097656 457.761719 390.097656 457.761719 390.097656 C 457.609375 390.097656 457.609375 390.097656 457.457031 389.945312 C 457.457031 389.640625 457.304688 389.183594 457.152344 388.726562 C 457 385.675781 458.371094 382.625 459.894531 379.878906 C 460.503906 378.964844 460.199219 377.898438 458.980469 378.050781 C 457.914062 378.050781 457.152344 378.507812 456.390625 379.117188 C 456.238281 379.269531 456.085938 379.421875 455.78125 379.421875 C 455.628906 379.574219 455.628906 379.574219 455.476562 379.574219 C 455.019531 379.421875 454.714844 378.964844 454.867188 378.355469 C 455.324219 376.675781 458.066406 376.523438 459.4375 376.523438 C 460.808594 376.371094 461.421875 375.609375 460.808594 374.238281 C 459.894531 372.40625 458.675781 371.035156 456.847656 370.121094 C 456.542969 369.964844 456.390625 369.660156 456.390625 369.355469 C 456.238281 368.746094 457 368.441406 457.457031 368.441406 C 458.371094 368.59375 459.132812 369.050781 459.742188 369.8125 C 460.199219 370.578125 460.808594 371.492188 461.574219 372.863281 C 461.726562 373.167969 461.726562 373.320312 461.726562 373.320312 C 462.183594 373.933594 462.792969 373.933594 463.097656 373.320312 C 463.554688 372.710938 462.488281 370.578125 462.183594 370.121094 C 461.574219 369.050781 460.964844 368.136719 461.117188 367.070312 C 461.117188 366.917969 461.269531 366.917969 461.269531 366.765625 C 462.335938 366 463.25 367.375 463.554688 368.289062 C 463.859375 369.355469 464.011719 370.425781 464.316406 371.492188 C 464.316406 371.796875 464.46875 372.101562 464.773438 372.253906 C 464.773438 372.40625 464.925781 372.40625 465.078125 372.40625 C 465.230469 372.40625 465.230469 372.40625 465.382812 372.40625 C 466.144531 371.796875 466.449219 370.121094 466.753906 369.203125 C 466.90625 368.441406 467.367188 367.832031 467.824219 367.375 C 468.433594 366.917969 469.652344 367.375 469.5 368.289062 C 469.5 368.441406 469.347656 368.746094 469.042969 369.050781 C 468.433594 369.964844 467.367188 370.882812 467.367188 371.949219 C 467.367188 372.253906 467.519531 372.558594 467.824219 372.558594 C 468.128906 372.558594 468.433594 372.558594 468.738281 372.40625 C 468.890625 372.253906 469.347656 371.796875 469.957031 371.1875 C 470.71875 370.578125 471.9375 370.425781 472.394531 371.492188 C 472.546875 371.644531 472.394531 371.796875 472.242188 371.949219 C 472.089844 372.253906 471.9375 372.40625 471.785156 372.558594 C 470.566406 373.015625 469.957031 373.167969 469.804688 373.320312 C 468.890625 373.628906 468.28125 374.238281 467.976562 375 C 467.824219 375.152344 467.824219 375.304688 467.824219 375.457031 C 468.128906 375.914062 468.433594 376.066406 469.042969 375.761719 C 470.566406 375.304688 471.480469 375.152344 471.480469 375.152344 C 472.242188 374.847656 473.15625 374.847656 473.464844 375.457031 C 473.617188 375.761719 473.617188 375.914062 473.464844 376.21875 C 473.003906 376.980469 471.9375 376.828125 471.023438 376.828125 C 470.261719 376.980469 469.652344 376.980469 469.347656 377.132812 C 467.824219 377.746094 466.753906 378.8125 466.296875 380.640625 C 466.296875 380.792969 466.449219 380.949219 466.601562 380.949219 C 468.585938 380.488281 470.109375 380.335938 471.328125 380.03125 C 473.15625 379.726562 474.835938 379.117188 476.511719 378.203125 C 479.558594 376.675781 482.152344 374.847656 484.285156 373.015625 C 484.894531 372.40625 486.726562 370.882812 489.621094 368.289062 C 494.195312 364.171875 499.226562 361.121094 505.324219 360.207031 C 507.152344 359.902344 508.980469 359.75 510.808594 359.597656 C 512.03125 359.597656 513.25 358.679688 514.164062 358.375 C 515.992188 357.917969 517.671875 357.917969 519.195312 358.527344 C 520.109375 358.984375 521.175781 359.902344 521.9375 360.511719 C 522.546875 360.96875 523.308594 361.273438 524.074219 361.578125 C 524.835938 361.882812 526.359375 362.339844 528.644531 363.105469 C 528.949219 363.105469 529.40625 363.257812 529.714844 363.5625 C 530.476562 364.019531 530.933594 364.628906 530.933594 365.542969 C 530.933594 367.375 530.324219 368.59375 528.949219 369.8125 C 526.054688 372.101562 522.699219 373.167969 518.738281 374.695312 C 517.519531 375.152344 516.90625 375.304688 516.601562 375.457031 C 514.011719 376.828125 512.183594 377.746094 509.285156 378.8125 C 506.847656 379.726562 504.867188 380.488281 503.339844 381.253906 C 499.835938 382.625 496.9375 384.609375 494.652344 387.046875 C 493.28125 388.574219 492.214844 389.792969 491.753906 391.164062 C 490.382812 394.0625 490.535156 397.570312 490.839844 400.621094 C 490.839844 400.621094 490.992188 400.773438 490.992188 400.773438 C 493.433594 400.46875 495.871094 399.707031 497.546875 397.722656 C 499.226562 395.894531 498.769531 393.910156 497.546875 391.929688 C 497.242188 391.46875 497.242188 391.011719 497.242188 390.554688 C 497.394531 390.25 497.699219 389.945312 498.003906 389.945312 C 498.308594 389.945312 498.617188 389.945312 498.921875 390.25 C 500.445312 391.316406 500.292969 394.519531 500.445312 396.351562 C 500.445312 396.503906 500.597656 396.65625 500.75 396.65625 C 500.75 396.65625 500.75 396.65625 500.902344 396.65625 C 502.273438 396.351562 503.644531 392.996094 504.253906 392.082031 C 504.714844 391.316406 505.171875 390.707031 505.78125 390.402344 C 506.390625 390.097656 507 390.097656 507.457031 390.402344 C 507.457031 390.402344 507.457031 390.554688 507.457031 390.554688 C 508.066406 390.859375 508.066406 391.316406 507.457031 391.777344 C 505.78125 392.84375 504.558594 394.214844 503.796875 395.589844 C 503.644531 395.894531 503.644531 396.046875 503.644531 396.351562 C 503.644531 396.503906 503.949219 396.65625 504.101562 396.65625 C 504.101562 396.65625 504.101562 396.65625 504.253906 396.65625 C 505.324219 396.199219 506.238281 395.894531 507 395.742188 C 508.371094 395.285156 510.808594 395.4375 511.574219 396.808594 C 511.878906 397.265625 511.726562 397.875 511.117188 398.027344 C 510.65625 398.027344 509.742188 397.722656 509.4375 397.570312 C 507.761719 397.113281 505.476562 397.417969 504.253906 398.789062 C 503.644531 399.402344 504.101562 400.316406 504.714844 400.621094 C 506.085938 401.078125 507 401.382812 507.457031 401.535156 C 508.675781 402.144531 510.964844 403.824219 509.894531 405.347656 C 509.589844 405.652344 508.980469 405.5 508.675781 405.195312 C 507.914062 404.433594 507.457031 403.976562 507.152344 403.671875 C 505.933594 402.453125 503.339844 401.230469 501.816406 402.296875 C 500.902344 402.910156 500.902344 403.519531 501.359375 404.433594 C 502.121094 405.957031 502.730469 407.484375 501.96875 409.007812 C 501.511719 409.925781 500.140625 410.230469 500.140625 408.855469 C 500.140625 407.941406 500.597656 407.027344 500.292969 405.957031 C 499.683594 404.28125 498.003906 404.890625 496.9375 405.652344 C 493.890625 407.789062 490.992188 409.617188 487.335938 409.3125 C 485.351562 409.160156 484.132812 407.332031 483.675781 405.652344 C 483.066406 403.824219 482.914062 401.992188 483.21875 400.164062 C 483.21875 400.164062 483.21875 400.011719 483.21875 400.011719 C 483.21875 400.011719 483.066406 400.011719 483.066406 400.011719 C 482.914062 400.011719 482.914062 400.011719 482.914062 400.011719 C 481.238281 400.925781 479.714844 402.296875 478.339844 403.976562 C 475.445312 407.636719 474.226562 411.601562 474.835938 416.023438 C 475.292969 420.753906 478.035156 425.328125 481.542969 428.683594 C 481.542969 428.683594 481.542969 428.683594 481.695312 428.683594 C 481.695312 428.683594 481.695312 428.683594 481.695312 428.53125 C 482.609375 425.785156 483.980469 423.34375 485.808594 421.058594 C 487.792969 418.617188 490.382812 418.769531 493.28125 419.988281 C 496.785156 421.515625 499.53125 423.953125 501.816406 427.15625 C 502.273438 427.769531 502.882812 428.074219 503.644531 427.613281 C 504.101562 427.460938 504.558594 427.15625 504.714844 426.699219 C 505.78125 425.632812 505.78125 424.566406 505.171875 423.191406 C 504.867188 422.277344 504.40625 421.058594 505.019531 420.292969 C 505.171875 420.140625 505.324219 419.988281 505.628906 419.988281 C 505.78125 419.988281 505.933594 420.140625 506.085938 420.292969 C 506.390625 420.601562 506.542969 421.058594 506.542969 421.667969 C 506.847656 423.191406 506.847656 424.109375 506.847656 424.261719 C 507 424.71875 507.152344 424.871094 507.609375 424.71875 C 507.761719 424.71875 507.914062 424.566406 507.914062 424.414062 C 508.066406 423.800781 508.21875 423.039062 508.21875 422.277344 C 508.371094 420.601562 508.371094 419.378906 508.371094 418.464844 C 508.523438 417.550781 508.828125 416.632812 509.285156 415.871094 C 509.742188 415.261719 510.65625 414.5 511.574219 414.804688 C 511.726562 414.957031 511.878906 415.109375 511.878906 415.261719 C 511.878906 415.261719 511.878906 415.414062 511.726562 415.414062 C 510.808594 416.941406 510.351562 418.617188 510.199219 420.292969 C 509.742188 423.34375 509.589844 424.871094 509.589844 425.023438 C 509.589844 425.328125 509.742188 425.480469 510.046875 425.480469 C 510.351562 425.480469 510.65625 425.328125 510.808594 425.175781 C 512.488281 423.648438 514.164062 421.972656 515.839844 420.140625 C 516.753906 419.226562 517.519531 418.464844 518.433594 418.007812 C 519.042969 417.550781 519.804688 417.398438 520.71875 417.246094 C 521.480469 417.246094 522.089844 417.550781 522.394531 418.007812 L 522.546875 418.3125 C 523.003906 418.769531 522.851562 419.074219 522.089844 419.074219 C 520.261719 419.378906 518.585938 420.140625 516.90625 421.667969 C 514.164062 424.566406 512.335938 426.242188 511.574219 427.003906 C 511.269531 427.460938 511.117188 427.921875 511.269531 428.226562 C 511.269531 428.378906 511.421875 428.378906 511.574219 428.53125 C 511.878906 428.53125 512.183594 428.53125 512.488281 428.53125 C 515.078125 427.460938 519.652344 425.480469 521.785156 427.769531 C 522.089844 428.074219 522.242188 428.378906 522.242188 428.835938 C 522.242188 428.835938 522.242188 428.988281 522.089844 428.988281 C 521.785156 429.445312 521.328125 429.445312 520.71875 429.292969 C 518.890625 428.835938 517.214844 428.835938 515.6875 429.292969 C 514.164062 429.597656 512.488281 430.207031 510.808594 430.816406 C 510.199219 431.121094 509.4375 431.582031 509.4375 432.34375 C 509.4375 433.105469 509.742188 433.5625 510.351562 433.867188 C 512.335938 434.9375 513.707031 435.851562 514.621094 436.613281 C 515.535156 437.375 515.839844 438.289062 515.839844 439.511719 C 515.839844 439.816406 515.535156 440.121094 515.230469 440.121094 C 514.925781 440.273438 514.621094 439.96875 514.316406 439.664062 C 513.554688 438.136719 512.335938 436.917969 510.808594 435.851562 C 508.980469 434.9375 507.152344 433.867188 505.324219 434.78125 C 504.714844 435.089844 504.253906 435.394531 503.644531 435.546875 C 501.816406 436.15625 500.292969 435.699219 498.921875 434.476562 C 496.785156 432.496094 494.652344 430.664062 492.214844 428.988281 C 492.058594 428.988281 492.058594 428.988281 492.058594 429.140625 C 492.519531 431.886719 492.671875 434.476562 492.367188 437.070312 C 492.367188 437.222656 492.519531 437.375 492.671875 437.375 C 498.003906 441.035156 504.253906 443.324219 510.808594 443.78125 C 523.617188 444.695312 536.878906 439.054688 545.71875 429.597656 C 549.53125 425.480469 552.425781 420.753906 554.253906 415.414062 C 557.761719 405.5 557.304688 393.910156 551.816406 384.914062 C 547.699219 378.050781 541.296875 373.78125 533.21875 373.015625 C 533.21875 373.015625 533.066406 373.015625 533.066406 372.863281 C 533.21875 372.710938 533.371094 372.710938 533.523438 372.710938 C 538.554688 372.101562 543.28125 373.472656 547.242188 376.371094 C 551.359375 379.269531 554.40625 382.929688 556.695312 387.199219 C 560.351562 394.214844 561.878906 401.6875 561.574219 409.773438 C 561.421875 413.585938 560.808594 417.09375 559.742188 420.601562 C 555.628906 433.5625 548.003906 443.476562 536.574219 450.1875 C 530.628906 453.695312 523.921875 456.132812 516.601562 457.203125 C 514.621094 457.507812 512.792969 457.660156 510.65625 457.660156 C 503.492188 457.8125 496.632812 456.59375 489.925781 454 C 485.65625 452.320312 481.390625 450.1875 477.425781 447.59375 C 477.273438 447.441406 477.121094 447.59375 477.273438 447.746094 C 477.578125 449.425781 476.96875 450.339844 475.292969 450.796875 C 474.683594 450.949219 473.921875 451.101562 473.15625 450.949219 C 471.632812 450.796875 470.414062 450.796875 469.195312 450.949219 C 466.753906 451.101562 464.621094 452.933594 463.859375 455.21875 C 463.707031 455.828125 463.707031 456.4375 463.707031 457.203125 C 463.554688 457.507812 463.554688 457.8125 463.402344 457.964844 C 462.945312 458.574219 462.183594 457.964844 461.878906 457.355469 C 461.421875 456.4375 461.878906 454.914062 462.488281 454 C 462.945312 453.390625 463.554688 452.472656 464.621094 451.40625 C 464.773438 451.253906 464.925781 450.949219 464.925781 450.644531 C 464.925781 450.644531 464.925781 450.644531 464.925781 450.492188 C 464.925781 450.1875 464.773438 450.035156 464.316406 450.035156 C 463.25 449.882812 461.269531 449.882812 460.351562 450.035156 C 459.285156 450.035156 458.371094 450.492188 457.304688 450.949219 C 456.847656 451.253906 456.542969 451.101562 456.390625 450.492188 C 456.390625 449.882812 456.542969 449.425781 457 449.117188 C 458.066406 448.507812 459.132812 448.203125 460.199219 448.355469 C 461.117188 448.507812 462.03125 448.507812 462.945312 448.507812 C 463.402344 448.507812 463.707031 448.355469 464.011719 448.203125 C 464.011719 448.203125 464.011719 448.050781 464.011719 448.050781 C 464.011719 448.050781 464.011719 447.898438 463.859375 447.898438 C 461.574219 447.289062 458.828125 446.070312 457.152344 444.085938 C 455.628906 442.105469 456.390625 439.816406 458.523438 438.597656 C 459.4375 438.136719 460.351562 437.832031 461.574219 437.527344 C 461.574219 437.527344 461.726562 437.527344 461.726562 437.375 C 461.726562 437.375 461.726562 437.375 461.574219 437.375 C 461.269531 436.917969 460.65625 436.15625 459.589844 434.78125 C 455.933594 430.511719 453.492188 425.632812 452.121094 420.140625 C 449.378906 409.464844 451.96875 398.332031 459.4375 390.097656 C 461.726562 387.503906 464.164062 385.371094 466.601562 383.691406 C 467.367188 383.234375 468.585938 382.320312 470.261719 381.253906 C 470.414062 381.253906 470.261719 381.253906 470.261719 381.253906 Z M 470.261719 381.253906 " fill-opacity="1" fill-rule="evenodd"/>
</svg>