<?xml version="1.0" encoding="UTF-8" standalone="no"?>
<!DOCTYPE svg PUBLIC "-//W3C//DTD SVG 1.1//EN" "http://www.w3.org/Graphics/SVG/1.1/DTD/svg11.dtd">
<svg width="100%" height="100%" viewBox="0 0 150 150" version="1.1" xmlns="http://www.w3.org/2000/svg" xmlns:xlink="http://www.w3.org/1999/xlink" xml:space="preserve" xmlns:serif="http://www.serif.com/" style="fill-rule:evenodd;clip-rule:evenodd;stroke-linejoin:round;stroke-miterlimit:2;">
    <g transform="matrix(0.127597,0,0,0.135884,-57.2721,-51.8209)">
        <path d="M674.215,653.707C669.461,655.292 666.292,655.292 663.123,656.877C617.127,679.062 577.51,706.042 545.776,745.699L544.191,745.699C542.607,745.699 542.607,745.699 541.022,744.115C541.022,740.945 539.437,736.191 537.853,731.437C536.268,699.703 550.53,667.969 566.377,639.405C572.715,629.897 569.546,618.804 556.869,620.389C545.776,620.389 537.853,625.143 529.929,631.481C528.345,633.066 526.76,634.651 523.591,634.651C522.006,636.235 522.006,636.235 520.421,636.235C515.667,634.651 512.498,629.897 514.083,623.558C518.837,606.086 547.361,604.501 561.623,604.501C575.885,602.917 582.264,594.993 575.885,580.731C566.377,561.675 553.699,547.413 534.683,537.905C531.514,536.279 529.929,533.11 529.929,529.941C528.345,523.602 536.268,520.433 541.022,520.433C550.53,522.017 558.453,526.771 564.792,534.695C569.546,542.659 575.885,552.167 583.849,566.429C585.433,569.598 585.433,571.183 585.433,571.183C590.187,577.562 596.526,577.562 599.695,571.183C604.449,564.844 593.357,542.659 590.187,537.905C583.849,526.771 577.51,517.263 579.095,506.171C579.095,504.586 580.679,504.586 580.679,503.001C591.772,495.037 601.28,509.34 604.449,518.848C607.619,529.941 609.203,541.074 612.373,552.167C612.373,555.336 613.957,558.505 617.127,560.09C617.127,561.675 618.711,561.675 620.296,561.675L623.465,561.675C631.389,555.336 634.558,537.905 637.727,528.356C639.312,520.433 644.107,514.094 648.861,509.34C655.199,504.586 667.877,509.34 666.292,518.848C666.292,520.433 664.707,523.602 661.538,526.771C655.199,536.279 644.107,545.828 644.107,556.921C644.107,560.09 645.691,563.259 648.861,563.259C652.031,563.259 655.199,563.259 658.369,561.675L671.046,548.997C678.969,542.659 691.647,541.074 696.401,552.167C697.985,553.751 696.401,555.336 694.816,556.921C693.231,560.09 691.647,561.675 690.062,563.259C677.385,568.013 671.046,569.598 669.461,571.183C659.953,574.393 653.615,580.731 650.445,588.655C648.861,590.239 648.861,591.824 648.861,593.409C652.03,598.163 655.199,599.747 661.538,596.578C677.385,591.824 686.893,590.239 686.893,590.239C694.816,587.07 704.324,587.07 707.534,593.409C709.119,596.578 709.119,598.163 707.534,601.332C702.739,609.255 691.647,607.671 682.139,607.671C674.215,609.255 667.877,609.255 664.707,610.84C648.861,617.219 637.727,628.312 632.973,647.328C632.973,648.913 634.558,650.538 636.143,650.538C656.784,645.743 672.631,644.159 685.308,640.989C704.324,637.82 721.796,631.481 739.227,621.973C770.921,606.086 797.901,587.07 820.086,568.013C826.425,561.675 845.481,545.828 875.59,518.848C923.171,476.021 975.505,444.287 1038.93,434.779C1057.95,431.61 1076.97,430.025 1095.98,428.441C1108.7,428.441 1121.38,418.892 1130.89,415.723C1149.9,410.969 1167.37,410.969 1183.22,417.307C1192.73,422.061 1203.82,431.61 1211.74,437.949C1218.08,442.703 1226.01,445.872 1233.97,449.041C1241.89,452.211 1257.74,456.965 1281.51,464.929C1284.68,464.929 1289.43,466.513 1292.64,469.683C1300.57,474.437 1305.32,480.775 1305.32,490.283C1305.32,509.34 1298.98,522.017 1284.68,534.695C1254.57,558.505 1219.67,569.598 1178.47,585.485C1165.79,590.239 1159.41,591.824 1156.24,593.409C1129.3,607.671 1110.28,617.219 1080.14,628.312C1054.78,637.82 1034.18,645.743 1018.29,653.707C981.844,667.969 951.695,688.611 927.925,713.965C913.663,729.853 902.57,742.53 897.775,756.792C883.513,786.941 885.098,823.429 888.267,855.163L889.852,856.748C915.247,853.579 940.602,845.655 958.033,825.014C975.505,805.998 970.751,785.357 958.033,764.756C954.864,759.961 954.864,755.207 954.864,750.453C956.449,747.284 959.618,744.115 962.787,744.115C965.956,744.115 969.167,744.115 972.336,747.284C988.183,758.377 986.598,791.695 988.183,810.752C988.183,812.337 989.767,813.921 991.352,813.921L992.937,813.921C1007.2,810.752 1021.46,775.849 1027.8,766.341C1032.6,758.377 1037.35,752.038 1043.69,748.869C1050.03,745.7 1056.36,745.699 1061.12,748.869L1061.12,750.453C1067.46,753.623 1067.46,758.377 1061.12,763.171C1043.69,774.264 1030.97,788.526 1023.04,802.829C1021.46,805.998 1021.46,807.583 1021.46,810.752C1021.46,812.337 1024.63,813.921 1026.22,813.921L1027.8,813.921C1038.93,809.167 1048.44,805.998 1056.36,804.413C1070.63,799.659 1095.98,801.244 1103.95,815.506C1107.11,820.26 1105.53,826.599 1099.19,828.183C1094.4,828.183 1084.89,825.014 1081.72,823.429C1064.29,818.675 1040.52,821.845 1027.8,836.107C1021.46,842.486 1026.22,851.994 1032.6,855.163L1061.12,864.671C1073.8,871.01 1097.61,888.482 1086.47,904.329C1083.3,907.498 1076.97,905.913 1073.8,902.744L1057.95,886.897C1045.27,874.22 1018.29,861.502 1002.45,872.595C992.937,878.974 992.937,885.313 997.691,894.821C1005.61,910.667 1011.95,926.555 1004.03,942.401C999.275,951.95 985.013,955.119 985.013,940.817C985.013,931.309 989.767,921.801 986.598,910.667C980.259,893.236 962.787,899.575 951.695,907.498C920.001,929.724 889.852,948.74 851.82,945.571C831.179,943.986 818.501,924.97 813.747,907.498C807.409,888.482 805.824,869.425 808.993,850.409L808.993,848.825L805.824,848.825C788.393,858.333 772.546,872.595 758.243,890.067C728.135,928.139 715.457,969.381 721.796,1015.38C726.55,1064.59 755.074,1112.16 791.562,1147.07L793.147,1147.07L793.147,1145.48C802.655,1116.91 816.917,1091.53 835.933,1067.76C856.574,1042.36 883.513,1043.94 913.663,1056.62C950.11,1072.51 978.675,1097.87 1002.45,1131.17C1007.2,1137.56 1013.54,1140.72 1021.46,1135.93C1026.22,1134.35 1030.97,1131.17 1032.6,1126.42C1043.69,1115.34 1043.69,1104.24 1037.35,1089.93C1034.18,1080.42 1029.38,1067.76 1035.76,1059.79C1037.35,1058.2 1038.93,1056.62 1042.1,1056.62C1043.69,1056.62 1045.27,1058.2 1046.86,1059.79C1050.03,1062.99 1051.61,1067.76 1051.61,1074.1C1054.78,1089.93 1054.78,1099.48 1054.78,1101.08C1056.36,1105.83 1057.95,1107.41 1062.7,1105.83C1064.29,1105.83 1065.87,1104.24 1065.87,1102.65C1067.46,1096.28 1069.04,1088.36 1069.04,1080.42C1070.63,1062.99 1070.63,1050.28 1070.63,1040.77C1072.21,1031.27 1075.38,1021.72 1080.14,1013.79C1084.89,1007.45 1094.4,999.531 1103.95,1002.7C1105.53,1004.28 1107.11,1005.87 1107.11,1007.45C1107.11,1007.45 1107.11,1009.04 1105.53,1009.04C1095.98,1024.93 1091.23,1042.36 1089.64,1059.79C1084.89,1091.53 1083.3,1107.41 1083.3,1108.99C1083.3,1112.16 1084.89,1113.74 1088.06,1113.74C1091.23,1113.74 1094.4,1112.16 1095.98,1110.58C1113.45,1094.69 1130.89,1077.27 1148.32,1058.2C1157.82,1048.7 1165.79,1040.77 1175.3,1036.02C1181.64,1031.27 1189.56,1029.68 1199.07,1028.1C1206.99,1028.1 1213.33,1031.27 1216.5,1036.02L1218.08,1039.19C1222.84,1043.94 1221.25,1047.11 1213.33,1047.11C1194.31,1050.28 1176.88,1058.2 1159.41,1074.1C1130.89,1104.24 1111.87,1121.67 1103.95,1129.6C1100.78,1134.35 1099.19,1139.14 1100.78,1142.32C1100.78,1143.89 1102.36,1143.89 1103.95,1145.48L1113.45,1145.48C1140.39,1134.35 1187.97,1113.74 1210.16,1137.56C1213.33,1140.72 1214.91,1143.89 1214.91,1148.65C1214.91,1148.65 1214.91,1150.23 1213.33,1150.23C1210.16,1154.99 1205.41,1154.99 1199.07,1153.4C1180.05,1148.65 1162.62,1148.65 1146.73,1153.4C1130.89,1156.58 1113.45,1162.91 1095.98,1169.26C1089.64,1172.42 1081.72,1177.21 1081.72,1185.14C1081.72,1193.07 1084.89,1197.82 1091.23,1200.98C1111.87,1212.13 1126.13,1221.63 1135.64,1229.56C1145.15,1237.47 1148.32,1246.98 1148.32,1259.7C1148.32,1262.88 1145.15,1266.04 1141.98,1266.04C1138.81,1267.63 1135.64,1264.45 1132.47,1261.29C1124.55,1245.39 1111.87,1232.72 1095.98,1221.63C1076.97,1212.13 1057.95,1200.98 1038.93,1210.49C1032.6,1213.7 1027.8,1216.88 1021.46,1218.45C1002.45,1224.8 986.598,1220.05 972.336,1207.33C950.11,1186.72 927.925,1167.66 902.57,1150.23C900.945,1150.23 900.945,1150.23 900.945,1151.83C905.739,1180.38 907.324,1207.33 904.155,1234.31C904.155,1235.89 905.739,1237.47 907.324,1237.47C962.787,1275.55 1027.8,1299.36 1095.98,1304.12C1229.22,1313.63 1367.16,1254.94 1459.11,1156.58C1498.77,1113.74 1528.88,1064.59 1547.9,1009.04C1584.38,905.913 1579.63,785.357 1522.54,691.78C1479.72,620.389 1413.12,575.977 1329.09,568.013C1329.09,568.013 1327.51,568.013 1327.51,566.429C1329.09,564.844 1330.68,564.844 1332.26,564.844C1384.59,558.505 1433.76,572.767 1474.96,602.917C1517.79,633.066 1549.48,671.139 1573.29,715.55C1611.32,788.526 1627.21,866.256 1624.04,950.365C1622.46,990.023 1616.08,1026.51 1604.99,1062.99C1562.2,1197.82 1482.88,1300.94 1363.99,1370.74C1302.15,1407.23 1232.39,1432.6 1156.24,1443.72C1135.64,1446.89 1116.62,1448.47 1094.4,1448.47C1019.88,1450.07 948.525,1437.38 878.759,1410.4C834.348,1392.93 789.977,1370.74 748.735,1343.77C747.151,1342.18 745.566,1343.77 747.151,1345.36C750.32,1362.83 743.981,1372.34 726.55,1377.09C720.211,1378.67 712.288,1380.26 704.324,1378.67C688.477,1377.09 675.8,1377.09 663.123,1378.67C637.727,1380.26 615.542,1399.32 607.619,1423.09C606.034,1429.42 606.034,1435.77 606.034,1443.72C604.449,1446.89 604.449,1450.07 602.865,1451.64C598.111,1457.98 590.187,1451.64 587.018,1445.32C582.264,1435.77 587.018,1419.91 593.357,1410.4C598.111,1404.07 604.449,1394.52 615.542,1383.42C617.127,1381.85 618.711,1378.67 618.711,1375.51L618.711,1373.91C618.711,1370.74 617.127,1369.16 612.373,1369.16C601.28,1367.59 580.679,1367.59 571.131,1369.16C560.038,1369.16 550.53,1373.91 539.437,1378.67C534.683,1381.85 531.514,1380.26 529.929,1373.91C529.929,1367.59 531.514,1362.83 536.268,1359.62C547.361,1353.28 558.453,1350.11 569.546,1351.69C579.095,1353.28 588.603,1353.28 598.111,1353.28C602.865,1353.28 606.034,1351.69 609.203,1350.11L609.203,1348.53C609.203,1348.53 609.203,1346.93 607.619,1346.93C583.849,1340.61 555.284,1327.92 537.853,1307.29C522.006,1286.68 529.929,1262.88 552.115,1250.19C561.623,1245.39 571.131,1242.22 583.849,1239.06C583.849,1239.06 585.433,1239.06 585.433,1237.47L583.849,1237.47C580.679,1232.72 574.3,1224.8 563.207,1210.49C525.175,1166.09 499.78,1115.34 485.518,1058.2C456.994,947.155 483.933,831.353 561.623,745.699C585.433,718.719 610.788,696.534 636.143,679.062C644.107,674.308 656.784,664.8 674.215,653.707ZM1154.89,440.467C1130.65,440.467 1110.97,459.447 1110.97,482.826C1110.97,506.204 1130.65,525.185 1154.89,525.185C1179.13,525.185 1198.82,506.204 1198.82,482.826C1198.82,459.447 1179.13,440.467 1154.89,440.467Z"/>
    </g>
    <g transform="matrix(0.751981,0,0,0.736143,57.7875,5.0899)">
        <ellipse cx="42.811" cy="11.739" rx="2.498" ry="6.027"/>
    </g>
</svg>
