<!-- Generated by IcoMoon.io -->
<svg version="1.1" xmlns="http://www.w3.org/2000/svg" width="32" height="32" viewBox="0 0 32 32">
<path d="M0 27.604l3.14-0 0.101-0.343h-0.405l0.608-1.714h-0.405l0.506-1.714h-0.405l0.608-1.542h-0.405l1.013-3.084 1.013 3.084h-0.405l0.608 1.542h-0.405l0.506 1.714h-0.405l0.608 1.714h-0.405l0.101 0.343h2.127l0.101-0.514h-0.405l0.608-1.714h-0.405l0.608-1.885h-0.506l0.608-1.714h-0.405l1.114-3.256 1.114 3.256h-0.506l0.608 1.714h-0.405l0.608 1.885h-0.405l0.608 1.714h-0.506l0.203 0.514h1.114l0.304-1.028h-0.506l0.709-2.228h-0.506l0.81-2.228h-0.608l0.81-2.228h-0.608l1.418-4.113 1.418 4.113h-0.608l0.81 2.228h-0.608l0.81 2.228h-0.608l0.81 2.228h-0.608l0.304 1.028h1.215l0.506-1.371h-0.709l0.911-2.742h-0.608l0.911-2.742h-0.709l0.911-2.742h-0.608l1.62-4.969 1.722 4.969h-0.709l1.013 2.742h-0.709l0.911 2.742h-0.709l1.013 2.742h-0.709l0.506 1.371h0.608l0.203-0.686h-0.405l0.608-2.056h-0.506l0.709-2.056h-0.506l0.709-1.885h-0.506l1.215-3.77 1.316 3.77h-0.506l0.608 1.885h-0.405l0.608 2.056h-0.506l0.709 2.056h-0.506l0.304 0.686h1.519v-0.171h-0.304l0.506-1.542h-0.405l0.506-1.371h-0.304l0.506-1.542h-0.405l0.911-2.57 0.911 2.57h-0.405l0.506 1.542h-0.303l0.506 1.371h-0.405l0.506 1.542h-0.405l0.101 0.171h3.949l-5.569-14.223-2.633 2.399-5.367-13.195-5.165 10.282-2.127-3.427-3.646 7.026-2.835-3.941-4.658 15.080zM26.329 13.724l0.911 5.826-1.721-3.77-0.304 2.742h-1.519l0.911-0.857-0.709-1.542 0.81-0.857 0.304 0.343 1.317-1.885zM4.861 13.382l0.81 5.826-1.316-2.228-1.722 5.484-1.418 2.056 1.215-2.57 0.101-1.371 2.329-7.197zM11.139 9.954l0.709 4.284-0.911-1.2 0.304 5.312-2.025-3.427-0.81 3.427-0.608-1.714 0.405 0.514 1.013-3.598h0.911l1.013-3.598zM18.228 4.471l-0.101 5.826-1.316-1.028-1.924 5.141 0.405 3.599-1.924-4.627 1.62-0.857 0.506-3.598 2.734-4.455z"></path>
</svg>
