<?xml version="1.0" encoding="utf-8"?>
<svg version="1.1" viewBox="0 0 1200 1200" xmlns="http://www.w3.org/2000/svg" width="150pt" height="150pt">
  <path d="M 11.975 861.449 L 183.307 533.674 L 287.599 619.34 L 421.689 466.625 L 499.906 541.118 L 689.864 317.635 L 887.276 604.441 L 984.118 552.295 L 1188.97 861.444 L 1043.71 861.444 L 1039.99 857.72 L 1054.88 857.72 L 1036.28 824.199 L 1051.16 824.199 L 1032.55 794.403 L 1043.71 794.403 L 1025.09 760.882 L 1039.99 760.882 L 1006.47 705.012 L 972.947 760.882 L 987.847 760.882 L 969.223 794.403 L 980.395 794.403 L 961.772 824.199 L 976.672 824.199 L 958.047 857.72 L 969.22 857.72 L 969.22 861.444 L 913.351 861.444 L 902.178 846.544 L 920.803 846.544 L 894.73 801.848 L 913.354 801.848 L 891.005 757.151 L 905.905 757.151 L 883.557 716.179 L 902.181 716.179 L 853.761 634.237 L 809.064 716.179 L 827.688 716.179 L 801.615 757.151 L 820.24 757.151 L 794.167 801.848 L 812.791 801.848 L 790.443 846.544 L 805.343 846.544 L 797.895 861.444 L 775.546 861.444 L 756.922 831.647 L 782.994 831.647 L 745.745 772.054 L 771.818 772.054 L 738.297 712.461 L 764.37 712.461 L 727.12 652.867 L 753.193 652.867 L 689.871 544.858 L 630.278 652.867 L 652.626 652.867 L 619.106 712.461 L 645.177 712.461 L 611.656 772.054 L 634.005 772.054 L 600.484 831.647 L 626.557 831.647 L 607.933 861.444 L 563.235 861.444 L 552.063 839.096 L 574.411 839.096 L 544.615 790.675 L 566.963 790.675 L 537.167 742.254 L 559.515 742.254 L 529.717 693.834 L 552.066 693.834 L 499.921 604.44 L 447.776 693.834 L 470.125 693.834 L 440.327 742.254 L 462.676 742.254 L 432.879 790.675 L 451.503 790.675 L 425.431 839.096 L 444.055 839.096 L 432.882 861.444 L 391.91 861.444 L 384.461 850.272 L 403.086 850.272 L 380.738 813.022 L 395.637 813.022 L 373.288 772.05 L 388.189 772.05 L 365.84 734.801 L 384.464 734.801 L 343.492 664.032 L 302.52 734.801 L 317.419 734.801 L 295.071 772.05 L 313.696 772.05 L 291.347 813.022 L 306.247 813.022 L 283.898 850.272 L 298.798 850.272 L 295.074 861.444 L 216.857 861.444 L 213.133 853.996 L 228.033 853.996 L 205.685 816.747 L 220.584 816.747 L 201.96 779.497 L 216.86 779.497 L 194.511 745.977 L 209.411 745.977 L 172.162 678.932 L 134.914 745.977 L 149.813 745.977 L 127.464 779.497 L 142.365 779.497 L 123.741 816.747 L 138.64 816.747 L 116.292 853.996 L 131.192 853.996 L 127.468 861.444 L 12.004 861.444 L 11.975 861.449 Z M 980.391 559.755 L 1013.9 686.39 L 950.59 604.449 L 939.418 664.041 L 883.548 664.041 L 917.069 645.418 L 890.996 611.897 L 920.794 593.273 L 931.967 600.721 L 980.387 559.748 L 980.391 559.755 Z M 190.761 552.306 L 220.558 678.942 L 172.137 630.52 L 108.815 749.712 L 56.671 794.408 L 101.367 738.539 L 105.092 708.743 L 190.757 552.309 L 190.761 552.306 Z M 421.689 477.813 L 447.761 570.932 L 414.24 544.859 L 425.412 660.323 L 350.92 585.829 L 321.123 660.323 L 298.775 623.073 L 313.674 634.246 L 350.923 556.029 L 384.444 556.029 L 421.694 477.811 L 421.689 477.813 Z M 682.414 358.623 L 678.689 485.257 L 630.268 462.909 L 559.5 574.655 L 574.399 652.873 L 503.631 552.308 L 563.224 533.684 L 581.848 455.467 L 682.414 358.623 Z" fill-rule="evenodd"/>
</svg>