<?xml version="1.0" encoding="UTF-8" standalone="no"?>
<!DOCTYPE svg PUBLIC "-//W3C//DTD SVG 1.1//EN" "http://www.w3.org/Graphics/SVG/1.1/DTD/svg11.dtd">
<svg width="100%" height="100%" viewBox="0 0 150 150" version="1.1" xmlns="http://www.w3.org/2000/svg" xmlns:xlink="http://www.w3.org/1999/xlink" xml:space="preserve" xmlns:serif="http://www.serif.com/" style="fill-rule:evenodd;clip-rule:evenodd;stroke-linejoin:round;stroke-miterlimit:2;">
    <g transform="matrix(0.127443,0,0,0.215655,-1.52613,-56.3812)">
        <path d="M11.975,861.449L183.307,533.674L287.599,619.34L421.689,466.625L499.906,541.118L689.864,317.635L887.276,604.441L984.118,552.295L1188.97,861.444L1043.71,861.444L1039.99,857.72L1054.88,857.72L1036.28,824.199L1051.16,824.199L1032.55,794.403L1043.71,794.403L1025.09,760.882L1039.99,760.882L1006.47,705.012L972.947,760.882L987.847,760.882L969.223,794.403L980.395,794.403L961.772,824.199L976.672,824.199L958.047,857.72L969.22,857.72L969.22,861.444L913.351,861.444L902.178,846.544L920.803,846.544L894.73,801.848L913.354,801.848L891.005,757.151L905.905,757.151L883.557,716.179L902.181,716.179L853.761,634.237L809.064,716.179L827.688,716.179L801.615,757.151L820.24,757.151L794.167,801.848L812.791,801.848L790.443,846.544L805.343,846.544L797.895,861.444L775.546,861.444L756.922,831.647L782.994,831.647L745.745,772.054L771.818,772.054L738.297,712.461L764.37,712.461L727.12,652.867L753.193,652.867L689.871,544.858L630.278,652.867L652.626,652.867L619.106,712.461L645.177,712.461L611.656,772.054L634.005,772.054L600.484,831.647L626.557,831.647L607.933,861.444L563.235,861.444L552.063,839.096L574.411,839.096L544.615,790.675L566.963,790.675L537.167,742.254L559.515,742.254L529.717,693.834L552.066,693.834L499.921,604.44L447.776,693.834L470.125,693.834L440.327,742.254L462.676,742.254L432.879,790.675L451.503,790.675L425.431,839.096L444.055,839.096L432.882,861.444L391.91,861.444L384.461,850.272L403.086,850.272L380.738,813.022L395.637,813.022L373.288,772.05L388.189,772.05L365.84,734.801L384.464,734.801L343.492,664.032L302.52,734.801L317.419,734.801L295.071,772.05L313.696,772.05L291.347,813.022L306.247,813.022L283.898,850.272L298.798,850.272L295.074,861.444L216.857,861.444L213.133,853.996L228.033,853.996L205.685,816.747L220.584,816.747L201.96,779.497L216.86,779.497L194.511,745.977L209.411,745.977L172.162,678.932L134.914,745.977L149.813,745.977L127.464,779.497L142.365,779.497L123.741,816.747L138.64,816.747L116.292,853.996L131.192,853.996L127.468,861.444L12.004,861.444L11.975,861.449ZM980.391,559.755L1013.9,686.39L950.59,604.449L939.418,664.041L883.548,664.041L917.069,645.418L890.996,611.897L920.794,593.273L931.967,600.721L980.387,559.748L980.391,559.755ZM190.761,552.306L220.558,678.942L172.137,630.52L108.815,749.712L56.671,794.408L101.367,738.539L105.092,708.743L190.757,552.309L190.761,552.306ZM421.689,477.813L447.761,570.932L414.24,544.859L425.412,660.323L350.92,585.829L321.123,660.323L298.775,623.073L313.674,634.246L350.923,556.029L384.444,556.029L421.694,477.811L421.689,477.813ZM682.414,358.623L678.689,485.257L630.268,462.909L559.5,574.655L574.399,652.873L503.631,552.308L563.224,533.684L581.848,455.467L682.414,358.623Z"/>
    </g>
</svg>
