<?xml version="1.0" encoding="utf-8"?>
<svg version="1.1" viewBox="0 0 1200 1200" xmlns="http://www.w3.org/2000/svg" width="150pt" height="150pt">
  <path d="M 823.588 615.24 C 828.979 657.943 855.369 694.084 894.135 712.787 C 973.306 751.087 1027.072 833.965 1022.525 929.027 C 1016.995 1042.647 923.765 1137.574 810.235 1145.027 C 756.093 1148.496 705.703 1133.027 665.015 1104.574 C 624.838 1076.496 570.604 1076.496 530.385 1104.574 C 489.695 1133.027 439.306 1148.496 385.165 1145.027 C 271.641 1137.577 178.266 1042.647 172.875 929.027 C 168.325 834.007 221.953 751.084 301.265 712.787 C 340.031 694.084 366.281 657.943 371.812 615.24 C 379.593 554.913 411.374 497.069 467.671 457.46 C 544.601 403.319 650.58 403.319 727.361 457.46 C 783.517 497.02 815.439 554.865 823.22 615.24 Z M 154.401 424.499 C 204.323 427.119 246.698 471.28 251.854 529.499 C 257.386 592.594 217.072 647.579 161.995 652.359 C 106.918 657.139 57.746 609.979 52.215 546.979 C 43.309 445.73 83.059 383.668 106.684 356.199 C 113.903 347.809 127.215 350.2 131.059 360.512 L 154.45 424.45 Z M 291.466 262.547 L 290.247 248.25 C 281.341 147.001 321.091 84.939 344.716 57.47 C 351.935 49.08 365.247 51.471 369.091 61.783 L 392.153 124.549 C 392.997 124.455 393.606 124.08 394.45 124.08 C 457.443 118.55 513.506 171.468 519.74 242.39 C 525.98 313.307 479.9 375.229 416.9 380.76 C 353.907 386.29 297.844 333.372 291.61 262.45 Z M 903.37 262.45 C 897.136 333.372 841.073 386.29 778.08 380.76 C 715.08 375.229 669 313.307 675.24 242.39 C 681.474 171.468 737.537 118.55 800.53 124.08 C 801.374 124.08 801.983 124.455 802.827 124.549 L 825.889 61.783 C 829.733 51.471 843.045 49.08 850.264 57.47 C 873.889 84.939 913.639 147.001 904.733 248.25 L 903.514 262.547 Z M 1097.567 373.082 C 1103.895 364.083 1117.488 365.207 1122.27 375.145 C 1138.113 407.805 1160.285 477.984 1125.504 573.515 C 1103.894 632.905 1044.132 665.671 992.194 646.827 C 940.256 627.987 915.647 564.378 937.256 504.987 C 957.266 450.143 1009.722 418.456 1058.566 428.768 L 1097.8 373.08 Z"/>
</svg>