<!-- Generated by IcoMoon.io -->
<svg version="1.1" xmlns="http://www.w3.org/2000/svg" width="32" height="32" viewBox="0 0 32 32">
<path d="M21.962 16.406c0.144 1.139 0.848 2.102 1.881 2.601 2.111 1.021 3.545 3.231 3.424 5.766-0.147 3.030-2.634 5.561-5.661 5.76-1.444 0.093-2.788-0.32-3.873-1.079-1.071-0.749-2.518-0.749-3.59 0-1.085 0.759-2.429 1.171-3.873 1.079-3.027-0.199-5.517-2.73-5.661-5.76-0.121-2.534 1.309-4.745 3.424-5.766 1.034-0.499 1.734-1.462 1.881-2.601 0.207-1.609 1.055-3.151 2.556-4.207 2.051-1.444 4.878-1.444 6.925 0 1.497 1.055 2.349 2.597 2.556 4.207zM4.117 11.32c1.331 0.070 2.461 1.248 2.599 2.8 0.148 1.683-0.928 3.149-2.396 3.276s-2.78-1.13-2.927-2.81c-0.238-2.7 0.822-4.355 1.452-5.087 0.192-0.224 0.547-0.16 0.65 0.115l0.624 1.705zM7.772 7.001l-0.032-0.381c-0.237-2.7 0.822-4.355 1.453-5.087 0.193-0.224 0.547-0.16 0.65 0.115l0.615 1.674c0.023-0.002 0.039-0.013 0.061-0.013 1.68-0.147 3.175 1.264 3.341 3.155s-1.062 3.542-2.742 3.69c-1.68 0.147-3.175-1.264-3.341-3.155zM24.090 6.999c-0.166 1.891-1.661 3.302-3.341 3.155s-2.909-1.799-2.742-3.69c0.166-1.891 1.661-3.302 3.341-3.155 0.023 0 0.039 0.010 0.061 0.013l0.615-1.674c0.102-0.275 0.457-0.339 0.65-0.115 0.63 0.733 1.69 2.388 1.453 5.087l-0.032 0.381zM29.268 9.949c0.169-0.24 0.531-0.21 0.659 0.055 0.422 0.871 1.014 2.742 0.086 5.29-0.576 1.584-2.17 2.457-3.555 1.955s-2.041-2.199-1.465-3.782c0.534-1.463 1.932-2.308 3.235-2.033l1.046-1.485z"></path>
</svg>
