<svg xmlns="http://www.w3.org/2000/svg" viewBox="0 0 1200 1200" width="150pt" height="150pt" xmlns:v="https://vecta.io/nano"><path d="M683.244 444c7.388-7.897 7.388-20.652 0-28.549s-19.321-7.895-26.71 0l-43.378 46.366V357.141l70.087-75.114c7.388-7.897 7.388-20.652 0-28.549s-19.321-7.895-26.71 0l-43.378 46.366v-92.729c0-11.136-8.524-20.247-18.943-20.247s-18.942 9.112-18.942 20.247v173.71l-43.379-46.365c-7.388-7.896-19.321-7.897-26.709 0s-7.387 20.652 0 28.548l70.087 75.114v104.676l-43.379-46.366c-7.388-7.895-19.321-7.896-26.709 0s-7.387 20.653 0 28.549l70.087 75.114v145.171c-43.563-27.136-208.175-143.962-208.175-355.941 0-238.92 209.506-357.161 218.409-362.02 5.494-3.037 11.934-3.037 17.427 0 8.91 4.881 218.409 123.1 218.409 362.02 0 211.99-164.608 328.81-208.175 355.941V519.108L683.244 444zm460.696 179.585c3.03 10.311 73.49 254.092-85.62 424.165-83.355 89.29-185.639 110.95-265.577 110.95-55.312 0-99.637-10.32-119.716-15.99l150.59-160.963h100.016c10.418 0 18.943-9.111 18.943-20.246s-8.525-20.247-18.943-20.247h-62.131l69.898-74.71h100.01c10.43 0 18.95-9.112 18.95-20.247s-8.52-20.246-18.95-20.246h-62.125l62.125-66.409c7.4-7.897 7.4-20.653 0-28.549-7.38-7.896-19.31-7.896-26.7 0l-115.931 123.91v-66.409c0-11.136-8.524-20.247-18.942-20.247s-18.943 9.112-18.943 20.247v106.902l-48.303 51.831-21.594 23.081v-66.409c0-11.136-8.525-20.246-18.942-20.246s-18.943 9.111-18.943 20.246V1010.9l-96.606 103.46c-12.691-52.44-52.284-261.175 88.84-412.015 159.117-170.274 387.004-94.754 396.664-91.515 5.87 2.026 10.42 6.884 12.31 13.162l-.38-.407zM56.065 610.828c9.669-3.239 237.544-78.556 396.661 91.515 141.311 151.034 101.721 359.577 88.84 412.017L444.96 1010.9V903.997c0-11.135-8.525-20.247-18.943-20.247s-18.942 9.112-18.942 20.247v66.409l-69.898-74.71V788.794c0-11.135-8.525-20.247-18.943-20.247s-18.942 9.112-18.942 20.247v66.409l-115.928-123.91c-7.388-7.895-19.323-7.896-26.71 0s-7.388 20.653 0 28.549l62.132 66.408h-62.132c-10.418 0-18.942 9.111-18.942 20.247s8.525 20.247 18.942 20.247h100.017l69.898 74.71h-62.131c-10.419 0-18.943 9.112-18.943 20.247s8.525 20.246 18.943 20.246h100.016l48.303 51.823 102.289 109.34c-20.079 5.67-64.405 15.99-119.717 15.99-79.942 0-182.221-21.66-265.568-110.94-159.117-170.273-88.651-413.845-85.62-424.171 1.895-6.277 6.441-11.136 12.313-13.161h-.389z"/></svg>