<!-- Generated by IcoMoon.io -->
<svg version="1.1" xmlns="http://www.w3.org/2000/svg" width="32" height="32" viewBox="0 0 32 32">
<path d="M18.22 11.84c0.197-0.211 0.197-0.551 0-0.761s-0.515-0.211-0.712 0l-1.157 1.236v-2.791l1.869-2.003c0.197-0.211 0.197-0.551 0-0.761s-0.515-0.211-0.712 0l-1.157 1.236v-2.473c0-0.297-0.227-0.54-0.505-0.54s-0.505 0.243-0.505 0.54v4.632l-1.157-1.236c-0.197-0.211-0.515-0.211-0.712 0s-0.197 0.551 0 0.761l1.869 2.003v2.791l-1.157-1.236c-0.197-0.211-0.515-0.211-0.712 0s-0.197 0.551 0 0.761l1.869 2.003v3.871c-1.162-0.724-5.551-3.839-5.551-9.492 0-6.371 5.587-9.524 5.824-9.654 0.146-0.081 0.318-0.081 0.465 0 0.238 0.13 5.824 3.283 5.824 9.654 0 5.653-4.39 8.768-5.551 9.492v-6.031l1.869-2.003zM30.505 16.629c0.081 0.275 1.96 6.776-2.283 11.311-2.223 2.381-4.95 2.959-7.082 2.959-1.475 0-2.657-0.275-3.192-0.426l4.016-4.292h2.667c0.278 0 0.505-0.243 0.505-0.54s-0.227-0.54-0.505-0.54h-1.657l1.864-1.992h2.667c0.278 0 0.505-0.243 0.505-0.54s-0.227-0.54-0.505-0.54h-1.657l1.657-1.771c0.197-0.211 0.197-0.551 0-0.761s-0.515-0.211-0.712 0l-3.091 3.304v-1.771c0-0.297-0.227-0.54-0.505-0.54s-0.505 0.243-0.505 0.54v2.851l-1.288 1.382-0.576 0.616v-1.771c0-0.297-0.227-0.54-0.505-0.54s-0.505 0.243-0.505 0.54v2.851l-2.576 2.759c-0.338-1.398-1.394-6.965 2.369-10.987 4.243-4.541 10.32-2.527 10.578-2.44 0.157 0.054 0.278 0.184 0.328 0.351l-0.010-0.011zM1.495 16.289c0.258-0.086 6.335-2.095 10.578 2.44 3.768 4.028 2.713 9.589 2.369 10.987l-2.576-2.759v-2.851c0-0.297-0.227-0.54-0.505-0.54s-0.505 0.243-0.505 0.54v1.771l-1.864-1.992v-2.851c0-0.297-0.227-0.54-0.505-0.54s-0.505 0.243-0.505 0.54v1.771l-3.091-3.304c-0.197-0.211-0.515-0.211-0.712 0s-0.197 0.551 0 0.761l1.657 1.771h-1.657c-0.278 0-0.505 0.243-0.505 0.54s0.227 0.54 0.505 0.54h2.667l1.864 1.992h-1.657c-0.278 0-0.505 0.243-0.505 0.54s0.227 0.54 0.505 0.54h2.667l1.288 1.382 2.728 2.916c-0.535 0.151-1.717 0.426-3.192 0.426-2.132 0-4.859-0.578-7.082-2.958-4.243-4.541-2.364-11.036-2.283-11.311 0.051-0.167 0.172-0.297 0.328-0.351h-0.010z"></path>
</svg>
