<!-- Generated by IcoMoon.io -->
<svg version="1.1" xmlns="http://www.w3.org/2000/svg" width="32" height="32" viewBox="0 0 32 32">
<path d="M0.928 13.878c0-0.304 0.256-0.552 0.568-0.552h29.531c0.312 0 0.568 0.248 0.568 0.552 0 8.526-6.877 15.461-15.334 15.461s-15.333-6.935-15.333-15.461zM5.852 14.43l1.272 0.657c1 0.508 1.647 1.601 1.658 2.816l0.034 1.016c0.040 1.679 1.511 2.844 2.953 2.33l0.897-0.32c1.187-0.414 2.442 0.287 2.834 1.574 0.284 0.939 0.051 1.91-0.528 2.562-0.278 0.292-0.625 0.525-1.022 0.646l-1.732 0.525c-0.801 0.248-1.624 0.375-2.448 0.403 1.948 1.016 4.157 1.596 6.497 1.596 1.539 0 3.021-0.254 4.413-0.713 0.352-0.386 0.744-0.723 1.17-0.999 1.363-0.895 1.289-3.092-0.125-3.871l-0.625-0.342c-0.784-0.436-1.215-1.38-1.073-2.33l0.108-0.729c0.159-1.143 1.119-1.955 2.169-1.833l3.578 0.414c0.693 0.077 1.329-0.243 1.743-0.773 0.301-0.403 0.477-0.911 0.466-1.474-0.017-0.42 0.085-0.812 0.261-1.154l-22.5 0zM11.756 5.16c0.094-0.053 0.135 0.094 0.168 0.173 0.356 1.033 0.251 2.204 0.108 3.281-0.014 0.101-0.139 0.070-0.142-0.023-0.034-0.729-0.069-1.499-0.308-2.18-1.189 1.735-1.234 3.996-0.876 4.457 0.243 0.127 0.591 0.278 0.657 0.614 0.858 0.342 0.724 1.179-0.080 1.097 0 0.202 0.021 0.518-0.164 0.577-0.41 0.080-0.492-0.216-0.308-0.629-0.112-0.011-0.224 0.013-0.335 0.011 0.038 0.228 0.13 0.566-0.151 0.594-0.075 0.006-8.098-0.001-8.367-0.001-0.083 0-0.11-0.134-0.042-0.185 0.091-0.068 0.181-0.171 0.271-0.285 0.24-0.311 0.432-0.67 0.568-1.061 0.029-0.082 0.040-0.171 0.032-0.26s-0.037-0.172-0.082-0.243c-0.261-0.449-0.768-0.664-1.199-0.46-0.067 0.030-0.11-0.069-0.085-0.133 0.198-0.516 0.758-0.738 1.163-0.434-0.322-0.701-0.8-1.392-1.45-1.659-0.031-0.012-0.052-0.046-0.052-0.085s0.021-0.074 0.052-0.085c0.455-0.193 0.973 0.053 1.34 0.407-0.332-1.147-0.805-2.226-1.476-3.141-0.044-0.060-0.003-0.166 0.067-0.14 1.052 0.324 1.734 1.474 2.033 2.676 0.001-0.33-0.11-1.99-0.016-2.521 0.039-0.357 0.281-0.603 0.557-0.701 0.136-0.416 0.118-0.892 0.3-1.29 0.032-0.072 0.058-0.131 0.133-0.135 0.204 0.008 0.237 0.309 0.33 0.475 0.025 0.051 0.015 0.063 0.061 0.047 0.072-0.024 0.105-0.076 0.19-0.068 0.247 0.053 0.397 0.325 0.643 0.393 0.293 0.1 0.599 0.152 0.901 0.203 1.057-0.008 2.157-0.061 3.168 0.36 0.14-0.16 0.198-0.365 0.27-0.587 0.080-0.251 0.178-0.494 0.292-0.726 0.075-0.153 0.176-0.399 0.339-0.426 0.172-0.029 0.287 0.154 0.266 0.347-0.027 0.247-0.102 0.689-0.136 0.935-0.007 0.048-0.045 0.082-0.085 0.074s-0.068-0.054-0.061-0.103c0.016-0.12 0.082-0.54 0.097-0.647 0.012-0.092 0.076-0.32 0.018-0.395-0.129-0.165-0.331 0.349-0.374 0.445-0.148 0.357-0.302 0.723-0.334 1.125-0.073 0.573-0.18 2.050-0.144 2.413 0 0 0.16-0.795 0.551-1.016l0.070-0.777c0.001-0.023 0.011-0.045 0.026-0.060s0.035-0.022 0.054-0.019c0.019 0.003 0.037 0.015 0.049 0.034s0.017 0.043 0.013 0.066c-0.092 0.928-0.148 1.858-0.166 2.791 0.273-0.978 0.629-1.965 1.23-2.72 0.12-0.148 0.259-0.312 0.417-0.403h0zM9.331 8.702c-0.47 0.762-0.412 1.765 0.274 2.306 0.133-0.076 0.257-0.167 0.401-0.221-0.082-1.438-0.070-2.882 0.034-4.318-0.248 0.34-0.291 0.697-0.314 1.131-0.022 0.403 0.007 0.81-0.007 1.215-0.001 0.093-0.115 0.092-0.119 0l-0.020-0.627c-0.086 0.207-0.169 0.376-0.261 0.54l0.013-0.026zM7.976 7.533c0.013 1.297-0.11 2.675 0.409 3.864-0.186-0.988-0.195-2.012-0.226-3.020-0.020-0.789-0.029-1.573 0.060-2.359l-0.186 0.016c-0.029 0.499-0.050 0.999-0.057 1.499h0zM3.26 8.231c0.028 0.35 0.375 0.338 0.515 0.083 0.094-0.181 0.132-0.382 0.292-0.499 0.137-0.1 0.337-0.117 0.442-0.273 0.107-0.158 0.068-0.401 0.137-0.582 0.064-0.168 0.183-0.237 0.332-0.241 0.1-0.003 0.217 0.028 0.285-0.082 0.043-0.069 0.056-0.167 0.083-0.245 0.068-0.204 0.223-0.314 0.388-0.388-0.256-0.029-0.459-0.058-0.661-0.093l0.066 0.009c-0.095-0.016-0.054-0.189 0.040-0.174 0.244 0.041 0.488 0.073 0.734 0.095 0.004 0 0.009 0.001 0.015 0.001 0.032 0 0.062-0.009 0.088-0.025l-0.001 0c0.031-0.019 0.058-0.048 0.077-0.084 0.123-0.232-0.101-0.391-0.253-0.464-0.172-0.084-0.361-0.199-0.428-0.38-0.024-0.063-0.064-0.116-0.114-0.151s-0.108-0.050-0.166-0.044c-0.325 0.034-0.813 0.111-1.136 0.198-0.317 0.102-0.736 0.219-0.787 0.721-0.039 0.346 0.027 2.002 0.054 2.615zM5.924 12.938c0.116-0.284 0.196-0.674 0.196-1.234-0.5 0.417-0.819-0.313-0.896-0.828-0.089 0.734-0.263 1.519-0.708 2.059l1.408 0.003zM6.186 11.34c0.147-1.022 0.137-3.625 0.122-5.214-0.198 0.266-0.668 0.086-0.751 0.466-0.158 0.715-0.712 0.297-0.728 0.966-0.005 0.239-0.113 0.393-0.309 0.477-0.066 0.924-0.205 1.839-0.372 2.743-0.020 0.107-0.169 0.084-0.16-0.026 0.057-0.739 0.123-1.479 0.136-2.222-0.063 0.277-0.287 0.42-0.532 0.478-0.009 1.353-0.105 2.828-0.824 3.924l1.5 0.002c0.907-0.817 0.794-2.806 0.839-3.981 0.004-0.385 0.191-2.527 0.8-2.012 0.229 0.194 0.211 0.77 0.224 0.968 0.047 0.748 0.017 1.5-0.019 2.248-0.009 0.177 0.018 0.433-0.114 0.553-0.116 0.106-0.304 0.082-0.361-0.080-0.239-0.678-0.173-1.801-0.102-2.262 0.013-0.087 0.121-0.089 0.114 0-0.019 0.281-0.103 2.601 0.285 2.157 0.030-0.074 0.018-0.206 0.022-0.288 0.304-4.171-0.602-3.745-0.698-1.075-0.001 0.598 0.015 1.202 0.143 1.783 0.080 0.533 0.456 1.033 0.784 0.394v0zM8.020 12.943l0.84 0.002c-0.655-0.884-0.974-2.044-1.004-3.217-0.051-1.225-0.055-2.457 0.019-3.682l-0.205 0.013c-0.039 0.962-0.039 1.929-0.119 2.887-0.009 0.085-0.109 0.089-0.112 0-0.021-0.534 0.007-1.074 0.018-1.609l0.035-1.27c-0.342 0.014-0.684 0.013-1.025-0.004 0.055 2.011 0.001 4.038-0.021 6.875l1.401 0.003c-0.333-0.876-0.528-1.874-0.445-2.84 0.009-0.093 0.123-0.098 0.123 0-0.008 0.979 0.122 1.962 0.495 2.841v0zM9.851 12.946c-0.024-0.297-0.022-0.909-0.022-0.909-0.29-0.013-0.858-0.023-1.072-0.254-0.078-0.108-0.032-0.266 0.037-0.363 0.1-0.139 0.353-0.233 0.499-0.278-0.245-0.202-0.482-0.534-0.516-0.892-0.104-1.109 0.582-1.603 0.562-2.023-0.022-1.115 0.044-2.24 0.17-3.344-0.12 0.145-0.266 0.255-0.427 0.319-0.083 0.599-0.091 1.201-0.149 1.804-0.007 0.084-0.113 0.087-0.111 0 0.007-0.583 0.041-1.162 0.094-1.742-0.264 0.125-0.19 0.61-0.525 0.716-0.152 1.277-0.085 2.577-0.028 3.86 0.105 1.263 0.054 2.173 1.163 3.105l0.327 0zM11.061 11.641c-0.239-0.023-0.453 0.172-0.647 0.319-0.052 0.043-0.19 0.123-0.181 0.208 0.053 0.513 1.078-0.058 1.276-0.024 0.175 0.030 0.286-0.404-0.447-0.503v0zM9.367 11.283c-0.155 0.041-0.413 0.102-0.485 0.307-0.024 0.069-0.009 0.077 0.039 0.104 0.333 0.184 0.909 0.114 1.008 0.077v-0c0.048-0.015 0.091-0.047 0.123-0.091 0.066-0.1 0.079-0.202 0.179-0.271 0.092-0.065 0.202-0.076 0.297-0.132 0.108-0.063 0.128-0.19 0.047-0.267-0.603-0.23-0.7 0.114-1.208 0.273zM21.495 8.894c0.038-0.008 0.065 0.007 0.093 0.013 0.771 0.178 1.531 0.393 2.279 0.642 0.077 0.026 0.156 0.050 0.238 0.060 0.077 0.009 0.151-0.002 0.213-0.048 0.052-0.039 0.045-0.084-0.014-0.104-0.005 0.003-0.013 0.006-0.016 0.011-0.047 0.078-0.084 0.093-0.182 0.070-0.104-0.024-0.203-0.065-0.302-0.101-0.687-0.252-1.395-0.438-2.114-0.594-0.077-0.017-0.153-0.034-0.224-0.067-0.070-0.032-0.087-0.059-0.080-0.13 0.026-0.244 0.156-0.434 0.366-0.58 0.081-0.057 0.163-0.113 0.247-0.167 0.052-0.033 0.073-0.073 0.070-0.133-0.012-0.218 0.078-0.394 0.282-0.51 0.29-0.166 0.671-0.060 0.825 0.224 0.009 0.016 0.017 0.032 0.027 0.052 0.257-0.047 0.476 0.014 0.651 0.194l0.442-0.031c0.546-0.040 1.079 0.011 1.587 0.21 0.579 0.226 1.147 0.475 1.69 0.768 0.378 0.204 0.698 0.468 0.922 0.82 0.166 0.262 0.259 0.548 0.332 0.841l0.034 0.145c0.009 0.037-0.007 0.063-0.038 0.085-0.106 0.076-0.253 0.045-0.28-0.088-0.041-0.196-0.154-0.367-0.263-0.537-0.237-0.371-0.555-0.674-0.938-0.919-0.483-0.309-0.996-0.571-1.53-0.799-0.299-0.128-0.616-0.143-0.938-0.1l-0.335 0.049c-0.11 0.015-0.214-0.005-0.314-0.048-0.054-0.023-0.106-0.049-0.159-0.073-0.019-0.008-0.038-0.021-0.065-0.009-0.023 0.036-0.007 0.066 0.030 0.084 0.227 0.113 0.459 0.2 0.728 0.135 0.147-0.036 0.299-0.053 0.453-0.049 0.267 0.007 0.516 0.079 0.752 0.186 0.494 0.225 0.972 0.476 1.407 0.788 0.43 0.308 0.753 0.698 0.985 1.151 0.029 0.055 0.047 0.114 0.054 0.175 0.009 0.086-0.018 0.157-0.096 0.207-0.177 0.114-0.338 0.244-0.488 0.386-0.095 0.090-0.168 0.093-0.281 0.021-0.221-0.139-0.425-0.297-0.632-0.452-0.221-0.165-0.434-0.34-0.671-0.487-0.14-0.087-0.291-0.155-0.453-0.2-0.030-0.008-0.054-0.023-0.077-0.042-0.138-0.118-0.278-0.233-0.449-0.312-0.090-0.041-0.184-0.071-0.287-0.075-0.087-0.003-0.161 0.023-0.226 0.076-0.057 0.047-0.115 0.095-0.181 0.132-0.153 0.087-0.313 0.106-0.483 0.046l-1.251-0.435-1.178-0.402c-0.055-0.019-0.11-0.037-0.16-0.076l0 0zM23.355 8.685c0.306-0.001 0.548-0.226 0.547-0.507-0.001-0.267-0.244-0.483-0.541-0.482s-0.549 0.227-0.548 0.492c0.001 0.271 0.249 0.498 0.542 0.497zM23.955 8.366c-0.151 0.194-0.32 0.372-0.603 0.368-0.289-0.003-0.483-0.199-0.61-0.418-0.090 0.116 0.005 0.293 0.105 0.374 0.127 0.103 0.304 0.158 0.471 0.168 0.168 0.010 0.328-0.021 0.455-0.127 0.11-0.092 0.185-0.227 0.182-0.366zM27.195 10.384c0 0.121 0.098 0.216 0.222 0.217 0.128 0.001 0.232-0.084 0.233-0.189 0-0.118-0.113-0.225-0.238-0.225-0.121 0-0.217 0.087-0.216 0.197zM27.171 9.366c-0.291-0.001-0.277 0.397 0.004 0.398 0.12 0.001 0.238-0.090 0.237-0.204s-0.124-0.194-0.241-0.194zM26.322 9.655c0.28 0 0.284-0.397 0.004-0.397-0.277 0-0.279 0.397-0.004 0.397zM25.209 8.707c0.271-0.001 0.271-0.395-0.002-0.383-0.261 0.011-0.26 0.384 0.002 0.383zM24.451 8.686c0-0.107-0.087-0.196-0.195-0.198-0.106-0.002-0.187 0.075-0.186 0.177 0 0.109 0.090 0.198 0.2 0.198 0.102-0 0.181-0.077 0.181-0.177zM22.753 7.894c-0.042 0.017-0.058 0.072-0.087 0.103s-0.064 0.053-0.106 0.066c-0.108 0.033-0.228 0.032-0.338 0.063-0.1 0.028-0.21 0.062-0.278 0.139-0.051 0.058-0.065 0.15 0.001 0.205 0.032 0.026 0.112 0.039 0.090-0.025-0.014-0.038-0.065-0.048-0.056-0.099 0.018-0.096 0.173-0.127 0.256-0.147 0.123-0.030 0.253-0.032 0.374-0.062 0.109-0.027 0.145-0.127 0.184-0.214-0.008-0.021-0.019-0.030-0.039-0.028h0zM24.446 7.861c-0.042 0-0.101 0.010-0.089 0.062 0.010 0.045 0.087 0.066 0.13 0.066 0.048 0 0.1-0.022 0.080-0.075-0.016-0.042-0.079-0.053-0.12-0.053zM27.609 8.886c-0.075 0.053 0.070 0.176 0.137 0.156 0.121-0.035-0.063-0.166-0.137-0.156zM27.494 11.754c0.103-0.204 0.249-0.388 0.427-0.543 0.199-0.173 0.435-0.302 0.671-0.429l0.387-0.212c0.064-0.037 0.128-0.075 0.19-0.115 0.038-0.024 0.121-0.060 0.138-0.103-0.103-0.006-0.254 0.125-0.34 0.034-0.033-0.035-0.042-0.101-0.030-0.146 0.015-0.053 0.078-0.068 0.128-0.088 0.208-0.081 0.475-0.15 0.689-0.048 0.207 0.099 0.246 0.312 0.254 0.507 0.010 0.26-0.031 0.529-0.1 0.781-0.074 0.273-0.198 0.523-0.355 0.763 0.132 0.014 0.195-0.079 0.303-0.12 0.084-0.032 0.207 0.019 0.215 0.107 0.011 0.107-0.105 0.139-0.198 0.141-0.055 0.001-0.264-0-0.208 0.098 0.042 0.073 0.168 0.126 0.254 0.124s0.215-0.050 0.26 0.055c0.033 0.077-0.033 0.17-0.117 0.187-0.113 0.023-0.14-0.078-0.231-0.107-0.242-0.075-0.587-0.11-0.786 0.069 0.018 0.090 0.184 0.082 0.196 0.188 0.010 0.098-0.129 0.14-0.213 0.114-0.094-0.030-0.086-0.141-0.167-0.191s-0.19-0.046-0.282-0.041c-0.264 0.014-0.542 0.086-0.786 0.18-0.097 0.037-0.167 0.133-0.273 0.141-0.1 0.007-0.209-0.060-0.194-0.162 0.022-0.146 0.193-0.095 0.297-0.092 0.129 0.004 0.247-0.064 0.313-0.163-0.078-0.014-0.156-0.033-0.228-0.064-0.073-0.032-0.134-0.080-0.2-0.122 0.031 0.089-0.665 0.103-0.739 0.103-0.171 0.193-0.346 0.422-0.618 0.5-0.275 0.080-0.57-0.023-0.848-0.037-0.137-0.007-0.276-0.001-0.406 0.043-0.068 0.023-0.27 0.109-0.278-0.022-0.003-0.060 0.041-0.078 0.094-0.091 0.057-0.015 0.109-0.042 0.162-0.067 0.113-0.053 0.224-0.061 0.348-0.073-0.083-0.059-0.167-0.119-0.265-0.156-0.103-0.039-0.207-0.038-0.316-0.030-0.053 0.004-0.107 0.010-0.158 0.025-0.055 0.015-0.099 0.043-0.158 0.035-0.087-0.011-0.119-0.093-0.065-0.156 0.065-0.075 0.2-0.045 0.291-0.055 0.116-0.012 0.228-0.064 0.344-0.068 0.21-0.008 0.453 0.188 0.658 0.052 0.048-0.214 0.187-0.393 0.33-0.563 0.156-0.187 0.321-0.366 0.481-0.55-0.104-0.043-0.22-0.049-0.327-0.082-0.102-0.032-0.19-0.073-0.272-0.125l0.005 0.003c-0.178-0.111-0.317-0.267-0.436-0.429-0.127-0.172-0.229-0.36-0.298-0.558-0.029-0.084-0.176-0.494 0.034-0.48 0.094 0.006 0.202 0.097 0.269 0.151 0.082 0.066 0.154 0.141 0.243 0.201 0.182 0.123 0.392 0.174 0.591 0.267 0.215 0.1 0.404 0.238 0.59 0.377 0.095 0.071 0.187 0.146 0.277 0.222 0.082 0.069 0.178 0.132 0.241 0.217 0.138 0.187 0.050 0.42-0.028 0.612-0.097 0.238-0.234 0.458-0.371 0.677 0.181-0.001 0.354-0.007 0.523-0.040 0.029 0.011 0.033 0.043 0.063 0.047-0.166-0.216-0.085-0.472 0.026-0.692zM29.226 11.786c0.25-0.222 0.477-0.674 0.446-0.87-0.322 0.539-0.815 0.926-1.358 1.272 0.361-0.024 0.657-0.176 0.912-0.402zM28.453 11.046c-0.187-0.002-0.226 0.268-0.023 0.25 0.156-0.014 0.207-0.248 0.023-0.25zM29.029 11.314c0.179 0.002 0.129-0.238-0.026-0.243-0.181-0.006-0.137 0.241 0.026 0.243zM28.074 11.521c-0.169-0.001-0.153 0.203 0.007 0.204 0.162 0.001 0.15-0.203-0.007-0.204zM25.913 10.611c0.003-0.088-0.089-0.135-0.173-0.105-0.082 0.030-0.108 0.119-0.094 0.193 0.014 0.071 0.083 0.148 0.169 0.107 0.075-0.036 0.094-0.126 0.098-0.196zM26.254 12.166c0.003-0.153-0.258-0.108-0.261 0.027-0.003 0.149 0.258 0.105 0.261-0.027zM26.65 10.834c-0.002-0.15-0.211-0.112-0.212 0.024-0.001 0.154 0.213 0.115 0.212-0.024zM26.301 11.898c0.126 0 0.187-0.173 0.039-0.168-0.114 0.004-0.186 0.168-0.039 0.168zM26.679 11.954c-0.132 0.001-0.087 0.161 0.025 0.157 0.118-0.004 0.086-0.158-0.025-0.157zM26.167 12.742c0.102 0.002 0.149-0.144 0.030-0.151-0.108-0.006-0.15 0.149-0.030 0.151zM27.090 11.211c-0.001-0.099-0.154-0.098-0.162-0.002-0.009 0.11 0.163 0.109 0.162 0.002zM25.662 12.189l-0.076 0.138c-0.567-0.296-1.095-0.641-1.599-1.027-0.027 0.112-0.055 0.219-0.097 0.322l-0.107 0.253c-0.069 0.163 0.077 0.363 0.269 0.367 0.088 0.002 0.134 0.037 0.128 0.1-0.006 0.066-0.074 0.117-0.146 0.111-0.017-0.001-0.034-0.005-0.042-0.018-0.072-0.115-0.197-0.129-0.321-0.138-0.132-0.010-0.252 0.021-0.352 0.106-0.134 0.112-0.245 0.24-0.34 0.38-0.025 0.036-0.034 0.076-0.030 0.118 0.010 0.111-0.128 0.148-0.206 0.116-0.061-0.024-0.083-0.078-0.059-0.14 0.017-0.045 0.053-0.073 0.093-0.099 0.095-0.062 0.154-0.145 0.17-0.252 0.007-0.049-0.018-0.079-0.067-0.093-0.064-0.017-0.13-0.025-0.196-0.030-0.294-0.026-0.574 0.033-0.851 0.113-0.053 0.015-0.104 0.034-0.156 0.052-0.038 0.013-0.068 0.033-0.091 0.066-0.030 0.044-0.078 0.057-0.132 0.045-0.052-0.011-0.083-0.046-0.094-0.092-0.012-0.050-0.001-0.095 0.049-0.126 0.036-0.022 0.076-0.032 0.118-0.026 0.192 0.027 0.353-0.039 0.5-0.14 0.069-0.047 0.14-0.076 0.223-0.090 0.048-0.008 0.101-0.009 0.134-0.054-0.010-0.045-0.041-0.074-0.084-0.089-0.156-0.053-0.306-0.046-0.442 0.051-0.046 0.033-0.089 0.036-0.132 0.008s-0.065-0.083-0.049-0.127c0.011-0.031 0.036-0.050 0.071-0.053 0.007-0.001 0.014-0.001 0.022-0.001 0.015 0 0.029 0.002 0.043 0.004l-0.001-0c0.076 0.015 0.149 0.006 0.209-0.038 0.084-0.061 0.17-0.060 0.262-0.022 0.083 0.036 0.179 0.057 0.281 0.057 0.004 0 0.008-0 0.012-0h-0.001c0.218-0.003 0.416-0.128 0.429-0.359 0.003-0.046 0.005-0.092 0.004-0.138-0.002-0.107 0.028-0.204 0.089-0.295 0.070-0.105 0.129-0.216 0.178-0.332 0.019-0.044 0.019-0.082-0.012-0.125-0.079-0.109-0.127-0.232-0.174-0.354-0.030-0.079-0.076-0.14-0.151-0.191-0.42-0.285-0.808-0.601-1.147-0.968-0.032-0.035-0.074-0.062-0.114-0.095 0.027-0.015 0.035-0 0.045 0.006 0.208 0.128 0.388 0.287 0.571 0.442 0.237 0.2 0.492 0.379 0.746 0.559 0.13 0.093 0.228 0.204 0.296 0.345 0.111 0.231 0.294 0.413 0.5 0.575 0.528 0.416 1.087 0.792 1.69 1.112 0.045 0.024 0.091 0.046 0.138 0.070l0-0zM23.134 11.388c-0.011 0.099 0.162 0.064 0.153-0.025-0.009-0.099-0.149-0.059-0.153 0.025zM24.646 9.853c-0.044 0.199-0.185 0.414-0.416 0.462-0.136 0.028-0.28-0.024-0.405-0.071-0.132-0.050-0.258-0.113-0.384-0.174 0.231 0.042 0.487 0.117 0.724 0.080 0.203-0.031 0.351-0.161 0.482-0.297zM24.483 10.856c0 0.091-0.061 0.139-0.161 0.124-0.195-0.028-0.295-0.193-0.208-0.342 0.032-0.054 0.073-0.071 0.138-0.056 0.125 0.029 0.23 0.154 0.23 0.274zM25.515 11.594c-0.005 0.239-0.31 0.071-0.35-0.068-0.030-0.102 0.071-0.201 0.186-0.177 0.118 0.025 0.155 0.149 0.164 0.244zM25.014 11.017c-0.097 0.001-0.187-0.067-0.227-0.145-0.033-0.065-0.036-0.174 0.063-0.185 0.095-0.010 0.21 0.052 0.266 0.118 0.069 0.081 0.014 0.207-0.103 0.212zM24.798 11.518c-0.131-0-0.238-0.122-0.211-0.239 0.010-0.043 0.039-0.064 0.087-0.065 0.118-0.003 0.245 0.117 0.239 0.224-0.003 0.050-0.046 0.080-0.114 0.080h-0zM23.599 10.492c0.001-0.206 0.244-0.131 0.293 0.015 0.028 0.082-0.014 0.174-0.121 0.171-0.098-0.003-0.169-0.103-0.172-0.186zM23.36 8.526c-0.125-0.003-0.239-0.046-0.33-0.124-0.093-0.080-0.173-0.138-0.14-0.265 0.051-0.197 0.249-0.341 0.469-0.342 0.219-0.001 0.419 0.148 0.469 0.343 0.030 0.118-0.054 0.193-0.145 0.266-0.095 0.076-0.198 0.112-0.323 0.123zM22.93 8.165c0.287-0.195 0.569-0.207 0.85 0.003-0.041-0.183-0.201-0.316-0.386-0.324-0.223-0.010-0.385 0.1-0.464 0.321zM18.707 11.712c-0.128-0.005-0.262-0.026-0.445-0.064l-0.143-0.028c-0.091-0.248-0.215-0.527-0.316-0.718-0.212-0.44-1.096-1.892-1.108-1.908 0 0 1.315 0.892 1.765 1.964 0.133 0.317 0.21 0.565 0.247 0.753v0zM19.617 9.869c0.464-1.022 1.059-1.393 1.059-1.393l-0.010 0.012c-0.466 0.899-0.835 2.309-1.020 3.099-0.111 0.006-0.23 0.026-0.393 0.061-0.172 0.036-0.301 0.057-0.423 0.063 0.071-0.396 0.101-1.037-0.234-1.548-0.402-0.614-1.151-1.187-1.479-1.415-0.173-0.12-0.187-0.13-0.148-0.161 0.024-0.019 0.058-0.020 0.103-0.002 0.478 0.192 1.365 0.608 1.964 1.442 0.224 0.256 0.323 0.544 0.323 0.544s0.116-0.359 0.257-0.701v0zM20.187 11.932c0.205 0.044 0.367 0.071 0.458 0.063l-0.003 0.38c-0.107-0.004-0.251-0.025-0.427-0.062-0.411-0.087-0.574-0.087-0.991 0-0.421 0.087-0.541 0.081-0.934 0-0.43-0.089-0.581-0.085-0.986 0-0.396 0.081-0.516 0.087-0.934 0s-0.58-0.087-0.996 0c-0.419 0.087-0.539 0.081-0.934 0-0.405-0.084-0.558-0.089-0.986 0-0.204 0.042-0.362 0.063-0.432 0.088l-0.001-0.015v-0.39c0.118-0.004 0.27-0.023 0.459-0.062 0.204-0.042 0.359-0.063 0.462-0.063 0.11 0 0.269 0.021 0.472 0.063 0.417 0.087 0.58 0.087 0.992 0 0.4-0.084 0.533-0.084 0.934 0 0.411 0.087 0.573 0.087 0.992 0 0.394-0.081 0.513-0.087 0.934 0 0.417 0.087 0.58 0.087 0.992 0 0.399-0.084 0.533-0.084 0.933 0h0zM20.187 12.593c0.205 0.043 0.367 0.071 0.458 0.063l-0.003 0.38c-0.107-0.004-0.251-0.025-0.427-0.062-0.411-0.087-0.574-0.087-0.991 0-0.421 0.087-0.541 0.081-0.934 0-0.43-0.089-0.581-0.085-0.986 0-0.396 0.081-0.516 0.087-0.934 0s-0.58-0.087-0.996 0c-0.419 0.087-0.539 0.081-0.934 0-0.405-0.084-0.558-0.089-0.986 0-0.204 0.042-0.362 0.063-0.432 0.088l-0.001-0.015v-0.39c0.118-0.004 0.27-0.023 0.459-0.062 0.204-0.042 0.359-0.063 0.462-0.063 0.11 0 0.269 0.021 0.472 0.063 0.417 0.087 0.58 0.087 0.992 0 0.4-0.084 0.533-0.084 0.934 0 0.411 0.087 0.573 0.087 0.992 0 0.394-0.081 0.513-0.087 0.934 0 0.417 0.087 0.58 0.087 0.992 0 0.399-0.084 0.533-0.084 0.933 0h0zM14.904 10.248c0.008 0.005 0.753 0.496 1.235 0.963l-0.083-0.181c-0.075-0.161-0.159-0.343-0.202-0.471-0.353-0.391-0.894-0.862-0.899-0.866l-0.081-0.071 0.111 0.050c0.005 0.002 0.455 0.204 0.73 0.418-0.043-0.179-0.070-0.362-0.081-0.535-0.12-1.42 0.756-2.065 0.765-2.072l0.075-0.054-0.038 0.069c-0.004 0.007-0.364 0.672-0.413 1.572-0.064 0.576 0.278 1.385 0.297 1.429l0.723 0.799c-0.157-0.377-0.586-1.491-0.607-1.546l-0.050-0.129 0.091 0.119c0.010 0.013 1.004 1.308 1.171 1.66 0.024 0.049 0.049 0.109 0.070 0.171l0.004 0.012c-0.111 0.006-0.228 0.027-0.393 0.061-0.419 0.087-0.581 0.087-0.992 0-0.154-0.032-0.268-0.052-0.374-0.059-0.56-0.765-1.040-1.266-1.093-1.322l-0.108-0.111 0.142 0.093zM15.050 11.706v0zM15.050 11.706c-0.092-0.106-0.191-0.236-0.293-0.396-0.924-1.448 0.055-2.293 0.055-2.293-0.004 0.005-0.371 0.508-0.116 1.222 0.14 0.46 0.509 1 0.808 1.388l-0.101 0.020c-0.14 0.029-0.25 0.049-0.353 0.058zM14.107 11.596l-0.059-0.104c-0.574-0.968-1.082-1.606-1.087-1.612l-0.093-0.115 0.13 0.099c0.014 0.010 1.358 1.037 1.739 1.832 0.001 0.002 0.002 0.005 0.003 0.007-0.095-0.010-0.2-0.029-0.329-0.056-0.116-0.024-0.218-0.041-0.304-0.051l-0-0z"></path>
</svg>
