<!-- Generated by IcoMoon.io -->
<svg version="1.1" xmlns="http://www.w3.org/2000/svg" width="32" height="32" viewBox="0 0 32 32">
<path d="M2.871 21.586c-1.261 0.4-2.24 0.975-2.871 1.68v-10.615c0.705 0.93 2.204 2.36 4.804 2.535-0.673 0.37-1.875 0.865-3.591 0.865-0.148 0-0.265 0.11-0.265 0.25 0 0.135 0.117 0.25 0.265 0.25 2.177 0 3.586-0.735 4.206-1.145 0.185 0.745 0.773 2.25 2.49 2.935-1.118 0.41-3.411 1.15-4.857 0.96-0.148-0.020-0.281 0.075-0.302 0.215-0.021 0.135 0.079 0.26 0.228 0.28 0.18 0.025 0.376 0.035 0.572 0.035 1.711 0 3.973-0.8 4.857-1.135v1.43c-0.36 0.205-1.594 0.82-3.702 1.085-0.742 0.095-1.308 0.21-1.833 0.375h-0zM29.482 14.15l2.516-0.66v1.305c-1.006 0.030-1.849-0.185-2.516-0.645zM31.998 6.195v6.78l-2.892 0.755c-0.148 0.035-0.26 0.145-0.291 0.285-0.021 0.085-0.011 0.17 0.026 0.245v0.005c-0.048 0.555-0.445 3.485-3.035 5.65-1.033-1.86-6.139-2.84-7.755-3.11l1.197-1.59c0.233 0.020 0.471 0.040 0.704 0.065 2.294 0.22 4.534 0.695 6.658 1.415 0.138 0.050 0.286-0.020 0.339-0.15 0.048-0.13-0.021-0.275-0.159-0.32-1.896-0.645-3.888-1.095-5.917-1.345 0.694-0.385 1.266-0.86 1.706-1.43 0.016-0.020 0.032-0.035 0.042-0.055 0.498-0.655 0.826-1.42 0.996-2.3l0.932 0.12 0.069 0.010 3.698 0.48c0.143 0.015 0.275-0.080 0.297-0.215s-0.080-0.265-0.223-0.28l-2.94-0.38c3.443-1.865 4.095-3.935 4.216-4.635l2.331-0zM29.32 14.655c0.699 0.43 1.526 0.645 2.495 0.645 0.064 0 0.122 0 0.186-0.005v14.206c-0.080 1.961-1.059 2.522-2.414 2.497l-13.773-0.009c-2.161-0.975-2.881-2.63-3.040-3.070l1.732-2.11c0.445 1.145 2.357 3.65 10.551 3.885h0.005c0.143 0 0.26-0.105 0.265-0.245 0.005-0.135-0.111-0.25-0.254-0.255-8.279-0.24-9.831-2.84-10.112-3.695h0.079c3.999 0 5.774-2.56 6.356-3.675 0.577 0.74 2.362 1.955 7.786 1.955 0.466 0 0.964-0.005 1.494-0.025 0.143-0.005 0.26-0.125 0.254-0.26-0.005-0.14-0.133-0.25-0.275-0.24-6.944 0.255-8.56-1.27-8.92-1.84 1.706-0.4 3.035-1.075 4.063-1.865 0.037-0.025 0.069-0.055 0.106-0.080 2.543-2.010 3.242-4.75 3.417-5.815v-0zM3.136 24.851c-1.515 1.17-2.564 2.53-3.136 4.055v-4.755c0.614-1.12 1.992-1.755 3.040-2.090 0.487-0.155 1.022-0.265 1.732-0.355 2.675-0.335 3.999-1.205 4.052-1.24 0.069-0.045 0.111-0.12 0.111-0.205v-1.945c0-0.025-0.005-0.055-0.016-0.080 0-0.005 0-0.015-0.005-0.020-0.011-0.025-0.026-0.045-0.048-0.065-0.032-0.035-0.074-0.060-0.122-0.070-0.005-0.005-0.005-0.005-0.011-0.005-2.484-0.565-2.839-2.835-2.876-3.12 0-0.015 0-0.025-0.005-0.040 0-0.015-0.005-0.035-0.016-0.050v-0.005c-0.011-0.030-0.032-0.055-0.053-0.080-0.011-0.010-0.016-0.015-0.026-0.020-0.016-0.015-0.037-0.030-0.058-0.035-0.032-0.020-0.074-0.025-0.117-0.020-0.005-0.005-0.011-0.005-0.016 0-3.893 0.11-5.371-2.61-5.567-3.005v-5.67l6.939 0.015c0.122 0.515 0.524 1.84 1.589 2.625-1.504 0.15-4.614 0.58-6.118 1.615-0.117 0.085-0.143 0.24-0.053 0.35 0.048 0.070 0.132 0.105 0.212 0.105 0.053 0 0.111-0.015 0.154-0.050 1.759-1.21 6.107-1.55 6.637-1.585h0.005c0.328 0.105 0.689 0.17 1.102 0.165 0.132 0.43 0.54 1.395 1.605 2.025-1.923 0.29-4.095 0.955-6.589 2.020-0.132 0.055-0.191 0.205-0.127 0.33 0.042 0.090 0.138 0.145 0.238 0.145 0.037 0 0.074-0.005 0.111-0.020 2.813-1.2 5.191-1.885 7.262-2.085h0.005c0.35 0.105 0.747 0.18 1.202 0.2l1.149 1.065c-5.323 0.505-7.898 2.225-8.041 2.325-0.122 0.080-0.148 0.24-0.058 0.35 0.048 0.065 0.132 0.105 0.212 0.105 0.053 0 0.111-0.020 0.154-0.050 0.037-0.030 3.009-2.015 9.174-2.32-2.389 0.825-6.431 2.475-6.616 4.175-0.069 0.615 0.344 1.165 1.245 1.64 0.355 0.155 1.361 0.73 1.298 1.295-0.042 0.375-0.599 1.11-3.862 1.81-2.156 0.46-4.126 1.35-5.694 2.57h-0zM7.871 28.299c-0.408 1.145-0.148 2.38 0.768 3.69l-7.063-0.004c-0.961 0.067-1.465-0.397-1.577-1.319 0 0 0.239-2.724 3.47-5.432 1.505-1.17 3.401-2.020 5.477-2.47 2.77-0.59 4.169-1.325 4.269-2.24 0.117-1.020-1.425-1.725-1.584-1.795-0.678-0.36-1.001-0.745-0.959-1.145 0.18-1.645 5.678-3.625 7.845-4.27 0.323 0 0.651 0.005 0.991 0.020l-5.329 2.425c-0.037 0.020-0.932 0.43-0.938 1.2 0 0.745 0.795 1.465 2.442 2.21 0.694 0.275 2.505 1.205 2.543 2.25 0.021 0.66-0.667 1.325-2.045 1.965-0.498 0.23-1.070 0.435-1.748 0.615-1.668 0.445-5.652 1.755-6.563 4.3l-0-0zM12.226 28.931c0.021 0.085 0.503 1.815 2.511 3.060h-5.451c-0.985-1.28-1.292-2.465-0.911-3.53 0.832-2.32 4.614-3.555 6.203-3.98 0.71-0.19 1.314-0.4 1.838-0.645 1.584-0.735 2.368-1.555 2.341-2.435-0.058-1.57-2.754-2.645-2.855-2.685-1.849-0.84-2.129-1.455-2.129-1.75 0-0.46 0.63-0.75 0.636-0.755l6.208-2.825c0.408 0.025 0.832 0.055 1.261 0.1-0.498 0.53-1.144 0.955-1.939 1.29-0.265-0.030-0.535-0.050-0.8-0.070-0.095-0.005-0.185 0.035-0.238 0.105l-1.52 2.030c-0.053 0.070-0.064 0.165-0.032 0.245 0.037 0.080 0.117 0.135 0.207 0.15 1.981 0.29 7.151 1.39 7.829 3.010-1.022 0.755-2.346 1.39-4.063 1.75-0.011 0.005-0.026 0.010-0.042 0.015-0.021 0.005-0.037 0.015-0.053 0.025-0.026 0.015-0.042 0.035-0.058 0.055-0.021 0.020-0.032 0.045-0.037 0.070 0 0 0 0.005-0.005 0.015-0.101 0.265-1.6 4.035-6.478 3.82h-0.027c-0.026 0-0.053 0.010-0.079 0.020-0.005 0-0.016 0-0.021 0.005-0.027 0.010-0.048 0.025-0.069 0.045-0.011 0.005-0.016 0.015-0.026 0.025l-0.005 0.010-2.145 2.62c-0.053 0.060-0.069 0.135-0.048 0.21h0zM19.922 2.37c0 1.309-1.124 2.37-2.511 2.37s-2.511-1.061-2.511-2.37c0-1.309 1.124-2.37 2.511-2.37s2.511 1.061 2.511 2.37zM10.885 7.666c-0.154 0-0.302-0.060-0.408-0.17-0.090-0.105-0.138-0.23-0.127-0.365 0.011-0.13 0.074-0.25 0.18-0.34 0.503-0.41 1.028-0.62 1.563-0.62 0.413 0 0.821 0.13 1.218 0.375 0.397-0.25 0.805-0.375 1.218-0.375 0.535 0 1.059 0.21 1.563 0.62 0.106 0.085 0.169 0.205 0.18 0.34s-0.032 0.265-0.127 0.365c-0.095 0.105-0.244 0.17-0.397 0.17-0.132 0-0.254-0.045-0.35-0.125-0.307-0.25-0.593-0.375-0.869-0.375s-0.561 0.12-0.869 0.375c-0.027 0.025-0.058 0.035-0.085 0.050-0.021 0.015-0.037 0.025-0.058 0.035-0.064 0.025-0.132 0.040-0.201 0.040s-0.138-0.015-0.201-0.040c-0.021-0.010-0.037-0.025-0.058-0.035-0.027-0.020-0.058-0.030-0.085-0.050-0.307-0.25-0.593-0.375-0.869-0.375s-0.561 0.12-0.869 0.375c-0.101 0.080-0.222 0.125-0.35 0.125h-0zM19.795 7.851c0.413 0 0.821 0.13 1.213 0.385 0.397-0.245 0.805-0.375 1.218-0.375 0.535 0 1.059 0.21 1.563 0.62 0.106 0.085 0.169 0.205 0.18 0.34s-0.032 0.265-0.127 0.365c-0.095 0.105-0.244 0.17-0.397 0.17-0.127 0-0.254-0.045-0.35-0.125-0.307-0.25-0.593-0.375-0.869-0.375s-0.561 0.12-0.869 0.375c-0.026 0.020-0.058 0.035-0.085 0.050-0.021 0.010-0.037 0.020-0.058 0.030-0.069 0.025-0.138 0.040-0.207 0.040h-0.005c-0.069 0-0.132-0.015-0.196-0.040-0.021-0.010-0.037-0.025-0.058-0.035-0.026-0.020-0.058-0.030-0.085-0.050-0.307-0.25-0.593-0.375-0.869-0.375s-0.561 0.12-0.869 0.375c-0.095 0.080-0.217 0.125-0.344 0.125-0.154 0-0.302-0.065-0.403-0.175-0.090-0.105-0.138-0.23-0.127-0.365 0.011-0.13 0.074-0.25 0.18-0.34 0.503-0.41 1.028-0.62 1.563-0.62v-0z"></path>
</svg>
