<svg xmlns="http://www.w3.org/2000/svg" viewBox="0 0 1200 1200" width="150pt" height="150pt" xmlns:v="https://vecta.io/nano"><path d="M34.816 520.426c0-11.388 9.584-20.706 21.296-20.706H1163.52c11.71 0 21.3 9.318 21.3 20.706 0 319.706-257.903 579.774-575.006 579.774S34.816 840.132 34.816 520.426zm184.647 20.71l47.703 24.64c37.482 19.05 61.759 60.048 62.185 105.602l1.278 38.1c1.49 62.947 56.648 106.638 110.74 87.381l33.648-12.01c44.508-15.529 91.573 10.767 106.268 59.014 10.647 35.2 1.916 71.644-19.806 96.082-10.436 10.96-23.426 19.67-38.333 24.22l-64.954 19.68c-30.028 9.31-60.908 14.08-91.787 15.1 73.044 38.105 155.889 59.855 243.629 59.855 57.715 0 113.297-9.52 165.473-26.72 13.204-14.49 27.899-27.12 43.871-37.475 51.11-33.55 48.343-115.958-4.686-145.154l-23.425-12.838c-29.389-16.359-45.574-51.766-40.251-87.381l4.047-27.333c5.963-42.861 41.953-73.3 81.352-68.745l134.16 15.53c25.98 2.898 49.835-9.111 65.375-28.989 11.29-15.115 17.89-34.165 17.47-55.286-.64-15.737 3.19-30.439 9.79-43.277l-843.747.004zM440.85 193.491c3.54-1.985 5.069 3.535 6.311 6.483 13.359 38.724 9.418 82.654 4.053 123.031-.544 3.803-5.195 2.609-5.328-.877-1.26-27.345-2.58-56.22-11.545-81.761-44.578 65.075-46.27 149.849-32.849 167.131 9.13 4.763 22.146 10.418 24.636 23.042 32.184 12.826 27.148 44.2-2.991 41.12.002 7.575.789 19.429-6.14 21.639-15.392 3.003-18.468-8.084-11.561-23.583-4.196-.399-8.389.489-12.57.426 1.413 8.553 4.879 21.222-5.675 22.28-2.81.212-303.671-.02-313.779-.02-3.118 0-4.138-5.022-1.567-6.938 3.411-2.531 6.795-6.425 10.165-10.687 8.989-11.645 16.216-25.121 21.305-39.796 1.105-3.063 1.51-6.426 1.189-9.74-.335-3.311-1.397-6.457-3.077-9.114-9.785-16.825-28.799-24.892-44.947-17.242-2.501 1.115-4.124-2.585-3.173-4.975 7.425-19.338 28.436-27.659 43.619-16.256-12.078-26.297-30.016-52.21-54.37-62.21-1.16-.438-1.957-1.718-1.957-3.183s.797-2.761 1.957-3.199c17.056-7.224 36.489 1.97 50.261 15.255-12.444-43.003-30.171-83.463-55.349-117.776-1.637-2.24-.099-6.229 2.53-5.254 39.439 12.157 65.038 55.293 76.223 100.366.041-12.39-4.14-74.621-.617-94.555 1.455-13.404 10.543-22.614 20.873-26.302 5.117-15.59 4.418-33.439 11.269-48.356 1.202-2.711 2.167-4.9 4.991-5.051 7.646.287 8.891 11.583 12.358 17.83.923 1.902.547 2.358 2.28 1.768 2.711-.892 3.955-2.862 7.115-2.542 9.255 1.987 14.89 12.206 24.116 14.75 10.989 3.753 22.467 5.689 33.779 7.626 39.62-.285 80.876-2.272 118.806 13.487 5.242-5.994 7.423-13.67 10.108-22.007 3.005-9.411 6.669-18.519 10.932-27.226 2.81-5.724 6.614-14.949 12.708-15.993 6.46-1.094 10.779 5.773 9.982 12.998-1.02 9.244-3.815 25.845-5.089 35.054-.251 1.818-1.677 3.066-3.2 2.762s-2.544-2.038-2.293-3.855c.6-4.515 3.075-20.24 3.635-24.247.46-3.469 2.837-11.989.67-14.801-4.823-6.194-12.4 13.099-14.021 16.687-5.566 13.402-11.325 27.125-12.528 42.193-2.739 21.501-6.739 76.862-5.396 90.502 0 0 5.983-29.82 20.649-38.086l2.643-29.129c.055-.875.405-1.701.964-2.254.572-.575 1.3-.828 2.042-.726.726.101 1.384.554 1.831 1.261s.629 1.601.503 2.475c-3.467 34.803-5.537 69.69-6.221 104.66 10.248-36.687 23.572-73.694 46.11-101.981 4.496-5.557 9.723-11.703 15.628-15.104h.002zm-90.945 132.83c-17.617 28.588-15.436 66.2 10.261 86.467 4.991-2.852 9.633-6.276 15.029-8.291-3.062-53.931-2.642-108.079 1.272-161.942-9.281 12.764-10.918 26.148-11.785 42.429-.838 15.104.28 30.392-.252 45.562-.055 3.503-4.32 3.453-4.474 0l-.767-23.503a191.08 191.08 0 0 1-9.284 19.278zm-50.791-43.844c.488 48.625-4.125 100.321 15.322 144.884-6.963-37.036-7.312-75.448-8.458-113.232-.755-29.582-1.077-58.997 2.251-88.478l-6.991.606c-1.103 18.706-1.859 37.463-2.139 56.22h.015zm-176.855 26.198c1.035 13.116 14.051 12.662 19.306 3.116 3.51-6.787 4.936-14.329 10.947-18.707 5.146-3.756 12.625-4.378 16.568-10.22 4.013-5.927 2.544-15.037 5.131-21.82 2.417-6.315 6.864-8.875 12.443-9.026 3.732-.101 8.122 1.042 10.696-3.081 1.607-2.593 2.095-6.248 3.116-9.193 2.558-7.662 8.361-11.77 14.54-14.532a412.8 412.8 0 0 1-22.312-3.131c-3.551-.606-2.028-7.105 1.495-6.516 9.143 1.531 18.316 2.728 27.527 3.57a6.25 6.25 0 0 0 3.804-.891c1.173-.709 2.181-1.787 2.894-3.134 4.627-8.686-3.788-14.647-9.493-17.408-6.459-3.15-13.534-7.476-16.035-14.245-.91-2.375-2.405-4.362-4.294-5.673-1.886-1.297-4.067-1.872-6.234-1.634-12.178 1.264-30.477 4.176-42.613 7.409-11.897 3.838-27.597 8.198-29.5 27.039-1.453 12.964 1.021 75.079 2.014 98.077zm99.905 176.513c4.349-10.642 7.354-25.293 7.354-46.268-18.748 15.649-30.715-11.751-33.581-31.041-3.328 27.541-9.87 56.958-26.564 77.208l52.791.099v.002zm9.828-59.925c5.496-38.339 5.131-135.935 4.586-195.52-7.409 9.983-25.039 3.232-28.171 17.475-5.913 26.807-26.716 11.13-27.318 36.234-.195 8.96-4.222 14.75-11.575 17.899-2.475 34.651-7.704 68.946-13.939 102.879-.742 4.03-6.334 3.155-6.013-.979 2.154-27.727 4.601-55.48 5.117-83.329-2.361 10.389-10.764 15.759-19.963 17.915-.35 50.737-3.943 106.033-30.912 147.163l56.259.081c34.015-30.649 29.778-105.211 31.469-149.28.141-14.43 7.158-94.777 30.016-75.448 8.6 7.256 7.899 28.877 8.389 36.301 1.762 28.05.629 56.253-.697 84.286-.337 6.653.656 16.226-4.294 20.745-4.348 3.978-11.408 3.064-13.546-3.01-8.948-25.412-6.487-67.521-3.833-84.814.491-3.249 4.545-3.351 4.294 0-.728 10.556-3.845 97.549 10.696 80.879 1.13-2.778.683-7.715.838-10.792 11.394-156.429-22.565-140.434-26.186-40.32-.042 22.43.545 45.069 5.368 66.866 3.006 19.979 17.098 38.73 29.415 14.768v.001zm68.771 60.088l31.484.07c-24.549-33.136-36.531-76.641-37.649-120.627-1.901-45.931-2.069-92.151.712-138.066l-7.689.49c-1.467 36.063-1.454 72.348-4.473 108.279-.321 3.18-4.07 3.333-4.196 0-.795-20.02.253-40.29.672-60.327l1.329-47.632c-12.821.52-25.64.47-38.447-.136 2.068 75.397.055 151.407-.769 257.828l52.54.104c-12.486-32.855-19.811-70.29-16.68-106.514.322-3.471 4.613-3.659 4.613 0-.308 36.717 4.558 73.58 18.553 106.527v.004zm68.658.117c-.909-11.128-.838-34.075-.838-34.075-10.878-.481-32.184-.878-40.208-9.518-2.936-4.055-1.202-9.959 1.399-13.599 3.731-5.205 13.224-8.735 18.705-10.425-9.171-7.567-18.077-20.026-19.337-33.445-3.899-41.584 21.839-60.123 21.07-75.848-.825-41.824 1.648-83.985 6.361-125.403-4.489 5.455-9.968 9.563-16.022 11.953-3.103 22.478-3.411 45.039-5.591 67.635-.267 3.132-4.237 3.268-4.166 0 .264-21.871 1.551-43.591 3.509-65.328-9.885 4.697-7.117 22.882-19.684 26.855-5.692 47.869-3.176 96.63-1.065 144.74 3.929 47.376 2.043 81.47 43.606 116.441l12.261.017zm45.353-48.929c-8.961-.87-16.985 6.439-24.27 11.951-1.957 1.606-7.116 4.599-6.795 7.803 1.987 19.246 40.427-2.17 47.832-.889 6.554 1.132 10.715-15.153-16.767-18.871v.006zm-63.513-13.413c-5.83 1.533-15.491 3.81-18.174 11.521-.911 2.594-.351 2.899 1.48 3.91 12.5 6.906 34.099 4.262 37.805 2.874v-.009c1.789-.551 3.396-1.745 4.613-3.426 2.459-3.75 2.978-7.559 6.696-10.161 3.467-2.433 7.564-2.848 11.128-4.931 4.056-2.359 4.811-7.117 1.763-10.01-22.621-8.613-26.241 4.263-45.311 10.232zm454.81-89.584c1.419-.292 2.435.252 3.491.496 28.928 6.689 57.399 14.741 85.446 24.061 2.904.966 5.845 1.861 8.924 2.232 2.903.35 5.674-.07 7.989-1.816 1.946-1.468 1.686-3.132-.536-3.911-.182.121-.478.219-.595.41-1.766 2.908-3.169 3.482-6.807 2.633-3.918-.915-7.606-2.433-11.343-3.804-25.751-9.448-52.325-16.421-79.274-22.269-2.872-.623-5.742-1.283-8.402-2.513-2.606-1.206-3.262-2.202-2.982-4.865.958-9.162 5.866-16.257 13.714-21.765 3.045-2.139 6.127-4.238 9.267-6.256 1.948-1.253 2.744-2.743 2.618-4.996-.452-8.175 2.926-14.766 10.562-19.137 10.857-6.214 25.15-2.247 30.942 8.404.328.603.632 1.217 1.013 1.952 9.636-1.772 17.853.524 24.416 7.283l16.558-1.154c20.489-1.506 40.467.423 59.518 7.866 21.718 8.487 43.02 17.796 63.38 28.785 14.17 7.65 26.17 17.537 34.56 30.744 6.23 9.814 9.7 20.545 12.45 31.52l1.26 5.423c.34 1.389-.26 2.368-1.43 3.202-3.96 2.84-9.47 1.701-10.51-3.318-1.52-7.366-5.79-13.756-9.87-20.135-8.89-13.917-20.82-25.276-35.19-34.479-18.11-11.604-37.363-21.415-57.365-29.974-11.199-4.793-23.086-5.36-35.165-3.758l-12.546 1.826c-4.12.556-8.038-.201-11.772-1.804-2.007-.861-3.96-1.827-5.949-2.725-.709-.319-1.412-.78-2.42-.322-.878 1.345-.247 2.46 1.121 3.136 8.529 4.225 17.208 7.509 27.31 5.066 5.519-1.334 11.211-1.995 16.986-1.842 10.023.266 19.358 2.952 28.204 6.989 18.511 8.447 36.446 17.868 52.766 29.555 16.13 11.548 28.25 26.159 36.95 43.144 1.07 2.074 1.75 4.257 2.01 6.561.34 3.214-.69 5.893-3.6 7.769-6.62 4.284-12.66 9.163-18.31 14.492-3.58 3.379-6.29 3.503-10.55.805-8.27-5.229-15.94-11.155-23.71-16.964-8.3-6.198-16.288-12.743-25.173-18.254-5.266-3.266-10.917-5.812-17.003-7.51-1.139-.318-2.036-.847-2.892-1.579-5.174-4.426-10.441-8.751-16.841-11.688-3.389-1.555-6.913-2.68-10.77-2.8-3.273-.1-6.049.864-8.469 2.865-2.149 1.774-4.296 3.554-6.772 4.964-5.745 3.27-11.719 3.957-18.115 1.71l-46.912-16.329-44.189-15.068c-2.048-.698-4.118-1.395-5.999-2.859l.006.001zm69.728-7.862c11.491-.047 20.566-8.457 20.514-19.011-.051-10.019-9.137-18.108-20.303-18.072-11.172.036-20.599 8.502-20.55 18.458.05 10.152 9.352 18.67 20.339 18.625zm22.51-11.951c-5.674 7.27-12 13.943-22.606 13.819-10.839-.127-18.122-7.478-22.878-15.673-3.364 4.332.173 11.005 3.929 14.041 4.763 3.85 11.408 5.928 17.673 6.292 6.302.366 12.316-.773 17.065-4.769 4.117-3.467 6.939-8.515 6.817-13.71zm121.491 75.674c.01 4.523 3.67 8.114 8.31 8.138 4.79.024 8.71-3.161 8.72-7.078.01-4.43-4.23-8.436-8.92-8.435-4.54.002-8.12 3.258-8.11 7.375zm-.87-38.189c-10.9-.037-10.4 14.881.14 14.929 4.51.021 8.91-3.362 8.89-7.652-.02-4.284-4.66-7.262-9.03-7.277zm-31.845 10.842c10.484.004 10.638-14.897.14-14.894-10.388.004-10.458 14.89-.14 14.894zm-41.747-35.536c10.159-.055 10.159-14.802-.088-14.356-9.769.425-9.744 14.41.088 14.356zm-28.416-.787c.017-4.019-3.268-7.351-7.308-7.412-3.968-.061-7.003 2.815-6.993 6.631.012 4.087 3.391 7.421 7.508 7.409 3.828-.014 6.78-2.892 6.793-6.628zm-63.695-29.7c-1.593.627-2.168 2.704-3.259 3.866-1.072 1.14-2.416 1.991-3.98 2.464-4.04 1.225-8.546 1.198-12.672 2.35-3.732 1.044-7.887 2.323-10.439 5.201-1.913 2.158-2.444 5.632.024 7.678 1.195.992 4.209 1.445 3.359-.942-.511-1.435-2.443-1.813-2.087-3.699.682-3.613 6.477-4.769 9.601-5.518 4.605-1.106 9.478-1.21 14.039-2.327 4.093-1.003 5.428-4.765 6.889-8.031-.296-.787-.704-1.121-1.477-1.042h.002zm63.507-1.233c-1.589.013-3.796.359-3.352 2.332.376 1.679 3.272 2.456 4.862 2.463 1.782.006 3.753-.829 3.008-2.801-.602-1.589-2.945-2.002-4.518-1.994zm118.586 38.409c-2.83 1.979 2.63 6.598 5.14 5.863 4.53-1.327-2.38-6.212-5.14-5.863zm-4.29 107.57c3.87-7.661 9.35-14.56 16.02-20.372 7.47-6.505 16.32-11.343 25.17-16.081l14.5-7.952c2.41-1.391 4.79-2.822 7.11-4.323 1.42-.915 4.53-2.254 5.16-3.861-3.86-.208-9.51 4.695-12.75 1.279-1.25-1.312-1.58-3.791-1.11-5.459.58-2.005 2.91-2.554 4.81-3.293 7.79-3.043 17.81-5.631 25.84-1.804 7.77 3.703 9.23 11.709 9.52 19.024.36 9.758-1.16 19.842-3.74 29.301-2.78 10.225-7.41 19.623-13.33 28.616 4.96.544 7.31-2.949 11.35-4.516 3.14-1.215 7.75.719 8.08 4.018.42 4.022-3.94 5.203-7.41 5.272-2.06.041-9.9-.005-7.8 3.694 1.56 2.737 6.3 4.742 9.52 4.662 3.25-.081 8.08-1.863 9.74 2.049 1.23 2.9-1.23 6.387-4.38 7.02-4.23.846-5.25-2.943-8.66-4.006-9.06-2.829-22.03-4.122-29.49 2.581.66 3.385 6.91 3.073 7.35 7.05.38 3.668-4.84 5.252-7.99 4.261-3.51-1.11-3.22-5.293-6.25-7.171-3.02-1.879-7.11-1.712-10.59-1.524-9.9.536-20.34 3.22-29.46 6.749-3.62 1.398-6.25 5.004-10.25 5.296-3.74.273-7.85-2.261-7.27-6.071.83-5.494 7.22-3.572 11.15-3.465 4.83.131 9.26-2.382 11.72-6.119-2.92-.543-5.84-1.225-8.55-2.387-2.75-1.182-5.01-3.003-7.49-4.57 1.17 3.335-24.93 3.854-27.73 3.854-6.422 7.242-12.991 15.807-23.165 18.762-10.329 2.999-21.361-.871-31.806-1.39-5.127-.255-10.357-.033-15.214 1.624-2.544.868-10.124 4.092-10.408-.825-.13-2.245 1.54-2.915 3.522-3.426 2.144-.554 4.091-1.578 6.066-2.495 4.246-1.969 8.392-2.273 13.055-2.728-3.098-2.208-6.278-4.464-9.928-5.86-3.85-1.471-7.756-1.437-11.846-1.124-2.003.151-4.008.392-5.937.924-2.05.564-3.696 1.599-5.927 1.313-3.265-.42-4.471-3.492-2.422-5.84 2.451-2.808 7.498-1.705 10.909-2.047 4.367-.438 8.538-2.396 12.887-2.556 7.877-.286 16.981 7.034 24.68 1.951 1.792-8.038 7.025-14.752 12.373-21.13 5.866-6.998 12.053-13.738 18.044-20.641-3.889-1.61-8.241-1.837-12.267-3.071a42.25 42.25 0 0 1-10.026-4.584c-6.675-4.179-11.878-10.001-16.361-16.099-4.756-6.466-8.577-13.503-11.182-20.932-1.105-3.148-6.604-18.517 1.257-18.019 3.534.223 7.576 3.632 10.096 5.669 3.085 2.494 5.786 5.273 9.112 7.529 6.82 4.628 14.706 6.536 22.152 10.008 8.046 3.752 15.161 8.929 22.136 14.134 3.57 2.672 7 5.473 10.4 8.332 3.06 2.571 6.68 4.935 9.02 8.12 5.16 7.018 1.88 15.749-1.06 22.947-3.63 8.918-8.76 17.165-13.93 25.386 6.77-.052 13.28-.262 19.62-1.509 1.08.398 1.24 1.631 2.38 1.77-6.22-8.111-3.2-17.686.98-25.945zm64.93 1.198c9.39-8.317 17.89-25.288 16.74-32.616-12.06 20.201-30.55 34.734-50.93 47.698 13.55-.913 24.65-6.617 34.19-15.082zm-28.98-27.744c-7-.063-8.49 10.057-.87 9.361 5.84-.533 7.78-9.299.87-9.361zm21.62 10.033c6.73.086 4.84-8.939-.97-9.125-6.79-.219-5.14 9.048.97 9.125zm-35.81 7.787c-6.33-.049-5.73 7.602.26 7.647 6.08.045 5.61-7.602-.26-7.647zm-81.037-34.137c.129-3.295-3.332-5.077-6.502-3.92-3.068 1.12-4.067 4.468-3.511 7.231.537 2.676 3.126 5.568 6.326 4.028 2.821-1.361 3.535-4.706 3.687-7.339zm12.788 58.309c.125-5.75-9.664-4.047-9.769 1.008-.116 5.586 9.661 3.94 9.769-1.008zm14.849-49.944c-.086-5.628-7.911-4.2-7.947.884-.039 5.785 7.98 4.315 7.947-.884zm-13.11 39.908c4.721.009 7.018-6.498 1.452-6.304-4.271.147-6.992 6.293-1.452 6.304zm14.17 2.074c-4.96.05-3.256 6.025.92 5.874 4.42-.159 3.24-5.916-.92-5.874zm-19.199 29.579c3.821.062 5.583-5.399 1.137-5.65-4.052-.228-5.621 5.577-1.137 5.65zm34.639-57.427c-.04-3.725-5.76-3.679-6.06-.062-.35 4.128 6.1 4.096 6.06.062zm-53.564 36.66l-2.846 5.16c-21.256-11.091-41.05-24.04-59.973-38.5-.996 4.205-2.073 8.207-3.645 12.071l-4.021 9.475c-2.603 6.112 2.897 13.619 10.075 13.757 3.301.063 5.01 1.397 4.783 3.736-.239 2.473-2.77 4.373-5.474 4.144-.638-.055-1.258-.169-1.577-.682-2.691-4.314-7.386-4.827-12.033-5.186-4.946-.382-9.433.787-13.213 3.957-5.006 4.2-9.17 9.014-12.763 14.269-.929 1.361-1.256 2.866-1.117 4.432.369 4.181-4.817 5.54-7.733 4.361-2.271-.919-3.099-2.929-2.221-5.264.628-1.67 1.987-2.723 3.497-3.705 3.566-2.324 5.791-5.435 6.383-9.462.273-1.845-.678-2.971-2.523-3.472-2.392-.65-4.863-.925-7.344-1.141-11.016-.963-21.531 1.245-31.919 4.238-1.981.57-3.915 1.276-5.86 1.947-1.413.489-2.561 1.255-3.397 2.477-1.139 1.666-2.936 2.137-4.935 1.7-1.947-.426-3.099-1.735-3.512-3.468-.446-1.869-.038-3.564 1.831-4.737 1.34-.843 2.84-1.192 4.413-.969 7.185 1.023 13.255-1.465 18.743-5.269 2.57-1.781 5.248-2.861 8.352-3.381 1.788-.3 3.801-.336 5.041-2.016-.369-1.683-1.529-2.786-3.159-3.335-5.86-1.971-11.469-1.71-16.585 1.906-1.73 1.224-3.34 1.341-4.954.306s-2.421-3.101-1.838-4.747c.418-1.179 1.351-1.857 2.648-2a7.83 7.83 0 0 1 2.4.115c2.862.579 5.58.215 7.856-1.424 3.159-2.275 6.373-2.249 9.829-.814a27.18 27.18 0 0 0 10.94 2.119c8.185-.1 15.599-4.795 16.096-13.479.099-1.726.197-3.458.166-5.184-.071-4.001 1.051-7.666 3.329-11.076 2.638-3.951 4.835-8.105 6.66-12.431.702-1.666.713-3.091-.442-4.679-2.965-4.083-4.76-8.694-6.511-13.288-1.124-2.948-2.847-5.25-5.656-7.158-15.736-10.685-30.312-22.551-43.008-36.289-1.209-1.308-2.772-2.339-4.266-3.578 1.011-.577 1.321-.006 1.689.222 7.804 4.805 14.543 10.78 21.421 16.587 8.882 7.497 18.456 14.202 27.974 20.973 4.885 3.476 8.568 7.669 11.096 12.92 4.16 8.645 11.044 15.475 18.75 21.545 19.794 15.588 40.759 29.711 63.373 41.704 1.679.889 3.399 1.717 5.179 2.614l.001-.001zm-94.799-30.007c-.418 3.727 6.06 2.392 5.744-.936-.351-3.709-5.594-2.204-5.744.936zm56.701-57.587c-1.651 7.45-6.928 15.529-15.619 17.318-5.113 1.052-10.513-.917-15.182-2.677-4.961-1.872-9.682-4.228-14.417-6.529 8.652 1.561 18.27 4.38 27.14 3.018 7.624-1.17 13.157-6.027 18.078-11.13zm-6.114 37.626c.008 3.426-2.284 5.196-6.027 4.653-7.318-1.061-11.066-7.24-7.784-12.832 1.194-2.035 2.754-2.673 5.18-2.115 4.691 1.078 8.62 5.764 8.631 10.294zm38.683 27.68c-.178 8.973-11.614 2.67-13.123-2.531-1.113-3.835 2.665-7.537 6.969-6.622 4.415.941 5.814 5.578 6.154 9.153zm-18.781-21.664c-3.649.032-7.022-2.501-8.524-5.426-1.243-2.421-1.338-6.525 2.38-6.925 3.544-.381 7.883 1.934 9.989 4.413 2.589 3.046.536 7.756-3.845 7.938zm-8.107 18.815c-4.915-.008-8.921-4.558-7.911-8.97.373-1.629 1.479-2.409 3.248-2.452 4.41-.107 9.175 4.38 8.952 8.418-.105 1.87-1.726 3.006-4.288 3.004h-.001zm-44.93-38.471c.037-7.718 9.162-4.904 10.988.552 1.034 3.092-.528 6.539-4.548 6.426-3.679-.105-6.32-3.873-6.44-6.978zm-8.993-73.73c-4.689-.101-8.967-1.72-12.379-4.665-3.495-3.016-6.487-5.173-5.251-9.927 1.914-7.37 9.329-12.787 17.59-12.816 8.205-.028 15.723 5.539 17.601 12.844 1.14 4.425-2.029 7.239-5.447 9.964-3.578 2.854-7.438 4.182-12.114 4.6zm-16.105-13.54c10.76-7.328 21.332-7.769 31.868.119-1.554-6.876-7.546-11.842-14.47-12.162-8.349-.386-14.444 3.741-17.398 12.043zm-158.354 132.99c-4.795-.174-9.829-.973-16.692-2.402l-5.368-1.046c-3.395-9.291-8.062-19.779-11.854-26.91-7.931-16.513-41.113-70.956-41.562-71.545 0 0 49.296 33.464 66.206 73.664 4.996 11.87 7.879 21.175 9.27 28.237v.002zm34.115-69.091c17.411-38.324 39.7-52.245 39.703-52.249l-.359.459c-17.471 33.71-31.308 86.575-38.235 116.206-4.156.233-8.613.985-14.741 2.272-6.452 1.361-11.276 2.143-15.853 2.366 2.662-14.836 3.771-38.9-8.77-58.048-15.073-23.011-43.178-44.502-55.479-53.056-6.48-4.506-6.997-4.872-5.557-6.041.887-.714 2.187-.744 3.866-.074 17.926 7.196 51.186 22.793 73.657 54.076 8.395 9.582 12.127 20.388 12.127 20.388s4.354-13.457 9.641-26.3v.001zm21.383 77.351c7.693 1.632 13.764 2.647 17.167 2.351l-.121 14.263c-4.03-.16-9.407-.939-16.024-2.34-15.418-3.252-21.537-3.252-37.173 0-15.785 3.253-20.29 3.054-35.03 0-16.115-3.347-21.797-3.179-36.969 0-14.843 3.054-19.337 3.253-35.035 0-15.711-3.252-21.757-3.252-37.369 0-15.72 3.266-20.223 3.054-35.037 0-15.206-3.15-20.92-3.336-36.983 0-7.643 1.572-13.578 2.374-16.21 3.285l-.054-.58v-14.643c4.444-.136 10.116-.854 17.223-2.336 7.633-1.571 13.458-2.375 17.34-2.375 4.119 0 10.07.804 17.687 2.375 15.642 3.251 21.764 3.251 37.183 0 15.008-3.147 20.004-3.147 35.015 0 15.415 3.251 21.489 3.251 37.185 0 14.781-3.038 19.244-3.25 35.018 0 15.629 3.251 21.759 3.251 37.182 0 14.976-3.147 20.004-3.147 34.994 0h.011zm0 24.807c7.693 1.631 13.764 2.647 17.167 2.352l-.121 14.261c-4.03-.161-9.407-.937-16.024-2.34-15.418-3.251-21.537-3.251-37.173 0-15.785 3.254-20.29 3.055-35.03 0-16.115-3.345-21.797-3.177-36.969 0-14.843 3.055-19.337 3.254-35.035 0-15.711-3.251-21.757-3.251-37.369 0-15.72 3.267-20.223 3.055-35.037 0-15.206-3.149-20.92-3.335-36.983 0-7.643 1.573-13.578 2.376-16.21 3.286l-.054-.58v-14.644c4.444-.136 10.116-.852 17.223-2.335 7.633-1.572 13.458-2.376 17.34-2.376 4.119 0 10.07.804 17.687 2.376 15.642 3.252 21.764 3.252 37.183 0 15.008-3.148 20.004-3.148 35.015 0 15.415 3.252 21.489 3.252 37.185 0 14.781-3.038 19.244-3.25 35.018 0 15.629 3.252 21.759 3.252 37.182 0 14.976-3.148 20.004-3.148 34.994 0h.011zm-198.138-87.961c.297.195 28.254 18.583 46.326 36.129l-3.112-6.791c-2.795-6.029-5.962-12.856-7.583-17.648-13.25-14.658-33.507-32.316-33.711-32.492l-3.041-2.648 4.18 1.863c.182.081 17.059 7.648 27.382 15.664-1.599-6.699-2.641-13.59-3.021-20.054-4.483-53.254 28.34-77.447 28.67-77.686l2.824-2.025-1.421 2.583c-.138.245-13.663 25.192-15.503 58.955-2.394 21.596 10.429 51.938 11.134 53.587l27.101 29.973c-5.875-14.138-21.986-55.917-22.772-57.96l-1.864-4.832 3.421 4.451c.378.491 37.654 49.064 43.906 62.267a63.57 63.57 0 0 1 2.757 6.878c-4.162.233-8.548 1.002-14.747 2.278-15.7 3.25-21.771 3.25-37.182 0-5.774-1.209-10.061-1.948-14.012-2.228-21.012-28.686-39-47.492-41.002-49.561l-4.043-4.179 5.313 3.476zm5.497 54.669h.001l.001.001-.002-.001zm.001 0c-3.445-3.961-7.152-8.832-10.983-14.838-34.662-54.288 2.054-85.972 2.054-85.972-.136.186-13.895 19.053-4.354 45.824 5.268 17.267 19.097 37.506 30.307 52.048l-3.8.761c-5.237 1.104-9.389 1.823-13.224 2.177zm-35.355-4.108l-2.225-3.893c-21.535-36.307-40.576-60.218-40.758-60.443l-3.504-4.317 4.876 3.703c.508.384 50.913 38.896 65.214 68.692.044.088.076.18.121.269-3.574-.385-7.493-1.077-12.327-2.081-4.36-.902-8.158-1.54-11.395-1.929l-.002-.001z"/></svg>