<?xml version="1.0" encoding="UTF-8" standalone="no"?>
<!DOCTYPE svg PUBLIC "-//W3C//DTD SVG 1.1//EN" "http://www.w3.org/Graphics/SVG/1.1/DTD/svg11.dtd">
<svg width="100%" height="100%" viewBox="0 0 150 150" version="1.1" xmlns="http://www.w3.org/2000/svg" xmlns:xlink="http://www.w3.org/1999/xlink" xml:space="preserve" xmlns:serif="http://www.serif.com/" style="fill-rule:evenodd;clip-rule:evenodd;stroke-linejoin:round;stroke-miterlimit:2;">
    <g transform="matrix(0.132423,0,0,0.125,-4.46863,0.002125)">
        <path d="M135.366,809.44C90.746,824.44 56.057,846.002 33.745,872.44L33.745,474.38C58.685,509.254 111.744,562.88 203.806,569.442C179.996,583.318 137.436,601.88 76.685,601.88C71.435,601.88 67.31,606.005 67.31,611.255C67.31,616.318 71.435,620.63 76.685,620.63C153.753,620.63 203.628,593.067 225.566,577.692C232.128,605.627 252.941,662.064 313.691,687.752C274.131,703.127 192.938,730.877 141.751,723.752C136.5,723.002 131.813,726.565 131.063,731.815C130.313,736.877 133.875,741.565 139.125,742.315C145.5,743.252 152.438,743.627 159.375,743.627C219.935,743.627 300.003,713.627 331.315,701.065L331.315,754.69C318.565,762.378 274.88,785.44 200.255,795.378C174.005,798.94 153.942,803.252 135.38,809.44L135.366,809.44ZM1077.34,530.622L1166.4,505.872L1166.4,554.81C1130.78,555.934 1100.96,547.872 1077.34,530.622ZM1166.4,232.298L1166.4,486.548L1064.02,514.86C1058.77,516.173 1054.83,520.298 1053.71,525.548C1052.96,528.736 1053.33,531.923 1054.64,534.736L1054.64,534.923C1052.95,555.743 1038.89,665.615 947.204,746.803C910.644,677.058 729.892,640.308 672.704,630.183L715.079,570.558C723.329,571.308 731.767,572.058 740.017,572.996C821.207,581.246 900.519,599.058 975.707,626.058C980.582,627.933 985.832,625.308 987.707,620.433C989.395,615.558 986.957,610.12 982.082,608.433C914.953,584.245 844.454,567.37 772.642,557.995C797.205,543.558 817.455,525.745 833.017,504.37C833.58,503.62 834.142,503.057 834.517,502.307C852.142,477.745 863.767,449.057 869.767,416.057L902.767,420.557L905.205,420.932L1036.09,438.932C1041.15,439.495 1045.84,435.932 1046.59,430.87C1047.34,425.807 1043.77,420.932 1038.71,420.37L934.65,406.12C1056.53,336.19 1079.59,258.56 1083.9,232.31L1166.4,232.298ZM1071.6,549.543C1096.35,565.668 1125.6,573.731 1159.91,573.731C1162.16,573.731 1164.23,573.731 1166.48,573.543L1166.48,1106.28C1163.64,1179.81 1129,1200.87 1081.03,1199.93L593.665,1199.61L593.478,1199.61C516.983,1163.05 491.483,1100.99 485.858,1084.49L547.17,1005.36C562.92,1048.3 630.61,1142.24 920.67,1151.05L920.857,1151.05C925.92,1151.05 930.045,1147.12 930.232,1141.87C930.42,1136.8 926.295,1132.49 921.232,1132.3C628.167,1123.3 573.23,1025.81 563.292,993.743L566.105,993.743C707.667,993.743 770.48,897.745 791.105,855.933C811.535,883.683 874.725,929.245 1066.72,929.245C1083.22,929.245 1100.85,929.058 1119.6,928.308C1124.66,928.12 1128.79,923.62 1128.6,918.558C1128.41,913.308 1123.91,909.183 1118.85,909.558C873.038,919.12 815.85,861.933 803.1,840.558C863.472,825.558 910.535,800.245 946.91,770.62C948.222,769.682 949.347,768.557 950.66,767.62C1040.66,692.25 1065.41,589.498 1071.6,549.56L1071.6,549.543ZM144.749,931.88C91.124,975.75 53.999,1026.75 33.749,1083.94L33.749,905.63C55.494,863.63 104.244,839.817 141.369,827.255C158.619,821.443 177.556,817.318 202.681,813.943C297.371,801.381 344.246,768.756 346.121,767.443C348.558,765.756 350.058,762.943 350.058,759.756L350.058,686.818C350.058,685.88 349.871,684.755 349.496,683.818C349.496,683.63 349.496,683.255 349.308,683.068C348.933,682.13 348.371,681.38 347.621,680.63C346.496,679.318 344.996,678.38 343.308,678.005C343.121,677.818 343.121,677.818 342.933,677.818C254.998,656.63 242.436,571.506 241.123,560.818C241.123,560.255 241.123,559.88 240.936,559.318C240.936,558.755 240.748,558.005 240.373,557.443L240.373,557.255C239.998,556.13 239.248,555.193 238.498,554.255C238.123,553.88 237.936,553.693 237.561,553.505C236.998,552.943 236.248,552.38 235.498,552.193C234.373,551.443 232.873,551.255 231.373,551.443C231.186,551.255 230.998,551.255 230.811,551.443C93.001,555.562 40.688,453.565 33.751,438.753L33.751,226.133L279.371,226.695C283.683,246.008 297.933,295.695 335.621,325.133C282.371,330.757 172.311,346.883 119.061,385.695C114.936,388.883 113.998,394.695 117.186,398.82C118.873,401.445 121.873,402.758 124.686,402.758C126.561,402.758 128.623,402.195 130.123,400.883C192.373,355.507 346.313,342.757 365.063,341.445L365.251,341.445C376.876,345.382 389.626,347.82 404.251,347.632C408.938,363.758 423.375,399.945 461.063,423.57C393.003,434.445 316.125,459.382 227.813,499.32C223.125,501.383 221.063,507.008 223.313,511.695C224.813,515.07 228.188,517.132 231.75,517.132C233.063,517.132 234.375,516.945 235.688,516.382C335.248,471.383 419.436,445.695 492.748,438.195L492.935,438.195C505.309,442.132 519.372,444.945 535.497,445.695L576.185,485.633C387.753,504.571 296.628,569.07 291.565,572.82C287.253,575.82 286.315,581.82 289.503,585.945C291.19,588.383 294.19,589.883 297.003,589.883C298.878,589.883 300.94,589.133 302.44,588.008C303.75,586.883 408.94,512.446 627.19,501.008C542.62,531.948 399.562,593.818 393,657.568C390.562,680.63 405.187,701.256 437.062,719.068C449.625,724.88 485.25,746.442 483,767.63C481.5,781.693 461.81,809.255 346.31,835.505C270,852.755 200.25,886.13 144.75,931.88L144.749,931.88ZM312.37,1061.19C297.933,1104.13 307.12,1150.44 339.558,1199.57L89.557,1199.41C55.535,1201.94 37.696,1184.52 33.745,1149.96C33.745,1149.96 42.217,1047.82 156.558,946.257C209.818,902.382 276.938,870.507 350.438,853.632C448.496,831.507 497.996,803.944 501.558,769.632C505.684,731.382 451.121,704.945 445.496,702.32C421.496,688.82 410.058,674.382 411.558,659.382C417.938,597.7 612.56,523.45 689.248,499.262C700.685,499.262 712.31,499.45 724.31,500.012L535.69,590.95C534.377,591.7 502.69,607.075 502.502,635.95C502.502,663.887 530.628,690.887 588.94,718.825C613.502,729.138 677.627,764.012 678.94,803.2C679.69,827.95 655.315,852.888 606.565,876.888C588.94,885.512 568.69,893.2 544.69,899.95C485.63,916.64 344.63,965.762 312.38,1061.2L312.37,1061.19ZM466.503,1084.9C467.253,1088.1 484.316,1152.97 555.377,1199.65L362.438,1199.65C327.563,1151.65 316.688,1107.21 330.188,1067.27C359.628,980.274 493.498,933.962 549.748,918.024C574.872,910.898 596.248,903.024 614.81,893.836C670.873,866.274 698.622,835.524 697.685,802.524C695.624,743.647 600.187,703.334 596.624,701.834C531.187,670.334 521.249,647.272 521.249,636.209C521.249,618.959 543.562,608.085 543.749,607.897L763.499,501.958C777.936,502.895 792.936,504.02 808.124,505.708C790.499,525.583 767.624,541.521 739.499,554.083C730.125,552.958 720.562,552.208 711.187,551.458C707.812,551.27 704.625,552.77 702.75,555.395L648.938,631.52C647.063,634.145 646.688,637.708 647.813,640.708C649.125,643.708 651.938,645.77 655.125,646.333C725.245,657.213 908.245,698.463 932.245,759.213C896.055,787.526 849.185,811.338 788.435,824.838C788.06,825.025 787.498,825.213 786.935,825.4C786.185,825.588 785.623,825.963 785.06,826.338C784.123,826.9 783.56,827.65 782.998,828.4C782.248,829.15 781.873,830.088 781.685,831.025C781.685,831.025 781.685,831.213 781.498,831.588C777.938,841.528 724.878,982.9 552.188,974.838L551.25,974.838C550.313,974.838 549.375,975.213 548.438,975.588C548.25,975.588 547.875,975.588 547.688,975.775C546.75,976.15 546,976.713 545.25,977.463C544.875,977.65 544.688,978.025 544.313,978.4L544.125,978.775L468.187,1077.03C466.312,1079.28 465.75,1082.09 466.5,1084.9L466.503,1084.9ZM738.94,88.875C738.94,137.961 699.151,177.75 650.065,177.75C600.979,177.75 561.19,137.961 561.19,88.875C561.19,39.789 600.979,0 650.065,0C699.151,0 738.94,39.789 738.94,88.875ZM419.06,287.44C413.622,287.44 408.373,285.19 404.623,281.065C401.435,277.127 399.748,272.439 400.123,267.377C400.498,262.502 402.748,258.002 406.498,254.627C424.31,239.252 442.872,231.377 461.81,231.377C476.435,231.377 490.873,236.252 504.935,245.439C518.998,236.064 533.435,231.377 548.06,231.377C566.997,231.377 585.56,239.252 603.372,254.627C607.122,257.814 609.372,262.314 609.747,267.377C610.122,272.44 608.622,277.315 605.247,281.065C601.873,285.002 596.622,287.44 591.185,287.44C586.497,287.44 582.185,285.752 578.81,282.752C567.935,273.378 557.81,268.69 548.06,268.69C538.31,268.69 528.185,273.19 517.31,282.752C516.372,283.69 515.247,284.065 514.31,284.627C513.56,285.19 512.997,285.565 512.247,285.94C509.997,286.877 507.56,287.44 505.122,287.44C502.685,287.44 500.247,286.877 497.997,285.94C497.247,285.565 496.685,285.002 495.935,284.627C494.997,283.877 493.872,283.502 492.935,282.752C482.06,273.378 471.935,268.69 462.185,268.69C452.435,268.69 442.31,273.19 431.435,282.752C427.872,285.752 423.561,287.44 419.061,287.44L419.06,287.44ZM734.44,294.379C749.066,294.379 763.503,299.254 777.378,308.817C791.441,299.63 805.878,294.755 820.503,294.755C839.44,294.755 858.003,302.63 875.815,318.005C879.565,321.192 881.815,325.692 882.19,330.755C882.565,335.818 881.065,340.693 877.69,344.443C874.316,348.38 869.066,350.818 863.628,350.818C859.128,350.818 854.628,349.13 851.253,346.13C840.378,336.756 830.253,332.068 820.503,332.068C810.753,332.068 800.628,336.568 789.753,346.13C788.816,346.88 787.691,347.443 786.753,348.005C786.003,348.38 785.441,348.755 784.691,349.13C782.253,350.068 779.816,350.63 777.378,350.63L777.191,350.63C774.753,350.63 772.503,350.068 770.253,349.13C769.503,348.755 768.941,348.193 768.191,347.818C767.253,347.068 766.128,346.693 765.191,345.943C754.316,336.568 744.191,331.881 734.441,331.881C724.691,331.881 714.566,336.38 703.691,345.943C700.315,348.943 696.003,350.63 691.503,350.63C686.065,350.63 680.815,348.193 677.253,344.068C674.065,340.13 672.378,335.442 672.753,330.38C673.128,325.505 675.378,321.005 679.128,317.63C696.94,302.255 715.502,294.38 734.44,294.38L734.44,294.379Z" style="fill-rule:nonzero;"/>
    </g>
</svg>
