<!-- Generated by IcoMoon.io -->
<svg version="1.1" xmlns="http://www.w3.org/2000/svg" width="32" height="32" viewBox="0 0 32 32">
<path d="M29.216 3.873c-1.528-0.995-4.568-1.003-6.315 0.863-0.296 0.315-0.575 0.659-0.78 1.051-0.701 1.343-0.938 2.48-1 2.692-0.28 0.961-0.932 1.203-1.794 1.091-0.3-0.038-0.599-0.108-0.89-0.196-9.266-3.005-13.139 2.054-13.281 2.238-0.744 0.971-0.985 2.205-2.422 3.589-2.149 2.070-5.977 9.412 2.608 12.356 1.033 0.354 1.604 0.875 2.655 1.119 1.033 0.24 1.915 0.186 2.527-0.894 0.581-1.024-0.671-2.268-1.576-2.349-5.274-0.474-9.953-4.235-4.996-8.609 0.517-0.456 0.117 1.961 0.193 2.686 0.071 0.664 0.149 2.922 0.922 3.614 0.992 0.886 2.47 0.73 3.731 0.952 0.547 0.096 1.104 0.099 1.658 0.101 0.114 0.001 0.418-0.069 0.512-0.217 0.027-0.044 0.025-0.104 0.024-0.156-0.019-1.33-2.986-1.392-2.986-1.392-1.055-0.090-0.568-0.951-0.568-0.951 1.994-1.289 2.389-2.407 2.389-2.407 0.583-1.365-0.263-3.116-0.263-3.116s1.067 1.29 0.928 2.639c1.621-1.001 3.498-1.049 5.349-0.725 0.829 0.146 1.636 0.384 2.443 0.607 0.009-0.264 0.232-5.209 3.42-6.133 0.157-0.054 0.252-0.063 0.252-0.063-0.086 0.018-0.17 0.040-0.252 0.063-0.674 0.235-3.218 1.782-2.934 6.18 0.075 1.164 2.589 5.427 5.566 5.672 0 0 0.997 0.020 0.913-1.196 0 0-3.736-0.824-2.796-4.007l0.007-0.045c1.003-0.17 1.923-0.626 2.654-1.465 0.432-0.497 0.762-1.212 0.937-1.871 0.081-0.304 0.121-0.619 0.16-0.933-0.472-3.804 2.179-6.426 2.179-6.426 2.728 1.82 3.606-1.432 3.606-1.432s-2.372-2.657-2.784-2.926v-0.001zM25.496 5.505c0 0.332 0.135 0.877 0.348 0.877h-0.002c-0.547 0-0.988-0.535-0.988-1.138s0.442-1.114 0.988-1.114c0.245 0 0.469 0.109 0.642 0.271-0.546 0.001-0.988 0.501-0.988 1.103zM28.299 5.934c-0.21-0.124-0.375-0.292-0.484-0.472 0.245-0.251 0.724-0.263 1.162-0.001 0.201 0.119 0.363 0.279 0.475 0.451-0.233 0.265-0.714 0.284-1.154 0.022zM31.355 6.865v-0c0 0 0.088 0.569 0.3 0.523 0 0 0.223-0.315 0.234-0.535l-0.535 0.012z"></path>
</svg>
