<?xml version="1.0" encoding="UTF-8" standalone="no"?>
<!DOCTYPE svg PUBLIC "-//W3C//DTD SVG 1.1//EN" "http://www.w3.org/Graphics/SVG/1.1/DTD/svg11.dtd">
<svg width="100%" height="100%" viewBox="0 0 150 150" version="1.1" xmlns="http://www.w3.org/2000/svg" xmlns:xlink="http://www.w3.org/1999/xlink" xml:space="preserve" xmlns:serif="http://www.serif.com/" style="fill-rule:evenodd;clip-rule:evenodd;stroke-linejoin:round;stroke-miterlimit:2;">
    <g transform="matrix(1.16977,0,0,1.16977,-287.008,-33.7559)">
        <path d="M362.428,44.378C356.305,40.39 344.123,40.357 337.122,47.836C335.937,49.099 334.817,50.476 333.995,52.046C331.184,57.426 330.237,61.984 329.989,62.832C328.866,66.681 326.253,67.652 322.802,67.204C321.598,67.05 320.403,66.77 319.235,66.418C282.106,54.375 266.583,74.649 266.016,75.388C263.034,79.278 262.07,84.222 256.31,89.771C247.7,98.067 232.358,127.488 266.761,139.283C270.901,140.703 273.188,142.789 277.402,143.767C281.541,144.727 285.077,144.514 287.53,140.186C289.858,136.083 284.843,131.097 281.214,130.772C260.081,128.873 241.329,113.803 261.195,96.274C263.268,94.446 261.662,104.132 261.97,107.036C262.254,109.697 262.566,118.746 265.664,121.518C269.641,125.067 275.563,124.443 280.613,125.334C282.804,125.718 285.039,125.731 287.256,125.738C287.714,125.741 288.931,125.462 289.309,124.87C289.417,124.694 289.411,124.453 289.407,124.243C289.33,118.912 277.442,118.666 277.442,118.666C273.215,118.304 275.166,114.856 275.166,114.856C283.156,109.689 284.74,105.209 284.74,105.209C287.077,99.738 283.688,92.721 283.688,92.721C283.688,92.721 287.963,97.892 287.407,103.295C293.904,99.285 301.424,99.092 308.84,100.391C312.163,100.975 315.395,101.931 318.631,102.823C318.667,101.765 319.562,81.949 332.337,78.247C332.965,78.029 333.345,77.993 333.345,77.993C333.002,78.066 332.663,78.152 332.337,78.247C329.637,79.19 319.442,85.386 320.581,103.011C320.881,107.674 330.954,124.759 342.886,125.738C342.886,125.738 346.88,125.819 346.545,120.946C346.545,120.946 331.573,117.645 335.339,104.889L335.368,104.708C339.388,104.026 343.075,102.201 346.004,98.836C347.734,96.844 349.056,93.979 349.758,91.337C350.084,90.119 350.243,88.856 350.401,87.597C348.508,72.352 359.134,61.847 359.134,61.847C370.066,69.141 373.585,56.107 373.585,56.107C373.586,56.105 364.081,45.458 362.428,44.381L362.428,44.378ZM347.52,50.915C347.52,52.246 348.061,54.428 348.914,54.428L348.908,54.428C346.718,54.428 344.949,52.284 344.949,49.869C344.949,47.454 346.719,45.406 348.908,45.406C349.89,45.406 350.789,45.844 351.479,46.494C349.291,46.499 347.52,48.502 347.52,50.915ZM358.755,52.636C357.913,52.138 357.253,51.467 356.817,50.744C357.798,49.738 359.717,49.692 361.474,50.74C362.281,51.217 362.928,51.856 363.378,52.546C362.443,53.608 360.518,53.682 358.755,52.636ZM371.001,56.367L373.143,56.319C373.099,57.201 372.205,58.462 372.205,58.462C371.354,58.645 371.001,56.365 371.001,56.365L371.001,56.367Z"/>
    </g>
</svg>
