<!-- Generated by IcoMoon.io -->
<svg version="1.1" xmlns="http://www.w3.org/2000/svg" width="32" height="32" viewBox="0 0 32 32">
<path d="M20.5 28.331v1.67h-9v-1.67c0-1.2 0.47-2.33 1.32-3.18 0.39-0.39 0.845-0.695 1.33-0.915-0.741-0.541-1.244-1.386-1.307-2.359-0.116-1.758 1.309-3.326 3.069-3.375 1.785-0.049 3.254 1.389 3.254 3.164 0 1.060-0.52 1.99-1.315 2.57 1.56 0.705 2.65 2.275 2.65 4.095zM9.85 24.236c0.795-0.58 1.315-1.51 1.315-2.57 0-1.745-1.42-3.165-3.165-3.165s-3.165 1.42-3.165 3.165c0 1.060 0.52 1.99 1.315 2.57-0.485 0.22-0.94 0.525-1.33 0.915-0.85 0.85-1.32 1.98-1.32 3.18v1.17c0 0.275 0.225 0.5 0.5 0.5h6.5v-1.67c0-1.070 0.305-2.090 0.875-2.97-0.425-0.475-0.94-0.86-1.525-1.125zM25.85 24.236c0.795-0.58 1.315-1.51 1.315-2.57 0-1.745-1.42-3.165-3.165-3.165s-3.165 1.42-3.165 3.165c0 1.060 0.52 1.99 1.315 2.57-0.485 0.22-0.94 0.525-1.33 0.915-0.070 0.070-0.135 0.14-0.195 0.215 0.56 0.87 0.875 1.895 0.875 2.965v1.67h6.5c0.275 0 0.5-0.225 0.5-0.5v-1.17c0-1.82-1.090-3.39-2.65-4.095zM16 16.501c3.83 0 6.975-2.985 7.23-6.75h-3.39c-0.245 1.9-1.875 3.375-3.84 3.375-2.135 0-3.875-1.74-3.875-3.875s1.74-3.875 3.875-3.875c1.602 0 2.982 0.982 3.57 2.375h-1.128c-0.504-0.824-1.406-1.375-2.442-1.375-1.585 0-2.875 1.29-2.875 2.875s1.29 2.875 2.875 2.875c1.415 0 2.59-1.025 2.825-2.375h-2.825c-0.275 0-0.5-0.225-0.5-0.5s0.225-0.5 0.5-0.5h9.793l0.854 0.854c0.098 0.098 0.225 0.146 0.354 0.146 0.128 0 0.256-0.049 0.354-0.146 0.195-0.195 0.195-0.511 0-0.707l-0.646-0.646 0.646-0.646c0.195-0.195 0.195-0.511 0-0.707-0.195-0.195-0.511-0.195-0.707 0l-0.854 0.854h-2.71c-0.691-3.279-3.6-5.75-7.084-5.75-4 0-7.25 3.25-7.25 7.25s3.25 7.25 7.25 7.25z"></path>
</svg>
