<svg xmlns="http://www.w3.org/2000/svg" viewBox="0 0 1200 1200" width="150pt" height="150pt" xmlns:v="https://vecta.io/nano"><path d="M957.091 133.071c-39.508 46.171-78.219 20.655-89.771 67.7 4.631 1.709 15.701 2.042 19.608-7.595 4.558-11.181 15.339-15.927 18.186-16.211s18.185-7.549 18.185-7.549c5.113 39.712-16.545 44.244-23.371 47.497s-9.02 11.227-9.02 11.227c34.369 51.433 39.916 117.613 39.916 117.613-1.905 21.576 3.641 21.552 4.414 40.042 1.399 33.801-24.986 48.352-24.986 48.352s-.724 6.576-5.114 13.981-16.039 40.589-15.194 50.654-.435 23.688-2.991 27.89c-1.35 2.208-2.219 12.033-2.749 20.816l.048-.071 7.67 3.774-6.054 3.087 1.085 1.946v2.374l4.968-.285 7.67-13.839v8.736l9.936-3.49-5.547 6.931.241 2.682 6.03-5.412v-6.931l5.112 9.21v4.202l4.68-.831 5.957-5.65 11.938-4.201-5.546 6.931.844 10.065H657.275l.362-3.3-4.679-10.063 8.105 5.031 5.112-13.837v13.41l8.104-10.492 7.67 3.774-5.957 2.731-1.279 4.817 7.235-.426 2.508-4.534c.748-14.172 2.244-45.362 1.761-53.86-.628-11.131 2.026-11.749 2.026-11.749 11.384-3.347 14.302-22.882 14.302-22.882s6.657-26.797-1.977-51.317c-16.739-47.517-2.412-61.141-2.412-61.141s10.516-3.56 28.411-20.887 48.549-19.987 63.189-17.186 35.791 2.089 35.791 2.089c-3.134 1.827-7.886 10.634-7.886 10.634 16.835-21.41 32.92-20.556 32.92-20.556s3.667-.522 4.801 9.636c3.931 35.296 20.886 47.997 20.886 47.997-4.268-5.437-18.548-26.207-18.33-48.638s-12.204-36.886-12.204-36.886c25.735-2.849 22.696-6.647 29.255-10.183 16.087-8.688 10.37-22.455 10.37-22.455 1.569 19.44-10.08 17.327-16.182 23.214-6.127 5.863-27.736 5.128-27.736 5.128s-7.886 1.044-17.679.735c-9.791-.333-9.912 3.252-16.616 3.561s-7.236-3.157-13.844-6.409-6.296-9.637-6.296-9.637c-5.426-5.554.966-10.159.966-10.159l22.911-20.342-.217-3.893c-1.711-8.26 5.644-11.726 5.644-11.726-6.271 1.163-8.731 8.283-8.731 8.283-10.66-5.672-19.776-23.901-19.776-23.901 16.424-3.538 26.53.237 31.715 3.465-12.348-21.553-30.268-4.604-54.025-27.083-25.71-24.33-1.278-46.409-1.278-46.409-4.776 6.05-4.173 18.043-4.124 18.969v-.237c.144-4.204 2.411-5.313 2.411-5.313 7.887 35.435 38.348 35.007 38.348 35.007-11.07-28.106 0-25.994 6.536-53.884s26.917-40.466 26.917-40.466-19.826 31.758-17.897 35.436 12.686-8.686 12.686-8.686 1.592 1.23-11.191 18.745c-19.367 26.538-8.922 53.052 7.044 58.916 9.598 3.512 12.638 9.162 13.554 13.102 1.061-.38 2.268-.736 3.594-1.068 7.766-6.123 14.712-14.859 9.695-24.615-15.773-30.719-2.195-43.963-2.195-43.963-4.679 6.15 5.957 44.866 16.619 37.601s37.914-16.211 40.614-26.279c2.702-10.058-26.553-35.359-26.553-35.359 19.607 2.635 25.71 18.865 32.247 15.636s-1.713-29.616-1.713-29.616c19.464 19.008 10.66 49.602 10.66 49.602 24.264-6.983 62.879-57.969 41.531-74.772s-19.393-36.688-19.393-36.688 17.587 41.082 30.584 33.955c12.977-7.116-7.717-48.274-7.717-48.274s53.508 40.565-9.381 114.052zM836.376 557.945v-.665l-1.833-3.964 1.833 1.139v-9.945l4.776 12.913.891.569.918-.569 3.956-10.682c-.243-6.291-1.063-12.722-3.281-15.452-4.968-6.149-5.668-13.982-4.968-20.96s-2.847-15.096-2.847-15.096c-11.915-37.741-12.348-59.531-12.348-59.531s-4.847-3.797-4.27-14.384c.484-8.617-4.46-15.002-6.343-17.09 1.761 2.658 4.174 11.013 3.932 17.09-.289 7.002 3.546 14.954 3.546 14.954-1.978 9.234 2.436 23.238 2.436 23.238-71.586-1.408-85.236-93.266-85.236-93.266 1.977 29.006 14.23 42.511 12.203 61.501-2.266 21.269-20.766 56.922-27.808 64.042s-10.444 18.04-15.026 23.594c-3.859 4.676-10.612 34.585-12.685 44.031l6.077-5.459v-6.93l5.113 9.21v4.201l4.679-.831 4.004-3.798-1.159-2.492 2.293 1.424.843-.784 7.573-2.658 2.508-6.765v5.887l1.834-.641-1.834 2.303v5.862l8.104-10.491 7.67 3.774-5.957 2.729-1.279 4.82 7.236-.428 7.669-13.91v11.322l3.401 4.605 6.463-5.792c-3.569-10.99-11.215-33.777-16.761-45.147-7.454-15.286-5.958-22.835 1.808-28.294 7.79-5.459 17.872-32.495 7.212-46.476 0 0 2.291-9.091.578-18.421 0 0 16.644 37.126 53.594 42.988 0 0-14.399 22.407-30.293 32.757s-13.386 20.935-11.674 25.968c1.447 4.273 8.32 26.585 9.985 37.979l2.122-2.017 1.52-.523-2.942-3.656 6.679 2.351 6.681-2.351-2.942 3.656 1.52.523 5.957 5.649 4.678.829v-4.2l5.113-9.211v6.932l7.237 6.504 3.399-4.606v-11.322l7.671 13.839 7.234.428-1.277-4.819-5.957-2.73 7.668-3.773 8.106 10.518zm-23.988-154.239c.021.024.041.046.061.065l-.061-.065zm61.201 45.093c-5.982 4.487-15.775 5.317-15.775 5.317-1.832-22.502 4.969-27.249 4.969-27.249s-7.38 2.231-7.235 23.072-4.969 41.086 1.711 55.211c6.658 14.123 2.413 23.356 2.123 25.445l-2.628 17.304 6.729 3.324-5.958 2.73-1.279 4.817 7.237-.427.964-1.756-1.544-3.275 2.509 1.543 5.739-10.35v11.323l.532.711 1.398-3.797c.99-8.309 1.857-19.868-.119-25.969-3.282-10.159-1.063-8.901-3.185-20.129-2.146-11.203 1.664-48.73 1.664-48.73s1.593-6.74 7.816-8.26c12.324-2.991 15.627-9.638 15.627-9.638-7.67 8.807-15.339 4.322-21.295 8.783zM322.636 138.693c9.548 0 18.171 3.758 24.436 9.883 6.246 6.281 10.121 14.739 10.121 24.159s-3.875 17.879-10.121 24.004c-6.265 6.109-14.888 10.038-24.436 10.038-9.563 0-18.202-3.929-24.45-10.038-6.249-6.125-10.122-14.584-10.122-24.004s3.873-17.878 10.122-24.159c6.248-6.125 14.887-9.883 24.45-9.883zm30.189 81.107l11.749-5.027c.909-.464 1.673-.943 2.247-1.715l12.099-13.814 29.903 33.888c-7.875-2.505-14.522-4.873-18.252-6.588-1.386-.79-2.389-1.408-3.172-2.043-6.089-4.083-6.981-4.701-15.46 3.294-6.998 6.436-22.413 22.119-30.143 29.805l-.063.155c-4.608 4.546-9.676 8.167-15.224 10.517l-24.164 10.673 50.48-59.145zM100.663 513.778c.032-.157.032-.157.173-.157.525-.155.176 0-.173.157zm-26.479 54.906c-3.044 0-5.53-2.51-5.53-5.49s2.486-5.491 5.53-5.491h31.45c2.296-2.038 3.97-3.765 5.42-5.96 1.498-2.352 2.487-5.022 3.203-9.099.988-5.491 1.484-14.432 1.896-23.688 2.455.313 5.15.786 7.683.786 3.364.154 6.568-.159 8.976-1.414 1.975-.942 3.234-2.511 4.048-4.077l1.227.939c2.614 1.57 5.419 3.294 7.778 4.079 3.107 1.256 5.628 1.256 7.699.94.24-.155.479-.155.718-.313l-.016 1.412-.176 9.57c-.032 2.825-.032 4.863.097 6.589a24.66 24.66 0 0 0 1.035 5.491c.542 1.881 1.291 4.078 2.536 6.433 1.177 2.352 2.773 4.861 4.893 7.528.254.314.493.47.732.784h30.557c3.043 0 5.531 2.511 5.531 5.491s-2.488 5.49-5.531 5.49H74.184zm13.215-236.409c-.033 0-.033-.157 0 0zm143.216 154.207c2.727 2.353 5.119 4.709 6.825 6.905l3.266 4.077c-1.688 1.254-6.518 1.413-12.673 1.413-3.251-.159-5.545-.943-6.822-1.569l-.271-.159c-6.742-2.823-9.803-.939-9.179 5.649.048.472.093 1.099.27 1.883.175 1.099.462 2.038.925 3.136l.048.158c-1.34.312-3.046.626-4.927.786-2.071 0-4.318 0-6.438-.474-3.651-.784-7.523-2.98-10.346-4.39l-3.186-1.571c-1.643-.625-3.061-.94-4.256-.94-1.946.156-3.476.786-4.575 2.197-1.085 1.253-1.515 2.666-1.372 4.392.144 1.253.606 2.352 1.291 3.606.142.315.29.474.448.787-1.117-.158-2.327-.472-3.572-.472-1.994-.627-4.097-1.098-5.96-2.038-1.897-.942-3.763-2.196-5.437-3.453-1.769-1.412-3.203-2.667-4.143-3.607-3.986-3.608-6.568-4.08-9.341-1.412-.126.156-.271.315-.398.471-2.312 2.351-1.771 4.077-.942 6.588l.224.783-.304-.154c-1.593-.629-3.682-1.726-5.69-3.14-2.279-1.411-4.368-2.823-5.737-3.762-8.655-6.276-12.466-4.552-11.428 4.86.062.471.142 1.255.11 1.884h-2.74c-2.25-.155-4.817-.471-7.064-.786s-4.222-.782-5.96-1.098c-1.371-.313-2.472-.783-3.253-1.098-.428-.154-.908-.627-1.371-.783-2.405-1.726-4.366-2.979-8.271-2.196-2.344.47-3.636 1.568-5.133 2.825-.686.625-1.465 1.252-2.454 1.568-2.998 1.097-3.969.314-4.303-.629-.303-.939-.527-2.038-.735-3.136-.668-3.767-1.195-6.59-5.754-7.217-4.576-.783-6.071 1.568-8.162 4.862-1.435 2.355-3.778 6.12-11.494 5.336h-1.338c-.093-.159-.429-.784-1.003-1.571-5.212-7.844-10.535-7.059-16.258-3.292-1.484.783-2.757 1.882-4.048 2.822l.016.158h-.016c-2.758 2.038-5.802 4.547-7.859 3.294-.686-.472-1.004-.943-.893-1.884.273-2.194 1.947-5.333 5.227-9.725 3.142-4.393 5.835-7.217 10.283-11.924 2.407-2.508 1.162-1.098 3.252-3.294 4.477-4.864 7.73-9.411 9.437-13.49 1.289-2.98 1.785-5.963 1.45-8.47-.481-3.295-2.17-5.963-5.198-7.688-1.623-.94-3.537-1.57-5.751-1.882-.783 0-1.963-.157-3.285-.157-2.663-.157-6.2-.315-7.971-1.098-.127 0 .047-.629.861-2.196.956-1.884 16.943-16.473 28.182-26.671l10.792-9.88c4.032-4.081 6.661-7.375 8.432-10.198 1.895-3.138 2.803-5.49 3.347-7.372.939-3.295.431-6.748-1.817-9.728-1.674-2.196-4.306-4.234-8.02-5.491-4.416-1.568-10.392-2.038-15.269-2.351l.415-.473c1.866-2.196 4.271-5.018 7.075-7.999 2.489-2.981 5.421-5.962 8.515-8.943 3.633-3.45 7.522-6.902 10.997-9.883 4.016-3.607 6.552-7.216 7.698-10.51.974-2.667 1.069-5.176.335-7.53-.812-2.511-2.486-4.549-4.974-6.117-2.293-1.256-5.291-1.884-8.892-1.884-1.531 0-2.536-.313-3.03-.784h-.064-.031c0-.471.255-1.098.733-1.723.972-1.098 2.311-2.512 3.873-4.238 4.94-5.491 11.731-13.021 19.83-26.199l5.562-9.094c8.386-13.657 16.481-26.99 21.551-33.253 1.133-1.423 2.23-2.367 3.252-2.677.558-.308 1.034-.308 1.419-.308h.013c.386 0 .781.155 1.15.463.524.48 1.005 1.099 1.401 1.888.703 1.561 1.355 2.985 2.073 4.856 2.183 5.181 4.941 12.08 11.462 22.751 4.333 7.052 10.262 15.066 15.907 22.597 5.738 7.687 11.142 14.897 13.963 20.074 1.37 2.509 2.039 4.235 2.247 5.647h-6.423c-7.54 0-8.641 4.549-3.251 13.65 3.299 5.647 9.881 16.783 17.166 26.825 5.482 7.373 11.207 14.118 15.366 18.668l-.845.156c-1.819.156-4.112.47-6.328.784-2.822.315-4.048.47-4.845.628-7.382 1.099-7.508 1.099-6.743 8.627 0 .158.015.472.063.784.352 3.138 1.117 9.258 5.689 17.728 2.265 4.236 5.469 8.941 9.04 13.804l3.267 4.237c.175.156.368.314.574.628 2.486 2.98 5.022 5.804 7.427 8.313 2.662 2.511 5.15 4.707 7.268 6.588.831.629 1.643.785 2.281.785-1.929.785-4.319 1.098-6.566 1.256-2.314.156-6.679 1.253-9.74 3.922a10.34 10.34 0 0 0-3.124 3.765c-.847 1.569-1.292 3.45-1.165 5.646.16 2.667 1.403 5.649 4.161 8.943 3.747 4.393 9.102 8.942 14.554 13.335l7.235 6.117c.063 0 .128 0 .19.156zm216.128 27.296c.015-.157.015-.157.175-.157.511-.155.158 0-.175.157zm-25.137 54.906c-3.045 0-5.532-2.51-5.532-5.49s2.487-5.491 5.532-5.491h31.467c2.276-2.038 3.95-3.765 5.401-5.96 1.515-2.352 2.487-5.022 3.205-9.099.987-5.491 1.481-14.117 1.897-23.532 2.07.315 4.271.63 6.359.63 3.362.154 6.568 0 8.974-1.414 1.978-.942 3.235-2.511 4.032-3.922.43.159.845.47 1.245.784 2.598 1.57 5.403 3.294 7.76 4.079 3.109 1.256 5.645 1.256 7.716.94 1.8-.467 3.172-1.097 4.24-1.881l-1.881 12.55c-.286 2.509-.413 4.549-.335 6.434.096 2.037.386 3.763.959 5.646.542 1.881 1.305 4.078 2.534 6.433 1.193 2.352 2.772 4.861 4.892 7.528.238.314.494.627.733.784h30.558c3.044 0 5.544 2.511 5.544 5.491s-2.5 5.49-5.544 5.49H421.606zm11.859-236.409c-.015 0-.015-.157 0 0zm-1.833 3.451c-10.122.315-22.156 1.726-33.935 3.609-15.909 2.667-31.482 6.275-40.869 9.099-15.494 4.393-25.137 12.392-35.434 21.02l-4.128 3.451c-5.644 4.551-11.716 9.257-17.984 13.178-6.07 4.078-12.366 7.373-18.598 9.726-7.365 2.667-14.888 3.765-22.141 4.708-5.212.939-10.298 1.568-15.381 2.98-10.793 2.825-20.308 7.843-29.634 13.334l-.334-.471c-3.236-4.393-6.137-8.785-8.128-12.393-2.789-5.177-3.792-9.099-4.241-11.766l1.77-.155c1.705-.314 3.761-.629 6.121-.787l5.627-.784c2.294-.155 3.299-.155 3.968-.314 8.626-.784 9.198-5.176 1.674-13.334-3.777-4.078-11.302-12.235-18.153-21.648-5.899-8.001-11.494-17.256-15.002-23.217h.192c1.451 0 3.03-.313 4.51-1.098 1.434-.786 2.774-2.04 3.714-3.608.814-1.57 1.307-3.295 1.307-5.334 0-2.981-.987-6.746-3.681-11.609-3.157-5.648-8.832-13.335-14.792-21.33-5.499-7.379-11.316-15.22-15.333-21.654l-4.352-7.688 67.837-73.882 36.774 34.196c1.179 1.098 2.741 1.561 4.24 1.407l13.819-.618 33.761 26.664-35.688 41.883c-.735.464-1.309 1.253-1.706 1.888l-27.544 32.311c-1.961 2.354-1.643 5.648.7 7.687a5.71 5.71 0 0 0 7.764-.627l27.783-32.627 44.887-19.613c6.837-3.14 13.071-7.377 18.664-13.023h.063l29.808-29.649c1.991-1.871 1.211-2.352 1.579-2.197 1.067.79 2.421 1.733 4.383 2.676 7.108 3.605 21.87 7.997 36.883 12.235l23.925 27.145-4.287 7.051c-7.491 12.233-13.978 19.304-18.68 24.47l-4.21 4.864c-2.119 2.51-3.187 5.491-3.154 8.471 0 1.569.364 3.137 1.051 4.706.718 1.413 1.754 2.667 3.155 3.765 2.36 1.883 5.707 3.138 9.997 3.138 1.496 0 2.611.156 3.251.47-.033.158-.081.314-.176.629-.286.783-.829 1.726-1.672 2.665h.03zm-16.131 15.218c-8.704 2.196-18.554 5.333-27.72 8.942-8.319 3.137-16.193 6.744-22.33 10.511-9.548 5.96-16.911 13.489-24.212 21.02-2.853 2.98-5.707 6.12-8.608 8.785-3.38 3.295-6.888 6.275-10.281 9.256-7.38 6.274-14.299 12.235-18.651 18.823-7.778 11.61-17.452 14.905-28.068 18.513-13.135 4.234-27.559 9.099-42.353 27.609-1.005-.94-2.057-1.726-3.058-2.666-5.118-4.237-10.171-8.315-13.168-11.924-1.115-1.254-1.547-2.195-1.593-2.822.062 0 .172 0 .32-.158 1.052-.94 2.548-1.412 3.362-1.412 3.555-.156 7.554-1.099 10.663-2.196v.158c3.969-1.568 6.933-4.079 7.555-7.216.893-4.707-2.359-7.53-7.334-11.922-1.927-1.57-4.204-3.609-6.645-5.964-.939-.939-1.896-1.881-2.853-2.978 8.145-4.709 16.403-9.101 25.376-11.297 4.385-1.098 9.197-1.882 14.17-2.666 7.81-1.099 15.925-2.353 24.34-5.333 7.029-2.51 14.075-6.433 20.896-10.825 6.663-4.235 13.056-9.255 18.968-13.962 2.408-2.038 3.332-2.666 4.226-3.45 9.388-7.845 18.171-15.218 31.401-19.14 9.052-2.509 24.084-5.961 39.594-8.471 6.649-1.098 13.344-2.039 19.669-2.667l-1.929 1.883c-.557.47-1.115 1.097-1.688 1.569h-.049zM386.73 472.522c-15.51 2.509-30.97 4.86-43.866 4.078-5.645-.316-10.965-1.254-16.465-2.353-7.605-1.412-15.542-2.98-25.489-2.98-15.795-.314-35.737 2.98-56.028 6.43 11.922-13.177 23.592-17.099 34.319-20.706 12.529-4.079 23.973-7.845 33.825-22.746 3.569-5.335 9.913-10.826 16.656-16.787 3.554-2.98 7.22-6.118 10.697-9.412a219.51 219.51 0 0 0 8.908-9.1c6.84-6.9 13.725-14.117 22.094-19.294 5.45-3.295 12.687-6.589 20.465-9.569 3.045-1.412 6.169-2.511 9.311-3.453l-.255.315c-2.217 2.509-3.842 4.55-4.832 5.96-2.552 3.452-3.443 5.805-.878 9.099 1.612 2.04 3.89 2.511 7.828 2.825.478.156 1.53.156 2.661.156 4.56.471 11.128.627 14.889 2.039 1.434.471 2.311.943 2.725 1.569.081.158.129.158.096.314-.367 1.254-.925 2.825-2.135 4.707-1.323 2.195-3.444 4.862-6.838 8.156-1.993 2.041-5.787 5.491-10.441 9.728-11.859 10.823-28.723 26.197-30.541 29.805-4.654 8.942-1.658 13.806 4.033 16.628 3.89 2.04 8.83 2.196 12.53 2.354.907 0 1.704 0 2.406.158.621 0 1.068.155 1.355.313.031.628-.209 1.568-.719 2.666-1.098 2.666-3.251 5.806-6.279 9.1h-.032zm70.979 34.51h-.334c-1.387-.313-2.456-.627-3.251-1.098-.416-.154-.912-.468-1.387-.783-2.377-1.726-4.353-2.979-8.258-2.196-2.342.628-3.619 1.568-5.132 2.825-.685.625-1.466 1.252-2.453 1.568-3.015 1.097-3.954.314-4.306-.629-.302-.939-.525-2.038-.716-3.136-.686-3.767-1.211-6.59-5.756-7.217-4.591-.628-6.088 1.568-8.176 5.02-1.436 2.197-3.762 5.962-11.492 5.178h-1.325c-.11-.159-.447-.784-1.02-1.571-5.227-7.844-10.536-7.059-16.241-3.292-1.515.938-2.758 1.882-4.065 2.98-2.756 2.038-5.819 4.547-7.858 3.294-.685-.472-1.004-.943-.878-1.884.274-2.194 1.948-5.333 5.214-9.725 3.155-4.393 5.833-7.217 10.296-11.924 2.375-2.508 1.165-1.098 3.236-3.294 4.479-4.864 7.73-9.411 9.437-13.333 1.306-3.137 1.801-6.12 1.449-8.627-.463-3.295-2.167-5.963-5.195-7.688-1.628-.94-3.54-1.57-5.754-1.726a17.35 17.35 0 0 0-3.285-.313c-2.646-.157-6.197-.157-7.969-1.098-.128 0 .048-.471.877-2.196.94-1.727 16.927-16.473 28.165-26.671l10.776-9.88c4.049-4.081 6.679-7.375 8.463-10.198 1.882-3.138 2.805-5.49 3.347-7.372.925-3.295.415-6.748-1.832-9.728-1.674-2.196-4.305-4.234-8.018-5.491-4.416-1.568-10.392-2.038-15.255-2.196l.415-.628c1.866-2.196 4.256-5.018 7.06-7.999 2.472-2.824 5.436-5.804 8.512-8.943 3.651-3.45 7.539-6.902 10.999-9.883 4.018-3.607 6.551-7.216 7.715-10.353.973-2.824 1.068-5.333.319-7.687-.812-2.511-2.486-4.549-4.973-5.961-2.295-1.412-5.292-2.04-8.878-2.04-1.531 0-2.551-.156-3.044-.626-.018-.158-.049-.158-.065-.158h-.031c0-.471.239-.94.748-1.568.957-1.253 2.312-2.667 3.858-4.393 4.956-5.491 11.749-13.021 19.845-26.199l5.691-9.248c8.239-13.503 16.113-26.356 21.279-32.945 1.13-1.423 2.247-2.196 3.284-2.676.636-.308 1.228-.463 1.72-.463.496.155.957.463 1.404.618.573.635 1.084 1.252 1.451 2.042.686 1.406 1.385 3.139 2.12 5.181 1.99 5.182 4.526 11.599 10.903 22.117 4.317 7.052 10.264 15.066 15.89 22.597 5.738 7.687 11.158 15.054 13.964 20.231 1.387 2.352 2.056 4.078 2.263 5.49h-6.423c-7.555 0-8.64 4.549-3.253 13.65 3.3 5.647 9.868 16.783 17.169 26.825 5.482 7.528 11.203 14.118 15.349 18.824h-.829c-1.833.156-4.113.628-6.331.784l-4.841.784c-7.399.943-7.51.943-6.761 8.471 0 .314.034.472.08.942.35 2.98 1.115 9.1 5.69 17.57 2.264 4.393 5.468 9.1 9.038 13.804 3.588 4.708 7.588 9.413 11.27 13.178 2.662 2.668 5.133 4.864 7.268 6.588.83.785 1.642.943 2.28.943-1.946.627-4.319 1.098-6.567 1.254-2.311.158-6.663 1.256-9.757 3.766-1.243 1.098-2.359 2.352-3.123 3.921-.828 1.57-1.274 3.452-1.146 5.49.159 2.667 1.403 5.806 4.159 8.943 3.747 4.393 9.102 8.942 14.538 13.49 5.546 4.55 11.109 8.943 14.25 13.023l3.283 4.077c-1.707 1.254-6.521 1.568-12.672 1.413-3.253 0-5.547-.943-6.823-1.569h-.27c-6.744-2.982-9.803-1.098-9.197 5.49.063.472.111 1.254.287 2.038.158.944.462 2.196.924 3.139l.064.155c-1.374.315-3.062.631-4.96.631-2.07.155-4.303 0-6.422-.474-3.649-.784-7.525-2.821-10.344-4.235-1.244-.627-2.312-1.254-3.205-1.568-1.64-.783-3.028-1.098-4.255-.942-1.929 0-3.46.784-4.576 2.041-1.083 1.253-1.496 2.822-1.355 4.547.129 1.255.608 2.354 1.293 3.61.143.156.286.47.431.628-1.102 0-2.313-.313-3.569-.472-1.996-.472-4.083-1.098-5.949-2.038-1.895-.784-3.778-2.041-5.452-3.294-1.767-1.413-3.188-2.667-4.126-3.609-3.984-3.61-6.567-4.078-9.357-1.413-.112.159-.272.159-.399.315-2.312 2.511-1.77 4.077-.923 6.744l.22.784-.3-.157c-1.594-.627-3.684-1.88-5.708-3.137-2.263-1.41-4.352-2.821-5.738-3.765-8.639-6.275-12.463-4.547-11.428 4.706.08.63.16 1.255.144 1.884-.622.158-1.612.158-2.759.158-2.246-.158-4.813-.473-7.077-.787l-2.406-.47c-.702-.314-1.482-.469-2.327-.628-.287-.157-.59 0-.878 0l.016-.157zM31.735 593.306c0-11.325 9.415-20.591 20.922-20.591H1140.56c11.5 0 20.92 9.267 20.92 20.591 0 317.909-253.358 576.524-564.876 576.524S31.735 911.215 31.735 593.306zm181.394 20.593l46.863 24.501c36.822 18.943 60.671 59.711 61.09 105.01l1.255 37.884c1.464 62.594 55.65 106.04 108.79 86.891l33.055-11.943c43.724-15.441 89.96 10.707 104.396 58.683 10.459 35.002 1.882 71.24-19.458 95.545-10.251 10.91-23.012 19.56-37.657 24.08l-63.811 19.56c-29.497 9.27-59.833 14.01-90.168 15.03 71.756 37.89 153.142 59.51 239.336 59.51 56.698 0 111.302-9.48 162.559-26.56 12.972-14.42 27.407-26.97 43.098-37.27 50.211-33.37 47.491-115.307-4.603-144.339l-23.013-12.766c-28.872-16.266-44.771-51.475-39.542-86.89l3.976-27.179c5.858-42.62 41.214-72.888 79.919-68.358l131.797 15.442c25.522 2.882 48.955-9.059 64.229-28.826 11.09-15.03 17.58-33.973 17.16-54.975-.63-15.648 3.14-30.268 9.62-43.033l-828.891.003z"/></svg>