<!-- Generated by IcoMoon.io -->
<svg version="1.1" xmlns="http://www.w3.org/2000/svg" width="32" height="32" viewBox="0 0 32 32">
<path d="M25.522 3.549c-1.054 1.231-2.086 0.551-2.394 1.805 0.123 0.046 0.419 0.054 0.523-0.203 0.122-0.298 0.409-0.425 0.485-0.432s0.485-0.201 0.485-0.201c0.136 1.059-0.441 1.18-0.623 1.267s-0.241 0.299-0.241 0.299c0.916 1.372 1.064 3.136 1.064 3.136-0.051 0.575 0.097 0.575 0.118 1.068 0.037 0.901-0.666 1.289-0.666 1.289s-0.019 0.175-0.136 0.373-0.428 1.082-0.405 1.351-0.012 0.632-0.080 0.744c-0.036 0.059-0.059 0.321-0.073 0.555l0.001-0.002 0.205 0.101-0.161 0.082 0.029 0.052v0.063l0.132-0.008 0.205-0.369v0.233l0.265-0.093-0.148 0.185 0.006 0.072 0.161-0.144v-0.185l0.136 0.246v0.112l0.125-0.022 0.159-0.151 0.318-0.112-0.148 0.185 0.023 0.268h-7.359l0.010-0.088-0.125-0.268 0.216 0.134 0.136-0.369v0.358l0.216-0.28 0.205 0.101-0.159 0.073-0.034 0.128 0.193-0.011 0.067-0.121c0.020-0.378 0.060-1.21 0.047-1.436-0.017-0.297 0.054-0.313 0.054-0.313 0.304-0.089 0.381-0.61 0.381-0.61s0.178-0.715-0.053-1.368c-0.446-1.267-0.064-1.63-0.064-1.63s0.28-0.095 0.758-0.557 1.295-0.533 1.685-0.458 0.954 0.056 0.954 0.056c-0.084 0.049-0.21 0.284-0.21 0.284 0.449-0.571 0.878-0.548 0.878-0.548s0.098-0.014 0.128 0.257c0.105 0.941 0.557 1.28 0.557 1.28-0.114-0.145-0.495-0.699-0.489-1.297s-0.325-0.984-0.325-0.984c0.686-0.076 0.605-0.177 0.78-0.272 0.429-0.232 0.277-0.599 0.277-0.599 0.042 0.518-0.269 0.462-0.432 0.619s-0.74 0.137-0.74 0.137-0.21 0.028-0.471 0.020c-0.261-0.009-0.264 0.087-0.443 0.095s-0.193-0.084-0.369-0.171-0.168-0.257-0.168-0.257c-0.145-0.148 0.026-0.271 0.026-0.271l0.611-0.542-0.006-0.104c-0.046-0.22 0.151-0.313 0.151-0.313-0.167 0.031-0.233 0.221-0.233 0.221-0.284-0.151-0.527-0.637-0.527-0.637 0.438-0.094 0.707 0.006 0.846 0.092-0.329-0.575-0.807-0.123-1.441-0.722-0.686-0.649-0.034-1.238-0.034-1.238-0.127 0.161-0.111 0.481-0.11 0.506v-0.006c0.004-0.112 0.064-0.142 0.064-0.142 0.21 0.945 1.023 0.934 1.023 0.934-0.295-0.75 0-0.693 0.174-1.437s0.718-1.079 0.718-1.079-0.529 0.847-0.477 0.945 0.338-0.232 0.338-0.232 0.042 0.033-0.298 0.5c-0.516 0.708-0.238 1.415 0.188 1.571 0.256 0.094 0.337 0.244 0.361 0.349 0.028-0.010 0.060-0.020 0.096-0.028 0.207-0.163 0.392-0.396 0.259-0.656-0.421-0.819-0.059-1.172-0.059-1.172-0.125 0.164 0.159 1.196 0.443 1.003s1.011-0.432 1.083-0.701c0.072-0.268-0.708-0.943-0.708-0.943 0.523 0.070 0.686 0.503 0.86 0.417s-0.046-0.79-0.046-0.79c0.519 0.507 0.284 1.323 0.284 1.323 0.647-0.186 1.677-1.546 1.108-1.994s-0.517-0.978-0.517-0.978 0.469 1.096 0.816 0.905c0.346-0.19-0.206-1.287-0.206-1.287s1.427 1.082-0.25 3.041zM22.303 14.879v-0.018l-0.049-0.106 0.049 0.030v-0.265l0.127 0.344 0.024 0.015 0.024-0.015 0.105-0.285c-0.006-0.168-0.028-0.339-0.087-0.412-0.132-0.164-0.151-0.373-0.132-0.559s-0.076-0.403-0.076-0.403c-0.318-1.006-0.329-1.588-0.329-1.588s-0.129-0.101-0.114-0.384c0.013-0.23-0.119-0.4-0.169-0.456 0.047 0.071 0.111 0.294 0.105 0.456-0.008 0.187 0.095 0.399 0.095 0.399-0.053 0.246 0.065 0.62 0.065 0.62-1.909-0.038-2.273-2.487-2.273-2.487 0.053 0.774 0.379 1.134 0.325 1.64-0.060 0.567-0.554 1.518-0.742 1.708s-0.279 0.481-0.401 0.629c-0.103 0.125-0.283 0.922-0.338 1.174l0.162-0.146v-0.185l0.136 0.246v0.112l0.125-0.022 0.107-0.101-0.031-0.066 0.061 0.038 0.022-0.021 0.202-0.071 0.067-0.18v0.157l0.049-0.017-0.049 0.061v0.156l0.216-0.28 0.205 0.101-0.159 0.073-0.034 0.129 0.193-0.011 0.204-0.371v0.302l0.091 0.123 0.172-0.154c-0.095-0.293-0.299-0.901-0.447-1.204-0.199-0.408-0.159-0.609 0.048-0.755s0.477-0.867 0.192-1.239c0 0 0.061-0.242 0.015-0.491 0 0 0.444 0.99 1.429 1.146 0 0-0.384 0.598-0.808 0.874s-0.357 0.558-0.311 0.692c0.039 0.114 0.222 0.709 0.266 1.013l0.057-0.054 0.041-0.014-0.078-0.098 0.178 0.063 0.178-0.063-0.078 0.098 0.041 0.014 0.159 0.151 0.125 0.022v-0.112l0.136-0.246v0.185l0.193 0.173 0.091-0.123v-0.302l0.205 0.369 0.193 0.011-0.034-0.129-0.159-0.073 0.204-0.101 0.216 0.28zM21.664 10.765c0.001 0.001 0.001 0.001 0.002 0.002l-0.002-0.002zM23.296 11.968c-0.16 0.12-0.421 0.142-0.421 0.142-0.049-0.6 0.133-0.727 0.133-0.727s-0.197 0.059-0.193 0.615-0.133 1.096 0.046 1.472c0.178 0.377 0.064 0.623 0.057 0.679l-0.070 0.461 0.179 0.089-0.159 0.073-0.034 0.128 0.193-0.011 0.026-0.047-0.041-0.087 0.067 0.041 0.153-0.276v0.302l0.014 0.019 0.037-0.101c0.026-0.222 0.050-0.53-0.003-0.693-0.088-0.271-0.028-0.237-0.085-0.537s0.044-1.299 0.044-1.299 0.042-0.18 0.208-0.22c0.329-0.080 0.417-0.257 0.417-0.257-0.205 0.235-0.409 0.115-0.568 0.234zM8.604 3.698c0.255 0 0.485 0.1 0.652 0.264 0.167 0.168 0.27 0.393 0.27 0.644s-0.103 0.477-0.27 0.64c-0.167 0.163-0.397 0.268-0.652 0.268s-0.485-0.105-0.652-0.268c-0.167-0.163-0.27-0.389-0.27-0.64s0.103-0.477 0.27-0.644c0.167-0.163 0.397-0.264 0.652-0.264zM9.409 5.861l0.313-0.134c0.024-0.012 0.045-0.025 0.060-0.046l0.323-0.368 0.797 0.904c-0.21-0.067-0.387-0.13-0.487-0.176-0.037-0.021-0.064-0.038-0.085-0.054-0.162-0.109-0.186-0.125-0.412 0.088-0.187 0.172-0.598 0.59-0.804 0.795l-0.002 0.004c-0.123 0.121-0.258 0.218-0.406 0.28l-0.644 0.285 1.346-1.577zM2.684 13.701c0.001-0.004 0.001-0.004 0.005-0.004 0.014-0.004 0.005 0-0.005 0.004zM1.978 15.165c-0.081 0-0.147-0.067-0.147-0.146s0.066-0.146 0.147-0.146h0.839c0.061-0.054 0.106-0.1 0.145-0.159 0.040-0.063 0.066-0.134 0.085-0.243 0.026-0.146 0.040-0.385 0.051-0.632 0.065 0.008 0.137 0.021 0.205 0.021 0.090 0.004 0.175-0.004 0.239-0.038 0.053-0.025 0.086-0.067 0.108-0.109l0.033 0.025c0.070 0.042 0.144 0.088 0.207 0.109 0.083 0.034 0.15 0.034 0.205 0.025 0.006-0.004 0.013-0.004 0.019-0.008l-0 0.038-0.005 0.255c-0.001 0.075-0.001 0.13 0.003 0.176 0.004 0.054 0.014 0.104 0.029 0.151l-0.001-0.005c0.014 0.050 0.034 0.109 0.068 0.172 0.031 0.063 0.074 0.13 0.13 0.201 0.007 0.008 0.013 0.013 0.020 0.021h0.815c0.081 0 0.147 0.067 0.147 0.146s-0.066 0.146-0.147 0.146h-3.193zM2.331 8.861c-0.001 0-0.001-0.004 0 0zM6.15 12.973c0.073 0.063 0.136 0.126 0.182 0.184l0.087 0.109c-0.045 0.033-0.174 0.038-0.338 0.038-0.087-0.004-0.148-0.025-0.182-0.042l-0.007-0.004c-0.18-0.075-0.261-0.025-0.245 0.151 0.001 0.013 0.002 0.029 0.007 0.050 0.005 0.029 0.012 0.054 0.025 0.084l0.001 0.004c-0.036 0.008-0.081 0.017-0.131 0.021-0.055 0-0.115 0-0.172-0.013-0.097-0.021-0.201-0.079-0.276-0.117l-0.085-0.042c-0.044-0.017-0.082-0.025-0.114-0.025-0.052 0.004-0.093 0.021-0.122 0.059-0.029 0.033-0.040 0.071-0.037 0.117 0.004 0.033 0.016 0.063 0.034 0.096 0.004 0.008 0.008 0.013 0.012 0.021-0.030-0.004-0.062-0.013-0.095-0.013-0.053-0.017-0.109-0.029-0.159-0.054s-0.1-0.059-0.145-0.092c-0.047-0.038-0.085-0.071-0.11-0.096-0.106-0.096-0.175-0.109-0.249-0.038-0.003 0.004-0.007 0.008-0.011 0.013-0.062 0.063-0.047 0.109-0.025 0.176l0.006 0.021-0.008-0.004c-0.042-0.017-0.098-0.046-0.152-0.084-0.061-0.038-0.116-0.075-0.153-0.1-0.231-0.167-0.332-0.121-0.305 0.13 0.002 0.013 0.004 0.033 0.003 0.050h-0.073c-0.060-0.004-0.128-0.013-0.188-0.021s-0.113-0.021-0.159-0.029c-0.037-0.008-0.066-0.021-0.087-0.029-0.011-0.004-0.024-0.017-0.037-0.021-0.064-0.046-0.116-0.079-0.221-0.059-0.063 0.013-0.097 0.042-0.137 0.075-0.018 0.017-0.039 0.033-0.065 0.042-0.080 0.029-0.106 0.008-0.115-0.017s-0.014-0.054-0.020-0.084c-0.018-0.1-0.032-0.176-0.153-0.192-0.122-0.021-0.162 0.042-0.218 0.13-0.038 0.063-0.101 0.163-0.306 0.142h-0.036c-0.002-0.004-0.011-0.021-0.027-0.042-0.139-0.209-0.281-0.188-0.434-0.088-0.040 0.021-0.074 0.050-0.108 0.075l0 0.004h-0c-0.074 0.054-0.155 0.121-0.21 0.088-0.018-0.013-0.027-0.025-0.024-0.050 0.007-0.059 0.052-0.142 0.139-0.259 0.084-0.117 0.156-0.192 0.274-0.318 0.064-0.067 0.031-0.029 0.087-0.088 0.119-0.13 0.206-0.251 0.252-0.36 0.034-0.079 0.048-0.159 0.039-0.226-0.013-0.088-0.058-0.159-0.139-0.205-0.043-0.025-0.094-0.042-0.153-0.050-0.021 0-0.052-0.004-0.088-0.004-0.071-0.004-0.165-0.008-0.213-0.029-0.003 0 0.001-0.017 0.023-0.059 0.026-0.050 0.452-0.439 0.752-0.711l0.288-0.263c0.108-0.109 0.178-0.197 0.225-0.272 0.051-0.084 0.075-0.146 0.089-0.197 0.025-0.088 0.011-0.18-0.048-0.259-0.045-0.059-0.115-0.113-0.214-0.146-0.118-0.042-0.277-0.054-0.407-0.063l0.011-0.013c0.050-0.059 0.114-0.134 0.189-0.213 0.066-0.079 0.145-0.159 0.227-0.238 0.097-0.092 0.201-0.184 0.293-0.264 0.107-0.096 0.175-0.192 0.205-0.28 0.026-0.071 0.029-0.138 0.009-0.201-0.022-0.067-0.066-0.121-0.133-0.163-0.061-0.034-0.141-0.050-0.237-0.050-0.041 0-0.068-0.008-0.081-0.021h-0.003c0-0.013 0.007-0.029 0.020-0.046 0.026-0.029 0.062-0.067 0.103-0.113 0.132-0.146 0.313-0.347 0.529-0.699l0.148-0.242c0.224-0.364 0.44-0.72 0.575-0.887 0.030-0.038 0.059-0.063 0.087-0.071 0.015-0.008 0.028-0.008 0.038-0.008h0c0.010 0 0.021 0.004 0.031 0.012 0.014 0.013 0.027 0.029 0.037 0.050 0.019 0.042 0.036 0.080 0.055 0.13 0.058 0.138 0.132 0.322 0.306 0.607 0.116 0.188 0.274 0.402 0.424 0.603 0.153 0.205 0.297 0.397 0.372 0.535 0.037 0.067 0.054 0.113 0.060 0.151h-0.171c-0.201 0-0.23 0.121-0.087 0.364 0.088 0.151 0.263 0.448 0.458 0.715 0.146 0.197 0.299 0.376 0.41 0.498l-0.023 0.004c-0.048 0.004-0.11 0.013-0.169 0.021-0.075 0.008-0.108 0.013-0.129 0.017-0.197 0.029-0.2 0.029-0.18 0.23 0 0.004 0 0.013 0.002 0.021 0.009 0.084 0.030 0.247 0.152 0.473 0.060 0.113 0.146 0.238 0.241 0.368l0.087 0.113c0.005 0.004 0.010 0.008 0.015 0.017 0.066 0.079 0.134 0.155 0.198 0.222 0.071 0.067 0.137 0.126 0.194 0.176 0.022 0.017 0.044 0.021 0.061 0.021-0.051 0.021-0.115 0.029-0.175 0.034-0.062 0.004-0.178 0.033-0.26 0.105-0.035 0.026-0.063 0.060-0.083 0.099l-0.001 0.002c-0.023 0.042-0.034 0.092-0.031 0.151 0.004 0.071 0.037 0.151 0.111 0.238 0.1 0.117 0.243 0.238 0.388 0.356l0.193 0.163c0.002 0 0.003 0 0.005 0.004zM11.913 13.701c0-0.004 0-0.004 0.005-0.004 0.014-0.004 0.004 0-0.005 0.004zM11.243 15.165c-0.081 0-0.148-0.067-0.148-0.146s0.066-0.146 0.148-0.146h0.839c0.061-0.054 0.105-0.1 0.144-0.159 0.040-0.063 0.066-0.134 0.085-0.243 0.026-0.146 0.040-0.376 0.051-0.628 0.055 0.008 0.114 0.017 0.17 0.017 0.090 0.004 0.175 0 0.239-0.038 0.053-0.025 0.086-0.067 0.108-0.105 0.011 0.004 0.023 0.013 0.033 0.021 0.069 0.042 0.144 0.088 0.207 0.109 0.083 0.034 0.151 0.034 0.206 0.025 0.048-0.012 0.085-0.029 0.113-0.050l-0.050 0.335c-0.008 0.067-0.011 0.121-0.009 0.172 0.003 0.054 0.010 0.1 0.026 0.151s0.035 0.109 0.068 0.172c0.032 0.063 0.074 0.13 0.13 0.201 0.006 0.008 0.013 0.017 0.020 0.021h0.815c0.081 0 0.148 0.067 0.148 0.146s-0.067 0.146-0.148 0.146h-3.194zM11.559 8.861c-0 0-0-0.004 0 0zM11.51 8.953c-0.27 0.008-0.591 0.046-0.905 0.096-0.424 0.071-0.84 0.167-1.090 0.243-0.413 0.117-0.67 0.33-0.945 0.561l-0.11 0.092c-0.15 0.121-0.312 0.247-0.48 0.351-0.162 0.109-0.33 0.197-0.496 0.259-0.196 0.071-0.397 0.1-0.59 0.126-0.139 0.025-0.275 0.042-0.41 0.079-0.288 0.075-0.542 0.209-0.79 0.356l-0.009-0.013c-0.086-0.117-0.164-0.234-0.217-0.33-0.074-0.138-0.101-0.243-0.113-0.314l0.047-0.004c0.045-0.008 0.1-0.017 0.163-0.021l0.15-0.021c0.061-0.004 0.088-0.004 0.106-0.008 0.23-0.021 0.245-0.138 0.045-0.356-0.101-0.109-0.301-0.326-0.484-0.577-0.157-0.213-0.306-0.46-0.4-0.619h0.005c0.039 0 0.081-0.008 0.12-0.029 0.038-0.021 0.074-0.054 0.099-0.096 0.022-0.042 0.035-0.088 0.035-0.142 0-0.079-0.026-0.18-0.098-0.31-0.084-0.151-0.236-0.356-0.394-0.569-0.147-0.197-0.302-0.406-0.409-0.577l-0.116-0.205 1.809-1.97 0.981 0.912c0.031 0.029 0.073 0.042 0.113 0.038l0.369-0.016 0.9 0.711-0.952 1.117c-0.020 0.012-0.035 0.033-0.045 0.050l-0.734 0.862c-0.052 0.063-0.044 0.151 0.019 0.205 0.026 0.021 0.059 0.033 0.095 0.033 0.045 0 0.085-0.019 0.112-0.050l0-0 0.741-0.87 1.197-0.523c0.182-0.084 0.349-0.197 0.498-0.347h0.002l0.795-0.791c0.053-0.050 0.032-0.063 0.042-0.059 0.028 0.021 0.065 0.046 0.117 0.071 0.19 0.096 0.583 0.213 0.984 0.326l0.638 0.724-0.114 0.188c-0.2 0.326-0.373 0.515-0.498 0.653l-0.112 0.13c-0.056 0.067-0.085 0.146-0.084 0.226 0 0.042 0.010 0.084 0.028 0.126 0.019 0.038 0.047 0.071 0.084 0.1 0.063 0.050 0.152 0.084 0.267 0.084 0.040 0 0.070 0.004 0.087 0.013-0.001 0.004-0.002 0.008-0.005 0.017-0.008 0.021-0.022 0.046-0.045 0.071h0.001zM11.080 9.358c-0.232 0.059-0.495 0.142-0.739 0.238-0.222 0.084-0.432 0.18-0.595 0.28-0.255 0.159-0.451 0.36-0.646 0.561-0.076 0.079-0.152 0.163-0.23 0.234-0.090 0.088-0.184 0.167-0.274 0.247-0.197 0.167-0.381 0.326-0.497 0.502-0.207 0.31-0.465 0.397-0.748 0.494-0.35 0.113-0.735 0.243-1.129 0.736-0.027-0.025-0.055-0.046-0.082-0.071-0.136-0.113-0.271-0.222-0.351-0.318-0.030-0.033-0.041-0.059-0.042-0.075 0.002 0 0.005 0 0.009-0.004 0.028-0.025 0.068-0.038 0.090-0.038 0.095-0.004 0.201-0.029 0.284-0.059v0.004c0.106-0.042 0.185-0.109 0.201-0.192 0.024-0.126-0.063-0.201-0.196-0.318-0.051-0.042-0.112-0.096-0.177-0.159-0.025-0.025-0.051-0.050-0.076-0.079 0.217-0.126 0.437-0.243 0.677-0.301 0.117-0.029 0.245-0.050 0.378-0.071 0.208-0.029 0.425-0.063 0.649-0.142 0.187-0.067 0.375-0.172 0.557-0.289 0.178-0.113 0.348-0.247 0.506-0.372 0.064-0.054 0.089-0.071 0.113-0.092 0.25-0.209 0.485-0.406 0.837-0.51 0.241-0.067 0.642-0.159 1.056-0.226 0.177-0.029 0.356-0.054 0.524-0.071l-0.051 0.050c-0.015 0.013-0.030 0.029-0.045 0.042h-0.001zM10.313 12.601c-0.414 0.067-0.826 0.13-1.17 0.109-0.151-0.008-0.292-0.033-0.439-0.063-0.203-0.038-0.414-0.079-0.68-0.079-0.421-0.008-0.953 0.079-1.494 0.171 0.318-0.351 0.629-0.456 0.915-0.552 0.334-0.109 0.639-0.209 0.902-0.607 0.095-0.142 0.264-0.289 0.444-0.448 0.095-0.079 0.193-0.163 0.285-0.251 0.081-0.079 0.159-0.158 0.234-0.239l0.004-0.004c0.182-0.184 0.366-0.376 0.589-0.514 0.145-0.088 0.338-0.176 0.546-0.255 0.081-0.038 0.165-0.067 0.248-0.092l-0.007 0.008c-0.059 0.067-0.102 0.121-0.129 0.159-0.068 0.092-0.092 0.155-0.023 0.243 0.043 0.054 0.104 0.067 0.209 0.075 0.013 0.004 0.041 0.004 0.071 0.004 0.122 0.013 0.297 0.017 0.397 0.054 0.038 0.013 0.062 0.025 0.073 0.042 0.002 0.004 0.003 0.004 0.003 0.008-0.010 0.033-0.025 0.075-0.057 0.126-0.035 0.059-0.092 0.13-0.182 0.217-0.053 0.054-0.154 0.146-0.278 0.259-0.316 0.289-0.766 0.699-0.814 0.795-0.124 0.238-0.044 0.368 0.108 0.443 0.104 0.054 0.235 0.059 0.334 0.063 0.024 0 0.045 0 0.064 0.004 0.017 0 0.028 0.004 0.036 0.008 0.001 0.017-0.006 0.042-0.019 0.071-0.029 0.071-0.087 0.155-0.167 0.243h-0.001zM12.206 13.521h-0.009c-0.037-0.008-0.066-0.017-0.087-0.029-0.011-0.004-0.024-0.012-0.037-0.021-0.063-0.046-0.116-0.079-0.22-0.059-0.062 0.017-0.097 0.042-0.137 0.075-0.018 0.017-0.039 0.033-0.065 0.042-0.080 0.029-0.105 0.008-0.115-0.017-0.008-0.025-0.014-0.054-0.019-0.084-0.018-0.1-0.032-0.176-0.153-0.192-0.122-0.017-0.162 0.042-0.218 0.134-0.038 0.059-0.1 0.159-0.306 0.138h-0.035c-0.003-0.004-0.012-0.021-0.027-0.042-0.139-0.209-0.281-0.188-0.433-0.088-0.040 0.025-0.074 0.050-0.108 0.079-0.073 0.054-0.155 0.121-0.21 0.088-0.018-0.013-0.027-0.025-0.023-0.050 0.007-0.059 0.052-0.142 0.139-0.259 0.084-0.117 0.156-0.192 0.275-0.318 0.063-0.067 0.031-0.029 0.086-0.088 0.119-0.13 0.206-0.251 0.252-0.356 0.035-0.084 0.048-0.163 0.039-0.23-0.012-0.088-0.058-0.159-0.139-0.205-0.043-0.025-0.094-0.042-0.153-0.046-0.026-0.005-0.057-0.008-0.088-0.008-0 0-0 0-0 0v0c-0.071-0.004-0.165-0.004-0.213-0.029-0.003 0 0.001-0.013 0.023-0.059 0.025-0.046 0.451-0.439 0.751-0.711l0.287-0.263c0.108-0.109 0.178-0.197 0.226-0.272 0.050-0.084 0.075-0.146 0.089-0.197 0.025-0.088 0.011-0.18-0.049-0.259-0.045-0.059-0.115-0.113-0.214-0.146-0.118-0.042-0.277-0.054-0.407-0.059l0.011-0.017c0.050-0.059 0.114-0.134 0.188-0.213 0.066-0.075 0.145-0.155 0.227-0.238 0.097-0.092 0.201-0.184 0.293-0.264 0.107-0.096 0.175-0.192 0.206-0.276 0.026-0.075 0.028-0.142 0.008-0.205-0.022-0.067-0.066-0.121-0.133-0.159-0.061-0.038-0.141-0.054-0.237-0.054-0.041 0-0.068-0.004-0.081-0.017-0-0.004-0.001-0.004-0.002-0.004h-0.001c0-0.013 0.006-0.025 0.020-0.042 0.026-0.033 0.062-0.071 0.103-0.117 0.132-0.146 0.313-0.347 0.529-0.699l0.152-0.247c0.22-0.36 0.43-0.703 0.567-0.879 0.030-0.038 0.060-0.059 0.088-0.071 0.017-0.008 0.033-0.012 0.046-0.012 0.013 0.004 0.026 0.012 0.037 0.016 0.015 0.017 0.029 0.033 0.039 0.054 0.018 0.037 0.037 0.084 0.057 0.138 0.053 0.138 0.121 0.309 0.291 0.59 0.115 0.188 0.274 0.402 0.424 0.603 0.153 0.205 0.298 0.401 0.372 0.54 0.037 0.063 0.055 0.109 0.060 0.146h-0.171c-0.201 0-0.23 0.121-0.087 0.364 0.088 0.151 0.263 0.448 0.458 0.715 0.146 0.201 0.299 0.376 0.409 0.502h-0.022c-0.049 0.004-0.11 0.017-0.169 0.021l-0.129 0.021c-0.197 0.025-0.2 0.025-0.18 0.226 0 0.008 0.001 0.013 0.002 0.025 0.009 0.079 0.030 0.243 0.152 0.469 0.060 0.117 0.146 0.243 0.241 0.368s0.202 0.251 0.301 0.351c0.071 0.071 0.137 0.13 0.194 0.176 0.022 0.021 0.044 0.025 0.061 0.025-0.052 0.017-0.115 0.029-0.175 0.033-0.062 0.004-0.178 0.034-0.26 0.1-0.033 0.029-0.063 0.063-0.083 0.105-0.022 0.042-0.034 0.092-0.031 0.146 0.004 0.071 0.037 0.155 0.111 0.238 0.1 0.117 0.243 0.238 0.388 0.36 0.148 0.121 0.296 0.238 0.38 0.347l0.088 0.109c-0.046 0.033-0.174 0.042-0.338 0.038-0.087 0-0.148-0.025-0.182-0.042h-0.007c-0.18-0.080-0.261-0.029-0.245 0.146 0.002 0.013 0.003 0.033 0.008 0.054 0.004 0.025 0.012 0.059 0.025 0.084l0.002 0.004c-0.037 0.008-0.082 0.017-0.132 0.017-0.055 0.004-0.115 0-0.171-0.013-0.097-0.021-0.201-0.075-0.276-0.113-0.033-0.017-0.062-0.033-0.085-0.042-0.044-0.021-0.081-0.029-0.113-0.025-0.051 0-0.092 0.021-0.122 0.054s-0.040 0.075-0.036 0.121c0.003 0.033 0.016 0.063 0.034 0.096 0.004 0.004 0.008 0.013 0.011 0.017-0.029 0-0.062-0.008-0.095-0.013-0.053-0.013-0.109-0.029-0.159-0.054-0.051-0.021-0.101-0.054-0.145-0.088-0.047-0.038-0.085-0.071-0.11-0.096-0.106-0.096-0.175-0.109-0.25-0.038-0.003 0.004-0.007 0.004-0.011 0.008-0.062 0.067-0.047 0.109-0.025 0.18l0.006 0.021-0.008-0.004c-0.043-0.017-0.098-0.050-0.152-0.084-0.060-0.038-0.116-0.075-0.153-0.1-0.23-0.167-0.332-0.121-0.305 0.126 0.002 0.017 0.004 0.033 0.004 0.050-0.017 0.004-0.043 0.004-0.074 0.004-0.060-0.004-0.128-0.013-0.189-0.021l-0.064-0.013c-0.019-0.008-0.040-0.012-0.062-0.017-0.008-0.004-0.016 0-0.023 0l0-0.004zM0.846 15.822c0-0.302 0.251-0.549 0.558-0.549h29.011c0.307 0 0.558 0.247 0.558 0.549 0 8.478-6.756 15.374-15.063 15.374s-15.063-6.896-15.063-15.374zM5.683 16.371l1.25 0.653c0.982 0.505 1.618 1.592 1.629 2.8l0.033 1.010c0.039 1.669 1.484 2.828 2.901 2.317l0.881-0.318c1.166-0.412 2.399 0.286 2.784 1.565 0.279 0.933 0.050 1.9-0.519 2.548-0.273 0.291-0.614 0.522-1.004 0.642l-1.702 0.522c-0.787 0.247-1.596 0.374-2.404 0.401 1.914 1.010 4.084 1.587 6.382 1.587 1.512 0 2.968-0.253 4.335-0.708 0.346-0.385 0.731-0.719 1.149-0.994 1.339-0.89 1.266-3.075-0.123-3.849l-0.614-0.34c-0.77-0.434-1.194-1.373-1.054-2.317l0.106-0.725c0.156-1.137 1.099-1.944 2.131-1.823l3.515 0.412c0.681 0.077 1.305-0.242 1.713-0.769 0.296-0.401 0.469-0.906 0.458-1.466-0.017-0.417 0.084-0.807 0.257-1.148l-22.104 0z"></path>
</svg>
