<?xml version="1.0" encoding="utf-8"?>
<svg version="1.1" viewBox="0 0 1200 1200" xmlns="http://www.w3.org/2000/svg" width="150pt" height="150pt">
  <path d="M 135.947 272.023 C 135.947 272.023 108.498 327.496 125.709 337.093 C 142.953 346.69 166.275 291.316 166.275 291.316 C 166.275 291.316 168.865 318.122 140.553 340.772 C 112.241 363.423 163.459 432.136 195.642 441.547 C 195.642 441.547 183.966 400.31 209.782 374.685 C 209.782 374.685 198.841 410.259 207.51 414.61 C 216.179 418.961 224.273 397.079 250.282 393.528 C 250.282 393.528 211.478 427.63 215.06 441.195 C 218.644 454.759 254.794 466.819 268.934 476.609 C 283.074 486.398 297.182 434.221 290.975 425.935 C 290.975 425.935 308.987 443.786 288.065 485.182 C 281.411 498.331 290.624 510.103 300.926 518.357 C 302.685 518.805 304.284 519.285 305.692 519.797 C 306.907 514.486 310.938 506.872 323.671 502.137 C 344.848 494.236 358.701 458.502 333.012 422.738 C 316.057 399.129 318.169 397.466 318.169 397.466 C 318.169 397.466 332.436 414.133 334.996 409.174 C 337.555 404.215 311.259 361.412 311.259 361.412 C 311.259 361.412 338.291 378.367 346.961 415.956 C 355.629 453.546 370.314 450.699 355.629 488.578 C 355.629 488.578 396.034 489.155 406.496 441.392 C 406.496 441.392 409.502 442.895 409.694 448.557 L 409.694 448.878 C 409.759 447.631 410.558 431.475 404.224 423.317 C 404.224 423.317 436.631 453.07 402.529 485.86 C 371.018 516.155 347.249 493.314 330.869 522.361 C 337.747 518.011 351.151 512.924 372.938 517.69 C 372.938 517.69 360.845 542.26 346.705 549.906 C 346.705 549.906 343.442 540.308 335.123 538.741 C 335.123 538.741 344.881 543.412 342.609 554.544 L 342.322 559.79 L 372.713 587.207 C 372.713 587.207 381.191 593.413 373.993 600.899 C 373.993 600.899 374.408 609.504 365.644 613.886 C 356.877 618.269 356.174 622.94 347.28 622.524 C 338.387 622.109 338.227 617.277 325.239 617.725 C 312.25 618.142 301.789 616.734 301.789 616.734 C 301.789 616.734 273.125 617.725 265 609.825 C 256.906 601.89 241.455 604.737 243.534 578.536 C 243.534 578.536 235.953 597.092 257.29 608.8 C 265.991 613.567 261.961 618.685 296.095 622.524 C 296.095 622.524 279.62 642.006 279.907 672.239 C 280.195 702.47 261.257 730.462 255.594 737.787 C 255.594 737.787 278.084 720.673 283.299 673.103 C 284.801 659.41 289.664 660.114 289.664 660.114 C 289.664 660.114 311.003 658.962 333.332 687.819 C 333.332 687.819 327.03 675.95 322.872 673.486 C 322.872 673.486 350.927 674.446 370.345 670.672 C 389.764 666.896 430.425 670.48 454.16 693.833 C 477.898 717.187 491.846 721.986 491.846 721.986 C 491.846 721.986 510.848 740.348 488.647 804.388 C 477.194 837.434 486.024 873.549 486.024 873.549 C 486.024 873.549 489.895 899.879 504.995 904.389 C 504.995 904.389 508.513 905.221 507.682 920.224 C 507.193 928.961 508.232 955.496 509.192 976.071 C 571.736 972.796 628.57 965.494 667.51 950.607 C 727.173 927.828 733.419 879.85 617.105 783.67 C 591.218 762.229 575.773 740.967 568.833 720.285 C 564.503 707.34 563.443 694.866 565.183 682.898 C 544.323 675.485 530.503 662.758 530.503 648.403 C 530.503 625.589 565.293 607.003 607.923 607.003 C 611.972 607.003 615.95 607.184 619.819 607.511 C 629.979 600.385 641.261 593.698 653.447 587.477 C 707.356 560.034 780.251 541.34 848.554 534.434 C 851.554 514.657 885.543 497.735 933.959 489.418 C 943.431 505.436 952.616 520.84 960.787 535.373 C 968.126 548.355 981.545 556.202 996.435 556.202 C 1011.34 556.202 1024.71 548.355 1032.02 535.373 C 1040.52 520.297 1050.03 504.352 1059.86 487.719 C 1116.4 495.601 1156.33 514.837 1156.33 537.291 C 1156.33 566.832 1087.34 590.768 1002.34 590.768 C 952.147 590.768 907.562 582.451 879.47 569.545 C 808.418 573.231 727.719 591.745 670.445 620.923 C 669.577 621.392 668.71 621.827 667.844 622.296 C 678.725 629.42 685.307 638.531 685.307 648.439 C 685.307 671.255 650.526 689.839 607.931 689.839 C 606.016 689.839 604.134 689.804 602.255 689.73 C 601.568 695.841 602.182 702.061 604.314 708.461 C 609.051 722.561 620.767 738.037 641.015 754.778 C 794.726 881.936 775.156 949.625 680.788 985.638 C 614.474 1010.95 504.443 1016.01 398.464 1015.76 C 384.764 1027.51 360.394 1035.39 332.704 1035.39 C 300.801 1035.39 273.301 1024.98 261.489 1010.18 L 180.032 1010.18 L 181.151 996.624 L 173.794 987.281 L 189.629 992.938 L 197.53 1000.55 L 203.737 1001.67 L 203.737 996.01 L 210.519 983.598 L 210.519 992.938 L 218.517 1000.23 L 218.836 996.617 L 211.478 987.281 L 224.659 991.982 L 224.659 980.208 L 234.832 998.855 L 241.422 999.244 L 241.422 996.043 L 242.861 993.422 L 234.832 989.259 L 245.005 984.174 L 245.069 984.271 C 244.364 972.434 243.213 959.189 241.422 956.215 C 238.031 950.552 236.335 932.189 237.455 918.625 C 238.575 905.062 223.123 860.338 217.3 850.358 C 211.478 840.377 210.519 831.515 210.519 831.515 C 210.519 831.515 175.52 811.905 177.376 766.349 C 178.4 741.428 185.758 741.46 183.231 712.381 C 183.231 712.381 190.589 623.188 236.175 553.869 C 236.175 553.869 233.264 543.12 224.211 538.738 C 215.157 534.355 186.43 528.244 193.212 474.723 C 193.212 474.723 213.557 484.512 217.333 484.896 C 221.108 485.28 235.408 491.679 241.455 506.746 C 246.637 519.734 261.321 519.287 267.463 516.983 C 252.139 453.578 200.794 487.967 148.391 425.743 C 64.986 326.696 135.947 272.023 135.947 272.023 Z M 404.61 944.453 C 406.881 937.671 410.208 923.403 389.125 909.456 C 368.042 895.507 348.945 865.308 348.945 865.308 C 397.954 857.406 420.031 807.372 420.031 807.372 C 417.76 819.944 420.798 832.197 420.798 832.197 C 406.659 851.039 420.031 887.477 430.365 894.835 C 440.666 902.193 442.65 912.367 432.764 932.969 C 427.457 944.02 420.703 963.075 415.573 978.399 C 441.163 978.318 466.784 977.883 491.698 976.879 C 487.984 961.605 483.386 944.873 480.238 940.999 C 474.159 933.512 469.649 918.797 460.307 909.199 C 450.966 899.601 426.429 851.551 423.421 822.886 C 420.734 797.294 436.986 779.091 439.609 740 C 439.609 740 421.502 863.8 326.55 865.697 C 326.55 865.697 332.404 846.823 329.782 834.379 C 329.782 834.379 334.868 823.662 334.484 814.224 C 334.165 806.034 337.363 794.774 339.699 791.191 C 337.204 794.006 330.645 802.612 331.285 814.224 C 332.053 828.493 325.623 833.611 325.623 833.611 C 325.623 833.611 325.046 862.978 309.243 913.843 C 309.243 913.843 304.541 924.784 305.468 934.188 C 306.164 941.244 305.816 948.948 302.817 955.855 C 312.022 953.78 322.125 952.632 332.714 952.632 C 359.371 952.632 382.961 959.901 396.879 970.941 C 400.05 959.025 403.51 947.752 404.61 944.453 Z M 340.245 790.575 C 340.269 790.551 340.292 790.525 340.316 790.497 C 340.293 790.522 340.269 790.548 340.245 790.575 Z M 251.631 852.413 C 259.885 854.461 261.997 863.546 261.997 863.546 C 261.997 863.546 267.052 914.123 264.204 929.223 C 261.389 944.354 264.332 942.659 259.981 956.352 C 258.057 962.382 258.164 972.37 258.875 981.683 C 262.714 975.133 269.523 969.276 278.45 964.567 C 278.214 962.982 278.051 961.895 277.992 961.503 C 277.608 958.687 271.978 946.244 280.806 927.209 C 289.668 908.173 282.886 880.885 283.078 852.798 C 283.271 824.711 273.481 821.703 273.481 821.703 C 273.481 821.703 282.502 828.102 280.072 858.428 C 280.072 858.428 267.084 857.308 259.15 851.262 C 251.248 845.249 241.076 851.295 230.903 839.427 C 230.985 839.593 235.438 848.42 251.631 852.413 Z M 996.405 529.916 C 991.025 529.916 986.355 527.203 983.685 522.503 C 936.169 438.292 860.75 330.943 874.41 240.328 C 884.679 171.993 939.747 130.849 996.405 130.633 C 1053.04 130.849 1108.13 171.993 1118.4 240.328 C 1132.04 330.943 1056.58 438.292 1009.13 522.503 C 1006.47 527.203 1001.84 529.916 996.405 529.916 Z M 1057.15 260.969 C 1057.15 227.345 1029.96 200.155 996.405 200.155 C 962.855 200.155 935.663 227.345 935.663 260.969 C 935.663 294.598 962.855 321.717 996.405 321.717 C 1029.96 321.717 1057.15 294.527 1057.15 260.969 Z" style="stroke-width: 1;"/>
</svg>