<!-- Generated by IcoMoon.io -->
<svg version="1.1" xmlns="http://www.w3.org/2000/svg" width="32" height="32" viewBox="0 0 32 32">
<path d="M3.625 7.254c0 0-0.732 1.479-0.273 1.735s1.082-1.221 1.082-1.221 0.069 0.715-0.686 1.319c-0.755 0.604 0.611 2.436 1.469 2.687 0 0-0.311-1.1 0.377-1.783 0 0-0.292 0.949-0.061 1.065s0.447-0.467 1.141-0.562c0 0-1.035 0.909-0.939 1.271s1.060 0.683 1.437 0.944 0.753-1.13 0.588-1.351c0 0 0.48 0.476-0.078 1.58-0.177 0.351 0.068 0.665 0.343 0.885 0.047 0.012 0.090 0.025 0.127 0.038 0.032-0.142 0.14-0.345 0.479-0.471 0.565-0.211 0.934-1.164 0.249-2.117-0.452-0.63-0.396-0.674-0.396-0.674s0.38 0.444 0.449 0.312c0.068-0.132-0.633-1.274-0.633-1.274s0.721 0.452 0.952 1.454c0.231 1.002 0.623 0.926 0.231 1.937 0 0 1.077 0.015 1.356-1.258 0 0 0.080 0.040 0.085 0.191v0.009c0.002-0.033 0.023-0.464-0.146-0.682 0 0 0.864 0.793-0.045 1.668-0.84 0.808-1.474 0.199-1.911 0.973 0.183-0.116 0.541-0.252 1.122-0.125 0 0-0.322 0.655-0.7 0.859 0 0-0.087-0.256-0.309-0.298 0 0 0.26 0.125 0.2 0.421l-0.008 0.14 0.81 0.731c0 0 0.226 0.165 0.034 0.365 0 0 0.011 0.229-0.223 0.346s-0.253 0.241-0.49 0.23-0.241-0.14-0.588-0.128c-0.346 0.011-0.625-0.026-0.625-0.026s-0.764 0.026-0.981-0.184c-0.216-0.212-0.628-0.136-0.572-0.834 0 0-0.202 0.495 0.367 0.807 0.232 0.127 0.125 0.264 1.035 0.366 0 0-0.439 0.52-0.432 1.326s-0.497 1.553-0.648 1.748c0 0 0.6-0.456 0.739-1.725 0.040-0.365 0.17-0.346 0.17-0.346s0.569-0.031 1.164 0.739c0 0-0.168-0.317-0.279-0.382 0 0 0.748 0.026 1.266-0.075s1.602-0.005 2.235 0.618c0.633 0.623 1.005 0.751 1.005 0.751s0.507 0.49-0.085 2.197c-0.305 0.881-0.070 1.844-0.070 1.844s0.103 0.702 0.506 0.822c0 0 0.094 0.022 0.072 0.422-0.013 0.233 0.015 0.941 0.040 1.489 1.668-0.087 3.183-0.282 4.222-0.679 1.591-0.607 1.758-1.887-1.344-4.452-0.69-0.572-1.102-1.139-1.287-1.69-0.115-0.345-0.144-0.678-0.097-0.997-0.556-0.198-0.925-0.537-0.925-0.92 0-0.608 0.928-1.104 2.065-1.104 0.108 0 0.214 0.005 0.317 0.014 0.271-0.19 0.572-0.368 0.897-0.534 1.438-0.732 3.381-1.23 5.203-1.414 0.080-0.527 0.986-0.979 2.277-1.2 0.253 0.427 0.498 0.838 0.715 1.225 0.196 0.346 0.554 0.555 0.951 0.555s0.754-0.209 0.949-0.555c0.227-0.402 0.48-0.827 0.742-1.271 1.508 0.21 2.573 0.723 2.573 1.322 0 0.788-1.84 1.426-4.106 1.426-1.338 0-2.527-0.222-3.277-0.566-1.895 0.098-4.047 0.592-5.574 1.37-0.023 0.012-0.046 0.024-0.069 0.037 0.29 0.19 0.466 0.433 0.466 0.697 0 0.608-0.927 1.104-2.063 1.104-0.051 0-0.101-0.001-0.151-0.003-0.018 0.163-0.002 0.329 0.055 0.5 0.126 0.376 0.439 0.789 0.979 1.235 4.099 3.391 3.577 5.196 1.061 6.156-1.768 0.675-4.703 0.81-7.529 0.803-0.365 0.313-1.015 0.523-1.754 0.523-0.851 0-1.584-0.278-1.899-0.672h-2.172l0.030-0.361-0.196-0.249 0.422 0.151 0.211 0.203 0.166 0.030v-0.151l0.181-0.331v0.249l0.213 0.194 0.008-0.096-0.196-0.249 0.351 0.125v-0.314l0.271 0.497 0.176 0.010v-0.085l0.038-0.070-0.214-0.111 0.271-0.136 0.002 0.003c-0.019-0.316-0.050-0.669-0.097-0.748-0.090-0.151-0.136-0.641-0.106-1.002s-0.382-1.554-0.537-1.82c-0.155-0.266-0.181-0.502-0.181-0.502s-0.933-0.523-0.884-1.738c0.027-0.665 0.224-0.664 0.156-1.439 0 0 0.196-2.378 1.412-4.227 0 0-0.078-0.287-0.319-0.403s-1.008-0.28-0.827-1.707c0 0 0.543 0.261 0.643 0.271s0.482 0.181 0.643 0.583c0.138 0.346 0.53 0.334 0.694 0.273-0.409-1.691-1.778-0.774-3.175-2.433-2.224-2.641-0.332-4.099-0.332-4.099zM10.79 25.185c0.061-0.181 0.149-0.561-0.413-0.933s-1.071-1.177-1.071-1.177c1.307-0.211 1.896-1.545 1.896-1.545-0.061 0.335 0.020 0.662 0.020 0.662-0.377 0.502-0.020 1.474 0.255 1.67s0.328 0.468 0.064 1.017c-0.142 0.295-0.322 0.803-0.458 1.211 0.682-0.002 1.366-0.014 2.030-0.041-0.099-0.407-0.222-0.854-0.306-0.957-0.162-0.2-0.282-0.592-0.531-0.848s-0.903-1.537-0.984-2.302c-0.072-0.682 0.362-1.168 0.432-2.21 0 0-0.483 3.301-3.015 3.352 0 0 0.156-0.503 0.086-0.835 0 0 0.136-0.286 0.125-0.537-0.008-0.218 0.077-0.519 0.139-0.614-0.067 0.075-0.241 0.305-0.224 0.614 0.020 0.381-0.151 0.517-0.151 0.517s-0.015 0.783-0.437 2.14c0 0-0.125 0.292-0.101 0.543 0.019 0.188 0.009 0.394-0.071 0.578 0.245-0.055 0.515-0.086 0.797-0.086 0.711 0 1.34 0.194 1.711 0.488 0.085-0.318 0.177-0.618 0.206-0.706zM9.073 21.082c0.001-0.001 0.001-0.001 0.002-0.002-0.001 0.001-0.001 0.001-0.002 0.002zM6.71 22.731c0.22 0.055 0.276 0.297 0.276 0.297s0.135 1.349 0.059 1.751c-0.075 0.404 0.003 0.358-0.113 0.723-0.051 0.161-0.048 0.427-0.029 0.675 0.102-0.175 0.284-0.331 0.522-0.456-0.006-0.042-0.011-0.071-0.012-0.082-0.010-0.075-0.16-0.407 0.075-0.915s0.055-1.235 0.061-1.984-0.256-0.829-0.256-0.829c0 0 0.241 0.171 0.176 0.979 0 0-0.346-0.030-0.558-0.191s-0.482 0.001-0.753-0.316c0.002 0.004 0.121 0.24 0.553 0.346zM26.571 14.131c-0.143 0-0.268-0.072-0.339-0.198-1.267-2.246-3.278-5.108-2.914-7.525 0.274-1.822 1.742-2.919 3.253-2.925 1.51 0.006 2.979 1.103 3.253 2.925 0.364 2.416-1.649 5.279-2.914 7.525-0.071 0.125-0.194 0.198-0.339 0.198zM28.191 6.959c0-0.897-0.725-1.622-1.62-1.622s-1.62 0.725-1.62 1.622c0 0.897 0.725 1.62 1.62 1.62s1.62-0.725 1.62-1.62z"></path>
</svg>
