<?xml version="1.0" encoding="UTF-8" standalone="no"?>
<!DOCTYPE svg PUBLIC "-//W3C//DTD SVG 1.1//EN" "http://www.w3.org/Graphics/SVG/1.1/DTD/svg11.dtd">
<svg width="100%" height="100%" viewBox="0 0 150 150" version="1.1" xmlns="http://www.w3.org/2000/svg" xmlns:xlink="http://www.w3.org/1999/xlink" xml:space="preserve" xmlns:serif="http://www.serif.com/" style="fill-rule:evenodd;clip-rule:evenodd;stroke-linejoin:round;stroke-miterlimit:2;">
    <g transform="matrix(0.139143,0,0,0.15057,-8.34786,-13.3241)">
        <path d="M60,469.2L60,488.399C70.801,513.598 90,525.598 116.398,526.797C121.199,533.996 124.796,541.195 128.398,545.996C140.398,561.598 159.597,560.394 171.597,544.797C173.995,541.195 177.597,536.398 179.995,532.797C187.195,515.996 201.597,508.797 215.995,503.996C233.995,519.598 251.995,535.195 269.995,550.797C283.194,562.797 293.995,574.797 291.597,593.996C290.398,601.195 295.199,609.598 298.797,616.797C311.996,640.797 325.195,665.996 338.399,689.996C340.797,694.797 345.598,699.597 349.2,704.394C357.598,695.995 355.2,681.593 372.001,682.792C375.602,686.393 380.399,691.19 382.802,697.19C391.2,716.389 399.603,735.588 408.001,754.792C411.602,763.19 415.2,772.792 427.2,773.991C435.598,775.19 439.2,782.389 439.2,790.792L439.2,825.593C440.399,842.394 452.399,848.394 465.598,837.593C470.398,833.991 475.199,829.194 482.399,824.394C498.001,860.394 505.2,893.996 488.399,929.994C480,947.994 476.399,967.193 476.399,989.994C488.399,991.193 499.2,991.193 510.001,992.392C524.399,993.591 535.2,989.994 540.001,973.193C541.2,968.392 546.001,963.592 549.602,958.795C560.403,943.193 568.801,927.596 564,907.193C559.199,889.193 556.801,869.994 558,850.795C567.602,868.795 574.801,887.994 582,905.994C586.801,917.994 585.602,929.994 578.399,940.795C568.797,953.994 562.797,973.193 559.2,989.994C574.802,991.193 588.001,991.193 602.399,992.393C607.199,992.393 612,992.393 616.797,989.994C621.597,987.596 628.797,985.193 629.996,981.596C635.996,965.994 645.598,944.397 649.195,927.596C650.394,920.397 649.195,910.795 645.593,903.596C640.792,893.994 633.593,885.596 627.593,875.994C627.593,873.595 629.991,869.994 629.991,866.392C629.991,853.193 634.792,843.591 644.389,835.193C653.991,826.795 662.389,819.591 675.588,817.193C689.986,814.795 698.389,796.795 692.389,783.591C689.991,777.591 683.991,771.591 683.991,766.79C687.593,747.591 676.792,741.591 662.389,736.79C658.787,735.591 655.19,730.79 650.389,724.79C669.588,716.392 686.389,717.591 699.588,727.189C713.986,737.99 727.19,741.587 745.19,731.989C755.991,725.989 759.588,730.79 764.389,742.79C767.991,752.392 773.991,760.79 778.787,770.392C782.389,777.592 785.986,784.79 789.588,791.994C793.19,801.596 794.389,811.193 796.787,820.795C805.186,844.795 814.787,851.994 839.986,851.994C848.385,851.994 856.787,850.795 866.384,849.596C868.783,860.397 860.384,895.198 853.185,905.994C839.986,927.596 831.583,932.392 812.384,950.392C801.583,961.193 793.185,974.392 794.384,993.591C812.384,997.193 829.185,1000.79 845.986,987.591C853.185,982.79 859.185,974.392 866.384,971.989C893.986,963.591 904.782,962.387 903.583,933.591C903.583,925.193 908.384,919.193 920.384,915.591C920.384,922.79 926.384,934.79 926.384,940.79C923.986,953.989 913.185,965.989 910.782,979.188C908.384,988.79 910.782,992.387 922.782,995.989C926.384,997.188 935.981,995.989 939.583,995.989C963.583,992.387 961.185,991.188 981.583,970.79C985.185,967.188 983.982,961.188 985.185,956.392C995.986,929.994 999.583,919.193 998.384,891.591C997.185,871.193 1007.99,830.392 1017.58,813.591C1029.58,793.193 1027.18,772.79 1018.78,753.591C1013.98,742.79 1012.78,733.193 1012.78,723.591C1012.78,712.79 1015.18,698.392 1010.38,689.989C1000.78,674.387 1005.58,662.387 1012.78,649.188C1025.98,622.79 1036.78,596.387 1034.38,565.188C1033.18,555.586 1036.78,547.188 1037.99,536.387C1055.99,538.785 1065.59,547.188 1076.38,556.785C1087.18,566.387 1097.99,577.183 1109.99,584.387C1117.18,589.188 1126.79,595.188 1137.59,589.188C1139.99,563.989 1132.79,545.989 1108.79,536.387C1106.39,535.188 1103.99,533.988 1102.79,532.785C1093.18,524.387 1079.99,518.387 1072.79,507.586C1046.39,465.586 1021.19,422.387 985.185,387.586C969.583,371.984 951.583,357.586 929.986,352.785C908.384,349.184 886.787,347.984 863.986,346.785C813.588,345.586 761.986,346.785 711.586,346.785C675.586,345.586 643.188,335.984 615.586,311.984C598.785,297.586 579.586,285.586 556.785,284.382C506.387,281.984 455.985,280.781 404.385,278.382C389.987,278.382 375.584,277.183 359.987,277.183C341.987,277.183 323.987,275.984 307.186,277.183C284.385,278.382 261.584,281.984 238.788,283.183C221.987,283.183 206.39,285.581 191.987,293.984C184.787,283.183 178.788,273.586 169.186,260.382C164.385,274.78 161.986,283.183 158.385,292.78C155.986,280.78 157.185,269.979 158.385,257.979C159.584,247.178 170.385,239.979 169.186,224.377C160.787,233.979 155.987,239.979 149.987,245.979C148.787,245.979 147.588,244.78 147.588,244.78C152.389,231.581 157.19,217.178 160.787,203.979C154.787,211.178 146.389,217.178 142.787,225.581C134.389,242.382 130.787,260.382 130.787,279.581C130.787,310.78 123.588,340.78 117.588,370.78C110.389,406.78 85.19,434.382 67.19,464.382C68.393,466.796 63.596,467.995 59.995,469.194L60,469.2Z" style="fill-rule:nonzero;"/>
    </g>
</svg>
