<?xml version="1.0" encoding="UTF-8"?>
<svg version="1.1" viewBox="0 0 1200 1200" xmlns="http://www.w3.org/2000/svg" width="150pt" height="150pt">
 <path d="m60 469.2v19.199c10.801 25.199 30 37.199 56.398 38.398 4.8008 7.1992 8.3984 14.398 12 19.199 12 15.602 31.199 14.398 43.199-1.1992 2.3984-3.6016 6-8.3984 8.3984-12 7.1992-16.801 21.602-24 36-28.801 18 15.602 36 31.199 54 46.801 13.199 12 24 24 21.602 43.199-1.1992 7.1992 3.6016 15.602 7.1992 22.801 13.199 24 26.398 49.199 39.602 73.199 2.3984 4.8008 7.1992 9.6016 10.801 14.398 8.3984-8.3984 6-22.801 22.801-21.602 3.6016 3.6016 8.3984 8.3984 10.801 14.398 8.3984 19.199 16.801 38.398 25.199 57.602 3.6016 8.3984 7.1992 18 19.199 19.199 8.3984 1.1992 12 8.3984 12 16.801v34.801c1.1992 16.801 13.199 22.801 26.398 12 4.8008-3.6016 9.6016-8.3984 16.801-13.199 15.602 36 22.801 69.602 6 105.6-8.3984 18-12 37.199-12 60 12 1.1992 22.801 1.1992 33.602 2.3984 14.398 1.1992 25.199-2.3984 30-19.199 1.1992-4.8008 6-9.6016 9.6016-14.398 10.801-15.602 19.199-31.199 14.398-51.602-4.8008-18-7.1992-37.199-6-56.398 9.6016 18 16.801 37.199 24 55.199 4.8008 12 3.6016 24-3.6016 34.801-9.6016 13.199-15.602 32.398-19.199 49.199 15.602 1.1992 28.801 1.1992 43.199 2.3984 4.8008 0 9.6016 0 14.398-2.3984 4.8008-2.3984 12-4.8008 13.199-8.3984 6-15.602 15.602-37.199 19.199-54 1.1992-7.1992 0-16.801-3.6016-24-4.8008-9.6016-12-18-18-27.602 0-2.3984 2.3984-6 2.3984-9.6016 0-13.199 4.8008-22.801 14.398-31.199 9.6016-8.3984 18-15.602 31.199-18 14.398-2.3984 22.801-20.398 16.801-33.602-2.3984-6-8.3984-12-8.3984-16.801 3.6016-19.199-7.1992-25.199-21.602-30-3.6016-1.1992-7.1992-6-12-12 19.199-8.3984 36-7.1992 49.199 2.3984 14.398 10.801 27.602 14.398 45.602 4.8008 10.801-6 14.398-1.1992 19.199 10.801 3.6016 9.6016 9.6016 18 14.398 27.602 3.6016 7.1992 7.1992 14.398 10.801 21.602 3.6016 9.6016 4.8008 19.199 7.1992 28.801 8.3984 24 18 31.199 43.199 31.199 8.3984 0 16.801-1.1992 26.398-2.3984 2.3984 10.801-6 45.602-13.199 56.398-13.199 21.602-21.602 26.398-40.801 44.398-10.801 10.801-19.199 24-18 43.199 18 3.6016 34.801 7.1992 51.602-6 7.1992-4.8008 13.199-13.199 20.398-15.602 27.602-8.3984 38.398-9.6016 37.199-38.398 0-8.3984 4.8008-14.398 16.801-18 0 7.1992 6 19.199 6 25.199-2.3984 13.199-13.199 25.199-15.602 38.398-2.3984 9.6016 0 13.199 12 16.801 3.6016 1.1992 13.199 0 16.801 0 24-3.6016 21.602-4.8008 42-25.199 3.6016-3.6016 2.3984-9.6016 3.6016-14.398 10.801-26.398 14.398-37.199 13.199-64.801-1.1992-20.398 9.6016-61.199 19.199-78 12-20.398 9.6016-40.801 1.1992-60-4.8008-10.801-6-20.398-6-30 0-10.801 2.3984-25.199-2.3984-33.602-9.6016-15.602-4.8008-27.602 2.3984-40.801 13.199-26.398 24-52.801 21.602-84-1.1992-9.6016 2.3984-18 3.6016-28.801 18 2.3984 27.602 10.801 38.398 20.398 10.801 9.6016 21.602 20.398 33.602 27.602 7.1992 4.8008 16.801 10.801 27.602 4.8008 2.3984-25.199-4.8008-43.199-28.801-52.801-2.3984-1.1992-4.8008-2.3984-6-3.6016-9.6016-8.3984-22.801-14.398-30-25.199-26.398-42-51.602-85.199-87.602-120-15.602-15.602-33.602-30-55.199-34.801-21.602-3.6016-43.199-4.8008-66-6-50.398-1.1992-102 0-152.4 0-36-1.1992-68.398-10.801-96-34.801-16.801-14.398-36-26.398-58.801-27.602-50.398-2.3984-100.8-3.6016-152.4-6-14.398 0-28.801-1.1992-44.398-1.1992-18 0-36-1.1992-52.801 0-22.801 1.1992-45.602 4.8008-68.398 6-16.801 0-32.398 2.3984-46.801 10.801-7.1992-10.801-13.199-20.398-22.801-33.602-4.8008 14.398-7.1992 22.801-10.801 32.398-2.3984-12-1.1992-22.801 0-34.801 1.1992-10.801 12-18 10.801-33.602-8.3984 9.6016-13.199 15.602-19.199 21.602-1.1992 0-2.3984-1.1992-2.3984-1.1992 4.8008-13.199 9.6016-27.602 13.199-40.801-6 7.1992-14.398 13.199-18 21.602-8.3984 16.801-12 34.801-12 54 0 31.199-7.1992 61.199-13.199 91.199-7.1992 36-32.398 63.602-50.398 93.602 1.2031 2.4141-3.5938 3.6133-7.1953 4.8125z"/>
</svg>
