<!-- Generated by IcoMoon.io -->
<svg version="1.1" xmlns="http://www.w3.org/2000/svg" width="32" height="32" viewBox="0 0 32 32">
<path d="M0 12.229v0.617c0.321 0.809 0.89 1.195 1.674 1.233 0.143 0.231 0.249 0.463 0.356 0.617 0.356 0.501 0.926 0.463 1.282-0.039 0.071-0.116 0.178-0.27 0.249-0.385 0.214-0.54 0.641-0.771 1.069-0.925 0.534 0.501 1.069 1.002 1.603 1.503 0.392 0.385 0.712 0.771 0.641 1.388-0.036 0.231 0.107 0.501 0.214 0.732 0.392 0.771 0.784 1.58 1.176 2.351 0.071 0.154 0.214 0.308 0.321 0.462 0.249-0.27 0.178-0.732 0.677-0.694 0.107 0.116 0.249 0.27 0.321 0.462 0.249 0.617 0.499 1.233 0.748 1.85 0.107 0.27 0.214 0.578 0.57 0.617 0.249 0.038 0.356 0.27 0.356 0.54v1.118c0.036 0.54 0.392 0.732 0.784 0.385 0.142-0.116 0.285-0.27 0.499-0.424 0.463 1.156 0.677 2.236 0.178 3.392-0.249 0.578-0.356 1.195-0.356 1.927 0.356 0.038 0.677 0.038 0.997 0.077 0.427 0.038 0.748-0.077 0.89-0.617 0.036-0.154 0.178-0.308 0.285-0.462 0.321-0.501 0.57-1.002 0.427-1.658-0.143-0.578-0.214-1.195-0.178-1.812 0.285 0.578 0.499 1.195 0.712 1.773 0.143 0.385 0.107 0.771-0.107 1.118-0.285 0.424-0.463 1.041-0.57 1.58 0.463 0.038 0.855 0.038 1.282 0.077 0.142 0 0.285 0 0.427-0.077s0.356-0.154 0.392-0.27c0.178-0.501 0.463-1.195 0.57-1.735 0.036-0.231 0-0.54-0.107-0.771-0.142-0.308-0.356-0.578-0.534-0.887 0-0.077 0.071-0.193 0.071-0.308 0-0.424 0.142-0.732 0.427-1.002s0.534-0.501 0.926-0.578c0.427-0.077 0.677-0.655 0.499-1.079-0.071-0.193-0.249-0.385-0.249-0.54 0.107-0.617-0.214-0.809-0.641-0.964-0.107-0.038-0.214-0.193-0.356-0.385 0.57-0.27 1.069-0.231 1.46 0.077 0.427 0.347 0.819 0.462 1.354 0.154 0.321-0.193 0.427-0.038 0.57 0.347 0.107 0.308 0.285 0.578 0.427 0.887 0.107 0.231 0.214 0.462 0.321 0.694 0.107 0.308 0.142 0.617 0.214 0.925 0.249 0.771 0.534 1.002 1.282 1.002 0.249 0 0.499-0.038 0.784-0.077 0.071 0.347-0.178 1.465-0.392 1.812-0.392 0.694-0.641 0.848-1.211 1.426-0.321 0.347-0.57 0.771-0.534 1.388 0.534 0.116 1.033 0.231 1.532-0.193 0.214-0.154 0.392-0.424 0.605-0.501 0.819-0.27 1.14-0.308 1.104-1.233 0-0.27 0.142-0.462 0.499-0.578 0 0.231 0.178 0.617 0.178 0.809-0.071 0.424-0.392 0.809-0.463 1.233-0.071 0.308 0 0.424 0.356 0.54 0.107 0.038 0.392 0 0.499 0 0.712-0.116 0.641-0.154 1.247-0.809 0.107-0.116 0.071-0.308 0.107-0.462 0.321-0.848 0.427-1.195 0.392-2.082-0.036-0.655 0.285-1.966 0.57-2.506 0.356-0.655 0.285-1.311 0.036-1.927-0.142-0.347-0.178-0.655-0.178-0.964 0-0.347 0.071-0.809-0.071-1.079-0.285-0.501-0.142-0.887 0.071-1.311 0.392-0.848 0.712-1.696 0.641-2.698-0.036-0.308 0.071-0.578 0.107-0.925 0.534 0.077 0.819 0.347 1.14 0.655s0.641 0.655 0.998 0.887c0.213 0.154 0.499 0.347 0.819 0.154 0.071-0.809-0.142-1.388-0.855-1.696-0.071-0.039-0.142-0.077-0.178-0.116-0.285-0.27-0.677-0.463-0.89-0.809-0.784-1.349-1.532-2.737-2.6-3.855-0.463-0.501-0.997-0.964-1.639-1.118-0.641-0.116-1.282-0.154-1.959-0.193-1.496-0.039-3.028 0-4.524 0-1.069-0.039-2.030-0.347-2.85-1.118-0.499-0.463-1.069-0.848-1.745-0.887-1.496-0.077-2.992-0.116-4.524-0.193-0.427 0-0.855-0.038-1.318-0.038-0.534 0-1.069-0.038-1.567 0-0.677 0.038-1.354 0.154-2.030 0.193-0.499 0-0.962 0.077-1.389 0.347-0.214-0.347-0.392-0.655-0.677-1.079-0.143 0.463-0.214 0.732-0.321 1.041-0.071-0.385-0.036-0.732 0-1.118 0.036-0.347 0.356-0.578 0.321-1.079-0.249 0.308-0.392 0.501-0.57 0.694-0.036 0-0.071-0.038-0.071-0.038 0.143-0.424 0.285-0.887 0.392-1.311-0.178 0.231-0.427 0.424-0.534 0.694-0.249 0.54-0.356 1.118-0.356 1.735 0 1.002-0.214 1.966-0.392 2.929-0.214 1.156-0.962 2.043-1.496 3.007 0.036 0.078-0.107 0.116-0.214 0.155l0 0z"></path>
</svg>
