<!-- Generated by IcoMoon.io -->
<svg version="1.1" xmlns="http://www.w3.org/2000/svg" width="32" height="32" viewBox="0 0 32 32">
<path d="M30.223 7.482c0 0 0.058-0.358-0.29-0.716-0.347-0.358-0.907-0.143-0.907-0.143-3.819-1.719-5.305 0.525-5.305 0.525-0.173-0.382-0.772-0.597-0.772-0.597 0-1.48 0.502-2.339 0.502-2.339l1.601 0.645 0.053 1.060 0.432-0.112 0.010-0.387 0.514 0.124h0.72l-0.309-0.76c0.257-0.446 2.006-0.030 2.006-0.030s-1.851-0.811-1.8-1.32c0.051-0.509 0.771-0.883 0.771-0.883-0.411-0.255-2.263 0.322-2.263 0.322s-1.081-0.762-2.341-0.539c-1.050 0.186-1.26 3.788-1.26 3.788s-2.058-1.718-7.305-1.336c-5.247 0.382-8.488 3.884-8.488 3.884s-0.206-0.127 0.051-0.637c0.257-0.509 1.286-0.764 1.286-0.764l0.695-0.509c0 0-0.746-0.064-0.797-0.382s0.566-0.764 1.132-1.082c0.566-0.318 0.412-0.7 0.412-0.7s-1.749 0.891-1.955 0.446c-0.206-0.446 0.412-1.337 0.617-1.846s-0.103-1.082-0.103-1.082c-0.412 1.336-1.749 2.164-1.749 2.164l-0.307-1.203c0.013 0.060 0.077 0.571-0.979 2.413-1.132 1.973-0.206 2.801-0.206 2.801l-0.515 2.896c0 0-2.88 2.96-3.292 6.907s0.617 7.703 4.115 10.694c3.498 2.992 7.87 0.891 9.259 0s2.428-1.307 2.058-2.164c-0.2-0.461-1.614 0.318-1.614 0.318s-4.899 2.34-7.89 0.406c-2.99-1.933-3.395-5.944-3.356-7.472s1.601-3.629 3.588-3.342c1.987 0.287 2.199 1.838 3.395 2.936s4.475 0.836 4.475 0.621-0.598-0.502-0.579-0.693c0.019-0.191 0.193-0.286 0.675-0.382s0.405-0.573 0.405-0.573-1.177-0.191-1.254-0.502c-0.077-0.311 0.135-0.596 0.482-1.026s0.059-0.689 0.059-0.689-0.791 0.593-0.984 0.689c-0.193 0.096 0.020-0.406 0.212-0.86s-0.058-0.788-0.058-0.788c-0.463 1.074-1.119 1.576-1.119 1.576-0.077-0.454-0.367-0.382-0.367-0.382-0.077 0.693-0.347 1.098-0.347 1.098-1.003-0.549-2.469-2.34-2.469-2.34 4.996-2.292 10.648-2.363 10.648-2.363-0.116 0.215-1.022 1.409-1.582 1.671s-0.83 2.101 0.058 2.22c0.887 0.12 3.106-3.175 3.106-3.175 1.196-0.334 3.164-0.047 3.164-0.047 0.232 0.406 1.563 0.716 2.219 0.74s1.37-0.477 1.37-0.477c0.579 0.907 2.084-0.43 2.084-0.43s2.103-1.385 2.161-3.056c0.057-1.672-1.775-2.817-1.775-2.817v0.001zM24.159 3.353c0.463-0.414 1.003 0.318 1.106 0.88s0.18 0.742 0.411 0.615c0.232-0.127 0.54-0.147 0.54-0.147s0.154 0.402 0.103 0.581c-0.051 0.179-0.283-0.020-0.438 0s-0.514-0.020-0.566 0.17c-0.051 0.191-0.103-0.796-0.103-0.796l-1.492-0.732c-0.154-0.255-0.026-0.159 0.438-0.573v0zM12.277 16.976c0.206-0.191 0.505-1.139 0.437-0.637s0 0.923 0.226 0.917c0.226-0.006 0.057 0.452-0.123 0.673s-0.026 0.351 0.29 0.415c0.316 0.064 0.353 0.382 0.224 0.668s-0.18 0.446-0.224 0.796c-0.044 0.35-0.238 0.096-0.453 0s-0.223-0.223-0.068-0.566c0.154-0.343 0-0.656 0-0.656-0.232 0.082-0.437-0.624-0.54-0.91s0.026-0.509 0.232-0.7v0zM11.428 17.929c0.232-0.095 0.257 0.51-0.18 0.383s-0.566-0.796-0.566-0.796c0-0 0.514 0.508 0.746 0.413v0zM4.774 9.018c0.11-0.159 0.198-0.35 0.044-0.541s0.128-0.509 0.36-0.764 0.283-0.286 0.437-0.159c0.154 0.127 0.283-0.286 0.448-0.505s-0.114-0.514-0.114-0.717 0.051-0.593-0.195-0.855c-0.246-0.262-0.5-0.311-0.526-0.661s0.36-0.446 0.621-0.584 0.33 0.966 0.433 1.050c0.103 0.084 0.206 0.138 0.257 0.499s0.18 0.55 0.18 0.55 0.283 0.68 0.103 0.674c-0.18-0.006-0.772 0.452-1.069 0.675s-0.294 1.178-0.294 1.178c-0.334 0.191-0.643 1.019-0.643 1.019-0.086 0.206-0.154-0.701-0.044-0.86l0 0zM3.089 24.2c0.263 0.477 1.42 1.846 1.446 2.26s-0.437 0.636-0.566 0c-0.129-0.637-0.129-1.146-0.54-1.019s-0.591-0.549-0.746-0.911c-0.154-0.362-0.386-0.298-0.36-0.426s-0.18-0.127-0.103-0.477c0.067-0.307-0.18-0.414-0.386-0.35s-0.309-0.382 0-0.701 0.617-0.572 0.669-0.159c0.051 0.414 0.323 1.305 0.586 1.782v0zM2.503 18.726c-0.154 0.191 0.334 0.573-0.412 0.509 0 0-0.669-0.096-0.669-0.541s0.566-0.287 0.669-0.573c0.103-0.287 0.694-0.223 0.694 0s-0.128 0.414-0.283 0.605v0zM5.255 15.989c-0.283 0.158-0.406 0.604-0.833 0.635s-0.427 0.828-1.070 0.446c0 0-0.592-0.318 0-0.732s0.823-0.445 1.080-0.891c0.257-0.446 0.669-0.796 1.132-0.255s-0.026 0.638-0.309 0.797l0-0zM4.149 11.882c-0.335 0.287-1.44 1.528-1.775 1.901s-0.463 0.995-0.695 1.134c-0.231 0.139-0.219-0.312-0.129-0.68 0.066-0.27 0.463-0.827 0.553-1.050s0.347-0.509 0.784-0.796c0.437-0.287 1.132-1.082 1.337-1.369s0.72-0.446 1.106-0.764c0.386-0.318 0.746-0.891 1.132-0.987s0.72-0.637 0.827-0.764c0.106-0.127 0.562 0 0.742-0.382s0.797-0.446 1.271-0.509c0.474-0.064 0.478-0.541 1.017-0.605s0.926-0.223 1.569-0.55c0.643-0.327-0.051 0.072 0.643 0.009s0.695 0.223 0.335 0.668-1.158 0.318-1.415 0.318c-0.257 0-0.797 0.286-1.235 0.35s-0.823 0.477-1.158 0.795c-0.334 0.319-1.646 0.86-2.418 1.242s-2.16 1.75-2.494 2.037v0zM9.602 16.847c-0.051 0.605-0.54 0.688-0.669 0.408s-0.146-0.886-0.51-0.917c-0.364-0.032-0.675-0.73-1.124-0.349 0 0-0.217-0.542 0.194-0.511s0.926 0.286 1.132 0.255c0.205-0.032 1.029 0.509 0.977 1.114l-0 0zM8.779 13.458c-0.72-0.239-0.669 0.158-0.72 0.326s-0.489 0.581-0.669 0.454c-0.18-0.127-0.337-0.185-0.437 0-0.205 0.379-0.797 0.827-0.874 0.255s0.154-0.827 0.437-1.019c0.283-0.191 0.129-0.637 0.823-0.573s0.617-0.223 0.849-0.478c0.231-0.255 0.823-0.478 0.977 0s0.334 1.274-0.386 1.035v0zM19.906 14.428c-0.247 0.159-0.093-0.286-0.453-0.191s-0.712-0.2-0.489-0.454l0.746-0.851c0 0 0.514-0.294 1.054 0.521-0 0-0.612 0.816-0.859 0.975v-0zM22.333 11.469c-0.283 0.446-0.746-0.096-1.056-0.064s-0.822 0.255-0.976 0.159c-0.154-0.095-1.080-0.318-1.286-0.356s-0.617 0.483-0.948 0.197c-0.331-0.286-0.904 0.032-1.11 0.096s-0.823-0.159-0.958-0.127c-0.135 0.032-0.379 0.318-0.791 0.382s-0.412-0.414-0.695-0.318c-0.283 0.096-0.514 0.223-0.797 0.096s-0.283 0-0.61 0.127c-0.328 0.127-0.65 0.255-0.984 0.24s-0.463 0.269-0.643 0.243c-0.18-0.026-0.926 0.344-1.235 0.44s-0.077-0.668 0-1.082c0.077-0.414 1.040 0.079 1.466-0.223 0.54-0.382 1.389-0.127 1.903-0.446s0.951-0.255 1.595-0.194c0.643 0.060 0.669 0.13 1.082-0.315s1.156 0.255 1.504 0.19c0.348-0.065 0.732 0.351 1.1 0.125s1.099-0.124 1.51 0.13c0.412 0.255 0.951 0.064 1.544-0.13s0.668 0.385 0.386 0.83h0zM22.719 7.649c-0.052 0.286-0.438 0.764-0.874 0.509s-0.772-0.796-1.26-0.541c-0.488 0.255-0.849-0.509-1.26-0.446s-1.518-0.203-1.749-0.165c-0.231 0.038-0.9 0.165-1.158-0.058-0.316-0.274-0.334 0.255-0.72 0.286s-0.926-0.223-0.926-0.573c0-0.35-0.026-1.082 0.514-0.828 0.54 0.255 0.514 0.318 0.823 0.287s0.72-0.223 1.183-0.127c0.463 0.096 0.47 0.287 0.775 0.159s0.717-0.127 0.974 0c0.257 0.127 0.496 0.459 0.788 0.357s0.704 0.184 0.935 0.216c0.231 0.032 0.72 0.159 1.055 0.223 0.334 0.064 0.951 0.415 0.9 0.701l0 0zM22.722 6.332c0 0-0.672-0.529-0.903-0.37 0 0 0.051-1.337 0.335-1.655s0.342 0.478 0.338 0.668c-0.004 0.191 0.123 0.388 0.356 0.35l-0.125 1.006zM29.663 7.006c0.309 0.153-0.026 0.452 0.257 0.581s0.309 0.157 0.437 0.643c0.129 0.486-0.334 0.405-0.643 0.5s-0.695-0.127-0.669-0.5c0.026-0.373-0.412-0.295-0.663-0.486s0-0.541 0-0.541c0.519-0.605 0.972-0.35 1.28-0.197v0zM23.66 7.776c0.092-0.318 0.551-0.159 0.577-0.382s0.091-0.821 1.781-1.062c1.689-0.241 2.437 0.426 2.36 0.49s-0.283-0.127-0.386 0c-0.103 0.127-0.231 0.286-0.463 0.243s-0.283 0.044-0.335 0.235c-0.051 0.191-0.206 0.286-0.514 0.191s-0.566 0.095-0.695 0.286c-0.129 0.191-0.232 0.7-0.772 0.559s-0.335 0.014-0.54 0.332c-0.206 0.318-0.617 0.286-0.617 0s-0.426-0.789-0.396-0.891h0zM31.258 10.674c-0.045 0.355-0.318 0.422-0.343 0.422h0.008c0.077 0 0 0.473-0.154 0.505-0.154 0.031-0.412 0.045-0.437 0.427s-0.154 0.373-0.309 0.572c-0.154 0.199-0.36-0.108-0.566 0.416s-0.849-0.050-0.977-0.133c-0.129-0.083-0.18 0.21-0.488 0.305s-0.386-0.637-0.591 0.142c-0.206 0.779-1.337 0.526-1.467 0.454-0.128-0.072-0.025-0.564-0.205-0.329s-0.746 0.242-1.003 0.218c-0.257-0.024-0.566-0.517-0.72-0.791s-0.1-0.951-0.345-0.738c-0.191 0.165-0.453 0.249-0.71 0s0.232-0.865 0.708-1.088c0.477-0.223 0.501 0.096 0.681 0.328s0.617 0.277 1.003-0.168c0.386-0.445 0.335-0.478 0.678-0.478s0.145 0.796 0 1.146c-0.145 0.35-0.344 0.541-0.267 0.999s0.437-0.044 0.9-0.29c0.463-0.247 1.131 0.055 1.389 0s0.515-0.581 0.772-0.854c0.258-0.272 0.566-0.396 1.183-0.523s0.129-0.668 0.283-1.306c0.154-0.638 0.591-0.108 0.745 0.018 0.156 0.126 0.284 0.338 0.233 0.748v-0zM20.347 14.786c0 0-0.811 1.146-1.814 1.982 0 0 0.598-0.119 0.81 0.191s0.598 0.382 0.714 0.191c0 0-0.598-1.098-0.521-1.218s0.695-0.644 1.158-0.692c0.463-0.048 0.617-0.31 0.579-0.454s-0.926 0-0.926 0v-0zM17.935 13.33c0 0-0.174 0.62-0.135 0.907l0.54-0.454c0-0-0.154-0.477-0.405-0.453v-0z"></path>
</svg>
