<?xml version="1.0" encoding="UTF-8" standalone="no"?>
<!DOCTYPE svg PUBLIC "-//W3C//DTD SVG 1.1//EN" "http://www.w3.org/Graphics/SVG/1.1/DTD/svg11.dtd">
<svg width="100%" height="100%" viewBox="0 0 150 150" version="1.1" xmlns="http://www.w3.org/2000/svg" xmlns:xlink="http://www.w3.org/1999/xlink" xml:space="preserve" xmlns:serif="http://www.serif.com/" style="fill-rule:evenodd;clip-rule:evenodd;stroke-linejoin:round;stroke-miterlimit:2;">
    <g transform="matrix(0.134858,0,0,0.166887,-5.75524,-24.0872)">
        <path d="M1093.2,354.5C1093.2,354.5 1095.22,344.445 1083.13,334.387C1071.08,324.332 1051.62,330.368 1051.62,330.368C918.862,282.091 867.242,345.114 867.242,345.114C861.219,334.387 840.422,328.347 840.422,328.347C840.422,286.781 857.86,262.636 857.86,262.636L913.516,280.745L915.364,310.53L930.364,307.374L930.723,296.515L948.602,299.996L973.633,299.996L962.895,278.637C971.836,266.121 1032.62,277.785 1032.62,277.785C1032.62,277.785 968.27,255.019 970.059,240.719C971.836,226.414 996.868,215.926 996.868,215.926C982.575,208.774 918.196,224.973 918.196,224.973C918.196,224.973 880.637,203.578 836.837,209.828C800.357,215.047 793.048,316.238 793.048,316.238C793.048,316.238 721.517,267.972 539.138,278.703C356.758,289.43 244.118,387.783 244.118,387.783C244.118,387.783 236.966,384.209 245.907,369.904C254.849,355.599 290.606,348.447 290.606,348.447L314.751,334.142C314.751,334.142 288.817,332.353 287.032,323.415C285.243,314.474 306.7,301.958 326.368,293.02C346.036,284.079 340.673,273.352 340.673,273.352C340.673,273.352 279.88,298.383 272.728,285.868C265.564,273.352 287.033,248.321 294.185,234.016C301.337,219.711 290.611,203.621 290.611,203.621C276.306,241.156 229.818,264.402 229.818,264.402L219.138,230.621C219.607,232.301 221.825,246.652 185.118,298.387C145.782,353.817 177.966,377.059 177.966,377.059L160.075,458.407C160.075,458.407 59.955,541.555 45.645,652.407C31.34,763.267 67.102,868.767 188.685,952.787C310.255,1036.83 462.245,977.818 510.525,952.787C558.802,927.767 594.908,916.068 582.045,892.006C575.107,879.045 525.943,900.936 525.943,900.936C525.943,900.936 355.643,966.659 251.713,912.334C147.783,858.033 133.703,745.384 135.053,702.474C136.396,659.564 190.709,600.544 259.763,608.599C328.822,616.65 336.204,660.236 377.773,691.076C419.339,721.928 533.323,714.549 533.323,708.514C533.323,702.479 512.538,694.424 513.21,689.061C513.882,683.709 519.917,681.022 536.683,678.334C553.437,675.646 550.757,662.24 550.757,662.24C550.757,662.24 509.851,656.877 507.171,648.15C504.483,639.427 511.862,631.396 523.925,619.326C535.984,607.256 525.964,599.982 525.964,599.982C525.964,599.982 498.472,616.65 491.765,619.337C485.058,622.024 492.448,607.939 499.144,595.192C505.851,582.45 497.14,573.063 497.14,573.063C481.046,603.231 458.249,617.321 458.249,617.321C455.561,604.579 445.507,606.594 445.507,606.594C442.819,626.047 433.437,637.446 433.437,637.446C398.578,622.024 347.613,571.723 347.613,571.723C521.273,507.356 717.733,505.34 717.733,505.34C713.713,511.375 682.202,544.902 662.76,552.285C643.307,559.652 633.924,611.289 664.764,614.637C695.604,617.996 772.714,525.453 772.714,525.453C814.292,516.07 882.674,524.121 882.674,524.121C890.724,535.519 936.986,544.234 959.787,544.906C982.588,545.578 1007.39,531.504 1007.39,531.504C1027.51,556.981 1079.81,519.434 1079.81,519.434C1079.81,519.434 1152.91,480.543 1154.91,433.61C1156.9,386.657 1093.2,354.485 1093.2,354.485L1093.2,354.5ZM882.43,238.5C898.524,226.871 917.301,247.441 920.879,263.23C924.453,279.023 927.133,284.085 935.172,280.511C943.223,276.949 953.942,276.394 953.942,276.394C953.942,276.394 959.305,287.675 957.532,292.726C955.755,297.765 947.692,292.152 942.317,292.726C936.965,293.3 924.45,292.152 922.649,297.503C920.872,302.866 919.075,275.148 919.075,275.148L867.223,254.593C861.859,247.441 866.336,250.117 882.43,238.499L882.43,238.5ZM469.41,621.14C476.562,615.777 486.953,589.16 484.601,603.249C482.249,617.351 484.601,629.183 492.46,629.015C500.32,628.835 494.441,641.699 488.175,647.925C481.91,654.152 487.277,657.788 498.241,659.577C509.21,661.366 510.518,670.315 506.042,678.347C501.565,686.374 499.788,690.863 498.241,700.691C496.694,710.531 489.96,703.379 482.499,700.691C475.046,698.004 474.761,694.437 480.124,684.804C485.488,675.167 480.124,666.37 480.124,666.37C472.073,668.686 464.921,648.85 461.343,640.8C457.781,632.741 462.246,626.491 469.41,621.14L469.41,621.14ZM439.902,647.925C447.953,645.261 448.843,662.253 433.648,658.679C418.457,655.089 413.98,636.335 413.98,636.335C413.98,636.331 431.859,650.601 439.902,647.925L439.902,647.925ZM208.612,397.625C212.452,393.148 215.499,387.785 210.147,382.422C204.784,377.059 214.612,368.117 222.651,360.965C230.69,353.813 232.479,352.926 237.842,356.488C243.206,360.063 247.682,348.449 253.416,342.316C259.151,336.184 249.467,327.878 249.467,322.179C249.467,316.48 251.256,305.523 242.698,298.167C234.143,290.812 225.335,289.433 224.432,279.605C223.533,269.777 236.948,267.089 246.034,263.214C255.119,259.339 257.518,290.335 261.081,292.71C264.655,295.074 268.233,296.597 270.022,306.737C271.811,316.878 276.288,322.194 276.288,322.194C276.288,322.194 286.116,341.299 279.862,341.132C273.608,340.953 253.042,353.816 242.698,360.081C232.354,366.346 232.475,393.167 232.475,393.167C220.858,398.531 210.131,421.776 210.131,421.776C207.158,427.55 204.771,402.088 208.611,397.624L208.612,397.625ZM150.038,824.065C159.183,837.467 199.405,875.917 200.296,887.545C201.194,899.162 185.105,905.412 180.628,887.545C176.151,869.666 176.151,855.35 161.847,858.924C147.542,862.514 141.292,843.502 135.925,833.326C130.562,823.162 122.523,824.951 123.409,821.373C124.307,817.811 117.143,817.811 119.835,807.971C122.175,799.342 113.569,796.354 106.421,798.143C99.269,799.92 95.694,787.405 106.421,778.463C117.148,769.521 127.878,762.385 129.679,773.998C131.464,785.631 140.909,810.662 150.038,824.064L150.038,824.065ZM129.686,670.295C124.323,675.647 141.303,686.389 115.381,684.588C115.381,684.588 92.139,681.901 92.139,669.385C92.139,656.869 111.807,661.334 115.381,653.291C118.955,645.24 139.514,647.037 139.514,653.291C139.514,659.541 135.053,664.932 129.686,670.295L129.686,670.295ZM225.338,593.436C215.51,597.877 211.225,610.393 196.369,611.28C181.525,612.178 181.525,634.538 159.181,623.796C159.181,623.796 138.615,614.855 159.181,603.23C179.736,591.613 187.79,590.726 196.728,578.21C205.669,565.694 219.97,555.855 236.064,571.058C252.158,586.249 235.166,588.984 225.337,593.437L225.338,593.436ZM186.904,478.076C175.275,486.127 136.842,520.986 125.213,531.474C113.596,541.974 109.119,559.435 101.068,563.322C93.029,567.22 93.47,554.56 96.591,544.228C98.884,536.642 112.685,520.986 115.814,514.732C118.947,508.466 127.884,500.427 143.08,492.388C158.283,484.337 182.416,461.993 189.568,453.939C196.721,445.888 214.599,441.423 228.017,432.482C241.419,423.541 253.951,407.451 267.353,404.763C280.767,402.075 292.384,386.884 296.091,383.306C299.787,379.732 315.638,383.306 321.892,372.579C328.146,361.852 349.599,360.063 366.087,358.286C382.575,356.497 382.685,343.083 401.45,341.294C420.231,339.505 433.634,335.04 455.989,325.849C478.333,316.658 454.2,327.876 478.333,326.103C502.478,324.314 502.478,332.357 489.962,344.873C477.446,357.389 449.728,353.814 440.786,353.814C431.845,353.814 413.067,361.853 397.876,363.654C382.673,365.443 369.267,377.056 357.642,385.998C346.025,394.951 300.427,410.143 273.607,420.869C246.795,431.588 198.517,470.021 186.904,478.076L186.904,478.076ZM376.434,617.536C374.645,634.528 357.653,636.868 353.192,628.997C348.715,621.126 348.102,604.122 335.458,603.231C322.798,602.344 311.997,582.723 296.388,593.438C296.388,593.438 288.829,578.211 303.13,579.098C317.423,579.996 335.314,587.137 342.466,586.25C349.603,585.352 378.224,600.543 376.435,617.535L376.434,617.536ZM347.825,522.329C322.794,515.622 324.583,526.77 322.794,531.473C321.005,536.177 305.802,547.805 299.552,544.232C293.298,540.657 287.829,539.048 284.349,544.232C277.208,554.865 256.63,567.473 253.954,551.384C251.267,535.29 259.306,528.142 269.145,522.775C278.985,517.411 273.622,504.896 297.754,506.681C321.899,508.47 319.211,500.427 327.262,493.267C335.301,486.114 355.871,479.853 361.235,493.267C366.594,506.681 372.844,529.048 347.825,522.329L347.825,522.329ZM734.575,549.595C725.981,554.072 731.348,541.556 718.833,544.232C706.318,546.907 694.091,538.626 701.841,531.474L727.775,507.572C727.775,507.572 745.642,499.314 764.423,522.213C764.419,522.221 743.165,545.119 734.575,549.596L734.575,549.595ZM818.958,466.458C809.13,478.974 793.036,463.77 782.263,464.669C771.509,465.556 753.693,471.821 748.325,469.145C742.962,466.47 710.778,460.204 703.626,459.149C696.462,458.095 682.169,472.719 670.673,464.669C659.177,456.63 639.259,465.567 632.095,467.356C624.954,469.145 603.497,462.88 598.794,463.782C594.103,464.669 585.618,472.724 571.314,474.509C557.009,476.298 557.009,462.88 547.169,465.568C537.341,468.255 529.302,471.822 519.45,468.255C509.622,464.681 509.622,468.255 498.235,471.829C486.848,475.404 475.649,478.982 464.024,478.572C452.395,478.165 447.93,486.13 441.669,485.411C435.403,484.693 409.485,495.083 398.759,497.759C388.032,500.435 396.072,478.989 398.759,467.364C401.435,455.735 434.892,469.583 449.724,461.111C468.494,450.384 498.001,457.536 515.88,448.595C533.759,439.653 548.95,441.442 571.31,443.145C593.654,444.837 594.552,446.806 608.908,434.29C623.248,421.774 649.096,441.442 661.181,439.618C673.29,437.805 686.634,449.481 699.411,443.134C712.169,436.786 737.606,439.641 751.899,446.794C766.204,453.946 784.969,448.583 805.551,443.134C826.11,437.669 828.785,453.943 818.957,466.458L818.958,466.458ZM832.372,359.178C830.571,367.217 817.157,380.635 801.977,373.483C786.774,366.331 775.157,351.128 758.165,358.28C741.185,365.432 728.669,343.975 714.364,345.764C700.059,347.553 661.61,340.053 653.571,341.119C645.532,342.174 622.298,345.764 613.337,339.498C602.357,331.807 601.732,346.651 588.317,347.537C574.915,348.436 556.133,341.284 556.133,331.443C556.133,321.604 555.246,301.048 574.012,308.185C592.782,315.35 591.891,317.127 602.621,316.236C613.348,315.35 627.652,309.982 643.758,312.662C659.836,315.35 660.09,320.713 670.699,317.139C681.297,313.564 695.609,313.576 704.539,317.139C713.48,320.713 721.781,330.037 731.934,327.17C742.086,324.291 756.391,332.342 764.43,333.228C772.469,334.115 789.473,337.705 801.09,339.482C812.703,341.287 834.16,351.127 832.371,359.177L832.372,359.178ZM832.47,322.182C832.47,322.182 809.118,307.315 801.079,311.791C801.079,311.791 802.868,274.244 812.708,265.303C822.536,256.362 824.599,278.717 824.454,284.073C824.309,289.436 828.727,294.979 836.825,293.913L832.47,322.182ZM1073.74,341.12C1084.47,345.417 1072.84,353.804 1082.68,357.44C1092.51,361.065 1093.42,361.854 1097.87,375.51C1102.36,389.166 1086.26,386.885 1075.53,389.561C1064.8,392.248 1051.38,385.987 1052.29,375.51C1053.18,365.022 1037.98,367.217 1029.24,361.854C1020.47,356.491 1029.24,346.651 1029.24,346.651C1047.29,329.671 1063.01,336.823 1073.74,341.12L1073.74,341.12ZM865.07,362.745C868.284,353.804 884.222,358.268 885.109,352.018C885.995,345.764 888.277,328.956 947.015,322.186C1005.74,315.428 1031.73,334.139 1029.05,335.94C1026.35,337.729 1019.21,332.366 1015.63,335.94C1012.06,339.514 1007.59,343.979 999.538,342.756C991.499,341.522 989.698,343.991 987.909,349.346C986.131,354.709 980.756,357.385 970.042,354.709C959.304,352.022 950.362,357.385 945.897,362.749C941.42,368.112 937.846,382.417 919.077,378.456C900.307,374.495 907.448,378.838 900.307,387.78C893.143,396.721 878.85,395.819 878.85,387.78C878.854,379.737 864.049,365.612 865.069,362.745L865.07,362.745ZM1129.18,444.14C1127.63,454.101 1118.13,455.984 1117.25,455.984L1117.54,455.984C1120.23,455.984 1117.54,469.257 1112.18,470.168C1106.82,471.043 1097.87,471.441 1096.98,482.168C1096.09,492.906 1091.61,492.645 1086.25,498.234C1080.89,503.828 1073.73,495.199 1066.57,509.933C1059.42,524.667 1037.07,508.542 1032.6,506.191C1028.13,503.851 1026.34,512.081 1015.62,514.769C1004.88,517.445 1002.2,496.867 995.061,518.753C987.897,540.628 948.573,533.515 944.084,531.495C939.631,529.48 943.209,515.643 936.944,522.241C930.69,528.843 911.01,529.046 902.073,528.362C893.143,527.679 882.405,513.854 877.042,506.139C871.679,498.424 873.561,479.44 865.054,485.405C858.429,490.038 849.324,492.402 840.382,485.405C831.452,478.421 848.444,461.104 865.007,454.843C881.577,448.59 882.405,457.531 888.671,464.047C894.925,470.55 910.128,471.836 923.53,459.32C936.944,446.816 935.159,445.906 947.108,445.906C959.061,445.906 952.147,468.261 947.108,478.09C942.081,487.918 935.155,493.293 937.842,506.145C940.53,518.997 953.033,504.911 969.127,497.997C985.221,491.071 1008.45,499.543 1017.39,497.997C1026.34,496.438 1035.28,481.677 1044.22,474.009C1053.17,466.364 1063.89,462.884 1085.34,459.31C1106.8,455.735 1089.82,440.54 1095.18,422.615C1100.53,404.685 1115.73,419.591 1121.08,423.13C1126.49,426.658 1130.95,432.622 1129.18,444.142L1129.18,444.14ZM749.9,559.65C749.9,559.65 721.724,591.834 686.865,615.306C686.865,615.306 707.65,611.958 715.029,620.669C722.408,629.392 735.802,631.407 739.834,626.033C739.834,626.033 719.049,595.193 721.725,591.834C724.412,588.486 745.87,573.736 761.959,572.393C778.064,571.049 783.416,563.682 782.084,559.651C780.728,555.631 749.9,559.651 749.9,559.651L749.9,559.65ZM666.08,518.755C666.08,518.755 660.044,536.181 661.388,544.232L680.158,531.49C680.166,531.486 674.791,518.084 666.08,518.756L666.08,518.755Z" style="fill-rule:nonzero;"/>
    </g>
</svg>
