<?xml version="1.0" encoding="UTF-8"?>
<svg version="1.1" viewBox="0 0 1200 1200" xmlns="http://www.w3.org/2000/svg" width="150pt" height="150pt">
 <path d="m1093.2 354.5s2.0156-10.055-10.066-20.113c-12.059-10.055-31.512-4.0195-31.512-4.0195-132.76-48.277-184.38 14.746-184.38 14.746-6.0234-10.727-26.82-16.766-26.82-16.766 0-41.566 17.438-65.711 17.438-65.711l55.656 18.109 1.8477 29.785 15-3.1562 0.35938-10.859 17.879 3.4805h25.031l-10.738-21.359c8.9414-12.516 69.73-0.85156 69.73-0.85156s-64.355-22.766-62.566-37.066c1.7773-14.305 26.809-24.793 26.809-24.793-14.293-7.1523-78.672 9.0469-78.672 9.0469s-37.559-21.395-81.359-15.145c-36.48 5.2188-43.789 106.41-43.789 106.41s-71.531-48.266-253.91-37.535c-182.38 10.727-295.02 109.08-295.02 109.08s-7.1523-3.5742 1.7891-17.879c8.9414-14.305 44.699-21.457 44.699-21.457l24.145-14.305s-25.934-1.7891-27.719-10.727c-1.7891-8.9414 19.668-21.457 39.336-30.395 19.668-8.9414 14.305-19.668 14.305-19.668s-60.793 25.031-67.945 12.516c-7.1641-12.516 14.305-37.547 21.457-51.852 7.1523-14.305-3.5742-30.395-3.5742-30.395-14.305 37.535-60.793 60.781-60.793 60.781l-10.68-33.781c0.46875 1.6797 2.6875 16.031-34.02 67.766-39.336 55.43-7.1523 78.672-7.1523 78.672l-17.891 81.348s-100.12 83.148-114.43 194c-14.305 110.86 21.457 216.36 143.04 300.38 121.57 84.047 273.56 25.031 321.84 0 48.277-25.02 84.383-36.719 71.52-60.781-6.9375-12.961-56.102 8.9297-56.102 8.9297s-170.3 65.723-274.23 11.398c-103.93-54.301-118.01-166.95-116.66-209.86 1.3438-42.91 55.656-101.93 124.71-93.875 69.059 8.0508 76.441 51.637 118.01 82.477 41.566 30.852 155.55 23.473 155.55 17.438s-20.785-14.09-20.113-19.453c0.67188-5.3516 6.707-8.0391 23.473-10.727 16.754-2.6875 14.074-16.094 14.074-16.094s-40.906-5.3633-43.586-14.09c-2.6875-8.7227 4.6914-16.754 16.754-28.824 12.059-12.07 2.0391-19.344 2.0391-19.344s-27.492 16.668-34.199 19.355c-6.707 2.6875 0.68359-11.398 7.3789-24.145 6.707-12.742-2.0039-22.129-2.0039-22.129-16.094 30.168-38.891 44.258-38.891 44.258-2.6875-12.742-12.742-10.727-12.742-10.727-2.6875 19.453-12.07 30.852-12.07 30.852-34.859-15.422-85.824-65.723-85.824-65.723 173.66-64.367 370.12-66.383 370.12-66.383-4.0195 6.0352-35.531 39.562-54.973 46.945-19.453 7.3672-28.836 59.004 2.0039 62.352 30.84 3.3594 107.95-89.184 107.95-89.184 41.578-9.3828 109.96-1.332 109.96-1.332 8.0508 11.398 54.312 20.113 77.113 20.785 22.801 0.67188 47.605-13.402 47.605-13.402 20.113 25.477 72.422-12.07 72.422-12.07s73.094-38.891 75.098-85.824c1.9922-46.953-61.707-79.125-61.707-79.125zm-210.77-116c16.094-11.629 34.871 8.9414 38.449 24.73 3.5742 15.793 6.2539 20.855 14.293 17.281 8.0508-3.5625 18.77-4.1172 18.77-4.1172s5.3633 11.281 3.5898 16.332c-1.7773 5.0391-9.8398-0.57422-15.215 0-5.3516 0.57422-17.867-0.57422-19.668 4.7773-1.7773 5.3633-3.5742-22.355-3.5742-22.355l-51.852-20.555c-5.3633-7.1523-0.88672-4.4766 15.207-16.094zm-413.02 382.64c7.1523-5.3633 17.543-31.98 15.191-17.891-2.3516 14.102 0 25.934 7.8594 25.766 7.8594-0.17969 1.9805 12.684-4.2852 18.91-6.2656 6.2266-0.89844 9.8633 10.066 11.652 10.969 1.7891 12.277 10.738 7.8008 18.77-4.4766 8.0273-6.2539 12.516-7.8008 22.344-1.5469 9.8398-8.2812 2.6875-15.742 0-7.4531-2.6875-7.7383-6.2539-2.375-15.887 5.3633-9.6367 0-18.434 0-18.434-8.0508 2.3164-15.203-17.52-18.781-25.57-3.5625-8.0586 0.90234-14.309 8.0664-19.66zm-29.508 26.785c8.0508-2.6641 8.9414 14.328-6.2539 10.754-15.191-3.5898-19.668-22.344-19.668-22.344 0-0.003906 17.879 14.266 25.922 11.59zm-231.29-250.3c3.8398-4.4766 6.8867-9.8398 1.5352-15.203-5.3633-5.3633 4.4648-14.305 12.504-21.457 8.0391-7.1523 9.8281-8.0391 15.191-4.4766 5.3633 3.5742 9.8398-8.0391 15.574-14.172 5.7344-6.1328-3.9492-14.438-3.9492-20.137s1.7891-16.656-6.7695-24.012c-8.5547-7.3555-17.363-8.7344-18.266-18.562-0.89844-9.8281 12.516-12.516 21.602-16.391 9.0859-3.875 11.484 27.121 15.047 29.496 3.5742 2.3633 7.1523 3.8867 8.9414 14.027 1.7891 10.141 6.2656 15.457 6.2656 15.457s9.8281 19.105 3.5742 18.938c-6.2539-0.17969-26.82 12.684-37.164 18.949s-10.223 33.086-10.223 33.086c-11.617 5.3633-22.344 28.609-22.344 28.609-2.9727 5.7734-5.3594-19.688-1.5195-24.152zm-58.574 426.44c9.1445 13.402 49.367 51.852 50.258 63.48 0.89844 11.617-15.191 17.867-19.668 0-4.4766-17.879-4.4766-32.195-18.781-28.621-14.305 3.5898-20.555-15.422-25.922-25.598-5.3633-10.164-13.402-8.375-12.516-11.953 0.89844-3.5625-6.2656-3.5625-3.5742-13.402 2.3398-8.6289-6.2656-11.617-13.414-9.8281-7.1523 1.7773-10.727-10.738 0-19.68s21.457-16.078 23.258-4.4648c1.7852 11.633 11.23 36.664 20.359 50.066zm-20.352-153.77c-5.3633 5.3516 11.617 16.094-14.305 14.293 0 0-23.242-2.6875-23.242-15.203 0-12.516 19.668-8.0508 23.242-16.094 3.5742-8.0508 24.133-6.2539 24.133 0 0 6.25-4.4609 11.641-9.8281 17.004zm95.652-76.859c-9.8281 4.4414-14.113 16.957-28.969 17.844-14.844 0.89844-14.844 23.258-37.188 12.516 0 0-20.566-8.9414 0-20.566 20.555-11.617 28.609-12.504 37.547-25.02 8.9414-12.516 23.242-22.355 39.336-7.1523 16.094 15.191-0.89844 17.926-10.727 22.379zm-38.434-115.36c-11.629 8.0508-50.062 42.91-61.691 53.398-11.617 10.5-16.094 27.961-24.145 31.848-8.0391 3.8984-7.5977-8.7617-4.4766-19.094 2.293-7.5859 16.094-23.242 19.223-29.496 3.1328-6.2656 12.07-14.305 27.266-22.344 15.203-8.0508 39.336-30.395 46.488-38.449 7.1523-8.0508 25.031-12.516 38.449-21.457 13.402-8.9414 25.934-25.031 39.336-27.719 13.414-2.6875 25.031-17.879 28.738-21.457 3.6953-3.5742 19.547 0 25.801-10.727 6.2539-10.727 27.707-12.516 44.195-14.293 16.488-1.7891 16.598-15.203 35.363-16.992 18.781-1.7891 32.184-6.2539 54.539-15.445 22.344-9.1914-1.7891 2.0273 22.344 0.25391 24.145-1.7891 24.145 6.2539 11.629 18.77s-40.234 8.9414-49.176 8.9414c-8.9414 0-27.719 8.0391-42.91 9.8398-15.203 1.7891-28.609 13.402-40.234 22.344-11.617 8.9531-57.215 24.145-84.035 34.871-26.812 10.719-75.09 49.152-86.703 57.207zm189.53 139.46c-1.7891 16.992-18.781 19.332-23.242 11.461-4.4766-7.8711-5.0898-24.875-17.734-25.766-12.66-0.88672-23.461-20.508-39.07-9.793 0 0-7.5586-15.227 6.7422-14.34 14.293 0.89844 32.184 8.0391 39.336 7.1523 7.1367-0.89844 35.758 14.293 33.969 31.285zm-28.609-95.207c-25.031-6.707-23.242 4.4414-25.031 9.1445-1.7891 4.7031-16.992 16.332-23.242 12.758-6.2539-3.5742-11.723-5.1836-15.203 0-7.1406 10.633-27.719 23.242-30.395 7.1523-2.6875-16.094 5.3516-23.242 15.191-28.609 9.8398-5.3633 4.4766-17.879 28.609-16.094 24.145 1.7891 21.457-6.2539 29.508-13.414 8.0391-7.1523 28.609-13.414 33.973 0 5.3594 13.414 11.609 35.781-13.41 29.062zm386.75 27.266c-8.5938 4.4766-3.2266-8.0391-15.742-5.3633s-24.742-5.6055-16.992-12.758l25.934-23.902s17.867-8.2578 36.648 14.641c-0.003906 0.007812-21.258 22.906-29.848 27.383zm84.383-83.137c-9.8281 12.516-25.922-2.6875-36.695-1.7891-10.754 0.88672-28.57 7.1523-33.938 4.4766-5.3633-2.6758-37.547-8.9414-44.699-9.9961-7.1641-1.0547-21.457 13.57-32.953 5.5195-11.496-8.0391-31.414 0.89844-38.578 2.6875-7.1406 1.7891-28.598-4.4766-33.301-3.5742-4.6914 0.88672-13.176 8.9414-27.48 10.727-14.305 1.7891-14.305-11.629-24.145-8.9414-9.8281 2.6875-17.867 6.2539-27.719 2.6875-9.8281-3.5742-9.8281 0-21.215 3.5742-11.387 3.5742-22.586 7.1523-34.211 6.7422-11.629-0.40625-16.094 7.5586-22.355 6.8398-6.2656-0.71875-32.184 9.6719-42.91 12.348-10.727 2.6758-2.6875-18.77 0-30.395 2.6758-11.629 36.133 2.2188 50.965-6.2539 18.77-10.727 48.277-3.5742 66.156-12.516 17.879-8.9414 33.07-7.1523 55.43-5.4492 22.344 1.6914 23.242 3.6602 37.598-8.8555 14.34-12.516 40.188 7.1523 52.273 5.3281 12.109-1.8125 25.453 9.8633 38.23 3.5156 12.758-6.3477 38.195-3.4922 52.488 3.6602 14.305 7.1523 33.07 1.7891 53.652-3.6602 20.559-5.4648 23.234 10.809 13.406 23.324zm13.414-107.28c-1.8008 8.0391-15.215 21.457-30.395 14.305-15.203-7.1523-26.82-22.355-43.812-15.203-16.98 7.1523-29.496-14.305-43.801-12.516-14.305 1.7891-52.754-5.7109-60.793-4.6445-8.0391 1.0547-31.273 4.6445-40.234-1.6211-10.98-7.6914-11.605 7.1523-25.02 8.0391-13.402 0.89844-32.184-6.2539-32.184-16.094 0-9.8398-0.88672-30.395 17.879-23.258 18.77 7.1641 17.879 8.9414 28.609 8.0508 10.727-0.88672 25.031-6.2539 41.137-3.5742 16.078 2.6875 16.332 8.0508 26.941 4.4766 10.598-3.5742 24.91-3.5625 33.84 0 8.9414 3.5742 17.242 12.898 27.395 10.031 10.152-2.8789 24.457 5.1719 32.496 6.0586 8.0391 0.88672 25.043 4.4766 36.66 6.2539 11.613 1.8047 33.07 11.645 31.281 19.695zm0.097656-36.996s-23.352-14.867-31.391-10.391c0 0 1.7891-37.547 11.629-46.488 9.8281-8.9414 11.891 13.414 11.746 18.77-0.14453 5.3633 4.2734 10.906 12.371 9.8398zm241.27 18.938c10.727 4.2969-0.89844 12.684 8.9414 16.32 9.8281 3.625 10.738 4.4141 15.191 18.07 4.4883 13.656-11.617 11.375-22.344 14.051-10.727 2.6875-24.145-3.5742-23.242-14.051 0.89844-10.488-14.305-8.293-23.051-13.656-8.7617-5.3633 0-15.203 0-15.203 18.055-16.98 33.773-9.8281 44.504-5.5312zm-208.67 21.625c3.2148-8.9414 19.152-4.4766 20.039-10.727 0.88672-6.2539 3.168-23.062 61.906-29.832 58.727-6.7578 84.719 11.953 82.031 13.754-2.6992 1.7891-9.8398-3.5742-13.414 0s-8.0391 8.0391-16.094 6.8164c-8.0391-1.2344-9.8398 1.2344-11.629 6.5898-1.7773 5.3633-7.1523 8.0391-17.867 5.3633-10.738-2.6875-19.68 2.6758-24.145 8.0391-4.4766 5.3633-8.0508 19.668-26.82 15.707-18.77-3.9609-11.629 0.38281-18.77 9.3242-7.1641 8.9414-21.457 8.0391-21.457 0 0.003906-8.043-14.801-22.168-13.781-25.035zm264.11 81.395c-1.5469 9.9609-11.051 11.844-11.926 11.844h0.28906c2.6875 0 0 13.273-5.3633 14.184-5.3633 0.875-14.305 1.2734-15.203 12-0.88672 10.738-5.3633 10.477-10.727 16.066-5.3633 5.5938-12.516-3.0352-19.68 11.699-7.1523 14.734-29.496-1.3906-33.973-3.7422-4.4648-2.3398-6.2539 5.8906-16.98 8.5781-10.738 2.6758-13.414-17.902-20.555 3.9844-7.1641 21.875-46.488 14.762-50.977 12.742-4.4531-2.0156-0.875-15.852-7.1406-9.2539-6.2539 6.6016-25.934 6.8047-34.871 6.1211-8.9297-0.68359-19.668-14.508-25.031-22.223s-3.4805-26.699-11.988-20.734c-6.625 4.6328-15.73 6.9961-24.672 0-8.9297-6.9844 8.0625-24.301 24.625-30.562 16.57-6.2539 17.398 2.6875 23.664 9.2031 6.2539 6.5039 21.457 7.7891 34.859-4.7266 13.414-12.504 11.629-13.414 23.578-13.414 11.953 0 5.0391 22.355 0 32.184-5.0273 9.8281-11.953 15.203-9.2656 28.055 2.6875 12.852 15.191-1.2344 31.285-8.1484 16.094-6.9258 39.324 1.5469 48.266 0 8.9414-1.5586 17.891-16.32 26.832-23.988 8.9414-7.6445 19.668-11.125 41.113-14.699 21.457-3.5742 4.4766-18.77 9.8398-36.695 5.3516-17.93 20.555-3.0234 25.906 0.51562 5.4062 3.5273 9.8711 9.4922 8.0938 21.012zm-379.28 115.51s-28.176 32.184-63.035 55.656c0 0 20.785-3.3477 28.164 5.3633 7.3789 8.7227 20.773 10.738 24.805 5.3633 0 0-20.785-30.84-18.109-34.199 2.6875-3.3477 24.145-18.098 40.234-19.441 16.105-1.3438 21.457-8.7109 20.125-12.742-1.3555-4.0195-32.184 0-32.184 0zm-83.82-40.895s-6.0352 17.426-4.6914 25.477l18.77-12.742c0.007812-0.003906-5.3672-13.406-14.078-12.734z"/>
</svg>
