<?xml version="1.0" encoding="UTF-8"?>
<svg version="1.1" viewBox="0 0 1200 1200" xmlns="http://www.w3.org/2000/svg" width="150pt" height="150pt">
 <path d="m339.79 60h469.64c40.359 0 73.172 33.094 73.172 73.172v369.32c-36.984-23.719-80.203-38.297-127.13-40.359-142.74-6.75-264.61 104.2-271.13 246.94-6.75 143.02 103.92 264.66 246.94 271.4 53.391 2.625 103.92-11.438 146.63-37.5l4.6875 5.2031v99.516c0 40.125-32.812 73.172-73.172 73.172h-676.18c-40.359 0-73.172-33.094-73.172-73.172l-0.046876-707.72h173.48c58.594 0 106.27-47.906 106.27-106.27zm781.69 1063.2c-23.953 22.922-62.531 22.406-85.688-1.8281l-104.2-107.81 31.266-29.953-57.562-59.625c9.0938-7.3125 17.953-15.375 26.062-23.953l56.766 59.109 30.984-29.672 103.92 107.81c23.203 24.234 22.406 62.766-1.5469 85.969zm-367.55-627.98c125.02 5.7188 221.39 111.75 215.68 236.76-6 124.78-111.98 221.39-236.76 215.39-125.02-5.7188-221.39-111.75-215.68-236.76 6-124.78 111.98-221.39 236.76-215.39zm-2.0625 44.812c100.27 4.6875 177.66 89.578 172.97 189.89-4.6875 100.03-89.859 177.37-189.89 172.69-100.27-4.6875-177.66-89.578-172.97-189.89 4.6875-100.03 89.859-177.37 189.89-172.69zm-445.18-480.05-246.66 246.94h173.48c40.359 0 73.172-33.094 73.172-73.172zm-137.48 308.11h108.89l39.047-37.781c7.0312-6.75 18.234-6.5156 24.984 0.51562s6.5156 17.953-0.51562 24.75l-84.141 81.797c-8.8594-9.0938-17.953-17.953-26.812-27.328-6.75-4.9688-16.688-4.6875-22.922 1.5469-7.0312 6.75-7.0312 17.953-0.28125 24.75l36.984 38.297c6.75 7.0312 17.953 7.0312 24.75 0.28125l43.219-41.953v78.422h-143.26v-143.26zm0 250.82h143.26v143.26h-143.26zm0 250.82h143.26v143.26h-143.26zm244.31 129.74c-9.8906 0-17.719-7.8281-17.719-17.438 0-9.8906 7.8281-17.719 17.719-17.719h167.21c22.125 14.859 46.641 26.812 72.422 35.156zm0-582.66c-9.8906 0-17.719-7.8281-17.719-17.719 0-9.6562 7.8281-17.438 17.719-17.438h359.95c9.6562 0 17.719 7.8281 17.719 17.438 0 9.8906-8.0625 17.719-17.719 17.719zm0 81.234c-9.8906 0-17.719-8.0625-17.719-17.719s7.8281-17.719 17.719-17.719h193.26c-18.75 9.8906-36.188 21.891-52.078 35.438zm0 169.6c-9.8906 0-17.719-7.8281-17.719-17.719 0-9.6562 7.8281-17.438 17.719-17.438h51.328c-3.6562 11.438-6.75 23.203-8.8594 35.156zm0 81.234c-9.8906 0-17.719-8.0625-17.719-17.719 0-9.8906 7.8281-17.719 17.719-17.719h37.5c-0.28125 12 0 23.719 1.0312 35.438zm0 169.6c-9.8906 0-17.719-8.0625-17.719-17.719s7.8281-17.719 17.719-17.719h86.484c8.3438 12.516 17.438 24.234 27.609 35.438z" fill-rule="evenodd"/>
</svg>
