<!-- Generated by IcoMoon.io -->
<svg version="1.1" xmlns="http://www.w3.org/2000/svg" width="32" height="32" viewBox="0 0 32 32">
<path d="M9.061 6.232c0 1.556-1.271 2.834-2.834 2.834h-4.626l0.001 18.873c0 1.069 0.875 1.951 1.951 1.951h18.031c1.076 0 1.951-0.881 1.951-1.951v-2.654l-0.125-0.139c-1.139 0.695-2.486 1.070-3.91 1-3.814-0.18-6.765-3.423-6.585-7.237 0.174-3.806 3.424-6.765 7.23-6.585 1.251 0.055 2.404 0.444 3.39 1.076v-9.849c0-1.069-0.875-1.951-1.951-1.951h-12.524zM29.906 29.953c0.639-0.619 0.66-1.646 0.041-2.293l-2.771-2.875-0.826 0.791-1.514-1.576c-0.216 0.229-0.453 0.444-0.695 0.639l1.535 1.59-0.834 0.799 2.779 2.875c0.618 0.646 1.646 0.66 2.285 0.049zM20.105 13.206c-3.327-0.16-6.154 2.416-6.314 5.744-0.152 3.334 2.418 6.161 5.751 6.314 3.327 0.16 6.154-2.416 6.314-5.744 0.152-3.334-2.418-6.161-5.751-6.314zM20.050 14.401c2.674 0.125 4.738 2.389 4.613 5.064-0.125 2.667-2.396 4.73-5.064 4.605-2.674-0.125-4.738-2.389-4.613-5.064 0.125-2.667 2.396-4.73 5.064-4.605zM8.178 6.233c0 1.069-0.875 1.951-1.951 1.951h-4.626l6.578-6.585zM4.512 9.816h2.904l1.041-1.008c0.188-0.18 0.486-0.174 0.666 0.014s0.174 0.479-0.014 0.66l-2.244 2.181c-0.236-0.242-0.479-0.479-0.715-0.729-0.18-0.133-0.445-0.125-0.611 0.041-0.188 0.18-0.188 0.479-0.008 0.66l0.986 1.021c0.18 0.188 0.479 0.188 0.66 0.008l1.152-1.119v2.091h-3.82v-3.82zM4.512 16.504h3.82v3.82h-3.82zM4.512 23.193h3.82v3.82h-3.82zM11.027 26.653c-0.264 0-0.473-0.209-0.473-0.465 0-0.264 0.209-0.473 0.473-0.473h4.459c0.59 0.396 1.244 0.715 1.931 0.938zM11.027 11.115c-0.264 0-0.473-0.209-0.473-0.473 0-0.258 0.209-0.465 0.473-0.465h9.599c0.258 0 0.473 0.209 0.473 0.465 0 0.264-0.215 0.473-0.473 0.473zM11.027 13.281c-0.264 0-0.473-0.215-0.473-0.473s0.209-0.473 0.473-0.473h5.154c-0.5 0.264-0.965 0.584-1.389 0.945zM11.027 17.804c-0.264 0-0.473-0.209-0.473-0.473 0-0.258 0.209-0.465 0.473-0.465h1.369c-0.098 0.305-0.18 0.619-0.236 0.938zM11.027 19.97c-0.264 0-0.473-0.215-0.473-0.473 0-0.264 0.209-0.473 0.473-0.473h1c-0.008 0.32 0 0.633 0.027 0.945zM11.027 24.493c-0.264 0-0.473-0.215-0.473-0.473s0.209-0.473 0.473-0.473h2.306c0.223 0.334 0.465 0.646 0.736 0.945z"></path>
</svg>
