<?xml version="1.0" encoding="utf-8"?>
<svg version="1.1" viewBox="0 0 1200 1200" xmlns="http://www.w3.org/2000/svg" width="150pt" height="150pt">
  <path d="M 792.407 708 C 793.849 706.07 795.282 704.128 796.72 702.187 C 805.126 692.378 810.779 680.515 813.103 667.804 C 815.427 655.097 814.337 641.999 809.947 629.851 C 808.849 626.972 807.197 624.343 805.08 622.105 C 842.188 611.906 880.52 606.886 919 607.191 L 919.004 607.191 C 941.981 608.008 962.512 616.679 984.543 621.863 C 1001.707 625.86 1013.953 626.028 1024.555 640.09 C 1021.188 639.836 1017.504 639.527 1013.445 639.219 C 1004.144 638.535 992.848 637.719 980.051 637.598 C 976.804 637.652 973.488 637.719 970.121 637.84 C 966.754 637.961 963.004 638.402 959.387 638.711 C 957.27 638.844 955.168 639.117 953.086 639.524 C 952.465 639.441 951.836 639.422 951.211 639.461 C 918.379 640.895 891.972 653.672 864.324 670.547 C 841.16 684.656 816.57 695.953 792.41 708 Z M 606.71 866.667 C 569.507 879.222 539.104 871.972 504.37 856.308 C 479.96 843.605 454.108 833.89 427.374 827.367 C 395.722 821.254 362.518 829.055 331.87 817.637 C 333.644 813.211 336.019 809.051 338.929 805.27 C 339.663 804.352 340.351 803.395 340.984 802.402 C 347.257 798.187 351.207 791.285 351.66 783.738 C 351.761 782.26 351.742 780.78 351.598 779.306 C 392.428 789.355 438.365 772.863 479.933 784.113 C 482 784.699 484.199 783.813 485.277 781.953 C 486.351 780.094 486.027 777.746 484.492 776.246 C 464.152 758.32 442.172 742.352 418.836 728.547 C 412.234 724.301 405.344 720.523 398.211 717.238 C 404.708 719.129 411.711 717.91 417.188 713.941 L 417.184 713.937 C 422.247 708.566 420.559 700.016 416.567 691.148 C 446.024 713.581 474.758 735.714 512.258 748.269 C 514.098 748.734 516.035 748.054 517.191 746.551 C 518.344 745.047 518.492 743 517.566 741.344 C 499.585 716.5 484.914 688.657 465.937 664.684 C 461.113 657.754 455.16 651.684 448.32 646.731 L 448.324 646.734 C 439.55 641.176 430.566 645.731 421.136 645.731 C 414.339 645.664 407.718 646.106 405.038 638.492 C 401.726 628.942 399.476 618.77 395.859 609.094 C 412.234 617.844 428.57 626.594 444.863 635.344 C 452.289 639.336 459.898 643.079 467.578 646.762 C 482.063 669.364 501.852 686.84 516.516 709.18 C 530.184 730.028 541.305 751.63 562.145 766.235 C 592.68 787.645 620.832 739.016 621.207 712.993 C 621.394 712.618 621.582 712.177 621.769 711.802 C 622.214 710.868 622.734 709.974 623.324 709.122 L 623.699 708.626 C 623.699 708.626 623.886 708.372 623.953 708.251 L 625.265 706.939 C 626.257 705.88 627.382 704.689 628.386 703.696 L 631.254 701.192 C 633.187 699.513 635.687 697.696 637.929 696.017 C 655.245 684.599 673.987 675.513 693.675 668.99 C 708.965 663.552 718.761 660.56 718.64 658.189 C 718.515 655.818 707.719 654.196 690.617 656.755 C 674.308 659.278 658.492 664.341 643.742 671.755 L 643.742 671.747 C 639.243 668.372 634.696 665.185 630.008 662.13 C 633.075 662.318 635.887 662.439 638.446 662.439 C 648.496 662.384 654.676 661.138 654.731 659.759 C 654.731 656.396 630.207 655.138 602.926 645.97 C 600.113 644.911 597.434 643.786 594.816 642.595 C 593.934 642.22 593.184 641.79 592.313 641.415 C 591.828 641.157 591.324 640.923 590.813 640.724 C 583.013 636.919 562.106 628.435 564.161 616.134 C 567.161 598.47 612.348 608.521 623.653 608.708 C 638.567 608.95 653.465 609.204 668.465 609.204 C 680.27 609.27 702.489 604.395 713.223 608.575 C 713.379 608.583 713.527 608.626 713.664 608.708 C 730.437 615.197 787.426 623.166 794.289 640.978 C 806.773 673.295 772.133 701.26 755.156 724.416 C 732.429 755.24 710.679 786.592 686.304 816.178 C 665.05 840.158 637.464 857.658 606.71 866.67 Z M 351.593 779.305 L 351.597 779.301 C 351.597 779.303 351.597 779.304 351.598 779.306 C 351.596 779.306 351.595 779.305 351.593 779.305 Z M 551.164 846.072 C 547.164 845.51 544.828 845.502 544.641 846.193 C 544.453 846.889 546.328 848.189 549.883 849.943 C 555.176 852.166 560.672 853.857 566.297 854.998 C 574.621 856.775 583.097 857.756 591.609 857.932 C 602.441 858.435 613.254 856.603 623.316 852.56 C 633.18 847.845 641.812 840.9 648.535 832.271 C 653.773 825.693 658.609 818.807 663.019 811.646 L 663.015 811.646 C 670.441 799.662 675.195 792.603 674.191 791.544 C 673.191 790.486 666.074 796.233 657.027 807.22 C 652.425 812.697 647.288 819.26 641.175 825.822 C 635.073 832.951 627.57 838.752 619.132 842.857 C 610.347 846.334 600.991 848.135 591.542 848.162 C 583.507 848.475 575.46 848.287 567.448 847.6 C 560.452 847.104 555.155 846.42 551.163 846.045 Z M 332 776.249 C 346.606 787.023 328.45 800.57 320.047 810.515 C 319.059 811.695 318.165 812.949 317.368 814.265 L 317.364 814.265 C 312.742 822.374 313.614 835.3 300.387 833.304 C 294.402 831.211 289.078 827.562 284.957 822.738 C 280.84 817.914 278.078 812.082 276.949 805.836 C 274.761 792.133 279.046 778.183 288.558 768.074 C 294.937 763.222 302.945 761.031 310.906 761.953 C 321.586 763.023 324.199 770.445 332 776.25 Z M 346.916 768.23 C 345.514 766.609 343.869 765.215 342.041 764.098 L 342.037 764.098 C 357.9 746.18 352.65 725.145 340.041 706.731 C 346.408 708.426 352.783 710.051 359.205 711.418 C 367.576 714.671 376.127 717.925 384.678 721.73 C 413.885 734.769 441.185 751.714 465.83 772.101 C 426.608 767.8 383.623 780.906 346.92 768.23 Z M 571.57 931.149 C 571.441 931.083 571.383 931.028 571.254 930.935 C 563.894 928.314 558.066 922.579 555.324 915.263 C 552.581 907.951 553.203 899.798 557.019 892.986 C 567.535 894.505 578.215 894.529 588.738 893.052 C 591.312 896.126 592.797 899.974 592.953 903.982 C 593.113 907.993 591.933 911.942 589.609 915.212 C 581.742 918.353 577.937 926.154 571.57 931.15 Z M 580.875 992.58 C 580.125 993.197 579.442 993.826 578.699 994.474 C 579.133 990.045 578.836 985.572 577.828 981.237 C 577.586 980.362 577.227 979.522 576.758 978.744 L 576.762 978.744 C 589.433 971.439 599.597 958.642 611.785 951.275 C 632.191 938.974 654.722 928.802 675.824 917.759 C 695.184 907.607 713.598 894.248 733.012 884.947 C 740.184 887.807 747.575 890.08 755.11 891.752 C 716.282 906.994 680.329 934.775 644.63 953.627 C 622.243 964.65 600.907 977.689 580.88 992.58 Z M 306.279 672.539 C 304.678 670.024 301.947 668.449 298.967 668.332 C 272.744 666.895 259.947 651.352 272.502 624.887 C 276.349 616.856 283.06 610.559 291.322 607.231 C 299.58 603.907 308.787 603.794 317.127 606.915 L 317.123 606.915 C 327.295 611.341 332.416 623.388 337.225 632.509 C 346.604 650.06 363.307 662.525 382.799 666.521 C 387.1 669.458 391.405 672.458 395.651 675.513 C 403.022 688.06 413.819 708.036 406.827 708.224 C 391.069 708.142 375.385 706.083 360.139 702.099 C 346.885 697.455 333.991 691.845 321.561 685.31 C 316.725 680.755 311.624 676.489 306.28 672.54 Z M 598.66 891.14 C 632.285 881.991 662.918 864.167 687.488 839.456 C 690.664 850.589 696.941 860.593 705.59 868.292 L 705.59 868.296 C 686.309 874.257 668.578 890.148 650.973 898.632 C 639.43 904.163 627.473 908.777 615.207 912.429 C 610.344 913.452 605.367 913.784 600.414 913.425 C 603.258 906.117 602.613 897.913 598.66 891.14 Z M 664.688 902.379 C 680.493 894.754 697.165 878.153 715.079 875.649 C 717.376 877.188 719.751 878.606 722.196 879.895 C 689.111 896.434 657.595 918.219 624.134 934.571 C 609.251 941.129 595.528 950.047 583.493 960.981 C 569.227 972.884 551.634 980.087 533.118 981.606 C 537.805 977.236 543.048 973.431 547.977 969.493 C 555.638 963.313 561.771 955.263 569.7 949.524 C 571.236 948.368 572.423 946.813 573.134 945.024 C 574.075 943.997 574.837 942.813 575.384 941.528 C 581.521 937.462 587.099 932.614 591.986 927.11 C 602.506 921.493 614.834 922.309 626.881 918.747 C 639.885 914.275 652.53 908.802 664.69 902.38 Z M 1093 538.71 C 1064.538 513.05 1017.222 496.87 979.71 486.886 C 972.972 478.918 966.605 470.66 959.546 462.98 C 999.152 478.921 1037.813 497.113 1075.336 517.468 L 1075.34 517.468 C 1095.438 527.78 1128.27 555.624 1140.758 584.03 C 1126.324 567.433 1110.332 552.257 1093 538.71 Z M 1070.6 534.28 C 1099.128 549.889 1133.526 580.6 1145.198 612.186 C 1143.729 619.779 1139.878 626.705 1134.21 631.967 L 1134.21 631.971 C 1131.585 624.873 1128.089 617.99 1125.155 611.748 C 1109.077 578.287 1074.1 559.436 1044.389 540.084 C 1025.69 528.655 1008.202 515.354 992.198 500.389 C 1019.342 509.186 1045.596 520.534 1070.6 534.28 Z M 187.431 620.43 C 185.689 627.544 174.567 624.423 169.517 622.032 C 156.29 615.657 168.579 600.618 178.067 597.751 C 178.575 597.563 178.95 597.376 179.38 597.188 C 200.067 596.11 220.466 591.864 239.864 584.598 C 226.715 594.547 212.84 603.496 198.352 611.371 C 196.953 611.383 195.559 611.489 194.172 611.68 C 190.164 612.68 187.375 616.301 187.43 620.43 Z M 164.4 192.78 C 156.162 205.315 151.736 229.229 139.857 241.288 C 134.911 227.952 135.36 213.214 141.114 200.206 C 141.915 201.573 142.857 202.85 143.927 204.022 C 145.786 205.839 148.372 206.706 150.954 206.378 C 153.532 206.05 155.821 204.561 157.165 202.335 C 161.048 194.3 161.454 185.019 158.29 176.675 C 167.865 167.893 178.861 160.803 190.81 155.702 C 191.13 156.331 191.548 156.901 192.056 157.389 L 192.056 157.393 C 190.119 158.893 188.252 160.382 186.564 161.948 C 177.959 171.292 170.517 181.647 164.4 192.78 Z M 561.39 985.65 C 577.936 979.1 563.827 1011.619 560.706 1016.916 C 554.878 1027.509 546.749 1036.661 536.921 1043.7 L 535.616 1044.45 C 534.409 1045.232 533.159 1045.939 531.866 1046.572 C 531.8 1046.638 531.8 1046.693 531.679 1046.759 C 528.327 1048.583 524.792 1050.048 521.132 1051.126 C 497.535 1057.743 476.687 1010.927 497.226 996.263 C 508.589 994.697 520.054 996.076 531.304 994.322 C 541.624 992.564 551.714 989.654 561.39 985.65 Z M 218.08 615.121 C 228.662 609.332 238.795 602.761 248.396 595.461 L 248.4 595.461 C 256.174 589.836 264.338 584.64 271.838 578.586 C 272.213 578.211 272.655 577.836 273.084 577.461 C 270.975 585.324 268.088 592.953 264.467 600.242 C 262.283 603.926 260.162 607.734 258.1 611.672 C 255.487 615.546 253.287 619.691 251.537 624.027 C 247.068 632.757 241.326 640.772 234.494 647.812 C 231.134 635.652 224.224 624.768 214.646 616.554 C 215.818 616.147 216.967 615.667 218.08 615.12 Z M 249.231 659.499 C 253.13 667.952 259.707 674.886 267.942 679.222 C 251.34 683.406 235.73 688.202 233.676 709.054 C 231.364 732.906 182.051 723.913 175.309 705.933 C 166.637 682.777 217.449 672.988 231.801 665.488 C 234.57 664.175 236.375 661.433 236.488 658.375 C 240.218 655.449 243.644 652.164 246.726 648.566 C 246.855 652.34 247.707 656.051 249.23 659.5 Z M 612.27 599.999 C 597.184 599.51 569.442 593.147 556.872 605.303 C 546.634 615.232 549.505 625.346 559.122 634.459 C 565.376 639.564 572.474 643.533 580.095 646.189 C 586.111 650.143 592.561 653.393 599.322 655.865 L 599.326 655.861 C 600.385 656.236 601.51 656.557 602.568 656.865 C 613.787 662.658 624.552 669.295 634.771 676.713 L 634.768 676.713 C 632.338 678.213 629.9 679.713 627.463 681.401 C 624.658 683.522 622.033 685.452 619.353 687.889 L 615.482 691.573 C 614.303 692.756 613.365 693.823 612.361 694.94 L 611.678 695.69 C 592.143 683.589 570.729 679.276 550.01 669.038 C 526.725 657.487 503.448 645.252 480.346 633.018 C 479.435 632.291 478.4 631.74 477.287 631.397 L 477.287 631.393 C 476.283 630.897 475.291 630.401 474.287 629.838 C 459.623 622.037 444.889 614.174 430.225 606.307 C 438.772 606.522 447.319 606.147 455.811 605.182 C 472.237 603.252 482.221 601.94 482.221 600.44 C 482.221 598.94 471.795 597.76 455.502 597.76 C 447.412 597.627 437.549 597.627 427.377 596.569 C 424.717 596.323 422.072 595.928 419.455 595.385 L 419.459 595.389 C 418.08 595.135 416.647 594.881 415.213 594.573 L 411.463 593.448 C 408.783 592.577 406.1 591.948 403.354 590.889 C 400.908 589.827 398.346 588.768 395.854 587.709 C 369.886 573.514 344.143 558.869 318.831 543.514 C 290.862 526.538 264.143 507.647 237.37 488.897 C 238.741 489.394 240.174 489.835 241.608 490.331 C 250.166 493.265 258.897 495.749 267.764 499.003 C 276.631 502.257 285.612 505.624 294.725 508.933 C 300.35 510.995 305.901 513.05 311.393 515.046 C 316.885 516.862 322.314 518.675 327.752 520.417 C 338.674 523.917 348.845 527.468 358.83 530.909 C 361.408 531.714 363.826 532.464 366.33 533.401 C 368.834 534.339 371.271 535.464 373.763 536.456 C 378.63 538.518 383.494 540.515 388.247 542.511 C 397.602 546.315 406.966 550.628 416.145 554.183 C 433.552 561.823 452.317 565.878 471.325 566.109 C 485.563 565.719 499.501 561.906 511.958 555 C 515.782 560.277 520.466 564.875 525.813 568.602 C 527.395 569.727 529.091 570.688 530.864 571.473 L 530.868 571.473 C 533.368 573.16 536.118 575.035 539.36 576.965 C 544.001 579.106 548.751 581.004 553.59 582.649 C 558.722 584.246 563.984 585.375 569.32 586.024 C 575.633 586.871 582.012 587.063 588.363 586.586 L 588.363 586.582 C 591.606 585.953 594.981 585.391 598.348 584.774 C 599.285 584.52 599.902 584.453 601.027 584.145 L 603.277 583.461 L 607.711 582.082 L 612.203 580.649 C 613.578 580.274 614.891 580.086 616.195 579.777 L 618.633 579.149 C 619.574 579.824 620.633 580.316 621.754 580.594 C 644.813 585.938 667.586 592.461 689.977 600.133 L 689.981 600.133 C 664.075 600.816 638.051 600.871 612.27 600 Z M 291.68 565.429 C 297.805 563.038 304.215 561.456 310.746 560.714 L 310.75 560.714 C 330.473 572.827 350.629 584.311 370.918 595.487 C 378.082 612.843 384.23 630.601 389.328 648.671 C 372.023 644.453 357.551 632.636 349.953 616.523 C 344.421 606.074 336.363 597.168 326.515 590.621 C 310.597 579.371 290.93 585.156 275.742 594.953 C 280.078 584.614 285.414 574.727 291.68 565.43 Z M 492.8 721.109 C 494.488 723.801 498.359 732.848 501.175 734.039 C 467.218 719.809 440.003 697.363 411.417 675.801 C 412.914 670.59 413.628 665.184 413.535 659.762 L 413.539 659.758 C 413.914 656.766 416.218 655.324 419.218 654.77 C 427.768 654.77 440.132 653.207 446.995 658.887 C 454.402 665.731 461.007 673.399 466.683 681.735 C 473.011 690.173 478.823 699.059 484.495 707.985 C 487.308 712.372 490.054 716.743 492.8 721.11 Z M 950.771 851.69 C 954.423 850.819 958.615 849.632 963.349 848.12 C 934.505 874.452 894.81 881.26 854.919 887.315 C 879.079 880.292 902.61 870.057 925.458 861.065 C 933.895 857.682 942.332 854.69 950.77 851.69 Z M 341.989 417.239 C 308.97 386.032 310.899 342.333 350.044 318.048 C 380.193 299.33 419.271 314.431 442.482 336.65 C 464.333 363.435 460.81 412.993 430.81 432.595 C 402.787 450.888 363.834 437.865 341.99 417.24 Z M 355.31 352.263 C 353.064 352.001 350.822 352.763 349.201 354.341 C 347.584 355.915 346.764 358.142 346.967 360.392 C 347.697 376.501 365.717 382.556 378.842 386.306 C 392.764 390.298 414.092 397.845 427.217 388.986 C 428.791 387.962 429.979 386.446 430.592 384.673 C 431.967 382.474 432.213 379.751 431.248 377.341 C 430.287 374.931 428.229 373.126 425.717 372.486 C 409.416 367.528 393.513 361.333 378.158 353.951 C 371.154 350.072 362.806 349.454 355.31 352.263 Z M 520.131 446.521 C 521.756 450.935 522.943 454.384 524.006 456.439 C 524.478 459.138 524.666 461.88 524.568 464.622 C 524.42 469.427 523.205 474.138 521.006 478.411 C 520.49 479.556 519.861 480.642 519.131 481.657 C 518.447 482.708 517.697 483.708 516.881 484.657 L 514.443 487.404 C 513.373 488.423 512.252 489.38 511.076 490.271 C 507.256 493.423 502.627 495.435 497.717 496.075 C 492.822 496.591 487.877 496.384 483.045 495.458 C 474.56 493.626 466.588 489.935 459.701 484.657 C 456.22 481.946 453.17 478.728 450.654 475.103 C 451.525 474.728 452.463 474.419 453.334 473.978 C 456.584 472.61 459.662 470.876 462.514 468.802 C 464.08 467.677 465.271 466.927 467.201 465.493 L 470.818 462.251 C 476.197 457.524 481.091 452.274 485.427 446.575 C 490.029 440.415 493.923 433.758 497.04 426.727 C 498.661 427.289 500.349 427.852 501.849 428.481 C 506.54 429.887 510.806 432.438 514.263 435.907 C 514.892 436.711 515.751 437.34 516.259 438.278 C 516.767 439.215 517.263 440.153 517.704 441.024 C 518.669 442.782 519.482 444.622 520.13 446.52 Z M 1114.901 705.32 C 1138.374 719.925 1139.022 749.999 1132.479 776.937 C 1125.495 806.019 1096.62 821.187 1074.12 837.734 C 1029.11 870.734 983.297 901.195 930.43 920.234 C 882.482 937.465 831.494 935.336 782.49 947.945 C 736.547 959.805 698.41 993.141 658.34 1017.047 C 658.758 1006.356 654.79 995.957 647.352 988.266 C 661.145 979.661 675.188 971.606 688.481 963.61 C 726.121 941.138 764.137 917.231 806.211 903.751 C 842.769 892.013 882.199 895.013 919.371 882.517 C 943.535 875.103 965.14 861.071 981.734 842.009 L 981.738 842.005 C 994.777 837.13 1009.703 830.83 1025.433 823.65 C 1048.983 813.35 1068.878 802.303 1083.671 796.623 C 1085.546 795.873 1087.296 795.068 1088.976 794.506 C 1090.656 793.943 1092.156 793.435 1093.589 792.939 C 1096.152 791.9 1098.777 791.025 1101.453 790.322 C 1106.074 789.01 1108.578 787.697 1108.511 786.451 C 1108.449 785.205 1105.831 784.135 1101.144 783.33 C 1098.171 782.857 1095.152 782.756 1092.152 783.021 L 1092.156 783.017 C 1090.343 783.142 1088.413 783.197 1086.351 783.385 C 1084.421 783.759 1082.359 784.08 1080.23 784.455 C 1070.293 786.494 1060.566 789.435 1051.168 793.248 L 1051.164 793.248 C 1045.992 795.31 1040.562 797.56 1035.125 799.931 C 1034.484 800.166 1033.859 800.435 1033.25 800.74 C 1030.84 799.951 1028.203 800.22 1026.004 801.49 L 1026.004 801.486 C 977.504 827.83 920.703 844.248 868.644 862.791 C 840.488 873.549 810.441 878.475 780.324 877.268 C 749.797 875.525 706.222 860.732 703.785 825.959 C 703.734 825.107 703.566 824.268 703.289 823.463 C 709.84 816.283 715.899 809.045 721.391 801.994 C 736.372 782.58 751.168 762.94 765.895 743.252 C 766.293 743.143 766.672 742.975 767.02 742.756 L 767.016 742.752 C 796.727 725.4 828.876 712.979 858.649 695.877 C 875.008 686.514 890.243 676.717 906.528 669.412 L 906.903 669.279 L 908.028 668.971 C 909.594 668.596 911.149 668.154 912.715 667.724 C 915.895 666.853 919.083 665.916 922.391 664.978 C 928.946 662.982 935.621 661.791 942.426 660.049 L 947.039 658.857 L 949.973 658.295 C 950.348 658.295 950.723 658.24 951.164 658.24 C 952.457 658.139 953.723 657.822 954.914 657.303 C 957.301 656.728 959.719 656.314 962.161 656.057 L 962.157 656.057 C 965.282 655.736 968.215 655.185 971.336 654.932 C 974.457 654.678 977.571 654.435 980.571 654.182 C 992.739 653.31 1003.977 652.869 1013.532 651.932 C 1032.743 650.185 1044.368 646.248 1043.993 643.877 C 1043.805 642.697 1041.126 641.947 1036.438 641.318 C 1031.372 629.919 1022.091 620.927 1010.536 616.228 C 1002.759 614.677 994.903 613.552 987.005 612.853 C 972.396 609.666 957.97 605.666 943.806 600.873 L 943.806 600.877 C 896.556 588.604 841.814 602.995 795.306 614.854 C 781.58 607.596 762.353 605.667 750.361 601.729 C 730.017 595.053 710.228 587.936 690.259 581.252 C 683.88 577.022 677.087 573.447 669.989 570.584 C 660.704 566.604 651.044 563.569 641.153 561.526 C 631.45 560.272 621.607 560.588 612.005 562.463 L 612.005 562.467 C 610.318 562.842 608.564 563.217 607.009 563.592 L 602.509 565.026 C 597.212 566.752 591.814 568.151 586.345 569.205 C 581.329 569.74 576.282 569.908 571.243 569.701 C 566.302 569.514 561.376 568.994 556.505 568.147 L 556.505 568.143 C 552.388 567.272 548.517 566.455 545.021 565.651 C 541.217 564.338 537.662 562.959 534.541 561.901 C 533.725 561.647 532.975 561.404 532.225 561.217 C 532.1 561.151 531.228 560.776 530.732 560.588 C 529.795 560.256 528.877 559.861 527.986 559.408 C 524.092 555.151 520.732 550.428 517.994 545.346 L 517.99 545.346 L 515.685 541.288 L 510.943 543.538 C 498.697 549.749 485.1 552.835 471.373 552.518 C 454.314 551.354 437.635 546.928 422.248 539.479 L 422.248 539.483 C 413.444 535.733 404.709 531.362 394.967 527.116 C 390.225 525.061 385.416 522.933 380.615 520.815 C 378.115 519.757 375.873 518.558 373.248 517.628 C 370.623 516.702 368.006 515.698 365.381 514.761 C 354.889 511.018 344.033 507.081 333.42 503.585 C 328.115 501.772 322.611 500.085 317.248 498.155 C 311.884 496.221 306.58 494.225 301.15 492.229 C 291.942 488.928 282.821 485.674 273.962 482.366 C 265.103 479.057 255.735 476.499 246.876 473.62 C 238.446 470.694 229.766 468.311 221.899 465.069 C 218.04 463.444 214.165 461.823 210.36 460.202 C 208.485 459.385 206.489 458.635 204.735 457.831 C 202.86 456.827 200.985 455.835 199.11 454.897 C 169.215 439.354 141.876 425.748 119.274 414.256 C 118.094 413.701 116.969 413.139 115.844 412.576 C 108.605 408.124 101.426 403.444 94.75 398.514 C 93.867 397.764 93.063 397.014 92.246 396.198 C 86.246 390.241 80.637 383.905 75.453 377.225 L 75.457 377.225 C 66.718 366.303 61.347 360.365 60.23 360.873 C 58.109 356.244 56.816 351.279 56.414 346.201 C 57.257 344.299 57.433 342.162 56.918 340.146 L 56.922 340.146 C 53.172 323.666 71.836 304.943 81.887 294.021 C 91.731 283.662 103.669 275.514 116.903 270.115 L 116.899 270.115 C 117.395 269.982 117.903 269.861 118.465 269.674 C 124.895 267.49 132.567 264.928 141.059 262.061 C 149.981 259.045 159.118 256.729 168.399 255.135 L 168.399 255.131 C 188.313 251.822 206.988 250.764 220.59 249.451 C 234.191 248.139 242.808 246.385 242.742 244.576 C 242.675 242.767 234.257 240.955 220.523 239.775 C 202.347 238.17 184.047 238.799 166.027 241.65 C 163.718 242.025 161.347 242.533 158.976 243.029 C 163.902 233.763 168.285 224.216 172.101 214.435 C 179.152 197.857 189.445 182.853 202.371 170.306 C 209.324 165.028 215.465 158.763 220.605 151.708 L 220.609 151.708 C 222.164 151.333 223.785 150.958 225.539 150.583 C 229.839 149.833 233.835 149.216 237.144 148.653 C 271.625 155.578 295.906 191.223 309.332 223.426 C 309.437 223.634 309.554 223.833 309.687 224.024 L 309.691 224.028 C 303.39 225.583 297.832 227.337 293.593 228.837 C 286.601 231.141 282.195 233.45 282.484 235.259 C 282.773 237.067 287.407 238.325 294.961 238.38 C 304.61 238.04 314.211 236.915 323.676 235.012 L 323.672 235.012 C 324.856 234.759 325.922 234.637 327.04 234.45 C 360.005 242.747 394.111 244.313 426.923 254.485 C 466.75 266.841 505.949 278.888 546.523 288.751 C 628.773 307.618 708.895 334.79 785.653 369.845 C 824.47 387.88 861.083 410.333 894.763 436.755 C 906.22 445.81 918.482 453.732 930.595 461.974 C 949.259 474.771 961.654 494.872 976.654 511.419 C 1000.364 537.563 1032.755 554.86 1061.966 573.958 C 1081.365 585.528 1097.533 601.801 1108.974 621.274 C 1119.642 640.192 1116.962 656.102 1111.411 673.641 C 1104.884 676.395 1098.138 678.61 1091.247 680.258 C 1084.255 682.012 1076.762 683.071 1069.778 684.571 C 1060.372 686.094 1051.091 688.289 1041.997 691.133 L 1041.997 691.137 C 1031.697 694.383 1021.271 698.254 1010.47 701.938 C 999.802 705.247 988.747 708.809 976.954 711.922 C 970.962 713.672 965.157 715.352 959.29 717.04 C 953.422 718.727 947.555 720.415 942.313 722.477 C 939.563 723.469 936.876 724.473 934.258 725.411 L 930.321 726.903 L 928.325 727.598 L 926.958 728.161 L 926.02 728.59 C 920.899 730.774 915.969 732.958 911.094 735.02 C 901.504 739.266 892.243 743.391 883.692 747.375 C 875.141 751.359 867.211 755.11 859.973 758.859 C 852.735 762.609 846.118 765.863 840.688 769.171 C 835.258 772.484 830.637 775.417 826.887 777.976 C 819.462 783.031 815.59 786.273 816.153 787.398 C 816.716 788.523 821.638 787.277 830.075 784.156 C 834.321 782.597 839.442 780.534 845.309 778.042 C 851.216 775.792 857.852 773.23 865.278 770.363 C 872.528 767.429 880.7 764.363 889.505 761.062 L 917.454 750.25 C 922.395 748.308 927.45 746.379 932.567 744.316 L 948.169 739.011 C 953.661 736.949 959.032 735.636 964.649 734.015 C 970.267 732.39 976.013 730.769 981.751 729.148 C 993.556 726.027 1005.161 722.23 1016.337 718.48 C 1022.833 716.043 1029.067 713.672 1035.255 711.3 C 1038.622 710.672 1041.997 710.054 1046.364 709.613 C 1051.165 708.996 1056.079 708.488 1061.216 707.738 C 1066.353 706.988 1071.415 706.304 1076.216 705.554 L 1079.845 704.992 L 1083.025 704.617 C 1085.114 704.308 1087.22 704.125 1089.333 704.062 C 1096.634 703.558 1103.966 703.769 1111.224 704.691 C 1112.529 704.879 1113.72 705.066 1114.9 705.32 Z M 279.72 336.659 C 278.466 346.776 279.533 352.952 280.904 353.073 C 282.466 353.28 284.025 347.272 286.959 338.28 C 288.533 333.179 290.689 328.28 293.392 323.675 C 294.08 322.405 294.873 321.194 295.763 320.058 C 296.615 318.753 297.595 317.538 298.697 316.437 L 298.697 316.44 C 301.127 313.757 303.31 311.253 305.869 308.761 C 314.443 300.156 324.169 292.78 334.771 286.851 C 337.935 285.159 341.232 283.741 344.634 282.605 L 344.638 282.601 C 347.13 281.796 348.818 281.288 348.818 280.483 C 348.759 279.855 347.38 278.917 344.513 278.487 C 340.295 278.128 336.049 278.616 332.025 279.921 C 319.341 284.328 307.865 291.636 298.509 301.269 C 295.814 303.913 293.271 306.706 290.888 309.632 C 289.638 311.039 288.533 312.566 287.579 314.187 C 286.525 315.73 285.607 317.363 284.829 319.062 C 282.158 324.601 280.431 330.551 279.72 336.66 Z M 452.431 322.999 C 416.858 290.421 367.358 282.863 327.721 313.015 C 285.267 345.343 299.255 394.714 330.025 429.175 C 356.555 458.847 415 469.808 446.875 441.972 C 479.087 413.938 481.016 360.258 456.118 327.172 C 455.692 326.258 455.098 325.433 454.364 324.746 C 453.786 324.094 453.137 323.504 452.434 322.992 L 452.43 322.992 Z M 160.862 404.824 C 171.233 409.195 177.811 411.258 178.612 410.012 C 179.409 408.762 173.98 404.387 164.55 398.395 C 159.874 395.34 154.128 391.973 147.761 388.223 C 141.393 384.473 134.409 380.422 126.909 376.297 C 123.167 374.242 119.549 372.246 115.987 370.371 L 113.362 368.937 L 111.307 367.68 C 109.874 366.687 108.495 365.629 107.182 364.625 C 102.522 360.942 98.604 356.406 95.631 351.266 L 95.631 351.27 C 90.701 342.532 92.885 335.668 91.264 335.106 C 90.951 335.039 90.455 335.348 89.959 336.043 C 89.092 337.051 88.471 338.25 88.139 339.539 C 86.78 344.371 87.022 349.516 88.834 354.199 C 91.315 360.999 95.409 367.101 100.76 371.976 L 100.76 371.98 C 102.26 373.293 103.823 374.66 105.503 375.918 L 108.315 377.847 L 110.94 379.347 C 114.436 381.344 118.057 383.406 121.741 385.461 C 129.167 389.539 136.292 393.523 142.956 396.711 C 149.62 399.898 155.694 402.644 160.87 404.828 Z M 189.839 333.859 C 201.989 338.846 214.716 342.289 227.725 344.113 C 231.748 344.668 235.834 344.606 239.838 343.926 L 239.842 343.922 C 242.709 343.481 244.209 342.918 244.209 342.168 C 244.209 341.418 242.783 340.68 240.092 339.863 C 237.401 339.051 233.659 338.301 229.104 336.809 C 220.049 334.25 207.588 329.254 193.526 324.012 C 181.87 320.164 170.765 314.804 160.499 308.074 C 157.796 306.156 155.503 303.714 153.757 300.894 L 153.753 300.89 C 152.628 298.64 152.198 296.777 151.382 296.898 C 150.765 296.964 149.761 298.269 149.64 301.39 C 150.108 305.968 152.136 310.241 155.378 313.503 C 165.183 322.8 176.968 329.757 189.843 333.855 Z M 304.809 469.5 C 316.106 472.863 323.594 472.996 323.848 471.672 C 324.157 470.113 317.727 467.488 307.555 462.558 C 297.383 457.624 283.957 449.882 267.852 442.081 C 251.813 434.589 236.895 429.968 226.04 425.917 C 215.176 422.101 208.192 420.413 207.563 421.726 C 206.938 423.039 212.872 427.164 222.977 432.656 C 232.837 438.46 247.883 444.382 263.485 451.687 C 276.805 458.624 290.618 464.577 304.809 469.499 Z M 530.21 482.98 C 532.983 477.347 534.362 471.132 534.222 464.859 C 534.116 455.37 531.23 446.124 525.925 438.261 C 525.89 438.085 525.823 437.917 525.737 437.765 C 525.296 436.519 524.8 435.206 524.292 433.827 C 523.608 432.522 522.671 431.21 521.8 429.897 C 517.668 424.647 512.058 420.757 505.695 418.721 C 504.074 418.038 502.453 417.542 500.953 417.034 C 502.144 413.479 503.269 409.862 504.14 406.112 C 511.207 377.951 508.113 348.197 495.402 322.092 C 492.534 316.279 489.171 310.724 485.351 305.49 C 483.476 302.994 481.359 300.744 479.417 298.373 C 478.421 297.248 477.417 296.068 476.425 294.943 L 473.116 291.943 C 470.745 289.888 469.058 288.201 466.312 285.951 C 464.054 284.33 461.698 282.849 459.261 281.517 C 454.46 278.881 449.308 276.947 443.96 275.779 C 435.21 273.904 426.23 273.314 417.308 274.029 C 409.573 274.533 403.14 275.408 397.835 276.213 C 387.347 277.779 381.475 278.838 381.542 279.775 C 381.608 280.713 387.53 281.463 398.21 281.517 C 403.515 281.584 410.003 281.463 417.437 281.705 C 425.586 281.795 433.687 282.951 441.531 285.146 C 445.863 286.369 450.004 288.193 453.824 290.576 C 455.941 291.865 457.965 293.302 459.879 294.877 C 461.629 296.564 463.375 298.306 465.183 300.06 L 467.996 302.873 C 468.867 303.869 469.683 304.994 470.554 305.986 C 472.179 308.17 473.988 310.232 475.609 312.549 C 478.801 317.326 481.621 322.342 484.047 327.549 C 494.761 351.154 497.16 377.689 490.855 402.83 C 487.832 415.721 482.316 427.892 474.617 438.662 C 470.899 443.716 466.672 448.384 462.008 452.584 L 458.454 455.884 L 455.145 458.255 C 452.918 459.982 450.485 461.427 447.907 462.568 C 437.981 467.216 427.09 469.42 416.137 468.998 C 406.188 468.705 396.293 467.408 386.606 465.127 C 372.273 461.522 358.184 457.018 344.418 451.647 C 334.593 447.842 328.874 445.912 328.48 446.717 C 328.086 447.522 332.773 451.084 342.148 456.447 C 355.444 463.912 369.487 469.959 384.046 474.494 C 394.35 477.592 404.964 479.557 415.694 480.354 C 425.819 481.03 435.983 479.869 445.694 476.92 C 447.768 481.924 450.846 486.452 454.741 490.217 C 462.01 497.268 470.979 502.323 480.776 504.889 C 486.726 506.393 492.889 506.881 498.999 506.323 C 505.916 505.545 512.459 502.795 517.854 498.401 C 519.033 497.342 520.158 496.526 521.35 495.335 L 524.904 491.405 C 525.975 490.104 526.955 488.729 527.838 487.292 C 528.795 485.952 529.592 484.502 530.209 482.979 Z M 740.139 403.272 C 760.549 412.693 773.253 418.291 773.936 417.045 C 774.62 415.799 763.069 407.811 743.475 396.635 C 717.818 382.021 691.193 369.181 663.787 358.197 L 663.791 358.197 C 647.681 351.897 632.017 346.526 617.533 342.467 C 604.674 338.815 591.576 336.065 578.334 334.233 C 555.431 331.166 541.509 333.162 541.443 334.354 C 541.443 336.041 555.654 336.791 577.068 341.592 C 605.369 348.139 633.092 356.971 659.963 368.002 C 691.631 380.631 719.784 393.756 740.139 403.291 Z M 846.998 579.911 C 877.775 577.501 903.556 576.29 903.568 573.13 C 903.568 571.689 897.201 570.318 886.834 569.447 C 873.252 568.279 859.596 568.279 846.014 569.447 C 832.21 570.665 818.643 573.794 805.702 578.747 L 805.706 578.751 C 796.089 582.931 790.725 586.552 791.222 587.986 C 791.719 589.419 798.215 588.048 808.199 585.743 C 817.957 583.802 831.605 581.431 847.019 579.931 Z M 884.331 488.345 C 905.178 501.076 921.85 511.502 923.866 509.15 C 925.675 507.088 911.124 492.428 889.909 479.377 C 868.741 466.701 850.46 458.283 848.96 460.775 C 847.46 463.267 863.257 475.689 884.351 488.365 Z M 999.811 583.353 C 1020.85 588.9 1038.202 593.9 1039.319 591.083 C 1040.389 588.524 1024.526 578.974 1002.428 573.169 C 992.897 570.673 983.065 569.517 973.213 569.74 C 965.791 570.236 961.299 571.623 961.299 573.115 C 961.299 574.607 965.912 575.798 972.971 577.166 C 979.768 578.666 989.319 580.728 999.811 583.353 Z M 869.473 842.138 C 882.458 837.525 890.013 833.552 889.532 832.115 C 889.055 830.681 880.665 832.31 867.493 834.927 C 854.321 837.544 836.099 841.482 815.997 843.666 C 799.239 846.318 782.106 845.357 765.747 840.853 C 761.036 839.279 756.63 836.919 752.708 833.869 C 749.841 831.74 748.153 829.998 747.525 830.56 C 747.095 830.994 747.337 833.123 749.587 836.552 C 752.958 841.334 757.49 845.181 762.759 847.728 C 779.931 854.888 798.763 857.119 817.134 854.158 C 834.989 852.138 852.56 848.091 869.501 842.103 Z M 988.634 805.756 C 1007.779 800.072 1022.657 794.579 1022.177 791.529 C 1021.747 788.724 1004.892 789.907 985.794 795.587 C 967.313 801.032 951.329 805.72 951.958 808.712 C 952.52 811.4 968.684 811.587 988.661 805.72 Z M 634.797 985.4 C 627.558 985.709 619.316 995.009 614.031 998.572 C 605.937 1003.369 598.453 1009.134 591.746 1015.736 C 589.59 1014.22 586.887 1013.696 584.32 1014.302 C 579.748 1015.263 575.332 1016.86 571.201 1019.041 C 572.138 1017.292 572.942 1015.481 573.758 1013.739 C 587.547 994.883 612.645 982.395 632.051 970.856 C 654.773 957.375 677.808 944.203 700.656 930.844 C 724.035 916.188 748.969 904.173 775 895.012 C 785.027 896.098 795.125 896.454 805.207 896.071 C 794.277 898.481 783.586 901.845 773.246 906.122 C 735.058 922.294 699.413 946.138 663.956 967.427 C 654.488 973.099 644.542 979.033 634.8 985.4 Z M 571.199 1019.044 L 571.195 1019.044 C 571.197 1019.043 571.199 1019.042 571.201 1019.041 C 571.2 1019.042 571.2 1019.043 571.199 1019.044 Z M 636.3 995.45 C 643.292 996.079 647.409 1012.618 649.163 1025.106 C 649.171 1025.751 649.151 1026.395 649.097 1027.036 C 648.811 1027.333 648.542 1027.645 648.288 1027.973 C 644.269 1034.696 638.276 1040.016 631.124 1043.207 C 627.87 1043.77 624.761 1044.145 622.378 1044.387 C 616.515 1045.063 610.608 1045.27 604.714 1045.016 C 594.608 1044.661 595.226 1035.341 596.042 1027.786 C 608.312 1015.649 621.8 1004.813 636.3 995.45 Z"/>
</svg>