<!-- Generated by IcoMoon.io -->
<svg version="1.1" xmlns="http://www.w3.org/2000/svg" width="32" height="32" viewBox="0 0 32 32">
<path d="M21.631 19.134c0.042-0.061 0.084-0.122 0.127-0.184 0.247-0.31 0.413-0.684 0.482-1.086s0.036-0.815-0.093-1.198c-0.032-0.091-0.081-0.174-0.143-0.245 1.091-0.322 2.217-0.481 3.348-0.471h0c0.675 0.026 1.279 0.3 1.926 0.463 0.505 0.126 0.864 0.131 1.176 0.576-0.099-0.008-0.207-0.018-0.327-0.027-0.274-0.022-0.605-0.047-0.982-0.051-0.095 0.002-0.193 0.004-0.292 0.008s-0.209 0.018-0.315 0.027c-0.062 0.004-0.124 0.013-0.185 0.026-0.018-0.003-0.037-0.003-0.055-0.002-0.965 0.045-1.741 0.449-2.554 0.982-0.681 0.445-1.404 0.802-2.114 1.183h-0zM16.173 24.144c-1.093 0.396-1.987 0.168-3.008-0.327-0.717-0.401-1.477-0.708-2.263-0.914-0.93-0.193-1.906 0.053-2.807-0.307 0.052-0.14 0.122-0.271 0.207-0.39 0.022-0.029 0.042-0.059 0.060-0.091 0.184-0.133 0.3-0.351 0.314-0.589 0.003-0.047 0.002-0.093-0.002-0.14 1.2 0.317 2.55-0.203 3.772 0.152 0.061 0.018 0.125-0.009 0.157-0.068s0.022-0.133-0.023-0.18c-0.598-0.566-1.244-1.070-1.93-1.506-0.194-0.134-0.397-0.253-0.606-0.357 0.191 0.060 0.397 0.021 0.558-0.104l-0-0c0.149-0.17 0.099-0.44-0.018-0.72 0.866 0.708 1.71 1.407 2.812 1.804 0.054 0.015 0.111-0.007 0.145-0.054s0.038-0.112 0.011-0.164c-0.528-0.784-0.96-1.664-1.517-2.42-0.142-0.219-0.317-0.41-0.518-0.567l0 0c-0.258-0.175-0.522-0.032-0.799-0.032-0.2-0.002-0.394 0.012-0.473-0.229-0.097-0.302-0.163-0.623-0.27-0.928 0.481 0.276 0.961 0.553 1.44 0.829 0.218 0.126 0.442 0.244 0.668 0.36 0.426 0.714 1.007 1.265 1.438 1.971 0.402 0.658 0.729 1.34 1.341 1.801 0.897 0.676 1.725-0.859 1.736-1.681 0.006-0.012 0.011-0.026 0.017-0.038 0.013-0.029 0.028-0.058 0.046-0.085l0.011-0.016c0 0 0.006-0.008 0.007-0.012l0.039-0.041c0.029-0.033 0.062-0.071 0.092-0.102l0.084-0.079c0.057-0.053 0.13-0.11 0.196-0.163 0.509-0.36 1.060-0.647 1.638-0.853 0.449-0.172 0.737-0.266 0.734-0.341s-0.321-0.126-0.824-0.045c-0.479 0.080-0.944 0.24-1.378 0.474v-0c-0.132-0.107-0.266-0.207-0.404-0.304 0.090 0.006 0.173 0.010 0.248 0.010 0.295-0.002 0.477-0.041 0.479-0.085 0-0.106-0.721-0.146-1.523-0.435-0.083-0.033-0.161-0.069-0.238-0.107-0.026-0.012-0.048-0.025-0.074-0.037-0.014-0.008-0.029-0.016-0.044-0.022-0.229-0.12-0.844-0.388-0.783-0.776 0.088-0.558 1.416-0.24 1.748-0.234 0.438 0.008 0.876 0.016 1.317 0.016 0.347 0.002 1-0.152 1.315-0.020 0.005 0 0.009 0.002 0.013 0.004 0.493 0.205 2.168 0.457 2.37 1.019 0.367 1.020-0.651 1.903-1.15 2.634-0.668 0.973-1.307 1.963-2.024 2.897-0.625 0.757-1.435 1.31-2.339 1.594v-0zM8.675 21.386l0-0c0 0 0 0 0 0s-0-0-0-0zM14.541 23.494c-0.118-0.018-0.186-0.018-0.192 0.004s0.050 0.063 0.154 0.118c0.156 0.070 0.317 0.124 0.482 0.16 0.245 0.056 0.494 0.087 0.744 0.093 0.318 0.016 0.636-0.042 0.932-0.17 0.29-0.149 0.544-0.368 0.741-0.641 0.154-0.208 0.296-0.425 0.426-0.651h-0c0.218-0.378 0.358-0.601 0.328-0.635s-0.239 0.148-0.504 0.495c-0.135 0.173-0.286 0.38-0.466 0.587-0.179 0.225-0.4 0.408-0.648 0.538-0.258 0.11-0.533 0.167-0.811 0.168-0.236 0.010-0.473 0.004-0.708-0.018-0.206-0.016-0.361-0.037-0.479-0.049l0 0.001zM8.1 21.289c0.429 0.34-0.104 0.768-0.351 1.082-0.029 0.037-0.055 0.077-0.079 0.118h-0c-0.136 0.256-0.11 0.664-0.499 0.601-0.176-0.066-0.332-0.181-0.454-0.334s-0.202-0.336-0.235-0.534c-0.064-0.433 0.062-0.873 0.341-1.192 0.187-0.153 0.423-0.222 0.657-0.193 0.314 0.034 0.391 0.268 0.62 0.451v-0zM8.538 21.036c-0.041-0.051-0.090-0.095-0.143-0.13h-0c0.466-0.566 0.312-1.23-0.059-1.811 0.187 0.054 0.374 0.105 0.563 0.148 0.246 0.103 0.497 0.205 0.749 0.326 0.858 0.412 1.661 0.947 2.385 1.59-1.153-0.136-2.416 0.278-3.495-0.122h-0zM15.141 26.18c-0.004-0.002-0.005-0.004-0.009-0.007-0.216-0.083-0.388-0.264-0.468-0.495s-0.062-0.488 0.050-0.703c0.309 0.048 0.623 0.049 0.932 0.002 0.076 0.097 0.119 0.219 0.124 0.345s-0.030 0.251-0.098 0.355c-0.231 0.099-0.343 0.346-0.53 0.503v-0zM15.414 28.119c-0.022 0.019-0.042 0.039-0.064 0.060 0.013-0.14 0.004-0.281-0.026-0.418-0.007-0.028-0.018-0.054-0.031-0.079h0c0.372-0.231 0.671-0.635 1.029-0.867 0.6-0.388 1.262-0.71 1.882-1.058 0.569-0.321 1.11-0.742 1.681-1.036 0.211 0.090 0.428 0.162 0.649 0.215-1.141 0.481-2.198 1.358-3.247 1.954-0.658 0.348-1.285 0.76-1.874 1.23h-0zM7.344 18.014c-0.047-0.079-0.127-0.129-0.215-0.133-0.771-0.045-1.147-0.536-0.778-1.372 0.113-0.254 0.31-0.452 0.553-0.557s0.513-0.109 0.758-0.010h-0c0.299 0.14 0.449 0.52 0.591 0.808 0.276 0.554 0.767 0.948 1.339 1.074 0.126 0.093 0.253 0.187 0.378 0.284 0.217 0.396 0.534 1.027 0.328 1.033-0.463-0.003-0.924-0.068-1.372-0.193-0.39-0.147-0.768-0.324-1.134-0.53-0.142-0.144-0.292-0.279-0.449-0.403l-0-0zM15.937 24.917c0.988-0.289 1.889-0.852 2.611-1.632 0.093 0.352 0.278 0.667 0.532 0.91v0c-0.567 0.188-1.088 0.69-1.605 0.958-0.339 0.175-0.691 0.32-1.051 0.436-0.143 0.032-0.289 0.043-0.435 0.031 0.084-0.231 0.065-0.49-0.052-0.704zM17.877 25.271c0.465-0.241 0.954-0.765 1.481-0.844 0.067 0.049 0.137 0.093 0.209 0.134-0.972 0.522-1.899 1.21-2.882 1.726-0.437 0.207-0.841 0.489-1.194 0.834-0.419 0.376-0.936 0.603-1.481 0.651 0.138-0.138 0.292-0.258 0.437-0.382 0.225-0.195 0.405-0.449 0.638-0.631 0.045-0.037 0.080-0.086 0.101-0.142 0.028-0.032 0.050-0.070 0.066-0.11 0.18-0.128 0.344-0.281 0.488-0.455 0.309-0.177 0.672-0.152 1.026-0.264 0.382-0.141 0.754-0.314 1.111-0.517l-0-0zM30.466 13.789c-0.836-0.81-2.227-1.321-3.33-1.636-0.198-0.252-0.385-0.512-0.593-0.755 1.164 0.503 2.3 1.078 3.403 1.72v0c0.591 0.326 1.556 1.205 1.923 2.102-0.424-0.524-0.894-1.003-1.404-1.431zM29.807 13.649c0.838 0.493 1.85 1.463 2.193 2.46-0.043 0.24-0.156 0.458-0.323 0.625v0c-0.077-0.224-0.18-0.441-0.266-0.639-0.472-1.056-1.5-1.652-2.374-2.263-0.55-0.361-1.064-0.781-1.534-1.253 0.798 0.278 1.57 0.636 2.304 1.070zM3.851 16.369c-0.051 0.225-0.378 0.126-0.526 0.051-0.389-0.201-0.028-0.676 0.251-0.767 0.015-0.006 0.026-0.012 0.039-0.018 0.608-0.034 1.208-0.168 1.778-0.398-0.386 0.314-0.794 0.597-1.22 0.845-0.041 0-0.082 0.004-0.123 0.010-0.118 0.032-0.2 0.146-0.198 0.276h0zM3.174 2.866c-0.242 0.396-0.372 1.151-0.721 1.532-0.145-0.421-0.132-0.886 0.037-1.297 0.024 0.043 0.051 0.083 0.083 0.12 0.055 0.057 0.131 0.085 0.207 0.074s0.143-0.057 0.183-0.128c0.114-0.254 0.126-0.547 0.033-0.81 0.281-0.277 0.605-0.501 0.956-0.662 0.009 0.020 0.022 0.038 0.037 0.053v0c-0.057 0.047-0.112 0.094-0.161 0.144-0.253 0.295-0.472 0.622-0.651 0.974zM14.841 27.901c0.486-0.207 0.072 0.82-0.020 0.987-0.171 0.334-0.41 0.623-0.699 0.846l-0.038 0.024c-0.035 0.025-0.072 0.047-0.11 0.067-0.002 0.002-0.002 0.004-0.005 0.006-0.099 0.057-0.202 0.104-0.31 0.138-0.694 0.209-1.306-1.269-0.703-1.732 0.334-0.049 0.671-0.006 1.002-0.061 0.303-0.055 0.6-0.147 0.884-0.274zM4.751 16.202c0.311-0.183 0.609-0.39 0.891-0.621h0c0.228-0.178 0.468-0.342 0.689-0.533 0.011-0.012 0.024-0.024 0.037-0.036-0.062 0.248-0.147 0.489-0.253 0.719-0.064 0.116-0.127 0.237-0.187 0.361-0.077 0.122-0.141 0.253-0.193 0.39-0.131 0.276-0.3 0.529-0.501 0.751-0.099-0.384-0.302-0.728-0.583-0.987 0.034-0.013 0.068-0.028 0.101-0.045v0zM5.667 17.603c0.115 0.267 0.308 0.486 0.55 0.623-0.488 0.132-0.947 0.284-1.007 0.942-0.068 0.753-1.517 0.469-1.715-0.099-0.255-0.731 1.239-1.040 1.66-1.277 0.081-0.041 0.134-0.128 0.138-0.225 0.11-0.092 0.21-0.196 0.301-0.31 0.004 0.119 0.029 0.236 0.074 0.345l0-0zM16.337 15.724c-0.443-0.015-1.259-0.216-1.628 0.167-0.301 0.314-0.217 0.633 0.066 0.921 0.184 0.161 0.392 0.287 0.616 0.37 0.177 0.125 0.366 0.227 0.565 0.305l0-0c0.031 0.012 0.064 0.022 0.095 0.032 0.33 0.183 0.646 0.392 0.946 0.627h-0c-0.071 0.047-0.143 0.095-0.215 0.148-0.082 0.067-0.16 0.128-0.238 0.205l-0.114 0.116c-0.035 0.037-0.062 0.071-0.092 0.106l-0.020 0.024c-0.574-0.382-1.204-0.518-1.812-0.841-0.684-0.365-1.368-0.751-2.047-1.137-0.027-0.023-0.057-0.040-0.090-0.051v-0c-0.030-0.016-0.059-0.031-0.088-0.049-0.431-0.246-0.864-0.495-1.295-0.743 0.251 0.007 0.502-0.005 0.752-0.036 0.483-0.061 0.776-0.102 0.776-0.15s-0.306-0.085-0.785-0.085c-0.238-0.004-0.528-0.004-0.827-0.038-0.078-0.008-0.156-0.020-0.233-0.037l0 0c-0.041-0.008-0.083-0.016-0.125-0.026l-0.11-0.036c-0.079-0.027-0.158-0.047-0.238-0.081-0.072-0.034-0.147-0.067-0.22-0.1-0.763-0.448-1.52-0.911-2.264-1.395-0.822-0.536-1.607-1.132-2.394-1.724 0.040 0.016 0.082 0.030 0.125 0.045 0.252 0.093 0.508 0.171 0.769 0.274s0.525 0.209 0.792 0.314c0.165 0.065 0.328 0.13 0.49 0.193 0.161 0.057 0.321 0.115 0.481 0.17 0.321 0.111 0.62 0.223 0.913 0.331 0.076 0.025 0.147 0.049 0.22 0.079s0.145 0.065 0.218 0.096c0.143 0.065 0.286 0.128 0.426 0.191 0.275 0.12 0.55 0.256 0.82 0.369 0.512 0.241 1.063 0.369 1.622 0.377 0.418-0.012 0.828-0.133 1.194-0.351 0.112 0.167 0.25 0.312 0.407 0.429 0.046 0.036 0.096 0.066 0.148 0.091h0c0.073 0.053 0.154 0.112 0.25 0.173 0.136 0.068 0.276 0.128 0.418 0.179 0.151 0.050 0.306 0.086 0.462 0.107 0.186 0.027 0.373 0.033 0.56 0.018v-0c0.095-0.020 0.194-0.038 0.293-0.057 0.028-0.008 0.046-0.010 0.079-0.020l0.066-0.022 0.13-0.044 0.132-0.045c0.040-0.012 0.079-0.018 0.117-0.028l0.072-0.020c0.028 0.021 0.059 0.037 0.092 0.046 0.678 0.169 1.347 0.375 2.005 0.617h0c-0.761 0.022-1.526 0.023-2.284-0.004v-0zM6.915 14.633c0.18-0.075 0.368-0.125 0.56-0.149h0c0.58 0.382 1.172 0.745 1.768 1.098 0.211 0.548 0.391 1.109 0.541 1.679-0.509-0.133-0.934-0.506-1.157-1.015-0.163-0.33-0.399-0.611-0.689-0.818-0.468-0.355-1.046-0.173-1.492 0.137 0.127-0.326 0.284-0.639 0.468-0.932v-0zM12.826 19.548c0.050 0.085 0.163 0.371 0.246 0.408-0.998-0.449-1.798-1.158-2.638-1.839 0.044-0.165 0.065-0.335 0.062-0.506l0-0c0.011-0.094 0.079-0.14 0.167-0.157 0.251 0 0.615-0.049 0.816 0.13 0.218 0.216 0.412 0.458 0.579 0.721 0.186 0.266 0.357 0.547 0.524 0.829 0.083 0.139 0.163 0.277 0.244 0.414v-0zM26.286 23.671c0.107-0.027 0.231-0.065 0.37-0.113-0.848 0.831-2.014 1.046-3.187 1.238 0.71-0.222 1.402-0.545 2.073-0.829 0.248-0.107 0.496-0.201 0.744-0.296h0zM8.393 9.954c-0.97-0.985-0.914-2.365 0.237-3.132 0.886-0.591 2.035-0.114 2.717 0.587 0.642 0.846 0.539 2.41-0.343 3.029-0.824 0.578-1.968 0.166-2.61-0.485l-0-0zM8.785 7.902c-0.066-0.008-0.132 0.016-0.18 0.066s-0.072 0.12-0.066 0.191c0.021 0.509 0.551 0.7 0.937 0.818 0.409 0.126 1.036 0.364 1.422 0.085 0.046-0.032 0.081-0.080 0.099-0.136 0.040-0.069 0.048-0.155 0.019-0.232s-0.089-0.133-0.163-0.153c-0.479-0.157-0.947-0.352-1.398-0.585-0.206-0.122-0.451-0.142-0.671-0.053zM13.629 10.878c0.048 0.139 0.083 0.248 0.114 0.313 0.014 0.085 0.019 0.172 0.017 0.258-0.004 0.152-0.040 0.3-0.105 0.435-0.015 0.036-0.034 0.070-0.055 0.102-0.020 0.033-0.042 0.065-0.066 0.095l-0.072 0.087c-0.031 0.032-0.064 0.062-0.099 0.091-0.112 0.1-0.248 0.163-0.393 0.183-0.144 0.016-0.289 0.010-0.431-0.019-0.249-0.058-0.484-0.174-0.686-0.341-0.102-0.086-0.192-0.187-0.266-0.302 0.026-0.012 0.053-0.022 0.079-0.036 0.096-0.043 0.186-0.098 0.27-0.163 0.046-0.036 0.081-0.059 0.138-0.104l0.106-0.102c0.158-0.149 0.302-0.315 0.429-0.495 0.135-0.194 0.25-0.405 0.341-0.627 0.048 0.018 0.097 0.036 0.141 0.055 0.138 0.044 0.263 0.125 0.365 0.234 0.018 0.025 0.044 0.045 0.059 0.075s0.030 0.059 0.042 0.087c0.028 0.056 0.052 0.114 0.071 0.174l0 0zM31.109 19.049c0.69 0.461 0.709 1.411 0.517 2.261-0.205 0.918-1.054 1.397-1.715 1.92-1.323 1.042-2.669 2.004-4.223 2.605-1.409 0.544-2.908 0.477-4.348 0.875-1.35 0.374-2.471 1.427-3.649 2.182 0.012-0.338-0.104-0.666-0.323-0.909 0.405-0.272 0.818-0.526 1.209-0.779 1.106-0.71 2.224-1.464 3.46-1.89 1.074-0.371 2.233-0.276 3.326-0.67 0.71-0.234 1.345-0.677 1.833-1.279l0-0c0.383-0.154 0.822-0.353 1.284-0.58 0.692-0.325 1.277-0.674 1.712-0.853 0.055-0.024 0.107-0.049 0.156-0.067s0.093-0.034 0.136-0.049c0.075-0.033 0.153-0.060 0.231-0.083 0.136-0.041 0.21-0.083 0.207-0.122s-0.079-0.073-0.217-0.099c-0.087-0.015-0.176-0.018-0.264-0.010l0-0c-0.053 0.004-0.11 0.006-0.171 0.012-0.057 0.012-0.117 0.022-0.18 0.034-0.292 0.064-0.578 0.157-0.854 0.278h-0c-0.152 0.065-0.312 0.136-0.471 0.211-0.019 0.007-0.037 0.016-0.055 0.026-0.071-0.025-0.148-0.016-0.213 0.024v-0c-1.425 0.832-3.095 1.35-4.625 1.936-0.828 0.34-1.711 0.495-2.596 0.457-0.897-0.055-2.178-0.522-2.25-1.62-0.002-0.027-0.006-0.053-0.015-0.079 0.193-0.227 0.371-0.455 0.532-0.678 0.44-0.613 0.875-1.233 1.308-1.855 0.012-0.003 0.023-0.009 0.033-0.016l-0-0c0.873-0.548 1.818-0.94 2.693-1.48 0.481-0.296 0.929-0.605 1.407-0.836l0.011-0.004 0.033-0.010c0.046-0.012 0.092-0.026 0.138-0.039 0.093-0.027 0.187-0.057 0.284-0.087 0.193-0.063 0.389-0.101 0.589-0.156l0.136-0.038 0.086-0.018c0.011 0 0.022-0.002 0.035-0.002 0.038-0.003 0.075-0.013 0.11-0.030 0.070-0.018 0.141-0.031 0.213-0.039h-0c0.092-0.010 0.178-0.028 0.27-0.036s0.183-0.016 0.271-0.024c0.358-0.028 0.688-0.041 0.969-0.071 0.565-0.055 0.906-0.179 0.895-0.254-0.005-0.037-0.084-0.061-0.222-0.081-0.149-0.36-0.422-0.644-0.761-0.792-0.229-0.049-0.46-0.084-0.692-0.107-0.429-0.101-0.853-0.227-1.27-0.378v0c-1.389-0.387-2.998 0.067-4.364 0.441-0.403-0.229-0.968-0.29-1.321-0.414-0.598-0.211-1.18-0.435-1.766-0.647-0.187-0.134-0.387-0.246-0.596-0.337-0.273-0.126-0.557-0.222-0.848-0.286-0.285-0.040-0.574-0.030-0.857 0.030v0c-0.050 0.012-0.101 0.024-0.147 0.036l-0.132 0.045c-0.156 0.055-0.314 0.099-0.475 0.132-0.147 0.017-0.296 0.022-0.444 0.016-0.145-0.006-0.29-0.022-0.433-0.049v-0c-0.121-0.027-0.235-0.053-0.338-0.079-0.112-0.041-0.216-0.085-0.308-0.118-0.024-0.008-0.046-0.016-0.068-0.022-0.004-0.002-0.029-0.014-0.044-0.020-0.028-0.010-0.055-0.023-0.081-0.037-0.114-0.134-0.213-0.284-0.294-0.444h-0l-0.068-0.128-0.139 0.071c-0.36 0.196-0.76 0.294-1.163 0.284-0.501-0.037-0.992-0.177-1.444-0.412v0c-0.259-0.118-0.515-0.256-0.802-0.39-0.139-0.065-0.281-0.132-0.422-0.199-0.073-0.033-0.139-0.071-0.217-0.101s-0.154-0.061-0.231-0.091c-0.308-0.118-0.627-0.242-0.939-0.353-0.156-0.057-0.318-0.111-0.475-0.171s-0.314-0.124-0.473-0.187c-0.271-0.104-0.539-0.207-0.799-0.311s-0.536-0.185-0.796-0.276c-0.248-0.092-0.503-0.168-0.734-0.27-0.113-0.051-0.227-0.102-0.339-0.154-0.055-0.026-0.114-0.049-0.165-0.075-0.055-0.032-0.11-0.063-0.165-0.093-0.879-0.491-1.682-0.92-2.346-1.283-0.035-0.018-0.068-0.035-0.101-0.053-0.213-0.141-0.424-0.288-0.62-0.444-0.026-0.024-0.050-0.047-0.074-0.073-0.176-0.188-0.341-0.388-0.494-0.599h0c-0.257-0.345-0.415-0.532-0.448-0.516-0.062-0.146-0.1-0.303-0.112-0.463 0.025-0.060 0.030-0.128 0.015-0.191h0c-0.11-0.52 0.438-1.111 0.734-1.456 0.289-0.327 0.64-0.584 1.029-0.755h-0c0.015-0.004 0.030-0.008 0.046-0.014 0.189-0.069 0.414-0.15 0.664-0.24 0.262-0.095 0.531-0.168 0.804-0.219v-0c0.585-0.104 1.134-0.138 1.534-0.179s0.653-0.097 0.651-0.154-0.249-0.114-0.653-0.152c-0.534-0.051-1.072-0.031-1.602 0.059-0.068 0.012-0.138 0.028-0.207 0.044 0.145-0.293 0.274-0.594 0.386-0.903 0.207-0.523 0.51-0.997 0.89-1.393 0.204-0.167 0.385-0.364 0.536-0.587h0c0.046-0.012 0.093-0.024 0.145-0.036 0.126-0.024 0.244-0.043 0.341-0.061 1.013 0.219 1.727 1.344 2.122 2.361 0.003 0.007 0.007 0.013 0.010 0.019l0 0c-0.185 0.049-0.349 0.104-0.473 0.152-0.205 0.073-0.335 0.146-0.327 0.203s0.145 0.097 0.367 0.099c0.284-0.011 0.566-0.046 0.844-0.106h-0c0.035-0.008 0.066-0.012 0.099-0.018 0.969 0.262 1.971 0.311 2.936 0.633 1.171 0.39 2.323 0.771 3.515 1.082 2.417 0.596 4.772 1.454 7.028 2.56 1.141 0.569 2.217 1.278 3.207 2.113 0.337 0.286 0.697 0.536 1.053 0.796 0.549 0.404 0.913 1.039 1.354 1.561 0.697 0.825 1.649 1.372 2.507 1.975 0.57 0.365 1.045 0.879 1.381 1.494 0.314 0.597 0.235 1.1 0.072 1.653-0.192 0.087-0.39 0.157-0.593 0.209-0.205 0.055-0.426 0.089-0.631 0.136-0.277 0.048-0.549 0.117-0.816 0.207v0c-0.303 0.102-0.609 0.225-0.927 0.341-0.314 0.104-0.638 0.217-0.985 0.315-0.176 0.055-0.347 0.108-0.519 0.162s-0.345 0.107-0.499 0.172c-0.081 0.031-0.16 0.063-0.237 0.093l-0.116 0.047-0.059 0.022-0.040 0.018-0.028 0.014c-0.151 0.069-0.295 0.138-0.439 0.203-0.282 0.134-0.554 0.264-0.805 0.39s-0.484 0.244-0.697 0.363c-0.213 0.118-0.407 0.221-0.567 0.326s-0.295 0.197-0.406 0.278c-0.218 0.16-0.332 0.262-0.315 0.297s0.161-0.004 0.409-0.102c0.125-0.049 0.275-0.114 0.448-0.193 0.174-0.071 0.369-0.152 0.587-0.242 0.213-0.093 0.453-0.189 0.712-0.294l0.821-0.341c0.145-0.061 0.294-0.122 0.444-0.187l0.459-0.168c0.161-0.065 0.319-0.107 0.484-0.158s0.334-0.102 0.503-0.154c0.347-0.099 0.688-0.218 1.017-0.337 0.191-0.077 0.374-0.152 0.556-0.227 0.099-0.020 0.198-0.039 0.326-0.053 0.141-0.019 0.286-0.036 0.437-0.059s0.299-0.045 0.441-0.069l0.107-0.018 0.093-0.012c0.061-0.010 0.123-0.016 0.185-0.018 0.215-0.016 0.43-0.009 0.643 0.020 0.038 0.006 0.073 0.012 0.108 0.020v0zM6.563 7.409c-0.037 0.319-0.005 0.514 0.035 0.518 0.046 0.007 0.092-0.183 0.178-0.467 0.046-0.161 0.11-0.316 0.189-0.461 0.020-0.040 0.044-0.078 0.070-0.114 0.025-0.041 0.054-0.080 0.086-0.114v0c0.071-0.085 0.136-0.164 0.211-0.242 0.252-0.272 0.538-0.505 0.849-0.692 0.093-0.053 0.19-0.098 0.29-0.134l0-0c0.073-0.025 0.123-0.041 0.123-0.067-0.002-0.020-0.042-0.049-0.127-0.063-0.124-0.011-0.249 0.004-0.367 0.045-0.373 0.139-0.71 0.37-0.985 0.674-0.079 0.083-0.154 0.172-0.224 0.264-0.037 0.044-0.069 0.093-0.097 0.144-0.031 0.049-0.058 0.1-0.081 0.154-0.079 0.175-0.129 0.363-0.15 0.556v-0zM11.639 6.978c-1.046-1.029-2.5-1.267-3.665-0.315-1.248 1.021-0.837 2.58 0.068 3.668 0.78 0.937 2.497 1.283 3.434 0.404 0.947-0.885 1.003-2.58 0.272-3.625-0.013-0.029-0.030-0.055-0.052-0.077-0.017-0.021-0.036-0.039-0.057-0.055h-0l0 0zM3.070 9.562c0.305 0.138 0.498 0.203 0.522 0.164s-0.136-0.178-0.413-0.367c-0.137-0.096-0.306-0.203-0.493-0.321s-0.392-0.246-0.613-0.377c-0.11-0.065-0.216-0.128-0.321-0.187l-0.077-0.045-0.060-0.040c-0.042-0.031-0.083-0.065-0.121-0.096-0.137-0.116-0.252-0.259-0.34-0.422v0c-0.145-0.276-0.081-0.493-0.128-0.51-0.009-0.002-0.024 0.008-0.038 0.030-0.025 0.032-0.044 0.070-0.053 0.11-0.040 0.153-0.033 0.315 0.020 0.463 0.073 0.215 0.193 0.407 0.35 0.561v0c0.044 0.041 0.090 0.085 0.139 0.124l0.083 0.061 0.077 0.047c0.103 0.063 0.209 0.128 0.317 0.193 0.218 0.129 0.428 0.255 0.624 0.355s0.374 0.187 0.526 0.256l-0-0zM3.921 7.321c0.357 0.157 0.731 0.266 1.113 0.324 0.118 0.018 0.238 0.016 0.356-0.006l0-0c0.084-0.014 0.128-0.032 0.128-0.055s-0.042-0.047-0.121-0.073c-0.079-0.026-0.189-0.049-0.323-0.096-0.266-0.081-0.632-0.239-1.046-0.404-0.343-0.122-0.669-0.291-0.971-0.503-0.079-0.061-0.147-0.138-0.198-0.227l-0-0c-0.033-0.071-0.046-0.13-0.070-0.126-0.018 0.002-0.048 0.043-0.051 0.142 0.014 0.145 0.073 0.279 0.169 0.382 0.288 0.294 0.635 0.513 1.013 0.643l-0 0zM7.3 11.604c0.332 0.106 0.552 0.11 0.56 0.069 0.009-0.049-0.18-0.132-0.479-0.288s-0.694-0.4-1.167-0.647c-0.471-0.237-0.91-0.382-1.229-0.51-0.319-0.12-0.525-0.174-0.543-0.132s0.156 0.172 0.453 0.345c0.29 0.183 0.732 0.37 1.191 0.601 0.391 0.219 0.797 0.407 1.215 0.562v0zM13.925 12.029c0.082-0.178 0.122-0.374 0.118-0.572-0.003-0.3-0.088-0.592-0.244-0.84-0.001-0.006-0.003-0.011-0.006-0.016-0.013-0.039-0.028-0.081-0.042-0.124-0.020-0.041-0.048-0.083-0.073-0.124-0.121-0.166-0.286-0.289-0.473-0.353-0.048-0.022-0.095-0.037-0.139-0.053 0.035-0.112 0.068-0.226 0.094-0.345 0.208-0.889 0.117-1.829-0.257-2.653-0.084-0.184-0.183-0.359-0.295-0.524-0.055-0.079-0.117-0.15-0.174-0.225-0.029-0.036-0.059-0.073-0.088-0.108l-0.097-0.095c-0.070-0.065-0.119-0.118-0.2-0.189-0.066-0.051-0.136-0.098-0.207-0.14-0.141-0.083-0.293-0.144-0.45-0.181-0.257-0.059-0.521-0.078-0.783-0.055-0.227 0.016-0.416 0.044-0.572 0.069-0.308 0.049-0.481 0.083-0.479 0.112s0.176 0.053 0.49 0.055c0.156 0.002 0.347-0.002 0.565 0.006 0.239 0.003 0.478 0.039 0.708 0.109 0.127 0.039 0.249 0.096 0.361 0.171 0.062 0.041 0.122 0.086 0.178 0.136 0.051 0.053 0.103 0.108 0.156 0.164l0.083 0.089c0.026 0.031 0.050 0.067 0.075 0.098 0.048 0.069 0.101 0.134 0.149 0.207 0.094 0.151 0.177 0.309 0.248 0.474 0.315 0.745 0.385 1.583 0.2 2.377-0.089 0.407-0.251 0.791-0.477 1.131-0.109 0.16-0.233 0.307-0.371 0.44l-0.104 0.104-0.097 0.075c-0.065 0.055-0.137 0.1-0.213 0.136-0.292 0.147-0.612 0.216-0.934 0.203-0.292-0.009-0.583-0.050-0.868-0.122-0.421-0.114-0.835-0.256-1.24-0.426-0.289-0.12-0.457-0.181-0.468-0.156s0.126 0.138 0.402 0.307c0.391 0.236 0.803 0.427 1.231 0.57 0.303 0.098 0.615 0.16 0.93 0.185 0.298 0.021 0.596-0.015 0.882-0.108 0.061 0.158 0.151 0.301 0.266 0.42 0.214 0.223 0.477 0.382 0.765 0.463 0.175 0.047 0.356 0.063 0.536 0.045 0.203-0.025 0.396-0.111 0.554-0.25 0.035-0.033 0.068-0.059 0.103-0.097l0.104-0.124c0.031-0.041 0.060-0.085 0.086-0.13 0.028-0.042 0.052-0.088 0.070-0.136l0 0zM20.095 9.513c0.6 0.297 0.973 0.474 0.993 0.435s-0.319-0.292-0.895-0.644c-0.754-0.461-1.537-0.867-2.342-1.214h0c-0.473-0.199-0.934-0.369-1.36-0.497-0.378-0.115-0.763-0.202-1.152-0.26-0.673-0.097-1.082-0.034-1.084 0.004 0 0.053 0.418 0.077 1.047 0.229 0.832 0.207 1.647 0.486 2.436 0.834 0.931 0.399 1.758 0.813 2.356 1.114v-0.001zM23.236 15.090c0.905-0.076 1.662-0.114 1.663-0.214 0-0.046-0.187-0.089-0.492-0.116-0.399-0.037-0.801-0.037-1.2 0-0.406 0.038-0.804 0.137-1.185 0.294l0 0c-0.283 0.132-0.44 0.246-0.426 0.292s0.206 0.002 0.499-0.071c0.287-0.061 0.688-0.136 1.141-0.184l-0.001-0.001zM24.333 12.199c0.613 0.402 1.103 0.731 1.162 0.657 0.053-0.065-0.375-0.528-0.998-0.94-0.622-0.4-1.159-0.666-1.204-0.587s0.42 0.471 1.040 0.871l-0.001-0.001zM27.727 15.198c0.618 0.175 1.128 0.333 1.161 0.244 0.031-0.081-0.435-0.382-1.084-0.566-0.28-0.079-0.569-0.115-0.859-0.108-0.218 0.016-0.35 0.059-0.35 0.107s0.136 0.085 0.343 0.128c0.2 0.047 0.48 0.112 0.789 0.195zM23.896 23.369c0.382-0.146 0.604-0.271 0.59-0.316s-0.261 0.006-0.648 0.089-0.923 0.207-1.514 0.276c-0.493 0.084-0.996 0.053-1.477-0.089-0.138-0.050-0.268-0.124-0.383-0.221-0.084-0.067-0.134-0.122-0.152-0.104-0.013 0.014-0.006 0.081 0.061 0.189 0.099 0.151 0.232 0.272 0.387 0.353 0.505 0.226 1.058 0.296 1.598 0.203 0.525-0.064 1.041-0.192 1.539-0.381l-0.001 0.001zM27.398 22.221c0.563-0.179 1-0.353 0.986-0.449-0.013-0.089-0.508-0.051-1.069 0.128-0.543 0.172-1.013 0.32-0.994 0.414 0.017 0.085 0.492 0.091 1.079-0.094l-0.001 0.001zM16.999 27.893c-0.213 0.010-0.455 0.303-0.61 0.416-0.238 0.151-0.458 0.333-0.655 0.542-0.063-0.048-0.143-0.064-0.218-0.045-0.134 0.030-0.264 0.081-0.386 0.15 0.028-0.055 0.051-0.112 0.075-0.167 0.405-0.595 1.143-0.99 1.713-1.354 0.668-0.426 1.345-0.842 2.016-1.263 0.687-0.463 1.42-0.842 2.185-1.131 0.295 0.034 0.591 0.046 0.888 0.033-0.321 0.076-0.635 0.182-0.939 0.317-1.122 0.511-2.17 1.263-3.212 1.936-0.278 0.179-0.571 0.366-0.857 0.567h-0zM15.13 28.955h-0c0 0 0 0 0 0s-0 0-0 0zM17.043 28.21c0.206 0.020 0.326 0.542 0.378 0.936 0 0.020-0 0.040-0.002 0.061-0.008 0.009-0.016 0.019-0.024 0.029-0.118 0.212-0.294 0.38-0.504 0.481-0.096 0.018-0.187 0.029-0.257 0.037-0.172 0.021-0.346 0.028-0.519 0.020-0.297-0.011-0.279-0.306-0.255-0.544 0.361-0.383 0.757-0.726 1.183-1.021z"></path>
</svg>
