<!-- Generated by IcoMoon.io -->
<svg version="1.1" xmlns="http://www.w3.org/2000/svg" width="32" height="32" viewBox="0 0 32 32">
<path d="M13.861 10.41c0.279 0.482 0.56 0.865 0.562 1.388-0.373-0.97-0.819-1.839-2.049-1.609 1.060 1.103 1.489 2.038 1.313 2.951-0.095-0.696-0.27-1.363-0.675-1.948-0.207-0.299-0.457-0.559-0.708-0.819-0.336-0.348-0.716-0.406-1.172-0.303-0.329 0.074-0.342 0.201-0.211 0.47 0.383 0.786 0.668 1.607 0.795 2.479 0.045 0.307 0.032 0.608-0.009 0.917-0.151-1.282-0.468-2.504-1.141-3.615 0.122 0.509 0.365 0.991 0.305 1.54-0.132-0.402-0.258-0.807-0.399-1.206-0.052-0.149-0.118-0.294-0.318-0.321-0.379-0.050-0.481 0.045-0.412 0.42 0.122 0.663 0.184 1.327 0.013 1.993-0.040 0.153-0.062 0.314-0.198 0.434-0.081-0.11-0.009-0.21 0.016-0.299 0.208-0.748 0.108-1.487-0.032-2.23-0.067-0.357-0.347-0.398-0.601-0.411-0.276-0.015-0.204 0.256-0.242 0.422-0.128 0.566-0.069 1.132 0.026 1.699-0.329-0.64-0.319-1.303-0.162-1.978 0.063-0.27 0.058-0.271-0.213-0.453-0.101 0.377 0.104 0.747-0.028 1.147-0.173-0.35-0.117-0.704-0.175-1.035-0.044-0.246-0.087-0.426-0.399-0.441-0.322-0.017-0.451 0.116-0.52 0.413-0.181 0.792-0.22 1.566 0.166 2.313 0.023 0.044 0.059 0.095-0.029 0.179-0.415-0.585-0.506-1.23-0.425-1.908 0.035-0.29 0.124-0.576 0.189-0.862 0.022-0.101 0.093-0.215-0.053-0.277-0.146-0.063-0.183 0.064-0.234 0.153-0.385 0.684-0.615 1.426-0.823 2.176-0.021 0.077-0.047 0.15-0.099 0.219 0.029-0.652 0.23-1.259 0.481-1.853 0.094-0.223 0.207-0.436 0.316-0.652 0.064-0.126 0.095-0.231-0.008-0.366-0.28-0.365-0.393-0.373-0.628 0.022-0.136 0.228-0.245 0.471-0.396 0.694 0.026-0.454 0.273-0.817 0.502-1.202-0.417 0.256-0.682 0.663-1.029 0.993 0.159-0.355 0.397-0.652 0.657-0.937 0.071-0.077 0.251-0.159 0.132-0.279-0.1-0.102-0.214 0.046-0.304 0.114-0.153 0.115-0.295 0.245-0.485 0.32 0.027-0.041 0.046-0.091 0.083-0.122 0.314-0.265 0.553-0.506 0.263-0.981-0.169-0.277-0.054-0.629 0.251-0.851s0.595-0.191 0.909 0.094c-0.076-0.287-0.3-0.248-0.474-0.333 0.099-0.241 0.32-0.361 0.5-0.488 0.621-0.44 0.827-1.131 1.134-1.765 0.074-0.153-0.029-0.256-0.109-0.359-0.341-0.434-0.806-0.597-1.377-0.58 0.436-0.221 0.91-0.088 1.375 0.328 0.117 0.104 0.163 0.369 0.382 0.275 0.236-0.102 0.195-0.344 0.191-0.563-0.022-1.135-0.376-2.156-0.994-3.092 0.829 0.887 1.141 1.98 1.199 3.241 0.577-0.502 1.122-0.945 1.68-1.371 0.203-0.156 0.158-0.445 0.234-0.67 0.18-0.53 0.507-0.756 0.949-0.629 0.124 0.036 0.291 0.060 0.312 0.213 0.022 0.163-0.152 0.195-0.256 0.27-0.15 0.11-0.405 0.040-0.533 0.359 0.259-0.131 0.447-0.22 0.629-0.32 0.814-0.448 1.686-0.673 2.613-0.677 0.187-0.001 0.293-0.096 0.412-0.205 0.388-0.351 0.844-0.569 1.363-0.629 1.149-0.134 2.325 1.041 2.212 2.208-0.030 0.316-0.009 0.61 0.148 0.895 0.076 0.139 0.126 0.299 0.153 0.455 0.118 0.671-0.107 0.947-0.785 0.984-0.131 0.008-0.266-0.002-0.414 0.123 0.386 0.118 0.74 0.141 1.081 0.013 0.364-0.136 0.422-0.443 0.368-0.795-0.091-0.598-0.381-1.149-0.414-1.758-0.010-0.176-0.15-0.414 0.027-0.519 0.144-0.084 0.301 0.124 0.446 0.213 2.367 1.461 3.846 3.646 4.922 6.142 0.902 2.091 1.663 4.245 2.73 6.263 0.173 0.328 0.115 0.679 0.145 0.999 0.063 0.659 0.29 1.275 0.386 1.921 0.076 0.506-0.107 0.981-0.071 1.474 0.003 0.043-0.019 0.124-0.082 0.032-0.020-0.029-0.019-0.072-0.055-0.221 0.030 0.909 0.061 1.707-0.224 2.476-0.166-0.028-0.094-0.176-0.16-0.275-0.008 0.046-0.018 0.076-0.018 0.107-0.009 0.584-0.11 1.163-0.34 1.687-0.206 0.467-0.523 0.879-0.688 1.379-0.029 0.088-0.217 0.32-0.347 0.368-0.32 0.118-0.299 0.387-0.293 0.592 0.013 0.48-0.407 0.888-0.205 1.394 0.044 0.11-0.113 0.17-0.178 0.247-0.073 0.088-0.149 0.164-0.099 0.278 0.092 0.212-0.020 0.424-0.001 0.616 0.044 0.465-0.319 0.776-0.366 1.197-0.011 0.095-0.159 0.224-0.262 0.244-0.1 0.020-0.047-0.155-0.122-0.258-0.054 0.289-0.237 0.451-0.412 0.648-0.265 0.3-0.386 0.755-0.487 1.164-0.044 0.183 0.18 0.069 0.269 0.042 0.656-0.198 1.316-0.235 1.978-0.049 0.63 0.176 1.148 0.512 1.433 1.132 0.208 0.451 0.131 0.571-0.365 0.571-4.28 0-8.56-0.001-12.84-0.002-2.434-0.001-4.869-0.002-7.303-0.003-0.62 0-0.618-0.005-0.537-0.604 0.094-0.692 0.369-1.315 0.711-1.91 1.208-2.103 2.354-4.242 3.515-6.383-0.068-0.093-0.134 0.068-0.225-0.020 0.27-0.333 0.617-0.635 0.797-1.017 0.22-0.46 0.677-0.778 0.821-1.193 0.16-0.458 0.537-0.589 0.762-0.908 0.035-0.048 0.279-0.099 0.019-0.189-0.074-0.026-0.049-0.087-0.005-0.125 0.307-0.271 0.57-0.583 0.838-0.886 0.326-0.369 0.73-0.695 1.053-1.086 0.599-0.722 1.19-1.447 1.732-2.216 0.99-1.404 0.544-3.404-0.214-4.428-0.237-0.323-0.579-0.498-1.066-0.621zM23.716 12.594c-0.305-0.903-0.689-1.761-1.361-2.466 0.324 0.073 0.507 0.351 0.769 0.506 0.043-0.045 0.085-0.090 0.129-0.135-0.36-0.282-0.72-0.563-1.080-0.844 0.033-0.038 0.067-0.076 0.1-0.114 0.234 0.049 0.396 0.257 0.702 0.388-0.421-0.479-0.776-0.882-1.129-1.286 0.436 0.126 0.68 0.499 1.153 0.768-0.54-0.845-1.045-1.567-1.604-2.26 0.501 0.284 0.914 0.668 1.338 1.042-0.484-0.629-1.090-1.145-1.632-1.718 0.026-0.028 0.051-0.056 0.078-0.085 0.377 0.266 0.754 0.534 1.131 0.8-0.543-0.786-1.202-1.422-2.036-1.856-0.112-0.058-0.335-0.168-0.35-0.099-0.067 0.334-0.347 0.097-0.494 0.231 0.473 0.289 0.992 0.505 1.387 0.901-0.254 0.001-0.434-0.199-0.713-0.189 0.215 0.258 0.57 0.324 0.707 0.653-0.236 0.006-0.384-0.223-0.627-0.112 0.253 0.913 1.164 1.408 1.51 2.398-0.354-0.314-0.588-0.677-0.89-0.749-0.286-0.068-0.676-0.403-0.998 0.023 0.947 0.556 1.746 1.265 2.382 2.164-0.622-0.503-1.162-1.139-2.028-1.219 0.721 0.369 1.349 0.865 1.931 1.423 0.589 0.566 1.083 1.217 1.626 1.833zM17.181 7.388c-0.174-0.293-0.549-0.248-0.737-0.564 0.413 0 0.771 0 1.128 0 0-0.015 0-0.029 0.001-0.043-0.37-0.119-0.741-0.238-1.111-0.357 0.006-0.036 0.011-0.073 0.016-0.109 0.343-0.075 0.697-0.005 1.050-0.009-0.251-0.143-0.536-0.221-0.747-0.391-0.231-0.188-0.202-0.221-0.467-0.296-0.108-0.031-0.248-0.004-0.309-0.149 0.112-0.158 0.305-0.014 0.439-0.117-0.063-0.011-0.118-0.013-0.167-0.030-0.276-0.1-0.842 0.080-0.563-0.576 0.007-0.018-0.108-0.105-0.179-0.133-0.049-0.019-0.172-0.013-0.138 0.071 0.12 0.304-0.147 0.234-0.259 0.264-0.443 0.122-0.909 0.165-1.354 0.392 0.258 0.121 0.55-0.051 0.789 0.189-0.36 0.153-0.684 0.294-1.009 0.433 0.328 0.010 0.632-0.033 0.937-0.048 0.224-0.011 0.255 0.093 0.090 0.258 0.144 0.039 0.294-0.107 0.433 0.045-0.117 0.184-0.378 0.173-0.516 0.352 0.34 0.095 0.689-0.057 0.999 0.157-0.179 0.138-0.378 0.028-0.545 0.108 0.115 0.102 0.33 0.040 0.389 0.299-0.301 0-0.571 0-0.84 0 0.899 0.214 1.8 0.367 2.649 0.738-0.258-0.176-0.515-0.353-0.819-0.561 0.323-0.086 0.549 0.112 0.837 0.077zM15.166 7.787c0.005-0.039 0.010-0.077 0.016-0.115 0.291 0.021 0.583 0.041 0.875 0.062-1.687-0.386-3.384-0.605-5.104-0.304 1.137-0.073 2.006-0.007 2.373 0.253-0.719-0.078-1.378-0.152-2.068 0.131 0.468 0.125 0.89 0.199 1.281 0.353 0.402 0.159 0.807 0.227 1.264 0.236-0.398-0.603-1.129-0.362-1.613-0.701 0.974-0.003 1.855 0.411 2.791 0.59-0.185-0.108-0.37-0.215-0.638-0.371 0.479-0.080 0.819 0.148 1.263 0.115-0.195-0.109-0.318-0.178-0.44-0.247zM8.625 8.748c0.316 0.054 0.383 0.519 0.803 0.48-0.253-0.335-0.532-0.546-0.879-0.674-0.084-0.030-0.197-0.081-0.165-0.194 0.041-0.144 0.146-0.044 0.23-0.035 0.17 0.020 0.317-0.089 0.491-0.066-0.327-0.18-0.705-0.191-1.1-0.468 0.523-0.116 0.951 0.316 1.296-0.030-0.218-0.392-0.613-0.398-0.991-0.458-0.31-0.049-0.662 0.087-0.941-0.28-0.019 0.443-0.124 0.785-0.27 1.116-0.045 0.102-0.085 0.215 0.028 0.29 0.361 0.235 0.725 0.464 1.192 0.589-0.035-0.258-0.32-0.313-0.288-0.556 0.351 0.148 0.47 0.517 0.773 0.711 0.016-0.197-0.21-0.236-0.18-0.425zM15.050 2.336c0.063-0.223-0.087-0.52 0.028-0.499 0.351 0.064 0.238-0.228 0.306-0.341 0.131-0.217 0.19-0.477 0.29-0.714 0.028-0.066 0.142-0.109 0.078-0.198-0.059-0.081-0.147-0.032-0.22-0.005-0.44 0.166-0.769 0.475-0.886 0.919-0.053 0.2-0.033 0.488 0.135 0.694 0.067 0.082 0.238-0.128 0.271 0.144zM10.994 8.475c0.42 0.187 0.837 0.385 1.264 0.558 0.167 0.067 0.333-0.047 0.495-0.097-0.309-0.403 0.225-0.047 0.181-0.224-0.624-0.153-1.254-0.302-1.94-0.237z"></path>
</svg>
