<?xml version="1.0" encoding="utf-8"?>
<svg xmlns="http://www.w3.org/2000/svg" viewBox="2.6203 226.7431 145.6514 213.4874" width="150pt" height="150pt">
  <path fill="#000000" d="M 61.175781 296.195312 C 63.039062 299.414062 64.914062 301.96875 64.921875 305.453125 C 62.433594 298.984375 59.457031 293.1875 51.253906 294.71875 C 58.328125 302.078125 61.1875 308.316406 60.015625 314.40625 C 59.382812 309.761719 58.214844 305.316406 55.515625 301.410156 C 54.136719 299.414062 52.46875 297.683594 50.789062 295.945312 C 48.546875 293.625 46.011719 293.238281 42.96875 293.925781 C 40.773438 294.417969 40.6875 295.265625 41.558594 297.0625 C 44.117188 302.308594 46.011719 307.785156 46.863281 313.601562 C 47.164062 315.648438 47.078125 317.660156 46.800781 319.71875 C 45.792969 311.167969 43.679688 303.011719 39.191406 295.601562 C 40.007812 299 41.625 302.214844 41.226562 305.878906 C 40.347656 303.195312 39.507812 300.496094 38.566406 297.835938 C 38.21875 296.839844 37.777344 295.875 36.445312 295.695312 C 33.917969 295.359375 33.234375 295.996094 33.695312 298.5 C 34.511719 302.925781 34.925781 307.355469 33.78125 311.796875 C 33.515625 312.816406 33.367188 313.894531 32.460938 314.695312 C 31.917969 313.960938 32.402344 313.292969 32.570312 312.703125 C 33.960938 307.714844 33.292969 302.785156 32.359375 297.828125 C 31.910156 295.445312 30.046875 295.175781 28.347656 295.085938 C 26.507812 294.984375 26.984375 296.796875 26.734375 297.902344 C 25.878906 301.679688 26.277344 305.453125 26.90625 309.234375 C 24.710938 304.964844 24.78125 300.539062 25.824219 296.035156 C 26.242188 294.234375 26.210938 294.226562 24.40625 293.011719 C 23.734375 295.523438 25.101562 297.996094 24.21875 300.664062 C 23.066406 298.332031 23.441406 295.96875 23.050781 293.761719 C 22.757812 292.121094 22.472656 290.921875 20.390625 290.816406 C 18.242188 290.703125 17.382812 291.589844 16.921875 293.574219 C 15.710938 298.855469 15.453125 304.019531 18.027344 309.007812 C 18.179688 309.304688 18.417969 309.644531 17.835938 310.203125 C 15.066406 306.296875 14.457031 302 15.003906 297.472656 C 15.238281 295.535156 15.828125 293.632812 16.261719 291.71875 C 16.410156 291.046875 16.878906 290.285156 15.910156 289.871094 C 14.933594 289.453125 14.6875 290.300781 14.351562 290.894531 C 11.785156 295.457031 10.246094 300.40625 8.859375 305.410156 C 8.71875 305.921875 8.542969 306.414062 8.199219 306.871094 C 8.390625 302.523438 9.734375 298.46875 11.40625 294.511719 C 12.03125 293.027344 12.789062 291.605469 13.515625 290.164062 C 13.945312 289.324219 14.152344 288.625 13.460938 287.722656 C 11.589844 285.285156 10.839844 285.234375 9.269531 287.867188 C 8.363281 289.386719 7.636719 291.007812 6.628906 292.5 C 6.800781 289.46875 8.449219 287.050781 9.976562 284.480469 C 7.191406 286.191406 5.429688 288.902344 3.109375 291.105469 C 4.167969 288.738281 5.757812 286.753906 7.492188 284.855469 C 7.964844 284.339844 9.167969 283.796875 8.375 282.992188 C 7.707031 282.308594 6.945312 283.300781 6.347656 283.753906 C 5.328125 284.523438 4.382812 285.386719 3.109375 285.890625 C 3.289062 285.617188 3.417969 285.285156 3.660156 285.078125 C 5.757812 283.308594 7.347656 281.703125 5.414062 278.535156 C 4.289062 276.6875 5.050781 274.339844 7.089844 272.859375 C 9.128906 271.375 11.0625 271.585938 13.15625 273.484375 C 12.648438 271.570312 11.15625 271.832031 9.996094 271.261719 C 10.65625 269.65625 12.132812 268.851562 13.332031 268.003906 C 17.472656 265.070312 18.851562 260.457031 20.898438 256.230469 C 21.394531 255.207031 20.707031 254.523438 20.171875 253.835938 C 17.894531 250.9375 14.796875 249.851562 10.988281 249.964844 C 13.894531 248.488281 17.058594 249.378906 20.160156 252.15625 C 20.9375 252.847656 21.25 254.621094 22.707031 253.992188 C 24.28125 253.308594 24.007812 251.699219 23.980469 250.234375 C 23.835938 242.660156 21.472656 235.851562 17.347656 229.605469 C 22.878906 235.523438 24.960938 242.816406 25.34375 251.230469 C 29.195312 247.882812 32.832031 244.925781 36.554688 242.082031 C 37.90625 241.042969 37.609375 239.113281 38.117188 237.609375 C 39.316406 234.070312 41.5 232.566406 44.445312 233.414062 C 45.273438 233.65625 46.386719 233.816406 46.527344 234.832031 C 46.675781 235.917969 45.511719 236.132812 44.820312 236.636719 C 43.820312 237.371094 42.121094 236.90625 41.265625 239.035156 C 42.992188 238.160156 44.246094 237.566406 45.460938 236.898438 C 50.890625 233.90625 56.710938 232.40625 62.890625 232.378906 C 64.136719 232.371094 64.84375 231.738281 65.640625 231.011719 C 68.230469 228.667969 71.269531 227.214844 74.730469 226.8125 C 82.394531 225.921875 90.242188 233.757812 89.488281 241.542969 C 89.285156 243.648438 89.429688 245.613281 90.472656 247.515625 C 90.980469 248.441406 91.3125 249.507812 91.496094 250.550781 C 92.285156 255.027344 90.78125 256.871094 86.257812 257.117188 C 85.386719 257.167969 84.480469 257.105469 83.496094 257.9375 C 86.070312 258.722656 88.433594 258.875 90.707031 258.023438 C 93.136719 257.117188 93.519531 255.070312 93.160156 252.71875 C 92.554688 248.730469 90.617188 245.054688 90.398438 240.992188 C 90.332031 239.816406 89.394531 238.230469 90.578125 237.53125 C 91.539062 236.96875 92.585938 238.355469 93.550781 238.949219 C 109.339844 248.699219 119.210938 263.273438 126.390625 279.925781 C 132.410156 293.875 137.488281 308.246094 144.605469 321.710938 C 145.761719 323.902344 145.371094 326.238281 145.574219 328.375 C 145.996094 332.773438 147.507812 336.878906 148.148438 341.191406 C 148.652344 344.570312 147.433594 347.734375 147.671875 351.023438 C 147.695312 351.308594 147.542969 351.847656 147.125 351.238281 C 146.992188 351.046875 147 350.757812 146.757812 349.761719 C 146.957031 355.828125 147.164062 361.148438 145.261719 366.277344 C 144.15625 366.09375 144.636719 365.101562 144.191406 364.441406 C 144.140625 364.75 144.070312 364.949219 144.070312 365.152344 C 144.011719 369.046875 143.339844 372.914062 141.804688 376.40625 C 140.433594 379.519531 138.3125 382.273438 137.214844 385.609375 C 137.023438 386.199219 135.769531 387.742188 134.898438 388.0625 C 132.765625 388.847656 132.902344 390.644531 132.945312 392.011719 C 133.035156 395.214844 130.230469 397.933594 131.578125 401.3125 C 131.875 402.046875 130.824219 402.445312 130.390625 402.960938 C 129.902344 403.546875 129.398438 404.054688 129.730469 404.816406 C 130.34375 406.230469 129.597656 407.644531 129.722656 408.925781 C 130.019531 412.03125 127.59375 414.101562 127.28125 416.910156 C 127.210938 417.546875 126.21875 418.40625 125.535156 418.539062 C 124.871094 418.671875 125.21875 417.507812 124.71875 416.820312 C 124.355469 418.75 123.136719 419.828125 121.972656 421.144531 C 120.203125 423.144531 119.398438 426.179688 118.722656 428.910156 C 118.425781 430.132812 119.921875 429.371094 120.519531 429.191406 C 124.898438 427.871094 129.296875 427.625 133.714844 428.867188 C 137.917969 430.042969 141.371094 432.285156 143.273438 436.421875 C 144.660156 439.433594 144.148438 440.230469 140.835938 440.230469 C 112.285156 440.230469 83.726562 440.222656 55.175781 440.21875 C 38.9375 440.210938 22.691406 440.207031 6.453125 440.195312 C 2.316406 440.195312 2.332031 440.164062 2.871094 436.167969 C 3.5 431.550781 5.335938 427.394531 7.617188 423.425781 C 15.679688 409.394531 23.320312 395.125 31.070312 380.84375 C 30.617188 380.226562 30.175781 381.296875 29.566406 380.707031 C 31.367188 378.484375 33.679688 376.46875 34.886719 373.921875 C 36.351562 370.851562 39.40625 368.730469 40.363281 365.964844 C 41.429688 362.910156 43.945312 362.035156 45.445312 359.90625 C 45.675781 359.585938 47.304688 359.246094 45.574219 358.644531 C 45.082031 358.472656 45.246094 358.066406 45.542969 357.8125 C 47.59375 356.003906 49.34375 353.925781 51.132812 351.902344 C 53.304688 349.441406 56.003906 347.265625 58.160156 344.660156 C 62.15625 339.84375 66.101562 335.007812 69.714844 329.878906 C 76.316406 320.511719 73.34375 307.171875 68.289062 300.335938 C 66.710938 298.179688 64.429688 297.011719 61.175781 296.195312 Z M 126.921875 310.765625 C 124.886719 304.738281 122.328125 299.019531 117.839844 294.316406 C 120 294.800781 121.222656 296.65625 122.96875 297.695312 C 123.253906 297.394531 123.539062 297.097656 123.828125 296.796875 C 121.429688 294.917969 119.023438 293.039062 116.621094 291.164062 C 116.84375 290.910156 117.066406 290.660156 117.289062 290.40625 C 118.851562 290.730469 119.933594 292.121094 121.972656 292.996094 C 119.164062 289.800781 116.796875 287.109375 114.4375 284.417969 C 117.347656 285.257812 118.976562 287.75 122.128906 289.539062 C 118.527344 283.898438 115.160156 279.085938 111.425781 274.464844 C 114.769531 276.359375 117.523438 278.921875 120.355469 281.417969 C 117.128906 277.222656 113.085938 273.777344 109.46875 269.953125 C 109.640625 269.765625 109.808594 269.578125 109.988281 269.386719 C 112.503906 271.164062 115.015625 272.949219 117.53125 274.726562 C 113.90625 269.484375 109.511719 265.238281 103.949219 262.347656 C 103.203125 261.960938 101.710938 261.226562 101.613281 261.6875 C 101.164062 263.917969 99.296875 262.335938 98.316406 263.230469 C 101.472656 265.15625 104.933594 266.601562 107.570312 269.242188 C 105.875 269.25 104.675781 267.917969 102.8125 267.980469 C 104.246094 269.699219 106.613281 270.140625 107.53125 272.335938 C 105.957031 272.378906 104.96875 270.847656 103.351562 271.585938 C 105.039062 277.675781 111.117188 280.976562 113.425781 287.585938 C 111.066406 285.488281 109.503906 283.066406 107.488281 282.589844 C 105.582031 282.136719 102.980469 279.902344 100.828125 282.742188 C 107.148438 286.449219 112.476562 291.179688 116.722656 297.179688 C 112.574219 293.824219 108.96875 289.582031 103.191406 289.046875 C 108 291.511719 112.191406 294.816406 116.074219 298.539062 C 120.003906 302.3125 123.296875 306.65625 126.921875 310.765625 Z M 83.328125 276.035156 C 82.164062 274.078125 79.664062 274.382812 78.414062 272.273438 C 81.171875 272.273438 83.554688 272.273438 85.9375 272.273438 C 85.9375 272.175781 85.9375 272.078125 85.941406 271.988281 C 83.472656 271.191406 81 270.402344 78.53125 269.609375 C 78.570312 269.367188 78.601562 269.125 78.640625 268.882812 C 80.929688 268.382812 83.292969 268.847656 85.648438 268.820312 C 83.976562 267.863281 82.070312 267.347656 80.667969 266.210938 C 79.128906 264.957031 79.320312 264.738281 77.554688 264.234375 C 76.835938 264.027344 75.898438 264.207031 75.496094 263.238281 C 76.246094 262.183594 77.53125 263.144531 78.425781 262.460938 C 78.007812 262.386719 77.640625 262.375 77.308594 262.257812 C 75.464844 261.589844 71.691406 262.792969 73.554688 258.417969 C 73.601562 258.300781 72.832031 257.714844 72.363281 257.53125 C 72.035156 257.402344 71.21875 257.445312 71.445312 258.007812 C 72.246094 260.035156 70.464844 259.566406 69.714844 259.769531 C 66.757812 260.582031 63.648438 260.867188 60.683594 262.386719 C 62.40625 263.195312 64.351562 262.046875 65.945312 263.648438 C 63.546875 264.671875 61.378906 265.609375 59.210938 266.535156 C 61.402344 266.601562 63.425781 266.316406 65.464844 266.214844 C 66.957031 266.144531 67.167969 266.832031 66.0625 267.933594 C 67.023438 268.191406 68.023438 267.222656 68.953125 268.234375 C 68.171875 269.464844 66.433594 269.386719 65.511719 270.582031 C 67.78125 271.214844 70.109375 270.203125 72.179688 271.628906 C 70.984375 272.546875 69.660156 271.816406 68.546875 272.351562 C 69.3125 273.035156 70.75 272.617188 71.140625 274.34375 C 69.132812 274.34375 67.332031 274.34375 65.535156 274.34375 C 71.535156 275.773438 77.546875 276.789062 83.207031 279.265625 C 81.488281 278.089844 79.773438 276.910156 77.746094 275.519531 C 79.902344 274.945312 81.40625 276.269531 83.328125 276.035156 Z M 69.882812 278.691406 C 69.917969 278.433594 69.949219 278.179688 69.988281 277.921875 C 71.929688 278.0625 73.878906 278.195312 75.824219 278.335938 C 64.566406 275.757812 53.25 274.296875 41.773438 276.304688 C 49.359375 275.820312 55.15625 276.257812 57.605469 277.992188 C 52.808594 277.46875 48.410156 276.976562 43.808594 278.863281 C 46.933594 279.699219 49.746094 280.191406 52.351562 281.21875 C 55.035156 282.277344 57.738281 282.734375 60.785156 282.792969 C 58.132812 278.769531 53.25 280.375 50.027344 278.113281 C 56.527344 278.09375 62.402344 280.855469 68.648438 282.050781 C 67.414062 281.332031 66.179688 280.613281 64.394531 279.574219 C 67.589844 279.039062 69.859375 280.558594 72.820312 280.339844 C 71.519531 279.613281 70.699219 279.152344 69.882812 278.691406 Z M 26.242188 285.105469 C 28.351562 285.464844 28.796875 288.566406 31.601562 288.308594 C 29.914062 286.074219 28.054688 284.667969 25.738281 283.8125 C 25.175781 283.609375 24.425781 283.269531 24.640625 282.519531 C 24.914062 281.558594 25.617188 282.222656 26.175781 282.289062 C 27.3125 282.421875 28.292969 281.695312 29.449219 281.847656 C 27.265625 280.648438 24.746094 280.570312 22.109375 278.722656 C 25.597656 277.949219 28.457031 280.832031 30.753906 278.523438 C 29.296875 275.90625 26.664062 275.871094 24.144531 275.46875 C 22.078125 275.140625 19.730469 276.046875 17.863281 273.597656 C 17.738281 276.550781 17.039062 278.835938 16.0625 281.042969 C 15.765625 281.722656 15.496094 282.480469 16.25 282.976562 C 18.65625 284.542969 21.089844 286.074219 24.203125 286.90625 C 23.972656 285.1875 22.066406 284.816406 22.28125 283.195312 C 24.621094 284.183594 25.417969 286.644531 27.441406 287.9375 C 27.546875 286.625 26.039062 286.363281 26.242188 285.105469 Z M 69.109375 242.328125 C 69.53125 240.839844 68.53125 238.859375 69.292969 239 C 71.636719 239.429688 70.882812 237.480469 71.332031 236.726562 C 72.203125 235.277344 72.601562 233.546875 73.265625 231.964844 C 73.453125 231.523438 74.210938 231.238281 73.785156 230.644531 C 73.394531 230.101562 72.804688 230.429688 72.316406 230.609375 C 69.378906 231.71875 67.183594 233.777344 66.402344 236.738281 C 66.046875 238.074219 66.179688 239.992188 67.300781 241.367188 C 67.75 241.914062 68.886719 240.511719 69.109375 242.328125 Z M 42.050781 283.28125 C 44.855469 284.53125 47.636719 285.851562 50.484375 287.003906 C 51.601562 287.453125 52.707031 286.691406 53.789062 286.359375 C 51.730469 283.671875 55.292969 286.046875 54.996094 284.863281 C 50.835938 283.84375 46.628906 282.851562 42.050781 283.28125 Z M 42.050781 283.28125 " fill-opacity="1" fill-rule="nonzero"/>
</svg>