<?xml version="1.0" encoding="UTF-8" standalone="no"?>
<!DOCTYPE svg PUBLIC "-//W3C//DTD SVG 1.1//EN" "http://www.w3.org/Graphics/SVG/1.1/DTD/svg11.dtd">
<svg width="100%" height="100%" viewBox="0 0 150 150" version="1.1" xmlns="http://www.w3.org/2000/svg" xmlns:xlink="http://www.w3.org/1999/xlink" xml:space="preserve" xmlns:serif="http://www.serif.com/" style="fill-rule:evenodd;clip-rule:evenodd;stroke-linejoin:round;stroke-miterlimit:2;">
    <g transform="matrix(0.137768,0,0,0.148004,-7.77206,-15.0957)">
        <path d="M792.407,708C793.849,706.07 795.282,704.128 796.72,702.187C805.126,692.378 810.779,680.515 813.103,667.804C815.427,655.097 814.337,641.999 809.947,629.851C808.849,626.972 807.197,624.343 805.08,622.105C842.188,611.906 880.52,606.886 919,607.191L919.004,607.191C941.981,608.008 962.512,616.679 984.543,621.863C1001.71,625.86 1013.95,626.028 1024.56,640.09C1021.19,639.836 1017.5,639.527 1013.45,639.219C1004.14,638.535 992.848,637.719 980.051,637.598C976.804,637.652 973.488,637.719 970.121,637.84C966.754,637.961 963.004,638.402 959.387,638.711C957.27,638.844 955.168,639.117 953.086,639.524C952.465,639.441 951.836,639.422 951.211,639.461C918.379,640.895 891.972,653.672 864.324,670.547C841.16,684.656 816.57,695.953 792.41,708L792.407,708ZM606.71,866.667C569.507,879.222 539.104,871.972 504.37,856.308C479.96,843.605 454.108,833.89 427.374,827.367C395.722,821.254 362.518,829.055 331.87,817.637C333.644,813.211 336.019,809.051 338.929,805.27C339.663,804.352 340.351,803.395 340.984,802.402C347.257,798.187 351.207,791.285 351.66,783.738C351.761,782.26 351.742,780.78 351.598,779.306C392.428,789.355 438.365,772.863 479.933,784.113C482,784.699 484.199,783.813 485.277,781.953C486.351,780.094 486.027,777.746 484.492,776.246C464.152,758.32 442.172,742.352 418.836,728.547C412.234,724.301 405.344,720.523 398.211,717.238C404.708,719.129 411.711,717.91 417.188,713.941L417.184,713.937C422.247,708.566 420.559,700.016 416.567,691.148C446.024,713.581 474.758,735.714 512.258,748.269C514.098,748.734 516.035,748.054 517.191,746.551C518.344,745.047 518.492,743 517.566,741.344C499.585,716.5 484.914,688.657 465.937,664.684C461.113,657.754 455.16,651.684 448.32,646.731L448.324,646.734C439.55,641.176 430.566,645.731 421.136,645.731C414.339,645.664 407.718,646.106 405.038,638.492C401.726,628.942 399.476,618.77 395.859,609.094C412.234,617.844 428.57,626.594 444.863,635.344C452.289,639.336 459.898,643.079 467.578,646.762C482.063,669.364 501.852,686.84 516.516,709.18C530.184,730.028 541.305,751.63 562.145,766.235C592.68,787.645 620.832,739.016 621.207,712.993C621.394,712.618 621.582,712.177 621.769,711.802C622.214,710.868 622.734,709.974 623.324,709.122L623.699,708.626C623.699,708.626 623.886,708.372 623.953,708.251L625.265,706.939C626.257,705.88 627.382,704.689 628.386,703.696L631.254,701.192C633.187,699.513 635.687,697.696 637.929,696.017C655.245,684.599 673.987,675.513 693.675,668.99C708.965,663.552 718.761,660.56 718.64,658.189C718.515,655.818 707.719,654.196 690.617,656.755C674.308,659.278 658.492,664.341 643.742,671.755L643.742,671.747C639.243,668.372 634.696,665.185 630.008,662.13C633.075,662.318 635.887,662.439 638.446,662.439C648.496,662.384 654.676,661.138 654.731,659.759C654.731,656.396 630.207,655.138 602.926,645.97C600.113,644.911 597.434,643.786 594.816,642.595C593.934,642.22 593.184,641.79 592.313,641.415C591.828,641.157 591.324,640.923 590.813,640.724C583.013,636.919 562.106,628.435 564.161,616.134C567.161,598.47 612.348,608.521 623.653,608.708C638.567,608.95 653.465,609.204 668.465,609.204C680.27,609.27 702.489,604.395 713.223,608.575C713.379,608.583 713.527,608.626 713.664,608.708C730.437,615.197 787.426,623.166 794.289,640.978C806.773,673.295 772.133,701.26 755.156,724.416C732.429,755.24 710.679,786.592 686.304,816.178C665.05,840.158 637.464,857.658 606.71,866.67L606.71,866.667ZM351.593,779.305L351.597,779.301C351.597,779.303 351.597,779.304 351.598,779.306C351.596,779.306 351.595,779.305 351.593,779.305ZM551.164,846.072C547.164,845.51 544.828,845.502 544.641,846.193C544.453,846.889 546.328,848.189 549.883,849.943C555.176,852.166 560.672,853.857 566.297,854.998C574.621,856.775 583.097,857.756 591.609,857.932C602.441,858.435 613.254,856.603 623.316,852.56C633.18,847.845 641.812,840.9 648.535,832.271C653.773,825.693 658.609,818.807 663.019,811.646L663.015,811.646C670.441,799.662 675.195,792.603 674.191,791.544C673.191,790.486 666.074,796.233 657.027,807.22C652.425,812.697 647.288,819.26 641.175,825.822C635.073,832.951 627.57,838.752 619.132,842.857C610.347,846.334 600.991,848.135 591.542,848.162C583.507,848.475 575.46,848.287 567.448,847.6C560.452,847.104 555.155,846.42 551.163,846.045L551.164,846.072ZM332,776.249C346.606,787.023 328.45,800.57 320.047,810.515C319.059,811.695 318.165,812.949 317.368,814.265L317.364,814.265C312.742,822.374 313.614,835.3 300.387,833.304C294.402,831.211 289.078,827.562 284.957,822.738C280.84,817.914 278.078,812.082 276.949,805.836C274.761,792.133 279.046,778.183 288.558,768.074C294.937,763.222 302.945,761.031 310.906,761.953C321.586,763.023 324.199,770.445 332,776.25L332,776.249ZM346.916,768.23C345.514,766.609 343.869,765.215 342.041,764.098L342.037,764.098C357.9,746.18 352.65,725.145 340.041,706.731C346.408,708.426 352.783,710.051 359.205,711.418C367.576,714.671 376.127,717.925 384.678,721.73C413.885,734.769 441.185,751.714 465.83,772.101C426.608,767.8 383.623,780.906 346.92,768.23L346.916,768.23ZM571.57,931.149C571.441,931.083 571.383,931.028 571.254,930.935C563.894,928.314 558.066,922.579 555.324,915.263C552.581,907.951 553.203,899.798 557.019,892.986C567.535,894.505 578.215,894.529 588.738,893.052C591.312,896.126 592.797,899.974 592.953,903.982C593.113,907.993 591.933,911.942 589.609,915.212C581.742,918.353 577.937,926.154 571.57,931.15L571.57,931.149ZM580.875,992.58C580.125,993.197 579.442,993.826 578.699,994.474C579.133,990.045 578.836,985.572 577.828,981.237C577.586,980.362 577.227,979.522 576.758,978.744L576.762,978.744C589.433,971.439 599.597,958.642 611.785,951.275C632.191,938.974 654.722,928.802 675.824,917.759C695.184,907.607 713.598,894.248 733.012,884.947C740.184,887.807 747.575,890.08 755.11,891.752C716.282,906.994 680.329,934.775 644.63,953.627C622.243,964.65 600.907,977.689 580.88,992.58L580.875,992.58ZM306.279,672.539C304.678,670.024 301.947,668.449 298.967,668.332C272.744,666.895 259.947,651.352 272.502,624.887C276.349,616.856 283.06,610.559 291.322,607.231C299.58,603.907 308.787,603.794 317.127,606.915L317.123,606.915C327.295,611.341 332.416,623.388 337.225,632.509C346.604,650.06 363.307,662.525 382.799,666.521C387.1,669.458 391.405,672.458 395.651,675.513C403.022,688.06 413.819,708.036 406.827,708.224C391.069,708.142 375.385,706.083 360.139,702.099C346.885,697.455 333.991,691.845 321.561,685.31C316.725,680.755 311.624,676.489 306.28,672.54L306.279,672.539ZM598.66,891.14C632.285,881.991 662.918,864.167 687.488,839.456C690.664,850.589 696.941,860.593 705.59,868.292L705.59,868.296C686.309,874.257 668.578,890.148 650.973,898.632C639.43,904.163 627.473,908.777 615.207,912.429C610.344,913.452 605.367,913.784 600.414,913.425C603.258,906.117 602.613,897.913 598.66,891.14ZM664.688,902.379C680.493,894.754 697.165,878.153 715.079,875.649C717.376,877.188 719.751,878.606 722.196,879.895C689.111,896.434 657.595,918.219 624.134,934.571C609.251,941.129 595.528,950.047 583.493,960.981C569.227,972.884 551.634,980.087 533.118,981.606C537.805,977.236 543.048,973.431 547.977,969.493C555.638,963.313 561.771,955.263 569.7,949.524C571.236,948.368 572.423,946.813 573.134,945.024C574.075,943.997 574.837,942.813 575.384,941.528C581.521,937.462 587.099,932.614 591.986,927.11C602.506,921.493 614.834,922.309 626.881,918.747C639.885,914.275 652.53,908.802 664.69,902.38L664.688,902.379ZM1093,538.71C1064.54,513.05 1017.22,496.87 979.71,486.886C972.972,478.918 966.605,470.66 959.546,462.98C999.152,478.921 1037.81,497.113 1075.34,517.468L1075.34,517.468C1095.44,527.78 1128.27,555.624 1140.76,584.03C1126.32,567.433 1110.33,552.257 1093,538.71ZM1070.6,534.28C1099.13,549.889 1133.53,580.6 1145.2,612.186C1143.73,619.779 1139.88,626.705 1134.21,631.967L1134.21,631.971C1131.59,624.873 1128.09,617.99 1125.15,611.748C1109.08,578.287 1074.1,559.436 1044.39,540.084C1025.69,528.655 1008.2,515.354 992.198,500.389C1019.34,509.186 1045.6,520.534 1070.6,534.28ZM187.431,620.43C185.689,627.544 174.567,624.423 169.517,622.032C156.29,615.657 168.579,600.618 178.067,597.751C178.575,597.563 178.95,597.376 179.38,597.188C200.067,596.11 220.466,591.864 239.864,584.598C226.715,594.547 212.84,603.496 198.352,611.371C196.953,611.383 195.559,611.489 194.172,611.68C190.164,612.68 187.375,616.301 187.43,620.43L187.431,620.43ZM164.4,192.78C156.162,205.315 151.736,229.229 139.857,241.288C134.911,227.952 135.36,213.214 141.114,200.206C141.915,201.573 142.857,202.85 143.927,204.022C145.786,205.839 148.372,206.706 150.954,206.378C153.532,206.05 155.821,204.561 157.165,202.335C161.048,194.3 161.454,185.019 158.29,176.675C167.865,167.893 178.861,160.803 190.81,155.702C191.13,156.331 191.548,156.901 192.056,157.389L192.056,157.393C190.119,158.893 188.252,160.382 186.564,161.948C177.959,171.292 170.517,181.647 164.4,192.78ZM561.39,985.65C577.936,979.1 563.827,1011.62 560.706,1016.92C554.878,1027.51 546.749,1036.66 536.921,1043.7L535.616,1044.45C534.409,1045.23 533.159,1045.94 531.866,1046.57C531.8,1046.64 531.8,1046.69 531.679,1046.76C528.327,1048.58 524.792,1050.05 521.132,1051.13C497.535,1057.74 476.687,1010.93 497.226,996.263C508.589,994.697 520.054,996.076 531.304,994.322C541.624,992.564 551.714,989.654 561.39,985.65ZM218.08,615.121C228.662,609.332 238.795,602.761 248.396,595.461L248.4,595.461C256.174,589.836 264.338,584.64 271.838,578.586C272.213,578.211 272.655,577.836 273.084,577.461C270.975,585.324 268.088,592.953 264.467,600.242C262.283,603.926 260.162,607.734 258.1,611.672C255.487,615.546 253.287,619.691 251.537,624.027C247.068,632.757 241.326,640.772 234.494,647.812C231.134,635.652 224.224,624.768 214.646,616.554C215.818,616.147 216.967,615.667 218.08,615.12L218.08,615.121ZM249.231,659.499C253.13,667.952 259.707,674.886 267.942,679.222C251.34,683.406 235.73,688.202 233.676,709.054C231.364,732.906 182.051,723.913 175.309,705.933C166.637,682.777 217.449,672.988 231.801,665.488C234.57,664.175 236.375,661.433 236.488,658.375C240.218,655.449 243.644,652.164 246.726,648.566C246.855,652.34 247.707,656.051 249.23,659.5L249.231,659.499ZM612.27,599.999C597.184,599.51 569.442,593.147 556.872,605.303C546.634,615.232 549.505,625.346 559.122,634.459C565.376,639.564 572.474,643.533 580.095,646.189C586.111,650.143 592.561,653.393 599.322,655.865L599.326,655.861C600.385,656.236 601.51,656.557 602.568,656.865C613.787,662.658 624.552,669.295 634.771,676.713L634.768,676.713C632.338,678.213 629.9,679.713 627.463,681.401C624.658,683.522 622.033,685.452 619.353,687.889L615.482,691.573C614.303,692.756 613.365,693.823 612.361,694.94L611.678,695.69C592.143,683.589 570.729,679.276 550.01,669.038C526.725,657.487 503.448,645.252 480.346,633.018C479.435,632.291 478.4,631.74 477.287,631.397L477.287,631.393C476.283,630.897 475.291,630.401 474.287,629.838C459.623,622.037 444.889,614.174 430.225,606.307C438.772,606.522 447.319,606.147 455.811,605.182C472.237,603.252 482.221,601.94 482.221,600.44C482.221,598.94 471.795,597.76 455.502,597.76C447.412,597.627 437.549,597.627 427.377,596.569C424.717,596.323 422.072,595.928 419.455,595.385L419.459,595.389C418.08,595.135 416.647,594.881 415.213,594.573L411.463,593.448C408.783,592.577 406.1,591.948 403.354,590.889C400.908,589.827 398.346,588.768 395.854,587.709C369.886,573.514 344.143,558.869 318.831,543.514C290.862,526.538 264.143,507.647 237.37,488.897C238.741,489.394 240.174,489.835 241.608,490.331C250.166,493.265 258.897,495.749 267.764,499.003C276.631,502.257 285.612,505.624 294.725,508.933C300.35,510.995 305.901,513.05 311.393,515.046C316.885,516.862 322.314,518.675 327.752,520.417C338.674,523.917 348.845,527.468 358.83,530.909C361.408,531.714 363.826,532.464 366.33,533.401C368.834,534.339 371.271,535.464 373.763,536.456C378.63,538.518 383.494,540.515 388.247,542.511C397.602,546.315 406.966,550.628 416.145,554.183C433.552,561.823 452.317,565.878 471.325,566.109C485.563,565.719 499.501,561.906 511.958,555C515.782,560.277 520.466,564.875 525.813,568.602C527.395,569.727 529.091,570.688 530.864,571.473L530.868,571.473C533.368,573.16 536.118,575.035 539.36,576.965C544.001,579.106 548.751,581.004 553.59,582.649C558.722,584.246 563.984,585.375 569.32,586.024C575.633,586.871 582.012,587.063 588.363,586.586L588.363,586.582C591.606,585.953 594.981,585.391 598.348,584.774C599.285,584.52 599.902,584.453 601.027,584.145L603.277,583.461L607.711,582.082L612.203,580.649C613.578,580.274 614.891,580.086 616.195,579.777L618.633,579.149C619.574,579.824 620.633,580.316 621.754,580.594C644.813,585.938 667.586,592.461 689.977,600.133L689.981,600.133C664.075,600.816 638.051,600.871 612.27,600L612.27,599.999ZM291.68,565.429C297.805,563.038 304.215,561.456 310.746,560.714L310.75,560.714C330.473,572.827 350.629,584.311 370.918,595.487C378.082,612.843 384.23,630.601 389.328,648.671C372.023,644.453 357.551,632.636 349.953,616.523C344.421,606.074 336.363,597.168 326.515,590.621C310.597,579.371 290.93,585.156 275.742,594.953C280.078,584.614 285.414,574.727 291.68,565.43L291.68,565.429ZM492.8,721.109C494.488,723.801 498.359,732.848 501.175,734.039C467.218,719.809 440.003,697.363 411.417,675.801C412.914,670.59 413.628,665.184 413.535,659.762L413.539,659.758C413.914,656.766 416.218,655.324 419.218,654.77C427.768,654.77 440.132,653.207 446.995,658.887C454.402,665.731 461.007,673.399 466.683,681.735C473.011,690.173 478.823,699.059 484.495,707.985C487.308,712.372 490.054,716.743 492.8,721.11L492.8,721.109ZM950.771,851.69C954.423,850.819 958.615,849.632 963.349,848.12C934.505,874.452 894.81,881.26 854.919,887.315C879.079,880.292 902.61,870.057 925.458,861.065C933.895,857.682 942.332,854.69 950.77,851.69L950.771,851.69ZM341.989,417.239C308.97,386.032 310.899,342.333 350.044,318.048C380.193,299.33 419.271,314.431 442.482,336.65C464.333,363.435 460.81,412.993 430.81,432.595C402.787,450.888 363.834,437.865 341.99,417.24L341.989,417.239ZM355.31,352.263C353.064,352.001 350.822,352.763 349.201,354.341C347.584,355.915 346.764,358.142 346.967,360.392C347.697,376.501 365.717,382.556 378.842,386.306C392.764,390.298 414.092,397.845 427.217,388.986C428.791,387.962 429.979,386.446 430.592,384.673C431.967,382.474 432.213,379.751 431.248,377.341C430.287,374.931 428.229,373.126 425.717,372.486C409.416,367.528 393.513,361.333 378.158,353.951C371.154,350.072 362.806,349.454 355.31,352.263ZM520.131,446.521C521.756,450.935 522.943,454.384 524.006,456.439C524.478,459.138 524.666,461.88 524.568,464.622C524.42,469.427 523.205,474.138 521.006,478.411C520.49,479.556 519.861,480.642 519.131,481.657C518.447,482.708 517.697,483.708 516.881,484.657L514.443,487.404C513.373,488.423 512.252,489.38 511.076,490.271C507.256,493.423 502.627,495.435 497.717,496.075C492.822,496.591 487.877,496.384 483.045,495.458C474.56,493.626 466.588,489.935 459.701,484.657C456.22,481.946 453.17,478.728 450.654,475.103C451.525,474.728 452.463,474.419 453.334,473.978C456.584,472.61 459.662,470.876 462.514,468.802C464.08,467.677 465.271,466.927 467.201,465.493L470.818,462.251C476.197,457.524 481.091,452.274 485.427,446.575C490.029,440.415 493.923,433.758 497.04,426.727C498.661,427.289 500.349,427.852 501.849,428.481C506.54,429.887 510.806,432.438 514.263,435.907C514.892,436.711 515.751,437.34 516.259,438.278C516.767,439.215 517.263,440.153 517.704,441.024C518.669,442.782 519.482,444.622 520.13,446.52L520.131,446.521ZM1114.9,705.32C1138.37,719.925 1139.02,749.999 1132.48,776.937C1125.5,806.019 1096.62,821.187 1074.12,837.734C1029.11,870.734 983.297,901.195 930.43,920.234C882.482,937.465 831.494,935.336 782.49,947.945C736.547,959.805 698.41,993.141 658.34,1017.05C658.758,1006.36 654.79,995.957 647.352,988.266C661.145,979.661 675.188,971.606 688.481,963.61C726.121,941.138 764.137,917.231 806.211,903.751C842.769,892.013 882.199,895.013 919.371,882.517C943.535,875.103 965.14,861.071 981.734,842.009L981.738,842.005C994.777,837.13 1009.7,830.83 1025.43,823.65C1048.98,813.35 1068.88,802.303 1083.67,796.623C1085.55,795.873 1087.3,795.068 1088.98,794.506C1090.66,793.943 1092.16,793.435 1093.59,792.939C1096.15,791.9 1098.78,791.025 1101.45,790.322C1106.07,789.01 1108.58,787.697 1108.51,786.451C1108.45,785.205 1105.83,784.135 1101.14,783.33C1098.17,782.857 1095.15,782.756 1092.15,783.021L1092.16,783.017C1090.34,783.142 1088.41,783.197 1086.35,783.385C1084.42,783.759 1082.36,784.08 1080.23,784.455C1070.29,786.494 1060.57,789.435 1051.17,793.248L1051.16,793.248C1045.99,795.31 1040.56,797.56 1035.12,799.931C1034.48,800.166 1033.86,800.435 1033.25,800.74C1030.84,799.951 1028.2,800.22 1026,801.49L1026,801.486C977.504,827.83 920.703,844.248 868.644,862.791C840.488,873.549 810.441,878.475 780.324,877.268C749.797,875.525 706.222,860.732 703.785,825.959C703.734,825.107 703.566,824.268 703.289,823.463C709.84,816.283 715.899,809.045 721.391,801.994C736.372,782.58 751.168,762.94 765.895,743.252C766.293,743.143 766.672,742.975 767.02,742.756L767.016,742.752C796.727,725.4 828.876,712.979 858.649,695.877C875.008,686.514 890.243,676.717 906.528,669.412L906.903,669.279L908.028,668.971C909.594,668.596 911.149,668.154 912.715,667.724C915.895,666.853 919.083,665.916 922.391,664.978C928.946,662.982 935.621,661.791 942.426,660.049L947.039,658.857L949.973,658.295C950.348,658.295 950.723,658.24 951.164,658.24C952.457,658.139 953.723,657.822 954.914,657.303C957.301,656.728 959.719,656.314 962.161,656.057L962.157,656.057C965.282,655.736 968.215,655.185 971.336,654.932C974.457,654.678 977.571,654.435 980.571,654.182C992.739,653.31 1003.98,652.869 1013.53,651.932C1032.74,650.185 1044.37,646.248 1043.99,643.877C1043.81,642.697 1041.13,641.947 1036.44,641.318C1031.37,629.919 1022.09,620.927 1010.54,616.228C1002.76,614.677 994.903,613.552 987.005,612.853C972.396,609.666 957.97,605.666 943.806,600.873L943.806,600.877C896.556,588.604 841.814,602.995 795.306,614.854C781.58,607.596 762.353,605.667 750.361,601.729C730.017,595.053 710.228,587.936 690.259,581.252C683.88,577.022 677.087,573.447 669.989,570.584C660.704,566.604 651.044,563.569 641.153,561.526C631.45,560.272 621.607,560.588 612.005,562.463L612.005,562.467C610.318,562.842 608.564,563.217 607.009,563.592L602.509,565.026C597.212,566.752 591.814,568.151 586.345,569.205C581.329,569.74 576.282,569.908 571.243,569.701C566.302,569.514 561.376,568.994 556.505,568.147L556.505,568.143C552.388,567.272 548.517,566.455 545.021,565.651C541.217,564.338 537.662,562.959 534.541,561.901C533.725,561.647 532.975,561.404 532.225,561.217C532.1,561.151 531.228,560.776 530.732,560.588C529.795,560.256 528.877,559.861 527.986,559.408C524.092,555.151 520.732,550.428 517.994,545.346L517.99,545.346L515.685,541.288L510.943,543.538C498.697,549.749 485.1,552.835 471.373,552.518C454.314,551.354 437.635,546.928 422.248,539.479L422.248,539.483C413.444,535.733 404.709,531.362 394.967,527.116C390.225,525.061 385.416,522.933 380.615,520.815C378.115,519.757 375.873,518.558 373.248,517.628C370.623,516.702 368.006,515.698 365.381,514.761C354.889,511.018 344.033,507.081 333.42,503.585C328.115,501.772 322.611,500.085 317.248,498.155C311.884,496.221 306.58,494.225 301.15,492.229C291.942,488.928 282.821,485.674 273.962,482.366C265.103,479.057 255.735,476.499 246.876,473.62C238.446,470.694 229.766,468.311 221.899,465.069C218.04,463.444 214.165,461.823 210.36,460.202C208.485,459.385 206.489,458.635 204.735,457.831C202.86,456.827 200.985,455.835 199.11,454.897C169.215,439.354 141.876,425.748 119.274,414.256C118.094,413.701 116.969,413.139 115.844,412.576C108.605,408.124 101.426,403.444 94.75,398.514C93.867,397.764 93.063,397.014 92.246,396.198C86.246,390.241 80.637,383.905 75.453,377.225L75.457,377.225C66.718,366.303 61.347,360.365 60.23,360.873C58.109,356.244 56.816,351.279 56.414,346.201C57.257,344.299 57.433,342.162 56.918,340.146L56.922,340.146C53.172,323.666 71.836,304.943 81.887,294.021C91.731,283.662 103.669,275.514 116.903,270.115L116.899,270.115C117.395,269.982 117.903,269.861 118.465,269.674C124.895,267.49 132.567,264.928 141.059,262.061C149.981,259.045 159.118,256.729 168.399,255.135L168.399,255.131C188.313,251.822 206.988,250.764 220.59,249.451C234.191,248.139 242.808,246.385 242.742,244.576C242.675,242.767 234.257,240.955 220.523,239.775C202.347,238.17 184.047,238.799 166.027,241.65C163.718,242.025 161.347,242.533 158.976,243.029C163.902,233.763 168.285,224.216 172.101,214.435C179.152,197.857 189.445,182.853 202.371,170.306C209.324,165.028 215.465,158.763 220.605,151.708L220.609,151.708C222.164,151.333 223.785,150.958 225.539,150.583C229.839,149.833 233.835,149.216 237.144,148.653C271.625,155.578 295.906,191.223 309.332,223.426C309.437,223.634 309.554,223.833 309.687,224.024L309.691,224.028C303.39,225.583 297.832,227.337 293.593,228.837C286.601,231.141 282.195,233.45 282.484,235.259C282.773,237.067 287.407,238.325 294.961,238.38C304.61,238.04 314.211,236.915 323.676,235.012L323.672,235.012C324.856,234.759 325.922,234.637 327.04,234.45C360.005,242.747 394.111,244.313 426.923,254.485C466.75,266.841 505.949,278.888 546.523,288.751C628.773,307.618 708.895,334.79 785.653,369.845C824.47,387.88 861.083,410.333 894.763,436.755C906.22,445.81 918.482,453.732 930.595,461.974C949.259,474.771 961.654,494.872 976.654,511.419C1000.36,537.563 1032.76,554.86 1061.97,573.958C1081.37,585.528 1097.53,601.801 1108.97,621.274C1119.64,640.192 1116.96,656.102 1111.41,673.641C1104.88,676.395 1098.14,678.61 1091.25,680.258C1084.26,682.012 1076.76,683.071 1069.78,684.571C1060.37,686.094 1051.09,688.289 1042,691.133L1042,691.137C1031.7,694.383 1021.27,698.254 1010.47,701.938C999.802,705.247 988.747,708.809 976.954,711.922C970.962,713.672 965.157,715.352 959.29,717.04C953.422,718.727 947.555,720.415 942.313,722.477C939.563,723.469 936.876,724.473 934.258,725.411L930.321,726.903L928.325,727.598L926.958,728.161L926.02,728.59C920.899,730.774 915.969,732.958 911.094,735.02C901.504,739.266 892.243,743.391 883.692,747.375C875.141,751.359 867.211,755.11 859.973,758.859C852.735,762.609 846.118,765.863 840.688,769.171C835.258,772.484 830.637,775.417 826.887,777.976C819.462,783.031 815.59,786.273 816.153,787.398C816.716,788.523 821.638,787.277 830.075,784.156C834.321,782.597 839.442,780.534 845.309,778.042C851.216,775.792 857.852,773.23 865.278,770.363C872.528,767.429 880.7,764.363 889.505,761.062L917.454,750.25C922.395,748.308 927.45,746.379 932.567,744.316L948.169,739.011C953.661,736.949 959.032,735.636 964.649,734.015C970.267,732.39 976.013,730.769 981.751,729.148C993.556,726.027 1005.16,722.23 1016.34,718.48C1022.83,716.043 1029.07,713.672 1035.26,711.3C1038.62,710.672 1042,710.054 1046.36,709.613C1051.16,708.996 1056.08,708.488 1061.22,707.738C1066.35,706.988 1071.41,706.304 1076.22,705.554L1079.85,704.992L1083.03,704.617C1085.11,704.308 1087.22,704.125 1089.33,704.062C1096.63,703.558 1103.97,703.769 1111.22,704.691C1112.53,704.879 1113.72,705.066 1114.9,705.32L1114.9,705.32ZM279.72,336.659C278.466,346.776 279.533,352.952 280.904,353.073C282.466,353.28 284.025,347.272 286.959,338.28C288.533,333.179 290.689,328.28 293.392,323.675C294.08,322.405 294.873,321.194 295.763,320.058C296.615,318.753 297.595,317.538 298.697,316.437L298.697,316.44C301.127,313.757 303.31,311.253 305.869,308.761C314.443,300.156 324.169,292.78 334.771,286.851C337.935,285.159 341.232,283.741 344.634,282.605L344.638,282.601C347.13,281.796 348.818,281.288 348.818,280.483C348.759,279.855 347.38,278.917 344.513,278.487C340.295,278.128 336.049,278.616 332.025,279.921C319.341,284.328 307.865,291.636 298.509,301.269C295.814,303.913 293.271,306.706 290.888,309.632C289.638,311.039 288.533,312.566 287.579,314.187C286.525,315.73 285.607,317.363 284.829,319.062C282.158,324.601 280.431,330.551 279.72,336.66L279.72,336.659ZM452.431,322.999C416.858,290.421 367.358,282.863 327.721,313.015C285.267,345.343 299.255,394.714 330.025,429.175C356.555,458.847 415,469.808 446.875,441.972C479.087,413.938 481.016,360.258 456.118,327.172C455.692,326.258 455.098,325.433 454.364,324.746C453.786,324.094 453.137,323.504 452.434,322.992L452.43,322.992L452.431,322.999ZM160.862,404.824C171.233,409.195 177.811,411.258 178.612,410.012C179.409,408.762 173.98,404.387 164.55,398.395C159.874,395.34 154.128,391.973 147.761,388.223C141.393,384.473 134.409,380.422 126.909,376.297C123.167,374.242 119.549,372.246 115.987,370.371L113.362,368.937L111.307,367.68C109.874,366.687 108.495,365.629 107.182,364.625C102.522,360.942 98.604,356.406 95.631,351.266L95.631,351.27C90.701,342.532 92.885,335.668 91.264,335.106C90.951,335.039 90.455,335.348 89.959,336.043C89.092,337.051 88.471,338.25 88.139,339.539C86.78,344.371 87.022,349.516 88.834,354.199C91.315,360.999 95.409,367.101 100.76,371.976L100.76,371.98C102.26,373.293 103.823,374.66 105.503,375.918L108.315,377.847L110.94,379.347C114.436,381.344 118.057,383.406 121.741,385.461C129.167,389.539 136.292,393.523 142.956,396.711C149.62,399.898 155.694,402.644 160.87,404.828L160.862,404.824ZM189.839,333.859C201.989,338.846 214.716,342.289 227.725,344.113C231.748,344.668 235.834,344.606 239.838,343.926L239.842,343.922C242.709,343.481 244.209,342.918 244.209,342.168C244.209,341.418 242.783,340.68 240.092,339.863C237.401,339.051 233.659,338.301 229.104,336.809C220.049,334.25 207.588,329.254 193.526,324.012C181.87,320.164 170.765,314.804 160.499,308.074C157.796,306.156 155.503,303.714 153.757,300.894L153.753,300.89C152.628,298.64 152.198,296.777 151.382,296.898C150.765,296.964 149.761,298.269 149.64,301.39C150.108,305.968 152.136,310.241 155.378,313.503C165.183,322.8 176.968,329.757 189.843,333.855L189.839,333.859ZM304.809,469.5C316.106,472.863 323.594,472.996 323.848,471.672C324.157,470.113 317.727,467.488 307.555,462.558C297.383,457.624 283.957,449.882 267.852,442.081C251.813,434.589 236.895,429.968 226.04,425.917C215.176,422.101 208.192,420.413 207.563,421.726C206.938,423.039 212.872,427.164 222.977,432.656C232.837,438.46 247.883,444.382 263.485,451.687C276.805,458.624 290.618,464.577 304.809,469.499L304.809,469.5ZM530.21,482.98C532.983,477.347 534.362,471.132 534.222,464.859C534.116,455.37 531.23,446.124 525.925,438.261C525.89,438.085 525.823,437.917 525.737,437.765C525.296,436.519 524.8,435.206 524.292,433.827C523.608,432.522 522.671,431.21 521.8,429.897C517.668,424.647 512.058,420.757 505.695,418.721C504.074,418.038 502.453,417.542 500.953,417.034C502.144,413.479 503.269,409.862 504.14,406.112C511.207,377.951 508.113,348.197 495.402,322.092C492.534,316.279 489.171,310.724 485.351,305.49C483.476,302.994 481.359,300.744 479.417,298.373C478.421,297.248 477.417,296.068 476.425,294.943L473.116,291.943C470.745,289.888 469.058,288.201 466.312,285.951C464.054,284.33 461.698,282.849 459.261,281.517C454.46,278.881 449.308,276.947 443.96,275.779C435.21,273.904 426.23,273.314 417.308,274.029C409.573,274.533 403.14,275.408 397.835,276.213C387.347,277.779 381.475,278.838 381.542,279.775C381.608,280.713 387.53,281.463 398.21,281.517C403.515,281.584 410.003,281.463 417.437,281.705C425.586,281.795 433.687,282.951 441.531,285.146C445.863,286.369 450.004,288.193 453.824,290.576C455.941,291.865 457.965,293.302 459.879,294.877C461.629,296.564 463.375,298.306 465.183,300.06L467.996,302.873C468.867,303.869 469.683,304.994 470.554,305.986C472.179,308.17 473.988,310.232 475.609,312.549C478.801,317.326 481.621,322.342 484.047,327.549C494.761,351.154 497.16,377.689 490.855,402.83C487.832,415.721 482.316,427.892 474.617,438.662C470.899,443.716 466.672,448.384 462.008,452.584L458.454,455.884L455.145,458.255C452.918,459.982 450.485,461.427 447.907,462.568C437.981,467.216 427.09,469.42 416.137,468.998C406.188,468.705 396.293,467.408 386.606,465.127C372.273,461.522 358.184,457.018 344.418,451.647C334.593,447.842 328.874,445.912 328.48,446.717C328.086,447.522 332.773,451.084 342.148,456.447C355.444,463.912 369.487,469.959 384.046,474.494C394.35,477.592 404.964,479.557 415.694,480.354C425.819,481.03 435.983,479.869 445.694,476.92C447.768,481.924 450.846,486.452 454.741,490.217C462.01,497.268 470.979,502.323 480.776,504.889C486.726,506.393 492.889,506.881 498.999,506.323C505.916,505.545 512.459,502.795 517.854,498.401C519.033,497.342 520.158,496.526 521.35,495.335L524.904,491.405C525.975,490.104 526.955,488.729 527.838,487.292C528.795,485.952 529.592,484.502 530.209,482.979L530.21,482.98ZM740.139,403.272C760.549,412.693 773.253,418.291 773.936,417.045C774.62,415.799 763.069,407.811 743.475,396.635C717.818,382.021 691.193,369.181 663.787,358.197L663.791,358.197C647.681,351.897 632.017,346.526 617.533,342.467C604.674,338.815 591.576,336.065 578.334,334.233C555.431,331.166 541.509,333.162 541.443,334.354C541.443,336.041 555.654,336.791 577.068,341.592C605.369,348.139 633.092,356.971 659.963,368.002C691.631,380.631 719.784,393.756 740.139,403.291L740.139,403.272ZM846.998,579.911C877.775,577.501 903.556,576.29 903.568,573.13C903.568,571.689 897.201,570.318 886.834,569.447C873.252,568.279 859.596,568.279 846.014,569.447C832.21,570.665 818.643,573.794 805.702,578.747L805.706,578.751C796.089,582.931 790.725,586.552 791.222,587.986C791.719,589.419 798.215,588.048 808.199,585.743C817.957,583.802 831.605,581.431 847.019,579.931L846.998,579.911ZM884.331,488.345C905.178,501.076 921.85,511.502 923.866,509.15C925.675,507.088 911.124,492.428 889.909,479.377C868.741,466.701 850.46,458.283 848.96,460.775C847.46,463.267 863.257,475.689 884.351,488.365L884.331,488.345ZM999.811,583.353C1020.85,588.9 1038.2,593.9 1039.32,591.083C1040.39,588.524 1024.53,578.974 1002.43,573.169C992.897,570.673 983.065,569.517 973.213,569.74C965.791,570.236 961.299,571.623 961.299,573.115C961.299,574.607 965.912,575.798 972.971,577.166C979.768,578.666 989.319,580.728 999.811,583.353ZM869.473,842.138C882.458,837.525 890.013,833.552 889.532,832.115C889.055,830.681 880.665,832.31 867.493,834.927C854.321,837.544 836.099,841.482 815.997,843.666C799.239,846.318 782.106,845.357 765.747,840.853C761.036,839.279 756.63,836.919 752.708,833.869C749.841,831.74 748.153,829.998 747.525,830.56C747.095,830.994 747.337,833.123 749.587,836.552C752.958,841.334 757.49,845.181 762.759,847.728C779.931,854.888 798.763,857.119 817.134,854.158C834.989,852.138 852.56,848.091 869.501,842.103L869.473,842.138ZM988.634,805.756C1007.78,800.072 1022.66,794.579 1022.18,791.529C1021.75,788.724 1004.89,789.907 985.794,795.587C967.313,801.032 951.329,805.72 951.958,808.712C952.52,811.4 968.684,811.587 988.661,805.72L988.634,805.756ZM634.797,985.4C627.558,985.709 619.316,995.009 614.031,998.572C605.937,1003.37 598.453,1009.13 591.746,1015.74C589.59,1014.22 586.887,1013.7 584.32,1014.3C579.748,1015.26 575.332,1016.86 571.201,1019.04C572.138,1017.29 572.942,1015.48 573.758,1013.74C587.547,994.883 612.645,982.395 632.051,970.856C654.773,957.375 677.808,944.203 700.656,930.844C724.035,916.188 748.969,904.173 775,895.012C785.027,896.098 795.125,896.454 805.207,896.071C794.277,898.481 783.586,901.845 773.246,906.122C735.058,922.294 699.413,946.138 663.956,967.427C654.488,973.099 644.542,979.033 634.8,985.4L634.797,985.4ZM571.199,1019.04L571.195,1019.04C571.197,1019.04 571.199,1019.04 571.201,1019.04C571.2,1019.04 571.2,1019.04 571.199,1019.04ZM636.3,995.45C643.292,996.079 647.409,1012.62 649.163,1025.11C649.171,1025.75 649.151,1026.39 649.097,1027.04C648.811,1027.33 648.542,1027.64 648.288,1027.97C644.269,1034.7 638.276,1040.02 631.124,1043.21C627.87,1043.77 624.761,1044.14 622.378,1044.39C616.515,1045.06 610.608,1045.27 604.714,1045.02C594.608,1044.66 595.226,1035.34 596.042,1027.79C608.312,1015.65 621.8,1004.81 636.3,995.45Z" style="fill-rule:nonzero;"/>
    </g>
</svg>
