<!-- Generated by IcoMoon.io -->
<svg version="1.1" xmlns="http://www.w3.org/2000/svg" width="32" height="32" viewBox="0 0 32 32">
<path d="M27.659 30.907c-1.337 0.404-2.715 0.656-4.108 0.75-1.273-2.353-2.187-4.883-2.713-7.506 0.867-0.148 1.723-0.351 2.563-0.609 0.76 2.662 2.139 5.106 4.025 7.133 0.074 0.078 0.154 0.155 0.233 0.232zM20.961 3.288c-0.687 1.897-1.199 3.854-1.529 5.845-0.93 0.084-1.89 0.131-2.861 0.145v-5.853c1.528-0.009 3.017-0.056 4.39-0.137zM12.746 10.292c0.878 0.072 1.772 0.115 2.681 0.129v5.009h-2.297c-0.022-1.719-0.15-3.435-0.385-5.137zM18.867 15.429h-2.297v-5.009c0.912-0.013 1.806-0.056 2.681-0.129-0.234 1.703-0.363 3.418-0.385 5.137zM15.428 16.572v6.846c-0.977-0.019-1.952-0.091-2.921-0.218 0.388-2.189 0.596-4.405 0.622-6.628zM16.571 16.572h2.299c0.026 2.223 0.234 4.439 0.622 6.628-0.969 0.127-1.944 0.199-2.921 0.218zM20.621 23.029c-0.38-2.132-0.583-4.291-0.609-6.456h2.291c0.034 1.98 0.3 3.95 0.79 5.868-0.811 0.25-1.637 0.446-2.473 0.588zM22.304 15.43h-2.294c0.022-1.754 0.159-3.505 0.409-5.242 0.911-0.1 1.789-0.231 2.618-0.4-0.453 1.848-0.699 3.739-0.734 5.641zM23.372 8.543c-0.91 0.206-1.831 0.364-2.757 0.473 0.343-1.984 0.877-3.93 1.594-5.811 1.352-0.091 2.698-0.253 4.032-0.486-1.284 1.762-2.254 3.732-2.869 5.824zM15.428 9.277c-0.967-0.014-1.926-0.061-2.861-0.145-0.33-1.991-0.842-3.947-1.529-5.844 1.382 0.082 2.852 0.127 4.39 0.137zM9.79 3.205c0.718 1.881 1.252 3.827 1.594 5.811-0.927-0.109-1.847-0.267-2.757-0.473-0.615-2.091-1.586-4.061-2.869-5.824 1.334 0.232 2.68 0.394 4.032 0.486zM11.579 10.188c0.25 1.737 0.387 3.487 0.409 5.242h-2.294c-0.035-1.902-0.281-3.794-0.734-5.641 0.83 0.169 1.708 0.3 2.618 0.4zM9.695 16.573h2.291c-0.026 2.165-0.229 4.325-0.609 6.456-0.836-0.142-1.662-0.338-2.473-0.588 0.491-1.919 0.756-3.888 0.791-5.868zM12.293 24.325c1.040 0.139 2.086 0.218 3.135 0.237v7.435c-2.191-0.013-4.117-0.099-5.736-0.228 1.205-2.35 2.081-4.855 2.601-7.444zM16.571 24.562c1.049-0.019 2.096-0.098 3.135-0.237 0.52 2.589 1.395 5.094 2.601 7.444-1.619 0.129-3.545 0.215-5.736 0.228zM8.819 0.307c2.103-0.2 4.586-0.306 7.18-0.306 6.173 0 10.356 0.58 11.659 1.094-0.043 0.042-0.086 0.085-0.128 0.127-1.885 0.509-3.822 0.801-5.773 0.872-1.738 0.126-3.73 0.193-5.759 0.193-2.052 0-3.99-0.065-5.76-0.193-1.951-0.071-3.887-0.364-5.772-0.872-0.039-0.039-0.078-0.079-0.118-0.118 1.454-0.44 2.954-0.708 4.47-0.797zM8.598 23.542c0.841 0.257 1.697 0.461 2.563 0.609-0.526 2.623-1.44 5.153-2.713 7.506-1.393-0.094-2.771-0.346-4.108-0.75 0.077-0.075 0.156-0.151 0.227-0.226 1.889-2.028 3.27-4.474 4.031-7.139z"></path>
</svg>
