<?xml version="1.0" encoding="UTF-8"?>
<svg version="1.1" viewBox="0 0 1200 1200" xmlns="http://www.w3.org/2000/svg" width="150pt" height="150pt">
 <path d="m1037.2 1159c-50.129 15.152-101.81 24.586-154.06 28.125-47.734-88.242-82.027-183.11-101.75-281.48 32.496-5.5547 64.602-13.18 96.125-22.824 28.492 99.824 80.215 191.48 150.94 267.48 2.7773 2.9219 5.7852 5.8086 8.7422 8.6992zm-251.17-1035.7c-25.77 71.156-44.969 144.52-57.352 219.18-34.887 3.1367-70.867 4.9062-107.28 5.4219v-219.48c57.293-0.35156 113.14-2.0938 164.63-5.125zm-308.04 262.65c32.918 2.707 66.434 4.3203 100.55 4.8359v187.82h-86.121c-0.81641-64.453-5.6367-128.8-14.426-192.65zm229.53 192.65h-86.121v-187.82c34.211-0.47266 67.727-2.082 100.55-4.8242-8.7891 63.852-13.609 128.19-14.426 192.64zm-128.98 42.859v256.71c-36.633-0.69531-73.199-3.418-109.53-8.1562 14.559-82.074 22.359-165.2 23.32-248.55zm42.859 0h86.211c0.96094 83.348 8.7617 166.48 23.32 248.55-36.332 4.7461-72.898 7.4727-109.53 8.1562zm151.9 242.11c-14.242-79.941-21.879-160.91-22.832-242.11h85.922c1.2852 74.254 11.234 148.11 29.641 220.05-30.398 9.3594-61.375 16.723-92.73 22.051zm63.105-284.96h-86.027c0.83203-65.785 5.9609-131.45 15.352-196.56 34.16-3.7422 67.102-8.6758 98.191-14.992-16.98 69.281-26.211 140.23-27.516 211.55zm40.043-258.25c-34.133 7.7266-68.648 13.652-103.4 17.746 12.852-74.398 32.875-147.38 59.789-217.92 50.688-3.4258 101.16-9.5039 151.21-18.215-48.137 66.082-84.535 139.96-107.6 218.39zm-297.91 27.531c-36.258-0.51562-72.227-2.2812-107.28-5.4219-12.387-74.648-31.582-148.01-57.352-219.16 51.832 3.0625 106.95 4.7812 164.63 5.1211zm-211.43-227.7c26.914 70.543 46.938 143.52 59.789 217.92-34.754-4.0938-69.266-10.016-103.4-17.746-23.062-78.43-59.457-152.3-107.58-218.39 50.043 8.707 100.51 14.789 151.19 18.215zm67.109 261.85c9.3906 65.121 14.516 130.78 15.348 196.57h-86.027c-1.3086-71.32-10.535-142.27-27.512-211.55 31.109 6.3242 64.062 11.254 98.191 14.988zm-70.66 239.43h85.918c-0.95703 81.191-8.5898 162.17-22.832 242.11-31.355-5.3242-62.332-12.691-92.73-22.055 18.406-71.949 28.355-145.8 29.645-220.05zm97.418 290.71c38.984 5.2227 78.238 8.1914 117.57 8.8906v278.82c-82.172-0.49219-154.37-3.707-215.09-8.5547 45.203-88.121 78.023-182.06 97.523-279.16zm160.43 8.8906c39.328-0.69531 78.586-3.6641 117.57-8.8945 19.5 97.102 52.316 191.04 97.52 279.16-60.723 4.8477-132.92 8.0625-215.09 8.5508zm-290.69-909.56c78.871-7.5117 171.98-11.477 269.26-11.477 231.47 0 388.35 21.758 437.23 41.02-1.625 1.5898-3.2344 3.1797-4.7891 4.7617-70.691 19.074-143.32 30.047-216.49 32.703-65.184 4.7305-139.86 7.2305-215.95 7.2305-76.945 0-149.61-2.4297-216.01-7.2305-73.152-2.6602-145.77-13.633-216.44-32.707-1.4492-1.4727-2.9414-2.9453-4.4375-4.4141 54.512-16.504 110.77-26.535 167.63-29.887zm-8.2891 871.32c31.52 9.6484 63.625 17.277 96.121 22.832-19.723 98.363-54.016 193.23-101.75 281.47-52.246-3.5391-103.93-12.977-154.06-28.121 2.8906-2.8281 5.8477-5.6602 8.5234-8.4727 70.824-76.043 122.62-167.79 151.16-267.71z"/>
</svg>
