<?xml version="1.0" encoding="UTF-8"?>
<svg version="1.1" viewBox="0 0 1200 1200" xmlns="http://www.w3.org/2000/svg" width="150pt" height="150pt">
 <path d="m320.76 318.94 27.703 5.7656c4.3125 0.84375 7.8281 3.9844 9.1406 8.1562 2.5312 8.0156 5.7188 15.75 9.6094 23.203 1.9219 3.7969 1.7344 8.3906-0.60938 12l-15.609 24c-3.1875 4.7344-2.5781 11.062 1.4531 15.094l27.375 27.375h-0.046875c4.0781 4.125 10.453 4.7812 15.281 1.5469l24-15.609c3.5625-2.3438 8.1562-2.5312 12-0.60938 7.4062 3.7969 15.094 6.9844 23.016 9.6094 4.1719 1.3125 7.2656 4.7344 8.1562 9l5.7656 27.75c1.1719 5.6719 6.1875 9.7031 12 9.5625h38.391c5.8125 0.14062 10.875-3.8906 12-9.5625l5.625-27.844h0.046875c0.84375-4.2656 3.9844-7.7344 8.1562-9 7.9688-2.5781 15.703-5.7656 23.156-9.6094 3.7969-1.9688 8.3906-1.7344 12 0.60938l24 15.609v-0.046875c4.7812 3.2344 11.203 2.5781 15.234-1.5469l27.234-27.375v0.046875c4.0312-4.0312 4.6875-10.359 1.5469-15.141l-15.609-24c-2.2969-3.6094-2.5312-8.2031-0.5625-12 3.8438-7.4531 7.0781-15.188 9.5625-23.156 1.3125-4.1719 4.7812-7.2656 9-8.1562l27.844-5.7656c5.6719-1.1719 9.75-6.1875 9.6094-12v-38.391c0.14062-5.8125-3.9375-10.875-9.6094-12l-27.844-5.7656c-4.2188-0.89062-7.6875-4.0312-9-8.1562-2.4844-7.9688-5.7188-15.656-9.5625-23.062-1.9688-3.7969-1.7344-8.3906 0.5625-12l15.609-24c3.1406-4.7344 2.4844-11.062-1.5469-15.094l-27.234-27.375c-4.0312-4.125-10.453-4.7812-15.234-1.5469l-24 15.609c-3.6094 2.2969-8.2031 2.5312-12 0.5625-7.4531-3.7969-15.188-6.9375-23.156-9.4688-4.1719-1.3594-7.2188-4.8281-8.0625-9.0938l-5.7656-27.844c-1.125-5.7188-6.1875-9.75-12-9.6094h-38.391c-5.8125-0.14062-10.828 3.8906-12 9.6094l-5.7656 27.844c-0.84375 4.2656-3.9844 7.7812-8.1562 9.0938-7.9219 2.5312-15.609 5.7188-23.016 9.4688-3.8438 1.9688-8.4375 1.7344-12-0.5625l-24-15.609c-4.8281-3.2344-11.203-2.5781-15.281 1.5469l-27.375 27.375h0.046875c-4.0312 4.0312-4.6406 10.359-1.4531 15.094l15.609 24c2.3438 3.6094 2.5312 8.2031 0.60938 12-3.8906 7.4062-7.125 15.094-9.6094 23.062-1.3125 4.125-4.7344 7.2656-9 8.1562l-27.844 5.7656c-5.6719 1.125-9.7031 6.1875-9.6094 12v38.766c0 5.6719 4.0312 10.594 9.6094 11.719zm118.78-90.938c28.312-28.312 72.656-32.719 105.94-10.547 33.328 22.172 46.359 64.781 31.172 101.81-15.141 37.031-54.328 58.219-93.656 50.625-39.281-7.5938-67.734-41.859-68.062-81.891-0.14062-22.5 8.7188-44.109 24.609-60zm694.08-9.9375-94.078-54.234 22.688-39.141c7.2188-11.906 18.891-20.438 32.391-23.672 13.547-3.2344 27.797-0.9375 39.609 6.375 12.609 6.5156 21.984 17.859 26.016 31.453s2.3438 28.219-4.6406 40.547zm14.672 117.94c-9.5625-9.5156-22.547-14.766-36-14.625h-6.2344l-122.06 212.16-87.609 55.078c-12.047 7.5938-27.281 7.875-39.609 0.75s-19.641-20.484-19.078-34.734l3.7031-103.55 74.859-129.61h-204 0.046875c-4.8281 12.844-15.938 22.312-29.391 25.078l-18.938 3.8438c-1.2188 3.375-2.625 6.7031-4.0781 9.9375l10.547 16.078v0.046875c10.547 15.891 8.3906 37.078-5.1562 50.484l-27.375 27.375c-13.453 13.547-34.594 15.703-50.531 5.1562l-16.078-10.547-9.8438 4.0781-3.9375 18.844c-3.375 17.297-17.672 30.328-35.156 32.156v320.76h640.55v-452.76c0.1875-13.5-5.1094-26.484-14.625-36zm-197.29 438.61c0 7.7812-6.2812 14.062-14.062 14.156h-356.72c-7.8281 0-14.156-6.3281-14.156-14.156v-256.55c0.09375-14.391 11.766-26.016 26.156-26.062h166.31c14.391 0.046875 26.062 11.719 26.156 26.156v108h140.16c14.391 0 26.109 11.625 26.156 26.062zm178.08-12c-0.046875 14.391-11.719 26.062-26.156 26.156h-90.469c-14.391-0.14062-25.969-11.812-26.062-26.156v-123.37c0.09375-14.391 11.672-26.016 26.062-26.156h0.84375v-31.922c0-5.4844 3.1875-10.5 8.1562-12.844l29.25-16.312c4.4062-2.5781 9.7969-2.5781 14.156 0l30.234 17.391h0.046875c4.3125 2.4844 6.9844 7.0312 7.0781 12v31.922h0.70312c14.438 0.09375 26.109 11.766 26.156 26.156zm-204 228h237.61v60c-0.09375 27.609-22.453 49.969-50.062 50.016h-187.31zm-402.94 0h237.61v110.06l-237.37-0.046875zm262.55-230.06h138.1v-106.17h-138.1zm79.312-75.703c0-2.8594 2.2969-5.2031 5.1562-5.2969h26.391c1.4062 0 2.7656 0.5625 3.75 1.5469s1.5469 2.3438 1.5469 3.75v26.297c0 1.3594-0.5625 2.7188-1.5469 3.7031s-2.3438 1.5469-3.75 1.5469h-26.391c-2.8594-0.046875-5.1562-2.3906-5.1562-5.25zm-57.141 0c0-2.9062 2.3906-5.2969 5.2969-5.2969h26.391c2.8594 0.09375 5.1562 2.4375 5.1562 5.2969v26.297c0 2.8594-2.2969 5.2031-5.1562 5.25h-26.391c-2.9062 0-5.2969-2.3438-5.2969-5.25zm-163.92 14.297h65.062v61.453h-64.781zm-48.703 61.453h20.531v-75.656c0.046875-7.7344 6.375-14.016 14.156-14.016h92.859c7.7812 0 14.109 6.2812 14.156 14.016v75.609h20.062v-240h-161.76zm97.219-211.45c-0.046875-1.4062 0.46875-2.7656 1.4531-3.75s2.2969-1.5469 3.7031-1.5469h26.391c1.4062 0 2.7656 0.5625 3.75 1.5469s1.5469 2.3438 1.5469 3.75v26.859c0 1.4062-0.5625 2.7656-1.5469 3.75s-2.3438 1.5469-3.75 1.5469h-26.391c-2.8594-0.09375-5.1562-2.4375-5.1562-5.2969zm0 65.531v-0.046875c0-2.8594 2.2969-5.2031 5.1562-5.25h26.391c1.4062 0 2.7656 0.5625 3.75 1.5469s1.5469 2.2969 1.5469 3.7031v26.438c-0.09375 2.8594-2.4375 5.1562-5.2969 5.1562h-26.391c-2.8594 0-5.1562-2.3438-5.1562-5.1562zm-69-65.531c0-2.9531 2.3438-5.2969 5.25-5.2969h26.438c1.3594 0 2.7188 0.5625 3.6562 1.5469 0.98438 0.98438 1.5 2.3438 1.5 3.75v26.859c0 2.8594-2.2969 5.2031-5.1562 5.2969h-26.438c-2.9062 0-5.25-2.3906-5.25-5.2969zm0 65.531v-0.046875c0-2.9062 2.3438-5.25 5.25-5.25h26.438c2.8594 0.046875 5.1562 2.3906 5.1562 5.25v26.438c0 2.8125-2.3438 5.1562-5.1562 5.1562h-26.438c-2.8594 0-5.2031-2.2969-5.25-5.1562zm-265.45-81.375h-121.69v-211.82h50.297c4.8281 12.844 15.938 22.312 29.391 25.078l18.938 3.8438c1.2188 3.375 2.625 6.7031 4.0781 9.9375l-10.547 16.078v0.046876c-10.547 15.891-8.3906 37.078 5.1562 50.484l24 24zm151.31 319.64h654.61v108.94h-252v0.046876c-3.75 0-7.3125 1.5-9.9844 4.1719-2.625 2.625-4.0781 6.2344-4.0781 9.9844v124.08h-108.7v-124.08c0-7.7812-6.2812-14.109-14.016-14.156h-265.82c-3.75 0-7.3125 1.5-9.9844 4.1719-2.625 2.625-4.0781 6.2344-4.0312 9.9844v124.08h-109.08v-416.16c0-7.7344-6.2812-14.062-14.062-14.062h-135.84v-108.56h135.84c7.7812 0 14.062-6.2812 14.062-14.062v-81.375c8.8594 0.75 17.766-1.5469 25.172-6.4688l16.219-10.547 9.8438 4.0781 3.9375 18.844c3.75 18.844 20.391 32.344 39.609 32.156h14.531v334.78c-0.09375 7.7344 6.0938 14.062 13.781 14.156zm-273-154.31h121.69v401.53h-206.39c-62.344-1.3594-112.45-51.656-113.53-114-0.75-31.547 11.25-62.016 33.281-84.609 21.984-22.594 52.172-35.344 83.719-35.391h41.531c21.938 0 39.703-17.766 39.703-39.703zm-183.84 181.92c-5.25 5.2031-10.031 10.828-14.391 16.828v-600c0.14062-41.719 33.891-75.469 75.609-75.609h82.922c3.1875 0 6.2344 1.2656 8.4844 3.5156s3.5156 5.2969 3.5156 8.4844v592.55c0 3.1875-1.2656 6.2344-3.5156 8.4844s-5.2969 3.5156-8.4844 3.5156h-41.531c-38.438-0.09375-75.375 15.094-102.61 42.234zm963-120h86.391v-119.25h-86.391zm21-94.547c0-2.6719 2.1562-4.7812 4.8281-4.7812h31.453-0.046875c1.3125 0 2.5312 0.46875 3.4219 1.4062 0.89062 0.89062 1.4062 2.1094 1.4062 3.375v19.312c0 1.2656-0.51562 2.4844-1.4062 3.4219-0.89062 0.89062-2.1094 1.4062-3.4219 1.4062h-31.406c-2.6719 0-4.8281-2.1562-4.8281-4.8281zm0 50.531c0-2.6719 2.1562-4.8281 4.8281-4.8281h31.453-0.046875c1.3125 0 2.5312 0.51562 3.4219 1.4062 0.89062 0.9375 1.4062 2.1562 1.4062 3.4219v19.312c0 1.2656-0.51562 2.4844-1.4062 3.375-0.89062 0.9375-2.1094 1.4062-3.4219 1.4062h-31.406c-2.6719 0-4.8281-2.1562-4.8281-4.7812zm38.531-103.45h-32.531v-24l16.219-9.375 16.312 9.375zm-198-166.22 149.53-258.47 94.078 54.375-149.29 258.47zm-7.5469 28.078 81.141 46.781-68.391 42.938-0.046875 0.046876c-3.2344 2.0625-7.3125 2.0625-10.547 0-3.375-1.8281-5.3438-5.3906-5.1562-9.2344zm-408.98-147.56c-18.797-18.891-21.703-48.469-6.8438-70.594 14.859-22.172 43.266-30.75 67.922-20.531 24.609 10.219 38.578 36.422 33.375 62.578s-28.172 44.953-54.844 44.953c-14.859 0-29.109-5.9062-39.609-16.406z" fill-rule="evenodd"/>
</svg>
