<!-- Generated by IcoMoon.io -->
<svg version="1.1" xmlns="http://www.w3.org/2000/svg" width="32" height="32" viewBox="0 0 32 32">
<path d="M8.554 8.505l0.739 0.154c0.115 0.023 0.209 0.106 0.244 0.217 0.068 0.214 0.152 0.42 0.256 0.619 0.051 0.101 0.046 0.224-0.016 0.32l-0.416 0.64c-0.085 0.126-0.069 0.295 0.039 0.402l0.73 0.73h-0.001c0.109 0.11 0.279 0.127 0.408 0.041l0.64-0.416c0.095-0.063 0.217-0.068 0.32-0.016 0.197 0.101 0.402 0.186 0.614 0.256 0.111 0.035 0.194 0.126 0.217 0.24l0.154 0.74c0.031 0.151 0.165 0.259 0.32 0.255h1.024c0.155 0.004 0.29-0.104 0.32-0.255l0.15-0.742h0.001c0.023-0.114 0.106-0.206 0.217-0.24 0.213-0.069 0.419-0.154 0.617-0.256 0.101-0.053 0.224-0.046 0.32 0.016l0.64 0.416v-0.001c0.128 0.086 0.299 0.069 0.406-0.041l0.726-0.73v0.001c0.108-0.107 0.125-0.276 0.041-0.404l-0.416-0.64c-0.061-0.096-0.067-0.219-0.015-0.32 0.102-0.199 0.189-0.405 0.255-0.617 0.035-0.111 0.128-0.194 0.24-0.217l0.742-0.154c0.151-0.031 0.26-0.165 0.256-0.32v-1.024c0.004-0.155-0.105-0.29-0.256-0.32l-0.742-0.154c-0.113-0.024-0.205-0.107-0.24-0.218-0.066-0.213-0.152-0.418-0.255-0.615-0.052-0.101-0.046-0.224 0.015-0.32l0.416-0.64c0.084-0.126 0.066-0.295-0.041-0.402l-0.726-0.73c-0.108-0.11-0.279-0.127-0.406-0.041l-0.64 0.416c-0.096 0.061-0.219 0.067-0.32 0.015-0.199-0.101-0.405-0.185-0.617-0.252-0.111-0.036-0.193-0.129-0.215-0.243l-0.154-0.743c-0.030-0.152-0.165-0.26-0.32-0.256h-1.024c-0.155-0.004-0.289 0.104-0.32 0.256l-0.154 0.743c-0.023 0.114-0.106 0.208-0.217 0.243-0.211 0.067-0.416 0.153-0.614 0.252-0.102 0.053-0.225 0.046-0.32-0.015l-0.64-0.416c-0.129-0.086-0.299-0.069-0.408 0.041l-0.73 0.73h0.001c-0.107 0.107-0.124 0.276-0.039 0.402l0.416 0.64c0.063 0.096 0.068 0.219 0.016 0.32-0.104 0.197-0.19 0.402-0.256 0.615-0.035 0.11-0.126 0.194-0.24 0.218l-0.742 0.154c-0.151 0.030-0.259 0.165-0.256 0.32v1.034c0 0.151 0.107 0.283 0.256 0.313zM11.721 6.080c0.755-0.755 1.938-0.873 2.825-0.281 0.889 0.591 1.236 1.728 0.831 2.715-0.404 0.988-1.449 1.553-2.498 1.35-1.047-0.203-1.806-1.116-1.815-2.184-0.004-0.6 0.232-1.176 0.656-1.6zM30.816 4.784c0.186-0.329 0.231-0.719 0.124-1.081s-0.358-0.665-0.694-0.839c-0.315-0.195-0.695-0.256-1.056-0.17-0.36 0.086-0.671 0.314-0.864 0.631l-0.605 1.044 2.509 1.446zM30.621 8.96c-0.255-0.254-0.601-0.394-0.96-0.39h-0.166l-3.255 5.658-2.336 1.469c-0.321 0.203-0.727 0.21-1.056 0.020s-0.524-0.546-0.509-0.926l0.099-2.761 1.996-3.456h-5.439c-0.129 0.342-0.425 0.595-0.784 0.669l-0.505 0.102c-0.032 0.090-0.070 0.179-0.109 0.265l0.281 0.429v0.001c0.281 0.424 0.224 0.989-0.137 1.346l-0.73 0.73c-0.359 0.361-0.922 0.419-1.348 0.137l-0.429-0.281-0.262 0.109-0.105 0.502c-0.090 0.461-0.471 0.809-0.938 0.857v8.554h17.081v-12.074c0.005-0.36-0.136-0.706-0.39-0.96zM25.36 20.656c0 0.207-0.168 0.375-0.375 0.378h-9.513c-0.209 0-0.377-0.169-0.377-0.378v-6.841c0.002-0.384 0.314-0.694 0.697-0.695h4.435c0.384 0.001 0.695 0.313 0.698 0.697v2.88h3.738c0.384 0 0.696 0.31 0.698 0.695zM30.109 20.336c-0.001 0.384-0.313 0.695-0.698 0.698h-2.413c-0.384-0.004-0.692-0.315-0.695-0.698v-3.29c0.003-0.384 0.311-0.694 0.695-0.698h0.023v-0.851c0-0.146 0.085-0.28 0.218-0.342l0.78-0.435c0.117-0.069 0.261-0.069 0.378 0l0.808 0.464c0.115 0.066 0.186 0.188 0.189 0.32v0.851h0.019c0.385 0.003 0.696 0.314 0.698 0.698zM24.675 29.35h4.995c0.736-0.001 1.332-0.598 1.335-1.334v-1.6h-6.336zM13.93 29.35l6.33 0.001v-2.935h-6.336zM20.925 20.281h3.683v-2.831h-3.683zM23.040 18.263c0-0.076 0.061-0.139 0.137-0.141h0.704c0.038 0 0.074 0.015 0.1 0.041s0.041 0.063 0.041 0.1v0.701c0 0.036-0.015 0.073-0.041 0.099s-0.063 0.041-0.1 0.041h-0.704c-0.076-0.001-0.137-0.064-0.137-0.14zM21.516 18.263c0-0.078 0.064-0.141 0.141-0.141h0.704c0.076 0.003 0.137 0.065 0.137 0.141v0.701c0 0.076-0.061 0.139-0.137 0.14h-0.704c-0.078 0-0.141-0.063-0.141-0.14zM17.153 20.283h1.727v-1.639h-1.735zM15.846 20.283h0.548v-2.017c0.001-0.206 0.17-0.374 0.378-0.374h2.476c0.207 0 0.376 0.168 0.378 0.374v2.016h0.535v-6.4h-4.314zM18.439 14.644c-0.001-0.037 0.012-0.074 0.039-0.1s0.061-0.041 0.099-0.041h0.704c0.038 0 0.074 0.015 0.1 0.041s0.041 0.063 0.041 0.1v0.716c0 0.037-0.015 0.074-0.041 0.1s-0.063 0.041-0.1 0.041h-0.704c-0.076-0.002-0.137-0.065-0.137-0.141zM18.439 16.392v-0.001c0-0.076 0.061-0.139 0.137-0.14h0.704c0.038 0 0.074 0.015 0.1 0.041s0.041 0.061 0.041 0.099v0.705c-0.003 0.076-0.065 0.137-0.141 0.137h-0.704c-0.076 0-0.137-0.063-0.137-0.137zM16.599 15.36c0 0.078 0.063 0.141 0.14 0.141h0.705c0.076-0.002 0.137-0.065 0.137-0.141v-0.716c0-0.037-0.014-0.074-0.040-0.1-0.025-0.026-0.061-0.041-0.098-0.041h-0.705c-0.078 0-0.14 0.063-0.14 0.141zM16.599 16.392v-0.001c0-0.078 0.063-0.14 0.14-0.14h0.705c0.076 0.001 0.137 0.064 0.137 0.14v0.705c0 0.075-0.063 0.137-0.137 0.137h-0.705c-0.076 0-0.139-0.061-0.14-0.137zM9.51 12.025l-0.64-0.64c-0.361-0.357-0.419-0.922-0.137-1.346v-0.001l0.281-0.429c-0.039-0.086-0.076-0.175-0.109-0.265l-0.505-0.102c-0.359-0.074-0.655-0.326-0.784-0.669h-1.341v5.649h3.245zM13.555 22.745c-0.205-0.003-0.37-0.171-0.367-0.378v-8.927h-0.387c-0.512 0.005-0.956-0.355-1.056-0.857l-0.105-0.502-0.262-0.109-0.432 0.281c-0.197 0.131-0.435 0.193-0.671 0.172v2.17c0 0.207-0.168 0.375-0.375 0.375h-3.622v2.895h3.622c0.207 0 0.375 0.169 0.375 0.375v11.098h2.909v-3.309c-0.001-0.1 0.037-0.196 0.107-0.266 0.071-0.071 0.166-0.111 0.266-0.111h7.089c0.206 0.001 0.374 0.17 0.374 0.378v3.309h2.899v-3.309c0-0.1 0.039-0.196 0.109-0.266 0.071-0.071 0.166-0.111 0.266-0.111l6.72-0.001v-2.905h-17.456zM6.275 22.039c0 0.585-0.474 1.059-1.059 1.059h-1.107c-0.841 0.001-1.646 0.341-2.232 0.944-0.587 0.602-0.907 1.415-0.887 2.256 0.029 1.663 1.365 3.004 3.027 3.040h5.504v-10.707h-3.245zM1.373 23.482c0.726-0.724 1.711-1.129 2.736-1.126h1.107c0.085 0 0.166-0.034 0.226-0.094s0.094-0.141 0.094-0.226v-15.801c0-0.085-0.034-0.166-0.094-0.226s-0.141-0.094-0.226-0.094h-2.211c-1.112 0.004-2.013 0.904-2.016 2.016v16c0.116-0.16 0.244-0.31 0.384-0.449zM27.053 20.282h2.304v-3.18h-2.304zM27.613 17.76c0-0.071 0.058-0.128 0.129-0.128h0.837c0.035 0 0.067 0.012 0.091 0.038 0.024 0.024 0.038 0.056 0.038 0.090v0.515c0 0.034-0.014 0.066-0.038 0.091-0.024 0.024-0.056 0.038-0.091 0.038h-0.837c-0.071 0-0.129-0.058-0.129-0.129zM27.613 19.108c0-0.071 0.058-0.129 0.129-0.129h0.837c0.035 0 0.067 0.014 0.091 0.038 0.024 0.025 0.038 0.058 0.038 0.091v0.515c0 0.034-0.014 0.066-0.038 0.090-0.024 0.025-0.056 0.038-0.091 0.038h-0.837c-0.071 0-0.129-0.058-0.129-0.128zM28.64 15.709l-0.435-0.25-0.433 0.25v0.64h0.867zM25.875 13.367l3.981-6.893-2.509-1.45-3.987 6.893zM23.079 14.813c-0.005 0.102 0.047 0.197 0.137 0.246 0.086 0.055 0.195 0.055 0.281 0l1.825-1.146-2.164-1.248zM12.253 8.73c0.28 0.28 0.66 0.438 1.056 0.438 0.711 0 1.324-0.501 1.463-1.199s-0.234-1.396-0.89-1.669c-0.658-0.272-1.415-0.044-1.811 0.548-0.396 0.59-0.319 1.379 0.182 1.883z"></path>
</svg>
