<!-- Generated by IcoMoon.io -->
<svg version="1.1" xmlns="http://www.w3.org/2000/svg" width="32" height="32" viewBox="0 0 32 32">
<path d="M14.803 23.134c-0.031 0.217 0.057 0.434 0.231 0.569l6.913 5.334v0.44h-7.539l-2.255-3.142c0.246-0.094 1.081-0.039 0.905-0.457l-1.531-2.582h0.837c0.072 0 0.139-0.038 0.176-0.101 0.036-0.062 0.035-0.14-0.003-0.203l-0.828-1.39 5.236-1.793c0.172-0.062 0.31-0.196 0.372-0.368s0.045-0.363-0.049-0.521h-0.001l-1.584-2.638c0.327-0.041 0.655-0.097 0.982-0.162l3.737 2.667c-0.064 0.088-0.154 0.208-0.088 0.319 0.036 0.067 0.106 0.11 0.182 0.109h0.84l-0.869 1.45-5.276 1.984c-0.208 0.078-0.357 0.264-0.389 0.485l-0-0zM17.979 2.243c0.378 0 0.72 0.153 0.967 0.401s0.4 0.589 0.4 0.967c0 0.377-0.153 0.719-0.4 0.967s-0.589 0.4-0.967 0.4-0.72-0.153-0.967-0.4c-0.247-0.247-0.4-0.589-0.4-0.967s0.153-0.72 0.4-0.967c0.247-0.248 0.589-0.401 0.967-0.401zM19.174 5.503l0.465-0.199c0.036-0.016 0.066-0.040 0.089-0.069l0.479-0.56 1.183 1.363c-0.312-0.097-0.575-0.188-0.723-0.265-0.055-0.028-0.095-0.056-0.126-0.077-0.241-0.165-0.276-0.19-0.612 0.129-0.277 0.262-0.886 0.889-1.192 1.202l-0.003 0.003c-0.182 0.188-0.383 0.33-0.602 0.427l-0.957 0.426 1.998-2.379zM9.196 17.323c0.001-0.002 0.001-0.006 0.007-0.007 0.020-0.005 0.007 0.001-0.007 0.007zM8.148 19.531c-0.121 0-0.219-0.098-0.219-0.22s0.098-0.219 0.219-0.219h1.242l0.003-0.003c0.091-0.086 0.157-0.148 0.214-0.238 0.059-0.092 0.098-0.2 0.127-0.364 0.039-0.225 0.058-0.579 0.075-0.957 0.097 0.014 0.204 0.029 0.304 0.034 0.133 0.006 0.26-0.006 0.355-0.056 0.078-0.041 0.128-0.098 0.16-0.162 0.017 0.011 0.033 0.022 0.049 0.032 0.103 0.068 0.214 0.132 0.308 0.168 0.123 0.046 0.223 0.050 0.305 0.034 0.010-0.002 0.018-0.004 0.028-0.007l-0.001 0.054c-0.003 0.146-0.005 0.279-0.007 0.386-0.001 0.114-0.001 0.195 0.004 0.261 0.006 0.079 0.018 0.145 0.041 0.224 0.021 0.074 0.052 0.16 0.1 0.256 0.047 0.094 0.11 0.196 0.194 0.301 0.010 0.013 0.019 0.024 0.029 0.036h1.209c0.121 0 0.219 0.098 0.219 0.219s-0.098 0.22-0.219 0.22h-4.739zM8.671 10.028c-0.001-0.002-0.001-0.004 0-0.002v0.002zM14.338 16.225c0.108 0.096 0.203 0.19 0.27 0.277 0.093 0.12 0.13 0.166 0.13 0.166-0.067 0.049-0.258 0.059-0.502 0.056-0.129-0.002-0.219-0.038-0.27-0.060l-0.011-0.005c-0.267-0.117-0.388-0.043-0.363 0.223 0.002 0.018 0.004 0.047 0.011 0.081 0.007 0.040 0.019 0.085 0.037 0.127l0.002 0.004c-0.054 0.014-0.121 0.024-0.196 0.028-0.082 0.004-0.17 0-0.254-0.019-0.144-0.032-0.298-0.113-0.409-0.172-0.050-0.026-0.092-0.049-0.127-0.064-0.065-0.030-0.121-0.040-0.168-0.039-0.077 0.003-0.137 0.033-0.181 0.087-0.043 0.052-0.059 0.112-0.054 0.178 0.005 0.050 0.023 0.099 0.051 0.147 0.006 0.010 0.012 0.020 0.018 0.028-0.044-0.006-0.092-0.012-0.141-0.024-0.079-0.016-0.162-0.040-0.236-0.076s-0.149-0.088-0.215-0.139c-0.070-0.055-0.127-0.108-0.164-0.143-0.158-0.146-0.26-0.168-0.37-0.059-0.005 0.005-0.011 0.010-0.016 0.015-0.092 0.098-0.070 0.168-0.037 0.272l0.009 0.028-0.012-0.004c-0.063-0.024-0.146-0.072-0.226-0.124-0.090-0.057-0.172-0.118-0.227-0.157-0.342-0.246-0.493-0.181-0.452 0.194 0.003 0.022 0.006 0.053 0.005 0.078-0.024 0.004-0.063 0.003-0.109 0.001-0.089-0.004-0.19-0.018-0.28-0.033-0.089-0.013-0.167-0.027-0.236-0.043-0.055-0.013-0.097-0.026-0.129-0.042-0.017-0.008-0.036-0.022-0.055-0.035-0.094-0.066-0.172-0.121-0.327-0.086-0.092 0.021-0.143 0.064-0.203 0.115-0.027 0.024-0.058 0.050-0.097 0.063-0.119 0.042-0.157 0.010-0.17-0.028-0.012-0.034-0.020-0.084-0.028-0.126-0.027-0.153-0.048-0.268-0.228-0.294s-0.241 0.070-0.323 0.203c-0.056 0.091-0.149 0.241-0.455 0.214-0.035-0.003-0.051-0.004-0.053-0.006-0.004-0.002-0.018-0.024-0.040-0.058-0.207-0.319-0.417-0.284-0.643-0.138-0.059 0.038-0.109 0.079-0.161 0.121l0.001 0h-0.001c-0.109 0.089-0.23 0.186-0.311 0.134-0.027-0.018-0.040-0.040-0.035-0.074 0.011-0.089 0.077-0.219 0.207-0.397 0.125-0.171 0.231-0.286 0.407-0.472 0.094-0.101 0.046-0.048 0.129-0.136 0.177-0.191 0.306-0.378 0.373-0.54 0.052-0.122 0.071-0.239 0.058-0.342-0.018-0.132-0.086-0.239-0.206-0.309-0.064-0.037-0.14-0.062-0.228-0.073-0.031-0.004-0.077-0.006-0.13-0.008-0.105-0.004-0.245-0.010-0.316-0.046-0.005-0.002 0.002-0.023 0.034-0.088 0.038-0.074 0.67-0.66 1.115-1.072 0.209-0.194 0.381-0.353 0.427-0.399 0.16-0.159 0.264-0.296 0.334-0.41 0.075-0.123 0.111-0.22 0.132-0.298 0.037-0.132 0.017-0.269-0.072-0.39-0.066-0.090-0.17-0.168-0.318-0.219-0.174-0.061-0.411-0.084-0.604-0.096l0.017-0.019c0.074-0.090 0.168-0.198 0.28-0.325 0.098-0.111 0.215-0.232 0.337-0.351 0.144-0.142 0.298-0.284 0.435-0.408 0.159-0.142 0.259-0.284 0.305-0.415 0.038-0.108 0.042-0.211 0.013-0.304-0.032-0.102-0.098-0.185-0.197-0.242-0.091-0.052-0.209-0.082-0.352-0.080-0.060 0-0.1-0.010-0.12-0.026-0.001-0.002-0.002-0.002-0.003-0.004l-0.001-0.003c0-0.017 0.010-0.038 0.029-0.062 0.038-0.048 0.092-0.108 0.153-0.176 0.196-0.221 0.465-0.523 0.785-1.052 0.121-0.2 0.169-0.282 0.22-0.364 0.331-0.55 0.652-1.084 0.852-1.338 0.045-0.057 0.089-0.092 0.129-0.11 0.022-0.010 0.041-0.014 0.056-0.012h0.001c0.015 0.002 0.030 0.009 0.045 0.020 0.021 0.017 0.040 0.043 0.056 0.075 0.028 0.061 0.054 0.125 0.082 0.194 0.087 0.214 0.196 0.485 0.454 0.915 0.171 0.286 0.406 0.606 0.629 0.909 0.227 0.309 0.441 0.602 0.552 0.807 0.055 0.1 0.081 0.174 0.090 0.224h-0.254c-0.299 0-0.342 0.184-0.129 0.553 0.131 0.226 0.391 0.677 0.679 1.077 0.217 0.302 0.443 0.567 0.608 0.751l-0.033 0.004c-0.072 0.009-0.163 0.021-0.25 0.033-0.112 0.016-0.161 0.022-0.192 0.027-0.292 0.043-0.297 0.044-0.267 0.344 0 0.011 0.001 0.022 0.003 0.033 0.014 0.128 0.044 0.372 0.225 0.715 0.090 0.169 0.216 0.364 0.358 0.553 0.042 0.056 0.086 0.113 0.129 0.167 0.007 0.010 0.015 0.018 0.022 0.028 0.098 0.12 0.199 0.234 0.294 0.332 0.105 0.106 0.204 0.194 0.287 0.268 0.033 0.029 0.065 0.036 0.091 0.038-0.077 0.026-0.171 0.042-0.26 0.048-0.092 0.006-0.264 0.054-0.386 0.155-0.050 0.042-0.094 0.092-0.124 0.152-0.033 0.066-0.051 0.139-0.046 0.223 0.007 0.109 0.056 0.232 0.165 0.364 0.148 0.178 0.36 0.355 0.576 0.536 0.098 0.082 0.197 0.164 0.286 0.245 0.003 0.003 0.005 0.004 0.008 0.006l0-0.001zM22.89 17.323c0.001-0.002 0.001-0.006 0.007-0.007 0.020-0.005 0.007 0.001-0.007 0.007zM21.895 19.531c-0.121 0-0.219-0.098-0.219-0.22s0.098-0.219 0.219-0.219h1.242l0.003-0.003c0.091-0.086 0.157-0.148 0.214-0.238 0.059-0.092 0.099-0.2 0.127-0.364 0.039-0.223 0.059-0.574 0.075-0.949 0.082 0.012 0.17 0.023 0.252 0.026 0.133 0.006 0.26-0.006 0.355-0.056 0.078-0.041 0.128-0.099 0.16-0.162 0.017 0.011 0.033 0.022 0.049 0.032 0.103 0.067 0.214 0.131 0.308 0.167 0.123 0.047 0.223 0.051 0.305 0.034 0.071-0.014 0.126-0.044 0.168-0.075-0.031 0.196-0.058 0.376-0.074 0.507-0.012 0.102-0.017 0.181-0.013 0.257 0.004 0.082 0.016 0.151 0.038 0.23 0.021 0.074 0.052 0.16 0.1 0.255 0.048 0.094 0.11 0.196 0.194 0.302 0.010 0.012 0.019 0.024 0.029 0.036h1.209c0.121 0 0.219 0.099 0.219 0.22s-0.098 0.219-0.219 0.219l-4.739-0.001zM22.365 10.028c-0.001-0.002-0.001-0.004 0-0.002v0.002zM22.292 10.17c-0.4 0.009-0.877 0.066-1.342 0.144-0.63 0.106-1.246 0.25-1.618 0.36-0.613 0.182-0.994 0.504-1.402 0.849-0.073 0.061-0.146 0.124-0.164 0.138-0.223 0.186-0.464 0.372-0.711 0.534-0.241 0.159-0.49 0.296-0.736 0.386-0.291 0.108-0.589 0.152-0.876 0.195-0.207 0.031-0.408 0.062-0.609 0.114-0.428 0.113-0.804 0.318-1.173 0.535l-0.014-0.018c-0.128-0.171-0.243-0.346-0.321-0.496-0.11-0.208-0.15-0.366-0.168-0.473l0.070-0.010c0.067-0.009 0.149-0.019 0.242-0.032 0.097-0.012 0.17-0.020 0.223-0.024 0.091-0.010 0.131-0.012 0.157-0.016 0.342-0.031 0.364-0.21 0.066-0.537-0.149-0.165-0.447-0.492-0.718-0.868-0.234-0.324-0.455-0.697-0.594-0.936h0.008c0.057 0 0.12-0.014 0.178-0.045s0.11-0.078 0.147-0.146c0.032-0.058 0.052-0.128 0.052-0.213 0-0.116-0.039-0.269-0.145-0.466-0.126-0.232-0.35-0.536-0.585-0.858-0.218-0.298-0.448-0.611-0.607-0.876-0.067-0.113-0.124-0.214-0.172-0.306l2.684-2.97 1.455 1.376c0.047 0.044 0.108 0.063 0.167 0.059l0.547-0.022 1.335 1.069-1.412 1.681c-0.029 0.020-0.052 0.049-0.067 0.080l-1.090 1.297c-0.078 0.092-0.065 0.229 0.027 0.308s0.23 0.065 0.308-0.028l1.1-1.309 1.776-0.791c0.271-0.121 0.517-0.294 0.738-0.522l0.003-0.003c0.304-0.312 0.908-0.931 1.18-1.189 0.079-0.074 0.048-0.096 0.062-0.086 0.042 0.030 0.095 0.066 0.173 0.106 0.281 0.145 0.865 0.319 1.459 0.493l0.947 1.090c-0.077 0.128-0.145 0.242-0.169 0.282-0.296 0.49-0.553 0.777-0.739 0.987-0.060 0.068-0.114 0.128-0.167 0.194-0.084 0.104-0.126 0.223-0.125 0.338 0 0.067 0.015 0.131 0.042 0.189s0.069 0.111 0.125 0.156c0.093 0.076 0.226 0.123 0.395 0.122 0.059 0 0.103 0.008 0.129 0.021-0.001 0.005-0.003 0.013-0.007 0.023-0.012 0.034-0.033 0.072-0.066 0.112l0.001 0.002zM21.654 10.777c-0.345 0.093-0.734 0.217-1.097 0.358-0.329 0.128-0.641 0.274-0.883 0.426-0.378 0.238-0.669 0.543-0.958 0.848-0.113 0.119-0.226 0.238-0.341 0.349-0.133 0.129-0.272 0.251-0.406 0.368-0.292 0.256-0.566 0.497-0.738 0.761-0.308 0.47-0.691 0.599-1.11 0.74-0.52 0.176-1.091 0.368-1.676 1.111-0.040-0.034-0.081-0.067-0.121-0.101-0.203-0.17-0.402-0.337-0.521-0.479-0.044-0.052-0.061-0.088-0.063-0.111 0.003-0.004 0.007-0.008 0.013-0.013 0.042-0.034 0.101-0.051 0.133-0.053 0.14-0.010 0.299-0.042 0.422-0.089v0.001c0.157-0.060 0.275-0.157 0.299-0.29 0.035-0.187-0.094-0.301-0.29-0.473-0.076-0.067-0.166-0.148-0.263-0.245-0.037-0.038-0.075-0.078-0.113-0.121 0.322-0.188 0.65-0.36 1.004-0.454 0.173-0.045 0.364-0.074 0.561-0.103 0.309-0.047 0.63-0.095 0.963-0.217 0.278-0.101 0.556-0.254 0.826-0.432 0.264-0.174 0.517-0.37 0.751-0.564 0.096-0.078 0.132-0.11 0.168-0.14 0.371-0.313 0.719-0.607 1.242-0.762 0.358-0.106 0.954-0.246 1.567-0.348 0.263-0.044 0.528-0.081 0.778-0.106-0.025 0.024-0.051 0.048-0.076 0.074-0.022 0.021-0.045 0.044-0.067 0.066l-0.002-0.002zM20.515 15.666c-0.614 0.099-1.225 0.198-1.736 0.165-0.223-0.014-0.433-0.054-0.652-0.095-0.301-0.056-0.615-0.116-1.008-0.122-0.625-0.009-1.414 0.12-2.217 0.261 0.471-0.533 0.933-0.689 1.358-0.832 0.496-0.167 0.949-0.318 1.338-0.916 0.141-0.216 0.393-0.437 0.659-0.671 0.14-0.124 0.285-0.25 0.423-0.384 0.123-0.119 0.238-0.24 0.353-0.361 0.271-0.286 0.544-0.572 0.875-0.78 0.215-0.135 0.502-0.268 0.809-0.389 0.121-0.048 0.244-0.092 0.368-0.134l-0.010 0.011c-0.088 0.106-0.152 0.186-0.191 0.24-0.101 0.14-0.136 0.236-0.035 0.365 0.063 0.081 0.154 0.106 0.31 0.118 0.019 0.001 0.060 0.004 0.105 0.007 0.18 0.011 0.44 0.027 0.589 0.078 0.056 0.020 0.091 0.043 0.108 0.065 0.003 0.005 0.005 0.008 0.004 0.012-0.015 0.049-0.037 0.111-0.085 0.19-0.053 0.086-0.136 0.194-0.271 0.328-0.079 0.079-0.229 0.218-0.413 0.389-0.47 0.434-1.137 1.054-1.209 1.196-0.184 0.362-0.065 0.561 0.16 0.675 0.154 0.078 0.35 0.087 0.496 0.092 0.036 0.002 0.067 0.003 0.095 0.006 0.024 0.003 0.042 0.007 0.054 0.012 0.001 0.026-0.009 0.062-0.028 0.11-0.044 0.104-0.129 0.23-0.249 0.365l-0.001-0.001zM23.325 17.057l-0.014-0.003c-0.054-0.012-0.097-0.026-0.128-0.042-0.017-0.009-0.036-0.022-0.055-0.035-0.095-0.066-0.172-0.121-0.327-0.087-0.092 0.022-0.143 0.064-0.203 0.115-0.027 0.024-0.058 0.050-0.097 0.063-0.119 0.042-0.157 0.011-0.17-0.027-0.012-0.034-0.020-0.084-0.028-0.126-0.027-0.153-0.048-0.268-0.228-0.294-0.181-0.027-0.241 0.069-0.323 0.202-0.056 0.092-0.149 0.241-0.455 0.215-0.035-0.004-0.051-0.006-0.053-0.006-0.004-0.003-0.018-0.024-0.040-0.059-0.207-0.32-0.417-0.284-0.643-0.138-0.059 0.038-0.109 0.079-0.161 0.121l0.001 0.001h-0.001c-0.109 0.089-0.23 0.186-0.311 0.134-0.027-0.017-0.040-0.041-0.035-0.074 0.011-0.090 0.077-0.219 0.207-0.398 0.125-0.171 0.231-0.285 0.407-0.472 0.094-0.101 0.046-0.048 0.128-0.136 0.177-0.19 0.306-0.377 0.373-0.539 0.052-0.122 0.071-0.238 0.058-0.342-0.018-0.132-0.086-0.238-0.206-0.309-0.064-0.037-0.14-0.062-0.228-0.073-0.031-0.004-0.077-0.006-0.13-0.008-0.105-0.005-0.245-0.011-0.316-0.046-0.005-0.002 0.002-0.024 0.034-0.088 0.038-0.074 0.67-0.661 1.115-1.073 0.209-0.194 0.381-0.352 0.427-0.398 0.16-0.16 0.264-0.296 0.334-0.41 0.075-0.123 0.111-0.22 0.132-0.298 0.037-0.131 0.017-0.269-0.072-0.39-0.066-0.090-0.171-0.169-0.318-0.219-0.174-0.060-0.411-0.082-0.604-0.096l0.017-0.020c0.074-0.090 0.169-0.198 0.28-0.324 0.098-0.111 0.215-0.231 0.337-0.352 0.144-0.141 0.298-0.284 0.435-0.407 0.159-0.142 0.259-0.284 0.305-0.415 0.038-0.108 0.042-0.212 0.013-0.305-0.032-0.102-0.098-0.186-0.197-0.242-0.091-0.053-0.209-0.082-0.352-0.081-0.060 0.002-0.1-0.009-0.12-0.026-0.001-0-0.002-0.002-0.003-0.004l-0.001-0.003c0-0.016 0.010-0.038 0.029-0.062 0.038-0.048 0.092-0.108 0.153-0.177 0.196-0.22 0.465-0.521 0.785-1.051 0.12-0.198 0.173-0.286 0.225-0.373 0.326-0.542 0.638-1.061 0.842-1.323 0.045-0.058 0.089-0.093 0.13-0.112 0.025-0.012 0.049-0.016 0.068-0.012s0.038 0.012 0.055 0.025c0.022 0.018 0.043 0.044 0.058 0.076 0.027 0.059 0.054 0.13 0.084 0.208 0.079 0.208 0.179 0.471 0.431 0.892 0.171 0.286 0.406 0.606 0.629 0.909 0.227 0.309 0.441 0.603 0.552 0.807 0.055 0.1 0.081 0.174 0.090 0.224h-0.255c-0.299 0-0.342 0.184-0.129 0.552 0.131 0.226 0.391 0.677 0.679 1.077 0.217 0.302 0.443 0.567 0.608 0.751l-0.033 0.003c-0.072 0.009-0.163 0.022-0.25 0.033-0.112 0.016-0.161 0.023-0.192 0.028-0.292 0.043-0.297 0.044-0.267 0.345 0 0.011 0.001 0.022 0.003 0.033 0.013 0.129 0.044 0.371 0.225 0.714 0.090 0.17 0.216 0.364 0.357 0.554 0.142 0.191 0.3 0.378 0.446 0.527 0.105 0.106 0.204 0.194 0.287 0.267 0.033 0.029 0.066 0.036 0.090 0.038-0.077 0.026-0.171 0.042-0.26 0.048-0.092 0.006-0.264 0.054-0.386 0.155-0.050 0.042-0.094 0.092-0.124 0.153-0.033 0.065-0.050 0.14-0.046 0.223 0.007 0.109 0.056 0.232 0.165 0.363 0.148 0.178 0.361 0.356 0.576 0.536 0.219 0.184 0.439 0.369 0.564 0.528 0.093 0.12 0.129 0.166 0.129 0.166-0.067 0.049-0.258 0.060-0.501 0.055-0.129-0.002-0.219-0.038-0.27-0.060l-0.011-0.005c-0.267-0.117-0.388-0.043-0.363 0.223 0.002 0.018 0.004 0.047 0.010 0.081 0.007 0.040 0.019 0.086 0.038 0.127l0.002 0.005c-0.053 0.013-0.121 0.023-0.196 0.027-0.082 0.004-0.17 0-0.254-0.018-0.144-0.032-0.298-0.113-0.409-0.172-0.050-0.026-0.091-0.049-0.126-0.064-0.065-0.029-0.121-0.040-0.169-0.039-0.077 0.003-0.137 0.033-0.181 0.086-0.043 0.053-0.059 0.112-0.054 0.178 0.005 0.050 0.024 0.099 0.051 0.147 0.006 0.010 0.012 0.020 0.018 0.028-0.044-0.006-0.092-0.013-0.141-0.023-0.079-0.017-0.162-0.040-0.236-0.076-0.075-0.036-0.149-0.088-0.215-0.139-0.070-0.054-0.126-0.107-0.164-0.142-0.158-0.147-0.26-0.168-0.37-0.060-0.005 0.005-0.011 0.010-0.016 0.014-0.092 0.098-0.070 0.169-0.037 0.272l0.009 0.028-0.012-0.004c-0.063-0.024-0.146-0.072-0.226-0.124-0.090-0.058-0.172-0.118-0.227-0.157-0.342-0.246-0.493-0.181-0.452 0.194 0.003 0.022 0.006 0.053 0.005 0.078-0.024 0.004-0.063 0.003-0.109 0.001-0.089-0.004-0.19-0.018-0.279-0.033-0.033-0.005-0.065-0.010-0.095-0.015-0.027-0.015-0.059-0.024-0.092-0.026-0.012-0.001-0.023 0-0.035 0.001l0.001-0.003zM9.192 28.664c-0.414-0.091-0.668-0.316-1.133-1.004-0.070-0.103-0.161-0.242-0.202-0.31s-0.080-0.123-0.085-0.122c-0.005 0.001-0.043 0.070-0.084 0.155s-0.149 0.265-0.238 0.402c-0.14 0.214-0.163 0.259-0.163 0.32 0 0.116 0.046 0.149 0.332 0.234 0.201 0.060 0.34 0.171 0.34 0.272 0 0.038-0.182 0.049-0.664 0.042-0.492-0.007-0.487-0.006-0.675-0.207-0.149-0.16-0.242-0.295-0.262-0.379-0.020-0.086-0.010-0.158 0.079-0.525 0.040-0.169 0.101-0.44 0.134-0.604s0.064-0.315 0.069-0.336l0.009-0.038-0.388 0.008c-0.437 0.009-0.43 0.007-0.525 0.148-0.050 0.073-0.096 0.203-0.229 0.642-0.030 0.098-0.088 0.255-0.13 0.349s-0.080 0.209-0.085 0.256c-0.008 0.076-0.004 0.092 0.038 0.141 0.057 0.067 0.096 0.089 0.306 0.163 0.251 0.090 0.405 0.202 0.427 0.311l0.011 0.053-0.091 0.011c-0.050 0.006-0.318 0.009-0.595 0.006l-0.503-0.006-0.083-0.051c-0.089-0.055-0.246-0.231-0.378-0.422l-0.080-0.117-0.011-0.309c-0.006-0.17-0.012-0.311-0.013-0.314s-0.066 0.047-0.145 0.111c-0.079 0.064-0.197 0.158-0.263 0.208s-0.144 0.126-0.174 0.167c-0.067 0.093-0.107 0.217-0.084 0.259 0.026 0.049 0.116 0.117 0.228 0.174 0.057 0.029 0.137 0.075 0.177 0.102 0.073 0.050 0.14 0.154 0.115 0.179-0.007 0.007-0.232 0.013-0.501 0.013-0.471 0-0.49-0.001-0.558-0.037-0.101-0.054-0.197-0.175-0.299-0.377l-0.090-0.176 0.001-0.173c0.001-0.136 0.009-0.193 0.040-0.274 0.126-0.33 0.117-0.289 0.384-1.857 0.070-0.413 0.135-0.786 0.145-0.829 0.072-0.318 0.301-0.691 0.62-1.007 0.345-0.341 0.733-0.54 1.261-0.645 0.342-0.068 0.576-0.079 1.574-0.074l0.927 0.005 0.183-0.089c0.271-0.132 0.342-0.149 0.582-0.147 0.19 0.002 0.232 0.009 0.617 0.106 0.451 0.114 0.592 0.134 0.996 0.144l0.268 0.006 0.097-0.076c0.113-0.088 0.186-0.122 0.259-0.122 0.068 0 0.13 0.062 0.146 0.147 0.011 0.059-0.006 0.192-0.035 0.263-0.008 0.019 0.017 0.046 0.088 0.096 0.16 0.113 0.387 0.318 0.443 0.403 0.031 0.047 0.057 0.113 0.064 0.163 0.015 0.112 0.069 0.183 0.334 0.446 0.12 0.119 0.219 0.23 0.219 0.246 0 0.044-0.234 0.265-0.332 0.312-0.083 0.041-0.098 0.042-0.613 0.052-0.596 0.012-0.527 0-1.197 0.195-0.209 0.061-0.409 0.125-0.443 0.143-0.103 0.053-0.201 0.166-0.278 0.321-0.070 0.141-0.072 0.15-0.072 0.308 0.001 0.115 0.014 0.221 0.047 0.358 0.067 0.289 0.11 0.567 0.139 0.906 0.021 0.238 0.037 0.335 0.077 0.461 0.082 0.258 0.169 0.345 0.374 0.378 0.128 0.020 0.307 0.131 0.352 0.218 0.023 0.044 0.022 0.052-0.006 0.083-0.122 0.135-0.513 0.205-0.797 0.142zM28.307 18.997c0 0 0.993 0.765-0.174 2.15-0.733 0.87-1.451 0.389-1.666 1.276 0.086 0.032 0.292 0.038 0.364-0.143 0.085-0.211 0.285-0.3 0.337-0.306s0.338-0.142 0.338-0.142c0.095 0.749-0.307 0.834-0.434 0.895s-0.167 0.212-0.167 0.212c0.638 0.97 0.741 2.217 0.741 2.217-0.035 0.407 0.067 0.406 0.082 0.755 0.026 0.637-0.464 0.912-0.464 0.912s-0.013 0.124-0.095 0.263c-0.081 0.14-0.298 0.765-0.282 0.955s-0.008 0.447-0.055 0.526c-0.025 0.042-0.041 0.227-0.051 0.393l0.001-0.001 0.142 0.071-0.112 0.058 0.020 0.037v0.045l0.092-0.006 0.142-0.261v0.165l0.184-0.066-0.103 0.131 0.004 0.050 0.112-0.102v-0.131l0.095 0.174v0.079l0.087-0.015 0.111-0.107 0.221-0.079-0.103 0.131 0.016 0.19h-5.12l0.007-0.062-0.087-0.19 0.15 0.095 0.095-0.261v0.253l0.15-0.198 0.142 0.071-0.11 0.051-0.024 0.091 0.134-0.008 0.047-0.086c0.014-0.267 0.042-0.855 0.033-1.015-0.012-0.21 0.038-0.222 0.038-0.222 0.211-0.063 0.265-0.431 0.265-0.431s0.124-0.505-0.037-0.968c-0.311-0.896-0.045-1.153-0.045-1.153s0.195-0.067 0.527-0.394c0.332-0.327 0.901-0.377 1.172-0.324s0.664 0.039 0.664 0.039c-0.058 0.034-0.146 0.2-0.146 0.2 0.312-0.404 0.611-0.388 0.611-0.388s0.068-0.010 0.089 0.182c0.073 0.665 0.388 0.905 0.388 0.905-0.079-0.102-0.344-0.494-0.34-0.917s-0.226-0.695-0.226-0.695c0.477-0.054 0.421-0.125 0.543-0.192 0.299-0.164 0.192-0.423 0.192-0.423 0.029 0.366-0.187 0.327-0.3 0.438s-0.515 0.097-0.515 0.097-0.146 0.020-0.328 0.014c-0.182-0.006-0.184 0.061-0.308 0.067s-0.134-0.059-0.257-0.121c-0.123-0.061-0.117-0.182-0.117-0.182-0.101-0.105 0.018-0.192 0.018-0.192l0.425-0.384-0.004-0.073c-0.032-0.156 0.105-0.221 0.105-0.221-0.116 0.022-0.162 0.156-0.162 0.156-0.198-0.107-0.367-0.451-0.367-0.451 0.305-0.067 0.492 0.004 0.588 0.065-0.229-0.406-0.562-0.087-1.002-0.511-0.477-0.459-0.024-0.875-0.024-0.875-0.089 0.114-0.077 0.34-0.077 0.358v-0.004c0.003-0.079 0.045-0.1 0.045-0.1 0.146 0.668 0.711 0.66 0.711 0.66-0.205-0.53 0-0.49 0.121-1.016s0.499-0.763 0.499-0.763-0.368 0.599-0.332 0.668c0.036 0.069 0.235-0.164 0.235-0.164s0.029 0.023-0.208 0.354c-0.359 0.5-0.166 1 0.131 1.111 0.178 0.066 0.235 0.173 0.252 0.247 0.020-0.007 0.042-0.014 0.067-0.020 0.144-0.115 0.273-0.28 0.18-0.464-0.293-0.579-0.041-0.829-0.041-0.829-0.087 0.116 0.111 0.846 0.308 0.709s0.704-0.306 0.753-0.495c0.050-0.19-0.493-0.667-0.493-0.667 0.364 0.050 0.477 0.356 0.598 0.295s-0.032-0.558-0.032-0.558c0.361 0.358 0.198 0.935 0.198 0.935 0.45-0.132 1.167-1.093 0.771-1.41s-0.36-0.692-0.36-0.692 0.326 0.775 0.567 0.64c0.241-0.134-0.143-0.91-0.143-0.91v-0zM25.893 29.157v-0.013l-0.034-0.075 0.034 0.021v-0.187l0.089 0.243 0.016 0.011 0.017-0.011 0.073-0.201c-0.004-0.119-0.020-0.24-0.061-0.291-0.092-0.116-0.105-0.264-0.092-0.395s-0.053-0.285-0.053-0.285c-0.221-0.711-0.229-1.122-0.229-1.122s-0.090-0.072-0.079-0.271c0.009-0.162-0.083-0.283-0.118-0.322 0.033 0.050 0.077 0.208 0.073 0.322-0.006 0.132 0.066 0.282 0.066 0.282-0.037 0.174 0.045 0.438 0.045 0.438-1.328-0.027-1.581-1.758-1.581-1.758 0.037 0.547 0.264 0.801 0.226 1.159-0.042 0.401-0.385 1.073-0.516 1.207s-0.194 0.34-0.279 0.445c-0.072 0.088-0.197 0.652-0.235 0.83l0.113-0.103v-0.131l0.095 0.174v0.079l0.087-0.016 0.074-0.071-0.021-0.047 0.042 0.027 0.016-0.015 0.141-0.050 0.047-0.127v0.111l0.034-0.012-0.034 0.043v0.111l0.15-0.198 0.142 0.071-0.111 0.051-0.024 0.091 0.134-0.008 0.142-0.262v0.214l0.063 0.087 0.12-0.109c-0.066-0.207-0.208-0.637-0.311-0.851-0.138-0.288-0.111-0.431 0.034-0.534s0.332-0.613 0.134-0.876c0 0 0.043-0.172 0.011-0.347 0 0 0.309 0.7 0.994 0.81 0 0-0.267 0.423-0.562 0.618s-0.248 0.395-0.217 0.49c0.027 0.080 0.154 0.501 0.185 0.716l0.039-0.038 0.028-0.010-0.055-0.069 0.124 0.044 0.124-0.044-0.055 0.069 0.028 0.010 0.11 0.106 0.087 0.016v-0.079l0.095-0.174v0.131l0.134 0.123 0.063-0.087v-0.214l0.142 0.261 0.134 0.008-0.024-0.091-0.11-0.051 0.142-0.071 0.151 0.198zM25.448 26.25c0 0 0 0 0 0.001s-0-0-0-0.001zM26.583 27.099c-0.111 0.085-0.293 0.1-0.293 0.1-0.034-0.424 0.092-0.514 0.092-0.514s-0.137 0.042-0.134 0.435c0.003 0.393-0.092 0.775 0.032 1.041s0.045 0.44 0.039 0.48c-0.003 0.021-0.026 0.178-0.049 0.326l0.125 0.063-0.111 0.051-0.024 0.091 0.134-0.008 0.018-0.033-0.029-0.062 0.047 0.029 0.106-0.195v0.214l0.010 0.013 0.026-0.072c0.018-0.157 0.034-0.374-0.002-0.489-0.061-0.192-0.020-0.168-0.059-0.379s0.031-0.919 0.031-0.919 0.029-0.127 0.145-0.156c0.229-0.056 0.29-0.182 0.29-0.182-0.142 0.166-0.285 0.081-0.395 0.166z"></path>
</svg>
