<!-- Generated by IcoMoon.io -->
<svg version="1.1" xmlns="http://www.w3.org/2000/svg" width="32" height="32" viewBox="0 0 32 32">
<path d="M16 0c-8.836 0-16 7.163-16 16s7.163 16 16 16 16-7.163 16-16-7.163-16-16-16zM12.98 23.675c0-1.101 0.893-1.993 1.993-1.993s1.993 0.893 1.993 1.993c0 1.1-0.893 1.993-1.992 1.993s-1.993-0.893-1.993-1.993zM21.477 13.678c-0.225 0.612-0.55 1.143-0.918 1.585-0.74 0.884-1.618 1.42-2.34 1.815-0.482 0.261-0.908 0.462-1.173 0.611-0.182 0.1-0.28 0.184-0.329 0.239-0.048 0.058-0.064 0.082-0.093 0.177-0.017 0.063-0.035 0.163-0.035 0.318 0 0.429 0 0.782 0 0.782 0 0.404-0.328 0.733-0.733 0.733h-1.766c-0.405 0-0.733-0.328-0.733-0.733 0 0 0-0.353 0-0.782 0-0.402 0.047-0.797 0.15-1.174 0.102-0.375 0.263-0.732 0.469-1.043 0.412-0.63 0.971-1.050 1.499-1.342 0.463-0.255 0.92-0.466 1.345-0.705 0.424-0.237 0.803-0.494 1.081-0.773 0.187-0.186 0.332-0.378 0.443-0.595 0.146-0.289 0.247-0.629 0.25-1.149 0.001-0.154-0.044-0.356-0.165-0.588-0.12-0.23-0.317-0.481-0.579-0.706-0.528-0.453-1.303-0.784-2.191-0.783-1.018 0.004-1.699 0.242-2.224 0.539-0.523 0.299-0.689 0.6-0.689 0.6-0.267 0.232-0.663 0.241-0.939 0.020l-1.357-1.087c-0.17-0.136-0.27-0.34-0.275-0.558s0.089-0.426 0.254-0.569c0 0 0.423-0.652 1.403-1.211 0.976-0.562 2.27-0.968 3.827-0.964 1.263 0 2.427 0.348 3.392 0.916 0.965 0.572 1.744 1.359 2.241 2.305 0.33 0.63 0.533 1.339 0.533 2.086 0.001 0.737-0.122 1.426-0.348 2.038z"></path>
</svg>
