<?xml version="1.0" encoding="utf-8"?>
<svg version="1.1" viewBox="0 0 1200 1200" xmlns="http://www.w3.org/2000/svg" width="150pt" height="150pt">
  <path d="M 815.181 596.32 C 814.998 596.547 814.841 596.8 814.724 597.07 C 801.162 609.507 786.287 620.441 770.369 629.675 C 790.237 603.378 815.913 574.402 769.686 557.714 C 719.059 539.346 678.566 571.147 640.086 602.319 C 641.773 598.007 643.336 593.944 645.015 590.327 L 646.515 587.007 L 648.269 584.261 C 649.281 582.374 650.425 580.558 651.699 578.835 C 654.226 575.483 657.027 572.35 660.07 569.46 C 684.39 546.659 707.695 544.222 706.945 540.726 C 706.816 540.042 705.379 539.534 702.699 539.292 C 701.32 539.159 699.699 539.105 697.757 539.105 C 695.433 539.226 693.121 539.495 690.832 539.909 C 676.063 542.631 662.172 548.89 650.348 558.151 C 646.285 561.249 642.516 564.722 639.098 568.522 L 639.102 568.522 L 638.359 569.46 C 639.164 561.937 642.047 554.788 646.684 548.808 C 651.317 542.831 657.524 538.261 664.61 535.605 C 678.489 530.976 693.133 529.089 707.735 530.046 L 707.735 530.05 C 719.602 530.238 732.848 537.109 743.903 536.359 C 761.567 535.046 776.333 532.046 793.442 542.039 C 801.477 546.969 809.895 551.25 818.614 554.844 L 818.61 554.847 C 844.852 565.093 822.547 585.894 815.864 594.886 C 815.535 595.308 815.305 595.797 815.18 596.32 Z M 732.596 560.091 C 752.084 557.587 804.182 571.962 780.135 602.767 C 769.561 614.501 759.991 627.099 751.522 640.435 L 751.526 640.435 C 746.463 643.236 741.463 645.861 736.721 648.365 C 720.295 657.049 701.303 661.67 684.127 668.916 C 666.772 677.642 650.323 688.06 635.018 700.025 C 632.803 701.466 631.307 703.787 630.904 706.4 C 630.416 707.142 630.018 707.935 629.713 708.771 L 629.713 708.767 C 620.412 734.501 614.279 759.994 603.537 784.978 C 603.139 784.818 602.721 784.716 602.291 784.669 C 594.115 784.126 586.088 787.052 580.174 792.724 C 576.47 796.294 572.482 799.556 568.24 802.474 C 564.556 804.146 560.357 804.302 556.56 802.904 L 556.564 802.904 C 539.884 799.22 547.947 785.29 551.322 778.052 C 561.006 757.251 562.31 742.505 550.197 726.388 C 550.88 724.083 551.509 721.7 552.193 719.263 C 553.88 713.084 554.818 707.392 556.439 701.15 C 557.255 698.083 558.06 694.954 558.876 691.775 L 559.185 690.65 L 559.185 690.517 L 559.372 690.087 L 560.122 688.333 C 560.486 687.115 560.99 685.939 561.622 684.837 C 564.072 680.142 567.506 676.032 571.681 672.778 C 576.56 668.931 581.67 665.384 586.982 662.157 C 592.607 658.536 598.045 655.04 603.603 651.102 C 606.283 649.294 609.349 646.723 612.096 644.54 C 613.428 643.532 614.678 642.426 615.846 641.231 L 615.849 641.231 L 619.158 637.989 C 624.048 633.086 628.212 627.512 631.521 621.43 C 631.673 621.196 631.798 620.946 631.896 620.68 L 631.9 620.68 C 662.08 596.379 696.975 564.645 732.6 560.09 Z M 587.12 699.7 C 597.424 687.271 608.111 678.399 606.483 675.841 C 605.112 673.462 590.929 678.775 578.995 693.017 C 573.596 699.157 570.162 706.771 569.131 714.88 L 569.127 714.88 C 568.686 721.685 570.815 724.751 572.127 724.751 C 573.619 724.806 574.369 720.747 576.432 716.501 C 579.225 710.446 582.823 704.794 587.12 699.7 Z M 736.539 590.57 C 748.34 586.64 756.402 585.937 756.422 584.202 C 756.488 583.011 748.113 581.015 734.746 583.32 C 726.945 584.753 719.348 587.148 712.133 590.445 C 703.454 594.5 695.137 599.285 687.274 604.754 C 673.469 614.73 660.317 625.582 647.899 637.238 L 647.899 637.234 C 638.469 646.039 632.645 651.718 633.528 652.91 C 634.407 654.101 641.653 650.472 652.52 643.105 C 663.383 635.738 677.371 624.55 693.309 613.433 C 700.727 608.265 708.423 603.511 716.364 599.195 C 722.845 595.777 729.591 592.89 736.54 590.57 Z M 886.96 664.47 C 895.077 665.622 900.515 676.873 891.327 680.755 C 887.186 682.044 882.815 682.412 878.522 681.822 L 878.522 681.826 C 845.483 680.447 814.741 657.767 785.577 642.525 C 790.573 639.462 795.507 636.212 800.382 632.782 C 817.624 646.36 837.655 655.962 859.038 660.907 C 868.257 662.72 877.581 663.907 886.96 664.47 Z M 837.362 603.24 C 835.858 602.819 834.663 601.674 834.175 600.19 C 833.686 598.705 833.972 597.076 834.932 595.846 L 834.932 595.842 L 835.737 594.904 L 836.366 594.147 C 836.78 593.627 837.097 593.037 837.304 592.404 C 837.761 591.115 838.757 590.088 840.034 589.592 L 849.323 586.022 C 850.304 585.647 851.378 585.615 852.378 585.928 C 860.242 588.244 867.91 591.178 875.312 594.701 C 878.163 596.104 880.812 597.885 883.187 599.998 C 884.546 601.186 885.101 603.049 884.617 604.791 C 884.128 606.53 882.687 607.834 880.91 608.147 C 879.113 608.412 877.304 608.533 875.488 608.51 L 873.015 608.51 C 860.96 608.354 848.976 606.588 837.39 603.26 Z M 703.3 893.66 C 706.91 895.441 709.504 898.777 710.347 902.714 C 711.445 906.152 710.793 909.906 708.605 912.773 C 703.394 917.234 696.535 919.277 689.734 918.398 C 688.191 918.394 686.672 918.758 685.301 919.457 C 653.208 922.984 620.829 922.984 588.739 919.457 C 578.434 918.457 577.059 932.078 584.426 936.699 C 585.297 938.183 586.606 939.363 588.176 940.074 C 610.723 950.562 631.778 963.933 654.887 973.242 C 655.422 978.101 652.887 982.785 648.52 984.988 C 642.519 988.297 637.082 983.113 634.336 978.238 C 633.031 975.66 630.469 973.953 627.586 973.738 L 627.586 973.742 C 591.229 956.07 551.319 945.637 515.956 926.332 C 458.366 894.972 505.092 819.326 525.022 777.412 C 525.393 776.549 525.667 775.646 525.831 774.72 L 525.831 774.713 C 527.143 772.65 528.522 770.466 529.889 768.283 C 532.636 763.661 535.823 758.853 538.327 753.978 C 539.694 751.54 541.007 749.048 542.386 746.544 C 543.94 743.49 544.944 740.677 546.257 737.677 C 546.378 737.302 546.511 736.993 546.632 736.618 C 549.034 740.036 550.417 744.064 550.628 748.235 C 549.663 758.489 546.511 768.415 541.382 777.344 C 536.386 788.032 534.323 798.337 543.698 806.895 C 551.198 813.028 561.354 814.806 570.491 811.583 L 570.487 811.583 C 581.362 806.958 587.354 795.212 599.354 794.153 C 585.545 822.754 570.432 850.684 556.69 879.352 C 555.018 882.711 555.51 886.742 557.94 889.598 C 557.803 894.781 561.71 899.18 566.874 899.66 L 566.87 899.66 C 584.675 901.281 602.038 903.719 619.972 903.972 C 641.519 904.215 662.996 899.219 684.558 898.656 C 686.069 898.621 687.55 898.215 688.87 897.472 C 689.741 897.191 690.581 896.812 691.374 896.347 C 693.413 894.867 695.694 893.746 698.112 893.031 C 699.866 892.758 701.659 892.976 703.3 893.66 Z M 363.75 826.64 C 367.566 828.288 371.43 829.882 375.469 831.354 C 377.101 831.956 378.265 833.413 378.492 835.14 C 378.723 836.862 377.976 838.573 376.555 839.577 C 372.004 842.898 367.727 846.581 363.77 850.593 C 362.535 851.808 360.734 852.245 359.082 851.726 L 359.082 851.73 C 358.156 851.449 357.273 851.214 356.336 850.988 C 349.351 849.011 342.5 846.597 335.82 843.757 C 333.976 842.976 332.832 841.105 332.98 839.101 C 333.125 837.101 334.527 835.417 336.468 834.909 C 344.503 833.031 352.32 830.3 359.773 826.761 C 361.016 826.132 362.473 826.089 363.75 826.64 Z M 735.66 688.179 C 736.711 690.582 737.91 692.972 739.168 695.257 C 739.843 696.519 739.91 698.015 739.343 699.328 C 738.781 700.64 737.648 701.625 736.269 702 C 735.238 702.281 734.574 702.457 733.871 702.59 C 732.238 702.953 730.574 703.132 728.902 703.125 C 723.288 702.992 717.777 701.562 712.804 698.953 L 712.804 698.957 C 707.941 696.36 708.37 689.945 708.652 685.719 C 708.738 685.117 708.738 684.574 708.738 684.18 C 708.761 682.254 708.617 680.332 708.304 678.43 C 707.917 676.226 709.14 674.055 711.23 673.246 L 723.418 668.625 C 724.621 668.176 725.953 668.226 727.121 668.765 C 728.285 669.328 729.168 670.344 729.558 671.578 C 731.789 678.383 733.664 683.492 735.66 688.18 Z M 507.032 948.644 C 524.216 960.515 540.079 973.254 560.462 978.484 C 563.025 983.386 561.517 989.425 556.955 992.546 C 549.998 996.074 541.974 996.878 534.455 994.796 C 534.048 994.371 533.607 993.972 533.142 993.609 C 503.033 971.116 468.549 954.128 436.197 935.136 C 406.306 916.347 372.084 905.573 336.822 903.843 C 333.576 903.784 330.553 905.468 328.888 908.253 C 327.224 911.042 327.178 914.503 328.767 917.331 C 328.81 917.476 328.83 917.624 328.826 917.773 C 333.767 940.453 342.38 968.371 364.056 980.371 C 364.462 981.097 364.993 981.749 365.622 982.3 L 365.618 982.304 C 367.681 984.366 369.49 998.671 366.435 1000.921 C 363.06 1001.085 359.689 1000.421 356.63 998.98 C 354.615 998.12 352.704 997.034 350.939 995.734 C 350.068 995.038 348.259 992.48 348.259 993.296 C 348.15 991.792 347.677 990.335 346.88 989.05 C 346.693 988.175 346.38 987.331 345.943 986.546 L 345.939 986.546 C 331.259 960.128 325.642 923.331 297.837 906.155 C 279.537 894.847 260.048 886.542 244.56 871.167 C 226.314 853.12 208.392 833.565 191.712 814.073 C 162.474 779.843 128.872 738.011 112.626 695.823 C 102.813 668.863 101.012 639.636 107.442 611.675 C 109.122 602.409 113.876 593.984 120.934 587.749 L 120.93 587.753 C 121.626 587.378 122.188 587.003 122.872 586.636 C 124.411 585.765 126.02 585.03 127.684 584.441 C 129.305 583.823 130.993 583.007 132.747 582.444 C 136.348 581.335 140.048 580.581 143.798 580.194 C 144.735 580.14 145.673 580.007 146.677 579.886 C 147.817 579.792 148.966 579.792 150.106 579.886 L 150.11 579.886 L 154.665 580.073 C 163.599 588.389 141.802 597.698 138.802 600.698 C 136.79 602.671 135.345 605.152 134.618 607.874 C 133.892 610.601 133.915 613.472 134.677 616.183 C 136.278 621.918 139.388 627.117 143.677 631.242 C 151.372 641.171 152.622 653.171 161.489 661.73 C 167.403 665.878 174.313 668.382 181.512 668.984 C 188.715 669.585 195.945 668.269 202.465 665.159 C 207.097 661.784 211.211 659.479 213.031 653.6 C 214.464 647.894 217.914 642.894 222.742 639.53 C 227.57 636.167 233.452 634.667 239.304 635.3 C 245.156 635.937 250.578 638.667 254.574 642.987 L 254.57 642.987 C 273.5 659.909 248.382 674.031 239.449 680.714 C 199.933 710.448 260.281 748.429 288.199 752.112 C 301.074 753.734 337.738 748.804 347.113 757.484 C 351.894 762.132 358.097 765.038 364.73 765.734 L 364.73 765.738 C 381.156 768.297 387.597 745.43 395.152 734.125 C 397.523 739.687 399.64 744.683 401.648 748.742 C 406.148 758.371 409.589 763.105 411.023 762.551 C 412.457 761.997 411.398 756.118 409.402 746.059 C 408.531 742.187 407.593 737.566 406.335 732.25 C 416.273 735.25 426.82 743.687 435.257 746.742 C 438.367 748.113 441.816 748.531 445.164 747.941 C 448.511 747.351 451.609 745.781 454.062 743.433 L 454.062 743.429 C 456.312 752.175 458.562 761.112 460.933 770.167 C 477.359 832.503 421.878 832.136 380.937 818.468 C 380.308 818.226 379.679 817.972 379.062 817.663 C 362.566 810.022 346.594 801.3 331.25 791.542 L 331.25 791.546 C 326.816 788.863 322.258 786.117 317.57 783.304 C 315.012 781.804 312.453 780.304 309.828 778.87 C 307.203 777.437 304.512 776.245 301.832 774.867 C 291.086 769.749 279.781 765.437 268.906 760.937 C 263.601 758.573 258.039 756.315 253.484 753.886 C 250.999 752.745 248.582 751.472 246.238 750.069 L 246.246 750.065 C 243.863 748.632 241.558 747.253 239.242 745.886 C 234.749 742.757 230.249 739.632 225.937 736.577 C 221.691 733.323 217.511 730.147 213.441 727.015 C 197.457 714.21 183.582 701.593 171.777 691.101 C 148.292 669.8 132.671 657.409 130.675 659.433 C 128.675 661.457 140.226 677.387 161.152 701.621 C 173.589 715.871 186.902 729.331 201.011 741.933 L 201.015 741.933 C 205.132 745.429 209.378 748.992 213.691 752.621 C 218.246 755.984 222.878 759.492 227.621 762.988 C 230.179 764.609 232.804 766.23 235.429 767.917 C 236.929 768.921 238.804 769.913 240.679 770.917 C 256.355 808.691 285.651 833.198 322.128 852.753 C 341.647 862.863 362.882 869.238 384.745 871.55 C 415.046 874.859 441.409 863.125 470.573 863.179 C 469.956 866.796 469.519 870.421 469.261 874.054 C 468.261 874.179 467.288 874.472 466.39 874.925 C 456.249 879.573 446.842 885.675 438.464 893.038 C 436.753 894.585 435.737 896.753 435.647 899.054 C 435.553 901.359 436.389 903.601 437.964 905.28 C 438.784 906.745 439.971 907.976 441.405 908.843 C 463.303 921.835 485.983 934.269 507.03 948.64 Z M 927.63 450.7 C 947.868 461.442 981.791 460.637 1008.552 449.938 C 1004.927 468.371 980.813 474.118 964.95 478.176 C 959.86 479.871 955.368 482.996 952.012 487.176 C 933.403 505.665 917.156 503.536 893.551 505.102 C 882.164 506.383 870.656 506.004 859.379 503.977 C 836.251 499.422 858.067 477.372 862.501 471.559 C 877.904 451.262 899.138 441.559 921.939 432.149 C 921.63 434.962 921.443 437.774 921.376 440.52 C 921.29 442.829 922.122 445.075 923.692 446.77 C 924.509 448.501 925.899 449.887 927.63 450.7 Z M 1038.3 373.55 C 1051.855 369.37 1070.101 365.687 1074.843 377.433 C 1080.655 392.105 1064.034 406.222 1053.046 411.847 C 1050.917 412.906 1048.734 413.964 1046.605 415.034 C 1049.898 403.761 1048.694 391.643 1043.241 381.237 C 1041.937 378.472 1040.273 375.886 1038.3 373.55 Z M 978.41 407.1 C 973.992 409.334 969.039 410.28 964.109 409.827 C 959.18 409.373 954.481 407.541 950.547 404.538 C 956.012 394.261 964.066 385.584 973.91 379.366 C 974.746 380.932 976.027 382.213 977.594 383.053 C 980.398 386.393 982.004 390.577 982.152 394.936 C 982.301 399.295 980.98 403.577 978.41 407.1 Z M 533.58 709.95 C 512.944 716.095 491.541 719.29 470.01 719.438 C 463.148 695.94 452.215 673.829 437.717 654.108 C 455.462 661.971 473.508 666.031 493.127 656.477 C 509.033 648.063 523.045 636.473 534.291 622.426 L 534.295 622.426 C 543.389 611.177 599.365 587.879 614.92 610.559 C 614.974 610.681 615.107 610.681 615.228 610.802 C 615.056 611.059 614.912 611.333 614.795 611.618 C 613.482 613.868 611.849 615.798 610.416 617.927 L 607.857 620.794 L 607.228 621.489 L 606.92 621.864 L 606.853 621.919 L 605.232 623.419 L 601.802 626.606 C 600.795 627.638 599.681 628.559 598.482 629.352 L 598.482 629.356 C 596.177 630.923 594.424 632.477 591.799 634.165 C 586.803 637.473 581.24 640.981 575.748 644.411 C 569.6 648.075 563.713 652.165 558.135 656.653 C 551.771 661.716 546.572 668.083 542.889 675.329 C 541.967 677.114 541.197 678.973 540.584 680.888 L 539.514 683.7 L 539.271 684.384 L 538.951 685.509 L 538.709 686.7 L 536.459 696.075 C 535.4 700.641 534.517 705.45 533.58 709.95 Z M 437.713 654.106 L 437.713 654.102 C 437.714 654.104 437.716 654.106 437.717 654.108 C 437.716 654.107 437.714 654.107 437.713 654.106 Z M 385.031 581.58 C 402.589 591.01 405.46 603.002 399.617 618.322 C 375.773 602.916 349.504 591.639 321.91 584.963 C 307.305 580.857 292.317 578.26 277.18 577.213 L 277.184 577.213 C 261.535 576.275 246.359 584.029 231.246 586.654 C 231.113 586.654 231.058 586.709 230.925 586.709 C 223.929 582.96 216.937 579.397 209.812 576.397 C 203.605 573.71 197.242 571.393 190.761 569.46 L 190.761 569.456 C 189.57 568.706 188.445 567.901 187.507 567.206 C 188.886 565.209 191.445 562.088 193.695 559.088 C 194.882 557.526 196.253 555.217 197.5 553.221 L 199.32 550.034 L 200.632 546.725 C 200.82 546.35 200.874 545.909 201.062 545.534 C 214.929 565.463 242.226 563.026 266.218 559.276 C 293.639 554.908 318.999 549.658 346.741 555.846 C 362.858 559.463 371.417 574.213 385.03 581.58 Z M 1086.698 262.869 C 1120.12 278.111 1138.608 299.728 1143.397 335.974 C 1126.655 366.123 1114.222 398.553 1094.292 426.912 C 1071.85 456.345 1043.753 481.005 1011.651 499.435 L 1011.655 499.435 C 961.745 530.419 905.589 549.911 850.745 570.583 C 848.87 570.02 847.062 569.524 845.374 568.961 C 844.694 568.75 844.007 568.579 843.312 568.454 L 843.308 568.454 C 843.996 561.903 840.808 555.59 830.316 549.536 C 814.374 539.899 797.456 531.985 779.843 525.919 C 773.3 525.005 766.675 524.837 760.097 525.423 C 749.55 525.469 739.066 523.801 729.058 520.481 C 708.848 514.173 673.426 520.36 654.996 529.415 C 629.637 541.782 627.441 562.65 627.012 587.259 C 624.508 592.255 622.203 597.317 619.887 602.126 C 604.078 586.883 567.602 591.692 549.301 596.942 C 531.742 601.857 516.883 627.739 503.008 638.419 C 473.43 661.099 447.414 648.294 419.992 634.427 C 416.269 630.919 412.37 627.599 408.312 624.489 L 408.312 624.486 C 408.058 624.298 407.87 624.177 407.628 623.989 C 415.437 609.684 424.491 599.38 412.745 583.95 C 408.12 579.685 402.417 576.767 396.253 575.513 L 396.257 575.517 C 381.144 570.333 371.648 557.337 357.96 549.97 C 339.968 540.353 312.425 541.411 293.187 544.974 C 268.324 549.595 217.164 566.591 204.976 532.982 C 204.922 532.794 204.789 532.728 204.668 532.54 C 205.418 528.482 205.98 524.552 206.543 520.802 C 207.039 516.548 207.734 512.927 208.351 509.243 C 208.984 505.982 209.902 502.779 211.097 499.681 L 211.097 499.677 L 212.222 496.997 L 212.597 495.939 L 212.664 495.806 L 212.972 495.243 C 213.843 493.677 214.726 492.111 215.531 490.556 C 217.097 487.427 219.093 484.489 220.847 481.622 C 226.472 472.751 232.351 464.755 237.722 457.63 C 241.406 454.013 245.156 450.009 248.089 446.634 C 255.523 438.197 261.648 430.818 267.14 425.072 C 277.887 413.514 286.445 407.955 285.32 404.955 C 284.57 402.459 272.703 403.455 257.59 413.635 C 249.25 419.471 241.41 425.99 234.152 433.127 L 234.148 433.131 C 229.968 437.068 226.461 440.322 221.839 444.381 L 218.343 447.314 L 216.601 448.814 L 216.281 449.123 L 216.093 449.189 L 215.222 449.873 C 212.785 451.748 210.347 453.557 207.855 455.498 L 202.351 459.49 C 193.597 453.193 182.367 451.451 172.117 454.803 C 167.418 456.381 162.879 458.408 158.57 460.857 L 158.57 460.861 C 143.699 468.415 123.274 463.111 122.082 444.181 C 120.898 424.127 138.562 416.318 154.5 411.818 C 183.743 403.635 228.414 393.584 218.102 355.916 C 236.844 351.666 255.825 348.534 274.942 346.541 C 314.421 342.416 371.831 332.608 397.632 369.846 C 397.3 370.092 396.988 370.362 396.695 370.651 L 396.687 370.655 C 394.37 372.409 391.437 374.217 388.128 376.401 C 384.82 378.585 381.503 380.835 378.136 383.151 C 371.828 387.456 366.015 391.956 359.894 395.893 C 353.773 399.831 347.839 403.581 342.214 407.198 C 331.038 414.565 320.484 420.753 312.046 426.565 C 302.89 431.897 294.468 438.405 286.999 445.924 C 286.433 446.307 285.89 446.721 285.374 447.17 L 285.378 447.174 C 265.511 462.67 254.019 473.471 255.64 475.908 C 257.261 478.345 271.698 471.849 293.749 459.482 C 315.546 446.674 345.968 430.119 378.265 409.072 C 386.452 403.447 394.194 397.885 401.507 392.58 C 403.999 390.893 406.691 389.076 409.437 386.834 C 411.874 385.08 414.245 383.393 416.616 381.705 C 417.3 381.502 417.968 381.252 418.612 380.955 C 453.057 362.47 489.076 347.095 526.252 335.017 L 526.249 335.013 C 566.851 322.713 611.206 319.767 652.999 313.271 C 712.339 304.096 784.492 306.025 839.269 276.541 C 840.769 275.924 842.335 275.361 843.835 274.799 C 852.573 271.424 860.89 268.424 868.511 265.932 C 875.194 263.752 881.991 261.936 888.874 260.494 L 888.87 260.494 C 900.362 258.057 908.417 257.869 908.417 256.248 C 908.483 255.002 901.124 252.432 887.999 253.127 C 881.636 253.42 875.316 254.342 869.128 255.873 C 884.746 242.506 898.929 227.393 915.355 215.018 C 948.899 189.847 984.383 194.534 1017.485 217.202 C 1026.974 223.699 1035.852 230.448 1044.786 237.011 C 1033.751 235.015 1022.466 234.8 1011.364 236.386 C 1002.813 238.073 997.758 240.19 997.938 241.69 C 998.118 243.19 1003.688 243.565 1012.18 243.753 C 1022.969 244.413 1033.711 245.686 1044.356 247.569 C 1052.286 249.069 1059.657 250.503 1066.274 251.749 C 1072.845 255.878 1079.669 259.593 1086.7 262.87 Z M 346.91 484.45 C 351.402 480.513 353.464 477.06 352.461 475.935 C 351.457 474.81 348.089 476.001 342.906 478.13 C 336.004 481.068 329.359 484.583 323.051 488.638 C 316.161 492.728 310.301 498.349 305.934 505.064 C 304.516 507.302 303.676 509.857 303.496 512.497 C 303.563 514.185 303.86 515.244 304.555 515.497 C 305.25 515.751 306.11 515.255 307.367 513.876 C 308.621 512.497 309.805 511.505 311.801 509.685 C 317.176 505.231 322.856 501.161 328.797 497.497 C 335.148 493.602 341.203 489.239 346.91 484.45 Z M 479.45 355.2 C 458.029 363.329 442.974 373.442 444.095 376.005 C 445.286 378.817 462.712 372.817 483.075 365.075 C 503.693 357.638 520.614 352.024 520.052 348.958 C 519.677 346.274 500.88 347.458 479.45 355.2 Z M 640.804 394.499 C 665.355 390.308 680.413 386.874 680.468 385.386 C 680.28 383.941 664.784 384.823 639.921 387.128 C 607.374 390.015 574.991 394.562 542.909 400.749 C 525.182 404.351 507.659 408.878 490.409 414.308 C 476.292 418.863 462.507 424.398 449.159 430.863 L 449.159 430.867 C 426.292 442.109 414.359 452.035 414.921 453.039 C 415.737 454.547 429.413 446.793 452.214 437.672 C 463.586 432.911 477.574 428.352 493.191 423.61 C 508.933 419.177 526.425 414.864 544.98 411.048 C 582.085 403.681 616.191 398.806 640.8 394.501 Z M 685.663 326.653 C 697.905 324.215 705.506 322.294 705.397 320.848 C 705.284 319.403 697.401 318.653 684.659 319.282 C 668.253 320.583 651.941 322.856 635.804 326.09 C 617.062 329.598 600.198 332.774 588.085 334.782 C 575.71 336.712 567.847 338.024 567.968 339.59 C 568.03 340.903 575.776 342.27 588.46 342.27 C 605.018 341.641 621.499 339.696 637.745 336.458 C 656.597 332.84 673.471 329.278 685.659 326.653 Z M 759.553 382.938 C 775.108 379.876 786.787 375.712 786.6 372.844 C 786.413 369.977 772.925 369.469 757.745 372.536 C 743.503 375.282 730.136 377.036 730.378 380.157 C 730.566 382.782 742.812 385.903 759.554 382.903 Z M 874.815 361.132 C 863.136 378.062 860.659 390.055 861.569 390.562 C 863.132 391.5 868.507 379.941 880.749 365.699 C 882.308 363.891 883.937 362.016 885.616 360.008 C 887.437 358.188 889.433 356.313 891.429 354.383 C 895.73 350.258 900.242 346.359 904.949 342.703 C 915.839 334.55 927.617 327.656 940.058 322.152 C 952.57 316.89 965.683 313.195 979.105 311.156 C 984.968 310.465 990.871 310.129 996.777 310.152 C 999.523 310.219 1002.281 310.152 1004.839 310.285 C 1007.398 310.594 1009.836 310.847 1012.207 311.156 C 1030.945 313.726 1041.879 319.406 1042.75 317.719 C 1043.125 317.031 1040.687 315.156 1035.82 312.289 C 1034.574 311.605 1033.261 310.789 1031.761 309.918 C 1030.195 309.222 1028.453 308.605 1026.578 307.855 C 1022.363 306.094 1017.988 304.738 1013.519 303.797 C 1011.015 303.289 1008.402 302.726 1005.71 302.164 C 1002.96 301.789 1000.085 301.668 997.093 301.414 C 990.749 300.93 984.374 300.972 978.034 301.547 C 963.518 303.141 949.311 306.82 935.846 312.477 C 922.564 318.352 910.131 325.973 898.869 335.145 C 894.029 339.215 889.459 343.598 885.193 348.27 L 885.193 348.274 C 883.197 350.524 881.134 352.453 879.502 354.703 C 877.869 356.953 876.314 359.078 874.814 361.133 Z M 1071.084 411.57 C 1076.58 406.957 1080.63 400.855 1082.748 393.996 C 1084.865 387.14 1084.958 379.816 1083.017 372.906 C 1075.423 353.793 1047.411 360.918 1030.423 366.41 C 1011.735 354.883 988.68 352.933 968.325 361.16 C 944.45 372.707 927.724 395.196 923.54 421.387 C 906.431 427.672 889.736 435.036 873.56 443.438 L 873.564 443.438 C 860.325 450.871 851.325 470.606 841.837 481.668 C 825.712 500.407 846.704 511.02 863.634 514.395 C 880.943 517.77 899.365 513.899 916.736 513.457 C 932.908 513.016 943.529 512.079 954.338 499.395 C 967.752 483.72 989.26 486.775 1003.377 473.032 C 1009.506 467.399 1014.361 460.521 1017.619 452.86 C 1018.408 450.376 1018.791 447.778 1018.744 445.173 C 1026.009 441.407 1032.529 436.349 1037.982 430.247 C 1049.814 425.555 1060.951 419.274 1071.084 411.571 Z M 1110.385 333.403 C 1115.569 333.403 1119.76 330.993 1119.76 328.118 C 1119.76 325.239 1115.569 322.868 1110.385 322.868 C 1105.201 322.868 1101.01 325.185 1101.01 328.118 C 1101.01 331.052 1105.201 333.423 1110.385 333.423 Z M 177.464 547.226 C 175.456 550.226 173.526 552.785 171.339 556.468 C 128.914 546.57 91.379 531.737 66.449 493.132 C 32.156 440.151 90.628 408.041 130.855 387.432 C 155.68 374.795 181.852 365.006 208.875 358.26 L 208.879 358.256 C 215.816 386.119 183.828 394.116 161.281 400.295 C 142.406 405.424 125.917 408.537 116.429 427.287 C 110.175 439.654 110.925 460.955 124.05 469.072 C 132.038 474.494 141.89 476.436 151.339 474.443 C 165.335 471.826 182.511 456.076 194.886 464.701 C 182.101 473.658 168.53 481.435 154.339 487.943 L 154.343 487.943 C 147.285 490.81 141.413 493.557 136.605 495.189 C 132.105 496.998 129.8 498.752 129.921 500.185 C 130.042 501.619 132.855 502.623 137.663 503.307 C 144.713 504.06 151.843 503.682 158.772 502.182 C 170.701 499.639 182.204 495.413 192.942 489.632 L 192.073 491.681 C 190.202 495.966 188.757 500.427 187.761 504.993 L 187.761 504.997 C 187.011 509.244 186.14 513.744 185.632 517.802 C 184.991 525.095 183.566 532.298 181.386 539.29 L 180.636 541.474 L 179.577 543.349 C 178.827 544.661 178.452 545.72 177.46 547.22 Z M 192.944 489.627 L 192.944 489.631 C 192.943 489.631 192.943 489.632 192.942 489.632 Z M 383.911 630.001 C 425.141 655.039 439.692 690.836 450.821 731.211 C 445.88 745.387 431.2 735.02 422.087 730.153 C 416.399 726.711 410.227 724.145 403.778 722.532 C 401.86 715.892 399.524 709.383 396.782 703.04 C 395.825 700.676 394.676 698.399 393.34 696.227 C 392.137 693.801 390.762 691.461 389.227 689.231 L 389.227 689.227 C 387.539 686.977 385.785 684.672 384.098 682.356 C 382.035 679.918 380.481 678.231 378.606 676.114 C 375.172 672.11 370.672 667.93 366.239 663.618 C 361.676 659.559 357.051 655.379 351.934 651.563 C 341.263 643.466 329.841 636.411 317.825 630.489 L 317.825 630.493 C 311.638 627.305 305.075 624.622 298.458 621.875 C 295.391 620.618 292.204 619.305 289.083 617.993 C 286.137 616.622 283.204 615.243 280.204 613.875 C 271.657 609.629 263.282 604.875 254.977 600.187 C 257.028 599.57 259.035 599.074 261.098 598.445 C 279.707 592.688 298.824 598.312 316.879 603 C 340.43 608.656 363.015 617.754 383.91 630 Z M 247.41 723.249 C 219.551 699.885 267.344 678.143 271.469 659.479 C 274.524 645.718 258.157 632.976 248.602 626.667 C 240.727 621.484 223.485 617.48 215.864 625.663 C 210.81 631.073 207.353 637.777 205.872 645.034 L 205.872 645.03 C 196.064 681.444 163.646 646.093 155.462 631.288 C 150.841 622.851 137.349 611.73 151.591 603.425 C 157.197 600.96 162.236 597.367 166.396 592.87 C 168.767 589.878 169.623 585.956 168.709 582.249 L 168.712 582.249 C 169.517 582.437 170.334 582.558 171.205 582.812 C 181.756 585.48 191.994 589.253 201.756 594.062 C 222.865 604.066 244.599 619.62 270.904 632.8 C 274.271 634.421 277.774 635.976 281.142 637.542 L 290.958 641.48 C 297.079 643.917 303.071 646.288 308.817 649.101 C 319.871 654.219 330.45 660.3 340.43 667.281 C 345.239 670.527 349.673 674.21 353.985 677.519 C 358.047 681.148 362.106 684.336 365.977 688.328 C 367.852 690.136 370.102 692.199 371.536 693.699 C 373.102 695.453 374.602 697.195 376.036 698.882 C 377.493 700.601 378.829 702.418 380.032 704.32 C 381.293 706.089 382.461 707.922 383.528 709.816 C 386.34 714.879 388.778 719.754 390.907 724.496 C 390.84 724.496 390.774 724.496 390.774 724.562 C 385.981 729.921 382.039 735.992 379.094 742.551 L 379.09 742.551 C 371.039 759.042 355.606 751.109 344.676 743.676 C 339.554 741.234 333.734 740.679 328.242 742.113 C 299.832 748.379 270.113 741.441 247.41 723.25 Z"/>
</svg>