<!-- Generated by IcoMoon.io -->
<svg version="1.1" xmlns="http://www.w3.org/2000/svg" width="32" height="32" viewBox="0 0 32 32">
<path d="M23.533 16.274c-0.004 0.008-0.007 0.016-0.009 0.025-0.337 0.453-0.721 0.868-1.147 1.238 0.446-0.907 1.052-1.928-0.436-2.163-1.631-0.261-2.667 0.931-3.645 2.092 0.026-0.14 0.049-0.271 0.079-0.39l0.026-0.109 0.037-0.093c0.020-0.063 0.044-0.124 0.072-0.183 0.057-0.116 0.123-0.226 0.198-0.331 0.601-0.827 1.288-1.035 1.246-1.136-0.008-0.020-0.054-0.027-0.136-0.019-0.042 0.004-0.091 0.012-0.15 0.023-0.069 0.017-0.137 0.039-0.204 0.064-0.429 0.167-0.811 0.436-1.114 0.783-0.104 0.117-0.198 0.243-0.279 0.377l0-0-0.017 0.033c-0.019-0.231 0.026-0.463 0.131-0.67s0.265-0.38 0.464-0.501c0.391-0.22 0.821-0.361 1.267-0.417l0 0c0.358-0.063 0.797 0.067 1.126-0.019 0.524-0.142 0.952-0.317 1.525-0.115 0.27 0.102 0.549 0.182 0.832 0.24l-0 0c0.85 0.157 0.298 0.912 0.149 1.222-0.007 0.015-0.012 0.031-0.012 0.047h0zM20.837 15.66c0.572-0.188 2.225-0.056 1.678 1.010-0.251 0.415-0.466 0.849-0.644 1.3l0-0c-0.136 0.114-0.272 0.222-0.4 0.324-0.445 0.356-0.99 0.605-1.465 0.923-0.472 0.363-0.907 0.772-1.299 1.221-0.058 0.056-0.090 0.135-0.087 0.216-0.010 0.025-0.018 0.051-0.022 0.078l-0-0c-0.131 0.829-0.169 1.632-0.348 2.447-0.013-0.003-0.026-0.003-0.039-0.002-0.249 0.031-0.474 0.165-0.62 0.37-0.091 0.129-0.192 0.25-0.303 0.363-0.101 0.072-0.227 0.101-0.349 0.080l0-0c-0.524-0.015-0.361-0.481-0.302-0.718 0.171-0.682 0.125-1.134-0.332-1.549 0.007-0.073 0.012-0.149 0.019-0.226 0.015-0.196 0.010-0.373 0.023-0.57 0.007-0.097 0.013-0.196 0.019-0.296l0.003-0.036-0.001-0.004 0.003-0.014 0.012-0.057c0.004-0.039 0.012-0.077 0.025-0.114 0.047-0.156 0.126-0.299 0.233-0.421 0.125-0.144 0.258-0.28 0.399-0.408 0.148-0.142 0.292-0.278 0.437-0.429 0.070-0.070 0.148-0.165 0.218-0.247 0.034-0.038 0.066-0.079 0.094-0.121l0-0 0.081-0.117c0.119-0.176 0.212-0.368 0.277-0.57 0.003-0.008 0.006-0.016 0.007-0.025l0-0c0.768-0.906 1.636-2.064 2.683-2.407l-0 0zM17.262 20.705c0.238-0.434 0.509-0.763 0.445-0.83-0.055-0.064-0.451 0.178-0.729 0.676-0.127 0.216-0.187 0.465-0.171 0.715l-0 0c0.026 0.207 0.108 0.288 0.147 0.28 0.045-0.007 0.044-0.134 0.082-0.273 0.049-0.198 0.125-0.39 0.225-0.568zM21.132 16.555c0.333-0.187 0.571-0.254 0.562-0.307-0.005-0.036-0.269-0.048-0.658 0.099-0.227 0.088-0.442 0.204-0.64 0.345-0.238 0.172-0.461 0.364-0.666 0.575-0.358 0.38-0.691 0.783-0.998 1.206l-0-0c-0.233 0.32-0.376 0.524-0.342 0.555s0.231-0.12 0.515-0.405c0.285-0.285 0.641-0.702 1.057-1.129 0.194-0.198 0.398-0.386 0.612-0.562 0.175-0.14 0.362-0.266 0.558-0.376h-0zM26.089 17.911c0.251-0.012 0.48 0.295 0.226 0.465-0.117 0.063-0.247 0.099-0.379 0.106l0 0c-1.003 0.149-2.060-0.356-3.026-0.646 0.133-0.121 0.263-0.248 0.39-0.379 0.598 0.309 1.256 0.483 1.929 0.508 0.288 0.001 0.576-0.017 0.861-0.054zM24.241 16.354c-0.048-0.004-0.090-0.032-0.114-0.073s-0.024-0.093-0.002-0.135l-0-0 0.019-0.033 0.015-0.026c0.009-0.018 0.016-0.038 0.018-0.058 0.006-0.041 0.030-0.078 0.066-0.1l0.259-0.161c0.027-0.017 0.060-0.024 0.091-0.021 0.25 0.024 0.498 0.068 0.741 0.132 0.094 0.026 0.184 0.064 0.268 0.114 0.048 0.028 0.075 0.081 0.071 0.136s-0.041 0.103-0.092 0.122c-0.053 0.018-0.106 0.032-0.161 0.042l-0.074 0.014c-0.364 0.065-0.735 0.081-1.103 0.048l-0.001-0zM21.882 25.875c0.119 0.033 0.216 0.118 0.265 0.232 0.053 0.097 0.055 0.214 0.006 0.313-0.131 0.164-0.326 0.266-0.536 0.278-0.047 0.009-0.090 0.029-0.127 0.058-0.946 0.292-1.921 0.479-2.908 0.558-0.316 0.029-0.279 0.448-0.030 0.544 0.035 0.040 0.081 0.068 0.132 0.080 0.74 0.186 1.451 0.467 2.201 0.613 0.044 0.143-0.005 0.299-0.124 0.391-0.162 0.134-0.355 0.010-0.466-0.121-0.054-0.070-0.141-0.107-0.229-0.096l0 0c-1.197-0.322-2.459-0.406-3.636-0.783-1.916-0.612-0.946-3.16-0.588-4.537 0.006-0.028 0.009-0.057 0.009-0.086l-0-0c0.028-0.070 0.056-0.143 0.085-0.217 0.056-0.155 0.124-0.318 0.171-0.48 0.027-0.081 0.052-0.164 0.079-0.247 0.029-0.101 0.043-0.191 0.065-0.289 0.001-0.012 0.004-0.022 0.005-0.034 0.092 0.089 0.157 0.202 0.188 0.327 0.030 0.314-0.007 0.632-0.11 0.93-0.089 0.351-0.091 0.673 0.241 0.877 0.261 0.141 0.577 0.136 0.834-0.014l-0 0c0.301-0.202 0.413-0.591 0.769-0.692-0.251 0.941-0.544 1.87-0.793 2.813-0.031 0.111 0.007 0.229 0.097 0.301 0.026 0.157 0.169 0.267 0.327 0.251l-0 0c0.546-0.054 1.083-0.081 1.624-0.177 0.65-0.117 1.268-0.392 1.914-0.533 0.045-0.010 0.088-0.031 0.123-0.061 0.025-0.014 0.048-0.030 0.069-0.048 0.053-0.056 0.115-0.103 0.184-0.139 0.051-0.018 0.107-0.022 0.16-0.011zM11.269 25.819c0.124 0.028 0.25 0.053 0.38 0.074 0.053 0.009 0.096 0.046 0.113 0.097s0.004 0.106-0.033 0.145c-0.118 0.126-0.225 0.262-0.321 0.406-0.030 0.044-0.082 0.067-0.135 0.061l0 0c-0.030-0.003-0.057-0.005-0.087-0.006-0.222-0.019-0.442-0.052-0.66-0.099-0.060-0.013-0.105-0.063-0.112-0.124s0.025-0.12 0.081-0.146c0.231-0.103 0.451-0.23 0.655-0.38 0.034-0.026 0.077-0.036 0.119-0.027zM21.669 19.5c0.046 0.066 0.095 0.131 0.147 0.193 0.028 0.034 0.038 0.079 0.029 0.122s-0.038 0.079-0.077 0.098c-0.029 0.014-0.048 0.024-0.069 0.032-0.047 0.020-0.096 0.035-0.147 0.045-0.17 0.028-0.344 0.017-0.509-0.033l0 0c-0.161-0.050-0.186-0.246-0.202-0.375-0.001-0.019-0.004-0.035-0.006-0.047-0.010-0.058-0.026-0.115-0.046-0.171-0.024-0.064-0-0.137 0.058-0.173l0.34-0.21c0.034-0.020 0.074-0.027 0.112-0.017s0.071 0.036 0.090 0.071c0.107 0.192 0.193 0.335 0.28 0.465v-0zM16.289 28.666c0.586 0.258 1.137 0.55 1.782 0.59 0.106 0.133 0.095 0.323-0.024 0.444-0.189 0.146-0.426 0.217-0.665 0.198-0.015-0.010-0.030-0.020-0.046-0.028-1.037-0.503-2.174-0.816-3.258-1.201-1.009-0.393-2.102-0.52-3.174-0.368-0.098 0.017-0.179 0.085-0.213 0.179s-0.015 0.198 0.049 0.274c0.002 0.004 0.004 0.008 0.004 0.013 0.28 0.654 0.701 1.445 1.423 1.682 0.016 0.020 0.036 0.036 0.058 0.049l-0 0c0.074 0.050 0.211 0.471 0.132 0.556-0.101 0.025-0.206 0.024-0.306-0.002-0.066-0.014-0.13-0.036-0.19-0.065-0.030-0.016-0.1-0.082-0.095-0.058-0.012-0.045-0.035-0.086-0.066-0.12-0.011-0.025-0.025-0.049-0.043-0.070l-0 0c-0.595-0.711-0.977-1.787-1.913-2.143-0.617-0.235-1.251-0.372-1.807-0.746-0.654-0.438-1.307-0.923-1.922-1.414-1.078-0.862-2.332-1.928-3.065-3.104-0.451-0.755-0.675-1.625-0.642-2.504-0.003-0.289 0.092-0.57 0.268-0.799l-0 0c0.019-0.015 0.034-0.030 0.052-0.045 0.041-0.035 0.086-0.067 0.132-0.094 0.045-0.028 0.091-0.062 0.141-0.089 0.102-0.054 0.209-0.098 0.32-0.132 0.028-0.007 0.055-0.016 0.085-0.026 0.034-0.009 0.068-0.016 0.103-0.020l0-0 0.138-0.021c0.317 0.199-0.286 0.605-0.359 0.713-0.049 0.071-0.078 0.154-0.085 0.24s0.011 0.173 0.050 0.25c0.081 0.163 0.205 0.302 0.358 0.401 0.289 0.255 0.396 0.609 0.713 0.815 0.202 0.091 0.425 0.126 0.645 0.103s0.431-0.105 0.609-0.236c0.12-0.128 0.231-0.222 0.251-0.409 0.010-0.18 0.085-0.351 0.211-0.48s0.294-0.208 0.474-0.223c0.18-0.015 0.359 0.036 0.504 0.143l-0 0c0.668 0.4-0.007 0.971-0.237 1.224-1.018 1.124 1.019 1.919 1.881 1.869 0.397-0.026 1.473-0.386 1.805-0.179 0.171 0.112 0.374 0.164 0.578 0.147l0 0c0.509-0.018 0.571-0.744 0.733-1.128 0.104 0.154 0.196 0.292 0.28 0.403 0.191 0.264 0.322 0.387 0.362 0.362s-0.026-0.196-0.144-0.487c-0.049-0.112-0.104-0.245-0.172-0.398 0.317 0.033 0.683 0.226 0.955 0.269 0.102 0.023 0.208 0.016 0.305-0.021s0.182-0.102 0.242-0.187l-0-0c0.118 0.25 0.238 0.507 0.361 0.766 0.855 1.782-0.818 2.092-2.13 1.917-0.020-0.004-0.041-0.008-0.061-0.013-0.541-0.135-1.072-0.305-1.591-0.51l0 0c-0.149-0.055-0.302-0.112-0.46-0.169-0.086-0.030-0.171-0.061-0.259-0.089s-0.175-0.048-0.264-0.074c-0.353-0.092-0.719-0.157-1.072-0.229-0.173-0.041-0.354-0.076-0.505-0.123-0.081-0.020-0.162-0.044-0.24-0.073l0-0c-0.080-0.029-0.157-0.058-0.235-0.085-0.153-0.068-0.307-0.136-0.455-0.203-0.147-0.073-0.291-0.145-0.432-0.216-0.555-0.293-1.046-0.593-1.462-0.841-0.83-0.506-1.372-0.789-1.421-0.716s0.391 0.485 1.162 1.094c0.457 0.357 0.936 0.686 1.433 0.984l0-0c0.144 0.081 0.293 0.164 0.444 0.249 0.157 0.075 0.316 0.154 0.479 0.232 0.086 0.034 0.175 0.068 0.264 0.103 0.051 0.022 0.113 0.041 0.175 0.060 0.69 1.047 1.714 1.616 2.926 1.994 0.646 0.192 1.323 0.261 1.994 0.204 0.932-0.075 1.658-0.581 2.536-0.748 0.002 0.113 0.010 0.224 0.023 0.335-0.029 0.010-0.057 0.024-0.081 0.043-0.279 0.199-0.527 0.437-0.736 0.707-0.043 0.056-0.061 0.128-0.050 0.197s0.049 0.133 0.106 0.174c0.033 0.039 0.076 0.070 0.124 0.087 0.735 0.265 1.489 0.508 2.206 0.819l0 0zM26.078 11.238c0.672 0.207 1.689-0.014 2.433-0.491-0.003 0.576-0.696 0.889-1.15 1.102-0.143 0.080-0.261 0.201-0.338 0.346-0.454 0.664-0.955 0.694-1.657 0.878-0.336 0.104-0.684 0.159-1.036 0.164-0.723-0.004-0.193-0.794-0.093-0.994 0.347-0.7 0.93-1.115 1.562-1.53 0.007 0.086 0.018 0.172 0.031 0.255 0.011 0.070 0.049 0.133 0.106 0.175 0.035 0.047 0.084 0.081 0.141 0.096zM28.966 8.275c0.384-0.204 0.912-0.421 1.123-0.094 0.26 0.408-0.159 0.929-0.457 1.162-0.058 0.044-0.118 0.089-0.176 0.133 0.034-0.359-0.073-0.716-0.297-0.998-0.055-0.076-0.12-0.144-0.193-0.203zM27.356 9.632c-0.12 0.093-0.264 0.15-0.415 0.165s-0.303-0.013-0.439-0.081c0.105-0.341 0.298-0.649 0.558-0.893 0.034 0.042 0.080 0.073 0.132 0.090 0.104 0.084 0.176 0.201 0.206 0.332s0.015 0.267-0.042 0.388zM15.709 21.324c-0.586 0.304-1.212 0.524-1.86 0.653-0.342-0.668-0.8-1.271-1.35-1.781 0.58 0.134 1.147 0.152 1.682-0.249 0.43-0.345 0.785-0.775 1.043-1.263l0-0c0.209-0.391 1.76-1.416 2.36-0.823 0.002 0.003 0.006 0.003 0.011 0.006-0.004 0.009-0.006 0.018-0.008 0.027-0.027 0.075-0.065 0.143-0.095 0.215l-0.061 0.101-0.015 0.025-0.007 0.013-0.002 0.002-0.040 0.055-0.085 0.116c-0.024 0.037-0.053 0.071-0.084 0.102l0 0c-0.060 0.061-0.104 0.117-0.173 0.183-0.131 0.128-0.279 0.266-0.424 0.401-0.164 0.146-0.318 0.303-0.46 0.47-0.162 0.189-0.282 0.411-0.351 0.651-0.017 0.059-0.030 0.12-0.037 0.181l-0.016 0.091-0.003 0.022-0.003 0.036-0 0.037-0.014 0.295c-0.005 0.144-0.004 0.294-0.007 0.434zM12.499 20.196l-0-0c0 0 0 0 0 0s-0 0-0-0zM10.494 18.316c0.583 0.183 0.739 0.527 0.652 1.022-0.807-0.326-1.663-0.514-2.533-0.556-0.464-0.039-0.93-0.031-1.392 0.025l0-0c-0.477 0.062-0.889 0.383-1.329 0.55-0.004 0.001-0.005 0.003-0.009 0.003-0.232-0.072-0.464-0.139-0.695-0.189-0.202-0.045-0.407-0.078-0.614-0.099l-0-0c-0.040-0.016-0.079-0.033-0.111-0.049 0.030-0.068 0.089-0.177 0.139-0.28 0.027-0.054 0.055-0.131 0.081-0.199l0.036-0.107 0.020-0.107c0.003-0.012 0.003-0.026 0.006-0.038 0.533 0.52 1.341 0.289 2.042 0.037 0.801-0.29 1.534-0.595 2.405-0.569 0.506 0.016 0.849 0.411 1.302 0.554h0zM29.784 4.662c1.095 0.266 1.776 0.81 2.13 1.874-0.33 1.005-0.517 2.053-0.953 3.023-0.506 1.016-1.209 1.921-2.070 2.662v0c-1.324 1.222-2.902 2.133-4.435 3.073-0.060-0.006-0.117-0.011-0.171-0.018-0.022-0.002-0.043-0.004-0.065-0.003l-0 0c-0.017-0.201-0.15-0.373-0.501-0.495-0.536-0.198-1.091-0.339-1.657-0.42-0.202 0.010-0.403 0.044-0.598 0.099-0.317 0.062-0.643 0.073-0.963 0.031-0.645-0.073-1.676 0.318-2.179 0.697-0.692 0.519-0.638 1.16-0.508 1.904-0.047 0.165-0.087 0.331-0.129 0.489-0.564-0.368-1.635-0.012-2.156 0.252-0.5 0.25-0.798 1.115-1.154 1.517-0.76 0.854-1.617 0.619-2.523 0.36-0.132-0.084-0.269-0.162-0.409-0.232l-0-0c-0.009-0.004-0.015-0.007-0.023-0.011 0.152-0.476 0.366-0.839-0.077-1.235-0.164-0.102-0.353-0.157-0.545-0.159l0 0c-0.485-0.069-0.846-0.405-1.301-0.548-0.597-0.186-1.421 0.005-1.98 0.224-0.722 0.283-2.165 1.090-2.726 0.149-0.003-0.005-0.007-0.007-0.012-0.012-0.001-0.127-0.007-0.248-0.011-0.364-0.010-0.131-0.010-0.244-0.012-0.359 0-0.102 0.009-0.204 0.027-0.304l-0-0 0.018-0.087 0.005-0.034 0.001-0.004 0.006-0.019c0.017-0.052 0.035-0.104 0.050-0.156 0.029-0.103 0.072-0.203 0.108-0.3 0.118-0.3 0.249-0.574 0.37-0.82 0.090-0.13 0.18-0.272 0.249-0.391 0.175-0.297 0.317-0.555 0.449-0.759 0.257-0.41 0.482-0.627 0.431-0.711-0.037-0.071-0.389 0.028-0.785 0.422-0.217 0.224-0.416 0.466-0.593 0.723l-0 0c-0.103 0.143-0.19 0.261-0.306 0.41l-0.088 0.109-0.044 0.055-0.008 0.011-0.005 0.003-0.022 0.026c-0.063 0.071-0.126 0.139-0.189 0.212l-0.143 0.152c-0.3-0.139-0.648-0.127-0.938 0.034-0.132 0.075-0.257 0.162-0.373 0.261l0 0c-0.404 0.313-1.050 0.272-1.195-0.291-0.152-0.597 0.335-0.934 0.789-1.162 0.833-0.415 2.121-0.976 1.592-2.051 0.54-0.236 1.093-0.44 1.658-0.611 1.165-0.352 2.837-0.98 3.83-0.007-0.009 0.009-0.016 0.019-0.024 0.030l-0 0c-0.060 0.066-0.138 0.138-0.225 0.223s-0.174 0.172-0.262 0.261c-0.165 0.166-0.314 0.335-0.476 0.489s-0.319 0.301-0.467 0.443c-0.294 0.286-0.576 0.534-0.797 0.758-0.245 0.213-0.461 0.458-0.642 0.728-0.015 0.015-0.029 0.030-0.042 0.047l0 0c-0.509 0.582-0.792 0.973-0.73 1.037s0.46-0.215 1.053-0.715c0.582-0.512 1.403-1.186 2.254-2.007 0.214-0.217 0.415-0.429 0.605-0.631 0.065-0.065 0.136-0.136 0.206-0.219 0.063-0.067 0.125-0.131 0.187-0.196 0.019-0.010 0.038-0.021 0.056-0.034 0.931-0.756 1.926-1.427 2.976-2.006l-0-0c1.152-0.605 2.47-0.95 3.692-1.387 1.734-0.619 3.918-0.978 5.398-2.183 0.042-0.027 0.086-0.053 0.127-0.079 0.244-0.152 0.477-0.291 0.692-0.41 0.189-0.104 0.383-0.198 0.582-0.281l-0 0c0.332-0.14 0.574-0.192 0.564-0.241-0.005-0.038-0.242-0.073-0.633 0.024-0.19 0.046-0.375 0.11-0.552 0.192 0.393-0.493 0.733-1.030 1.156-1.498 0.865-0.952 1.96-1.016 3.089-0.525 0.323 0.141 0.63 0.293 0.937 0.439-0.344 0.004-0.685 0.062-1.010 0.174-0.248 0.1-0.388 0.193-0.374 0.237s0.184 0.023 0.441-0.020c0.329-0.042 0.66-0.066 0.991-0.071 0.247-0.001 0.478-0 0.684-0.001 0.222 0.086 0.449 0.159 0.68 0.217v-0zM8.784 15.611c0.113-0.145 0.155-0.26 0.118-0.289s-0.131 0.027-0.275 0.121c-0.191 0.128-0.371 0.273-0.537 0.431-0.184 0.163-0.328 0.366-0.421 0.594-0.030 0.076-0.040 0.157-0.030 0.238 0.012 0.050 0.027 0.081 0.049 0.084s0.045-0.016 0.075-0.065c0.030-0.049 0.060-0.085 0.109-0.152 0.136-0.165 0.284-0.321 0.441-0.465 0.169-0.154 0.326-0.32 0.47-0.498zM12.029 10.953c-0.598 0.369-0.993 0.76-0.945 0.831 0.052 0.078 0.542-0.204 1.111-0.554 0.578-0.343 1.055-0.61 1.020-0.699-0.027-0.079-0.586 0.066-1.187 0.423zM17.115 11.204c0.715-0.268 1.149-0.459 1.142-0.504-0.014-0.042-0.476 0.074-1.211 0.287-0.964 0.275-1.912 0.599-2.843 0.971-0.513 0.211-1.015 0.449-1.503 0.712-0.399 0.219-0.782 0.465-1.147 0.737l0 0c-0.624 0.471-0.926 0.839-0.903 0.866 0.033 0.041 0.4-0.272 1.034-0.678 0.315-0.209 0.71-0.427 1.153-0.66 0.448-0.225 0.95-0.455 1.487-0.678 1.075-0.436 2.074-0.78 2.79-1.052l0-0zM18.074 8.901c0.355-0.144 0.572-0.246 0.561-0.289s-0.253-0.020-0.634 0.073c-0.487 0.134-0.965 0.297-1.432 0.487-0.544 0.214-1.034 0.407-1.387 0.538-0.362 0.13-0.591 0.215-0.578 0.261 0.009 0.039 0.251 0.036 0.633-0.038 0.495-0.115 0.98-0.268 1.451-0.46 0.547-0.218 1.034-0.423 1.386-0.572l0-0zM20.625 10.169c0.451-0.182 0.778-0.375 0.756-0.46s-0.431-0.023-0.871 0.158c-0.413 0.165-0.805 0.295-0.78 0.388 0.021 0.078 0.408 0.101 0.895-0.086l0 0.001zM23.97 8.846c-0.254 0.577-0.259 0.953-0.229 0.963 0.052 0.019 0.148-0.36 0.434-0.86 0.037-0.063 0.075-0.129 0.114-0.2 0.044-0.065 0.094-0.133 0.143-0.203 0.106-0.149 0.219-0.293 0.34-0.43 0.281-0.308 0.596-0.584 0.939-0.822 0.346-0.231 0.72-0.418 1.112-0.557 0.173-0.055 0.348-0.099 0.526-0.132 0.083-0.014 0.166-0.032 0.244-0.043 0.079-0.005 0.154-0.012 0.227-0.016 0.579-0.031 0.941 0.077 0.958 0.021 0.007-0.023-0.077-0.065-0.24-0.123-0.042-0.013-0.086-0.030-0.136-0.048-0.051-0.012-0.107-0.020-0.168-0.032-0.137-0.029-0.277-0.044-0.417-0.047-0.079-0.001-0.16-0.003-0.245-0.004-0.085 0.005-0.172 0.018-0.264 0.027-0.194 0.022-0.386 0.060-0.573 0.114-0.428 0.132-0.835 0.325-1.207 0.573-0.366 0.254-0.696 0.555-0.983 0.896-0.122 0.151-0.235 0.309-0.336 0.474l0 0c-0.047 0.079-0.098 0.149-0.134 0.226s-0.071 0.15-0.104 0.221l0-0zM30.172 9.231c0.139-0.171 0.226-0.378 0.25-0.597s-0.015-0.44-0.114-0.637c-0.339-0.532-1.142-0.155-1.622 0.108-0.629-0.239-1.335-0.165-1.9 0.201-0.652 0.486-1.026 1.26-1.001 2.073-0.479 0.288-0.939 0.606-1.378 0.953l0-0c-0.356 0.3-0.513 0.947-0.735 1.335-0.377 0.658 0.316 0.856 0.846 0.86 0.541 0.002 1.073-0.221 1.594-0.335 0.485-0.107 0.799-0.196 1.051-0.641 0.313-0.55 0.979-0.582 1.325-1.077 0.152-0.205 0.258-0.44 0.312-0.69 0.009-0.079 0.006-0.16-0.011-0.238 0.197-0.155 0.364-0.345 0.493-0.561 0.329-0.21 0.628-0.463 0.889-0.754v-0zM30.904 6.65c0.156-0.030 0.269-0.127 0.252-0.213s-0.157-0.134-0.313-0.104c-0.156 0.030-0.269 0.124-0.252 0.212s0.157 0.136 0.313 0.106l-0-0.001zM4.044 18.481c-0.043 0.102-0.086 0.19-0.131 0.314-1.335-0.053-2.551-0.283-3.525-1.301-1.339-1.397 0.236-2.702 1.329-3.556 0.675-0.524 1.406-0.97 2.181-1.329l0-0c0.37 0.799-0.547 1.225-1.191 1.541-0.539 0.264-1.017 0.453-1.195 1.072-0.117 0.409 0.029 1.046 0.471 1.214 0.272 0.117 0.58 0.119 0.853 0.004 0.406-0.16 0.833-0.733 1.255-0.545-0.333 0.344-0.697 0.656-1.087 0.934l0-0c-0.196 0.127-0.357 0.244-0.492 0.321-0.125 0.081-0.184 0.147-0.172 0.189s0.102 0.056 0.251 0.049c0.217-0.018 0.429-0.071 0.629-0.156 0.345-0.146 0.667-0.339 0.957-0.575l-0.014 0.067c-0.032 0.14-0.049 0.283-0.053 0.426l0 0c0.002 0.132 0.002 0.273 0.010 0.398 0.023 0.223 0.022 0.448-0.004 0.672l-0.010 0.070-0.021 0.063c-0.015 0.044-0.020 0.078-0.041 0.129l0 0zM4.177 16.657l0 0c-0 0-0 0-0 0l0-0zM10.74 19.781c1.386 0.516 2.032 1.51 2.6 2.661-0.067 0.456-0.569 0.228-0.871 0.134-0.191-0.071-0.392-0.112-0.595-0.124-0.096-0.189-0.204-0.371-0.323-0.547-0.043-0.066-0.090-0.128-0.143-0.185-0.050-0.066-0.105-0.129-0.164-0.187l-0-0c-0.064-0.058-0.13-0.117-0.194-0.177-0.076-0.061-0.133-0.103-0.201-0.156-0.127-0.101-0.286-0.201-0.445-0.305-0.161-0.096-0.324-0.195-0.501-0.28-0.368-0.182-0.753-0.329-1.149-0.438l0 0c-0.205-0.060-0.418-0.103-0.633-0.148-0.1-0.020-0.203-0.041-0.305-0.063-0.097-0.024-0.193-0.049-0.291-0.073-0.282-0.078-0.562-0.173-0.839-0.266 0.058-0.030 0.116-0.057 0.174-0.088 0.527-0.281 1.135-0.222 1.706-0.185 0.742 0.034 1.475 0.178 2.175 0.426l0 0zM7.168 23.378c-0.974-0.543 0.34-1.474 0.356-2.060 0.012-0.432-0.554-0.721-0.878-0.856-0.267-0.111-0.81-0.132-0.992 0.159-0.121 0.192-0.186 0.414-0.189 0.641l-0-0c-0.085 1.153-1.266 0.276-1.598-0.123-0.188-0.227-0.659-0.484-0.278-0.817 0.155-0.107 0.286-0.244 0.385-0.403 0.054-0.104 0.057-0.227 0.008-0.333l0-0c0.025 0.001 0.051-0 0.078 0.003 0.333 0.019 0.663 0.074 0.985 0.162 0.694 0.179 1.438 0.522 2.306 0.767 0.111 0.029 0.225 0.056 0.336 0.084l0.318 0.062c0.198 0.038 0.393 0.075 0.582 0.126 0.363 0.090 0.716 0.212 1.057 0.365 0.164 0.070 0.318 0.155 0.467 0.23 0.143 0.086 0.284 0.158 0.424 0.256 0.067 0.044 0.147 0.093 0.198 0.13 0.057 0.044 0.113 0.088 0.165 0.13s0.105 0.090 0.152 0.141c0.048 0.046 0.094 0.094 0.137 0.145 0.114 0.136 0.216 0.269 0.307 0.399-0.002 0-0.004 0.001-0.004 0.003-0.113 0.189-0.197 0.395-0.248 0.609l-0 0c-0.147 0.543-0.658 0.393-1.030 0.233-0.168-0.044-0.347-0.027-0.504 0.048-0.819 0.353-1.755 0.316-2.543-0.101v-0z"></path>
</svg>
