<?xml version="1.0" encoding="UTF-8" standalone="no"?>
<!DOCTYPE svg PUBLIC "-//W3C//DTD SVG 1.1//EN" "http://www.w3.org/Graphics/SVG/1.1/DTD/svg11.dtd">
<svg width="100%" height="100%" viewBox="0 0 150 150" version="1.1" xmlns="http://www.w3.org/2000/svg" xmlns:xlink="http://www.w3.org/1999/xlink" xml:space="preserve" xmlns:serif="http://www.serif.com/" style="fill-rule:evenodd;clip-rule:evenodd;stroke-linejoin:round;stroke-miterlimit:2;">
    <g transform="matrix(0.141172,-0.0270915,0.0270915,0.141172,-20.9229,14.1845)">
        <path d="M815.181,596.32C814.998,596.547 814.841,596.8 814.724,597.07C801.162,609.507 786.287,620.441 770.369,629.675C790.237,603.378 815.913,574.402 769.686,557.714C719.059,539.346 678.566,571.147 640.086,602.319C641.773,598.007 643.336,593.944 645.015,590.327L646.515,587.007L648.269,584.261C649.281,582.374 650.425,580.558 651.699,578.835C654.226,575.483 657.027,572.35 660.07,569.46C684.39,546.659 707.695,544.222 706.945,540.726C706.816,540.042 705.379,539.534 702.699,539.292C701.32,539.159 699.699,539.105 697.757,539.105C695.433,539.226 693.121,539.495 690.832,539.909C676.063,542.631 662.172,548.89 650.348,558.151C646.285,561.249 642.516,564.722 639.098,568.522L639.102,568.522L638.359,569.46C639.164,561.937 642.047,554.788 646.684,548.808C651.317,542.831 657.524,538.261 664.61,535.605C678.489,530.976 693.133,529.089 707.735,530.046L707.735,530.05C719.602,530.238 732.848,537.109 743.903,536.359C761.567,535.046 776.333,532.046 793.442,542.039C801.477,546.969 809.895,551.25 818.614,554.844L818.61,554.847C844.852,565.093 822.547,585.894 815.864,594.886C815.535,595.308 815.305,595.797 815.18,596.32L815.181,596.32ZM732.596,560.091C752.084,557.587 804.182,571.962 780.135,602.767C769.561,614.501 759.991,627.099 751.522,640.435L751.526,640.435C746.463,643.236 741.463,645.861 736.721,648.365C720.295,657.049 701.303,661.67 684.127,668.916C666.772,677.642 650.323,688.06 635.018,700.025C632.803,701.466 631.307,703.787 630.904,706.4C630.416,707.142 630.018,707.935 629.713,708.771L629.713,708.767C620.412,734.501 614.279,759.994 603.537,784.978C603.139,784.818 602.721,784.716 602.291,784.669C594.115,784.126 586.088,787.052 580.174,792.724C576.47,796.294 572.482,799.556 568.24,802.474C564.556,804.146 560.357,804.302 556.56,802.904L556.564,802.904C539.884,799.22 547.947,785.29 551.322,778.052C561.006,757.251 562.31,742.505 550.197,726.388C550.88,724.083 551.509,721.7 552.193,719.263C553.88,713.084 554.818,707.392 556.439,701.15C557.255,698.083 558.06,694.954 558.876,691.775L559.185,690.65L559.185,690.517L559.372,690.087L560.122,688.333C560.486,687.115 560.99,685.939 561.622,684.837C564.072,680.142 567.506,676.032 571.681,672.778C576.56,668.931 581.67,665.384 586.982,662.157C592.607,658.536 598.045,655.04 603.603,651.102C606.283,649.294 609.349,646.723 612.096,644.54C613.428,643.532 614.678,642.426 615.846,641.231L615.849,641.231L619.158,637.989C624.048,633.086 628.212,627.512 631.521,621.43C631.673,621.196 631.798,620.946 631.896,620.68L631.9,620.68C662.08,596.379 696.975,564.645 732.6,560.09L732.596,560.091ZM587.12,699.7C597.424,687.271 608.111,678.399 606.483,675.841C605.112,673.462 590.929,678.775 578.995,693.017C573.596,699.157 570.162,706.771 569.131,714.88L569.127,714.88C568.686,721.685 570.815,724.751 572.127,724.751C573.619,724.806 574.369,720.747 576.432,716.501C579.225,710.446 582.823,704.794 587.12,699.7ZM736.539,590.57C748.34,586.64 756.402,585.937 756.422,584.202C756.488,583.011 748.113,581.015 734.746,583.32C726.945,584.753 719.348,587.148 712.133,590.445C703.454,594.5 695.137,599.285 687.274,604.754C673.469,614.73 660.317,625.582 647.899,637.238L647.899,637.234C638.469,646.039 632.645,651.718 633.528,652.91C634.407,654.101 641.653,650.472 652.52,643.105C663.383,635.738 677.371,624.55 693.309,613.433C700.727,608.265 708.423,603.511 716.364,599.195C722.845,595.777 729.591,592.89 736.54,590.57L736.539,590.57ZM886.96,664.47C895.077,665.622 900.515,676.873 891.327,680.755C887.186,682.044 882.815,682.412 878.522,681.822L878.522,681.826C845.483,680.447 814.741,657.767 785.577,642.525C790.573,639.462 795.507,636.212 800.382,632.782C817.624,646.36 837.655,655.962 859.038,660.907C868.257,662.72 877.581,663.907 886.96,664.47ZM837.362,603.24C835.858,602.819 834.663,601.674 834.175,600.19C833.686,598.705 833.972,597.076 834.932,595.846L834.932,595.842L835.737,594.904L836.366,594.147C836.78,593.627 837.097,593.037 837.304,592.404C837.761,591.115 838.757,590.088 840.034,589.592L849.323,586.022C850.304,585.647 851.378,585.615 852.378,585.928C860.242,588.244 867.91,591.178 875.312,594.701C878.163,596.104 880.812,597.885 883.187,599.998C884.546,601.186 885.101,603.049 884.617,604.791C884.128,606.53 882.687,607.834 880.91,608.147C879.113,608.412 877.304,608.533 875.488,608.51L873.015,608.51C860.96,608.354 848.976,606.588 837.39,603.26L837.362,603.24ZM703.3,893.66C706.91,895.441 709.504,898.777 710.347,902.714C711.445,906.152 710.793,909.906 708.605,912.773C703.394,917.234 696.535,919.277 689.734,918.398C688.191,918.394 686.672,918.758 685.301,919.457C653.208,922.984 620.829,922.984 588.739,919.457C578.434,918.457 577.059,932.078 584.426,936.699C585.297,938.183 586.606,939.363 588.176,940.074C610.723,950.562 631.778,963.933 654.887,973.242C655.422,978.101 652.887,982.785 648.52,984.988C642.519,988.297 637.082,983.113 634.336,978.238C633.031,975.66 630.469,973.953 627.586,973.738L627.586,973.742C591.229,956.07 551.319,945.637 515.956,926.332C458.366,894.972 505.092,819.326 525.022,777.412C525.393,776.549 525.667,775.646 525.831,774.72L525.831,774.713C527.143,772.65 528.522,770.466 529.889,768.283C532.636,763.661 535.823,758.853 538.327,753.978C539.694,751.54 541.007,749.048 542.386,746.544C543.94,743.49 544.944,740.677 546.257,737.677C546.378,737.302 546.511,736.993 546.632,736.618C549.034,740.036 550.417,744.064 550.628,748.235C549.663,758.489 546.511,768.415 541.382,777.344C536.386,788.032 534.323,798.337 543.698,806.895C551.198,813.028 561.354,814.806 570.491,811.583L570.487,811.583C581.362,806.958 587.354,795.212 599.354,794.153C585.545,822.754 570.432,850.684 556.69,879.352C555.018,882.711 555.51,886.742 557.94,889.598C557.803,894.781 561.71,899.18 566.874,899.66L566.87,899.66C584.675,901.281 602.038,903.719 619.972,903.972C641.519,904.215 662.996,899.219 684.558,898.656C686.069,898.621 687.55,898.215 688.87,897.472C689.741,897.191 690.581,896.812 691.374,896.347C693.413,894.867 695.694,893.746 698.112,893.031C699.866,892.758 701.659,892.976 703.3,893.66ZM363.75,826.64C367.566,828.288 371.43,829.882 375.469,831.354C377.101,831.956 378.265,833.413 378.492,835.14C378.723,836.862 377.976,838.573 376.555,839.577C372.004,842.898 367.727,846.581 363.77,850.593C362.535,851.808 360.734,852.245 359.082,851.726L359.082,851.73C358.156,851.449 357.273,851.214 356.336,850.988C349.351,849.011 342.5,846.597 335.82,843.757C333.976,842.976 332.832,841.105 332.98,839.101C333.125,837.101 334.527,835.417 336.468,834.909C344.503,833.031 352.32,830.3 359.773,826.761C361.016,826.132 362.473,826.089 363.75,826.64ZM735.66,688.179C736.711,690.582 737.91,692.972 739.168,695.257C739.843,696.519 739.91,698.015 739.343,699.328C738.781,700.64 737.648,701.625 736.269,702C735.238,702.281 734.574,702.457 733.871,702.59C732.238,702.953 730.574,703.132 728.902,703.125C723.288,702.992 717.777,701.562 712.804,698.953L712.804,698.957C707.941,696.36 708.37,689.945 708.652,685.719C708.738,685.117 708.738,684.574 708.738,684.18C708.761,682.254 708.617,680.332 708.304,678.43C707.917,676.226 709.14,674.055 711.23,673.246L723.418,668.625C724.621,668.176 725.953,668.226 727.121,668.765C728.285,669.328 729.168,670.344 729.558,671.578C731.789,678.383 733.664,683.492 735.66,688.18L735.66,688.179ZM507.032,948.644C524.216,960.515 540.079,973.254 560.462,978.484C563.025,983.386 561.517,989.425 556.955,992.546C549.998,996.074 541.974,996.878 534.455,994.796C534.048,994.371 533.607,993.972 533.142,993.609C503.033,971.116 468.549,954.128 436.197,935.136C406.306,916.347 372.084,905.573 336.822,903.843C333.576,903.784 330.553,905.468 328.888,908.253C327.224,911.042 327.178,914.503 328.767,917.331C328.81,917.476 328.83,917.624 328.826,917.773C333.767,940.453 342.38,968.371 364.056,980.371C364.462,981.097 364.993,981.749 365.622,982.3L365.618,982.304C367.681,984.366 369.49,998.671 366.435,1000.92C363.06,1001.09 359.689,1000.42 356.63,998.98C354.615,998.12 352.704,997.034 350.939,995.734C350.068,995.038 348.259,992.48 348.259,993.296C348.15,991.792 347.677,990.335 346.88,989.05C346.693,988.175 346.38,987.331 345.943,986.546L345.939,986.546C331.259,960.128 325.642,923.331 297.837,906.155C279.537,894.847 260.048,886.542 244.56,871.167C226.314,853.12 208.392,833.565 191.712,814.073C162.474,779.843 128.872,738.011 112.626,695.823C102.813,668.863 101.012,639.636 107.442,611.675C109.122,602.409 113.876,593.984 120.934,587.749L120.93,587.753C121.626,587.378 122.188,587.003 122.872,586.636C124.411,585.765 126.02,585.03 127.684,584.441C129.305,583.823 130.993,583.007 132.747,582.444C136.348,581.335 140.048,580.581 143.798,580.194C144.735,580.14 145.673,580.007 146.677,579.886C147.817,579.792 148.966,579.792 150.106,579.886L150.11,579.886L154.665,580.073C163.599,588.389 141.802,597.698 138.802,600.698C136.79,602.671 135.345,605.152 134.618,607.874C133.892,610.601 133.915,613.472 134.677,616.183C136.278,621.918 139.388,627.117 143.677,631.242C151.372,641.171 152.622,653.171 161.489,661.73C167.403,665.878 174.313,668.382 181.512,668.984C188.715,669.585 195.945,668.269 202.465,665.159C207.097,661.784 211.211,659.479 213.031,653.6C214.464,647.894 217.914,642.894 222.742,639.53C227.57,636.167 233.452,634.667 239.304,635.3C245.156,635.937 250.578,638.667 254.574,642.987L254.57,642.987C273.5,659.909 248.382,674.031 239.449,680.714C199.933,710.448 260.281,748.429 288.199,752.112C301.074,753.734 337.738,748.804 347.113,757.484C351.894,762.132 358.097,765.038 364.73,765.734L364.73,765.738C381.156,768.297 387.597,745.43 395.152,734.125C397.523,739.687 399.64,744.683 401.648,748.742C406.148,758.371 409.589,763.105 411.023,762.551C412.457,761.997 411.398,756.118 409.402,746.059C408.531,742.187 407.593,737.566 406.335,732.25C416.273,735.25 426.82,743.687 435.257,746.742C438.367,748.113 441.816,748.531 445.164,747.941C448.511,747.351 451.609,745.781 454.062,743.433L454.062,743.429C456.312,752.175 458.562,761.112 460.933,770.167C477.359,832.503 421.878,832.136 380.937,818.468C380.308,818.226 379.679,817.972 379.062,817.663C362.566,810.022 346.594,801.3 331.25,791.542L331.25,791.546C326.816,788.863 322.258,786.117 317.57,783.304C315.012,781.804 312.453,780.304 309.828,778.87C307.203,777.437 304.512,776.245 301.832,774.867C291.086,769.749 279.781,765.437 268.906,760.937C263.601,758.573 258.039,756.315 253.484,753.886C250.999,752.745 248.582,751.472 246.238,750.069L246.246,750.065C243.863,748.632 241.558,747.253 239.242,745.886C234.749,742.757 230.249,739.632 225.937,736.577C221.691,733.323 217.511,730.147 213.441,727.015C197.457,714.21 183.582,701.593 171.777,691.101C148.292,669.8 132.671,657.409 130.675,659.433C128.675,661.457 140.226,677.387 161.152,701.621C173.589,715.871 186.902,729.331 201.011,741.933L201.015,741.933C205.132,745.429 209.378,748.992 213.691,752.621C218.246,755.984 222.878,759.492 227.621,762.988C230.179,764.609 232.804,766.23 235.429,767.917C236.929,768.921 238.804,769.913 240.679,770.917C256.355,808.691 285.651,833.198 322.128,852.753C341.647,862.863 362.882,869.238 384.745,871.55C415.046,874.859 441.409,863.125 470.573,863.179C469.956,866.796 469.519,870.421 469.261,874.054C468.261,874.179 467.288,874.472 466.39,874.925C456.249,879.573 446.842,885.675 438.464,893.038C436.753,894.585 435.737,896.753 435.647,899.054C435.553,901.359 436.389,903.601 437.964,905.28C438.784,906.745 439.971,907.976 441.405,908.843C463.303,921.835 485.983,934.269 507.03,948.64L507.032,948.644ZM927.63,450.7C947.868,461.442 981.791,460.637 1008.55,449.938C1004.93,468.371 980.813,474.118 964.95,478.176C959.86,479.871 955.368,482.996 952.012,487.176C933.403,505.665 917.156,503.536 893.551,505.102C882.164,506.383 870.656,506.004 859.379,503.977C836.251,499.422 858.067,477.372 862.501,471.559C877.904,451.262 899.138,441.559 921.939,432.149C921.63,434.962 921.443,437.774 921.376,440.52C921.29,442.829 922.122,445.075 923.692,446.77C924.509,448.501 925.899,449.887 927.63,450.7ZM1038.3,373.55C1051.86,369.37 1070.1,365.687 1074.84,377.433C1080.65,392.105 1064.03,406.222 1053.05,411.847C1050.92,412.906 1048.73,413.964 1046.61,415.034C1049.9,403.761 1048.69,391.643 1043.24,381.237C1041.94,378.472 1040.27,375.886 1038.3,373.55ZM978.41,407.1C973.992,409.334 969.039,410.28 964.109,409.827C959.18,409.373 954.481,407.541 950.547,404.538C956.012,394.261 964.066,385.584 973.91,379.366C974.746,380.932 976.027,382.213 977.594,383.053C980.398,386.393 982.004,390.577 982.152,394.936C982.301,399.295 980.98,403.577 978.41,407.1ZM533.58,709.95C512.944,716.095 491.541,719.29 470.01,719.438C463.148,695.94 452.215,673.829 437.717,654.108C455.462,661.971 473.508,666.031 493.127,656.477C509.033,648.063 523.045,636.473 534.291,622.426L534.295,622.426C543.389,611.177 599.365,587.879 614.92,610.559C614.974,610.681 615.107,610.681 615.228,610.802C615.056,611.059 614.912,611.333 614.795,611.618C613.482,613.868 611.849,615.798 610.416,617.927L607.857,620.794L607.228,621.489L606.92,621.864L606.853,621.919L605.232,623.419L601.802,626.606C600.795,627.638 599.681,628.559 598.482,629.352L598.482,629.356C596.177,630.923 594.424,632.477 591.799,634.165C586.803,637.473 581.24,640.981 575.748,644.411C569.6,648.075 563.713,652.165 558.135,656.653C551.771,661.716 546.572,668.083 542.889,675.329C541.967,677.114 541.197,678.973 540.584,680.888L539.514,683.7L539.271,684.384L538.951,685.509L538.709,686.7L536.459,696.075C535.4,700.641 534.517,705.45 533.58,709.95ZM437.713,654.106L437.713,654.102C437.714,654.104 437.716,654.106 437.717,654.108C437.716,654.107 437.714,654.107 437.713,654.106ZM385.031,581.58C402.589,591.01 405.46,603.002 399.617,618.322C375.773,602.916 349.504,591.639 321.91,584.963C307.305,580.857 292.317,578.26 277.18,577.213L277.184,577.213C261.535,576.275 246.359,584.029 231.246,586.654C231.113,586.654 231.058,586.709 230.925,586.709C223.929,582.96 216.937,579.397 209.812,576.397C203.605,573.71 197.242,571.393 190.761,569.46L190.761,569.456C189.57,568.706 188.445,567.901 187.507,567.206C188.886,565.209 191.445,562.088 193.695,559.088C194.882,557.526 196.253,555.217 197.5,553.221L199.32,550.034L200.632,546.725C200.82,546.35 200.874,545.909 201.062,545.534C214.929,565.463 242.226,563.026 266.218,559.276C293.639,554.908 318.999,549.658 346.741,555.846C362.858,559.463 371.417,574.213 385.03,581.58L385.031,581.58ZM1086.7,262.869C1120.12,278.111 1138.61,299.728 1143.4,335.974C1126.65,366.123 1114.22,398.553 1094.29,426.912C1071.85,456.345 1043.75,481.005 1011.65,499.435L1011.65,499.435C961.745,530.419 905.589,549.911 850.745,570.583C848.87,570.02 847.062,569.524 845.374,568.961C844.694,568.75 844.007,568.579 843.312,568.454L843.308,568.454C843.996,561.903 840.808,555.59 830.316,549.536C814.374,539.899 797.456,531.985 779.843,525.919C773.3,525.005 766.675,524.837 760.097,525.423C749.55,525.469 739.066,523.801 729.058,520.481C708.848,514.173 673.426,520.36 654.996,529.415C629.637,541.782 627.441,562.65 627.012,587.259C624.508,592.255 622.203,597.317 619.887,602.126C604.078,586.883 567.602,591.692 549.301,596.942C531.742,601.857 516.883,627.739 503.008,638.419C473.43,661.099 447.414,648.294 419.992,634.427C416.269,630.919 412.37,627.599 408.312,624.489L408.312,624.486C408.058,624.298 407.87,624.177 407.628,623.989C415.437,609.684 424.491,599.38 412.745,583.95C408.12,579.685 402.417,576.767 396.253,575.513L396.257,575.517C381.144,570.333 371.648,557.337 357.96,549.97C339.968,540.353 312.425,541.411 293.187,544.974C268.324,549.595 217.164,566.591 204.976,532.982C204.922,532.794 204.789,532.728 204.668,532.54C205.418,528.482 205.98,524.552 206.543,520.802C207.039,516.548 207.734,512.927 208.351,509.243C208.984,505.982 209.902,502.779 211.097,499.681L211.097,499.677L212.222,496.997L212.597,495.939L212.664,495.806L212.972,495.243C213.843,493.677 214.726,492.111 215.531,490.556C217.097,487.427 219.093,484.489 220.847,481.622C226.472,472.751 232.351,464.755 237.722,457.63C241.406,454.013 245.156,450.009 248.089,446.634C255.523,438.197 261.648,430.818 267.14,425.072C277.887,413.514 286.445,407.955 285.32,404.955C284.57,402.459 272.703,403.455 257.59,413.635C249.25,419.471 241.41,425.99 234.152,433.127L234.148,433.131C229.968,437.068 226.461,440.322 221.839,444.381L218.343,447.314L216.601,448.814L216.281,449.123L216.093,449.189L215.222,449.873C212.785,451.748 210.347,453.557 207.855,455.498L202.351,459.49C193.597,453.193 182.367,451.451 172.117,454.803C167.418,456.381 162.879,458.408 158.57,460.857L158.57,460.861C143.699,468.415 123.274,463.111 122.082,444.181C120.898,424.127 138.562,416.318 154.5,411.818C183.743,403.635 228.414,393.584 218.102,355.916C236.844,351.666 255.825,348.534 274.942,346.541C314.421,342.416 371.831,332.608 397.632,369.846C397.3,370.092 396.988,370.362 396.695,370.651L396.687,370.655C394.37,372.409 391.437,374.217 388.128,376.401C384.82,378.585 381.503,380.835 378.136,383.151C371.828,387.456 366.015,391.956 359.894,395.893C353.773,399.831 347.839,403.581 342.214,407.198C331.038,414.565 320.484,420.753 312.046,426.565C302.89,431.897 294.468,438.405 286.999,445.924C286.433,446.307 285.89,446.721 285.374,447.17L285.378,447.174C265.511,462.67 254.019,473.471 255.64,475.908C257.261,478.345 271.698,471.849 293.749,459.482C315.546,446.674 345.968,430.119 378.265,409.072C386.452,403.447 394.194,397.885 401.507,392.58C403.999,390.893 406.691,389.076 409.437,386.834C411.874,385.08 414.245,383.393 416.616,381.705C417.3,381.502 417.968,381.252 418.612,380.955C453.057,362.47 489.076,347.095 526.252,335.017L526.249,335.013C566.851,322.713 611.206,319.767 652.999,313.271C712.339,304.096 784.492,306.025 839.269,276.541C840.769,275.924 842.335,275.361 843.835,274.799C852.573,271.424 860.89,268.424 868.511,265.932C875.194,263.752 881.991,261.936 888.874,260.494L888.87,260.494C900.362,258.057 908.417,257.869 908.417,256.248C908.483,255.002 901.124,252.432 887.999,253.127C881.636,253.42 875.316,254.342 869.128,255.873C884.746,242.506 898.929,227.393 915.355,215.018C948.899,189.847 984.383,194.534 1017.49,217.202C1026.97,223.699 1035.85,230.448 1044.79,237.011C1033.75,235.015 1022.47,234.8 1011.36,236.386C1002.81,238.073 997.758,240.19 997.938,241.69C998.118,243.19 1003.69,243.565 1012.18,243.753C1022.97,244.413 1033.71,245.686 1044.36,247.569C1052.29,249.069 1059.66,250.503 1066.27,251.749C1072.85,255.878 1079.67,259.593 1086.7,262.87L1086.7,262.869ZM346.91,484.45C351.402,480.513 353.464,477.06 352.461,475.935C351.457,474.81 348.089,476.001 342.906,478.13C336.004,481.068 329.359,484.583 323.051,488.638C316.161,492.728 310.301,498.349 305.934,505.064C304.516,507.302 303.676,509.857 303.496,512.497C303.563,514.185 303.86,515.244 304.555,515.497C305.25,515.751 306.11,515.255 307.367,513.876C308.621,512.497 309.805,511.505 311.801,509.685C317.176,505.231 322.856,501.161 328.797,497.497C335.148,493.602 341.203,489.239 346.91,484.45ZM479.45,355.2C458.029,363.329 442.974,373.442 444.095,376.005C445.286,378.817 462.712,372.817 483.075,365.075C503.693,357.638 520.614,352.024 520.052,348.958C519.677,346.274 500.88,347.458 479.45,355.2ZM640.804,394.499C665.355,390.308 680.413,386.874 680.468,385.386C680.28,383.941 664.784,384.823 639.921,387.128C607.374,390.015 574.991,394.562 542.909,400.749C525.182,404.351 507.659,408.878 490.409,414.308C476.292,418.863 462.507,424.398 449.159,430.863L449.159,430.867C426.292,442.109 414.359,452.035 414.921,453.039C415.737,454.547 429.413,446.793 452.214,437.672C463.586,432.911 477.574,428.352 493.191,423.61C508.933,419.177 526.425,414.864 544.98,411.048C582.085,403.681 616.191,398.806 640.8,394.501L640.804,394.499ZM685.663,326.653C697.905,324.215 705.506,322.294 705.397,320.848C705.284,319.403 697.401,318.653 684.659,319.282C668.253,320.583 651.941,322.856 635.804,326.09C617.062,329.598 600.198,332.774 588.085,334.782C575.71,336.712 567.847,338.024 567.968,339.59C568.03,340.903 575.776,342.27 588.46,342.27C605.018,341.641 621.499,339.696 637.745,336.458C656.597,332.84 673.471,329.278 685.659,326.653L685.663,326.653ZM759.553,382.938C775.108,379.876 786.787,375.712 786.6,372.844C786.413,369.977 772.925,369.469 757.745,372.536C743.503,375.282 730.136,377.036 730.378,380.157C730.566,382.782 742.812,385.903 759.554,382.903L759.553,382.938ZM874.815,361.132C863.136,378.062 860.659,390.055 861.569,390.562C863.132,391.5 868.507,379.941 880.749,365.699C882.308,363.891 883.937,362.016 885.616,360.008C887.437,358.188 889.433,356.313 891.429,354.383C895.73,350.258 900.242,346.359 904.949,342.703C915.839,334.55 927.617,327.656 940.058,322.152C952.57,316.89 965.683,313.195 979.105,311.156C984.968,310.465 990.871,310.129 996.777,310.152C999.523,310.219 1002.28,310.152 1004.84,310.285C1007.4,310.594 1009.84,310.847 1012.21,311.156C1030.94,313.726 1041.88,319.406 1042.75,317.719C1043.12,317.031 1040.69,315.156 1035.82,312.289C1034.57,311.605 1033.26,310.789 1031.76,309.918C1030.19,309.222 1028.45,308.605 1026.58,307.855C1022.36,306.094 1017.99,304.738 1013.52,303.797C1011.01,303.289 1008.4,302.726 1005.71,302.164C1002.96,301.789 1000.09,301.668 997.093,301.414C990.749,300.93 984.374,300.972 978.034,301.547C963.518,303.141 949.311,306.82 935.846,312.477C922.564,318.352 910.131,325.973 898.869,335.145C894.029,339.215 889.459,343.598 885.193,348.27L885.193,348.274C883.197,350.524 881.134,352.453 879.502,354.703C877.869,356.953 876.314,359.078 874.814,361.133L874.815,361.132ZM1071.08,411.57C1076.58,406.957 1080.63,400.855 1082.75,393.996C1084.87,387.14 1084.96,379.816 1083.02,372.906C1075.42,353.793 1047.41,360.918 1030.42,366.41C1011.74,354.883 988.68,352.933 968.325,361.16C944.45,372.707 927.724,395.196 923.54,421.387C906.431,427.672 889.736,435.036 873.56,443.438L873.564,443.438C860.325,450.871 851.325,470.606 841.837,481.668C825.712,500.407 846.704,511.02 863.634,514.395C880.943,517.77 899.365,513.899 916.736,513.457C932.908,513.016 943.529,512.079 954.338,499.395C967.752,483.72 989.26,486.775 1003.38,473.032C1009.51,467.399 1014.36,460.521 1017.62,452.86C1018.41,450.376 1018.79,447.778 1018.74,445.173C1026.01,441.407 1032.53,436.349 1037.98,430.247C1049.81,425.555 1060.95,419.274 1071.08,411.571L1071.08,411.57ZM1110.38,333.403C1115.57,333.403 1119.76,330.993 1119.76,328.118C1119.76,325.239 1115.57,322.868 1110.38,322.868C1105.2,322.868 1101.01,325.185 1101.01,328.118C1101.01,331.052 1105.2,333.423 1110.38,333.423L1110.38,333.403ZM177.464,547.226C175.456,550.226 173.526,552.785 171.339,556.468C128.914,546.57 91.379,531.737 66.449,493.132C32.156,440.151 90.628,408.041 130.855,387.432C155.68,374.795 181.852,365.006 208.875,358.26L208.879,358.256C215.816,386.119 183.828,394.116 161.281,400.295C142.406,405.424 125.917,408.537 116.429,427.287C110.175,439.654 110.925,460.955 124.05,469.072C132.038,474.494 141.89,476.436 151.339,474.443C165.335,471.826 182.511,456.076 194.886,464.701C182.101,473.658 168.53,481.435 154.339,487.943L154.343,487.943C147.285,490.81 141.413,493.557 136.605,495.189C132.105,496.998 129.8,498.752 129.921,500.185C130.042,501.619 132.855,502.623 137.663,503.307C144.713,504.06 151.843,503.682 158.772,502.182C170.701,499.639 182.204,495.413 192.942,489.632L192.073,491.681C190.202,495.966 188.757,500.427 187.761,504.993L187.761,504.997C187.011,509.244 186.14,513.744 185.632,517.802C184.991,525.095 183.566,532.298 181.386,539.29L180.636,541.474L179.577,543.349C178.827,544.661 178.452,545.72 177.46,547.22L177.464,547.226ZM192.944,489.627L192.944,489.631C192.943,489.631 192.943,489.632 192.942,489.632L192.944,489.627ZM383.911,630.001C425.141,655.039 439.692,690.836 450.821,731.211C445.88,745.387 431.2,735.02 422.087,730.153C416.399,726.711 410.227,724.145 403.778,722.532C401.86,715.892 399.524,709.383 396.782,703.04C395.825,700.676 394.676,698.399 393.34,696.227C392.137,693.801 390.762,691.461 389.227,689.231L389.227,689.227C387.539,686.977 385.785,684.672 384.098,682.356C382.035,679.918 380.481,678.231 378.606,676.114C375.172,672.11 370.672,667.93 366.239,663.618C361.676,659.559 357.051,655.379 351.934,651.563C341.263,643.466 329.841,636.411 317.825,630.489L317.825,630.493C311.638,627.305 305.075,624.622 298.458,621.875C295.391,620.618 292.204,619.305 289.083,617.993C286.137,616.622 283.204,615.243 280.204,613.875C271.657,609.629 263.282,604.875 254.977,600.187C257.028,599.57 259.035,599.074 261.098,598.445C279.707,592.688 298.824,598.312 316.879,603C340.43,608.656 363.015,617.754 383.91,630L383.911,630.001ZM247.41,723.249C219.551,699.885 267.344,678.143 271.469,659.479C274.524,645.718 258.157,632.976 248.602,626.667C240.727,621.484 223.485,617.48 215.864,625.663C210.81,631.073 207.353,637.777 205.872,645.034L205.872,645.03C196.064,681.444 163.646,646.093 155.462,631.288C150.841,622.851 137.349,611.73 151.591,603.425C157.197,600.96 162.236,597.367 166.396,592.87C168.767,589.878 169.623,585.956 168.709,582.249L168.712,582.249C169.517,582.437 170.334,582.558 171.205,582.812C181.756,585.48 191.994,589.253 201.756,594.062C222.865,604.066 244.599,619.62 270.904,632.8C274.271,634.421 277.774,635.976 281.142,637.542L290.958,641.48C297.079,643.917 303.071,646.288 308.817,649.101C319.871,654.219 330.45,660.3 340.43,667.281C345.239,670.527 349.673,674.21 353.985,677.519C358.047,681.148 362.106,684.336 365.977,688.328C367.852,690.136 370.102,692.199 371.536,693.699C373.102,695.453 374.602,697.195 376.036,698.882C377.493,700.601 378.829,702.418 380.032,704.32C381.293,706.089 382.461,707.922 383.528,709.816C386.34,714.879 388.778,719.754 390.907,724.496C390.84,724.496 390.774,724.496 390.774,724.562C385.981,729.921 382.039,735.992 379.094,742.551L379.09,742.551C371.039,759.042 355.606,751.109 344.676,743.676C339.554,741.234 333.734,740.679 328.242,742.113C299.832,748.379 270.113,741.441 247.41,723.25L247.41,723.249Z" style="fill-rule:nonzero;"/>
    </g>
</svg>
