<!-- Generated by IcoMoon.io -->
<svg version="1.1" xmlns="http://www.w3.org/2000/svg" width="32" height="32" viewBox="0 0 32 32">
<path d="M22.33 20.318l-0-0c0.014 0.122 0.072 0.583 0.154 0.894 0.243 0.894 0.643 1.846 0.643 1.846 0.125 0.297 0.085 0.645-0.104 0.9l-3.201 4.334c-0.21 0.288-0.567 0.397-0.89 0.275-0.32-0.12-0.534-0.449-0.534-0.817v-4.191l-0.759-2.467c-0.066-0.218-0.052-0.458 0.044-0.663l0.593-1.284-1.105-1.796h-1.971c-0.352 0-0.665-0.25-0.767-0.616-0.957-3.434-0.033-6.439 1.768-8.626 0.189-0.231 0.476-0.335 0.755-0.275l4.001 0.866c0.069 0.016 0.136 0.041 0.201 0.075l1.601 0.868c0.188 0.101 0.332 0.281 0.399 0.501l1.601 5.2c0.073 0.239 0.048 0.501-0.070 0.717 0 0-1.873 3.406-2.358 4.26zM24.943 23.651l0.988-1.622c0.078-0.132 0.189-0.236 0.32-0.304l2.201-1.152c0.207-0.109 0.447-0.114 0.659-0.020 0.213 0.098 0.376 0.288 0.448 0.525l0.492 1.598 1.451 0.637c0.301 0.132 0.5 0.45 0.5 0.803v2.717c0 0.19-0.059 0.375-0.167 0.527 0 0-0.891 1.256-2.349 1.256h-3.885c-0.163 0-0.321-0.054-0.456-0.154l-1.204-0.904c-0.324-0.244-0.435-0.707-0.264-1.090l1.215-2.717c0.017-0.034 0.033-0.067 0.052-0.099zM5.158 4.44l1.431 0.774h3.812c0.441 0 0.8 0.388 0.8 0.868v4.333c0 0.094-0.015 0.189-0.042 0.276l-0.8 2.6c-0.012 0.037-0.025 0.076-0.044 0.112l-1.020 2.212h1.105c0.124 0 0.246 0.033 0.358 0.093l3.2 1.734c0.37 0.2 0.538 0.679 0.384 1.097l-1.601 4.333-0.742 1.617v3.262c0 0.302-0.144 0.58-0.378 0.738-0.237 0.158-0.532 0.172-0.78 0.039l-1.601-0.866c-0.123-0.068-0.229-0.171-0.306-0.296l-1.601-2.6c-0.051-0.083-0.088-0.175-0.111-0.27l-0.792-3.436-0.772-2.511-0.717-1.552-3.108-3.367c-0.243-0.263-0.303-0.668-0.149-1.001l1.020-2.213h-1.905c-0.266 0-0.514-0.141-0.663-0.379-0.148-0.239-0.178-0.541-0.080-0.808l1.599-4.334c0.121-0.33 0.417-0.546 0.742-0.546h2.4c0.126 0 0.247 0.031 0.359 0.093zM1.589 22.753l-0 0c-0.066 0.042-0.129 0.089-0.189 0.14-0.138 0.119-0.328 0.132-0.478 0.037-0.153-0.098-0.234-0.283-0.207-0.473 0.12-0.795 0.265-1.765 0.37-2.462 0.026-0.172 0.138-0.314 0.292-0.366s0.323-0.008 0.435 0.119c0.451 0.509 1.081 1.217 1.567 1.83 0.11 0.124 0.138 0.307 0.071 0.466-0.067 0.156-0.215 0.25-0.373 0.239-0.075 0.002-0.148 0.006-0.222 0.015 0.555 1.529 1.323 3.211 2.334 4 0.298 0.234 0.367 0.684 0.152 1.009-0.215 0.322-0.631 0.397-0.93 0.164-1.202-0.938-2.169-2.909-2.821-4.718zM14.952 23.624h-0c0.261-0.964 0.457-1.966 0.384-2.732-0.039-0.397 0.228-0.752 0.592-0.793 0.366-0.042 0.695 0.245 0.734 0.642 0.092 0.941-0.129 2.194-0.453 3.377 0.075 0.010 0.152 0.016 0.228 0.018 0.176 0 0.333 0.115 0.398 0.293 0.063 0.177 0.021 0.379-0.108 0.507-0.549 0.546-1.218 1.209-1.698 1.687-0.12 0.117-0.291 0.151-0.441 0.089-0.152-0.062-0.255-0.211-0.272-0.385-0.064-0.702-0.155-1.68-0.184-2.488-0.015-0.172 0.068-0.335 0.21-0.413 0.141-0.078 0.312-0.052 0.431 0.062 0.059 0.049 0.118 0.094 0.18 0.137zM25.332 18.171l0 0c-0.066 0.005-0.132 0.011-0.196 0.021-0.174 0.034-0.347-0.052-0.438-0.215-0.090-0.161-0.081-0.367 0.027-0.518 0.451-0.639 1.005-1.419 1.404-1.978 0.098-0.138 0.259-0.206 0.417-0.172 0.159 0.034 0.287 0.161 0.33 0.328 0.174 0.679 0.42 1.63 0.578 2.417 0.044 0.167-0.012 0.343-0.14 0.447-0.128 0.102-0.3 0.11-0.435 0.020-0.072-0.039-0.144-0.076-0.219-0.109-0.358 1.237-0.91 2.589-1.741 3.721-0.231 0.312-0.649 0.364-0.938 0.114-0.288-0.247-0.334-0.702-0.107-1.014 0.685-0.93 1.144-2.035 1.458-3.062zM17.832 5.469l1.253-1.355-0.643-2.090c-0.082-0.265-0.042-0.554 0.107-0.78 0.15-0.226 0.39-0.361 0.646-0.362 0 0 7.5-0.049 8.074 0.003 0.203 0.019 0.721 0.192 1.338 0.453 1.22 0.52 2.922 1.354 2.922 1.354 0.287 0.141 0.471 0.45 0.471 0.79v8.667c0 0.172-0.046 0.34-0.135 0.483l-1.6 2.6c-0.176 0.283-0.489 0.431-0.801 0.372s-0.563-0.31-0.641-0.644l-0.648-2.812h-1.776c-0.366 0-0.685-0.27-0.776-0.655l-0.711-3.081-2.701-1.464h-3.812c-0.323 0-0.616-0.21-0.739-0.535-0.123-0.323-0.055-0.696 0.172-0.944zM13.58 6.059l-0 0c-0.072-0.028-0.146-0.054-0.219-0.075-0.169-0.045-0.297-0.198-0.321-0.387-0.024-0.187 0.062-0.372 0.214-0.465 0.651-0.39 1.448-0.865 2.018-1.204 0.141-0.084 0.315-0.076 0.447 0.023 0.133 0.101 0.203 0.271 0.18 0.445-0.090 0.699-0.216 1.672-0.361 2.465-0.021 0.169-0.138 0.309-0.292 0.348-0.156 0.039-0.316-0.029-0.405-0.172-0.046-0.060-0.095-0.119-0.146-0.176-0.568 1.103-1.095 2.397-1.233 3.64-0.045 0.395-0.375 0.678-0.742 0.631-0.364-0.047-0.626-0.408-0.582-0.803 0.162-1.459 0.774-2.989 1.443-4.271zM13.757 1.766l-0-0c0.434 0.093 0.713 0.551 0.627 1.019-0.087 0.47-0.507 0.775-0.942 0.681l-3.87-0.839-6.004 0.847c-0.033 0.007-0.069 0.008-0.102 0.008h-1.866c-0.441 0-0.799-0.388-0.799-0.868 0-0.478 0.358-0.866 0.799-0.866h1.813l6.083-0.858c0.088-0.011 0.174-0.010 0.261 0.008l4.001 0.868z"></path>
</svg>
