<?xml version="1.0" encoding="UTF-8" standalone="no"?>
<!DOCTYPE svg PUBLIC "-//W3C//DTD SVG 1.1//EN" "http://www.w3.org/Graphics/SVG/1.1/DTD/svg11.dtd">
<svg width="100%" height="100%" viewBox="0 0 150 150" version="1.1" xmlns="http://www.w3.org/2000/svg" xmlns:xlink="http://www.w3.org/1999/xlink" xml:space="preserve" xmlns:serif="http://www.serif.com/" style="fill-rule:evenodd;clip-rule:evenodd;stroke-linejoin:round;stroke-miterlimit:2;">
    <g transform="matrix(0.15,0,0,0.162516,-15.0017,-28.3755)">
        <path d="M797.81,760.64C812.951,736.031 871.498,637.78 871.498,637.78C875.201,631.546 875.998,623.999 873.701,617.108L823.685,467.108C821.576,460.78 817.076,455.577 811.216,452.67L761.2,427.639C759.184,426.655 757.075,425.951 754.919,425.483L629.899,400.499C621.18,398.764 612.227,401.764 606.321,408.421C550.024,471.515 521.149,558.181 551.055,657.231C554.242,667.778 563.993,674.997 575.008,674.997L636.602,674.997L671.149,726.794L652.633,763.825C649.633,769.731 649.211,776.669 651.274,782.95L674.993,854.106L674.993,974.996C674.993,985.637 681.696,995.105 691.681,998.574C701.759,1002.09 712.915,998.949 719.478,990.652L819.508,865.632C825.414,858.272 826.633,848.241 822.742,839.663C822.742,839.663 810.226,812.194 802.633,786.413C800.055,777.46 798.227,764.147 797.805,760.632L797.81,760.64ZM879.466,856.781C878.857,857.718 878.341,858.656 877.825,859.64L839.856,938.015C834.513,949.077 837.981,962.437 848.106,969.468L885.747,995.53C889.966,998.437 894.888,999.983 899.997,999.983L1021.4,999.983C1066.96,999.983 1094.8,963.749 1094.8,963.749C1098.18,959.39 1100.01,954.046 1100.01,948.561L1100.01,870.186C1100.01,860.014 1093.82,850.827 1084.4,847.031L1039.07,828.656L1023.69,782.578C1021.44,775.734 1016.34,770.25 1009.68,767.437C1003.07,764.718 995.569,764.858 989.1,767.999L920.334,801.233C916.256,803.202 912.788,806.202 910.35,809.999L879.466,856.781ZM261.186,302.671C257.717,300.89 253.92,299.999 249.983,299.999L174.983,299.999C164.811,299.999 155.577,306.233 151.78,315.749L101.811,440.769C98.717,448.457 99.655,457.175 104.295,464.066C108.936,470.91 116.717,474.988 125.014,474.988L184.545,474.988L152.67,538.832C147.842,548.442 149.717,560.113 157.311,567.707L254.436,664.832L276.842,709.598L300.983,782.02L325.733,881.114C326.436,883.833 327.608,886.505 329.202,888.895L379.218,963.895C381.608,967.505 384.937,970.458 388.78,972.427L438.796,997.411C446.531,1001.25 455.765,1000.83 463.171,996.286C470.484,991.739 474.983,983.724 474.983,975.005L474.983,880.927L498.186,834.286L548.202,709.316C553.03,697.269 547.78,683.441 536.202,677.675L436.218,627.659C432.703,625.924 428.906,624.987 425.015,624.987L390.468,624.987L422.343,561.19C422.906,560.158 423.328,559.033 423.703,557.955L448.687,482.955C449.53,480.424 449.999,477.705 449.999,474.986L449.999,350.016C449.999,336.188 438.796,324.985 425.015,324.985L305.905,324.985L261.186,302.671ZM149.666,830.861C170.057,883.033 200.291,939.891 237.838,966.941C247.166,973.644 260.197,971.488 266.9,962.207C273.65,952.832 271.494,939.848 262.166,933.098C230.572,910.364 206.572,861.848 189.228,817.738C191.524,817.503 193.821,817.363 196.165,817.316C201.134,817.644 205.728,814.925 207.837,810.425C209.946,805.831 209.056,800.535 205.634,796.972C190.446,779.3 170.759,758.863 156.65,744.191C153.134,740.535 147.884,739.269 143.056,740.769C138.228,742.269 134.712,746.347 133.915,751.316C130.634,771.425 126.087,799.41 122.337,822.332C121.494,827.817 124.025,833.16 128.806,835.973C133.494,838.692 139.447,838.317 143.759,834.895C145.634,833.442 147.603,832.083 149.665,830.864L149.666,830.861ZM567.276,855.986C565.354,854.767 563.479,853.455 561.651,852.049C557.948,848.767 552.604,848.017 548.198,850.267C543.745,852.517 541.167,857.205 541.636,862.173C542.573,885.47 545.386,913.689 547.401,933.939C547.917,938.955 551.151,943.267 555.886,945.048C560.573,946.829 565.916,945.845 569.666,942.47C584.666,928.689 605.572,909.564 622.728,893.814C626.76,890.111 628.072,884.299 626.103,879.189C624.088,874.08 619.166,870.752 613.681,870.752C611.291,870.705 608.9,870.517 606.556,870.236C616.681,836.111 623.572,799.97 620.712,772.83C619.494,761.392 609.228,753.096 597.79,754.314C586.399,755.486 578.056,765.752 579.274,777.189C581.571,799.267 575.431,828.189 567.274,855.986L567.276,855.986ZM891.646,698.726C881.849,728.351 867.505,760.226 846.084,787.038C838.959,796.038 840.412,809.163 849.412,816.288C858.412,823.507 871.49,822.007 878.709,813.007C904.678,780.335 921.928,741.335 933.131,705.667C935.475,706.604 937.725,707.682 939.975,708.807C944.194,711.432 949.584,711.198 953.569,708.245C957.553,705.245 959.288,700.182 957.928,695.354C953.006,672.666 945.319,645.245 939.881,625.651C938.522,620.823 934.538,617.166 929.569,616.182C924.647,615.198 919.585,617.166 916.538,621.151C904.069,637.276 886.772,659.776 872.663,678.198C869.288,682.557 869.007,688.51 871.82,693.151C874.679,697.838 880.07,700.323 885.508,699.338C887.523,699.057 889.586,698.87 891.648,698.729L891.646,698.726ZM657.276,332.356C650.151,339.528 648.042,350.262 651.885,359.59C655.729,368.965 664.916,375.012 674.994,375.012L794.104,375.012L878.526,417.246L900.745,506.121C903.558,517.23 913.542,525.012 924.979,525.012L980.479,525.012L1000.73,606.106C1003.17,615.715 1011,622.981 1020.75,624.668C1030.5,626.355 1040.29,622.09 1045.78,613.934L1095.79,538.934C1098.56,534.809 1100.01,529.981 1100.01,525.012L1100.01,275.032C1100.01,265.235 1094.25,256.329 1085.29,252.251C1085.29,252.251 1032.09,228.204 993.98,213.204C974.714,205.657 958.496,200.688 952.168,200.126C934.215,198.626 699.848,200.032 699.848,200.032C691.833,200.079 684.332,203.97 679.645,210.485C675.005,217.001 673.739,225.344 676.317,232.985L696.426,293.266L657.285,332.36L657.276,332.356ZM524.386,349.372C503.48,386.356 484.355,430.466 479.292,472.562C477.933,483.953 486.089,494.359 497.48,495.718C508.964,497.077 519.277,488.921 520.683,477.53C524.996,441.671 541.449,404.358 559.214,372.53C560.808,374.171 562.308,375.858 563.761,377.593C566.526,381.718 571.542,383.686 576.417,382.561C581.245,381.436 584.901,377.405 585.557,372.53C590.104,349.655 594.042,321.577 596.854,301.421C597.558,296.406 595.401,291.484 591.229,288.577C587.104,285.718 581.667,285.484 577.26,287.921C559.448,297.718 534.557,311.405 514.213,322.655C509.432,325.327 506.76,330.671 507.51,336.061C508.26,341.499 512.245,345.905 517.541,347.217C519.838,347.826 522.135,348.576 524.385,349.373L524.386,349.372ZM529.917,225.532L404.897,200.501C402.178,199.985 399.507,199.939 396.741,200.267L206.661,225.017L149.989,225.017C136.208,225.017 125.005,236.22 125.005,250.001C125.005,263.829 136.208,275.032 149.989,275.032L208.301,275.032C209.332,275.032 210.457,274.985 211.488,274.797L399.128,250.375L520.068,274.563C533.663,277.282 546.788,268.469 549.507,254.922C552.178,241.422 543.46,228.203 529.912,225.531L529.917,225.532Z"/>
    </g>
</svg>
