<!-- Generated by IcoMoon.io -->
<svg version="1.1" xmlns="http://www.w3.org/2000/svg" width="32" height="32" viewBox="0 0 32 32">
<path d="M22.465 14.5c2.701 1.523 6.254-0.555 6.2-3.648 0-2.006-1.445-3.684-3.365-4.068 1.972-4.228-3.444-7.948-6.741-4.704-3.296-3.244-8.712 0.477-6.741 4.699-2.362 0.424-3.964 3.028-3.163 5.341 0.32-0.701 1.040-1.157 1.819-1.157h2.021c0.045 0 0.086 0.010 0.131 0.015 0.071 0 0.142 0.005 0.212 0.020 0.066 0.010 0.126 0.025 0.187 0.045 0.066 0.015 0.126 0.035 0.192 0.056 0.061 0.025 0.121 0.056 0.182 0.086 0.056 0.030 0.111 0.056 0.167 0.091 0.061 0.040 0.121 0.086 0.177 0.131 0.035 0.025 0.071 0.046 0.106 0.076 0.010 0.010 0.020 0.025 0.030 0.035 0.056 0.051 0.101 0.106 0.152 0.162 0.035 0.051 0.081 0.091 0.111 0.141 0.040 0.056 0.071 0.116 0.106 0.172 0.030 0.056 0.066 0.111 0.091 0.167 0.025 0.061 0.046 0.121 0.066 0.182 0.020 0.066 0.040 0.126 0.056 0.192 0.015 0.061 0.020 0.121 0.030 0.182 0.033 0.168 0.025 0.501 0.025 0.677 0.116-0.081 0.225-0.172 0.328-0.269-0.025 0.024-0.049 0.050-0.076 0.072-0.081 0.071-0.167 0.136-0.253 0.197v1.177c0.046-0.025 0.091-0.045 0.136-0.071 0.258-0.131 0.495-0.298 0.718-0.485 0.44 1.39 0.627 2.951 0.652 4.537 1.29-0.029 2.244 0.528 2.466 1.769 0.269 1.446 0.061 5.777-3.542 6.903-0.328 1.374-0.637 2.425-0.798 2.941h-2.158v-4.050c1.166 0.033 2.705-0.071 3.866-1.18 1.531-1.53 1.151-4.28 1.134-4.396-0.033-0.221-0.206-0.395-0.427-0.427-0.572-0.13-4.098-0.261-5.078 2.116-0.985-2.381-4.513-2.246-5.078-2.115-0.221 0.032-0.395 0.206-0.427 0.427-0.016 0.116-0.397 2.865 1.134 4.396 1.162 1.109 2.698 1.21 3.866 1.18v4.049h-8.59c-0.654 0.010-0.672 0.997 0 1.011h24.254c0.654-0.010 0.671-0.997 0-1.011h-3.673c-0.566-1.814-3.042-10.389-1.223-16.149 0.222 0.187 0.46 0.354 0.718 0.485l0 0zM12.881 21.959c0.879-0.879 2.418-0.917 3.142-0.882 0.133 2.156-0.694 3.963-3.307 4.021l2.147-2.148c0.197-0.197 0.197-0.517 0-0.715-0.197-0.197-0.517-0.197-0.715 0l-2.148 2.148c0.043-0.773 0.234-1.776 0.88-2.424l-0-0zM6.946 21.077c2.159-0.13 3.962 0.691 4.022 3.307l-2.148-2.148c-0.197-0.197-0.517-0.197-0.715 0-0.197 0.197-0.197 0.517 0 0.715l2.148 2.148c-2.617-0.059-3.44-1.871-3.307-4.022l-0 0zM14.931 13.044c-0.015 0.016-0.032 0.029-0.048 0.044 0.104-0.1 0.202-0.207 0.291-0.322-0.061 0.076-0.121 0.152-0.192 0.222-0.015 0.020-0.035 0.040-0.050 0.056zM3.4 18.542c0.139 0 0.277-0.057 0.375-0.167l1.899-2.11 1.899 2.11c0.192 0.213 0.56 0.213 0.752 0l3.666-4.075v0.705c0.011 0.663 0.999 0.664 1.011 0v-2.021c-0.013-0.136-0.063-0.265-0.159-0.365-0.095-0.086-0.22-0.126-0.346-0.14h-2.021c-0.663 0.011-0.664 0.999 0 1.011h0.887l-3.413 3.792-1.899-2.11c-0.192-0.213-0.56-0.213-0.752 0l-2.274 2.526c-0.296 0.308-0.044 0.858 0.376 0.844l0 0z"></path>
</svg>
