<!-- Generated by IcoMoon.io -->
<svg version="1.1" xmlns="http://www.w3.org/2000/svg" width="32" height="32" viewBox="0 0 32 32">
<path d="M18.975 12.449c-0.764 0.191-1.054 0.948-0.802 1.56 0.222 0.207 0.519 0.334 0.845 0.334 0.548 0 1.038-0.364 1.19-0.894 0.203-0.708-0.228-0.885-0.266-1.408-0.020-0.278-0.093-0.661-0.437-0.721-0.219 0.275-0.378 0.63-0.354 1.061 0.006 0.114 0.025 0.233 0.059 0.356l-0.147 0.066c-0.052-0.152-0.082-0.271-0.088-0.353zM23.933 14.654c-0.24-0.292-0.605-0.478-1.011-0.478-0.723 0-1.308 0.588-1.308 1.312 0 0.214 0.046 0.314-0.044 0.553-0.080 0.212-0.238 0.395-0.438 0.505 0.42 0 0.842 0 1.262 0-0.387-0.195-0.653-0.595-0.653-1.058 0-0.654 0.53-1.183 1.181-1.183 0.374 0 0.707 0.174 0.923 0.445zM19.587 16.832v-0.018c0-0.147 0.12-0.268 0.269-0.268h0.602c0.297-0.785 0.134-1.882-0.861-2.139 0.498-0.221 0.845-0.722 0.845-1.302 0-0.096-0.009-0.191-0.027-0.281 0.183 0.66 0.669 1.132 1.26 1.438 0.318-0.325 0.759-0.525 1.247-0.525 0.965 0 1.747 0.783 1.747 1.75 0 0.539-0.245 1.024-0.63 1.344-1.484 0-2.967 0-4.451 0zM23.362 12.273c0.413 0.116 0.786 0.313 1.098 0.571 0.59 0.488 0.959 1.193 0.959 1.976 0 0.798-0.383 1.515-0.99 2.004 0.315-0.356 0.506-0.824 0.506-1.336 0-0.776-0.437-1.449-1.077-1.786-0.279-0.147-0.597-0.23-0.935-0.23-0.494 0-0.945 0.177-1.295 0.473-0.462-0.244-0.819-0.661-0.989-1.168-0.069-0.207-0.106-0.43-0.106-0.661 0-1.138 0.909-2.061 2.029-2.061 0.479 0 0.917 0.168 1.264 0.448-0.099-0.039-0.209-0.060-0.323-0.060-0.498 0-0.902 0.412-0.902 0.92 0 0.403 0.254 0.746 0.608 0.87 0.050 0.018 0.102 0.030 0.155 0.039zM2.525 5.73c0 0.072 0.057 0.131 0.131 0.131h0.606c0.073 0 0.131-0.059 0.131-0.131s-0.057-0.131-0.131-0.131h-0.606c-0.073 0-0.131 0.059-0.131 0.131zM6.113 5.6c-0.072 0-0.131 0.059-0.131 0.131s0.059 0.131 0.131 0.131h0.608c0.072 0 0.131-0.059 0.131-0.131s-0.059-0.131-0.131-0.131h-0.608zM5.604 4.814c0.026 0.026 0.058 0.038 0.092 0.038 0.033 0 0.067-0.012 0.091-0.038l0.43-0.429c0.051-0.051 0.051-0.135 0-0.185s-0.133-0.051-0.184 0l-0.429 0.429c-0.051 0.051-0.051 0.133 0 0.184zM6.034 7.261c0.025 0.025 0.059 0.038 0.091 0.038 0.034 0 0.067-0.013 0.093-0.038 0.051-0.052 0.051-0.135 0-0.185l-0.43-0.429c-0.051-0.051-0.133-0.051-0.184 0s-0.051 0.133 0 0.184zM4.557 4.305c0 0.072 0.059 0.131 0.131 0.131 0.073 0 0.131-0.059 0.131-0.131v-0.608c0-0.072-0.057-0.131-0.131-0.131-0.072 0-0.131 0.059-0.131 0.131v0.608zM3.812 5.73c0 0.484 0.394 0.876 0.877 0.876 0.482 0 0.874-0.392 0.874-0.876s-0.392-0.876-0.874-0.876c-0.484 0-0.877 0.392-0.877 0.876zM4.688 7.026c-0.072 0-0.131 0.059-0.131 0.131v0.608c0 0.072 0.059 0.131 0.131 0.131 0.073 0 0.131-0.059 0.131-0.131v-0.608c0-0.072-0.057-0.131-0.131-0.131zM3.587 4.815c0.026 0.026 0.059 0.038 0.093 0.038 0.033 0 0.067-0.012 0.093-0.038 0.051-0.051 0.051-0.133 0-0.184l-0.43-0.43c-0.051-0.051-0.133-0.051-0.184 0s-0.051 0.135 0 0.185zM3.773 6.647c-0.051-0.051-0.135-0.051-0.185 0l-0.429 0.429c-0.051 0.051-0.051 0.135 0 0.185 0.025 0.025 0.059 0.038 0.091 0.038 0.034 0 0.067-0.013 0.093-0.038l0.43-0.43c0.051-0.051 0.051-0.133 0-0.184zM5.828 9.761c0-0.896 0.624-1.67 1.493-1.864 0.312-0.676 0.987-1.109 1.735-1.109 0.728 0 1.391 0.414 1.712 1.062 0.023-0.001 0.046-0.001 0.068-0.001 1.054 0 1.911 0.857 1.911 1.911 0 0.291-0.065 0.579-0.192 0.839 0.395 0.268 0.635 0.716 0.635 1.197 0 0.798-0.65 1.448-1.448 1.448-0.145 0-0.288-0.022-0.425-0.064-0.273 0.353-0.694 0.561-1.144 0.561-0.367 0-0.719-0.14-0.984-0.387-0.267 0.247-0.618 0.387-0.986 0.387-0.45 0-0.869-0.208-1.144-0.561-0.138 0.042-0.279 0.064-0.425 0.064-0.799 0-1.447-0.65-1.447-1.448 0-0.553 0.306-1.046 0.791-1.29-0.1-0.235-0.151-0.484-0.151-0.746zM14.425 16.636c-0.327-0.509-0.509-1.041-0.622-1.561-0.223-0.003-0.443-0.065-0.632-0.18-0.191 0.115-0.41 0.178-0.634 0.18-0.114 0.52-0.293 1.052-0.621 1.561h-0.862c-0.561-0.861-0.845-1.764-1.016-2.639-0.306-0.023-0.597-0.129-0.847-0.306-0.249 0.177-0.542 0.282-0.849 0.306-0.17 0.876-0.453 1.777-1.016 2.639h-0.861c-0.327-0.509-0.509-1.041-0.622-1.561-0.223-0.003-0.443-0.065-0.632-0.18-0.191 0.115-0.41 0.178-0.634 0.18-0.114 0.52-0.293 1.052-0.621 1.561h-0.997c-0.072 0-0.131 0.058-0.131 0.131s0.058 0.131 0.131 0.131h12.461c0.072 0 0.131-0.058 0.131-0.131s-0.058-0.131-0.13-0.131zM15.449 12.681c0.253 0.187 0.408 0.485 0.409 0.804 0 0.552-0.45 1-1 1-0.090 0-0.179-0.012-0.266-0.035-0.189 0.229-0.47 0.364-0.771 0.364-0.241 0-0.47-0.086-0.65-0.241-0.18 0.154-0.41 0.241-0.651 0.241-0.301 0-0.582-0.135-0.771-0.364-0.085 0.023-0.174 0.035-0.264 0.035-0.383 0-0.716-0.217-0.885-0.534 0.31-0.080 0.59-0.243 0.812-0.477 0.11 0.022 0.22 0.033 0.332 0.033 0.942 0 1.709-0.767 1.709-1.709 0-0.493-0.213-0.958-0.578-1.279 0.046-0.122 0.080-0.249 0.102-0.377 0.035-0.004 0.071-0.005 0.106-0.005 0.487 0 0.931 0.272 1.156 0.7h0.018c0.72 0 1.306 0.586 1.306 1.306 0 0.187-0.040 0.371-0.115 0.54zM3.788 14.451c0.189 0.229 0.47 0.364 0.771 0.364 0.241 0 0.47-0.086 0.651-0.241 0.179 0.154 0.409 0.241 0.65 0.241 0.301 0 0.582-0.135 0.771-0.364 0.086 0.023 0.175 0.035 0.265 0.035 0.383 0 0.716-0.217 0.885-0.534-0.31-0.079-0.59-0.242-0.813-0.477-0.11 0.022-0.221 0.033-0.332 0.033-0.942 0-1.708-0.767-1.708-1.709 0-0.57 0.276-1.088 0.733-1.404-0.016-0.053-0.030-0.107-0.043-0.161-0.154-0.064-0.323-0.098-0.496-0.098-0.506 0-0.959 0.286-1.178 0.737-0.583 0.14-0.998 0.664-0.998 1.269 0 0.165 0.030 0.323 0.087 0.472-0.313 0.175-0.509 0.504-0.509 0.873 0 0.552 0.448 1 1 1 0.090 0 0.179-0.012 0.263-0.035zM2.5 17.499c0-0.275 0.225-0.5 0.5-0.5h26c0.275 0 0.5 0.225 0.5 0.5 0 7.72-6.055 14-13.5 14s-13.5-6.28-13.5-14zM6.835 17.999l1.12 0.595c0.88 0.46 1.45 1.45 1.46 2.55l0.030 0.92c0.035 1.52 1.33 2.575 2.6 2.11l0.79-0.29c1.045-0.375 2.15 0.26 2.495 1.425 0.25 0.85 0.045 1.73-0.465 2.32-0.245 0.265-0.55 0.475-0.9 0.585l-1.525 0.475c-0.705 0.225-1.43 0.34-2.155 0.365 1.715 0.92 3.66 1.445 5.72 1.445 1.355 0 2.66-0.23 3.885-0.645 0.31-0.35 0.655-0.655 1.030-0.905 1.2-0.81 1.135-2.8-0.11-3.505l-0.55-0.31c-0.69-0.395-1.070-1.25-0.945-2.11l0.095-0.66c0.14-1.035 0.985-1.77 1.91-1.66l3.15 0.375c0.61 0.070 1.17-0.22 1.535-0.7 0.265-0.365 0.42-0.825 0.41-1.335-0.015-0.38 0.075-0.735 0.23-1.045z"></path>
</svg>
