<?xml version="1.0" encoding="utf-8"?>
<svg version="1.1" viewBox="0 0 1200 1200" xmlns="http://www.w3.org/2000/svg" width="150pt" height="150pt">
  <path fill="#010101" d="M 711.574 466.846 C 711.797 469.945 712.919 474.398 714.888 480.091 L 720.407 477.609 C 719.164 472.992 718.434 468.534 718.211 464.252 C 717.311 448.079 723.275 434.775 731.493 424.459 C 744.379 426.712 747.136 441.086 747.867 451.513 C 749.27 471.128 765.421 477.779 757.826 504.327 C 752.143 524.224 733.738 537.868 713.2 537.868 C 700.991 537.868 689.847 533.134 681.518 525.353 C 672.066 502.41 682.925 474.003 711.574 466.846 Z M 897.495 549.537 C 888.493 538.598 874.819 531.611 859.568 531.611 C 832.442 531.611 810.501 553.648 810.501 580.818 C 810.501 588.826 812.243 592.599 808.866 601.565 C 805.882 609.507 799.922 616.384 792.435 620.5 C 808.189 620.5 824.006 620.5 839.76 620.5 C 825.244 613.173 815.285 598.18 815.285 580.818 C 815.285 556.3 835.146 536.457 859.568 536.457 C 873.585 536.457 886.075 542.997 894.181 553.142 Z M 734.527 631.208 L 734.527 630.535 C 734.527 625.012 739.03 620.5 744.602 620.5 L 767.167 620.5 C 778.311 591.076 772.178 549.931 734.87 540.292 C 753.555 532.005 766.552 513.232 766.552 491.477 C 766.552 487.872 766.213 484.319 765.541 480.938 C 772.4 505.68 790.636 523.383 812.808 534.881 C 824.741 522.706 841.284 515.208 859.568 515.208 C 895.749 515.208 925.075 544.573 925.075 580.818 C 925.075 601.049 915.9 619.199 901.437 631.208 C 845.782 631.208 790.186 631.208 734.527 631.208 Z M 876.062 460.253 C 891.535 464.593 905.544 471.974 917.254 481.673 C 939.364 499.987 953.212 526.423 953.212 555.789 C 953.212 585.726 938.861 612.607 916.069 630.927 C 927.886 617.573 935.03 600.042 935.03 580.818 C 935.03 551.731 918.657 526.482 894.627 513.855 C 884.164 508.333 872.231 505.233 859.568 505.233 C 841.052 505.233 824.117 511.885 811.009 522.989 C 793.673 513.855 780.284 498.187 773.919 479.191 C 771.331 471.41 769.928 463.07 769.928 454.389 C 769.928 411.721 804.025 377.109 846.005 377.109 C 863.955 377.109 880.387 383.426 893.393 393.906 C 889.674 392.442 885.571 391.654 881.286 391.654 C 862.61 391.654 847.47 407.098 847.47 426.147 C 847.47 441.256 856.98 454.107 870.262 458.783 C 872.12 459.459 874.088 459.912 876.062 460.253 Z M 94.671 214.893 C 94.671 212.2 96.843 209.987 99.578 209.987 L 122.315 209.987 C 125.071 209.987 127.221 212.2 127.221 214.893 C 127.221 217.587 125.05 219.8 122.315 219.8 L 99.578 219.8 C 96.821 219.8 94.671 217.587 94.671 214.893 Z M 229.255 209.989 L 252.055 209.989 C 254.748 209.989 256.962 212.203 256.962 214.896 C 256.962 217.59 254.748 219.803 252.055 219.803 L 229.255 219.803 C 226.561 219.803 224.348 217.589 224.348 214.896 C 224.348 212.203 226.562 209.989 229.255 209.989 Z M 210.152 180.531 C 208.231 178.61 208.231 175.54 210.152 173.62 L 226.25 157.522 C 228.171 155.601 231.24 155.601 233.161 157.522 C 235.082 159.422 235.082 162.554 233.161 164.474 L 217.042 180.551 C 216.124 181.532 214.85 181.971 213.618 181.971 C 212.344 181.971 211.133 181.512 210.152 180.531 Z M 210.149 256.17 C 208.228 254.248 208.228 251.179 210.149 249.258 C 212.07 247.338 215.139 247.338 217.06 249.258 L 233.179 265.335 C 235.1 267.235 235.1 270.325 233.179 272.288 C 232.198 273.206 230.966 273.708 229.692 273.708 C 228.481 273.708 227.208 273.227 226.268 272.288 Z M 170.878 161.421 L 170.878 138.621 C 170.878 135.928 173.091 133.715 175.785 133.715 C 178.541 133.715 180.691 135.928 180.691 138.621 L 180.691 161.421 C 180.691 164.115 178.52 166.328 175.785 166.328 C 173.091 166.328 170.878 164.115 170.878 161.421 Z M 142.945 214.89 C 142.945 196.746 157.686 182.048 175.829 182.048 C 193.91 182.048 208.609 196.746 208.609 214.89 C 208.609 233.033 193.91 247.732 175.829 247.732 C 157.707 247.732 142.945 233.033 142.945 214.89 Z M 175.783 263.457 C 178.539 263.457 180.69 265.67 180.69 268.364 L 180.69 291.164 C 180.69 293.857 178.518 296.07 175.783 296.07 C 173.089 296.07 170.876 293.857 170.876 291.164 L 170.876 268.364 C 170.876 265.67 173.089 263.457 175.783 263.457 Z M 118.449 164.448 C 116.528 162.548 116.528 159.416 118.449 157.495 C 120.37 155.575 123.439 155.575 125.36 157.495 L 141.499 173.635 C 143.42 175.556 143.42 178.625 141.499 180.546 C 140.518 181.527 139.244 181.965 138.013 181.965 C 136.739 181.965 135.507 181.527 134.526 180.546 Z M 141.479 249.264 C 143.399 251.185 143.399 254.254 141.479 256.175 L 125.36 272.294 C 124.379 273.212 123.147 273.713 121.873 273.713 C 120.662 273.713 119.389 273.233 118.449 272.294 C 116.528 270.394 116.528 267.262 118.449 265.341 L 134.526 249.264 C 136.426 247.343 139.558 247.343 141.479 249.264 Z M 218.565 366.036 C 218.565 332.422 241.949 303.4 274.562 296.155 C 286.277 270.808 311.56 254.586 339.642 254.586 C 366.93 254.586 391.797 270.12 403.844 294.423 C 404.721 294.381 405.556 294.381 406.391 294.381 C 445.933 294.381 478.045 326.532 478.045 366.035 C 478.045 376.954 475.602 387.749 470.842 397.499 C 485.645 407.542 494.664 424.349 494.664 442.388 C 494.664 472.328 470.3 496.693 440.359 496.693 C 434.91 496.693 429.565 495.858 424.429 494.292 C 414.177 507.529 398.393 515.317 381.544 515.317 C 367.764 515.317 354.589 510.076 344.63 500.806 C 334.629 510.076 321.454 515.317 307.674 515.317 C 290.804 515.317 275.082 507.529 264.789 494.292 C 259.632 495.858 254.308 496.693 248.859 496.693 C 218.901 496.693 194.598 472.329 194.598 442.388 C 194.598 421.655 206.06 403.177 224.246 394.012 C 220.488 385.201 218.567 375.847 218.567 366.034 Z M 578.269 623.867 C 580.963 623.867 583.155 626.059 583.155 628.774 C 583.155 631.488 580.963 633.681 578.248 633.681 L 110.963 633.681 C 108.249 633.681 106.057 631.488 106.057 628.774 C 106.057 626.059 108.249 623.867 110.963 623.867 L 148.357 623.867 C 160.634 604.762 167.378 584.823 171.637 565.322 C 180.01 565.217 188.236 562.879 195.398 558.557 C 202.497 562.879 210.743 565.217 219.116 565.322 C 223.375 584.824 230.182 604.784 242.458 623.867 L 274.737 623.867 C 295.825 591.548 306.452 557.743 312.82 524.9 C 324.304 524.024 335.286 520.057 344.64 513.438 C 353.993 520.057 364.934 524.023 376.396 524.9 C 382.806 557.723 393.434 591.588 414.479 623.867 L 446.821 623.867 C 459.098 604.762 465.841 584.823 470.101 565.322 C 478.473 565.217 486.699 562.879 493.861 558.557 C 500.96 562.879 509.207 565.217 517.579 565.322 C 521.838 584.824 528.645 604.784 540.922 623.867 Z M 579.325 475.546 C 588.825 482.541 594.608 493.732 594.671 505.696 C 594.671 526.387 577.801 543.194 557.173 543.194 C 553.79 543.194 550.45 542.756 547.213 541.879 C 540.114 550.46 529.571 555.513 518.296 555.513 C 509.277 555.513 500.654 552.276 493.931 546.493 C 487.166 552.276 478.543 555.513 469.523 555.513 C 458.249 555.513 447.705 550.46 440.606 541.879 C 437.432 542.756 434.092 543.194 430.709 543.194 C 416.345 543.194 403.859 535.052 397.533 523.151 C 409.163 520.165 419.644 514.027 427.975 505.257 C 432.088 506.092 436.243 506.489 440.419 506.489 C 475.743 506.489 504.514 477.721 504.514 442.394 C 504.514 423.915 496.517 406.461 482.842 394.414 C 484.554 389.821 485.827 385.06 486.662 380.258 C 487.978 380.112 489.314 380.07 490.629 380.07 C 508.898 380.07 525.559 390.259 533.995 406.336 L 534.684 406.336 C 561.679 406.336 583.644 428.3 583.644 455.296 C 583.644 462.311 582.161 469.222 579.322 475.548 Z M 142.067 541.906 C 138.893 542.783 135.552 543.222 132.191 543.222 C 111.5 543.222 94.692 526.414 94.692 505.723 C 94.692 491.901 102.042 479.562 113.797 472.985 C 111.646 467.411 110.519 461.481 110.519 455.301 C 110.519 432.605 126.094 412.958 147.954 407.717 C 156.139 390.805 173.156 380.074 192.113 380.074 C 198.586 380.074 204.912 381.347 210.696 383.748 C 211.176 385.774 211.719 387.778 212.303 389.782 C 195.141 401.599 184.806 421.037 184.806 442.417 C 184.806 477.741 213.534 506.512 248.861 506.512 C 253.016 506.512 257.192 506.116 261.305 505.28 C 269.678 514.112 280.18 520.23 291.789 523.174 C 285.462 535.075 272.977 543.217 258.612 543.217 C 255.251 543.217 251.91 542.779 248.674 541.902 C 241.575 550.483 231.031 555.536 219.757 555.536 C 210.737 555.536 202.114 552.299 195.391 546.516 C 188.626 552.299 180.004 555.536 170.984 555.536 C 159.709 555.536 149.166 550.483 142.067 541.902 Z M 93.75 656.2 C 93.75 645.887 102.188 637.45 112.5 637.45 L 1087.5 637.45 C 1097.812 637.45 1106.25 645.888 1106.25 656.2 C 1106.25 945.7 879.19 1181.2 600 1181.2 C 320.81 1181.2 93.75 945.7 93.75 656.2 Z M 256.32 674.953 L 298.32 697.265 C 331.32 714.515 352.695 751.64 353.07 792.89 L 354.195 827.39 C 355.507 884.39 404.07 923.953 451.695 906.515 L 481.32 895.64 C 520.506 881.578 561.944 905.39 574.882 949.078 C 584.256 980.953 576.569 1013.953 557.444 1036.078 C 548.256 1046.016 536.819 1053.891 523.694 1058.016 L 466.506 1075.828 C 440.069 1084.266 412.882 1088.578 385.694 1089.516 C 450.004 1124.016 522.944 1143.704 600.194 1143.704 C 651.008 1143.704 699.945 1135.078 745.883 1119.516 C 757.508 1106.39 770.446 1094.953 784.508 1085.578 C 829.508 1055.198 827.071 980.576 780.383 954.138 L 759.758 942.513 C 733.883 927.7 719.633 895.638 724.32 863.388 L 727.883 838.638 C 733.133 799.826 764.82 772.263 799.508 776.388 L 917.628 790.45 C 940.502 793.075 961.502 782.2 975.19 764.2 C 985.127 750.513 990.94 733.263 990.565 714.138 C 990.002 699.888 993.377 686.575 999.19 674.95 Z" fill-opacity="1" fill-rule="evenodd"/>
</svg>