<?xml version="1.0" encoding="UTF-8" standalone="no"?>
<!DOCTYPE svg PUBLIC "-//W3C//DTD SVG 1.1//EN" "http://www.w3.org/Graphics/SVG/1.1/DTD/svg11.dtd">
<svg width="100%" height="100%" viewBox="0 0 150 150" version="1.1" xmlns="http://www.w3.org/2000/svg" xmlns:xlink="http://www.w3.org/1999/xlink" xml:space="preserve" xmlns:serif="http://www.serif.com/" style="fill-rule:evenodd;clip-rule:evenodd;stroke-linejoin:round;stroke-miterlimit:2;">
    <g transform="matrix(0.15851,0,0,0.163037,-39.4763,-0.757997)">
        <path d="M1018.13,419.211C1012.75,419.211 1008.08,416.498 1005.41,411.798C957.894,327.587 882.475,220.238 896.135,129.623C906.404,61.288 961.472,20.144 1018.13,19.928C1074.76,20.144 1129.86,61.288 1140.13,129.623C1153.76,220.238 1078.3,327.587 1030.86,411.798C1028.19,416.498 1023.56,419.211 1018.13,419.211ZM1078.88,150.264C1078.88,116.64 1051.69,89.45 1018.13,89.45C984.58,89.45 957.388,116.64 957.388,150.264C957.388,183.893 984.58,211.012 1018.13,211.012C1051.69,211.012 1078.88,183.822 1078.88,150.264ZM277.079,883.327C277.079,860.513 311.829,841.927 354.439,841.927C386.729,841.927 414.519,852.593 426.069,867.707C526.558,867.78 629.178,862.862 689.235,839.902C748.898,817.123 755.144,769.145 638.83,672.965C612.943,651.524 597.498,630.262 590.558,609.58C586.228,596.635 585.168,584.161 586.908,572.193C566.048,564.78 552.228,552.053 552.228,537.698C552.228,514.884 587.018,496.298 629.648,496.298C633.697,496.298 637.675,496.479 641.544,496.806C651.704,489.68 662.986,482.993 675.172,476.772C729.081,449.329 801.976,430.635 870.279,423.729C873.279,403.952 907.268,387.03 955.684,378.713C965.156,394.731 974.341,410.135 982.512,424.668C989.851,437.65 1003.27,445.497 1018.16,445.497C1033.06,445.497 1046.44,437.65 1053.74,424.668C1062.24,409.592 1071.75,393.647 1081.58,377.014C1138.13,384.896 1178.05,404.132 1178.05,426.586C1178.05,456.127 1109.06,480.063 1024.06,480.063C973.872,480.063 929.287,471.746 901.195,458.84C830.143,462.526 749.444,481.04 692.17,510.218C691.302,510.687 690.435,511.122 689.569,511.591C700.45,518.715 707.032,527.826 707.032,537.734C707.032,560.55 672.251,579.134 629.656,579.134C627.741,579.134 625.859,579.099 623.98,579.025C623.293,585.136 623.907,591.356 626.039,597.756C630.776,611.856 642.492,627.332 662.74,644.073C816.451,771.231 796.881,838.92 702.513,874.933C636.199,900.243 526.168,905.306 420.189,905.053C406.489,916.803 382.119,924.687 354.429,924.687C311.809,924.687 277.049,906.1 277.049,883.321L277.079,883.327Z" style="fill-rule:nonzero;"/>
    </g>
    <g transform="matrix(-0.330884,0,0,0.330884,24.8163,112.325)">
        <g transform="matrix(1,0,0,1,-75,-75)">
            <g transform="matrix(0.145033,0,0,0.130435,-64.2958,-22.0691)">
                <path d="M1387.9,616.534C1384.59,624.144 1377.8,629.763 1371.29,630.332C1370.97,630.332 1370.58,630.403 1370.22,630.403C1365.85,630.403 1361.87,628.091 1359.24,624.002C1353.9,615.539 1359.34,600.746 1367.41,594.879C1373.64,590.398 1381.11,591.572 1386.23,597.972C1390.21,602.951 1390.85,609.671 1387.9,616.534ZM1364.78,677.128C1361.09,680.684 1356.07,682.604 1351.2,682.604C1348.82,682.604 1346.51,682.213 1344.37,681.36C1336.87,678.444 1332.35,671.296 1332.82,662.833C1333.21,653.979 1338.86,646.44 1346.9,644.164C1355.08,641.888 1363.15,645.267 1367.59,652.948C1372.25,661.02 1371.15,671.083 1364.78,677.128ZM1337.9,723.498C1333.78,727.232 1328.73,728.725 1323.71,728.725C1318.09,728.725 1312.55,726.805 1308.46,723.818C1300.78,718.235 1298.39,709.523 1302.27,701.202C1305.29,694.552 1312.51,689.254 1320.55,687.832C1327.77,686.48 1334.49,688.365 1339.07,692.988C1342.84,696.828 1344.94,702.126 1344.76,707.923C1344.66,714.003 1342.17,719.693 1337.9,723.498ZM1309.63,748.603C1307.99,756.355 1301.49,762.791 1293.52,764.534C1291.99,764.925 1290.39,765.103 1288.83,765.103C1282.75,765.103 1276.49,762.578 1272.15,757.955C1267.49,753.19 1264.93,746.114 1265.39,739.144C1265.96,730.219 1270.23,723.427 1276.99,720.582C1284.38,717.382 1293.74,719.586 1301.35,725.951C1308.14,731.748 1311.37,740.566 1309.63,748.603ZM1258.67,773.957C1257.18,781.922 1250.92,788.928 1243.1,791.31C1241.11,791.843 1239.05,792.163 1236.91,792.163C1230.9,792.163 1224.82,789.71 1220.63,785.336C1217.28,781.887 1215.08,777.371 1214.19,772.215C1212.45,761.902 1217.21,749.919 1225.35,744.442C1233.5,738.931 1243.31,741.811 1252.17,752.23C1257.57,758.631 1260.03,766.703 1258.67,773.957ZM1212.62,823.563C1211.45,824.772 1209.46,825.554 1207.79,825.554C1207.58,825.554 1207.33,825.483 1207.08,825.483C1202.06,824.807 1195.77,823.954 1190.47,820.327C1185.46,817.02 1182.01,811.543 1180.76,805.392C1179.16,796.964 1183.43,783.629 1191.39,778.935C1196.44,775.984 1202.35,776.659 1207.4,780.855C1213.23,785.834 1215.47,794.617 1216.29,801.124C1216.29,801.231 1217.28,818.904 1212.62,823.563ZM1176.03,833.448C1174.36,840.027 1167.78,845.965 1160.39,847.53C1158.25,847.921 1156.12,848.17 1154.09,848.17C1149.4,848.17 1144.95,847.139 1141.08,845.005C1134.68,841.485 1130.13,835.297 1129.13,828.399C1128.17,821.607 1130.8,815.099 1136.03,811.935C1145.45,806.174 1165.22,813.179 1171.48,818.904C1175.82,822.851 1177.49,828.185 1176.03,833.448ZM1069.11,755.217C1046.03,765.103 1032.52,772.783 1031.45,771.219C1030.38,769.796 1042.44,759.093 1064.87,746.754C1087.28,734.095 1120.1,721.044 1155.37,706.287C1190.68,691.459 1220.7,674.639 1240,659.135C1259.53,643.844 1269.23,631.505 1270.91,632.75C1272.22,633.603 1265.07,648.36 1246.19,666.247C1227.49,684.453 1196.62,703.407 1160.71,718.519C1124.79,733.597 1091.93,745.011 1069.11,755.217ZM1124.01,927.112C1121.7,930.277 1118.14,932.019 1113.98,932.126L1113.8,932.126C1108.4,932.126 1103.31,929.53 1099.79,925.05C1096.06,920.32 1094.71,914.133 1096.13,908.586C1097.2,904.496 1099.54,900.905 1102.92,898.736C1106.8,896.104 1111.88,895.535 1116.01,897.207C1119.99,898.771 1123.12,902.256 1124.68,906.879C1125.43,909.012 1128.88,920 1124.01,927.112ZM1086.92,860.225C1084.18,857.202 1082.83,853.397 1083.19,849.272C1083.54,842.16 1088.73,834.337 1098.55,825.874C1100.22,824.345 1102.82,824.025 1104.91,825.092C1112.45,828.612 1118.64,834.799 1122.34,842.267C1124.97,847.53 1125.57,852.366 1124.08,856.704C1122.16,862.251 1117.57,865.95 1111.17,867.301C1109.51,867.631 1107.82,867.798 1106.12,867.799C1098.83,867.799 1091.15,864.918 1086.92,860.225ZM1065.05,930.028C1063.38,930.49 1061.71,930.775 1060.07,930.775C1055.73,930.775 1051.5,929.032 1048.16,925.725C1042.83,920.214 1040.59,911.359 1042.72,904.283C1044.57,898.487 1049.05,894.468 1055.06,893.224C1065.9,891.197 1074.15,899.731 1076.43,908.835C1078.81,918.649 1074.15,927.361 1065.05,930.028ZM1053.82,980.345C1050.47,986.355 1044.64,989.697 1037.56,989.697L1036.64,989.697C1025.55,989.199 1017.4,980.736 1016.87,969.037C1016.34,959.009 1022.24,947.986 1034.43,946.314C1041.55,945.319 1048.13,948.235 1052.32,954.351C1057.48,961.747 1058.08,972.7 1053.82,980.345ZM1014.2,875.16C1009.51,875.16 1004.67,873.062 1000.87,869.257C996.422,864.918 994.11,858.98 994.679,853.397C995.248,848.561 997.879,844.863 1002.04,842.765C1008.19,839.849 1016.62,841.698 1021.67,844.898C1027.86,848.952 1031.16,855.78 1030.1,862.18C1028.96,868.794 1023.09,874.2 1016.12,875.053C1015.52,875.053 1014.88,875.16 1014.2,875.16ZM1008.69,962.067C1001.19,983.368 986.429,998.409 974.375,1005.98C962.142,1013.74 953.217,1015.02 952.612,1013.49C951.83,1011.6 959.119,1007.34 968.578,998.445C978.144,989.875 989.701,975.829 996.137,957.658C1002.54,939.451 1002.32,921.352 1000.4,908.586C998.484,895.784 995.568,887.89 997.311,886.93C998.733,886.041 1004.96,892.726 1009.54,906.417C1014.17,919.822 1016.23,940.874 1008.69,962.067ZM1274.36,457.974C1275.78,457.014 1282.07,463.379 1289.04,475.754C1296.05,488.164 1303.02,507.082 1305.43,528.809C1307.85,550.607 1305.15,570.52 1300.99,584.211C1297.01,597.901 1292.24,605.404 1290.64,604.8C1286.87,603.626 1297.01,570.84 1292.17,530.267C1287.97,489.693 1270.91,460.001 1274.36,457.974ZM939.455,950.582C935.152,955.809 927.578,959.294 919.897,959.294C915.559,959.294 911.114,958.191 907.345,955.56C899.237,950.084 898.846,943.327 899.344,939.771C900.304,932.446 906.705,925.725 915.168,922.738C923.382,919.929 931.632,921.494 937.25,926.934C944.504,934.153 945.358,943.399 939.455,950.582ZM819.512,934.615C806.995,950.688 786.584,960.645 766.137,960.645L765.746,960.645C756.181,960.574 746.615,958.44 737.974,954.386C716.958,944.679 701.846,923.485 699.605,900.371C697.365,878.004 707.393,855.068 725.137,841.307C727.2,839.244 729.44,837.431 731.858,835.831C732.996,835.013 734.276,834.728 735.627,834.622C743.024,830.852 751.131,828.47 759.417,827.688C740.997,826.656 724.07,831.492 712.336,836.364C698.894,841.982 691.142,847.316 689.898,845.787C688.653,844.507 694.449,836.364 707.962,828.008C721.368,819.758 743.379,811.686 768.378,815.099C780.788,816.771 792.345,821.322 801.235,828.008C810.089,834.586 816.099,842.729 819.619,850.055C820.508,851.868 821.219,853.61 821.859,855.353C826.233,861.576 829.54,868.474 831.496,876.084C836.652,895.926 832.065,918.4 819.512,934.615ZM784.095,977.571C769.16,981.91 745.513,982.23 723.573,970.282C701.739,958.191 689.4,938.029 685.061,923.094C680.545,907.803 682.43,897.918 683.995,897.918C686.093,897.776 687.657,906.914 693.845,919.609C699.819,932.162 711.696,948.448 730.009,958.618C748.429,968.646 768.449,969.997 782.317,968.326C796.399,966.726 804.933,963.205 805.857,965.019C806.782,966.334 799.386,973.198 784.095,977.571ZM562.132,927.503C554.38,921.956 553.384,913.422 556.691,911.928C559.998,910.221 564.941,913.28 569.884,916.693C574.755,920.214 579.129,923.876 578.703,927.575C578.347,931.237 569.991,933.015 562.132,927.503ZM1420.11,455.627C1415.07,447.555 1406.49,440.657 1397.21,434.256C1402.3,447.84 1404.89,460.57 1406.42,470.456C1408.66,484.928 1408.66,494.032 1406.92,494.458C1405.07,494.849 1401.77,486.28 1397.21,472.625C1392.73,459.005 1387.12,440.088 1376.91,421.668C1376.59,421.099 1376.27,420.601 1375.95,420.103C1374.6,419.214 1373.28,418.361 1372.04,417.401C1333.92,390.34 1293.02,362.248 1247.58,342.263C1209.71,325.479 1180.9,316.838 1151.46,313.353C1144.88,312.571 1138.34,312.002 1131.76,311.504L1117,310.153C1115.44,310.366 1113.8,310.366 1112.06,309.975C1111.28,309.762 1110.39,309.477 1109.54,309.264C1104.91,308.695 1100.33,308.019 1095.74,307.13C1094.57,307.059 1093.46,306.881 1092.26,306.846C1048.7,292.905 913.425,315.318 874.772,333.942C871.003,334.973 867.198,336.076 863.571,337.178C816.028,363.741 761.728,378.569 707.18,379.956C706.788,379.956 706.397,380.027 706.006,380.027C688.368,381.699 663.335,380.916 637.092,373.733C623.97,370.106 611.666,365.732 601.07,359.83C590.402,354.033 581.761,346.566 576.213,339.063C570.595,331.631 568.05,324.353 566.968,319.292C565.106,310.579 580.126,285.611 585.317,285.403C589.442,281.065 597.371,277.296 607.008,275.411C626.104,271.926 651.955,269.081 680.901,267.872C714.967,266.557 745.051,268.228 764.075,270.468C807.28,271.926 884.198,300.83 925.731,312.636C954.382,299.795 1020.03,297.884 1045.85,291.804C1052.96,290.168 771.578,184.272 661.841,195.757C624.93,199.633 595.771,206.283 570.275,216.631C539.907,228.899 509.219,242.981 496.204,267.446C479.029,299.698 473.268,337.178 479.918,373.022C484.256,396.42 494.071,419.214 508.33,438.843C515.691,449.013 523.692,457.867 532.155,465.335C540.547,472.731 553.775,477.674 564.265,481.621C592.784,492.147 625.855,497.979 668.171,499.899C749.993,503.455 834.163,491.436 911.683,465.05C915.559,462.063 919.613,458.614 923.382,454.56C928.645,449.44 932.912,444.07 936.504,439.056C937.464,435.074 938.815,431.091 940.557,427.286C945.145,417.009 952.363,407.586 961.182,399.905C979.104,384.33 1001.75,378.072 1021.17,377.609C1031.73,377.289 1041.58,378.392 1050.47,380.312C1051.18,380.134 1051.75,380.027 1052.46,379.921C1059.65,378.392 1067.9,376.543 1077.21,376.258C1095.92,375.654 1112.13,382.054 1121.84,388.775C1131.76,395.46 1135.78,401.861 1134.61,403.141C1133.33,404.67 1127.32,401.008 1117.47,397.025C1107.69,393.113 1093.78,389.237 1078.24,389.629C1088.16,394.216 1095.74,399.23 1100.72,403.319C1106.9,408.368 1109.61,412.067 1108.83,413.027C1107.22,415.445 1092.72,405.915 1067.26,399.123C1054.53,395.851 1038.95,393.433 1022.13,394.785C1005.35,396.136 987.567,401.719 973.486,413.987C966.445,420.103 960.791,427.357 957.093,435.038C955.279,438.914 953.963,442.719 952.897,446.88C951.865,451.076 951.012,455.734 949.803,460.57C948.558,465.406 946.816,470.456 944.149,475.149C941.446,479.63 938.282,483.186 935.437,486.28C930.209,491.756 926.013,495.916 922.706,500.361C921.248,505.34 920.68,511.811 921,520.168L921.177,522.408C921.746,537.308 922.422,554.163 912.359,568.209C910.566,570.751 846.053,626.481 859.274,627.775C873.18,629.136 883.316,611.353 919.721,600.32C928.891,597.541 871.345,700.952 880.357,698.559C899.717,693.418 925.241,630.512 953.401,612.413C962.013,606.878 943.925,695.821 952.092,691.328C967.077,683.083 967.782,646 984.142,619.543C991.132,608.239 1004.3,703.209 1012.81,695.222C1019.99,688.49 1009.8,645.893 1013.82,616.251C1015.19,606.145 1041.07,666.67 1048.58,668.848C1059.69,672.066 1039.82,582.487 1036,567.818C1021.67,544.42 1017.65,521.164 1024.12,498.725C1024.92,496.039 1026.67,493.729 1029.03,492.218C1026.72,490.547 1024.69,488.804 1022.84,487.062C1012.64,476.998 1010.75,468.002 1012.25,467.362C1013.99,466.402 1018.65,473.087 1028.85,479.701C1038.84,486.493 1054.88,492.787 1073.41,493.32C1092.22,493.889 1109.43,490.084 1122.13,487.631C1134.86,485.035 1143,483.897 1143.6,485.639C1144.17,487.382 1137.13,491.649 1124.79,496.663C1123.51,497.125 1122.16,497.659 1120.85,498.156C1122.34,499.508 1123.62,501.143 1124.29,503.17C1128.74,516.683 1143.39,526.391 1157.4,525.324C1158.64,525.288 1159.82,525.324 1160.96,525.68C1162.7,521.057 1164.58,516.968 1166.64,513.732C1171.77,505.304 1176.6,501.25 1178.06,502.246C1180.66,503.953 1174.4,517.145 1170.7,535.956C1179.7,558.323 1185.39,592.105 1173.12,619.415C1162.06,644.307 1138.16,665.465 1120.2,678.835C1094.25,697.966 1064.94,711.479 1036.71,724.671L1018.58,733.099C986.927,748.176 951.154,766.454 927.436,793.586C927.009,793.977 926.618,794.333 926.227,794.617C930.387,796.573 934.37,799.275 938.033,802.511C949.305,812.895 954.497,825.305 957.27,833.946C959.937,842.729 960.4,848.312 958.764,849.13C957.021,849.841 953.465,845.29 948.736,837.893C943.971,830.603 937.961,820.504 929.036,812.397C924.413,808.094 919.435,805.107 914.599,803.258C913.674,804.716 912.714,806.245 911.434,807.739C911.185,808.094 910.901,808.201 910.652,808.521C911.861,809.41 913.034,810.121 914.137,811.046C929.143,822.994 940.273,836.542 946.602,847.21C953.039,857.913 955.172,865.381 953.714,866.27C950.301,868.261 933.908,843.512 905.922,821.5C899.522,816.38 893.085,811.935 887.076,807.987C811.476,784.411 727.591,782.847 660.454,804.04C659.245,804.432 658.072,804.503 656.969,804.609C654.053,806.387 651.244,808.379 648.862,810.441C644.595,814.139 640.79,818.015 637.269,821.216C630.193,827.616 624.361,830.212 623.223,828.79C622.121,827.261 618.565,838.818 618.423,840.525C618.423,842.48 610.742,843.334 599.825,847.352C594.349,849.486 588.09,852.366 581.939,856.633C575.609,860.722 570.133,866.448 563.412,873.488C560.105,876.902 556.513,880.387 552.531,883.303C548.619,886.219 544.672,888.494 541.045,890.486L527.07,897.918C521.772,905.954 519.887,912.426 520.669,919.218C522.625,935.647 532.546,951.293 546.592,959.934C554.238,964.77 563.27,967.757 572.835,970.957L578.845,972.984C585.743,974.264 592.998,975.118 600.856,975.438C618.849,976.22 639.047,974.655 660.881,974.94C682.892,975.296 703.41,978.709 721.652,981.625C739.966,984.612 756.252,987.279 769.978,988.737C797.394,991.831 814.57,989.377 814.89,991.44C815.352,992.898 798.141,998.836 769.409,998.125C755.149,997.911 738.294,996.169 719.839,993.787C701.526,991.511 681.541,988.63 660.668,988.346C648.72,988.168 636.807,988.417 625.357,988.524C636.7,992.115 648.151,995.529 659.636,998.303C690.893,1005.91 723.786,1009.04 755.718,1012.03L779.117,1014.45C789.82,1015.51 800.488,1017.04 810.943,1018.54C815.85,1018.39 821.077,1018.32 826.695,1018.32L859.517,1018.22C870.932,1017.93 881.457,1016.76 890.561,1014.06C899.593,1011.42 907.167,1007.37 912.892,1003.21C924.413,994.64 928.147,985.714 930.032,986.426C930.885,986.675 931.063,989.377 929.712,993.787C928.325,998.125 924.982,1004.31 919.044,1010.25C913.212,1016.26 904.784,1021.95 894.365,1025.72C886.116,1028.74 876.834,1030.45 867.269,1031.23C870.612,1032.62 873.954,1034.22 877.19,1035.71C881.671,1037.84 886.116,1039.98 890.703,1041.79C900.766,1045.91 911.043,1046.88 921.96,1047.91C927.898,1048.48 934.085,1049.19 940.486,1050.25C943.9,1049.47 947.278,1048.48 950.87,1047.27C977.504,1038.7 993.506,1021.06 996.599,1023.44C997.951,1024.47 995.71,1030.55 988.847,1038.3C984.794,1042.89 979.033,1047.91 971.743,1052.17C982.838,1051.43 993.114,1049.58 1001.26,1047.52L1010.47,1045.03C1019.32,1042.5 1028.57,1039.98 1038.52,1039.27C1043.4,1038.98 1046.99,1038.8 1050.19,1039.02C1049.05,1034.82 1048.34,1030.84 1048.16,1027.25C1047.48,1016.01 1050.08,1009.4 1051.82,1009.5C1053.71,1009.68 1054.6,1016.19 1057.51,1025.68C1059.11,1031.23 1061.78,1037.84 1065.62,1044.64C1066.62,1045.38 1067.75,1045.99 1069,1046.88L1072.23,1049.01C1086.42,1058.33 1099.79,1067.21 1115.37,1072.19C1133.11,1077.88 1151.78,1087.59 1172.65,1102.06C1194.98,1122.67 1229.8,1158.37 1233.17,1201.23C1235.97,1236.8 1204.21,1264.58 1210.86,1278.02C1212.38,1281.09 1256.6,1229.55 1260.19,1230.22C1263.62,1230.86 1245.14,1293.33 1248.52,1293.5C1251.74,1293.66 1281.54,1233.19 1284.4,1232.9C1288.08,1232.54 1296.51,1289.85 1299.03,1288.7C1302.08,1287.31 1301.65,1258.34 1300.46,1238.55C1300.25,1234.99 1328.98,1284.78 1331.12,1283.35C1339.55,1277.74 1323.26,1245.77 1305.98,1215.19C1304.12,1211.9 1364.41,1268.9 1367.71,1267.8C1377.96,1264.35 1316.57,1207.9 1300.62,1196.91C1285.76,1186.65 1277.38,1165.69 1274.96,1159.24L1263.44,1128.56C1255.94,1108.78 1249.5,1092.43 1241.11,1076.64C1234.32,1063.8 1225.18,1046.55 1214.01,1039.58C1212.16,1038.41 1209.46,1037.63 1206.29,1036.74L1200.78,1035C1193.81,1032.62 1187.48,1029.38 1181.37,1026.21C1179.41,1025.18 1177.42,1024.08 1175.36,1023.16C1160.14,1015.51 1143,1006.98 1128.74,993.573L1121.7,991.155C1100.22,984.47 1081.34,985.039 1080.7,981.234C1080.38,979.492 1085.07,976.967 1093.36,975.687C1097.41,975.047 1102.35,974.833 1107.76,975.224C1094.25,967.864 1082.94,964.201 1083.22,961.036C1083.51,959.294 1088.2,958.049 1095.85,958.831C1101.18,959.4 1108.01,961.178 1115.15,964.45C1115.55,961.747 1116.22,959.009 1117.57,955.916C1122.34,944.963 1131.37,937.318 1140.47,930.49L1156.9,918.329C1153.91,915.058 1151.53,911.182 1150.25,906.914C1148.26,900.514 1149.15,894.291 1152.56,889.846C1155.73,885.65 1161.17,883.232 1167.46,883.125C1173.79,883.125 1180.76,885.472 1185.63,889.846C1187.09,891.09 1188.34,892.619 1189.44,894.113L1225.07,867.692L1266.21,837.146C1275.53,830.212 1283.49,821.82 1291.85,812.966C1297.22,807.205 1302.73,801.231 1308.95,795.613C1325.95,779.789 1342.17,762.756 1357.03,744.727C1384.77,711.159 1408.17,674.39 1426.66,635.381C1429.82,628.838 1432.7,622.188 1435.48,615.681L1439.07,600.995L1442.27,588.585L1442.27,584.815C1442.34,577.632 1442.66,570.52 1443.02,563.48C1443.8,544.74 1444.47,527.031 1441.17,508.718C1437.82,489.764 1431.1,472.909 1420.11,455.627" style="fill-rule:nonzero;"/>
            </g>
            <g transform="matrix(2.92473,0,0,1.15915,-87.0017,-11.3676)">
                <path d="M45.784,84.669C47.197,84.669 48.343,87.567 48.343,91.136C48.343,94.705 47.197,97.602 45.784,97.602C44.372,97.602 43.226,94.705 43.226,91.136C43.226,87.567 44.372,84.669 45.784,84.669ZM45.784,86.018C45.524,86.018 45.313,88.311 45.313,91.136C45.313,93.96 45.524,96.253 45.784,96.253C46.045,96.253 46.256,93.96 46.256,91.136C46.256,88.311 46.045,86.018 45.784,86.018Z"/>
            </g>
        </g>
    </g>
</svg>
