<!-- Generated by IcoMoon.io -->
<svg version="1.1" xmlns="http://www.w3.org/2000/svg" width="32" height="32" viewBox="0 0 32 32">
<path d="M26.007 14.419c-0.182 0-0.34-0.094-0.43-0.258-1.607-2.929-4.157-6.663-3.695-9.814 0.347-2.377 2.209-3.808 4.125-3.815 1.915 0.007 3.778 1.439 4.125 3.815 0.461 3.152-2.091 6.885-3.695 9.814-0.090 0.163-0.247 0.258-0.43 0.258zM28.061 5.065c0-1.169-0.919-2.115-2.054-2.115s-2.054 0.946-2.054 2.115c0 1.17 0.919 2.113 2.054 2.113s2.054-0.946 2.054-2.113zM0.948 30.561c0-0.794 1.175-1.44 2.616-1.44 1.092 0 2.032 0.371 2.422 0.897 3.398 0.003 6.868-0.169 8.899-0.967 2.018-0.792 2.229-2.461-1.704-5.806-0.875-0.746-1.398-1.485-1.632-2.205-0.146-0.45-0.182-0.884-0.123-1.3-0.705-0.258-1.173-0.701-1.173-1.2 0-0.794 1.176-1.44 2.618-1.44 0.137 0 0.271 0.006 0.402 0.018 0.344-0.248 0.725-0.48 1.137-0.697 1.823-0.954 4.288-1.605 6.598-1.845 0.101-0.688 1.251-1.276 2.888-1.566 0.32 0.557 0.631 1.093 0.907 1.598 0.248 0.452 0.702 0.724 1.205 0.724s0.956-0.273 1.203-0.724c0.287-0.524 0.609-1.079 0.941-1.657 1.912 0.274 3.262 0.943 3.262 1.724 0 1.027-2.333 1.86-5.207 1.86-1.697 0-3.205-0.289-4.155-0.738-2.403 0.128-5.132 0.772-7.068 1.787-0.029 0.016-0.059 0.031-0.088 0.048 0.368 0.248 0.591 0.565 0.591 0.909 0 0.794-1.176 1.44-2.617 1.44-0.065 0-0.128-0.001-0.192-0.004-0.023 0.213-0.002 0.429 0.070 0.651 0.16 0.49 0.556 1.029 1.241 1.611 5.198 4.423 4.536 6.777 1.345 8.030-2.242 0.88-5.963 1.056-9.547 1.048-0.463 0.409-1.287 0.683-2.224 0.683-1.441 0-2.617-0.646-2.617-1.439l0.001 0z"></path>
<path d="M0.918 22.787c0.034 0.070 0.103 0.122 0.17 0.127 0.003 0 0.007 0.001 0.011 0.001 0.045 0 0.085-0.021 0.112-0.059 0.055-0.078-0.001-0.214-0.084-0.268-0.064-0.041-0.14-0.030-0.193 0.028-0.041 0.046-0.047 0.108-0.017 0.171zM1.155 23.345c0.038 0.033 0.089 0.050 0.139 0.050 0.024 0 0.048-0.004 0.070-0.011 0.077-0.027 0.123-0.093 0.118-0.171-0.004-0.082-0.062-0.151-0.144-0.172-0.084-0.021-0.166 0.010-0.212 0.081-0.048 0.074-0.036 0.167 0.029 0.223zM1.43 23.772c0.042 0.034 0.094 0.048 0.145 0.048 0.058 0 0.114-0.018 0.156-0.045 0.079-0.051 0.103-0.132 0.063-0.208-0.031-0.061-0.105-0.11-0.187-0.123-0.074-0.012-0.143 0.005-0.19 0.047-0.039 0.035-0.060 0.084-0.058 0.137 0.001 0.056 0.026 0.108 0.070 0.143zM1.719 24.003c0.017 0.071 0.083 0.131 0.165 0.147 0.016 0.004 0.032 0.005 0.048 0.005 0.062 0 0.126-0.023 0.171-0.066 0.048-0.044 0.074-0.109 0.069-0.173-0.006-0.082-0.050-0.145-0.119-0.171-0.076-0.029-0.171-0.009-0.249 0.049-0.070 0.053-0.103 0.135-0.085 0.209zM2.241 24.237c0.015 0.073 0.079 0.138 0.159 0.16 0.020 0.005 0.041 0.008 0.063 0.008 0.062 0 0.124-0.023 0.167-0.063 0.034-0.032 0.057-0.073 0.066-0.121 0.018-0.095-0.031-0.205-0.114-0.256s-0.184-0.024-0.275 0.072c-0.055 0.059-0.080 0.133-0.067 0.2zM2.712 24.693c0.012 0.011 0.032 0.018 0.049 0.018 0.002 0 0.005-0.001 0.007-0.001 0.051-0.006 0.116-0.014 0.17-0.047 0.051-0.030 0.087-0.081 0.099-0.137 0.016-0.078-0.027-0.2-0.109-0.244-0.052-0.027-0.112-0.021-0.164 0.018-0.060 0.046-0.083 0.127-0.091 0.187 0 0.001-0.010 0.164 0.038 0.207zM3.087 24.784c0.017 0.061 0.084 0.115 0.16 0.13 0.022 0.004 0.044 0.006 0.064 0.006 0.048 0 0.094-0.009 0.133-0.029 0.066-0.032 0.112-0.089 0.122-0.153 0.010-0.063-0.017-0.122-0.071-0.152-0.096-0.053-0.299 0.011-0.363 0.064-0.044 0.036-0.062 0.085-0.047 0.134zM4.182 24.064c0.236 0.091 0.375 0.162 0.386 0.147 0.011-0.013-0.112-0.112-0.342-0.225-0.229-0.117-0.565-0.237-0.926-0.373s-0.669-0.291-0.866-0.434c-0.2-0.141-0.299-0.254-0.316-0.243-0.013 0.008 0.060 0.144 0.253 0.308 0.191 0.168 0.507 0.342 0.875 0.481s0.704 0.244 0.938 0.338zM3.62 25.647c0.024 0.029 0.060 0.045 0.103 0.046h0.002c0.055 0 0.107-0.024 0.143-0.065 0.038-0.044 0.052-0.101 0.037-0.152-0.011-0.038-0.035-0.071-0.070-0.091-0.040-0.024-0.092-0.029-0.134-0.014-0.041 0.014-0.073 0.047-0.089 0.089-0.008 0.020-0.043 0.121 0.007 0.186zM3.999 25.031c0.028-0.028 0.042-0.063 0.038-0.101-0.004-0.065-0.057-0.137-0.157-0.215-0.017-0.014-0.044-0.017-0.065-0.007-0.077 0.032-0.141 0.089-0.178 0.158-0.027 0.048-0.033 0.093-0.018 0.133 0.020 0.051 0.067 0.085 0.132 0.098 0.017 0.003 0.034 0.005 0.052 0.005 0.075 0 0.153-0.027 0.197-0.070zM4.223 25.674c0.017 0.004 0.034 0.007 0.051 0.007 0.044 0 0.088-0.016 0.122-0.047 0.055-0.051 0.077-0.132 0.056-0.197-0.019-0.053-0.065-0.090-0.126-0.102-0.111-0.019-0.195 0.060-0.219 0.144-0.024 0.090 0.023 0.171 0.117 0.195zM4.338 26.137c0.034 0.055 0.094 0.086 0.166 0.086h0.009c0.114-0.005 0.197-0.082 0.202-0.19 0.005-0.092-0.055-0.194-0.18-0.209-0.073-0.009-0.14 0.018-0.183 0.074-0.053 0.068-0.059 0.169-0.015 0.239zM4.744 25.169c0.048 0 0.098-0.019 0.136-0.054 0.046-0.040 0.069-0.095 0.063-0.146-0.006-0.045-0.033-0.079-0.075-0.098-0.063-0.027-0.149-0.010-0.201 0.020-0.063 0.037-0.097 0.1-0.086 0.159 0.012 0.061 0.072 0.111 0.143 0.119 0.006 0 0.013 0.001 0.020 0.001zM4.8 25.969c0.077 0.196 0.228 0.335 0.351 0.404 0.125 0.071 0.217 0.083 0.223 0.069 0.008-0.017-0.067-0.057-0.163-0.139-0.098-0.079-0.216-0.208-0.282-0.376s-0.063-0.334-0.044-0.452c0.020-0.118 0.049-0.191 0.032-0.199-0.015-0.008-0.078 0.053-0.125 0.179-0.047 0.123-0.069 0.317 0.009 0.512zM2.080 21.327c-0.015-0.009-0.079 0.050-0.15 0.164s-0.143 0.288-0.168 0.488c-0.025 0.201 0.003 0.384 0.045 0.51 0.041 0.126 0.090 0.195 0.106 0.19 0.039-0.011-0.065-0.313-0.016-0.686 0.043-0.374 0.218-0.647 0.182-0.666zM5.509 25.863c0.044 0.048 0.122 0.080 0.2 0.080 0.044 0 0.090-0.010 0.128-0.034 0.083-0.050 0.087-0.113 0.082-0.145-0.010-0.067-0.075-0.129-0.162-0.157-0.084-0.026-0.169-0.011-0.226 0.039-0.074 0.066-0.083 0.152-0.023 0.218zM6.737 25.716c0.128 0.148 0.337 0.24 0.546 0.24h0.004c0.098-0.001 0.196-0.020 0.284-0.058 0.215-0.089 0.37-0.285 0.393-0.497 0.023-0.206-0.080-0.417-0.261-0.544-0.021-0.019-0.044-0.036-0.069-0.050-0.012-0.008-0.025-0.010-0.039-0.011-0.076-0.035-0.159-0.057-0.244-0.064 0.189-0.009 0.362 0.035 0.482 0.080 0.138 0.052 0.217 0.101 0.23 0.087 0.013-0.012-0.047-0.087-0.185-0.164-0.137-0.076-0.363-0.15-0.619-0.119-0.127 0.015-0.245 0.057-0.336 0.119-0.091 0.061-0.152 0.136-0.188 0.203-0.009 0.017-0.016 0.033-0.023 0.049-0.045 0.057-0.079 0.121-0.099 0.191-0.053 0.183-0.006 0.39 0.123 0.539zM7.1 26.111c0.153 0.040 0.395 0.043 0.62-0.067 0.224-0.111 0.35-0.297 0.394-0.434 0.046-0.141 0.027-0.232 0.011-0.232-0.021-0.001-0.037 0.083-0.101 0.2-0.061 0.116-0.183 0.266-0.37 0.359-0.189 0.092-0.394 0.105-0.535 0.089-0.144-0.015-0.232-0.047-0.241-0.030-0.009 0.012 0.066 0.075 0.223 0.116zM9.372 25.65c0.079-0.051 0.090-0.13 0.056-0.143-0.034-0.016-0.084 0.012-0.135 0.044s-0.095 0.066-0.090 0.1c0.004 0.034 0.089 0.050 0.17-0.001zM0.588 21.306c0.052-0.074 0.139-0.138 0.234-0.197-0.052 0.125-0.079 0.242-0.094 0.333-0.023 0.133-0.023 0.217-0.005 0.221 0.019 0.004 0.053-0.075 0.099-0.201s0.103-0.3 0.208-0.469c0.003-0.005 0.007-0.010 0.010-0.014 0.014-0.008 0.027-0.016 0.040-0.025 0.39-0.249 0.809-0.508 1.274-0.692 0.388-0.155 0.683-0.234 0.984-0.266 0.067-0.007 0.134-0.012 0.202-0.017l0.151-0.012c0.016 0.002 0.033 0.002 0.051-0.002 0.008-0.002 0.017-0.005 0.026-0.007 0.047-0.005 0.094-0.011 0.141-0.020 0.012-0.001 0.023-0.002 0.036-0.003 0.446-0.128 1.831 0.078 2.227 0.249 0.039 0.009 0.078 0.020 0.115 0.030 0.487 0.245 1.043 0.381 1.601 0.394 0.004 0 0.008 0.001 0.012 0.001 0.181 0.015 0.437 0.008 0.706-0.058 0.134-0.033 0.26-0.074 0.369-0.128s0.198-0.122 0.254-0.191c0.057-0.068 0.084-0.135 0.095-0.182 0.019-0.080-0.135-0.31-0.188-0.312-0.042-0.040-0.123-0.075-0.222-0.092-0.196-0.032-0.46-0.058-0.757-0.069-0.349-0.012-0.657 0.003-0.851 0.024-0.442 0.013-1.23 0.28-1.655 0.388-0.293-0.118-0.965-0.136-1.23-0.192-0.073-0.015 2.808-0.99 3.931-0.884 0.378 0.036 0.676 0.097 0.937 0.192 0.311 0.113 0.625 0.243 0.758 0.468 0.176 0.297 0.235 0.642 0.167 0.972-0.044 0.215-0.145 0.425-0.291 0.606-0.075 0.094-0.157 0.175-0.244 0.244s-0.221 0.114-0.329 0.15c-0.292 0.097-0.631 0.151-1.064 0.168-0.838 0.033-1.699-0.078-2.493-0.321-0.040-0.027-0.081-0.059-0.12-0.097-0.054-0.047-0.098-0.097-0.134-0.143-0.010-0.037-0.024-0.073-0.042-0.108-0.047-0.095-0.121-0.181-0.211-0.252-0.183-0.143-0.415-0.201-0.614-0.205-0.108-0.003-0.209 0.007-0.3 0.025-0.007-0.002-0.013-0.003-0.020-0.004-0.074-0.014-0.158-0.031-0.253-0.034-0.192-0.006-0.357 0.053-0.457 0.115-0.102 0.062-0.143 0.12-0.131 0.132 0.013 0.014 0.075-0.020 0.175-0.056s0.243-0.072 0.402-0.068c-0.102 0.042-0.179 0.088-0.23 0.126-0.063 0.047-0.091 0.081-0.083 0.089 0.016 0.022 0.165-0.065 0.426-0.128 0.13-0.030 0.29-0.052 0.462-0.040s0.354 0.064 0.498 0.177c0.072 0.056 0.13 0.123 0.168 0.194 0.019 0.036 0.032 0.071 0.043 0.109s0.019 0.082 0.032 0.126c0.013 0.045 0.031 0.091 0.058 0.134 0.028 0.041 0.060 0.074 0.089 0.102 0.054 0.050 0.096 0.089 0.13 0.13 0.015 0.046 0.021 0.105 0.017 0.182l-0.002 0.021c-0.006 0.137-0.013 0.292 0.090 0.422 0.018 0.023 0.679 0.537 0.543 0.548-0.142 0.013-0.246-0.151-0.619-0.253-0.094-0.026 0.495 0.927 0.403 0.904-0.198-0.047-0.46-0.627-0.748-0.793-0.088-0.051 0.097 0.768 0.013 0.727-0.153-0.076-0.161-0.417-0.328-0.661-0.072-0.104-0.206 0.77-0.293 0.697-0.074-0.062 0.031-0.454-0.010-0.727-0.014-0.093-0.279 0.464-0.356 0.484-0.114 0.030 0.090-0.795 0.129-0.93 0.147-0.215 0.188-0.43 0.122-0.636-0.008-0.025-0.026-0.046-0.050-0.060 0.024-0.015 0.044-0.031 0.063-0.047 0.104-0.093 0.124-0.175 0.108-0.181-0.018-0.009-0.066 0.053-0.17 0.114-0.102 0.063-0.266 0.12-0.456 0.125-0.193 0.005-0.369-0.030-0.499-0.052-0.13-0.024-0.214-0.034-0.22-0.018s0.066 0.055 0.193 0.102c0.013 0.004 0.027 0.009 0.040 0.014-0.015 0.012-0.028 0.027-0.035 0.046-0.046 0.124-0.196 0.214-0.339 0.204-0.013-0-0.025 0-0.036 0.003-0.018-0.043-0.037-0.080-0.058-0.11-0.053-0.078-0.102-0.115-0.117-0.106-0.027 0.016 0.037 0.137 0.075 0.31-0.092 0.206-0.15 0.517-0.025 0.768 0.113 0.229 0.358 0.424 0.542 0.547 0.266 0.176 0.566 0.301 0.855 0.422l0.186 0.078c0.324 0.139 0.69 0.307 0.933 0.557 0.004 0.004 0.008 0.007 0.012 0.009-0.043 0.018-0.083 0.043-0.121 0.073-0.115 0.096-0.169 0.21-0.197 0.289-0.027 0.081-0.032 0.132-0.015 0.14 0.018 0.007 0.054-0.035 0.103-0.103 0.049-0.067 0.11-0.16 0.202-0.235 0.047-0.040 0.098-0.067 0.148-0.084 0.009 0.013 0.019 0.027 0.032 0.041 0.003 0.003 0.005 0.004 0.008 0.007-0.012 0.008-0.024 0.015-0.036 0.023-0.154 0.11-0.268 0.235-0.332 0.333-0.066 0.099-0.088 0.167-0.073 0.175 0.035 0.018 0.203-0.21 0.489-0.412 0.066-0.047 0.131-0.088 0.193-0.124 0.774-0.217 1.633-0.231 2.32-0.036 0.012 0.004 0.024 0.004 0.036 0.005 0.030 0.016 0.059 0.035 0.083 0.054 0.044 0.034 0.083 0.070 0.119 0.099 0.072 0.059 0.132 0.083 0.144 0.070s0.048 0.092 0.049 0.108c0 0.018 0.079 0.026 0.19 0.063 0.056 0.020 0.12 0.046 0.183 0.085 0.065 0.038 0.121 0.090 0.19 0.155 0.034 0.031 0.071 0.064 0.111 0.090s0.080 0.048 0.118 0.066l0.143 0.068c0.054 0.074 0.074 0.134 0.066 0.196-0.020 0.151-0.122 0.295-0.265 0.375-0.078 0.045-0.171 0.072-0.269 0.102l-0.062 0.019c-0.071 0.012-0.145 0.020-0.225 0.023-0.184 0.007-0.391-0.007-0.615-0.005-0.225 0.003-0.435 0.035-0.622 0.062s-0.354 0.052-0.495 0.065c-0.281 0.029-0.457 0.006-0.46 0.025-0.005 0.013 0.171 0.068 0.466 0.062 0.146-0.002 0.319-0.018 0.507-0.040 0.187-0.021 0.392-0.047 0.606-0.050 0.122-0.002 0.244 0.001 0.361 0.002-0.116 0.033-0.233 0.064-0.351 0.090-0.32 0.070-0.657 0.099-0.984 0.126l-0.24 0.022c-0.11 0.010-0.219 0.024-0.326 0.038-0.050-0.001-0.104-0.002-0.161-0.002l-0.336-0.001c-0.117-0.003-0.225-0.013-0.318-0.038s-0.17-0.062-0.229-0.1c-0.118-0.079-0.156-0.161-0.175-0.155-0.009 0.002-0.011 0.027 0.003 0.068s0.048 0.097 0.109 0.152c0.060 0.055 0.146 0.108 0.253 0.142 0.084 0.028 0.179 0.044 0.277 0.051-0.034 0.013-0.068 0.028-0.102 0.041-0.046 0.020-0.091 0.039-0.138 0.056-0.103 0.038-0.208 0.047-0.32 0.056-0.061 0.005-0.124 0.012-0.19 0.022-0.035-0.007-0.070-0.016-0.106-0.027-0.273-0.079-0.436-0.241-0.468-0.219-0.014 0.009 0.009 0.065 0.079 0.137 0.042 0.042 0.1 0.088 0.175 0.128-0.114-0.007-0.219-0.024-0.302-0.043l-0.094-0.023c-0.091-0.023-0.185-0.047-0.287-0.053-0.050-0.003-0.087-0.004-0.119-0.002 0.012-0.039 0.019-0.075 0.021-0.108 0.007-0.104-0.020-0.164-0.037-0.163-0.019 0.002-0.028 0.062-0.058 0.149-0.016 0.051-0.044 0.112-0.083 0.175-0.010 0.007-0.022 0.012-0.035 0.021l-0.033 0.020c-0.145 0.086-0.282 0.168-0.442 0.213-0.182 0.052-0.373 0.142-0.586 0.275-0.229 0.19-0.585 0.518-0.62 0.913-0.029 0.328 0.296 0.583 0.228 0.707-0.016 0.028-0.468-0.446-0.505-0.44-0.035 0.006 0.154 0.581 0.119 0.583-0.033 0.001-0.338-0.555-0.367-0.558-0.038-0.003-0.124 0.524-0.15 0.514-0.031-0.013-0.027-0.28-0.015-0.462 0.002-0.033-0.292 0.426-0.314 0.412-0.086-0.052 0.080-0.346 0.257-0.628 0.019-0.030-0.598 0.495-0.632 0.484-0.105-0.032 0.524-0.552 0.687-0.653 0.152-0.094 0.238-0.287 0.263-0.347l0.118-0.282c0.077-0.182 0.143-0.333 0.229-0.478 0.070-0.118 0.163-0.277 0.277-0.341 0.019-0.011 0.047-0.018 0.079-0.026l0.056-0.016c0.071-0.022 0.136-0.052 0.199-0.081 0.020-0.009 0.040-0.020 0.062-0.028 0.156-0.070 0.331-0.149 0.477-0.272l0.072-0.022c0.22-0.062 0.413-0.056 0.42-0.091 0.003-0.016-0.045-0.039-0.13-0.051-0.041-0.006-0.092-0.008-0.147-0.004 0.138-0.068 0.254-0.102 0.251-0.131-0.003-0.016-0.051-0.027-0.129-0.020-0.055 0.005-0.124 0.022-0.198 0.052-0.004-0.025-0.011-0.050-0.025-0.079-0.049-0.101-0.141-0.171-0.234-0.234l-0.168-0.112c0.031-0.030 0.055-0.066 0.068-0.105 0.020-0.059 0.011-0.116-0.024-0.157-0.032-0.039-0.088-0.061-0.153-0.062s-0.136 0.022-0.186 0.062c-0.015 0.011-0.028 0.026-0.039 0.039l-0.786-0.524c-0.095-0.064-0.177-0.141-0.262-0.223-0.055-0.053-0.111-0.108-0.175-0.16-0.174-0.146-0.34-0.303-0.492-0.469-0.284-0.309-0.524-0.648-0.713-1.007-0.032-0.060-0.062-0.121-0.090-0.181l-0.037-0.135-0.033-0.114v-0.035c-0.001-0.066-0.004-0.132-0.008-0.196-0.008-0.173-0.015-0.336 0.019-0.504 0.034-0.174 0.103-0.33 0.216-0.489z"></path>
<path d="M7.277 24.794c-0.292 0-0.528 0.237-0.528 0.529s0.237 0.529 0.528 0.529c0.292 0 0.528-0.237 0.528-0.529s-0.237-0.529-0.528-0.529zM7.277 24.904c0.054 0 0.097 0.188 0.097 0.419s-0.044 0.419-0.097 0.419c-0.054 0-0.097-0.188-0.097-0.419s0.044-0.419 0.097-0.419z"></path>
</svg>
