<?xml version="1.0" encoding="utf-8"?>
<svg version="1.1" viewBox="0 0 1200 1200" xmlns="http://www.w3.org/2000/svg" width="150pt" height="150pt">
  <path fill="#000000" d="M 266.356 620.918 C 267.382 623.28 269.49 625.024 271.51 625.201 C 271.61 625.201 271.731 625.223 271.842 625.223 C 273.199 625.223 274.436 624.505 275.253 623.236 C 276.908 620.609 275.219 616.017 272.714 614.195 C 270.782 612.804 268.464 613.169 266.874 615.156 C 265.638 616.701 265.439 618.787 266.356 620.918 Z M 273.531 639.727 C 274.679 640.831 276.235 641.427 277.747 641.427 C 278.487 641.427 279.204 641.306 279.867 641.041 C 282.196 640.136 283.598 637.917 283.454 635.29 C 283.333 632.541 281.578 630.201 279.083 629.495 C 276.544 628.788 274.038 629.837 272.658 632.221 C 271.212 634.727 271.555 637.851 273.531 639.727 Z M 281.876 654.121 C 283.156 655.28 284.723 655.744 286.28 655.744 C 288.024 655.744 289.746 655.148 291.015 654.221 C 293.4 652.488 294.139 649.783 292.936 647.2 C 291.998 645.136 289.757 643.491 287.262 643.05 C 285.022 642.63 282.935 643.215 281.511 644.65 C 280.341 645.842 279.69 647.487 279.745 649.286 C 279.778 651.174 280.551 652.94 281.876 654.121 Z M 290.651 661.914 C 291.159 664.321 293.179 666.319 295.652 666.86 C 296.126 666.981 296.623 667.036 297.109 667.036 C 298.996 667.036 300.939 666.253 302.286 664.818 C 303.732 663.338 304.526 661.142 304.383 658.978 C 304.206 656.208 302.882 654.099 300.784 653.216 C 298.488 652.223 295.585 652.907 293.223 654.883 C 291.115 656.682 290.11 659.42 290.651 661.914 Z M 306.469 669.785 C 306.933 672.257 308.876 674.432 311.304 675.172 C 311.922 675.337 312.562 675.437 313.225 675.437 C 315.09 675.437 316.978 674.675 318.28 673.317 C 319.318 672.246 320.002 670.845 320.278 669.244 C 320.819 666.043 319.34 662.323 316.812 660.623 C 314.284 658.912 311.238 659.806 308.489 663.04 C 306.811 665.027 306.05 667.533 306.469 669.785 Z M 320.764 685.183 C 321.128 685.559 321.746 685.802 322.265 685.802 C 322.331 685.802 322.409 685.78 322.486 685.78 C 324.042 685.57 325.996 685.305 327.641 684.179 C 329.197 683.152 330.268 681.452 330.654 679.543 C 331.151 676.927 329.827 672.787 327.354 671.33 C 325.786 670.414 323.954 670.624 322.387 671.926 C 320.576 673.472 319.881 676.198 319.627 678.218 C 319.627 678.251 319.318 683.737 320.764 685.183 Z M 332.123 688.252 C 332.641 690.294 334.683 692.138 336.979 692.623 C 337.642 692.745 338.304 692.822 338.933 692.822 C 340.39 692.822 341.77 692.502 342.973 691.84 C 344.96 690.747 346.373 688.826 346.682 686.685 C 346.98 684.576 346.163 682.556 344.541 681.574 C 341.616 679.786 335.478 681.96 333.535 683.737 C 332.189 684.963 331.67 686.618 332.123 688.252 Z M 365.315 663.968 C 372.479 667.036 376.674 669.421 377.005 668.935 C 377.336 668.493 373.594 665.171 366.629 661.34 C 359.675 657.411 349.486 653.36 338.536 648.779 C 327.575 644.176 318.258 638.954 312.264 634.142 C 306.204 629.395 303.191 625.565 302.672 625.951 C 302.264 626.216 304.482 630.797 310.344 636.349 C 316.15 642.001 325.731 647.885 336.88 652.576 C 348.029 657.256 358.228 660.8 365.315 663.968 Z M 348.272 717.327 C 348.989 718.31 350.093 718.851 351.385 718.884 C 351.418 718.884 351.418 718.884 351.44 718.884 C 353.118 718.884 354.696 718.078 355.789 716.687 C 356.948 715.219 357.367 713.298 356.926 711.576 C 356.595 710.307 355.866 709.192 354.818 708.519 C 353.614 707.702 352.036 707.525 350.755 708.044 C 349.519 708.53 348.548 709.612 348.062 711.047 C 347.83 711.709 346.76 715.12 348.272 717.327 Z M 359.785 696.564 C 360.635 695.626 361.054 694.445 360.944 693.164 C 360.834 690.957 359.222 688.528 356.175 685.901 C 355.657 685.426 354.851 685.327 354.199 685.658 C 351.859 686.751 349.939 688.672 348.791 690.99 C 347.974 692.623 347.786 694.125 348.25 695.471 C 348.846 697.193 350.27 698.341 352.257 698.761 C 352.764 698.86 353.283 698.915 353.824 698.915 C 356.087 698.915 358.471 698.021 359.785 696.564 Z M 366.574 718.233 C 367.092 718.376 367.611 718.464 368.119 718.464 C 369.466 718.464 370.779 717.923 371.817 716.897 C 373.473 715.186 374.168 712.437 373.506 710.241 C 372.932 708.441 371.541 707.194 369.675 706.808 C 366.309 706.179 363.748 708.828 363.041 711.654 C 362.302 714.7 363.748 717.405 366.574 718.233 Z M 370.062 733.852 C 371.099 735.717 372.91 736.755 375.106 736.755 C 375.195 736.755 375.294 736.755 375.393 736.755 C 378.837 736.601 381.365 733.973 381.531 730.342 C 381.696 727.229 379.864 723.807 376.078 723.288 C 373.87 722.979 371.828 723.884 370.525 725.783 C 368.925 728.079 368.737 731.479 370.062 733.852 Z M 382.359 701.2 C 383.816 701.2 385.317 700.549 386.498 699.368 C 387.878 698.021 388.595 696.178 388.419 694.445 C 388.242 692.944 387.425 691.796 386.134 691.144 C 384.224 690.239 381.608 690.813 380.04 691.807 C 378.12 693.065 377.093 695.184 377.424 697.171 C 377.778 699.224 379.599 700.902 381.762 701.167 C 381.95 701.167 382.149 701.2 382.359 701.2 Z M 384.069 728.178 C 386.399 734.79 390.98 739.459 394.722 741.811 C 398.519 744.217 401.289 744.614 401.477 744.14 C 401.72 743.555 399.457 742.23 396.521 739.471 C 393.551 736.81 389.964 732.45 387.966 726.809 C 385.979 721.158 386.045 715.539 386.641 711.576 C 387.237 707.603 388.143 705.152 387.602 704.854 C 387.16 704.578 385.228 706.653 383.805 710.903 C 382.37 715.065 381.729 721.599 384.069 728.178 Z M 301.601 571.697 C 301.16 571.399 299.206 573.375 297.042 577.216 C 294.868 581.069 292.704 586.941 291.954 593.686 C 291.203 600.452 292.042 606.634 293.333 610.884 C 294.57 615.134 296.049 617.463 296.546 617.275 C 297.716 616.911 294.57 606.733 296.071 594.138 C 297.374 581.544 302.672 572.326 301.601 571.697 Z M 405.561 724.613 C 406.897 726.235 409.248 727.317 411.632 727.317 C 412.979 727.317 414.359 726.975 415.529 726.158 C 418.046 724.458 418.167 722.361 418.013 721.257 C 417.715 718.983 415.728 716.897 413.101 715.97 C 410.551 715.098 407.99 715.583 406.246 717.272 C 403.994 719.513 403.729 722.383 405.561 724.613 Z M 442.794 719.657 C 446.68 724.646 453.016 727.737 459.363 727.737 C 459.407 727.737 459.462 727.737 459.484 727.737 C 462.453 727.715 465.423 727.052 468.105 725.794 C 474.629 722.78 479.32 716.202 480.016 709.027 C 480.711 702.083 477.598 694.964 472.09 690.692 C 471.45 690.051 470.754 689.488 470.004 688.992 C 469.65 688.738 469.253 688.65 468.834 688.616 C 466.538 687.446 464.021 686.707 461.449 686.464 C 467.167 686.144 472.421 687.645 476.064 689.157 C 480.236 690.901 482.643 692.557 483.029 692.083 C 483.415 691.685 481.616 689.157 477.422 686.563 C 473.26 684.002 466.427 681.497 458.667 682.556 C 454.815 683.075 451.227 684.488 448.468 686.563 C 445.719 688.605 443.854 691.133 442.761 693.407 C 442.485 693.97 442.264 694.511 442.065 695.052 C 440.708 696.984 439.681 699.125 439.074 701.487 C 437.473 707.647 438.897 714.623 442.794 719.657 Z M 453.788 732.991 C 458.424 734.338 465.765 734.437 472.576 730.728 C 479.353 726.975 483.184 720.716 484.53 716.08 C 485.932 711.334 485.347 708.265 484.861 708.265 C 484.21 708.221 483.725 711.058 481.804 714.998 C 479.949 718.895 476.263 723.95 470.578 727.107 C 464.86 730.22 458.645 730.64 454.34 730.121 C 449.969 729.624 447.32 728.531 447.033 729.094 C 446.746 729.503 449.042 731.633 453.788 732.991 Z M 522.69 717.449 C 525.097 715.727 525.406 713.078 524.379 712.614 C 523.353 712.084 521.818 713.033 520.284 714.093 C 518.772 715.186 517.414 716.323 517.546 717.471 C 517.657 718.608 520.251 719.16 522.69 717.449 Z M 256.355 570.969 C 257.922 568.463 260.582 566.322 263.463 564.335 C 261.885 568.551 261.079 572.503 260.604 575.572 C 259.909 580.064 259.909 582.89 260.45 583.023 C 261.024 583.144 262.051 580.484 263.463 576.245 C 264.854 572.017 266.598 566.145 269.766 560.427 C 269.866 560.25 269.965 560.096 270.064 559.941 C 270.484 559.665 270.892 559.4 271.279 559.102 C 283.112 550.702 295.806 541.982 309.913 535.778 C 321.669 530.568 330.61 527.886 339.75 526.804 C 341.792 526.561 343.823 526.384 345.865 526.23 C 347.4 526.109 348.912 525.954 350.446 525.81 C 350.932 525.877 351.44 525.877 351.981 525.755 C 352.224 525.689 352.5 525.601 352.764 525.535 C 354.199 525.358 355.623 525.148 357.047 524.872 C 357.412 524.85 357.754 524.795 358.129 524.784 C 372.302 523.559 383.816 522.642 383.816 521.461 C 383.816 520.689 378.296 520.004 370.183 520.059 C 370.503 519.872 370.856 519.695 371.188 519.485 C 371.486 519.276 371.817 519.099 372.137 518.911 C 373.263 518.492 374.356 518.095 375.493 517.73 C 384.511 514.805 391.554 514.121 397.68 515.567 C 404.413 517.167 410.208 521.351 416.357 525.822 C 416.986 526.296 417.626 526.727 418.256 527.168 C 410.507 525.722 404.844 525.777 404.778 526.594 C 404.601 527.764 414.16 529.884 425.64 533.195 C 426.81 533.515 427.991 533.857 429.117 534.2 C 443.876 542.445 460.731 547.048 477.664 547.479 C 477.786 547.479 477.907 547.501 478.029 547.501 C 483.504 548.02 491.275 547.777 499.421 545.547 C 503.494 544.421 507.314 543.064 510.603 541.231 C 513.915 539.432 516.597 537.114 518.319 534.785 C 520.063 532.478 520.891 530.226 521.189 528.647 C 521.487 527.047 521.288 526.175 521.034 526.12 C 520.427 525.998 519.655 529.31 516.111 532.886 C 514.82 534.178 513.142 535.447 511.199 536.606 C 512.027 534.873 512.469 533.019 512.447 531.153 C 512.391 526.683 509.643 522.223 505.216 519.519 C 503.848 518.647 502.368 518.039 500.9 517.532 C 503.649 517.675 506.155 517.797 508.318 517.918 C 511.111 518.128 513.197 518.68 514.5 519.419 C 515.824 520.093 516.453 520.788 516.718 520.622 C 516.939 520.512 516.785 519.452 515.493 518.128 C 514.213 516.781 511.751 515.611 508.76 515.026 C 502.832 513.944 494.807 513.061 485.822 512.686 C 475.247 512.277 465.908 512.796 460.003 513.492 C 446.591 513.944 433.202 515.931 420.309 519.596 C 413.973 514.971 407.383 510.279 399.369 508.392 C 397.161 507.884 394.843 507.586 392.47 507.498 C 423.168 492.828 457.674 486.734 491.738 490.3 C 503.196 491.503 512.248 493.567 520.162 496.779 C 529.589 500.588 539.115 504.959 543.155 512.553 C 548.487 522.565 550.275 534.2 548.211 545.326 C 546.864 552.59 543.818 559.665 539.391 565.759 C 537.106 568.916 534.623 571.664 531.996 573.982 C 529.391 576.278 525.284 577.813 522.028 579.038 C 513.175 582.305 502.909 584.116 489.774 584.712 C 464.374 585.815 438.246 582.084 414.182 573.894 C 412.979 572.967 411.721 571.896 410.551 570.638 C 408.917 569.048 407.592 567.381 406.477 565.825 C 406.179 564.589 405.76 563.352 405.219 562.171 C 403.795 558.981 401.554 556.056 398.817 553.671 C 393.253 548.837 386.222 546.894 380.195 546.75 C 376.917 546.651 373.859 546.993 371.099 547.589 C 370.879 547.534 370.702 547.501 370.481 547.468 C 368.251 546.993 365.69 546.419 362.798 546.331 C 356.992 546.143 351.959 548.13 348.945 550.216 C 345.865 552.292 344.618 554.279 344.982 554.676 C 345.38 555.151 347.245 554.014 350.303 552.777 C 353.338 551.563 357.654 550.36 362.478 550.481 C 359.399 551.905 357.047 553.462 355.502 554.731 C 353.581 556.299 352.742 557.447 352.985 557.745 C 353.482 558.495 357.986 555.537 365.889 553.429 C 369.841 552.413 374.676 551.662 379.897 552.082 C 385.107 552.501 390.626 554.234 394.998 558.043 C 397.183 559.941 398.938 562.193 400.086 564.577 C 400.649 565.781 401.058 566.962 401.389 568.253 C 401.709 569.556 401.974 571.002 402.349 572.503 C 402.735 574.004 403.276 575.572 404.104 577.029 C 404.943 578.42 405.926 579.524 406.809 580.484 C 408.431 582.184 409.734 583.475 410.76 584.855 C 411.213 586.4 411.39 588.409 411.29 591.004 L 411.235 591.699 C 411.058 596.324 410.849 601.556 413.973 605.916 C 416.059 608.875 419.293 610.928 423.918 612.253 C 425.221 612.628 426.545 612.915 427.837 613.213 C 429.139 613.511 430.398 613.776 431.579 614.129 L 422.042 614.935 C 420.85 615.034 419.768 615.719 419.15 616.767 C 418.951 617.154 418.83 617.573 418.752 617.97 C 414.304 614.813 410.97 612.937 410.451 613.566 C 409.734 614.438 414.922 619.836 422.086 625.741 C 424.172 628.026 426.005 630.554 427.495 633.27 C 427.87 633.965 428.058 634.473 428.135 634.815 C 427.991 634.815 427.815 634.804 427.616 634.771 C 425.309 634.407 423.146 632.696 421.335 631.073 L 420.044 629.914 C 418.554 628.512 417.03 627.121 415.242 625.918 C 414.845 625.41 414.469 624.958 414.094 624.472 C 409.325 618.898 404.303 615.575 403.552 616.403 C 402.978 617.043 404.756 619.648 407.526 623.092 C 405.087 622.916 402.769 623.457 400.815 624.66 C 400.87 621.911 400.473 620.068 399.843 619.99 C 398.673 619.891 397.238 624.903 395.881 631.073 C 395.859 631.217 395.836 631.371 395.803 631.504 C 395.737 631.68 395.66 631.879 395.594 632.055 C 395.384 632.696 395.196 633.325 395.02 633.932 C 394.633 635.223 394.28 636.427 393.772 637.398 C 393.22 638.458 392.448 639.23 391.796 639.33 C 390.748 639.506 389.986 639.595 389.478 639.617 L 387.933 628.954 C 387.845 628.093 387.767 627.21 387.701 626.282 C 387.094 619.56 386.211 614.019 385.052 614.019 C 384.356 614.019 383.749 616.138 383.507 619.328 C 383.429 619.284 383.385 619.229 383.297 619.174 C 380.526 617.396 376.762 617.463 373.208 619.405 C 371.585 620.288 370.26 621.37 368.958 622.397 C 368.439 622.816 367.931 623.236 367.412 623.633 C 365.812 624.803 364.542 625.399 363.494 625.41 C 362.688 625.41 362.158 624.991 362.081 624.836 C 362.059 624.66 362.081 624.053 363.284 622.331 C 364.852 620.013 366.629 617.838 368.472 615.498 C 370.923 612.451 373.462 609.294 375.592 605.795 C 380.04 598.532 381.288 591.313 379.279 584.347 C 379.014 583.475 378.473 582.791 377.755 582.327 C 378.473 581.808 379.102 581.268 379.676 580.727 C 382.844 577.603 383.429 574.81 382.966 574.611 C 382.425 574.313 380.979 576.389 377.811 578.442 C 374.709 580.55 369.731 582.504 363.98 582.669 C 358.14 582.846 352.798 581.665 348.857 580.903 C 344.905 580.098 342.377 579.744 342.19 580.285 C 342.013 580.826 344.199 582.151 348.029 583.707 C 348.426 583.851 348.846 584.016 349.254 584.171 C 348.791 584.59 348.393 585.098 348.183 585.727 C 346.804 589.922 342.256 592.935 337.907 592.604 C 337.52 592.593 337.156 592.604 336.803 592.714 C 336.262 591.279 335.677 590.01 335.037 589.006 C 333.447 586.389 331.946 585.131 331.493 585.44 C 330.688 585.97 332.63 590.065 333.778 595.905 C 330.986 602.848 329.219 613.334 333.028 621.812 C 336.461 629.539 343.879 636.107 349.453 640.257 C 357.511 646.196 366.607 650.39 375.371 654.486 C 377.27 655.358 379.135 656.208 381.001 657.102 C 390.825 661.782 401.93 667.456 409.292 675.878 C 409.425 675.999 409.546 676.11 409.668 676.198 C 408.376 676.805 407.14 677.644 406.003 678.649 C 402.504 681.872 400.892 685.724 400.031 688.407 C 399.203 691.133 399.06 692.866 399.567 693.12 C 400.108 693.341 401.212 691.928 402.68 689.632 C 404.159 687.369 406.025 684.234 408.796 681.717 C 410.231 680.382 411.776 679.455 413.277 678.881 C 413.564 679.333 413.862 679.808 414.26 680.271 C 414.337 680.382 414.425 680.415 414.502 680.514 C 414.127 680.79 413.763 681.011 413.421 681.298 C 408.762 685.007 405.307 689.213 403.343 692.524 C 401.345 695.847 400.682 698.165 401.135 698.441 C 402.195 699.059 407.283 691.376 415.971 684.543 C 417.957 682.954 419.955 681.574 421.821 680.349 C 445.289 673.03 471.328 672.544 492.169 679.123 C 492.544 679.245 492.908 679.267 493.251 679.3 C 494.156 679.852 495.028 680.47 495.767 681.11 C 497.092 682.258 498.273 683.461 499.366 684.455 C 501.563 686.442 503.373 687.248 503.726 686.806 C 504.068 686.331 503.13 684.896 501.585 682.501 C 500.801 681.331 499.819 679.874 498.417 678.395 C 497.953 677.832 497.357 677.324 496.772 676.805 C 496.772 676.783 496.772 676.783 496.794 676.772 C 498.461 671.595 503.792 667.577 509.466 667.191 C 512.115 666.981 514.919 667.555 517.502 668.813 C 517.866 668.979 518.209 669.2 518.584 669.399 C 517.601 673.218 516.597 677.446 516.42 682.115 C 516.277 685.426 516.718 688.738 517.69 691.773 C 515.581 690.692 513.528 690.051 511.751 689.753 C 507.656 689.113 505.172 689.919 505.216 690.449 C 505.216 691.056 507.601 691.321 510.989 692.568 C 512.689 693.231 514.632 694.125 516.542 695.449 C 518.507 696.719 520.207 698.496 522.293 700.681 C 523.319 701.741 524.434 702.823 525.671 703.728 C 526.885 704.633 528.11 705.34 529.236 705.958 C 530.892 706.841 532.316 707.558 533.574 708.265 C 535.219 710.76 535.804 712.769 535.561 714.877 C 534.954 719.977 531.874 724.834 527.514 727.516 C 525.141 729.017 522.337 729.944 519.368 730.938 L 517.502 731.567 C 515.361 731.964 513.109 732.229 510.669 732.329 C 505.084 732.572 498.814 732.086 492.036 732.174 C 485.204 732.285 478.834 733.344 473.172 734.249 C 467.487 735.177 462.431 736.004 458.171 736.457 C 449.66 737.417 444.328 736.656 444.229 737.296 C 444.085 737.749 449.428 739.592 458.347 739.371 C 462.774 739.305 468.006 738.764 473.735 738.024 C 479.42 737.318 485.623 736.424 492.103 736.336 C 495.812 736.28 499.509 736.358 503.064 736.391 C 499.543 737.506 495.988 738.565 492.423 739.426 C 482.72 741.789 472.509 742.76 462.597 743.687 C 460.157 743.952 457.762 744.162 455.334 744.438 C 452.011 744.769 448.7 745.244 445.454 745.707 C 443.931 745.663 442.308 745.641 440.564 745.641 C 437.396 745.608 433.908 745.707 430.376 745.608 C 426.832 745.52 423.565 745.155 420.739 744.316 C 417.935 743.5 415.584 742.241 413.807 740.95 C 410.231 738.289 409.072 735.519 408.486 735.74 C 408.222 735.817 408.166 736.656 408.586 738.024 C 409.016 739.371 410.054 741.292 411.897 743.135 C 413.708 745.001 416.324 746.767 419.558 747.937 C 422.119 748.875 425 749.405 427.969 749.648 C 426.932 750.078 425.894 750.575 424.89 751.039 C 423.499 751.701 422.119 752.363 420.695 752.926 C 417.571 754.207 414.381 754.505 410.992 754.825 C 409.149 755.002 407.228 755.222 405.241 755.554 C 404.182 755.311 403.133 755.002 402.018 754.626 C 393.75 751.966 388.783 746.491 387.823 747.231 C 387.403 747.551 388.098 749.438 390.229 751.845 C 391.487 753.269 393.276 754.825 395.538 756.15 C 392.094 755.918 388.904 755.344 386.376 754.704 C 385.416 754.45 384.478 754.185 383.518 753.931 C 380.769 753.147 377.899 752.363 374.808 752.143 C 373.296 752.054 372.181 751.999 371.188 752.065 C 371.541 750.763 371.762 749.527 371.817 748.412 C 372.027 744.924 371.221 742.87 370.68 742.903 C 370.095 742.959 369.819 744.979 368.914 747.926 C 368.417 749.648 367.589 751.701 366.397 753.809 C 366.088 754.041 365.735 754.229 365.348 754.505 L 364.344 755.167 C 359.939 758.059 355.789 760.819 350.954 762.364 C 345.446 764.13 339.651 767.144 333.171 771.637 C 321.36 779.794 316.58 794.994 312.761 807.191 C 310.94 813.02 312.894 819.323 318.137 824.533 C 318.435 824.82 318.722 825.085 319.02 825.383 C 319.34 825.681 319.649 825.979 319.947 826.255 C 319.274 826.376 318.612 826.674 318.06 827.182 C 316.58 828.518 316.448 830.747 317.695 832.249 C 317.861 832.436 318.038 832.635 318.236 832.801 C 319.936 834.523 321.393 836.465 322.652 838.552 C 316.172 837.613 310.244 835.041 306.149 831.288 C 305.487 830.648 304.571 830.328 303.665 830.328 C 303.401 830.328 303.158 830.35 302.882 830.405 C 301.712 830.648 300.718 831.476 300.277 832.58 C 298.511 836.763 297.495 841.179 297.285 845.716 C 297.252 845.925 297.252 846.113 297.23 846.29 L 292.495 824.334 C 292.252 823.219 291.501 822.303 290.475 821.806 C 289.47 821.321 288.267 821.321 287.262 821.806 C 284.779 823.032 282.085 823.793 279.326 824.025 C 286.247 820.139 291.611 814.51 294.084 808.428 C 296.656 802.136 299.062 795.656 301.414 789.386 C 302.584 786.218 303.787 783.028 304.99 779.86 C 307.319 773.723 309.317 768.645 311.922 763.744 C 314.031 759.759 316.867 754.406 320.334 752.242 C 320.908 751.878 321.746 751.635 322.729 751.359 C 323.292 751.182 323.888 751.006 324.44 750.818 C 326.603 750.078 328.568 749.074 330.467 748.092 C 331.074 747.771 331.692 747.429 332.332 747.142 C 337.057 744.769 342.377 742.12 346.804 737.958 C 347.521 737.715 348.25 737.473 348.989 737.208 C 355.657 735.132 361.518 735.309 361.717 734.128 C 361.816 733.587 360.359 732.803 357.787 732.406 C 356.529 732.207 354.994 732.141 353.316 732.262 C 357.511 729.977 361.021 728.841 360.933 727.858 C 360.845 727.317 359.388 726.931 357.014 727.174 C 355.358 727.35 353.239 727.902 351.02 728.918 C 350.899 728.079 350.689 727.229 350.27 726.269 C 348.791 722.869 345.987 720.495 343.161 718.376 C 341.472 717.14 339.75 715.848 338.061 714.601 C 338.988 713.585 339.728 712.382 340.125 711.058 C 340.744 709.071 340.468 707.139 339.408 705.759 C 338.426 704.457 336.737 703.706 334.783 703.673 C 332.818 703.673 330.654 704.401 329.142 705.759 C 328.69 706.145 328.303 706.62 327.961 707.084 C 324.285 704.368 320.598 701.609 316.901 698.882 L 304.129 689.4 C 301.237 687.248 298.764 684.643 296.17 681.894 C 294.504 680.106 292.793 678.251 290.861 676.507 C 285.584 671.595 280.551 666.308 275.937 660.711 C 267.327 650.291 260.064 638.877 254.324 626.768 C 253.341 624.737 252.447 622.673 251.586 620.653 C 251.255 619.229 250.869 617.705 250.471 616.094 C 250.118 614.736 249.809 613.467 249.478 612.241 C 249.478 612.142 249.478 612.065 249.478 611.966 L 249.478 611.071 C 249.456 608.842 249.356 606.634 249.246 604.448 C 249.003 598.631 248.793 593.134 249.82 587.449 C 250.858 581.566 252.944 576.333 256.355 570.969 Z M 1018.13 419.211 C 1012.75 419.211 1008.08 416.498 1005.41 411.798 C 957.894 327.587 882.475 220.238 896.135 129.623 C 906.404 61.288 961.472 20.144 1018.13 19.928 C 1074.76 20.144 1129.86 61.288 1140.13 129.623 C 1153.76 220.238 1078.3 327.587 1030.86 411.798 C 1028.19 416.498 1023.56 419.211 1018.13 419.211 Z M 1078.88 150.264 C 1078.88 116.64 1051.69 89.45 1018.13 89.45 C 984.58 89.45 957.388 116.64 957.388 150.264 C 957.388 183.893 984.58 211.012 1018.13 211.012 C 1051.69 211.012 1078.88 183.822 1078.88 150.264 Z M 277.079 883.327 C 277.079 860.513 311.829 841.927 354.439 841.927 C 386.729 841.927 414.519 852.593 426.069 867.707 C 526.558 867.78 629.178 862.862 689.235 839.902 C 748.898 817.123 755.144 769.145 638.83 672.965 C 612.943 651.524 597.498 630.262 590.558 609.58 C 586.228 596.635 585.168 584.161 586.908 572.193 C 566.048 564.78 552.228 552.053 552.228 537.698 C 552.228 514.884 587.018 496.298 629.648 496.298 C 633.697 496.298 637.675 496.479 641.544 496.806 C 651.704 489.68 662.986 482.993 675.172 476.772 C 729.081 449.329 801.976 430.635 870.279 423.729 C 873.279 403.952 907.268 387.03 955.684 378.713 C 965.156 394.731 974.341 410.135 982.512 424.668 C 989.851 437.65 1003.27 445.497 1018.16 445.497 C 1033.06 445.497 1046.44 437.65 1053.74 424.668 C 1062.24 409.592 1071.75 393.647 1081.58 377.014 C 1138.13 384.896 1178.05 404.132 1178.05 426.586 C 1178.05 456.127 1109.06 480.063 1024.06 480.063 C 973.872 480.063 929.287 471.746 901.195 458.84 C 830.143 462.526 749.444 481.04 692.17 510.218 C 691.302 510.687 690.435 511.122 689.569 511.591 C 700.45 518.715 707.032 527.826 707.032 537.734 C 707.032 560.55 672.251 579.134 629.656 579.134 C 627.741 579.134 625.859 579.099 623.98 579.025 C 623.293 585.136 623.907 591.356 626.039 597.756 C 630.776 611.856 642.492 627.332 662.74 644.073 C 816.451 771.231 796.881 838.92 702.513 874.933 C 636.199 900.243 526.168 905.306 420.189 905.053 C 406.489 916.803 382.119 924.687 354.429 924.687 C 311.809 924.687 277.049 906.1 277.049 883.321 L 277.079 883.327 Z" fill-opacity="1" fill-rule="nonzero" style=""/>
</svg>