<?xml version="1.0" encoding="utf-8"?>
<svg version="1.1" viewBox="0 0 1200 1200" xmlns="http://www.w3.org/2000/svg" width="150pt" height="150pt">
  <path d="M 1107.67 581.774 C 1117.43 594.277 1124.26 608.814 1127.68 624.304 C 1132.05 640.335 1131.77 657.28 1126.88 673.159 C 1126.28 675.295 1125.17 677.249 1123.62 678.845 C 1120.81 680.897 1117.35 681.874 1113.87 681.593 C 1109.03 681.976 1104.2 680.852 1100.04 678.368 C 1095.95 674.832 1093.14 670.058 1092.02 664.782 C 1083.18 636.949 1077.57 608.201 1067.5 580.757 C 1063.11 573.045 1062.66 563.696 1066.31 555.6 C 1082.67 559.374 1097.25 568.607 1107.67 581.774 Z M 827.17 1023.18 C 837.487 1025.76 846.529 1031.98 852.621 1040.69 C 854.33 1043.36 854.877 1046.61 854.147 1049.69 C 852.942 1052.88 850.734 1055.59 847.858 1057.42 C 835.334 1067.06 821.943 1075.51 807.862 1082.69 C 802.384 1085.82 796.254 1087.64 789.957 1088.01 C 786.612 1088.09 783.328 1087.11 780.577 1085.21 C 777.647 1082.67 775.497 1079.35 774.364 1075.63 C 773.23 1071.92 773.16 1067.96 774.167 1064.2 C 776.152 1052.41 779.921 1041 785.354 1030.35 C 787.285 1026.21 790.479 1022.78 794.475 1020.57 C 798.471 1018.34 803.066 1017.44 807.606 1017.99 C 814.28 1019.09 820.828 1020.82 827.17 1023.18 Z M 173.943 602.301 C 173.688 602.315 173.435 602.315 173.179 602.315 C 166.606 601.829 160.249 599.765 154.647 596.299 C 152.854 595.388 151.074 594.465 149.268 593.648 C 142.965 590.826 136.176 589.247 129.276 589.001 L 129.276 589.006 C 125.997 588.912 122.653 589.1 119.348 589.273 C 115.819 589.546 112.282 589.639 108.749 589.549 C 101.046 589.701 93.558 586.99 87.74 581.94 C 81.367 574.816 78.597 565.168 80.221 555.752 C 80.413 545.19 86.073 535.49 95.168 530.127 C 100.408 527.978 106.064 527.032 111.722 527.359 C 114.522 527.385 117.328 527.22 120.11 526.872 C 122.997 526.359 125.847 525.637 128.635 524.722 L 128.635 524.717 C 131.056 523.995 133.465 523.259 135.94 522.75 C 142.22 521.032 148.942 522.118 154.366 525.726 L 154.366 525.74 C 160.535 530.789 166.187 536.444 171.227 542.626 C 174.439 546.319 177.477 549.812 180.795 553.01 C 186.161 557.047 190.215 562.587 192.445 568.925 C 194.672 575.263 194.979 582.119 193.319 588.63 C 191.715 592.508 189.042 595.853 185.612 598.275 C 182.182 600.697 178.136 602.093 173.944 602.303 L 173.943 602.301 Z M 137.473 607.785 C 140.649 609.278 143.351 611.625 145.278 614.56 C 147.209 617.494 148.285 620.907 148.391 624.421 C 148.94 627.892 148.423 631.451 146.91 634.622 C 145.398 637.798 142.963 640.439 139.92 642.205 C 137.344 643.481 134.497 644.114 131.625 644.052 C 130.135 644.042 128.649 643.923 127.182 643.691 C 117.2 642.45 108.421 636.496 103.577 627.682 C 102.32 625.265 101.659 622.583 101.651 619.853 C 102.091 615.905 103.867 612.226 106.687 609.421 C 109.501 606.618 113.194 604.861 117.147 604.438 C 124.086 603.97 131.045 605.116 137.473 607.784 L 137.473 607.785 Z M 98.226 515.817 C 96.379 515.84 94.563 515.372 92.967 514.458 C 89.679 512.307 87.69 508.654 87.681 504.724 C 87.713 501.504 88.386 498.32 89.662 495.358 C 90.861 491.817 92.637 488.494 94.92 485.523 C 97.504 482.151 101.299 479.912 105.506 479.287 C 110.256 478.623 114.935 480.92 117.322 485.08 C 121.122 492.279 118.405 500.777 109.252 510.331 C 107.366 512.427 105.02 514.055 102.401 515.081 C 101.06 515.567 99.649 515.817 98.226 515.817 Z M 122.845 498.986 C 123.283 491.604 127.452 484.958 133.911 481.35 C 137.311 479.945 140.95 479.205 144.63 479.169 C 145.558 479.12 146.464 479.472 147.119 480.132 C 149.05 481.992 149.974 484.664 149.608 487.318 C 148.8 495.141 145.241 502.417 139.571 507.858 C 137.378 510.209 134.371 511.622 131.168 511.819 C 130.156 511.823 129.151 511.632 128.211 511.257 C 125.735 510.159 123.879 508.01 123.166 505.396 C 122.623 503.303 122.511 501.123 122.845 498.986 Z M 151.003 508.979 C 150.361 501.981 151.877 494.955 155.352 488.84 C 156.891 485.521 159.844 483.072 163.394 482.176 C 166.784 481.859 170.175 482.808 172.908 484.838 C 177.538 487.609 176.413 493.135 175.798 496.106 L 175.638 496.948 C 174.514 504.883 169.581 511.77 162.431 515.387 C 161.063 516.011 159.581 516.342 158.082 516.365 C 156.271 516.419 154.518 515.744 153.211 514.491 C 151.838 512.979 151.057 511.021 151.003 508.978 L 151.003 508.979 Z M 174.925 516.606 C 175.858 509.5 178.846 502.818 183.516 497.376 C 184.436 496.253 185.514 495.275 186.727 494.473 C 191.71 491.997 197.696 492.779 201.875 496.453 C 202.437 496.881 202.834 497.484 203.013 498.166 C 203.94 501.561 204.047 505.124 203.32 508.563 C 201.92 516.797 196.696 523.881 189.243 527.645 C 187.504 528.461 185.608 528.895 183.69 528.916 C 181.487 528.979 179.346 528.216 177.682 526.775 C 175.103 524.068 174.069 520.245 174.925 516.606 Z M 197.443 554.035 C 197.818 546.88 200.789 540.11 205.793 534.981 C 208.1 532.099 211.748 530.633 215.414 531.113 C 217.181 531.555 218.827 532.397 220.217 533.576 C 220.856 534.093 221.556 534.526 222.305 534.861 C 223.594 535.315 224.451 536.546 224.434 537.911 C 224.54 544.588 223.028 551.191 220.03 557.153 C 218.523 560.375 216.155 563.117 213.192 565.075 C 211.412 566.137 209.388 566.699 207.318 566.708 C 205.125 566.734 202.987 566.007 201.271 564.647 C 198.353 561.94 196.925 557.984 197.443 554.035 Z M 216.113 528.457 C 215.965 528.457 215.818 528.444 215.659 528.43 C 213.727 528.185 212.005 527.107 210.948 525.474 C 210.377 524.706 210.181 523.725 210.413 522.797 C 212.241 514.848 214.61 507.035 217.505 499.406 C 217.915 498.403 218.807 497.681 219.873 497.48 C 220.984 497.364 222.103 497.654 223.018 498.297 C 224.087 499.3 224.686 500.71 224.663 502.177 C 224.53 506.909 223.935 511.616 222.884 516.228 L 221.652 522.531 C 221.429 524.279 220.653 525.907 219.431 527.174 C 218.525 528.004 217.339 528.462 216.113 528.458 L 216.113 528.457 Z M 197.717 489.999 C 196.334 490.017 194.992 489.522 193.957 488.607 C 192.432 487.269 191.027 484.659 192.98 479.896 C 196.419 471.752 200.384 463.844 204.863 456.225 C 205.603 454.937 207.133 454.339 208.551 454.776 C 209.97 455.218 210.893 456.578 210.777 458.059 C 210.028 466.685 208.128 475.17 205.13 483.296 C 204.56 485.206 203.511 486.939 202.079 488.327 C 200.876 489.394 199.323 489.986 197.717 490 L 197.717 489.999 Z M 171.043 478.296 C 168.879 478.265 166.918 477.025 165.958 475.085 C 165.151 473.323 165.004 471.33 165.544 469.465 C 166.2 466.967 167.211 464.572 168.554 462.359 C 171.966 456.271 175.941 450.464 179.781 444.856 C 180.665 443.577 182.345 443.126 183.751 443.791 C 185.16 444.456 185.878 446.038 185.455 447.533 C 183.26 455.12 181.534 460.954 179.701 466.734 C 178.854 470.048 177.399 473.171 175.406 475.941 C 174.789 476.761 173.992 477.426 173.077 477.881 C 172.431 478.158 171.739 478.301 171.043 478.296 Z M 139.288 474.505 C 136.567 472.637 135.774 468.975 137.468 466.142 C 138.342 464.309 139.405 462.569 140.639 460.95 L 152.723 443.876 C 153.62 442.609 155.305 442.177 156.701 442.858 C 158.102 443.537 158.797 445.129 158.356 446.618 C 156.398 453.509 153.981 460.263 151.116 466.823 C 150.015 470.008 147.824 472.704 144.935 474.426 C 143.989 474.915 142.946 475.174 141.883 475.188 C 140.975 475.196 140.077 474.96 139.288 474.505 Z M 113.962 477.301 C 111.525 476.276 110.086 473.737 110.456 471.12 C 110.706 469.465 111.37 467.899 112.396 466.57 C 116.842 460.545 121.945 455.027 127.61 450.125 C 128.721 449.073 130.425 448.956 131.665 449.857 C 132.909 450.754 133.333 452.408 132.681 453.791 C 128.908 461.432 125.603 467.48 121.963 473.369 C 120.835 475.803 118.479 477.436 115.808 477.637 C 115.174 477.637 114.55 477.525 113.962 477.302 L 113.962 477.301 Z M 279.652 770.464 C 280.615 780.068 277.841 789.676 271.903 797.285 C 265.966 804.894 257.328 809.927 247.776 811.331 L 247.233 811.331 C 239.838 810.752 232.978 807.26 228.165 801.617 C 225.809 799.194 223.696 796.545 221.581 793.896 C 219.615 791.433 217.661 788.972 215.479 786.71 C 210.957 782.031 205.524 778.32 199.516 775.818 C 197.803 775.108 196.024 774.48 194.231 773.85 C 187.857 772.245 182.054 768.918 177.452 764.229 C 174.908 760.995 173.315 757.115 172.856 753.025 C 172.398 748.934 173.088 744.799 174.854 741.08 C 178.361 735.531 183.388 731.106 189.338 728.332 C 195.289 725.558 201.908 724.554 208.416 725.437 C 212.697 725.558 217.207 725.331 221.903 725.062 C 229.539 724.367 237.23 724.46 244.853 725.343 L 244.853 725.357 C 251.003 726.73 256.191 730.83 258.957 736.49 C 260.161 738.591 261.178 740.812 262.195 743.02 C 263.301 745.611 264.599 748.119 266.076 750.513 C 267.592 752.708 269.256 754.795 271.053 756.763 C 274.938 760.607 277.882 765.301 279.658 770.464 L 279.652 770.464 Z M 196.848 793.896 C 202.934 796.613 208.25 800.796 212.317 806.073 C 214.57 809.276 215.686 813.139 215.485 817.045 C 215.28 820.957 213.768 824.686 211.193 827.63 C 209.258 829.49 206.907 830.864 204.343 831.645 C 201.831 832.474 199.209 832.889 196.567 832.876 C 189.636 832.773 182.951 830.314 177.607 825.904 C 174.178 823.393 171.675 819.825 170.475 815.748 C 169.82 812.343 170.159 808.825 171.456 805.61 C 172.75 802.388 174.943 799.619 177.782 797.616 C 180.287 795.27 183.406 793.673 186.778 793.017 C 190.15 792.356 193.642 792.666 196.849 793.896 L 196.848 793.896 Z M 292.252 761.09 C 289.17 760.105 286.721 757.754 285.602 754.721 C 284.652 752.111 284.323 749.32 284.639 746.559 C 285.628 733.565 289.977 725.831 297.564 723.556 C 302.096 722.365 306.891 724.162 309.527 728.039 C 311.781 731.549 312.605 735.786 311.829 739.882 C 311.133 743.539 309.884 747.068 308.122 750.345 C 306.82 753.263 304.986 755.907 302.717 758.147 C 300.557 760.18 297.73 761.352 294.767 761.438 C 293.916 761.438 293.068 761.322 292.252 761.09 Z M 272.042 733.925 C 268.361 731.78 266.386 727.587 267.076 723.382 C 267.389 715.598 270.315 708.144 275.387 702.226 C 277.007 700.152 279.522 698.969 282.157 699.04 C 283.135 699.045 284.053 699.491 284.66 700.259 C 287.007 702.935 288.808 706.043 289.959 709.411 C 291.448 716.565 289.365 724.002 284.38 729.335 C 283.081 731.013 281.466 732.419 279.629 733.471 C 278.277 734.207 276.774 734.595 275.24 734.608 C 274.133 734.616 273.045 734.385 272.042 733.925 Z M 253.897 718.499 C 250.539 718.192 247.786 715.716 247.126 712.411 C 245.186 704.738 246.948 696.608 251.89 690.424 L 252.399 689.729 C 254.152 687.268 257.337 682.651 262.422 684.043 L 262.435 684.056 C 265.69 684.614 268.608 686.415 270.571 689.074 C 272.212 692.294 272.34 696.073 270.917 699.39 C 268.768 706.027 264.731 711.893 259.303 716.265 C 257.844 717.588 255.98 718.379 254.017 718.499 L 253.897 718.499 Z M 229.472 709.626 C 225.378 709.021 222.095 705.929 221.243 701.884 C 219.222 693.885 220.944 685.41 225.925 678.841 C 227.903 675.972 230.516 673.604 233.568 671.922 C 234.187 671.565 234.91 671.436 235.615 671.547 C 241.039 671.945 245.592 675.789 246.895 681.075 C 247.096 682.493 247.087 683.938 246.868 685.358 C 245.922 692.41 243.059 699.064 238.584 704.6 C 236.649 707.508 233.492 709.372 230.008 709.657 L 230.008 709.653 C 229.834 709.653 229.646 709.64 229.472 709.626 Z M 195.113 683.592 C 195.805 683.873 196.536 684.06 197.281 684.14 C 199.043 684.323 200.739 684.93 202.219 685.907 C 205.007 688.248 206.332 691.906 205.685 695.488 C 205.176 702.571 202.241 709.266 197.375 714.436 C 195.118 717.179 191.831 718.865 188.289 719.105 C 187.947 719.105 187.607 719.083 187.272 719.039 C 183.049 718.303 179.766 714.953 179.124 710.716 C 178.596 707.241 179.056 703.686 180.447 700.452 C 182.79 694.244 186.536 688.662 191.393 684.14 C 192.384 683.172 193.883 682.949 195.113 683.592 Z M 209.261 685.202 C 208.847 685.256 208.433 685.283 208.019 685.283 C 206.537 685.341 205.091 684.845 203.963 683.891 C 202.911 682.954 202.312 681.608 202.33 680.199 C 202.465 678.481 203.12 676.848 204.216 675.514 L 207.87 670.389 C 210.524 666.433 213.549 662.739 216.902 659.35 C 217.96 658.302 219.419 657.761 220.904 657.865 C 222.014 658.097 222.987 658.756 223.62 659.698 C 224.137 660.603 224.186 661.696 223.754 662.641 C 220.158 669.884 216.099 676.893 211.604 683.609 C 211.077 684.448 210.23 685.023 209.261 685.202 Z M 246.932 671.842 C 246.784 671.842 246.637 671.828 246.504 671.816 C 243.439 671.414 241.183 668.76 241.272 665.674 C 241.361 663.711 241.931 661.798 242.945 660.107 C 246.838 652.408 251.696 645.236 257.41 638.768 C 258.408 637.652 260.049 637.385 261.348 638.135 C 262.646 638.879 263.248 640.432 262.789 641.859 C 260.175 650.284 257.031 658.542 253.381 666.57 C 251.387 670.853 248.845 671.842 246.932 671.842 Z M 272.315 682.586 C 271.423 682.586 270.549 682.376 269.76 681.971 C 268.577 681.376 267.68 680.338 267.27 679.08 C 266.971 678.082 266.936 677.024 267.163 676.001 C 267.9 672.711 269.197 669.571 271.003 666.716 C 273.975 661.43 277.066 656.199 281.107 649.415 C 281.904 648.067 283.573 647.506 285.028 648.089 C 286.482 648.678 287.288 650.243 286.928 651.769 C 285.442 657.993 283.755 665.057 281.521 671.775 C 280.791 674.237 279.728 676.588 278.363 678.76 C 277.382 680.388 275.884 681.633 274.108 682.293 C 273.528 682.484 272.921 682.582 272.315 682.587 L 272.315 682.586 Z M 291.35 700.787 C 289.454 700.132 288.046 698.527 287.639 696.559 C 287.054 693.294 287.581 689.922 289.138 686.992 C 292.029 680.453 295.324 674.101 299.014 667.977 C 299.798 666.621 301.458 666.041 302.916 666.612 C 304.379 667.184 305.2 668.739 304.847 670.265 L 304.852 670.265 L 300.302 690.592 C 299.928 692.578 299.362 694.518 298.615 696.386 C 297.769 698.959 295.467 700.779 292.768 701.002 C 292.287 700.998 291.81 700.926 291.35 700.788 L 291.35 700.787 Z M 313.822 689.107 C 315.334 689.401 316.414 690.739 316.377 692.278 L 313.206 692.21 L 316.377 692.304 C 316.471 699.753 315.762 707.186 314.264 714.477 C 313.97 716.093 313.295 717.609 312.297 718.906 C 311.163 720.285 309.486 721.101 307.706 721.141 C 306.931 721.145 306.169 720.972 305.471 720.633 C 304.187 720.004 301.378 717.903 303.05 712.122 C 304.924 705.594 307.144 699.089 310.249 691.061 C 310.776 689.603 312.306 688.764 313.822 689.107 Z M 382.438 847.374 C 391.974 868.079 400.028 889.436 406.537 911.283 C 416.612 938.784 418.499 968.614 411.969 997.164 C 410.123 1004.28 406.501 1010.81 401.439 1016.15 C 395.778 1021.98 387.606 1024.65 379.6 1023.27 C 375.514 1022.17 371.66 1020.36 368.213 1017.9 C 365.487 1016 362.499 1014.51 359.34 1013.47 C 351.432 1012.69 343.512 1014.8 337.048 1019.41 C 330.549 1023.46 323.239 1026.02 315.638 1026.89 C 315.277 1026.91 314.916 1026.91 314.554 1026.91 C 303.951 1026.49 294.223 1020.93 288.474 1012.01 C 283.206 1003.48 279.954 993.854 278.974 983.864 C 271.042 922.966 295.41 862.327 343.283 823.843 C 344.269 823.021 345.66 822.888 346.789 823.508 C 347.914 824.11 348.569 825.333 348.448 826.599 C 347.551 836.181 345.838 845.748 344.179 855.008 C 342.895 862.233 341.557 869.687 340.635 877.047 C 337.771 893.337 339.144 910.09 344.635 925.688 C 345.798 928.604 346.936 930.114 348.301 930.584 C 350.576 931.364 353.734 928.884 355.568 926.21 C 360.509 917.869 363.105 908.345 363.088 898.644 C 363.952 882.31 362.119 865.944 357.655 850.203 L 357.066 848.156 C 354.849 842.171 353.975 835.774 354.51 829.409 C 354.723 827.982 355.87 826.879 357.307 826.72 C 363.565 826.336 369.659 828.822 373.873 833.464 C 377.495 837.586 380.394 842.292 382.437 847.381 L 382.438 847.374 Z M 571.806 920.933 C 573.706 926.032 574.74 931.404 574.869 936.844 C 576.475 959.504 576.511 982.244 574.976 1004.9 C 574.745 1034.13 566.28 1062.7 550.556 1087.34 C 546.484 1093.39 540.953 1098.34 534.471 1101.68 C 530.987 1103.36 527.183 1104.23 523.325 1104.25 C 519.319 1104.3 515.386 1103.22 511.978 1101.11 C 508.61 1098.7 505.705 1095.7 503.4 1092.26 C 501.594 1089.58 499.381 1087.19 496.843 1085.19 C 489.922 1081.8 481.968 1081.15 474.591 1083.38 C 467.293 1085.03 459.724 1084.99 452.445 1083.28 C 442.305 1079.53 434.821 1070.8 432.654 1060.2 C 430.771 1050.4 431.1 1040.3 433.618 1030.63 C 446.944 971.114 489.698 922.494 547.023 901.66 C 548.227 901.24 549.573 901.571 550.449 902.502 C 551.312 903.453 551.519 904.835 550.97 905.995 C 546.888 914.681 542.057 923.083 537.388 931.224 C 533.734 937.584 529.962 944.174 526.589 950.784 C 518.386 965.154 513.917 981.334 513.583 997.874 C 513.382 999.944 513.962 1002 515.215 1003.66 C 517.021 1005.15 520.621 1003.82 523.203 1001.92 C 530.594 995.684 536.213 987.614 539.5 978.504 C 545.879 963.444 549.81 947.454 551.129 931.154 L 551.29 928.994 C 551.32 922.65 552.704 916.379 555.345 910.599 C 556.023 909.314 557.495 908.658 558.905 909.019 C 564.819 910.773 569.587 915.17 571.804 920.928 L 571.806 920.933 Z M 369.635 521.046 C 368.922 521.046 368.227 520.805 367.669 520.368 C 354.969 509.047 348.203 492.499 349.336 475.527 C 349.818 464.327 351.36 453.199 353.939 442.288 L 353.939 442.285 C 354.875 437.708 355.812 433.132 356.574 428.556 C 359.448 411.531 360.135 394.202 358.609 376.999 L 358.488 375.607 C 355.608 363.679 357.908 351.088 364.832 340.949 C 365.643 340.039 366.914 339.69 368.084 340.053 C 369.247 340.4 370.108 341.385 370.305 342.581 L 376.802 382.911 C 380.251 374.647 382.504 365.935 383.494 357.032 C 384.489 344.427 388.61 332.268 395.484 321.653 C 396.174 320.756 397.286 320.293 398.409 320.44 C 399.529 320.583 400.491 321.31 400.93 322.349 C 404.24 333.041 404.266 344.473 401.01 355.173 C 399.27 362.127 398.533 369.29 398.829 376.45 L 398.833 376.45 L 412.669 336.975 C 413.745 333.456 416.291 330.569 419.649 329.067 C 421.497 328.456 423.526 328.772 425.1 329.909 C 427.477 331.961 428.561 335.132 427.933 338.207 C 426.773 352.077 424.294 365.808 420.537 379.206 C 419.756 381.659 419.454 384.242 419.654 386.806 C 428.213 373.777 439.115 362.445 451.809 353.38 C 452.723 352.752 453.901 352.632 454.926 353.06 C 455.948 353.505 456.661 354.455 456.799 355.561 C 456.966 367.298 452.973 378.712 445.533 387.784 C 441.403 393.622 438.115 400.01 435.765 406.758 C 440.328 403.887 444.522 400.456 448.251 396.549 C 454.455 388.746 463.483 383.699 473.381 382.498 L 473.407 382.498 C 474.958 382.503 476.288 383.627 476.538 385.16 C 478.331 396.268 469.486 405.327 463.037 411.95 C 442.537 432.879 425.315 456.782 411.947 482.844 L 410.141 486.403 C 406.764 493.771 402.536 500.721 397.55 507.105 C 390.765 515.632 380.565 520.736 369.677 521.047 L 369.636 521.047 L 369.635 521.046 Z M 259.731 366.838 C 246.02 340.705 228.433 316.796 207.557 295.931 C 200.961 289.321 191.915 280.261 193.748 269.128 C 194.002 267.603 195.327 266.479 196.879 266.479 L 196.891 266.479 C 206.928 267.638 216.113 272.669 222.491 280.502 C 226.349 284.462 230.693 287.924 235.416 290.792 C 233.003 284.012 229.635 277.612 225.421 271.777 C 217.829 262.763 213.744 251.313 213.914 239.528 C 214.052 238.428 214.756 237.476 215.773 237.027 C 216.789 236.581 217.967 236.697 218.878 237.334 C 231.845 246.388 243.018 257.771 251.823 270.907 C 252.059 268.302 251.756 265.675 250.939 263.186 C 247.103 249.787 244.571 236.049 243.379 222.16 C 242.773 219.068 243.887 215.888 246.296 213.849 C 247.907 212.721 249.958 212.43 251.823 213.06 C 255.168 214.568 257.719 217.422 258.835 220.915 L 273.085 260.698 C 273.446 253.45 272.706 246.183 270.89 239.154 C 267.562 228.452 267.589 216.989 270.97 206.302 C 271.412 205.272 272.362 204.55 273.478 204.402 C 274.592 204.26 275.699 204.709 276.389 205.594 C 283.397 216.173 287.608 228.355 288.634 241 C 289.651 249.988 291.993 258.779 295.579 267.081 L 302.256 226.535 C 302.458 225.349 303.314 224.371 304.47 224.024 C 305.623 223.676 306.877 224.011 307.702 224.888 C 314.758 234.997 317.124 247.655 314.178 259.626 L 314.059 260.978 C 312.502 278.179 313.206 295.507 316.146 312.524 C 316.922 317.1 317.886 321.663 318.837 326.226 C 321.462 337.141 323.033 348.278 323.532 359.491 C 324.653 376.557 317.716 393.159 304.799 404.359 C 304.246 404.801 303.563 405.037 302.859 405.028 L 302.806 405.028 C 291.771 404.733 281.409 399.648 274.424 391.099 C 269.326 384.72 265.004 377.757 261.552 370.357 L 259.732 366.838 L 259.731 366.838 Z M 684.553 211.853 C 685.034 211.755 685.538 211.777 686.011 211.919 C 700.235 215.411 712.853 223.641 721.778 235.26 C 725.498 239.6 727.274 245.28 726.69 250.97 C 725.945 254.37 724.179 257.46 721.617 259.82 C 719.058 262.183 715.833 263.696 712.384 264.16 C 709.187 264.508 705.954 264.361 702.804 263.723 C 693.585 262.291 684.418 261.033 675.213 259.949 C 672.968 259.574 670.685 259.566 668.441 259.918 C 664.025 260.949 662.097 264.668 659.863 268.978 C 659.142 270.355 658.432 271.706 657.656 272.979 C 656.063 275.966 653.097 277.977 649.734 278.344 C 649.546 278.358 649.346 278.358 649.158 278.358 C 647.826 278.331 646.509 278.059 645.278 277.553 C 640.716 275.881 636.974 272.513 634.827 268.152 C 632.687 263.795 632.308 258.772 633.771 254.137 C 637.125 245.543 642.642 237.954 649.788 232.112 C 659.141 222.104 671.228 215.061 684.552 211.853 L 684.553 211.853 Z M 720.2 222.781 C 719.099 222.294 718.377 221.229 718.327 220.029 C 718.261 203.833 725.099 188.373 737.129 177.53 C 740.728 174.76 745.718 174.702 749.385 177.382 C 751.972 179.545 753.191 182.935 752.57 186.254 C 751.571 192.076 749.21 197.575 745.677 202.307 C 742.207 207.571 738.43 212.621 734.357 217.427 C 732.925 219.292 731.151 220.858 729.125 222.045 C 727.435 222.963 725.549 223.46 723.626 223.477 C 722.449 223.495 721.28 223.253 720.2 222.781 Z M 689.29 198.093 C 684.433 197.659 680.454 194.065 679.535 189.279 C 677.266 182.311 675.904 175.086 675.494 167.775 C 674.834 163.735 675.294 159.595 676.828 155.803 C 678.362 152.012 680.909 148.711 684.192 146.272 C 684.562 146.027 684.973 145.862 685.409 145.777 C 688.211 145.121 691.15 145.424 693.76 146.633 C 695.66 147.806 697.118 149.582 697.894 151.678 C 700.445 158.445 701.551 165.675 701.146 172.901 C 702.011 182.157 698.398 191.274 691.432 197.424 C 690.869 197.857 690.182 198.094 689.477 198.094 L 689.29 198.094 L 689.29 198.093 Z M 636.307 181.057 C 634.911 178.76 633.762 176.329 632.868 173.79 C 631.687 169.46 631.754 164.883 633.052 160.583 C 634.354 156.289 636.844 152.443 640.228 149.492 C 640.796 148.947 641.544 148.63 642.33 148.607 C 646.379 148.188 650.417 149.539 653.396 152.314 C 655.256 154.374 656.585 156.855 657.276 159.539 C 660.197 168.63 662.482 177.912 664.115 187.319 C 665.443 192.984 665.327 198.894 663.779 204.501 C 663.053 207.276 660.666 209.292 657.811 209.55 L 657.491 209.55 C 655.537 209.466 653.703 208.573 652.432 207.088 C 649.06 203.26 646.18 199.037 643.841 194.505 L 636.307 181.057 Z M 635.064 233.024 C 634.688 233.028 634.309 233.011 633.938 232.971 C 631.472 232.609 629.122 231.712 627.047 230.334 C 617.119 224.273 608.3 216.552 600.981 207.506 C 597.774 204.236 595.753 199.994 595.227 195.449 C 595.307 189.534 599.38 184.422 605.129 183.017 C 605.463 182.933 605.811 182.893 606.159 182.896 C 610.013 183.432 613.591 185.203 616.356 187.941 C 626.927 197.767 635.702 209.361 642.288 222.197 C 643.653 224.317 643.814 226.997 642.717 229.263 C 640.991 231.76 638.091 233.184 635.064 233.024 Z M 684.312 300.257 C 681.244 305.055 675.913 307.924 670.221 307.843 C 668.406 307.87 666.608 307.51 664.949 306.786 C 662.483 305.587 660.412 303.704 658.981 301.367 C 656.648 298.468 655.975 294.569 657.202 291.05 C 659.249 287.58 662.59 285.059 666.489 284.039 C 667.88 283.571 669.311 283.182 670.729 282.807 C 672.5 282.37 674.24 281.826 675.949 281.174 C 677.206 280.671 678.647 281.013 679.548 282.031 C 685.475 288.868 687.082 294.997 684.312 300.257 Z M 727.405 268.422 C 732.058 271.196 735.671 275.415 737.695 280.438 C 738.967 282.909 738.945 285.844 737.641 288.292 C 735.938 291.102 733.043 292.981 729.787 293.39 C 725.861 293.774 721.9 293.163 718.278 291.611 C 716.138 290.62 713.77 290.228 711.428 290.474 C 710.398 290.8 709.416 291.254 708.511 291.838 C 706.789 292.936 704.871 293.676 702.864 294.019 C 702.468 294.073 702.07 294.099 701.672 294.099 C 699.51 294.108 697.418 293.346 695.772 291.946 C 693.694 290.17 692.427 287.623 692.266 284.893 C 692.39 281.182 693.614 277.591 695.785 274.577 C 697.958 271.561 700.973 269.264 704.457 267.967 C 711.804 264.745 720.193 264.911 727.405 268.421 L 727.405 268.422 Z M 471.548 198.939 C 476.017 183.978 485.478 171 498.351 162.158 C 498.789 161.833 499.306 161.628 499.849 161.569 C 514.012 160.821 528.04 164.674 539.833 172.555 C 548.739 176.798 556.416 183.251 562.125 191.299 C 564.94 195.705 566.131 200.96 565.484 206.152 C 564.833 211.344 562.394 216.143 558.579 219.72 C 557.402 220.813 555.983 221.616 554.445 222.063 C 550.943 222.69 547.365 221.447 545.011 218.784 C 543.846 217.645 542.737 216.389 541.612 215.13 C 538.08 211.117 535.041 207.598 530.532 207.958 C 528.289 208.271 526.126 209.012 524.163 210.139 C 515.585 214.3 507.128 218.623 499.033 223.011 C 496.161 224.738 493.02 225.964 489.746 226.651 C 488.957 226.776 488.159 226.839 487.364 226.839 C 484.117 226.811 480.941 225.88 478.193 224.149 C 475.447 222.414 473.237 219.953 471.815 217.03 C 469.526 211.237 469.433 204.804 471.548 198.939 Z M 437.897 169.89 C 432.941 165.795 428.972 160.634 426.283 154.8 C 424.721 151.606 424.801 147.86 426.497 144.737 C 429.003 140.66 434.132 139.064 438.512 140.99 C 453.942 149.545 465.274 163.949 469.959 180.96 C 470.23 182.045 469.914 183.19 469.128 183.985 C 467.371 185.6 465.052 186.469 462.666 186.402 C 461.795 186.407 460.93 186.308 460.082 186.108 C 457.714 185.422 455.506 184.275 453.58 182.735 C 448.099 178.77 442.862 174.479 437.897 169.89 Z M 488.356 147.156 C 479.485 142.325 473.253 133.77 471.375 123.845 C 468.708 116.191 467.477 108.104 467.75 100 C 467.785 97.626 468.579 95.321 470.025 93.429 C 472.103 91.298 474.89 89.999 477.866 89.79 C 478.357 89.736 478.856 89.795 479.324 89.95 C 487.549 93.599 493.254 101.302 494.337 110.236 C 496.274 118.279 497.273 126.512 497.322 134.778 C 497.389 142.806 493.829 145.964 490.832 147.182 C 490.038 147.512 489.14 147.504 488.356 147.156 Z M 517.256 146.117 C 514.014 140.532 512.068 134.291 511.57 127.852 C 510.116 117.124 509.339 106.312 509.254 95.482 C 509.044 92.475 509.508 89.46 510.605 86.65 C 512.444 82.832 515.919 80.054 520.053 79.103 C 520.883 78.858 521.775 78.961 522.529 79.384 C 531.221 84.112 536.78 93.073 537.155 102.961 C 537.106 105.95 536.78 108.925 536.177 111.846 L 533.288 128.787 C 532.511 134.417 531.111 139.939 529.099 145.245 C 528.377 147.307 526.74 148.916 524.67 149.609 C 524.193 149.733 523.701 149.796 523.212 149.796 C 520.727 149.663 518.487 148.275 517.257 146.116 L 517.256 146.117 Z M 550.827 168.451 C 548.785 168.522 546.799 167.756 545.341 166.323 C 543.695 164.312 543.076 161.644 543.668 159.11 C 545.801 143.311 550.484 127.958 557.532 113.654 C 558.95 110.792 562.376 105.693 566.243 104.769 C 566.587 104.693 566.943 104.662 567.3 104.675 C 573.358 104.801 578.62 108.886 580.239 114.725 C 581.145 119.627 580.575 124.685 578.593 129.258 C 574.592 141.202 568.629 152.389 560.944 162.363 C 559.436 164.517 557.443 166.279 555.124 167.501 C 553.776 168.121 552.309 168.446 550.827 168.451 Z M 538.836 261.604 C 534.816 261.585 530.967 259.95 528.157 257.072 C 526.03 254.097 524.794 250.573 524.598 246.925 C 524.397 243.271 525.244 239.637 527.038 236.453 C 527.595 235.119 528.943 234.302 530.383 234.413 C 532.221 234.584 534.077 234.619 535.923 234.525 L 535.923 234.521 C 537.421 234.467 538.881 234.441 540.324 234.507 C 544.527 234.418 548.577 236.085 551.5 239.11 C 553.653 242.402 554.188 246.496 552.957 250.23 C 552.391 253.103 551.034 255.766 549.05 257.911 C 546.406 260.373 542.903 261.703 539.295 261.604 L 538.836 261.604 Z M 498.793 229.164 C 502.696 229.609 506.384 231.193 509.395 233.713 C 512.41 236.234 514.618 239.587 515.742 243.348 C 516.491 246.372 515.983 249.566 514.337 252.206 C 513.012 254.289 510.88 255.726 508.45 256.166 C 506.353 256.452 504.217 256.256 502.204 255.591 C 501.175 255.279 500.108 255.097 499.034 255.057 C 496.718 255.525 494.609 256.702 492.997 258.429 C 490.059 261.269 486.388 263.237 482.401 264.103 C 479.234 264.606 476.005 263.675 473.596 261.559 C 471.348 259.383 470.291 256.252 470.759 253.157 C 471.035 247.3 473.108 241.671 476.7 237.032 C 482.303 230.912 490.577 227.964 498.793 229.164 Z M 507.619 519.117 C 506.639 517.945 505.822 516.642 505.198 515.247 C 502.374 509.617 500.925 503.399 500.97 497.101 C 501.005 490.557 503.208 484.21 507.231 479.049 C 508.837 476.815 511.174 475.208 513.842 474.513 C 517.344 474.138 520.854 475.178 523.596 477.389 C 529.172 481.917 532.196 488.88 531.693 496.042 L 531.693 496.047 L 531.786 497.212 C 532.286 501.686 531.906 506.222 530.662 510.553 C 529.345 515.268 526.18 519.256 521.883 521.607 C 520.135 522.471 518.212 522.927 516.263 522.931 C 512.968 522.962 509.815 521.575 507.619 519.117 Z M 537.422 486.026 C 535.081 483.619 533.644 480.474 533.354 477.128 C 532.6 473.639 532.261 470.071 532.35 466.503 C 532.528 463.957 532.974 461.427 533.675 458.97 C 534.87 453.541 537.395 448.492 541.022 444.278 C 544.996 439.673 551.204 437.675 557.12 439.098 C 558.265 439.46 559.118 440.427 559.328 441.615 C 560.442 447.262 560.849 453.023 560.545 458.769 C 560.388 466.602 558.172 474.254 554.122 480.955 C 552.538 483.582 550.25 485.706 547.511 487.084 C 546.151 487.726 544.666 488.055 543.162 488.06 C 541.066 488.092 539.028 487.374 537.422 486.026 Z M 577.388 497.045 C 574.305 495.77 571.946 493.21 570.924 490.033 C 568.52 483.49 567.449 476.528 567.766 469.56 C 567.36 461.299 568.948 453.061 572.396 445.541 C 575.113 440.456 579.288 437.86 583.302 438.89 C 586.424 440.051 588.904 442.489 590.114 445.594 C 597.206 459.114 597.41 475.207 590.662 488.896 C 589.568 491.22 588.025 493.304 586.125 495.024 C 584.395 496.538 582.186 497.398 579.889 497.447 C 579.038 497.45 578.194 497.312 577.388 497.045 Z M 603.901 491.952 C 608.906 488.714 613.79 488.714 616.627 491.925 C 618.858 494.754 619.82 498.376 619.291 501.935 C 617.609 512.104 612.465 521.377 604.732 528.188 C 602.341 530.763 599.374 532.734 596.074 533.928 C 594.981 534.258 593.852 534.425 592.714 534.425 C 589.579 534.491 586.596 533.082 584.659 530.61 C 582.028 526.204 581.893 520.749 584.298 516.213 C 588.148 506.284 594.998 497.8 603.901 491.952 Z M 586.168 538.849 C 589.963 540.915 593.255 543.787 595.815 547.266 C 598.098 551.023 599.018 555.442 598.428 559.796 C 597.836 564.145 595.766 568.163 592.563 571.165 C 589.066 574.14 584.588 575.715 579.997 575.58 C 575.115 575.442 570.306 574.333 565.853 572.316 L 565.853 572.32 C 564.569 571.785 563.272 571.21 561.987 570.635 C 558.289 567.891 553.887 566.263 549.297 565.933 C 544.703 565.608 540.113 566.597 536.068 568.787 C 534.515 569.443 532.949 570.099 531.357 570.648 C 526.706 572.423 521.63 572.789 516.772 571.705 C 511.41 570.406 506.977 566.651 504.823 561.576 C 503.543 557.627 503.408 553.399 504.431 549.376 C 505.451 545.357 507.592 541.709 510.603 538.854 C 515.234 534.549 520.592 531.097 526.421 528.656 L 528.615 527.587 C 531.108 526.565 533.344 524.994 535.146 522.992 C 536.296 521.292 537.207 519.437 537.848 517.479 C 538.419 515.891 539.088 514.344 539.855 512.837 C 542.206 508.348 546.154 504.906 550.926 503.196 C 555.694 501.483 560.931 501.632 565.601 503.604 C 568.893 505.602 571.596 508.442 573.426 511.832 C 575.254 515.223 576.146 519.036 576.011 522.886 C 576.177 526.057 576.94 529.166 578.26 532.051 C 580.356 534.879 583.055 537.204 586.169 538.849 L 586.168 538.849 Z M 524.096 439.884 C 525.314 440.548 525.97 441.918 525.715 443.282 C 523.917 451.896 523.516 460.744 524.525 469.483 C 524.668 470.637 524.163 471.775 523.213 472.439 C 522.679 472.823 522.035 473.029 521.38 473.029 C 520.894 473.029 520.411 472.921 519.974 472.708 C 517.045 471.271 513.776 470.675 510.528 470.982 C 509.554 471.089 508.597 470.732 507.932 470.017 C 507.258 469.322 506.941 468.353 507.075 467.395 C 508.444 457.199 513.11 447.734 520.362 440.432 C 521.354 439.46 522.866 439.237 524.096 439.884 Z M 561.915 437.04 C 561.491 437.04 561.073 436.96 560.685 436.8 C 558.676 436.019 556.606 435.395 554.502 434.939 C 552.748 434.499 551.035 434.07 549.443 433.521 C 548.614 433.231 547.942 432.612 547.583 431.808 C 547.231 431.011 547.227 430.1 547.569 429.293 C 550.469 421.143 554.804 413.583 560.375 406.959 C 561.781 405.072 564.131 404.144 566.452 404.563 C 568.039 404.951 569.074 406.482 568.846 408.096 L 565.06 434.324 C 564.913 435.292 564.328 436.145 563.481 436.626 C 563.004 436.902 562.464 437.045 561.915 437.04 Z M 578.186 411.953 C 578.449 410.683 579.462 409.697 580.743 409.466 C 582.026 409.234 583.321 409.822 583.994 410.938 C 588.12 417.685 591.014 425.112 592.544 432.869 C 592.781 434.041 592.34 435.251 591.403 435.99 C 590.462 436.732 589.186 436.884 588.103 436.375 C 584.922 434.961 581.313 434.863 578.067 436.107 C 576.987 436.509 575.779 436.281 574.922 435.518 C 574.066 434.76 573.678 433.604 573.905 432.481 L 578.186 411.953 Z M 608.572 456.636 C 609.781 456.395 611.021 456.863 611.77 457.843 C 617.132 465.149 620.115 473.933 620.32 483 C 620.343 484.17 619.728 485.258 618.716 485.838 C 618.237 486.11 617.698 486.252 617.145 486.252 C 616.546 486.252 615.963 486.082 615.463 485.757 C 611.93 484.174 607.939 483.96 604.264 485.164 C 603.157 485.458 601.983 485.124 601.199 484.294 C 600.409 483.483 600.11 482.31 600.422 481.216 C 602.537 473.776 604.464 466.31 606.137 459.03 C 606.413 457.83 607.362 456.894 608.572 456.635 L 608.572 456.636 Z M 693.23 612.762 C 688.351 608.76 684.497 603.658 681.989 597.868 C 679.363 591.878 678.796 585.192 680.369 578.841 C 680.929 576.147 682.413 573.728 684.572 572.02 C 687.623 570.253 691.249 569.768 694.661 570.67 C 701.606 572.547 707.199 577.694 709.649 584.465 L 710.184 585.47 C 712.463 589.354 713.957 593.648 714.586 598.115 C 715.291 602.962 714.011 607.891 711.04 611.786 C 708.725 614.609 705.282 616.263 701.632 616.308 C 700.031 616.312 698.452 615.964 697.004 615.291 C 695.635 614.622 694.367 613.775 693.23 612.762 Z M 696.392 549.777 C 695.269 544.33 695.523 538.684 697.142 533.358 C 698.887 527.528 703.765 523.17 709.761 522.091 C 710.947 521.966 712.107 522.496 712.785 523.482 C 716.099 528.187 718.811 533.281 720.868 538.656 C 723.904 545.882 724.984 553.778 723.998 561.552 C 723.614 564.59 722.393 567.458 720.466 569.835 C 718.637 571.989 715.97 573.252 713.146 573.301 C 712.352 573.305 711.563 573.194 710.804 572.967 C 707.673 571.735 705.076 569.443 703.471 566.49 C 701.365 563.609 699.617 560.486 698.252 557.19 C 697.387 554.791 696.762 552.305 696.392 549.777 Z M 733.595 511.263 C 736.932 510.99 740.214 512.22 742.547 514.621 C 754.513 524.091 761.236 538.712 760.625 553.961 C 760.572 556.527 760.014 559.055 758.98 561.402 C 757.695 564.323 754.991 566.37 751.834 566.807 C 751.553 566.833 751.284 566.847 751.017 566.847 C 747.967 566.655 745.111 565.283 743.055 563.02 C 738.202 558.011 734.393 552.083 731.856 545.584 C 728.117 538.202 726.231 530.027 726.355 521.752 C 726.743 515.998 729.526 511.97 733.595 511.262 L 733.595 511.263 Z M 773.96 551.398 C 777.238 546.406 781.693 544.412 785.574 546.219 C 788.764 547.887 791.122 550.805 792.091 554.275 C 794.665 564.253 793.724 574.811 789.428 584.169 C 788.296 587.505 786.378 590.516 783.834 592.946 C 781.831 594.691 779.272 595.662 776.622 595.69 C 775.03 595.702 773.464 595.306 772.073 594.539 C 767.876 591.572 765.538 586.63 765.904 581.505 C 765.382 570.878 768.201 560.351 773.96 551.398 Z M 743.677 577.581 C 752.99 577.834 757.446 585.113 761.033 590.976 C 762.469 593.807 764.431 596.341 766.813 598.442 C 769.869 600.164 773.268 601.18 776.768 601.425 C 781.086 601.788 785.27 603.08 789.039 605.226 C 792.638 607.733 795.271 611.4 796.492 615.61 C 797.719 619.826 797.465 624.33 795.77 628.376 C 793.348 632.462 789.802 635.758 785.55 637.869 C 781.301 639.982 776.532 640.821 771.818 640.286 C 770.399 640.312 769.007 640.299 767.549 640.312 C 761.332 639.536 755.025 640.62 749.431 643.431 C 747.126 645.058 745.029 646.964 743.195 649.105 C 742.031 650.347 740.854 651.592 739.61 652.757 C 736.081 656.268 731.599 658.663 726.724 659.648 C 725.697 659.822 724.659 659.908 723.619 659.903 C 719.186 659.952 714.907 658.284 711.684 655.245 C 708.913 652.15 707.076 648.341 706.38 644.247 C 705.679 640.157 706.153 635.949 707.737 632.109 C 710.229 626.293 713.731 620.963 718.079 616.36 L 719.632 614.5 C 721.483 612.556 722.888 610.227 723.739 607.675 C 724.106 605.632 724.177 603.545 723.953 601.479 C 723.837 599.821 723.815 598.152 723.886 596.488 C 724.258 591.448 726.488 586.72 730.141 583.227 C 733.798 579.736 738.618 577.723 743.677 577.581 Z M 677.369 570.318 C 676.468 569.953 675.781 569.196 675.509 568.263 C 672.623 558.383 673.038 547.838 676.7 538.223 C 677.138 536.87 678.475 536.022 679.884 536.215 C 681.272 536.309 682.437 537.303 682.749 538.663 C 684.613 547.254 687.838 555.493 692.302 563.07 C 692.9 564.07 692.905 565.315 692.316 566.322 C 691.71 567.317 690.617 567.906 689.452 567.874 C 686.184 567.665 682.931 568.454 680.125 570.131 C 679.648 570.408 679.109 570.55 678.56 570.546 C 678.15 570.546 677.748 570.466 677.369 570.318 Z M 700.206 520.111 C 699.422 520.111 698.664 519.822 698.079 519.294 C 697.424 518.71 697.045 517.871 697.036 516.993 C 696.38 508.362 697.281 499.686 699.685 491.368 C 700.206 489.08 701.986 487.283 704.275 486.737 C 705.889 486.377 707.495 487.39 707.875 489 L 715.06 514.505 C 715.323 515.45 715.136 516.463 714.551 517.247 C 713.967 518.038 713.052 518.51 712.076 518.532 C 709.917 518.635 707.767 518.906 705.653 519.348 C 703.873 519.656 702.146 519.964 700.474 520.098 L 700.206 520.111 Z M 725.498 511.718 C 725.178 511.722 724.861 511.673 724.562 511.571 C 723.465 511.241 722.635 510.34 722.395 509.216 L 717.978 488.715 C 717.702 487.445 718.236 486.133 719.321 485.411 C 720.4 484.688 721.818 484.697 722.89 485.438 C 729.383 489.943 735.044 495.549 739.603 502.008 C 740.293 502.976 740.382 504.256 739.83 505.314 C 739.389 506.477 738.197 507.182 736.967 507.009 L 736.779 507.009 C 733.363 507.067 730.102 508.444 727.679 510.849 C 727.09 511.41 726.311 511.718 725.498 511.718 Z M 768.387 545.495 C 767.33 545.071 766.581 544.121 766.42 542.993 C 765.363 535.472 764.092 527.872 762.634 520.392 C 762.402 519.179 762.893 517.944 763.891 517.221 C 764.895 516.499 766.225 516.419 767.303 517.02 C 775.176 521.524 781.47 528.345 785.328 536.556 C 785.831 537.613 785.707 538.862 785.007 539.795 C 784.32 540.749 783.152 541.231 781.996 541.039 C 778.124 540.981 774.377 542.417 771.532 545.04 C 770.97 545.486 770.278 545.727 769.565 545.722 C 769.159 545.722 768.762 545.647 768.387 545.495 Z M 1080.35 672.127 C 1081.66 676.967 1081.36 682.105 1079.5 686.766 C 1077.37 690.044 1074.38 692.672 1070.86 694.345 C 1067.32 696.016 1063.39 696.673 1059.52 696.241 C 1058.39 696.241 1057.2 696.201 1056.01 696.094 C 1048.35 695.892 1040.94 693.314 1034.8 688.719 C 1031.38 685.754 1028.61 682.105 1026.68 678.016 C 1019.92 661.462 1018.09 643.309 1021.44 625.749 C 1022.75 605.855 1027.73 586.372 1036.11 568.29 C 1037.31 565.046 1039.4 562.214 1042.14 560.122 C 1044.89 558.027 1048.18 556.764 1051.62 556.474 C 1053 556.532 1054.19 557.482 1054.55 558.816 C 1066.38 602.345 1074.57 638.354 1080.35 672.127 Z M 972.323 613.322 C 963.573 614.237 954.963 610.533 949.613 603.54 C 947.453 598.776 947.063 593.406 948.493 588.378 C 955.643 549.092 964.883 510.21 976.173 471.908 C 976.563 470.579 977.753 469.652 979.133 469.608 L 979.573 469.608 C 983.183 469.942 986.633 471.249 989.563 473.385 C 992.493 475.522 994.783 478.408 996.213 481.745 C 1005.78 500.211 1011.62 520.39 1013.39 541.117 C 1017.36 559.19 1015.5 578.058 1008.09 595.016 C 1005.91 599.253 1002.84 602.977 999.103 605.922 C 992.153 610.606 983.993 613.144 975.613 613.228 C 974.703 613.282 973.583 613.322 972.323 613.322 Z M 897.395 597.21 C 895.25 595.256 893.648 592.776 892.751 590.01 C 886.766 573.194 886.209 554.924 891.159 537.77 C 894.991 521.181 902.775 505.766 913.854 492.84 C 926.349 478.598 943.223 468.915 961.823 465.324 C 963.013 465.046 964.243 465.507 964.953 466.488 C 969.863 475.592 969.623 486.6 964.343 495.485 C 958.013 511.69 953.263 528.724 948.673 545.184 C 945.323 557.172 941.873 569.578 937.823 581.648 C 936.356 587.865 932.765 593.374 927.663 597.21 C 922.859 599.887 917.404 601.161 911.913 600.89 C 911.379 600.89 910.856 600.89 910.361 600.876 C 905.749 601.131 901.186 599.842 897.395 597.21 Z M 769.553 966.944 C 768.059 963.044 767.446 958.854 767.773 954.694 C 767.791 954.514 767.867 954.344 767.893 954.174 L 752.732 931.024 C 751.729 929.704 751.22 928.084 751.3 926.431 C 751.413 925.325 752.099 924.356 753.106 923.888 C 756.448 922.519 760.159 922.354 763.611 923.421 C 774.995 926.066 784.985 932.864 791.631 942.474 C 791.694 942.574 791.641 942.684 791.694 942.784 C 793.139 943.334 794.419 943.914 795.419 944.374 L 795.431 944.384 C 803.01 947.814 808.389 954.774 809.789 962.974 C 811.15 970.764 809.325 978.774 804.732 985.214 C 801.826 990.004 796.786 993.094 791.202 993.524 C 790.975 993.524 790.761 993.524 790.534 993.504 C 785.372 992.724 780.882 989.554 778.41 984.954 C 774.681 979.364 771.702 973.314 769.553 966.944 Z M 847.37 970.164 C 851.442 972.594 854.368 976.564 855.479 981.174 C 856.33 986.484 856.058 991.904 854.675 997.104 C 853.953 1002.74 851.474 1008.01 847.583 1012.16 C 843.992 1015.37 839.336 1017.13 834.523 1017.09 L 834.256 1017.09 C 829.752 1016.98 825.38 1015.56 821.664 1013.02 C 817.953 1010.73 815.032 1007.37 813.284 1003.38 C 811.535 999.384 811.039 994.954 811.87 990.674 C 813.279 985.774 815.924 981.304 819.55 977.704 C 820.59 976.574 821.593 975.774 822.606 974.844 C 822.463 974.474 822.172 974.174 822.186 973.744 L 822.949 947.564 C 822.989 946.094 824.037 944.854 825.478 944.554 C 830.278 944.064 835.016 945.964 838.15 949.634 C 843.151 955.434 846.353 962.574 847.37 970.164 Z M 774.095 999.074 C 774.649 1002.04 774.194 1005.1 772.798 1007.77 C 770.702 1011.08 767.227 1013.27 763.337 1013.72 C 762.445 1013.87 761.539 1013.93 760.634 1013.93 C 758.319 1013.88 756.017 1013.57 753.77 1013 C 749.537 1012.07 745.37 1010.85 741.299 1009.36 C 736.464 1008.03 732.227 1005.09 729.283 1001.03 C 726.995 996.414 726.432 991.144 727.703 986.154 C 728.158 983.524 728.845 980.944 729.747 978.434 C 726.887 972.404 724.978 965.964 724.091 959.354 C 723.15 951.664 725.156 943.904 729.712 937.634 C 730.246 936.924 731.057 936.484 731.946 936.404 C 732.828 936.324 733.708 936.624 734.367 937.214 C 740.335 942.784 745.197 949.434 748.685 956.824 L 748.681 956.824 C 750.006 959.174 751.518 961.854 753.338 964.994 C 753.387 965.074 753.333 965.164 753.373 965.244 C 758.057 969.614 762.24 974.474 765.853 979.754 C 770.051 985.474 772.87 992.084 774.097 999.074 L 774.095 999.074 Z M 756.022 1019.74 C 761.926 1021.07 766.971 1024.89 769.845 1030.22 C 771.468 1034.57 771.892 1039.28 771.07 1043.86 C 770.245 1048.42 768.212 1052.7 765.174 1056.2 C 762.467 1060.19 758.939 1063.54 754.829 1066.04 C 751.547 1067.99 747.819 1069.05 744.004 1069.11 C 742.685 1069.11 741.368 1068.96 740.083 1068.65 C 730.57 1066.35 726.489 1056.27 724.281 1050.85 C 722.193 1046.6 721.163 1041.91 721.283 1037.18 C 721.297 1037.04 721.377 1036.93 721.395 1036.8 C 721.341 1036.72 721.248 1036.68 721.203 1036.59 L 720.495 1035.17 C 717.894 1030.36 715.779 1025.3 714.178 1020.06 C 712.88 1015.73 710.11 1005.01 712.852 1000.78 C 713.755 999.374 715.601 998.924 717.055 999.744 C 721.765 1002.79 725.989 1006.54 729.593 1010.84 C 732.576 1014.33 735.975 1017.43 739.713 1020.08 C 740.553 1019.98 741.395 1019.88 742.211 1019.77 C 746.765 1018.85 751.458 1018.84 756.021 1019.74 L 756.022 1019.74 Z M 973.863 870.617 C 977.773 876.121 981.133 881.988 983.913 888.133 C 989.343 897.42 991.393 908.299 989.723 918.923 C 989.123 922.047 987.333 924.812 984.743 926.644 C 982.773 927.822 980.493 928.394 978.203 928.304 C 977.153 928.304 976.103 928.224 975.053 928.134 C 959.833 926.68 944.793 923.737 930.15 919.351 C 917.585 915.577 910.8 909.985 909.422 902.264 C 909.118 898.361 909.856 894.446 911.564 890.922 C 913.268 887.393 915.876 884.382 919.124 882.192 C 928.352 874.713 938.693 868.719 949.783 864.422 C 953.913 862.625 958.523 862.255 962.893 863.379 C 967.253 864.499 971.113 867.05 973.863 870.619 L 973.863 870.617 Z M 989.113 844.241 C 985.083 844.428 981.173 842.867 978.373 839.959 C 975.323 835.685 974.363 830.261 975.773 825.2 C 976.953 818.416 978.973 811.804 981.793 805.516 C 983.353 801.586 985.733 798.04 988.793 795.104 C 988.943 794.971 989.123 794.891 989.283 794.762 L 994.453 766.643 C 994.633 765.01 995.363 763.481 996.523 762.308 C 997.373 761.541 998.563 761.29 999.653 761.653 C 1002.97 763.016 1005.69 765.51 1007.34 768.69 C 1013.46 778.797 1015.78 790.752 1013.89 802.411 C 1013.87 802.554 1013.73 802.629 1013.68 802.767 C 1014.32 804.213 1014.82 805.556 1015.21 806.612 C 1018.12 814.512 1017.17 823.312 1012.64 830.403 C 1008.46 837.104 1001.79 841.868 994.103 843.652 C 992.463 844.031 990.783 844.232 989.113 844.241 Z M 918.6 869.702 C 916.013 870.286 913.368 870.591 910.718 870.613 C 908.68 870.622 906.65 870.398 904.67 869.943 C 899.674 868.878 895.308 865.867 892.533 861.581 C 889.245 853.743 889.648 844.845 893.631 837.334 C 895.018 832.731 897.458 828.511 900.763 825.009 L 900.758 825.009 C 900.879 824.898 901.048 824.862 901.169 824.756 C 901.191 824.639 901.102 824.537 901.137 824.421 L 901.565 822.976 C 903.028 817.516 905 812.204 907.452 807.107 C 909.969 801.915 914.947 792.909 919.576 791.691 C 920.375 791.473 921.232 791.579 921.953 791.99 C 922.681 792.405 923.207 793.088 923.43 793.885 C 924.613 799.475 925.004 805.199 924.595 810.894 C 924.3 815.612 924.559 820.35 925.374 825.001 C 926.009 825.498 926.651 825.996 927.271 826.469 C 931.097 828.989 934.38 832.258 936.923 836.077 C 940.103 841.268 941.003 847.546 939.413 853.419 C 937.693 857.733 934.857 861.516 931.204 864.374 C 927.547 867.238 923.198 869.076 918.6 869.704 L 918.6 869.702 Z M 1035.91 827.617 C 1039.67 830.69 1041.68 835.412 1041.29 840.248 C 1040.83 848.075 1038.23 855.626 1033.77 862.082 C 1034.97 866.751 1034.34 871.706 1032.01 875.921 C 1029.04 880.454 1025.2 884.334 1020.7 887.336 C 1016.46 891.078 1011.13 893.34 1005.51 893.785 L 1005.46 893.785 C 1000.63 893.705 996.053 891.676 992.743 888.165 C 989.653 884.886 987.583 880.783 986.763 876.349 C 985.753 872.068 985.993 867.585 987.453 863.433 C 988.923 859.28 991.553 855.635 995.023 852.933 C 999.253 850.211 1004.13 848.669 1009.16 848.463 C 1010.65 848.343 1011.88 848.437 1013.21 848.44 C 1013.35 848.061 1013.34 847.638 1013.63 847.327 L 1031.88 828.097 C 1032.93 826.991 1034.63 826.785 1035.91 827.615 L 1035.91 827.617 Z M 974.403 783.358 C 973.733 786.061 972.963 789.138 972.103 792.779 C 972.073 792.881 971.973 792.93 971.943 793.028 C 972.243 799.575 971.853 806.141 970.793 812.609 C 969.833 819.8 967.323 826.698 963.463 832.828 C 961.873 835.402 959.503 837.381 956.683 838.461 C 955.653 838.795 954.563 838.961 953.473 838.956 C 950.723 838.916 948.053 837.998 945.863 836.334 C 943.363 834.34 941.263 831.886 939.683 829.108 C 937.373 825.442 935.308 821.628 933.497 817.693 C 931.052 813.274 930.111 808.179 930.82 803.174 C 932.288 798.21 935.429 793.905 939.703 790.985 C 941.803 789.316 944.043 787.835 946.403 786.55 C 948.483 780.048 951.513 773.878 955.363 768.236 C 959.773 761.876 966.423 757.419 973.993 755.764 C 974.883 755.591 975.813 755.822 976.533 756.394 C 977.243 756.96 977.683 757.802 977.733 758.708 C 978.083 767.059 976.963 775.403 974.403 783.357 L 974.403 783.358 Z M 998.373 359.198 C 974.143 346.415 952.903 328.622 936.081 307.002 C 935.016 305.607 935.283 303.614 936.683 302.547 C 938.083 301.484 940.073 301.754 941.143 303.148 C 941.313 303.377 941.533 303.582 941.713 303.814 L 972.373 291.311 L 969.843 284.696 C 969.543 283.912 969.563 283.041 969.903 282.274 C 970.243 281.503 970.873 280.9 971.653 280.601 C 972.443 280.299 973.313 280.321 974.083 280.664 C 974.853 281.003 975.453 281.638 975.753 282.422 L 978.243 288.922 L 1007.66 276.927 C 1007.65 276.521 1007.68 276.11 1007.67 275.704 C 1007.63 273.955 1009.02 272.51 1010.77 272.465 L 1010.84 272.465 C 1012.56 272.47 1013.97 273.848 1014.01 275.57 C 1014.56 303.497 1011.74 331.388 1005.58 358.627 C 1005.53 358.864 1005.25 358.953 1005.15 359.167 L 1025.85 413.237 C 1026.15 414.021 1026.13 414.896 1025.79 415.663 C 1025.45 416.431 1024.82 417.033 1024.03 417.332 C 1023.67 417.474 1023.28 417.545 1022.9 417.545 C 1021.58 417.545 1020.41 416.738 1019.94 415.511 L 1019.93 415.516 L 998.373 359.199 L 998.373 359.198 Z M 854.621 345.885 C 833.822 327.269 817.315 304.35 806.235 278.725 C 805.552 277.115 806.307 275.26 807.921 274.577 C 809.531 273.898 811.387 274.653 812.069 276.263 L 812.069 276.259 C 812.18 276.531 812.341 276.784 812.457 277.052 L 847.431 272.346 L 846.365 261.45 C 846.197 259.709 847.471 258.159 849.21 257.984 C 850.058 257.849 850.923 258.087 851.584 258.631 C 852.248 259.175 852.645 259.979 852.676 260.834 L 852.676 260.839 L 853.72 271.503 L 883.074 267.551 C 883.169 267.16 883.293 266.766 883.387 266.374 C 883.81 264.684 885.5 263.636 887.2 264.006 C 888.909 264.411 889.966 266.116 889.574 267.819 C 883.186 294.765 873.578 320.841 860.96 345.485 L 860.964 345.485 L 866.69 404.041 C 866.856 405.784 865.58 407.337 863.84 407.506 L 863.533 407.52 C 861.895 407.525 860.532 406.284 860.374 404.656 L 860.37 404.656 L 854.621 345.885 Z M 864.841 721.022 C 865.594 719.443 867.485 718.769 869.069 719.522 C 870.648 720.278 871.322 722.173 870.568 723.753 C 858.647 748.663 839.524 769.427 815.679 783.353 C 815.593 783.402 815.5 783.383 815.415 783.423 C 814.233 788.137 812.855 792.825 811.732 797.549 C 811.384 798.981 810.108 799.985 808.64 799.985 C 808.39 799.985 808.145 799.957 807.904 799.905 C 806.2 799.488 805.152 797.785 805.549 796.078 L 805.549 796.082 C 806.793 790.855 808.31 785.667 809.631 780.448 C 799.714 770.139 792.844 757.289 789.786 743.315 C 786.65 728.617 785.933 713.51 787.657 698.581 C 787.845 696.859 789.362 695.588 791.096 695.703 C 791.936 695.78 792.706 696.181 793.247 696.828 C 793.787 697.474 794.05 698.31 793.974 699.143 C 793.951 699.379 793.951 699.58 793.933 699.817 L 829.464 710.691 C 830.977 705.928 832.311 701.066 833.877 696.338 C 834.429 694.674 836.226 693.772 837.89 694.331 C 839.549 694.884 840.452 696.681 839.897 698.345 L 839.897 698.34 C 838.345 703.019 837.026 707.828 835.531 712.543 L 864.604 721.436 C 864.675 721.294 864.773 721.165 864.841 721.022 Z M 691.677 843.739 C 691.623 843.824 691.525 843.855 691.467 843.93 C 692.533 848.671 693.416 853.48 694.54 858.19 C 694.933 859.899 693.885 861.603 692.185 862.018 C 691.941 862.071 691.695 862.098 691.45 862.098 C 689.978 862.098 688.702 861.093 688.359 859.662 L 688.354 859.662 C 687.114 854.444 686.129 849.123 684.955 843.872 C 671.467 839.131 659.554 830.755 650.53 819.666 C 641.109 807.961 633.661 794.799 628.464 780.699 C 627.828 779.08 628.616 777.243 630.235 776.597 C 631.855 775.949 633.692 776.731 634.353 778.345 L 634.348 778.345 C 634.437 778.568 634.526 778.746 634.615 778.965 L 671.239 772.653 C 670.446 767.725 669.446 762.796 668.715 757.872 C 668.586 757.042 668.795 756.196 669.295 755.521 C 669.794 754.843 670.544 754.397 671.378 754.273 C 672.213 754.115 673.073 754.317 673.755 754.822 C 674.442 755.325 674.883 756.093 674.976 756.935 L 674.976 756.94 C 675.704 761.815 676.694 766.699 677.485 771.583 L 707.458 766.418 C 707.453 766.257 707.484 766.096 707.48 765.941 C 707.458 765.102 707.771 764.285 708.35 763.675 C 708.93 763.068 709.729 762.712 710.571 762.689 C 711.416 762.658 712.239 762.965 712.85 763.55 C 713.463 764.13 713.814 764.937 713.823 765.78 C 714.402 793.398 706.687 820.553 691.677 843.739 Z M 467.083 622.199 C 468.341 621.472 469.929 621.695 470.941 622.738 C 471.949 623.782 472.119 625.38 471.351 626.615 C 446.484 666.597 424.25 708.159 404.78 751.033 C 404.263 752.165 403.134 752.892 401.889 752.892 L 401.889 752.889 C 401.742 752.889 401.581 752.875 401.434 752.861 C 400.034 752.652 398.942 751.55 398.745 750.144 C 396.831 736.255 395.881 722.057 394.877 707.03 C 393.941 686.908 391.787 666.864 388.428 647.003 C 386.447 634.362 382.356 622.14 376.331 610.846 C 375.564 609.512 375.867 607.818 377.053 606.832 C 378.239 605.846 379.961 605.86 381.135 606.858 C 385.51 610.633 390.399 613.763 395.654 616.16 C 397.478 616.279 399.298 616.502 401.1 616.827 C 403.745 617.537 406.528 617.577 409.195 616.934 C 411.992 615.507 414.404 613.429 416.234 610.874 L 424.731 600.971 C 425.497 600.106 426.672 599.713 427.808 599.94 C 428.946 600.186 429.857 601.032 430.177 602.149 C 432.537 610.409 437.996 617.439 445.418 621.766 C 452.07 625.682 460.281 625.842 467.083 622.194 L 467.083 622.199 Z M 467.723 753.057 C 455.641 759.159 444.226 764.94 432.544 769.588 C 432.169 769.74 431.768 769.815 431.365 769.815 C 430.229 769.812 429.18 769.205 428.614 768.219 C 428.048 767.234 428.052 766.02 428.623 765.038 C 452.419 724.289 473.509 682.018 491.756 638.498 C 492.308 637.096 493.789 636.299 495.262 636.611 C 496.723 636.883 497.804 638.132 497.858 639.62 C 498.276 648.412 502.363 656.625 509.124 662.262 C 514.91 667.173 522.484 669.443 530.017 668.52 C 530.137 668.506 530.254 668.497 530.369 668.497 C 530.654 668.453 530.949 668.493 531.229 668.439 C 532.296 668.239 533.394 668.595 534.134 669.39 C 534.879 670.179 535.165 671.299 534.883 672.346 L 531.431 685.675 C 530.303 689.034 529.884 692.589 530.2 696.113 C 531.016 699.261 532.461 702.21 534.442 704.783 C 535.598 706.496 536.662 708.262 537.64 710.082 C 541.913 714.231 546.752 717.745 552.012 720.534 C 553.351 721.25 554.001 722.812 553.564 724.266 C 553.149 725.747 551.713 726.697 550.192 726.501 C 538.863 725.708 527.497 727.331 516.845 731.265 C 499.94 737.278 483.517 744.566 467.722 753.063 L 467.723 753.057 Z"/>
</svg>