<!-- Generated by IcoMoon.io -->
<svg version="1.1" xmlns="http://www.w3.org/2000/svg" width="32" height="32" viewBox="0 0 32 32">
<path d="M29.538 15.514c0.26 0.333 0.442 0.721 0.534 1.134 0.117 0.427 0.109 0.879-0.021 1.303-0.016 0.057-0.046 0.109-0.087 0.152-0.075 0.055-0.167 0.081-0.26 0.073-0.129 0.010-0.258-0.020-0.369-0.086-0.109-0.094-0.184-0.222-0.214-0.362-0.236-0.742-0.385-1.509-0.654-2.241-0.117-0.206-0.129-0.455-0.032-0.671 0.436 0.101 0.825 0.347 1.103 0.698zM22.058 27.285c0.275 0.069 0.516 0.235 0.679 0.467 0.046 0.071 0.060 0.158 0.041 0.24-0.032 0.085-0.091 0.157-0.168 0.206-0.334 0.257-0.691 0.482-1.067 0.674-0.146 0.083-0.31 0.132-0.477 0.142-0.089 0.002-0.177-0.024-0.25-0.075-0.078-0.068-0.135-0.156-0.166-0.255s-0.032-0.205-0.005-0.305c0.053-0.314 0.153-0.619 0.298-0.903 0.052-0.11 0.137-0.202 0.243-0.261s0.229-0.083 0.35-0.069c0.178 0.029 0.353 0.075 0.522 0.138zM4.638 16.061c-0.007 0-0.014 0-0.020 0-0.175-0.013-0.345-0.068-0.494-0.16-0.048-0.024-0.095-0.049-0.143-0.071-0.168-0.075-0.349-0.117-0.533-0.124v0c-0.087-0.002-0.177 0.002-0.265 0.007-0.094 0.007-0.188 0.010-0.283 0.007-0.205 0.004-0.405-0.068-0.56-0.203-0.17-0.19-0.244-0.447-0.2-0.698 0.005-0.282 0.156-0.54 0.399-0.683 0.14-0.057 0.291-0.083 0.441-0.074 0.075 0.001 0.15-0.004 0.224-0.013 0.077-0.014 0.153-0.033 0.227-0.057v-0c0.065-0.019 0.129-0.039 0.195-0.052 0.167-0.046 0.347-0.017 0.491 0.079v0c0.165 0.135 0.315 0.285 0.45 0.45 0.086 0.098 0.167 0.192 0.255 0.277 0.143 0.108 0.251 0.255 0.311 0.424s0.068 0.352 0.023 0.525c-0.043 0.103-0.114 0.193-0.206 0.257s-0.199 0.102-0.311 0.107l-0-0zM3.666 16.208c0.085 0.040 0.157 0.102 0.208 0.181s0.080 0.169 0.083 0.263c0.015 0.093 0.001 0.187-0.039 0.272s-0.105 0.155-0.186 0.202c-0.069 0.034-0.145 0.051-0.221 0.049-0.040-0-0.079-0.003-0.118-0.010-0.266-0.033-0.5-0.192-0.629-0.427-0.034-0.064-0.051-0.136-0.051-0.209 0.012-0.105 0.059-0.203 0.134-0.278s0.174-0.122 0.279-0.133c0.185-0.012 0.371 0.018 0.542 0.089v0zM2.619 13.755c-0.049 0.001-0.098-0.012-0.14-0.036-0.088-0.057-0.141-0.155-0.141-0.26 0.001-0.086 0.019-0.171 0.053-0.25 0.032-0.094 0.079-0.183 0.14-0.262 0.069-0.090 0.17-0.15 0.282-0.166 0.127-0.018 0.251 0.044 0.315 0.154 0.101 0.192 0.029 0.419-0.215 0.673-0.050 0.056-0.113 0.099-0.183 0.127-0.036 0.013-0.073 0.020-0.111 0.020zM3.276 13.306c0.012-0.197 0.123-0.374 0.295-0.47 0.091-0.037 0.188-0.057 0.286-0.058 0.025-0.001 0.049 0.008 0.066 0.026 0.051 0.050 0.076 0.121 0.066 0.192-0.022 0.209-0.116 0.403-0.268 0.548-0.058 0.063-0.139 0.1-0.224 0.106-0.027 0-0.054-0.005-0.079-0.015-0.066-0.029-0.116-0.087-0.135-0.156-0.014-0.056-0.017-0.114-0.009-0.171zM4.027 13.573c-0.017-0.187 0.023-0.374 0.116-0.537 0.041-0.088 0.12-0.154 0.214-0.178 0.090-0.008 0.181 0.017 0.254 0.071 0.123 0.074 0.093 0.221 0.077 0.3l-0.004 0.022c-0.030 0.212-0.162 0.395-0.352 0.492-0.036 0.017-0.076 0.025-0.116 0.026-0.048 0.001-0.095-0.017-0.13-0.050-0.037-0.040-0.057-0.093-0.059-0.147v0zM4.665 13.776c0.025-0.19 0.105-0.368 0.229-0.513 0.025-0.030 0.053-0.056 0.086-0.077 0.133-0.066 0.292-0.045 0.404 0.053 0.015 0.011 0.026 0.027 0.030 0.046 0.025 0.091 0.028 0.186 0.008 0.277-0.037 0.22-0.177 0.408-0.375 0.509-0.046 0.022-0.097 0.033-0.148 0.034-0.059 0.002-0.116-0.019-0.16-0.057-0.069-0.072-0.096-0.174-0.074-0.271zM5.265 14.774c0.010-0.191 0.089-0.371 0.223-0.508 0.062-0.077 0.159-0.116 0.257-0.103 0.047 0.012 0.091 0.034 0.128 0.066 0.017 0.014 0.036 0.025 0.056 0.034 0.034 0.012 0.057 0.045 0.057 0.081 0.003 0.178-0.037 0.354-0.117 0.513-0.040 0.086-0.103 0.159-0.182 0.211-0.047 0.028-0.101 0.043-0.157 0.044-0.058 0.001-0.115-0.019-0.161-0.055-0.078-0.072-0.116-0.178-0.102-0.283zM5.763 14.092c-0.004 0-0.008-0-0.012-0.001-0.052-0.007-0.097-0.035-0.126-0.079-0.015-0.020-0.020-0.047-0.014-0.071 0.049-0.212 0.112-0.42 0.189-0.624 0.011-0.027 0.035-0.046 0.063-0.051 0.030-0.003 0.059 0.005 0.084 0.022 0.029 0.027 0.044 0.064 0.044 0.103-0.004 0.126-0.019 0.252-0.047 0.375l-0.033 0.168c-0.006 0.047-0.027 0.090-0.059 0.124-0.024 0.022-0.056 0.034-0.088 0.034v-0zM5.272 13.067c-0.037 0-0.073-0.013-0.1-0.037-0.041-0.036-0.078-0.105-0.026-0.232 0.092-0.217 0.197-0.428 0.317-0.631 0.020-0.034 0.061-0.050 0.098-0.039s0.062 0.048 0.059 0.088c-0.020 0.23-0.071 0.456-0.151 0.673-0.015 0.051-0.043 0.097-0.081 0.134-0.032 0.028-0.074 0.044-0.116 0.045v-0zM4.561 12.755c-0.058-0.001-0.11-0.034-0.136-0.086-0.022-0.047-0.025-0.1-0.011-0.15 0.018-0.067 0.044-0.13 0.080-0.19 0.091-0.162 0.197-0.317 0.299-0.467 0.024-0.034 0.068-0.046 0.106-0.028s0.057 0.060 0.045 0.1c-0.059 0.202-0.105 0.358-0.153 0.512-0.023 0.088-0.061 0.172-0.115 0.246-0.016 0.022-0.038 0.040-0.062 0.052-0.017 0.007-0.036 0.011-0.054 0.011zM3.714 12.653c-0.073-0.050-0.094-0.147-0.049-0.223 0.023-0.049 0.052-0.095 0.085-0.138l0.322-0.455c0.024-0.034 0.069-0.045 0.106-0.027s0.056 0.061 0.044 0.1c-0.052 0.184-0.117 0.364-0.193 0.539-0.029 0.085-0.088 0.157-0.165 0.203-0.025 0.013-0.053 0.020-0.081 0.020-0.024 0-0.048-0.006-0.069-0.018zM3.039 12.728c-0.065-0.027-0.103-0.095-0.094-0.165 0.007-0.044 0.024-0.086 0.052-0.121 0.119-0.161 0.255-0.308 0.406-0.439 0.030-0.028 0.075-0.031 0.108-0.007s0.044 0.068 0.027 0.105c-0.101 0.204-0.189 0.365-0.286 0.522-0.030 0.065-0.093 0.108-0.164 0.114-0.017 0-0.034-0.003-0.049-0.009v-0zM7.457 20.546c0.026 0.256-0.048 0.512-0.207 0.715s-0.389 0.337-0.643 0.375h-0.014c-0.197-0.015-0.38-0.109-0.508-0.259-0.063-0.065-0.119-0.135-0.176-0.206-0.052-0.066-0.105-0.131-0.163-0.192-0.121-0.125-0.265-0.224-0.426-0.29-0.046-0.019-0.093-0.036-0.141-0.052-0.17-0.043-0.325-0.132-0.447-0.257-0.068-0.086-0.11-0.19-0.123-0.299s0.006-0.219 0.053-0.319c0.094-0.148 0.228-0.266 0.386-0.34s0.335-0.101 0.509-0.077c0.114 0.003 0.234-0.003 0.36-0.010 0.204-0.019 0.409-0.016 0.612 0.008v0c0.164 0.037 0.302 0.146 0.376 0.297 0.032 0.056 0.059 0.115 0.086 0.174 0.029 0.069 0.064 0.136 0.104 0.2 0.040 0.059 0.085 0.114 0.133 0.167 0.104 0.102 0.182 0.228 0.229 0.365h-0zM5.249 21.171c0.162 0.072 0.304 0.184 0.412 0.325 0.060 0.085 0.090 0.188 0.084 0.293s-0.046 0.204-0.114 0.282c-0.052 0.050-0.114 0.086-0.183 0.107-0.067 0.022-0.137 0.033-0.207 0.033-0.185-0.003-0.363-0.068-0.506-0.186-0.091-0.067-0.158-0.162-0.19-0.271-0.017-0.091-0.008-0.185 0.026-0.27s0.093-0.16 0.169-0.213c0.067-0.063 0.15-0.105 0.24-0.123s0.183-0.009 0.269 0.023h-0zM7.793 20.296c-0.082-0.026-0.147-0.089-0.177-0.17-0.025-0.070-0.034-0.144-0.026-0.218 0.026-0.346 0.142-0.553 0.345-0.613 0.121-0.032 0.249 0.016 0.319 0.12 0.060 0.094 0.082 0.207 0.061 0.316-0.019 0.098-0.052 0.192-0.099 0.279-0.035 0.078-0.084 0.148-0.144 0.208-0.058 0.054-0.133 0.085-0.212 0.088-0.023 0-0.045-0.003-0.067-0.009zM7.254 19.571c-0.098-0.057-0.151-0.169-0.132-0.281 0.008-0.208 0.086-0.406 0.222-0.564 0.043-0.055 0.11-0.087 0.181-0.085 0.026 0 0.051 0.012 0.067 0.032 0.063 0.071 0.111 0.154 0.141 0.244 0.040 0.191-0.016 0.389-0.149 0.531-0.035 0.045-0.078 0.082-0.127 0.11-0.036 0.020-0.076 0.030-0.117 0.030-0.030 0-0.059-0.006-0.085-0.018zM6.771 19.16c-0.090-0.008-0.163-0.074-0.181-0.162-0.052-0.205-0.005-0.421 0.127-0.586l0.014-0.019c0.047-0.066 0.132-0.189 0.267-0.152l0 0c0.087 0.015 0.165 0.063 0.217 0.134 0.044 0.086 0.047 0.187 0.009 0.275-0.057 0.177-0.165 0.333-0.31 0.45-0.039 0.035-0.089 0.056-0.141 0.060h-0.003zM6.119 18.923c-0.109-0.016-0.197-0.099-0.219-0.206-0.054-0.213-0.008-0.439 0.125-0.614 0.053-0.076 0.122-0.14 0.204-0.184 0.016-0.010 0.036-0.013 0.055-0.010 0.145 0.011 0.266 0.113 0.301 0.254 0.005 0.038 0.005 0.076-0.001 0.114-0.025 0.188-0.102 0.366-0.221 0.513-0.052 0.078-0.136 0.127-0.229 0.135v-0c-0.005 0-0.010-0-0.014-0.001zM5.203 18.229c0.018 0.008 0.038 0.012 0.058 0.015 0.047 0.005 0.092 0.021 0.132 0.047 0.074 0.062 0.11 0.16 0.092 0.256-0.014 0.189-0.092 0.367-0.222 0.505-0.060 0.073-0.148 0.118-0.242 0.125-0.009 0-0.018-0.001-0.027-0.002-0.113-0.020-0.2-0.109-0.217-0.222-0.014-0.093-0.002-0.187 0.035-0.274 0.062-0.166 0.162-0.314 0.292-0.435 0.026-0.026 0.066-0.032 0.099-0.015zM5.58 18.272c-0.011 0.001-0.022 0.002-0.033 0.002-0.040 0.002-0.078-0.012-0.108-0.037-0.028-0.025-0.044-0.061-0.044-0.098 0.004-0.046 0.021-0.089 0.050-0.125l0.097-0.137c0.071-0.105 0.151-0.204 0.241-0.294 0.028-0.028 0.067-0.042 0.107-0.040 0.030 0.006 0.056 0.024 0.072 0.049 0.014 0.024 0.015 0.053 0.004 0.078-0.096 0.193-0.204 0.38-0.324 0.559-0.014 0.022-0.037 0.038-0.062 0.042zM6.585 17.916c-0.004 0-0.008-0-0.011-0.001-0.082-0.011-0.142-0.081-0.14-0.164 0.002-0.052 0.018-0.103 0.045-0.148 0.104-0.205 0.233-0.397 0.386-0.569 0.027-0.030 0.070-0.037 0.105-0.017s0.051 0.061 0.038 0.099c-0.070 0.225-0.154 0.445-0.251 0.659-0.053 0.114-0.121 0.141-0.172 0.141zM7.262 18.202c-0.024 0-0.047-0.006-0.068-0.016-0.032-0.016-0.055-0.044-0.066-0.077-0.008-0.027-0.009-0.055-0.003-0.082 0.020-0.088 0.054-0.171 0.102-0.248 0.079-0.141 0.162-0.28 0.269-0.461 0.021-0.036 0.066-0.051 0.105-0.035s0.060 0.057 0.051 0.098c-0.040 0.166-0.085 0.354-0.144 0.534-0.019 0.066-0.048 0.128-0.084 0.186-0.026 0.043-0.066 0.077-0.113 0.094-0.015 0.005-0.032 0.008-0.048 0.008v-0zM7.769 18.688c-0.051-0.017-0.088-0.060-0.099-0.113-0.016-0.087-0.002-0.177 0.040-0.255 0.077-0.174 0.165-0.344 0.263-0.507 0.021-0.036 0.065-0.052 0.104-0.036s0.061 0.057 0.052 0.097h0l-0.121 0.542c-0.010 0.053-0.025 0.105-0.045 0.154-0.023 0.069-0.084 0.117-0.156 0.123-0.013-0-0.026-0.002-0.038-0.006v-0zM8.369 18.376c0.040 0.008 0.069 0.044 0.068 0.085l-0.085-0.002 0.085 0.003c0.002 0.199-0.016 0.397-0.056 0.591-0.008 0.043-0.026 0.084-0.052 0.118-0.030 0.037-0.075 0.059-0.122 0.060-0.021 0-0.041-0.005-0.060-0.014-0.034-0.017-0.109-0.073-0.065-0.227 0.050-0.174 0.109-0.348 0.192-0.562 0.014-0.039 0.055-0.061 0.095-0.052zM10.198 22.597c0.254 0.552 0.469 1.122 0.643 1.704 0.269 0.733 0.319 1.529 0.145 2.29-0.049 0.19-0.146 0.364-0.281 0.506-0.151 0.155-0.369 0.227-0.582 0.19-0.109-0.029-0.212-0.078-0.304-0.143-0.073-0.051-0.152-0.090-0.237-0.118-0.211-0.021-0.422 0.035-0.594 0.158-0.173 0.108-0.368 0.176-0.571 0.199-0.010 0.001-0.019 0.001-0.029 0.001-0.283-0.011-0.542-0.159-0.695-0.397-0.14-0.227-0.227-0.484-0.253-0.751-0.212-1.624 0.438-3.241 1.715-4.267 0.026-0.022 0.063-0.025 0.094-0.009s0.047 0.049 0.044 0.082c-0.024 0.256-0.070 0.511-0.114 0.758-0.034 0.193-0.070 0.391-0.095 0.588-0.076 0.434-0.040 0.881 0.107 1.297 0.031 0.078 0.061 0.118 0.098 0.131 0.061 0.021 0.145-0.045 0.194-0.117 0.132-0.222 0.201-0.476 0.201-0.735 0.023-0.436-0.026-0.872-0.145-1.292l-0.016-0.055c-0.059-0.16-0.082-0.33-0.068-0.5 0.006-0.038 0.036-0.067 0.075-0.072 0.167-0.010 0.329 0.056 0.442 0.18 0.097 0.11 0.174 0.235 0.228 0.371l0-0zM15.248 24.558c0.051 0.136 0.078 0.279 0.082 0.424 0.043 0.604 0.044 1.211 0.003 1.815-0.006 0.779-0.232 1.541-0.651 2.198-0.109 0.161-0.256 0.293-0.429 0.382-0.093 0.045-0.194 0.068-0.297 0.069-0.107 0.001-0.212-0.027-0.303-0.084-0.090-0.064-0.167-0.144-0.229-0.236-0.048-0.071-0.107-0.135-0.175-0.189-0.185-0.090-0.397-0.108-0.593-0.048-0.195 0.044-0.396 0.043-0.591-0.003-0.27-0.1-0.47-0.333-0.528-0.615-0.050-0.261-0.041-0.531 0.026-0.789 0.355-1.587 1.495-2.884 3.024-3.439 0.032-0.011 0.068-0.002 0.091 0.022s0.029 0.062 0.014 0.093c-0.109 0.232-0.238 0.456-0.362 0.673-0.097 0.17-0.198 0.345-0.288 0.522-0.219 0.383-0.338 0.815-0.347 1.256-0.005 0.055 0.010 0.11 0.044 0.154 0.048 0.040 0.144 0.004 0.213-0.046 0.197-0.166 0.347-0.381 0.435-0.624 0.17-0.402 0.275-0.828 0.31-1.263l0.004-0.058c0.001-0.169 0.038-0.336 0.108-0.491 0.018-0.034 0.057-0.052 0.095-0.042 0.158 0.047 0.285 0.164 0.344 0.318l0 0zM9.857 13.895c-0.019 0-0.038-0.006-0.052-0.018-0.339-0.302-0.519-0.743-0.489-1.196 0.013-0.299 0.054-0.595 0.123-0.886v-0c0.025-0.122 0.050-0.244 0.070-0.366 0.077-0.454 0.095-0.916 0.054-1.375l-0.003-0.037c-0.077-0.318-0.015-0.654 0.169-0.924 0.022-0.024 0.056-0.034 0.087-0.024s0.054 0.036 0.059 0.067l0.173 1.075c0.092-0.22 0.152-0.453 0.178-0.69 0.027-0.336 0.136-0.66 0.32-0.943 0.018-0.024 0.048-0.036 0.078-0.032s0.056 0.023 0.067 0.051c0.088 0.285 0.089 0.59 0.002 0.875-0.046 0.185-0.066 0.376-0.058 0.567h0l0.369-1.053c0.029-0.094 0.097-0.171 0.186-0.211 0.049-0.016 0.103-0.008 0.145 0.022 0.063 0.055 0.092 0.139 0.076 0.221-0.031 0.37-0.097 0.736-0.197 1.093-0.021 0.065-0.029 0.134-0.024 0.203 0.228-0.347 0.519-0.65 0.857-0.891 0.024-0.017 0.056-0.020 0.083-0.009s0.046 0.037 0.050 0.067c0.004 0.313-0.102 0.617-0.3 0.859-0.11 0.156-0.198 0.326-0.26 0.506 0.122-0.077 0.234-0.168 0.333-0.272 0.165-0.208 0.406-0.343 0.67-0.375h0.001c0.041 0 0.077 0.030 0.084 0.071 0.048 0.296-0.188 0.538-0.36 0.714-0.547 0.558-1.006 1.196-1.362 1.89l-0.048 0.095c-0.090 0.196-0.203 0.382-0.336 0.552-0.181 0.227-0.453 0.364-0.743 0.372h-0.001l-0-0zM6.926 9.782c-0.366-0.697-0.835-1.334-1.391-1.891-0.176-0.176-0.417-0.418-0.368-0.715 0.007-0.041 0.042-0.071 0.083-0.071h0c0.268 0.031 0.513 0.165 0.683 0.374 0.103 0.106 0.219 0.198 0.345 0.274-0.064-0.181-0.154-0.351-0.267-0.507-0.202-0.24-0.311-0.546-0.307-0.86 0.004-0.029 0.022-0.055 0.050-0.067s0.059-0.009 0.083 0.008c0.346 0.241 0.644 0.545 0.879 0.895 0.006-0.069-0.002-0.14-0.024-0.206-0.102-0.357-0.17-0.724-0.202-1.094-0.016-0.082 0.014-0.167 0.078-0.222 0.043-0.030 0.098-0.038 0.147-0.021 0.089 0.040 0.157 0.116 0.187 0.209l0.38 1.061c0.010-0.193-0.010-0.387-0.059-0.574-0.089-0.285-0.088-0.591 0.002-0.876 0.012-0.027 0.037-0.047 0.067-0.051s0.059 0.008 0.078 0.032c0.187 0.282 0.299 0.607 0.327 0.944 0.027 0.24 0.090 0.474 0.185 0.696l0.178-1.081c0.005-0.032 0.028-0.058 0.059-0.067s0.064-0 0.086 0.023c0.188 0.27 0.251 0.607 0.173 0.926l-0.003 0.036c-0.042 0.459-0.023 0.921 0.056 1.375 0.021 0.122 0.046 0.244 0.072 0.365 0.070 0.291 0.112 0.588 0.125 0.887 0.030 0.455-0.155 0.898-0.5 1.196-0.015 0.012-0.033 0.018-0.052 0.018h-0.001c-0.294-0.008-0.571-0.143-0.757-0.371-0.136-0.17-0.251-0.356-0.343-0.553l-0.049-0.094h-0zM18.255 5.649c0.013-0.003 0.026-0.002 0.039 0.002 0.379 0.093 0.716 0.313 0.954 0.622 0.099 0.116 0.147 0.267 0.131 0.419-0.020 0.091-0.067 0.173-0.135 0.236s-0.154 0.103-0.246 0.116c-0.085 0.009-0.171 0.005-0.255-0.012-0.246-0.038-0.49-0.072-0.736-0.101-0.060-0.010-0.121-0.010-0.181-0.001-0.118 0.027-0.169 0.127-0.229 0.242-0.019 0.037-0.038 0.073-0.059 0.107-0.042 0.080-0.122 0.133-0.211 0.143-0.005 0-0.010 0-0.015 0-0.036-0.001-0.071-0.008-0.103-0.021-0.122-0.045-0.221-0.134-0.279-0.251s-0.067-0.25-0.028-0.374c0.089-0.229 0.237-0.432 0.427-0.587 0.249-0.267 0.572-0.455 0.927-0.54h0zM19.205 5.941c-0.029-0.013-0.049-0.041-0.050-0.073-0.002-0.432 0.181-0.844 0.501-1.133 0.096-0.074 0.229-0.075 0.327-0.004 0.069 0.058 0.102 0.148 0.085 0.237-0.027 0.155-0.090 0.302-0.184 0.428-0.093 0.14-0.193 0.275-0.302 0.403-0.038 0.050-0.085 0.091-0.14 0.123-0.045 0.024-0.095 0.038-0.147 0.038-0.031 0-0.063-0.006-0.091-0.019zM18.381 5.282c-0.13-0.012-0.236-0.107-0.26-0.235-0.061-0.186-0.097-0.378-0.108-0.573-0.018-0.108-0.005-0.218 0.036-0.319s0.109-0.189 0.196-0.254c0.010-0.007 0.021-0.011 0.032-0.013 0.075-0.018 0.153-0.009 0.223 0.023 0.051 0.031 0.090 0.079 0.11 0.135 0.068 0.18 0.098 0.373 0.087 0.566 0.023 0.247-0.073 0.49-0.259 0.654-0.015 0.012-0.033 0.018-0.052 0.018h-0.005v-0zM16.968 4.828c-0.037-0.061-0.068-0.126-0.092-0.194-0.032-0.115-0.030-0.238 0.005-0.352s0.101-0.217 0.191-0.296c0.015-0.015 0.035-0.023 0.056-0.024 0.108-0.011 0.216 0.025 0.295 0.099 0.050 0.055 0.085 0.121 0.103 0.193 0.078 0.242 0.139 0.49 0.182 0.741 0.035 0.151 0.032 0.309-0.009 0.458-0.019 0.074-0.083 0.128-0.159 0.135h-0.009c-0.052-0.002-0.101-0.026-0.135-0.066-0.090-0.102-0.167-0.215-0.229-0.336l-0.201-0.359zM16.935 6.214c-0.010 0-0.020-0-0.030-0.001-0.066-0.010-0.128-0.034-0.184-0.070-0.265-0.162-0.5-0.368-0.695-0.609-0.086-0.087-0.139-0.2-0.153-0.322 0.002-0.158 0.111-0.294 0.264-0.332 0.009-0.002 0.018-0.003 0.027-0.003 0.103 0.014 0.198 0.062 0.272 0.135 0.282 0.262 0.516 0.571 0.692 0.913 0.036 0.057 0.041 0.128 0.011 0.188-0.046 0.067-0.123 0.105-0.204 0.1zM18.248 8.007c-0.082 0.128-0.224 0.204-0.376 0.202-0.048 0.001-0.096-0.009-0.141-0.028-0.066-0.032-0.121-0.082-0.159-0.145-0.062-0.077-0.080-0.181-0.047-0.275 0.055-0.093 0.144-0.16 0.248-0.187 0.037-0.012 0.075-0.023 0.113-0.033 0.047-0.012 0.094-0.026 0.139-0.044 0.034-0.013 0.072-0.004 0.096 0.023 0.158 0.182 0.201 0.346 0.127 0.486zM19.397 7.158c0.124 0.074 0.22 0.186 0.274 0.32 0.034 0.066 0.033 0.144-0.001 0.209-0.045 0.075-0.123 0.125-0.209 0.136-0.105 0.010-0.21-0.006-0.307-0.047-0.057-0.026-0.12-0.037-0.183-0.030-0.027 0.009-0.054 0.021-0.078 0.036-0.046 0.029-0.097 0.049-0.151 0.058-0.011 0.001-0.021 0.002-0.032 0.002-0.058 0-0.113-0.020-0.157-0.057-0.055-0.047-0.089-0.115-0.093-0.188 0.003-0.099 0.036-0.195 0.094-0.275s0.138-0.142 0.231-0.176c0.196-0.086 0.42-0.082 0.612 0.012v0zM12.575 5.305c0.119-0.399 0.371-0.745 0.715-0.981 0.012-0.009 0.025-0.014 0.040-0.016 0.378-0.020 0.752 0.083 1.066 0.293 0.238 0.113 0.442 0.285 0.594 0.5 0.075 0.117 0.107 0.258 0.090 0.396s-0.082 0.266-0.184 0.362c-0.031 0.029-0.069 0.051-0.11 0.062-0.093 0.017-0.189-0.016-0.252-0.087-0.031-0.030-0.061-0.064-0.091-0.097-0.094-0.107-0.175-0.201-0.295-0.191-0.060 0.008-0.117 0.028-0.17 0.058-0.229 0.111-0.454 0.226-0.67 0.343-0.077 0.046-0.16 0.079-0.248 0.097-0.021 0.003-0.042 0.005-0.064 0.005-0.087-0.001-0.171-0.026-0.245-0.072s-0.132-0.112-0.17-0.19c-0.061-0.154-0.064-0.326-0.007-0.482zM11.677 4.53c-0.132-0.109-0.238-0.247-0.31-0.402-0.042-0.085-0.040-0.185 0.006-0.268 0.067-0.109 0.204-0.151 0.32-0.1 0.411 0.228 0.714 0.612 0.839 1.066 0.007 0.029-0.001 0.059-0.022 0.081-0.047 0.043-0.109 0.066-0.172 0.064-0.023 0-0.046-0.003-0.069-0.008-0.063-0.018-0.122-0.049-0.173-0.090-0.146-0.106-0.286-0.22-0.418-0.343zM13.023 3.924c-0.237-0.129-0.403-0.357-0.453-0.622-0.071-0.204-0.104-0.42-0.097-0.636 0.001-0.063 0.022-0.125 0.061-0.175 0.055-0.057 0.13-0.091 0.209-0.097 0.013-0.001 0.026 0 0.039 0.004 0.219 0.097 0.371 0.303 0.4 0.541 0.052 0.214 0.078 0.434 0.080 0.654 0.002 0.214-0.093 0.298-0.173 0.331-0.021 0.009-0.045 0.009-0.066-0.001zM13.793 3.896c-0.086-0.149-0.138-0.315-0.152-0.487-0.039-0.286-0.059-0.574-0.062-0.863-0.006-0.080 0.007-0.161 0.036-0.236 0.049-0.102 0.142-0.176 0.252-0.201 0.022-0.007 0.046-0.004 0.066 0.007 0.232 0.126 0.38 0.365 0.39 0.629-0.001 0.080-0.010 0.159-0.026 0.237l-0.077 0.452c-0.021 0.15-0.058 0.297-0.112 0.439-0.019 0.055-0.063 0.098-0.118 0.116-0.013 0.003-0.026 0.005-0.039 0.005-0.066-0.004-0.126-0.041-0.159-0.098l-0 0zM14.689 4.492c-0.054 0.002-0.107-0.019-0.146-0.057-0.044-0.054-0.060-0.125-0.045-0.192 0.057-0.421 0.182-0.831 0.37-1.212 0.038-0.076 0.129-0.212 0.232-0.237 0.009-0.002 0.019-0.003 0.028-0.002 0.162 0.003 0.302 0.112 0.345 0.268 0.024 0.131 0.009 0.266-0.044 0.388-0.107 0.318-0.266 0.617-0.471 0.883-0.040 0.057-0.093 0.104-0.155 0.137-0.036 0.017-0.075 0.025-0.115 0.025zM14.369 6.976c-0.107-0-0.21-0.044-0.285-0.121-0.057-0.079-0.090-0.173-0.095-0.271s0.017-0.194 0.065-0.279c0.015-0.036 0.051-0.057 0.089-0.054 0.049 0.005 0.098 0.005 0.148 0.003v-0c0.040-0.001 0.079-0.002 0.117-0 0.112-0.002 0.22 0.042 0.298 0.123 0.057 0.088 0.072 0.197 0.039 0.297-0.015 0.077-0.051 0.148-0.104 0.205-0.070 0.066-0.164 0.101-0.26 0.098h-0.012zM13.301 6.111c0.104 0.012 0.202 0.054 0.283 0.121s0.139 0.157 0.169 0.257c0.020 0.081 0.006 0.166-0.037 0.236-0.035 0.056-0.092 0.094-0.157 0.106-0.056 0.008-0.113 0.002-0.167-0.015-0.027-0.008-0.056-0.013-0.085-0.014-0.062 0.012-0.118 0.044-0.161 0.090-0.078 0.076-0.176 0.128-0.283 0.151-0.084 0.013-0.171-0.011-0.235-0.068-0.060-0.058-0.088-0.142-0.076-0.224 0.007-0.156 0.063-0.306 0.158-0.43 0.149-0.163 0.37-0.242 0.589-0.21zM13.537 13.843c-0.026-0.031-0.048-0.066-0.065-0.103-0.075-0.15-0.114-0.316-0.113-0.484 0.001-0.175 0.060-0.344 0.167-0.481 0.043-0.060 0.105-0.102 0.176-0.121 0.093-0.010 0.187 0.018 0.26 0.077 0.149 0.121 0.229 0.306 0.216 0.497v0l0.002 0.031c0.013 0.119 0.003 0.24-0.030 0.356-0.035 0.126-0.12 0.232-0.234 0.295-0.047 0.023-0.098 0.035-0.15 0.035-0.088 0.001-0.172-0.036-0.23-0.102zM14.331 12.961c-0.062-0.064-0.101-0.148-0.108-0.237-0.020-0.093-0.029-0.188-0.027-0.283 0.005-0.068 0.017-0.135 0.035-0.201 0.032-0.145 0.099-0.279 0.196-0.392 0.106-0.123 0.272-0.176 0.429-0.138 0.031 0.010 0.053 0.035 0.059 0.067 0.030 0.151 0.041 0.304 0.032 0.457-0.004 0.209-0.063 0.413-0.171 0.592-0.042 0.070-0.103 0.127-0.176 0.163-0.036 0.017-0.076 0.026-0.116 0.026-0.056 0.001-0.11-0.018-0.153-0.054zM15.397 13.255c-0.082-0.034-0.145-0.102-0.172-0.187-0.064-0.174-0.093-0.36-0.084-0.546-0.011-0.22 0.032-0.44 0.123-0.64 0.072-0.136 0.184-0.205 0.291-0.177 0.083 0.031 0.149 0.096 0.182 0.179 0.189 0.361 0.195 0.79 0.015 1.155-0.029 0.062-0.070 0.118-0.121 0.163-0.046 0.040-0.105 0.063-0.166 0.065-0.023 0-0.045-0.004-0.067-0.011zM16.104 13.119c0.133-0.086 0.264-0.086 0.339-0.001 0.059 0.075 0.085 0.172 0.071 0.267-0.045 0.271-0.182 0.518-0.388 0.7-0.064 0.069-0.143 0.121-0.231 0.153-0.029 0.009-0.059 0.013-0.090 0.013-0.084 0.002-0.163-0.036-0.215-0.102-0.070-0.117-0.074-0.263-0.010-0.384 0.103-0.265 0.285-0.491 0.523-0.647zM15.631 14.369c0.101 0.055 0.189 0.132 0.257 0.224 0.061 0.1 0.085 0.218 0.070 0.334s-0.071 0.223-0.156 0.303c-0.093 0.079-0.213 0.121-0.335 0.118-0.13-0.004-0.258-0.033-0.377-0.087v0c-0.034-0.014-0.069-0.030-0.103-0.045-0.099-0.073-0.216-0.117-0.338-0.125s-0.245 0.018-0.353 0.076c-0.041 0.018-0.083 0.035-0.126 0.050-0.124 0.047-0.259 0.057-0.389 0.028-0.143-0.035-0.261-0.135-0.319-0.27-0.034-0.105-0.038-0.218-0.010-0.325s0.084-0.204 0.165-0.281c0.123-0.115 0.266-0.207 0.422-0.272l0.059-0.028c0.066-0.027 0.126-0.069 0.174-0.123 0.031-0.045 0.055-0.095 0.072-0.147 0.015-0.042 0.033-0.084 0.054-0.124 0.063-0.12 0.168-0.211 0.295-0.257s0.267-0.042 0.391 0.011c0.088 0.053 0.16 0.129 0.209 0.219s0.073 0.192 0.069 0.295c0.004 0.085 0.025 0.167 0.060 0.244 0.056 0.075 0.128 0.137 0.211 0.181h-0zM13.976 11.73c0.032 0.018 0.050 0.054 0.043 0.091-0.048 0.23-0.059 0.466-0.032 0.699 0.004 0.031-0.010 0.061-0.035 0.079-0.014 0.010-0.031 0.016-0.049 0.016-0.013 0-0.026-0.003-0.037-0.009-0.078-0.038-0.165-0.054-0.252-0.046-0.026 0.003-0.052-0.007-0.069-0.026s-0.026-0.044-0.023-0.070c0.037-0.272 0.161-0.524 0.354-0.719 0.026-0.026 0.067-0.032 0.1-0.015zM14.984 11.654c-0.011 0-0.022-0.002-0.033-0.006-0.054-0.021-0.109-0.037-0.165-0.050-0.047-0.012-0.092-0.023-0.135-0.038-0.022-0.008-0.040-0.024-0.050-0.046s-0.009-0.046-0-0.067c0.077-0.217 0.193-0.419 0.341-0.596 0.037-0.050 0.1-0.075 0.162-0.064 0.042 0.010 0.070 0.051 0.064 0.094l-0.101 0.699c-0.004 0.026-0.020 0.049-0.042 0.061-0.013 0.007-0.027 0.011-0.042 0.011zM15.418 10.985c0.007-0.034 0.034-0.060 0.068-0.066s0.069 0.009 0.087 0.039c0.11 0.18 0.187 0.378 0.228 0.585 0.006 0.031-0.005 0.064-0.030 0.083s-0.059 0.024-0.088 0.010c-0.085-0.038-0.181-0.040-0.268-0.007-0.029 0.011-0.061 0.005-0.084-0.016s-0.033-0.051-0.027-0.081l0.114-0.547zM16.229 12.177c0.032-0.006 0.065 0.006 0.085 0.032 0.143 0.195 0.223 0.429 0.228 0.671 0.001 0.031-0.016 0.060-0.043 0.076-0.013 0.007-0.027 0.011-0.042 0.011-0.016 0-0.032-0.005-0.045-0.013-0.094-0.042-0.201-0.048-0.299-0.016-0.030 0.008-0.061-0.001-0.082-0.023s-0.029-0.053-0.021-0.082c0.056-0.198 0.108-0.398 0.152-0.592 0.007-0.032 0.033-0.057 0.065-0.064v0zM18.486 16.34c-0.13-0.107-0.233-0.243-0.3-0.397-0.070-0.16-0.085-0.338-0.043-0.507 0.015-0.072 0.055-0.136 0.112-0.182 0.081-0.047 0.178-0.060 0.269-0.036 0.185 0.050 0.334 0.187 0.4 0.368l0.014 0.027c0.061 0.104 0.101 0.218 0.117 0.337 0.019 0.129-0.015 0.261-0.095 0.365-0.062 0.075-0.154 0.119-0.251 0.121-0.043 0-0.085-0.009-0.123-0.027-0.037-0.018-0.070-0.040-0.101-0.067zM18.57 14.661c-0.030-0.145-0.023-0.296 0.020-0.438 0.047-0.155 0.177-0.272 0.337-0.3 0.032-0.003 0.063 0.011 0.081 0.037 0.088 0.125 0.161 0.261 0.216 0.405 0.081 0.193 0.11 0.403 0.083 0.611-0.010 0.081-0.043 0.158-0.094 0.221-0.049 0.057-0.12 0.091-0.195 0.092-0.021 0-0.042-0.003-0.062-0.009-0.084-0.033-0.153-0.094-0.196-0.173-0.056-0.077-0.103-0.16-0.139-0.248-0.023-0.064-0.040-0.13-0.050-0.198zM19.563 13.634c0.089-0.007 0.177 0.026 0.239 0.090 0.319 0.253 0.498 0.642 0.482 1.049-0.001 0.068-0.016 0.136-0.044 0.198-0.034 0.078-0.106 0.132-0.191 0.144-0.008 0.001-0.015 0.001-0.022 0.001-0.081-0.005-0.157-0.042-0.212-0.102-0.129-0.134-0.231-0.292-0.299-0.465-0.1-0.197-0.15-0.415-0.147-0.636 0.010-0.153 0.085-0.261 0.193-0.28v0zM20.639 14.704c0.087-0.133 0.206-0.186 0.31-0.138 0.085 0.044 0.148 0.122 0.174 0.215 0.069 0.266 0.044 0.548-0.071 0.797-0.030 0.089-0.081 0.169-0.149 0.234-0.053 0.047-0.122 0.072-0.192 0.073-0.042 0-0.084-0.010-0.121-0.031-0.112-0.079-0.174-0.211-0.165-0.348-0.014-0.283 0.061-0.564 0.215-0.803zM19.831 15.402c0.248 0.007 0.367 0.201 0.463 0.357 0.038 0.075 0.091 0.143 0.154 0.199 0.081 0.046 0.172 0.073 0.265 0.080 0.115 0.010 0.227 0.044 0.327 0.101 0.096 0.067 0.166 0.165 0.199 0.277s0.026 0.233-0.019 0.34c-0.065 0.109-0.159 0.197-0.273 0.253s-0.24 0.079-0.366 0.064c-0.038 0.001-0.075 0-0.114 0.001-0.166-0.021-0.334 0.008-0.483 0.083-0.061 0.043-0.117 0.094-0.166 0.151-0.031 0.033-0.062 0.066-0.096 0.097-0.094 0.094-0.214 0.157-0.344 0.184-0.027 0.005-0.055 0.007-0.083 0.007-0.118 0.001-0.232-0.043-0.318-0.124-0.074-0.083-0.123-0.184-0.141-0.293s-0.006-0.221 0.036-0.324c0.066-0.155 0.16-0.297 0.276-0.42l0.041-0.050c0.049-0.052 0.087-0.114 0.11-0.182 0.010-0.054 0.012-0.11 0.006-0.165-0.003-0.044-0.004-0.089-0.002-0.133 0.010-0.134 0.069-0.26 0.167-0.354s0.226-0.147 0.361-0.151zM18.063 15.208c-0.024-0.010-0.042-0.030-0.050-0.055-0.077-0.263-0.066-0.545 0.032-0.801 0.012-0.036 0.047-0.059 0.085-0.054 0.037 0.002 0.068 0.029 0.076 0.065 0.050 0.229 0.136 0.449 0.255 0.651 0.016 0.027 0.016 0.060 0 0.087s-0.045 0.042-0.076 0.041c-0.087-0.006-0.174 0.015-0.249 0.060-0.013 0.007-0.027 0.011-0.042 0.011-0.011 0-0.022-0.002-0.032-0.006zM18.672 13.87c-0.021 0-0.041-0.008-0.057-0.022-0.017-0.016-0.028-0.038-0.028-0.061-0.017-0.23 0.007-0.462 0.071-0.683 0.014-0.061 0.061-0.109 0.122-0.123 0.043-0.010 0.086 0.017 0.096 0.060l0.192 0.68c0.007 0.025 0.002 0.052-0.014 0.073s-0.040 0.034-0.066 0.034c-0.058 0.003-0.115 0.010-0.171 0.022-0.047 0.008-0.094 0.016-0.138 0.020l-0.007 0zM19.347 13.646c-0.009 0-0.017-0.001-0.025-0.004-0.029-0.009-0.051-0.033-0.058-0.063l-0.118-0.547c-0.007-0.034 0.007-0.069 0.036-0.088s0.067-0.019 0.095 0.001c0.173 0.12 0.324 0.27 0.446 0.442 0.018 0.026 0.021 0.060 0.006 0.088-0.012 0.031-0.044 0.050-0.076 0.045h-0.005c-0.091 0.002-0.178 0.038-0.243 0.102-0.016 0.015-0.036 0.023-0.058 0.023zM20.49 14.547c-0.028-0.011-0.048-0.037-0.052-0.067-0.028-0.201-0.062-0.403-0.101-0.603-0.006-0.032 0.007-0.065 0.034-0.085s0.062-0.021 0.091-0.005c0.21 0.12 0.378 0.302 0.481 0.521 0.013 0.028 0.010 0.062-0.009 0.086s-0.049 0.038-0.080 0.033c-0.103-0.002-0.203 0.037-0.279 0.107-0.015 0.012-0.033 0.018-0.052 0.018-0.011 0-0.021-0.002-0.031-0.006zM28.809 17.923c0.035 0.129 0.027 0.266-0.023 0.39-0.057 0.087-0.137 0.157-0.23 0.202s-0.199 0.062-0.302 0.051c-0.030 0-0.062-0.001-0.094-0.004-0.204-0.005-0.402-0.074-0.566-0.197-0.091-0.079-0.165-0.176-0.217-0.285-0.18-0.441-0.229-0.926-0.14-1.394 0.035-0.53 0.168-1.050 0.391-1.532 0.032-0.086 0.088-0.162 0.161-0.218s0.161-0.090 0.253-0.097c0.037 0.002 0.069 0.027 0.078 0.062 0.315 1.161 0.534 2.121 0.688 3.022zM25.929 16.355c-0.233 0.024-0.463-0.074-0.606-0.261-0.058-0.127-0.068-0.27-0.030-0.404 0.191-1.048 0.437-2.084 0.738-3.106 0.010-0.035 0.042-0.060 0.079-0.061h0.012c0.096 0.009 0.188 0.044 0.266 0.101s0.139 0.134 0.177 0.223c0.255 0.492 0.411 1.031 0.458 1.583 0.106 0.482 0.056 0.985-0.141 1.437-0.058 0.113-0.14 0.212-0.24 0.291-0.185 0.125-0.403 0.193-0.626 0.195-0.024 0.001-0.054 0.003-0.088 0.003zM23.931 15.926c-0.057-0.052-0.1-0.118-0.124-0.192-0.16-0.448-0.174-0.936-0.042-1.393 0.102-0.442 0.31-0.853 0.605-1.198 0.333-0.38 0.783-0.638 1.279-0.734 0.032-0.007 0.065 0.005 0.083 0.031 0.131 0.243 0.125 0.536-0.016 0.773-0.169 0.432-0.295 0.886-0.418 1.325-0.089 0.32-0.181 0.65-0.289 0.972-0.039 0.166-0.135 0.313-0.271 0.415-0.128 0.071-0.274 0.105-0.42 0.098-0.014 0-0.028 0-0.041-0-0.123 0.007-0.245-0.028-0.346-0.098zM20.521 25.785c-0.040-0.104-0.056-0.216-0.047-0.327 0-0.005 0.003-0.009 0.003-0.014l-0.404-0.617c-0.027-0.035-0.040-0.078-0.038-0.122 0.003-0.029 0.021-0.055 0.048-0.068 0.089-0.037 0.188-0.041 0.28-0.012 0.304 0.071 0.57 0.252 0.747 0.508 0.002 0.003 0 0.006 0.002 0.008 0.039 0.015 0.073 0.030 0.099 0.042l0 0c0.202 0.091 0.346 0.277 0.383 0.496 0.036 0.208-0.012 0.421-0.135 0.593-0.078 0.128-0.212 0.21-0.361 0.222-0.006 0-0.012 0-0.018-0.001-0.138-0.021-0.257-0.105-0.323-0.228-0.099-0.149-0.179-0.31-0.236-0.48zM22.597 25.871c0.109 0.065 0.187 0.171 0.216 0.294 0.023 0.142 0.015 0.286-0.021 0.425-0.019 0.15-0.085 0.291-0.189 0.401-0.096 0.086-0.22 0.133-0.348 0.131h-0.007c-0.12-0.003-0.237-0.041-0.336-0.109-0.099-0.061-0.177-0.151-0.223-0.257s-0.060-0.225-0.038-0.339c0.038-0.131 0.108-0.25 0.205-0.346 0.028-0.030 0.054-0.051 0.081-0.076-0.004-0.010-0.012-0.018-0.011-0.029l0.020-0.698c0.001-0.039 0.029-0.072 0.067-0.080 0.128-0.013 0.254 0.038 0.338 0.135 0.133 0.155 0.219 0.345 0.246 0.547zM20.643 26.642c0.015 0.079 0.003 0.161-0.035 0.232-0.056 0.088-0.149 0.147-0.252 0.159-0.024 0.004-0.048 0.006-0.072 0.006-0.062-0.001-0.123-0.010-0.183-0.025-0.113-0.025-0.224-0.057-0.333-0.097-0.129-0.035-0.242-0.114-0.32-0.222-0.061-0.123-0.076-0.264-0.042-0.397 0.012-0.070 0.030-0.139 0.055-0.206-0.076-0.161-0.127-0.333-0.151-0.509-0.025-0.205 0.028-0.412 0.15-0.579 0.014-0.019 0.036-0.031 0.060-0.033s0.047 0.006 0.065 0.022c0.159 0.149 0.289 0.326 0.382 0.523h-0c0.035 0.063 0.076 0.134 0.124 0.218 0.001 0.002-0 0.005 0.001 0.007 0.125 0.117 0.236 0.246 0.333 0.387 0.112 0.153 0.187 0.329 0.22 0.515h-0zM20.161 27.193c0.157 0.035 0.292 0.137 0.369 0.279 0.043 0.116 0.055 0.242 0.033 0.364s-0.076 0.236-0.157 0.329c-0.072 0.106-0.166 0.196-0.276 0.262-0.088 0.052-0.187 0.080-0.289 0.082-0.035 0-0.070-0.004-0.105-0.012-0.254-0.061-0.363-0.33-0.421-0.475-0.056-0.113-0.083-0.238-0.080-0.365 0-0.004 0.003-0.007 0.003-0.010-0.001-0.002-0.004-0.003-0.005-0.006l-0.019-0.038c-0.069-0.128-0.126-0.263-0.168-0.403-0.035-0.115-0.108-0.401-0.035-0.514 0.024-0.038 0.073-0.049 0.112-0.028 0.126 0.081 0.238 0.181 0.334 0.296 0.080 0.093 0.17 0.176 0.27 0.246 0.022-0.003 0.045-0.005 0.067-0.008 0.121-0.025 0.247-0.025 0.368-0.001h0zM25.97 23.216c0.104 0.147 0.194 0.303 0.268 0.467 0.145 0.248 0.199 0.538 0.155 0.821-0.016 0.083-0.064 0.157-0.133 0.206-0.053 0.031-0.113 0.047-0.174 0.044-0.028 0-0.056-0.002-0.084-0.005-0.406-0.039-0.807-0.117-1.197-0.234-0.335-0.101-0.516-0.25-0.553-0.456-0.008-0.104 0.012-0.208 0.057-0.302s0.115-0.174 0.202-0.233c0.246-0.199 0.522-0.359 0.818-0.474 0.11-0.048 0.233-0.058 0.35-0.028s0.219 0.098 0.293 0.193v-0zM26.376 22.513c-0.107 0.005-0.212-0.037-0.286-0.114-0.081-0.114-0.107-0.259-0.069-0.394 0.031-0.181 0.085-0.357 0.161-0.525 0.042-0.105 0.105-0.199 0.187-0.278 0.004-0.004 0.009-0.006 0.013-0.009l0.138-0.75c0.005-0.044 0.024-0.084 0.055-0.116 0.023-0.020 0.054-0.027 0.083-0.017 0.088 0.036 0.161 0.103 0.205 0.188 0.163 0.27 0.225 0.588 0.175 0.899-0.001 0.004-0.004 0.006-0.006 0.009 0.017 0.039 0.030 0.074 0.041 0.103 0.078 0.211 0.052 0.445-0.069 0.634-0.111 0.179-0.289 0.306-0.494 0.353-0.044 0.010-0.089 0.015-0.133 0.016zM24.496 23.192c-0.069 0.016-0.14 0.024-0.21 0.024-0.054 0-0.108-0.006-0.161-0.018-0.133-0.028-0.25-0.109-0.324-0.223-0.088-0.209-0.077-0.446 0.029-0.647 0.037-0.123 0.102-0.235 0.19-0.329h-0c0.003-0.003 0.008-0.004 0.011-0.007 0.001-0.003-0.002-0.006-0.001-0.009l0.011-0.039c0.039-0.146 0.092-0.287 0.157-0.423 0.067-0.138 0.2-0.379 0.323-0.411 0.021-0.006 0.044-0.003 0.063 0.008s0.033 0.029 0.039 0.051c0.032 0.149 0.042 0.302 0.031 0.454-0.008 0.126-0.001 0.252 0.021 0.376 0.017 0.013 0.034 0.027 0.051 0.039 0.102 0.067 0.19 0.154 0.257 0.256 0.085 0.138 0.109 0.306 0.066 0.462-0.046 0.115-0.122 0.216-0.219 0.292s-0.213 0.125-0.336 0.142v-0zM27.624 22.070c0.1 0.082 0.154 0.208 0.143 0.337-0.012 0.209-0.082 0.41-0.201 0.582 0.032 0.125 0.015 0.257-0.047 0.369-0.079 0.121-0.182 0.224-0.302 0.304-0.113 0.1-0.255 0.16-0.405 0.172h-0.001c-0.129-0.002-0.251-0.056-0.339-0.15-0.082-0.087-0.138-0.197-0.159-0.315-0.027-0.114-0.021-0.234 0.018-0.344s0.109-0.208 0.202-0.28c0.113-0.073 0.243-0.114 0.377-0.119 0.040-0.003 0.073-0.001 0.108-0.001 0.004-0.010 0.003-0.021 0.011-0.030l0.487-0.513c0.028-0.029 0.073-0.035 0.107-0.013v0zM25.984 20.89c-0.018 0.072-0.038 0.154-0.061 0.251-0.001 0.003-0.003 0.004-0.004 0.007 0.008 0.175-0.002 0.35-0.031 0.522-0.026 0.192-0.093 0.376-0.195 0.539-0.042 0.069-0.106 0.121-0.181 0.15-0.027 0.009-0.057 0.013-0.086 0.013-0.073-0.001-0.145-0.026-0.203-0.070-0.067-0.053-0.123-0.119-0.165-0.193-0.062-0.098-0.117-0.199-0.165-0.304-0.065-0.118-0.090-0.254-0.071-0.387 0.039-0.132 0.123-0.247 0.237-0.325 0.056-0.044 0.116-0.084 0.179-0.118 0.055-0.173 0.136-0.338 0.239-0.488 0.118-0.17 0.295-0.288 0.497-0.333 0.024-0.005 0.049 0.002 0.068 0.017s0.031 0.038 0.032 0.062c0.009 0.223-0.021 0.445-0.089 0.657v0zM26.623 9.579c-0.646-0.341-1.213-0.815-1.661-1.392-0.028-0.037-0.021-0.090 0.016-0.119s0.090-0.021 0.119 0.016c0.005 0.006 0.010 0.012 0.015 0.018l0.818-0.333-0.067-0.176c-0.008-0.021-0.007-0.044 0.002-0.065s0.026-0.037 0.047-0.045c0.021-0.008 0.044-0.007 0.065 0.002s0.037 0.026 0.045 0.047l0.066 0.173 0.784-0.32c-0-0.011 0.001-0.022 0-0.033-0.001-0.047 0.036-0.085 0.083-0.086h0.002c0.046 0 0.083 0.037 0.085 0.083 0.015 0.745-0.061 1.488-0.225 2.215-0.001 0.006-0.009 0.009-0.011 0.014l0.552 1.442c0.008 0.021 0.007 0.044-0.002 0.065s-0.026 0.037-0.047 0.044c-0.010 0.004-0.020 0.006-0.030 0.006-0.035 0-0.066-0.022-0.079-0.054l-0 0-0.575-1.502zM22.79 9.224c-0.555-0.496-0.995-1.108-1.29-1.791-0.018-0.043 0.002-0.092 0.045-0.111s0.092 0.002 0.111 0.045v-0c0.003 0.007 0.007 0.014 0.010 0.021l0.933-0.125-0.028-0.291c-0.004-0.046 0.029-0.088 0.076-0.092 0.023-0.004 0.046 0.003 0.063 0.017s0.028 0.036 0.029 0.059v0l0.028 0.284 0.783-0.105c0.003-0.010 0.006-0.021 0.008-0.031 0.011-0.045 0.056-0.073 0.102-0.063s0.074 0.056 0.063 0.102c-0.17 0.719-0.427 1.414-0.763 2.071h0l0.153 1.562c0.004 0.046-0.030 0.088-0.076 0.092l-0.008 0c-0.044 0-0.080-0.033-0.084-0.076h-0l-0.153-1.567zM23.062 19.227c0.020-0.042 0.070-0.060 0.113-0.040s0.060 0.071 0.040 0.113c-0.318 0.664-0.828 1.218-1.464 1.589-0.002 0.001-0.005 0.001-0.007 0.002-0.032 0.126-0.068 0.251-0.098 0.377-0.009 0.038-0.043 0.065-0.082 0.065-0.007 0-0.013-0.001-0.020-0.002-0.045-0.011-0.073-0.057-0.063-0.102v0c0.033-0.139 0.074-0.278 0.109-0.417-0.264-0.275-0.448-0.618-0.529-0.99-0.084-0.392-0.103-0.795-0.057-1.193 0.005-0.046 0.045-0.080 0.092-0.077 0.022 0.002 0.043 0.013 0.057 0.030s0.021 0.040 0.019 0.062c-0.001 0.006-0.001 0.012-0.001 0.018l0.948 0.29c0.040-0.127 0.076-0.257 0.118-0.383 0.015-0.044 0.063-0.068 0.107-0.054s0.068 0.063 0.054 0.107v-0c-0.041 0.125-0.077 0.253-0.116 0.379l0.775 0.237c0.002-0.004 0.005-0.007 0.006-0.011zM18.445 22.5c-0.001 0.002-0.004 0.003-0.006 0.005 0.028 0.126 0.052 0.255 0.082 0.38 0.010 0.046-0.017 0.091-0.063 0.102-0.006 0.001-0.013 0.002-0.020 0.002-0.039 0-0.073-0.027-0.082-0.065h-0c-0.033-0.139-0.059-0.281-0.091-0.421-0.36-0.126-0.677-0.35-0.918-0.645-0.251-0.312-0.45-0.663-0.588-1.039-0.017-0.043 0.004-0.092 0.047-0.109s0.092 0.004 0.11 0.047h-0c0.002 0.006 0.005 0.011 0.007 0.017l0.977-0.168c-0.021-0.131-0.048-0.263-0.067-0.394-0.003-0.022 0.002-0.045 0.015-0.063s0.033-0.030 0.056-0.033c0.022-0.004 0.045 0.001 0.063 0.015s0.030 0.034 0.033 0.056v0c0.019 0.13 0.046 0.26 0.067 0.39l0.799-0.138c-0-0.004 0.001-0.009 0.001-0.013-0.001-0.022 0.008-0.044 0.023-0.060s0.037-0.026 0.059-0.026c0.023-0.001 0.044 0.007 0.061 0.023s0.026 0.037 0.026 0.059c0.015 0.736-0.19 1.461-0.591 2.079zM12.456 16.592c0.034-0.019 0.076-0.013 0.103 0.014s0.031 0.070 0.011 0.103c-0.663 1.066-1.256 2.175-1.775 3.318-0.014 0.030-0.044 0.050-0.077 0.050v-0c-0.004 0-0.008-0-0.012-0.001-0.037-0.006-0.066-0.035-0.072-0.072-0.051-0.37-0.076-0.749-0.103-1.15-0.025-0.537-0.082-1.071-0.172-1.601-0.053-0.337-0.162-0.663-0.323-0.964-0.020-0.036-0.012-0.081 0.019-0.107s0.078-0.026 0.109 0.001c0.117 0.101 0.247 0.184 0.387 0.248 0.049 0.003 0.097 0.009 0.145 0.018 0.071 0.019 0.145 0.020 0.216 0.003 0.075-0.038 0.139-0.093 0.188-0.162l0.227-0.264c0.020-0.023 0.052-0.034 0.082-0.027s0.055 0.029 0.063 0.059c0.063 0.22 0.209 0.408 0.406 0.523 0.177 0.104 0.396 0.109 0.578 0.011v0zM12.473 20.082c-0.322 0.163-0.627 0.317-0.938 0.441-0.010 0.004-0.021 0.006-0.031 0.006-0.030-0-0.058-0.016-0.073-0.043s-0.015-0.059 0-0.085c0.635-1.087 1.197-2.214 1.684-3.374 0.015-0.037 0.054-0.059 0.094-0.050 0.039 0.007 0.068 0.041 0.069 0.080 0.011 0.234 0.12 0.453 0.3 0.604 0.154 0.131 0.356 0.192 0.557 0.167 0.003-0 0.006-0.001 0.009-0.001 0.008-0.001 0.015-0 0.023-0.002 0.028-0.005 0.058 0.004 0.077 0.025s0.027 0.051 0.020 0.079l-0.092 0.355c-0.030 0.090-0.041 0.184-0.033 0.278 0.022 0.084 0.060 0.163 0.113 0.231 0.031 0.046 0.059 0.093 0.085 0.141 0.114 0.111 0.243 0.204 0.383 0.279 0.036 0.019 0.053 0.061 0.041 0.1s-0.049 0.065-0.090 0.060c-0.302-0.021-0.605 0.022-0.889 0.127-0.451 0.16-0.889 0.355-1.31 0.581l0-0z"></path>
</svg>
