<!-- Generated by IcoMoon.io -->
<svg version="1.1" xmlns="http://www.w3.org/2000/svg" width="32" height="32" viewBox="0 0 32 32">
<path d="M17.346 5.979c0.090-0.32-0.345-0.416-0.424-0.095-0.071 0.294-0.666 2.079-1.395 2.639-1.004-2.524 1.749-4.053 1.664-5.523 2.496 1.579 2.008 5.126-0.727 6.13-0.433 0.52-0.957 0.996-1.59 1.451v1.516c0 0.219-0.179 0.398-0.398 0.398s-0.398-0.179-0.398-0.398v-1.752c-0.576-1.185-1.385-2.019-2.591-2.675-0.297-0.174-0.477 0.173-0.25 0.306 0.899 0.525 1.488 0.998 1.998 1.829-2.529 0.412-3.302-2.39-4.616-2.661 1.924-1.775 5.119-0.622 5.394 1.925 0.216 0.3 0.409 0.625 0.584 0.979 1.502-1.1 2.333-2.335 2.751-4.069zM27.334 15.37c-0.508 1.165-1.164 2.48-1.698 3.441 0.532 1.044-0.198 2.324-1.175 3.458-0.617 0.716-1.321 1.361-1.824 1.823-0.159 0.145-0.297 0.273-0.39 0.361-0.184 0.176-0.475 0.171-0.651-0.012s-0.171-0.475 0.012-0.651c0.121-0.116 0.254-0.238 0.405-0.376 0.489-0.449 1.174-1.076 1.751-1.746 1.124-1.302 1.055-1.957 0.676-2.275-0.355-0.299-0.965-0.324-1.665 0.363-1.265 1.241-2.49 2.269-3.884 3.396-2.006 1.745-1.913 4.749-1.789 7.206h5.405c0.28-2.707 1.21-3.13 2.431-4.389 0.567-0.585 1.332-1.128 1.879-2.566l2.891-7.715c0.212-0.62 0.418-1.363 0.456-1.719-0.427-1.031-1.741-1.103-2.833 1.402zM13.11 23.15c-1.394-1.129-2.62-2.156-3.884-3.396-0.7-0.686-1.309-0.661-1.665-0.363-0.379 0.317-0.447 0.973 0.676 2.275 0.578 0.67 1.262 1.299 1.751 1.746 0.151 0.139 0.283 0.26 0.404 0.376 0.184 0.176 0.189 0.469 0.012 0.651-0.176 0.184-0.469 0.189-0.651 0.012-0.092-0.089-0.231-0.216-0.39-0.361-0.502-0.461-1.206-1.106-1.824-1.823-0.978-1.133-1.707-2.413-1.175-3.458-0.532-0.961-1.19-2.276-1.697-3.441-1.091-2.505-2.405-2.434-2.833-1.402 0.039 0.356 0.244 1.1 0.456 1.719l2.891 7.715c0.546 1.439 1.313 1.981 1.879 2.566 1.22 1.259 2.151 1.681 2.431 4.389h5.405c0.124-2.457 0.217-5.461-1.789-7.206zM10.685 18.38l0.036-0.041c1.961-2.223 4.437-3.856 7.178-4.782-1.688-0.61-3.506-0.943-5.404-0.943-1.606 0-3.156 0.239-4.618 0.682 0.286 2.029 1.317 3.819 2.807 5.084zM24.041 13.507c-0.261-0.012-0.523-0.020-0.788-0.020-4.75 0-9.013 2.084-11.926 5.387 0.335 0.231 0.688 0.439 1.058 0.62 1.429-1.51 3.151-2.736 5.076-3.585 1.98-0.873 4.159-1.332 6.323-1.325 0.109-0.35 0.195-0.709 0.258-1.078zM23.482 15.395c-2.024 0.040-3.949 0.484-5.695 1.253-1.736 0.765-3.298 1.851-4.609 3.182 0.425 0.155 0.867 0.275 1.321 0.359 1.151-1.061 2.484-1.93 3.945-2.554 1.37-0.585 2.854-0.954 4.409-1.067 0.24-0.371 0.45-0.764 0.628-1.172zM15.976 20.323c2.495 0 4.729-1.117 6.229-2.879-1.206 0.154-2.363 0.473-3.443 0.934-1.154 0.492-2.223 1.148-3.176 1.935 0.13 0.006 0.26 0.009 0.391 0.009zM22.801 8.796c0-1.112-0.644-2.075-1.579-2.535-0.935 0.46-1.579 1.423-1.579 2.535 0 0.849 0.375 1.61 0.968 2.127v1.941c0 0.169 0.137 0.306 0.306 0.306s0.306-0.137 0.306-0.306v-3.444c0-0.169 0.137-0.306 0.306-0.306s0.306 0.137 0.306 0.306v1.502c0.593-0.518 0.968-1.279 0.968-2.127zM25.78 14.591c-0.214-0.063-0.439 0.060-0.501 0.275-0.259 0.883-0.641 1.725-1.14 2.501-0.121 0.189-0.065 0.438 0.122 0.559 0.067 0.044 0.142 0.064 0.219 0.064 0.133 0 0.264-0.065 0.34-0.186 0.54-0.843 0.956-1.754 1.236-2.711 0.063-0.215-0.061-0.439-0.275-0.501zM7.476 17.99c0.075 0 0.15-0.020 0.218-0.064 0.189-0.121 0.242-0.371 0.122-0.559-0.999-1.558-1.527-3.365-1.527-5.224 0-5.342 4.346-9.689 9.689-9.689 5.047 0 9.195 3.824 9.647 8.791l-0.613-0.646c-0.154-0.162-0.41-0.169-0.573-0.015s-0.169 0.41-0.015 0.571l1.351 1.421c0.086 0.090 0.207 0.136 0.332 0.124 0.124-0.011 0.235-0.081 0.302-0.185l1.079-1.695c0.12-0.189 0.064-0.439-0.124-0.559-0.189-0.12-0.438-0.064-0.558 0.124l-0.392 0.617c-0.264-2.446-1.371-4.71-3.162-6.431-1.965-1.889-4.547-2.929-7.274-2.929-5.789 0-10.499 4.71-10.499 10.498 0 2.015 0.572 3.973 1.656 5.661 0.077 0.12 0.207 0.186 0.341 0.186zM18.687 21.876c-0.051-0.218-0.269-0.352-0.486-0.301-1.448 0.34-2.995 0.341-4.447 0-0.217-0.051-0.435 0.084-0.486 0.301-0.050 0.218 0.084 0.435 0.301 0.486 0.786 0.185 1.596 0.279 2.409 0.279s1.624-0.094 2.409-0.277c0.218-0.051 0.352-0.269 0.301-0.486z"></path>
</svg>
