<?xml version="1.0" encoding="utf-8"?>
<svg version="1.1" viewBox="0 0 1200 1200" xmlns="http://www.w3.org/2000/svg" width="150pt" height="150pt">
  <path d="m650.48 224.21c3.375-12-12.938-15.609-15.891-3.5625-2.6719 11.016-24.984 77.953-52.312 98.953-37.641-94.641 65.578-151.97 62.391-207.1 93.609 59.203 75.281 192.24-27.281 229.87-16.219 19.5-35.906 37.359-59.625 54.422v56.859c0 8.2031-6.7031 14.906-14.906 14.906s-14.906-6.7031-14.906-14.906v-65.719c-21.609-44.438-51.938-75.703-97.172-100.31-11.156-6.5156-17.906 6.4688-9.375 11.484 33.703 19.688 55.781 37.406 74.906 68.578-94.828 15.469-123.84-89.625-173.11-99.797 72.141-66.562 191.95-23.344 202.26 72.188 8.1094 11.25 15.328 23.438 21.891 36.703 56.344-41.25 87.469-87.562 103.17-152.58zm374.53 352.18c-19.031 43.688-43.641 93-63.656 129.05 19.969 39.141-7.4062 87.141-44.062 129.66-23.156 26.859-49.547 51.047-68.391 68.344-5.9531 5.4375-11.156 10.219-14.625 13.547-6.8906 6.6094-17.812 6.4219-24.422-0.46875s-6.4219-17.812 0.46875-24.422c4.5469-4.3594 9.5156-8.9062 15.188-14.109 18.328-16.828 44.016-40.359 65.672-65.484 42.141-48.844 39.562-73.406 25.359-85.312-13.312-11.203-36.188-12.141-62.438 13.594-47.438 46.547-93.375 85.078-145.64 127.36-75.234 65.438-71.719 178.08-67.078 270.24h202.69c10.5-101.53 45.375-117.38 91.172-164.58 21.281-21.938 49.969-42.281 70.453-96.234l108.42-289.31c7.9688-23.25 15.656-51.094 17.109-64.453-16.031-38.672-65.297-41.344-106.22 52.594zm-533.39 291.74c-52.266-42.328-98.25-80.859-145.64-127.36-26.25-25.734-49.078-24.797-62.438-13.594-14.203 11.906-16.781 36.469 25.359 85.312 21.656 25.125 47.344 48.703 65.672 65.484 5.6719 5.2031 10.594 9.75 15.141 14.109 6.8906 6.6094 7.0781 17.578 0.46875 24.422-6.6094 6.8906-17.578 7.0781-24.422 0.46875-3.4688-3.3281-8.6719-8.1094-14.625-13.547-18.844-17.297-45.234-41.484-68.391-68.344-36.656-42.469-64.031-90.469-44.062-129.66-19.969-36.047-44.625-85.359-63.656-129.05-40.922-93.938-90.188-91.266-106.22-52.594 1.4531 13.359 9.1406 41.25 17.109 64.453l108.42 289.31c20.484 53.953 49.219 74.297 70.453 96.234 45.75 47.203 80.672 63.047 91.172 164.58h202.69c4.6406-92.156 8.1562-204.79-67.078-270.24zm-90.938-178.87 1.3594-1.5469c73.547-83.344 166.4-144.61 269.16-179.34-63.281-22.875-131.48-35.344-202.64-35.344-60.234 0-118.36 8.9531-173.16 25.594 10.734 76.078 49.406 143.21 105.28 190.64zm500.86-182.76c-9.7969-0.46875-19.594-0.75-29.531-0.75-178.13 0-337.97 78.141-447.24 202.03 12.562 8.6719 25.781 16.453 39.656 23.25 53.578-56.625 118.17-102.61 190.36-134.44 74.25-32.719 155.95-49.969 237.1-49.688 4.0781-13.125 7.3125-26.578 9.6562-40.406zm-20.953 70.828c-75.891 1.5-148.08 18.141-213.56 46.969-65.109 28.688-123.66 69.422-172.82 119.34 15.938 5.8125 32.531 10.312 49.547 13.453 43.172-39.797 93.141-72.375 147.94-95.766 51.375-21.938 107.02-35.766 165.32-40.031 9-13.922 16.875-28.641 23.531-43.969zm-281.48 184.78c93.562 0 177.32-41.906 233.58-107.95-45.234 5.7656-88.594 17.719-129.1 35.016-43.266 18.469-83.344 43.031-119.11 72.562 4.875 0.23438 9.75 0.32812 14.672 0.32812zm255.94-432.24c0-41.719-24.141-77.812-59.203-95.062-35.062 17.25-59.203 53.344-59.203 95.062 0 31.828 14.062 60.375 36.281 79.781v72.797c0 6.3281 5.1562 11.484 11.484 11.484s11.484-5.1562 11.484-11.484v-129.14c0-6.3281 5.1562-11.484 11.484-11.484s11.484 5.1562 11.484 11.484v56.344c22.219-19.406 36.281-47.953 36.281-79.781zm111.7 217.31c-8.0156-2.3438-16.453 2.25-18.797 10.312-9.7031 33.094-24.047 64.688-42.75 93.797-4.5469 7.0781-2.4375 16.406 4.5938 20.953 2.5312 1.6406 5.3438 2.3906 8.2031 2.3906 4.9688 0 9.8906-2.4375 12.75-6.9844 20.25-31.594 35.859-65.766 46.359-101.67 2.3438-8.0625-2.2969-16.453-10.312-18.797zm-686.39 127.45c2.8125 0 5.625-0.75 8.1562-2.3906 7.0781-4.5469 9.0938-13.922 4.5938-20.953-37.453-58.406-57.281-126.19-57.281-195.89 0-200.34 162.98-363.32 363.32-363.32 189.28 0 344.81 143.39 361.78 329.68l-22.969-24.234c-5.7656-6.0938-15.375-6.3281-21.469-0.5625-6.0938 5.7656-6.3281 15.375-0.5625 21.422l50.672 53.297c3.2344 3.375 7.7812 5.1094 12.469 4.6406 4.6406-0.42188 8.8125-3.0469 11.344-6.9375l40.453-63.562c4.5-7.0781 2.3906-16.453-4.6406-20.953-7.0781-4.5-16.406-2.3906-20.906 4.6406l-14.719 23.156c-9.8906-91.734-51.422-176.63-118.59-241.18-73.688-70.828-170.53-109.83-272.76-109.83-217.08 0-393.71 176.63-393.71 393.66 0 75.562 21.469 148.97 62.109 212.29 2.9062 4.5 7.7812 6.9844 12.797 6.9844zm420.42 145.74c-1.9219-8.1562-10.078-13.219-18.234-11.297-54.281 12.75-112.31 12.797-166.78 0-8.1562-1.9219-16.312 3.1406-18.234 11.297-1.875 8.1562 3.1406 16.312 11.297 18.234 29.484 6.9375 59.859 10.453 90.328 10.453s60.891-3.5156 90.328-10.406c8.1562-1.9219 13.219-10.078 11.297-18.234z"/>
</svg>