<?xml version="1.0" encoding="utf-8"?>
<svg version="1.1" viewBox="0 0 1200 1200" xmlns="http://www.w3.org/2000/svg" width="150pt" height="150pt">
  <path d="M 444.614 416.887 C 366.954 485.59 253.296 478.437 195.784 469.086 C 221.734 379.594 299.674 314.496 391.334 314.496 C 477.444 314.496 551.087 371.785 581.314 452.676 C 532.93 464.75 480.434 419.288 477.864 416.988 C 468.387 408.515 454.133 408.515 444.61 416.89 Z M 461.416 467.651 C 493.987 490.776 544.71 513.327 593.546 501.389 C 595.054 512.139 596.085 523.053 596.085 534.252 C 596.085 647.502 510.085 815.752 391.335 815.752 C 272.585 815.752 186.585 647.502 186.585 534.252 C 186.585 528.932 186.983 523.717 187.327 518.494 C 208.804 522.08 236.393 525.291 267.37 525.291 C 327.99 525.291 400.644 513.06 461.41 467.65 Z M 782.58 1160.2 C 781.857 1162.747 788.49 1199.95 757.58 1199.95 L 25.08 1199.95 C -5.912 1199.95 0.791 1162.704 0.08 1160.2 C 0.08 990.45 138.33 852.2 308.08 852.2 L 474.83 852.2 C 644.58 852.2 782.59 990.45 782.59 1160.2 Z M 1140.796 0 C 1173.546 0 1200.046 26.75 1200.046 59.5 L 1200.05 359.75 C 1200.05 392.25 1173.55 419 1140.8 419 L 879.05 419 L 755.8 521.75 C 748.323 528.047 739.226 529.605 729.05 525.25 C 720.304 521.25 714.804 512.25 714.804 502.75 L 714.804 419 L 685.3 419 C 652.554 419 626.054 392.25 626.054 359.75 L 626.054 59.5 C 626.054 26.75 652.55 0 685.3 0 Z M 1062.06 292.7 C 1062.06 278.884 1050.876 267.7 1037.06 267.7 L 789.09 267.7 C 775.274 267.7 764.09 278.884 764.09 292.7 C 764.09 306.516 775.274 317.7 789.09 317.7 L 1037.06 317.7 C 1050.88 317.7 1062.06 306.52 1062.06 292.7 Z M 1062.06 209.52 C 1062.06 195.704 1050.876 184.52 1037.06 184.52 L 789.09 184.52 C 775.274 184.52 764.09 195.704 764.09 209.52 C 764.09 223.336 775.274 234.52 789.09 234.52 L 1037.06 234.52 C 1050.88 234.52 1062.06 223.34 1062.06 209.52 Z M 1062.06 126.368 C 1062.06 112.552 1050.876 101.368 1037.06 101.368 L 789.09 101.368 C 775.274 101.368 764.09 112.552 764.09 126.368 C 764.09 140.184 775.274 151.368 789.09 151.368 L 1037.06 151.368 C 1050.88 151.368 1062.06 140.184 1062.06 126.368 Z"/>
</svg>