<!-- Generated by IcoMoon.io -->
<svg version="1.1" xmlns="http://www.w3.org/2000/svg" width="32" height="32" viewBox="0 0 32 32">
<path d="M11.856 11.117c-2.071 1.832-5.102 1.641-6.635 1.392 0.692-2.386 2.77-4.122 5.215-4.122 2.296 0 4.26 1.528 5.066 3.685-1.29 0.322-2.69-0.89-2.759-0.952-0.253-0.226-0.633-0.226-0.887-0.003zM12.304 12.471c0.869 0.617 2.221 1.218 3.523 0.9 0.040 0.287 0.068 0.578 0.068 0.876 0 3.020-2.293 7.507-5.46 7.507s-5.46-4.487-5.46-7.507c0-0.142 0.011-0.281 0.020-0.42 0.573 0.096 1.308 0.181 2.134 0.181 1.617 0 3.554-0.326 5.174-1.537zM20.869 30.939c-0.019 0.068 0.158 1.060-0.667 1.060h-19.533c-0.826 0-0.648-0.993-0.667-1.060 0-4.527 3.687-8.213 8.213-8.213h4.447c4.527 0 8.207 3.687 8.207 8.213zM30.421 0c0.873 0 1.58 0.713 1.58 1.587l0 8.007c0 0.867-0.707 1.58-1.58 1.58h-6.98l-3.287 2.74c-0.199 0.168-0.442 0.209-0.713 0.093-0.233-0.107-0.38-0.347-0.38-0.6v-2.233h-0.787c-0.873 0-1.58-0.713-1.58-1.58v-8.007c0-0.873 0.707-1.587 1.58-1.587zM28.322 7.805c0-0.368-0.298-0.667-0.667-0.667h-6.613c-0.368 0-0.667 0.298-0.667 0.667s0.298 0.667 0.667 0.667h6.613c0.369 0 0.667-0.298 0.667-0.667zM28.322 5.587c0-0.368-0.298-0.667-0.667-0.667h-6.613c-0.368 0-0.667 0.298-0.667 0.667s0.298 0.667 0.667 0.667h6.613c0.369 0 0.667-0.298 0.667-0.667zM28.322 3.37c0-0.368-0.298-0.667-0.667-0.667h-6.613c-0.368 0-0.667 0.298-0.667 0.667s0.298 0.667 0.667 0.667h6.613c0.369 0 0.667-0.298 0.667-0.667z"></path>
</svg>
