<!-- Generated by IcoMoon.io -->
<svg version="1.1" xmlns="http://www.w3.org/2000/svg" width="32" height="32" viewBox="0 0 32 32">
<path d="M8.373 0.817l0-0c-1.945 0-3.521 1.578-3.521 3.525 0 1.217 0.616 2.289 1.552 2.923 0.356 0.209 0.388 0.242 0.682 0.365 0.599 0.25 2.212 0.768 2.912 1.135s1.013 0.672 1.287 1.068c0.274 0.395 0.363 0.863 0.355 1.305s-0.265 0.88-0.403 1.346l-0.429 1.448c-0.139 0.448-0.557 1.321-1.216 1.646s-1.371 0.249-1.727 0.102c-0.355-0.148-0.566-0.485-0.812-0.683l-0.661-0.51 0.013 0.008c-0.595-0.407-1.314-0.645-2.090-0.645-0.002 0-0.004 0-0.006 0-2.057 0-3.724 1.669-3.724 3.728s1.668 3.728 3.724 3.728c1.285 0 2.419-0.652 3.088-1.644l0.399-0.534c0.099-0.14 0.545-0.603 1.016-0.737s1.185-0.282 1.811-0.068c0.626 0.214 1.466 1.037 1.947 1.355s0.624 0.386 0.937 0.554c0.263 0.131 0.537 0.191 0.822 0.279 0.169 0.046 0.453 0.104 0.76 0.137s0.536 0.070 1.080 0.064c0.544-0.006 3.094-0.501 3.707 0.813s-0.118 2.072-0.178 3.108c-0.055 0.271-0.085 0.552-0.085 0.84 0 2.302 1.865 4.168 4.165 4.168s4.165-1.866 4.165-4.168c0-0.863-0.262-1.665-0.711-2.331l-0.126-0.175c-0.11-0.156-0.251-0.321-0.424-0.503-0.69-0.724-2.781-1.622-3.581-2.491s-1.007-1.716-1.219-2.72c-0.106-0.502-0.161-0.898-0.2-1.262s0.010-1.664 0.53-2.068c0.52-0.404 1.82-0.423 2.59-0.356 0.385 0.034 0.824 0.223 1.202 0.405l0.713 0.372c0.377 0.159 0.791 0.248 1.226 0.248 1.739 0 3.149-1.411 3.149-3.152s-1.41-3.152-3.149-3.152c-1.304 0-2.423 0.794-2.901 1.925s-0.228 1.507-0.544 1.93c-0.315 0.423-0.851 0.521-1.346 0.61s-1.188 0.069-1.625-0.076-0.748-0.456-0.999-0.797c-0.251-0.34-0.759-1.164-0.812-1.779s0.195-1.35 0.491-1.915c0.148-0.282 0.547-0.679 0.774-0.896l0.002-0.002c0.131-0.183 0.581-0.606 0.788-1.095s0.247-0.791 0.247-1.227c0-1.74-1.41-3.152-3.149-3.152s-3.149 1.411-3.149 3.152c0 0.435 0.203 1.2 0.73 1.727s1.031 0.928 0.912 1.586c-0.119 0.658-0.388 0.856-0.711 0.991s-0.59 0.165-0.921 0.28-0.661 0.129-0.992 0.194c-0.545-0.012-1.188-0.040-1.625-0.305s-0.765-0.76-0.999-1.288c-0.234-0.528-0.347-1.342-0.406-1.881s0.084-0.9 0.115-1.221c0.031-0.322 0.072-0.467 0.072-0.71 0-1.946-1.576-3.524-3.521-3.524zM7.318 25.133c-1.739 0-3.149 1.41-3.149 3.151s1.41 3.151 3.149 3.151c1.739 0 3.149-1.411 3.149-3.151s-1.41-3.151-3.149-3.151z"></path>
</svg>
