<svg xmlns="http://www.w3.org/2000/svg" viewBox="0 0 1200 1200" width="150pt" height="150pt" xmlns:v="https://vecta.io/nano"><path d="M313.993 30.628c72.931 0 132.047 59.175 132.047 132.162 0 9.125-1.517 14.563-2.685 26.629-1.161 12.066-6.52 25.577-4.303 45.798 2.23 20.222 6.458 50.73 15.24 70.532 8.787 19.802 21.061 38.344 37.461 48.294s40.527 11.009 60.951 11.445c12.402-2.423 24.802-2.945 37.203-7.276s22.435-5.43 34.529-10.511c12.106-5.085 22.208-12.489 26.663-37.171s-14.428-39.715-34.21-59.468-27.377-48.436-27.377-64.746c0-65.269 52.867-118.188 118.084-118.188s118.084 52.92 118.084 118.188c0 16.322-1.542 27.674-9.28 46s-24.612 34.212-29.54 41.069l-.062.063c-8.541 8.13-23.492 23.012-29.042 33.603-11.117 21.179-20.42 48.714-18.411 71.806 2.011 23.087 21.059 53.953 30.468 66.72 9.421 12.755 21.059 24.414 37.46 29.87s42.376 6.192 60.951 2.853c18.565-3.339 38.658-6.998 50.474-22.872s2.459-29.957 20.381-72.378 59.893-72.186 108.801-72.186c65.22 0 118.08 52.92 118.08 118.187s-52.86 118.187-118.08 118.187c-16.29 0-31.83-3.314-45.96-9.287l-26.753-13.965c-14.151-6.82-30.615-13.917-45.068-15.191-28.886-2.535-77.628-1.796-97.133 13.339-19.505 15.154-21.366 63.904-19.886 77.539s3.54 28.504 7.511 47.323c7.932 37.655 15.713 69.42 45.708 101.99s108.41 66.248 134.271 93.405c6.47 6.789 11.78 12.983 15.9 18.844l4.73 6.55c16.85 24.95 26.67 55.022 26.67 87.395 0 86.33-69.929 156.31-156.178 156.31s-156.175-69.99-156.175-156.31c0-10.784 1.094-21.327 3.17-31.493 2.23-38.854 29.681-67.254 6.673-116.563-23.008-49.303-118.625-30.735-139.029-30.504-20.396.241-28.992-1.12-40.489-2.381-11.497-1.249-22.154-3.427-28.483-5.135-10.656-3.314-20.959-5.554-30.811-10.462-11.713-6.295-17.114-8.842-35.13-20.781-18.03-11.937-49.517-42.79-73.01-50.829-23.492-8.055-50.254-2.485-67.928 2.535-17.672 5.031-34.376 22.391-38.092 27.626l-14.964 20.031c-25.095 37.182-67.609 61.635-115.813 61.635-77.132 0-139.665-62.594-139.665-139.797s62.532-139.798 139.665-139.798a138.93 138.93 0 0 1 78.091 23.881l24.801 19.127c9.206 7.453 17.115 20.079 30.432 25.626 13.329 5.541 40.016 8.382 64.755-3.813s40.399-44.93 45.609-61.725l16.081-54.298c5.206-17.458 14.833-33.897 15.128-50.46s-3.067-34.101-13.329-48.929c-10.262-14.834-21.999-26.261-48.245-40.037-26.238-13.763-86.731-33.196-109.19-42.575-11.038-4.613-12.248-5.836-25.582-13.671-35.13-23.751-58.212-63.965-58.212-109.597-.004-72.996 59.112-132.173 132.046-132.173l-.003.008zm-39.554 911.85c65.217 0 118.083 52.894 118.083 118.162s-52.866 118.18-118.083 118.18-118.085-52.91-118.085-118.18 52.866-118.162 118.085-118.162z" fill-rule="evenodd"/></svg>