<!-- Generated by IcoMoon.io -->
<svg version="1.1" xmlns="http://www.w3.org/2000/svg" width="32" height="32" viewBox="0 0 32 32">
<path d="M12.181 11.378c0-0.289 0.234-0.521 0.521-0.521 0.289 0 0.521 0.234 0.521 0.521v12.986h-1.041v-12.986zM8.394 8.574c-0.318 0-0.576-0.258-0.576-0.576s0.259-0.576 0.576-0.576h8.251l-0.636-0.635c-0.224-0.225-0.224-0.59 0-0.815 0.225-0.225 0.59-0.225 0.815 0l1.62 1.62c0.113 0.112 0.169 0.26 0.169 0.407s-0.056 0.295-0.169 0.408l-1.62 1.62c-0.225 0.225-0.59 0.225-0.815 0-0.224-0.225-0.224-0.59 0-0.815l0.636-0.635h-8.251zM30.619 25.032c0.321 0 0.581 0.26 0.581 0.581s-0.26 0.581-0.581 0.581h-29.237c-0.321 0-0.581-0.26-0.581-0.581s0.26-0.581 0.581-0.581l3.565 0.001v-2.117h-3.323c-0.344 0-0.536-0.396-0.325-0.666l2.23-2.854h-0.951c-0.344 0-0.536-0.396-0.325-0.666l2.128-2.722h-0.651c-0.344 0-0.536-0.396-0.325-0.666l2.072-2.651c0.165-0.211 0.485-0.211 0.65 0l2.072 2.651c0.211 0.271 0.019 0.666-0.325 0.666h-0.651l2.127 2.722c0.211 0.271 0.019 0.666-0.325 0.666h-0.951l2.23 2.854c0.211 0.271 0.019 0.666-0.325 0.666h-3.323v2.117h9.247v-12.074c0-0.438 0.314-0.806 0.744-0.874l6.747-1.101c0.413-0.068 0.794 0.252 0.794 0.676v13.373h1.009v-9.959h4.231c0.375 0 0.676 0.307 0.676 0.676v9.281h0.514zM17.699 15.204c0 0.16 0.129 0.283 0.282 0.283h1.040c0.16 0 0.282-0.123 0.282-0.283v-0.99c0-0.154-0.122-0.283-0.282-0.283h-1.040c-0.154 0-0.282 0.129-0.282 0.283zM17.699 18.051c0 0.16 0.129 0.282 0.282 0.282h1.040c0.16 0 0.282-0.122 0.282-0.282v-0.99c0-0.154-0.122-0.282-0.282-0.282h-1.040c-0.154 0-0.282 0.129-0.282 0.282zM17.981 21.182h1.040c0.16 0 0.282-0.122 0.282-0.282v-0.99c0-0.154-0.122-0.282-0.282-0.282h-1.040c-0.154 0-0.282 0.129-0.282 0.282v0.99c0 0.16 0.129 0.282 0.282 0.282zM21.365 22.941c0-0.259-0.209-0.468-0.468-0.468h-1.71c-0.253 0-0.461 0.209-0.461 0.468v2.091h2.639zM22.392 19.91c0-0.154-0.129-0.282-0.282-0.282h-1.040c-0.16 0-0.282 0.129-0.282 0.282v0.99c0 0.16 0.122 0.282 0.282 0.282h1.040c0.154 0 0.282-0.122 0.282-0.282zM22.392 17.061c0-0.154-0.129-0.282-0.282-0.282h-1.040c-0.16 0-0.282 0.129-0.282 0.282v0.99c0 0.16 0.122 0.282 0.282 0.282h1.040c0.154 0 0.282-0.122 0.282-0.282zM22.392 14.213c0-0.154-0.129-0.283-0.282-0.283h-1.040c-0.16 0-0.282 0.129-0.282 0.283v0.99c0 0.16 0.122 0.283 0.282 0.283h1.040c0.154 0 0.282-0.123 0.282-0.283zM28.45 22.757c0-0.154-0.122-0.282-0.282-0.282h-1.034c-0.16 0-0.282 0.129-0.282 0.282v0.99c0 0.159 0.122 0.282 0.282 0.282h1.034c0.16 0 0.282-0.122 0.282-0.282zM28.45 19.91c0-0.154-0.122-0.282-0.282-0.282h-1.034c-0.16 0-0.282 0.129-0.282 0.282v0.99c0 0.16 0.122 0.282 0.282 0.282h1.034c0.16 0 0.282-0.122 0.282-0.282zM28.45 17.061c0-0.154-0.122-0.282-0.282-0.282h-1.034c-0.16 0-0.282 0.129-0.282 0.282v0.99c0 0.16 0.122 0.282 0.282 0.282h1.034c0.16 0 0.282-0.122 0.282-0.282z"></path>
</svg>
