<?xml version="1.0" encoding="utf-8"?>
<svg version="1.1" viewBox="0 0 1200 1200" xmlns="http://www.w3.org/2000/svg" width="150pt" height="150pt">
  <path d="M 456.793 426.66 C 456.793 415.832 465.559 407.113 476.34 407.113 C 487.168 407.113 495.887 415.879 495.887 426.66 L 495.887 913.64 L 456.84 913.64 L 456.84 426.66 Z M 314.76 321.514 C 302.854 321.514 293.151 311.858 293.151 299.905 C 293.151 287.952 302.854 278.296 314.76 278.296 L 624.18 278.296 L 600.321 254.484 C 591.93 246.047 591.93 232.36 600.321 223.922 C 608.758 215.485 622.445 215.485 630.883 223.922 L 691.633 284.672 C 695.852 288.891 697.961 294.422 697.961 299.953 C 697.961 305.484 695.852 311.015 691.633 315.234 L 630.883 375.984 C 622.446 384.422 608.758 384.422 600.321 375.984 C 591.93 367.547 591.93 353.859 600.321 345.422 L 624.18 321.61 L 314.76 321.61 Z M 1148.201 938.708 C 1160.248 938.708 1169.998 948.458 1169.998 960.505 C 1169.998 972.552 1160.248 982.302 1148.201 982.302 L 51.801 982.302 C 39.754 982.302 30.004 972.552 30.004 960.505 C 30.004 948.458 39.754 938.708 51.801 938.708 L 185.491 938.755 L 185.491 859.349 L 60.891 859.349 C 48 859.349 40.781 844.49 48.703 834.365 L 132.328 727.345 L 96.656 727.345 C 83.765 727.345 76.546 712.486 84.468 702.361 L 164.249 600.271 L 139.827 600.271 C 126.936 600.271 119.717 585.412 127.639 575.287 L 205.358 475.865 C 211.545 467.943 223.546 467.943 229.733 475.865 L 307.452 575.287 C 315.373 585.459 308.155 600.271 295.264 600.271 L 270.842 600.271 L 350.623 702.361 C 358.544 712.533 351.326 727.345 338.435 727.345 L 302.763 727.345 L 386.388 834.365 C 394.309 844.537 387.091 859.349 374.2 859.349 L 249.6 859.349 L 249.6 938.755 L 596.38 938.755 L 596.38 485.995 C 596.38 469.588 608.146 455.76 624.271 453.229 L 877.301 411.932 C 892.77 409.4 907.067 421.4 907.067 437.291 L 907.067 938.761 L 944.895 938.761 L 944.895 565.311 L 1103.575 565.311 C 1117.637 565.311 1128.934 576.842 1128.934 590.67 L 1128.934 938.72 L 1148.2 938.72 Z M 663.7 570.135 C 663.7 576.135 668.528 580.729 674.294 580.729 L 713.294 580.729 C 719.294 580.729 723.888 576.135 723.888 570.135 L 723.888 533.01 C 723.888 527.244 719.294 522.416 713.294 522.416 L 674.294 522.416 C 668.528 522.416 663.7 527.244 663.7 533.01 Z M 663.7 676.915 C 663.7 682.915 668.528 687.509 674.294 687.509 L 713.294 687.509 C 719.294 687.509 723.888 682.915 723.888 676.915 L 723.888 639.79 C 723.888 634.024 719.294 629.196 713.294 629.196 L 674.294 629.196 C 668.528 629.196 663.7 634.024 663.7 639.79 Z M 674.294 794.334 L 713.294 794.334 C 719.294 794.334 723.888 789.74 723.888 783.74 L 723.888 746.615 C 723.888 740.849 719.294 736.021 713.294 736.021 L 674.294 736.021 C 668.528 736.021 663.7 740.849 663.7 746.615 L 663.7 783.74 C 663.7 789.74 668.528 794.334 674.294 794.334 Z M 801.18 860.288 C 801.18 850.585 793.352 842.757 783.649 842.757 L 719.524 842.757 C 710.055 842.757 702.227 850.585 702.227 860.288 L 702.227 938.71 L 801.18 938.71 Z M 839.711 746.615 C 839.711 740.849 834.883 736.021 829.117 736.021 L 790.117 736.021 C 784.117 736.021 779.523 740.849 779.523 746.615 L 779.523 783.74 C 779.523 789.74 784.117 794.334 790.117 794.334 L 829.117 794.334 C 834.883 794.334 839.711 789.74 839.711 783.74 Z M 839.711 639.785 C 839.711 634.019 834.883 629.191 829.117 629.191 L 790.117 629.191 C 784.117 629.191 779.523 634.019 779.523 639.785 L 779.523 676.91 C 779.523 682.91 784.117 687.504 790.117 687.504 L 829.117 687.504 C 834.883 687.504 839.711 682.91 839.711 676.91 Z M 839.711 533.005 C 839.711 527.239 834.883 522.411 829.117 522.411 L 790.117 522.411 C 784.117 522.411 779.523 527.239 779.523 533.005 L 779.523 570.13 C 779.523 576.13 784.117 580.724 790.117 580.724 L 829.117 580.724 C 834.883 580.724 839.711 576.13 839.711 570.13 Z M 1066.871 853.395 C 1066.871 847.629 1062.277 842.801 1056.277 842.801 L 1017.511 842.801 C 1011.511 842.801 1006.917 847.629 1006.917 853.395 L 1006.917 890.52 C 1006.917 896.473 1011.511 901.114 1017.511 901.114 L 1056.277 901.114 C 1062.277 901.114 1066.871 896.52 1066.871 890.52 Z M 1066.871 746.615 C 1066.871 740.849 1062.277 736.021 1056.277 736.021 L 1017.511 736.021 C 1011.511 736.021 1006.917 740.849 1006.917 746.615 L 1006.917 783.74 C 1006.917 789.74 1011.511 794.334 1017.511 794.334 L 1056.277 794.334 C 1062.277 794.334 1066.871 789.74 1066.871 783.74 Z M 1066.871 639.785 C 1066.871 634.019 1062.277 629.191 1056.277 629.191 L 1017.511 629.191 C 1011.511 629.191 1006.917 634.019 1006.917 639.785 L 1006.917 676.91 C 1006.917 682.91 1011.511 687.504 1017.511 687.504 L 1056.277 687.504 C 1062.277 687.504 1066.871 682.91 1066.871 676.91 Z"/>
</svg>