<!-- Generated by IcoMoon.io -->
<svg version="1.1" xmlns="http://www.w3.org/2000/svg" width="32" height="32" viewBox="0 0 32 32">
<path d="M9.306 17.434c-0.196-0.208 0.161-0.466 0.305-0.225 0.111 0.185-0.159 0.378-0.305 0.225zM30.581 21.035c-4.878-1.543-10.671 0.623-13.617 4.733 0.162 0.674 0.303 1.156 1.12 0.906 0.688-0.416 1.223-1.051 1.788-1.617 2.43-2.366 5.739-4.222 9.214-4.071 0.23 0.015 0.233 0.355 0 0.36-4.105 0.049-7.578 2.366-10.214 5.369 0.635-0.204 7.173 1.659 6.102 2.321-0.693 0.162-1.394 0.307-2.099 0.41-0.515 0.115-0.822-0.175-1.21-0.422 0.054 0.206 0.3 0.54-0.048 0.6-1.928 0.236-3.869 0.337-5.81 0.387-0.892 0.21-1.804 0.078-2.663-0.163-1.46 0.313-2.979 0.241-4.445 0.001-0.244-0.041-0.486-0.088-0.727-0.144-0.177-0.041-0.414-0.050-0.511-0.221-0.189-0.493-0.703-0.698-1.205-0.704-0.572-0.027-1.137 0.108-1.703 0.168-1.146 0.164-2.246-0.393-3.387-0.249-0.243 0.037-0.395-0.263-0.171-0.407 1.597-1.021 3.091-2.183 4.983-2.645-1.046-0.884-2.073-1.979-3.426-2.362-0.938-0.684 2.222-0.618 2.502-0.601 0.715 0.020 1.423 0.139 2.106 0.353-0.914-2.709-1.658-5.628-3.785-7.679l-0.004-0.002c-0.3-0.019-0.184-0.453 0.092-0.414 1.722 0.244 3.394 0.761 4.954 1.531 0.262 0.13 0.063 0.526-0.196 0.398-1.334-0.665-2.755-1.14-4.221-1.411l0 0c2.108 2.099 2.679 5.218 3.728 7.902 1.184 3.278 4.018 6.828 7.887 6.243-1.929-6.016-4.217-9.135-8.644-12.285-0.351-0.235-0.712-0.45-1.075-0.662-0.086-0.052-0.115-0.162-0.065-0.249s0.159-0.119 0.248-0.072h-0c4.95 2.743 8.595 7.833 9.925 13.121 0.539-0.265 0.606-0.961 0.547-1.502-0.036-1.096-0.351-2.16-0.787-3.159-1.125-2.61-3.129-4.931-5.373-6.582-0.056-0.040-0.090-0.104-0.093-0.173s0.025-0.135 0.077-0.18c0.082-0.069 0.201-0.072 0.287-0.008l-0 0c0.699 0.499 1.401 1.031 1.982 1.625-0.37-1.3-0.857-2.6-1.897-3.509-0.159-0.139 0.014-0.367 0.192-0.33 2.346 0.575 4.132 2.582 5.167 4.681-0.282-2.818-0.609-5.663-0.835-7.18-0.234-1.532-1.158-2.867-2.596-2.709-0.389 0.030-0.581-0.056-0.648-0.458-0.168-0.713-0.068-2.51 1.047-2.147 0.764 0.357 0.904 1.784 1.352 2.507 0.153 0.203 0.295 0.415 0.424 0.635h0c-0.261-1.27-0.468-3.469-1.812-4.077-0.364-0.305-0.97-0.254-1.376-0.208-0.254 0.032-0.545 0.089-0.767-0.077-0.374-0.279-0.272-0.997-0.096-1.36 0.244-0.502 0.829-0.714 1.298-0.378 0.406 0.317 0.745 1.475 1.822 2.165-0.202-0.692-0.439-1.374-0.654-2.061-0.2-0.892-1.547-0.992-1.448-1.85 0.035-1.033 1.95-1.886 2.205-0.554 0.072 0.475 0.036 1.007-0.171 1.422-0.173 0.339-0.202 0.733-0.080 1.093 0.435 1.253 0.867 2.942 0.903 3.084 0.063-0.294 0.149-0.582 0.257-0.862 0.069-0.185 0.069-0.389-0-0.574l-0 0c-0.189-0.547-0.156-1.565 0.43-1.68 0.305-0.101 0.584 0.091 0.776 0.312 0.32 0.369 1.010 1.166 0.512 1.632-0.086 0.080-0.451 0.147-0.766 0.189-1.581 0.262-0.443 4.369-0.41 4.629 0.144-0.821 0.153-1.889 0.584-2.6 0.354-0.586 0.916-0.306 1.106 0.061 0.182 0.369 0.478 1.496 0.136 1.799-0.246 0.25-0.581 0.133-0.889 0.196-0.139 0.028-0.621 0.271-0.642 1.366 0.062 0.023 0.549 6.52 1.148 10.243 0.115-1.609 0.536-3.171 1.169-4.668 0.116-0.595 0.251-1.474-0.187-1.961-0.213-0.2-0.434-0.407-0.439-0.423-0.37-0.359-0.112-0.834 0.158-1.186 0.273-0.354 0.781-0.945 1.264-0.968 1.245-0.057-0.541 2.149-0.264 3.408 0.488-0.944 1.063-1.84 1.717-2.678v0c0.195-0.418 0.548-1.504 0.090-1.814-0.57-0.372-0.849-1.256-0.077-1.554 0.639-0.298 1.497 0.155 1.126 0.894-0.094 0.303-0.41 0.621-0.415 0.967 0.006 0.231-0.008 0.462-0.044 0.69 0.439-0.496 0.907-0.964 1.403-1.404 0.176-0.155 0.274-0.381 0.267-0.615l-0-0c-0.013-0.392 0.010-0.824 0.010-0.824 0.033-1.838 3.513-0.424 1.961 0.875-0.376 0.29-0.864 0.444-1.344 0.519-0.55 0.090-1.66 1.427-2.091 1.875 0.286-0.127 0.639-0.066 0.905-0.231 0.513-0.399 1.949-0.657 1.829 0.498-0.046 0.509-0.468 1.332-1.086 0.934-0.272-0.175-0.506-0.445-0.728-0.704-0.362-0.413-0.952-0.089-1.338 0.125-0.13 0.083-0.243 0.188-0.334 0.312-0.481 0.643-0.917 1.319-1.303 2.023 0.277-0.226 1.862-1.19 2.104-1.305 0.246-0.117 0.55-0.192 0.801-0.046 0.697 0.427 0.497 2.357-0.553 1.997-0.28-0.107-0.7-0.381-0.986-0.58-0.109-0.076-0.238-0.12-0.371-0.125s-0.265 0.027-0.38 0.093l0 0c-1.671 1.026-2.183 3.752-2.449 5.607 1.696-2.071 4.203-4.268 7.057-4.015 0.131 0.018 0.207 0.188 0.172 0.304-0.182 0.598-0.441 1.17-0.773 1.7v0c2.369-0.674 4.905-0.716 7.21 0.114 0.967 0.337-4.363 4.796-4.889 5.26-0.060 0.060-0.147 0.083-0.228 0.060-0.984-0.356-1.808 0.105-2.354 1.032-0.124 0.201-0.434 0.007-0.314-0.192 0.562-1.096 1.412-1.702 2.681-1.333 1.65-1.415 3.351-2.779 4.687-4.506zM7.835 29.206c0.835 0.214 1.687 0.35 2.547 0.405h0c-0.191-0.553-0.722-0.921-1.131-1.309-0.387-0.366-0.735-0.772-1.039-1.21v0c-1.766 0.066-3.485 0.501-5.165 1.019-0.149 0.036-0.249-0.179-0.107-0.253 0.906-0.468 1.987-0.705 2.982-0.896 0.673-0.128 1.353-0.216 2.036-0.262-0.161-0.265-0.305-0.54-0.431-0.823-2.135 0.061-3.945 1.215-5.643 2.364 1.064 0.128 2.101 0.396 3.177 0.186 0.92-0.132 2.337-0.262 2.773 0.777zM17.674 27.936c0.029 0.569-0.089 1.136-0.344 1.646v0c1.346-0.057 2.691-0.15 4.030-0.306-0.056-0.154-0.111-0.309-0.16-0.465-0.042-0.457 0.681-0.144 0.871 0 0.292 0.211 0.448 0.311 0.819 0.254 0.52-0.080 1.037-0.18 1.551-0.293-2.012-1.215-4.542-1.696-6.767-0.836z"></path>
</svg>
