<?xml version="1.0" encoding="utf-8"?>
<svg version="1.1" viewBox="0 0 1200 1200" xmlns="http://www.w3.org/2000/svg" width="150pt" height="150pt">
  <path d="M 30.188 415.23 C 35.235 414.097 38.844 416.207 42.598 417.152 C 145.398 443.07 246.578 474.269 346.248 510.382 C 356.572 514.12 367.021 517.593 377.963 519.03 C 388.279 520.386 398.127 518.757 406.354 511.991 C 413.268 506.304 412.346 499.854 404.448 496.839 C 403.803 497.304 402.749 497.687 402.335 498.425 C 396.057 509.691 391.073 511.917 378.147 508.628 C 364.221 505.085 351.116 499.202 337.835 493.89 C 246.323 457.281 151.885 430.265 56.114 407.605 C 45.911 405.191 35.712 402.632 26.259 397.867 C 16.994 393.195 14.665 389.336 15.657 379.019 C 19.064 343.515 36.505 316.027 64.395 294.683 C 75.219 286.398 86.168 278.265 97.329 270.445 C 104.251 265.593 107.079 259.816 106.634 251.086 C 105.029 219.414 117.029 193.871 144.165 176.938 C 182.751 152.86 233.544 168.235 254.125 209.5 C 255.289 211.836 256.371 214.215 257.727 217.066 C 291.969 210.195 321.172 219.093 344.493 245.285 C 364.27 243.785 383.809 242.379 403.337 240.812 C 476.153 234.977 547.147 242.449 614.847 271.292 C 692.031 304.175 767.737 340.242 840.077 382.823 C 890.432 412.464 933.073 450.772 962.897 501.943 C 985.053 539.97 997.385 581.552 1007.12 624.073 C 1008.718 631.053 1010.038 638.1 1011.612 645.089 C 1012.823 650.471 1010.671 654.26 1006.542 657.491 C 992.476 668.499 972.909 664.084 969.206 644.639 C 963.776 616.1 948.597 591.342 934.12 566.619 C 902.542 512.697 860.124 468.685 809.08 433.029 C 744.717 388.064 676.28 350.052 605.2 316.889 C 565.403 298.319 523.157 296.119 480.23 302.327 C 465.339 304.479 450.535 307.209 435.648 309.401 C 421.007 311.557 407.082 308.619 393.816 302.412 C 386.683 299.077 379.738 295.33 372.671 291.853 C 370.151 290.615 367.655 288.83 364.069 290.607 C 360.952 295.818 363.194 300.135 368.054 302.755 C 398.366 319.126 429.21 331.853 465.109 322.388 C 484.722 317.216 504.948 314.654 525.472 315.248 C 561.093 316.279 594.265 326.686 625.702 342.326 C 691.487 375.056 755.202 411.56 813.212 456.846 C 870.528 501.588 913.622 558.206 944.542 624.016 C 948.315 632.051 950.764 640.508 951.655 649.434 C 952.901 661.887 949.198 672.266 938.882 679.539 C 915.335 696.137 893.878 715.039 873.8 735.691 C 861.077 748.781 851.46 749.265 836.304 738.808 C 806.941 718.55 779.663 695.589 752.046 673.078 C 722.577 649.062 694.175 623.703 662.601 602.351 C 643.886 589.695 623.804 579.831 602.179 573.253 C 598.128 572.019 594.94 569.972 591.898 567.132 C 573.511 549.984 554.793 533.226 532.05 521.847 C 520.007 515.82 507.48 511.46 493.777 510.999 C 482.144 510.608 472.281 514.347 463.679 522.097 C 456.042 528.972 448.413 535.867 439.613 541.331 C 419.199 554.003 397.968 556.663 375.238 547.956 C 319.734 526.698 264.168 505.581 208.528 484.686 C 156.247 465.053 103.818 445.807 51.488 426.307 C 44.21 423.6 36.855 420.901 30.168 415.229 Z M 277.988 384.769 C 318.824 384.585 351.074 351.999 350.886 311.109 C 350.706 272.285 318.417 240.945 278.734 241.082 C 239.031 241.223 205.531 274.027 205.703 312.602 C 205.883 351.938 238.941 384.942 277.988 384.77 Z M 357.98 338.464 C 337.816 366.632 315.335 392.484 277.644 392.003 C 239.124 391.515 213.246 363.034 196.339 331.28 C 184.39 348.065 196.96 373.917 210.308 385.682 C 227.23 400.6 250.847 408.651 273.113 410.061 C 295.504 411.479 316.879 407.065 333.754 391.581 C 348.383 378.151 358.414 358.589 357.981 338.464 Z M 789.71 631.674 C 789.745 649.201 802.784 663.112 819.265 663.205 C 836.273 663.299 850.218 650.959 850.253 635.783 C 850.292 618.615 835.23 603.095 818.542 603.099 C 802.401 603.107 789.679 615.72 789.71 631.673 Z M 787.148 541.548 C 803.175 541.63 818.808 528.521 818.726 511.903 C 818.643 495.298 802.148 483.762 786.648 483.704 C 747.89 483.563 749.679 541.36 787.148 541.548 Z M 673.468 525.712 C 710.726 525.728 711.272 467.989 673.964 468.005 C 637.046 468.021 636.8 525.696 673.468 525.712 Z M 525.108 388.022 C 561.213 387.807 561.213 330.67 524.795 332.397 C 490.08 334.042 490.17 388.229 525.108 388.022 Z M 424.128 384.975 C 424.186 369.401 412.515 356.491 398.159 356.252 C 384.054 356.018 373.268 367.162 373.307 381.943 C 373.346 397.783 385.354 410.701 399.987 410.654 C 413.589 410.603 424.077 399.451 424.128 384.974 Z M 186.19 284.872 C 182.381 289.294 177.604 292.587 172.045 294.423 C 157.69 299.169 141.678 299.06 127.014 303.528 C 113.747 307.571 98.982 312.528 89.916 323.68 C 83.119 332.04 81.228 345.5 89.998 353.43 C 94.248 357.274 104.959 359.028 101.939 349.778 C 100.122 344.219 93.255 342.755 94.521 335.446 C 96.946 321.45 117.541 316.969 128.638 314.067 C 145.009 309.782 162.322 309.38 178.533 305.048 C 193.076 301.165 197.822 286.587 203.013 273.931 C 201.958 270.884 200.509 269.587 197.767 269.895 C 192.111 272.321 190.068 280.372 186.19 284.872 Z M 423.458 265.118 C 417.809 265.169 409.965 266.508 411.544 274.153 C 412.883 280.657 423.173 283.669 428.825 283.696 C 435.157 283.723 442.161 280.481 439.513 272.844 C 437.376 266.688 429.048 265.086 423.458 265.117 Z M 844.878 413.938 C 834.831 421.606 854.229 439.504 863.151 436.657 C 879.245 431.516 854.682 412.587 844.878 413.938 Z M 826.14 931.27 C 804.062 899.84 814.8 862.743 829.632 830.74 C 843.394 801.056 862.874 774.326 886.581 751.806 C 913.124 726.599 944.546 707.853 975.995 689.494 C 993.288 679.4 1010.62 669.361 1027.565 658.682 C 1036.112 653.295 1044.557 647.748 1052.819 641.936 C 1057.854 638.389 1068.909 633.202 1071.143 626.975 C 1057.428 626.166 1037.373 645.166 1025.831 631.932 C 1021.394 626.846 1020.21 617.241 1021.905 610.78 C 1023.945 603.007 1032.245 600.882 1038.967 598.018 C 1066.658 586.225 1102.276 576.202 1130.799 591.026 C 1158.408 605.374 1163.639 636.397 1164.623 664.741 C 1165.936 702.55 1160.53 741.62 1151.361 778.271 C 1141.451 817.888 1125.049 854.302 1103.97 889.151 C 1121.595 891.256 1129.974 877.721 1144.345 871.651 C 1155.486 866.944 1171.841 874.436 1173.044 887.221 C 1174.513 902.807 1159.013 907.381 1146.708 907.647 C 1139.357 907.807 1111.497 907.627 1118.981 921.963 C 1124.517 932.565 1141.399 940.334 1152.813 940.025 C 1164.352 939.712 1181.555 932.806 1187.422 947.966 C 1191.774 959.2 1183.055 972.712 1171.84 975.161 C 1156.832 978.439 1153.207 963.759 1141.102 959.641 C 1108.875 948.68 1062.774 943.668 1036.262 969.641 C 1038.61 982.758 1060.879 981.551 1062.375 996.957 C 1063.754 1011.168 1045.18 1017.309 1034.027 1013.465 C 1021.55 1009.168 1022.566 992.957 1011.82 985.684 C 1001.062 978.403 986.531 979.051 974.172 979.778 C 938.973 981.856 901.895 992.255 869.472 1005.926 C 856.624 1011.344 847.273 1025.317 833.062 1026.449 C 819.777 1027.508 805.148 1017.687 807.203 1002.922 C 810.164 981.637 832.855 989.086 846.836 989.5 C 863.981 990.008 879.734 980.27 888.488 965.793 C 878.113 963.688 867.718 961.047 858.093 956.539 C 848.323 951.96 840.295 944.908 831.474 938.833 C 835.655 951.756 742.873 953.766 732.925 953.766 C 710.116 981.828 686.769 1015.016 650.616 1026.461 C 613.909 1038.082 574.706 1023.09 537.586 1021.078 C 519.367 1020.09 500.781 1020.949 483.52 1027.371 C 474.481 1030.734 447.543 1043.226 446.532 1024.172 C 446.071 1015.473 452.005 1012.883 459.048 1010.899 C 466.669 1008.751 473.587 1004.786 480.607 1001.235 C 495.693 993.606 510.427 992.422 527.002 990.661 C 515.99 982.106 504.686 973.364 491.717 967.958 C 478.037 962.259 464.155 962.388 449.619 963.599 C 442.506 964.188 435.377 965.118 428.521 967.18 C 421.236 969.368 415.388 973.38 407.462 972.27 C 395.857 970.645 391.571 958.739 398.853 949.641 C 407.56 938.762 425.498 943.036 437.619 941.708 C 453.139 940.008 467.963 932.422 483.416 931.809 C 511.408 930.7 543.764 959.059 571.123 939.364 C 577.49 908.223 596.088 882.208 615.092 857.493 C 635.94 830.38 657.928 804.266 679.217 777.516 C 665.397 771.278 649.932 770.399 635.623 765.618 C 622.986 761.395 610.998 755.364 599.994 747.856 C 576.271 731.665 557.783 709.106 541.849 685.477 C 524.951 660.422 511.372 633.157 502.111 604.372 C 498.185 592.173 478.646 532.622 506.579 534.552 C 519.138 535.419 533.501 548.626 542.458 556.521 C 553.423 566.185 563.02 576.951 574.837 585.693 C 599.075 603.623 627.099 611.017 653.564 624.47 C 682.158 639.009 707.439 659.068 732.209 679.236 C 744.928 689.591 757.119 700.439 769.205 711.517 C 780.072 721.482 792.935 730.642 801.252 742.982 C 819.576 770.173 807.909 804.002 797.487 831.896 C 784.581 866.447 766.339 898.404 747.975 930.255 C 772.014 930.052 795.178 929.239 817.69 924.407 C 821.522 925.95 822.088 930.728 826.139 931.271 Z M 1060.39 835.383 C 1093.734 803.156 1123.945 737.399 1119.874 709.003 C 1077.016 787.279 1011.276 843.591 938.858 893.82 C 987.03 890.284 1026.454 868.182 1060.39 835.383 Z M 957.424 727.881 C 932.502 727.639 927.233 766.85 954.299 764.154 C 975.049 762.088 981.955 728.123 957.424 727.881 Z M 1034.201 766.756 C 1058.17 767.088 1051.428 732.123 1030.771 731.397 C 1006.662 730.549 1012.521 766.456 1034.201 766.756 Z M 906.951 796.928 C 884.467 796.737 886.603 826.381 907.888 826.557 C 929.498 826.733 927.818 797.104 906.951 796.928 Z M 618.98 664.66 C 619.441 651.89 607.14 644.984 595.875 649.469 C 584.969 653.809 581.422 666.781 583.395 677.489 C 585.305 687.856 594.508 699.063 605.879 693.094 C 615.906 687.821 618.441 674.86 618.981 664.66 Z M 664.425 890.59 C 664.87 868.309 630.085 874.906 629.71 894.492 C 629.296 916.137 664.042 909.758 664.425 890.59 Z M 717.198 697.07 C 716.889 675.265 689.085 680.797 688.956 700.496 C 688.815 722.91 717.315 717.215 717.198 697.07 Z M 670.604 851.7 C 687.385 851.735 695.545 826.524 675.768 827.274 C 660.588 827.848 650.92 851.657 670.604 851.7 Z M 724.221 882.497 C 739.944 881.88 735.76 859.575 720.979 859.735 C 703.334 859.931 709.389 883.083 724.221 882.497 Z M 652.737 974.345 C 666.315 974.583 672.573 953.423 656.776 952.454 C 642.374 951.571 636.799 974.063 652.737 974.345 Z M 775.837 751.835 C 775.704 737.401 755.364 737.581 754.282 751.597 C 753.048 767.589 775.981 767.468 775.837 751.835 Z M 585.48 893.88 C 582.195 900.376 579.101 906.497 575.367 913.876 C 499.828 870.903 429.487 820.724 362.237 764.696 C 358.698 780.993 354.87 796.497 349.284 811.469 C 344.694 823.774 339.772 835.953 334.995 848.184 C 325.745 871.864 345.288 900.954 370.8 901.485 C 382.53 901.731 388.601 906.899 387.796 915.962 C 386.948 925.544 377.952 932.907 368.343 932.017 C 366.077 931.806 363.874 931.365 362.737 929.376 C 353.175 912.657 336.492 910.673 319.975 909.282 C 302.398 907.802 286.456 912.329 273.023 924.614 C 255.23 940.887 240.433 959.54 227.668 979.903 C 224.363 985.173 223.203 991.005 223.695 997.075 C 225.007 1013.274 206.578 1018.54 196.215 1013.97 C 188.145 1010.412 185.199 1002.626 188.32 993.572 C 190.551 987.104 195.383 983.025 200.746 979.217 C 213.422 970.213 221.328 958.162 223.434 942.557 C 224.399 935.409 221.024 931.045 214.47 929.104 C 205.966 926.589 197.185 925.522 188.368 924.682 C 149.22 920.952 111.852 929.511 74.938 941.104 C 67.898 943.315 61.024 946.046 54.114 948.651 C 49.09 950.546 45.012 953.511 42.04 958.249 C 37.993 964.698 31.606 966.526 24.501 964.831 C 17.583 963.183 13.489 958.108 12.021 951.397 C 10.435 944.151 11.884 937.588 18.528 933.038 C 23.29 929.776 28.618 928.421 34.208 929.288 C 59.743 933.249 81.313 923.608 100.817 908.874 C 109.95 901.972 119.469 897.784 130.501 895.769 C 136.853 894.609 144.005 894.468 148.411 887.96 C 147.103 881.441 142.982 877.163 137.188 875.038 C 116.36 867.402 96.43 868.41 78.25 882.425 C 72.098 887.167 66.379 887.62 60.645 883.609 C 54.891 879.585 52.04 871.593 54.114 865.214 C 55.598 860.647 58.911 858.022 63.52 857.464 C 66.313 857.124 69.298 857.3 72.051 857.909 C 82.219 860.155 91.879 858.745 99.969 852.394 C 111.192 843.581 122.617 843.679 134.899 849.241 C 147.235 854.831 160.016 857.636 173.778 857.452 C 202.864 857.061 229.212 838.874 230.977 805.222 C 231.329 798.535 231.677 791.827 231.567 785.14 C 231.313 769.636 235.302 755.433 243.395 742.222 C 252.774 726.913 260.579 710.816 267.063 694.054 C 269.559 687.597 269.599 682.081 265.497 675.925 C 254.958 660.105 248.579 642.237 242.356 624.437 C 238.364 613.019 232.239 604.097 222.258 596.707 C 166.336 555.301 114.538 509.324 69.418 456.097 C 65.121 451.031 59.566 447.031 54.258 442.23 C 57.852 439.996 58.953 442.211 60.258 443.089 C 87.992 461.71 111.942 484.862 136.387 507.359 C 167.949 536.41 201.973 562.386 235.797 588.625 C 253.156 602.094 266.246 618.34 275.227 638.687 C 290.012 672.183 314.477 698.648 341.864 722.164 C 412.204 782.566 486.704 837.284 567.074 883.754 C 573.039 887.2 579.148 890.407 585.476 893.883 Z M 248.59 777.61 C 247.106 792.051 270.125 786.879 269.004 773.985 C 267.754 759.614 249.125 765.446 248.59 777.61 Z M 450.09 554.48 C 444.223 583.347 425.469 614.652 394.586 621.585 C 376.414 625.663 357.223 618.03 340.633 611.21 C 323 603.96 306.227 594.827 289.399 585.913 C 320.141 591.96 354.321 602.886 385.848 597.608 C 412.938 593.073 432.602 574.253 450.09 554.479 Z M 406.942 718.301 C 380.938 714.188 367.618 690.246 379.282 668.578 C 383.524 660.695 389.067 658.226 397.688 660.387 C 414.36 664.562 428.325 682.719 428.36 700.27 C 428.387 713.547 420.243 720.403 406.942 718.301 Z M 519.193 797.715 C 515.24 782.856 528.666 768.508 543.963 772.059 C 559.651 775.704 564.623 793.668 565.83 807.52 C 565.201 842.286 524.56 817.868 519.193 797.715 Z M 499.09 723.58 C 486.121 723.705 474.133 713.889 468.797 702.557 C 464.379 693.174 464.043 677.272 477.254 675.725 C 489.852 674.248 505.27 683.217 512.754 692.823 C 521.953 704.624 514.656 722.874 499.09 723.581 Z M 470.28 796.48 C 452.811 796.453 438.577 778.824 442.163 761.726 C 443.487 755.417 447.421 752.39 453.71 752.226 C 469.378 751.812 486.315 769.199 485.519 784.843 C 485.148 792.089 479.386 796.491 470.281 796.48 Z M 349.657 649.561 C 353.333 661.541 347.778 674.897 333.493 674.459 C 320.423 674.052 311.036 659.451 310.61 647.42 C 310.743 617.514 343.169 628.416 349.657 649.561 Z M 278.65 361.74 C 261.986 361.349 246.783 355.076 234.658 343.666 C 222.236 331.978 211.607 323.623 215.998 305.201 C 222.799 276.646 249.15 255.654 278.51 255.545 C 307.666 255.436 334.381 277.002 341.061 305.307 C 345.108 322.455 333.846 333.358 321.702 343.916 C 308.987 354.975 295.268 360.123 278.651 361.74 Z M 334.67 309.736 C 329.143 283.099 307.854 263.853 283.248 262.615 C 253.576 261.119 231.916 277.111 221.42 309.275 C 259.654 280.884 297.225 279.173 334.67 309.736 Z"/>
</svg>