<!-- Generated by IcoMoon.io -->
<svg version="1.1" xmlns="http://www.w3.org/2000/svg" width="32" height="32" viewBox="0 0 32 32">
<path d="M0.805 11.073c0.135-0.030 0.231 0.026 0.331 0.051 2.741 0.691 5.439 1.523 8.097 2.486 0.275 0.1 0.554 0.192 0.846 0.231 0.275 0.036 0.538-0.007 0.757-0.188 0.184-0.152 0.16-0.324-0.051-0.404-0.017 0.012-0.045 0.023-0.056 0.042-0.167 0.3-0.3 0.36-0.645 0.272-0.371-0.094-0.721-0.251-1.075-0.393-2.44-0.976-4.959-1.697-7.513-2.301-0.272-0.064-0.544-0.133-0.796-0.26-0.247-0.125-0.309-0.227-0.283-0.503 0.091-0.947 0.556-1.68 1.3-2.249 0.289-0.221 0.581-0.438 0.878-0.646 0.185-0.129 0.26-0.283 0.248-0.516-0.043-0.845 0.277-1.526 1.001-1.977 1.029-0.642 2.383-0.232 2.932 0.868 0.031 0.062 0.060 0.126 0.096 0.202 0.913-0.183 1.692 0.054 2.314 0.753 0.527-0.040 1.048-0.077 1.569-0.119 1.942-0.156 3.835 0.044 5.64 0.813 2.058 0.877 4.077 1.839 6.006 2.974 1.343 0.79 2.48 1.812 3.275 3.177 0.591 1.014 0.92 2.123 1.179 3.257 0.043 0.186 0.078 0.374 0.12 0.56 0.032 0.144-0.025 0.245-0.135 0.331-0.375 0.294-0.897 0.176-0.996-0.343-0.145-0.761-0.55-1.421-0.936-2.081-0.842-1.438-1.973-2.612-3.334-3.562-1.716-1.199-3.541-2.213-5.437-3.097-1.061-0.495-2.188-0.554-3.333-0.388-0.397 0.057-0.792 0.13-1.189 0.189-0.39 0.057-0.762-0.021-1.116-0.186-0.19-0.089-0.375-0.189-0.564-0.282-0.067-0.033-0.134-0.081-0.229-0.033-0.083 0.139-0.023 0.254 0.106 0.324 0.808 0.437 1.631 0.776 2.588 0.524 0.523-0.138 1.062-0.206 1.61-0.19 0.95 0.027 1.834 0.305 2.673 0.722 1.754 0.873 3.453 1.846 5 3.054 1.528 1.193 2.678 2.703 3.502 4.458 0.101 0.214 0.166 0.44 0.19 0.678 0.033 0.332-0.066 0.609-0.341 0.803-0.628 0.443-1.2 0.947-1.736 1.497-0.339 0.349-0.596 0.362-1 0.083-0.783-0.54-1.51-1.152-2.247-1.753-0.786-0.64-1.543-1.317-2.385-1.886-0.499-0.338-1.035-0.601-1.611-0.776-0.108-0.033-0.193-0.088-0.274-0.163-0.49-0.457-0.989-0.904-1.596-1.208-0.321-0.161-0.655-0.277-1.021-0.289-0.31-0.010-0.573 0.089-0.803 0.296-0.204 0.183-0.407 0.367-0.642 0.513-0.544 0.338-1.111 0.409-1.717 0.177-1.48-0.567-2.962-1.13-4.446-1.687-1.394-0.524-2.792-1.037-4.188-1.557-0.194-0.072-0.39-0.144-0.569-0.295zM7.413 10.261c1.089-0.005 1.949-0.874 1.944-1.964-0.005-1.035-0.866-1.871-1.924-1.867s-1.952 0.879-1.947 1.907c0.005 1.049 0.886 1.929 1.928 1.924zM9.546 9.026c-0.538 0.751-1.137 1.441-2.142 1.428-1.027-0.013-1.717-0.773-2.168-1.619-0.319 0.448 0.017 1.137 0.372 1.451 0.451 0.398 1.081 0.613 1.675 0.65 0.597 0.038 1.167-0.080 1.617-0.493 0.39-0.358 0.658-0.88 0.646-1.416zM21.059 16.845c0.001 0.467 0.349 0.838 0.788 0.841 0.454 0.003 0.825-0.327 0.826-0.731 0.001-0.458-0.401-0.872-0.846-0.872-0.43 0-0.77 0.337-0.769 0.762zM20.991 14.441c0.427 0.002 0.844-0.347 0.842-0.791s-0.442-0.75-0.855-0.752c-1.034-0.004-0.986 1.537 0.013 1.543zM17.959 14.019c0.994 0 1.008-1.539 0.013-1.539-0.984 0-0.991 1.538-0.013 1.539zM14.003 10.347c0.963-0.006 0.963-1.529-0.008-1.483-0.926 0.044-0.923 1.489 0.008 1.483zM11.31 10.266c0.002-0.415-0.31-0.76-0.693-0.766-0.376-0.006-0.664 0.291-0.663 0.685 0.001 0.422 0.321 0.767 0.711 0.766 0.363-0.001 0.642-0.299 0.644-0.685zM4.965 7.597c-0.102 0.118-0.229 0.206-0.377 0.255-0.383 0.127-0.81 0.124-1.201 0.243-0.354 0.108-0.748 0.24-0.989 0.537-0.181 0.223-0.232 0.582 0.002 0.793 0.113 0.102 0.399 0.149 0.318-0.097-0.048-0.148-0.232-0.187-0.198-0.382 0.065-0.373 0.614-0.493 0.91-0.57 0.437-0.114 0.898-0.125 1.331-0.241 0.388-0.104 0.514-0.492 0.653-0.83-0.028-0.081-0.067-0.116-0.14-0.108-0.151 0.065-0.205 0.279-0.309 0.399zM11.292 7.070c-0.151 0.001-0.36 0.037-0.318 0.241 0.036 0.173 0.31 0.254 0.461 0.254 0.169 0.001 0.356-0.086 0.285-0.289-0.057-0.164-0.279-0.207-0.428-0.206zM22.53 11.038c-0.268 0.204 0.249 0.682 0.487 0.606 0.429-0.137-0.226-0.642-0.487-0.606zM22.030 24.834c-0.589-0.838-0.302-1.827 0.093-2.681 0.367-0.792 0.886-1.504 1.519-2.105 0.708-0.672 1.546-1.172 2.384-1.662 0.461-0.269 0.923-0.537 1.375-0.822 0.228-0.144 0.453-0.292 0.673-0.447 0.134-0.095 0.429-0.233 0.489-0.399-0.366-0.022-0.901 0.485-1.208 0.132-0.118-0.136-0.15-0.392-0.105-0.564 0.054-0.207 0.276-0.264 0.455-0.34 0.738-0.314 1.688-0.582 2.449-0.186 0.736 0.383 0.876 1.21 0.902 1.966 0.035 1.008-0.109 2.050-0.354 3.027-0.264 1.056-0.702 2.027-1.264 2.957 0.47 0.056 0.693-0.305 1.077-0.467 0.297-0.126 0.733 0.074 0.765 0.415 0.039 0.416-0.374 0.538-0.702 0.545-0.196 0.004-0.939-0.001-0.739 0.382 0.148 0.283 0.598 0.49 0.902 0.482 0.308-0.008 0.766-0.192 0.923 0.212 0.116 0.3-0.116 0.66-0.416 0.725-0.4 0.087-0.497-0.304-0.82-0.414-0.859-0.292-2.089-0.426-2.796 0.267 0.063 0.35 0.656 0.318 0.696 0.728 0.037 0.379-0.459 0.543-0.756 0.44-0.333-0.115-0.306-0.547-0.592-0.741s-0.674-0.177-1.004-0.157c-0.939 0.055-1.927 0.333-2.792 0.697-0.343 0.144-0.592 0.517-0.971 0.547-0.354 0.028-0.744-0.234-0.69-0.627 0.079-0.568 0.684-0.369 1.057-0.358 0.457 0.014 0.877-0.246 1.111-0.632-0.277-0.056-0.554-0.127-0.811-0.247-0.261-0.122-0.475-0.31-0.71-0.472 0.111 0.345-2.363 0.398-2.628 0.398-0.608 0.748-1.231 1.633-2.195 1.939-0.979 0.31-2.024-0.090-3.014-0.144-0.486-0.026-0.981-0.003-1.442 0.168-0.241 0.090-0.959 0.423-0.986-0.085-0.012-0.232 0.146-0.301 0.334-0.354 0.203-0.057 0.388-0.163 0.575-0.258 0.402-0.203 0.795-0.235 1.237-0.282-0.294-0.228-0.595-0.461-0.941-0.605-0.365-0.152-0.735-0.149-1.123-0.116-0.19 0.016-0.38 0.041-0.563 0.096-0.194 0.058-0.35 0.165-0.562 0.136-0.309-0.043-0.424-0.361-0.23-0.603 0.232-0.29 0.711-0.176 1.034-0.212 0.414-0.045 0.809-0.248 1.221-0.264 0.746-0.030 1.609 0.727 2.339 0.201 0.17-0.83 0.666-1.524 1.173-2.183 0.556-0.723 1.142-1.419 1.71-2.133-0.369-0.166-0.781-0.19-1.163-0.317-0.337-0.113-0.657-0.273-0.95-0.474-0.633-0.432-1.126-1.033-1.551-1.663-0.451-0.668-0.813-1.395-1.060-2.163-0.105-0.325-0.626-1.913 0.119-1.862 0.335 0.023 0.718 0.375 0.957 0.586 0.292 0.258 0.548 0.545 0.863 0.778 0.646 0.478 1.394 0.675 2.099 1.034 0.762 0.388 1.437 0.923 2.097 1.46 0.339 0.276 0.664 0.565 0.987 0.861 0.29 0.266 0.633 0.51 0.855 0.839 0.489 0.725 0.178 1.627-0.1 2.371-0.344 0.921-0.831 1.774-1.32 2.623 0.641-0.005 1.259-0.027 1.859-0.156 0.102 0.041 0.117 0.169 0.225 0.183zM28.277 22.277c0.889-0.859 1.695-2.613 1.586-3.37-1.143 2.087-2.896 3.589-4.827 4.928 1.285-0.094 2.336-0.684 3.241-1.558zM25.531 19.41c-0.665-0.006-0.805 1.039-0.083 0.967 0.553-0.055 0.738-0.961 0.083-0.967zM27.579 20.447c0.639 0.009 0.459-0.924-0.091-0.943-0.643-0.023-0.487 0.935 0.091 0.943zM24.185 21.251c-0.6-0.005-0.543 0.785 0.025 0.79 0.576 0.005 0.531-0.785-0.025-0.79zM16.506 17.724c0.012-0.341-0.316-0.525-0.616-0.405-0.291 0.116-0.385 0.462-0.333 0.747 0.051 0.276 0.296 0.575 0.6 0.416 0.267-0.141 0.335-0.486 0.349-0.758zM17.718 23.749c0.012-0.594-0.916-0.418-0.926 0.104-0.011 0.577 0.916 0.407 0.926-0.104zM19.125 18.589c-0.008-0.581-0.75-0.434-0.753 0.091-0.004 0.598 0.756 0.446 0.753-0.091zM17.883 22.712c0.448 0.001 0.665-0.671 0.138-0.651-0.405 0.015-0.663 0.65-0.138 0.651zM19.313 23.533c0.419-0.016 0.308-0.611-0.086-0.607-0.471 0.005-0.309 0.623 0.086 0.607zM17.406 25.983c0.362 0.006 0.529-0.558 0.108-0.584-0.384-0.024-0.533 0.576-0.108 0.584zM20.689 20.049c-0.004-0.385-0.546-0.38-0.575-0.006-0.033 0.426 0.579 0.423 0.575 0.006zM15.613 23.837c-0.088 0.173-0.17 0.336-0.27 0.533-2.014-1.146-3.89-2.484-5.683-3.978-0.094 0.435-0.196 0.848-0.345 1.247-0.122 0.328-0.254 0.653-0.381 0.979-0.247 0.631 0.274 1.407 0.955 1.421 0.313 0.007 0.475 0.144 0.453 0.386-0.023 0.256-0.262 0.452-0.519 0.428-0.060-0.006-0.119-0.017-0.149-0.070-0.255-0.446-0.7-0.499-1.14-0.536-0.469-0.039-0.894 0.081-1.252 0.409-0.474 0.434-0.869 0.931-1.209 1.474-0.088 0.141-0.119 0.296-0.106 0.458 0.035 0.432-0.456 0.572-0.733 0.451-0.215-0.095-0.294-0.302-0.211-0.544 0.059-0.172 0.188-0.281 0.331-0.383 0.338-0.24 0.549-0.561 0.605-0.978 0.026-0.191-0.064-0.307-0.239-0.359-0.227-0.067-0.461-0.096-0.696-0.118-1.044-0.099-2.040 0.129-3.025 0.438-0.188 0.059-0.371 0.132-0.555 0.201-0.134 0.051-0.243 0.13-0.322 0.256-0.108 0.172-0.278 0.221-0.468 0.176-0.184-0.044-0.294-0.179-0.333-0.358-0.042-0.193-0.004-0.368 0.174-0.49 0.127-0.087 0.269-0.123 0.418-0.1 0.681 0.106 1.256-0.151 1.776-0.544 0.244-0.184 0.497-0.296 0.792-0.349 0.169-0.031 0.36-0.035 0.478-0.208-0.035-0.174-0.145-0.288-0.299-0.345-0.555-0.204-1.087-0.177-1.572 0.197-0.164 0.126-0.317 0.139-0.469 0.032s-0.229-0.32-0.174-0.491c0.040-0.122 0.128-0.192 0.251-0.207 0.074-0.009 0.154-0.004 0.228 0.012 0.271 0.060 0.529 0.022 0.744-0.147 0.299-0.235 0.604-0.232 0.931-0.084 0.329 0.149 0.67 0.224 1.037 0.219 0.776-0.010 1.478-0.495 1.525-1.393 0.009-0.178 0.019-0.357 0.016-0.536-0.007-0.413 0.1-0.792 0.315-1.144 0.25-0.408 0.458-0.837 0.631-1.284 0.067-0.172 0.068-0.319-0.042-0.483-0.281-0.422-0.451-0.898-0.617-1.373-0.106-0.304-0.27-0.542-0.536-0.739-1.491-1.104-2.873-2.33-4.076-3.75-0.115-0.135-0.263-0.242-0.404-0.37 0.096-0.060 0.125-0.001 0.16 0.023 0.74 0.497 1.378 1.114 2.030 1.714 0.842 0.775 1.749 1.467 2.651 2.167 0.463 0.359 0.812 0.792 1.051 1.335 0.394 0.893 1.047 1.599 1.777 2.226 1.876 1.611 3.862 3.070 6.006 4.309 0.159 0.092 0.322 0.177 0.491 0.27zM6.629 20.736c-0.040 0.385 0.574 0.247 0.544-0.097-0.033-0.383-0.53-0.228-0.544 0.097zM12.002 14.786c-0.156 0.77-0.657 1.605-1.48 1.789-0.485 0.109-0.996-0.095-1.439-0.277-0.47-0.193-0.918-0.437-1.366-0.675 0.82 0.161 1.731 0.453 2.572 0.312 0.722-0.121 1.247-0.623 1.713-1.15zM10.852 19.155c-0.693-0.11-1.049-0.748-0.738-1.326 0.113-0.21 0.261-0.276 0.491-0.218 0.445 0.111 0.817 0.596 0.818 1.064 0.001 0.354-0.216 0.537-0.571 0.481zM13.845 21.272c-0.105-0.396 0.253-0.779 0.661-0.684 0.418 0.097 0.551 0.576 0.583 0.946-0.017 0.927-1.101 0.276-1.244-0.261zM13.309 19.295c-0.346 0.003-0.666-0.258-0.808-0.561-0.118-0.25-0.127-0.674 0.226-0.716 0.336-0.039 0.747 0.2 0.947 0.456 0.245 0.315 0.051 0.801-0.364 0.82zM12.541 21.239c-0.466-0.001-0.845-0.471-0.75-0.927 0.035-0.168 0.14-0.249 0.308-0.253 0.418-0.011 0.869 0.453 0.848 0.87-0.010 0.193-0.164 0.311-0.406 0.31zM9.324 17.322c0.098 0.319-0.050 0.676-0.431 0.664-0.349-0.011-0.599-0.4-0.61-0.721 0.004-0.797 0.868-0.507 1.041 0.057zM7.431 9.646c-0.444-0.010-0.85-0.178-1.173-0.482-0.331-0.312-0.615-0.534-0.498-1.026 0.181-0.761 0.884-1.321 1.667-1.324 0.778-0.003 1.49 0.572 1.668 1.327 0.108 0.457-0.192 0.748-0.516 1.030-0.339 0.295-0.705 0.432-1.148 0.475zM8.925 8.26c-0.147-0.71-0.715-1.224-1.371-1.257-0.791-0.040-1.369 0.387-1.649 1.244 1.020-0.757 2.021-0.803 3.020 0.012z"></path>
</svg>
