<!-- Generated by IcoMoon.io -->
<svg version="1.1" xmlns="http://www.w3.org/2000/svg" width="32" height="32" viewBox="0 0 32 32">
<path d="M5.878 18.078v0c0.104-0.040 0.212-0.059 0.321-0.055 0.022 0 0.043 0.004 0.064 0.010h0.002l0.016 0.006 0.010 0.002c0.024 0.008 0.046 0.023 0.064 0.046 0.030 0.048 0.046 0.107 0.046 0.168 0.010 0.126-0.101 0.183-0.235 0.196-0.101 0.008-0.201-0.002-0.299-0.027-0.088-0.023-0.174-0.063-0.252-0.116-0.042-0.030-0.080-0.038-0.077-0.044 0.102-0.088 0.217-0.151 0.34-0.185zM6.64 17.546v0c0.034-0.299 0.054-0.721 0.064-1.175 0.019-0.829 0.010-1.777 0-2.252 0.040-0.008 0.083-0.015 0.128-0.021 0.024 0 0.046 0 0.069 0.002-0.038 1.075-0.013 2.155 0.073 3.226-0.094 0.052-0.18 0.126-0.251 0.217l-0.002-0.002c-0.011 0.015-0.022 0.032-0.034 0.048-0.016-0.015-0.032-0.030-0.048-0.044zM23.133 6.908l-0.091 0.034c-0.765 0.24-1.488 0.639-2.137 1.178l-0.018-0.042c-0.268-0.768-0.749-1.403-1.362-1.8l0.013-0.010c0.158-0.097 0.34-0.124 0.514-0.074 0.198 0.050 0.382 0.16 0.533 0.32 0.070 0.076 0.133 0.166 0.18 0.263 0.022 0.048 0.069 0.072 0.113 0.059s0.075-0.061 0.075-0.116c-0.058-0.557-0.233-1.087-0.513-1.539-0.125-0.227-0.27-0.439-0.431-0.631 0.209 0.078 0.404 0.2 0.575 0.362 0.358 0.395 0.637 0.879 0.816 1.421 0.021 0.061 0.078 0.090 0.129 0.065s0.077-0.093 0.056-0.154c-0.093-0.669-0.129-1.348-0.113-2.027h-0.002c0.070 0.244 0.155 0.49 0.248 0.732 0.217 0.557 0.463 1.094 0.738 1.613 0.022 0.050 0.070 0.072 0.115 0.057 0.045-0.017 0.075-0.067 0.072-0.122 0.006-0.696 0.131-1.382 0.37-2.017 0.099-0.29 0.257-0.545 0.458-0.744-0.196 0.934-0.305 1.893-0.323 2.856v-0.002c-0.005 0.109-0.011 0.214-0.018 0.317zM13.277 7.97l-0.002 0c-0.723-0.225-1.503-0.41-2.304-0.561l-0.003-0.042c-0.072-0.829-0.141-1.602-1.171-3.043 0.289 0.023 0.562 0.172 0.765 0.419 0.291 0.299 0.525 0.669 0.693 1.081 0.030 0.076 0.056 0.156 0.080 0.234 0.038 0.189 0.061 0.307 0.062 0.315 0.010 0.065 0.061 0.107 0.115 0.097 0.054-0.011 0.089-0.072 0.081-0.137-0.014-0.118-0.037-0.233-0.069-0.345l-0.204-1.020c-0.144-0.713-0.311-1.543-0.412-2.042 0.131 0.229 0.251 0.467 0.356 0.715 0.236 0.549 0.436 1.121 0.596 1.71 0.014 0.059 0.065 0.095 0.117 0.082s0.085-0.071 0.077-0.133c-0.014-0.639 0.121-1.27 0.388-1.823 0.166-0.427 0.42-0.795 0.739-1.070h0.002c-0.054 0.263-0.125 0.501-0.195 0.744-0.321 0.972-0.42 2.029-0.287 3.062 0.006 0.063 0.053 0.109 0.105 0.105 0.054-0.004 0.094-0.057 0.093-0.122 0.006-0.372 0.174-0.713 0.441-0.904 0.096-0.078 0.198-0.139 0.308-0.183 0.097-0.042 0.2-0.067 0.303-0.071 0.080-0.006 0.16 0.010 0.233 0.044h0.002c-0.676 0.29-0.728 1.154-0.775 1.932-0.002 0.326-0.046 0.648-0.136 0.955h0.002zM8.962 17.193v0c0.102-0.040 0.211-0.059 0.319-0.057 0.056-0.002 0.112 0.019 0.155 0.063 0.030 0.050 0.046 0.109 0.046 0.17v-0.002c0.010 0.126-0.101 0.183-0.235 0.196-0.101 0.010-0.201 0-0.299-0.027-0.088-0.023-0.174-0.061-0.252-0.116v0.002c-0.042-0.030-0.080-0.038-0.077-0.044 0.102-0.090 0.217-0.153 0.342-0.185zM8.163 17.048h-0c0.171-0.227 0.394-0.389 0.644-0.465 0.163-0.061 0.334-0.090 0.505-0.082 0.195 0.006 0.38 0.101 0.514 0.267 0.072 0.093 0.125 0.204 0.153 0.324 0.906-1.75 2.785-2.431 4.43-3.028 0.516-0.187 1.006-0.364 1.44-0.57 0.944-0.446 1.524-1.005 1.166-2.086-0.201-0.543-0.527-1.009-0.941-1.342-0.013-0.010-0.026-0.021-0.038-0.032-0.719-0.566-1.509-0.992-2.34-1.26-1.613-0.536-3.266-0.889-4.933-1.054 0.125 0.029 0.216 0.158 0.217 0.311 0 0.153-0.089 0.284-0.216 0.313h0.002c-0.107 0.032-0.206 0.065-0.286 0.090-0.078 0.025-0.139 0.044-0.193 0.059 0.196 0.252 0.415 0.475 0.653 0.667 0.165 0.133 0.318 0.284 0.46 0.45 0.102 0.126 0.097 0.328-0.010 0.448-0.005 0.006-0.010 0.011-0.016 0.017-0.126 0.141-0.286 0.229-0.457 0.256 0.043 0.072 0.091 0.145 0.142 0.215 0.204 0.28 0.441 0.526 0.699 0.734 0.099 0.076 0.144 0.221 0.112 0.357-0.034 0.135-0.137 0.229-0.256 0.229v0.002c-0.203 0-0.402 0.004-0.604 0.010h-0.010c0.059 0.067 0.121 0.137 0.184 0.208 0.246 0.238 0.458 0.521 0.632 0.837 0.048 0.166-0.027 0.347-0.168 0.402-0.027 0.010-0.054 0.015-0.083 0.017h-0.626c0.096 0.275 0.211 0.538 0.343 0.789 0.083 0.122 0.133 0.273 0.144 0.431-0.011 0.174-0.137 0.305-0.283 0.294-0.554 0.017-1.102-0.149-1.581-0.48h-0.002c-0.046-0.029-0.091-0.055-0.136-0.082-0.032 0.976-0.010 1.954 0.069 2.927 0.173 0.010 0.343 0.046 0.509 0.107h-0.002c0.026 0.010 0.050 0.019 0.073 0.029 0.006-0.109 0.037-0.214 0.085-0.305zM8.598 19.472v0.002c0.013 0.067 0.019 0.134 0.019 0.202h-0.002c0.005 0.139-0.006 0.202-0.024 0.215-0.003 0.002 0.002-0.004-0.003-0.006-0.026-0.006-0.050-0.021-0.070-0.044-0.054-0.051-0.078-0.137-0.059-0.217 0.034-0.065 0.081-0.118 0.139-0.151v-0.002zM7.208 19.821v0.002c0.102-0.040 0.211-0.061 0.319-0.057 0.056-0.002 0.112 0.019 0.155 0.063 0.030 0.050 0.046 0.109 0.046 0.17v-0.002c0.010 0.126-0.101 0.183-0.235 0.196-0.101 0.010-0.201 0-0.299-0.027-0.088-0.023-0.174-0.061-0.252-0.116-0.042-0.030-0.080-0.038-0.077-0.044 0.102-0.088 0.217-0.151 0.34-0.183l0.002-0.002zM7.917 19.251v0c0.019-0.006 0.038-0.010 0.057-0.015 0.029-0.008 0.056-0.015 0.085-0.025-0.022 0.034-0.043 0.069-0.061 0.105-0.026-0.025-0.053-0.046-0.081-0.065zM24.994 12.154l-0-0c0.035-0.58 0.073-1.228 0.572-1.344 0.070-0.015 0.126-0.074 0.15-0.154s0.010-0.168-0.035-0.233c-0.128-0.189-0.326-0.288-0.527-0.265-0.115 0.004-0.228 0.030-0.337 0.074-0.113 0.048-0.222 0.112-0.321 0.193-0.045 0.036-0.086 0.074-0.128 0.116 0.014-0.513 0.102-1.020 0.26-1.499 0.086-0.277 0.155-0.561 0.204-0.848 0.013-0.080-0.010-0.162-0.059-0.219-0.051-0.055-0.121-0.076-0.188-0.055-0.417 0.223-0.747 0.625-0.925 1.127-0.099 0.227-0.182 0.465-0.246 0.711-0.070-0.193-0.147-0.389-0.228-0.576-0.145-0.362-0.335-0.696-0.565-0.99-0.070-0.078-0.176-0.088-0.254-0.021-0.077 0.067-0.105 0.189-0.065 0.292 0.048 0.261 0.185 0.95 0.319 1.621-0.029-0.030-0.056-0.061-0.085-0.090-0.23-0.277-0.545-0.429-0.872-0.423-0.061 0.010-0.121 0.029-0.177 0.059-0.059 0.034-0.101 0.099-0.112 0.177-0.011 0.076 0.010 0.156 0.057 0.212 0.866 1.18 0.92 1.787 0.977 2.437 0.019 0.269 0.054 0.534 0.105 0.795 0.030 0.128 0.081 0.246 0.15 0.347h-0.845c-0.147 0.002-0.267 0.143-0.267 0.318s0.12 0.318 0.267 0.318h4.296c0.147 0 0.267-0.143 0.267-0.318s-0.12-0.317-0.267-0.318h-1.597c0.059-0.082 0.112-0.168 0.161-0.259 0.257-0.242 0.284-0.694 0.313-1.184zM24.422 12.974v-0c-0.024 0.019-0.043 0.044-0.059 0.072-0.109 0.235-0.271 0.425-0.468 0.551h-0.597c-0.035-0.019-0.070-0.040-0.104-0.065-0.134-0.088-0.236-0.227-0.291-0.395-0.048-0.24-0.080-0.484-0.097-0.732-0.037-0.831-0.307-1.625-0.763-2.254 0.083 0.059 0.161 0.128 0.235 0.204 0.228 0.235 0.414 0.524 0.545 0.848 0.022 0.057 0.042 0.116 0.059 0.177l0.002-0.002c0.029 0.149 0.046 0.238 0.048 0.244 0.019 0.13 0.123 0.215 0.23 0.193 0.109-0.023 0.18-0.145 0.163-0.275-0.013-0.103-0.034-0.206-0.061-0.305l-0.002 0.002-0.168-0.839c-0.046-0.233-0.097-0.479-0.145-0.715 0.144 0.358 0.267 0.73 0.369 1.108 0.029 0.12 0.131 0.191 0.233 0.164s0.169-0.143 0.155-0.265c-0.008-0.501 0.099-0.993 0.308-1.426 0.078-0.181 0.171-0.353 0.276-0.511l-0.038 0.132c-0.271 0.824-0.355 1.72-0.243 2.595 0.011 0.126 0.104 0.219 0.211 0.212 0.107-0.010 0.188-0.116 0.187-0.244 0.006-0.259 0.125-0.498 0.313-0.629 0.067-0.055 0.139-0.099 0.216-0.132-0.24 0.421-0.359 0.923-0.34 1.432h0.002c-0.024 0.391-0.045 0.749-0.174 0.854zM6.231 24.494h-0c-0.022 0.019-0.043 0.044-0.057 0.072-0.109 0.235-0.271 0.425-0.47 0.551h-0.596c-0.037-0.019-0.072-0.042-0.105-0.067-0.133-0.086-0.235-0.225-0.291-0.395-0.046-0.24-0.078-0.484-0.096-0.73-0.038-0.831-0.307-1.625-0.765-2.254 0.085 0.059 0.163 0.126 0.236 0.202 0.228 0.236 0.412 0.524 0.543 0.85 0.024 0.057 0.043 0.116 0.061 0.175 0.029 0.147 0.046 0.238 0.048 0.244 0.021 0.13 0.123 0.214 0.232 0.193 0.107-0.023 0.18-0.147 0.161-0.275-0.011-0.105-0.032-0.206-0.059-0.305l-0.166-0.826c-0.048-0.236-0.099-0.488-0.149-0.728 0.142 0.36 0.265 0.73 0.367 1.11 0.030 0.12 0.133 0.191 0.235 0.164s0.169-0.143 0.155-0.267c-0.010-0.5 0.097-0.992 0.308-1.424 0.078-0.181 0.171-0.353 0.276-0.513l-0.038 0.132c-0.271 0.826-0.356 1.72-0.244 2.597 0.013 0.126 0.105 0.219 0.212 0.212 0.107-0.010 0.188-0.116 0.185-0.244 0.008-0.259 0.126-0.498 0.313-0.631 0.067-0.053 0.141-0.097 0.217-0.13-0.241 0.419-0.359 0.923-0.34 1.432-0.024 0.391-0.045 0.749-0.174 0.854zM25.478 21.84l-0-0c0.021-0.509-0.099-1.012-0.34-1.432 0.077 0.032 0.15 0.076 0.217 0.13 0.188 0.134 0.305 0.372 0.313 0.631-0.003 0.128 0.080 0.235 0.185 0.244 0.107 0.008 0.2-0.086 0.212-0.212 0.112-0.877 0.027-1.771-0.244-2.597l-0.038-0.132c0.105 0.16 0.198 0.332 0.276 0.513 0.211 0.433 0.318 0.925 0.308 1.424-0.014 0.124 0.053 0.24 0.155 0.267s0.204-0.044 0.235-0.164c0.102-0.379 0.225-0.749 0.367-1.108h0.002c-0.048 0.233-0.097 0.475-0.144 0.706l-0.171 0.847c-0.029 0.099-0.049 0.2-0.061 0.305-0.019 0.128 0.054 0.252 0.161 0.275 0.109 0.023 0.211-0.063 0.232-0.193 0-0.006 0.019-0.095 0.048-0.242 0.018-0.061 0.038-0.12 0.061-0.179 0.131-0.324 0.316-0.612 0.543-0.849 0.073-0.076 0.152-0.143 0.236-0.202-0.458 0.629-0.727 1.422-0.765 2.254-0.018 0.246-0.049 0.49-0.096 0.73-0.054 0.17-0.158 0.309-0.291 0.395-0.034 0.025-0.069 0.048-0.105 0.067h-0.596c-0.198-0.126-0.361-0.317-0.47-0.551-0.014-0.029-0.035-0.053-0.058-0.072-0.129-0.105-0.15-0.463-0.174-0.854zM19.563 17.878l0-0c-0.002-0.309-0.051-0.614-0.147-0.9 0.115 0.088 0.185 0.238 0.188 0.4-0.002 0.128 0.080 0.235 0.187 0.244 0.107 0.008 0.2-0.086 0.211-0.212 0.067-0.536 0.040-1.081-0.083-1.602 0.144 0.303 0.217 0.646 0.211 0.995-0.014 0.122 0.053 0.238 0.155 0.265 0.102 0.029 0.204-0.044 0.233-0.164h0.002l0.016-0.059-0.072 0.357c-0.022 0.078-0.038 0.156-0.048 0.236-0.018 0.13 0.054 0.252 0.163 0.275 0.107 0.023 0.211-0.063 0.23-0.193l0.035-0.174c0.013-0.042 0.027-0.084 0.043-0.126 0.073-0.183 0.171-0.351 0.289-0.496-0.225 0.406-0.355 0.877-0.374 1.363-0.013 0.183-0.037 0.362-0.070 0.54-0.038 0.111-0.107 0.202-0.196 0.257h0.002c-0.011 0.008-0.021 0.015-0.030 0.021h-0.489c-0.12-0.092-0.219-0.215-0.289-0.364-0.014-0.029-0.034-0.053-0.057-0.072-0.077-0.061-0.093-0.317-0.109-0.593zM19.411 18.835l0.002-0.002c0.013 0.027 0.027 0.052 0.041 0.074h-0.573c-0.070 0-0.139 0.034-0.19 0.093-0.049 0.059-0.078 0.141-0.078 0.225 0 0.086 0.029 0.166 0.078 0.227 0.051 0.059 0.12 0.092 0.19 0.092h3.694c0.070 0 0.139-0.032 0.188-0.092 0.051-0.061 0.078-0.141 0.078-0.227 0-0.084-0.027-0.166-0.078-0.225-0.050-0.059-0.118-0.093-0.188-0.093h-1.512c0.024-0.052 0.043-0.107 0.056-0.164 0.040-0.2 0.065-0.4 0.080-0.604 0.042-0.683 0.299-1.321 0.717-1.787 0.048-0.055 0.069-0.135 0.057-0.212-0.011-0.078-0.053-0.143-0.112-0.177-0.048-0.025-0.097-0.042-0.148-0.050-0.235-0.010-0.463 0.090-0.637 0.276 0.086-0.427 0.168-0.835 0.201-1.022 0.038-0.103 0.011-0.225-0.067-0.292-0.078-0.065-0.184-0.055-0.252 0.023-0.177 0.223-0.323 0.479-0.434 0.757-0.042 0.095-0.081 0.194-0.12 0.294-0.041-0.135-0.089-0.269-0.145-0.397-0.139-0.391-0.398-0.704-0.723-0.873-0.067-0.021-0.137 0-0.187 0.055-0.051 0.057-0.073 0.139-0.061 0.219 0.037 0.219 0.089 0.435 0.155 0.643 0.102 0.313 0.165 0.641 0.187 0.976l-0.011-0.010c-0.080-0.063-0.165-0.114-0.254-0.151-0.086-0.036-0.176-0.057-0.267-0.061-0.165-0.015-0.327 0.065-0.433 0.219-0.046 0.065-0.061 0.153-0.037 0.233s0.081 0.139 0.15 0.156c0.335 0.078 0.364 0.54 0.388 0.951-0.026 0.334 0.064 0.667 0.246 0.923zM12.785 16.078c-1.699 0.601-2.721 2.666-2.341 4.732 0.014 0.132 0.115 0.221 0.225 0.204 0.109-0.019 0.185-0.139 0.169-0.269-0.355-1.848 0.564-3.703 2.090-4.224 0.104-0.048 0.155-0.185 0.115-0.307s-0.155-0.183-0.259-0.137l0 0zM17.215 14.007v0.002c0.053-0.116 0.174-0.158 0.271-0.095 0.096 0.063 0.133 0.208 0.080 0.322-0.345 0.685-0.816 1.268-1.378 1.703h0.002c-0.816 0.73-1.576 1.411-1.302 3.571 0.008 0.063-0.006 0.126-0.037 0.177-0.032 0.051-0.080 0.086-0.131 0.095-0.053 0.010-0.107-0.008-0.149-0.046-0.043-0.036-0.072-0.093-0.080-0.156l0.002 0.002c-0.311-2.439 0.541-3.203 1.456-4.023 0.513-0.399 0.945-0.927 1.265-1.55v-0.002zM17.266 23.69v0c0.385 0.351 0.791 0.667 1.214 0.948 1.116 0.786 2.407 1.693 2.841 3.453 0.014 0.061 0.049 0.113 0.096 0.143s0.101 0.038 0.152 0.019c0.051-0.017 0.094-0.059 0.12-0.114s0.030-0.122 0.016-0.181c-0.479-1.941-1.843-2.9-3.020-3.73-0.407-0.269-0.797-0.572-1.166-0.906-0.086-0.084-0.211-0.069-0.281 0.034-0.069 0.101-0.056 0.252 0.029 0.334zM14.262 23.991v0c0.216 0.612 0.335 1.266 0.355 1.932-0.005 0.755-0.238 1.482-0.656 2.050-0.070 0.101-0.059 0.25 0.026 0.334s0.209 0.071 0.281-0.030c0.477-0.65 0.744-1.485 0.747-2.353-0.018-0.721-0.145-1.432-0.378-2.099-0.038-0.124-0.153-0.185-0.257-0.139-0.050 0.023-0.089 0.067-0.112 0.126-0.021 0.057-0.022 0.122-0.005 0.181zM11.037 22.155v-0c0.182 0.275 0.347 0.568 0.489 0.875 0.136 0.278 0.212 0.593 0.224 0.915 0 0.133 0.089 0.24 0.201 0.24 0.11 0 0.2-0.107 0.2-0.24-0.011-0.398-0.104-0.789-0.271-1.138-0.153-0.33-0.329-0.645-0.525-0.942-0.067-0.105-0.192-0.124-0.279-0.044-0.088 0.078-0.104 0.229-0.037 0.334zM12.707 18.686h-0.002c-0.126 0.62-0.133 1.266-0.018 1.89 0.128 0.589 0.321 1.155 0.575 1.682 0.026 0.055 0.067 0.097 0.118 0.116s0.105 0.011 0.152-0.017c0.046-0.030 0.081-0.080 0.097-0.141 0.014-0.061 0.010-0.126-0.016-0.181-0.236-0.49-0.417-1.016-0.537-1.564-0.102-0.555-0.096-1.131 0.018-1.682 0.024-0.128-0.043-0.256-0.152-0.284-0.107-0.029-0.214 0.051-0.238 0.181h0.002zM24.63 27.391c-0.42-1.121-1.076-2.094-1.907-2.818-0.921-0.803-1.944-1.426-3.029-1.848-1.172-0.473-2.209-1.331-2.994-2.473-0.238-0.364-0.412-0.78-0.514-1.224-0.089-0.404-0.075-0.831 0.037-1.228 0.203-0.608 0.554-1.133 1.009-1.499 1.437-1.289 2.062-2.61 2.166-3.747 0.054-0.555-0.026-1.115-0.23-1.617-0.037-0.088-0.075-0.172-0.118-0.254 0.584-0.467 1.14-0.984 1.666-1.543 0.61-0.639 0.955-0.999 2.491-1.594 0.712-0.215 1.456-0.233 2.175-0.048 1.155 0.252 2.341 0.208 3.48-0.13 1.972 2.319 3.139 5.186 3.139 8.285-0.043 2.86-0.985 5.594-2.638 7.663h-1.955c0.070-0.101 0.121-0.219 0.15-0.347 0.053-0.261 0.088-0.528 0.107-0.795 0.057-0.65 0.112-1.257 0.977-2.437v-0.002c0.046-0.055 0.069-0.133 0.057-0.21-0.011-0.078-0.053-0.145-0.113-0.177-0.056-0.030-0.115-0.051-0.177-0.059-0.327-0.008-0.642 0.145-0.872 0.421-0.029 0.029-0.056 0.059-0.085 0.090 0.136-0.671 0.273-1.36 0.319-1.621l0.002 0.002c0.038-0.103 0.011-0.227-0.067-0.292-0.078-0.067-0.184-0.057-0.252 0.021-0.23 0.294-0.422 0.627-0.567 0.99-0.081 0.187-0.158 0.383-0.228 0.576-0.064-0.246-0.145-0.484-0.246-0.711-0.177-0.503-0.508-0.906-0.925-1.127-0.065-0.021-0.137 0-0.187 0.055-0.051 0.055-0.073 0.137-0.061 0.219 0.049 0.288 0.118 0.572 0.204 0.849 0.158 0.477 0.246 0.984 0.26 1.499-0.040-0.042-0.083-0.080-0.126-0.116-0.101-0.082-0.209-0.145-0.323-0.193-0.109-0.046-0.222-0.071-0.335-0.076-0.203-0.021-0.399 0.078-0.527 0.265-0.046 0.065-0.059 0.154-0.037 0.235 0.024 0.078 0.081 0.137 0.15 0.154 0.498 0.116 0.537 0.765 0.572 1.342 0.029 0.49 0.056 0.942 0.313 1.184v0.002c0.054 0.097 0.112 0.193 0.177 0.28-0.12 0.055-0.19 0.206-0.166 0.357s0.134 0.259 0.262 0.259h3.184c-0.468 0.547-0.968 1.054-1.496 1.516-0.854 0.744-1.766 1.386-2.723 1.92l0-0zM10.023 28.586c2.343-2.485 1.618-3.794 0.738-5.387-0.703-1.27-1.519-2.746-0.495-5.4 0.703-1.823 2.63-2.521 4.299-3.127 0.537-0.194 1.049-0.379 1.482-0.585 1.236-0.584 1.983-1.35 1.466-2.912-0.16-0.46-0.399-0.87-0.706-1.205 0.43-0.038 0.858 0.090 1.22 0.366 0.283 0.217 0.513 0.521 0.663 0.881 0.16 0.395 0.222 0.835 0.177 1.27-0.088 0.978-0.652 2.137-1.955 3.306v-0.002c-0.54 0.444-0.957 1.072-1.193 1.802-0.147 0.511-0.165 1.062-0.051 1.586 0.12 0.526 0.326 1.020 0.607 1.451 0.85 1.245 1.974 2.178 3.247 2.696 1.032 0.399 2.003 0.99 2.879 1.75 0.76 0.66 1.361 1.548 1.744 2.572-2.576 1.302-5.347 1.962-8.145 1.941-2.022 0.008-4.035-0.332-5.977-1.007l-0 0.001zM4.981 25.756l0-0.002c1.368 1.119 2.865 1.996 4.443 2.607 2.284-2.298 1.658-3.428 0.893-4.813-0.725-1.308-1.559-2.817-0.744-5.418-0.091 0.036-0.187 0.059-0.283 0.067-0.126 0.011-0.252 0.002-0.377-0.025 0.032 0.248-0.051 0.498-0.216 0.652 0.099 0.015 0.192 0.071 0.26 0.156 0.131 0.187 0.2 0.425 0.192 0.669 0.038 0.303-0.070 0.606-0.279 0.784-0.113 0.080-0.249 0.109-0.378 0.076-0.102-0.025-0.198-0.076-0.279-0.151-0.136 0.296-0.396 0.475-0.676 0.467-0.153 0.013-0.305-0.002-0.454-0.042-0.145-0.038-0.286-0.101-0.414-0.191-0.069-0.048-0.133-0.107-0.19-0.175l0.002 0.002c-0.014 0.046-0.027 0.093-0.042 0.141-0.158 0.477-0.246 0.984-0.26 1.499 0.040-0.042 0.083-0.080 0.126-0.116 0.101-0.082 0.209-0.145 0.323-0.193 0.109-0.046 0.222-0.071 0.337-0.076 0.201-0.021 0.398 0.078 0.525 0.265 0.046 0.065 0.061 0.154 0.037 0.235s-0.081 0.137-0.15 0.154c-0.498 0.116-0.537 0.765-0.572 1.344-0.029 0.49-0.058 0.942-0.313 1.184-0.050 0.090-0.102 0.177-0.161 0.259h0.942c0.147 0.002 0.265 0.143 0.265 0.318s-0.118 0.318-0.265 0.318l-2.292 0.002zM3.127 7.385l-0.002 0c-1.963 2.313-3.125 5.177-3.125 8.269 0 3.65 1.618 6.977 4.259 9.463h0.217c-0.070-0.101-0.121-0.219-0.15-0.347-0.051-0.261-0.088-0.528-0.105-0.795l-0.002-0.002c-0.058-0.65-0.11-1.255-0.977-2.437-0.046-0.053-0.069-0.133-0.058-0.21 0.011-0.078 0.054-0.143 0.113-0.177 0.056-0.030 0.117-0.051 0.177-0.059 0.327-0.008 0.642 0.145 0.872 0.421v0.002c0.029 0.029 0.058 0.059 0.085 0.090-0.134-0.671-0.271-1.36-0.319-1.621-0.040-0.103-0.013-0.227 0.065-0.292 0.078-0.067 0.184-0.057 0.254 0.021 0.228 0.294 0.42 0.627 0.565 0.99 0.081 0.187 0.158 0.383 0.228 0.576 0.064-0.246 0.147-0.484 0.246-0.711 0.177-0.503 0.508-0.906 0.925-1.127 0.064-0.021 0.131-0.002 0.18 0.048 0.145-0.12 0.307-0.212 0.476-0.275-0.15-0.052-0.286-0.154-0.391-0.292-0.137 0.097-0.294 0.153-0.454 0.164-0.153 0.011-0.305-0.002-0.454-0.044-0.145-0.036-0.286-0.101-0.414-0.189-0.302-0.217-0.45-0.54-0.259-0.917 0.171-0.229 0.394-0.391 0.644-0.465 0.129-0.048 0.262-0.076 0.398-0.084 0.026-0.263 0.042-0.631 0.051-1.030 0.016-0.704 0.011-1.497 0.003-2-0.094 0.074-0.182 0.156-0.265 0.246-0.163 0.194-0.361 0.341-0.58 0.429-0.081 0.029-0.168 0.011-0.236-0.050-0.067-0.059-0.107-0.154-0.107-0.255v-0.263c-0.294 0.172-0.594 0.324-0.902 0.456-0.099 0-0.192-0.067-0.236-0.172-0.046-0.107-0.038-0.235 0.019-0.332v0.002c0.030-0.067 0.093-0.284 0.158-0.505 0.038-0.13 0.077-0.261 0.113-0.378l-0.35-0.181c-0.134-0.071-0.196-0.257-0.137-0.418 0.008-0.023 0.019-0.046 0.032-0.065 0.225-0.355 0.43-0.726 0.612-1.115 0.078-0.166 0.149-0.338 0.211-0.513v0.002l-0.375-0.090c-0.097-0.023-0.177-0.109-0.204-0.221-0.029-0.114-0.002-0.236 0.069-0.318 0.246-0.324 0.476-0.664 0.687-1.020 0.11-0.189 0.209-0.385 0.297-0.589-0.219 0.072-0.454-0.021-0.591-0.238-0.094-0.135-0.078-0.336 0.034-0.448 0.236-0.265 0.446-0.561 0.623-0.883h0.002c-0.648-0.027-1.255-0.042-1.8-0.050l-0.121-0.002zM6.714 4.309l-0.002 0c-0.029 0.017-0.059 0.036-0.088 0.055-0.2 0.425-0.477 0.984-0.826 1.594 0.048-0.021 0.093-0.042 0.133-0.059 0.115-0.050 0.243 0.002 0.31 0.124s0.056 0.284-0.026 0.391c-0.016 0.021 0 0.010-0.024 0.059-0.308 0.637-0.652 1.249-1.028 1.83 0.101-0.027 0.203-0.034 0.303-0.021 0.026 0.004 0.050 0.013 0.073 0.025 0.134 0.069 0.198 0.256 0.141 0.416-0.15 0.433-0.335 0.845-0.556 1.23h-0.002c-0.131 0.227-0.275 0.446-0.441 0.683l0.219 0.052c0.145 0.034 0.24 0.2 0.211 0.374-0.075 0.351-0.192 0.688-0.347 1.001-0.141 0.297-0.292 0.587-0.457 0.866l0.281 0.147c0.078 0.036 0.137 0.114 0.16 0.21 0.022 0.097 0.006 0.2-0.045 0.28-0.056 0.145-0.104 0.294-0.144 0.446l0.002 0.002c0.126-0.076 0.257-0.154 0.369-0.215l0.195-0.107c0.081-0.055 0.182-0.053 0.263 0.004s0.133 0.162 0.133 0.275v0.196l0.042-0.044c0.327-0.383 0.757-0.616 1.214-0.656 0.018-0.002 0.034-0.004 0.050-0.004 0.348 0.010 0.687 0.13 0.982 0.347 0.275 0.187 0.575 0.313 0.885 0.374-0.163-0.334-0.287-0.692-0.369-1.066-0.026-0.097-0.010-0.202 0.040-0.284 0.051-0.082 0.131-0.13 0.216-0.13h0.38l-0.141-0.16c-0.225-0.238-0.434-0.498-0.628-0.774-0.064-0.095-0.077-0.227-0.034-0.338 0.045-0.111 0.139-0.181 0.241-0.181v0.002c0.161 0 0.323-0.004 0.484-0.008-0.078-0.092-0.155-0.187-0.225-0.284-0.196-0.252-0.343-0.555-0.425-0.885-0.022-0.097-0.006-0.2 0.043-0.278 0.051-0.080 0.129-0.126 0.212-0.126 0.050 0 0.099 0.004 0.147 0.008l-0.010-0.008c-0.433-0.324-0.79-0.768-1.044-1.299-0.045-0.097-0.043-0.217 0.005-0.315s0.134-0.156 0.228-0.156h0.002c0.056 0 0.102 0 0.142-0.002-0.112-0.12-0.214-0.252-0.308-0.391l-0.008-0.013c-0.179-0.275-0.343-0.561-0.493-0.86-0.058-0.097-0.065-0.223-0.019-0.33 0.045-0.107 0.137-0.172 0.236-0.172 0.067-0.002 0.133 0.006 0.198 0.021-0.147-0.25-0.284-0.509-0.409-0.778-0.165-0.345-0.311-0.702-0.444-1.068h0.002zM8.368 18.234h-0c0.030 0.059-0.035 0.139-0.136 0.214-0.117 0.078-0.241 0.135-0.372 0.168-0.141 0.040-0.286 0.053-0.43 0.040-0.232-0.021-0.422-0.135-0.406-0.385 0-0.109 0.032-0.212 0.088-0.297 0.075-0.080 0.173-0.122 0.273-0.12 0.158-0.006 0.316 0.023 0.466 0.082 0.188 0.050 0.366 0.153 0.516 0.299z"></path>
</svg>
