<?xml version="1.0" encoding="UTF-8" standalone="no"?>
<!DOCTYPE svg PUBLIC "-//W3C//DTD SVG 1.1//EN" "http://www.w3.org/Graphics/SVG/1.1/DTD/svg11.dtd">
<svg width="100%" height="100%" viewBox="0 0 150 150" version="1.1" xmlns="http://www.w3.org/2000/svg" xmlns:xlink="http://www.w3.org/1999/xlink" xml:space="preserve" xmlns:serif="http://www.serif.com/" style="fill-rule:evenodd;clip-rule:evenodd;stroke-linejoin:round;stroke-miterlimit:2;">
    <g transform="matrix(0.159698,0,0,0.190678,-20.8199,-39.4095)">
        <path d="M302.9,651.1C299.291,651.944 295.916,653.491 292.916,655.647C292.822,655.788 293.947,655.975 295.166,656.725C297.463,658.038 299.994,659.022 302.572,659.584C305.431,660.194 308.384,660.428 311.337,660.241C315.275,659.913 318.509,658.506 318.228,655.413C318.228,653.913 317.759,652.459 316.869,651.288C316.353,650.725 315.697,650.35 314.994,650.163L314.712,650.116L314.244,649.975L314.197,649.975C313.587,649.834 312.978,649.741 312.322,649.741C309.134,649.647 305.947,650.116 302.9,651.1L302.9,651.1ZM325.259,638.022C325.728,638.35 326.196,638.725 326.665,639.1C326.993,638.725 327.321,638.303 327.65,637.928L327.696,637.975C329.759,635.725 332.29,633.897 335.056,632.631C332.525,606.287 331.775,579.756 332.9,553.319C332.243,553.272 331.587,553.272 330.884,553.272C329.572,553.413 328.306,553.601 327.134,553.788C327.415,565.46 327.697,588.757 327.134,609.147C326.853,620.303 326.243,630.663 325.259,638.022L325.259,638.022ZM809.389,376.502C809.576,373.971 809.764,371.393 809.905,368.721L809.905,368.768C810.42,345.096 813.608,321.518 819.373,298.549C813.467,303.424 808.826,309.705 805.92,316.83C798.889,332.439 795.232,349.314 795.045,366.424C795.139,367.783 794.249,369.002 792.936,369.424C791.624,369.799 790.217,369.236 789.561,368.017C781.499,355.267 774.28,342.048 767.905,328.361C765.186,322.408 762.702,316.361 760.639,310.361L760.686,310.361C760.218,327.049 761.296,343.736 764.014,360.189C764.624,361.689 763.874,363.377 762.374,363.986C760.874,364.596 759.186,363.893 758.577,362.393C753.327,349.081 745.124,337.174 734.624,327.471C729.608,323.486 723.89,320.486 717.749,318.564C722.483,323.299 726.749,328.502 730.405,334.08C738.608,345.189 743.764,358.221 745.452,371.908C745.452,373.268 744.561,374.44 743.249,374.768C741.936,375.096 740.577,374.487 739.921,373.315C738.514,370.924 736.686,368.721 734.624,366.846C730.171,362.908 724.78,360.19 718.968,358.971C713.858,357.752 708.515,358.408 703.874,360.799L703.499,361.033C721.499,370.783 735.608,386.392 743.483,405.283L743.998,406.315C763.029,393.049 784.264,383.253 806.717,377.346L809.389,376.502L809.389,376.502ZM520.079,402.611L520.032,402.611C522.657,395.064 523.97,387.142 524.017,379.127C525.376,360.002 526.923,338.768 546.751,331.643L546.704,331.643C544.547,330.799 542.204,330.424 539.86,330.565C536.813,330.659 533.813,331.268 530.954,332.299C527.719,333.377 524.719,334.877 521.907,336.799C514.079,341.487 509.157,349.877 508.969,359.018C509.016,360.612 507.844,361.925 506.25,362.018C504.703,362.112 503.344,360.987 503.156,359.44C499.266,334.034 502.172,308.065 511.594,284.159C513.656,278.206 515.719,272.347 517.312,265.878L517.266,265.878C507.891,272.628 500.438,281.675 495.563,292.175C487.734,305.769 483.751,321.284 484.172,336.987C484.406,338.534 483.422,339.94 481.922,340.268C480.422,340.597 478.922,339.706 478.5,338.253C473.812,323.769 467.953,309.706 461.016,296.206C457.922,290.112 454.406,284.253 450.563,278.628C453.516,290.909 458.438,311.3 462.657,328.831L468.657,353.909C469.594,356.674 470.25,359.487 470.672,362.393C470.907,363.987 469.875,365.487 468.282,365.768C466.688,366.003 465.188,364.971 464.907,363.378C464.86,363.19 464.204,360.284 463.079,355.643C462.375,353.721 461.625,351.753 460.735,349.878C455.813,339.753 448.923,330.659 440.391,323.3C434.438,317.206 426.422,313.55 417.938,312.988C448.172,348.426 450.188,367.41 452.297,387.8L452.391,388.831C475.922,392.534 498.797,397.081 520.032,402.612L520.079,402.611ZM393.419,629.351C389.763,630.148 386.388,631.695 383.388,633.898C383.294,634.039 384.419,634.226 385.638,634.976L385.638,634.929C387.935,636.289 390.466,637.226 393.044,637.789C395.904,638.445 398.857,638.679 401.81,638.445C405.747,638.117 408.982,636.71 408.7,633.617L408.7,633.664C408.7,632.164 408.232,630.71 407.341,629.492C406.075,628.414 404.435,627.898 402.794,627.945C399.607,627.898 396.419,628.367 393.419,629.351L393.419,629.351ZM369.981,625.789C368.575,628.039 367.684,630.617 367.497,633.289C366.793,633.054 366.09,632.82 365.34,632.585L365.387,632.585C360.512,631.085 355.497,630.195 350.434,629.96C348.137,606.054 347.481,582.007 348.419,558.007C349.731,558.664 351.044,559.32 352.403,560.023L352.45,560.023C366.512,568.179 382.591,572.257 398.856,571.835C403.122,572.116 406.825,568.882 407.153,564.616C406.825,560.726 405.372,557.022 402.934,554.022C399.043,547.835 395.668,541.366 392.856,534.616L411.231,534.616C412.075,534.569 412.872,534.429 413.669,534.194C417.794,532.835 419.997,528.382 418.59,524.304C413.481,516.523 407.246,509.585 400.028,503.726C398.2,501.991 396.372,500.257 394.638,498.616L394.919,498.616C400.825,498.476 406.685,498.382 412.638,498.382L412.638,498.335C416.107,498.335 419.154,496.038 420.138,492.71C421.076,489.382 419.763,485.819 416.857,483.944C409.263,478.835 402.326,472.788 396.326,465.897C394.826,464.163 393.42,462.382 392.154,460.601C397.17,459.944 401.857,457.788 405.56,454.319C405.748,454.179 405.888,454.038 406.029,453.897C409.169,450.944 409.31,445.976 406.31,442.881C402.138,438.803 397.638,435.1 392.81,431.819C385.826,427.085 379.404,421.6 373.638,415.413C375.232,415.038 377.013,414.57 379.31,413.96C381.654,413.351 384.56,412.554 387.7,411.757L387.654,411.757C391.357,411.054 393.982,407.82 393.982,404.07C393.935,400.32 391.263,397.132 387.607,396.429C436.545,400.507 485.06,409.179 532.397,422.351C556.772,428.961 579.975,439.413 601.069,453.335C601.444,453.616 601.819,453.898 602.194,454.132C614.335,462.335 623.897,473.773 629.803,487.132C640.303,513.71 623.287,527.444 595.584,538.413C582.834,543.476 568.443,547.835 553.303,552.429C505.022,567.101 449.853,583.835 423.273,626.867C422.429,623.914 420.882,621.195 418.773,618.898C414.835,614.82 409.398,612.476 403.679,612.336C398.663,612.148 393.648,612.851 388.867,614.351C381.554,616.226 374.992,620.211 369.976,625.789L369.981,625.789ZM382.731,685.367L382.731,685.413C381.044,686.21 379.637,687.523 378.653,689.116C378.09,691.085 378.794,693.195 380.387,694.46C380.997,695.023 381.7,695.398 382.45,695.538C382.59,695.585 382.45,695.726 382.544,695.679C383.059,695.351 383.387,693.804 383.247,690.382L383.294,690.382C383.294,688.695 383.106,687.054 382.731,685.413L382.731,685.367ZM341.95,693.945L341.903,693.991C338.294,694.788 334.919,696.335 331.919,698.491C331.825,698.632 332.95,698.82 334.169,699.57C336.466,700.929 338.997,701.866 341.575,702.429C344.434,703.085 347.387,703.32 350.341,703.085C354.278,702.757 357.512,701.351 357.231,698.257L357.231,698.304C357.231,696.804 356.762,695.351 355.872,694.132C354.606,693.054 352.966,692.538 351.325,692.585C348.137,692.491 344.95,693.007 341.95,693.991L341.95,693.945ZM362.762,679.929C363.606,680.397 364.403,680.913 365.153,681.522C365.668,680.632 366.278,679.788 366.934,678.944C366.09,679.179 365.293,679.366 364.449,679.554C363.887,679.694 363.324,679.788 362.762,679.929L362.762,679.929ZM864.002,505.459C863.158,517.506 862.361,528.615 854.814,534.568C853.361,536.818 851.814,538.927 850.08,540.943L896.955,540.943C901.268,540.989 904.783,544.458 904.783,548.771C904.783,553.083 901.268,556.599 896.955,556.599L770.855,556.599C766.543,556.599 763.027,553.083 763.027,548.771C763.027,544.458 766.543,540.99 770.855,540.943L795.699,540.943L795.652,540.943C793.637,538.458 792.137,535.552 791.246,532.411C789.746,525.99 788.715,519.473 788.152,512.864C786.465,496.88 784.871,481.973 759.464,452.958C758.058,451.599 757.449,449.63 757.777,447.755C758.105,445.833 759.324,444.24 761.058,443.396C762.699,442.646 764.48,442.177 766.261,441.943C775.87,441.802 785.105,445.552 791.855,452.349C792.699,453.052 793.496,453.802 794.339,454.552C790.402,438.052 786.371,421.13 784.964,414.708C783.793,412.177 784.636,409.177 786.886,407.536C789.183,405.895 792.277,406.13 794.339,408.052C801.089,415.27 806.667,423.474 810.933,432.38C813.324,436.973 815.574,441.802 817.637,446.536C819.512,440.489 821.949,434.63 824.855,429.052C830.058,416.724 839.761,406.833 851.996,401.349C853.965,400.833 856.028,401.349 857.528,402.708C858.981,404.114 859.637,406.13 859.262,408.099C857.809,415.177 855.793,422.161 853.262,428.958C848.621,440.724 846.043,453.192 845.621,465.802C846.84,464.77 848.059,463.833 849.371,462.942C852.278,460.973 855.465,459.38 858.793,458.208C861.981,457.13 865.309,456.473 868.684,456.38C874.59,455.817 880.403,458.255 884.153,462.895C885.465,464.489 885.887,466.645 885.184,468.614C884.481,470.583 882.84,472.036 880.778,472.411C866.153,475.27 865.028,491.208 863.997,505.458L864.002,505.459ZM847.221,525.615C851.018,523.037 851.627,514.224 852.33,504.615L852.284,504.615C851.721,492.099 855.237,479.771 862.268,469.412C860.018,470.208 857.909,471.287 855.94,472.646C850.409,475.88 846.94,481.74 846.752,488.115C846.799,491.256 844.409,493.881 841.268,494.115C838.127,494.303 835.409,492.006 835.08,488.912C831.799,467.396 834.237,445.365 842.205,425.115L843.33,421.881C840.237,425.771 837.518,429.99 835.221,434.443C829.08,445.084 825.94,457.177 826.174,469.505C826.596,472.505 824.627,475.364 821.627,476.02C818.627,476.676 815.627,474.942 814.783,471.989C811.783,462.708 808.174,453.567 803.955,444.755C805.362,450.567 806.862,456.614 808.221,462.333L813.143,482.958L813.19,482.911C813.987,485.349 814.596,487.88 814.971,490.411C815.487,493.599 813.377,496.599 810.19,497.161C807.049,497.724 804.002,495.614 803.44,492.427C803.393,492.286 802.877,490.083 802.034,486.427L801.987,486.473C801.471,484.973 800.909,483.52 800.252,482.114C796.409,474.145 790.971,467.02 784.268,461.255C782.112,459.38 779.815,457.693 777.378,456.239C790.784,471.708 798.706,491.208 799.784,511.645C800.299,517.739 801.237,523.739 802.643,529.645C804.237,533.77 807.237,537.192 811.174,539.349C812.159,539.958 813.19,540.474 814.221,540.942L831.752,540.942C837.518,537.849 842.299,533.161 845.486,527.395C845.955,526.692 846.517,526.083 847.221,525.614L847.221,525.615ZM313.271,808.835C317.068,806.257 317.677,797.444 318.38,787.835C317.818,775.319 321.287,762.944 328.365,752.632C326.115,753.428 323.959,754.507 321.99,755.819C316.505,759.1 313.037,764.96 312.802,771.335C312.896,774.476 310.505,777.101 307.365,777.335C304.224,777.523 301.505,775.226 301.13,772.132C297.849,750.57 300.334,728.585 308.302,708.288L309.427,705.054C306.333,708.991 303.615,713.21 301.318,717.663C295.13,728.304 291.99,740.397 292.271,752.679C292.693,755.726 290.724,758.585 287.724,759.241C284.724,759.897 281.724,758.163 280.833,755.21C277.833,745.882 274.224,736.788 270.052,727.929C271.506,733.835 273.006,740.023 274.412,745.835L279.287,766.132C280.084,768.569 280.693,771.054 281.021,773.632C281.584,776.772 279.427,779.819 276.287,780.382C273.099,780.898 270.099,778.835 269.49,775.647C269.443,775.507 268.927,773.257 268.084,769.647C267.568,768.194 267.006,766.741 266.303,765.335C262.459,757.319 257.068,750.241 250.365,744.429C248.208,742.554 245.911,740.913 243.427,739.46C256.88,754.929 264.755,774.429 265.88,794.866C266.396,800.913 267.333,806.913 268.693,812.819C270.333,816.991 273.333,820.413 277.224,822.522C278.208,823.132 279.239,823.694 280.318,824.163L297.802,824.163C303.614,821.069 308.396,816.382 311.583,810.616C312.004,809.913 312.614,809.303 313.27,808.835L313.271,808.835ZM878.211,743.585C878.914,753.194 879.524,762.007 883.32,764.585C883.977,765.053 884.586,765.663 885.008,766.366C888.195,772.131 892.977,776.819 898.789,779.913L916.273,779.913C917.351,779.444 918.382,778.882 919.367,778.272C923.257,776.163 926.304,772.741 927.898,768.569C929.257,762.663 930.195,756.663 930.71,750.616C931.835,730.178 939.71,710.678 953.163,695.21C950.679,696.663 948.382,698.304 946.226,700.179C939.57,705.991 934.132,713.07 930.288,721.038C929.632,722.491 929.022,723.944 928.507,725.444C927.663,729.054 927.101,731.257 927.101,731.397C926.491,734.585 923.491,736.694 920.304,736.132C917.163,735.569 915.007,732.522 915.569,729.382C915.897,726.804 916.507,724.319 917.35,721.882L922.366,701.07C923.725,695.398 925.178,689.445 926.585,683.726L926.538,683.726C922.366,692.538 918.757,701.632 915.757,710.96C914.866,713.913 911.866,715.647 908.866,714.991C905.866,714.335 903.898,711.475 904.319,708.428C904.601,696.147 901.46,684.053 895.273,673.412C892.976,668.959 890.257,664.74 887.163,660.803L888.288,664.038C896.257,684.335 898.741,706.319 895.46,727.882C895.085,730.976 892.366,733.272 889.226,733.085C886.132,732.85 883.694,730.225 883.788,727.085C883.554,720.71 880.132,714.851 874.601,711.569C872.632,710.256 870.476,709.178 868.226,708.381C875.304,718.693 878.82,731.069 878.21,743.584L878.211,743.585ZM704.581,646.179C705.05,652.976 705.519,659.257 707.769,660.757C708.472,661.225 709.034,661.835 709.456,662.538C711.519,666.194 714.425,669.241 717.94,671.491L732.284,671.491C732.566,671.35 732.847,671.163 733.175,670.975L733.128,670.975C735.753,669.616 737.769,667.366 738.894,664.647C739.878,660.288 740.581,655.882 740.956,651.381C741.519,639.428 745.316,627.85 751.925,617.865C748.456,621.428 745.597,625.553 743.441,630.053C742.972,631.084 742.55,632.116 742.175,633.147L741.144,637.413C740.582,640.6 737.535,642.709 734.394,642.147C731.207,641.584 729.097,638.584 729.613,635.397C729.894,633.428 730.363,631.506 731.019,629.584L733.128,620.819L732.66,622.272L732.613,622.272C731.769,625.225 728.769,627.006 725.769,626.303C722.769,625.647 720.8,622.788 721.222,619.788C721.41,611.209 719.253,602.772 715.035,595.319C718.644,608.116 719.441,621.522 717.472,634.694C717.144,637.787 714.425,640.084 711.285,639.897C708.144,639.662 705.753,637.037 705.8,633.897C705.706,629.912 703.644,626.209 700.269,624.053C703.082,631.084 704.535,638.584 704.582,646.178L704.581,646.179ZM700.128,669.71C694.784,663.428 692.159,655.226 692.909,647.022C692.206,636.897 691.362,625.553 681.518,623.631C679.503,623.209 677.815,621.756 677.112,619.787C676.409,617.818 676.831,615.662 678.19,614.068C681.284,610.271 686.065,608.302 690.893,608.677C693.565,608.771 696.19,609.287 698.721,610.177C701.346,611.068 703.831,612.334 706.174,613.881L706.502,614.115C705.846,605.865 704.018,597.803 701.018,590.115C699.096,585.005 697.549,579.709 696.471,574.318C696.096,572.349 696.752,570.333 698.252,568.927C699.705,567.568 701.768,567.052 703.737,567.568C713.299,571.74 720.893,579.427 724.971,589.037C726.611,592.177 728.018,595.459 729.236,598.787C730.361,596.349 731.533,593.912 732.752,591.568C736.033,584.724 740.299,578.443 745.502,572.959C747.517,571.037 750.611,570.803 752.908,572.397C755.205,574.037 756.002,577.037 754.877,579.568C753.892,584.162 751.502,594.193 748.971,604.693C754.08,600.1 760.783,597.662 767.674,597.897C769.174,598.084 770.627,598.506 772.033,599.115C773.767,599.959 774.986,601.553 775.314,603.475C775.642,605.35 775.033,607.319 773.627,608.678C761.346,620.116 753.799,635.819 752.58,652.6C752.158,657.615 751.408,662.537 750.236,667.459C749.861,668.865 749.298,670.224 748.595,671.49L792.986,671.49C795.049,671.49 797.064,672.334 798.518,673.787C800.018,675.24 800.814,677.256 800.814,679.318C800.814,681.428 800.018,683.396 798.518,684.896C797.064,686.349 795.049,687.146 792.986,687.146L684.566,687.146C682.504,687.146 680.488,686.349 678.988,684.896C677.535,683.396 676.691,681.427 676.691,679.318C676.691,677.256 677.535,675.24 678.988,673.787C680.488,672.334 682.504,671.49 684.566,671.49L701.394,671.49C700.972,670.928 700.551,670.318 700.176,669.662L700.128,669.71ZM505.648,601.929C455.773,616.695 425.773,667.46 436.929,718.269C437.351,721.503 440.304,723.706 443.538,723.284C446.726,722.815 448.976,719.862 448.507,716.675C438.101,671.253 465.054,625.644 509.866,612.845C512.913,611.673 514.413,608.298 513.241,605.298C512.069,602.298 508.694,600.798 505.647,601.923L505.648,601.929ZM635.678,551.023L635.678,551.069C626.303,566.397 613.6,579.381 598.553,589.178C571.694,609.334 546.662,628.131 555.803,688.084L555.756,688.038C555.99,689.585 556.834,690.991 558.1,691.881C559.319,692.819 560.912,693.241 562.459,693.006C563.959,692.772 565.365,691.928 566.303,690.663C567.194,689.397 567.616,687.85 567.381,686.303C559.319,633.194 581.631,616.459 605.584,598.506L605.537,598.506C622.037,587.818 635.865,573.475 645.99,556.647C647.537,553.835 646.459,550.272 643.646,548.725C640.787,547.178 637.225,548.21 635.678,551.069L635.678,551.023ZM637.178,789.053C634.694,787.037 634.319,783.334 636.334,780.85C638.397,778.318 642.053,777.943 644.584,780.006C655.412,788.209 666.85,795.662 678.803,802.272C713.35,822.663 753.381,846.241 767.444,893.96C767.866,895.413 767.725,897.054 766.975,898.413C766.225,899.772 764.96,900.803 763.46,901.225C761.96,901.694 760.366,901.507 759.007,900.757C757.647,900.007 756.616,898.741 756.194,897.241C743.444,853.975 705.569,831.663 672.803,812.35C660.381,805.459 648.475,797.678 637.178,789.053L637.178,789.053ZM549.006,796.459C548.49,795.006 548.537,793.412 549.147,792.006C549.803,790.553 550.975,789.475 552.428,788.912C555.475,787.787 558.85,789.287 559.975,792.334C566.818,808.74 570.569,826.225 571.084,843.943C570.99,865.271 563.162,885.802 549.146,901.787C547.036,904.271 543.38,904.599 540.896,902.537C538.411,900.474 538.083,896.818 540.146,894.334C552.427,880.365 559.271,862.506 559.412,843.943C558.849,827.584 555.334,811.505 549.006,796.459L549.006,796.459ZM454.318,751.318C452.349,748.74 452.818,745.037 455.396,743.115C457.974,741.146 461.63,741.615 463.599,744.193C469.365,751.505 474.521,759.24 479.021,767.349C483.943,775.927 486.662,785.537 486.99,795.333C486.99,798.614 484.365,801.239 481.131,801.239C477.849,801.239 475.224,798.614 475.224,795.333C474.896,787.411 472.646,779.677 468.662,772.833C464.49,765.286 459.662,758.067 454.318,751.317L454.318,751.318ZM503.349,666.052L503.302,666.052C504.005,662.864 507.146,660.896 510.286,661.599C513.474,662.302 515.443,665.443 514.74,668.583C511.411,682.13 511.224,696.286 514.224,709.927C517.74,723.38 523.036,736.318 529.974,748.365C530.724,749.725 530.865,751.318 530.443,752.818C529.974,754.318 528.943,755.537 527.583,756.287C526.224,756.99 524.63,757.178 523.13,756.709C521.63,756.24 520.411,755.209 519.661,753.849C512.208,740.911 506.536,726.99 502.786,712.505C499.411,697.177 499.599,681.286 503.302,666.052L503.349,666.052ZM853.319,880.032C840.991,852.47 821.725,828.563 797.35,810.751C770.303,791.017 740.303,775.689 708.428,765.329C674.022,753.704 643.6,732.61 620.537,704.532C613.552,695.579 608.443,685.36 605.443,674.438C602.818,664.5 603.24,654 606.521,644.25C612.474,629.297 622.787,616.406 636.146,607.406C678.334,575.718 696.662,543.234 699.708,515.297C701.302,501.656 698.958,487.875 692.958,475.547C691.88,473.391 690.755,471.328 689.489,469.312C706.645,457.828 722.958,445.124 738.38,431.39C756.286,415.687 766.411,406.828 811.505,392.202C832.411,386.905 854.255,386.484 875.349,391.03C909.24,397.218 944.068,396.14 977.489,387.843C1035.38,444.843 1069.64,515.343 1069.64,591.523C1068.38,661.835 1040.72,729.053 992.207,779.913L934.832,779.913C936.895,777.429 938.395,774.522 939.238,771.382C940.785,764.96 941.816,758.398 942.379,751.835C944.066,735.851 945.66,720.944 971.067,691.929L971.067,691.882C972.426,690.523 973.083,688.601 972.754,686.726C972.426,684.804 971.208,683.163 969.426,682.366C967.786,681.616 966.051,681.101 964.223,680.913C954.614,680.726 945.379,684.476 938.629,691.272C937.786,691.975 936.989,692.725 936.145,693.475C940.129,676.975 944.16,660.053 945.52,653.631L945.567,653.678C946.692,651.147 945.895,648.1 943.598,646.506C941.301,644.866 938.207,645.1 936.192,647.022C929.442,654.241 923.817,662.444 919.551,671.35C917.16,675.944 914.91,680.772 912.848,685.506C910.973,679.459 908.582,673.6 905.629,668.022C900.426,655.647 890.723,645.756 878.488,640.319C876.566,639.803 874.457,640.319 873.003,641.678C871.503,643.038 870.847,645.053 871.222,647.069C872.675,654.147 874.691,661.131 877.222,667.928C881.863,679.647 884.441,692.116 884.863,704.772C883.691,703.741 882.425,702.803 881.16,701.913C878.207,699.897 875.019,698.35 871.691,697.178C868.503,696.053 865.175,695.444 861.847,695.303C855.894,694.787 850.128,697.225 846.378,701.819C845.019,703.413 844.644,705.616 845.3,707.584C846.003,709.506 847.691,710.959 849.706,711.381C864.331,714.241 865.456,730.178 866.487,744.381C867.331,756.428 868.128,767.537 875.675,773.49L875.675,773.537C877.269,775.928 878.956,778.271 880.878,780.428C877.362,781.787 875.3,785.49 876.003,789.193C876.706,792.896 879.94,795.568 883.69,795.568L977.159,795.568C963.425,809.021 948.753,821.49 933.237,832.834C908.159,851.115 881.393,866.912 853.315,880.037L853.319,880.032ZM424.559,909.423C493.325,848.345 472.043,816.142 446.215,777.003C425.59,745.784 401.637,709.503 431.684,644.263C452.309,599.451 508.887,582.294 557.874,567.388C573.624,562.607 588.671,558.06 601.374,552.997C637.655,538.653 659.593,519.809 644.405,481.419C639.717,470.122 632.686,460.044 623.686,451.794C636.295,450.856 648.858,453.997 659.498,460.794C667.795,466.138 674.545,473.591 678.951,482.45C683.638,492.153 685.466,502.981 684.154,513.669C681.576,537.716 665.029,566.216 626.779,594.95L626.779,594.903C610.935,605.825 598.701,621.247 591.763,639.2C587.45,651.762 586.935,665.309 590.263,678.2C593.779,691.138 599.825,703.278 608.075,713.872C633.013,744.481 666.013,767.403 703.372,780.153C733.653,789.95 762.153,804.481 787.888,823.184C810.2,839.403 827.826,861.246 839.076,886.418C763.467,918.434 682.136,934.652 600.016,934.137C540.672,934.324 481.566,925.981 424.566,909.387L424.559,909.423ZM276.579,839.861L343.845,839.861L343.845,839.814C348.157,839.814 351.626,836.298 351.626,831.986C351.626,827.673 348.157,824.205 343.845,824.158L316.189,824.158C317.923,822.142 319.47,819.986 320.923,817.783C328.423,811.83 329.267,800.721 330.111,788.674C331.142,774.424 332.267,758.486 346.892,755.627C348.907,755.205 350.595,753.799 351.298,751.83C352.001,749.861 351.579,747.658 350.22,746.064C346.47,741.47 340.704,739.033 334.798,739.549C331.423,739.689 328.095,740.299 324.907,741.424C321.579,742.596 318.392,744.142 315.438,746.158C314.173,747.049 312.907,747.986 311.735,749.017C312.157,736.361 314.735,723.892 319.376,712.173C319.798,711.002 320.173,709.83 320.595,708.705L320.548,708.658C322.235,710.345 324.11,711.798 326.126,712.97C329.876,715.173 334.001,716.72 338.267,717.658C342.626,718.642 347.08,719.017 351.579,718.689C359.782,718.876 367.423,714.47 371.407,707.205C373.798,709.033 376.61,710.299 379.61,710.908C383.407,711.705 387.391,711.002 390.719,709.033C396.86,704.674 400.047,697.221 398.922,689.767C399.157,683.767 397.141,677.908 393.297,673.314C391.282,671.205 388.563,669.845 385.657,669.47C390.485,665.673 392.922,659.533 391.985,653.439C395.641,654.096 399.344,654.33 403.047,654.049C405.859,653.861 408.672,653.299 411.344,652.408C387.438,716.346 411.906,753.428 433.188,785.588C455.641,819.619 474.016,847.416 406.985,903.898C360.673,888.898 316.751,867.336 276.585,839.82L276.579,839.861ZM222.157,388.221L225.719,388.268C241.703,388.455 259.516,388.83 278.547,389.486L278.501,389.486C273.297,397.408 267.157,404.674 260.22,411.189C256.938,413.955 256.47,418.877 259.235,422.205C263.266,427.549 270.157,429.846 276.579,428.065C274.001,433.08 271.095,437.909 267.86,442.549C261.673,451.314 254.922,459.658 247.704,467.627C245.642,469.642 244.845,472.642 245.689,475.455C246.486,478.221 248.829,480.33 251.689,480.892L262.705,483.096L262.705,483.049C260.877,487.361 258.814,491.58 256.517,495.658C251.173,505.22 245.173,514.361 238.564,523.08C238.189,523.548 237.861,524.111 237.627,524.674C235.892,528.611 237.72,533.205 241.658,534.94L251.924,539.393C250.846,542.252 249.721,545.486 248.596,548.674C246.674,554.111 244.846,559.455 243.955,561.096L243.955,561.049C242.268,563.44 242.033,566.58 243.393,569.205C244.705,571.783 247.424,573.424 250.33,573.424C259.377,570.19 268.189,566.44 276.814,562.221L276.814,568.69C276.814,571.174 277.986,573.518 279.955,574.971C281.97,576.471 284.502,576.893 286.892,576.19C293.314,574.034 299.126,570.424 303.908,565.643C306.346,563.44 308.924,561.424 311.69,559.596C311.924,571.971 312.065,591.471 311.596,608.768C311.315,618.565 310.846,627.612 310.096,634.08C306.111,634.267 302.221,634.97 298.424,636.142C291.111,637.97 284.549,641.955 279.533,647.58C273.908,656.862 278.267,664.783 287.127,670.127C290.877,672.284 295.002,673.877 299.268,674.768C303.627,675.799 308.08,676.127 312.58,675.846C317.267,675.565 321.861,674.205 325.892,671.815C328.985,675.19 332.97,677.721 337.376,678.987C332.407,680.534 327.672,682.784 323.407,685.737C321.953,684.518 319.985,684.049 318.11,684.565C305.876,690.002 296.172,699.893 290.969,712.268C288.062,717.846 285.625,723.706 283.75,729.752C281.687,725.017 279.437,720.189 277.047,715.596C272.781,706.69 267.156,698.487 260.453,691.268C258.39,689.346 255.297,689.112 253,690.752C250.703,692.346 249.906,695.393 251.078,697.924C252.484,704.346 256.515,721.268 260.453,737.768C259.656,737.018 258.812,736.268 257.968,735.565L257.968,735.518C251.218,728.721 241.984,724.971 232.374,725.159C230.593,725.347 228.812,725.862 227.171,726.612C225.437,727.456 224.171,729.05 223.843,730.972C223.515,732.847 224.171,734.815 225.531,736.128C250.984,765.19 252.531,780.05 254.219,796.034L254.266,796.081C254.781,802.643 255.859,809.206 257.359,815.628C258.203,818.768 259.703,821.675 261.766,824.159L255.391,824.159C177.86,763.034 130.371,681.239 130.371,591.519C130.371,515.488 164.496,445.079 222.105,388.229L222.157,388.221ZM327.437,312.612L327.39,312.612C331.281,321.612 335.593,330.378 340.421,338.862C344.077,345.471 348.109,351.846 352.421,357.987C350.499,357.612 348.577,357.424 346.609,357.471C343.702,357.471 340.984,359.065 339.671,361.69C338.312,364.315 338.546,367.409 340.234,369.799C344.64,377.159 349.468,384.19 354.718,390.94L354.952,391.269C357.718,394.69 360.718,397.925 363.999,400.878C362.827,400.925 361.468,400.925 359.827,400.925L359.78,400.925C357.014,400.925 354.483,402.378 353.077,404.769C351.671,407.159 351.624,410.112 352.936,412.503C360.389,425.534 370.889,436.456 383.592,444.425L383.874,444.612C382.467,444.519 381.014,444.425 379.561,444.425C377.124,444.425 374.827,445.55 373.327,447.519C371.874,449.441 371.405,451.972 372.061,454.363C374.452,462.472 378.764,469.925 384.53,476.113C386.593,478.503 388.843,480.847 391.139,483.097C386.405,483.191 381.671,483.284 376.936,483.284L376.936,483.238C373.936,483.238 371.171,484.972 369.858,487.691C368.593,490.41 368.968,493.644 370.843,495.988C376.515,502.785 382.655,509.16 389.265,515.019L393.39,518.956L382.234,518.956C379.749,518.956 377.406,520.128 375.906,522.144C374.453,524.159 373.984,526.737 374.734,529.128C377.124,538.316 380.781,547.128 385.562,555.331C376.468,553.831 367.656,550.737 359.593,546.144C350.921,540.8 340.984,537.847 330.765,537.612C330.296,537.612 329.827,537.659 329.312,537.706C315.906,538.69 303.296,544.409 293.687,553.831L292.468,554.909L292.468,550.081C292.468,547.315 290.968,544.737 288.577,543.331C286.187,541.925 283.233,541.878 280.843,543.237L275.124,545.862C271.843,547.362 267.999,549.284 264.296,551.159L264.249,551.112C265.421,547.362 266.827,543.706 268.468,540.143C269.968,538.175 270.437,535.643 269.78,533.253C269.124,530.909 267.39,528.987 265.093,528.097L256.843,524.487C261.671,517.643 266.124,510.518 270.249,503.206C274.796,495.519 278.218,487.222 280.421,478.597C281.265,474.332 278.499,470.253 274.233,469.41L267.812,468.144C272.687,462.332 276.905,456.941 280.75,451.363L280.796,451.363C287.265,441.894 292.702,431.769 297.108,421.129C298.796,417.192 296.921,412.598 292.983,410.91C292.28,410.629 291.577,410.394 290.827,410.301C287.874,409.973 284.874,410.16 281.921,410.816C292.983,396.519 303.062,381.472 312.109,365.816C312.812,364.597 312.343,364.879 312.812,364.363C315.203,361.738 315.531,357.754 313.562,354.754C311.593,351.754 307.843,350.488 304.468,351.707C303.296,352.129 301.984,352.644 300.578,353.16C310.797,338.16 318.953,324.426 324.812,313.972C325.656,313.503 326.546,313.034 327.39,312.613L327.437,312.612ZM375.999,654.932C371.593,651.322 366.39,648.791 360.858,647.572C356.452,646.119 351.811,645.416 347.17,645.557C344.217,645.51 341.357,646.541 339.154,648.51C337.514,650.619 336.576,653.151 336.576,655.822C336.107,661.963 341.686,664.776 348.482,665.291C352.701,665.619 356.967,665.291 361.091,664.307C364.935,663.51 368.591,662.104 372.013,660.182C374.966,658.354 376.888,656.385 375.998,654.932L375.999,654.932Z"/>
    </g>
</svg>
