<!-- Generated by IcoMoon.io -->
<svg version="1.1" xmlns="http://www.w3.org/2000/svg" width="32" height="32" viewBox="0 0 32 32">
<path d="M22.424 24.444c0 0.8-0.483 1.523-1.223 1.829s-1.591 0.137-2.157-0.429-0.736-1.419-0.43-2.159c0.306-0.739 1.029-1.221 1.83-1.221 1.093 0 1.98 0.886 1.98 1.98zM25.18 23.418v2.054l-0.416-0.001c-0.297 0.009-0.561 0.195-0.668 0.474-0.129 0.275-0.079 0.602 0.128 0.826l0.296 0.296-1.454 1.454-0.296-0.296c-0.218-0.206-0.539-0.26-0.81-0.134-0.282 0.102-0.475 0.366-0.486 0.666v0.42h-2.058v-0.416c-0.023-0.295-0.209-0.554-0.483-0.666-0.275-0.114-0.589-0.064-0.814 0.13l-0.296 0.296-1.454-1.454 0.294-0.296c0.195-0.225 0.246-0.54 0.133-0.815-0.114-0.276-0.372-0.464-0.67-0.485h-0.416v-2.054h0.416c0.297-0.009 0.561-0.195 0.668-0.473 0.129-0.276 0.079-0.602-0.128-0.828l-0.296-0.296 1.454-1.454 0.296 0.296v0.001c0.2 0.203 0.504 0.264 0.766 0.152l0.096-0.040h0.001c0.262-0.109 0.434-0.365 0.433-0.65v-0.42h2.056v0.42h0.001c-0.001 0.285 0.17 0.541 0.433 0.65l0.054 0.020c0.289 0.121 0.622 0.056 0.844-0.166l0.264-0.264 1.454 1.456-0.296 0.294h-0.001c-0.196 0.226-0.246 0.543-0.133 0.817 0.115 0.275 0.375 0.462 0.672 0.483zM22.924 24.444c0-1.004-0.605-1.907-1.531-2.291s-1.994-0.172-2.702 0.538c-0.71 0.709-0.921 1.776-0.538 2.702s1.288 1.531 2.291 1.531c1.369-0.003 2.477-1.111 2.48-2.48zM11.374 13.176v0.748c0.018 0.356-0.111 0.705-0.357 0.964s-0.588 0.405-0.945 0.405c-0.356 0-0.699-0.146-0.944-0.405-0.246-0.259-0.375-0.607-0.357-0.964v-0.748zM6.897 8.842l-0.001 0.001c0.034-1.686 1.366-3.059 3.050-3.14 1.364-0.056 2.61 0.765 3.095 2.040 0.486 1.275 0.102 2.718-0.951 3.582-0.289 0.23-0.505 0.536-0.626 0.884-0.047 0.148-0.075 0.301-0.084 0.456h-2.616c-0.010-0.161-0.043-0.32-0.098-0.473-0.113-0.338-0.318-0.635-0.592-0.86-0.758-0.611-1.191-1.535-1.178-2.508zM10.817 7.286l0.206 0.136v0.001c0.491 0.32 0.786 0.866 0.786 1.453v0.25h0.5v-0.25c0.001-0.751-0.375-1.452-1-1.87l-0.21-0.136zM10.334 4.49v-1.666h-0.5v1.666zM16.070 9.066v-0.5h-1.666v0.5zM5.736 9.066v-0.5h-1.666v0.5zM14.483 4.75l-0.354-0.35-1.174 1.186 0.354 0.354zM7.186 5.58l-1.186-1.176-0.354 0.356 1.188 1.174zM5.906 15.856h1.76v-0.5h-1.76c-0.13-0.777-0.835-1.326-1.621-1.261s-1.391 0.723-1.391 1.511c0 0.79 0.605 1.446 1.391 1.513 0.786 0.065 1.491-0.484 1.621-1.262zM7.020 17.882v0.001c-0.151-0.054-0.31-0.081-0.47-0.084-0.753-0.008-1.399 0.531-1.526 1.274-0.128 0.741 0.301 1.466 1.013 1.71 0.713 0.244 1.496-0.064 1.85-0.727 0.355-0.664 0.176-1.488-0.423-1.942l0.27-0.564h1.194v-0.5h-1.508zM25.26 10.076c0.194 0.089 0.404 0.134 0.616 0.134 0.733 0.002 1.364-0.515 1.503-1.234s-0.254-1.435-0.934-1.705c-0.681-0.27-1.457-0.019-1.849 0.6-0.392 0.619-0.288 1.429 0.247 1.929l-0.367 0.534h-2.223v0.5h2.49zM27.593 12.366c-0.214 0.001-0.424 0.047-0.617 0.137l-0.516-0.766-2.496-0.001v0.5h2.224l0.366 0.544c-0.309 0.284-0.484 0.684-0.484 1.104 0 0.613 0.37 1.166 0.936 1.401 0.566 0.234 1.219 0.105 1.652-0.329s0.564-1.086 0.329-1.654c-0.234-0.566-0.788-0.936-1.401-0.936zM9.963 19.89l-5.71 5.63c-0.346 0.346-0.54 0.815-0.54 1.305 0 0.489 0.195 0.957 0.541 1.304 0.721 0.72 1.889 0.719 2.609-0.003l5.666-5.666c-0.537-0.315-1.033-0.698-1.474-1.136-0.42-0.433-0.787-0.914-1.092-1.434zM15.666 21.82l0.334-0.334c-1.471-0.104-2.839-0.794-3.796-1.916-0.957-1.121-1.425-2.581-1.297-4.050-0.471 0.249-1.030 0.274-1.523 0.070-0.105 1.733 0.438 3.444 1.524 4.799 1.085 1.355 2.635 2.259 4.349 2.535h0.87c0.096-0.010 0.176-0.075 0.204-0.168 0.051-0.089 0.044-0.199-0.020-0.28zM21.379 11c-1.279-1.28-3.004-2.015-4.814-2.050v0.614h-2.666v-0.174l-0.21 0.084c-0.148 0.866-0.603 1.65-1.28 2.21-0.217 0.171-0.381 0.402-0.47 0.666-0.037 0.113-0.057 0.231-0.060 0.35v0.124c0.185-0.27 0.395-0.522 0.626-0.754 1.319-1.325 3.22-1.893 5.049-1.505 1.829 0.386 3.338 1.674 4.007 3.419 0.67 1.746 0.409 3.713-0.692 5.222h1.104v0.92c0.001 0.036 0.011 0.073 0.030 0.104 1.026-1.355 1.529-3.035 1.415-4.731-0.115-1.696-0.839-3.294-2.039-4.499zM19.953 12.43c-0.942-0.941-2.219-1.471-3.55-1.471-1.332 0-2.609 0.53-3.55 1.471-0.406 0.405-0.738 0.877-0.98 1.396v0.098c0.001 0.412-0.141 0.814-0.404 1.133-0.276 1.467 0.116 2.982 1.070 4.131s2.37 1.814 3.864 1.813h0.086l1.334-1.334 0.666 0.666v0.001c0.038 0.039 0.089 0.060 0.144 0.060 0.025 0.005 0.051 0.005 0.076 0l0.1-0.040c0.075-0.031 0.124-0.105 0.124-0.188v-0.96h1.332c0.813-0.959 1.234-2.189 1.18-3.445-0.054-1.255-0.579-2.445-1.47-3.331zM16.103 17.43l-1.63-1.43 0.334-0.376 1.25 1.094 2.534-2.93 0.376 0.334z"></path>
</svg>
