<!-- Generated by IcoMoon.io -->
<svg version="1.1" xmlns="http://www.w3.org/2000/svg" width="32" height="32" viewBox="0 0 32 32">
<path d="M20.476 0.701c-0.65 0-1.24 0.263-1.668 0.69s-0.69 1.018-0.69 1.667 0.262 1.24 0.69 1.668c0.425 0.425 1.014 0.69 1.664 0.69h0.006c0.65 0 1.24-0.266 1.668-0.69 0.427-0.428 0.69-1.018 0.69-1.667s-0.262-1.24-0.69-1.667c-0.43-0.427-1.020-0.69-1.67-0.69zM26.115 21.188v0.777c0 0.401-0.249 0.745-0.63 0.869l-0.195 0.061c-0.529 0.171-0.91 0.549-1.087 1.075-0.125 0.36-0.27 0.711-0.435 1.047-0.246 0.499-0.242 1.034 0.010 1.529l0.091 0.183c0.183 0.358 0.117 0.775-0.169 1.058l-1.098 1.098c-0.282 0.282-0.704 0.35-1.058 0.169l-0.183-0.091c-0.495-0.253-1.031-0.256-1.529-0.010-0.336 0.169-0.688 0.314-1.047 0.435-0.525 0.179-0.902 0.559-1.075 1.087l-0.064 0.195c-0.125 0.381-0.465 0.63-0.869 0.63h-1.556c-0.401 0-0.745-0.249-0.869-0.63l-0.064-0.195c-0.171-0.529-0.546-0.91-1.075-1.087-0.36-0.125-0.711-0.27-1.047-0.435-0.499-0.246-1.034-0.242-1.529 0.010l-0.182 0.091c-0.357 0.183-0.775 0.117-1.057-0.169l-1.098-1.098c-0.283-0.282-0.35-0.704-0.169-1.058l0.091-0.183c0.252-0.495 0.256-1.031 0.010-1.529-0.165-0.336-0.314-0.688-0.435-1.047-0.179-0.525-0.559-0.902-1.087-1.075l-0.195-0.061c-0.384-0.125-0.63-0.465-0.63-0.869l-0.001-0.777h4.699c0 2.991 2.425 5.416 5.413 5.416 2.991 0 5.416-2.425 5.416-5.416zM18.647 11.739h3.679c-0.179-0.377-0.28-0.801-0.28-1.246 0-0.809 0.326-1.539 0.855-2.069 0.326-0.326 0.734-0.579 1.189-0.721-0.306-0.479-0.718-0.883-1.199-1.179-0.566-0.348-1.23-0.549-1.936-0.549h-0.957c-0.707 0-1.371 0.199-1.934 0.546-0.485 0.296-0.896 0.701-1.199 1.175 0.461 0.141 0.872 0.394 1.206 0.728 0.529 0.529 0.855 1.26 0.855 2.069-0.003 0.449-0.1 0.869-0.279 1.246zM26.991 19.197v-2.657c0-0.155 0.125-0.28 0.28-0.28s0.28 0.125 0.28 0.28v2.657h1.628l-0.001-2.051c0-1.024-0.421-1.957-1.095-2.631-0.677-0.678-1.606-1.095-2.631-1.095h-0.961c-1.024 0-1.957 0.418-2.631 1.095-0.677 0.678-1.095 1.606-1.095 2.631v2.051h1.628l0.003-2.657c0-0.155 0.125-0.28 0.28-0.28s0.28 0.125 0.28 0.28v2.657zM23.040 11.856l0.004 0.004c0.078 0.107 0.161 0.213 0.256 0.306 0.427 0.428 1.018 0.69 1.668 0.69h0.006c0.654 0 1.242-0.266 1.671-0.69 0.427-0.428 0.69-1.018 0.69-1.671s-0.266-1.242-0.69-1.671c-0.427-0.428-1.017-0.694-1.671-0.694s-1.242 0.266-1.671 0.694c-0.427 0.428-0.69 1.018-0.69 1.671-0.004 0.506 0.155 0.977 0.427 1.361zM13.42 19.197v-2.657c0-0.155 0.125-0.28 0.28-0.28s0.28 0.125 0.28 0.28v2.657h4.041v-2.657c0-0.155 0.125-0.28 0.28-0.28s0.28 0.125 0.28 0.28v2.657h1.628l-0.001-2.051c0-1.024-0.418-1.957-1.095-2.631-0.674-0.678-1.606-1.095-2.631-1.095h-0.475l-0.006 0.001h-0.482c-1.024 0-1.957 0.418-2.631 1.095-0.678 0.678-1.095 1.606-1.095 2.631v2.051zM16 8.128c-0.65 0-1.242 0.266-1.671 0.694-0.428 0.428-0.69 1.018-0.69 1.671s0.266 1.242 0.69 1.671c0.428 0.428 1.018 0.69 1.671 0.69h0.006c0.65 0 1.24-0.266 1.668-0.69 0.427-0.428 0.694-1.018 0.694-1.671s-0.266-1.242-0.694-1.671c-0.431-0.428-1.020-0.694-1.674-0.694zM13.931 8.425c0.334-0.334 0.745-0.582 1.203-0.728-0.304-0.475-0.714-0.879-1.199-1.175-0.566-0.348-1.23-0.546-1.936-0.546h-0.479v-0.001h-0.475c-0.707 0-1.371 0.202-1.936 0.549-0.485 0.296-0.896 0.701-1.199 1.179 0.455 0.141 0.859 0.394 1.189 0.721 0.529 0.529 0.859 1.26 0.859 2.069 0 0.445-0.101 0.869-0.28 1.246h3.679c-0.179-0.377-0.276-0.801-0.276-1.246-0.004-0.805 0.322-1.536 0.851-2.067zM9.048 19.197v-2.657c0-0.155 0.125-0.28 0.28-0.28s0.28 0.125 0.28 0.28v2.657h1.627l-0.001-2.051c0-1.024-0.421-1.957-1.095-2.631-0.678-0.678-1.606-1.095-2.631-1.095h-0.961c-1.024 0-1.957 0.418-2.631 1.095-0.677 0.678-1.095 1.606-1.095 2.631v2.051h1.627l0.003-2.657c0-0.155 0.125-0.28 0.28-0.28s0.28 0.125 0.28 0.28v2.657zM8.701 8.823c-0.428-0.428-1.018-0.694-1.671-0.694s-1.242 0.266-1.671 0.694c-0.428 0.428-0.694 1.018-0.694 1.671s0.266 1.242 0.694 1.671c0.428 0.428 1.018 0.69 1.668 0.69h0.006c0.654 0 1.242-0.266 1.671-0.69 0.428-0.428 0.69-1.018 0.69-1.671-0.002-0.651-0.269-1.244-0.693-1.671zM11.524 0.701c-0.65 0-1.24 0.262-1.668 0.69s-0.69 1.018-0.69 1.667 0.262 1.24 0.69 1.668c0.425 0.425 1.014 0.69 1.664 0.69h0.006c0.65 0 1.24-0.266 1.668-0.69 0.428-0.428 0.69-1.018 0.69-1.667s-0.262-1.24-0.69-1.667c-0.431-0.427-1.020-0.69-1.67-0.69z"></path>
</svg>
