<?xml version="1.0" encoding="utf-8"?>
<svg version="1.1" viewBox="0 0 1200 1200" xmlns="http://www.w3.org/2000/svg" width="150pt" height="150pt">
  <path d="M 1018.13 419.211 C 1012.75 419.211 1008.08 416.498 1005.41 411.798 C 957.894 327.587 882.475 220.238 896.135 129.623 C 906.404 61.288 961.472 20.144 1018.13 19.928 C 1074.76 20.144 1129.86 61.288 1140.13 129.623 C 1153.76 220.238 1078.3 327.587 1030.86 411.798 C 1028.19 416.498 1023.56 419.211 1018.13 419.211 Z M 1078.88 150.264 C 1078.88 116.64 1051.69 89.45 1018.13 89.45 C 984.58 89.45 957.388 116.64 957.388 150.264 C 957.388 183.893 984.58 211.012 1018.13 211.012 C 1051.69 211.012 1078.88 183.822 1078.88 150.264 Z M 689.235 839.902 C 748.898 817.123 755.144 769.145 638.83 672.965 C 612.943 651.524 597.498 630.262 590.558 609.58 C 586.228 596.635 585.168 584.161 586.908 572.193 C 566.048 564.78 552.228 552.053 552.228 537.698 C 552.228 514.884 587.018 496.298 629.648 496.298 C 633.697 496.298 637.675 496.479 641.544 496.806 C 651.704 489.68 662.986 482.993 675.172 476.772 C 729.081 449.329 801.976 430.635 870.279 423.729 C 873.279 403.952 907.268 387.03 955.684 378.713 C 965.156 394.731 974.341 410.135 982.512 424.668 C 989.851 437.65 1003.27 445.497 1018.16 445.497 C 1033.06 445.497 1046.44 437.65 1053.74 424.668 C 1062.24 409.592 1071.75 393.647 1081.58 377.014 C 1138.13 384.896 1178.05 404.132 1178.05 426.586 C 1178.05 456.127 1109.06 480.063 1024.06 480.063 C 973.872 480.063 929.287 471.746 901.195 458.84 C 830.143 462.526 749.444 481.04 692.17 510.218 C 691.302 510.687 690.435 511.122 689.569 511.591 C 700.45 518.715 707.032 527.826 707.032 537.734 C 707.032 560.55 672.251 579.134 629.656 579.134 C 627.741 579.134 625.859 579.099 623.98 579.025 C 623.293 585.136 623.907 591.356 626.039 597.756 C 630.776 611.856 642.492 627.332 662.74 644.073 C 816.451 771.231 796.881 838.92 702.513 874.933 C 636.199 900.243 526.168 905.306 420.189 905.053 C 419.672 905.497 419.139 905.935 418.592 906.367 C 420.166 916.131 424.31 925.469 430.784 932.945 C 434.484 931.914 438.544 932.748 441.934 935.116 C 445.694 937.79 448.124 941.957 448.434 946.341 C 448.894 953.71 444.044 960.967 436.594 964.036 C 429.334 966.864 421.964 965.571 417.074 963.927 C 400.482 958.402 387.533 941.974 383.42 921.654 C 378.296 922.772 372.901 923.603 367.306 924.11 C 369.045 927.29 371.1 930.259 373.444 932.945 C 377.154 931.958 381.204 932.747 384.604 935.116 C 388.354 937.79 390.784 941.957 391.094 946.385 C 391.554 953.688 386.714 960.945 379.254 964.036 C 376.164 965.22 373.074 965.68 370.134 965.68 C 366.164 965.68 362.574 964.847 359.734 963.927 C 343.184 958.416 330.26 942.057 326.112 921.811 C 312.548 918.944 300.841 914.081 292.268 907.908 C 290.744 907.646 289.222 907.36 287.704 907.05 C 284.054 915.382 277.824 922.333 270.154 926.498 L 269.414 926.914 C 268.044 927.638 264.844 929.326 264.794 930.203 C 264.794 930.664 266.704 932.221 269.574 932.572 C 270.344 932.682 271.174 932.725 272.054 932.77 C 276.224 933.076 281.374 933.493 285.394 937.198 C 288.214 939.83 289.704 943.579 289.544 947.745 C 289.354 952.591 286.874 957.48 283.124 960.462 C 277.934 964.628 271.324 965.505 265.984 965.505 C 264.904 965.505 263.804 965.462 262.844 965.395 C 245.754 964.474 232.284 957.064 226.874 945.53 C 223.154 937.549 223.614 929.173 224.034 921.082 C 224.144 919.13 224.244 917.223 224.294 915.316 C 224.344 913.868 224.294 912.53 224.194 911.194 C 221.624 911.764 218.994 912.07 216.414 912.224 C 214.324 912.377 212.154 912.377 210.044 912.421 C 204.844 912.53 199.964 912.619 195.794 914.329 C 192.924 915.469 190.334 918.144 189.374 920.906 C 188.804 922.398 188.854 923.779 189.484 924.876 C 190.514 926.673 192.774 927.967 195.394 929.458 C 197.964 930.949 200.904 932.593 203.234 935.181 C 206.884 939.236 208.304 944.916 207.124 950.77 C 205.834 957.194 201.634 962.808 196.054 965.438 C 193.184 966.82 189.974 967.456 186.734 967.456 C 179.214 967.456 171.344 963.948 166.154 957.721 C 160.134 950.661 157.204 940.53 157.914 929.216 C 158.404 921.082 160.534 913.32 162.644 905.799 L 163.634 902.291 C 165.164 896.678 166.754 890.406 167.174 884.114 C 150.764 886.746 130.744 880.518 117.974 868.108 C 104.144 854.623 98.684 833.157 104.544 814.677 C 107.014 806.857 112.704 799.897 119.154 796.987 C 123.594 794.917 128.214 794.817 132.444 796.627 C 140.214 799.867 144.554 808.777 143.984 820.397 C 143.874 822.187 143.714 823.987 143.554 825.787 C 143.044 830.987 142.574 835.877 144.214 839.957 C 147.314 847.629 157.964 850.502 166.404 848.902 C 174.504 847.301 181.764 842.937 189.414 838.287 C 191.054 837.257 192.764 836.267 194.454 835.307 C 218.754 821.137 246.444 812.657 274.554 810.707 C 282.954 810.137 291.394 810.197 299.574 810.197 C 308.124 810.167 316.914 810.197 325.514 809.537 C 344.554 808.167 359.644 803.207 370.394 794.837 C 383.154 784.797 389.604 768.587 385.974 755.367 L 385.514 753.677 C 384.044 748.517 381.964 741.487 386.554 735.767 C 392.014 729.227 401.214 731.027 405.124 731.797 C 410.174 732.827 414.854 734.887 419.344 736.937 C 423.544 738.787 427.574 740.607 431.474 741.377 C 435.304 742.137 439.664 742.757 444.244 743.387 C 450.014 744.217 455.974 745.037 461.174 746.267 C 462.924 746.687 464.444 746.837 466.104 746.927 C 469.924 747.277 474.194 747.637 478.674 751.507 C 485.184 757.067 488.164 766.237 486.454 775.557 C 484.914 784.147 479.594 790.897 472.244 793.577 C 468.544 794.957 464.674 795.267 460.974 795.637 C 456.494 796.057 452.574 796.367 450.124 798.517 C 446.714 801.537 446.914 806.757 447.704 815.037 C 447.964 818.177 448.274 821.467 448.174 824.667 C 447.814 837.997 440.224 848.656 432.994 858.94 C 430.855 861.913 428.805 864.803 426.95 867.708 C 527.157 867.751 629.353 862.795 689.235 839.902 Z M 92.844 840.677 L 49.194 840.677 C 46.284 840.677 44.084 838.357 44.084 835.527 C 44.084 832.697 46.284 830.377 49.194 830.377 L 88.354 830.377 C 89.694 828.267 90.994 826.167 92.204 824.037 C 91.664 829.607 91.894 835.157 92.844 840.677 Z M 239.144 724.557 C 232.564 737.117 219.394 745.717 204.244 745.717 C 200.684 745.717 197.164 745.247 193.794 744.267 C 186.394 753.317 175.264 758.577 163.434 758.577 C 162.514 758.577 161.594 758.547 160.724 758.477 C 164.874 781.587 171.774 805.527 186.074 828.377 C 185.424 828.727 184.744 829.147 184.124 829.557 C 177.214 833.687 170.754 837.647 164.534 838.837 C 163.654 839.037 162.724 839.097 161.814 839.097 C 157.424 839.097 154.284 837.407 153.794 836.157 C 153.124 834.407 153.474 830.397 153.824 826.727 C 153.984 824.817 154.184 822.917 154.284 820.967 C 155.064 804.807 148.364 792.137 136.534 787.197 C 133.244 785.817 129.774 785.097 126.294 785.097 C 122.384 785.097 118.574 785.967 114.904 787.657 C 111.774 789.107 108.784 791.167 106.124 793.627 C 110.164 781.827 112.964 770.057 115.014 758.477 C 114.094 758.517 113.164 758.577 112.244 758.577 C 100.404 758.577 89.314 753.337 81.864 744.267 C 78.514 745.247 75.034 745.717 71.474 745.717 C 49.744 745.717 32.084 728.017 32.084 706.337 C 32.084 691.807 39.784 678.837 52.154 671.947 C 49.904 666.067 48.714 659.807 48.714 653.377 C 48.714 629.497 65.074 608.917 88.024 603.417 C 96.624 585.657 114.494 574.337 134.394 574.337 C 141.204 574.337 147.844 575.667 153.914 578.197 C 154.374 580.367 154.944 582.467 155.554 584.537 C 137.614 596.987 126.724 617.467 126.724 639.867 C 126.724 676.977 156.894 707.137 193.994 707.137 C 198.434 707.137 202.854 706.717 207.064 705.847 C 215.874 715.027 227.004 721.507 239.144 724.557 Z M 325.934 715.807 C 330.464 741.747 337.044 768.457 348.694 794.757 C 341.774 797.127 333.834 798.667 324.704 799.347 C 317.594 799.867 310.074 799.907 302.814 799.957 L 295.714 799.957 C 288.414 799.957 281.254 799.997 273.844 800.467 C 260.504 801.387 247.274 803.707 234.454 807.367 C 249.894 776.997 257.974 745.907 263.184 715.807 C 260.704 716.157 258.284 716.377 255.764 716.377 C 238.064 716.377 221.534 708.207 210.724 694.297 C 205.334 695.987 199.724 696.827 193.994 696.827 C 162.554 696.827 137.014 671.237 137.014 639.837 C 137.014 618.067 149.044 598.657 168.154 588.987 C 164.174 579.777 162.174 569.897 162.174 559.647 C 162.174 524.287 186.744 493.867 220.964 486.197 C 233.264 459.577 259.834 442.547 289.314 442.547 C 318.004 442.547 344.094 458.857 356.734 484.377 L 359.414 484.377 C 400.944 484.377 434.674 518.107 434.674 559.637 C 434.674 571.047 432.104 582.397 427.094 592.627 C 442.644 603.187 452.124 620.827 452.124 639.837 C 452.124 671.237 426.534 696.827 395.084 696.827 C 389.374 696.827 383.774 695.987 378.364 694.297 C 367.594 708.207 351.034 716.377 333.324 716.377 C 330.864 716.377 328.394 716.157 325.934 715.807 Z M 545.064 835.527 C 545.064 838.357 542.744 840.677 539.904 840.677 L 455.334 840.677 C 457.144 835.837 458.284 830.637 458.434 824.977 C 458.544 821.477 458.284 818.037 458.014 814.997 L 457.904 814.087 C 457.754 812.287 457.414 808.517 457.494 806.417 C 458.684 806.207 460.364 806.057 461.914 805.877 L 462.534 805.837 C 466.554 805.417 471.084 805.007 475.714 803.277 C 479.004 802.087 482.044 800.327 484.664 798.187 C 488.674 808.997 493.934 819.847 500.714 830.417 L 539.874 830.417 C 542.744 830.377 545.064 832.697 545.064 835.527 Z M 557.084 706.337 C 557.084 727.997 539.384 745.717 517.694 745.717 C 514.144 745.717 510.644 745.257 507.244 744.267 C 503.544 748.807 498.964 752.397 493.764 754.807 C 491.794 750.537 488.984 746.727 485.434 743.697 C 478.474 737.767 471.744 737.117 466.794 736.637 C 465.554 736.597 464.574 736.477 463.544 736.227 C 458.194 734.997 452.394 734.157 446.714 733.357 L 445.644 733.197 C 441.464 732.627 437.134 732.007 433.494 731.287 C 430.814 730.777 427.514 729.267 423.964 727.727 L 423.654 727.587 C 418.664 725.327 413.264 722.947 407.124 721.707 C 405.334 721.357 401.924 720.677 398.124 720.677 C 387.884 720.677 381.844 725.297 378.514 729.317 C 374.654 734.087 373.434 739.297 373.434 743.937 C 363.304 740.907 354.864 733.797 350.014 724.537 C 362.164 721.517 373.234 715.017 382.014 705.797 C 386.304 706.677 390.664 707.107 395.084 707.107 C 432.194 707.107 462.414 676.927 462.414 639.827 C 462.414 620.377 454.004 602.057 439.644 589.407 C 441.454 584.557 442.774 579.587 443.654 574.537 C 445.034 574.377 446.444 574.337 447.814 574.337 C 467.024 574.337 484.524 585.047 493.354 601.987 C 522.294 601.637 545.504 624.797 545.504 653.407 C 545.504 660.717 543.974 667.967 540.964 674.607 C 551.014 681.937 557.084 693.737 557.084 706.337 Z" fill-rule="evenodd" style=""/>
</svg>