<!-- Generated by IcoMoon.io -->
<svg version="1.1" xmlns="http://www.w3.org/2000/svg" width="32" height="32" viewBox="0 0 32 32">
<path d="M15.978 0c-0.266 1.778-0.355 4.578 0.534 6.045 1.422 2.4 3.2 1.911 2.578-0.577 2.8 2 5.645 7.645 6 10.489 0.534 4.266 3.066 3.466 2.666 5.511-1.245 6-5.866 10.311-11.2 10.534v-0.177c0.045-6 1.511-4.534 6.222-4.045-1.245-1.511-2.134-2.578-2.845-3.466l2.045 0.489c-1.289-1.555-2.178-2.622-2.8-3.511l1.955 0.489c-1.334-1.6-2.134-2.578-2.711-3.422l1.911 0.445c-1.422-1.689-2.134-2.534-2.622-3.422l1.823 0.445c-2.489-2.978-2.311-2.711-3.378-6.622-1.066 3.911-0.977 3.6-3.422 6.622l1.822-0.489c-0.489 0.889-1.245 1.734-2.623 3.466l1.911-0.489c-0.578 0.845-1.377 1.823-2.711 3.466l1.955-0.489c-0.666 0.889-1.511 1.911-2.8 3.511l2-0.534c-0.666 0.889-1.555 2-2.8 3.511 5.734-1.378 6.134 0 5.822 4.178-5.555-0.445-12.355-5.111-10.934-11.2 0.845-3.6 4.666-1.555 4.889-9.022 3.334 2.889 1.289-7.334 6.711-11.734zM25.578 24.266c0.845-0.977 2.134-3.822 0.534-3.911-1.555-0.089-0.711 0.622-0.445 1.955 0.223 1.111-0.089 1.955-0.089 1.955zM15.578 0.755c-1.2 1.555-3.422 5.955-1.822 6.089 1.511 0.134 0.889-0.978 1.066-3.022 0.134-1.734 0.755-3.066 0.755-3.066zM7.178 18.489c-2.045 0.711-3.334 4.934-1.6 5.289 1.645 0.355 0.8-1.023 0.711-2.8-0.045-1.511 0.889-2.489 0.889-2.489zM19.844 6.711c0 0 0.8 1.734 0.977 4 0.223 2.71-0.578 4.132 1.422 3.955 2.045-0.133-0.845-5.91-2.4-7.955z"></path>
</svg>
