<!-- Generated by IcoMoon.io -->
<svg version="1.1" xmlns="http://www.w3.org/2000/svg" width="32" height="32" viewBox="0 0 32 32">
<path d="M27.15 11.179c-0.143 0-0.268-0.072-0.339-0.198-1.267-2.246-3.278-5.108-2.914-7.525 0.274-1.822 1.742-2.919 3.253-2.925 1.51 0.006 2.979 1.103 3.253 2.925 0.363 2.416-1.649 5.279-2.914 7.525-0.071 0.125-0.195 0.198-0.339 0.198zM28.77 4.007c0-0.897-0.725-1.622-1.62-1.622s-1.62 0.725-1.62 1.622c0 0.897 0.725 1.62 1.62 1.62s1.62-0.725 1.62-1.62zM18.38 22.397c1.591-0.607 1.758-1.887-1.344-4.452-0.69-0.572-1.102-1.139-1.287-1.69-0.115-0.345-0.144-0.678-0.097-0.997-0.556-0.198-0.925-0.537-0.925-0.92 0-0.608 0.928-1.104 2.065-1.104 0.108 0 0.214 0.005 0.317 0.014 0.271-0.19 0.572-0.368 0.897-0.534 1.438-0.732 3.381-1.23 5.203-1.414 0.080-0.527 0.986-0.979 2.277-1.2 0.253 0.427 0.498 0.838 0.715 1.225 0.196 0.346 0.554 0.555 0.951 0.555s0.754-0.209 0.949-0.555c0.227-0.402 0.48-0.827 0.742-1.271 1.508 0.21 2.573 0.723 2.573 1.322 0 0.788-1.84 1.426-4.106 1.426-1.338 0-2.527-0.222-3.276-0.566-1.895 0.098-4.047 0.592-5.574 1.37-0.023 0.012-0.046 0.024-0.069 0.037 0.29 0.19 0.466 0.433 0.466 0.697 0 0.608-0.927 1.104-2.063 1.104-0.051 0-0.101-0.001-0.151-0.003-0.018 0.163-0.002 0.329 0.055 0.499 0.126 0.376 0.439 0.789 0.979 1.235 4.099 3.391 3.577 5.196 1.061 6.156-1.768 0.675-4.703 0.81-7.529 0.803-0.014 0.012-0.028 0.024-0.043 0.035 0.042 0.26 0.152 0.509 0.325 0.709 0.099-0.027 0.207-0.005 0.297 0.058 0.1 0.071 0.165 0.182 0.173 0.299 0.012 0.197-0.117 0.39-0.316 0.472-0.194 0.075-0.39 0.041-0.521-0.003-0.442-0.147-0.788-0.585-0.897-1.127-0.137 0.030-0.28 0.052-0.43 0.066 0.046 0.085 0.101 0.164 0.164 0.236 0.099-0.026 0.207-0.005 0.298 0.058 0.1 0.071 0.165 0.182 0.173 0.3 0.012 0.195-0.117 0.388-0.316 0.471-0.082 0.032-0.165 0.044-0.243 0.044-0.106 0-0.202-0.022-0.277-0.047-0.441-0.147-0.786-0.583-0.897-1.123-0.362-0.076-0.674-0.206-0.902-0.371-0.041-0.007-0.081-0.015-0.122-0.023-0.097 0.222-0.263 0.408-0.468 0.519l-0.020 0.011c-0.037 0.019-0.122 0.064-0.123 0.088 0 0.012 0.051 0.054 0.127 0.063 0.021 0.003 0.043 0.004 0.066 0.005 0.111 0.008 0.249 0.019 0.356 0.118 0.075 0.070 0.115 0.17 0.111 0.281-0.005 0.129-0.071 0.26-0.171 0.339-0.138 0.111-0.315 0.134-0.457 0.134-0.029 0-0.058-0.001-0.084-0.003-0.456-0.025-0.815-0.222-0.959-0.53-0.099-0.213-0.087-0.436-0.076-0.652 0.003-0.052 0.006-0.103 0.007-0.154 0.001-0.039 0-0.074-0.003-0.11-0.069 0.015-0.139 0.023-0.207 0.027-0.056 0.004-0.114 0.004-0.17 0.005-0.139 0.003-0.269 0.005-0.38 0.051-0.077 0.030-0.146 0.102-0.171 0.175-0.015 0.040-0.014 0.077 0.003 0.106 0.027 0.048 0.088 0.082 0.158 0.122 0.069 0.040 0.147 0.084 0.209 0.153 0.097 0.108 0.135 0.26 0.104 0.416-0.034 0.171-0.146 0.321-0.295 0.391-0.077 0.037-0.162 0.054-0.249 0.054-0.201 0-0.41-0.094-0.549-0.26-0.161-0.188-0.239-0.458-0.22-0.76 0.013-0.217 0.070-0.424 0.126-0.624l0.026-0.094c0.041-0.15 0.083-0.317 0.094-0.485-0.438 0.070-0.971-0.096-1.312-0.427-0.369-0.36-0.514-0.932-0.358-1.425 0.066-0.209 0.218-0.394 0.39-0.472 0.118-0.055 0.242-0.058 0.354-0.010 0.207 0.086 0.323 0.324 0.308 0.634-0.003 0.048-0.007 0.096-0.011 0.144-0.014 0.139-0.026 0.269 0.018 0.378 0.083 0.205 0.367 0.281 0.592 0.239 0.216-0.043 0.41-0.159 0.614-0.283 0.044-0.027 0.089-0.054 0.134-0.079 0.648-0.378 1.386-0.604 2.136-0.656 0.224-0.015 0.449-0.014 0.667-0.014 0.228-0.001 0.462 0 0.692-0.018 0.508-0.037 0.91-0.169 1.197-0.392 0.34-0.268 0.512-0.7 0.415-1.053l-0.012-0.045c-0.039-0.138-0.095-0.325 0.028-0.478 0.146-0.174 0.391-0.126 0.495-0.106 0.135 0.027 0.259 0.082 0.379 0.137 0.112 0.049 0.219 0.098 0.323 0.118 0.102 0.020 0.218 0.037 0.341 0.054 0.154 0.022 0.313 0.044 0.451 0.077 0.047 0.011 0.087 0.015 0.131 0.018 0.102 0.009 0.216 0.019 0.335 0.122 0.174 0.148 0.253 0.393 0.207 0.641-0.041 0.229-0.183 0.409-0.379 0.481-0.099 0.037-0.202 0.045-0.301 0.055-0.119 0.011-0.224 0.019-0.289 0.077-0.091 0.081-0.086 0.22-0.065 0.441 0.007 0.084 0.015 0.171 0.013 0.257-0.010 0.355-0.212 0.64-0.405 0.914-0.057 0.079-0.112 0.156-0.161 0.234 2.672 0.001 5.397-0.131 6.994-0.741zM2.476 22.418h-1.164c-0.078 0-0.136-0.062-0.136-0.137s0.059-0.137 0.136-0.137h1.044c0.036-0.056 0.070-0.112 0.103-0.169-0.014 0.149-0.008 0.297 0.017 0.444zM6.377 19.322c-0.324-0.081-0.621-0.254-0.855-0.499-0.112 0.023-0.23 0.034-0.349 0.034-0.989 0-1.794-0.804-1.794-1.794 0-0.597 0.29-1.143 0.769-1.475-0.016-0.055-0.031-0.111-0.044-0.169-0.162-0.067-0.339-0.103-0.521-0.103-0.531 0-1.007 0.302-1.237 0.775-0.612 0.147-1.048 0.695-1.048 1.332 0 0.171 0.032 0.338 0.092 0.495-0.33 0.184-0.535 0.53-0.535 0.917 0 0.578 0.471 1.050 1.050 1.050 0.095 0 0.188-0.013 0.277-0.039 0.199 0.242 0.494 0.382 0.81 0.382 0.025 0 0.049-0.002 0.074-0.003-0.055 0.309-0.129 0.623-0.237 0.937 0.071-0.066 0.151-0.121 0.234-0.159 0.098-0.045 0.199-0.068 0.304-0.068 0.093 0 0.185 0.019 0.273 0.056 0.315 0.132 0.494 0.47 0.473 0.901-0.003 0.052-0.008 0.103-0.012 0.154-0.009 0.098-0.019 0.205-0.001 0.251 0.013 0.033 0.097 0.078 0.214 0.078 0.024 0 0.049-0.002 0.073-0.007 0.166-0.032 0.338-0.137 0.522-0.247 0.017-0.011 0.035-0.022 0.052-0.031-0.381-0.609-0.565-1.248-0.676-1.864 0.023 0.002 0.048 0.003 0.072 0.003 0.315 0 0.612-0.14 0.81-0.382 0.090 0.026 0.184 0.039 0.279 0.039 0.404 0 0.755-0.229 0.931-0.564zM8.692 19.088c0.121 0.692 0.296 1.404 0.607 2.105-0.185 0.063-0.396 0.104-0.64 0.122-0.19 0.014-0.39 0.015-0.584 0.016h-0.189c-0.195 0-0.386 0.001-0.583 0.014-0.356 0.025-0.709 0.086-1.050 0.184 0.412-0.81 0.627-1.639 0.766-2.442-0.066 0.009-0.131 0.015-0.198 0.015-0.472 0-0.913-0.218-1.201-0.589-0.144 0.045-0.293 0.067-0.446 0.067-0.838 0-1.519-0.682-1.519-1.52 0-0.581 0.321-1.098 0.83-1.356-0.106-0.246-0.159-0.509-0.159-0.782 0-0.943 0.655-1.754 1.568-1.959 0.328-0.71 1.037-1.164 1.823-1.164 0.765 0 1.461 0.435 1.798 1.115h0.071c1.107 0 2.007 0.899 2.007 2.007 0 0.304-0.069 0.607-0.202 0.88 0.415 0.282 0.667 0.752 0.667 1.259 0 0.837-0.682 1.52-1.521 1.52-0.152 0-0.302-0.022-0.446-0.067-0.287 0.371-0.729 0.589-1.201 0.589-0.066 0-0.131-0.006-0.197-0.015zM14.535 22.281c0-0.075-0.062-0.137-0.138-0.136h-1.044c-0.181-0.282-0.321-0.571-0.428-0.859-0.070 0.057-0.151 0.104-0.239 0.136-0.123 0.046-0.244 0.057-0.351 0.068l-0.017 0.001c-0.041 0.005-0.086 0.009-0.118 0.014-0.002 0.056 0.007 0.157 0.011 0.205l0.003 0.024c0.007 0.081 0.014 0.173 0.011 0.266-0.004 0.151-0.034 0.29-0.083 0.419h2.255c0.076 0 0.138-0.062 0.138-0.137zM14.856 18.836c0 0.578-0.472 1.050-1.050 1.050-0.095 0-0.188-0.012-0.279-0.039-0.099 0.121-0.221 0.217-0.359 0.281-0.053-0.114-0.127-0.215-0.222-0.296-0.186-0.158-0.365-0.175-0.497-0.188-0.033-0.001-0.059-0.004-0.087-0.011-0.143-0.033-0.297-0.055-0.449-0.077l-0.029-0.004c-0.111-0.015-0.227-0.032-0.324-0.051-0.071-0.014-0.159-0.054-0.254-0.095l-0.008-0.004c-0.133-0.060-0.277-0.124-0.441-0.157-0.048-0.009-0.139-0.027-0.24-0.027-0.273 0-0.434 0.123-0.523 0.23-0.103 0.127-0.135 0.266-0.135 0.39-0.27-0.081-0.495-0.27-0.625-0.517 0.324-0.081 0.619-0.254 0.853-0.5 0.114 0.023 0.231 0.035 0.349 0.035 0.99 0 1.795-0.805 1.795-1.794 0-0.519-0.224-1.007-0.607-1.345 0.048-0.129 0.083-0.262 0.107-0.397 0.037-0.004 0.074-0.005 0.111-0.005 0.512 0 0.979 0.286 1.214 0.737 0.772-0.009 1.391 0.608 1.391 1.371 0 0.195-0.041 0.388-0.121 0.565 0.268 0.195 0.43 0.51 0.43 0.846z"></path>
</svg>
