<?xml version="1.0" encoding="utf-8"?>
<svg version="1.1" viewBox="0 0 1200 1200" xmlns="http://www.w3.org/2000/svg" width="150pt" height="150pt">
  <path d="m599.16 0c-9.9844 66.656-13.312 171.66 20.016 226.69 53.344 90 120 71.672 96.656-21.656 105 75 211.69 286.69 225 393.32 20.016 159.98 114.98 129.98 99.984 206.68-46.688 225-219.98 386.68-420 395.02v-6.6562c1.6875-225 56.672-170.02 233.34-151.69-46.688-56.672-80.016-96.656-106.69-129.98l76.688 18.328c-48.328-58.312-81.656-98.344-105-131.68l73.312 18.328c-50.016-60-80.016-96.656-101.67-128.34l71.672 16.688c-53.344-63.328-80.016-95.016-98.344-128.34l68.344 16.688c-93.328-111.66-86.672-101.67-126.66-248.34-39.984 146.68-36.656 135-128.34 248.34l68.344-18.328c-18.328 33.328-46.688 65.016-98.344 129.98l71.672-18.328c-21.656 31.688-51.656 68.344-101.67 129.98l73.312-18.328c-24.984 33.328-56.672 71.672-105 131.68l75-20.016c-24.984 33.328-58.312 75-105 131.68 215.02-51.656 230.02 0 218.34 156.66-208.31-16.688-463.31-191.68-410.02-420 31.688-135 174.98-58.312 183.32-338.34 125.02 108.33 48.328-275.02 251.68-440.02zm360 909.98c31.688-36.656 80.016-143.34 20.016-146.68-58.312-3.3281-26.672 23.344-16.688 73.312 8.3438 41.672-3.3281 73.312-3.3281 73.312zm-375-881.68c-45 58.312-128.34 223.31-68.344 228.32 56.672 5.0156 33.328-36.656 39.984-113.34 5.0156-65.016 28.312-114.98 28.312-114.98zm-315 665.02c-76.688 26.672-125.02 185.02-60 198.32 61.688 13.312 30-38.344 26.672-105-1.6875-56.672 33.328-93.328 33.328-93.328zm474.98-441.66c58.312 76.688 166.69 293.34 90 298.31-75 6.6562-45-46.688-53.344-148.31-6.6562-84.984-36.656-150-36.656-150z" fill-rule="evenodd"/>
</svg>