<?xml version="1.0" encoding="UTF-8" standalone="no"?>
<!DOCTYPE svg PUBLIC "-//W3C//DTD SVG 1.1//EN" "http://www.w3.org/Graphics/SVG/1.1/DTD/svg11.dtd">
<svg width="100%" height="100%" viewBox="0 0 150 150" version="1.1" xmlns="http://www.w3.org/2000/svg" xmlns:xlink="http://www.w3.org/1999/xlink" xml:space="preserve" xmlns:serif="http://www.serif.com/" style="fill-rule:evenodd;clip-rule:evenodd;stroke-linejoin:round;stroke-miterlimit:2;">
    <g transform="matrix(0.127162,0,0,0.123381,-88.3991,0.514781)">
        <path d="M1336.62,937.07L1354.82,956.819C1334.48,954.296 1318.16,944.871 1302.04,932.421L1318.93,955.826C1297.45,951.44 1281.27,938.667 1266.97,920.14C1268.59,925.52 1269.97,931.027 1271.89,936.237C1273.87,941.522 1276.39,946.494 1279.73,954.033C1258.94,940.392 1247.88,920.505 1237.91,898.758L1243.1,928.342C1225.61,915.959 1213.21,886.979 1203.93,839.999C1203.27,846.542 1202.38,853.01 1202.07,859.588C1201.77,866.123 1202.02,872.736 1201.28,879.406C1186.52,851.42 1185.72,820.911 1187.84,789.076L1179.91,807.636C1173.97,775.036 1177.69,744.288 1183.19,713.022L1177.74,722.88C1175.86,726.433 1174.1,730.087 1172.28,733.699L1170.11,733.137C1171.54,721.715 1172.3,710.099 1174.6,698.913C1176.98,687.492 1180.89,676.504 1183.44,664.555L1173.19,679.954C1175.41,650.973 1181.37,625.648 1189.85,600.416L1180.83,611.497C1180.2,611.268 1179.6,611.072 1178.97,610.868C1180.94,602.541 1182.42,594.007 1184.95,585.908C1187.52,577.708 1191.08,569.94 1193.68,561.271L1186.7,572.557C1185.79,571.735 1184.89,570.896 1184.01,570.041C1187.4,553.937 1195.12,540.297 1202.98,526.385C1189.79,533.753 1179.69,545.473 1169.51,560.413L1169.51,535.979L1148.58,561.509L1148.58,551.447L1118.38,583.648L1119.63,570.773L1094.34,597.263L1097.41,573.356L1068.16,600.45L1072.94,564.033L1052.61,579.696L1059.21,546.763L1039.46,562.138C1038.99,561.738 1038.47,561.373 1037.99,560.974L1052.55,521.702L1035.2,528.075L1052.43,501.687L1037.64,507.297L1055.59,479.175L1043.65,483.058L1042.43,481.197L1062.66,460.257C1062.26,459.62 1061.89,458.991 1061.49,458.395C1059.28,458.595 1057.08,458.828 1054.88,459.093C1054.45,458.495 1054,457.908 1053.54,457.333L1071.18,440.771C1038.56,453.977 955.43,586.733 939.276,648.585L949.362,639.024L932.465,676.47C932.72,676.606 933.005,676.733 933.267,676.869L970.153,637.359C970.752,637.928 971.379,638.455 971.976,639.024L962.89,660.305C963.237,660.804 963.599,661.291 963.977,661.767L998.53,636.399L999.701,637.095L990.209,657.382L991.346,659.642L1020.6,638.728L1017.73,669.832L1037.82,650.277L1053.94,681.22C1054.86,680.854 1055.77,680.524 1056.68,680.191L1048.84,608.549L1050.3,608.251L1093.6,754.75C1098.37,772.673 1097.62,792.628 1099.38,811.614C1098.55,811.885 1097.76,812.183 1096.96,812.446L1092.91,806.667L1089.78,848.268L1087.1,848.302L1084.67,841.826C1074.45,874.988 1068.19,884.616 1041.38,908.421C1054.31,916.953 1066.31,927.314 1067.73,945.499C1068.89,960.437 1071.46,976.669 1061.34,990.416L1055.85,971.567C1039.33,968.468 1030.38,977.179 1027.62,994.639C1025.84,993.874 1025.07,993.808 1024.99,993.505C1023.45,987.468 1023.08,977.179 1020.28,976.178C1013.71,973.787 1005.91,975.611 998.646,976.376C997.275,976.546 995.882,979.494 994.971,981.459C992.63,986.438 990.551,991.55 987.394,998.953L983.317,978.937C974.369,978.937 966.055,978.672 957.763,979.163C955.772,979.267 953.373,981.563 952.068,983.613C949.5,987.629 947.597,992.183 944.914,997.553C940.384,979.929 940.245,981.459 925.857,979.494C914.123,977.935 908.88,984.709 904.862,994.904C903.578,994.242 902.754,993.968 902.754,993.808C903.294,982.253 898.627,978.237 888.825,977.075C878.002,975.819 874.043,966.116 876.916,952.205C880.504,934.877 888.54,920.838 901.528,911.311C905.634,908.285 906.372,905.667 905.175,900.288C899.647,875.327 897.627,850.027 901.186,824.031L895.745,831.831C895.06,803.183 900.588,777.857 909.361,753.22L907.283,751.631L902.441,760.724C919.075,616.843 982.661,506.064 1076.34,415.469L1071,414.611L1070.41,412.75L1104.25,396.314L1091.92,393.492L1091.32,391.605L1127.16,378.187L1116.27,372.909L1116.04,370.121L1159.17,363.45L1149.37,355.58C1158.32,355.58 1165.35,355.283 1172.33,355.649C1179.28,356.014 1186.23,357.042 1194.19,356.184L1186.38,350.77C1186.8,350.176 1187.27,349.572 1187.72,348.977L1226.6,348.977L1219.73,342.467C1243.46,344.924 1263.72,333.543 1284.41,320.362C1282.95,319.3 1281.81,318.433 1280.62,317.668C1279.3,316.81 1277.94,316.045 1274.69,314.115L1318.51,301.037L1297.94,293.702C1319.68,285.671 1340.41,282.782 1362.43,284.175L1345.54,271.725C1367.13,269.2 1387.22,271.895 1407.69,279.526L1400.2,266.582L1401,264.552L1442.77,284.804L1437.95,274.02C1444.81,276.543 1451.23,279.297 1457.78,281.183C1465.61,283.444 1473.07,282.611 1480.51,278.065C1519.71,253.93 1561.27,247.955 1604.68,257.252C1618.84,260.268 1633.17,262.233 1647.22,265.682C1674.22,272.285 1696.9,287.89 1714.7,312.594C1717.66,316.708 1720.43,317.702 1724.78,316.844C1742.19,313.555 1751.11,320.762 1754.05,341.141C1755.1,348.543 1754.56,356.311 1754.44,363.952L1753.5,409.428C1753.5,417.296 1756.15,424.003 1761.77,429.245C1782.84,449.098 1785.87,506.395 1760.34,531.433C1758.27,533.489 1757.14,537.509 1756.52,540.857C1752.1,564.594 1740.69,583.979 1724.27,593.813L1727.44,569.378C1727.8,565.555 1728.18,561.245 1727.09,557.787C1725.33,552.246 1713.08,551.15 1709.75,555.993C1690.66,583.716 1678.99,614.694 1679.01,650.812C1679.01,652.333 1679.07,653.896 1679.24,655.393C1679.27,655.885 1679.72,656.32 1680.75,658.01L1701.06,638.659C1702.82,657.815 1697.86,673.086 1687.41,685.869C1683.36,690.815 1680.23,695.123 1679.24,702.5C1678.01,711.297 1671.46,716.54 1664.34,718.198C1642.37,723.246 1620.55,722.549 1599.7,711.959C1589.9,706.979 1583.4,697.487 1578.85,686.658C1563.23,649.75 1547.03,613.028 1537.62,573.127C1533.93,557.524 1530.57,541.393 1536.2,524.362L1525.92,533.056C1525.32,532.589 1524.72,532.095 1524.1,531.595L1541.18,501.756L1520.59,507.96L1544.52,467.991L1535.37,466.631L1538.57,460.622L1528.48,457.962L1528.48,451.52L1523.02,453.645C1522.79,453.186 1522.33,452.72 1522.36,452.285C1522.87,447.773 1523.87,443.923 1521.01,439.011C1519.03,435.586 1520.56,428.915 1521.35,423.841C1523.47,410.592 1526.23,397.512 1530.64,385.028C1531.76,381.909 1534.71,379.452 1537.23,377.327C1545.61,370.121 1550.56,356.94 1563.38,356.481L1557.63,352.359C1585.86,338.948 1612.01,347.983 1636.45,362.982C1639.55,360.96 1642.46,359.701 1644.63,357.441C1646.87,355.088 1648.41,351.833 1650.24,348.943C1660.38,353.957 1665.79,368.362 1664.82,387.688C1682.94,386.319 1685.05,380.847 1678.53,350.668C1689.12,363.05 1693.7,381.348 1709.78,389.115L1698.52,354.951C1699.04,354.289 1699.52,353.591 1700.03,352.895L1721.26,369.824L1735.58,361.759C1721.48,315.313 1670.38,272.193 1629.99,273.381L1646.22,295.3C1581.39,243.043 1520.23,261.33 1458.92,306.382L1479.06,328.062L1477.69,330.255C1475.73,329.261 1473.61,328.495 1471.79,327.229C1463.27,321.221 1455.01,314.786 1446.35,309.111C1440.68,305.387 1434.72,301.903 1428.58,299.643C1408.44,292.206 1393.03,300.441 1385.76,323.481C1375.08,357.339 1377.7,390.144 1394.57,420.748C1398.79,428.421 1403.91,435.458 1408.75,442.657C1413.05,449.031 1415.16,455.175 1408.84,461.582C1407.72,462.747 1407.18,464.634 1405.81,467.192L1415.27,465.534L1416.47,467.031L1404.42,477.118C1405.08,477.918 1405.71,478.75 1406.35,479.541L1424.13,476.72L1402.28,502.35L1427.29,496.376L1409.75,523.631L1411.11,525.093L1427.89,517.155C1428.27,517.623 1428.61,518.081 1428.94,518.55L1417.64,536.642L1440.17,530.863L1440.63,532.257L1418.58,552.441L1455.41,549.525L1456.35,552.543L1435.95,571.801L1438.12,574.419L1474.79,560.345L1463.54,588.993C1464.78,589.69 1465.07,589.929 1465.16,589.861C1482.78,575.421 1498.28,581.362 1513.44,595.937C1535.94,617.549 1551.9,644.736 1564.98,675.075L1547.09,701.235C1546.57,700.936 1546.03,700.674 1545.52,700.375L1547.15,686.396C1536.69,702.696 1525.95,718.401 1509.85,730.52L1513.89,711.993L1477.75,751.665C1477.03,750.934 1476.29,750.237 1475.53,749.541L1482.7,730.249L1447.04,761.387L1445.3,759.593L1452.36,743.43L1423.99,769.553C1421.29,762.747 1417.84,757.274 1417.01,751.3C1413.39,725.701 1410.6,699.976 1407.44,674.277C1407.15,671.922 1406.61,669.628 1404.82,667.138L1400.68,684.475L1398.22,684.773L1390.46,627.501L1385.45,647.489C1378.95,630.262 1377.22,613.563 1375.56,596.03L1370.5,614.659C1363.34,597.594 1361.57,579.798 1360.21,561.143C1354.94,579.135 1358.04,616.155 1369.18,643.903C1379.46,669.534 1391.86,694.001 1404.31,721.053L1396.3,715.078L1407.64,748.546L1406.22,749.473L1392.05,738.348L1390.95,739.18C1392.43,741.636 1393.57,744.458 1395.42,746.455C1406.73,758.599 1417.35,771.951 1429.81,782.303C1450.88,799.834 1472.99,815.668 1494.98,831.636C1499.39,834.856 1505.16,836.412 1510.41,837.05C1529.91,839.404 1549.45,841.265 1568.99,842.786C1575.49,843.322 1582.12,842.922 1588.56,841.928C1613.43,838.18 1630.75,851.455 1644.38,874.129C1646.33,877.418 1649.38,880.172 1652.4,882.16C1674.62,896.608 1688.55,929.073 1684.25,960.343C1676.5,940.622 1665.87,926.48 1650.04,918.517L1642.31,929.633C1649.72,947.99 1653.6,967.249 1649.55,990.114C1642.12,969.706 1633.2,953.141 1618.33,943.282L1602.44,956.394C1606.96,973.287 1609.42,991.417 1605.12,1012.62C1599.5,992.636 1590.81,977.869 1579.56,966.947L1552.21,980.137L1552.21,1017.97L1534.12,985.843C1531.13,980.76 1528.11,979.4 1522.51,983.32C1502.5,997.223 1481.52,997.623 1459.92,987.6C1450.28,983.113 1440.17,979.929 1430.11,976.981C1417.95,973.428 1407.64,966.853 1400.46,954.729C1397.81,950.217 1395.22,948.263 1390.29,948.925C1371.55,951.415 1354.09,946.197 1337.73,935.149C1337.36,935.812 1336.99,936.44 1336.62,937.07ZM1729.8,504.305C1699.64,484.291 1686.04,462.943 1690.97,445.317C1696.25,463.138 1704.3,470.779 1716.78,469.019C1719.66,468.619 1723.73,467.055 1724.78,464.567C1726.04,461.685 1724.59,457.197 1724.3,453.381C1722.31,454.912 1719.55,455.94 1718.49,458.099C1715.55,464.107 1711.2,464.965 1706.38,463.444C1698.92,461.047 1695.68,454.248 1694.42,445.878C1693.31,438.313 1697.69,434.693 1702.45,431.838C1705.93,429.782 1709.61,427.385 1713.33,426.96C1725.01,425.66 1736.78,425.235 1746.67,424.597C1730.05,405.611 1708.38,400.597 1684.16,407.964C1690.77,408.799 1697.53,408.628 1704.13,409.692C1710.63,410.719 1716.96,413.048 1723.34,414.807C1723.28,415.605 1723.16,416.396 1723.07,417.194C1720.37,417.33 1717.58,417.092 1714.93,417.696C1705.5,419.787 1696.01,421.682 1686.78,424.666C1684.19,425.531 1682.43,429.841 1680.2,432.67C1674.22,430.572 1666.96,426.722 1659.41,425.566C1639.81,422.575 1623.2,438.109 1616.42,471.271C1614.59,480.237 1615.65,485.982 1623.77,488.405C1624.03,488.472 1624.09,489.432 1624.4,490.598C1610.13,492.024 1595.89,493.554 1584.43,505.07C1599.1,497.931 1614.11,497.269 1628.86,503.379C1658.58,515.694 1688.99,514.962 1719.57,511.147C1722.79,510.782 1725.7,507.16 1729.8,504.305ZM1646.93,592.044C1648.18,576.05 1651.37,561.842 1643.63,548.03C1634.99,532.657 1625.97,525.356 1613.29,527.183C1628.98,550.188 1630.58,576.015 1624.71,603.271C1624.09,599.217 1624.2,595.138 1624.06,591.016C1623.43,571.801 1620.7,553.01 1610.04,537.705C1593.49,513.899 1591.64,516.756 1578.73,538.137C1578.16,539.098 1577.82,540.297 1577.31,541.521C1586.37,554.634 1590.61,569.838 1591.64,586.308C1592.18,594.841 1592.07,603.433 1592.98,611.897C1593.31,615.05 1595.51,620.2 1597.33,620.532C1603.29,621.527 1603.43,626.106 1603.8,631.019C1604.74,644.005 1607.48,647.786 1618.79,651.475L1631.07,631.121L1633.35,631.622L1635.93,659.243C1651.75,663.22 1659.44,654.127 1654.11,636.467C1650.32,623.889 1649.23,611.736 1653.03,599.055C1654,595.869 1654.11,592.317 1654.83,587.498L1646.93,592.044ZM1602.55,987.336C1601.86,982.754 1601.52,978.237 1600.55,973.957C1595.86,953.039 1588.02,934.35 1571.39,922.928C1568.45,920.94 1562.58,920.277 1560.27,922.367C1552.87,929.073 1555.06,940.791 1563.23,946.036C1570.27,950.582 1577.43,955.494 1583.28,961.798C1590.26,969.3 1595.97,978.464 1602.55,987.336ZM1645.67,965.927C1642.43,942.976 1635.39,922.494 1619.18,907.86C1615.97,904.971 1612.09,902.71 1608.21,901.213C1602.35,899.03 1600.27,904.274 1599.1,909.448C1597.93,914.659 1594.34,921.499 1601.09,924.525C1619.78,932.82 1634.66,946.332 1645.67,965.927ZM1548.51,996.765L1550.42,996.132C1546.78,984.369 1544.38,971.794 1539.08,961.174C1534.83,952.673 1527.31,946.197 1520.56,939.729C1518.74,937.97 1513.53,938.132 1511.58,939.959C1505.32,945.763 1507.77,958.548 1514.84,962.79C1520.81,966.342 1526.86,970.329 1531.84,975.507C1537.97,981.856 1543.01,989.594 1548.51,996.746L1548.51,996.765ZM1678.87,937.001C1674.56,913.562 1664.37,895.137 1645.13,884.787C1640.67,882.364 1636.88,881.667 1634.85,889.036C1631.8,900.025 1632.31,905.337 1638.38,907.164C1654.54,912.109 1668.16,921.432 1678.87,937.001ZM1730.57,508.291L1731.74,511.98L1756.23,522.628C1766.52,510.484 1771.42,492.161 1769.74,471.611C1761.77,473.702 1762.05,465.696 1760.37,459.857C1754.25,465.798 1754.9,467.625 1766.32,476.354C1761.91,491.659 1751.05,497.438 1739.09,502.02C1736.01,503.208 1733.42,506.166 1730.57,508.291ZM1656.84,521.931L1653.69,579.968C1666.87,563.668 1673.33,545.038 1676.08,523.36L1656.84,521.931ZM1573.46,562.572L1570.52,563.668C1572.55,585.178 1576.71,606.16 1584.18,626.208L1591.7,646.954C1593.34,651.636 1594.49,656.948 1600.63,656.285L1598.47,630.058L1593.74,630.322C1591.89,626.608 1590.47,624.186 1589.39,621.56C1587.93,618.076 1585.91,614.557 1585.63,610.868C1585.32,606.824 1586.68,602.608 1587.3,598.521L1582.03,595.3L1584.18,581.854C1578.73,581.089 1575.49,579.169 1576.71,572.03C1577.17,569.242 1574.63,565.759 1573.46,562.572ZM1738.41,531.127C1718.72,541.623 1703.17,532.691 1687.76,523.061L1687.76,546.696C1688.41,547.163 1689.06,547.597 1689.75,548.03L1697.18,534.653L1701.14,546.865L1708.01,540.492C1709.75,550.887 1713.9,544.146 1716.93,542.88L1721.17,548.429L1726.64,544.308L1731.76,554.106L1738.41,531.127ZM1630.81,644.897L1608.7,669.594C1604.88,673.946 1605.31,681.118 1609.71,685.631C1614.54,690.645 1618.93,689.286 1622,683.277C1628.04,671.625 1630.63,658.775 1630.81,644.897ZM1663.82,582.22C1662.71,583.282 1660.83,584.183 1660.63,585.407C1658.22,601.274 1655.59,617.082 1659.21,633.347C1661.04,641.515 1661.46,650.141 1662.68,659.905C1662.39,659.871 1664.25,660.135 1665.96,660.399L1665.96,636.662C1665.36,631.919 1671.8,626.141 1662.29,623.855C1663.22,617.379 1671.6,611.37 1661.37,605.098C1672.74,599.217 1660.58,590.157 1663.82,582.22ZM1743.56,528.075L1730.17,579.568L1732.68,580.597C1742.08,569.14 1747.12,555.135 1750.77,539.957C1752.9,531.033 1750.14,528.246 1743.56,528.075ZM1663.82,672.118C1665.23,673.545 1668.21,675.373 1669.49,678.229C1670.89,681.314 1670.66,685.368 1671.14,688.987C1682.34,686.464 1694.08,669.203 1694.36,656.481L1663.82,672.118ZM989.757,982.243C992.601,971.425 994.854,960.003 990.638,948.653C989.61,945.967 984.542,942.814 982.522,943.673C978.19,945.499 976.191,950.047 978.985,956.12C982.829,964.557 986.11,973.391 989.757,982.243ZM1632.75,675.84L1626.16,691.707C1639.35,691.707 1650.95,692.14 1662.51,691.511C1668.24,691.206 1667.61,686.226 1666.19,681.254C1659.75,686.166 1647.31,685.368 1642.4,680.021L1638.15,684.008L1632.75,675.84ZM1619.53,403.818C1611.32,392.166 1600.87,393.296 1590.18,394.155C1596.53,412.316 1606.56,415.64 1619.53,403.818ZM1746.38,360.526C1747.12,347.481 1748.32,336.263 1740.8,328.198C1737.95,325.138 1731.93,326.005 1727.41,325.104L1727.12,327.799L1746.38,360.526ZM947.079,981.988L948.903,982.754C949.588,972.72 950.755,962.733 950.697,952.707C950.667,949.75 947.393,946.468 945.001,944.175C944.345,943.511 940.443,945.304 939.991,946.8C939.021,950.114 938.394,954.237 939.217,957.48C941.354,965.823 944.403,973.816 947.079,981.988ZM1028.08,978.464C1028.88,978.53 1029.66,978.634 1030.47,978.7C1029.39,968.468 1028.76,958.085 1026.85,948.058C1026.42,945.967 1021.35,945.041 1018.44,943.579C1017.41,947.463 1014.59,952.307 1015.69,954.992C1019,963.262 1023.82,970.698 1028.08,978.464ZM906.656,981.856C910.331,971.964 912.694,961.599 910.645,950.744C910.163,948.161 906.116,946.468 903.695,944.344C902.127,947.956 898.765,952.01 899.305,955.163C900.873,964.065 903.979,972.625 906.656,981.856ZM1062.41,974.052L1064.74,974.024C1063.25,964.821 1062.26,955.427 1059.9,946.528C1059.36,944.472 1053.17,942.151 1051.26,943.409C1047.53,945.934 1046.25,950.378 1050.3,955.46C1054.8,961.137 1058.42,967.807 1062.41,974.052ZM1736.67,522.398L1699.06,522.398C1712.31,533.557 1728.85,533.455 1736.67,522.398ZM1658.28,663.823L1634.2,668.735C1637.02,677.336 1645.54,680.524 1660.29,677.896L1658.28,663.823ZM1606.39,891.253C1600.04,868.682 1588.56,860.616 1563.83,860.718C1580.98,865.265 1596.65,872.565 1606.39,891.253ZM1561.98,909.585C1556.2,888.533 1545.17,880.8 1519.54,880.937C1536.46,884.854 1551.81,891.789 1561.98,909.585ZM1459.68,910.512C1478.97,912.168 1496.49,911.872 1509.4,928.503C1502.47,910.316 1488.03,904.902 1459.68,910.512ZM1488.41,600.279C1489.01,600.518 1489.59,600.714 1490.19,600.977L1502.44,592.377L1493.15,583.249L1488.41,600.279ZM1850.16,893.047L1855.69,863.939L1838.11,868.647C1838.99,885.679 1839.47,902.242 1826.71,914.098C1818.97,921.271 1809.48,923.395 1799.86,920.437L1814.1,899.09C1802.13,893.48 1792.13,887.37 1781.47,884.285C1772.62,881.76 1762.85,881.234 1753.73,882.525C1729.03,886.078 1707.57,880.604 1690.14,858.356C1687.52,854.973 1682.46,853.877 1678.33,852.517L1597.56,826.189C1591.18,823.996 1585.38,819.687 1577.59,815.405L1585.09,828.05C1569.98,825.364 1557.45,818.157 1545.37,807.398L1549.33,818.318C1541.36,817.13 1538.99,814.672 1520.78,788.277L1520.14,799.138L1493.21,755.116L1533.1,721.35L1532.5,727.198C1533.04,727.723 1533.61,728.294 1534.12,728.821L1570.07,690.747C1580.79,715.639 1599.05,729.551 1623.58,731.812C1646.65,733.902 1669.58,735.263 1684.59,708.237C1687.98,711.959 1691.48,715.546 1694.74,719.396C1699.66,725.268 1704.45,728.718 1712.45,726.763C1717.07,725.633 1723.76,728.455 1727.64,732.143C1734.84,739.011 1742.08,738.45 1749.71,735.593C1756.89,732.908 1763.84,729.254 1770.85,725.931C1775.18,723.875 1779.4,721.317 1783.81,719.463C1804.75,710.599 1818.28,719.294 1823.27,744.993C1826.68,745.75 1830.28,746.413 1833.81,747.45C1846.88,751.3 1854.32,761.022 1856.62,776.59C1857.1,779.744 1858.77,783.296 1860.81,785.454C1872.64,797.94 1875.71,813.543 1870.07,831.041C1869.14,834.024 1870.16,838.503 1871.41,841.664C1880.47,864.33 1870.44,888.635 1850.16,893.047ZM1837.89,808.664C1849.61,797.709 1853.29,782.931 1846.82,772.113C1844.58,768.389 1839.96,764.608 1836.42,764.608C1833.18,764.608 1829.94,769.655 1825.32,773.677C1839.96,781.604 1840.59,793.86 1837.89,808.664ZM1850.3,844.946C1862.72,837.016 1868.73,824.302 1865.12,813.372C1863.63,808.894 1860.7,803.421 1857.34,801.992C1854.89,800.93 1850.59,805.775 1846.09,808.631C1857.06,819.849 1854.83,831.704 1850.3,844.946ZM1795.43,739.147C1805.35,752.124 1801.73,763.579 1798.91,776.523C1807.74,767.795 1814.72,759.729 1814.07,747.246C1813.81,742.801 1811.19,736.689 1808.13,734.897C1805.58,733.401 1800.79,737.157 1795.43,739.147ZM1813.35,915.755C1815.38,914.497 1818.91,912.737 1822.01,910.249C1828.68,904.971 1832.38,897.696 1831.89,887.974C1831.62,882.458 1828.9,880.733 1824.58,881.234C1820.68,881.667 1819.25,883.223 1818.77,888.5C1817.88,897.696 1815.23,906.696 1813.35,915.755ZM1860.39,880.868C1870.9,872.2 1872.76,856.631 1863.2,842.455L1855.46,848.736L1860.39,880.868ZM1727.27,778.681L1729.6,778.384C1726.78,768.925 1724.45,759.161 1720.88,750.067C1719.23,745.886 1714.73,743.565 1711.2,748.41C1708.52,752.09 1706.47,756.645 1710.83,761.158L1727.27,778.681ZM885.66,783.96L891.129,783.169C891.246,783.135 891.413,783.501 891.698,783.831C887.454,809.09 886.885,834.526 890.619,860.081C891.02,862.808 890.735,866.328 889.561,868.58C878.287,889.63 862.899,905.2 842.99,914.36C842.363,914.659 841.538,914.395 840.627,914.395L853.754,881.931L852.135,880.604C838.257,903.738 819.201,916.418 794.472,920.472L806.096,901.817C790.774,916.418 773.534,922.664 753.114,923.488L773.024,905.6C746.989,908.386 720.976,909.448 700.096,930.169C684.227,883.885 708.702,790.903 744.677,756.338L725.278,764.574C746.558,732.407 773.308,718.528 807.292,720.891L797.834,709.206C841.137,727.095 877.484,716.311 906.342,675.51L885.66,783.96ZM1088.32,683.31L1097.19,701.133L1112.09,677.098C1112.54,677.235 1112.96,677.396 1113.42,677.532L1110.15,699.645L1111.71,701.404L1142,667.468C1141.19,671.719 1140.52,676.138 1139.46,680.489C1138.35,685.035 1136.9,689.48 1135.56,694.001L1137.5,695.557L1157.34,668.234L1158.15,682.911C1158.6,683.107 1159.08,683.277 1159.55,683.438L1166.5,665.982C1164.64,697.546 1160.2,728.787 1163.56,760.894L1168.2,757.8C1166.98,792.593 1171.11,825.525 1182.9,857.862C1153.2,865.86 1123.77,865.826 1092.77,858.721C1117.55,799.138 1103.77,741.373 1088.32,683.31ZM1443.91,433.062L1429.38,426.688L1432.62,437.48C1419.5,427.955 1409.83,417.56 1403.16,403.92C1392,381.008 1388.55,356.412 1393.34,330.586C1396.53,313.258 1406.75,306.849 1420.85,313.852C1427.2,317.006 1433.02,322.087 1438.49,327.16C1443.56,331.913 1447.6,338.125 1452.48,343.163C1457.26,348.144 1462.53,352.462 1468.01,357.441L1458.32,357.441L1462.59,365.507L1454.11,363.484L1459.57,384.765L1439.18,380.345L1451.11,402.824L1437.41,397.546L1447.6,414.475L1436.33,411.153L1443.91,433.062Z" style="fill-rule:nonzero;"/>
    </g>
</svg>
