<?xml version="1.0" encoding="utf-8"?>
<svg xmlns="http://www.w3.org/2000/svg" viewBox="681.4923 49.4317 161.7488 90.0018" width="150pt" height="150pt">
  <path fill="#000000" d="M 769.449 129.914 C 770.23 130.641 771.008 131.363 771.945 132.238 C 769.156 131.941 766.918 130.832 764.707 129.367 C 765.453 130.254 766.199 131.141 767.023 132.121 C 764.078 131.605 761.859 130.102 759.898 127.922 C 760.121 128.555 760.309 129.203 760.574 129.816 C 760.844 130.438 761.191 131.023 761.648 131.91 C 758.797 130.305 757.281 127.965 755.914 125.406 C 756.152 126.566 756.391 127.727 756.625 128.887 C 754.227 127.43 752.527 124.02 751.254 118.492 C 751.164 119.262 751.043 120.023 751 120.797 C 750.957 121.566 750.992 122.344 750.891 123.129 C 748.867 119.836 748.758 116.246 749.047 112.5 C 748.707 113.176 748.371 113.855 747.961 114.684 C 747.145 110.848 747.656 107.23 748.41 103.551 C 748.164 103.937 747.902 104.32 747.664 104.711 C 747.406 105.129 747.164 105.559 746.914 105.984 C 746.816 105.961 746.715 105.941 746.617 105.918 C 746.813 104.574 746.918 103.207 747.234 101.891 C 747.559 100.547 748.094 99.254 748.445 97.848 C 748.031 98.379 747.617 98.914 747.039 99.66 C 747.344 96.25 748.16 93.27 749.324 90.301 C 748.91 90.734 748.5 91.172 748.086 91.605 C 748 91.578 747.918 91.555 747.832 91.531 C 748.102 90.551 748.305 89.547 748.652 88.594 C 749.004 87.629 749.492 86.715 749.848 85.695 C 749.527 86.137 749.211 86.582 748.891 87.023 C 748.766 86.926 748.645 86.828 748.523 86.727 C 748.988 84.832 750.047 83.227 751.125 81.59 C 749.316 82.457 747.93 83.836 746.535 85.594 C 746.535 84.563 746.535 83.809 746.535 82.719 C 745.461 83.844 744.59 84.758 743.664 85.723 C 743.664 85.309 743.664 84.918 743.664 84.539 C 742.313 85.777 740.969 87.004 739.523 88.328 C 739.586 87.781 739.641 87.301 739.695 86.813 C 738.539 87.852 737.406 88.871 736.227 89.93 C 736.352 89.105 736.48 88.25 736.648 87.117 C 735.289 88.195 734.105 89.137 732.637 90.305 C 732.875 88.734 733.07 87.461 733.293 86.02 C 732.379 86.621 731.563 87.16 730.504 87.863 C 730.828 86.484 731.094 85.344 731.41 83.988 C 730.395 84.668 729.547 85.23 728.703 85.797 C 728.637 85.75 728.566 85.707 728.5 85.66 C 729.145 84.172 729.789 82.68 730.496 81.039 C 729.742 81.273 729.086 81.484 728.117 81.789 C 728.992 80.641 729.672 79.746 730.48 78.684 C 729.809 78.902 729.293 79.07 728.453 79.344 C 729.355 78.129 730.078 77.156 730.914 76.035 C 730.258 76.219 729.77 76.359 729.277 76.492 C 729.223 76.422 729.168 76.348 729.109 76.273 C 730.035 75.453 730.957 74.629 731.883 73.809 C 731.828 73.734 731.777 73.66 731.723 73.59 C 731.422 73.613 731.117 73.641 730.816 73.672 C 730.758 73.602 730.695 73.531 730.633 73.465 C 731.441 72.813 732.246 72.164 733.051 71.516 C 728.578 73.07 717.18 88.691 714.965 95.969 C 715.418 95.602 715.781 95.301 716.348 94.844 C 715.5 96.457 714.766 97.856 714.031 99.25 C 714.066 99.266 714.105 99.281 714.141 99.297 C 715.828 97.746 717.516 96.199 719.199 94.648 C 719.281 94.715 719.367 94.777 719.449 94.844 C 719.031 95.68 718.617 96.516 718.203 97.348 C 718.25 97.406 718.301 97.465 718.352 97.52 C 719.93 96.523 721.512 95.531 723.09 94.535 C 723.145 94.563 723.195 94.59 723.25 94.617 C 722.816 95.414 722.383 96.207 721.949 97.004 C 722 97.094 722.055 97.18 722.105 97.27 C 723.41 96.473 724.711 95.672 726.117 94.809 C 726 95.891 725.883 96.996 725.723 98.469 C 726.809 97.559 727.668 96.844 728.477 96.168 C 729.188 97.336 729.938 98.57 730.688 99.809 C 730.813 99.766 730.938 99.727 731.063 99.688 C 730.707 96.875 730.348 94.066 729.988 91.258 C 730.055 91.246 730.121 91.234 730.188 91.223 C 732.188 96.961 734.313 102.664 736.125 108.461 C 736.781 110.57 736.676 112.918 736.918 115.152 C 736.805 115.184 736.695 115.219 736.586 115.25 C 736.395 115.012 736.203 114.777 736.031 114.57 C 735.887 116.203 735.746 117.832 735.602 119.465 C 735.477 119.465 735.356 119.469 735.234 119.469 C 735.133 119.231 735.027 118.996 734.902 118.707 C 733.5 122.609 732.641 123.742 728.965 126.543 C 730.738 127.547 732.383 128.766 732.578 130.906 C 732.738 132.664 733.09 134.574 731.703 136.191 C 731.426 135.375 731.172 134.621 730.949 133.973 C 728.684 133.609 727.457 134.633 727.078 136.688 C 726.836 136.598 726.73 136.59 726.719 136.555 C 726.508 135.844 726.457 134.633 726.074 134.516 C 725.172 134.234 724.102 134.449 723.106 134.539 C 722.918 134.559 722.727 134.906 722.602 135.137 C 722.281 135.723 721.996 136.324 721.563 137.195 C 721.32 136.172 721.152 135.469 721.004 134.84 C 719.777 134.84 718.637 134.809 717.5 134.867 C 717.227 134.879 716.898 135.149 716.719 135.391 C 716.367 135.863 716.106 136.399 715.738 137.031 C 715.117 134.957 715.098 135.137 713.125 134.906 C 711.516 134.723 710.797 135.52 710.246 136.719 C 710.07 136.641 709.957 136.609 709.957 136.59 C 710.031 135.231 709.391 134.758 708.047 134.621 C 706.563 134.473 706.02 133.332 706.414 131.695 C 706.906 129.656 708.008 128.004 709.789 126.883 C 710.352 126.527 710.453 126.219 710.289 125.586 C 709.531 122.649 709.254 119.672 709.742 116.613 C 709.535 116.867 709.332 117.117 708.996 117.531 C 708.902 114.16 709.66 111.18 710.863 108.281 C 710.77 108.219 710.672 108.156 710.578 108.094 C 710.356 108.449 710.137 108.805 709.914 109.164 C 712.195 92.234 720.914 79.199 733.758 68.539 C 733.566 68.512 733.297 68.477 733.027 68.438 C 733 68.363 732.973 68.293 732.945 68.219 C 734.434 67.598 735.922 66.981 737.586 66.285 C 736.93 66.156 736.414 66.055 735.895 65.953 C 735.867 65.879 735.84 65.805 735.813 65.731 C 737.422 65.215 739.027 64.699 740.727 64.152 C 740.203 63.934 739.719 63.731 739.234 63.531 C 739.223 63.422 739.211 63.313 739.203 63.203 C 741.145 62.949 743.086 62.688 745.117 62.418 C 744.766 62.176 744.41 61.93 743.773 61.492 C 745 61.492 745.965 61.457 746.922 61.5 C 747.875 61.543 748.828 61.664 749.918 61.563 C 749.559 61.352 749.203 61.137 748.848 60.926 C 748.906 60.856 748.969 60.785 749.031 60.715 C 750.762 60.715 752.492 60.715 754.363 60.715 C 754.023 60.441 753.727 60.195 753.422 59.949 C 756.676 60.238 759.453 58.899 762.289 57.348 C 762.09 57.223 761.934 57.121 761.77 57.031 C 761.59 56.93 761.402 56.84 760.957 56.613 C 763.035 56.082 764.879 55.609 766.965 55.074 C 765.973 54.77 765.164 54.524 764.145 54.211 C 767.125 53.266 769.969 52.926 772.988 53.09 C 772.258 52.629 771.531 52.168 770.672 51.625 C 773.633 51.328 776.387 51.645 779.195 52.543 C 778.852 52.035 778.512 51.527 778.168 51.02 C 778.203 50.942 778.242 50.859 778.277 50.781 C 780.168 51.57 782.063 52.356 784.004 53.164 C 783.809 52.785 783.594 52.379 783.344 51.895 C 784.285 52.192 785.164 52.516 786.063 52.738 C 787.137 53.004 788.16 52.906 789.18 52.371 C 794.555 49.531 800.254 48.828 806.207 49.922 C 808.148 50.277 810.113 50.508 812.039 50.914 C 815.742 51.691 818.852 53.527 821.293 56.434 C 821.699 56.918 822.078 57.035 822.676 56.934 C 825.063 56.547 826.285 57.395 826.688 59.793 C 826.832 60.664 826.758 61.578 826.742 62.477 C 826.707 64.262 826.617 66.043 826.613 67.828 C 826.613 68.754 826.977 69.543 827.746 70.16 C 830.637 72.496 831.051 79.238 827.551 82.184 C 827.266 82.426 827.113 82.899 827.027 83.293 C 826.422 86.086 824.856 88.367 822.606 89.524 C 822.762 88.5 822.93 87.578 823.039 86.649 C 823.09 86.199 823.141 85.692 822.992 85.285 C 822.75 84.633 821.07 84.504 820.613 85.074 C 817.996 88.336 816.395 91.981 816.398 96.231 C 816.398 96.41 816.406 96.594 816.43 96.77 C 816.434 96.828 816.496 96.879 816.637 97.078 C 817.52 96.359 818.387 95.649 819.422 94.801 C 819.664 97.055 818.984 98.852 817.551 100.356 C 816.996 100.938 816.566 101.445 816.43 102.313 C 816.262 103.348 815.363 103.965 814.387 104.16 C 811.375 104.754 808.383 104.672 805.523 103.426 C 804.18 102.84 803.289 101.723 802.664 100.449 C 800.523 96.106 798.301 91.785 797.012 87.09 C 796.504 85.254 796.043 83.356 796.816 81.352 C 796.348 81.692 795.879 82.035 795.406 82.375 C 795.324 82.32 795.242 82.262 795.156 82.203 C 795.906 81.078 796.66 79.957 797.5 78.692 C 796.641 78.914 795.824 79.121 794.676 79.422 C 795.856 77.731 796.875 76.266 797.957 74.719 C 797.527 74.664 797.16 74.617 796.703 74.559 C 796.84 74.336 796.961 74.145 797.141 73.852 C 796.676 73.746 796.242 73.649 795.758 73.539 C 795.758 73.336 795.758 73.102 795.758 72.781 C 795.496 72.867 795.258 72.949 795.008 73.031 C 794.977 72.977 794.914 72.922 794.918 72.871 C 794.988 72.34 795.125 71.887 794.734 71.309 C 794.461 70.906 794.672 70.121 794.781 69.524 C 795.07 67.965 795.449 66.426 796.055 64.957 C 796.207 64.59 796.613 64.301 796.957 64.051 C 798.106 63.203 798.785 61.652 800.543 61.598 C 800.254 61.422 799.965 61.242 799.754 61.113 C 803.625 59.535 807.211 60.598 810.563 62.363 C 810.988 62.125 811.387 61.977 811.684 61.711 C 811.992 61.434 812.203 61.051 812.453 60.711 C 813.844 61.301 814.586 62.996 814.453 65.27 C 816.938 65.109 817.227 64.465 816.332 60.914 C 817.785 62.371 818.414 64.524 820.617 65.438 C 820.059 63.988 819.566 62.703 819.074 61.418 C 819.145 61.34 819.211 61.258 819.281 61.176 C 820.246 61.836 821.215 62.5 822.191 63.168 C 822.824 62.867 823.488 62.543 824.156 62.219 C 822.223 56.754 815.215 51.68 809.676 51.82 C 810.445 52.711 811.172 53.555 811.902 54.399 C 803.012 48.25 794.625 50.402 786.219 55.703 C 787.215 56.625 788.098 57.438 788.981 58.254 C 788.918 58.34 788.856 58.426 788.793 58.512 C 788.524 58.395 788.234 58.305 787.984 58.156 C 786.816 57.449 785.684 56.692 784.496 56.024 C 783.719 55.586 782.902 55.176 782.059 54.91 C 779.297 54.035 777.184 55.004 776.188 57.715 C 774.723 61.699 775.082 65.559 777.395 69.16 C 777.973 70.063 778.676 70.891 779.34 71.738 C 779.93 72.488 780.219 73.211 779.352 73.965 C 779.199 74.102 779.125 74.324 778.938 74.625 C 779.445 74.547 779.84 74.488 780.234 74.43 C 780.289 74.488 780.344 74.547 780.399 74.606 C 779.848 75 779.301 75.395 778.746 75.793 C 778.836 75.887 778.922 75.985 779.012 76.078 C 779.754 75.977 780.5 75.875 781.449 75.746 C 780.406 76.797 779.539 77.668 778.453 78.762 C 779.777 78.492 780.774 78.289 781.883 78.059 C 781.02 79.211 780.246 80.238 779.477 81.266 C 779.539 81.324 779.602 81.379 779.664 81.438 C 780.43 81.125 781.199 80.817 781.965 80.504 C 782.016 80.559 782.063 80.613 782.109 80.668 C 781.629 81.328 781.145 81.992 780.559 82.797 C 781.699 82.547 782.676 82.332 783.649 82.117 C 783.668 82.172 783.691 82.227 783.711 82.281 C 782.731 83.047 781.754 83.817 780.688 84.656 C 782.504 84.535 784.121 84.426 785.738 84.313 C 785.781 84.434 785.824 84.551 785.867 84.668 C 784.934 85.422 784.004 86.18 783.07 86.934 C 783.172 87.039 783.27 87.141 783.367 87.242 C 784.953 86.719 786.543 86.195 788.395 85.586 C 787.777 86.938 787.313 87.949 786.852 88.957 C 787.024 89.039 787.063 89.067 787.074 89.059 C 789.492 87.36 791.617 88.059 793.695 89.774 C 796.781 92.317 798.969 95.516 800.762 99.086 C 799.938 100.121 799.121 101.145 798.309 102.164 C 798.238 102.129 798.164 102.098 798.094 102.063 C 798.168 101.516 798.242 100.965 798.317 100.418 C 796.883 102.336 795.41 104.184 793.203 105.61 C 793.434 104.703 793.621 103.977 793.758 103.43 C 792.16 104.938 790.481 106.516 788.801 108.098 C 788.703 108.012 788.602 107.93 788.496 107.848 C 788.824 107.086 789.152 106.328 789.481 105.578 C 787.844 106.805 786.219 108.024 784.59 109.242 C 784.512 109.172 784.43 109.102 784.352 109.031 C 784.641 108.465 784.93 107.899 785.32 107.129 C 783.973 108.192 782.828 109.098 781.43 110.203 C 781.059 109.402 780.586 108.758 780.473 108.055 C 779.977 105.043 779.594 102.016 779.16 98.992 C 779.121 98.715 779.047 98.445 778.801 98.152 C 778.613 98.832 778.422 99.512 778.234 100.192 C 778.121 100.203 778.008 100.215 777.895 100.227 C 777.547 98.027 777.199 95.828 776.832 93.488 C 776.606 94.254 776.406 94.942 776.145 95.84 C 775.254 93.813 775.016 91.848 774.789 89.785 C 774.57 90.473 774.352 91.156 774.094 91.977 C 773.113 89.969 772.871 87.875 772.684 85.68 C 771.961 87.797 772.387 92.153 773.914 95.418 C 775.324 98.434 777.024 101.313 778.731 104.496 C 778.258 104.192 777.992 104.024 777.633 103.793 C 778.172 105.16 778.68 106.445 779.188 107.731 C 779.121 107.77 779.059 107.805 778.992 107.84 C 778.344 107.403 777.699 106.969 777.051 106.531 C 777 106.563 776.949 106.598 776.899 106.629 C 777.102 106.918 777.258 107.25 777.512 107.485 C 779.063 108.914 780.52 110.485 782.227 111.703 C 785.117 113.766 788.149 115.629 791.164 117.508 C 791.77 117.887 792.559 118.07 793.281 118.145 C 795.953 118.422 798.633 118.641 801.313 118.82 C 802.203 118.883 803.113 118.836 803.996 118.719 C 807.406 118.278 809.781 119.84 811.649 122.508 C 811.918 122.895 812.336 123.219 812.75 123.453 C 815.797 125.153 817.707 128.973 817.117 132.653 C 816.055 130.332 814.598 128.668 812.426 127.731 C 812.067 128.176 811.731 128.586 811.367 129.039 C 812.383 131.199 812.914 133.465 812.359 136.156 C 811.34 133.754 810.117 131.805 808.078 130.645 C 807.336 131.168 806.672 131.641 805.899 132.188 C 806.52 134.176 806.856 136.309 806.266 138.805 C 805.496 136.453 804.305 134.715 802.762 133.43 C 801.488 133.957 800.32 134.442 799.012 134.981 C 799.012 136.285 799.012 137.817 799.012 139.434 C 798.117 138.063 797.344 136.844 796.531 135.653 C 796.121 135.055 795.707 134.895 794.938 135.356 C 792.195 136.992 789.317 137.039 786.356 135.86 C 785.035 135.332 783.649 134.957 782.27 134.61 C 780.602 134.192 779.188 133.418 778.203 131.992 C 777.84 131.461 777.484 131.231 776.809 131.309 C 774.238 131.602 771.844 130.988 769.602 129.688 C 769.551 129.766 769.5 129.84 769.449 129.914 Z M 823.363 78.992 C 819.227 76.637 817.363 74.125 818.039 72.051 C 818.762 74.148 819.867 75.047 821.578 74.84 C 821.973 74.793 822.531 74.609 822.676 74.316 C 822.848 73.977 822.648 73.449 822.609 73 C 822.336 73.18 821.957 73.301 821.813 73.555 C 821.41 74.262 820.813 74.363 820.152 74.184 C 819.129 73.902 818.684 73.102 818.512 72.117 C 818.359 71.227 818.961 70.801 819.613 70.465 C 820.09 70.223 820.594 69.941 821.105 69.891 C 822.707 69.738 824.32 69.688 825.676 69.613 C 823.398 67.379 820.426 66.789 817.105 67.656 C 818.012 67.754 818.938 67.734 819.844 67.859 C 820.734 67.98 821.602 68.254 822.477 68.461 C 822.469 68.555 822.453 68.648 822.441 68.742 C 822.07 68.758 821.687 68.73 821.324 68.801 C 820.031 69.047 818.73 69.27 817.465 69.621 C 817.109 69.723 816.867 70.23 816.562 70.563 C 815.742 70.316 814.746 69.863 813.711 69.727 C 811.023 69.375 808.746 71.203 807.816 75.105 C 807.566 76.16 807.711 76.836 808.824 77.121 C 808.859 77.129 808.867 77.242 808.91 77.379 C 806.953 77.547 805 77.727 803.43 79.082 C 805.441 78.242 807.5 78.164 809.523 78.883 C 813.598 80.332 817.766 80.246 821.961 79.797 C 822.402 79.754 822.801 79.328 823.363 78.992 Z M 812 89.316 C 812.172 87.434 812.609 85.762 811.547 84.137 C 810.363 82.328 809.125 81.469 807.387 81.684 C 809.539 84.391 809.758 87.43 808.953 90.637 C 808.867 90.16 808.883 89.68 808.863 89.195 C 808.777 86.934 808.402 84.723 806.941 82.922 C 804.672 80.121 804.418 80.457 802.648 82.973 C 802.57 83.086 802.523 83.227 802.453 83.371 C 803.695 84.914 804.277 86.703 804.418 88.641 C 804.492 89.645 804.477 90.656 804.602 91.652 C 804.648 92.023 804.949 92.629 805.199 92.668 C 806.016 92.785 806.035 93.324 806.086 93.902 C 806.215 95.43 806.59 95.875 808.141 96.309 C 808.699 95.516 809.262 94.715 809.824 93.914 C 809.93 93.934 810.031 93.953 810.137 93.973 C 810.254 95.055 810.375 96.137 810.492 97.223 C 812.66 97.691 813.715 96.621 812.984 94.543 C 812.465 93.063 812.316 91.633 812.836 90.141 C 812.969 89.766 812.984 89.348 813.082 88.781 C 812.645 88.992 812.402 89.113 812 89.316 Z M 805.914 135.828 C 805.82 135.289 805.773 134.758 805.641 134.254 C 804.996 131.793 803.922 129.594 801.641 128.25 C 801.238 128.016 800.434 127.938 800.117 128.184 C 799.102 128.973 799.402 130.352 800.523 130.969 C 801.488 131.504 802.469 132.082 803.273 132.824 C 804.23 133.707 805.012 134.785 805.914 135.828 Z M 811.828 133.309 C 811.383 130.609 810.418 128.199 808.195 126.477 C 807.754 126.137 807.223 125.871 806.691 125.695 C 805.887 125.438 805.602 126.055 805.441 126.664 C 805.281 127.277 804.789 128.082 805.715 128.438 C 808.277 129.414 810.316 131.004 811.828 133.309 Z M 798.504 136.938 C 798.594 136.914 798.68 136.887 798.766 136.863 C 798.266 135.48 797.938 134 797.211 132.75 C 796.629 131.75 795.598 130.988 794.672 130.227 C 794.422 130.02 793.707 130.039 793.441 130.254 C 792.582 130.937 792.918 132.441 793.887 132.941 C 794.707 133.359 795.535 133.828 796.219 134.437 C 797.059 135.184 797.75 136.094 798.504 136.937 Z M 816.379 129.906 C 815.789 127.148 814.391 124.98 811.754 123.762 C 811.141 123.477 810.621 123.395 810.344 124.262 C 809.926 125.555 809.996 126.18 810.828 126.395 C 813.043 126.977 814.91 128.074 816.379 129.906 Z M 823.469 79.461 C 823.523 79.605 823.578 79.75 823.629 79.895 C 824.758 80.316 825.887 80.738 826.988 81.148 C 828.398 79.719 829.07 77.563 828.84 75.145 C 827.746 75.391 827.785 74.449 827.555 73.762 C 826.715 74.461 826.805 74.676 828.371 75.703 C 827.766 77.504 826.277 78.184 824.637 78.723 C 824.215 78.863 823.859 79.211 823.469 79.461 Z M 813.359 81.066 C 813.211 83.375 813.074 85.543 812.926 87.895 C 814.734 85.977 815.621 83.785 815.996 81.234 C 815.016 81.172 814.172 81.117 813.359 81.066 Z M 801.926 85.848 C 801.793 85.891 801.656 85.93 801.523 85.977 C 801.801 88.508 802.371 90.977 803.395 93.336 C 803.746 94.148 804.082 94.965 804.426 95.777 C 804.652 96.328 804.809 96.953 805.652 96.875 C 805.551 95.836 805.453 94.828 805.355 93.789 C 805.086 93.801 804.785 93.816 804.707 93.82 C 804.453 93.383 804.258 93.098 804.109 92.789 C 803.91 92.379 803.633 91.965 803.594 91.531 C 803.551 91.055 803.738 90.559 803.824 90.078 C 803.547 89.934 803.305 89.809 803.102 89.699 C 803.203 89.156 803.289 88.68 803.395 88.117 C 802.648 88.027 802.203 87.801 802.371 86.961 C 802.434 86.633 802.086 86.223 801.926 85.848 Z M 824.543 82.148 C 821.844 83.383 819.711 82.332 817.598 81.199 C 817.598 82.242 817.598 83.113 817.598 83.98 C 817.688 84.035 817.777 84.086 817.871 84.137 C 818.172 83.668 818.477 83.199 818.891 82.563 C 819.148 83.246 819.277 83.586 819.434 84 C 819.781 83.723 820.047 83.512 820.375 83.25 C 820.613 84.473 821.184 83.68 821.598 83.531 C 821.82 83.777 822 83.977 822.18 84.184 C 822.469 83.996 822.699 83.848 822.93 83.699 C 823.133 84.035 823.309 84.316 823.633 84.852 C 823.969 83.855 824.219 83.105 824.543 82.148 Z M 809.789 95.535 C 808.734 96.547 807.742 97.492 806.758 98.441 C 806.234 98.953 806.293 99.797 806.895 100.328 C 807.559 100.918 808.16 100.758 808.582 100.051 C 809.41 98.68 809.766 97.168 809.789 95.535 Z M 814.316 88.16 C 814.164 88.285 813.906 88.391 813.879 88.535 C 813.547 90.402 813.188 92.262 813.684 94.176 C 813.934 95.137 813.992 96.152 814.16 97.301 C 814.121 97.297 814.375 97.328 814.609 97.359 C 814.609 96.359 814.609 95.461 814.609 94.566 C 814.527 94.008 815.41 93.328 814.105 93.059 C 814.234 92.297 815.383 91.59 813.98 90.852 C 815.539 90.16 813.871 89.094 814.316 88.16 Z M 825.25 81.789 C 824.629 83.832 824.023 85.84 823.414 87.848 C 823.527 87.887 823.645 87.93 823.758 87.969 C 825.047 86.621 825.738 84.973 826.238 83.187 C 826.531 82.137 826.152 81.809 825.25 81.789 Z M 814.316 98.738 C 814.508 98.906 814.918 99.121 815.094 99.457 C 815.285 99.82 815.254 100.297 815.32 100.723 C 816.855 100.426 818.465 98.395 818.504 96.898 C 817.203 97.469 815.82 98.078 814.316 98.738 Z M 721.887 135.23 C 722.277 133.957 722.586 132.613 722.008 131.277 C 721.867 130.961 721.172 130.59 720.895 130.691 C 720.301 130.906 720.027 131.441 720.41 132.156 C 720.937 133.148 721.387 134.188 721.887 135.23 Z M 810.055 99.176 C 809.766 99.773 809.512 100.297 809.152 101.043 C 810.961 101.043 812.551 101.094 814.137 101.02 C 814.922 100.984 814.836 100.398 814.641 99.813 C 813.758 100.391 812.051 100.297 811.379 99.668 C 811.191 99.82 811.004 99.969 810.797 100.137 C 810.543 99.809 810.328 99.531 810.055 99.176 Z M 808.242 67.168 C 807.117 65.797 805.684 65.93 804.219 66.031 C 805.09 68.168 806.465 68.559 808.242 67.168 Z M 825.637 62.074 C 825.738 60.539 825.902 59.219 824.871 58.27 C 824.48 57.91 823.656 58.012 823.035 57.906 C 823.02 58.012 823.008 58.117 822.996 58.223 C 823.82 59.426 824.645 60.625 825.637 62.074 Z M 716.035 135.199 C 716.117 135.23 716.203 135.258 716.285 135.289 C 716.379 134.109 716.539 132.934 716.531 131.754 C 716.527 131.406 716.078 131.02 715.75 130.75 C 715.66 130.672 715.125 130.883 715.063 131.059 C 714.93 131.449 714.844 131.934 714.957 132.316 C 715.25 133.297 715.668 134.238 716.035 135.199 Z M 727.141 134.785 C 727.25 134.793 727.359 134.805 727.469 134.813 C 727.32 133.609 727.234 132.387 726.973 131.207 C 726.914 130.961 726.219 130.852 725.82 130.68 C 725.68 131.137 725.293 131.707 725.445 132.023 C 725.898 132.996 726.559 133.871 727.141 134.785 Z M 710.492 135.184 C 710.996 134.02 711.32 132.801 711.039 131.523 C 710.973 131.219 710.418 131.02 710.086 130.77 C 709.871 131.195 709.41 131.672 709.484 132.043 C 709.699 133.09 710.125 134.098 710.492 135.184 Z M 731.848 134.266 C 731.953 134.266 732.063 134.262 732.168 134.262 C 731.965 133.18 731.828 132.074 731.504 131.027 C 731.43 130.785 730.582 130.512 730.32 130.66 C 729.809 130.957 729.633 131.48 730.188 132.078 C 730.805 132.746 731.301 133.531 731.848 134.266 Z M 824.305 81.121 C 822.477 81.121 820.813 81.121 819.148 81.121 C 820.965 82.434 823.234 82.422 824.305 81.121 Z M 813.555 97.762 C 812.418 97.961 811.332 98.148 810.254 98.34 C 810.641 99.352 811.809 99.727 813.832 99.418 C 813.734 98.832 813.637 98.25 813.555 97.762 Z M 806.441 124.523 C 805.57 121.867 803.996 120.918 800.605 120.93 C 802.957 121.465 805.105 122.324 806.441 124.523 Z M 800.352 126.68 C 799.559 124.203 798.047 123.293 794.531 123.309 C 796.852 123.77 798.957 124.586 800.352 126.68 Z M 786.324 126.789 C 788.969 126.984 791.371 126.949 793.141 128.906 C 792.191 126.766 790.211 126.129 786.324 126.789 Z M 790.262 90.285 C 790.344 90.313 790.426 90.336 790.508 90.367 C 791.035 90.047 791.566 89.727 792.188 89.355 C 791.762 89 791.402 88.695 790.914 88.281 C 790.66 89.055 790.461 89.672 790.262 90.285 Z M 839.867 124.734 C 840.105 123.652 840.336 122.609 840.625 121.309 C 839.582 121.547 838.91 121.707 838.215 121.863 C 838.336 123.867 838.402 125.816 836.652 127.211 C 835.59 128.055 834.289 128.305 832.969 127.957 C 833.637 127.098 834.324 126.219 834.922 125.445 C 833.281 124.785 831.91 124.066 830.449 123.703 C 829.234 123.406 827.895 123.344 826.645 123.496 C 823.258 123.914 820.316 123.27 817.926 120.652 C 817.566 120.254 816.871 120.125 816.305 119.965 C 812.617 118.926 808.91 117.938 805.23 116.867 C 804.355 116.609 803.559 116.102 802.492 115.598 C 802.891 116.176 803.176 116.59 803.52 117.086 C 801.449 116.77 799.73 115.922 798.074 114.656 C 798.258 115.09 798.441 115.523 798.617 115.941 C 797.523 115.801 797.199 115.512 794.703 112.406 C 794.676 112.801 794.652 113.125 794.613 113.684 C 793.273 111.805 792.055 110.094 790.922 108.504 C 792.777 107.156 794.613 105.824 796.391 104.531 C 796.379 104.637 796.344 104.93 796.309 105.219 C 796.383 105.281 796.461 105.348 796.531 105.41 C 798.137 103.949 799.742 102.492 801.461 100.93 C 802.93 103.859 805.434 105.496 808.797 105.762 C 811.961 106.008 815.105 106.168 817.164 102.988 C 817.629 103.426 818.109 103.848 818.555 104.301 C 819.23 104.992 819.887 105.398 820.984 105.168 C 821.617 105.035 822.535 105.367 823.066 105.801 C 824.055 106.609 825.047 106.543 826.094 106.207 C 827.078 105.891 828.031 105.461 828.992 105.07 C 829.586 104.828 830.164 104.527 830.77 104.309 C 833.641 103.266 835.496 104.289 836.18 107.313 C 836.648 107.402 837.141 107.48 837.625 107.602 C 839.418 108.055 840.438 109.199 840.754 111.031 C 840.82 111.402 841.047 111.82 841.328 112.074 C 842.949 113.543 843.371 115.379 842.598 117.438 C 842.469 117.789 842.609 118.316 842.781 118.688 C 844.023 121.355 842.648 124.215 839.867 124.734 Z M 838.184 114.805 C 839.793 113.516 840.297 111.777 839.41 110.504 C 839.102 110.066 838.469 109.621 837.984 109.621 C 837.539 109.621 837.094 110.215 836.461 110.688 C 838.469 111.621 838.555 113.063 838.184 114.805 Z M 839.887 119.074 C 841.59 118.141 842.414 116.645 841.918 115.359 C 841.715 114.832 841.313 114.188 840.852 114.02 C 840.516 113.895 839.926 114.465 839.309 114.801 C 840.813 116.121 840.508 117.516 839.887 119.074 Z M 832.363 106.625 C 833.723 108.152 833.227 109.5 832.84 111.023 C 834.051 109.996 835.008 109.047 834.918 107.578 C 834.883 107.055 834.523 106.336 834.105 106.125 C 833.754 105.949 833.098 106.391 832.363 106.625 Z M 834.82 127.406 C 835.098 127.258 835.582 127.051 836.008 126.758 C 836.922 126.137 837.43 125.281 837.363 124.137 C 837.324 123.488 836.953 123.285 836.359 123.344 C 835.824 123.395 835.629 123.578 835.563 124.199 C 835.441 125.281 835.078 126.34 834.82 127.406 Z M 841.27 123.301 C 842.711 122.281 842.965 120.449 841.656 118.781 C 841.234 119.074 840.805 119.375 840.594 119.52 C 840.852 120.945 841.07 122.172 841.27 123.301 Z M 823.016 111.277 C 823.121 111.266 823.23 111.254 823.336 111.242 C 822.949 110.129 822.629 108.98 822.141 107.91 C 821.914 107.418 821.297 107.145 820.813 107.715 C 820.445 108.148 820.164 108.684 820.762 109.215 C 821.52 109.895 822.266 110.59 823.016 111.277 Z M 707.613 111.898 C 708.086 111.836 708.223 111.816 708.363 111.805 C 708.379 111.801 708.402 111.844 708.441 111.883 C 707.859 114.855 707.781 117.848 708.293 120.855 C 708.348 121.176 708.309 121.59 708.148 121.855 C 706.602 124.332 704.492 126.164 701.762 127.242 C 701.676 127.277 701.563 127.246 701.438 127.246 C 702.047 125.957 702.641 124.691 703.238 123.426 C 703.164 123.375 703.09 123.324 703.016 123.27 C 701.113 125.992 698.5 127.484 695.109 127.961 C 695.695 127.152 696.199 126.457 696.703 125.766 C 694.602 127.484 692.238 128.219 689.438 128.316 C 690.453 127.531 691.309 126.871 692.168 126.211 C 688.598 126.539 685.031 126.664 682.168 129.102 C 679.992 123.656 683.348 112.715 688.281 108.648 C 687.461 108.949 686.641 109.246 685.621 109.617 C 688.539 105.832 692.207 104.199 696.867 104.477 C 696.406 103.988 695.988 103.547 695.57 103.102 C 701.508 105.207 706.492 103.938 710.449 99.137 C 709.527 103.301 708.594 107.5 707.613 111.898 Z M 735.402 100.055 C 735.789 100.723 736.176 101.391 736.617 102.152 C 737.336 101.164 737.996 100.242 738.66 99.324 C 738.723 99.34 738.781 99.359 738.844 99.375 C 738.695 100.242 738.547 101.109 738.395 101.977 C 738.469 102.047 738.539 102.117 738.609 102.184 C 739.977 100.875 741.34 99.559 742.762 98.191 C 742.652 98.691 742.559 99.211 742.414 99.723 C 742.262 100.258 742.063 100.781 741.879 101.313 C 741.969 101.375 742.059 101.434 742.145 101.496 C 743.023 100.461 743.902 99.422 744.867 98.281 C 744.906 98.879 744.945 99.445 744.977 100.008 C 745.039 100.031 745.105 100.051 745.168 100.07 C 745.484 99.387 745.801 98.703 746.121 98.016 C 745.867 101.73 745.258 105.406 745.719 109.184 C 745.957 109.047 746.113 108.957 746.355 108.82 C 746.188 112.914 746.754 116.789 748.371 120.594 C 744.297 121.535 740.262 121.531 736.012 120.695 C 739.41 113.684 737.52 106.887 735.402 100.055 Z M 784.16 70.609 C 783.355 70.305 782.832 70.109 782.168 69.859 C 782.313 70.273 782.418 70.57 782.613 71.129 C 780.813 70.008 779.488 68.785 778.574 67.18 C 777.043 64.484 776.57 61.59 777.227 58.551 C 777.664 56.512 779.066 55.758 781 56.582 C 781.871 56.953 782.668 57.551 783.418 58.148 C 784.113 58.707 784.668 59.438 785.336 60.031 C 785.992 60.617 786.715 61.125 787.465 61.711 C 787.016 61.711 786.629 61.711 786.137 61.711 C 786.336 62.031 786.492 62.289 786.723 62.66 C 786.273 62.566 785.941 62.5 785.559 62.422 C 785.789 63.203 786.027 63.98 786.309 64.926 C 785.266 64.734 784.438 64.578 783.512 64.406 C 784.031 65.25 784.512 66.02 785.148 67.051 C 784.438 66.816 783.988 66.668 783.27 66.43 C 783.785 67.164 784.176 67.723 784.668 68.422 C 784.094 68.277 783.645 68.164 783.121 68.031 C 783.445 68.844 783.75 69.586 784.16 70.609 Z" fill-opacity="1" fill-rule="nonzero"/>
</svg>