<!-- Generated by IcoMoon.io -->
<svg version="1.1" xmlns="http://www.w3.org/2000/svg" width="32" height="32" viewBox="0 0 32 32">
<path d="M17.401 24.775l0.494 0.52c-0.552-0.066-0.994-0.314-1.432-0.642l0.458 0.616c-0.583-0.115-1.022-0.452-1.41-0.939 0.044 0.142 0.081 0.287 0.133 0.424 0.054 0.139 0.122 0.27 0.213 0.468-0.564-0.359-0.864-0.883-1.134-1.455l0.141 0.779c-0.474-0.326-0.811-1.089-1.063-2.325-0.018 0.172-0.042 0.342-0.050 0.516-0.008 0.172-0.001 0.346-0.021 0.522-0.4-0.737-0.422-1.54-0.365-2.378l-0.215 0.489c-0.161-0.858-0.060-1.667 0.089-2.49l-0.148 0.259c-0.051 0.094-0.099 0.19-0.148 0.285l-0.059-0.015c0.039-0.301 0.059-0.606 0.122-0.901 0.065-0.301 0.171-0.59 0.24-0.904l-0.278 0.405c0.060-0.763 0.222-1.429 0.452-2.094l-0.245 0.292c-0.017-0.006-0.033-0.011-0.050-0.017 0.053-0.219 0.094-0.444 0.162-0.657 0.070-0.216 0.166-0.42 0.237-0.648l-0.189 0.297c-0.025-0.022-0.049-0.044-0.073-0.066 0.092-0.424 0.301-0.783 0.515-1.149-0.358 0.194-0.632 0.502-0.908 0.896v-0.643l-0.568 0.672v-0.265l-0.819 0.848 0.034-0.339-0.686 0.697 0.083-0.629-0.793 0.713 0.13-0.959-0.552 0.412 0.179-0.867-0.536 0.405c-0.013-0.011-0.027-0.020-0.040-0.031l0.395-1.034-0.471 0.168 0.467-0.695-0.401 0.148 0.487-0.74-0.324 0.102-0.033-0.049 0.549-0.551c-0.011-0.017-0.021-0.033-0.032-0.049-0.060 0.005-0.12 0.011-0.179 0.018-0.012-0.016-0.024-0.031-0.036-0.046l0.479-0.436c-0.885 0.348-3.14 3.842-3.578 5.47l0.274-0.252-0.458 0.986c0.007 0.004 0.015 0.007 0.022 0.011l1.001-1.040c0.016 0.015 0.033 0.029 0.049 0.044l-0.246 0.56c0.009 0.013 0.019 0.026 0.029 0.038l0.937-0.668 0.032 0.018-0.258 0.534 0.031 0.059 0.794-0.55-0.078 0.819 0.545-0.515 0.437 0.814c0.025-0.010 0.050-0.018 0.074-0.027l-0.213-1.886 0.040-0.008 1.175 3.856c0.129 0.472 0.109 0.997 0.157 1.497-0.023 0.007-0.044 0.015-0.066 0.022l-0.11-0.152-0.085 1.095-0.073 0.001-0.066-0.17c-0.277 0.873-0.447 1.126-1.174 1.753 0.351 0.225 0.676 0.497 0.715 0.976 0.031 0.393 0.101 0.82-0.173 1.182l-0.149-0.496c-0.448-0.082-0.691 0.148-0.766 0.607-0.048-0.020-0.069-0.022-0.071-0.030-0.042-0.159-0.052-0.43-0.128-0.456-0.178-0.063-0.39-0.015-0.587 0.005-0.037 0.004-0.075 0.082-0.1 0.134-0.063 0.131-0.12 0.266-0.206 0.46l-0.111-0.527c-0.243 0-0.468-0.007-0.693 0.006-0.054 0.003-0.119 0.063-0.154 0.117-0.070 0.106-0.121 0.226-0.194 0.367-0.123-0.464-0.127-0.424-0.517-0.475-0.318-0.041-0.461 0.137-0.57 0.406-0.035-0.017-0.057-0.025-0.057-0.029 0.015-0.304-0.112-0.41-0.378-0.44-0.294-0.033-0.401-0.288-0.323-0.655 0.097-0.456 0.315-0.826 0.668-1.076 0.111-0.080 0.131-0.149 0.099-0.29-0.15-0.657-0.205-1.323-0.108-2.007l-0.148 0.205c-0.019-0.754 0.131-1.421 0.369-2.069l-0.056-0.042-0.131 0.239c0.451-3.787 2.176-6.703 4.718-9.088l-0.145-0.023-0.016-0.049 0.918-0.433-0.335-0.074-0.016-0.050 0.972-0.353-0.295-0.139-0.006-0.073 1.17-0.176-0.266-0.207c0.243 0 0.434-0.008 0.623 0.002s0.377 0.037 0.593 0.014l-0.212-0.143c0.011-0.016 0.024-0.032 0.036-0.047h1.055l-0.186-0.171c0.644 0.065 1.193-0.235 1.755-0.582-0.040-0.028-0.071-0.051-0.103-0.071-0.036-0.023-0.073-0.043-0.161-0.094l1.189-0.344-0.558-0.193c0.59-0.211 1.152-0.287 1.749-0.251l-0.458-0.328c0.586-0.066 1.131 0.004 1.686 0.205l-0.203-0.341 0.022-0.053 1.133 0.533-0.131-0.284c0.186 0.066 0.36 0.139 0.538 0.189 0.212 0.059 0.415 0.038 0.617-0.082 1.063-0.635 2.191-0.793 3.368-0.548 0.384 0.079 0.773 0.131 1.154 0.222 0.732 0.174 1.348 0.585 1.831 1.235 0.080 0.108 0.155 0.134 0.273 0.112 0.472-0.087 0.714 0.103 0.794 0.64 0.028 0.195 0.014 0.399 0.011 0.6l-0.026 1.197c0 0.207 0.072 0.384 0.224 0.522 0.572 0.523 0.654 2.031-0.039 2.69-0.056 0.054-0.087 0.16-0.104 0.248-0.12 0.625-0.429 1.135-0.875 1.394l0.086-0.643c0.010-0.101 0.020-0.214-0.009-0.305-0.048-0.146-0.38-0.175-0.47-0.047-0.518 0.73-0.834 1.545-0.834 2.496 0 0.040 0.002 0.081 0.006 0.121 0.001 0.013 0.013 0.024 0.041 0.069l0.551-0.509c0.048 0.504-0.087 0.906-0.37 1.243-0.11 0.13-0.195 0.244-0.222 0.438-0.033 0.232-0.211 0.37-0.404 0.413-0.596 0.133-1.188 0.115-1.754-0.164-0.266-0.131-0.442-0.381-0.566-0.666-0.424-0.971-0.863-1.938-1.118-2.988-0.1-0.411-0.191-0.835-0.039-1.284l-0.279 0.229c-0.016-0.012-0.033-0.025-0.049-0.038l0.463-0.785-0.559 0.163 0.649-1.052-0.248-0.036 0.087-0.158-0.274-0.070v-0.17l-0.148 0.056c-0.006-0.012-0.019-0.024-0.018-0.036 0.014-0.119 0.041-0.22-0.037-0.349-0.054-0.090-0.012-0.266 0.009-0.399 0.058-0.349 0.132-0.693 0.252-1.022 0.030-0.082 0.11-0.147 0.179-0.203 0.227-0.19 0.362-0.537 0.709-0.549l-0.156-0.108c0.766-0.353 1.475-0.115 2.138 0.28 0.084-0.053 0.163-0.086 0.222-0.146 0.061-0.062 0.103-0.148 0.152-0.224 0.275 0.132 0.422 0.511 0.396 1.020 0.492-0.036 0.549-0.18 0.372-0.974 0.287 0.326 0.412 0.808 0.848 1.012l-0.305-0.899c0.014-0.017 0.027-0.036 0.041-0.054l0.576 0.446 0.388-0.212c-0.383-1.223-1.769-2.357-2.864-2.326l0.44 0.577c-1.759-1.375-3.418-0.894-5.081 0.292l0.546 0.571-0.037 0.058c-0.053-0.026-0.111-0.046-0.16-0.080-0.231-0.158-0.455-0.328-0.69-0.477-0.154-0.098-0.316-0.19-0.482-0.249-0.546-0.196-0.964 0.021-1.162 0.627-0.29 0.891-0.219 1.755 0.239 2.56 0.114 0.202 0.253 0.387 0.385 0.577 0.117 0.168 0.174 0.329 0.002 0.498-0.030 0.031-0.045 0.080-0.082 0.148l0.257-0.044 0.033 0.039-0.327 0.265c0.018 0.021 0.035 0.043 0.052 0.064l0.482-0.074-0.593 0.675 0.678-0.157-0.476 0.717 0.037 0.038 0.455-0.209c0.010 0.012 0.020 0.024 0.028 0.037l-0.307 0.476 0.611-0.152 0.012 0.037-0.598 0.531 0.999-0.077 0.026 0.079-0.553 0.507 0.059 0.069 0.995-0.37-0.305 0.754c0.034 0.018 0.041 0.025 0.044 0.023 0.478-0.38 0.898-0.224 1.31 0.16 0.61 0.569 1.043 1.284 1.398 2.083l-0.485 0.689c-0.014-0.008-0.029-0.015-0.043-0.023l0.044-0.368c-0.284 0.429-0.575 0.842-1.012 1.161l0.11-0.488-0.98 1.044c-0.020-0.019-0.040-0.038-0.060-0.056l0.195-0.508-0.967 0.82-0.047-0.047 0.192-0.425-0.77 0.688c-0.073-0.179-0.167-0.323-0.189-0.48-0.098-0.674-0.174-1.351-0.26-2.027-0.008-0.062-0.023-0.122-0.071-0.188l-0.112 0.456-0.067 0.008-0.21-1.507-0.136 0.526c-0.176-0.453-0.223-0.893-0.268-1.354l-0.137 0.49c-0.194-0.449-0.242-0.918-0.279-1.409-0.143 0.474-0.059 1.448 0.243 2.178 0.279 0.675 0.615 1.319 0.953 2.031l-0.217-0.157 0.308 0.881-0.039 0.024-0.384-0.293-0.030 0.022c0.040 0.065 0.071 0.139 0.121 0.192 0.307 0.32 0.595 0.671 0.933 0.944 0.572 0.461 1.171 0.878 1.768 1.299 0.12 0.085 0.276 0.126 0.419 0.142 0.529 0.062 1.059 0.111 1.589 0.151 0.176 0.014 0.356 0.004 0.531-0.023 0.675-0.099 1.145 0.251 1.514 0.848 0.053 0.087 0.136 0.159 0.218 0.211 0.603 0.38 0.981 1.235 0.864 2.058-0.21-0.519-0.499-0.891-0.928-1.101l-0.21 0.293c0.201 0.483 0.306 0.99 0.196 1.592-0.202-0.537-0.444-0.973-0.847-1.233l-0.431 0.345c0.123 0.445 0.189 0.922 0.073 1.48-0.152-0.526-0.388-0.915-0.693-1.202l-0.742 0.347v0.996l-0.491-0.846c-0.081-0.134-0.163-0.17-0.315-0.066-0.543 0.366-1.112 0.376-1.698 0.113-0.262-0.118-0.536-0.202-0.809-0.279-0.33-0.094-0.61-0.267-0.804-0.586-0.072-0.119-0.142-0.17-0.276-0.153-0.508 0.066-0.982-0.072-1.426-0.363-0.010 0.017-0.020 0.034-0.030 0.051zM28.067 13.384c-0.818-0.527-1.187-1.089-1.053-1.553 0.143 0.469 0.362 0.67 0.7 0.624 0.078-0.011 0.189-0.052 0.217-0.117 0.034-0.076-0.005-0.194-0.013-0.294-0.054 0.040-0.129 0.067-0.158 0.124-0.080 0.158-0.198 0.181-0.329 0.141-0.202-0.063-0.29-0.242-0.324-0.462-0.030-0.199 0.089-0.294 0.218-0.37 0.094-0.054 0.194-0.117 0.295-0.128 0.317-0.034 0.636-0.045 0.904-0.062-0.451-0.5-1.039-0.632-1.696-0.438 0.179 0.022 0.363 0.017 0.542 0.045 0.176 0.027 0.348 0.088 0.521 0.135-0.002 0.021-0.005 0.042-0.007 0.063-0.073 0.004-0.149-0.003-0.221 0.013-0.256 0.055-0.513 0.105-0.764 0.183-0.070 0.023-0.118 0.136-0.178 0.211-0.162-0.055-0.359-0.157-0.564-0.187-0.532-0.079-0.982 0.33-1.166 1.203-0.050 0.236-0.021 0.387 0.199 0.451 0.007 0.002 0.009 0.027 0.017 0.058-0.387 0.038-0.773 0.078-1.084 0.381 0.398-0.188 0.805-0.205 1.205-0.044 0.806 0.324 1.631 0.305 2.461 0.204 0.087-0.010 0.166-0.105 0.278-0.18zM25.819 15.693c0.034-0.421 0.12-0.795-0.090-1.159-0.234-0.405-0.479-0.597-0.823-0.549 0.426 0.606 0.469 1.285 0.31 2.003-0.017-0.107-0.014-0.214-0.018-0.323-0.017-0.506-0.091-1-0.38-1.403-0.449-0.627-0.499-0.551-0.849 0.011-0.015 0.025-0.025 0.057-0.039 0.089 0.246 0.345 0.361 0.745 0.389 1.179 0.015 0.225 0.012 0.451 0.036 0.674 0.009 0.083 0.069 0.219 0.118 0.227 0.162 0.026 0.165 0.147 0.176 0.276 0.026 0.342 0.1 0.441 0.407 0.538l0.333-0.536 0.062 0.013 0.070 0.727c0.429 0.105 0.638-0.135 0.493-0.599-0.103-0.331-0.132-0.651-0.029-0.985 0.026-0.084 0.029-0.177 0.049-0.304l-0.214 0.12zM24.615 26.098c-0.019-0.121-0.028-0.239-0.054-0.352-0.127-0.551-0.34-1.043-0.791-1.343-0.080-0.052-0.239-0.070-0.302-0.015-0.201 0.177-0.141 0.485 0.080 0.623 0.191 0.12 0.385 0.249 0.544 0.415 0.189 0.197 0.344 0.439 0.523 0.672zM25.785 25.534c-0.088-0.604-0.279-1.143-0.719-1.528-0.087-0.076-0.192-0.136-0.298-0.175-0.159-0.057-0.215 0.081-0.247 0.217s-0.129 0.317 0.054 0.397c0.507 0.218 0.911 0.574 1.209 1.090zM23.149 26.346l0.052-0.017c-0.099-0.31-0.164-0.641-0.308-0.92-0.115-0.224-0.319-0.394-0.502-0.564-0.049-0.046-0.191-0.042-0.244 0.006-0.17 0.153-0.103 0.489 0.088 0.601 0.162 0.093 0.326 0.198 0.461 0.335 0.166 0.167 0.303 0.371 0.452 0.559v0zM26.686 24.773c-0.117-0.617-0.393-1.102-0.915-1.374-0.121-0.064-0.224-0.082-0.279 0.112-0.083 0.289-0.069 0.429 0.096 0.477 0.438 0.13 0.808 0.376 1.098 0.785zM28.088 13.489l0.032 0.097 0.664 0.28c0.279-0.32 0.412-0.802 0.366-1.343-0.216 0.055-0.209-0.156-0.254-0.309-0.166 0.156-0.148 0.204 0.161 0.434-0.12 0.403-0.414 0.555-0.739 0.676-0.084 0.031-0.154 0.109-0.231 0.165zM26.088 13.848l-0.085 1.528c0.358-0.429 0.533-0.919 0.607-1.49l-0.522-0.038zM23.826 14.917l-0.080 0.029c0.055 0.566 0.168 1.118 0.371 1.646l0.204 0.546c0.044 0.123 0.076 0.263 0.242 0.246l-0.059-0.69-0.128 0.007c-0.050-0.098-0.089-0.162-0.118-0.231-0.040-0.092-0.094-0.184-0.102-0.281-0.008-0.106 0.028-0.217 0.045-0.325l-0.143-0.085 0.058-0.354c-0.148-0.020-0.236-0.071-0.203-0.259 0.012-0.073-0.056-0.165-0.088-0.249zM28.301 14.090c-0.534 0.276-0.956 0.041-1.374-0.212v0.622c0.018 0.012 0.035 0.024 0.054 0.035l0.202-0.352 0.107 0.321 0.186-0.168c0.047 0.274 0.16 0.096 0.242 0.063l0.115 0.146 0.148-0.108 0.139 0.258 0.18-0.605zM25.382 17.084l-0.6 0.65c-0.104 0.115-0.092 0.303 0.027 0.422 0.131 0.132 0.25 0.096 0.333-0.062 0.164-0.307 0.234-0.645 0.239-1.010zM26.277 15.435c-0.030 0.028-0.081 0.052-0.087 0.084-0.065 0.418-0.137 0.834-0.039 1.262 0.050 0.215 0.061 0.442 0.094 0.699-0.008-0.001 0.043 0.006 0.089 0.013v-0.625c-0.016-0.125 0.158-0.277-0.1-0.337 0.025-0.17 0.253-0.329-0.025-0.494 0.308-0.155-0.021-0.393 0.066-0.602zM28.441 14.009l-0.363 1.355 0.068 0.027c0.255-0.302 0.392-0.67 0.491-1.070 0.058-0.235-0.017-0.308-0.196-0.313zM26.277 17.801c0.038 0.038 0.119 0.086 0.154 0.161 0.038 0.081 0.032 0.188 0.045 0.283 0.304-0.066 0.622-0.521 0.63-0.856l-0.828 0.412zM7.992 25.964c0.077-0.285 0.138-0.585 0.024-0.884-0.028-0.071-0.165-0.154-0.22-0.131-0.118 0.048-0.172 0.168-0.096 0.328 0.104 0.222 0.193 0.455 0.292 0.688zM25.435 17.899l-0.179 0.418c0.358 0 0.672 0.011 0.986-0.005 0.155-0.008 0.138-0.139 0.1-0.27-0.175 0.129-0.512 0.108-0.645-0.032l-0.115 0.105-0.146-0.215zM25.076 10.739c-0.223-0.307-0.506-0.277-0.796-0.254 0.172 0.478 0.444 0.566 0.796 0.254zM28.517 9.599c0.020-0.343 0.053-0.639-0.151-0.851-0.077-0.081-0.241-0.058-0.363-0.081l-0.008 0.071 0.522 0.861zM6.834 25.957l0.049 0.020c0.019-0.264 0.050-0.527 0.049-0.791-0.001-0.078-0.090-0.164-0.155-0.225-0.018-0.017-0.124 0.030-0.136 0.069-0.026 0.087-0.043 0.196-0.021 0.281 0.058 0.22 0.141 0.43 0.213 0.645zM9.031 25.864c0.022 0.002 0.043 0.004 0.065 0.006-0.029-0.269-0.046-0.543-0.098-0.807-0.012-0.055-0.149-0.079-0.228-0.118-0.028 0.102-0.104 0.23-0.075 0.3 0.090 0.218 0.221 0.413 0.336 0.618zM5.737 25.954c0.1-0.26 0.164-0.533 0.108-0.819-0.013-0.068-0.123-0.113-0.189-0.168-0.043 0.095-0.134 0.202-0.119 0.285 0.043 0.234 0.127 0.46 0.199 0.703zM9.962 25.748l0.063-0.001c-0.040-0.242-0.067-0.489-0.131-0.724-0.015-0.054-0.183-0.115-0.234-0.082-0.101 0.066-0.136 0.183-0.026 0.317 0.122 0.149 0.22 0.325 0.329 0.489zM28.254 13.86h-1.020c0.359 0.294 0.808 0.291 1.020 0zM26.127 17.582l-0.653 0.129c0.076 0.226 0.308 0.31 0.708 0.241l-0.055-0.37zM24.72 23.569c-0.172-0.594-0.484-0.806-1.155-0.804 0.465 0.12 0.89 0.312 1.155 0.804zM23.515 24.051c-0.157-0.554-0.456-0.758-1.151-0.754 0.459 0.103 0.875 0.286 1.151 0.754zM20.74 24.076c0.523 0.044 0.999 0.036 1.349 0.474-0.188-0.479-0.58-0.621-1.349-0.474zM21.519 15.91c0.016 0.006 0.032 0.011 0.048 0.018l0.332-0.226-0.252-0.24-0.129 0.448zM31.332 23.616l0.15-0.766-0.477 0.124c0.024 0.448 0.037 0.884-0.309 1.196-0.21 0.189-0.467 0.245-0.728 0.167l0.386-0.562c-0.325-0.148-0.596-0.308-0.885-0.39-0.24-0.066-0.505-0.080-0.753-0.046-0.67 0.094-1.252-0.051-1.725-0.636-0.071-0.089-0.208-0.118-0.32-0.154l-2.191-0.693c-0.173-0.058-0.33-0.171-0.542-0.284l0.203 0.333c-0.41-0.071-0.75-0.26-1.078-0.544l0.107 0.287c-0.216-0.031-0.28-0.096-0.774-0.791l-0.017 0.286-0.731-1.159 1.082-0.889-0.016 0.154c0.015 0.014 0.030 0.029 0.044 0.043l0.975-1.002c0.291 0.655 0.786 1.021 1.452 1.081 0.626 0.055 1.248 0.091 1.655-0.621 0.092 0.098 0.187 0.192 0.275 0.294 0.133 0.155 0.263 0.245 0.48 0.194 0.125-0.030 0.307 0.045 0.412 0.142 0.195 0.181 0.392 0.166 0.599 0.091 0.195-0.071 0.383-0.167 0.573-0.254 0.117-0.054 0.232-0.121 0.352-0.17 0.568-0.233 0.935-0.004 1.070 0.672 0.093 0.020 0.19 0.037 0.286 0.065 0.355 0.101 0.556 0.357 0.619 0.767 0.013 0.083 0.058 0.177 0.114 0.233 0.321 0.329 0.404 0.739 0.251 1.2-0.025 0.079 0.002 0.196 0.036 0.28 0.246 0.597-0.026 1.236-0.576 1.352zM31 21.395c0.318-0.288 0.418-0.677 0.242-0.962-0.061-0.098-0.186-0.198-0.282-0.198-0.088 0-0.176 0.133-0.301 0.239 0.397 0.209 0.414 0.531 0.341 0.921zM31.336 22.35c0.337-0.209 0.5-0.543 0.402-0.831-0.040-0.118-0.12-0.262-0.211-0.3-0.066-0.028-0.183 0.1-0.305 0.175 0.298 0.295 0.237 0.607 0.114 0.956zM29.848 19.565c0.269 0.342 0.171 0.643 0.094 0.984 0.24-0.23 0.429-0.442 0.411-0.771-0.007-0.117-0.078-0.278-0.161-0.325-0.069-0.039-0.199 0.059-0.345 0.112zM30.334 24.214c0.055-0.033 0.151-0.079 0.235-0.145 0.181-0.139 0.281-0.33 0.268-0.586-0.007-0.145-0.081-0.191-0.198-0.177-0.106 0.011-0.145 0.052-0.158 0.191-0.024 0.242-0.096 0.479-0.147 0.717zM31.61 23.295c0.285-0.228 0.336-0.638 0.076-1.011l-0.21 0.165 0.134 0.846zM27.999 20.606l0.063-0.008c-0.076-0.249-0.14-0.506-0.237-0.745-0.045-0.11-0.167-0.171-0.263-0.044-0.073 0.097-0.128 0.217-0.010 0.336l0.446 0.461zM5.168 20.745l0.148-0.021c0.003-0.001 0.008 0.009 0.015 0.017-0.115 0.665-0.131 1.334-0.029 2.007 0.011 0.072 0.003 0.164-0.029 0.224-0.306 0.554-0.723 0.964-1.263 1.205-0.017 0.008-0.039 0.001-0.064 0.001l0.356-0.855-0.044-0.035c-0.376 0.609-0.893 0.943-1.564 1.049l0.315-0.491c-0.416 0.384-0.883 0.549-1.437 0.57l0.54-0.471c-0.706 0.073-1.412 0.101-1.978 0.647-0.43-1.218 0.233-3.666 1.209-4.575l-0.526 0.217c0.577-0.847 1.303-1.212 2.225-1.15l-0.257-0.308c1.175 0.471 2.161 0.187 2.944-0.887l-0.561 2.855zM10.665 18.095l0.241 0.469 0.404-0.633c0.012 0.004 0.024 0.008 0.036 0.011l-0.089 0.582 0.042 0.046 0.822-0.893c-0.022 0.112-0.040 0.228-0.069 0.343-0.030 0.12-0.069 0.237-0.106 0.356l0.053 0.041 0.538-0.719 0.022 0.386c0.012 0.005 0.025 0.010 0.038 0.014l0.189-0.459c-0.050 0.831-0.171 1.653-0.080 2.498l0.126-0.081c-0.033 0.916 0.079 1.783 0.399 2.634-0.806 0.211-1.604 0.21-2.445 0.023 0.672-1.568 0.298-3.089-0.121-4.617zM20.312 11.509l-0.394-0.168 0.088 0.284c-0.356-0.251-0.618-0.524-0.799-0.883-0.303-0.603-0.396-1.25-0.266-1.93 0.087-0.456 0.364-0.625 0.746-0.44 0.172 0.083 0.33 0.217 0.479 0.35 0.138 0.125 0.247 0.289 0.38 0.421 0.13 0.131 0.273 0.245 0.421 0.376h-0.263l0.116 0.212-0.23-0.053 0.148 0.56-0.553-0.116 0.324 0.592-0.372-0.139 0.276 0.446-0.306-0.087 0.206 0.577z"></path>
</svg>
