<?xml version="1.0" encoding="UTF-8" standalone="no"?>
<!DOCTYPE svg PUBLIC "-//W3C//DTD SVG 1.1//EN" "http://www.w3.org/Graphics/SVG/1.1/DTD/svg11.dtd">
<svg width="100%" height="100%" viewBox="0 0 150 150" version="1.1" xmlns="http://www.w3.org/2000/svg" xmlns:xlink="http://www.w3.org/1999/xlink" xml:space="preserve" xmlns:serif="http://www.serif.com/" style="fill-rule:evenodd;clip-rule:evenodd;stroke-linejoin:round;stroke-miterlimit:2;">
    <g transform="matrix(0.156275,0,0,0.182699,-18.7618,-35.2172)">
        <path d="M1079.9,596.16C1055.53,590.301 1031.38,587.535 1007.81,587.535C932.431,587.535 862.206,615.847 804.936,662.16C747.561,708.566 703.126,772.97 679.356,845.06C673.684,862.263 669.278,879.935 666.09,897.888C666.278,884.2 666.371,869.341 666.184,853.357C667.309,849.513 668.434,845.67 669.699,841.873C676.356,821.717 684.558,802.123 694.215,783.326C694.215,723.654 707.199,667.546 726.465,619.966C750.371,560.95 784.027,514.966 814.684,491.576C816.044,490.545 817.966,490.826 818.95,492.138C819.981,493.498 819.7,495.42 818.387,496.404C788.481,519.185 755.621,564.232 732.137,622.214C714.418,665.995 702.09,717.136 700.496,771.504C716.152,743.285 735.09,717.035 756.699,693.551C788.34,575.101 853.168,516.411 912.559,462.601C973.356,407.523 1028.39,357.651 1034.3,252.361C981.658,334.767 914.059,379.491 850.269,421.671C753.331,485.796 665.349,544.151 655.079,723.541C653.064,711.775 650.72,699.775 648.001,687.588C653.673,641.557 664.923,604.15 680.345,572.838C689.205,505.479 699.376,442.948 715.407,388.018C729.188,340.721 747.329,299.049 772.688,264.828C737.297,283.812 700.782,316.531 671.628,372.028C645.097,422.559 624.706,492.028 616.737,586.898C593.299,528.82 559.034,468.778 508.827,409.848C500.155,399.629 491.155,389.598 482.483,379.895C443.952,336.77 407.53,296.036 393.327,240.815C392.624,238.096 390.046,236.268 387.327,236.456C384.515,236.643 382.265,238.753 381.89,241.518C368.109,346.898 413.671,434.408 461.906,527.078C479.437,560.734 497.625,595.797 513.656,633.248C490.453,601.045 460.218,571.795 424.031,546.998C355.922,500.357 272.671,473.592 195.661,473.592C192.848,473.592 190.411,475.608 189.895,478.373C189.38,481.139 190.973,483.905 193.598,484.889C304.688,526.28 432.708,634.649 453.988,809.079C429.66,741.673 389.535,684.019 338.538,647.739C275.632,602.973 201.478,593.458 123.988,620.27C121.41,621.161 119.77,623.739 120.098,626.504C120.426,629.223 122.629,631.379 125.348,631.614C267.188,644.926 368.248,779.174 367.408,951.824L349.549,951.824C346.314,951.824 343.689,954.449 343.689,957.683C343.689,960.918 346.314,963.543 349.549,963.543L762.939,963.543C766.173,963.543 768.798,960.918 768.798,957.683C768.798,954.449 766.173,951.824 762.939,951.824L742.783,951.824C757.174,861.262 794.252,768.084 862.503,699.264C915.237,646.108 986.443,607.576 1079.9,596.094L1079.9,596.16ZM472.21,521.722C429.272,439.316 388.538,360.982 391.163,271.362C409.351,315.659 440.804,350.815 473.757,387.702C482.382,397.358 491.335,407.39 499.913,417.468C658.963,604.178 655.863,803.438 654.223,910.498C653.989,926.436 653.801,940.357 654.176,951.889L617.426,951.889C621.082,848.109 609.223,759.939 589.395,686.019C568.864,609.425 539.801,548.019 510.833,500.159C509.943,498.706 508.068,498.237 506.661,499.128C505.208,500.018 504.739,501.893 505.63,503.3C534.318,550.738 563.099,611.58 583.489,687.61C603.177,761.063 614.942,848.77 611.286,951.93L566.145,951.93C579.879,872.664 575.801,803.75 561.973,742.07C561.973,741.742 562.02,741.46 561.973,741.132C560.239,732.695 558.036,724.304 555.458,716.007C535.396,643.351 502.817,580.537 472.208,521.747L472.21,521.722ZM385.585,611.675C344.897,559.081 289.96,515.628 228.555,486.935C357.605,499.497 500.615,583.919 543.235,715.595C562.547,783.892 570.423,861.045 554.391,951.885L517.313,951.885C522.422,889.307 519.235,833.945 510.376,786.045C499.359,726.42 479.72,678.135 456.938,641.335C456.047,639.882 454.172,639.46 452.719,640.351C451.266,641.241 450.844,643.116 451.734,644.569C474.187,680.757 493.5,728.335 504.375,787.169C513.141,834.7 516.328,889.689 511.219,951.889L479.813,951.889C479.391,920.389 475.594,889.311 468.751,859.405C468.564,767.483 439.876,681.845 385.595,611.665L385.585,611.675ZM311.991,727.695C271.772,672.804 216.038,636.617 153.041,623.915C217.588,608.306 278.901,619.649 331.731,657.29C413.34,715.415 466.411,830.55 468.091,951.85L423.607,951.85C422.904,906.194 414.982,863.631 403.216,826.41C387.138,775.551 364.075,734.394 343.216,708.29C342.185,706.977 340.263,706.743 338.904,707.821C337.591,708.852 337.357,710.774 338.435,712.134C358.873,737.775 381.513,778.181 397.357,828.294C408.982,864.997 416.81,906.903 417.513,951.854L379.029,951.854C379.404,866.916 355.826,787.514 311.998,727.694L311.991,727.695ZM803.151,719.539C774.651,750.242 747.229,792.195 728.385,838.229C713.432,874.745 703.963,913.838 703.494,951.849L697.4,951.849C697.869,912.99 707.525,873.099 722.759,835.879C741.931,789.098 769.728,746.488 798.697,715.319C799.869,714.1 801.791,714.006 803.01,715.178C804.228,716.35 804.322,718.272 803.15,719.491L803.151,719.539Z" style="fill-rule:nonzero;"/>
    </g>
</svg>
