<?xml version="1.0" encoding="UTF-8"?>
<svg version="1.1" viewBox="0 0 1200 1200" xmlns="http://www.w3.org/2000/svg" width="150pt" height="150pt">
 <path d="m1079.9 596.16c-24.375-5.8594-48.516-8.625-72.094-8.625-75.375 0-145.6 28.312-202.87 74.625-57.375 46.406-101.81 110.81-125.58 182.9-5.6719 17.203-10.078 34.875-13.266 52.828 0.1875-13.688 0.28125-28.547 0.09375-44.531 1.125-3.8438 2.25-7.6875 3.5156-11.484 6.6562-20.156 14.859-39.75 24.516-58.547 0-59.672 12.984-115.78 32.25-163.36 23.906-59.016 57.562-105 88.219-128.39 1.3594-1.0312 3.2812-0.75 4.2656 0.5625 1.0312 1.3594 0.75 3.2812-0.5625 4.2656-29.906 22.781-62.766 67.828-86.25 125.81-17.719 43.781-30.047 94.922-31.641 149.29 15.656-28.219 34.594-54.469 56.203-77.953 31.641-118.45 96.469-177.14 155.86-230.95 60.797-55.078 115.83-104.95 121.74-210.24-52.641 82.406-120.24 127.13-184.03 169.31-96.938 64.125-184.92 122.48-195.19 301.87-2.0156-11.766-4.3594-23.766-7.0781-35.953 5.6719-46.031 16.922-83.438 32.344-114.75 8.8594-67.359 19.031-129.89 35.062-184.82 13.781-47.297 31.922-88.969 57.281-123.19-35.391 18.984-71.906 51.703-101.06 107.2-26.531 50.531-46.922 120-54.891 214.87-23.438-58.078-57.703-118.12-107.91-177.05-8.6719-10.219-17.672-20.25-26.344-29.953-38.531-43.125-74.953-83.859-89.156-139.08-0.70312-2.7188-3.2812-4.5469-6-4.3594-2.8125 0.1875-5.0625 2.2969-5.4375 5.0625-13.781 105.38 31.781 192.89 80.016 285.56 17.531 33.656 35.719 68.719 51.75 106.17-23.203-32.203-53.438-61.453-89.625-86.25-68.109-46.641-151.36-73.406-228.37-73.406-2.8125 0-5.25 2.0156-5.7656 4.7812s1.0781 5.5312 3.7031 6.5156c111.09 41.391 239.11 149.76 260.39 324.19-24.328-67.406-64.453-125.06-115.45-161.34-62.906-44.766-137.06-54.281-214.55-27.469-2.5781 0.89063-4.2188 3.4688-3.8906 6.2344 0.32812 2.7188 2.5312 4.875 5.25 5.1094 141.84 13.312 242.9 147.56 242.06 320.21h-17.859c-3.2344 0-5.8594 2.625-5.8594 5.8594s2.625 5.8594 5.8594 5.8594h413.39c3.2344 0 5.8594-2.625 5.8594-5.8594s-2.625-5.8594-5.8594-5.8594h-20.156c14.391-90.562 51.469-183.74 119.72-252.56 52.734-53.156 123.94-91.688 217.4-103.17zm-607.69-74.438c-42.938-82.406-83.672-160.74-81.047-250.36 18.188 44.297 49.641 79.453 82.594 116.34 8.625 9.6562 17.578 19.688 26.156 29.766 159.05 186.71 155.95 385.97 154.31 493.03-0.23438 15.938-0.42188 29.859-0.046875 41.391h-36.75c3.6562-103.78-8.2031-191.95-28.031-265.87-20.531-76.594-49.594-138-78.562-185.86-0.89062-1.4531-2.7656-1.9219-4.1719-1.0312-1.4531 0.89062-1.9219 2.7656-1.0312 4.1719 28.688 47.438 57.469 108.28 77.859 184.31 19.688 73.453 31.453 161.16 27.797 264.32h-45.141c13.734-79.266 9.6562-148.18-4.1719-209.86 0-0.32812 0.046875-0.60938 0-0.9375-1.7344-8.4375-3.9375-16.828-6.5156-25.125-20.062-72.656-52.641-135.47-83.25-194.26zm-86.625 89.953c-40.688-52.594-95.625-96.047-157.03-124.74 129.05 12.562 272.06 96.984 314.68 228.66 19.312 68.297 27.188 145.45 11.156 236.29h-37.078c5.1094-62.578 1.9219-117.94-6.9375-165.84-11.016-59.625-30.656-107.91-53.438-144.71-0.89062-1.4531-2.7656-1.875-4.2188-0.98438s-1.875 2.7656-0.98438 4.2188c22.453 36.188 41.766 83.766 52.641 142.6 8.7656 47.531 11.953 102.52 6.8438 164.72h-31.406c-0.42188-31.5-4.2188-62.578-11.062-92.484-0.1875-91.922-28.875-177.56-83.156-247.74zm-73.594 116.02c-40.219-54.891-95.953-91.078-158.95-103.78 64.547-15.609 125.86-4.2656 178.69 33.375 81.609 58.125 134.68 173.26 136.36 294.56h-44.484c-0.70312-45.656-8.625-88.219-20.391-125.44-16.078-50.859-39.141-92.016-60-118.12-1.0312-1.3125-2.9531-1.5469-4.3125-0.46875-1.3125 1.0312-1.5469 2.9531-0.46875 4.3125 20.438 25.641 43.078 66.047 58.922 116.16 11.625 36.703 19.453 78.609 20.156 123.56h-38.484c0.375-84.938-23.203-164.34-67.031-224.16zm491.16-8.1562c-28.5 30.703-55.922 72.656-74.766 118.69-14.953 36.516-24.422 75.609-24.891 113.62h-6.0938c0.46875-38.859 10.125-78.75 25.359-115.97 19.172-46.781 46.969-89.391 75.938-120.56 1.1719-1.2188 3.0938-1.3125 4.3125-0.14062s1.3125 3.0938 0.14062 4.3125z"/>
</svg>
