<!-- Generated by IcoMoon.io -->
<svg version="1.1" xmlns="http://www.w3.org/2000/svg" width="32" height="32" viewBox="0 0 32 32">
<path d="M32 15.723c-0.812-0.228-1.618-0.336-2.403-0.336-2.513 0-4.854 1.103-6.764 2.909-1.913 1.809-3.394 4.319-4.187 7.129-0.189 0.671-0.336 1.359-0.442 2.059 0.006-0.534 0.009-1.113 0.003-1.736 0.038-0.15 0.075-0.3 0.117-0.448 0.222-0.786 0.495-1.549 0.817-2.282 0-2.326 0.433-4.513 1.075-6.367 0.797-2.3 1.919-4.092 2.941-5.004 0.045-0.040 0.109-0.029 0.142 0.022 0.034 0.053 0.025 0.128-0.019 0.166-0.997 0.888-2.093 2.644-2.875 4.904-0.591 1.706-1.002 3.7-1.055 5.819 0.522-1.1 1.153-2.123 1.874-3.038 1.055-4.617 3.216-6.904 5.196-9.001 2.027-2.147 3.862-4.090 4.059-8.194-1.755 3.212-4.009 4.955-6.135 6.599-3.232 2.499-6.165 4.774-6.507 11.766-0.067-0.459-0.145-0.926-0.236-1.401 0.189-1.794 0.564-3.252 1.078-4.472 0.295-2.625 0.634-5.063 1.169-7.204 0.459-1.843 1.064-3.468 1.91-4.801-1.18 0.74-2.397 2.015-3.369 4.178-0.884 1.97-1.564 4.677-1.83 8.375-0.781-2.264-1.924-4.604-3.598-6.901-0.289-0.398-0.589-0.789-0.878-1.167-1.285-1.681-2.499-3.268-2.972-5.421-0.023-0.106-0.109-0.177-0.2-0.17-0.094 0.007-0.169 0.090-0.181 0.197-0.459 4.107 1.060 7.518 2.668 11.13 0.584 1.312 1.191 2.678 1.725 4.138-0.774-1.255-1.782-2.395-2.988-3.362-2.271-1.818-5.046-2.861-7.614-2.861-0.094 0-0.175 0.079-0.192 0.186s0.036 0.216 0.123 0.254c3.704 1.613 7.972 5.837 8.681 12.636-0.811-2.627-2.149-4.874-3.849-6.288-2.097-1.745-4.569-2.116-7.153-1.071-0.086 0.035-0.141 0.135-0.13 0.243 0.011 0.106 0.084 0.19 0.175 0.199 4.729 0.519 8.098 5.751 8.070 12.48h-0.595c-0.108 0-0.195 0.102-0.195 0.228s0.088 0.228 0.195 0.228h13.782c0.108 0 0.195-0.102 0.195-0.228s-0.087-0.228-0.195-0.228h-0.672c0.48-3.53 1.716-7.161 3.991-9.844 1.758-2.072 4.132-3.574 7.248-4.021v0.003zM11.74 12.822c-1.431-3.212-2.79-6.265-2.702-9.758 0.606 1.726 1.655 3.097 2.754 4.534 0.288 0.376 0.586 0.767 0.872 1.16 5.302 7.277 5.199 15.044 5.145 19.216-0.008 0.621-0.014 1.164-0.002 1.613h-1.225c0.122-4.045-0.273-7.481-0.935-10.363-0.684-2.985-1.653-5.379-2.619-7.244-0.030-0.057-0.092-0.075-0.139-0.040-0.048 0.035-0.064 0.108-0.034 0.163 0.956 1.849 1.916 4.22 2.596 7.184 0.656 2.863 1.049 6.281 0.927 10.302h-1.505c0.458-3.089 0.322-5.775-0.139-8.179 0-0.013 0.002-0.024 0-0.037-0.058-0.329-0.131-0.656-0.217-0.979-0.669-2.832-1.755-5.28-2.775-7.571l0-0.001zM8.852 16.328c-1.356-2.050-3.188-3.744-5.235-4.862 4.302 0.49 9.070 3.78 10.491 8.912 0.644 2.662 0.906 5.669 0.372 9.21h-1.236c0.17-2.439 0.064-4.597-0.231-6.464-0.367-2.324-1.022-4.206-1.782-5.64-0.030-0.057-0.092-0.073-0.141-0.038s-0.063 0.108-0.033 0.164c0.749 1.41 1.392 3.265 1.755 5.558 0.292 1.853 0.399 3.996 0.228 6.42h-1.047c-0.014-1.228-0.141-2.439-0.369-3.605-0.006-3.583-0.963-6.921-2.772-9.656l-0 0zM6.399 20.849c-1.341-2.139-3.199-3.55-5.299-4.045 2.152-0.608 4.196-0.166 5.957 1.301 2.721 2.265 4.49 6.753 4.546 11.481h-1.483c-0.023-1.779-0.288-3.438-0.68-4.889-0.536-1.982-1.305-3.586-2-4.604-0.034-0.051-0.098-0.060-0.144-0.018-0.044 0.040-0.052 0.115-0.016 0.168 0.681 0.999 1.436 2.574 1.964 4.527 0.388 1.431 0.649 3.064 0.672 4.816h-1.283c0.012-3.311-0.774-6.405-2.235-8.737l-0 0zM22.773 20.532c-0.95 1.197-1.864 2.832-2.493 4.626-0.498 1.423-0.814 2.947-0.83 4.428h-0.203c0.016-1.515 0.338-3.069 0.845-4.52 0.639-1.823 1.566-3.484 2.532-4.699 0.039-0.047 0.103-0.051 0.144-0.006s0.044 0.121 0.005 0.168l0 0.002z"></path>
</svg>
