<!-- Generated by IcoMoon.io -->
<svg version="1.1" xmlns="http://www.w3.org/2000/svg" width="32" height="32" viewBox="0 0 32 32">
<path d="M5 17.5c-1.689 0-2.405-0.362-2.709-0.666-0.291-0.291-0.291-0.618-0.291-0.834 0-0.271 0.147-1.689 0.829-3.165 0.91-1.973 2.362-3.27 4.315-3.856 0.119-0.036 0.221-0.115 0.285-0.221s0.086-0.234 0.062-0.356c-0.055-0.274-0.13-1.158 0.234-1.601 0.166-0.202 0.42-0.301 0.776-0.301s0.608 0.098 0.774 0.299c0.357 0.433 0.295 1.276 0.238 1.586-0.072 0.252-0.496 1.87-0.063 3.787 0.774 3.43 3.632 5.048 5.892 5.802 3.939 1.313 6.122 2.838 6.872 4.799 0.689 1.804 0.196 4.17-1.506 7.226h-11.708c-0.179 0-0.344-0.095-0.433-0.25s-0.089-0.345 0-0.5c0.089-0.155 0.254-0.25 0.433-0.25h2.5c0.099 0 0.195-0.029 0.277-0.084l1.5-1c0.139-0.092 0.224-0.247 0.224-0.414s-0.082-0.323-0.221-0.416v0c-0.052-0.036-1.281-0.91-1.281-3.084v-0.001c0.001-0.134 0.058-3.076 3.071-3.506 0.177-0.025 0.327-0.143 0.393-0.309s0.040-0.354-0.071-0.495-0.287-0.212-0.464-0.186c-2.029 0.29-2.993 1.504-3.445 2.471-0.222 0.483-0.372 0.997-0.443 1.524h-6.541c-0.133 0-0.26 0.053-0.354 0.146s-0.146 0.221-0.146 0.354v1c0 0.179-0.095 0.344-0.25 0.433s-0.345 0.089-0.5 0c-0.155-0.089-0.25-0.254-0.25-0.433v-2.284c0-0.104 0.033-0.205 0.093-0.29s0.146-0.148 0.244-0.182c1.164-0.401 2.698-0.952 3.387-1.297 0.398-0.207 0.758-0.483 1.063-0.813v-0c0.545-0.601 0.574-1.092 0.502-1.397-0.262-1.109-2.001-1.237-3.287-1.237zM5.146 12.646c-0.094 0.094-0.146 0.221-0.146 0.354s0.053 0.26 0.146 0.354c0.094 0.094 0.221 0.146 0.354 0.146s0.26-0.053 0.354-0.146c0.094-0.094 0.146-0.221 0.146-0.354s-0.053-0.26-0.146-0.354c-0.094-0.094-0.221-0.146-0.354-0.146s-0.26 0.053-0.354 0.146zM19.121 15.015c-2.158-0.539-3.49-1.406-4.312-2.278 0.366 0.117 0.74 0.203 1.12 0.258 0.384 0.055 0.801 0.103 1.241 0.155 1.773 0.207 3.978 0.464 5.923 1.364 2.236 1.036 3.684 2.714 4.429 5.133 0.482 1.566 0.316 3.132-0.491 4.68 0.012-2.234-0.607-4.151-1.85-5.715-1.349-1.699-3.445-2.942-6.060-3.597zM15.658 17.026c-2.916-0.972-4.674-2.666-5.224-5.034-0.173-0.769-0.219-1.56-0.135-2.344 0.594 0.655 1.535 1.562 2.731 2.277 0.687 1.388 2.258 3.163 5.849 4.061 3.056 0.765 8.012 3.082 7.023 10.017-0.309 0.371-0.637 0.725-0.984 1.061-0.817 0.783-1.705 1.488-2.653 2.106v-0c1.307-2.739 1.585-4.912 0.882-6.752-0.865-2.263-3.245-3.976-7.49-5.391zM23.514 13.607c-1.743-0.807-3.628-1.127-5.275-1.336-1.999-2.747-2.537-5.687-1.433-7.897 0.742-1.486 2.123-2.374 3.694-2.374 1.649 0 2.818 0.654 3.476 1.945 0.315 0.641 0.494 1.341 0.524 2.055 0 4.423 1.452 6.271 2.857 8.059 1.359 1.73 2.643 3.364 2.643 7.441 0 2.654-0.773 4.734-2.298 6.184-1.42 1.35-3.25 1.918-4.635 2.154 0.9-0.607 1.747-1.29 2.53-2.041l-0 0c2.761-2.675 3.757-5.594 2.88-8.444-0.832-2.705-2.456-4.585-4.964-5.746z"></path>
</svg>
