<?xml version="1.0" encoding="utf-8"?>
<svg version="1.1" viewBox="0 0 1200 1200" xmlns="http://www.w3.org/2000/svg" width="150pt" height="150pt">
  <path d="M 187.505 656.249 C 124.181 656.249 97.31 642.667 85.915 631.272 C 75.001 620.358 75.001 608.105 75.001 599.999 C 75.001 589.819 80.532 536.666 106.087 481.299 C 140.227 407.318 194.664 358.674 267.887 336.709 C 272.36 335.365 276.169 332.405 278.575 328.405 C 280.977 324.405 281.801 319.647 280.887 315.073 C 278.829 304.784 276.024 271.659 289.669 255.018 C 295.884 247.431 305.431 243.748 318.751 243.748 C 332.071 243.748 341.567 247.412 347.786 254.967 C 361.18 271.217 358.86 302.835 356.727 314.44 C 354.016 323.89 338.134 384.572 354.368 456.47 C 383.408 585.102 490.552 645.782 575.318 674.04 C 723.028 723.28 804.906 780.467 833.008 854.01 C 858.851 921.65 840.371 1010.37 776.539 1125 L 337.499 1125 C 330.8 1125 324.612 1121.425 321.261 1115.625 C 317.913 1109.824 317.913 1102.675 321.261 1096.875 C 324.612 1091.074 330.799 1087.5 337.499 1087.5 L 431.249 1087.5 C 434.947 1087.503 438.568 1086.41 441.647 1084.359 L 497.897 1046.859 C 503.127 1043.422 506.283 1037.594 506.311 1031.336 C 506.334 1025.078 503.225 1019.222 498.025 1015.742 L 498.025 1015.746 C 496.06 1014.386 449.998 981.629 449.998 900.086 L 449.998 900.043 C 450.028 895.033 452.178 784.704 565.148 768.563 C 571.781 767.614 577.402 763.2 579.898 756.985 C 582.395 750.767 581.382 743.693 577.246 738.423 C 573.11 733.153 566.477 730.489 559.844 731.439 C 483.742 742.306 447.59 787.83 430.664 824.103 C 422.324 842.224 416.723 861.485 414.039 881.251 L 168.749 881.251 C 163.776 881.251 159.007 883.227 155.491 886.743 C 151.976 890.259 149.999 895.028 149.999 900.001 L 149.999 937.501 C 149.999 944.2 146.425 950.387 140.624 953.739 C 134.823 957.086 127.675 957.086 121.874 953.739 C 116.073 950.388 112.499 944.2 112.499 937.501 L 112.499 851.856 C 112.499 847.957 113.718 844.156 115.979 840.981 C 118.241 837.805 121.436 835.414 125.124 834.141 C 168.792 819.094 226.28 798.45 252.124 785.52 C 267.066 777.739 280.546 767.423 291.968 755.036 L 291.968 755.032 C 312.421 732.485 313.483 714.098 310.78 702.641 C 300.97 661.059 235.727 656.25 187.5 656.25 Z M 192.992 474.242 C 189.476 477.758 187.5 482.527 187.5 487.5 C 187.5 492.473 189.476 497.243 192.992 500.758 C 196.508 504.274 201.277 506.25 206.25 506.25 C 211.223 506.25 215.992 504.274 219.508 500.758 C 223.024 497.242 225 492.473 225 487.5 C 225 482.527 223.024 477.758 219.508 474.242 C 215.992 470.727 211.223 468.75 206.25 468.75 C 201.277 468.75 196.508 470.727 192.992 474.242 Z M 717.048 563.054 C 636.112 542.827 586.174 510.319 555.358 477.62 C 569.065 482.003 583.116 485.245 597.362 487.307 C 611.769 489.362 627.386 491.186 643.917 493.112 C 710.397 500.866 793.103 510.514 866.017 544.28 C 949.853 583.12 1004.177 646.072 1032.087 736.76 C 1050.154 795.49 1043.935 854.198 1013.685 912.26 C 1014.122 828.48 990.908 756.602 944.31 697.93 C 893.72 634.228 815.136 587.591 717.05 563.06 Z M 587.175 638.456 C 477.824 602.006 411.913 538.496 391.265 449.676 C 384.777 420.851 383.066 391.16 386.195 361.785 C 408.459 386.355 443.771 420.371 488.615 447.156 C 514.395 499.216 573.305 565.774 707.945 599.426 C 822.555 628.096 1008.391 714.996 971.325 975.056 C 959.754 988.97 947.438 1002.251 934.434 1014.837 C 903.798 1044.193 870.493 1070.63 834.954 1093.814 L 834.954 1093.81 C 883.978 991.09 894.403 909.62 868.04 840.62 C 835.62 755.76 746.37 691.526 587.18 638.46 Z M 881.76 510.261 C 816.4 479.999 745.722 467.991 683.96 460.163 C 608.995 357.143 588.827 246.91 630.214 164.023 C 658.054 108.281 709.836 75 768.754 75 C 830.578 75 874.434 99.539 899.094 147.934 C 910.922 171.98 917.617 198.227 918.754 225 C 918.754 390.86 973.216 460.179 1025.884 527.21 C 1076.86 592.08 1125.005 653.36 1125.005 806.25 C 1125.005 905.76 1096.017 983.783 1038.841 1038.15 C 985.601 1088.771 916.982 1110.056 865.041 1118.927 C 898.795 1096.165 930.541 1070.556 959.924 1042.376 L 959.92 1042.38 C 1063.451 942.08 1100.799 832.59 1067.92 725.74 C 1036.71 624.3 975.815 553.815 881.76 510.26 Z"/>
</svg>